<svg width="264" height="108" viewBox="0 0 264 108" fill="none" xmlns="http://www.w3.org/2000/svg">
<g clip-path="url(#clip0_9508_4)">
<g clip-path="url(#clip1_9508_4)">
<path d="M0.75 29.2501H11.25M10.5 23.2501V27.7501H9V23.2501M6.75 23.2501V27.7501H5.25V23.2501M3 23.2501V27.7501H1.5V23.2501M11.25 21.7501H0.75L5.5945 18.8691C5.71546 18.7913 5.85621 18.75 6 18.75C6.14379 18.75 6.28454 18.7913 6.4055 18.8691L11.25 21.7501Z" stroke="#111111" stroke-width="0.75" stroke-linecap="round" stroke-linejoin="round"/>
</g>
<g clip-path="url(#clip2_9508_4)">
<path d="M25 31.0001H39M38 23.0001V29.0001H36V23.0001M33 23.0001V29.0001H31V23.0001M28 23.0001V29.0001H26V23.0001M39 21.0001H25L31.4593 17.1588C31.6206 17.0551 31.8083 17 32 17C32.1917 17 32.3794 17.0551 32.5407 17.1588L39 21.0001Z" stroke="#111111" stroke-linecap="round" stroke-linejoin="round"/>
</g>
<g clip-path="url(#clip3_9508_4)">
<path d="M53.25 32.7501H70.75M69.5 22.7501V30.2501H67V22.7501M63.25 22.7501V30.2501H60.75V22.7501M57 22.7501V30.2501H54.5V22.7501M70.75 20.2501H53.25L61.3242 15.4485C61.5258 15.3189 61.7604 15.25 62 15.25C62.2396 15.25 62.4742 15.3189 62.6758 15.4485L70.75 20.2501Z" stroke="#111111" stroke-width="1.25" stroke-linecap="round" stroke-linejoin="round"/>
</g>
<g clip-path="url(#clip4_9508_4)">
<path d="M85.5 34.5001H106.5M105 22.5001V31.5001H102V22.5001M97.5 22.5001V31.5001H94.5V22.5001M90 22.5001V31.5001H87V22.5001M106.5 19.5001H85.5L95.189 13.7381C95.4309 13.5827 95.7124 13.5 96 13.5C96.2876 13.5 96.5691 13.5827 96.811 13.7381L106.5 19.5001Z" stroke="#111111" stroke-width="1.5" stroke-linecap="round" stroke-linejoin="round"/>
</g>
<path d="M122 38.0002H150M148 22.0002V34.0002H144V22.0002M138 22.0002V34.0002H134V22.0002M128 22.0002V34.0002H124V22.0002M150 18.0002H122L134.919 10.3175C135.241 10.1102 135.617 10 136 10C136.383 10 136.759 10.1102 137.081 10.3175L150 18.0002Z" stroke="#111111" stroke-width="2" stroke-linecap="round" stroke-linejoin="round"/>
<path d="M166.5 41.5002H201.5M199 21.5002V36.5002H194V21.5002M186.5 21.5002V36.5002H181.5V21.5002M174 21.5002V36.5002H169V21.5002M201.5 16.5002H166.5L182.648 6.89691C183.052 6.63777 183.521 6.5 184 6.5C184.479 6.5 184.948 6.63777 185.352 6.89691L201.5 16.5002Z" stroke="#111111" stroke-width="2.5" stroke-linecap="round" stroke-linejoin="round"/>
<path d="M219 45.0003H261M258 21.0003V39.0003H252V21.0003M243 21.0003V39.0003H237V21.0003M228 21.0003V39.0003H222V21.0003M261 15.0003H219L238.378 3.47629C238.862 3.16533 239.425 3 240 3C240.575 3 241.138 3.16533 241.622 3.47629L261 15.0003Z" stroke="#111111" stroke-width="3" stroke-linecap="round" stroke-linejoin="round"/>
<g clip-path="url(#clip5_9508_4)">
<path d="M1.04251 81.5001C0.834777 81.5001 0.76475 81.2226 0.947605 81.124L5.5945 78.6191C5.71546 78.5413 5.85621 78.5 6 78.5C6.14379 78.5 6.28454 78.5413 6.4055 78.6191L11.0524 81.124C11.2352 81.2226 11.1652 81.5001 10.9575 81.5001H1.04251Z" fill="#111111"/>
<path d="M0.25 89.0001C0.25 88.7239 0.473858 88.5001 0.75 88.5001H11.25C11.5261 88.5001 11.75 88.7239 11.75 89.0001C11.75 89.2762 11.5261 89.5001 11.25 89.5001H0.75C0.473858 89.5001 0.25 89.2762 0.25 89.0001Z" fill="#111111"/>
<path d="M10 87.5001V83.0001H8.5V87.5001H10Z" fill="#111111"/>
<path d="M6.75 83.0001V87.5001H5.25V83.0001H6.75Z" fill="#111111"/>
<path d="M3.5 87.5001V83.0001H2V87.5001H3.5Z" fill="#111111"/>
</g>
<g clip-path="url(#clip6_9508_4)">
<path d="M25.4034 80.6668C25.1229 80.6668 25.0284 80.2922 25.2753 80.1591L31.4595 76.8254C31.6208 76.7218 31.8084 76.6667 32.0002 76.6667C32.1919 76.6667 32.3796 76.7218 32.5408 76.8254L38.7251 80.1591C38.9719 80.2922 38.8774 80.6668 38.5969 80.6668H25.4034Z" fill="#111111"/>
<path d="M24.3335 90.6667C24.3335 90.2985 24.632 90.0001 25.0002 90.0001H39.0002C39.3684 90.0001 39.6668 90.2985 39.6668 90.6667C39.6668 91.0349 39.3684 91.3334 39.0002 91.3334H25.0002C24.632 91.3334 24.3335 91.0349 24.3335 90.6667Z" fill="#111111"/>
<path d="M37.3335 88.6667V82.6667H35.3335V88.6667H37.3335Z" fill="#111111"/>
<path d="M33.0002 82.6667V88.6667H31.0002V82.6667H33.0002Z" fill="#111111"/>
<path d="M28.6668 88.6667V82.6667H26.6668V88.6667H28.6668Z" fill="#111111"/>
</g>
<g clip-path="url(#clip7_9508_4)">
<path d="M53.7241 79.8335C53.3814 79.8335 53.2658 79.3756 53.5676 79.213L61.324 75.0318C61.5256 74.9022 61.7602 74.8333 61.9998 74.8333C62.2395 74.8333 62.4741 74.9022 62.6757 75.0318L70.4321 79.213C70.7338 79.3756 70.6183 79.8335 70.2755 79.8335H53.7241Z" fill="#111111"/>
<path d="M52.4165 92.3334C52.4165 91.8732 52.7896 91.5001 53.2498 91.5001H70.7498C71.2101 91.5001 71.5832 91.8732 71.5832 92.3334C71.5832 92.7937 71.2101 93.1668 70.7498 93.1668H53.2498C52.7896 93.1668 52.4165 92.7937 52.4165 92.3334Z" fill="#111111"/>
<path d="M68.6665 89.8334V82.3334H66.1665V89.8334H68.6665Z" fill="#111111"/>
<path d="M63.2498 82.3334V89.8334H60.7498V82.3334H63.2498Z" fill="#111111"/>
<path d="M57.8332 89.8334V82.3334H55.3332V89.8334H57.8332Z" fill="#111111"/>
</g>
<path d="M86.085 79.0001C85.6696 79.0001 85.5295 78.4452 85.8952 78.248L95.189 73.2381C95.4309 73.0827 95.7124 73 96 73C96.2876 73 96.5691 73.0827 96.811 73.2381L106.105 78.248C106.47 78.4452 106.33 79.0001 105.915 79.0001H86.085Z" fill="#111111"/>
<path d="M84.5 94.0001C84.5 93.4478 84.9477 93.0001 85.5 93.0001H106.5C107.052 93.0001 107.5 93.4478 107.5 94.0001C107.5 94.5524 107.052 95.0001 106.5 95.0001H85.5C84.9477 95.0001 84.5 94.5524 84.5 94.0001Z" fill="#111111"/>
<path d="M104 91.0001V82.0001H101V91.0001H104Z" fill="#111111"/>
<path d="M97.5 82.0001V91.0001H94.5V82.0001H97.5Z" fill="#111111"/>
<path d="M91 91.0001V82.0001H88V91.0001H91Z" fill="#111111"/>
<path d="M122.648 77.3335C122.128 77.3335 121.953 76.6398 122.411 76.3934L134.919 69.6509C135.241 69.4436 135.616 69.3333 136 69.3333C136.383 69.3333 136.759 69.4436 137.081 69.6509L149.589 76.3934C150.046 76.6398 149.871 77.3335 149.352 77.3335H122.648Z" fill="#111111"/>
<path d="M120.667 97.3335C120.667 96.5971 121.263 96.0002 122 96.0002H150C150.736 96.0002 151.333 96.5971 151.333 97.3335C151.333 98.0699 150.736 98.6668 150 98.6668H122C121.263 98.6668 120.667 98.0699 120.667 97.3335Z" fill="#111111"/>
<path d="M146.667 93.3335V81.3335H142.667V93.3335H146.667Z" fill="#111111"/>
<path d="M138 81.3335V93.3335H134V81.3335H138Z" fill="#111111"/>
<path d="M129.333 93.3335V81.3335H125.333V93.3335H129.333Z" fill="#111111"/>
<path d="M167.211 75.6669C166.588 75.6669 166.378 74.8345 166.926 74.5387L182.648 66.0636C183.052 65.8044 183.521 65.6667 184 65.6667C184.479 65.6667 184.949 65.8044 185.352 66.0636L201.074 74.5387C201.623 74.8345 201.413 75.6669 200.789 75.6669H167.211Z" fill="#111111"/>
<path d="M164.833 100.667C164.833 99.7464 165.58 99.0002 166.5 99.0002H201.5C202.421 99.0002 203.167 99.7464 203.167 100.667C203.167 101.587 202.421 102.334 201.5 102.334H166.5C165.58 102.334 164.833 101.587 164.833 100.667Z" fill="#111111"/>
<path d="M197.333 95.6669V80.6669H192.333V95.6669H197.333Z" fill="#111111"/>
<path d="M186.5 80.6669V95.6669H181.5V80.6669H186.5Z" fill="#111111"/>
<path d="M175.667 95.6669V80.6669H170.667V95.6669H175.667Z" fill="#111111"/>
<path d="M220.17 74.0003C219.339 74.0003 219.059 72.8904 219.79 72.4961L238.378 62.4763C238.862 62.1653 239.425 62 240 62C240.575 62 241.138 62.1653 241.622 62.4763L260.21 72.4961C260.941 72.8904 260.661 74.0003 259.83 74.0003H220.17Z" fill="#111111"/>
<path d="M217 104C217 102.896 217.895 102 219 102H261C262.105 102 263 102.896 263 104C263 105.105 262.105 106 261 106H219C217.895 106 217 105.105 217 104Z" fill="#111111"/>
<path d="M256 98.0002V80.0002H250V98.0002H256Z" fill="#111111"/>
<path d="M243 80.0002V98.0002H237V80.0002H243Z" fill="#111111"/>
<path d="M230 98.0002V80.0002H224V98.0002H230Z" fill="#111111"/>
</g>
<defs>
<clipPath id="clip0_9508_4">
<rect width="264" height="108" rx="5" fill="white"/>
</clipPath>
<clipPath id="clip1_9508_4">
<rect width="12" height="12" fill="white" transform="translate(0 18)"/>
</clipPath>
<clipPath id="clip2_9508_4">
<rect width="16" height="16" fill="white" transform="translate(24 16)"/>
</clipPath>
<clipPath id="clip3_9508_4">
<rect width="20" height="20" fill="white" transform="translate(52 14)"/>
</clipPath>
<clipPath id="clip4_9508_4">
<rect width="24" height="24" fill="white" transform="translate(84 12)"/>
</clipPath>
<clipPath id="clip5_9508_4">
<rect width="12" height="12" fill="white" transform="translate(0 78)"/>
</clipPath>
<clipPath id="clip6_9508_4">
<rect width="16" height="16" fill="white" transform="translate(24 76)"/>
</clipPath>
<clipPath id="clip7_9508_4">
<rect width="20" height="20" fill="white" transform="translate(52 74)"/>
</clipPath>
</defs>
</svg>
