<svg width="264" height="108" viewBox="0 0 264 108" fill="none" xmlns="http://www.w3.org/2000/svg">
<g clip-path="url(#clip0_1998_443)">
<path d="M7.09805 18.75L7.09813 18.375H7.09805V18.75ZM7.58729 18.9549L7.85391 18.6912L7.85383 18.6911L7.58729 18.9549ZM10.2975 21.6951L10.5642 21.4315L10.5641 21.4314L10.2975 21.6951ZM10.5001 22.1898H10.8751V22.1897L10.5001 22.1898ZM10.5 22.875C10.7071 22.875 10.875 22.7071 10.875 22.5C10.875 22.2929 10.7071 22.125 10.5 22.125V22.875ZM3.37098 22.704C3.24539 22.5393 3.01008 22.5076 2.8454 22.6332C2.68072 22.7588 2.64902 22.9941 2.77461 23.1588L3.37098 22.704ZM3.74909 23.2494V22.8744C3.74412 22.8744 3.73916 22.8745 3.73419 22.8747L3.74909 23.2494ZM3.75055 21.0007V21.3757C3.7556 21.3757 3.76066 21.3756 3.76571 21.3754L3.75055 21.0007ZM4.12849 21.5458C4.25397 21.7106 4.48926 21.7425 4.65403 21.617C4.8188 21.4915 4.85066 21.2562 4.72518 21.0914L4.12849 21.5458ZM4.125 23.25C4.125 23.0429 3.95711 22.875 3.75 22.875C3.54289 22.875 3.375 23.0429 3.375 23.25H4.125ZM3.375 24C3.375 24.2071 3.54289 24.375 3.75 24.375C3.95711 24.375 4.125 24.2071 4.125 24H3.375ZM4.125 20.2497C4.12485 20.0426 3.95683 19.8748 3.74973 19.875C3.54262 19.8752 3.37485 20.0432 3.375 20.2503L4.125 20.2497ZM5.25 25.125C5.04289 25.125 4.875 25.2929 4.875 25.5C4.875 25.7071 5.04289 25.875 5.25 25.875V25.125ZM8.25 25.875C8.45711 25.875 8.625 25.7071 8.625 25.5C8.625 25.2929 8.45711 25.125 8.25 25.125V25.875ZM3.75 26.625C3.54289 26.625 3.375 26.7929 3.375 27C3.375 27.2071 3.54289 27.375 3.75 27.375V26.625ZM8.25 27.375C8.45711 27.375 8.625 27.2071 8.625 27C8.625 26.7929 8.45711 26.625 8.25 26.625V27.375ZM10.5001 28.55H10.1251C10.1251 28.7334 9.97912 28.875 9.80777 28.875V29.25V29.625C10.4011 29.625 10.8751 29.1398 10.8751 28.55H10.5001ZM9.80777 29.25V28.875H2.19231V29.25V29.625H9.80777V29.25ZM2.19231 29.25V28.875C2.02096 28.875 1.875 28.7334 1.875 28.55H1.5H1.125C1.125 29.1398 1.59896 29.625 2.19231 29.625V29.25ZM1.5 28.55H1.875V19.45H1.5H1.125V28.55H1.5ZM1.5 19.45H1.875C1.875 19.2666 2.02096 19.125 2.19231 19.125V18.75V18.375C1.59896 18.375 1.125 18.8602 1.125 19.45H1.5ZM2.19231 18.75V19.125H7.09805V18.75V18.375H2.19231V18.75ZM7.09805 18.75L7.09797 19.125C7.18072 19.125 7.26093 19.1582 7.32074 19.2186L7.58729 18.9549L7.85383 18.6911C7.65407 18.4892 7.38235 18.3751 7.09813 18.375L7.09805 18.75ZM7.58729 18.9549L7.32066 19.2186L10.0308 21.9588L10.2975 21.6951L10.5641 21.4314L7.85391 18.6912L7.58729 18.9549ZM10.2975 21.6951L10.0308 21.9587C10.0907 22.0194 10.1251 22.1024 10.1251 22.1899L10.5001 22.1898L10.8751 22.1897C10.875 21.9061 10.7637 21.6334 10.5642 21.4315L10.2975 21.6951ZM10.5001 22.1898H10.1251V28.55H10.5001H10.8751V22.1898H10.5001ZM10.5 22.5V22.125H7.5V22.5V22.875H10.5V22.5ZM7.5 22.5V22.125C7.29289 22.125 7.125 21.9571 7.125 21.75H6.75H6.375C6.375 22.3713 6.87868 22.875 7.5 22.875V22.5ZM6.75 21.75H7.125V18.75H6.75H6.375V21.75H6.75ZM3.0728 22.9314L2.77461 23.1588C3.0088 23.4659 3.37812 23.6394 3.76399 23.6241L3.74909 23.2494L3.73419 22.8747C3.59229 22.8803 3.45676 22.8165 3.37098 22.704L3.0728 22.9314ZM3.74909 23.2494V23.6244C4.02959 23.6244 4.29799 23.5396 4.50476 23.3848C4.71158 23.23 4.875 22.9872 4.875 22.6872H4.5H4.125C4.125 22.6975 4.12026 22.7358 4.05526 22.7845C3.99022 22.8332 3.88318 22.8744 3.74909 22.8744V23.2494ZM4.5 22.6872H4.875C4.875 22.3876 4.71228 22.1449 4.50556 21.9899C4.299 21.835 4.03084 21.7504 3.75055 21.7504V22.1254V22.5004C3.88447 22.5004 3.99104 22.5415 4.05565 22.5899C4.12011 22.6383 4.125 22.6765 4.125 22.6872H4.5ZM3.75055 22.1254V21.7504C3.61671 21.7504 3.50979 21.7092 3.4448 21.6605C3.3799 21.6119 3.375 21.5735 3.375 21.5628H3H2.625C2.625 21.8629 2.78826 22.1058 2.99508 22.2607C3.20181 22.4156 3.47017 22.5004 3.75055 22.5004V22.1254ZM3 21.5628H3.375C3.375 21.5523 3.37983 21.514 3.44467 21.4654C3.50963 21.4168 3.61658 21.3757 3.75055 21.3757V21.0007V20.6257C3.47029 20.6257 3.20197 20.7103 2.99521 20.865C2.78833 21.0199 2.625 21.2627 2.625 21.5628H3ZM3.75055 21.0007L3.76571 21.3754C3.90747 21.3696 4.04289 21.4334 4.12849 21.5458L4.42684 21.3186L4.72518 21.0914C4.49107 20.784 4.12147 20.6103 3.73538 20.626L3.75055 21.0007ZM3.75 23.25H3.375V24H3.75H4.125V23.25H3.75ZM3.75 20.25L3.375 20.2503L3.37555 21.0009L3.75055 21.0007L4.12555 21.0004L4.125 20.2497L3.75 20.25ZM5.25 25.5V25.875H8.25V25.5V25.125H5.25V25.5ZM3.75 27V27.375H8.25V27V26.625H3.75V27Z" fill="#111111"/>
<path d="M33.4641 17L33.4642 16.5H33.4641V17ZM34.1164 17.2732L34.4719 16.9216L34.4718 16.9214L34.1164 17.2732ZM37.73 20.9268L38.0856 20.5754L38.0855 20.5752L37.73 20.9268ZM38.0001 21.5864H38.5001V21.5863L38.0001 21.5864ZM38 22.5C38.2761 22.5 38.5 22.2761 38.5 22C38.5 21.7239 38.2761 21.5 38 21.5V22.5ZM28.4946 22.272C28.3272 22.0524 28.0134 22.0101 27.7939 22.1776C27.5743 22.3451 27.532 22.6588 27.6995 22.8784L28.4946 22.272ZM28.9988 22.9991V22.4991C28.9922 22.4991 28.9855 22.4993 28.9789 22.4995L28.9988 22.9991ZM29.0007 20.0009V20.5009C29.0075 20.5009 29.0142 20.5007 29.0209 20.5005L29.0007 20.0009ZM29.5047 20.7278C29.672 20.9475 29.9857 20.9899 30.2054 20.8226C30.4251 20.6553 30.4675 20.3416 30.3002 20.1219L29.5047 20.7278ZM29.5 23C29.5 22.7239 29.2761 22.5 29 22.5C28.7239 22.5 28.5 22.7239 28.5 23H29.5ZM28.5 24C28.5 24.2761 28.7239 24.5 29 24.5C29.2761 24.5 29.5 24.2761 29.5 24H28.5ZM29.5 19C29.5 18.7239 29.2761 18.5 29 18.5C28.7239 18.5 28.5 18.7239 28.5 19H29.5ZM28.5 20C28.5 20.2761 28.7239 20.5 29 20.5C29.2761 20.5 29.5 20.2761 29.5 20H28.5ZM31 25.5C30.7239 25.5 30.5 25.7239 30.5 26C30.5 26.2761 30.7239 26.5 31 26.5V25.5ZM35 26.5C35.2761 26.5 35.5 26.2761 35.5 26C35.5 25.7239 35.2761 25.5 35 25.5V26.5ZM29 27.5C28.7239 27.5 28.5 27.7239 28.5 28C28.5 28.2761 28.7239 28.5 29 28.5V27.5ZM35 28.5C35.2761 28.5 35.5 28.2761 35.5 28C35.5 27.7239 35.2761 27.5 35 27.5V28.5ZM38.0001 30.0667H37.5001C37.5001 30.3112 37.3055 30.5 37.077 30.5V31V31.5C37.8682 31.5 38.5001 30.8531 38.5001 30.0667H38.0001ZM37.077 31V30.5H26.9231V31V31.5H37.077V31ZM26.9231 31V30.5C26.6946 30.5 26.5 30.3112 26.5 30.0667H26H25.5C25.5 30.8531 26.1319 31.5 26.9231 31.5V31ZM26 30.0667H26.5V17.9333H26H25.5V30.0667H26ZM26 17.9333H26.5C26.5 17.6888 26.6946 17.5 26.9231 17.5V17V16.5C26.1319 16.5 25.5 17.1469 25.5 17.9333H26ZM26.9231 17V17.5H33.4641V17V16.5H26.9231V17ZM33.4641 17L33.464 17.5C33.5743 17.5 33.6812 17.5443 33.761 17.6249L34.1164 17.2732L34.4718 16.9214C34.2054 16.6523 33.8431 16.5001 33.4642 16.5L33.4641 17ZM34.1164 17.2732L33.7609 17.6248L37.3745 21.2784L37.73 20.9268L38.0855 20.5752L34.4719 16.9216L34.1164 17.2732ZM37.73 20.9268L37.3743 21.2783C37.4542 21.3591 37.5001 21.4699 37.5001 21.5865L38.0001 21.5864L38.5001 21.5863C38.5 21.2082 38.3516 20.8445 38.0856 20.5754L37.73 20.9268ZM38.0001 21.5864H37.5001V30.0667H38.0001H38.5001V21.5864H38.0001ZM38 22V21.5H34V22V22.5H38V22ZM34 22V21.5C33.7239 21.5 33.5 21.2761 33.5 21H33H32.5C32.5 21.8284 33.1716 22.5 34 22.5V22ZM33 21H33.5V17H33H32.5V21H33ZM28.0971 22.5752L27.6995 22.8784C28.0117 23.2878 28.5042 23.5192 29.0187 23.4987L28.9988 22.9991L28.9789 22.4995C28.7897 22.5071 28.609 22.4219 28.4946 22.272L28.0971 22.5752ZM28.9988 22.9991V23.4991C29.3728 23.4991 29.7307 23.3862 30.0064 23.1798C30.2821 22.9733 30.5 22.6496 30.5 22.2496H30H29.5C29.5 22.2633 29.4937 22.3144 29.407 22.3793C29.3203 22.4442 29.1776 22.4991 28.9988 22.4991V22.9991ZM30 22.2496H30.5C30.5 21.8501 30.283 21.5265 30.0074 21.3198C29.732 21.1133 29.3745 21.0005 29.0007 21.0005V21.5005V22.0005C29.1793 22.0005 29.3214 22.0553 29.4075 22.1199C29.4935 22.1844 29.5 22.2353 29.5 22.2496H30ZM29.0007 21.5005V21.0005C28.8223 21.0005 28.6797 20.9456 28.5931 20.8807C28.5065 20.8158 28.5 20.7646 28.5 20.7504H28H27.5C27.5 21.1505 27.7177 21.4743 27.9934 21.681C28.2691 21.8875 28.6269 22.0005 29.0007 22.0005V21.5005ZM28 20.7504H28.5C28.5 20.7364 28.5064 20.6853 28.5929 20.6206C28.6795 20.5557 28.8221 20.5009 29.0007 20.5009V20.0009V19.5009C28.6271 19.5009 28.2693 19.6137 27.9936 19.82C27.7178 20.0265 27.5 20.3503 27.5 20.7504H28ZM29.0007 20.0009L29.0209 20.5005C29.21 20.4928 29.3905 20.5779 29.5047 20.7278L29.9025 20.4248L30.3002 20.1219C29.9881 19.712 29.4953 19.4805 28.9805 19.5013L29.0007 20.0009ZM29 23H28.5V24H29H29.5V23H29ZM29 19H28.5V20H29H29.5V19H29ZM31 26V26.5H35V26V25.5H31V26ZM29 28V28.5H35V28V27.5H29V28Z" fill="#111111"/>
<path d="M69.5 21.5H64.5C63.8096 21.5 63.25 20.9404 63.25 20.25V15.25M57.1213 22.219C57.388 22.5686 57.8087 22.7664 58.2485 22.7489C58.9395 22.7489 59.5 22.3292 59.5 21.812C59.5 21.2947 58.9413 20.8756 58.2509 20.8756C57.5605 20.8756 57 20.4559 57 19.9381C57 19.4202 57.5605 19.0011 58.2509 19.0011C58.6908 18.9833 59.1116 19.1812 59.3781 19.5311M58.25 22.75V24M58.25 17.75V19M60.75 26.5H65.75M58.25 29H65.75M69.5001 31.5833C69.5001 32.2277 68.9835 32.75 68.3463 32.75H55.6539C55.0166 32.75 54.5 32.2277 54.5 31.5833V16.4167C54.5 15.7723 55.0166 15.25 55.6539 15.25H63.8301C64.1359 15.2501 64.4292 15.3729 64.6455 15.5914L69.1624 20.1586C69.3786 20.3773 69.5001 20.6738 69.5001 20.983V31.5833Z" stroke="#111111" stroke-width="1.25" stroke-linecap="round" stroke-linejoin="round"/>
<path d="M105 20H99.4C98.6268 20 98 19.3732 98 18.6V13M90.1941 23.1504C90.6207 23.7098 91.2939 24.0263 91.9976 23.9983C93.1031 23.9983 94 23.3267 94 22.4992C94 21.6716 93.106 21.001 92.0015 21.001C90.8969 21.001 90 20.3294 90 19.5009C90 18.6724 90.8969 18.0018 92.0015 18.0018C92.7053 17.9733 93.3786 18.2899 93.8049 18.8497M92 24V25M92 17V18M95 28H99.9231M91 31H101M105 33.5333C105 34.3434 104.38 35 103.616 35H88.3846C87.6199 35 87 34.3434 87 33.5333V14.4667C87 13.6566 87.6199 13 88.3846 13H98.1961C98.5631 13.0001 98.915 13.1545 99.1746 13.4292L104.595 19.1708C104.854 19.4457 105 19.8185 105 20.2072V33.5333Z" stroke="#111111" stroke-width="1.5" stroke-linecap="round" stroke-linejoin="round"/>
<path d="M148 18.6667H140.533C139.502 18.6667 138.667 17.8309 138.667 16.8V9.33334M128.259 22.8672C128.828 23.613 129.725 24.035 130.663 23.9977C132.138 23.9977 133.333 23.1023 133.333 21.9989C133.333 20.8954 132.141 20.0013 130.669 20.0013C129.196 20.0013 128 19.1059 128 18.0012C128 16.8965 129.196 16.0024 130.669 16.0024C131.607 15.9644 132.505 16.3865 133.073 17.1329M130.667 24V25.3333M130.667 14.6667V16M134.667 29.3333H141.231M129.333 33.3333H142.667M148 36.7111C148 37.7911 147.174 38.6667 146.154 38.6667H125.846C124.827 38.6667 124 37.7911 124 36.7111V11.2889C124 10.2089 124.827 9.33334 125.846 9.33334H138.928C139.417 9.33345 139.887 9.5393 140.233 9.90567L147.46 17.561C147.806 17.9276 148 18.4247 148 18.9429V36.7111Z" stroke="#111111" stroke-width="2" stroke-linecap="round" stroke-linejoin="round"/>
<path d="M199 17.3333H189.667C188.378 17.3333 187.333 16.2887 187.333 15V5.66666M174.324 22.5839C175.035 23.5163 176.156 24.0438 177.329 23.9971C179.172 23.9971 180.667 22.8779 180.667 21.4986C180.667 20.1193 179.177 19.0017 177.336 19.0017C175.495 19.0017 174 17.8824 174 16.5015C174 15.1206 175.495 14.0029 177.336 14.0029C178.509 13.9555 179.631 14.4831 180.342 15.4162M177.333 24V25.6667M177.333 12.3333V14M182.333 30.6667H190.538M175.667 35.6667H192.333M199 39.8889C199 41.2389 197.967 42.3333 196.693 42.3333H171.308C170.033 42.3333 169 41.2389 169 39.8889V8.1111C169 6.76107 170.033 5.66666 171.308 5.66666H187.66C188.272 5.66679 188.858 5.92411 189.291 6.38206L198.325 15.9512C198.757 16.4095 199 17.0308 199 17.6787V39.8889Z" stroke="#111111" stroke-width="2.5" stroke-linecap="round" stroke-linejoin="round"/>
<path d="M244.392 2L244.393 0.5H244.392V2ZM246.349 2.85849L247.44 1.82877L247.44 1.82842L246.349 2.85849ZM257.19 14.3415L258.281 13.3121L258.281 13.3118L257.19 14.3415ZM258 16.4144H259.5V16.4141L258 16.4144ZM258 17.5C258.828 17.5 259.5 16.8284 259.5 16C259.5 15.1716 258.828 14.5 258 14.5V17.5ZM229.581 21.3911C229.079 20.7324 228.137 20.6056 227.479 21.108C226.82 21.6103 226.693 22.5516 227.196 23.2103L229.581 21.3911ZM231.995 23.9966V22.4966C231.975 22.4966 231.955 22.497 231.936 22.4978L231.995 23.9966ZM232.003 12.0035V13.5035C232.023 13.5035 232.043 13.5031 232.064 13.5023L232.003 12.0035ZM234.416 14.6081C234.918 15.2672 235.859 15.3947 236.519 14.8928C237.178 14.3909 237.305 13.4497 236.803 12.7906L234.416 14.6081ZM233.5 24C233.5 23.1716 232.828 22.5 232 22.5C231.172 22.5 230.5 23.1716 230.5 24H233.5ZM230.5 26C230.5 26.8284 231.172 27.5 232 27.5C232.828 27.5 233.5 26.8284 233.5 26H230.5ZM233.5 10C233.5 9.17157 232.828 8.5 232 8.5C231.172 8.5 230.5 9.17157 230.5 10H233.5ZM230.5 12C230.5 12.8284 231.172 13.5 232 13.5C232.828 13.5 233.5 12.8284 233.5 12H230.5ZM238 30.5C237.172 30.5 236.5 31.1716 236.5 32C236.5 32.8284 237.172 33.5 238 33.5V30.5ZM247.846 33.5C248.675 33.5 249.346 32.8284 249.346 32C249.346 31.1716 248.675 30.5 247.846 30.5V33.5ZM230 36.5C229.172 36.5 228.5 37.1716 228.5 38C228.5 38.8284 229.172 39.5 230 39.5V36.5ZM250 39.5C250.828 39.5 251.5 38.8284 251.5 38C251.5 37.1716 250.828 36.5 250 36.5V39.5ZM258 43.0667H256.5C256.5 43.9408 255.852 44.5 255.231 44.5V46V47.5C257.669 47.5 259.5 45.4326 259.5 43.0667H258ZM255.231 46V44.5H224.769V46V47.5H255.231V46ZM224.769 46V44.5C224.148 44.5 223.5 43.9408 223.5 43.0667H222H220.5C220.5 45.4326 222.331 47.5 224.769 47.5V46ZM222 43.0667H223.5V4.93333H222H220.5V43.0667H222ZM222 4.93333H223.5C223.5 4.05921 224.148 3.5 224.769 3.5V2V0.5C222.331 0.5 220.5 2.56739 220.5 4.93333H222ZM224.769 2V3.5H244.392V2V0.5H224.769V2ZM244.392 2L244.392 3.5C244.7 3.50007 245.013 3.62871 245.259 3.88855L246.349 2.85849L247.44 1.82842C246.647 0.989172 245.553 0.500262 244.393 0.5L244.392 2ZM246.349 2.85849L245.258 3.88821L256.099 15.3712L257.19 14.3415L258.281 13.3118L247.44 1.82877L246.349 2.85849ZM257.19 14.3415L256.099 15.3709C256.347 15.6338 256.5 16.0079 256.5 16.4147L258 16.4144L259.5 16.4141C259.5 15.2661 259.07 14.149 258.281 13.3121L257.19 14.3415ZM258 16.4144H256.5V43.0667H258H259.5V16.4144H258ZM258 16V14.5H246.8V16V17.5H258V16ZM246.8 16V14.5C246.082 14.5 245.5 13.918 245.5 13.2H244H242.5C242.5 15.5748 244.425 17.5 246.8 17.5V16ZM244 13.2H245.5V2H244H242.5V13.2H244ZM228.388 22.3007L227.196 23.2103C228.346 24.7184 230.159 25.5708 232.055 25.4954L231.995 23.9966L231.936 22.4978C231.016 22.5343 230.137 22.1207 229.581 21.3911L228.388 22.3007ZM231.995 23.9966V25.4966C233.394 25.4966 234.717 25.0738 235.726 24.3189C236.734 23.5638 237.5 22.4054 237.5 20.9983H236H234.5C234.5 21.2464 234.369 21.5871 233.928 21.9174C233.486 22.2478 232.808 22.4966 231.995 22.4966V23.9966ZM236 20.9983H237.5C237.5 19.593 236.737 18.4349 235.73 17.6794C234.723 16.9243 233.4 16.502 232.003 16.502V18.002V19.502C232.815 19.502 233.491 19.7503 233.93 20.0796C234.369 20.4085 234.5 20.7485 234.5 20.9983H236ZM232.003 18.002V16.502C231.191 16.502 230.514 16.2534 230.072 15.9229C229.632 15.5926 229.5 15.2515 229.5 15.0018H228H226.5C226.5 16.4092 227.265 17.5681 228.274 18.3237C229.282 19.079 230.605 19.502 232.003 19.502V18.002ZM228 15.0018H229.5C229.5 14.7524 229.631 14.4118 230.072 14.0821C230.513 13.7519 231.191 13.5035 232.003 13.5035V12.0035V10.5035C230.606 10.5035 229.282 10.9257 228.274 11.6805C227.265 12.4356 226.5 13.5941 226.5 15.0018H228ZM232.003 12.0035L232.064 13.5023C232.983 13.4651 233.861 13.8786 234.416 14.6081L235.61 13.6994L236.803 12.7906C235.654 11.281 233.839 10.428 231.942 10.5048L232.003 12.0035ZM232 24H230.5V26H232H233.5V24H232ZM232 10H230.5V12H232H233.5V10H232ZM238 32V33.5H247.846V32V30.5H238V32ZM230 38V39.5H250V38V36.5H230V38Z" fill="#111111"/>
<path d="M10.78 80.925L8.075 78.22C7.93387 78.0802 7.74363 78.0013 7.545 78H1.75C1.55109 78 1.36032 78.079 1.21967 78.2197C1.07902 78.3603 1 78.5511 1 78.75V89.25C1 89.4489 1.07902 89.6397 1.21967 89.7803C1.36032 89.921 1.55109 90 1.75 90H10.75C10.8163 90 10.8799 89.9737 10.9268 89.9268C10.9737 89.8799 11 89.8163 11 89.75V81.455C10.9987 81.2564 10.9198 81.0661 10.78 80.925ZM4.91 83.59L3.225 82.96C2.99395 82.851 2.80117 82.6748 2.67183 82.4544C2.54248 82.2341 2.4826 81.9799 2.5 81.725C2.49858 81.4093 2.61526 81.1045 2.82712 80.8704C3.03898 80.6363 3.33071 80.4899 3.645 80.46C3.67458 80.4552 3.70145 80.44 3.72072 80.417C3.74 80.3941 3.75039 80.365 3.75 80.335V80C3.75 79.8674 3.80268 79.7402 3.89645 79.6464C3.99021 79.5527 4.11739 79.5 4.25 79.5C4.38261 79.5 4.50979 79.5527 4.60355 79.6464C4.69732 79.7402 4.75 79.8674 4.75 80V80.315C4.75 80.3482 4.76317 80.3799 4.78661 80.4034C4.81005 80.4268 4.84185 80.44 4.875 80.44H5.5C5.63261 80.44 5.75979 80.4927 5.85355 80.5864C5.94732 80.6802 6 80.8074 6 80.94C6 81.0726 5.94732 81.1998 5.85355 81.2936C5.75979 81.3873 5.63261 81.44 5.5 81.44H3.94C3.5 81.44 3.5 81.655 3.5 81.725C3.49202 81.8358 3.52395 81.9457 3.59 82.035L5.275 82.665C5.50605 82.774 5.69883 82.9502 5.82817 83.1706C5.95752 83.3909 6.0174 83.6451 6 83.9C6.00142 84.2157 5.88474 84.5205 5.67288 84.7546C5.46102 84.9887 5.16929 85.1351 4.855 85.165C4.82542 85.1698 4.79855 85.185 4.77928 85.208C4.76 85.2309 4.74961 85.26 4.75 85.29V85.625C4.75 85.7576 4.69732 85.8848 4.60355 85.9786C4.50979 86.0723 4.38261 86.125 4.25 86.125C4.11739 86.125 3.99021 86.0723 3.89645 85.9786C3.80268 85.8848 3.75 85.7576 3.75 85.625V85.315C3.75 85.2818 3.73683 85.2501 3.71339 85.2266C3.68995 85.2032 3.65815 85.19 3.625 85.19H3C2.86739 85.19 2.74021 85.1373 2.64645 85.0436C2.55268 84.9498 2.5 84.8226 2.5 84.69C2.5 84.5574 2.55268 84.4302 2.64645 84.3364C2.74021 84.2427 2.86739 84.19 3 84.19H4.56C5 84.19 5 83.97 5 83.9C5.00798 83.7892 4.97605 83.6793 4.91 83.59ZM9.25 85.375C9.34946 85.375 9.44484 85.4145 9.51517 85.4848C9.58549 85.5552 9.625 85.6505 9.625 85.75C9.625 85.8495 9.58549 85.9448 9.51517 86.0152C9.44484 86.0855 9.34946 86.125 9.25 86.125H6.75C6.65054 86.125 6.55516 86.0855 6.48484 86.0152C6.41451 85.9448 6.375 85.8495 6.375 85.75C6.375 85.6505 6.41451 85.5552 6.48484 85.4848C6.55516 85.4145 6.65054 85.375 6.75 85.375H9.25ZM7.375 83.5C7.3763 83.4009 7.41622 83.3063 7.48627 83.2363C7.55631 83.1662 7.65095 83.1263 7.75 83.125H9.25C9.34946 83.125 9.44484 83.1645 9.51517 83.2348C9.58549 83.3052 9.625 83.4005 9.625 83.5C9.625 83.5995 9.58549 83.6948 9.51517 83.7652C9.44484 83.8355 9.34946 83.875 9.25 83.875H7.75C7.65095 83.8737 7.55631 83.8338 7.48627 83.7637C7.41622 83.6937 7.3763 83.5991 7.375 83.5ZM9.25 87.625C9.34946 87.625 9.44484 87.6645 9.51517 87.7348C9.58549 87.8052 9.625 87.9005 9.625 88C9.625 88.0995 9.58549 88.1948 9.51517 88.2652C9.44484 88.3355 9.34946 88.375 9.25 88.375H4.25C4.15054 88.375 4.05516 88.3355 3.98483 88.2652C3.91451 88.1948 3.875 88.0995 3.875 88C3.875 87.9005 3.91451 87.8052 3.98483 87.7348C4.05516 87.6645 4.15054 87.625 4.25 87.625H9.25Z" fill="#111111"/>
<path d="M38.3735 79.9L34.7668 76.2933C34.5787 76.107 34.325 76.0017 34.0602 76H26.3335C26.0683 76 25.8139 76.1054 25.6264 76.2929C25.4389 76.4804 25.3335 76.7348 25.3335 77V91C25.3335 91.2652 25.4389 91.5196 25.6264 91.7071C25.8139 91.8946 26.0683 92 26.3335 92H38.3335C38.4219 92 38.5067 91.9649 38.5692 91.9024C38.6317 91.8399 38.6668 91.7551 38.6668 91.6667V80.6067C38.6652 80.3418 38.5599 80.0882 38.3735 79.9ZM30.5468 83.4533L28.3002 82.6133C27.9921 82.4679 27.7351 82.233 27.5626 81.9392C27.3901 81.6455 27.3103 81.3065 27.3335 80.9667C27.3316 80.5457 27.4872 80.1393 27.7697 79.8272C28.0521 79.5151 28.4411 79.3199 28.8602 79.28C28.8996 79.2736 28.9354 79.2533 28.9611 79.2227C28.9868 79.1921 29.0007 79.1533 29.0002 79.1133V78.6667C29.0002 78.4899 29.0704 78.3203 29.1954 78.1953C29.3204 78.0702 29.49 78 29.6668 78C29.8436 78 30.0132 78.0702 30.1382 78.1953C30.2633 78.3203 30.3335 78.4899 30.3335 78.6667V79.0867C30.3335 79.1309 30.3511 79.1733 30.3823 79.2045C30.4136 79.2358 30.456 79.2533 30.5002 79.2533H31.3335C31.5103 79.2533 31.6799 79.3236 31.8049 79.4486C31.9299 79.5736 32.0002 79.7432 32.0002 79.92C32.0002 80.0968 31.9299 80.2664 31.8049 80.3914C31.6799 80.5164 31.5103 80.5867 31.3335 80.5867H29.2535C28.6668 80.5867 28.6668 80.8733 28.6668 80.9667C28.6562 81.1144 28.6988 81.261 28.7868 81.38L31.0335 82.22C31.3416 82.3654 31.5986 82.6003 31.7711 82.8941C31.9435 83.1879 32.0234 83.5268 32.0002 83.8667C32.0021 84.2876 31.8465 84.694 31.564 85.0061C31.2815 85.3182 30.8925 85.5134 30.4735 85.5533C30.4341 85.5597 30.3982 85.5801 30.3725 85.6107C30.3468 85.6412 30.333 85.6801 30.3335 85.72V86.1667C30.3335 86.3435 30.2633 86.513 30.1382 86.6381C30.0132 86.7631 29.8436 86.8333 29.6668 86.8333C29.49 86.8333 29.3204 86.7631 29.1954 86.6381C29.0704 86.513 29.0002 86.3435 29.0002 86.1667V85.7533C29.0002 85.7091 28.9826 85.6667 28.9513 85.6355C28.9201 85.6042 28.8777 85.5867 28.8335 85.5867H28.0002C27.8234 85.5867 27.6538 85.5164 27.5288 85.3914C27.4037 85.2664 27.3335 85.0968 27.3335 84.92C27.3335 84.7432 27.4037 84.5736 27.5288 84.4486C27.6538 84.3236 27.8234 84.2533 28.0002 84.2533H30.0802C30.6668 84.2533 30.6668 83.96 30.6668 83.8667C30.6775 83.719 30.6349 83.5724 30.5468 83.4533ZM36.3335 85.8333C36.4661 85.8333 36.5933 85.886 36.687 85.9798C36.7808 86.0735 36.8335 86.2007 36.8335 86.3333C36.8335 86.4659 36.7808 86.5931 36.687 86.6869C36.5933 86.7807 36.4661 86.8333 36.3335 86.8333H33.0002C32.8676 86.8333 32.7404 86.7807 32.6466 86.6869C32.5528 86.5931 32.5002 86.4659 32.5002 86.3333C32.5002 86.2007 32.5528 86.0735 32.6466 85.9798C32.7404 85.886 32.8676 85.8333 33.0002 85.8333H36.3335ZM33.8335 83.3333C33.8352 83.2013 33.8885 83.0751 33.9819 82.9817C34.0752 82.8883 34.2014 82.8351 34.3335 82.8333H36.3335C36.4661 82.8333 36.5933 82.886 36.687 82.9798C36.7808 83.0735 36.8335 83.2007 36.8335 83.3333C36.8335 83.4659 36.7808 83.5931 36.687 83.6869C36.5933 83.7807 36.4661 83.8333 36.3335 83.8333H34.3335C34.2014 83.8316 34.0752 83.7784 33.9819 83.685C33.8885 83.5916 33.8352 83.4654 33.8335 83.3333ZM36.3335 88.8333C36.4661 88.8333 36.5933 88.886 36.687 88.9798C36.7808 89.0735 36.8335 89.2007 36.8335 89.3333C36.8335 89.4659 36.7808 89.5931 36.687 89.6869C36.5933 89.7807 36.4661 89.8333 36.3335 89.8333H29.6668C29.5342 89.8333 29.407 89.7807 29.3133 89.6869C29.2195 89.5931 29.1668 89.4659 29.1668 89.3333C29.1668 89.2007 29.2195 89.0735 29.3133 88.9798C29.407 88.886 29.5342 88.8333 29.6668 88.8333H36.3335Z" fill="#111111"/>
<path d="M69.9665 78.875L65.4582 74.3667C65.223 74.1337 64.9059 74.0021 64.5748 74H54.9165C54.585 74 54.267 74.1317 54.0326 74.3661C53.7982 74.6005 53.6665 74.9185 53.6665 75.25V92.75C53.6665 93.0815 53.7982 93.3995 54.0326 93.6339C54.267 93.8683 54.585 94 54.9165 94H69.9165C70.027 94 70.133 93.9561 70.2111 93.878C70.2893 93.7998 70.3332 93.6938 70.3332 93.5833V79.7583C70.3311 79.4273 70.1995 79.1102 69.9665 78.875ZM60.1832 83.3167L57.3748 82.2667C56.9898 82.0849 56.6684 81.7913 56.4529 81.4241C56.2373 81.0568 56.1375 80.6332 56.1665 80.2083C56.1641 79.6822 56.3586 79.1741 56.7117 78.784C57.0648 78.3939 57.551 78.1499 58.0748 78.1C58.1241 78.092 58.1689 78.0666 58.201 78.0283C58.2332 77.9901 58.2505 77.9416 58.2498 77.8917V77.3333C58.2498 77.1123 58.3376 76.9004 58.4939 76.7441C58.6502 76.5878 58.8622 76.5 59.0832 76.5C59.3042 76.5 59.5161 76.5878 59.6724 76.7441C59.8287 76.9004 59.9165 77.1123 59.9165 77.3333V77.8583C59.9165 77.9136 59.9385 77.9666 59.9775 78.0056C60.0166 78.0447 60.0696 78.0667 60.1248 78.0667H61.1665C61.3875 78.0667 61.5995 78.1545 61.7558 78.3107C61.912 78.467 61.9998 78.679 61.9998 78.9C61.9998 79.121 61.912 79.333 61.7558 79.4893C61.5995 79.6455 61.3875 79.7333 61.1665 79.7333H58.5665C57.8332 79.7333 57.8332 80.0917 57.8332 80.2083C57.8199 80.3929 57.8731 80.5762 57.9832 80.725L60.7915 81.775C61.1766 81.9567 61.4979 82.2504 61.7135 82.6176C61.929 82.9848 62.0288 83.4085 61.9998 83.8333C62.0022 84.3595 61.8077 84.8676 61.4546 85.2577C61.1015 85.6478 60.6153 85.8918 60.0915 85.9417C60.0422 85.9497 59.9974 85.9751 59.9653 86.0133C59.9332 86.0516 59.9159 86.1001 59.9165 86.15V86.7083C59.9165 86.9293 59.8287 87.1413 59.6724 87.2976C59.5161 87.4539 59.3042 87.5417 59.0832 87.5417C58.8622 87.5417 58.6502 87.4539 58.4939 87.2976C58.3376 87.1413 58.2498 86.9293 58.2498 86.7083V86.1917C58.2498 86.1364 58.2279 86.0834 58.1888 86.0444C58.1497 86.0053 58.0968 85.9833 58.0415 85.9833H56.9998C56.7788 85.9833 56.5669 85.8955 56.4106 85.7393C56.2543 85.583 56.1665 85.371 56.1665 85.15C56.1665 84.929 56.2543 84.717 56.4106 84.5607C56.5669 84.4045 56.7788 84.3167 56.9998 84.3167H59.5998C60.3332 84.3167 60.3332 83.95 60.3332 83.8333C60.3465 83.6487 60.2933 83.4655 60.1832 83.3167ZM67.4165 86.2917C67.5823 86.2917 67.7412 86.3575 67.8584 86.4747C67.9757 86.5919 68.0415 86.7509 68.0415 86.9167C68.0415 87.0824 67.9757 87.2414 67.8584 87.3586C67.7412 87.4758 67.5823 87.5417 67.4165 87.5417H63.2498C63.0841 87.5417 62.9251 87.4758 62.8079 87.3586C62.6907 87.2414 62.6248 87.0824 62.6248 86.9167C62.6248 86.7509 62.6907 86.5919 62.8079 86.4747C62.9251 86.3575 63.0841 86.2917 63.2498 86.2917H67.4165ZM64.2915 83.1667C64.2937 83.0016 64.3602 82.8439 64.4769 82.7271C64.5937 82.6104 64.7514 82.5438 64.9165 82.5417H67.4165C67.5823 82.5417 67.7412 82.6075 67.8584 82.7247C67.9757 82.8419 68.0415 83.0009 68.0415 83.1667C68.0415 83.3324 67.9757 83.4914 67.8584 83.6086C67.7412 83.7258 67.5823 83.7917 67.4165 83.7917H64.9165C64.7514 83.7895 64.5937 83.723 64.4769 83.6062C64.3602 83.4895 64.2937 83.3318 64.2915 83.1667ZM67.4165 90.0417C67.5823 90.0417 67.7412 90.1075 67.8584 90.2247C67.9757 90.3419 68.0415 90.5009 68.0415 90.6667C68.0415 90.8324 67.9757 90.9914 67.8584 91.1086C67.7412 91.2258 67.5823 91.2917 67.4165 91.2917H59.0832C58.9174 91.2917 58.7584 91.2258 58.6412 91.1086C58.524 90.9914 58.4582 90.8324 58.4582 90.6667C58.4582 90.5009 58.524 90.3419 58.6412 90.2247C58.7584 90.1075 58.9174 90.0417 59.0832 90.0417H67.4165Z" fill="#111111"/>
<path d="M105.56 77.85L100.15 72.44C99.8677 72.1604 99.4873 72.0025 99.09 72H87.5C87.1022 72 86.7206 72.158 86.4393 72.4393C86.158 72.7206 86 73.1022 86 73.5V94.5C86 94.8978 86.158 95.2794 86.4393 95.5607C86.7206 95.842 87.1022 96 87.5 96H105.5C105.633 96 105.76 95.9473 105.854 95.8536C105.947 95.7598 106 95.6326 106 95.5V78.91C105.997 78.5127 105.84 78.1323 105.56 77.85ZM93.82 83.18L90.45 81.92C89.9879 81.7019 89.6023 81.3495 89.3437 80.9089C89.085 80.4682 88.9652 79.9598 89 79.45C88.9972 78.8186 89.2305 78.2089 89.6542 77.7408C90.078 77.2727 90.6614 76.9799 91.29 76.92C91.3492 76.9104 91.4029 76.8799 91.4414 76.834C91.48 76.7881 91.5008 76.7299 91.5 76.67V76C91.5 75.7348 91.6054 75.4804 91.7929 75.2929C91.9804 75.1054 92.2348 75 92.5 75C92.7652 75 93.0196 75.1054 93.2071 75.2929C93.3946 75.4804 93.5 75.7348 93.5 76V76.63C93.5 76.6963 93.5263 76.7599 93.5732 76.8068C93.6201 76.8537 93.6837 76.88 93.75 76.88H95C95.2652 76.88 95.5196 76.9854 95.7071 77.1729C95.8946 77.3604 96 77.6148 96 77.88C96 78.1452 95.8946 78.3996 95.7071 78.5871C95.5196 78.7746 95.2652 78.88 95 78.88H91.88C91 78.88 91 79.31 91 79.45C90.984 79.6715 91.0479 79.8915 91.18 80.07L94.55 81.33C95.0121 81.5481 95.3977 81.9005 95.6563 82.3411C95.915 82.7818 96.0348 83.2902 96 83.8C96.0028 84.4314 95.7695 85.0411 95.3458 85.5092C94.922 85.9773 94.3386 86.2701 93.71 86.33C93.6508 86.3396 93.5971 86.3701 93.5586 86.416C93.52 86.4619 93.4992 86.5201 93.5 86.58V87.25C93.5 87.5152 93.3946 87.7696 93.2071 87.9571C93.0196 88.1446 92.7652 88.25 92.5 88.25C92.2348 88.25 91.9804 88.1446 91.7929 87.9571C91.6054 87.7696 91.5 87.5152 91.5 87.25V86.63C91.5 86.5637 91.4737 86.5001 91.4268 86.4532C91.3799 86.4063 91.3163 86.38 91.25 86.38H90C89.7348 86.38 89.4804 86.2746 89.2929 86.0871C89.1054 85.8996 89 85.6452 89 85.38C89 85.1148 89.1054 84.8604 89.2929 84.6729C89.4804 84.4854 89.7348 84.38 90 84.38H93.12C94 84.38 94 83.94 94 83.8C94.016 83.5785 93.9521 83.3585 93.82 83.18ZM102.5 86.75C102.699 86.75 102.89 86.829 103.03 86.9697C103.171 87.1103 103.25 87.3011 103.25 87.5C103.25 87.6989 103.171 87.8897 103.03 88.0303C102.89 88.171 102.699 88.25 102.5 88.25H97.5C97.3011 88.25 97.1103 88.171 96.9697 88.0303C96.829 87.8897 96.75 87.6989 96.75 87.5C96.75 87.3011 96.829 87.1103 96.9697 86.9697C97.1103 86.829 97.3011 86.75 97.5 86.75H102.5ZM98.75 83C98.7526 82.8019 98.8324 82.6126 98.9725 82.4725C99.1126 82.3324 99.3019 82.2526 99.5 82.25H102.5C102.699 82.25 102.89 82.329 103.03 82.4697C103.171 82.6103 103.25 82.8011 103.25 83C103.25 83.1989 103.171 83.3897 103.03 83.5303C102.89 83.671 102.699 83.75 102.5 83.75H99.5C99.3019 83.7474 99.1126 83.6676 98.9725 83.5275C98.8324 83.3874 98.7526 83.1981 98.75 83ZM102.5 91.25C102.699 91.25 102.89 91.329 103.03 91.4697C103.171 91.6103 103.25 91.8011 103.25 92C103.25 92.1989 103.171 92.3897 103.03 92.5303C102.89 92.671 102.699 92.75 102.5 92.75H92.5C92.3011 92.75 92.1103 92.671 91.9697 92.5303C91.829 92.3897 91.75 92.1989 91.75 92C91.75 91.8011 91.829 91.6103 91.9697 91.4697C92.1103 91.329 92.3011 91.25 92.5 91.25H102.5Z" fill="#111111"/>
<path d="M148.747 75.8L141.533 68.5867C141.157 68.2139 140.65 68.0033 140.12 68H124.667C124.136 68 123.627 68.2107 123.252 68.5858C122.877 68.9609 122.667 69.4696 122.667 70V98C122.667 98.5304 122.877 99.0391 123.252 99.4142C123.627 99.7893 124.136 100 124.667 100H148.667C148.843 100 149.013 99.9298 149.138 99.8047C149.263 99.6797 149.333 99.5101 149.333 99.3333V77.2133C149.33 76.6837 149.119 76.1763 148.747 75.8ZM133.093 82.9067L128.6 81.2267C127.984 80.9359 127.47 80.466 127.125 79.8785C126.78 79.291 126.62 78.613 126.667 77.9333C126.663 77.0914 126.974 76.2786 127.539 75.6544C128.104 75.0302 128.882 74.6399 129.72 74.56C129.799 74.5472 129.87 74.5065 129.922 74.4454C129.973 74.3842 130.001 74.3066 130 74.2267V73.3333C130 72.9797 130.14 72.6406 130.39 72.3905C130.64 72.1405 130.98 72 131.333 72C131.687 72 132.026 72.1405 132.276 72.3905C132.526 72.6406 132.667 72.9797 132.667 73.3333V74.1733C132.667 74.2617 132.702 74.3465 132.764 74.409C132.827 74.4715 132.911 74.5067 133 74.5067H134.667C135.02 74.5067 135.359 74.6471 135.609 74.8972C135.859 75.1472 136 75.4864 136 75.84C136 76.1936 135.859 76.5328 135.609 76.7828C135.359 77.0329 135.02 77.1733 134.667 77.1733H130.507C129.333 77.1733 129.333 77.7467 129.333 77.9333C129.312 78.2287 129.397 78.5219 129.573 78.76L134.067 80.44C134.683 80.7308 135.197 81.2006 135.542 81.7882C135.887 82.3757 136.046 83.0536 136 83.7333C136.004 84.5752 135.692 85.3881 135.128 86.0123C134.563 86.6365 133.785 87.0268 132.947 87.1067C132.868 87.1194 132.796 87.1601 132.745 87.2213C132.693 87.2825 132.665 87.3601 132.667 87.44V88.3333C132.667 88.687 132.526 89.0261 132.276 89.2761C132.026 89.5262 131.687 89.6667 131.333 89.6667C130.98 89.6667 130.64 89.5262 130.39 89.2761C130.14 89.0261 130 88.687 130 88.3333V87.5067C130 87.4183 129.965 87.3335 129.902 87.271C129.84 87.2085 129.755 87.1733 129.667 87.1733H128C127.646 87.1733 127.307 87.0329 127.057 86.7828C126.807 86.5328 126.667 86.1936 126.667 85.84C126.667 85.4864 126.807 85.1472 127.057 84.8972C127.307 84.6471 127.646 84.5067 128 84.5067H132.16C133.333 84.5067 133.333 83.92 133.333 83.7333C133.354 83.438 133.269 83.1447 133.093 82.9067ZM144.667 87.6667C144.932 87.6667 145.186 87.772 145.374 87.9596C145.561 88.1471 145.667 88.4015 145.667 88.6667C145.667 88.9319 145.561 89.1862 145.374 89.3738C145.186 89.5613 144.932 89.6667 144.667 89.6667H138C137.735 89.6667 137.48 89.5613 137.293 89.3738C137.105 89.1862 137 88.9319 137 88.6667C137 88.4015 137.105 88.1471 137.293 87.9596C137.48 87.772 137.735 87.6667 138 87.6667H144.667ZM139.667 82.6667C139.67 82.4025 139.776 82.1502 139.963 81.9634C140.15 81.7766 140.402 81.6701 140.667 81.6667H144.667C144.932 81.6667 145.186 81.772 145.374 81.9596C145.561 82.1471 145.667 82.4015 145.667 82.6667C145.667 82.9319 145.561 83.1862 145.374 83.3738C145.186 83.5613 144.932 83.6667 144.667 83.6667H140.667C140.402 83.6632 140.15 83.5567 139.963 83.37C139.776 83.1832 139.67 82.9308 139.667 82.6667ZM144.667 93.6667C144.932 93.6667 145.186 93.772 145.374 93.9596C145.561 94.1471 145.667 94.4015 145.667 94.6667C145.667 94.9319 145.561 95.1862 145.374 95.3738C145.186 95.5613 144.932 95.6667 144.667 95.6667H131.333C131.068 95.6667 130.814 95.5613 130.626 95.3738C130.439 95.1862 130.333 94.9319 130.333 94.6667C130.333 94.4015 130.439 94.1471 130.626 93.9596C130.814 93.772 131.068 93.6667 131.333 93.6667H144.667Z" fill="#111111"/>
<path d="M199.933 73.75L190.917 64.7333C190.446 64.2674 189.812 64.0042 189.15 64H169.833C169.17 64 168.535 64.2634 168.066 64.7322C167.597 65.2011 167.333 65.837 167.333 66.5V101.5C167.333 102.163 167.597 102.799 168.066 103.268C168.535 103.737 169.17 104 169.833 104H199.833C200.055 104 200.266 103.912 200.423 103.756C200.579 103.6 200.667 103.388 200.667 103.167V75.5167C200.663 74.8546 200.399 74.2204 199.933 73.75ZM180.367 82.6333L174.75 80.5333C173.98 80.1699 173.337 79.5825 172.906 78.8481C172.475 78.1137 172.275 77.2663 172.333 76.4167C172.329 75.3643 172.718 74.3482 173.424 73.568C174.13 72.7878 175.103 72.2998 176.15 72.2C176.249 72.184 176.338 72.1332 176.403 72.0567C176.467 71.9802 176.501 71.8832 176.5 71.7833V70.6667C176.5 70.2246 176.676 69.8007 176.988 69.4882C177.301 69.1756 177.725 69 178.167 69C178.609 69 179.033 69.1756 179.345 69.4882C179.658 69.8007 179.833 70.2246 179.833 70.6667V71.7167C179.833 71.8272 179.877 71.9332 179.956 72.0113C180.034 72.0894 180.14 72.1333 180.25 72.1333H182.333C182.776 72.1333 183.199 72.3089 183.512 72.6215C183.825 72.934 184 73.358 184 73.8C184 74.242 183.825 74.6659 183.512 74.9785C183.199 75.2911 182.776 75.4667 182.333 75.4667H177.133C175.667 75.4667 175.667 76.1833 175.667 76.4167C175.64 76.7859 175.747 77.1524 175.967 77.45L181.583 79.55C182.354 79.9135 182.996 80.5008 183.427 81.2352C183.859 81.9696 184.058 82.817 184 83.6667C184.005 84.719 183.616 85.7351 182.91 86.5153C182.204 87.2956 181.231 87.7835 180.183 87.8833C180.085 87.8993 179.995 87.9502 179.931 88.0266C179.867 88.1031 179.832 88.2001 179.833 88.3V89.4167C179.833 89.8587 179.658 90.2826 179.345 90.5952C179.033 90.9077 178.609 91.0833 178.167 91.0833C177.725 91.0833 177.301 90.9077 176.988 90.5952C176.676 90.2826 176.5 89.8587 176.5 89.4167V88.3833C176.5 88.2728 176.456 88.1668 176.378 88.0887C176.3 88.0106 176.194 87.9667 176.083 87.9667H174C173.558 87.9667 173.134 87.7911 172.822 87.4785C172.509 87.166 172.333 86.742 172.333 86.3C172.333 85.858 172.509 85.434 172.822 85.1215C173.134 84.8089 173.558 84.6333 174 84.6333H179.2C180.667 84.6333 180.667 83.9 180.667 83.6667C180.693 83.2974 180.587 82.9309 180.367 82.6333ZM194.833 88.5833C195.165 88.5833 195.483 88.715 195.717 88.9494C195.952 89.1839 196.083 89.5018 196.083 89.8333C196.083 90.1649 195.952 90.4828 195.717 90.7172C195.483 90.9516 195.165 91.0833 194.833 91.0833H186.5C186.169 91.0833 185.851 90.9516 185.616 90.7172C185.382 90.4828 185.25 90.1649 185.25 89.8333C185.25 89.5018 185.382 89.1839 185.616 88.9494C185.851 88.715 186.169 88.5833 186.5 88.5833H194.833ZM188.583 82.3333C188.588 82.0032 188.721 81.6877 188.954 81.4542C189.188 81.2207 189.503 81.0877 189.833 81.0833H194.833C195.165 81.0833 195.483 81.215 195.717 81.4494C195.952 81.6839 196.083 82.0018 196.083 82.3333C196.083 82.6649 195.952 82.9828 195.717 83.2172C195.483 83.4516 195.165 83.5833 194.833 83.5833H189.833C189.503 83.579 189.188 83.4459 188.954 83.2124C188.721 82.979 188.588 82.6635 188.583 82.3333ZM194.833 96.0833C195.165 96.0833 195.483 96.215 195.717 96.4494C195.952 96.6839 196.083 97.0018 196.083 97.3333C196.083 97.6649 195.952 97.9828 195.717 98.2172C195.483 98.4516 195.165 98.5833 194.833 98.5833H178.167C177.835 98.5833 177.517 98.4516 177.283 98.2172C177.049 97.9828 176.917 97.6649 176.917 97.3333C176.917 97.0018 177.049 96.6839 177.283 96.4494C177.517 96.215 177.835 96.0833 178.167 96.0833H194.833Z" fill="#111111"/>
<path d="M259.12 71.7L248.3 60.88C247.735 60.3209 246.975 60.005 246.18 60H223C222.204 60 221.441 60.3161 220.879 60.8787C220.316 61.4413 220 62.2044 220 63V105C220 105.796 220.316 106.559 220.879 107.121C221.441 107.684 222.204 108 223 108H259C259.265 108 259.52 107.895 259.707 107.707C259.895 107.52 260 107.265 260 107V73.82C259.995 73.0255 259.679 72.2645 259.12 71.7ZM235.64 82.36L228.9 79.84C227.976 79.4038 227.205 78.699 226.687 77.8177C226.17 76.9364 225.93 75.9196 226 74.9C225.994 73.6372 226.461 72.4179 227.308 71.4816C228.156 70.5453 229.323 69.9598 230.58 69.84C230.698 69.8208 230.806 69.7598 230.883 69.668C230.96 69.5763 231.002 69.4598 231 69.34V68C231 67.4696 231.211 66.9609 231.586 66.5858C231.961 66.2107 232.47 66 233 66C233.53 66 234.039 66.2107 234.414 66.5858C234.789 66.9609 235 67.4696 235 68V69.26C235 69.3926 235.053 69.5198 235.146 69.6136C235.24 69.7073 235.367 69.76 235.5 69.76H238C238.53 69.76 239.039 69.9707 239.414 70.3458C239.789 70.7209 240 71.2296 240 71.76C240 72.2904 239.789 72.7991 239.414 73.1742C239.039 73.5493 238.53 73.76 238 73.76H231.76C230 73.76 230 74.62 230 74.9C229.968 75.3431 230.096 75.7829 230.36 76.14L237.1 78.66C238.024 79.0962 238.795 79.801 239.313 80.6823C239.83 81.5636 240.07 82.5804 240 83.6C240.006 84.8628 239.539 86.0821 238.692 87.0184C237.844 87.9547 236.677 88.5402 235.42 88.66C235.302 88.6792 235.194 88.7402 235.117 88.832C235.04 88.9237 234.998 89.0402 235 89.16V90.5C235 91.0304 234.789 91.5391 234.414 91.9142C234.039 92.2893 233.53 92.5 233 92.5C232.47 92.5 231.961 92.2893 231.586 91.9142C231.211 91.5391 231 91.0304 231 90.5V89.26C231 89.1274 230.947 89.0002 230.854 88.9064C230.76 88.8127 230.633 88.76 230.5 88.76H228C227.47 88.76 226.961 88.5493 226.586 88.1742C226.211 87.7991 226 87.2904 226 86.76C226 86.2296 226.211 85.7209 226.586 85.3458C226.961 84.9707 227.47 84.76 228 84.76H234.24C236 84.76 236 83.88 236 83.6C236.032 83.1569 235.904 82.7171 235.64 82.36ZM253 89.5C253.398 89.5 253.779 89.658 254.061 89.9393C254.342 90.2206 254.5 90.6022 254.5 91C254.5 91.3978 254.342 91.7794 254.061 92.0607C253.779 92.342 253.398 92.5 253 92.5H243C242.602 92.5 242.221 92.342 241.939 92.0607C241.658 91.7794 241.5 91.3978 241.5 91C241.5 90.6022 241.658 90.2206 241.939 89.9393C242.221 89.658 242.602 89.5 243 89.5H253ZM245.5 82C245.505 81.6038 245.665 81.2253 245.945 80.9451C246.225 80.6649 246.604 80.5052 247 80.5H253C253.398 80.5 253.779 80.658 254.061 80.9393C254.342 81.2206 254.5 81.6022 254.5 82C254.5 82.3978 254.342 82.7794 254.061 83.0607C253.779 83.342 253.398 83.5 253 83.5H247C246.604 83.4948 246.225 83.3351 245.945 83.0549C245.665 82.7747 245.505 82.3962 245.5 82ZM253 98.5C253.398 98.5 253.779 98.658 254.061 98.9393C254.342 99.2206 254.5 99.6022 254.5 100C254.5 100.398 254.342 100.779 254.061 101.061C253.779 101.342 253.398 101.5 253 101.5H233C232.602 101.5 232.221 101.342 231.939 101.061C231.658 100.779 231.5 100.398 231.5 100C231.5 99.6022 231.658 99.2206 231.939 98.9393C232.221 98.658 232.602 98.5 233 98.5H253Z" fill="#111111"/>
</g>
<defs>
<clipPath id="clip0_1998_443">
<rect width="264" height="108" rx="5" fill="white"/>
</clipPath>
</defs>
</svg>
