<svg width="264" height="108" viewBox="0 0 264 108" fill="none" xmlns="http://www.w3.org/2000/svg">
<path d="M9.375 18.375V18H2.625V18.375V18.75H9.375V18.375ZM2.625 18.375V18C2.00368 18 1.5 18.5037 1.5 19.125H1.875H2.25C2.25 18.9179 2.41789 18.75 2.625 18.75V18.375ZM1.875 19.125H1.5V28.875H1.875H2.25V19.125H1.875ZM1.875 28.875H1.5C1.5 29.4963 2.00367 30 2.625 30V29.625V29.25C2.4179 29.25 2.25 29.0821 2.25 28.875H1.875ZM2.625 29.625V30H9.375V29.625V29.25H2.625V29.625ZM9.375 29.625V30C9.99631 30 10.5 29.4963 10.5 28.875H10.125H9.75C9.75 29.0821 9.58209 29.25 9.375 29.25V29.625ZM10.125 28.875H10.5V19.125H10.125H9.75V28.875H10.125ZM10.125 19.125H10.5C10.5 18.5037 9.9963 18 9.375 18V18.375V18.75C9.5821 18.75 9.75 18.9179 9.75 19.125H10.125ZM8.25 19.875V19.5H3.75V19.875V20.25H8.25V19.875ZM3.75 19.875V19.5C3.33579 19.5 3 19.8358 3 20.25H3.375H3.75V19.875ZM3.375 20.25H3V21.75H3.375H3.75V20.25H3.375ZM3.375 21.75H3C3 22.1642 3.33579 22.5 3.75 22.5V22.125V21.75H3.375ZM3.75 22.125V22.5H8.25V22.125V21.75H3.75V22.125ZM8.25 22.125V22.5C8.6642 22.5 9 22.1642 9 21.75H8.625H8.25V22.125ZM8.625 21.75H9V20.25H8.625H8.25V21.75H8.625ZM8.625 20.25H9C9 19.8358 8.6642 19.5 8.25 19.5V19.875V20.25H8.625ZM3.9375 24.375V24C4.04106 24 4.125 24.0839 4.125 24.1875H3.75H3.375C3.375 24.4982 3.62683 24.75 3.9375 24.75V24.375ZM3.75 24.1875H4.125C4.125 24.2911 4.04106 24.375 3.9375 24.375V24V23.625C3.62683 23.625 3.375 23.8768 3.375 24.1875H3.75ZM3.9375 24.375V24.75C4.24817 24.75 4.5 24.4982 4.5 24.1875H4.125H3.75C3.75 24.0839 3.83394 24 3.9375 24V24.375ZM4.125 24.1875H4.5C4.5 23.8768 4.24817 23.625 3.9375 23.625V24V24.375C3.83394 24.375 3.75 24.2911 3.75 24.1875H4.125ZM3.9375 26.25V25.875C4.04106 25.875 4.125 25.9589 4.125 26.0625H3.75H3.375C3.375 26.3732 3.62683 26.625 3.9375 26.625V26.25ZM3.75 26.0625H4.125C4.125 26.1661 4.04106 26.25 3.9375 26.25V25.875V25.5C3.62683 25.5 3.375 25.7518 3.375 26.0625H3.75ZM3.9375 26.25V26.625C4.24817 26.625 4.5 26.3732 4.5 26.0625H4.125H3.75C3.75 25.9589 3.83394 25.875 3.9375 25.875V26.25ZM4.125 26.0625H4.5C4.5 25.7518 4.24817 25.5 3.9375 25.5V25.875V26.25C3.83394 26.25 3.75 26.1661 3.75 26.0625H4.125ZM3.9375 28.125V27.75C4.04106 27.75 4.125 27.834 4.125 27.9375H3.75H3.375C3.375 28.2481 3.62683 28.5 3.9375 28.5V28.125ZM3.75 27.9375H4.125C4.125 28.041 4.04106 28.125 3.9375 28.125V27.75V27.375C3.62683 27.375 3.375 27.6269 3.375 27.9375H3.75ZM3.9375 28.125V28.5C4.24817 28.5 4.5 28.2481 4.5 27.9375H4.125H3.75C3.75 27.834 3.83394 27.75 3.9375 27.75V28.125ZM4.125 27.9375H4.5C4.5 27.6269 4.24817 27.375 3.9375 27.375V27.75V28.125C3.83394 28.125 3.75 28.041 3.75 27.9375H4.125ZM6.078 24.375V24C6.18156 24 6.2655 24.0839 6.2655 24.1875H5.8905H5.5155C5.5155 24.4982 5.76735 24.75 6.078 24.75V24.375ZM5.8905 24.1875H6.2655C6.2655 24.2911 6.18156 24.375 6.078 24.375V24V23.625C5.76735 23.625 5.5155 23.8768 5.5155 24.1875H5.8905ZM6.078 24.375V24.75C6.38866 24.75 6.6405 24.4982 6.6405 24.1875H6.2655H5.8905C5.8905 24.0839 5.97445 24 6.078 24V24.375ZM6.2655 24.1875H6.6405C6.6405 23.8768 6.38866 23.625 6.078 23.625V24V24.375C5.97445 24.375 5.8905 24.2911 5.8905 24.1875H6.2655ZM6.078 26.25V25.875C6.18156 25.875 6.2655 25.9589 6.2655 26.0625H5.8905H5.5155C5.5155 26.3732 5.76735 26.625 6.078 26.625V26.25ZM5.8905 26.0625H6.2655C6.2655 26.1661 6.18156 26.25 6.078 26.25V25.875V25.5C5.76735 25.5 5.5155 25.7518 5.5155 26.0625H5.8905ZM6.078 26.25V26.625C6.38866 26.625 6.6405 26.3732 6.6405 26.0625H6.2655H5.8905C5.8905 25.9589 5.97445 25.875 6.078 25.875V26.25ZM6.2655 26.0625H6.6405C6.6405 25.7518 6.38866 25.5 6.078 25.5V25.875V26.25C5.97445 26.25 5.8905 26.1661 5.8905 26.0625H6.2655ZM6.078 28.125V27.75C6.18156 27.75 6.2655 27.8339 6.2655 27.9375H5.8905H5.5155C5.5155 28.2482 5.76735 28.5 6.078 28.5V28.125ZM5.8905 27.9375H6.2655C6.2655 28.0411 6.18156 28.125 6.078 28.125V27.75V27.375C5.76735 27.375 5.5155 27.6268 5.5155 27.9375H5.8905ZM6.078 28.125V28.5C6.38866 28.5 6.6405 28.2482 6.6405 27.9375H6.2655H5.8905C5.8905 27.8339 5.97445 27.75 6.078 27.75V28.125ZM6.2655 27.9375H6.6405C6.6405 27.6268 6.38866 27.375 6.078 27.375V27.75V28.125C5.97445 28.125 5.8905 28.0411 5.8905 27.9375H6.2655ZM8.0625 24.375V24C8.16606 24 8.25 24.0839 8.25 24.1875H7.875H7.5C7.5 24.4982 7.75184 24.75 8.0625 24.75V24.375ZM7.875 24.1875H8.25C8.25 24.2911 8.16606 24.375 8.0625 24.375V24V23.625C7.75184 23.625 7.5 23.8768 7.5 24.1875H7.875ZM8.0625 24.375V24.75C8.37316 24.75 8.625 24.4982 8.625 24.1875H8.25H7.875C7.875 24.0839 7.95894 24 8.0625 24V24.375ZM8.25 24.1875H8.625C8.625 23.8768 8.37316 23.625 8.0625 23.625V24V24.375C7.95894 24.375 7.875 24.2911 7.875 24.1875H8.25ZM8.0625 26.25V25.875C8.16606 25.875 8.25 25.9589 8.25 26.0625H7.875H7.5C7.5 26.3732 7.75184 26.625 8.0625 26.625V26.25ZM7.875 26.0625H8.25C8.25 26.1661 8.16606 26.25 8.0625 26.25V25.875V25.5C7.75184 25.5 7.5 25.7518 7.5 26.0625H7.875ZM8.0625 26.25V26.625C8.37316 26.625 8.625 26.3732 8.625 26.0625H8.25H7.875C7.875 25.9589 7.95894 25.875 8.0625 25.875V26.25ZM8.25 26.0625H8.625C8.625 25.7518 8.37316 25.5 8.0625 25.5V25.875V26.25C7.95894 26.25 7.875 26.1661 7.875 26.0625H8.25ZM8.0625 28.125V27.75C8.16606 27.75 8.25 27.8339 8.25 27.9375H7.875H7.5C7.5 28.2482 7.75184 28.5 8.0625 28.5V28.125ZM7.875 27.9375H8.25C8.25 28.0411 8.16606 28.125 8.0625 28.125V27.75V27.375C7.75184 27.375 7.5 27.6268 7.5 27.9375H7.875ZM8.0625 28.125V28.5C8.37316 28.5 8.625 28.2482 8.625 27.9375H8.25H7.875C7.875 27.8339 7.95894 27.75 8.0625 27.75V28.125ZM8.25 27.9375H8.625C8.625 27.6268 8.37316 27.375 8.0625 27.375V27.75V28.125C7.95894 28.125 7.875 28.0411 7.875 27.9375H8.25Z" fill="#111111"/>
<path d="M36.5 16.5V16H27.5V16.5V17H36.5V16.5ZM27.5 16.5V16C26.6716 16 26 16.6716 26 17.5H26.5H27C27 17.2239 27.2239 17 27.5 17V16.5ZM26.5 17.5H26V30.5H26.5H27V17.5H26.5ZM26.5 30.5H26C26 31.3284 26.6716 32 27.5 32V31.5V31C27.2239 31 27 30.7761 27 30.5H26.5ZM27.5 31.5V32H36.5V31.5V31H27.5V31.5ZM36.5 31.5V32C37.3284 32 38 31.3284 38 30.5H37.5H37C37 30.7761 36.7761 31 36.5 31V31.5ZM37.5 30.5H38V17.5H37.5H37V30.5H37.5ZM37.5 17.5H38C38 16.6716 37.3284 16 36.5 16V16.5V17C36.7761 17 37 17.2239 37 17.5H37.5ZM35 18.5V18H29V18.5V19H35V18.5ZM29 18.5V18C28.4477 18 28 18.4477 28 19H28.5H29V18.5ZM28.5 19H28V21H28.5H29V19H28.5ZM28.5 21H28C28 21.5523 28.4477 22 29 22V21.5V21H28.5ZM29 21.5V22H35V21.5V21H29V21.5ZM35 21.5V22C35.5523 22 36 21.5523 36 21H35.5H35V21.5ZM35.5 21H36V19H35.5H35V21H35.5ZM35.5 19H36C36 18.4477 35.5523 18 35 18V18.5V19H35.5ZM29.25 24.5V24C29.3881 24 29.5 24.1119 29.5 24.25H29H28.5C28.5 24.6642 28.8358 25 29.25 25V24.5ZM29 24.25H29.5C29.5 24.3881 29.3881 24.5 29.25 24.5V24V23.5C28.8358 23.5 28.5 23.8358 28.5 24.25H29ZM29.25 24.5V25C29.6642 25 30 24.6642 30 24.25H29.5H29C29 24.1119 29.1119 24 29.25 24V24.5ZM29.5 24.25H30C30 23.8358 29.6642 23.5 29.25 23.5V24V24.5C29.1119 24.5 29 24.3881 29 24.25H29.5ZM29.25 27V26.5C29.3881 26.5 29.5 26.6119 29.5 26.75H29H28.5C28.5 27.1642 28.8358 27.5 29.25 27.5V27ZM29 26.75H29.5C29.5 26.8881 29.3881 27 29.25 27V26.5V26C28.8358 26 28.5 26.3358 28.5 26.75H29ZM29.25 27V27.5C29.6642 27.5 30 27.1642 30 26.75H29.5H29C29 26.6119 29.1119 26.5 29.25 26.5V27ZM29.5 26.75H30C30 26.3358 29.6642 26 29.25 26V26.5V27C29.1119 27 29 26.8881 29 26.75H29.5ZM29.25 29.5V29C29.3881 29 29.5 29.1119 29.5 29.25H29H28.5C28.5 29.6642 28.8358 30 29.25 30V29.5ZM29 29.25H29.5C29.5 29.3881 29.3881 29.5 29.25 29.5V29V28.5C28.8358 28.5 28.5 28.8358 28.5 29.25H29ZM29.25 29.5V30C29.6642 30 30 29.6642 30 29.25H29.5H29C29 29.1119 29.1119 29 29.25 29V29.5ZM29.5 29.25H30C30 28.8358 29.6642 28.5 29.25 28.5V29V29.5C29.1119 29.5 29 29.3881 29 29.25H29.5ZM32.104 24.5V24C32.2421 24 32.354 24.1119 32.354 24.25H31.854H31.354C31.354 24.6642 31.6898 25 32.104 25V24.5ZM31.854 24.25H32.354C32.354 24.3881 32.2421 24.5 32.104 24.5V24V23.5C31.6898 23.5 31.354 23.8358 31.354 24.25H31.854ZM32.104 24.5V25C32.5182 25 32.854 24.6642 32.854 24.25H32.354H31.854C31.854 24.1119 31.9659 24 32.104 24V24.5ZM32.354 24.25H32.854C32.854 23.8358 32.5182 23.5 32.104 23.5V24V24.5C31.9659 24.5 31.854 24.3881 31.854 24.25H32.354ZM32.104 27V26.5C32.2421 26.5 32.354 26.6119 32.354 26.75H31.854H31.354C31.354 27.1642 31.6898 27.5 32.104 27.5V27ZM31.854 26.75H32.354C32.354 26.8881 32.2421 27 32.104 27V26.5V26C31.6898 26 31.354 26.3358 31.354 26.75H31.854ZM32.104 27V27.5C32.5182 27.5 32.854 27.1642 32.854 26.75H32.354H31.854C31.854 26.6119 31.9659 26.5 32.104 26.5V27ZM32.354 26.75H32.854C32.854 26.3358 32.5182 26 32.104 26V26.5V27C31.9659 27 31.854 26.8881 31.854 26.75H32.354ZM32.104 29.5V29C32.2421 29 32.354 29.1119 32.354 29.25H31.854H31.354C31.354 29.6642 31.6898 30 32.104 30V29.5ZM31.854 29.25H32.354C32.354 29.3881 32.2421 29.5 32.104 29.5V29V28.5C31.6898 28.5 31.354 28.8358 31.354 29.25H31.854ZM32.104 29.5V30C32.5182 30 32.854 29.6642 32.854 29.25H32.354H31.854C31.854 29.1119 31.9659 29 32.104 29V29.5ZM32.354 29.25H32.854C32.854 28.8358 32.5182 28.5 32.104 28.5V29V29.5C31.9659 29.5 31.854 29.3881 31.854 29.25H32.354ZM34.75 24.5V24C34.8881 24 35 24.1119 35 24.25H34.5H34C34 24.6642 34.3358 25 34.75 25V24.5ZM34.5 24.25H35C35 24.3881 34.8881 24.5 34.75 24.5V24V23.5C34.3358 23.5 34 23.8358 34 24.25H34.5ZM34.75 24.5V25C35.1642 25 35.5 24.6642 35.5 24.25H35H34.5C34.5 24.1119 34.6119 24 34.75 24V24.5ZM35 24.25H35.5C35.5 23.8358 35.1642 23.5 34.75 23.5V24V24.5C34.6119 24.5 34.5 24.3881 34.5 24.25H35ZM34.75 27V26.5C34.8881 26.5 35 26.6119 35 26.75H34.5H34C34 27.1642 34.3358 27.5 34.75 27.5V27ZM34.5 26.75H35C35 26.8881 34.8881 27 34.75 27V26.5V26C34.3358 26 34 26.3358 34 26.75H34.5ZM34.75 27V27.5C35.1642 27.5 35.5 27.1642 35.5 26.75H35H34.5C34.5 26.6119 34.6119 26.5 34.75 26.5V27ZM35 26.75H35.5C35.5 26.3358 35.1642 26 34.75 26V26.5V27C34.6119 27 34.5 26.8881 34.5 26.75H35ZM34.75 29.5V29C34.8881 29 35 29.1119 35 29.25H34.5H34C34 29.6642 34.3358 30 34.75 30V29.5ZM34.5 29.25H35C35 29.3881 34.8881 29.5 34.75 29.5V29V28.5C34.3358 28.5 34 28.8358 34 29.25H34.5ZM34.75 29.5V30C35.1642 30 35.5 29.6642 35.5 29.25H35H34.5C34.5 29.1119 34.6119 29 34.75 29V29.5ZM35 29.25H35.5C35.5 28.8358 35.1642 28.5 34.75 28.5V29V29.5C34.6119 29.5 34.5 29.3881 34.5 29.25H35Z" fill="#111111"/>
<path d="M67.625 14.625V14H56.375V14.625V15.25H67.625V14.625ZM56.375 14.625V14C55.3395 14 54.5 14.8395 54.5 15.875H55.125H55.75C55.75 15.5298 56.0298 15.25 56.375 15.25V14.625ZM55.125 15.875H54.5V32.125H55.125H55.75V15.875H55.125ZM55.125 32.125H54.5C54.5 33.1605 55.3395 34 56.375 34V33.375V32.75C56.0298 32.75 55.75 32.4702 55.75 32.125H55.125ZM56.375 33.375V34H67.625V33.375V32.75H56.375V33.375ZM67.625 33.375V34C68.6605 34 69.5 33.1605 69.5 32.125H68.875H68.25C68.25 32.4702 67.9702 32.75 67.625 32.75V33.375ZM68.875 32.125H69.5V15.875H68.875H68.25V32.125H68.875ZM68.875 15.875H69.5C69.5 14.8395 68.6605 14 67.625 14V14.625V15.25C67.9702 15.25 68.25 15.5298 68.25 15.875H68.875ZM65.75 17.125V16.5H58.25V17.125V17.75H65.75V17.125ZM58.25 17.125V16.5C57.5596 16.5 57 17.0596 57 17.75H57.625H58.25V17.125ZM57.625 17.75H57V20.25H57.625H58.25V17.75H57.625ZM57.625 20.25H57C57 20.9404 57.5596 21.5 58.25 21.5V20.875V20.25H57.625ZM58.25 20.875V21.5H65.75V20.875V20.25H58.25V20.875ZM65.75 20.875V21.5C66.4403 21.5 67 20.9404 67 20.25H66.375H65.75V20.875ZM66.375 20.25H67V17.75H66.375H65.75V20.25H66.375ZM66.375 17.75H67C67 17.0596 66.4403 16.5 65.75 16.5V17.125V17.75H66.375ZM58.5625 24.625V24C58.7351 24 58.875 24.1399 58.875 24.3125H58.25H57.625C57.625 24.8303 58.0447 25.25 58.5625 25.25V24.625ZM58.25 24.3125H58.875C58.875 24.4851 58.7351 24.625 58.5625 24.625V24V23.375C58.0447 23.375 57.625 23.7947 57.625 24.3125H58.25ZM58.5625 24.625V25.25C59.0803 25.25 59.5 24.8303 59.5 24.3125H58.875H58.25C58.25 24.1399 58.3899 24 58.5625 24V24.625ZM58.875 24.3125H59.5C59.5 23.7947 59.0803 23.375 58.5625 23.375V24V24.625C58.3899 24.625 58.25 24.4851 58.25 24.3125H58.875ZM58.5625 27.75V27.125C58.7351 27.125 58.875 27.2649 58.875 27.4375H58.25H57.625C57.625 27.9553 58.0447 28.375 58.5625 28.375V27.75ZM58.25 27.4375H58.875C58.875 27.6101 58.7351 27.75 58.5625 27.75V27.125V26.5C58.0447 26.5 57.625 26.9197 57.625 27.4375H58.25ZM58.5625 27.75V28.375C59.0803 28.375 59.5 27.9553 59.5 27.4375H58.875H58.25C58.25 27.2649 58.3899 27.125 58.5625 27.125V27.75ZM58.875 27.4375H59.5C59.5 26.9197 59.0803 26.5 58.5625 26.5V27.125V27.75C58.3899 27.75 58.25 27.6101 58.25 27.4375H58.875ZM58.5625 30.875V30.25C58.7351 30.25 58.875 30.3899 58.875 30.5625H58.25H57.625C57.625 31.0802 58.0447 31.5 58.5625 31.5V30.875ZM58.25 30.5625H58.875C58.875 30.7351 58.7351 30.875 58.5625 30.875V30.25V29.625C58.0447 29.625 57.625 30.0447 57.625 30.5625H58.25ZM58.5625 30.875V31.5C59.0803 31.5 59.5 31.0802 59.5 30.5625H58.875H58.25C58.25 30.3899 58.3899 30.25 58.5625 30.25V30.875ZM58.875 30.5625H59.5C59.5 30.0447 59.0803 29.625 58.5625 29.625V30.25V30.875C58.3899 30.875 58.25 30.7351 58.25 30.5625H58.875ZM62.13 24.625V24C62.3026 24 62.4425 24.1399 62.4425 24.3125H61.8175H61.1925C61.1925 24.8303 61.6122 25.25 62.13 25.25V24.625ZM61.8175 24.3125H62.4425C62.4425 24.4851 62.3026 24.625 62.13 24.625V24V23.375C61.6122 23.375 61.1925 23.7947 61.1925 24.3125H61.8175ZM62.13 24.625V25.25C62.6478 25.25 63.0675 24.8303 63.0675 24.3125H62.4425H61.8175C61.8175 24.1399 61.9574 24 62.13 24V24.625ZM62.4425 24.3125H63.0675C63.0675 23.7947 62.6478 23.375 62.13 23.375V24V24.625C61.9574 24.625 61.8175 24.4851 61.8175 24.3125H62.4425ZM62.13 27.75V27.125C62.3026 27.125 62.4425 27.2649 62.4425 27.4375H61.8175H61.1925C61.1925 27.9553 61.6122 28.375 62.13 28.375V27.75ZM61.8175 27.4375H62.4425C62.4425 27.6101 62.3026 27.75 62.13 27.75V27.125V26.5C61.6122 26.5 61.1925 26.9197 61.1925 27.4375H61.8175ZM62.13 27.75V28.375C62.6478 28.375 63.0675 27.9553 63.0675 27.4375H62.4425H61.8175C61.8175 27.2649 61.9574 27.125 62.13 27.125V27.75ZM62.4425 27.4375H63.0675C63.0675 26.9197 62.6478 26.5 62.13 26.5V27.125V27.75C61.9574 27.75 61.8175 27.6101 61.8175 27.4375H62.4425ZM62.13 30.875V30.25C62.3026 30.25 62.4425 30.3899 62.4425 30.5625H61.8175H61.1925C61.1925 31.0803 61.6122 31.5 62.13 31.5V30.875ZM61.8175 30.5625H62.4425C62.4425 30.7351 62.3026 30.875 62.13 30.875V30.25V29.625C61.6122 29.625 61.1925 30.0447 61.1925 30.5625H61.8175ZM62.13 30.875V31.5C62.6478 31.5 63.0675 31.0803 63.0675 30.5625H62.4425H61.8175C61.8175 30.3899 61.9574 30.25 62.13 30.25V30.875ZM62.4425 30.5625H63.0675C63.0675 30.0447 62.6478 29.625 62.13 29.625V30.25V30.875C61.9574 30.875 61.8175 30.7351 61.8175 30.5625H62.4425ZM65.4375 24.625V24C65.6101 24 65.75 24.1399 65.75 24.3125H65.125H64.5C64.5 24.8303 64.9197 25.25 65.4375 25.25V24.625ZM65.125 24.3125H65.75C65.75 24.4851 65.6101 24.625 65.4375 24.625V24V23.375C64.9197 23.375 64.5 23.7947 64.5 24.3125H65.125ZM65.4375 24.625V25.25C65.9553 25.25 66.375 24.8303 66.375 24.3125H65.75H65.125C65.125 24.1399 65.2649 24 65.4375 24V24.625ZM65.75 24.3125H66.375C66.375 23.7947 65.9553 23.375 65.4375 23.375V24V24.625C65.2649 24.625 65.125 24.4851 65.125 24.3125H65.75ZM65.4375 27.75V27.125C65.6101 27.125 65.75 27.2649 65.75 27.4375H65.125H64.5C64.5 27.9553 64.9197 28.375 65.4375 28.375V27.75ZM65.125 27.4375H65.75C65.75 27.6101 65.6101 27.75 65.4375 27.75V27.125V26.5C64.9197 26.5 64.5 26.9197 64.5 27.4375H65.125ZM65.4375 27.75V28.375C65.9553 28.375 66.375 27.9553 66.375 27.4375H65.75H65.125C65.125 27.2649 65.2649 27.125 65.4375 27.125V27.75ZM65.75 27.4375H66.375C66.375 26.9197 65.9553 26.5 65.4375 26.5V27.125V27.75C65.2649 27.75 65.125 27.6101 65.125 27.4375H65.75ZM65.4375 30.875V30.25C65.6101 30.25 65.75 30.3899 65.75 30.5625H65.125H64.5C64.5 31.0803 64.9197 31.5 65.4375 31.5V30.875ZM65.125 30.5625H65.75C65.75 30.7351 65.6101 30.875 65.4375 30.875V30.25V29.625C64.9197 29.625 64.5 30.0447 64.5 30.5625H65.125ZM65.4375 30.875V31.5C65.9553 31.5 66.375 31.0803 66.375 30.5625H65.75H65.125C65.125 30.3899 65.2649 30.25 65.4375 30.25V30.875ZM65.75 30.5625H66.375C66.375 30.0447 65.9553 29.625 65.4375 29.625V30.25V30.875C65.2649 30.875 65.125 30.7351 65.125 30.5625H65.75Z" fill="#111111"/>
<path d="M102.75 12.75V12H89.25V12.75V13.5H102.75V12.75ZM89.25 12.75V12C88.0074 12 87 13.0074 87 14.25H87.75H88.5C88.5 13.8358 88.8358 13.5 89.25 13.5V12.75ZM87.75 14.25H87V33.75H87.75H88.5V14.25H87.75ZM87.75 33.75H87C87 34.9926 88.0073 36 89.25 36V35.25V34.5C88.8358 34.5 88.5 34.1642 88.5 33.75H87.75ZM89.25 35.25V36H102.75V35.25V34.5H89.25V35.25ZM102.75 35.25V36C103.993 36 105 34.9926 105 33.75H104.25H103.5C103.5 34.1642 103.164 34.5 102.75 34.5V35.25ZM104.25 33.75H105V14.25H104.25H103.5V33.75H104.25ZM104.25 14.25H105C105 13.0073 103.993 12 102.75 12V12.75V13.5C103.164 13.5 103.5 13.8358 103.5 14.25H104.25ZM100.5 15.75V15H91.5V15.75V16.5H100.5V15.75ZM91.5 15.75V15C90.6716 15 90 15.6716 90 16.5H90.75H91.5V15.75ZM90.75 16.5H90V19.5H90.75H91.5V16.5H90.75ZM90.75 19.5H90C90 20.3284 90.6716 21 91.5 21V20.25V19.5H90.75ZM91.5 20.25V21H100.5V20.25V19.5H91.5V20.25ZM100.5 20.25V21C101.328 21 102 20.3284 102 19.5H101.25H100.5V20.25ZM101.25 19.5H102V16.5H101.25H100.5V19.5H101.25ZM101.25 16.5H102C102 15.6716 101.328 15 100.5 15V15.75V16.5H101.25ZM91.875 24.75V24C92.0821 24 92.25 24.1679 92.25 24.375H91.5H90.75C90.75 24.9963 91.2537 25.5 91.875 25.5V24.75ZM91.5 24.375H92.25C92.25 24.5821 92.0821 24.75 91.875 24.75V24V23.25C91.2537 23.25 90.75 23.7537 90.75 24.375H91.5ZM91.875 24.75V25.5C92.4963 25.5 93 24.9963 93 24.375H92.25H91.5C91.5 24.1679 91.6679 24 91.875 24V24.75ZM92.25 24.375H93C93 23.7537 92.4963 23.25 91.875 23.25V24V24.75C91.6679 24.75 91.5 24.5821 91.5 24.375H92.25ZM91.875 28.5V27.75C92.0821 27.75 92.25 27.9179 92.25 28.125H91.5H90.75C90.75 28.7463 91.2537 29.25 91.875 29.25V28.5ZM91.5 28.125H92.25C92.25 28.3321 92.0821 28.5 91.875 28.5V27.75V27C91.2537 27 90.75 27.5037 90.75 28.125H91.5ZM91.875 28.5V29.25C92.4963 29.25 93 28.7463 93 28.125H92.25H91.5C91.5 27.9179 91.6679 27.75 91.875 27.75V28.5ZM92.25 28.125H93C93 27.5037 92.4963 27 91.875 27V27.75V28.5C91.6679 28.5 91.5 28.3321 91.5 28.125H92.25ZM91.875 32.25V31.5C92.0821 31.5 92.25 31.6679 92.25 31.875H91.5H90.75C90.75 32.4963 91.2537 33 91.875 33V32.25ZM91.5 31.875H92.25C92.25 32.0821 92.0821 32.25 91.875 32.25V31.5V30.75C91.2537 30.75 90.75 31.2537 90.75 31.875H91.5ZM91.875 32.25V33C92.4963 33 93 32.4963 93 31.875H92.25H91.5C91.5 31.6679 91.6679 31.5 91.875 31.5V32.25ZM92.25 31.875H93C93 31.2537 92.4963 30.75 91.875 30.75V31.5V32.25C91.6679 32.25 91.5 32.0821 91.5 31.875H92.25ZM96.156 24.75V24C96.3631 24 96.531 24.1679 96.531 24.375H95.781H95.031C95.031 24.9963 95.5347 25.5 96.156 25.5V24.75ZM95.781 24.375H96.531C96.531 24.5821 96.3631 24.75 96.156 24.75V24V23.25C95.5347 23.25 95.031 23.7537 95.031 24.375H95.781ZM96.156 24.75V25.5C96.7773 25.5 97.281 24.9963 97.281 24.375H96.531H95.781C95.781 24.1679 95.9489 24 96.156 24V24.75ZM96.531 24.375H97.281C97.281 23.7537 96.7773 23.25 96.156 23.25V24V24.75C95.9489 24.75 95.781 24.5821 95.781 24.375H96.531ZM96.156 28.5V27.75C96.3631 27.75 96.531 27.9179 96.531 28.125H95.781H95.031C95.031 28.7463 95.5347 29.25 96.156 29.25V28.5ZM95.781 28.125H96.531C96.531 28.3321 96.3631 28.5 96.156 28.5V27.75V27C95.5347 27 95.031 27.5037 95.031 28.125H95.781ZM96.156 28.5V29.25C96.7773 29.25 97.281 28.7463 97.281 28.125H96.531H95.781C95.781 27.9179 95.9489 27.75 96.156 27.75V28.5ZM96.531 28.125H97.281C97.281 27.5037 96.7773 27 96.156 27V27.75V28.5C95.9489 28.5 95.781 28.3321 95.781 28.125H96.531ZM96.156 32.25V31.5C96.3631 31.5 96.531 31.6679 96.531 31.875H95.781H95.031C95.031 32.4963 95.5347 33 96.156 33V32.25ZM95.781 31.875H96.531C96.531 32.0821 96.3631 32.25 96.156 32.25V31.5V30.75C95.5347 30.75 95.031 31.2537 95.031 31.875H95.781ZM96.156 32.25V33C96.7773 33 97.281 32.4963 97.281 31.875H96.531H95.781C95.781 31.6679 95.9489 31.5 96.156 31.5V32.25ZM96.531 31.875H97.281C97.281 31.2537 96.7773 30.75 96.156 30.75V31.5V32.25C95.9489 32.25 95.781 32.0821 95.781 31.875H96.531ZM100.125 24.75V24C100.332 24 100.5 24.1679 100.5 24.375H99.75H99C99 24.9963 99.5037 25.5 100.125 25.5V24.75ZM99.75 24.375H100.5C100.5 24.5821 100.332 24.75 100.125 24.75V24V23.25C99.5037 23.25 99 23.7537 99 24.375H99.75ZM100.125 24.75V25.5C100.746 25.5 101.25 24.9963 101.25 24.375H100.5H99.75C99.75 24.1679 99.9179 24 100.125 24V24.75ZM100.5 24.375H101.25C101.25 23.7537 100.746 23.25 100.125 23.25V24V24.75C99.9179 24.75 99.75 24.5821 99.75 24.375H100.5ZM100.125 28.5V27.75C100.332 27.75 100.5 27.9179 100.5 28.125H99.75H99C99 28.7463 99.5037 29.25 100.125 29.25V28.5ZM99.75 28.125H100.5C100.5 28.3321 100.332 28.5 100.125 28.5V27.75V27C99.5037 27 99 27.5037 99 28.125H99.75ZM100.125 28.5V29.25C100.746 29.25 101.25 28.7463 101.25 28.125H100.5H99.75C99.75 27.9179 99.9179 27.75 100.125 27.75V28.5ZM100.5 28.125H101.25C101.25 27.5037 100.746 27 100.125 27V27.75V28.5C99.9179 28.5 99.75 28.3321 99.75 28.125H100.5ZM100.125 32.25V31.5C100.332 31.5 100.5 31.6679 100.5 31.875H99.75H99C99 32.4963 99.5037 33 100.125 33V32.25ZM99.75 31.875H100.5C100.5 32.0821 100.332 32.25 100.125 32.25V31.5V30.75C99.5037 30.75 99 31.2537 99 31.875H99.75ZM100.125 32.25V33C100.746 33 101.25 32.4963 101.25 31.875H100.5H99.75C99.75 31.6679 99.9179 31.5 100.125 31.5V32.25ZM100.5 31.875H101.25C101.25 31.2537 100.746 30.75 100.125 30.75V31.5V32.25C99.9179 32.25 99.75 32.0821 99.75 31.875H100.5Z" fill="#111111"/>
<path d="M145 9V8H127V9V10H145V9ZM127 9V8C125.343 8 124 9.34314 124 11H125H126C126 10.4477 126.448 10 127 10V9ZM125 11H124V37H125H126V11H125ZM125 37H124C124 38.6568 125.343 40 127 40V39V38C126.448 38 126 37.5523 126 37H125ZM127 39V40H145V39V38H127V39ZM145 39V40C146.657 40 148 38.6568 148 37H147H146C146 37.5522 145.552 38 145 38V39ZM147 37H148V11H147H146V37H147ZM147 11H148C148 9.34313 146.657 8 145 8V9V10C145.552 10 146 10.4477 146 11H147ZM142 13V12H130V13V14H142V13ZM130 13V12C128.895 12 128 12.8954 128 14H129H130V13ZM129 14H128V18H129H130V14H129ZM129 18H128C128 19.1046 128.895 20 130 20V19V18H129ZM130 19V20H142V19V18H130V19ZM142 19V20C143.105 20 144 19.1046 144 18H143H142V19ZM143 18H144V14H143H142V18H143ZM143 14H144C144 12.8954 143.105 12 142 12V13V14H143ZM130.5 25V24C130.776 24 131 24.2239 131 24.5H130H129C129 25.3284 129.672 26 130.5 26V25ZM130 24.5H131C131 24.7761 130.776 25 130.5 25V24V23C129.672 23 129 23.6716 129 24.5H130ZM130.5 25V26C131.328 26 132 25.3284 132 24.5H131H130C130 24.2239 130.224 24 130.5 24V25ZM131 24.5H132C132 23.6716 131.328 23 130.5 23V24V25C130.224 25 130 24.7761 130 24.5H131ZM130.5 30V29C130.776 29 131 29.2239 131 29.5H130H129C129 30.3284 129.672 31 130.5 31V30ZM130 29.5H131C131 29.7761 130.776 30 130.5 30V29V28C129.672 28 129 28.6716 129 29.5H130ZM130.5 30V31C131.328 31 132 30.3284 132 29.5H131H130C130 29.2239 130.224 29 130.5 29V30ZM131 29.5H132C132 28.6716 131.328 28 130.5 28V29V30C130.224 30 130 29.7761 130 29.5H131ZM130.5 35V34C130.776 34 131 34.2239 131 34.5H130H129C129 35.3284 129.672 36 130.5 36V35ZM130 34.5H131C131 34.7761 130.776 35 130.5 35V34V33C129.672 33 129 33.6716 129 34.5H130ZM130.5 35V36C131.328 36 132 35.3284 132 34.5H131H130C130 34.2239 130.224 34 130.5 34V35ZM131 34.5H132C132 33.6716 131.328 33 130.5 33V34V35C130.224 35 130 34.7761 130 34.5H131ZM136.208 25V24C136.484 24 136.708 24.2238 136.708 24.5H135.708H134.708C134.708 25.3284 135.38 26 136.208 26V25ZM135.708 24.5H136.708C136.708 24.7762 136.484 25 136.208 25V24V23C135.38 23 134.708 23.6716 134.708 24.5H135.708ZM136.208 25V26C137.036 26 137.708 25.3284 137.708 24.5H136.708H135.708C135.708 24.2238 135.932 24 136.208 24V25ZM136.708 24.5H137.708C137.708 23.6716 137.036 23 136.208 23V24V25C135.932 25 135.708 24.7762 135.708 24.5H136.708ZM136.208 30V29C136.484 29 136.708 29.2238 136.708 29.5H135.708H134.708C134.708 30.3284 135.38 31 136.208 31V30ZM135.708 29.5H136.708C136.708 29.7762 136.484 30 136.208 30V29V28C135.38 28 134.708 28.6716 134.708 29.5H135.708ZM136.208 30V31C137.036 31 137.708 30.3284 137.708 29.5H136.708H135.708C135.708 29.2238 135.932 29 136.208 29V30ZM136.708 29.5H137.708C137.708 28.6716 137.036 28 136.208 28V29V30C135.932 30 135.708 29.7762 135.708 29.5H136.708ZM136.208 35V34C136.484 34 136.708 34.2238 136.708 34.5H135.708H134.708C134.708 35.3284 135.38 36 136.208 36V35ZM135.708 34.5H136.708C136.708 34.7762 136.484 35 136.208 35V34V33C135.38 33 134.708 33.6716 134.708 34.5H135.708ZM136.208 35V36C137.036 36 137.708 35.3284 137.708 34.5H136.708H135.708C135.708 34.2238 135.932 34 136.208 34V35ZM136.708 34.5H137.708C137.708 33.6716 137.036 33 136.208 33V34V35C135.932 35 135.708 34.7762 135.708 34.5H136.708ZM141.5 25V24C141.776 24 142 24.2238 142 24.5H141H140C140 25.3284 140.672 26 141.5 26V25ZM141 24.5H142C142 24.7762 141.776 25 141.5 25V24V23C140.672 23 140 23.6716 140 24.5H141ZM141.5 25V26C142.328 26 143 25.3284 143 24.5H142H141C141 24.2238 141.224 24 141.5 24V25ZM142 24.5H143C143 23.6716 142.328 23 141.5 23V24V25C141.224 25 141 24.7762 141 24.5H142ZM141.5 30V29C141.776 29 142 29.2238 142 29.5H141H140C140 30.3284 140.672 31 141.5 31V30ZM141 29.5H142C142 29.7762 141.776 30 141.5 30V29V28C140.672 28 140 28.6716 140 29.5H141ZM141.5 30V31C142.328 31 143 30.3284 143 29.5H142H141C141 29.2238 141.224 29 141.5 29V30ZM142 29.5H143C143 28.6716 142.328 28 141.5 28V29V30C141.224 30 141 29.7762 141 29.5H142ZM141.5 35V34C141.776 34 142 34.2238 142 34.5H141H140C140 35.3284 140.672 36 141.5 36V35ZM141 34.5H142C142 34.7762 141.776 35 141.5 35V34V33C140.672 33 140 33.6716 140 34.5H141ZM141.5 35V36C142.328 36 143 35.3284 143 34.5H142H141C141 34.2238 141.224 34 141.5 34V35ZM142 34.5H143C143 33.6716 142.328 33 141.5 33V34V35C141.224 35 141 34.7762 141 34.5H142Z" fill="#111111"/>
<path d="M195.25 5.25V4H172.75V5.25V6.5H195.25V5.25ZM172.75 5.25V4C170.679 4 169 5.67893 169 7.75H170.25H171.5C171.5 7.05964 172.06 6.5 172.75 6.5V5.25ZM170.25 7.75H169V40.25H170.25H171.5V7.75H170.25ZM170.25 40.25H169C169 42.321 170.679 44 172.75 44V42.75V41.5C172.06 41.5 171.5 40.9403 171.5 40.25H170.25ZM172.75 42.75V44H195.25V42.75V41.5H172.75V42.75ZM195.25 42.75V44C197.321 44 199 42.321 199 40.25H197.75H196.5C196.5 40.9403 195.94 41.5 195.25 41.5V42.75ZM197.75 40.25H199V7.75H197.75H196.5V40.25H197.75ZM197.75 7.75H199C199 5.67891 197.321 4 195.25 4V5.25V6.5C195.94 6.5 196.5 7.05966 196.5 7.75H197.75ZM191.5 10.25V9H176.5V10.25V11.5H191.5V10.25ZM176.5 10.25V9C175.119 9 174 10.1193 174 11.5H175.25H176.5V10.25ZM175.25 11.5H174V16.5H175.25H176.5V11.5H175.25ZM175.25 16.5H174C174 17.8807 175.119 19 176.5 19V17.75V16.5H175.25ZM176.5 17.75V19H191.5V17.75V16.5H176.5V17.75ZM191.5 17.75V19C192.881 19 194 17.8807 194 16.5H192.75H191.5V17.75ZM192.75 16.5H194V11.5H192.75H191.5V16.5H192.75ZM192.75 11.5H194C194 10.1193 192.881 9 191.5 9V10.25V11.5H192.75ZM177.125 25.25V24C177.47 24 177.75 24.2798 177.75 24.625H176.5H175.25C175.25 25.6605 176.089 26.5 177.125 26.5V25.25ZM176.5 24.625H177.75C177.75 24.9702 177.47 25.25 177.125 25.25V24V22.75C176.089 22.75 175.25 23.5895 175.25 24.625H176.5ZM177.125 25.25V26.5C178.161 26.5 179 25.6605 179 24.625H177.75H176.5C176.5 24.2798 176.78 24 177.125 24V25.25ZM177.75 24.625H179C179 23.5895 178.161 22.75 177.125 22.75V24V25.25C176.78 25.25 176.5 24.9702 176.5 24.625H177.75ZM177.125 31.5V30.25C177.47 30.25 177.75 30.5298 177.75 30.875H176.5H175.25C175.25 31.9105 176.089 32.75 177.125 32.75V31.5ZM176.5 30.875H177.75C177.75 31.2202 177.47 31.5 177.125 31.5V30.25V29C176.089 29 175.25 29.8395 175.25 30.875H176.5ZM177.125 31.5V32.75C178.161 32.75 179 31.9105 179 30.875H177.75H176.5C176.5 30.5298 176.78 30.25 177.125 30.25V31.5ZM177.75 30.875H179C179 29.8395 178.161 29 177.125 29V30.25V31.5C176.78 31.5 176.5 31.2202 176.5 30.875H177.75ZM177.125 37.75V36.5C177.47 36.5 177.75 36.7798 177.75 37.125H176.5H175.25C175.25 38.1605 176.089 39 177.125 39V37.75ZM176.5 37.125H177.75C177.75 37.4702 177.47 37.75 177.125 37.75V36.5V35.25C176.089 35.25 175.25 36.0895 175.25 37.125H176.5ZM177.125 37.75V39C178.161 39 179 38.1605 179 37.125H177.75H176.5C176.5 36.7798 176.78 36.5 177.125 36.5V37.75ZM177.75 37.125H179C179 36.0895 178.161 35.25 177.125 35.25V36.5V37.75C176.78 37.75 176.5 37.4702 176.5 37.125H177.75ZM184.26 25.25V24C184.605 24 184.885 24.2798 184.885 24.625H183.635H182.385C182.385 25.6605 183.224 26.5 184.26 26.5V25.25ZM183.635 24.625H184.885C184.885 24.9702 184.605 25.25 184.26 25.25V24V22.75C183.224 22.75 182.385 23.5895 182.385 24.625H183.635ZM184.26 25.25V26.5C185.296 26.5 186.135 25.6605 186.135 24.625H184.885H183.635C183.635 24.2798 183.915 24 184.26 24V25.25ZM184.885 24.625H186.135C186.135 23.5895 185.296 22.75 184.26 22.75V24V25.25C183.915 25.25 183.635 24.9702 183.635 24.625H184.885ZM184.26 31.5V30.25C184.605 30.25 184.885 30.5298 184.885 30.875H183.635H182.385C182.385 31.9105 183.224 32.75 184.26 32.75V31.5ZM183.635 30.875H184.885C184.885 31.2202 184.605 31.5 184.26 31.5V30.25V29C183.224 29 182.385 29.8395 182.385 30.875H183.635ZM184.26 31.5V32.75C185.296 32.75 186.135 31.9105 186.135 30.875H184.885H183.635C183.635 30.5298 183.915 30.25 184.26 30.25V31.5ZM184.885 30.875H186.135C186.135 29.8395 185.296 29 184.26 29V30.25V31.5C183.915 31.5 183.635 31.2202 183.635 30.875H184.885ZM184.26 37.75V36.5C184.605 36.5 184.885 36.7798 184.885 37.125H183.635H182.385C182.385 38.1605 183.224 39 184.26 39V37.75ZM183.635 37.125H184.885C184.885 37.4702 184.605 37.75 184.26 37.75V36.5V35.25C183.224 35.25 182.385 36.0895 182.385 37.125H183.635ZM184.26 37.75V39C185.296 39 186.135 38.1605 186.135 37.125H184.885H183.635C183.635 36.7798 183.915 36.5 184.26 36.5V37.75ZM184.885 37.125H186.135C186.135 36.0895 185.296 35.25 184.26 35.25V36.5V37.75C183.915 37.75 183.635 37.4702 183.635 37.125H184.885ZM190.875 25.25V24C191.22 24 191.5 24.2798 191.5 24.625H190.25H189C189 25.6605 189.839 26.5 190.875 26.5V25.25ZM190.25 24.625H191.5C191.5 24.9702 191.22 25.25 190.875 25.25V24V22.75C189.839 22.75 189 23.5895 189 24.625H190.25ZM190.875 25.25V26.5C191.911 26.5 192.75 25.6605 192.75 24.625H191.5H190.25C190.25 24.2798 190.53 24 190.875 24V25.25ZM191.5 24.625H192.75C192.75 23.5895 191.911 22.75 190.875 22.75V24V25.25C190.53 25.25 190.25 24.9702 190.25 24.625H191.5ZM190.875 31.5V30.25C191.22 30.25 191.5 30.5298 191.5 30.875H190.25H189C189 31.9105 189.839 32.75 190.875 32.75V31.5ZM190.25 30.875H191.5C191.5 31.2202 191.22 31.5 190.875 31.5V30.25V29C189.839 29 189 29.8395 189 30.875H190.25ZM190.875 31.5V32.75C191.911 32.75 192.75 31.9105 192.75 30.875H191.5H190.25C190.25 30.5298 190.53 30.25 190.875 30.25V31.5ZM191.5 30.875H192.75C192.75 29.8395 191.911 29 190.875 29V30.25V31.5C190.53 31.5 190.25 31.2202 190.25 30.875H191.5ZM190.875 37.75V36.5C191.22 36.5 191.5 36.7798 191.5 37.125H190.25H189C189 38.1605 189.839 39 190.875 39V37.75ZM190.25 37.125H191.5C191.5 37.4702 191.22 37.75 190.875 37.75V36.5V35.25C189.839 35.25 189 36.0895 189 37.125H190.25ZM190.875 37.75V39C191.911 39 192.75 38.1605 192.75 37.125H191.5H190.25C190.25 36.7798 190.53 36.5 190.875 36.5V37.75ZM191.5 37.125H192.75C192.75 36.0895 191.911 35.25 190.875 35.25V36.5V37.75C190.53 37.75 190.25 37.4702 190.25 37.125H191.5Z" fill="#111111"/>
<path d="M253.5 1.5V0H226.5V1.5V3H253.5V1.5ZM226.5 1.5V0C224.015 0 222 2.01471 222 4.5H223.5H225C225 3.67157 225.672 3 226.5 3V1.5ZM223.5 4.5H222V43.5H223.5H225V4.5H223.5ZM223.5 43.5H222C222 45.9852 224.015 48 226.5 48V46.5V45C225.672 45 225 44.3284 225 43.5H223.5ZM226.5 46.5V48H253.5V46.5V45H226.5V46.5ZM253.5 46.5V48C255.985 48 258 45.9852 258 43.5H256.5H255C255 44.3284 254.328 45 253.5 45V46.5ZM256.5 43.5H258V4.5H256.5H255V43.5H256.5ZM256.5 4.5H258C258 2.01469 255.985 0 253.5 0V1.5V3C254.328 3 255 3.67159 255 4.5H256.5ZM249 7.5V6H231V7.5V9H249V7.5ZM231 7.5V6C229.343 6 228 7.34315 228 9H229.5H231V7.5ZM229.5 9H228V15H229.5H231V9H229.5ZM229.5 15H228C228 16.6568 229.343 18 231 18V16.5V15H229.5ZM231 16.5V18H249V16.5V15H231V16.5ZM249 16.5V18C250.657 18 252 16.6569 252 15H250.5H249V16.5ZM250.5 15H252V9H250.5H249V15H250.5ZM250.5 9H252C252 7.34314 250.657 6 249 6V7.5V9H250.5ZM231.75 25.5V24C232.164 24 232.5 24.3358 232.5 24.75H231H229.5C229.5 25.9926 230.507 27 231.75 27V25.5ZM231 24.75H232.5C232.5 25.1642 232.164 25.5 231.75 25.5V24V22.5C230.507 22.5 229.5 23.5074 229.5 24.75H231ZM231.75 25.5V27C232.993 27 234 25.9926 234 24.75H232.5H231C231 24.3358 231.336 24 231.75 24V25.5ZM232.5 24.75H234C234 23.5074 232.993 22.5 231.75 22.5V24V25.5C231.336 25.5 231 25.1642 231 24.75H232.5ZM231.75 33V31.5C232.164 31.5 232.5 31.8358 232.5 32.25H231H229.5C229.5 33.4926 230.507 34.5 231.75 34.5V33ZM231 32.25H232.5C232.5 32.6642 232.164 33 231.75 33V31.5V30C230.507 30 229.5 31.0074 229.5 32.25H231ZM231.75 33V34.5C232.993 34.5 234 33.4926 234 32.25H232.5H231C231 31.8358 231.336 31.5 231.75 31.5V33ZM232.5 32.25H234C234 31.0074 232.993 30 231.75 30V31.5V33C231.336 33 231 32.6642 231 32.25H232.5ZM231.75 40.5V39C232.164 39 232.5 39.3358 232.5 39.75H231H229.5C229.5 40.9926 230.507 42 231.75 42V40.5ZM231 39.75H232.5C232.5 40.1642 232.164 40.5 231.75 40.5V39V37.5C230.507 37.5 229.5 38.5074 229.5 39.75H231ZM231.75 40.5V42C232.993 42 234 40.9926 234 39.75H232.5H231C231 39.3358 231.336 39 231.75 39V40.5ZM232.5 39.75H234C234 38.5074 232.993 37.5 231.75 37.5V39V40.5C231.336 40.5 231 40.1642 231 39.75H232.5ZM240.312 25.5V24C240.726 24 241.062 24.3358 241.062 24.75H239.562H238.062C238.062 25.9926 239.069 27 240.312 27V25.5ZM239.562 24.75H241.062C241.062 25.1642 240.726 25.5 240.312 25.5V24V22.5C239.069 22.5 238.062 23.5074 238.062 24.75H239.562ZM240.312 25.5V27C241.555 27 242.562 25.9926 242.562 24.75H241.062H239.562C239.562 24.3358 239.898 24 240.312 24V25.5ZM241.062 24.75H242.562C242.562 23.5074 241.555 22.5 240.312 22.5V24V25.5C239.898 25.5 239.562 25.1642 239.562 24.75H241.062ZM240.312 33V31.5C240.726 31.5 241.062 31.8358 241.062 32.25H239.562H238.062C238.062 33.4926 239.069 34.5 240.312 34.5V33ZM239.562 32.25H241.062C241.062 32.6642 240.726 33 240.312 33V31.5V30C239.069 30 238.062 31.0074 238.062 32.25H239.562ZM240.312 33V34.5C241.555 34.5 242.562 33.4926 242.562 32.25H241.062H239.562C239.562 31.8358 239.898 31.5 240.312 31.5V33ZM241.062 32.25H242.562C242.562 31.0074 241.555 30 240.312 30V31.5V33C239.898 33 239.562 32.6642 239.562 32.25H241.062ZM240.312 40.5V39C240.726 39 241.062 39.3358 241.062 39.75H239.562H238.062C238.062 40.9926 239.069 42 240.312 42V40.5ZM239.562 39.75H241.062C241.062 40.1642 240.726 40.5 240.312 40.5V39V37.5C239.069 37.5 238.062 38.5074 238.062 39.75H239.562ZM240.312 40.5V42C241.555 42 242.562 40.9926 242.562 39.75H241.062H239.562C239.562 39.3358 239.898 39 240.312 39V40.5ZM241.062 39.75H242.562C242.562 38.5074 241.555 37.5 240.312 37.5V39V40.5C239.898 40.5 239.562 40.1642 239.562 39.75H241.062ZM248.25 25.5V24C248.664 24 249 24.3358 249 24.75H247.5H246C246 25.9926 247.007 27 248.25 27V25.5ZM247.5 24.75H249C249 25.1642 248.664 25.5 248.25 25.5V24V22.5C247.007 22.5 246 23.5074 246 24.75H247.5ZM248.25 25.5V27C249.493 27 250.5 25.9926 250.5 24.75H249H247.5C247.5 24.3358 247.836 24 248.25 24V25.5ZM249 24.75H250.5C250.5 23.5074 249.493 22.5 248.25 22.5V24V25.5C247.836 25.5 247.5 25.1642 247.5 24.75H249ZM248.25 33V31.5C248.664 31.5 249 31.8358 249 32.25H247.5H246C246 33.4926 247.007 34.5 248.25 34.5V33ZM247.5 32.25H249C249 32.6642 248.664 33 248.25 33V31.5V30C247.007 30 246 31.0074 246 32.25H247.5ZM248.25 33V34.5C249.493 34.5 250.5 33.4926 250.5 32.25H249H247.5C247.5 31.8358 247.836 31.5 248.25 31.5V33ZM249 32.25H250.5C250.5 31.0074 249.493 30 248.25 30V31.5V33C247.836 33 247.5 32.6642 247.5 32.25H249ZM248.25 40.5V39C248.664 39 249 39.3358 249 39.75H247.5H246C246 40.9926 247.007 42 248.25 42V40.5ZM247.5 39.75H249C249 40.1642 248.664 40.5 248.25 40.5V39V37.5C247.007 37.5 246 38.5074 246 39.75H247.5ZM248.25 40.5V42C249.493 42 250.5 40.9926 250.5 39.75H249H247.5C247.5 39.3358 247.836 39 248.25 39V40.5ZM249 39.75H250.5C250.5 38.5074 249.493 37.5 248.25 37.5V39V40.5C247.836 40.5 247.5 40.1642 247.5 39.75H249Z" fill="#111111"/>
<g clip-path="url(#clip0_3127_482)">
<path fill-rule="evenodd" clip-rule="evenodd" d="M9.5 78H2.75C2.33579 78 2 78.3582 2 78.8V89.2C2 89.6418 2.33579 90 2.75 90H9.5C9.9142 90 10.25 89.6418 10.25 89.2V78.8C10.25 78.3582 9.9142 78 9.5 78ZM3.9375 83.625C3.62683 83.625 3.375 83.8768 3.375 84.1875C3.375 84.4982 3.62683 84.75 3.9375 84.75C4.24817 84.75 4.5 84.4982 4.5 84.1875C4.5 83.8768 4.24817 83.625 3.9375 83.625ZM3.9375 86.625C3.62683 86.625 3.375 86.3731 3.375 86.0625C3.375 85.7518 3.62683 85.5 3.9375 85.5C4.24817 85.5 4.5 85.7518 4.5 86.0625C4.5 86.3731 4.24817 86.625 3.9375 86.625ZM3.9375 88.5C3.62683 88.5 3.375 88.2481 3.375 87.9375C3.375 87.6269 3.62683 87.375 3.9375 87.375C4.24817 87.375 4.5 87.6269 4.5 87.9375C4.5 88.2481 4.24817 88.5 3.9375 88.5ZM6.6405 84.1875C6.6405 83.8768 6.38866 83.625 6.078 83.625C5.76735 83.625 5.5155 83.8768 5.5155 84.1875C5.5155 84.4982 5.76735 84.75 6.078 84.75C6.38866 84.75 6.6405 84.4982 6.6405 84.1875ZM6.6405 86.0625C6.6405 85.7518 6.38866 85.5 6.078 85.5C5.76735 85.5 5.5155 85.7518 5.5155 86.0625C5.5155 86.3732 5.76735 86.625 6.078 86.625C6.38866 86.625 6.6405 86.3732 6.6405 86.0625ZM6.64038 87.9375C6.64038 87.6268 6.38866 87.375 6.078 87.375C5.76735 87.375 5.5155 87.6268 5.5155 87.9375C5.5155 88.2482 5.76735 88.5 6.078 88.5C6.38866 88.5 6.64038 88.2482 6.64038 87.9375ZM8.625 84.1875C8.625 83.8768 8.37316 83.625 8.0625 83.625C7.75184 83.625 7.5 83.8768 7.5 84.1875C7.5 84.4982 7.75184 84.75 8.0625 84.75C8.37316 84.75 8.625 84.4982 8.625 84.1875ZM8.625 86.0625C8.625 85.7518 8.37316 85.5 8.0625 85.5C7.75184 85.5 7.5 85.7518 7.5 86.0625C7.5 86.3732 7.75184 86.625 8.0625 86.625C8.37316 86.625 8.625 86.3732 8.625 86.0625ZM8.625 87.9375C8.625 87.6268 8.37316 87.375 8.0625 87.375C7.75184 87.375 7.5 87.6268 7.5 87.9375C7.5 88.2482 7.75184 88.5 8.0625 88.5C8.37316 88.5 8.625 88.2482 8.625 87.9375ZM3.75 79.625C3.40482 79.625 3.125 79.9048 3.125 80.25V81.75C3.125 82.0952 3.40482 82.375 3.75 82.375H8.25C8.59517 82.375 8.875 82.0952 8.875 81.75V80.25C8.875 79.9048 8.59517 79.625 8.25 79.625H3.75ZM3.625 80.25C3.625 80.181 3.68097 80.125 3.75 80.125H8.25C8.31903 80.125 8.375 80.181 8.375 80.25V81.75C8.375 81.819 8.31903 81.875 8.25 81.875H3.75C3.68097 81.875 3.625 81.819 3.625 81.75V80.25Z" fill="#111111"/>
</g>
<g clip-path="url(#clip1_3127_482)">
<path fill-rule="evenodd" clip-rule="evenodd" d="M36.6665 76H27.6665C27.1142 76 26.6665 76.4776 26.6665 77.0667V90.9333C26.6665 91.5224 27.1142 92 27.6665 92H36.6665C37.2188 92 37.6665 91.5224 37.6665 90.9333V77.0667C37.6665 76.4776 37.2188 76 36.6665 76ZM29.2498 83.5C28.8356 83.5 28.4998 83.8358 28.4998 84.25C28.4998 84.6642 28.8356 85 29.2498 85C29.6641 85 29.9998 84.6642 29.9998 84.25C29.9998 83.8358 29.6641 83.5 29.2498 83.5ZM29.2498 87.5C28.8356 87.5 28.4998 87.1642 28.4998 86.75C28.4998 86.3358 28.8356 86 29.2498 86C29.6641 86 29.9998 86.3358 29.9998 86.75C29.9998 87.1642 29.6641 87.5 29.2498 87.5ZM29.2498 90C28.8356 90 28.4998 89.6642 28.4998 89.25C28.4998 88.8358 28.8356 88.5 29.2498 88.5C29.6641 88.5 29.9998 88.8358 29.9998 89.25C29.9998 89.6642 29.6641 90 29.2498 90ZM32.8538 84.25C32.8538 83.8358 32.5181 83.5 32.1038 83.5C31.6896 83.5 31.3538 83.8358 31.3538 84.25C31.3538 84.6642 31.6896 85 32.1038 85C32.5181 85 32.8538 84.6642 32.8538 84.25ZM32.8538 86.75C32.8538 86.3358 32.5181 86 32.1038 86C31.6896 86 31.3538 86.3358 31.3538 86.75C31.3538 87.1642 31.6896 87.5 32.1038 87.5C32.5181 87.5 32.8538 87.1642 32.8538 86.75ZM32.8537 89.25C32.8537 88.8358 32.5181 88.5 32.1038 88.5C31.6896 88.5 31.3538 88.8358 31.3538 89.25C31.3538 89.6642 31.6896 90 32.1038 90C32.5181 90 32.8537 89.6642 32.8537 89.25ZM35.4998 84.25C35.4998 83.8358 35.164 83.5 34.7498 83.5C34.3356 83.5 33.9998 83.8358 33.9998 84.25C33.9998 84.6642 34.3356 85 34.7498 85C35.164 85 35.4998 84.6642 35.4998 84.25ZM35.4998 86.75C35.4998 86.3358 35.164 86 34.7498 86C34.3356 86 33.9998 86.3358 33.9998 86.75C33.9998 87.1642 34.3356 87.5 34.7498 87.5C35.164 87.5 35.4998 87.1642 35.4998 86.75ZM35.4998 89.25C35.4998 88.8358 35.164 88.5 34.7498 88.5C34.3356 88.5 33.9998 88.8358 33.9998 89.25C33.9998 89.6642 34.3356 90 34.7498 90C35.164 90 35.4998 89.6642 35.4998 89.25ZM28.9998 78.1667C28.5396 78.1667 28.1665 78.5398 28.1665 79V81C28.1665 81.4602 28.5396 81.8333 28.9998 81.8333H34.9998C35.4601 81.8333 35.8332 81.4602 35.8332 81V79C35.8332 78.5398 35.4601 78.1667 34.9998 78.1667H28.9998ZM28.8332 79C28.8332 78.908 28.9078 78.8333 28.9998 78.8333H34.9998C35.0919 78.8333 35.1665 78.908 35.1665 79V81C35.1665 81.092 35.0919 81.1667 34.9998 81.1667H28.9998C28.9078 81.1667 28.8332 81.092 28.8332 81V79Z" fill="#111111"/>
</g>
<g clip-path="url(#clip2_3127_482)">
<path fill-rule="evenodd" clip-rule="evenodd" d="M67.8335 74H56.5835C55.8931 74 55.3335 74.597 55.3335 75.3333V92.6667C55.3335 93.403 55.8931 94 56.5835 94H67.8335C68.5238 94 69.0835 93.403 69.0835 92.6667V75.3333C69.0835 74.597 68.5238 74 67.8335 74ZM58.5627 83.375C58.0449 83.375 57.6252 83.7948 57.6252 84.3125C57.6252 84.8303 58.0449 85.25 58.5627 85.25C59.0804 85.25 59.5002 84.8303 59.5002 84.3125C59.5002 83.7948 59.0804 83.375 58.5627 83.375ZM58.5627 88.375C58.0449 88.375 57.6252 87.9553 57.6252 87.4375C57.6252 86.9198 58.0449 86.5 58.5627 86.5C59.0804 86.5 59.5002 86.9198 59.5002 87.4375C59.5002 87.9553 59.0804 88.375 58.5627 88.375ZM58.5627 91.5C58.0449 91.5 57.6252 91.0802 57.6252 90.5625C57.6252 90.0448 58.0449 89.625 58.5627 89.625C59.0804 89.625 59.5002 90.0448 59.5002 90.5625C59.5002 91.0802 59.0804 91.5 58.5627 91.5ZM63.0677 84.3125C63.0677 83.7947 62.6479 83.375 62.1302 83.375C61.6124 83.375 61.1927 83.7947 61.1927 84.3125C61.1927 84.8303 61.6124 85.25 62.1302 85.25C62.6479 85.25 63.0677 84.8303 63.0677 84.3125ZM63.0677 87.4375C63.0677 86.9197 62.6479 86.5 62.1302 86.5C61.6124 86.5 61.1927 86.9197 61.1927 87.4375C61.1927 87.9553 61.6124 88.375 62.1302 88.375C62.6479 88.375 63.0677 87.9553 63.0677 87.4375ZM63.0675 90.5625C63.0675 90.0447 62.6479 89.625 62.1302 89.625C61.6124 89.625 61.1927 90.0447 61.1927 90.5625C61.1927 91.0803 61.6124 91.5 62.1302 91.5C62.6479 91.5 63.0675 91.0803 63.0675 90.5625ZM66.3752 84.3125C66.3752 83.7947 65.9554 83.375 65.4377 83.375C64.9199 83.375 64.5002 83.7947 64.5002 84.3125C64.5002 84.8303 64.9199 85.25 65.4377 85.25C65.9554 85.25 66.3752 84.8303 66.3752 84.3125ZM66.3752 87.4375C66.3752 86.9197 65.9554 86.5 65.4377 86.5C64.9199 86.5 64.5002 86.9197 64.5002 87.4375C64.5002 87.9553 64.9199 88.375 65.4377 88.375C65.9554 88.375 66.3752 87.9553 66.3752 87.4375ZM66.3752 90.5625C66.3752 90.0447 65.9554 89.625 65.4377 89.625C64.9199 89.625 64.5002 90.0447 64.5002 90.5625C64.5002 91.0803 64.9199 91.5 65.4377 91.5C65.9554 91.5 66.3752 91.0803 66.3752 90.5625ZM58.2502 76.7083C57.6749 76.7083 57.2085 77.1747 57.2085 77.75V80.25C57.2085 80.8253 57.6749 81.2917 58.2502 81.2917H65.7502C66.3254 81.2917 66.7918 80.8253 66.7918 80.25V77.75C66.7918 77.1747 66.3254 76.7083 65.7502 76.7083H58.2502ZM58.0418 77.75C58.0418 77.6349 58.1351 77.5417 58.2502 77.5417H65.7502C65.8652 77.5417 65.9585 77.6349 65.9585 77.75V80.25C65.9585 80.3651 65.8652 80.4583 65.7502 80.4583H58.2502C58.1351 80.4583 58.0418 80.3651 58.0418 80.25V77.75Z" fill="#111111"/>
</g>
<g clip-path="url(#clip3_3127_482)">
<path fill-rule="evenodd" clip-rule="evenodd" d="M103 72H89.5C88.6716 72 88 72.7163 88 73.6V94.4C88 95.2836 88.6716 96 89.5 96H103C103.828 96 104.5 95.2836 104.5 94.4V73.6C104.5 72.7163 103.828 72 103 72ZM91.875 83.25C91.2537 83.25 90.75 83.7537 90.75 84.375C90.75 84.9963 91.2537 85.5 91.875 85.5C92.4963 85.5 93 84.9963 93 84.375C93 83.7537 92.4963 83.25 91.875 83.25ZM91.875 89.25C91.2537 89.25 90.75 88.7463 90.75 88.125C90.75 87.5037 91.2537 87 91.875 87C92.4963 87 93 87.5037 93 88.125C93 88.7463 92.4963 89.25 91.875 89.25ZM91.875 93C91.2537 93 90.75 92.4963 90.75 91.875C90.75 91.2537 91.2537 90.75 91.875 90.75C92.4963 90.75 93 91.2537 93 91.875C93 92.4963 92.4963 93 91.875 93ZM97.281 84.375C97.281 83.7537 96.7773 83.25 96.156 83.25C95.5347 83.25 95.031 83.7537 95.031 84.375C95.031 84.9963 95.5347 85.5 96.156 85.5C96.7773 85.5 97.281 84.9963 97.281 84.375ZM97.281 88.125C97.281 87.5037 96.7773 87 96.156 87C95.5347 87 95.031 87.5037 95.031 88.125C95.031 88.7463 95.5347 89.25 96.156 89.25C96.7773 89.25 97.281 88.7463 97.281 88.125ZM97.2808 91.875C97.2808 91.2537 96.7773 90.75 96.156 90.75C95.5347 90.75 95.031 91.2537 95.031 91.875C95.031 92.4963 95.5347 93 96.156 93C96.7773 93 97.2808 92.4963 97.2808 91.875ZM101.25 84.375C101.25 83.7537 100.746 83.25 100.125 83.25C99.5037 83.25 99 83.7537 99 84.375C99 84.9963 99.5037 85.5 100.125 85.5C100.746 85.5 101.25 84.9963 101.25 84.375ZM101.25 88.125C101.25 87.5037 100.746 87 100.125 87C99.5037 87 99 87.5037 99 88.125C99 88.7463 99.5037 89.25 100.125 89.25C100.746 89.25 101.25 88.7463 101.25 88.125ZM101.25 91.875C101.25 91.2537 100.746 90.75 100.125 90.75C99.5037 90.75 99 91.2537 99 91.875C99 92.4963 99.5037 93 100.125 93C100.746 93 101.25 92.4963 101.25 91.875ZM91.5 75.25C90.8096 75.25 90.25 75.8096 90.25 76.5V79.5C90.25 80.1904 90.8096 80.75 91.5 80.75H100.5C101.19 80.75 101.75 80.1904 101.75 79.5V76.5C101.75 75.8096 101.19 75.25 100.5 75.25H91.5ZM91.25 76.5C91.25 76.3619 91.3619 76.25 91.5 76.25H100.5C100.638 76.25 100.75 76.3619 100.75 76.5V79.5C100.75 79.6381 100.638 79.75 100.5 79.75H91.5C91.3619 79.75 91.25 79.6381 91.25 79.5V76.5Z" fill="#111111"/>
</g>
<g clip-path="url(#clip4_3127_482)">
<path fill-rule="evenodd" clip-rule="evenodd" d="M145.333 68H127.333C126.229 68 125.333 68.9551 125.333 70.1333V97.8667C125.333 99.0448 126.229 100 127.333 100H145.333C146.438 100 147.333 99.0448 147.333 97.8667V70.1333C147.333 68.9551 146.438 68 145.333 68ZM130.5 83C129.672 83 129 83.6716 129 84.5C129 85.3284 129.672 86 130.5 86C131.329 86 132 85.3284 132 84.5C132 83.6716 131.329 83 130.5 83ZM130.5 91C129.672 91 129 90.3284 129 89.5C129 88.6716 129.672 88 130.5 88C131.329 88 132 88.6716 132 89.5C132 90.3284 131.329 91 130.5 91ZM130.5 96C129.672 96 129 95.3284 129 94.5C129 93.6716 129.672 93 130.5 93C131.329 93 132 93.6716 132 94.5C132 95.3284 131.329 96 130.5 96ZM137.708 84.5C137.708 83.6716 137.037 83 136.208 83C135.38 83 134.708 83.6716 134.708 84.5C134.708 85.3284 135.38 86 136.208 86C137.037 86 137.708 85.3284 137.708 84.5ZM137.708 89.5C137.708 88.6716 137.037 88 136.208 88C135.38 88 134.708 88.6716 134.708 89.5C134.708 90.3284 135.38 91 136.208 91C137.037 91 137.708 90.3284 137.708 89.5ZM137.708 94.5C137.708 93.6716 137.037 93 136.208 93C135.38 93 134.708 93.6716 134.708 94.5C134.708 95.3284 135.38 96 136.208 96C137.037 96 137.708 95.3284 137.708 94.5ZM143 84.5C143 83.6716 142.329 83 141.5 83C140.672 83 140 83.6716 140 84.5C140 85.3284 140.672 86 141.5 86C142.329 86 143 85.3284 143 84.5ZM143 89.5C143 88.6716 142.329 88 141.5 88C140.672 88 140 88.6716 140 89.5C140 90.3284 140.672 91 141.5 91C142.329 91 143 90.3284 143 89.5ZM143 94.5C143 93.6716 142.329 93 141.5 93C140.672 93 140 93.6716 140 94.5C140 95.3284 140.672 96 141.5 96C142.329 96 143 95.3284 143 94.5ZM130 72.3333C129.08 72.3333 128.333 73.0795 128.333 74V78C128.333 78.9205 129.08 79.6667 130 79.6667H142C142.921 79.6667 143.667 78.9205 143.667 78V74C143.667 73.0795 142.921 72.3333 142 72.3333H130ZM129.667 74C129.667 73.8159 129.816 73.6667 130 73.6667H142C142.184 73.6667 142.333 73.8159 142.333 74V78C142.333 78.1841 142.184 78.3333 142 78.3333H130C129.816 78.3333 129.667 78.1841 129.667 78V74Z" fill="#111111"/>
</g>
<g clip-path="url(#clip5_3127_482)">
<path fill-rule="evenodd" clip-rule="evenodd" d="M195.667 64H173.167C171.786 64 170.667 65.1939 170.667 66.6667V101.333C170.667 102.806 171.786 104 173.167 104H195.667C197.047 104 198.167 102.806 198.167 101.333V66.6667C198.167 65.1939 197.047 64 195.667 64ZM177.125 82.75C176.089 82.75 175.25 83.5895 175.25 84.625C175.25 85.6605 176.089 86.5 177.125 86.5C178.16 86.5 179 85.6605 179 84.625C179 83.5895 178.16 82.75 177.125 82.75ZM177.125 92.75C176.089 92.75 175.25 91.9105 175.25 90.875C175.25 89.8395 176.089 89 177.125 89C178.16 89 179 89.8395 179 90.875C179 91.9105 178.16 92.75 177.125 92.75ZM177.125 99C176.089 99 175.25 98.1605 175.25 97.125C175.25 96.0895 176.089 95.25 177.125 95.25C178.16 95.25 179 96.0895 179 97.125C179 98.1605 178.16 99 177.125 99ZM186.135 84.625C186.135 83.5895 185.295 82.75 184.26 82.75C183.224 82.75 182.385 83.5895 182.385 84.625C182.385 85.6605 183.224 86.5 184.26 86.5C185.295 86.5 186.135 85.6605 186.135 84.625ZM186.135 90.875C186.135 89.8395 185.295 89 184.26 89C183.224 89 182.385 89.8395 182.385 90.875C182.385 91.9105 183.224 92.75 184.26 92.75C185.295 92.75 186.135 91.9105 186.135 90.875ZM186.134 97.125C186.134 96.0895 185.295 95.25 184.26 95.25C183.224 95.25 182.385 96.0895 182.385 97.125C182.385 98.1605 183.224 99 184.26 99C185.295 99 186.134 98.1605 186.134 97.125ZM192.75 84.625C192.75 83.5895 191.91 82.75 190.875 82.75C189.839 82.75 189 83.5895 189 84.625C189 85.6605 189.839 86.5 190.875 86.5C191.91 86.5 192.75 85.6605 192.75 84.625ZM192.75 90.875C192.75 89.8395 191.91 89 190.875 89C189.839 89 189 89.8395 189 90.875C189 91.9105 189.839 92.75 190.875 92.75C191.91 92.75 192.75 91.9105 192.75 90.875ZM192.75 97.125C192.75 96.0895 191.91 95.25 190.875 95.25C189.839 95.25 189 96.0895 189 97.125C189 98.1605 189.839 99 190.875 99C191.91 99 192.75 98.1605 192.75 97.125ZM176.5 69.4167C175.349 69.4167 174.417 70.3494 174.417 71.5V76.5C174.417 77.6506 175.349 78.5833 176.5 78.5833H191.5C192.65 78.5833 193.583 77.6506 193.583 76.5V71.5C193.583 70.3494 192.65 69.4167 191.5 69.4167H176.5ZM176.083 71.5C176.083 71.2699 176.27 71.0833 176.5 71.0833H191.5C191.73 71.0833 191.917 71.2699 191.917 71.5V76.5C191.917 76.7301 191.73 76.9167 191.5 76.9167H176.5C176.27 76.9167 176.083 76.7301 176.083 76.5V71.5Z" fill="#111111"/>
</g>
<g clip-path="url(#clip6_3127_482)">
<path fill-rule="evenodd" clip-rule="evenodd" d="M254 60H227C225.343 60 224 61.4327 224 63.2V104.8C224 106.567 225.343 108 227 108H254C255.657 108 257 106.567 257 104.8V63.2C257 61.4327 255.657 60 254 60ZM231.75 82.5C230.507 82.5 229.5 83.5074 229.5 84.75C229.5 85.9926 230.507 87 231.75 87C232.993 87 234 85.9926 234 84.75C234 83.5074 232.993 82.5 231.75 82.5ZM231.75 94.5C230.507 94.5 229.5 93.4926 229.5 92.25C229.5 91.0074 230.507 90 231.75 90C232.993 90 234 91.0074 234 92.25C234 93.4926 232.993 94.5 231.75 94.5ZM231.75 102C230.507 102 229.5 100.993 229.5 99.75C229.5 98.5074 230.507 97.5 231.75 97.5C232.993 97.5 234 98.5074 234 99.75C234 100.993 232.993 102 231.75 102ZM242.562 84.75C242.562 83.5074 241.555 82.5 240.312 82.5C239.069 82.5 238.062 83.5074 238.062 84.75C238.062 85.9926 239.069 87 240.312 87C241.555 87 242.562 85.9926 242.562 84.75ZM242.562 92.25C242.562 91.0074 241.555 90 240.312 90C239.069 90 238.062 91.0074 238.062 92.25C238.062 93.4926 239.069 94.5 240.312 94.5C241.555 94.5 242.562 93.4926 242.562 92.25ZM242.562 99.75C242.562 98.5074 241.555 97.5 240.312 97.5C239.069 97.5 238.062 98.5074 238.062 99.75C238.062 100.993 239.069 102 240.312 102C241.555 102 242.562 100.993 242.562 99.75ZM250.5 84.75C250.5 83.5074 249.493 82.5 248.25 82.5C247.007 82.5 246 83.5074 246 84.75C246 85.9926 247.007 87 248.25 87C249.493 87 250.5 85.9926 250.5 84.75ZM250.5 92.25C250.5 91.0074 249.493 90 248.25 90C247.007 90 246 91.0074 246 92.25C246 93.4926 247.007 94.5 248.25 94.5C249.493 94.5 250.5 93.4926 250.5 92.25ZM250.5 99.75C250.5 98.5074 249.493 97.5 248.25 97.5C247.007 97.5 246 98.5074 246 99.75C246 100.993 247.007 102 248.25 102C249.493 102 250.5 100.993 250.5 99.75ZM231 66.5C229.619 66.5 228.5 67.6193 228.5 69V75C228.5 76.3807 229.619 77.5 231 77.5H249C250.381 77.5 251.5 76.3807 251.5 75V69C251.5 67.6193 250.381 66.5 249 66.5H231ZM230.5 69C230.5 68.7239 230.724 68.5 231 68.5H249C249.276 68.5 249.5 68.7239 249.5 69V75C249.5 75.2761 249.276 75.5 249 75.5H231C230.724 75.5 230.5 75.2761 230.5 75V69Z" fill="#111111"/>
</g>
<defs>
<clipPath id="clip0_3127_482">
<rect width="12" height="12" fill="white" transform="translate(0 78)"/>
</clipPath>
<clipPath id="clip1_3127_482">
<rect width="16" height="16" fill="white" transform="translate(24 76)"/>
</clipPath>
<clipPath id="clip2_3127_482">
<rect width="20" height="20" fill="white" transform="translate(52 74)"/>
</clipPath>
<clipPath id="clip3_3127_482">
<rect width="24" height="24" fill="white" transform="translate(84 72)"/>
</clipPath>
<clipPath id="clip4_3127_482">
<rect width="32" height="32" fill="white" transform="translate(120 68)"/>
</clipPath>
<clipPath id="clip5_3127_482">
<rect width="40" height="40" fill="white" transform="translate(164 64)"/>
</clipPath>
<clipPath id="clip6_3127_482">
<rect width="48" height="48" fill="white" transform="translate(216 60)"/>
</clipPath>
</defs>
</svg>
