<svg width="264" height="108" viewBox="0 0 264 108" fill="none" xmlns="http://www.w3.org/2000/svg">
<g clip-path="url(#clip0_7887_209)">
<path d="M6.24568 23.5534L5.32672 23.2734C5.03589 23.1834 4.73278 23.354 4.60452 23.6799C4.47625 24.0058 4.55899 24.3951 4.80166 24.6074L5.63848 25.3422C5.87821 25.5557 5.95898 25.9425 5.83142 26.2664C5.70387 26.5902 5.40349 26.7609 5.11389 26.6741L4.19446 26.394M5.56737 23.3454L5.74146 22.5316M4.69825 27.4141L4.87186 26.6004M1.45004 22.9505H1.10002C0.90671 22.9505 0.75 22.7624 0.75 22.5304V19.1701C0.75 18.9381 0.90671 18.75 1.10002 18.75H10.9006C11.0939 18.75 11.2506 18.9381 11.2506 19.1701V22.5304C11.2506 22.7624 11.0939 22.9505 10.9006 22.9505H9.85055M7.28719 29.2507H1.44948C1.34758 29.2507 1.25072 29.1975 1.1842 29.1049C1.11768 29.0122 1.08809 28.8894 1.10317 28.7685L1.19932 28.223C1.68047 25.5853 2.57794 23.0825 3.84327 20.8498H8.74381C7.93107 23.372 7.55334 26.066 7.63349 28.7685C7.64857 28.8894 7.61899 29.0122 7.55247 29.1049C7.48594 29.1975 7.38909 29.2507 7.28719 29.2507Z" stroke="#111111" stroke-width="0.75" stroke-linecap="round" stroke-linejoin="round"/>
<path d="M32.3271 23.4046L31.1019 23.0312C30.7141 22.9112 30.31 23.1387 30.139 23.5732C29.968 24.0077 30.0783 24.5267 30.4019 24.8099L31.5176 25.7895C31.8372 26.0741 31.9449 26.5899 31.7748 27.0216C31.6047 27.4534 31.2043 27.6809 30.8182 27.5652L29.5923 27.1918M31.4228 23.1273L31.6549 22.0423M30.264 28.5519L30.4955 27.4669M25.9333 22.6007H25.4667C25.2089 22.6007 25 22.35 25 22.0407V17.5605C25 17.2512 25.2089 17.0005 25.4667 17.0005H38.5333C38.791 17.0005 39 17.2512 39 17.5605V22.0407C39 22.35 38.791 22.6007 38.5333 22.6007H37.1333M33.7157 31.0005H25.9326C25.7967 31.0005 25.6676 30.9296 25.5789 30.8061C25.4902 30.6826 25.4508 30.5188 25.4709 30.3576L25.5991 29.6303C26.2405 26.1136 27.4371 22.7768 29.1241 19.8H35.6577C34.5742 23.1628 34.0705 26.7544 34.1774 30.3576C34.1975 30.5188 34.1581 30.6826 34.0694 30.8061C33.9807 30.9296 33.8515 31.0005 33.7157 31.0005Z" stroke="#111111" stroke-linecap="round" stroke-linejoin="round"/>
<path d="M62.4085 23.2557L60.8769 22.789C60.3922 22.639 59.887 22.9233 59.6732 23.4665C59.4594 24.0096 59.5973 24.6584 60.0018 25.0124L61.3965 26.2371C61.796 26.5928 61.9307 27.2375 61.7181 27.7773C61.5055 28.317 61.0048 28.6014 60.5222 28.4568L58.9898 27.99M61.278 22.909L61.5681 21.5527M59.8294 29.6902L60.1188 28.3339M54.4158 22.2508H53.8324C53.5102 22.2508 53.249 21.9374 53.249 21.5507V15.9502C53.249 15.5635 53.5102 15.2501 53.8324 15.2501H70.1667C70.4889 15.2501 70.7501 15.5635 70.7501 15.9502V21.5507C70.7501 21.9374 70.4889 22.2508 70.1667 22.2508H68.4166M64.1443 32.7511H54.4148C54.245 32.7512 54.0836 32.6625 53.9727 32.5081C53.8618 32.3537 53.8125 32.149 53.8376 31.9475L53.9979 31.0383C54.7998 26.6422 56.2956 22.4709 58.4045 18.7496H66.572C65.2175 22.9534 64.5879 27.4433 64.7215 31.9475C64.7466 32.149 64.6973 32.3537 64.5865 32.5081C64.4756 32.6625 64.3142 32.7512 64.1443 32.7511Z" stroke="#111111" stroke-width="1.25" stroke-linecap="round" stroke-linejoin="round"/>
<path d="M96.4904 23.1068L94.6525 22.5467C94.0708 22.3668 93.4646 22.708 93.2081 23.3598C92.9515 24.0116 93.117 24.7901 93.6023 25.2149L95.276 26.6845C95.7554 27.1113 95.917 27.885 95.6619 28.5327C95.4068 29.1804 94.806 29.5217 94.2268 29.3481L92.3879 28.7881M95.1338 22.6908L95.4819 21.0633M93.3955 30.8283L93.7428 29.2007M86.8991 21.901H86.1991C85.8124 21.901 85.499 21.5249 85.499 21.0609V14.3402C85.499 13.8762 85.8124 13.5001 86.1991 13.5001H105.8C106.187 13.5001 106.5 13.8762 106.5 14.3402V21.0609C106.5 21.5249 106.187 21.901 105.8 21.901H103.7M98.5734 34.5014H86.898C86.6942 34.5015 86.5005 34.395 86.3674 34.2097C86.2344 34.0244 86.1752 33.7788 86.2054 33.5369L86.3977 32.4459C87.36 27.1706 89.1549 22.1651 91.6856 17.6996H101.487C99.8612 22.7441 99.1057 28.1319 99.266 33.5369C99.2962 33.7788 99.237 34.0244 99.104 34.2097C98.9709 34.395 98.7772 34.5015 98.5734 34.5014Z" stroke="#111111" stroke-width="1.5" stroke-linecap="round" stroke-linejoin="round"/>
<path d="M136.654 22.8091L134.204 22.0623C133.428 21.8224 132.62 22.2773 132.278 23.1464C131.936 24.0154 132.156 25.0535 132.803 25.6198L135.035 27.5793C135.674 28.1484 135.89 29.18 135.549 30.0436C135.209 30.9072 134.408 31.3623 133.636 31.1308L131.184 30.3841M134.845 22.2544L135.31 20.0844M132.528 33.1044L132.991 30.9343M123.866 21.2013H122.932C122.417 21.2013 121.999 20.6998 121.999 20.0812V11.1202C121.999 10.5016 122.417 10.0001 122.932 10.0001H149.067C149.583 10.0001 150.001 10.5016 150.001 11.1202V20.0812C150.001 20.6998 149.583 21.2013 149.067 21.2013H146.267M139.432 38.0018H123.864C123.593 38.0019 123.334 37.86 123.157 37.6129C122.979 37.3659 122.901 37.0384 122.941 36.7159L123.197 35.2613C124.48 28.2275 126.874 21.5534 130.248 15.5994H143.316C141.149 22.3254 140.141 29.5092 140.355 36.7159C140.395 37.0384 140.316 37.3659 140.139 37.6129C139.962 37.86 139.703 38.0019 139.432 38.0018Z" stroke="#111111" stroke-width="2" stroke-linecap="round" stroke-linejoin="round"/>
<path d="M184.818 22.5113L181.755 21.5779C180.785 21.2779 179.775 21.8466 179.347 22.933C178.92 24.0193 179.196 25.3169 180.005 26.0248L182.794 28.4741C183.593 29.1855 183.862 30.475 183.437 31.5545C183.012 32.634 182.011 33.2029 181.045 32.9135L177.981 31.9801M182.557 21.818L183.137 19.1054M179.66 35.3804L180.239 32.6679M168.832 20.5016H167.666C167.021 20.5016 166.499 19.8748 166.499 19.1015V7.9003C166.499 7.12702 167.021 6.50015 167.666 6.50015H200.334C200.979 6.50015 201.501 7.12702 201.501 7.9003V19.1015C201.501 19.8748 200.979 20.5016 200.334 20.5016H196.834M188.29 41.5023H168.831C168.491 41.5024 168.168 41.3249 167.946 41.0162C167.725 40.7074 167.626 40.298 167.676 39.8949L167.997 38.0766C169.601 29.2843 172.592 20.9418 176.81 13.4993H193.145C190.436 21.9068 189.177 30.8865 189.444 39.8949C189.494 40.298 189.396 40.7074 189.174 41.0162C188.952 41.3249 188.629 41.5024 188.29 41.5023Z" stroke="#111111" stroke-width="2.5" stroke-linecap="round" stroke-linejoin="round"/>
<path d="M240.982 22.2136L237.306 21.0935C236.143 20.7335 234.93 21.416 234.417 22.7195C233.904 24.0231 234.235 25.5803 235.206 26.4297L238.553 29.3689C239.512 30.2226 239.835 31.7701 239.325 33.0654C238.814 34.3608 237.613 35.0435 236.455 34.6962L232.777 33.5761M238.269 21.3816L238.965 18.1265M234.792 37.6565L235.486 34.4015M221.799 19.802H220.399C219.626 19.802 218.999 19.0497 218.999 18.1218V4.68036C218.999 3.75242 219.626 3.00018 220.399 3.00018H259.601C260.375 3.00018 261.002 3.75242 261.002 4.68036V18.1218C261.002 19.0497 260.375 19.802 259.601 19.802H255.401M245.148 45.0027H221.797C221.389 45.0029 221.002 44.7899 220.736 44.4194C220.47 44.0489 220.351 43.5576 220.412 43.0739L220.796 40.8919C222.721 30.3412 226.311 20.3301 231.372 11.3992H250.974C247.723 21.4881 246.212 32.2638 246.533 43.0739C246.593 43.5576 246.475 44.0489 246.209 44.4194C245.943 44.7899 245.555 45.0029 245.148 45.0027Z" stroke="#111111" stroke-width="3" stroke-linecap="round" stroke-linejoin="round"/>
<path d="M11.25 79.125H0.75C0.551088 79.125 0.360322 79.204 0.21967 79.3447C0.0790176 79.4853 0 79.6761 0 79.875V82.625C0 82.8239 0.0790176 83.0147 0.21967 83.1553C0.360322 83.296 0.551088 83.375 0.75 83.375H1.86C1.89032 83.3798 1.92134 83.3733 1.94716 83.3567C1.97297 83.3401 1.99178 83.3146 2 83.285C2.145 82.785 2.3 82.285 2.5 81.785C2.50963 81.7674 2.51467 81.7476 2.51467 81.7275C2.51467 81.7074 2.50963 81.6876 2.5 81.67C2.48956 81.6529 2.47484 81.6389 2.4573 81.6292C2.43977 81.6196 2.42001 81.6147 2.4 81.615H1.75C1.61739 81.615 1.49021 81.5623 1.39645 81.4686C1.30268 81.3748 1.25 81.2476 1.25 81.115C1.25 80.9824 1.30268 80.8552 1.39645 80.7614C1.49021 80.6677 1.61739 80.615 1.75 80.615H10.25C10.3826 80.615 10.5098 80.6677 10.6036 80.7614C10.6973 80.8552 10.75 80.9824 10.75 81.115C10.75 81.2476 10.6973 81.3748 10.6036 81.4686C10.5098 81.5623 10.3826 81.615 10.25 81.615H9.655C9.63431 81.6148 9.61389 81.6197 9.59557 81.6293C9.57724 81.6389 9.56158 81.6529 9.55 81.67C9.54037 81.6876 9.53533 81.7074 9.53533 81.7275C9.53533 81.7476 9.54037 81.7674 9.55 81.785C9.73 82.26 9.89 82.755 10.05 83.285C10.0583 83.3106 10.0742 83.3329 10.0957 83.3491C10.1172 83.3652 10.1432 83.3742 10.17 83.375H11.25C11.4489 83.375 11.6397 83.296 11.7803 83.1553C11.921 83.0147 12 82.8239 12 82.625V79.875C12 79.6761 11.921 79.4853 11.7803 79.3447C11.6397 79.204 11.4489 79.125 11.25 79.125Z" fill="#111111"/>
<path d="M8.53 81.955C8.52101 81.9317 8.50526 81.9116 8.48476 81.8974C8.46426 81.8831 8.43997 81.8753 8.415 81.875H3.585C3.55918 81.8743 3.53379 81.8816 3.5123 81.8959C3.49081 81.9103 3.47429 81.9309 3.465 81.955C2.67421 84.0888 2.26301 86.3445 2.25 88.62C2.24933 88.6532 2.25531 88.6863 2.26758 88.7172C2.27984 88.7481 2.29815 88.7763 2.32143 88.8C2.34471 88.8238 2.3725 88.8426 2.40316 88.8555C2.43382 88.8684 2.46674 88.875 2.5 88.875H9.5C9.53358 88.8758 9.56695 88.8695 9.59796 88.8566C9.62897 88.8437 9.65692 88.8244 9.68 88.8C9.70375 88.7767 9.72228 88.7486 9.73435 88.7175C9.74641 88.6865 9.75175 88.6532 9.75 88.62C9.73457 86.3442 9.3217 84.0887 8.53 81.955ZM6.53 87.1C6.50267 87.1058 6.47823 87.121 6.46089 87.1429C6.44354 87.1648 6.43439 87.1921 6.435 87.22V87.375C6.43369 87.4749 6.39307 87.5703 6.32195 87.6405C6.25083 87.7107 6.15492 87.75 6.055 87.75C5.95641 87.7487 5.86231 87.7086 5.79306 87.6384C5.72381 87.5682 5.68499 87.4736 5.685 87.375V87.25C5.68371 87.2164 5.66944 87.1846 5.6452 87.1613C5.62096 87.138 5.58863 87.125 5.555 87.125H5.305C5.20554 87.125 5.11016 87.0855 5.03983 87.0152C4.96951 86.9448 4.93 86.8495 4.93 86.75C4.93 86.6505 4.96951 86.5552 5.03983 86.4848C5.11016 86.4145 5.20554 86.375 5.305 86.375H6.305C6.3741 86.3758 6.44127 86.3523 6.49481 86.3086C6.54834 86.2649 6.58484 86.2038 6.59793 86.1359C6.61103 86.0681 6.59989 85.9978 6.56645 85.9373C6.53302 85.8768 6.47942 85.83 6.415 85.805L5.38 85.39C5.16553 85.3105 4.98326 85.1624 4.86142 84.9688C4.73958 84.7752 4.68497 84.5469 4.70604 84.3191C4.72711 84.0913 4.82268 83.8769 4.97797 83.7089C5.13325 83.5409 5.33958 83.4288 5.565 83.39C5.59282 83.3843 5.61788 83.3694 5.63605 83.3475C5.65423 83.3257 5.66444 83.2984 5.665 83.27V83.115C5.66499 83.0164 5.70381 82.9218 5.77306 82.8516C5.84231 82.7814 5.93641 82.7413 6.035 82.74C6.13492 82.74 6.23083 82.7793 6.30195 82.8495C6.37307 82.9197 6.41369 83.0151 6.415 83.115V83.24C6.41497 83.2723 6.42746 83.3034 6.44983 83.3267C6.4722 83.35 6.50272 83.3637 6.535 83.365H6.785C6.83425 83.365 6.88301 83.3747 6.92851 83.3935C6.974 83.4124 7.01534 83.44 7.05017 83.4748C7.08499 83.5097 7.11261 83.551 7.13146 83.5965C7.1503 83.642 7.16 83.6908 7.16 83.74C7.16 83.7892 7.1503 83.838 7.13146 83.8835C7.11261 83.929 7.08499 83.9703 7.05017 84.0052C7.01534 84.04 6.974 84.0676 6.92851 84.0865C6.88301 84.1053 6.83425 84.115 6.785 84.115H5.785C5.7159 84.1142 5.64873 84.1377 5.59519 84.1814C5.54166 84.2251 5.50516 84.2862 5.49207 84.3541C5.47897 84.4219 5.49011 84.4922 5.52355 84.5527C5.55698 84.6132 5.61058 84.66 5.675 84.685L6.71 85.1C6.92447 85.1795 7.10674 85.3276 7.22858 85.5212C7.35042 85.7148 7.40503 85.9431 7.38396 86.1709C7.36289 86.3987 7.26732 86.6131 7.11203 86.7811C6.95675 86.9491 6.75042 87.0612 6.525 87.1H6.53Z" fill="#111111"/>
<path d="M39 77.5H25C24.7348 77.5 24.4804 77.6054 24.2929 77.7929C24.1054 77.9804 24 78.2348 24 78.5V82.1667C24 82.4319 24.1054 82.6862 24.2929 82.8738C24.4804 83.0613 24.7348 83.1667 25 83.1667H26.48C26.5204 83.1731 26.5618 83.1644 26.5962 83.1422C26.6306 83.1201 26.6557 83.0861 26.6667 83.0467C26.86 82.38 27.0667 81.7133 27.3333 81.0467C27.3462 81.0232 27.3529 80.9968 27.3529 80.97C27.3529 80.9432 27.3462 80.9168 27.3333 80.8933C27.3194 80.8706 27.2998 80.8518 27.2764 80.839C27.253 80.8261 27.2267 80.8196 27.2 80.82H26.3333C26.1565 80.82 25.987 80.7498 25.8619 80.6247C25.7369 80.4997 25.6667 80.3301 25.6667 80.1533C25.6667 79.9765 25.7369 79.807 25.8619 79.6819C25.987 79.5569 26.1565 79.4867 26.3333 79.4867H37.6667C37.8435 79.4867 38.013 79.5569 38.1381 79.6819C38.2631 79.807 38.3333 79.9765 38.3333 80.1533C38.3333 80.3301 38.2631 80.4997 38.1381 80.6247C38.013 80.7498 37.8435 80.82 37.6667 80.82H36.8733C36.8458 80.8197 36.8185 80.8262 36.7941 80.839C36.7697 80.8518 36.7488 80.8705 36.7333 80.8933C36.7205 80.9168 36.7138 80.9432 36.7138 80.97C36.7138 80.9968 36.7205 81.0232 36.7333 81.0467C36.9733 81.68 37.1867 82.34 37.4 83.0467C37.411 83.0807 37.4323 83.1106 37.4609 83.1321C37.4896 83.1536 37.5242 83.1656 37.56 83.1667H39C39.2652 83.1667 39.5196 83.0613 39.7071 82.8738C39.8946 82.6862 40 82.4319 40 82.1667V78.5C40 78.2348 39.8946 77.9804 39.7071 77.7929C39.5196 77.6054 39.2652 77.5 39 77.5Z" fill="#111111"/>
<path d="M35.3733 81.2733C35.3614 81.2423 35.3403 81.2155 35.313 81.1965C35.2857 81.1775 35.2533 81.1671 35.22 81.1667H28.78C28.7456 81.1657 28.7117 81.1755 28.6831 81.1946C28.6544 81.2137 28.6324 81.2412 28.62 81.2733C27.5656 84.1183 27.0173 87.1259 27 90.16C26.9991 90.2043 27.0071 90.2484 27.0234 90.2896C27.0398 90.3308 27.0642 90.3684 27.0952 90.4C27.1263 90.4317 27.1633 90.4568 27.2042 90.474C27.2451 90.4912 27.289 90.5 27.3333 90.5H36.6667C36.7114 90.5011 36.7559 90.4927 36.7973 90.4755C36.8386 90.4582 36.8759 90.4325 36.9067 90.4C36.9383 90.3689 36.963 90.3314 36.9791 90.29C36.9952 90.2487 37.0023 90.2043 37 90.16C36.9794 87.1257 36.4289 84.1182 35.3733 81.2733ZM32.7067 88.1333C32.6702 88.1411 32.6376 88.1613 32.6145 88.1905C32.5914 88.2197 32.5792 88.2561 32.58 88.2933V88.5C32.5782 88.6332 32.5241 88.7604 32.4293 88.854C32.3344 88.9475 32.2066 89 32.0733 89C31.9419 88.9982 31.8164 88.9448 31.7241 88.8512C31.6318 88.7576 31.58 88.6315 31.58 88.5V88.3333C31.5783 88.2885 31.5593 88.2461 31.5269 88.2151C31.4946 88.184 31.4515 88.1666 31.4067 88.1667H31.0733C30.9407 88.1667 30.8135 88.114 30.7198 88.0202C30.626 87.9265 30.5733 87.7993 30.5733 87.6667C30.5733 87.5341 30.626 87.4069 30.7198 87.3131C30.8135 87.2193 30.9407 87.1667 31.0733 87.1667H32.4067C32.4988 87.1677 32.5884 87.1363 32.6597 87.0781C32.7311 87.0198 32.7798 86.9384 32.7972 86.8479C32.8147 86.7574 32.7998 86.6637 32.7553 86.5831C32.7107 86.5024 32.6392 86.44 32.5533 86.4067L31.1733 85.8533C30.8874 85.7473 30.6443 85.5499 30.4819 85.2918C30.3194 85.0337 30.2466 84.7292 30.2747 84.4255C30.3028 84.1218 30.4302 83.8358 30.6373 83.6119C30.8443 83.3879 31.1194 83.2385 31.42 83.1867C31.4571 83.1791 31.4905 83.1591 31.5147 83.1301C31.539 83.101 31.5526 83.0645 31.5533 83.0267V82.82C31.5533 82.6885 31.6051 82.5624 31.6974 82.4688C31.7897 82.3752 31.9152 82.3218 32.0467 82.32C32.1799 82.32 32.3078 82.3725 32.4026 82.466C32.4974 82.5596 32.5516 82.6868 32.5533 82.82V82.9867C32.5533 83.0297 32.5699 83.0712 32.5998 83.1022C32.6296 83.1333 32.6703 83.1516 32.7133 83.1533H33.0467C33.1123 83.1533 33.1773 83.1663 33.238 83.1914C33.2987 83.2165 33.3538 83.2534 33.4002 83.2998C33.4467 83.3462 33.4835 83.4013 33.5086 83.462C33.5337 83.5227 33.5467 83.5877 33.5467 83.6533C33.5467 83.719 33.5337 83.784 33.5086 83.8447C33.4835 83.9053 33.4467 83.9605 33.4002 84.0069C33.3538 84.0533 33.2987 84.0901 33.238 84.1153C33.1773 84.1404 33.1123 84.1533 33.0467 84.1533H31.7133C31.6212 84.1523 31.5316 84.1837 31.4603 84.2419C31.3889 84.3002 31.3402 84.3816 31.3228 84.4721C31.3053 84.5626 31.3202 84.6563 31.3647 84.7369C31.4093 84.8176 31.4808 84.88 31.5667 84.9133L32.9467 85.4667C33.2326 85.5727 33.4757 85.7701 33.6381 86.0282C33.8006 86.2863 33.8734 86.5908 33.8453 86.8945C33.8172 87.1982 33.6898 87.4842 33.4827 87.7081C33.2757 87.9321 33.0006 88.0815 32.7 88.1333H32.7067Z" fill="#111111"/>
<path d="M70.75 75.875H53.25C52.9185 75.875 52.6005 76.0067 52.3661 76.2411C52.1317 76.4755 52 76.7935 52 77.125V81.7083C52 82.0399 52.1317 82.3578 52.3661 82.5922C52.6005 82.8266 52.9185 82.9583 53.25 82.9583H55.1C55.1505 82.9663 55.2022 82.9555 55.2453 82.9278C55.2883 82.9001 55.3196 82.8576 55.3333 82.8083C55.575 81.975 55.8333 81.1417 56.1667 80.3083C56.1827 80.2789 56.1911 80.246 56.1911 80.2125C56.1911 80.179 56.1827 80.1461 56.1667 80.1167C56.1493 80.0882 56.1247 80.0648 56.0955 80.0487C56.0663 80.0326 56.0334 80.0245 56 80.025H54.9167C54.6957 80.025 54.4837 79.9372 54.3274 79.7809C54.1711 79.6246 54.0833 79.4127 54.0833 79.1917C54.0833 78.9707 54.1711 78.7587 54.3274 78.6024C54.4837 78.4461 54.6957 78.3583 54.9167 78.3583H69.0833C69.3043 78.3583 69.5163 78.4461 69.6726 78.6024C69.8289 78.7587 69.9167 78.9707 69.9167 79.1917C69.9167 79.4127 69.8289 79.6246 69.6726 79.7809C69.5163 79.9372 69.3043 80.025 69.0833 80.025H68.0917C68.0572 80.0246 68.0232 80.0328 67.9926 80.0488C67.9621 80.0648 67.936 80.0881 67.9167 80.1167C67.9006 80.1461 67.8922 80.179 67.8922 80.2125C67.8922 80.246 67.9006 80.2789 67.9167 80.3083C68.2167 81.1 68.4833 81.925 68.75 82.8083C68.7638 82.8509 68.7904 82.8882 68.8262 82.9151C68.862 82.9419 68.9053 82.9571 68.95 82.9583H70.75C71.0815 82.9583 71.3995 82.8266 71.6339 82.5922C71.8683 82.3578 72 82.0399 72 81.7083V77.125C72 76.7935 71.8683 76.4755 71.6339 76.2411C71.3995 76.0067 71.0815 75.875 70.75 75.875Z" fill="#111111"/>
<path d="M66.2167 80.5917C66.2017 80.5528 66.1754 80.5194 66.1413 80.4956C66.1071 80.4719 66.0666 80.4589 66.025 80.4583H57.975C57.932 80.4572 57.8896 80.4694 57.8538 80.4932C57.818 80.5171 57.7905 80.5515 57.775 80.5917C56.457 84.1479 55.7717 87.9074 55.75 91.7C55.7489 91.7554 55.7588 91.8105 55.7793 91.862C55.7997 91.9135 55.8303 91.9605 55.8691 92C55.9079 92.0396 55.9542 92.071 56.0053 92.0925C56.0564 92.114 56.1112 92.125 56.1667 92.125H67.8333C67.8893 92.1263 67.9449 92.1159 67.9966 92.0943C68.0483 92.0728 68.0949 92.0407 68.1333 92C68.1729 91.9611 68.2038 91.9143 68.2239 91.8625C68.244 91.8108 68.2529 91.7554 68.25 91.7C68.2243 87.9071 67.5362 84.1478 66.2167 80.5917ZM62.8833 89.1667C62.8378 89.1764 62.797 89.2016 62.7681 89.2381C62.7392 89.2747 62.724 89.3201 62.725 89.3667V89.625C62.7228 89.7915 62.6551 89.9505 62.5366 90.0675C62.418 90.1844 62.2582 90.25 62.0917 90.25C61.9274 90.2478 61.7705 90.181 61.6551 90.064C61.5397 89.947 61.475 89.7893 61.475 89.625V89.4167C61.4728 89.3607 61.4491 89.3077 61.4087 89.2688C61.3683 89.23 61.3144 89.2083 61.2583 89.2083H60.8417C60.6759 89.2083 60.5169 89.1425 60.3997 89.0253C60.2825 88.9081 60.2167 88.7491 60.2167 88.5833C60.2167 88.4176 60.2825 88.2586 60.3997 88.1414C60.5169 88.0242 60.6759 87.9583 60.8417 87.9583H62.5083C62.6235 87.9596 62.7355 87.9204 62.8247 87.8476C62.9139 87.7748 62.9747 87.6729 62.9966 87.5599C63.0184 87.4468 62.9998 87.3296 62.9441 87.2288C62.8884 87.128 62.799 87.05 62.6917 87.0083L60.9667 86.3167C60.6092 86.1841 60.3054 85.9374 60.1024 85.6147C59.8993 85.2921 59.8083 84.9115 59.8434 84.5318C59.8785 84.1522 60.0378 83.7948 60.2966 83.5148C60.5554 83.2349 60.8993 83.0481 61.275 82.9833C61.3214 82.9739 61.3631 82.9489 61.3934 82.9126C61.4237 82.8762 61.4407 82.8306 61.4417 82.7833V82.525C61.4417 82.3607 61.5064 82.203 61.6218 82.086C61.7372 81.969 61.894 81.9022 62.0583 81.9C62.2249 81.9 62.3847 81.9656 62.5032 82.0825C62.6218 82.1995 62.6895 82.3585 62.6917 82.525V82.7333C62.6916 82.7872 62.7124 82.8389 62.7497 82.8778C62.787 82.9166 62.8379 82.9395 62.8917 82.9417H63.3083C63.3904 82.9417 63.4717 82.9578 63.5475 82.9892C63.6233 83.0207 63.6922 83.0667 63.7503 83.1247C63.8083 83.1828 63.8543 83.2517 63.8858 83.3275C63.9172 83.4033 63.9333 83.4846 63.9333 83.5667C63.9333 83.6487 63.9172 83.73 63.8858 83.8058C63.8543 83.8817 63.8083 83.9506 63.7503 84.0086C63.6922 84.0666 63.6233 84.1127 63.5475 84.1441C63.4717 84.1755 63.3904 84.1917 63.3083 84.1917H61.6417C61.5265 84.1904 61.4145 84.2296 61.3253 84.3024C61.2361 84.3752 61.1753 84.4771 61.1534 84.5901C61.1316 84.7032 61.1502 84.8204 61.2059 84.9212C61.2616 85.022 61.351 85.1 61.4583 85.1417L63.1833 85.8333C63.5408 85.9659 63.8446 86.2126 64.0476 86.5353C64.2507 86.8579 64.3417 87.2385 64.3066 87.6182C64.2715 87.9978 64.1122 88.3552 63.8534 88.6352C63.5946 88.9151 63.2507 89.1019 62.875 89.1667H62.8833Z" fill="#111111"/>
<path d="M106.5 74.25H85.5C85.1022 74.25 84.7206 74.408 84.4393 74.6893C84.158 74.9706 84 75.3522 84 75.75V81.25C84 81.6478 84.158 82.0294 84.4393 82.3107C84.7206 82.592 85.1022 82.75 85.5 82.75H87.72C87.7806 82.7596 87.8427 82.7466 87.8943 82.7134C87.9459 82.6802 87.9836 82.6291 88 82.57C88.29 81.57 88.6 80.57 89 79.57C89.0193 79.5347 89.0293 79.4952 89.0293 79.455C89.0293 79.4148 89.0193 79.3753 89 79.34C88.9791 79.3058 88.9497 79.2777 88.9146 79.2584C88.8795 79.2391 88.84 79.2293 88.8 79.23H87.5C87.2348 79.23 86.9804 79.1246 86.7929 78.9371C86.6054 78.7496 86.5 78.4952 86.5 78.23C86.5 77.9648 86.6054 77.7104 86.7929 77.5229C86.9804 77.3354 87.2348 77.23 87.5 77.23H104.5C104.765 77.23 105.02 77.3354 105.207 77.5229C105.395 77.7104 105.5 77.9648 105.5 78.23C105.5 78.4952 105.395 78.7496 105.207 78.9371C105.02 79.1246 104.765 79.23 104.5 79.23H103.31C103.269 79.2295 103.228 79.2393 103.191 79.2585C103.154 79.2777 103.123 79.3057 103.1 79.34C103.081 79.3753 103.071 79.4148 103.071 79.455C103.071 79.4952 103.081 79.5347 103.1 79.57C103.46 80.52 103.78 81.51 104.1 82.57C104.117 82.6211 104.148 82.6659 104.191 82.6981C104.234 82.7303 104.286 82.7485 104.34 82.75H106.5C106.898 82.75 107.279 82.592 107.561 82.3107C107.842 82.0294 108 81.6478 108 81.25V75.75C108 75.3522 107.842 74.9706 107.561 74.6893C107.279 74.408 106.898 74.25 106.5 74.25Z" fill="#111111"/>
<path d="M101.06 79.91C101.042 79.8634 101.011 79.8233 100.97 79.7948C100.929 79.7662 100.88 79.7506 100.83 79.75H91.17C91.1184 79.7486 91.0676 79.7632 91.0246 79.7919C90.9816 79.8205 90.9486 79.8618 90.93 79.91C89.3484 84.1775 88.526 88.6889 88.5 93.24C88.4987 93.3065 88.5106 93.3726 88.5352 93.4344C88.5597 93.4962 88.5963 93.5525 88.6429 93.6C88.6894 93.6475 88.745 93.6853 88.8063 93.711C88.8676 93.7368 88.9335 93.75 89 93.75H103C103.067 93.7516 103.134 93.739 103.196 93.7132C103.258 93.6874 103.314 93.6488 103.36 93.6C103.408 93.5533 103.445 93.4971 103.469 93.435C103.493 93.373 103.503 93.3065 103.5 93.24C103.469 88.6885 102.643 84.1773 101.06 79.91ZM97.06 90.2C97.0053 90.2116 96.9565 90.242 96.9218 90.2858C96.8871 90.3296 96.8688 90.3841 96.87 90.44V90.75C96.8674 90.9498 96.7861 91.1406 96.6439 91.2809C96.5017 91.4213 96.3098 91.5 96.11 91.5C95.9128 91.4974 95.7246 91.4172 95.5861 91.2768C95.4476 91.1365 95.37 90.9472 95.37 90.75V90.5C95.3674 90.4328 95.3389 90.3692 95.2904 90.3226C95.2419 90.276 95.1773 90.25 95.11 90.25H94.61C94.4111 90.25 94.2203 90.171 94.0797 90.0303C93.939 89.8897 93.86 89.6989 93.86 89.5C93.86 89.3011 93.939 89.1103 94.0797 88.9697C94.2203 88.829 94.4111 88.75 94.61 88.75H96.61C96.7482 88.7515 96.8825 88.7045 96.9896 88.6171C97.0967 88.5297 97.1697 88.4075 97.1959 88.2718C97.2221 88.1361 97.1998 87.9955 97.1329 87.8746C97.066 87.7536 96.9588 87.66 96.83 87.61L94.76 86.78C94.3311 86.6209 93.9665 86.3249 93.7228 85.9377C93.4792 85.5505 93.3699 85.0938 93.4121 84.6382C93.4542 84.1827 93.6454 83.7537 93.9559 83.4178C94.2665 83.0819 94.6792 82.8577 95.13 82.78C95.1856 82.7687 95.2358 82.7387 95.2721 82.6951C95.3085 82.6515 95.3289 82.5968 95.33 82.54V82.23C95.33 82.0328 95.4076 81.8435 95.5461 81.7032C95.6846 81.5628 95.8728 81.4826 96.07 81.48C96.2698 81.48 96.4617 81.5587 96.6039 81.6991C96.7461 81.8394 96.8274 82.0302 96.83 82.23V82.48C96.8299 82.5446 96.8549 82.6067 96.8997 82.6533C96.9444 82.6999 97.0054 82.7274 97.07 82.73H97.57C97.6685 82.73 97.766 82.7494 97.857 82.7871C97.948 82.8248 98.0307 82.88 98.1003 82.9497C98.17 83.0193 98.2252 83.102 98.2629 83.193C98.3006 83.284 98.32 83.3815 98.32 83.48C98.32 83.5785 98.3006 83.676 98.2629 83.767C98.2252 83.858 98.17 83.9407 98.1003 84.0103C98.0307 84.08 97.948 84.1352 97.857 84.1729C97.766 84.2106 97.6685 84.23 97.57 84.23H95.57C95.4318 84.2285 95.2975 84.2755 95.1904 84.3629C95.0833 84.4503 95.0103 84.5725 94.9841 84.7082C94.9579 84.8439 94.9802 84.9845 95.0471 85.1054C95.114 85.2264 95.2212 85.32 95.35 85.37L97.42 86.2C97.8489 86.3591 98.2135 86.6551 98.4572 87.0423C98.7008 87.4295 98.8101 87.8862 98.7679 88.3418C98.7258 88.7973 98.5346 89.2263 98.2241 89.5622C97.9135 89.8981 97.5008 90.1223 97.05 90.2H97.06Z" fill="#111111"/>
<path d="M150 71H122C121.47 71 120.961 71.2107 120.586 71.5858C120.211 71.9609 120 72.4696 120 73V80.3333C120 80.8638 120.211 81.3725 120.586 81.7475C120.961 82.1226 121.47 82.3333 122 82.3333H124.96C125.041 82.3461 125.124 82.3288 125.192 82.2845C125.261 82.2402 125.311 82.1722 125.333 82.0933C125.72 80.76 126.133 79.4267 126.667 78.0933C126.692 78.0463 126.706 77.9936 126.706 77.94C126.706 77.8864 126.692 77.8337 126.667 77.7867C126.639 77.7411 126.6 77.7036 126.553 77.6779C126.506 77.6522 126.453 77.6391 126.4 77.64H124.667C124.313 77.64 123.974 77.4995 123.724 77.2495C123.474 76.9994 123.333 76.6603 123.333 76.3067C123.333 75.953 123.474 75.6139 123.724 75.3639C123.974 75.1138 124.313 74.9733 124.667 74.9733H147.333C147.687 74.9733 148.026 75.1138 148.276 75.3639C148.526 75.6139 148.667 75.953 148.667 76.3067C148.667 76.6603 148.526 76.9994 148.276 77.2495C148.026 77.4995 147.687 77.64 147.333 77.64H145.747C145.692 77.6394 145.637 77.6524 145.588 77.678C145.539 77.7036 145.498 77.741 145.467 77.7867C145.441 77.8337 145.428 77.8864 145.428 77.94C145.428 77.9936 145.441 78.0463 145.467 78.0933C145.947 79.36 146.373 80.68 146.8 82.0933C146.822 82.1615 146.865 82.2212 146.922 82.2641C146.979 82.3071 147.048 82.3313 147.12 82.3333H150C150.53 82.3333 151.039 82.1226 151.414 81.7475C151.789 81.3725 152 80.8638 152 80.3333V73C152 72.4696 151.789 71.9609 151.414 71.5858C151.039 71.2107 150.53 71 150 71Z" fill="#111111"/>
<path d="M142.747 78.5467C142.723 78.4845 142.681 78.431 142.626 78.393C142.571 78.355 142.507 78.3342 142.44 78.3333H129.56C129.491 78.3315 129.423 78.351 129.366 78.3892C129.309 78.4274 129.265 78.4824 129.24 78.5467C127.131 84.2367 126.035 90.2519 126 96.32C125.998 96.4087 126.014 96.4968 126.047 96.5792C126.08 96.6616 126.128 96.7367 126.19 96.8C126.253 96.8634 126.327 96.9137 126.408 96.948C126.49 96.9823 126.578 97 126.667 97H145.333C145.423 97.0021 145.512 96.9854 145.595 96.9509C145.677 96.9165 145.752 96.8651 145.813 96.8C145.877 96.7378 145.926 96.6628 145.958 96.5801C145.99 96.4973 146.005 96.4087 146 96.32C145.959 90.2513 144.858 84.2364 142.747 78.5467ZM137.413 92.2667C137.34 92.2822 137.275 92.3226 137.229 92.381C137.183 92.4395 137.158 92.5122 137.16 92.5867V93C137.156 93.2664 137.048 93.5208 136.859 93.7079C136.669 93.8951 136.413 94 136.147 94C135.884 93.9965 135.633 93.8896 135.448 93.7024C135.264 93.5153 135.16 93.2629 135.16 93V92.6667C135.157 92.5771 135.119 92.4923 135.054 92.4301C134.989 92.368 134.903 92.3333 134.813 92.3333H134.147C133.881 92.3333 133.627 92.228 133.44 92.0404C133.252 91.8529 133.147 91.5986 133.147 91.3333C133.147 91.0681 133.252 90.8138 133.44 90.6262C133.627 90.4387 133.881 90.3333 134.147 90.3333H136.813C136.998 90.3354 137.177 90.2727 137.319 90.1562C137.462 90.0396 137.56 89.8767 137.594 89.6958C137.629 89.5148 137.6 89.3274 137.511 89.1661C137.421 89.0049 137.278 88.88 137.107 88.8133L134.347 87.7067C133.775 87.4946 133.289 87.0998 132.964 86.5836C132.639 86.0673 132.493 85.4583 132.549 84.8509C132.606 84.2435 132.86 83.6716 133.275 83.2237C133.689 82.7758 134.239 82.4769 134.84 82.3733C134.914 82.3582 134.981 82.3183 135.029 82.2601C135.078 82.202 135.105 82.129 135.107 82.0533V81.64C135.107 81.3771 135.21 81.1247 135.395 80.9376C135.579 80.7504 135.83 80.6435 136.093 80.64C136.36 80.64 136.616 80.7449 136.805 80.9321C136.995 81.1192 137.103 81.3736 137.107 81.64V81.9733C137.107 82.0595 137.14 82.1423 137.2 82.2044C137.259 82.2666 137.341 82.3032 137.427 82.3067H138.093C138.225 82.3067 138.355 82.3325 138.476 82.3828C138.597 82.433 138.708 82.5067 138.8 82.5996C138.893 82.6924 138.967 82.8027 139.017 82.924C139.067 83.0453 139.093 83.1753 139.093 83.3067C139.093 83.438 139.067 83.568 139.017 83.6894C138.967 83.8107 138.893 83.9209 138.8 84.0138C138.708 84.1066 138.597 84.1803 138.476 84.2305C138.355 84.2808 138.225 84.3067 138.093 84.3067H135.427C135.242 84.3046 135.063 84.3673 134.921 84.4838C134.778 84.6004 134.68 84.7633 134.646 84.9442C134.611 85.1252 134.64 85.3126 134.729 85.4739C134.819 85.6351 134.962 85.76 135.133 85.8267L137.893 86.9333C138.465 87.1454 138.951 87.5402 139.276 88.0564C139.601 88.5727 139.747 89.1817 139.691 89.7891C139.634 90.3965 139.38 90.9684 138.965 91.4163C138.551 91.8642 138.001 92.1631 137.4 92.2667H137.413Z" fill="#111111"/>
<path d="M201.5 67.75H166.5C165.837 67.75 165.201 68.0134 164.732 68.4822C164.263 68.9511 164 69.587 164 70.25V79.4167C164 80.0797 164.263 80.7156 164.732 81.1844C165.201 81.6533 165.837 81.9167 166.5 81.9167H170.2C170.301 81.9327 170.404 81.9109 170.491 81.8556C170.577 81.8003 170.639 81.7152 170.667 81.6167C171.15 79.95 171.667 78.2833 172.333 76.6167C172.365 76.5579 172.382 76.492 172.382 76.425C172.382 76.358 172.365 76.2921 172.333 76.2333C172.299 76.1764 172.249 76.1296 172.191 76.0974C172.133 76.0652 172.067 76.0489 172 76.05H169.833C169.391 76.05 168.967 75.8744 168.655 75.5618C168.342 75.2493 168.167 74.8254 168.167 74.3833C168.167 73.9413 168.342 73.5174 168.655 73.2048C168.967 72.8923 169.391 72.7167 169.833 72.7167H198.167C198.609 72.7167 199.033 72.8923 199.345 73.2048C199.658 73.5174 199.833 73.9413 199.833 74.3833C199.833 74.8254 199.658 75.2493 199.345 75.5618C199.033 75.8744 198.609 76.05 198.167 76.05H196.183C196.114 76.0492 196.046 76.0655 195.985 76.0975C195.924 76.1295 195.872 76.1762 195.833 76.2333C195.801 76.2921 195.784 76.358 195.784 76.425C195.784 76.492 195.801 76.5579 195.833 76.6167C196.433 78.2 196.967 79.85 197.5 81.6167C197.528 81.7019 197.581 81.7765 197.652 81.8302C197.724 81.8839 197.811 81.9141 197.9 81.9167H201.5C202.163 81.9167 202.799 81.6533 203.268 81.1844C203.737 80.7156 204 80.0797 204 79.4167V70.25C204 69.587 203.737 68.9511 203.268 68.4822C202.799 68.0134 202.163 67.75 201.5 67.75Z" fill="#111111"/>
<path d="M192.433 77.1833C192.403 77.1057 192.351 77.0388 192.283 76.9913C192.214 76.9437 192.133 76.9177 192.05 76.9167H175.95C175.864 76.9143 175.779 76.9387 175.708 76.9865C175.636 77.0342 175.581 77.103 175.55 77.1833C172.914 84.2959 171.543 91.8149 171.5 99.4C171.498 99.5108 171.518 99.621 171.559 99.724C171.599 99.8271 171.661 99.9209 171.738 100C171.816 100.079 171.908 100.142 172.011 100.185C172.113 100.228 172.222 100.25 172.333 100.25H195.667C195.779 100.253 195.89 100.232 195.993 100.189C196.097 100.146 196.19 100.081 196.267 100C196.346 99.9222 196.408 99.8285 196.448 99.7251C196.488 99.6216 196.506 99.5108 196.5 99.4C196.449 91.8141 195.072 84.2956 192.433 77.1833ZM185.767 94.3333C185.676 94.3527 185.594 94.4033 185.536 94.4763C185.478 94.5493 185.448 94.6402 185.45 94.7333V95.25C185.446 95.583 185.31 95.901 185.073 96.1349C184.836 96.3689 184.516 96.5 184.183 96.5C183.855 96.4956 183.541 96.362 183.31 96.128C183.079 95.8941 182.95 95.5787 182.95 95.25V94.8333C182.946 94.7213 182.898 94.6153 182.817 94.5376C182.737 94.4599 182.629 94.4166 182.517 94.4167H181.683C181.352 94.4167 181.034 94.285 180.799 94.0506C180.565 93.8161 180.433 93.4982 180.433 93.1667C180.433 92.8351 180.565 92.5172 180.799 92.2828C181.034 92.0484 181.352 91.9167 181.683 91.9167H185.017C185.247 91.9192 185.471 91.8408 185.649 91.6952C185.828 91.5496 185.949 91.3459 185.993 91.1197C186.037 90.8936 186 90.6592 185.888 90.4577C185.777 90.2561 185.598 90.1 185.383 90.0167L181.933 88.6333C181.218 88.3682 180.611 87.8748 180.205 87.2295C179.799 86.5841 179.617 85.8229 179.687 85.0637C179.757 84.3044 180.076 83.5895 180.593 83.0296C181.111 82.4698 181.799 82.0962 182.55 81.9667C182.643 81.9478 182.726 81.8978 182.787 81.8251C182.847 81.7524 182.881 81.6613 182.883 81.5667V81.05C182.883 80.7213 183.013 80.4059 183.244 80.172C183.474 79.938 183.788 79.8044 184.117 79.8C184.45 79.8 184.769 79.9311 185.006 80.1651C185.244 80.399 185.379 80.717 185.383 81.05V81.4667C185.383 81.5743 185.425 81.6779 185.499 81.7556C185.574 81.8332 185.676 81.879 185.783 81.8833H186.617C186.781 81.8833 186.943 81.9157 187.095 81.9785C187.247 82.0413 187.384 82.1334 187.501 82.2494C187.617 82.3655 187.709 82.5033 187.772 82.655C187.834 82.8066 187.867 82.9692 187.867 83.1333C187.867 83.2975 187.834 83.46 187.772 83.6117C187.709 83.7633 187.617 83.9011 187.501 84.0172C187.384 84.1333 187.247 84.2254 187.095 84.2882C186.943 84.351 186.781 84.3833 186.617 84.3833H183.283C183.053 84.3808 182.829 84.4592 182.651 84.6048C182.472 84.7504 182.351 84.9541 182.307 85.1803C182.263 85.4064 182.3 85.6408 182.412 85.8423C182.523 86.0439 182.702 86.2 182.917 86.2833L186.367 87.6667C187.082 87.9318 187.689 88.4252 188.095 89.0705C188.501 89.7159 188.683 90.4771 188.613 91.2363C188.543 91.9956 188.224 92.7105 187.707 93.2704C187.189 93.8302 186.501 94.2038 185.75 94.3333H185.767Z" fill="#111111"/>
<path d="M261 64.5H219C218.204 64.5 217.441 64.8161 216.879 65.3787C216.316 65.9413 216 66.7044 216 67.5V78.5C216 79.2956 216.316 80.0587 216.879 80.6213C217.441 81.1839 218.204 81.5 219 81.5H223.44C223.561 81.5192 223.685 81.4931 223.789 81.4267C223.892 81.3604 223.967 81.2583 224 81.14C224.58 79.14 225.2 77.14 226 75.14C226.039 75.0695 226.059 74.9904 226.059 74.91C226.059 74.8296 226.039 74.7505 226 74.68C225.958 74.6117 225.899 74.5555 225.829 74.5169C225.759 74.4783 225.68 74.4587 225.6 74.46H223C222.47 74.46 221.961 74.2493 221.586 73.8742C221.211 73.4991 221 72.9904 221 72.46C221 71.9296 221.211 71.4209 221.586 71.0458C221.961 70.6707 222.47 70.46 223 70.46H257C257.53 70.46 258.039 70.6707 258.414 71.0458C258.789 71.4209 259 71.9296 259 72.46C259 72.9904 258.789 73.4991 258.414 73.8742C258.039 74.2493 257.53 74.46 257 74.46H254.62C254.537 74.4591 254.456 74.4787 254.382 74.5171C254.309 74.5554 254.246 74.6114 254.2 74.68C254.161 74.7505 254.141 74.8296 254.141 74.91C254.141 74.9904 254.161 75.0695 254.2 75.14C254.92 77.04 255.56 79.02 256.2 81.14C256.233 81.2422 256.297 81.3317 256.383 81.3962C256.469 81.4607 256.573 81.4969 256.68 81.5H261C261.796 81.5 262.559 81.1839 263.121 80.6213C263.684 80.0587 264 79.2956 264 78.5V67.5C264 66.7044 263.684 65.9413 263.121 65.3787C262.559 64.8161 261.796 64.5 261 64.5Z" fill="#111111"/>
<path d="M250.12 75.82C250.084 75.7268 250.021 75.6465 249.939 75.5895C249.857 75.5325 249.76 75.5013 249.66 75.5H230.34C230.237 75.4972 230.135 75.5265 230.049 75.5838C229.963 75.6411 229.897 75.7236 229.86 75.82C226.697 84.355 225.052 93.3778 225 102.48C224.997 102.613 225.021 102.745 225.07 102.869C225.119 102.992 225.193 103.105 225.286 103.2C225.379 103.295 225.49 103.371 225.613 103.422C225.735 103.474 225.867 103.5 226 103.5H254C254.134 103.503 254.268 103.478 254.392 103.426C254.516 103.375 254.628 103.298 254.72 103.2C254.815 103.107 254.889 102.994 254.937 102.87C254.986 102.746 255.007 102.613 255 102.48C254.938 93.377 253.287 84.3547 250.12 75.82ZM242.12 96.4C242.011 96.4233 241.913 96.4839 241.844 96.5716C241.774 96.6592 241.738 96.7683 241.74 96.88V97.5C241.735 97.8997 241.572 98.2812 241.288 98.5619C241.003 98.8426 240.62 99 240.22 99C239.826 98.9947 239.449 98.8344 239.172 98.5536C238.895 98.2729 238.74 97.8944 238.74 97.5V97C238.735 96.8656 238.678 96.7384 238.581 96.6452C238.484 96.5519 238.355 96.4999 238.22 96.5H237.22C236.822 96.5 236.441 96.342 236.159 96.0607C235.878 95.7794 235.72 95.3978 235.72 95C235.72 94.6022 235.878 94.2206 236.159 93.9393C236.441 93.658 236.822 93.5 237.22 93.5H241.22C241.496 93.5031 241.765 93.409 241.979 93.2342C242.193 93.0595 242.339 92.8151 242.392 92.5437C242.444 92.2723 242.4 91.9911 242.266 91.7492C242.132 91.5073 241.918 91.32 241.66 91.22L237.52 89.56C236.662 89.2419 235.933 88.6497 235.446 87.8754C234.958 87.101 234.74 86.1875 234.824 85.2764C234.908 84.3653 235.291 83.5074 235.912 82.8356C236.533 82.1637 237.358 81.7154 238.26 81.56C238.371 81.5373 238.472 81.4774 238.544 81.3902C238.617 81.3029 238.658 81.1935 238.66 81.08V80.46C238.66 80.0656 238.815 79.6871 239.092 79.4063C239.369 79.1256 239.746 78.9653 240.14 78.96C240.54 78.96 240.923 79.1174 241.208 79.3981C241.492 79.6788 241.655 80.0603 241.66 80.46V80.96C241.66 81.0892 241.71 81.2135 241.799 81.3067C241.889 81.3999 242.011 81.4548 242.14 81.46H243.14C243.337 81.46 243.532 81.4988 243.714 81.5742C243.896 81.6496 244.061 81.7601 244.201 81.8993C244.34 82.0386 244.45 82.204 244.526 82.386C244.601 82.568 244.64 82.763 244.64 82.96C244.64 83.157 244.601 83.352 244.526 83.534C244.45 83.716 244.34 83.8814 244.201 84.0207C244.061 84.1599 243.896 84.2704 243.714 84.3458C243.532 84.4212 243.337 84.46 243.14 84.46H239.14C238.864 84.4569 238.595 84.551 238.381 84.7258C238.167 84.9005 238.021 85.1449 237.968 85.4163C237.916 85.6877 237.96 85.9689 238.094 86.2108C238.228 86.4527 238.442 86.64 238.7 86.74L242.84 88.4C243.698 88.7181 244.427 89.3103 244.914 90.0846C245.402 90.859 245.62 91.7725 245.536 92.6836C245.452 93.5947 245.069 94.4526 244.448 95.1244C243.827 95.7963 243.002 96.2446 242.1 96.4H242.12Z" fill="#111111"/>
</g>
<defs>
<clipPath id="clip0_7887_209">
<rect width="264" height="108" rx="5" fill="white"/>
</clipPath>
</defs>
</svg>
