<svg width="264" height="108" viewBox="0 0 264 108" fill="none" xmlns="http://www.w3.org/2000/svg">
<g clip-path="url(#clip0_9412_390)">
<path d="M0.75 22.125H11.25M2.625 24.375L7.125 24.375M2.625 25.875H5.25M1.5 28.125H10.5C11.1213 28.125 11.625 27.6213 11.625 27V21C11.625 20.3787 11.1213 19.875 10.5 19.875H1.5C0.87868 19.875 0.375 20.3787 0.375 21V27C0.375 27.6213 0.87868 28.125 1.5 28.125Z" stroke="#111111" stroke-width="0.75" stroke-linecap="round" stroke-linejoin="round"/>
<path d="M24.5 21.5C29.9673 21.5 34.0327 21.5 39.5 21.5M27.5 24.5L33.5 24.5M27.5 26.5H31M26 29.5H38C38.8284 29.5 39.5 28.8284 39.5 28V20C39.5 19.1716 38.8284 18.5 38 18.5H26C25.1716 18.5 24.5 19.1716 24.5 20V28C24.5 28.8284 25.1716 29.5 26 29.5Z" stroke="#111111" stroke-linecap="round" stroke-linejoin="round"/>
<path d="M53 20.875C59.8342 20.875 64.1658 20.875 71 20.875M56.375 24.625L63.875 24.625M56.375 27.125H60.75M54.5 30.875H69.5C70.5355 30.875 71.375 30.0355 71.375 29V19C71.375 17.9645 70.5355 17.125 69.5 17.125H54.5C53.4645 17.125 52.625 17.9645 52.625 19V29C52.625 30.0355 53.4645 30.875 54.5 30.875Z" stroke="#111111" stroke-width="1.25" stroke-linecap="round" stroke-linejoin="round"/>
<path d="M85 20.25C93.3963 20.25 107 20.25 107 20.25M89.25 24.75L98.25 24.75M89.25 27.75H94.5M87 32.25H105C106.243 32.25 107.25 31.2426 107.25 30V18C107.25 16.7574 106.243 15.75 105 15.75H87C85.7574 15.75 84.75 16.7574 84.75 18V30C84.75 31.2426 85.7574 32.25 87 32.25Z" stroke="#111111" stroke-width="1.5" stroke-linecap="round" stroke-linejoin="round"/>
<path d="M121 19C132.325 19 151 19 151 19M127 25L139 25M127 29H134M124 35H148C149.657 35 151 33.6569 151 32V16C151 14.3431 149.657 13 148 13H124C122.343 13 121 14.3431 121 16V32C121 33.6569 122.343 35 124 35Z" stroke="#111111" stroke-width="2" stroke-linecap="round" stroke-linejoin="round"/>
<path d="M165.5 17.75C179.559 17.75 202.5 17.75 202.5 17.75M172.75 25.25L187.75 25.25M172.75 30.25H181.5M169 37.75H199C201.071 37.75 202.75 36.0711 202.75 34V14C202.75 11.9289 201.071 10.25 199 10.25H169C166.929 10.25 165.25 11.9289 165.25 14V34C165.25 36.0711 166.929 37.75 169 37.75Z" stroke="#111111" stroke-width="2.5" stroke-linecap="round" stroke-linejoin="round"/>
<path d="M218 16.5C234.402 16.5 245.598 16.5 262 16.5M226.5 25.5L244.5 25.5M226.5 31.5H237M222 40.5H258C260.485 40.5 262.5 38.4853 262.5 36V12C262.5 9.51472 260.485 7.5 258 7.5H222C219.515 7.5 217.5 9.51472 217.5 12V36C217.5 38.4853 219.515 40.5 222 40.5Z" stroke="#111111" stroke-width="3" stroke-linecap="round" stroke-linejoin="round"/>
<path d="M0.5 81.335C0.5 80.4652 1.20514 79.76 2.075 79.76H9.925C10.7948 79.7601 11.5 80.4652 11.5 81.335V81.7288H0.5V81.335Z" fill="#111111"/>
<path fill-rule="evenodd" clip-rule="evenodd" d="M0.5 82.7288H11.5V86.6663C11.5 87.5361 10.7948 88.2412 9.925 88.2413H2.075C1.20514 88.2413 0.5 87.5361 0.5 86.6663V82.7288ZM2.46875 84.3038C2.2513 84.3038 2.075 84.4801 2.075 84.6975C2.075 84.915 2.2513 85.0913 2.46875 85.0913H5.61875C5.75942 85.0913 5.88941 85.0162 5.95972 84.8944C6.11131 84.6319 5.92184 84.3038 5.61875 84.3038H2.46875ZM2.12778 86.4694C1.97619 86.2069 2.16566 85.8788 2.46875 85.8788H4.04375C4.18442 85.8788 4.31441 85.9538 4.38472 86.0756C4.53631 86.3381 4.34684 86.6663 4.04375 86.6663H2.46875C2.32808 86.6663 2.19809 86.5912 2.12778 86.4694Z" fill="#111111"/>
<path d="M24.6665 80.4467C24.6665 79.2869 25.6067 78.3467 26.7665 78.3467H37.2332C38.3929 78.3467 39.3332 79.2869 39.3332 80.4467V80.9717H24.6665V80.4467Z" fill="#111111"/>
<path fill-rule="evenodd" clip-rule="evenodd" d="M24.6665 82.305H39.3332V87.555C39.3332 88.7148 38.3929 89.655 37.2332 89.655H26.7665C25.6067 89.6551 24.6665 88.7148 24.6665 87.555V82.305ZM27.2915 84.405C27.0016 84.405 26.7665 84.6401 26.7665 84.93C26.7665 85.22 27.0016 85.455 27.2915 85.455H31.4915C31.6791 85.455 31.8524 85.355 31.9461 85.1925C32.1483 84.8425 31.8956 84.405 31.4915 84.405H27.2915ZM26.8369 87.2925C26.6348 86.9425 26.8874 86.505 27.2915 86.505H29.3915C29.5791 86.505 29.7524 86.6051 29.8461 86.7675C30.0483 87.1175 29.7956 87.555 29.3915 87.555H27.2915C27.1039 87.555 26.9306 87.455 26.8369 87.2925Z" fill="#111111"/>
<path d="M52.8335 79.5583C52.8335 78.1086 54.0087 76.9333 55.4585 76.9333H68.5418C69.9915 76.9334 71.1668 78.1086 71.1668 79.5583V80.2146H52.8335V79.5583Z" fill="#111111"/>
<path fill-rule="evenodd" clip-rule="evenodd" d="M52.8335 81.8812H71.1668V88.4437C71.1668 89.8934 69.9915 91.0687 68.5418 91.0687H55.4585C54.0087 91.0688 52.8335 89.8935 52.8335 88.4437V81.8812ZM56.1147 84.5062C55.7523 84.5062 55.4585 84.8001 55.4585 85.1625C55.4585 85.5249 55.7523 85.8187 56.1147 85.8187H61.3647C61.5992 85.8187 61.8158 85.6937 61.933 85.4906C62.1857 85.0531 61.8699 84.5062 61.3647 84.5062H56.1147ZM55.5465 88.1156C55.2938 87.6781 55.6096 87.1312 56.1147 87.1312H58.7397C58.9742 87.1312 59.1908 87.2563 59.308 87.4594C59.5607 87.8969 59.2449 88.4437 58.7397 88.4437H56.1147C55.8803 88.4437 55.6637 88.3187 55.5465 88.1156Z" fill="#111111"/>
<path d="M85 78.67C85 76.9303 86.4103 75.52 88.15 75.52H103.85C105.59 75.5201 107 76.9304 107 78.67V79.4575H85V78.67Z" fill="#111111"/>
<path fill-rule="evenodd" clip-rule="evenodd" d="M85 81.4575H107V89.3325C107 91.0721 105.59 92.4824 103.85 92.4825H88.15C86.4103 92.4826 85 91.0722 85 89.3325V81.4575ZM88.9375 84.6075C88.5026 84.6075 88.15 84.9601 88.15 85.395C88.15 85.8299 88.5026 86.1825 88.9375 86.1825H95.2375C95.5188 86.1825 95.7788 86.0324 95.9194 85.7887C96.2226 85.2637 95.8437 84.6075 95.2375 84.6075H88.9375ZM88.2556 88.9387C87.9524 88.4137 88.3313 87.7575 88.9375 87.7575H92.0875C92.3688 87.7575 92.6288 87.9076 92.7694 88.1512C93.0726 88.6762 92.6937 89.3325 92.0875 89.3325H88.9375C88.6562 89.3325 88.3962 89.1824 88.2556 88.9387Z" fill="#111111"/>
<path d="M121.333 76.8933C121.333 74.5737 123.214 72.6933 125.533 72.6933H146.467C148.786 72.6935 150.667 74.5738 150.667 76.8933V77.9433H121.333V76.8933Z" fill="#111111"/>
<path fill-rule="evenodd" clip-rule="evenodd" d="M121.333 80.61H150.667V91.11C150.667 93.4295 148.786 95.3099 146.467 95.31H125.533C123.214 95.3101 121.333 93.4296 121.333 91.11V80.61ZM126.583 84.81C126.004 84.81 125.533 85.2801 125.533 85.86C125.533 86.4399 126.004 86.91 126.583 86.91H134.983C135.359 86.91 135.705 86.7099 135.893 86.385C136.297 85.685 135.792 84.81 134.983 84.81H126.583ZM125.674 90.585C125.27 89.885 125.775 89.01 126.583 89.01H130.783C131.159 89.01 131.505 89.2101 131.693 89.535C132.097 90.235 131.592 91.11 130.783 91.11H126.583C126.208 91.11 125.862 90.9099 125.674 90.585Z" fill="#111111"/>
<path d="M165.667 75.1167C165.667 72.2171 168.017 69.8667 170.917 69.8667H197.083C199.983 69.8668 202.333 72.2173 202.333 75.1167V76.4292H165.667V75.1167Z" fill="#111111"/>
<path fill-rule="evenodd" clip-rule="evenodd" d="M165.667 79.7625H202.333V92.8875C202.333 95.7869 199.983 98.1373 197.083 98.1375H170.917C168.017 98.1377 165.667 95.787 165.667 92.8875V79.7625ZM172.229 85.0125C171.504 85.0125 170.917 85.6002 170.917 86.325C170.917 87.0498 171.504 87.6375 172.229 87.6375H182.729C183.198 87.6375 183.631 87.3873 183.866 86.9813C184.371 86.1063 183.739 85.0125 182.729 85.0125H172.229ZM171.092 92.2313C170.587 91.3563 171.219 90.2625 172.229 90.2625H177.479C177.948 90.2625 178.381 90.5127 178.616 90.9188C179.121 91.7938 178.489 92.8875 177.479 92.8875H172.229C171.76 92.8875 171.327 92.6373 171.092 92.2313Z" fill="#111111"/>
<path d="M218 73.34C218 69.8606 220.821 67.04 224.3 67.04H255.7C259.179 67.0402 262 69.8608 262 73.34V74.915H218V73.34Z" fill="#111111"/>
<path fill-rule="evenodd" clip-rule="evenodd" d="M218 78.915H262V94.665C262 98.1443 259.179 100.965 255.7 100.965H224.3C220.821 100.965 218 98.1444 218 94.665V78.915ZM225.875 85.215C225.005 85.215 224.3 85.9202 224.3 86.79C224.3 87.6598 225.005 88.365 225.875 88.365H238.475C239.038 88.365 239.558 88.0648 239.839 87.5775C240.445 86.5275 239.687 85.215 238.475 85.215H225.875ZM224.511 93.8775C223.905 92.8275 224.663 91.515 225.875 91.515H232.175C232.738 91.515 233.258 91.8152 233.539 92.3025C234.145 93.3525 233.387 94.665 232.175 94.665H225.875C225.312 94.665 224.792 94.3648 224.511 93.8775Z" fill="#111111"/>
</g>
<defs>
<clipPath id="clip0_9412_390">
<rect width="264" height="108" rx="5" fill="white"/>
</clipPath>
</defs>
</svg>
