<svg width="264" height="108" viewBox="0 0 264 108" fill="none" xmlns="http://www.w3.org/2000/svg">
<g clip-path="url(#clip0_2091_227)">
<g clip-path="url(#clip1_2091_227)">
<path d="M9.00002 25H8.09646C7.95799 25.0001 7.82386 25.0484 7.71709 25.1365C7.61031 25.2247 7.53755 25.3473 7.51127 25.4833C7.48499 25.6192 7.50684 25.7601 7.57307 25.8817C7.6393 26.0033 7.74577 26.0981 7.87424 26.1498L8.79157 26.5169C8.92004 26.5686 9.02652 26.6634 9.09274 26.785C9.15897 26.9066 9.18082 27.0474 9.15454 27.1834C9.12826 27.3194 9.0555 27.4419 8.94873 27.5301C8.84195 27.6183 8.70783 27.6666 8.56935 27.6667H7.66668M8.33333 25V24.6667M8.33333 28V27.6667M2.33333 21.6667H7M2.33333 23.6667H5M2.33333 25.6667H4M4 27.6667H1.66667C1.48986 27.6667 1.32029 27.5964 1.19526 27.4714C1.07024 27.3464 1 27.1768 1 27V19.6667C1 19.4899 1.07024 19.3203 1.19526 19.1953C1.32029 19.0702 1.48986 19 1.66667 19H6.39067C6.56735 19 6.7368 19.0702 6.86178 19.1951L8.13822 20.4716C8.26312 20.5965 8.3333 20.766 8.33333 20.9427V22.3333M5.66667 26.3333C5.66667 27.0406 5.94762 27.7189 6.44772 28.219C6.94781 28.719 7.62609 29 8.33333 29C9.04058 29 9.71885 28.719 10.219 28.219C10.719 27.7189 11 27.0406 11 26.3333C11 25.6261 10.719 24.9478 10.219 24.4477C9.71885 23.9476 9.04058 23.6667 8.33333 23.6667C7.62609 23.6667 6.94781 23.9476 6.44772 24.4477C5.94762 24.9478 5.66667 25.6261 5.66667 26.3333Z" stroke="#111111" stroke-width="0.75" stroke-linecap="round" stroke-linejoin="round"/>
</g>
<g clip-path="url(#clip2_2091_227)">
<path d="M36.0002 25.3333H34.7954C34.6108 25.3335 34.432 25.3978 34.2896 25.5154C34.1472 25.633 34.0502 25.7964 34.0152 25.9777C33.9802 26.159 34.0093 26.3468 34.0976 26.5089C34.1859 26.6711 34.3279 26.7974 34.4991 26.8664L35.7223 27.3558C35.8935 27.4248 36.0355 27.5511 36.1238 27.7133C36.2121 27.8754 36.2413 28.0633 36.2062 28.2445C36.1712 28.4258 36.0742 28.5893 35.9318 28.7068C35.7894 28.8244 35.6106 28.8888 35.426 28.8889H34.2224M35.1113 25.3333V24.8889M35.1113 29.3333V28.8889M27.1113 20.8889H33.3335M27.1113 23.5556H30.6668M27.1113 26.2222H29.3335M29.3335 28.8889H26.2224C25.9866 28.8889 25.7605 28.7952 25.5938 28.6285C25.4271 28.4618 25.3335 28.2357 25.3335 28V18.2222C25.3335 17.9865 25.4271 17.7604 25.5938 17.5937C25.7605 17.427 25.9866 17.3333 26.2224 17.3333H32.5211C32.7566 17.3334 32.9826 17.4269 33.1492 17.5935L34.8511 19.2954C35.0177 19.462 35.1112 19.688 35.1113 19.9236V21.7778M31.5557 27.1111C31.5557 28.0541 31.9303 28.9585 32.5971 29.6253C33.2639 30.2921 34.1683 30.6667 35.1113 30.6667C36.0543 30.6667 36.9586 30.2921 37.6254 29.6253C38.2922 28.9585 38.6668 28.0541 38.6668 27.1111C38.6668 26.1681 38.2922 25.2637 37.6254 24.5969C36.9586 23.9302 36.0543 23.5556 35.1113 23.5556C34.1683 23.5556 33.2639 23.9302 32.5971 24.5969C31.9303 25.2637 31.5557 26.1681 31.5557 27.1111Z" stroke="#111111" stroke-linecap="round" stroke-linejoin="round"/>
</g>
<path d="M66.9999 25.6667H65.4939C65.2631 25.6668 65.0396 25.7473 64.8616 25.8943C64.6837 26.0412 64.5624 26.2455 64.5186 26.4721C64.4748 26.6987 64.5112 26.9335 64.6216 27.1362C64.732 27.3389 64.9095 27.4968 65.1236 27.583L66.6525 28.1948C66.8666 28.281 67.044 28.4389 67.1544 28.6416C67.2648 28.8443 67.3012 29.0791 67.2574 29.3057C67.2136 29.5323 67.0923 29.7366 66.9144 29.8835C66.7364 30.0305 66.5129 30.111 66.2821 30.1111H64.7776M65.8887 25.6667V25.1111M65.8887 30.6667V30.1111M55.8887 20.1111H63.6665M55.8887 23.4444H60.3332M55.8887 26.7778H58.6665M58.6665 30.1111H54.7776C54.4829 30.1111 54.2003 29.9941 53.9919 29.7857C53.7836 29.5773 53.6665 29.2947 53.6665 29V16.7778C53.6665 16.4831 53.7836 16.2005 53.9919 15.9921C54.2003 15.7837 54.4829 15.6667 54.7776 15.6667H62.6509C62.9454 15.6667 63.2278 15.7837 63.4361 15.9919L65.5635 18.1193C65.7717 18.3276 65.8887 18.61 65.8887 18.9044V21.2222M61.4443 27.8889C61.4443 29.0676 61.9125 30.1981 62.746 31.0316C63.5795 31.8651 64.71 32.3333 65.8887 32.3333C67.0675 32.3333 68.1979 31.8651 69.0314 31.0316C69.8649 30.1981 70.3332 29.0676 70.3332 27.8889C70.3332 26.7102 69.8649 25.5797 69.0314 24.7462C68.1979 23.9127 67.0675 23.4444 65.8887 23.4444C64.71 23.4444 63.5795 23.9127 62.746 24.7462C61.9125 25.5797 61.4443 26.7102 61.4443 27.8889Z" stroke="#111111" stroke-width="1.25" stroke-linecap="round" stroke-linejoin="round"/>
<path d="M102 26H100.193C99.916 26.0002 99.6477 26.0967 99.4342 26.2731C99.2206 26.4494 99.0751 26.6946 99.0225 26.9665C98.97 27.2384 99.0137 27.5202 99.1461 27.7634C99.2786 28.0066 99.4915 28.1962 99.7485 28.2996L101.583 29.0338C101.84 29.1372 102.053 29.3267 102.185 29.5699C102.318 29.8132 102.362 30.0949 102.309 30.3668C102.257 30.6387 102.111 30.8839 101.897 31.0602C101.684 31.2366 101.416 31.3331 101.139 31.3333H99.3334M100.667 26V25.3333M100.667 32V31.3333M88.6667 19.3333H98M88.6667 23.3333H94M88.6667 27.3333H92M92 31.3333H87.3333C86.9797 31.3333 86.6406 31.1929 86.3905 30.9428C86.1405 30.6928 86 30.3536 86 30V15.3333C86 14.9797 86.1405 14.6406 86.3905 14.3905C86.6406 14.1405 86.9797 14 87.3333 14H96.7813C97.1347 14.0001 97.4736 14.1404 97.7236 14.3902L100.276 16.9431C100.526 17.1931 100.667 17.532 100.667 17.8853V20.6667M95.3333 28.6667C95.3333 30.0812 95.8952 31.4377 96.8954 32.4379C97.8956 33.4381 99.2522 34 100.667 34C102.081 34 103.438 33.4381 104.438 32.4379C105.438 31.4377 106 30.0812 106 28.6667C106 27.2522 105.438 25.8956 104.438 24.8954C103.438 23.8952 102.081 23.3333 100.667 23.3333C99.2522 23.3333 97.8956 23.8952 96.8954 24.8954C95.8952 25.8956 95.3333 27.2522 95.3333 28.6667Z" stroke="#111111" stroke-width="1.5" stroke-linecap="round" stroke-linejoin="round"/>
<path d="M144 26.6667H141.59C141.221 26.6669 140.863 26.7957 140.579 27.0308C140.294 27.2659 140.1 27.5928 140.03 27.9554C139.96 28.3179 140.018 28.6936 140.195 29.0179C140.371 29.3422 140.655 29.5949 140.998 29.7327L143.444 30.7117C143.787 30.8495 144.071 31.1023 144.247 31.4266C144.424 31.7509 144.482 32.1265 144.412 32.4891C144.342 32.8516 144.148 33.1785 143.863 33.4137C143.578 33.6488 143.221 33.7775 142.851 33.7778H140.444M142.222 26.6667V25.7778M142.222 34.6667V33.7778M126.222 17.7778H138.667M126.222 23.1111H133.333M126.222 28.4444H130.667M130.667 33.7778H124.444C123.973 33.7778 123.521 33.5905 123.187 33.2571C122.854 32.9237 122.667 32.4715 122.667 32V12.4444C122.667 11.973 122.854 11.5208 123.187 11.1874C123.521 10.854 123.973 10.6667 124.444 10.6667H137.042C137.513 10.6668 137.965 10.8539 138.298 11.187L141.702 14.5908C142.035 14.9241 142.222 15.3759 142.222 15.8471V19.5556M135.111 30.2222C135.111 32.1082 135.86 33.917 137.194 35.2505C138.527 36.5841 140.336 37.3333 142.222 37.3333C144.108 37.3333 145.917 36.5841 147.25 35.2505C148.584 33.917 149.333 32.1082 149.333 30.2222C149.333 28.3362 148.584 26.5275 147.25 25.1939C145.917 23.8603 144.108 23.1111 142.222 23.1111C140.336 23.1111 138.527 23.8603 137.194 25.1939C135.86 26.5275 135.111 28.3362 135.111 30.2222Z" stroke="#111111" stroke-width="2" stroke-linecap="round" stroke-linejoin="round"/>
<path d="M194 27.3333H190.988C190.527 27.3336 190.08 27.4946 189.724 27.7885C189.368 28.0824 189.125 28.491 189.038 28.9442C188.95 29.3974 189.023 29.8669 189.244 30.2723C189.464 30.6777 189.819 30.9936 190.248 31.1659L193.305 32.3896C193.734 32.5619 194.089 32.8779 194.309 33.2832C194.53 33.6886 194.603 34.1581 194.515 34.6113C194.428 35.0645 194.185 35.4731 193.829 35.7671C193.473 36.061 193.026 36.2219 192.565 36.2222H189.556M191.778 27.3333V26.2222M191.778 37.3333V36.2222M171.778 16.2222H187.333M171.778 22.8889H180.667M171.778 29.5555H177.333M177.333 36.2222H169.556C168.966 36.2222 168.401 35.9881 167.984 35.5713C167.568 35.1546 167.333 34.5894 167.333 34V9.55555C167.333 8.96618 167.568 8.40095 167.984 7.9842C168.401 7.56745 168.966 7.33333 169.556 7.33333H185.302C185.891 7.33345 186.456 7.56738 186.873 7.9837L191.128 12.2385C191.544 12.6551 191.778 13.2199 191.778 13.8089V18.4444M182.889 31.7778C182.889 34.1353 183.826 36.3962 185.493 38.0632C187.16 39.7302 189.42 40.6667 191.778 40.6667C194.135 40.6667 196.396 39.7302 198.063 38.0632C199.73 36.3962 200.667 34.1353 200.667 31.7778C200.667 29.4203 199.73 27.1594 198.063 25.4924C196.396 23.8254 194.135 22.8889 191.778 22.8889C189.42 22.8889 187.16 23.8254 185.493 25.4924C183.826 27.1594 182.889 29.4203 182.889 31.7778Z" stroke="#111111" stroke-width="2.5" stroke-linecap="round" stroke-linejoin="round"/>
<path d="M252 28H248.386C247.832 28.0004 247.295 28.1935 246.868 28.5462C246.441 28.8989 246.15 29.3892 246.045 29.933C245.94 30.4769 246.027 31.0403 246.292 31.5268C246.557 32.0132 246.983 32.3924 247.497 32.5991L251.166 34.0676C251.68 34.2743 252.106 34.6534 252.371 35.1399C252.636 35.6263 252.723 36.1898 252.618 36.7336C252.513 37.2775 252.222 37.7678 251.795 38.1205C251.368 38.4732 250.831 38.6663 250.277 38.6667H246.667M249.333 28V26.6667M249.333 40V38.6667M225.333 14.6667H244M225.333 22.6667H236M225.333 30.6667H232M232 38.6667H222.667C221.959 38.6667 221.281 38.3857 220.781 37.8856C220.281 37.3855 220 36.7072 220 36V6.66667C220 5.95942 220.281 5.28115 220.781 4.78105C221.281 4.28095 221.959 4 222.667 4H241.563C242.269 4.00015 242.947 4.28086 243.447 4.78044L248.553 9.88622C249.052 10.3861 249.333 11.0639 249.333 11.7707V17.3333M238.667 33.3333C238.667 36.1623 239.79 38.8754 241.791 40.8758C243.791 42.8762 246.504 44 249.333 44C252.162 44 254.875 42.8762 256.876 40.8758C258.876 38.8754 260 36.1623 260 33.3333C260 30.5044 258.876 27.7912 256.876 25.7909C254.875 23.7905 252.162 22.6667 249.333 22.6667C246.504 22.6667 243.791 23.7905 241.791 25.7909C239.79 27.7912 238.667 30.5044 238.667 33.3333Z" stroke="#111111" stroke-width="3" stroke-linecap="round" stroke-linejoin="round"/>
<g clip-path="url(#clip3_2091_227)">
<path d="M3.47969 83.542C4.26932 83.5433 5.02582 83.8577 5.58418 84.416C6.14254 84.9744 6.4569 85.7309 6.4582 86.5205C6.4582 87.1097 6.28359 87.6859 5.95625 88.1758C5.62889 88.6657 5.16371 89.048 4.61933 89.2734C4.07513 89.4988 3.47635 89.5572 2.89863 89.4424C2.32073 89.3274 1.78988 89.0436 1.37324 88.627C0.956596 88.2103 0.672762 87.6795 0.557811 87.1016C0.442974 86.5238 0.501376 85.9251 0.726756 85.3809C0.952242 84.8365 1.33449 84.3713 1.82441 84.0439C2.31433 83.7166 2.89048 83.542 3.47969 83.542ZM3.46601 84.2246C3.37493 84.2246 3.2873 84.2608 3.22285 84.3252C3.15838 84.3897 3.12226 84.4772 3.12226 84.5684V84.7285C3.12357 84.7497 3.11639 84.7709 3.10273 84.7871C3.08908 84.8033 3.0691 84.8131 3.04804 84.8154C2.84091 84.8491 2.65089 84.9507 2.50703 85.1035C2.36304 85.2565 2.27305 85.453 2.25215 85.6621C2.23126 85.8711 2.28004 86.0813 2.39082 86.2598C2.50165 86.4383 2.66877 86.5754 2.86543 86.6494L3.80976 87.0293C3.86028 87.049 3.90352 87.0839 3.93379 87.1289C3.96403 87.1739 3.9795 87.2271 3.97871 87.2812C3.97871 87.3529 3.95029 87.4219 3.89961 87.4727C3.84889 87.5234 3.77992 87.5518 3.7082 87.5518H2.79219C2.70117 87.5518 2.61346 87.5881 2.54902 87.6523C2.48463 87.7167 2.44852 87.8045 2.44844 87.8955C2.44844 87.9867 2.48456 88.0742 2.54902 88.1387C2.61349 88.2031 2.70102 88.2393 2.79219 88.2393H3.06269C3.08234 88.2405 3.10092 88.2494 3.11445 88.2637C3.12806 88.2781 3.13594 88.2975 3.13594 88.3174V88.4688C3.13594 88.5599 3.17206 88.6474 3.23652 88.7119C3.30097 88.7763 3.38859 88.8125 3.47969 88.8125C3.57074 88.8124 3.65846 88.7763 3.72285 88.7119C3.78721 88.6475 3.82344 88.5598 3.82344 88.4688V88.3086C3.82167 88.2883 3.8265 88.2677 3.83808 88.251C3.84974 88.2343 3.86731 88.2222 3.88691 88.2168L3.90058 88.2217C4.10853 88.1895 4.30041 88.0889 4.44551 87.9365C4.59057 87.7842 4.68131 87.5881 4.70332 87.3789C4.72529 87.1696 4.67688 86.9585 4.5666 86.7793C4.45637 86.6003 4.29041 86.4624 4.09394 86.3877L3.14961 86.0078C3.09897 85.9882 3.05493 85.9533 3.02461 85.9082C2.99441 85.8633 2.97891 85.81 2.97969 85.7559C2.97969 85.6842 3.00821 85.6151 3.05879 85.5645C3.1095 85.5137 3.17847 85.4854 3.25019 85.4854H4.16719C4.25823 85.4853 4.34596 85.4491 4.41035 85.3848C4.47473 85.3204 4.51084 85.2326 4.51094 85.1416C4.51094 85.0506 4.4746 84.9629 4.41035 84.8984C4.34596 84.834 4.25824 84.7979 4.16719 84.7979H3.88691C3.86638 84.7978 3.84675 84.7889 3.83222 84.7744C3.81772 84.7598 3.8098 84.7403 3.80976 84.7197V84.5684C3.80976 84.4772 3.77267 84.3897 3.7082 84.3252C3.64386 84.261 3.55691 84.2247 3.46601 84.2246ZM9.47871 78.5C9.72143 78.501 9.95407 78.5984 10.1252 78.7705L11.2297 79.875C11.4018 80.0461 11.4992 80.2788 11.5002 80.5215V86.9795C11.5001 87.2224 11.4034 87.4551 11.2316 87.627C11.0597 87.7989 10.8263 87.8955 10.5832 87.8955H7.02265C7.00443 87.8961 6.98623 87.8919 6.96992 87.8838C6.95358 87.8756 6.93937 87.8636 6.9289 87.8486C6.91843 87.8336 6.91142 87.816 6.90937 87.7979C6.9074 87.7798 6.91035 87.761 6.91719 87.7441C6.9971 87.5269 7.05784 87.3029 7.0998 87.0752C7.10408 87.049 7.11793 87.0253 7.13789 87.0078C7.15796 86.9903 7.1835 86.9802 7.21015 86.9795H10.3547C10.4153 86.9794 10.4739 86.955 10.5168 86.9121C10.5597 86.8691 10.5832 86.8107 10.5832 86.75V80.6172C10.5835 80.5874 10.5783 80.5577 10.5666 80.5303C10.5548 80.5027 10.5369 80.4775 10.5148 80.457L9.54316 79.4854C9.5227 79.4633 9.49754 79.4454 9.46992 79.4336C9.4425 79.4219 9.41282 79.4167 9.38301 79.417H4.3957C4.33504 79.4171 4.27649 79.4405 4.23359 79.4834C4.19069 79.5263 4.16727 79.5848 4.16719 79.6455V82.79C4.16723 82.8058 4.1637 82.8215 4.15742 82.8359C4.15113 82.8504 4.14162 82.8633 4.13008 82.874C4.11852 82.8847 4.1049 82.8932 4.09004 82.8984C4.07507 82.9036 4.05895 82.9056 4.04316 82.9043C3.81873 82.8677 3.53018 82.8682 3.36054 82.8682C3.33144 82.8659 3.30366 82.853 3.2834 82.832C3.2631 82.8109 3.25123 82.7822 3.25019 82.7529V79.417C3.25019 79.1739 3.34684 78.9405 3.51875 78.7686C3.69066 78.5966 3.92407 78.5 4.16719 78.5H9.47871ZM8.06269 83.542C8.18425 83.542 8.30096 83.5898 8.38691 83.6758C8.47286 83.7617 8.5207 83.8784 8.5207 84C8.5207 84.1216 8.47286 84.2383 8.38691 84.3242C8.30096 84.4102 8.18425 84.458 8.06269 84.458H6.54609C6.52901 84.4577 6.5114 84.4533 6.49629 84.4453C6.48136 84.4374 6.46806 84.4258 6.4582 84.4121C6.30032 84.1877 6.11941 83.9804 5.91816 83.7939C5.91012 83.7862 5.903 83.7768 5.89863 83.7666C5.8943 83.7564 5.89182 83.7454 5.89179 83.7344C5.89179 83.7234 5.89437 83.7123 5.89863 83.7021C5.903 83.6919 5.91012 83.6825 5.91816 83.6748C5.95822 83.6326 6.00625 83.599 6.05976 83.5762C6.11337 83.5533 6.17141 83.5417 6.22969 83.542H8.06269ZM9.2082 81.4795C9.32968 81.4795 9.44648 81.5274 9.53242 81.6133C9.61837 81.6992 9.66719 81.8159 9.66719 81.9375C9.66719 82.0591 9.61837 82.1758 9.53242 82.2617C9.44648 82.3476 9.32968 82.3955 9.2082 82.3955H6.00019C5.87864 82.3955 5.76193 82.3477 5.67597 82.2617C5.59002 82.1758 5.54219 82.0591 5.54219 81.9375C5.54219 81.8159 5.59002 81.6992 5.67597 81.6133C5.76193 81.5273 5.87864 81.4795 6.00019 81.4795H9.2082Z" fill="#111111"/>
</g>
<g clip-path="url(#clip4_2091_227)">
<path d="M28.6392 83.3893C29.692 83.3911 30.7013 83.8099 31.4458 84.5544C32.1903 85.2989 32.6092 86.3081 32.6108 87.361C32.6108 88.1466 32.3783 88.9148 31.9419 89.568C31.5054 90.2213 30.8845 90.7303 30.1587 91.0309C29.4329 91.3315 28.6342 91.4107 27.8638 91.2575C27.0932 91.1042 26.3851 90.7251 25.8296 90.1696C25.2743 89.6142 24.8959 88.9067 24.7427 88.1364C24.5894 87.366 24.6687 86.5672 24.9692 85.8415C25.2699 85.1156 25.7789 84.4947 26.4321 84.0583C27.0853 83.6219 27.8536 83.3893 28.6392 83.3893ZM28.6206 84.2995C28.4992 84.2995 28.3823 84.3475 28.2964 84.4333C28.2105 84.5192 28.1617 84.636 28.1616 84.7575V84.9714C28.1634 84.9996 28.1544 85.0279 28.1362 85.0495C28.118 85.071 28.092 85.0845 28.064 85.0876C27.7875 85.1324 27.5332 85.2674 27.3413 85.4714C27.1494 85.6754 27.0303 85.9378 27.0024 86.2165C26.9747 86.4951 27.0403 86.7755 27.188 87.0134C27.3357 87.2511 27.5578 87.4333 27.8198 87.5319L29.0786 88.0397C29.146 88.0659 29.2042 88.1116 29.2446 88.1716C29.285 88.2316 29.3063 88.3032 29.3052 88.3757C29.3051 88.4711 29.2672 88.563 29.1997 88.6305C29.1321 88.6982 29.0395 88.736 28.9438 88.736H27.7222C27.6006 88.736 27.4839 88.7848 27.3979 88.8708C27.3122 88.9566 27.2643 89.0727 27.2642 89.194C27.2642 89.3155 27.3121 89.4323 27.3979 89.5182C27.4839 89.6042 27.6006 89.653 27.7222 89.653H28.0825C28.1089 89.6546 28.1337 89.666 28.1518 89.6852C28.17 89.7045 28.1802 89.73 28.1802 89.7565V89.9587C28.1803 90.0801 28.2291 90.197 28.3149 90.2829C28.4009 90.3686 28.5178 90.4167 28.6392 90.4167C28.7603 90.4166 28.8766 90.3685 28.9624 90.2829C29.0483 90.197 29.0971 90.0801 29.0972 89.9587V89.7448C29.0948 89.7176 29.102 89.69 29.1177 89.6676C29.1332 89.6455 29.156 89.6289 29.1821 89.6217L29.2007 89.6286C29.4779 89.5856 29.7338 89.4519 29.9272 89.2487C30.1206 89.0455 30.2417 88.7835 30.271 88.5046C30.3002 88.2257 30.2363 87.9446 30.0893 87.7057C29.9423 87.4668 29.7198 87.2839 29.4575 87.1842L28.1987 86.6764C28.1312 86.6502 28.0731 86.6037 28.0327 86.5436C27.9925 86.4836 27.971 86.4127 27.9722 86.3405C27.9722 86.2449 28.011 86.1532 28.0786 86.0856C28.1462 86.0181 28.238 85.9801 28.3335 85.9801H29.5552C29.6767 85.9801 29.7934 85.9313 29.8794 85.8454C29.9651 85.7596 30.014 85.6435 30.0142 85.5221C30.0142 85.4006 29.9653 85.2839 29.8794 85.1979C29.7934 85.112 29.6767 85.0632 29.5552 85.0632H29.1821C29.1547 85.063 29.1282 85.0523 29.1089 85.0329C29.0895 85.0135 29.0787 84.9871 29.0786 84.9596V84.7575C29.0785 84.636 29.0307 84.5192 28.9448 84.4333C28.8589 84.3474 28.7421 84.2995 28.6206 84.2995ZM36.6382 76.6667C36.9617 76.668 37.2714 76.7977 37.4995 77.027L38.9722 78.4997C39.2017 78.7278 39.3321 79.0384 39.3335 79.362V87.9723C39.3335 88.2965 39.2043 88.6074 38.9751 88.8366C38.7459 89.0657 38.4349 89.194 38.1108 89.194H33.3628C33.3385 89.1948 33.3142 89.1902 33.2925 89.1794C33.2707 89.1684 33.2517 89.1515 33.2378 89.1315C33.2239 89.1115 33.2151 89.0884 33.2124 89.0641C33.2097 89.0399 33.213 89.0154 33.2222 88.9928C33.3288 88.7029 33.4103 88.4041 33.4663 88.1003C33.472 88.0652 33.4904 88.0338 33.5171 88.0104C33.5438 87.9871 33.5774 87.9734 33.6128 87.9723H37.8052C37.8862 87.9723 37.9637 87.9397 38.021 87.8825C38.0783 87.8252 38.1108 87.7477 38.1108 87.6667V79.4899C38.1113 79.4499 38.1031 79.4105 38.0874 79.3737C38.0716 79.3369 38.0484 79.3033 38.019 79.276L36.7241 77.9801C36.6968 77.9508 36.6633 77.9276 36.6265 77.9118C36.5898 77.8961 36.5501 77.8889 36.5102 77.8893H29.8608C29.7799 77.8894 29.7023 77.921 29.645 77.9782C29.5878 78.0354 29.5553 78.1131 29.5552 78.194V82.3864C29.5552 82.4075 29.5509 82.4286 29.5425 82.4479C29.534 82.4673 29.5218 82.4853 29.5063 82.4997C29.4909 82.5139 29.4725 82.525 29.4526 82.5319C29.4327 82.5388 29.4112 82.5414 29.3901 82.5397C29.0908 82.4909 28.7061 82.4909 28.48 82.4909C28.441 82.4879 28.4045 82.4702 28.3774 82.4421C28.3504 82.4139 28.3349 82.3766 28.3335 82.3376V77.8893C28.3335 77.5653 28.4619 77.2543 28.6909 77.0251C28.9201 76.7959 29.2311 76.6667 29.5552 76.6667H36.6382ZM34.7495 83.3893C34.9116 83.3893 35.0675 83.4534 35.1821 83.568C35.2965 83.6825 35.3607 83.8378 35.3608 83.9997C35.3608 84.1618 35.2967 84.3177 35.1821 84.4323C35.0675 84.5469 34.9116 84.611 34.7495 84.611H32.727C32.7043 84.6105 32.6818 84.605 32.6616 84.5944C32.6416 84.5838 32.6241 84.5688 32.6108 84.5505C32.4002 84.251 32.1587 83.9741 31.8901 83.7253C31.8795 83.7151 31.8706 83.7027 31.8647 83.6891C31.8589 83.6755 31.8559 83.66 31.8559 83.6452C31.856 83.6305 31.859 83.6158 31.8647 83.6022C31.8706 83.5886 31.8794 83.5763 31.8901 83.5661C31.9436 83.5098 32.0082 83.4647 32.0796 83.4342C32.1509 83.4039 32.2277 83.3889 32.3052 83.3893H34.7495ZM36.2778 80.6393C36.4398 80.6394 36.5949 80.7035 36.7095 80.818C36.824 80.9326 36.8891 81.0877 36.8892 81.2497C36.8892 81.4118 36.8241 81.5677 36.7095 81.6823C36.5949 81.7967 36.4397 81.8609 36.2778 81.861H31.9995C31.8376 81.8609 31.6824 81.7967 31.5679 81.6823C31.4533 81.5677 31.3892 81.4118 31.3892 81.2497C31.3892 81.0877 31.4533 80.9326 31.5679 80.818C31.6824 80.7035 31.8375 80.6394 31.9995 80.6393H36.2778Z" fill="#111111"/>
</g>
<g clip-path="url(#clip5_2091_227)">
<path d="M57.7981 83.2357C59.1143 83.2377 60.3762 83.7621 61.3069 84.6927C62.2377 85.6234 62.7619 86.8852 62.764 88.2015C62.7639 89.1835 62.4726 90.1438 61.927 90.9603C61.3815 91.7767 60.6057 92.4126 59.6985 92.7884C58.7914 93.1641 57.7933 93.2631 56.8304 93.0716C55.8672 92.88 54.9818 92.4066 54.2874 91.7122C53.5931 91.0179 53.1206 90.1332 52.929 89.1702C52.7374 88.2071 52.8354 87.2084 53.2112 86.3011C53.587 85.3939 54.2238 84.6182 55.0403 84.0726C55.8567 83.5272 56.8164 83.2358 57.7981 83.2357ZM57.7757 84.3743C57.6237 84.3743 57.4778 84.4349 57.3704 84.5423C57.2631 84.6497 57.2024 84.7957 57.2024 84.9476V85.2142C57.2046 85.2494 57.193 85.2848 57.1702 85.3118C57.1475 85.3387 57.1153 85.3559 57.0804 85.3597C56.7347 85.4157 56.417 85.5842 56.177 85.8392C55.9371 86.0942 55.7881 86.4215 55.7532 86.7699C55.7184 87.1182 55.8 87.4685 55.9847 87.7659C56.1693 88.0634 56.447 88.292 56.7747 88.4154L58.3489 89.0491C58.4332 89.0819 58.5055 89.1401 58.5559 89.2152C58.6063 89.2901 58.6325 89.3787 58.6311 89.4691C58.6311 89.5886 58.5838 89.7039 58.4993 89.7884C58.4149 89.8728 58.3003 89.9201 58.1809 89.9202H56.6526C56.5007 89.9203 56.3548 89.9808 56.2473 90.0882C56.1401 90.1956 56.0794 90.3417 56.0794 90.4935C56.0795 90.6451 56.1402 90.7905 56.2473 90.8978C56.3548 91.0052 56.5007 91.0657 56.6526 91.0658H57.1038C57.1368 91.0678 57.1681 91.0827 57.1907 91.1068C57.2132 91.1308 57.2259 91.1627 57.2259 91.1956V91.4476C57.2259 91.5995 57.2864 91.7454 57.3938 91.8529C57.5012 91.9601 57.6464 92.0207 57.7981 92.0208C57.9501 92.0208 58.096 91.9603 58.2034 91.8529C58.3108 91.7454 58.3714 91.5995 58.3714 91.4476V91.181C58.3684 91.147 58.3772 91.1122 58.3968 91.0843C58.4163 91.0564 58.4459 91.0365 58.4788 91.0277L58.5013 91.0355C58.8478 90.9818 59.1667 90.8148 59.4085 90.5609C59.6503 90.3069 59.8015 89.98 59.8382 89.6312C59.8748 89.2824 59.7954 88.9309 59.6116 88.6322C59.4279 88.3336 59.1502 88.1043 58.8225 87.9798L57.2483 87.346C57.164 87.3132 57.0918 87.2551 57.0413 87.18C56.9909 87.105 56.9647 87.0164 56.9661 86.9261C56.9661 86.8066 57.0134 86.6913 57.0979 86.6068C57.1824 86.5224 57.2969 86.475 57.4163 86.4749H58.9446C59.0965 86.4749 59.2425 86.4144 59.3499 86.307C59.4571 86.1995 59.5169 86.0535 59.5169 85.9017C59.5168 85.7501 59.457 85.6047 59.3499 85.4974C59.2425 85.39 59.0965 85.3295 58.9446 85.3294H58.4788C58.4445 85.3294 58.4113 85.3155 58.387 85.2913C58.3627 85.267 58.349 85.2339 58.3489 85.1995V84.9476C58.3489 84.7957 58.2883 84.6497 58.1809 84.5423C58.0735 84.4349 57.9276 84.3743 57.7757 84.3743ZM67.7981 74.8333C68.2026 74.8351 68.5901 74.9977 68.8753 75.2845L70.7161 77.1253C71.0028 77.4105 71.1646 77.798 71.1663 78.2025V88.9652C71.1663 89.3703 71.0055 89.7587 70.719 90.0452C70.4325 90.3317 70.0441 90.4935 69.639 90.4935H63.7034C63.673 90.4944 63.6427 90.4876 63.6155 90.474C63.5882 90.4603 63.5646 90.4394 63.5472 90.4144C63.5298 90.3894 63.5193 90.3606 63.5159 90.3304C63.5125 90.3001 63.5162 90.2688 63.5276 90.2406C63.6609 89.8783 63.7633 89.505 63.8333 89.1253C63.8404 89.0816 63.8624 89.0412 63.8958 89.012C63.9292 88.9828 63.9724 88.9664 64.0169 88.9652H69.2571C69.3582 88.9651 69.4551 88.9252 69.5266 88.8538C69.5983 88.7822 69.639 88.6846 69.639 88.5833V78.3626C69.6396 78.3126 69.6293 78.2631 69.6097 78.2171C69.59 78.1712 69.5613 78.1291 69.5247 78.095L67.9046 76.4759C67.8705 76.4392 67.8295 76.4097 67.7835 76.39C67.7374 76.3702 67.6871 76.3601 67.637 76.3607H59.3264C59.2252 76.3607 59.1276 76.4013 59.0559 76.473C58.9844 76.5446 58.9446 76.6423 58.9446 76.7435V81.9837C58.9446 82.0099 58.9394 82.0359 58.929 82.0599C58.9185 82.0841 58.9025 82.1064 58.8831 82.1243C58.8637 82.1422 58.8406 82.1558 58.8157 82.1644C58.7909 82.1729 58.7647 82.1762 58.7386 82.1741C58.3643 82.113 57.8825 82.1136 57.5999 82.1136C57.5513 82.1099 57.5057 82.0881 57.472 82.0531C57.4381 82.0178 57.418 81.971 57.4163 81.9222V76.3607C57.4164 75.9556 57.5781 75.567 57.8645 75.2806C58.151 74.9943 58.5396 74.8333 58.9446 74.8333H67.7981ZM65.4378 83.2357C65.6403 83.2358 65.8346 83.3171 65.9778 83.4603C66.1209 83.6035 66.2015 83.7979 66.2015 84.0003C66.2014 84.2028 66.121 84.3972 65.9778 84.5404C65.8346 84.6835 65.6403 84.7639 65.4378 84.764H62.9095C62.881 84.7634 62.8526 84.7558 62.8274 84.7425C62.8024 84.7293 62.7805 84.7108 62.764 84.6878C62.5006 84.3134 62.1983 83.9676 61.8626 83.6566C61.8492 83.6437 61.8386 83.6277 61.8313 83.6107C61.8241 83.5936 61.8196 83.5755 61.8196 83.557C61.8196 83.5385 61.8241 83.5203 61.8313 83.5033C61.8386 83.4862 61.8492 83.4702 61.8626 83.4574C61.9293 83.3871 62.0098 83.3313 62.0989 83.2933C62.1883 83.2552 62.285 83.2351 62.3821 83.2357H65.4378ZM67.347 79.7982C67.5496 79.7982 67.7437 79.8795 67.887 80.0228C68.0302 80.166 68.1106 80.3602 68.1106 80.5628C68.1105 80.7653 68.0302 80.9597 67.887 81.1029C67.7438 81.2459 67.5494 81.3265 67.347 81.3265H62.0003C61.7978 81.3265 61.6035 81.2459 61.4602 81.1029C61.3171 80.9597 61.2357 80.7653 61.2356 80.5628C61.2356 80.3602 61.317 80.166 61.4602 80.0228C61.6035 79.8795 61.7977 79.7982 62.0003 79.7982H67.347Z" fill="#111111"/>
</g>
<path d="M90.9578 83.083C92.5373 83.0854 94.0518 83.7142 95.1687 84.8311C96.2856 85.9479 96.9143 87.4625 96.9167 89.042C96.9167 90.2203 96.5665 91.3718 95.9119 92.3516C95.2572 93.3314 94.3268 94.0959 93.238 94.5469C92.1494 94.9977 90.9513 95.1156 89.7957 94.8857C88.6399 94.6558 87.5782 94.0882 86.7449 93.2549C85.9116 92.4216 85.3439 91.3599 85.114 90.2041C84.8841 89.0484 85.002 87.8504 85.4529 86.7617C85.9039 85.673 86.6684 84.7426 87.6482 84.0879C88.6279 83.4333 89.7795 83.0831 90.9578 83.083ZM90.9304 84.4492C90.7481 84.4493 90.573 84.5215 90.4441 84.6504C90.3152 84.7793 90.2429 84.9544 90.2429 85.1367V85.457C90.2455 85.4993 90.2321 85.5418 90.2048 85.5742C90.1775 85.6066 90.1386 85.6272 90.0964 85.6318C89.6816 85.699 89.3004 85.901 89.0125 86.207C88.7245 86.5131 88.5455 86.9061 88.5037 87.3242C88.4619 87.7423 88.5594 88.1626 88.781 88.5195C89.0027 88.8766 89.3369 89.1499 89.7302 89.2979L91.6179 90.0596C91.7192 90.0989 91.8063 90.1677 91.8669 90.2578C91.9276 90.3479 91.9585 90.4549 91.9568 90.5635C91.9567 90.7068 91.8999 90.8439 91.7986 90.9453C91.6972 91.0467 91.5601 91.1044 91.4167 91.1045H89.5828C89.4006 91.1046 89.2263 91.1769 89.0974 91.3057C88.9685 91.4346 88.8953 91.6097 88.8953 91.792C88.8954 91.9742 88.9686 92.1485 89.0974 92.2773C89.2263 92.4062 89.4005 92.4794 89.5828 92.4795H90.1238C90.1635 92.4818 90.201 92.4993 90.2283 92.5283C90.2554 92.5572 90.2703 92.5952 90.2703 92.6348V92.9375C90.2703 93.1198 90.3435 93.2949 90.4724 93.4238C90.6012 93.5525 90.7757 93.6249 90.9578 93.625C91.14 93.625 91.3152 93.5527 91.4441 93.4238C91.573 93.2949 91.6453 93.1198 91.6453 92.9375V92.6162C91.6418 92.5757 91.6532 92.5353 91.6765 92.502C91.7 92.4684 91.7347 92.4442 91.7742 92.4336L91.8015 92.4424C92.2174 92.3779 92.6002 92.1778 92.8904 91.873C93.1805 91.5683 93.362 91.1762 93.406 90.7578C93.45 90.3393 93.3541 89.917 93.1335 89.5586C92.913 89.2003 92.5796 88.9248 92.1863 88.7754L90.2976 88.0146C90.1967 87.9753 90.1101 87.9063 90.0496 87.8164C89.9889 87.7263 89.957 87.6194 89.9587 87.5107C89.9588 87.3673 90.0155 87.2293 90.1169 87.1279C90.2184 87.0265 90.3563 86.9697 90.4998 86.9697H92.3328C92.5151 86.9697 92.6902 86.8975 92.8191 86.7686C92.948 86.6396 93.0203 86.4646 93.0203 86.2822C93.0202 86.1 92.948 85.9248 92.8191 85.7959C92.6902 85.6672 92.515 85.5947 92.3328 85.5947H91.7742C91.733 85.5947 91.693 85.5789 91.6638 85.5498C91.6347 85.5206 91.618 85.4807 91.6179 85.4395V85.1367C91.6179 84.9544 91.5457 84.7793 91.4167 84.6504C91.2878 84.5215 91.1127 84.4492 90.9304 84.4492ZM102.957 73C103.442 73.002 103.908 73.1967 104.25 73.541L106.459 75.75C106.803 76.0922 106.998 76.5575 107 77.043V89.958C107 90.4442 106.806 90.9111 106.463 91.2549C106.119 91.5985 105.653 91.7919 105.167 91.792H98.0437C98.0072 91.7931 97.9709 91.7849 97.9382 91.7686C97.9055 91.7521 97.8771 91.7273 97.8562 91.6973C97.8355 91.6674 97.8222 91.6328 97.8181 91.5967C97.814 91.5604 97.8191 91.5231 97.8328 91.4893C97.9928 91.0544 98.116 90.6061 98.2 90.1504C98.2086 90.0979 98.2351 90.0497 98.2751 90.0146C98.3153 89.9796 98.3664 89.9595 98.4197 89.958H104.708C104.829 89.958 104.946 89.9101 105.032 89.8242C105.118 89.7383 105.167 89.6216 105.167 89.5V77.2354C105.167 77.1752 105.155 77.1148 105.132 77.0596C105.108 77.0045 105.073 76.9549 105.029 76.9141L103.086 74.9707C103.045 74.9268 102.995 74.8918 102.94 74.8682C102.885 74.8445 102.825 74.8323 102.764 74.833H92.7917C92.6702 74.833 92.5535 74.8818 92.4675 74.9678C92.3816 75.0537 92.3328 75.1704 92.3328 75.292V81.5801C92.3329 81.6117 92.3268 81.6429 92.3142 81.6719C92.3016 81.7009 92.2828 81.7275 92.2595 81.749C92.2363 81.7705 92.2084 81.7865 92.1785 81.7969C92.1486 81.8072 92.1171 81.8121 92.0857 81.8096C91.6365 81.7362 91.0586 81.7354 90.7195 81.7354C90.6612 81.7308 90.6067 81.7053 90.5662 81.6631C90.5256 81.6209 90.5019 81.5653 90.4998 81.5068V74.833C90.4998 74.3469 90.6931 73.8808 91.0369 73.5371C91.3806 73.1934 91.8467 73.0001 92.3328 73H102.957ZM100.125 83.083C100.368 83.083 100.601 83.1797 100.773 83.3516C100.945 83.5235 101.042 83.7569 101.042 84C101.042 84.2431 100.945 84.4765 100.773 84.6484C100.601 84.8203 100.368 84.917 100.125 84.917H97.0906C97.0565 84.9163 97.0231 84.9074 96.9929 84.8916C96.9628 84.8757 96.9366 84.8528 96.9167 84.8252C96.6007 84.3759 96.2377 83.9612 95.8347 83.5879C95.8186 83.5725 95.8054 83.5537 95.7966 83.5332C95.788 83.5129 95.784 83.4908 95.7839 83.4688C95.7839 83.4465 95.7879 83.4238 95.7966 83.4033C95.8053 83.3829 95.8187 83.365 95.8347 83.3496C95.9149 83.265 96.0117 83.1971 96.1189 83.1514C96.226 83.1057 96.3414 83.0824 96.4578 83.083H100.125ZM102.417 78.958C102.66 78.9581 102.892 79.0549 103.064 79.2266C103.236 79.3985 103.333 79.6319 103.333 79.875C103.333 80.1181 103.236 80.3515 103.064 80.5234C102.892 80.6951 102.66 80.7919 102.417 80.792H95.9998C95.7566 80.792 95.5232 80.6953 95.3513 80.5234C95.1794 80.3515 95.0828 80.1181 95.0828 79.875C95.0828 79.6319 95.1794 79.3985 95.3513 79.2266C95.5232 79.0547 95.7566 78.958 95.9998 78.958H102.417Z" fill="#111111"/>
<path d="M129.278 82.7777C131.384 82.7809 133.403 83.6187 134.892 85.1077C136.381 86.5969 137.219 88.6161 137.222 90.722C137.222 92.2933 136.756 93.8296 135.884 95.1361C135.011 96.4424 133.77 97.4606 132.318 98.0618C130.867 98.6631 129.269 98.8205 127.728 98.514C126.187 98.2075 124.772 97.451 123.661 96.3402C122.55 95.2291 121.793 93.8129 121.486 92.2718C121.18 90.7309 121.337 89.1335 121.938 87.682C122.539 86.2304 123.558 84.9895 124.864 84.1165C126.17 83.2436 127.707 82.7777 129.278 82.7777ZM129.242 84.599C128.999 84.599 128.765 84.6956 128.593 84.8675C128.422 85.0394 128.325 85.2728 128.325 85.5159V85.9437C128.328 86 128.31 86.0558 128.273 86.099C128.237 86.1419 128.185 86.1689 128.13 86.1751C127.577 86.2647 127.068 86.5347 126.684 86.9427C126.3 87.3508 126.061 87.8745 126.006 88.432C125.95 88.9894 126.08 89.5497 126.376 90.0257C126.671 90.5017 127.116 90.8674 127.64 91.0648L130.158 92.0784C130.293 92.1309 130.409 92.2239 130.49 92.3441C130.571 92.4642 130.612 92.6065 130.61 92.7513C130.61 92.9425 130.534 93.1259 130.399 93.2611C130.264 93.3962 130.081 93.472 129.889 93.472H127.445C127.202 93.472 126.969 93.5687 126.797 93.7406C126.625 93.9125 126.528 94.1459 126.528 94.389C126.528 94.6321 126.625 94.8655 126.797 95.0374C126.969 95.2092 127.202 95.306 127.445 95.306H128.166C128.219 95.3091 128.269 95.3318 128.305 95.3704C128.342 95.409 128.361 95.4601 128.361 95.513V95.9163C128.361 96.1593 128.458 96.3929 128.63 96.5648C128.802 96.7367 129.035 96.8333 129.278 96.8333C129.521 96.8333 129.755 96.7367 129.927 96.5648C130.098 96.3929 130.195 96.1594 130.195 95.9163V95.4886C130.19 95.4343 130.205 95.3799 130.236 95.3353C130.267 95.2907 130.313 95.2586 130.366 95.2445L130.403 95.2562C130.957 95.1702 131.467 94.9036 131.854 94.4974C132.241 94.091 132.483 93.5681 132.542 93.0101C132.6 92.4521 132.472 91.8903 132.178 91.4124C131.884 90.9345 131.44 90.5667 130.916 90.3675L128.398 89.3529C128.263 89.3004 128.147 89.2083 128.066 89.0882C127.985 88.9681 127.944 88.8257 127.946 88.681C127.946 88.4898 128.022 88.3064 128.157 88.1712C128.292 88.0361 128.476 87.9604 128.667 87.9603H131.111C131.354 87.9603 131.588 87.8635 131.76 87.6917C131.931 87.5198 132.028 87.2864 132.028 87.0433C132.028 86.8002 131.931 86.5668 131.76 86.3949C131.588 86.2231 131.354 86.1263 131.111 86.1263H130.366C130.311 86.1263 130.258 86.1046 130.219 86.0658C130.181 86.0269 130.158 85.9742 130.158 85.9193V85.5159C130.158 85.2728 130.061 85.0394 129.889 84.8675C129.718 84.6957 129.485 84.5991 129.242 84.599ZM145.277 69.3333C145.924 69.3361 146.544 69.595 147.001 70.054L149.946 73.0003C150.405 73.4565 150.664 74.0759 150.667 74.723V91.9447C150.667 92.5929 150.409 93.2148 149.951 93.6732C149.493 94.1315 148.871 94.389 148.222 94.389H138.726C138.678 94.3905 138.628 94.3797 138.585 94.3577C138.541 94.3358 138.504 94.303 138.476 94.263C138.448 94.223 138.431 94.1767 138.426 94.1283C138.42 94.0798 138.427 94.0309 138.445 93.9857C138.658 93.406 138.821 92.809 138.933 92.2015C138.945 92.1313 138.98 92.0667 139.034 92.0199C139.087 91.973 139.156 91.9466 139.227 91.9447H147.611C147.773 91.9447 147.929 91.8796 148.044 91.765C148.158 91.6504 148.222 91.4953 148.222 91.3333V74.9798C148.223 74.8997 148.208 74.82 148.177 74.7464C148.145 74.6728 148.097 74.6066 148.039 74.5521L145.448 71.9613C145.393 71.9026 145.327 71.8561 145.254 71.8245C145.18 71.793 145.1 71.7767 145.02 71.7777H131.722C131.561 71.7777 131.405 71.842 131.291 71.9564C131.176 72.071 131.111 72.2269 131.111 72.389V80.7738C131.111 80.8158 131.102 80.8572 131.086 80.8958C131.069 80.9346 131.044 80.9696 131.013 80.9984C130.982 81.0271 130.946 81.049 130.906 81.0628C130.866 81.0766 130.824 81.0818 130.782 81.0784C130.183 80.9807 129.413 80.9808 128.961 80.9808C128.883 80.9748 128.81 80.9405 128.756 80.8841C128.702 80.8277 128.67 80.7532 128.667 80.6751V71.7777C128.667 71.1295 128.924 70.5075 129.383 70.0491C129.841 69.5908 130.463 69.3334 131.111 69.3333H145.277ZM141.501 82.7777C141.825 82.7778 142.136 82.9069 142.365 83.1361C142.594 83.3652 142.722 83.6763 142.722 84.0003C142.722 84.3244 142.594 84.6354 142.365 84.8646C142.136 85.0937 141.825 85.2219 141.501 85.222H137.455C137.409 85.2211 137.364 85.21 137.324 85.1888C137.284 85.1676 137.249 85.1369 137.222 85.0999C136.801 84.5008 136.317 83.9473 135.78 83.4495C135.759 83.4291 135.742 83.4044 135.73 83.3773C135.719 83.3501 135.713 83.3209 135.713 83.2913C135.713 83.2616 135.719 83.2317 135.73 83.2044C135.742 83.1773 135.759 83.1526 135.78 83.1322C135.887 83.0194 136.016 82.9294 136.159 82.8685C136.302 82.8076 136.456 82.7768 136.611 82.7777H141.501ZM144.556 77.2777C144.88 77.2778 145.192 77.407 145.421 77.6361C145.65 77.8652 145.778 78.1763 145.778 78.5003C145.778 78.8243 145.65 79.1354 145.421 79.3646C145.192 79.5937 144.88 79.7219 144.556 79.722H136.001C135.677 79.722 135.366 79.5936 135.136 79.3646C134.907 79.1354 134.778 78.8244 134.778 78.5003C134.778 78.1762 134.907 77.8653 135.136 77.6361C135.366 77.4069 135.677 77.2777 136.001 77.2777H144.556Z" fill="#111111"/>
<path d="M175.597 82.4723C178.23 82.4764 180.754 83.524 182.615 85.3854C184.476 87.2469 185.524 89.7706 185.528 92.403C185.528 94.3669 184.945 96.2866 183.854 97.9196C182.763 99.5527 181.212 100.826 179.397 101.578C177.583 102.329 175.586 102.525 173.66 102.142C171.734 101.759 169.964 100.813 168.575 99.4245C167.186 98.0358 166.24 96.2666 165.857 94.3405C165.474 92.4142 165.671 90.4168 166.423 88.6022C167.174 86.7879 168.447 85.2373 170.08 84.1462C171.713 83.055 173.633 82.4723 175.597 82.4723ZM175.552 84.7487C175.248 84.7487 174.956 84.8698 174.741 85.0846C174.526 85.2994 174.406 85.5906 174.406 85.8942V86.4294C174.41 86.4998 174.387 86.5697 174.342 86.6237C174.296 86.6776 174.231 86.7117 174.161 86.7194C173.47 86.8314 172.835 87.1686 172.355 87.6784C171.875 88.1884 171.577 88.843 171.508 89.5397C171.438 90.2366 171.6 90.9378 171.97 91.5329C172.339 92.1278 172.895 92.5841 173.551 92.8307L176.697 94.0983C176.866 94.1638 177.011 94.2801 177.112 94.4303C177.213 94.5805 177.265 94.7582 177.263 94.9391C177.262 95.178 177.168 95.4069 176.999 95.5759C176.83 95.7449 176.6 95.8405 176.361 95.8405H173.305C173.002 95.8406 172.711 95.9609 172.496 96.1755C172.281 96.3903 172.16 96.6822 172.16 96.986C172.16 97.2899 172.281 97.5817 172.496 97.7966C172.711 98.0112 173.002 98.1315 173.305 98.1315H174.207C174.273 98.1354 174.335 98.1653 174.381 98.2135C174.426 98.2617 174.452 98.3251 174.452 98.3913V98.8962C174.452 99.1998 174.572 99.491 174.787 99.7057C175.002 99.9206 175.294 100.042 175.597 100.042C175.901 100.042 176.193 99.9206 176.408 99.7057C176.623 99.491 176.743 99.1998 176.743 98.8962V98.3102C176.747 98.2599 176.765 98.2115 176.795 98.1696C176.834 98.1138 176.891 98.0731 176.957 98.0553L177.003 98.071C177.696 97.9636 178.335 97.6298 178.818 97.1217C179.302 96.6138 179.603 95.9599 179.677 95.2624C179.75 94.5648 179.59 93.8627 179.222 93.2653C178.855 92.6679 178.3 92.2086 177.644 91.9596L174.497 90.6921C174.328 90.6265 174.184 90.5102 174.083 90.36C173.982 90.2098 173.93 90.0322 173.932 89.8512C173.932 89.6122 174.027 89.3826 174.196 89.2135C174.365 89.0447 174.595 88.9499 174.834 88.9499H177.889C178.193 88.9498 178.484 88.8287 178.699 88.6139C178.914 88.3991 179.035 88.1081 179.035 87.8044C179.035 87.5005 178.914 87.2087 178.699 86.9938C178.484 86.7791 178.193 86.658 177.889 86.6579H176.957C176.888 86.6578 176.822 86.6313 176.773 86.5827C176.725 86.5341 176.697 86.4678 176.697 86.3991V85.8942C176.697 85.5906 176.577 85.2994 176.362 85.0846C176.147 84.8698 175.855 84.7487 175.552 84.7487ZM195.596 65.6667C196.405 65.6701 197.179 65.9943 197.75 66.568L201.432 70.2497C202.006 70.82 202.33 71.595 202.334 72.404V93.9303C202.334 94.7407 202.011 95.5184 201.438 96.0915C200.865 96.6643 200.088 96.9859 199.278 96.986H187.407C187.346 96.9879 187.286 96.9743 187.231 96.9469C187.177 96.9196 187.129 96.8797 187.095 96.8298C187.06 96.7797 187.038 96.7214 187.031 96.6608C187.024 96.6002 187.033 96.5386 187.055 96.4821C187.322 95.7574 187.527 95.0111 187.667 94.2516C187.681 94.1638 187.726 94.0836 187.793 94.0251C187.86 93.9667 187.944 93.9329 188.033 93.9303H198.514C198.717 93.9302 198.911 93.8499 199.055 93.7067C199.198 93.5635 199.278 93.3692 199.278 93.1667V72.7253C199.279 72.6251 199.259 72.5254 199.22 72.4333C199.18 72.3413 199.122 72.2583 199.049 72.1901L195.809 68.9518C195.741 68.8785 195.659 68.8194 195.567 68.78C195.475 68.7405 195.375 68.7211 195.275 68.7223H178.653C178.451 68.7223 178.256 68.8028 178.113 68.946C177.97 69.0892 177.889 69.2835 177.889 69.486V79.9665C177.89 80.0192 177.878 80.0714 177.857 80.1198C177.836 80.1682 177.805 80.2119 177.766 80.2477C177.728 80.2836 177.682 80.3115 177.632 80.3288C177.582 80.346 177.529 80.3525 177.476 80.3483C176.728 80.2261 175.765 80.2262 175.2 80.2262C175.103 80.2188 175.012 80.1756 174.944 80.1051C174.877 80.0347 174.837 79.942 174.834 79.8444V68.7223C174.834 67.912 175.155 67.1342 175.728 66.5612C176.301 65.9883 177.079 65.6667 177.889 65.6667H195.596ZM190.875 82.4723C191.28 82.4723 191.669 82.6331 191.956 82.9196C192.242 83.206 192.403 83.5947 192.403 83.9997C192.403 84.4049 192.242 84.7942 191.956 85.0807C191.669 85.3672 191.28 85.528 190.875 85.528H185.818C185.761 85.5268 185.705 85.5125 185.655 85.486C185.605 85.4595 185.561 85.4209 185.528 85.3747C185.001 84.6258 184.397 83.9344 183.725 83.3122C183.699 83.2867 183.677 83.2562 183.663 83.2223C183.648 83.1882 183.64 83.151 183.64 83.1139C183.64 83.0768 183.648 83.0397 183.663 83.0055C183.677 82.9716 183.699 82.9412 183.725 82.9157C183.859 82.7747 184.02 82.6628 184.199 82.5866C184.378 82.5104 184.57 82.4712 184.764 82.4723H190.875ZM194.694 75.5973C195.099 75.5973 195.489 75.7581 195.775 76.0446C196.062 76.331 196.222 76.7197 196.222 77.1247C196.222 77.5299 196.062 77.9192 195.775 78.2057C195.489 78.4922 195.099 78.653 194.694 78.653H184C183.595 78.6529 183.206 78.4921 182.92 78.2057C182.633 77.9192 182.472 77.5299 182.472 77.1247C182.473 76.7196 182.633 76.331 182.92 76.0446C183.206 75.7582 183.595 75.5974 184 75.5973H194.694Z" fill="#111111"/>
<path d="M229.917 82.167C233.076 82.1719 236.104 83.4284 238.338 85.6621C240.571 87.8958 241.828 90.9241 241.833 94.083C241.833 96.4399 241.134 98.7444 239.825 100.704C238.516 102.664 236.654 104.191 234.476 105.093C232.299 105.995 229.903 106.231 227.592 105.771C225.28 105.312 223.157 104.176 221.49 102.51C219.823 100.843 218.688 98.7198 218.228 96.4082C217.769 94.0967 218.005 91.7008 218.907 89.5234C219.809 87.346 221.336 85.4842 223.296 84.1748C225.255 82.8654 227.56 82.167 229.917 82.167ZM229.861 84.8984C229.497 84.8985 229.147 85.0432 228.889 85.3008C228.632 85.5586 228.486 85.9088 228.486 86.2734V86.915C228.491 86.9995 228.464 87.0827 228.41 87.1475C228.355 87.2123 228.277 87.2544 228.193 87.2637C227.364 87.398 226.601 87.802 226.025 88.4141C225.449 89.0262 225.092 89.8121 225.009 90.6484C224.925 91.4847 225.12 92.3251 225.563 93.0391C226.007 93.753 226.673 94.3007 227.46 94.5967L231.236 96.1182C231.439 96.1968 231.613 96.3354 231.734 96.5156C231.855 96.6959 231.918 96.9097 231.915 97.127C231.915 97.4136 231.801 97.6888 231.598 97.8916C231.396 98.0945 231.12 98.208 230.833 98.208H227.167C226.802 98.208 226.452 98.3535 226.194 98.6113C225.936 98.8691 225.792 99.2185 225.792 99.583C225.792 99.9477 225.936 100.298 226.194 100.556C226.452 100.814 226.802 100.958 227.167 100.958H228.248C228.327 100.963 228.402 100.998 228.457 101.056C228.511 101.113 228.542 101.19 228.542 101.27V101.875C228.542 102.24 228.686 102.59 228.944 102.848C229.202 103.105 229.552 103.25 229.917 103.25C230.281 103.25 230.631 103.105 230.888 102.848C231.146 102.59 231.292 102.24 231.292 101.875V101.173C231.297 101.112 231.318 101.053 231.353 101.003C231.4 100.936 231.469 100.887 231.548 100.866L231.603 100.885C232.435 100.756 233.201 100.356 233.781 99.7461C234.361 99.1365 234.724 98.3518 234.812 97.5146C234.9 96.6777 234.708 95.8349 234.267 95.1182C233.826 94.4013 233.16 93.8506 232.373 93.5518L228.596 92.0303C228.394 91.9516 228.221 91.8121 228.099 91.6318C227.978 91.4516 227.914 91.2387 227.918 91.0215C227.918 90.7347 228.032 90.4596 228.235 90.2568C228.438 90.054 228.713 89.9404 229 89.9404H232.667C233.031 89.9403 233.381 89.7949 233.638 89.5371C233.896 89.2793 234.042 88.9299 234.042 88.5654C234.042 88.2008 233.896 87.8506 233.638 87.5928C233.381 87.3351 233.031 87.1905 232.667 87.1904H231.548C231.465 87.1903 231.386 87.1569 231.328 87.0986C231.269 87.0402 231.236 86.9606 231.236 86.8779V86.2734C231.236 85.9088 231.092 85.5586 230.834 85.3008C230.576 85.043 230.226 84.8984 229.861 84.8984ZM253.915 62C254.886 62.0041 255.815 62.3935 256.5 63.082L260.918 67.5C261.606 68.1845 261.996 69.1141 262 70.085V95.917C262 96.8893 261.613 97.8222 260.926 98.5098C260.238 99.1972 259.305 99.583 258.333 99.583H244.088C244.015 99.5852 243.942 99.5699 243.877 99.5371C243.811 99.5043 243.756 99.4554 243.714 99.3955C243.672 99.3354 243.646 99.2652 243.637 99.1924C243.629 99.1197 243.639 99.0463 243.667 98.9785C243.987 98.1087 244.232 97.2132 244.4 96.3018C244.417 96.1964 244.47 96.1006 244.551 96.0303C244.631 95.96 244.733 95.9199 244.84 95.917H257.417C257.66 95.9169 257.892 95.8201 258.064 95.6484C258.236 95.4765 258.333 95.2431 258.333 95V70.4697C258.334 70.3496 258.311 70.2305 258.263 70.1201C258.216 70.0096 258.146 69.91 258.058 69.8281L254.172 65.9414C254.09 65.8534 253.99 65.7837 253.88 65.7363C253.769 65.689 253.65 65.6656 253.53 65.667H233.583C233.34 65.6671 233.107 65.7637 232.935 65.9355C232.764 66.1074 232.667 66.34 232.667 66.583V79.1602C232.667 79.2235 232.654 79.2866 232.629 79.3447C232.603 79.4028 232.566 79.455 232.519 79.498C232.473 79.541 232.418 79.574 232.358 79.5947C232.298 79.6155 232.235 79.6232 232.172 79.6182C231.274 79.4715 230.119 79.4717 229.44 79.4717C229.323 79.4627 229.214 79.4107 229.133 79.3262C229.052 79.2417 229.004 79.1307 229 79.0137V65.667C229 64.6945 229.386 63.7619 230.074 63.0742C230.762 62.3866 231.694 62 232.667 62H253.915ZM248.25 82.167C248.736 82.167 249.202 82.3603 249.546 82.7041C249.889 83.0479 250.083 83.5138 250.083 84C250.083 84.4862 249.89 84.9531 249.546 85.2969C249.202 85.6404 248.736 85.833 248.25 85.833H242.181C242.113 85.8316 242.046 85.815 241.985 85.7832C241.925 85.7514 241.873 85.7058 241.833 85.6504C241.201 84.7517 240.476 83.9215 239.67 83.1748C239.638 83.1441 239.612 83.1073 239.595 83.0664C239.577 83.0254 239.568 82.9811 239.568 82.9365C239.568 82.892 239.577 82.8475 239.595 82.8066C239.612 82.7658 239.638 82.7289 239.67 82.6982C239.83 82.5291 240.024 82.3951 240.238 82.3037C240.452 82.2123 240.684 82.1657 240.917 82.167H248.25ZM252.833 73.917C253.319 73.917 253.786 74.1103 254.13 74.4541C254.473 74.7979 254.667 75.2639 254.667 75.75C254.667 76.2361 254.473 76.7021 254.13 77.0459C253.786 77.3897 253.319 77.583 252.833 77.583H240C239.514 77.583 239.048 77.3897 238.704 77.0459C238.36 76.7021 238.167 76.2362 238.167 75.75C238.167 75.2638 238.36 74.7979 238.704 74.4541C239.048 74.1103 239.514 73.917 240 73.917H252.833Z" fill="#111111"/>
</g>
<defs>
<clipPath id="clip0_2091_227">
<rect width="264" height="108" rx="5" fill="white"/>
</clipPath>
<clipPath id="clip1_2091_227">
<rect width="12" height="12" fill="white" transform="translate(0 18)"/>
</clipPath>
<clipPath id="clip2_2091_227">
<rect width="16" height="16" fill="white" transform="translate(24 16)"/>
</clipPath>
<clipPath id="clip3_2091_227">
<rect width="12" height="12" fill="white" transform="translate(0 78)"/>
</clipPath>
<clipPath id="clip4_2091_227">
<rect width="16" height="16" fill="white" transform="translate(24 76)"/>
</clipPath>
<clipPath id="clip5_2091_227">
<rect width="20" height="20" fill="white" transform="translate(52 74)"/>
</clipPath>
</defs>
</svg>
