<svg width="264" height="108" viewBox="0 0 264 108" fill="none" xmlns="http://www.w3.org/2000/svg">
<g clip-path="url(#clip0_2091_218)">
<g clip-path="url(#clip1_2091_218)">
<path d="M9 28.5H10.5M9.75 27.75V29.25M0.75 21H2.25M1.5 20.25V21.75M6.80769 21.7788C6.80769 22.1537 6.95661 22.5132 7.22169 22.7783C7.48676 23.0434 7.84628 23.1923 8.22115 23.1923C8.59603 23.1923 8.95555 23.0434 9.22062 22.7783C9.4857 22.5132 9.63462 22.1537 9.63462 21.7788C9.63462 21.404 9.4857 21.0445 9.22062 20.7794C8.95555 20.5143 8.59603 20.3654 8.22115 20.3654C7.84628 20.3654 7.48676 20.5143 7.22169 20.7794C6.95661 21.0445 6.80769 21.404 6.80769 21.7788ZM5.45974 23.188L1.03005 27.6177C0.850738 27.797 0.75 28.0402 0.75 28.2938C0.75 28.5474 0.850738 28.7906 1.03005 28.9699C1.20937 29.1493 1.45257 29.25 1.70616 29.25C1.95975 29.25 2.20296 29.1493 2.38227 28.9699L3.05605 28.2957L3.73589 28.9755C3.87934 29.119 4.07391 29.1996 4.27678 29.1996C4.47965 29.1996 4.67422 29.119 4.81767 28.9755C4.96112 28.8321 5.04171 28.6375 5.04171 28.4347C5.04171 28.2318 4.96112 28.0372 4.81767 27.8938L4.13829 27.2139L6.81196 24.5403C7.46134 24.8681 8.2063 24.9538 8.91317 24.782C9.62004 24.6102 10.2426 24.1922 10.6691 23.6029C11.0955 23.0136 11.2981 22.2916 11.2403 21.5664C11.1826 20.8413 10.8683 20.1604 10.354 19.646C9.83957 19.1317 9.15873 18.8174 8.43357 18.7597C7.70842 18.7019 6.98642 18.9045 6.39711 19.3309C5.8078 19.7574 5.38975 20.38 5.21796 21.0868C5.04617 21.7937 5.13189 22.5387 5.45974 23.188Z" stroke="#111111" stroke-width="0.75" stroke-linecap="round" stroke-linejoin="round"/>
</g>
<g clip-path="url(#clip2_2091_218)">
<path d="M36 30H38M37 29V31M25 20H27M26 19V21M33.0769 21.0385C33.0769 21.5383 33.2755 22.0177 33.6289 22.3711C33.9823 22.7245 34.4617 22.9231 34.9615 22.9231C35.4614 22.9231 35.9407 22.7245 36.2942 22.3711C36.6476 22.0177 36.8462 21.5383 36.8462 21.0385C36.8462 20.5386 36.6476 20.0593 36.2942 19.7058C35.9407 19.3524 35.4614 19.1538 34.9615 19.1538C34.4617 19.1538 33.9823 19.3524 33.6289 19.7058C33.2755 20.0593 33.0769 20.5386 33.0769 21.0385ZM31.2797 22.9174L25.3734 28.8236C25.1343 29.0627 25 29.387 25 29.7251C25 30.0632 25.1343 30.3875 25.3734 30.6266C25.6125 30.8657 25.9368 31 26.2749 31C26.613 31 26.9373 30.8657 27.1764 30.6266L28.0747 29.7276L28.9812 30.6341C29.1725 30.8253 29.4319 30.9328 29.7024 30.9328C29.9729 30.9328 30.2323 30.8253 30.4236 30.6341C30.6148 30.4428 30.7223 30.1834 30.7223 29.9129C30.7223 29.6424 30.6148 29.383 30.4236 29.1917L29.5177 28.2852L33.0826 24.7203C33.9485 25.1575 34.9417 25.2718 35.8842 25.0427C36.8267 24.8137 37.6568 24.2563 38.2254 23.4705C38.7941 22.6848 39.0641 21.7221 38.9871 20.7552C38.9101 19.7884 38.4911 18.8806 37.8053 18.1947C37.1194 17.5089 36.2116 17.0899 35.2448 17.0129C34.2779 16.9359 33.3152 17.2059 32.5295 17.7746C31.7437 18.3432 31.1863 19.1733 30.9573 20.1158C30.7282 21.0583 30.8425 22.0515 31.2797 22.9174Z" stroke="#111111" stroke-linecap="round" stroke-linejoin="round"/>
</g>
<g clip-path="url(#clip3_2091_218)">
<path d="M67 31.5H69.5M68.25 30.25V32.75M53.25 19H55.75M54.5 17.75V20.25M63.3462 20.2981C63.3462 20.9229 63.5944 21.5221 64.0361 21.9639C64.4779 22.4057 65.0771 22.6538 65.7019 22.6538C66.3267 22.6538 66.9259 22.4057 67.3677 21.9639C67.8095 21.5221 68.0577 20.9229 68.0577 20.2981C68.0577 19.6733 67.8095 19.0741 67.3677 18.6323C66.9259 18.1905 66.3267 17.9423 65.7019 17.9423C65.0771 17.9423 64.4779 18.1905 64.0361 18.6323C63.5944 19.0741 63.3462 19.6733 63.3462 20.2981ZM61.0996 22.6467L53.7168 30.0295C53.4179 30.3284 53.25 30.7337 53.25 31.1564C53.25 31.579 53.4179 31.9844 53.7168 32.2832C54.0156 32.5821 54.421 32.75 54.8436 32.75C55.2663 32.75 55.6716 32.5821 55.9705 32.2832L57.0934 31.1595L58.2265 32.2926C58.4656 32.5317 58.7898 32.666 59.128 32.666C59.4661 32.666 59.7904 32.5317 60.0294 32.2926C60.2685 32.0535 60.4029 31.7292 60.4029 31.3911C60.4029 31.053 60.2685 30.7287 60.0294 30.4896L58.8972 29.3565L63.3533 24.9004C64.4356 25.4468 65.6772 25.5897 66.8553 25.3034C68.0334 25.0171 69.0709 24.3203 69.7818 23.3381C70.4926 22.356 70.8301 21.1526 70.7339 19.944C70.6377 18.7355 70.1139 17.6007 69.2566 16.7434C68.3993 15.8861 67.2645 15.3623 66.056 15.2661C64.8474 15.1699 63.644 15.5074 62.6619 16.2182C61.6797 16.9291 60.9829 17.9666 60.6966 19.1447C60.4103 20.3228 60.5532 21.5644 61.0996 22.6467Z" stroke="#111111" stroke-width="1.25" stroke-linecap="round" stroke-linejoin="round"/>
</g>
<path d="M101.318 32.0027H103.982M102.65 30.6707V33.3347M86 18.0163H89.9961M87.9981 16.0182V20.0143M97.9697 19.8465C97.9697 20.4259 98.1998 20.9816 98.6095 21.3912C99.0192 21.8009 99.5748 22.0311 100.154 22.0311C100.734 22.0311 101.289 21.8009 101.699 21.3912C102.109 20.9816 102.339 20.4259 102.339 19.8465C102.339 19.2672 102.109 18.7115 101.699 18.3018C101.289 17.8922 100.734 17.662 100.154 17.662C99.5748 17.662 99.0192 17.8922 98.6095 18.3018C98.1998 18.7115 97.9697 19.2672 97.9697 19.8465ZM94.9726 22.4529L86.5364 30.8891C86.1948 31.2306 86.003 31.6938 86.003 32.1767C86.003 32.6597 86.1948 33.1229 86.5364 33.4644C86.8779 33.8059 87.341 33.9977 87.824 33.9977C88.3069 33.9977 88.7701 33.8059 89.1116 33.4644L90.3948 32.1803L91.6896 33.475C91.9628 33.7482 92.3333 33.9017 92.7197 33.9017C93.106 33.9017 93.4766 33.7482 93.7498 33.475C94.023 33.2018 94.1765 32.8313 94.1765 32.4449C94.1765 32.0585 94.023 31.688 93.7498 31.4148L92.4559 30.1201L97.5478 25.0281C98.7846 25.6525 100.203 25.8158 101.55 25.4886C102.896 25.1614 104.081 24.3653 104.894 23.2429C105.706 22.1206 106.092 20.7456 105.982 19.3645C105.872 17.9835 105.273 16.6869 104.293 15.7072C103.314 14.7276 102.017 14.1291 100.636 14.0191C99.2551 13.9091 97.8801 14.2949 96.7578 15.1071C95.6355 15.9194 94.8393 17.1049 94.5121 18.4512C94.185 19.7974 94.3482 21.2161 94.9726 22.4529Z" stroke="#111111" stroke-width="1.5" stroke-linecap="round" stroke-linejoin="round"/>
<path d="M144 36H148M146 34V38M122 16H126M124 14V18M138.154 18.0769C138.154 19.0766 138.551 20.0353 139.258 20.7422C139.965 21.449 140.923 21.8462 141.923 21.8462C142.923 21.8462 143.881 21.449 144.588 20.7422C145.295 20.0353 145.692 19.0766 145.692 18.0769C145.692 17.0773 145.295 16.1185 144.588 15.4117C143.881 14.7048 142.923 14.3077 141.923 14.3077C140.923 14.3077 139.965 14.7048 139.258 15.4117C138.551 16.1185 138.154 17.0773 138.154 18.0769ZM134.559 21.8348L122.747 33.6473C122.269 34.1254 122 34.774 122 35.4502C122 36.1265 122.269 36.775 122.747 37.2532C123.225 37.7314 123.874 38 124.55 38C125.226 38 125.875 37.7314 126.353 37.2532L128.149 35.4552L129.962 37.2681C130.345 37.6507 130.864 37.8656 131.405 37.8656C131.946 37.8656 132.465 37.6506 132.847 37.2681C133.23 36.8856 133.445 36.3667 133.445 35.8257C133.445 35.2847 133.23 34.7659 132.847 34.3834L131.035 32.5705L138.165 25.4407C139.897 26.315 141.883 26.5435 143.768 26.0854C145.653 25.6273 147.314 24.5125 148.451 22.941C149.588 21.3695 150.128 19.4442 149.974 17.5105C149.82 15.5767 148.982 13.7611 147.611 12.3895C146.239 11.0178 144.423 10.1798 142.49 10.0258C140.556 9.87176 138.63 10.4119 137.059 11.5492C135.487 12.6865 134.373 14.3466 133.915 16.2315C133.456 18.1165 133.685 20.1031 134.559 21.8348Z" stroke="#111111" stroke-width="2" stroke-linecap="round" stroke-linejoin="round"/>
<path d="M194 39H199M196.5 36.5V41.5M166.5 14H171.5M169 11.5V16.5M186.692 16.5962C186.692 17.8457 187.189 19.0441 188.072 19.9277C188.956 20.8113 190.154 21.3077 191.404 21.3077C192.653 21.3077 193.852 20.8113 194.735 19.9277C195.619 19.0441 196.115 17.8457 196.115 16.5962C196.115 15.3466 195.619 14.1482 194.735 13.2646C193.852 12.381 192.653 11.8846 191.404 11.8846C190.154 11.8846 188.956 12.381 188.072 13.2646C187.189 14.1482 186.692 15.3466 186.692 16.5962ZM182.199 21.2935L167.434 36.0591C166.836 36.6568 166.5 37.4675 166.5 38.3128C166.5 39.1581 166.836 39.9688 167.434 40.5665C168.031 41.1642 168.842 41.5 169.687 41.5C170.533 41.5 171.343 41.1642 171.941 40.5665L174.187 38.319L176.453 40.5851C176.931 41.0633 177.58 41.3319 178.256 41.3319C178.932 41.3319 179.581 41.0633 180.059 40.5851C180.537 40.107 180.806 39.4584 180.806 38.7822C180.806 38.1059 180.537 37.4574 180.059 36.9792L177.794 34.7131L186.707 25.8009C188.871 26.8937 191.354 27.1794 193.711 26.6068C196.067 26.0342 198.142 24.6407 199.564 22.6763C200.985 20.7119 201.66 18.3053 201.468 15.8881C201.275 13.4709 200.228 11.2014 198.513 9.48682C196.799 7.77221 194.529 6.72469 192.112 6.5322C189.695 6.3397 187.288 7.01484 185.324 8.43647C183.359 9.85811 181.966 11.9332 181.393 14.2894C180.821 16.6457 181.106 19.1289 182.199 21.2935Z" stroke="#111111" stroke-width="2.5" stroke-linecap="round" stroke-linejoin="round"/>
<path d="M252 42H258M255 39V45M219 12H225M222 9V15M243.231 15.1154C243.231 16.6149 243.826 18.053 244.887 19.1133C245.947 20.1736 247.385 20.7692 248.885 20.7692C250.384 20.7692 251.822 20.1736 252.882 19.1133C253.943 18.053 254.538 16.6149 254.538 15.1154C254.538 13.6159 253.943 12.1778 252.882 11.1175C251.822 10.0572 250.384 9.46154 248.885 9.46154C247.385 9.46154 245.947 10.0572 244.887 11.1175C243.826 12.1778 243.231 13.6159 243.231 15.1154ZM237.839 20.7522L220.12 38.4709C219.403 39.1882 219 40.161 219 41.1753C219 42.1897 219.403 43.1625 220.12 43.8798C220.837 44.597 221.81 45 222.825 45C223.839 45 224.812 44.597 225.529 43.8798L228.224 41.1828L230.944 43.9022C231.517 44.476 232.296 44.7983 233.107 44.7983C233.919 44.7983 234.697 44.476 235.271 43.9022C235.844 43.3284 236.167 42.5501 236.167 41.7386C236.167 40.9271 235.844 40.1489 235.271 39.5751L232.553 36.8557L243.248 26.161C245.845 27.4724 248.825 27.8153 251.653 27.1282C254.48 26.441 256.97 24.7688 258.676 22.4116C260.382 20.0543 261.192 17.1663 260.961 14.2657C260.73 11.3651 259.473 8.64172 257.416 6.58419C255.358 4.52665 252.635 3.26963 249.734 3.03864C246.834 2.80765 243.946 3.61781 241.588 5.32377C239.231 7.02973 237.559 9.51983 236.872 12.3473C236.185 15.1748 236.528 18.1546 237.839 20.7522Z" stroke="#111111" stroke-width="3" stroke-linecap="round" stroke-linejoin="round"/>
<g clip-path="url(#clip4_2091_218)">
<path d="M0.5 81H0.833333C0.877536 81 0.919928 81.0176 0.951185 81.0488C0.982441 81.0801 1 81.1225 1 81.1667V81.5C1 81.6326 1.05268 81.7598 1.14645 81.8536C1.24021 81.9473 1.36739 82 1.5 82C1.63261 82 1.75979 81.9473 1.85355 81.8536C1.94732 81.7598 2 81.6326 2 81.5V81.1667C2 81.1225 2.01756 81.0801 2.04882 81.0488C2.08007 81.0176 2.12246 81 2.16667 81H2.5C2.56566 81 2.63068 80.9871 2.69134 80.9619C2.752 80.9368 2.80712 80.9 2.85355 80.8536C2.89998 80.8071 2.93681 80.752 2.96194 80.6913C2.98707 80.6307 3 80.5657 3 80.5C3 80.4343 2.98707 80.3693 2.96194 80.3087C2.93681 80.248 2.89998 80.1929 2.85355 80.1464C2.80712 80.1 2.752 80.0632 2.69134 80.0381C2.63068 80.0129 2.56566 80 2.5 80H2.16667C2.12246 80 2.08007 79.9824 2.04882 79.9512C2.01756 79.9199 2 79.8775 2 79.8333V79.5C2 79.3674 1.94732 79.2402 1.85355 79.1464C1.75979 79.0527 1.63261 79 1.5 79C1.36739 79 1.24021 79.0527 1.14645 79.1464C1.05268 79.2402 1 79.3674 1 79.5V79.8333C1 79.8775 0.982441 79.9199 0.951185 79.9512C0.919928 79.9824 0.877536 80 0.833333 80H0.5C0.367392 80 0.240215 80.0527 0.146447 80.1464C0.0526784 80.2402 0 80.3674 0 80.5C0 80.6326 0.0526784 80.7598 0.146447 80.8536C0.240215 80.9473 0.367392 81 0.5 81Z" fill="#111111"/>
<path d="M10.5 87H10.1667C10.1225 87 10.0801 86.9824 10.0488 86.9512C10.0176 86.9199 10 86.8775 10 86.8333V86.5C10 86.3674 9.94732 86.2402 9.85355 86.1464C9.75978 86.0527 9.63261 86 9.5 86C9.36739 86 9.24021 86.0527 9.14645 86.1464C9.05268 86.2402 9 86.3674 9 86.5V86.8333C9 86.8775 8.98244 86.9199 8.95118 86.9512C8.91993 86.9824 8.87754 87 8.83333 87H8.5C8.36739 87 8.24021 87.0527 8.14645 87.1464C8.05268 87.2402 8 87.3674 8 87.5C8 87.6326 8.05268 87.7598 8.14645 87.8536C8.24021 87.9473 8.36739 88 8.5 88H8.83333C8.87754 88 8.91993 88.0176 8.95118 88.0488C8.98244 88.0801 9 88.1225 9 88.1667V88.5C9 88.6326 9.05268 88.7598 9.14645 88.8536C9.24021 88.9473 9.36739 89 9.5 89C9.63261 89 9.75978 88.9473 9.85355 88.8536C9.94732 88.7598 10 88.6326 10 88.5V88.1667C10 88.1225 10.0176 88.0801 10.0488 88.0488C10.0801 88.0176 10.1225 88 10.1667 88H10.5C10.6326 88 10.7598 87.9473 10.8536 87.8536C10.9473 87.7598 11 87.6326 11 87.5C11 87.3674 10.9473 87.2402 10.8536 87.1464C10.7598 87.0527 10.6326 87 10.5 87Z" fill="#111111"/>
<path d="M11.3484 81.5152C11.3507 80.9889 11.2343 80.4689 11.0078 79.9938C10.7813 79.5187 10.4506 79.1009 10.0403 78.7713C9.62997 78.4417 9.15062 78.2089 8.63789 78.0902C8.12517 77.9715 7.59227 77.9699 7.07886 78.0857C6.56545 78.2014 6.08475 78.4314 5.67253 78.7586C5.26031 79.0858 4.92718 79.5017 4.69793 79.9754C4.46869 80.4492 4.34923 80.9685 4.34844 81.4948C4.34766 82.0211 4.46557 82.5408 4.69341 83.0152C4.71565 83.062 4.72278 83.1146 4.71383 83.1656C4.70487 83.2167 4.68026 83.2637 4.6434 83.3002L0.268405 87.6852C0.0932181 87.8732 -0.00287317 88.1214 6.54667e-05 88.3784C0.00300411 88.6353 0.104747 88.8813 0.284188 89.0652C0.463628 89.2492 0.706993 89.357 0.963795 89.3663C1.2206 89.3756 1.47112 89.2857 1.6634 89.1152C1.71046 89.072 1.77202 89.048 1.8359 89.048C1.89979 89.048 1.96135 89.072 2.0084 89.1152L2.7534 89.8602C2.84756 89.9537 2.97499 90.0059 3.10767 90.0055C3.24035 90.005 3.36742 89.9518 3.4609 89.8577C3.55439 89.7635 3.60665 89.6361 3.60618 89.5034C3.60571 89.3707 3.55256 89.2437 3.45841 89.1502L2.7134 88.4202C2.68997 88.3969 2.67137 88.3693 2.65868 88.3388C2.64599 88.3084 2.63946 88.2757 2.63946 88.2427C2.63946 88.2097 2.64599 88.177 2.65868 88.1465C2.67137 88.1161 2.68997 88.0884 2.7134 88.0652L3.0284 87.7502C3.07537 87.7049 3.13817 87.6798 3.2034 87.6802C3.26998 87.6805 3.33409 87.7055 3.3834 87.7502L4.1234 88.5152C4.21756 88.6087 4.34499 88.6609 4.47767 88.6605C4.61035 88.66 4.73742 88.6068 4.8309 88.5127C4.92439 88.4185 4.97665 88.2911 4.97618 88.1584C4.97571 88.0257 4.92256 87.8987 4.8284 87.8052L4.08841 87.0452C4.06497 87.0219 4.04637 86.9943 4.03368 86.9638C4.02099 86.9334 4.01446 86.9007 4.01446 86.8677C4.01446 86.8347 4.02099 86.802 4.03368 86.7715C4.04637 86.7411 4.06497 86.7134 4.08841 86.6902L6.0584 84.7202C6.09486 84.6833 6.14188 84.6587 6.19294 84.6498C6.244 84.6408 6.29658 84.6479 6.3434 84.6702C6.87653 84.9241 7.46523 85.039 8.05471 85.0042C8.64419 84.9694 9.21528 84.786 9.71482 84.4711C10.2144 84.1562 10.6261 83.72 10.9117 83.2032C11.1974 82.6864 11.3476 82.1057 11.3484 81.5152ZM7.84841 83.0152C7.55173 83.0152 7.26172 82.9272 7.01505 82.7624C6.76838 82.5976 6.57612 82.3633 6.46259 82.0892C6.34905 81.8151 6.31935 81.5135 6.37723 81.2225C6.4351 80.9316 6.57797 80.6643 6.78774 80.4545C6.99752 80.2447 7.2648 80.1019 7.55577 80.044C7.84674 79.9861 8.14834 80.0158 8.42243 80.1294C8.69652 80.2429 8.93079 80.4351 9.09561 80.6818C9.26043 80.9285 9.3484 81.2185 9.3484 81.5152C9.3484 81.913 9.19037 82.2945 8.90906 82.5758C8.62776 82.8571 8.24623 83.0152 7.84841 83.0152Z" fill="#111111"/>
</g>
<g clip-path="url(#clip5_2091_218)">
<path d="M24.6667 80H25.1111C25.17 80 25.2266 80.0234 25.2682 80.0651C25.3099 80.1068 25.3333 80.1633 25.3333 80.2222V80.6667C25.3333 80.8435 25.4036 81.013 25.5286 81.1381C25.6536 81.2631 25.8232 81.3333 26 81.3333C26.1768 81.3333 26.3464 81.2631 26.4714 81.1381C26.5964 81.013 26.6667 80.8435 26.6667 80.6667V80.2222C26.6667 80.1633 26.6901 80.1068 26.7318 80.0651C26.7734 80.0234 26.83 80 26.8889 80H27.3333C27.4209 80 27.5076 79.9828 27.5885 79.9493C27.6693 79.9158 27.7428 79.8666 27.8047 79.8047C27.8666 79.7428 27.9158 79.6693 27.9493 79.5885C27.9828 79.5076 28 79.4209 28 79.3333C28 79.2458 27.9828 79.1591 27.9493 79.0782C27.9158 78.9973 27.8666 78.9238 27.8047 78.8619C27.7428 78.8 27.6693 78.7509 27.5885 78.7174C27.5076 78.6839 27.4209 78.6667 27.3333 78.6667H26.8889C26.83 78.6667 26.7734 78.6433 26.7318 78.6016C26.6901 78.5599 26.6667 78.5034 26.6667 78.4444V78C26.6667 77.8232 26.5964 77.6536 26.4714 77.5286C26.3464 77.4036 26.1768 77.3333 26 77.3333C25.8232 77.3333 25.6536 77.4036 25.5286 77.5286C25.4036 77.6536 25.3333 77.8232 25.3333 78V78.4444C25.3333 78.5034 25.3099 78.5599 25.2682 78.6016C25.2266 78.6433 25.17 78.6667 25.1111 78.6667H24.6667C24.4899 78.6667 24.3203 78.7369 24.1953 78.8619C24.0702 78.987 24 79.1565 24 79.3333C24 79.5101 24.0702 79.6797 24.1953 79.8047C24.3203 79.9298 24.4899 80 24.6667 80Z" fill="#111111"/>
<path d="M38 88H37.5556C37.4966 88 37.4401 87.9766 37.3984 87.9349C37.3567 87.8932 37.3333 87.8367 37.3333 87.7778V87.3333C37.3333 87.1565 37.2631 86.987 37.1381 86.8619C37.013 86.7369 36.8435 86.6667 36.6667 86.6667C36.4899 86.6667 36.3203 86.7369 36.1953 86.8619C36.0702 86.987 36 87.1565 36 87.3333V87.7778C36 87.8367 35.9766 87.8932 35.9349 87.9349C35.8932 87.9766 35.8367 88 35.7778 88H35.3333C35.1565 88 34.987 88.0702 34.8619 88.1953C34.7369 88.3203 34.6667 88.4899 34.6667 88.6667C34.6667 88.8435 34.7369 89.013 34.8619 89.1381C34.987 89.2631 35.1565 89.3333 35.3333 89.3333H35.7778C35.8367 89.3333 35.8932 89.3567 35.9349 89.3984C35.9766 89.4401 36 89.4966 36 89.5556V90C36 90.1768 36.0702 90.3464 36.1953 90.4714C36.3203 90.5964 36.4899 90.6667 36.6667 90.6667C36.8435 90.6667 37.013 90.5964 37.1381 90.4714C37.2631 90.3464 37.3333 90.1768 37.3333 90V89.5556C37.3333 89.4966 37.3567 89.4401 37.3984 89.3984C37.4401 89.3567 37.4966 89.3333 37.5556 89.3333H38C38.1768 89.3333 38.3464 89.2631 38.4714 89.1381C38.5964 89.013 38.6667 88.8435 38.6667 88.6667C38.6667 88.4899 38.5964 88.3203 38.4714 88.1953C38.3464 88.0702 38.1768 88 38 88Z" fill="#111111"/>
<path d="M39.1312 80.6869C39.1342 79.9852 38.979 79.2918 38.677 78.6584C38.3751 78.025 37.9341 77.4678 37.387 77.0284C36.84 76.589 36.2008 76.2785 35.5172 76.1203C34.8336 75.962 34.123 75.9599 33.4385 76.1142C32.7539 76.2685 32.113 76.5752 31.5634 77.0114C31.0137 77.4477 30.5696 78.0023 30.2639 78.6339C29.9582 79.2656 29.799 79.958 29.7979 80.6597C29.7969 81.3614 29.9541 82.0544 30.2579 82.6869C30.2875 82.7493 30.297 82.8194 30.2851 82.8875C30.2732 82.9556 30.2403 83.0183 30.1912 83.0669L24.3579 88.9136C24.1243 89.1642 23.9962 89.4952 24.0001 89.8378C24.004 90.1804 24.1397 90.5084 24.3789 90.7536C24.6182 90.9989 24.9427 91.1426 25.2851 91.155C25.6275 91.1674 25.9615 91.0475 26.2179 90.8202C26.2806 90.7626 26.3627 90.7306 26.4479 90.7306C26.5331 90.7306 26.6151 90.7626 26.6779 90.8202L27.6712 91.8136C27.7967 91.9382 27.9667 92.0079 28.1436 92.0073C28.3205 92.0067 28.4899 91.9358 28.6145 91.8102C28.7392 91.6847 28.8089 91.5148 28.8082 91.3379C28.8076 91.161 28.7367 90.9916 28.6112 90.8669L27.6179 89.8936C27.5866 89.8626 27.5618 89.8257 27.5449 89.7851C27.528 89.7445 27.5193 89.7009 27.5193 89.6569C27.5193 89.6129 27.528 89.5693 27.5449 89.5287C27.5618 89.4881 27.5866 89.4512 27.6179 89.4202L28.0379 89.0002C28.1005 88.9399 28.1842 88.9064 28.2712 88.9069C28.36 88.9074 28.4455 88.9406 28.5112 89.0002L29.4979 90.0202C29.6234 90.1449 29.7933 90.2146 29.9702 90.2139C30.1471 90.2133 30.3166 90.1424 30.4412 90.0169C30.5659 89.8914 30.6355 89.7215 30.6349 89.5445C30.6343 89.3676 30.5634 89.1982 30.4379 89.0736L29.4512 88.0602C29.42 88.0293 29.3952 87.9924 29.3782 87.9518C29.3613 87.9111 29.3526 87.8676 29.3526 87.8236C29.3526 87.7796 29.3613 87.736 29.3782 87.6954C29.3952 87.6548 29.42 87.6179 29.4512 87.5869L32.0779 84.9602C32.1265 84.9111 32.1892 84.8783 32.2572 84.8663C32.3253 84.8544 32.3954 84.8639 32.4579 84.8936C33.1687 85.2321 33.9536 85.3853 34.7396 85.3389C35.5256 85.2925 36.287 85.048 36.9531 84.6281C37.6192 84.2083 38.1681 83.6267 38.549 82.9376C38.9298 82.2485 39.1301 81.4742 39.1312 80.6869ZM34.4645 82.6869C34.069 82.6869 33.6823 82.5696 33.3534 82.3498C33.0245 82.1301 32.7682 81.8177 32.6168 81.4523C32.4654 81.0868 32.4258 80.6847 32.503 80.2967C32.5801 79.9088 32.7706 79.5524 33.0503 79.2727C33.33 78.993 33.6864 78.8025 34.0744 78.7253C34.4623 78.6482 34.8645 78.6878 35.2299 78.8391C35.5954 78.9905 35.9077 79.2469 36.1275 79.5758C36.3472 79.9047 36.4645 80.2913 36.4645 80.6869C36.4645 81.2173 36.2538 81.726 35.8788 82.1011C35.5037 82.4762 34.995 82.6869 34.4645 82.6869Z" fill="#111111"/>
</g>
<g clip-path="url(#clip6_2091_218)">
<path d="M52.8333 79H53.3889C53.4626 79 53.5332 79.0293 53.5853 79.0814C53.6374 79.1335 53.6667 79.2041 53.6667 79.2778V79.8333C53.6667 80.0543 53.7545 80.2663 53.9107 80.4226C54.067 80.5789 54.279 80.6667 54.5 80.6667C54.721 80.6667 54.933 80.5789 55.0893 80.4226C55.2455 80.2663 55.3333 80.0543 55.3333 79.8333V79.2778C55.3333 79.2041 55.3626 79.1335 55.4147 79.0814C55.4668 79.0293 55.5374 79 55.6111 79H56.1667C56.2761 79 56.3845 78.9784 56.4856 78.9366C56.5867 78.8947 56.6785 78.8333 56.7559 78.7559C56.8333 78.6785 56.8947 78.5867 56.9366 78.4856C56.9784 78.3845 57 78.2761 57 78.1667C57 78.0572 56.9784 77.9489 56.9366 77.8478C56.8947 77.7467 56.8333 77.6548 56.7559 77.5774C56.6785 77.5 56.5867 77.4386 56.4856 77.3968C56.3845 77.3549 56.2761 77.3333 56.1667 77.3333H55.6111C55.5374 77.3333 55.4668 77.3041 55.4147 77.252C55.3626 77.1999 55.3333 77.1292 55.3333 77.0556V76.5C55.3333 76.279 55.2455 76.067 55.0893 75.9107C54.933 75.7545 54.721 75.6667 54.5 75.6667C54.279 75.6667 54.067 75.7545 53.9107 75.9107C53.7545 76.067 53.6667 76.279 53.6667 76.5V77.0556C53.6667 77.1292 53.6374 77.1999 53.5853 77.252C53.5332 77.3041 53.4626 77.3333 53.3889 77.3333H52.8333C52.6123 77.3333 52.4004 77.4211 52.2441 77.5774C52.0878 77.7337 52 77.9457 52 78.1667C52 78.3877 52.0878 78.5996 52.2441 78.7559C52.4004 78.9122 52.6123 79 52.8333 79Z" fill="#111111"/>
<path d="M69.5 89H68.9444C68.8708 89 68.8001 88.9707 68.748 88.9186C68.6959 88.8665 68.6667 88.7959 68.6667 88.7222V88.1667C68.6667 87.9457 68.5789 87.7337 68.4226 87.5774C68.2663 87.4211 68.0543 87.3333 67.8333 87.3333C67.6123 87.3333 67.4004 87.4211 67.2441 87.5774C67.0878 87.7337 67 87.9457 67 88.1667V88.7222C67 88.7959 66.9707 88.8665 66.9186 88.9186C66.8665 88.9707 66.7959 89 66.7222 89H66.1667C65.9457 89 65.7337 89.0878 65.5774 89.2441C65.4211 89.4004 65.3333 89.6123 65.3333 89.8333C65.3333 90.0543 65.4211 90.2663 65.5774 90.4226C65.7337 90.5789 65.9457 90.6667 66.1667 90.6667H66.7222C66.7959 90.6667 66.8665 90.6959 66.9186 90.748C66.9707 90.8001 67 90.8708 67 90.9444V91.5C67 91.721 67.0878 91.933 67.2441 92.0893C67.4004 92.2455 67.6123 92.3333 67.8333 92.3333C68.0543 92.3333 68.2663 92.2455 68.4226 92.0893C68.5789 91.933 68.6667 91.721 68.6667 91.5V90.9444C68.6667 90.8708 68.6959 90.8001 68.748 90.748C68.8001 90.6959 68.8708 90.6667 68.9444 90.6667H69.5C69.721 90.6667 69.933 90.5789 70.0893 90.4226C70.2455 90.2663 70.3333 90.0543 70.3333 89.8333C70.3333 89.6123 70.2455 89.4004 70.0893 89.2441C69.933 89.0878 69.721 89 69.5 89Z" fill="#111111"/>
<path d="M70.914 79.8586C70.9178 78.9815 70.7238 78.1148 70.3463 77.323C69.9688 76.5312 69.4177 75.8348 68.7338 75.2855C68.0499 74.7362 67.251 74.3482 66.3965 74.1503C65.5419 73.9525 64.6538 73.9499 63.7981 74.1428C62.9424 74.3356 62.1413 74.719 61.4542 75.2643C60.7672 75.8096 60.212 76.5028 59.8299 77.2924C59.4478 78.0819 59.2487 78.9475 59.2474 79.8246C59.2461 80.7018 59.4426 81.5679 59.8223 82.3586C59.8594 82.4367 59.8713 82.5243 59.8564 82.6094C59.8414 82.6945 59.8004 82.7729 59.739 82.8336L52.4473 90.142C52.1554 90.4553 51.9952 90.869 52.0001 91.2973C52.005 91.7255 52.1746 92.1354 52.4736 92.442C52.7727 92.7486 53.1783 92.9283 53.6063 92.9438C54.0343 92.9593 54.4519 92.8094 54.7723 92.5253C54.8508 92.4533 54.9534 92.4133 55.0598 92.4133C55.1663 92.4133 55.2689 92.4533 55.3473 92.5253L56.589 93.767C56.7459 93.9228 56.9583 94.0099 57.1795 94.0091C57.4006 94.0083 57.6124 93.9197 57.7682 93.7628C57.924 93.6059 58.0111 93.3935 58.0103 93.1724C58.0095 92.9512 57.9209 92.7394 57.764 92.5836L56.5223 91.367C56.4833 91.3282 56.4523 91.2821 56.4311 91.2314C56.41 91.1806 56.3991 91.1261 56.3991 91.0711C56.3991 91.0161 56.41 90.9617 56.4311 90.9109C56.4523 90.8601 56.4833 90.814 56.5223 90.7753L57.0473 90.2503C57.1256 90.1748 57.2303 90.133 57.339 90.1336C57.45 90.1342 57.5568 90.1758 57.639 90.2503L58.8723 91.5253C59.0293 91.6811 59.2417 91.7682 59.4628 91.7674C59.6839 91.7666 59.8957 91.6781 60.0515 91.5211C60.2073 91.3642 60.2944 91.1518 60.2936 90.9307C60.2929 90.7095 60.2043 90.4978 60.0473 90.342L58.814 89.0753C58.775 89.0366 58.744 88.9905 58.7228 88.9397C58.7017 88.8889 58.6908 88.8345 58.6908 88.7795C58.6908 88.7245 58.7017 88.67 58.7228 88.6192C58.744 88.5684 58.775 88.5224 58.814 88.4836L62.0973 85.2003C62.1581 85.1389 62.2365 85.0979 62.3216 85.0829C62.4067 85.068 62.4943 85.0799 62.5723 85.117C63.4609 85.5402 64.4421 85.7317 65.4245 85.6737C66.407 85.6156 67.3588 85.31 68.1914 84.7852C69.0239 84.2604 69.7102 83.5334 70.1862 82.672C70.6623 81.8106 70.9126 80.8428 70.914 79.8586ZM65.0807 82.3586C64.5862 82.3586 64.1029 82.212 63.6917 81.9373C63.2806 81.6626 62.9602 81.2722 62.771 80.8153C62.5818 80.3585 62.5322 79.8559 62.6287 79.3709C62.7252 78.886 62.9633 78.4405 63.3129 78.0909C63.6625 77.7412 64.108 77.5031 64.5929 77.4067C65.0779 77.3102 65.5806 77.3597 66.0374 77.5489C66.4942 77.7382 66.8846 78.0586 67.1593 78.4697C67.4341 78.8808 67.5807 79.3642 67.5807 79.8586C67.5807 80.5217 67.3173 81.1576 66.8484 81.6264C66.3796 82.0952 65.7437 82.3586 65.0807 82.3586Z" fill="#111111"/>
</g>
<g clip-path="url(#clip7_2091_218)">
<path d="M85 78H85.6667C85.7551 78 85.8399 78.0351 85.9024 78.0976C85.9649 78.1601 86 78.2449 86 78.3333V79C86 79.2652 86.1054 79.5196 86.2929 79.7071C86.4804 79.8946 86.7348 80 87 80C87.2652 80 87.5196 79.8946 87.7071 79.7071C87.8946 79.5196 88 79.2652 88 79V78.3333C88 78.2449 88.0351 78.1601 88.0976 78.0976C88.1601 78.0351 88.2449 78 88.3333 78H89C89.1313 78 89.2614 77.9741 89.3827 77.9239C89.504 77.8736 89.6142 77.8 89.7071 77.7071C89.8 77.6142 89.8736 77.504 89.9239 77.3827C89.9741 77.2614 90 77.1313 90 77C90 76.8687 89.9741 76.7386 89.9239 76.6173C89.8736 76.496 89.8 76.3858 89.7071 76.2929C89.6142 76.2 89.504 76.1264 89.3827 76.0761C89.2614 76.0259 89.1313 76 89 76H88.3333C88.2449 76 88.1601 75.9649 88.0976 75.9024C88.0351 75.8399 88 75.7551 88 75.6667V75C88 74.7348 87.8946 74.4804 87.7071 74.2929C87.5196 74.1054 87.2652 74 87 74C86.7348 74 86.4804 74.1054 86.2929 74.2929C86.1054 74.4804 86 74.7348 86 75V75.6667C86 75.7551 85.9649 75.8399 85.9024 75.9024C85.8399 75.9649 85.7551 76 85.6667 76H85C84.7348 76 84.4804 76.1054 84.2929 76.2929C84.1054 76.4804 84 76.7348 84 77C84 77.2652 84.1054 77.5196 84.2929 77.7071C84.4804 77.8946 84.7348 78 85 78Z" fill="#111111"/>
<path d="M105 90H104.333C104.245 90 104.16 89.9649 104.098 89.9024C104.035 89.8399 104 89.7551 104 89.6667V89C104 88.7348 103.895 88.4804 103.707 88.2929C103.52 88.1054 103.265 88 103 88C102.735 88 102.48 88.1054 102.293 88.2929C102.105 88.4804 102 88.7348 102 89V89.6667C102 89.7551 101.965 89.8399 101.902 89.9024C101.84 89.9649 101.755 90 101.667 90H101C100.735 90 100.48 90.1054 100.293 90.2929C100.105 90.4804 100 90.7348 100 91C100 91.2652 100.105 91.5196 100.293 91.7071C100.48 91.8946 100.735 92 101 92H101.667C101.755 92 101.84 92.0351 101.902 92.0976C101.965 92.1601 102 92.2449 102 92.3333V93C102 93.2652 102.105 93.5196 102.293 93.7071C102.48 93.8946 102.735 94 103 94C103.265 94 103.52 93.8946 103.707 93.7071C103.895 93.5196 104 93.2652 104 93V92.3333C104 92.2449 104.035 92.1601 104.098 92.0976C104.16 92.0351 104.245 92 104.333 92H105C105.265 92 105.52 91.8946 105.707 91.7071C105.895 91.5196 106 91.2652 106 91C106 90.7348 105.895 90.4804 105.707 90.2929C105.52 90.1054 105.265 90 105 90Z" fill="#111111"/>
<path d="M106.697 79.0304C106.701 77.9778 106.469 76.9377 106.016 75.9876C105.563 75.0375 104.901 74.2018 104.081 73.5426C103.26 72.8834 102.301 72.4178 101.276 72.1804C100.25 71.943 99.1845 71.9399 98.1577 72.1713C97.1309 72.4027 96.1695 72.8628 95.3451 73.5171C94.5206 74.1715 93.8544 75.0034 93.3959 75.9509C92.9374 76.8983 92.6985 77.937 92.6969 78.9896C92.6953 80.0421 92.9311 81.0815 93.3868 82.0304C93.4313 82.124 93.4456 82.2292 93.4277 82.3313C93.4097 82.4334 93.3605 82.5274 93.2868 82.6004L84.5368 91.3704C84.1864 91.7464 83.9943 92.2428 84.0001 92.7567C84.006 93.2706 84.2095 93.7625 84.5684 94.1304C84.9273 94.4983 85.414 94.7139 85.9276 94.7325C86.4412 94.7511 86.9422 94.5713 87.3268 94.2304C87.4209 94.1439 87.544 94.096 87.6718 94.096C87.7996 94.096 87.9227 94.1439 88.0168 94.2304L89.5068 95.7204C89.6951 95.9073 89.95 96.0119 90.2153 96.0109C90.4807 96.01 90.7348 95.9037 90.9218 95.7154C91.1088 95.5271 91.2133 95.2722 91.2124 95.0068C91.2114 94.7415 91.1051 94.4873 90.9168 94.3004L89.4268 92.8404C89.3799 92.7939 89.3427 92.7386 89.3174 92.6776C89.292 92.6167 89.2789 92.5514 89.2789 92.4854C89.2789 92.4194 89.292 92.354 89.3174 92.2931C89.3427 92.2321 89.3799 92.1768 89.4268 92.1304L90.0568 91.5004C90.1507 91.4098 90.2763 91.3596 90.4068 91.3604C90.54 91.361 90.6682 91.4109 90.7668 91.5004L92.2468 93.0304C92.4351 93.2173 92.69 93.3219 92.9553 93.3209C93.2207 93.32 93.4748 93.2137 93.6618 93.0254C93.8488 92.8371 93.9533 92.5822 93.9524 92.3168C93.9514 92.0515 93.8451 91.7973 93.6568 91.6104L92.1768 90.0904C92.1299 90.0439 92.0927 89.9886 92.0674 89.9276C92.042 89.8667 92.0289 89.8014 92.0289 89.7354C92.0289 89.6694 92.042 89.604 92.0674 89.5431C92.0927 89.4821 92.1299 89.4268 92.1768 89.3804L96.1168 85.4404C96.1897 85.3666 96.2838 85.3174 96.3859 85.2995C96.488 85.2816 96.5932 85.2959 96.6868 85.3404C97.7531 85.8482 98.9305 86.078 100.109 86.0084C101.288 85.9388 102.431 85.572 103.43 84.9422C104.429 84.3124 105.252 83.4401 105.823 82.4064C106.395 81.3728 106.695 80.2114 106.697 79.0304ZM99.6968 82.0304C99.1035 82.0304 98.5234 81.8544 98.0301 81.5248C97.5368 81.1951 97.1522 80.7266 96.9252 80.1784C96.6981 79.6302 96.6387 79.027 96.7545 78.4451C96.8702 77.8631 97.1559 77.3286 97.5755 76.909C97.995 76.4895 98.5296 76.2038 99.1115 76.088C99.6935 75.9722 100.297 76.0317 100.845 76.2587C101.393 76.4858 101.862 76.8703 102.191 77.3636C102.521 77.857 102.697 78.437 102.697 79.0304C102.697 79.826 102.381 80.5891 101.818 81.1517C101.256 81.7143 100.492 82.0304 99.6968 82.0304Z" fill="#111111"/>
</g>
<g clip-path="url(#clip8_2091_218)">
<path d="M121.333 76H122.222C122.34 76 122.453 76.0468 122.536 76.1302C122.62 76.2135 122.667 76.3266 122.667 76.4444V77.3333C122.667 77.687 122.807 78.0261 123.057 78.2761C123.307 78.5262 123.646 78.6667 124 78.6667C124.354 78.6667 124.693 78.5262 124.943 78.2761C125.193 78.0261 125.333 77.687 125.333 77.3333V76.4444C125.333 76.3266 125.38 76.2135 125.464 76.1302C125.547 76.0468 125.66 76 125.778 76H126.667C126.842 76 127.015 75.9655 127.177 75.8985C127.339 75.8315 127.486 75.7333 127.609 75.6095C127.733 75.4857 127.832 75.3387 127.899 75.1769C127.966 75.0151 128 74.8418 128 74.6667C128 74.4916 127.966 74.3182 127.899 74.1564C127.832 73.9947 127.733 73.8477 127.609 73.7239C127.486 73.6 127.339 73.5018 127.177 73.4348C127.015 73.3678 126.842 73.3333 126.667 73.3333H125.778C125.66 73.3333 125.547 73.2865 125.464 73.2032C125.38 73.1198 125.333 73.0068 125.333 72.8889V72C125.333 71.6464 125.193 71.3072 124.943 71.0572C124.693 70.8071 124.354 70.6667 124 70.6667C123.646 70.6667 123.307 70.8071 123.057 71.0572C122.807 71.3072 122.667 71.6464 122.667 72V72.8889C122.667 73.0068 122.62 73.1198 122.536 73.2032C122.453 73.2865 122.34 73.3333 122.222 73.3333H121.333C120.98 73.3333 120.641 73.4738 120.391 73.7239C120.14 73.9739 120 74.313 120 74.6667C120 75.0203 120.14 75.3594 120.391 75.6095C120.641 75.8595 120.98 76 121.333 76Z" fill="#111111"/>
<path d="M148 92H147.111C146.993 92 146.88 91.9532 146.797 91.8698C146.713 91.7865 146.667 91.6734 146.667 91.5556V90.6667C146.667 90.313 146.526 89.9739 146.276 89.7239C146.026 89.4738 145.687 89.3333 145.333 89.3333C144.98 89.3333 144.641 89.4738 144.391 89.7239C144.14 89.9739 144 90.313 144 90.6667V91.5556C144 91.6734 143.953 91.7865 143.87 91.8698C143.786 91.9532 143.673 92 143.556 92H142.667C142.313 92 141.974 92.1405 141.724 92.3905C141.474 92.6406 141.333 92.9797 141.333 93.3333C141.333 93.687 141.474 94.0261 141.724 94.2761C141.974 94.5262 142.313 94.6667 142.667 94.6667H143.556C143.673 94.6667 143.786 94.7135 143.87 94.7968C143.953 94.8802 144 94.9932 144 95.1111V96C144 96.3536 144.14 96.6928 144.391 96.9428C144.641 97.1929 144.98 97.3333 145.333 97.3333C145.687 97.3333 146.026 97.1929 146.276 96.9428C146.526 96.6928 146.667 96.3536 146.667 96V95.1111C146.667 94.9932 146.713 94.8802 146.797 94.7968C146.88 94.7135 146.993 94.6667 147.111 94.6667H148C148.354 94.6667 148.693 94.5262 148.943 94.2761C149.193 94.0261 149.333 93.687 149.333 93.3333C149.333 92.9797 149.193 92.6406 148.943 92.3905C148.693 92.1405 148.354 92 148 92Z" fill="#111111"/>
<path d="M150.262 77.3738C150.268 75.9704 149.958 74.5837 149.354 73.3168C148.75 72.05 147.868 70.9357 146.774 70.0568C145.68 69.1779 144.402 68.5571 143.034 68.2405C141.667 67.924 140.246 67.9198 138.877 68.2284C137.508 68.537 136.226 69.1504 135.127 70.0229C134.027 70.8954 133.139 72.0045 132.528 73.2678C131.916 74.5311 131.598 75.916 131.596 77.3194C131.594 78.7229 131.908 80.1087 132.516 81.3738C132.575 81.4987 132.594 81.6389 132.57 81.7751C132.546 81.9112 132.481 82.0366 132.382 82.1338L120.716 93.8271C120.249 94.3285 119.992 94.9904 120 95.6756C120.008 96.3608 120.279 97.0167 120.758 97.5072C121.236 97.9977 121.885 98.2852 122.57 98.31C123.255 98.3348 123.923 98.0951 124.436 97.6405C124.561 97.5252 124.725 97.4613 124.896 97.4613C125.066 97.4613 125.23 97.5252 125.356 97.6405L127.342 99.6271C127.593 99.8764 127.933 100.016 128.287 100.015C128.641 100.013 128.98 99.8715 129.229 99.6205C129.478 99.3694 129.618 99.0296 129.616 98.6758C129.615 98.3219 129.473 97.9831 129.222 97.7338L127.236 95.7871C127.173 95.7252 127.124 95.6514 127.09 95.5702C127.056 95.489 127.039 95.4018 127.039 95.3138C127.039 95.2258 127.056 95.1387 127.09 95.0574C127.124 94.9762 127.173 94.9025 127.236 94.8405L128.076 94.0005C128.201 93.8798 128.368 93.8128 128.542 93.8138C128.72 93.8147 128.891 93.8812 129.022 94.0005L130.996 96.0405C131.247 96.2898 131.587 96.4291 131.94 96.4279C132.294 96.4266 132.633 96.2849 132.882 96.0338C133.132 95.7827 133.271 95.4429 133.27 95.0891C133.269 94.7353 133.127 94.3964 132.876 94.1471L130.902 92.1205C130.84 92.0585 130.79 91.9848 130.756 91.9035C130.723 91.8223 130.705 91.7352 130.705 91.6471C130.705 91.5591 130.723 91.472 130.756 91.3908C130.79 91.3095 130.84 91.2358 130.902 91.1738L136.156 85.9205C136.253 85.8222 136.378 85.7566 136.514 85.7327C136.651 85.7088 136.791 85.7278 136.916 85.7871C138.337 86.4643 139.907 86.7707 141.479 86.6779C143.051 86.585 144.574 86.096 145.906 85.2563C147.238 84.4166 148.336 83.2535 149.098 81.8752C149.86 80.497 150.26 78.9485 150.262 77.3738ZM140.929 81.3738C140.138 81.3738 139.365 81.1392 138.707 80.6997C138.049 80.2602 137.536 79.6355 137.234 78.9045C136.931 78.1736 136.852 77.3694 137.006 76.5934C137.16 75.8175 137.541 75.1048 138.101 74.5454C138.66 73.986 139.373 73.605 140.149 73.4507C140.925 73.2963 141.729 73.3755 142.46 73.6783C143.191 73.981 143.815 74.4937 144.255 75.1515C144.694 75.8093 144.929 76.5827 144.929 77.3738C144.929 78.4347 144.508 79.4521 143.758 80.2022C143.007 80.9524 141.99 81.3738 140.929 81.3738Z" fill="#111111"/>
</g>
<g clip-path="url(#clip9_2091_218)">
<path d="M165.667 74H166.778C166.925 74 167.066 74.0585 167.171 74.1627C167.275 74.2669 167.333 74.4082 167.333 74.5556V75.6667C167.333 76.1087 167.509 76.5326 167.821 76.8452C168.134 77.1577 168.558 77.3333 169 77.3333C169.442 77.3333 169.866 77.1577 170.179 76.8452C170.491 76.5326 170.667 76.1087 170.667 75.6667V74.5556C170.667 74.4082 170.725 74.2669 170.829 74.1627C170.934 74.0585 171.075 74 171.222 74H172.333C172.552 74 172.769 73.9569 172.971 73.8731C173.173 73.7894 173.357 73.6666 173.512 73.5118C173.667 73.3571 173.789 73.1733 173.873 72.9711C173.957 72.7689 174 72.5522 174 72.3333C174 72.1145 173.957 71.8977 173.873 71.6955C173.789 71.4933 173.667 71.3096 173.512 71.1548C173.357 71.0001 173.173 70.8773 172.971 70.7935C172.769 70.7098 172.552 70.6667 172.333 70.6667H171.222C171.075 70.6667 170.934 70.6081 170.829 70.5039C170.725 70.3998 170.667 70.2585 170.667 70.1111V69C170.667 68.558 170.491 68.134 170.179 67.8215C169.866 67.5089 169.442 67.3333 169 67.3333C168.558 67.3333 168.134 67.5089 167.821 67.8215C167.509 68.134 167.333 68.558 167.333 69V70.1111C167.333 70.2585 167.275 70.3998 167.171 70.5039C167.066 70.6081 166.925 70.6667 166.778 70.6667H165.667C165.225 70.6667 164.801 70.8423 164.488 71.1548C164.176 71.4674 164 71.8913 164 72.3333C164 72.7754 164.176 73.1993 164.488 73.5118C164.801 73.8244 165.225 74 165.667 74Z" fill="#111111"/>
<path d="M199 94H197.889C197.742 94 197.6 93.9415 197.496 93.8373C197.392 93.7331 197.333 93.5918 197.333 93.4444V92.3333C197.333 91.8913 197.158 91.4674 196.845 91.1548C196.533 90.8423 196.109 90.6667 195.667 90.6667C195.225 90.6667 194.801 90.8423 194.488 91.1548C194.176 91.4674 194 91.8913 194 92.3333V93.4444C194 93.5918 193.941 93.7331 193.837 93.8373C193.733 93.9415 193.592 94 193.444 94H192.333C191.891 94 191.467 94.1756 191.155 94.4882C190.842 94.8007 190.667 95.2246 190.667 95.6667C190.667 96.1087 190.842 96.5326 191.155 96.8452C191.467 97.1577 191.891 97.3333 192.333 97.3333H193.444C193.592 97.3333 193.733 97.3919 193.837 97.4961C193.941 97.6002 194 97.7416 194 97.8889V99C194 99.442 194.176 99.866 194.488 100.179C194.801 100.491 195.225 100.667 195.667 100.667C196.109 100.667 196.533 100.491 196.845 100.179C197.158 99.866 197.333 99.442 197.333 99V97.8889C197.333 97.7416 197.392 97.6002 197.496 97.4961C197.6 97.3919 197.742 97.3333 197.889 97.3333H199C199.442 97.3333 199.866 97.1577 200.179 96.8452C200.491 96.5326 200.667 96.1087 200.667 95.6667C200.667 95.2246 200.491 94.8007 200.179 94.4882C199.866 94.1756 199.442 94 199 94Z" fill="#111111"/>
<path d="M201.828 75.7173C201.836 73.963 201.448 72.2296 200.693 70.646C199.938 69.0625 198.835 67.6696 197.468 66.571C196.1 65.4724 194.502 64.6963 192.793 64.3007C191.084 63.905 189.308 63.8998 187.596 64.2855C185.885 64.6712 184.283 65.438 182.908 66.5286C181.534 67.6192 180.424 69.0057 179.66 70.5848C178.896 72.1639 178.497 73.895 178.495 75.6493C178.492 77.4036 178.885 79.1359 179.645 80.7173C179.719 80.8734 179.743 81.0486 179.713 81.2188C179.683 81.389 179.601 81.5457 179.478 81.6673L164.895 96.2839C164.311 96.9106 163.99 97.738 164 98.5945C164.01 99.451 164.349 100.271 164.947 100.884C165.545 101.497 166.357 101.857 167.213 101.888C168.069 101.919 168.904 101.619 169.545 101.051C169.702 100.907 169.907 100.827 170.12 100.827C170.333 100.827 170.538 100.907 170.695 101.051L173.178 103.534C173.492 103.846 173.917 104.02 174.359 104.018C174.801 104.017 175.225 103.839 175.536 103.526C175.848 103.212 176.022 102.787 176.021 102.345C176.019 101.902 175.842 101.479 175.528 101.167L173.045 98.7339C172.967 98.6565 172.905 98.5643 172.862 98.4627C172.82 98.3612 172.798 98.2523 172.798 98.1423C172.798 98.0323 172.82 97.9233 172.862 97.8218C172.905 97.7202 172.967 97.6281 173.045 97.5506L174.095 96.5006C174.251 96.3497 174.461 96.266 174.678 96.2673C174.9 96.2684 175.114 96.3515 175.278 96.5006L177.745 99.0506C178.059 99.3622 178.483 99.5364 178.926 99.5349C179.368 99.5333 179.791 99.3561 180.103 99.0423C180.415 98.7284 180.589 98.3036 180.587 97.8614C180.586 97.4191 180.409 96.9956 180.095 96.6839L177.628 94.1506C177.55 94.0731 177.488 93.981 177.446 93.8794C177.403 93.7779 177.382 93.6689 177.382 93.5589C177.382 93.4489 177.403 93.34 177.446 93.2385C177.488 93.1369 177.55 93.0447 177.628 92.9673L184.195 86.4006C184.316 86.2777 184.473 86.1957 184.643 86.1659C184.813 86.136 184.989 86.1598 185.145 86.2339C186.922 87.0803 188.884 87.4633 190.849 87.3473C192.814 87.2313 194.718 86.62 196.383 85.5704C198.048 84.5207 199.42 83.0668 200.372 81.3441C201.325 79.6213 201.825 77.6856 201.828 75.7173ZM190.161 80.7173C189.172 80.7173 188.206 80.424 187.383 79.8746C186.561 79.3252 185.92 78.5443 185.542 77.6307C185.164 76.7171 185.064 75.7117 185.257 74.7418C185.45 73.7719 185.927 72.881 186.626 72.1817C187.325 71.4825 188.216 71.0063 189.186 70.8133C190.156 70.6204 191.161 70.7194 192.075 71.0979C192.988 71.4763 193.769 72.1172 194.319 72.9394C194.868 73.7617 195.161 74.7284 195.161 75.7173C195.161 77.0433 194.635 78.3151 193.697 79.2528C192.759 80.1905 191.487 80.7173 190.161 80.7173Z" fill="#111111"/>
</g>
<g clip-path="url(#clip10_2091_218)">
<path d="M218 72H219.333C219.51 72 219.68 72.0702 219.805 72.1953C219.93 72.3203 220 72.4899 220 72.6667V74C220 74.5304 220.211 75.0391 220.586 75.4142C220.961 75.7893 221.47 76 222 76C222.53 76 223.039 75.7893 223.414 75.4142C223.789 75.0391 224 74.5304 224 74V72.6667C224 72.4899 224.07 72.3203 224.195 72.1953C224.32 72.0702 224.49 72 224.667 72H226C226.263 72 226.523 71.9483 226.765 71.8478C227.008 71.7472 227.228 71.5999 227.414 71.4142C227.6 71.2285 227.747 71.008 227.848 70.7654C227.948 70.5227 228 70.2626 228 70C228 69.7374 227.948 69.4773 227.848 69.2346C227.747 68.992 227.6 68.7715 227.414 68.5858C227.228 68.4001 227.008 68.2528 226.765 68.1522C226.523 68.0517 226.263 68 226 68H224.667C224.49 68 224.32 67.9298 224.195 67.8047C224.07 67.6797 224 67.5101 224 67.3333V66C224 65.4696 223.789 64.9609 223.414 64.5858C223.039 64.2107 222.53 64 222 64C221.47 64 220.961 64.2107 220.586 64.5858C220.211 64.9609 220 65.4696 220 66V67.3333C220 67.5101 219.93 67.6797 219.805 67.8047C219.68 67.9298 219.51 68 219.333 68H218C217.47 68 216.961 68.2107 216.586 68.5858C216.211 68.9609 216 69.4696 216 70C216 70.5304 216.211 71.0391 216.586 71.4142C216.961 71.7893 217.47 72 218 72Z" fill="#111111"/>
<path d="M258 96H256.667C256.49 96 256.32 95.9298 256.195 95.8047C256.07 95.6797 256 95.5101 256 95.3333V94C256 93.4696 255.789 92.9609 255.414 92.5858C255.039 92.2107 254.53 92 254 92C253.47 92 252.961 92.2107 252.586 92.5858C252.211 92.9609 252 93.4696 252 94V95.3333C252 95.5101 251.93 95.6797 251.805 95.8047C251.68 95.9298 251.51 96 251.333 96H250C249.47 96 248.961 96.2107 248.586 96.5858C248.211 96.9609 248 97.4696 248 98C248 98.5304 248.211 99.0391 248.586 99.4142C248.961 99.7893 249.47 100 250 100H251.333C251.51 100 251.68 100.07 251.805 100.195C251.93 100.32 252 100.49 252 100.667V102C252 102.53 252.211 103.039 252.586 103.414C252.961 103.789 253.47 104 254 104C254.53 104 255.039 103.789 255.414 103.414C255.789 103.039 256 102.53 256 102V100.667C256 100.49 256.07 100.32 256.195 100.195C256.32 100.07 256.49 100 256.667 100H258C258.53 100 259.039 99.7893 259.414 99.4142C259.789 99.0391 260 98.5304 260 98C260 97.4696 259.789 96.9609 259.414 96.5858C259.039 96.2107 258.53 96 258 96Z" fill="#111111"/>
<path d="M261.394 74.0607C261.403 71.9556 260.937 69.8755 260.031 67.9752C259.125 66.075 257.802 64.4035 256.161 63.0852C254.52 61.7669 252.602 60.8356 250.552 60.3608C248.501 59.886 246.369 59.8797 244.315 60.3426C242.262 60.8055 240.339 61.7255 238.69 63.0343C237.041 64.343 235.709 66.0068 234.792 67.9017C233.875 69.7967 233.397 71.874 233.394 73.9792C233.391 76.0843 233.862 78.1631 234.774 80.0607C234.863 80.248 234.891 80.4583 234.855 80.6626C234.819 80.8668 234.721 81.0549 234.574 81.2007L217.074 98.7407C216.373 99.4927 215.989 100.486 216 101.513C216.012 102.541 216.419 103.525 217.137 104.261C217.855 104.997 218.828 105.428 219.855 105.465C220.882 105.502 221.884 105.143 222.654 104.461C222.842 104.288 223.088 104.192 223.344 104.192C223.599 104.192 223.845 104.288 224.034 104.461L227.014 107.441C227.39 107.815 227.9 108.024 228.431 108.022C228.961 108.02 229.47 107.807 229.844 107.431C230.218 107.054 230.427 106.544 230.425 106.014C230.423 105.483 230.21 104.975 229.834 104.601L226.854 101.681C226.76 101.588 226.685 101.477 226.635 101.355C226.584 101.233 226.558 101.103 226.558 100.971C226.558 100.839 226.584 100.708 226.635 100.586C226.685 100.464 226.76 100.354 226.854 100.261L228.114 99.0007C228.301 98.8196 228.553 98.7191 228.814 98.7207C229.08 98.7221 229.336 98.8218 229.534 99.0007L232.494 102.061C232.87 102.435 233.38 102.644 233.911 102.642C234.441 102.64 234.95 102.427 235.324 102.051C235.698 101.674 235.907 101.164 235.905 100.634C235.903 100.103 235.69 99.5947 235.314 99.2207L232.354 96.1807C232.26 96.0877 232.185 95.9771 232.135 95.8553C232.084 95.7334 232.058 95.6027 232.058 95.4707C232.058 95.3387 232.084 95.208 232.135 95.0861C232.185 94.9643 232.26 94.8537 232.354 94.7607L240.234 86.8807C240.379 86.7333 240.568 86.6349 240.772 86.599C240.976 86.5632 241.186 86.5917 241.374 86.6807C243.506 87.6964 245.861 88.156 248.219 88.0168C250.577 87.8775 252.861 87.144 254.859 85.8844C256.857 84.6248 258.504 82.8802 259.647 80.8129C260.789 78.7455 261.39 76.4227 261.394 74.0607ZM247.394 80.0607C246.207 80.0607 245.047 79.7088 244.06 79.0495C243.074 78.3902 242.304 77.4532 241.85 76.3568C241.396 75.2605 241.277 74.0541 241.509 72.8902C241.74 71.7263 242.312 70.6572 243.151 69.8181C243.99 68.979 245.059 68.4075 246.223 68.176C247.387 67.9445 248.593 68.0633 249.69 68.5174C250.786 68.9716 251.723 69.7406 252.382 70.7273C253.042 71.714 253.394 72.874 253.394 74.0607C253.394 75.652 252.761 77.1781 251.636 78.3034C250.511 79.4286 248.985 80.0607 247.394 80.0607Z" fill="#111111"/>
</g>
</g>
<defs>
<clipPath id="clip0_2091_218">
<rect width="264" height="108" rx="5" fill="white"/>
</clipPath>
<clipPath id="clip1_2091_218">
<rect width="12" height="12" fill="white" transform="translate(0 18)"/>
</clipPath>
<clipPath id="clip2_2091_218">
<rect width="16" height="16" fill="white" transform="translate(24 16)"/>
</clipPath>
<clipPath id="clip3_2091_218">
<rect width="20" height="20" fill="white" transform="translate(52 14)"/>
</clipPath>
<clipPath id="clip4_2091_218">
<rect width="12" height="12" fill="white" transform="translate(0 78)"/>
</clipPath>
<clipPath id="clip5_2091_218">
<rect width="16" height="16" fill="white" transform="translate(24 76)"/>
</clipPath>
<clipPath id="clip6_2091_218">
<rect width="20" height="20" fill="white" transform="translate(52 74)"/>
</clipPath>
<clipPath id="clip7_2091_218">
<rect width="24" height="24" fill="white" transform="translate(84 72)"/>
</clipPath>
<clipPath id="clip8_2091_218">
<rect width="32" height="32" fill="white" transform="translate(120 68)"/>
</clipPath>
<clipPath id="clip9_2091_218">
<rect width="40" height="40" fill="white" transform="translate(164 64)"/>
</clipPath>
<clipPath id="clip10_2091_218">
<rect width="48" height="48" fill="white" transform="translate(216 60)"/>
</clipPath>
</defs>
</svg>
