<svg width="264" height="108" viewBox="0 0 264 108" fill="none" xmlns="http://www.w3.org/2000/svg">
<g clip-path="url(#clip0_3442_409)">
<path d="M7.5 21.75H5.3945C5.15184 21.7306 4.91289 21.8186 4.74076 21.9908C4.56863 22.1629 4.48063 22.4018 4.5 22.6445C4.5 23.625 7.5 24.375 7.5 25.3555C7.50439 25.5941 7.41155 25.8241 7.24284 25.9928C7.07413 26.1616 6.84405 26.2544 6.6055 26.25H4.5M6 21.75V20.625M6 27.375V26.25M6 29.25C8.89949 29.25 11.25 26.8995 11.25 24C11.25 21.1005 8.89949 18.75 6 18.75C3.10051 18.75 0.75 21.1005 0.75 24C0.75 26.8995 3.10051 29.25 6 29.25Z" stroke="#111111" stroke-width="0.75" stroke-linecap="round" stroke-linejoin="round"/>
<path d="M34 21H31.1927C30.8691 20.9742 30.5505 21.0915 30.321 21.321C30.0915 21.5505 29.9742 21.8691 30 22.1927C30 23.5 34 24.5 34 25.8073C34.0058 26.1254 33.8821 26.4322 33.6571 26.6571C33.4322 26.8821 33.1254 27.0058 32.8073 27H30M32 21V19.5M32 28.5V27M32 31C35.866 31 39 27.866 39 24C39 20.134 35.866 17 32 17C28.134 17 25 20.134 25 24C25 27.866 28.134 31 32 31Z" stroke="#111111" stroke-linecap="round" stroke-linejoin="round"/>
<path d="M64.5 20.25H60.9908C60.5864 20.2177 60.1882 20.3644 59.9013 20.6513C59.6144 20.9382 59.4677 21.3364 59.5 21.7408C59.5 23.375 64.5 24.625 64.5 26.2592C64.5073 26.6568 64.3526 27.0402 64.0714 27.3214C63.7902 27.6026 63.4068 27.7573 63.0092 27.75H59.5M62 20.25V18.375M62 29.625V27.75M62 32.75C66.8325 32.75 70.75 28.8325 70.75 24C70.75 19.1675 66.8325 15.25 62 15.25C57.1675 15.25 53.25 19.1675 53.25 24C53.25 28.8325 57.1675 32.75 62 32.75Z" stroke="#111111" stroke-width="1.25" stroke-linecap="round" stroke-linejoin="round"/>
<path d="M99 19.5H94.789C94.3037 19.4613 93.8258 19.6373 93.4815 19.9815C93.1373 20.3258 92.9613 20.8037 93 21.289C93 23.25 99 24.75 99 26.711C99.0088 27.1881 98.8231 27.6483 98.4857 27.9857C98.1483 28.3231 97.6881 28.5088 97.211 28.5H93M96 19.5V17.25M96 30.75V28.5M96 34.5C101.799 34.5 106.5 29.799 106.5 24C106.5 18.201 101.799 13.5 96 13.5C90.201 13.5 85.5 18.201 85.5 24C85.5 29.799 90.201 34.5 96 34.5Z" stroke="#111111" stroke-width="1.5" stroke-linecap="round" stroke-linejoin="round"/>
<path d="M140 18H134.385C133.738 17.9483 133.101 18.183 132.642 18.642C132.183 19.101 131.948 19.7382 132 20.3853C132 23 140 25 140 27.6147C140.012 28.2508 139.764 28.8643 139.314 29.3142C138.864 29.7641 138.251 30.0117 137.615 30H132M136 18V15M136 33V30M136 38C143.732 38 150 31.732 150 24C150 16.268 143.732 10 136 10C128.268 10 122 16.268 122 24C122 31.732 128.268 38 136 38Z" stroke="#111111" stroke-width="2" stroke-linecap="round" stroke-linejoin="round"/>
<path d="M189 16.5H181.982C181.173 16.4354 180.376 16.7288 179.803 17.3025C179.229 17.8763 178.935 18.6728 179 19.4817C179 22.75 189 25.25 189 28.5183C189.015 29.3135 188.705 30.0804 188.143 30.6428C187.58 31.2052 186.814 31.5146 186.018 31.5H179M184 16.5V12.75M184 35.25V31.5M184 41.5C193.665 41.5 201.5 33.665 201.5 24C201.5 14.335 193.665 6.5 184 6.5C174.335 6.5 166.5 14.335 166.5 24C166.5 33.665 174.335 41.5 184 41.5Z" stroke="#111111" stroke-width="2.5" stroke-linecap="round" stroke-linejoin="round"/>
<path d="M246 15H237.578C236.607 14.9225 235.652 15.2745 234.963 15.963C234.275 16.6516 233.923 17.6074 234 18.578C234 22.5 246 25.5 246 29.422C246.018 30.3762 245.646 31.2965 244.971 31.9714C244.297 32.6462 243.376 33.0175 242.422 33H234M240 15V10.5M240 37.5V33M240 45C251.598 45 261 35.598 261 24C261 12.402 251.598 3 240 3C228.402 3 219 12.402 219 24C219 35.598 228.402 45 240 45Z" stroke="#111111" stroke-width="3" stroke-linecap="round" stroke-linejoin="round"/>
<path d="M6 78.75C4.96165 78.75 3.94662 79.0579 3.08326 79.6348C2.2199 80.2117 1.54699 81.0316 1.14963 81.9909C0.752275 82.9502 0.648307 84.0058 0.85088 85.0242C1.05345 86.0426 1.55347 86.9781 2.28769 87.7123C3.02192 88.4465 3.95738 88.9465 4.97578 89.1491C5.99418 89.3517 7.04978 89.2477 8.00909 88.8504C8.9684 88.453 9.78834 87.7801 10.3652 86.9167C10.9421 86.0534 11.25 85.0384 11.25 84C11.25 82.6076 10.6969 81.2723 9.71231 80.2877C8.72775 79.3031 7.39239 78.75 6 78.75V78.75ZM6.63875 86.8831C6.61361 86.8872 6.59067 86.8999 6.5739 86.9191C6.55713 86.9382 6.54757 86.9627 6.54688 86.9881V87.325C6.54688 87.47 6.48926 87.6091 6.3867 87.7117C6.28414 87.8143 6.14504 87.8719 6 87.8719C5.85496 87.8719 5.71586 87.8143 5.6133 87.7117C5.51074 87.6091 5.45313 87.47 5.45313 87.325V87.0144C5.45313 86.9854 5.4416 86.9575 5.42109 86.937C5.40058 86.9165 5.37276 86.905 5.34375 86.905H4.84063C4.69559 86.905 4.55649 86.8474 4.45393 86.7448C4.35137 86.6423 4.29375 86.5032 4.29375 86.3581C4.29375 86.2131 4.35137 86.074 4.45393 85.9714C4.55649 85.8689 4.69559 85.8112 4.84063 85.8112H6.41125C6.52168 85.8072 6.6275 85.766 6.71154 85.6942C6.79557 85.6224 6.85288 85.5244 6.87416 85.4159C6.89545 85.3075 6.87945 85.1951 6.82877 85.0969C6.7781 84.9987 6.69571 84.9205 6.595 84.875L5.0025 84.2319C4.67766 84.105 4.4041 83.874 4.22471 83.5749C4.04533 83.2759 3.97028 82.9257 4.01131 82.5794C4.05235 82.2331 4.20716 81.9102 4.45146 81.6614C4.69577 81.4125 5.01576 81.2518 5.36125 81.2044C5.38713 81.2002 5.41065 81.1868 5.42751 81.1668C5.44437 81.1467 5.45346 81.1212 5.45313 81.095V80.7625C5.45313 80.6175 5.51074 80.4784 5.6133 80.3758C5.71586 80.2732 5.85496 80.2156 6 80.2156C6.14504 80.2156 6.28414 80.2732 6.3867 80.3758C6.48926 80.4784 6.54688 80.6175 6.54688 80.7625V81.0687C6.54688 81.0978 6.5584 81.1256 6.57891 81.1461C6.59942 81.1666 6.62724 81.1781 6.65625 81.1781H7.15938C7.30442 81.1781 7.44352 81.2357 7.54607 81.3383C7.64863 81.4409 7.70625 81.58 7.70625 81.725C7.70625 81.87 7.64863 82.0091 7.54607 82.1117C7.44352 82.2143 7.30442 82.2719 7.15938 82.2719H5.58875C5.4747 82.2714 5.36407 82.3108 5.27592 82.3832C5.18778 82.4555 5.12764 82.5564 5.10587 82.6683C5.0841 82.7803 5.10206 82.8963 5.15667 82.9965C5.21127 83.0966 5.2991 83.1745 5.405 83.2169L6.9975 83.8556C7.32234 83.9825 7.59591 84.2135 7.77529 84.5126C7.95467 84.8116 8.02973 85.1618 7.98869 85.5081C7.94765 85.8544 7.79284 86.1773 7.54854 86.4261C7.30423 86.675 6.98424 86.8357 6.63875 86.8831Z" fill="#111111"/>
<path d="M32 77C30.6155 77 29.2622 77.4105 28.111 78.1797C26.9599 78.9489 26.0627 80.0421 25.5328 81.3212C25.003 82.6003 24.8644 84.0078 25.1345 85.3656C25.4046 86.7235 26.0713 87.9708 27.0503 88.9497C28.0292 89.9287 29.2765 90.5954 30.6344 90.8655C31.9922 91.1356 33.3997 90.997 34.6788 90.4672C35.9579 89.9373 37.0511 89.0401 37.8203 87.889C38.5895 86.7378 39 85.3845 39 84C39 82.1435 38.2625 80.363 36.9497 79.0503C35.637 77.7375 33.8565 77 32 77V77ZM32.8517 87.8442C32.8181 87.8496 32.7876 87.8665 32.7652 87.8921C32.7428 87.9177 32.7301 87.9502 32.7292 87.9842V88.4333C32.7292 88.6267 32.6523 88.8122 32.5156 88.9489C32.3789 89.0857 32.1934 89.1625 32 89.1625C31.8066 89.1625 31.6211 89.0857 31.4844 88.9489C31.3477 88.8122 31.2708 88.6267 31.2708 88.4333V88.0192C31.2708 87.9805 31.2555 87.9434 31.2281 87.916C31.2008 87.8887 31.1637 87.8733 31.125 87.8733H30.4542C30.2608 87.8733 30.0753 87.7965 29.9386 87.6598C29.8018 87.523 29.725 87.3376 29.725 87.1442C29.725 86.9508 29.8018 86.7653 29.9386 86.6286C30.0753 86.4918 30.2608 86.415 30.4542 86.415H32.5483C32.6956 86.4096 32.8367 86.3546 32.9487 86.2589C33.0608 86.1633 33.1372 86.0325 33.1656 85.8879C33.1939 85.7433 33.1726 85.5934 33.105 85.4625C33.0375 85.3316 32.9276 85.2273 32.7933 85.1667L30.67 84.3092C30.2369 84.14 29.8721 83.832 29.633 83.4332C29.3938 83.0345 29.2937 82.5676 29.3484 82.1059C29.4031 81.6441 29.6095 81.2136 29.9353 80.8818C30.261 80.55 30.6877 80.3357 31.1483 80.2725C31.1828 80.2669 31.2142 80.2491 31.2367 80.2223C31.2592 80.1956 31.2713 80.1616 31.2708 80.1267V79.6833C31.2708 79.4899 31.3477 79.3045 31.4844 79.1677C31.6211 79.031 31.8066 78.9542 32 78.9542C32.1934 78.9542 32.3789 79.031 32.5156 79.1677C32.6523 79.3045 32.7292 79.4899 32.7292 79.6833V80.0917C32.7292 80.1303 32.7445 80.1674 32.7719 80.1948C32.7992 80.2221 32.8363 80.2375 32.875 80.2375H33.5458C33.7392 80.2375 33.9247 80.3143 34.0614 80.4511C34.1982 80.5878 34.275 80.7733 34.275 80.9667C34.275 81.1601 34.1982 81.3455 34.0614 81.4823C33.9247 81.619 33.7392 81.6958 33.5458 81.6958H31.4517C31.2996 81.6952 31.1521 81.7477 31.0346 81.8442C30.917 81.9407 30.8368 82.0752 30.8078 82.2245C30.7788 82.3737 30.8028 82.5285 30.8756 82.662C30.9484 82.7955 31.0655 82.8994 31.2067 82.9558L33.33 83.8075C33.7631 83.9766 34.1279 84.2847 34.3671 84.6834C34.6062 85.0822 34.7063 85.549 34.6516 86.0108C34.5969 86.4725 34.3905 86.903 34.0647 87.2348C33.739 87.5666 33.3123 87.781 32.8517 87.8442Z" fill="#111111"/>
<path d="M62 75.25C60.2694 75.25 58.5777 75.7632 57.1388 76.7246C55.6998 77.6861 54.5783 79.0527 53.9161 80.6515C53.2538 82.2504 53.0805 84.0097 53.4181 85.707C53.7558 87.4044 54.5891 88.9635 55.8128 90.1872C57.0365 91.4109 58.5956 92.2442 60.293 92.5819C61.9903 92.9195 63.7496 92.7462 65.3485 92.0839C66.9473 91.4217 68.3139 90.3002 69.2754 88.8612C70.2368 87.4223 70.75 85.7306 70.75 84C70.75 81.6794 69.8281 79.4538 68.1872 77.8128C66.5462 76.1719 64.3206 75.25 62 75.25V75.25ZM63.0646 88.8052C63.0227 88.812 62.9845 88.8332 62.9565 88.8651C62.9285 88.8971 62.9126 88.9378 62.9115 88.9802V89.5417C62.9115 89.7834 62.8154 90.0152 62.6445 90.1862C62.4736 90.3571 62.2417 90.4531 62 90.4531C61.7583 90.4531 61.5264 90.3571 61.3555 90.1862C61.1846 90.0152 61.0885 89.7834 61.0885 89.5417V89.024C61.0885 88.9756 61.0693 88.9292 61.0352 88.8951C61.001 88.8609 60.9546 88.8417 60.9063 88.8417H60.0677C59.826 88.8417 59.5941 88.7456 59.4232 88.5747C59.2523 88.4038 59.1563 88.1719 59.1563 87.9302C59.1563 87.6885 59.2523 87.4566 59.4232 87.2857C59.5941 87.1148 59.826 87.0187 60.0677 87.0187H62.6854C62.8695 87.012 63.0458 86.9433 63.1859 86.8237C63.326 86.7041 63.4215 86.5406 63.4569 86.3599C63.4924 86.1792 63.4657 85.9918 63.3813 85.8281C63.2968 85.6644 63.1595 85.5341 62.9917 85.4583L60.3375 84.3865C59.7961 84.1751 59.3402 83.7899 59.0412 83.2915C58.7422 82.7931 58.6171 82.2095 58.6855 81.6324C58.7539 81.0552 59.0119 80.517 59.4191 80.1023C59.8263 79.6875 60.3596 79.4196 60.9354 79.3406C60.9786 79.3336 61.0177 79.3114 61.0458 79.2779C61.074 79.2445 61.0891 79.202 61.0885 79.1583V78.6042C61.0885 78.3624 61.1846 78.1306 61.3555 77.9597C61.5264 77.7887 61.7583 77.6927 62 77.6927C62.2417 77.6927 62.4736 77.7887 62.6445 77.9597C62.8154 78.1306 62.9115 78.3624 62.9115 78.6042V79.1146C62.9115 79.1629 62.9307 79.2093 62.9649 79.2435C62.999 79.2777 63.0454 79.2969 63.0938 79.2969H63.9323C64.174 79.2969 64.4059 79.3929 64.5768 79.5638C64.7477 79.7348 64.8438 79.9666 64.8438 80.2083C64.8438 80.4501 64.7477 80.6819 64.5768 80.8528C64.4059 81.0238 64.174 81.1198 63.9323 81.1198H61.3146C61.1245 81.1191 60.9401 81.1847 60.7932 81.3053C60.6463 81.4259 60.5461 81.594 60.5098 81.7806C60.4735 81.9672 60.5034 82.1606 60.5944 82.3275C60.6855 82.4943 60.8318 82.6242 61.0083 82.6948L63.6625 83.7594C64.2039 83.9708 64.6598 84.3559 64.9588 84.8543C65.2578 85.3527 65.3829 85.9363 65.3145 86.5135C65.2461 87.0906 64.9881 87.6288 64.5809 88.0436C64.1737 88.4583 63.6404 88.7262 63.0646 88.8052Z" fill="#111111"/>
<path d="M96 73.5C93.9233 73.5 91.8932 74.1158 90.1665 75.2696C88.4398 76.4233 87.094 78.0632 86.2993 79.9818C85.5045 81.9004 85.2966 84.0116 85.7018 86.0484C86.1069 88.0852 87.1069 89.9562 88.5754 91.4246C90.0438 92.8931 91.9148 93.8931 93.9516 94.2982C95.9884 94.7034 98.0996 94.4955 100.018 93.7007C101.937 92.906 103.577 91.5602 104.73 89.8335C105.884 88.1068 106.5 86.0767 106.5 84C106.5 81.2152 105.394 78.5445 103.425 76.5754C101.455 74.6062 98.7848 73.5 96 73.5V73.5ZM97.2775 89.7662C97.2272 89.7744 97.1813 89.7998 97.1478 89.8381C97.1143 89.8765 97.0951 89.9253 97.0938 89.9762V90.65C97.0938 90.9401 96.9785 91.2183 96.7734 91.4234C96.5683 91.6285 96.2901 91.7437 96 91.7437C95.7099 91.7437 95.4317 91.6285 95.2266 91.4234C95.0215 91.2183 94.9063 90.9401 94.9063 90.65V90.0287C94.9063 89.9707 94.8832 89.9151 94.8422 89.8741C94.8012 89.833 94.7455 89.81 94.6875 89.81H93.6813C93.3912 89.81 93.113 89.6948 92.9079 89.4896C92.7027 89.2845 92.5875 89.0063 92.5875 88.7162C92.5875 88.4262 92.7027 88.148 92.9079 87.9429C93.113 87.7377 93.3912 87.6225 93.6813 87.6225H96.8225C97.0434 87.6144 97.255 87.5319 97.4231 87.3884C97.5911 87.2449 97.7058 87.0488 97.7483 86.8319C97.7909 86.615 97.7589 86.3901 97.6575 86.1937C97.5562 85.9973 97.3914 85.841 97.19 85.75L94.005 84.4637C93.3553 84.2101 92.8082 83.7479 92.4494 83.1498C92.0907 82.5517 91.9406 81.8514 92.0226 81.1588C92.1047 80.4662 92.4143 79.8204 92.9029 79.3227C93.3915 78.825 94.0315 78.5036 94.7225 78.4087C94.7743 78.4004 94.8213 78.3737 94.855 78.3335C94.8887 78.2934 94.9069 78.2424 94.9063 78.19V77.525C94.9063 77.2349 95.0215 76.9567 95.2266 76.7516C95.4317 76.5465 95.7099 76.4312 96 76.4312C96.2901 76.4312 96.5683 76.5465 96.7734 76.7516C96.9785 76.9567 97.0938 77.2349 97.0938 77.525V78.1375C97.0938 78.1955 97.1168 78.2512 97.1578 78.2922C97.1988 78.3332 97.2545 78.3562 97.3125 78.3562H98.3188C98.6088 78.3562 98.887 78.4715 99.0921 78.6766C99.2973 78.8817 99.4125 79.1599 99.4125 79.45C99.4125 79.7401 99.2973 80.0183 99.0921 80.2234C98.887 80.4285 98.6088 80.5437 98.3188 80.5437H95.1775C94.9494 80.5429 94.7281 80.6216 94.5518 80.7663C94.3756 80.9111 94.2553 81.1128 94.2117 81.3367C94.1682 81.5606 94.2041 81.7927 94.3133 81.9929C94.4225 82.1932 94.5982 82.3491 94.81 82.4337L97.995 83.7112C98.6447 83.9649 99.1918 84.4271 99.5506 85.0252C99.9093 85.6233 100.059 86.3236 99.9774 87.0162C99.8953 87.7088 99.5857 88.3546 99.0971 88.8523C98.6085 89.35 97.9685 89.6714 97.2775 89.7662Z" fill="#111111"/>
<path d="M136 70C133.231 70 130.524 70.8211 128.222 72.3594C125.92 73.8978 124.125 76.0843 123.066 78.6424C122.006 81.2006 121.729 84.0155 122.269 86.7313C122.809 89.447 124.143 91.9416 126.101 93.8995C128.058 95.8574 130.553 97.1908 133.269 97.731C135.984 98.2712 138.799 97.9939 141.358 96.9343C143.916 95.8747 146.102 94.0803 147.641 91.778C149.179 89.4757 150 86.7689 150 84C150 80.287 148.525 76.726 145.899 74.1005C143.274 71.475 139.713 70 136 70V70ZM137.703 91.6883C137.636 91.6992 137.575 91.7331 137.53 91.7842C137.486 91.8353 137.46 91.9004 137.458 91.9683V92.8667C137.458 93.2534 137.305 93.6244 137.031 93.8979C136.758 94.1714 136.387 94.325 136 94.325C135.613 94.325 135.242 94.1714 134.969 93.8979C134.695 93.6244 134.542 93.2534 134.542 92.8667V92.0383C134.542 91.961 134.511 91.8868 134.456 91.8321C134.402 91.7774 134.327 91.7467 134.25 91.7467H132.908C132.522 91.7467 132.151 91.593 131.877 91.3195C131.604 91.046 131.45 90.6751 131.45 90.2883C131.45 89.9016 131.604 89.5306 131.877 89.2571C132.151 88.9836 132.522 88.83 132.908 88.83H137.097C137.391 88.8192 137.673 88.7092 137.897 88.5179C138.122 88.3265 138.274 88.065 138.331 87.7759C138.388 87.4867 138.345 87.1868 138.21 86.925C138.075 86.6631 137.855 86.4546 137.587 86.3333L133.34 84.6183C132.474 84.2801 131.744 83.6639 131.266 82.8664C130.788 82.0689 130.587 81.1353 130.697 80.2118C130.806 79.2883 131.219 78.4272 131.871 77.7636C132.522 77.1 133.375 76.6714 134.297 76.545C134.366 76.5338 134.428 76.4982 134.473 76.4447C134.518 76.3911 134.543 76.3232 134.542 76.2533V75.3667C134.542 74.9799 134.695 74.609 134.969 74.3355C135.242 74.062 135.613 73.9083 136 73.9083C136.387 73.9083 136.758 74.062 137.031 74.3355C137.305 74.609 137.458 74.9799 137.458 75.3667V76.1833C137.458 76.2607 137.489 76.3349 137.544 76.3896C137.598 76.4443 137.673 76.475 137.75 76.475H139.092C139.478 76.475 139.849 76.6286 140.123 76.9021C140.396 77.1756 140.55 77.5466 140.55 77.9333C140.55 78.3201 140.396 78.691 140.123 78.9645C139.849 79.238 139.478 79.3917 139.092 79.3917H134.903C134.599 79.3905 134.304 79.4954 134.069 79.6884C133.834 79.8814 133.674 80.1504 133.616 80.4489C133.558 80.7475 133.606 81.0569 133.751 81.3239C133.897 81.5909 134.131 81.7988 134.413 81.9117L138.66 83.615C139.526 83.9532 140.256 84.5694 140.734 85.3669C141.212 86.1644 141.413 87.0981 141.303 88.0216C141.194 88.945 140.781 89.8061 140.129 90.4697C139.478 91.1333 138.625 91.5619 137.703 91.6883Z" fill="#111111"/>
<path d="M184 66.5C180.539 66.5 177.155 67.5264 174.278 69.4493C171.4 71.3722 169.157 74.1053 167.832 77.303C166.508 80.5007 166.161 84.0194 166.836 87.4141C167.512 90.8087 169.178 93.9269 171.626 96.3744C174.073 98.8218 177.191 100.488 180.586 101.164C183.981 101.839 187.499 101.492 190.697 100.168C193.895 98.8434 196.628 96.6003 198.551 93.7225C200.474 90.8446 201.5 87.4612 201.5 84C201.5 79.3587 199.656 74.9075 196.374 71.6256C193.092 68.3437 188.641 66.5 184 66.5V66.5ZM186.129 93.6104C186.045 93.624 185.969 93.6663 185.913 93.7302C185.857 93.7941 185.825 93.8755 185.823 93.9604V95.0833C185.823 95.5668 185.631 96.0305 185.289 96.3723C184.947 96.7142 184.483 96.9062 184 96.9062C183.517 96.9062 183.053 96.7142 182.711 96.3723C182.369 96.0305 182.177 95.5668 182.177 95.0833V94.0479C182.177 93.9512 182.139 93.8585 182.07 93.7901C182.002 93.7217 181.909 93.6833 181.813 93.6833H180.135C179.652 93.6833 179.188 93.4913 178.846 93.1494C178.505 92.8075 178.313 92.3439 178.313 91.8604C178.313 91.3769 178.505 90.9133 178.846 90.5714C179.188 90.2296 179.652 90.0375 180.135 90.0375H185.371C185.739 90.024 186.092 89.8865 186.372 89.6473C186.652 89.4081 186.843 89.0813 186.914 88.7198C186.985 88.3584 186.931 87.9835 186.763 87.6562C186.594 87.3289 186.319 87.0683 185.983 86.9167L180.675 84.7729C179.592 84.3501 178.68 83.5799 178.082 82.583C177.484 81.5862 177.234 80.4191 177.371 79.2647C177.508 78.1104 178.024 77.034 178.838 76.2045C179.653 75.3751 180.719 74.8393 181.871 74.6812C181.957 74.6673 182.035 74.6228 182.092 74.5559C182.148 74.4889 182.178 74.4041 182.177 74.3167V73.2083C182.177 72.7249 182.369 72.2612 182.711 71.9193C183.053 71.5775 183.517 71.3854 184 71.3854C184.483 71.3854 184.947 71.5775 185.289 71.9193C185.631 72.2612 185.823 72.7249 185.823 73.2083V74.2292C185.823 74.3259 185.861 74.4186 185.93 74.487C185.998 74.5553 186.091 74.5937 186.188 74.5937H187.865C188.348 74.5937 188.812 74.7858 189.154 75.1277C189.495 75.4695 189.688 75.9332 189.688 76.4167C189.688 76.9001 189.495 77.3638 189.154 77.7057C188.812 78.0475 188.348 78.2396 187.865 78.2396H182.629C182.249 78.2381 181.88 78.3693 181.586 78.6105C181.293 78.8518 181.092 79.188 181.02 79.5611C180.947 79.9343 181.007 80.3211 181.189 80.6549C181.371 80.9887 181.664 81.2485 182.017 81.3896L187.325 83.5187C188.408 83.9416 189.32 84.7118 189.918 85.7086C190.516 86.7055 190.766 87.8726 190.629 89.0269C190.492 90.1813 189.976 91.2576 189.162 92.0871C188.347 92.9166 187.281 93.4524 186.129 93.6104Z" fill="#111111"/>
<path d="M240 63C235.847 63 231.786 64.2316 228.333 66.5391C224.88 68.8466 222.188 72.1264 220.599 75.9636C219.009 79.8009 218.593 84.0233 219.404 88.0969C220.214 92.1705 222.214 95.9123 225.151 98.8492C228.088 101.786 231.83 103.786 235.903 104.596C239.977 105.407 244.199 104.991 248.036 103.401C251.874 101.812 255.153 99.1204 257.461 95.667C259.768 92.2135 261 88.1534 261 84C261 78.4305 258.788 73.089 254.849 69.1508C250.911 65.2125 245.57 63 240 63V63ZM242.555 95.5325C242.454 95.5488 242.363 95.5996 242.296 95.6763C242.229 95.753 242.19 95.8507 242.188 95.9525V97.3C242.188 97.8802 241.957 98.4366 241.547 98.8468C241.137 99.257 240.58 99.4875 240 99.4875C239.42 99.4875 238.863 99.257 238.453 98.8468C238.043 98.4366 237.813 97.8802 237.813 97.3V96.0575C237.813 95.9415 237.766 95.8302 237.684 95.7481C237.602 95.6661 237.491 95.62 237.375 95.62H235.363C234.782 95.62 234.226 95.3895 233.816 94.9793C233.405 94.5691 233.175 94.0127 233.175 93.4325C233.175 92.8523 233.405 92.2959 233.816 91.8857C234.226 91.4755 234.782 91.245 235.363 91.245H241.645C242.087 91.2288 242.51 91.0638 242.846 90.7768C243.182 90.4898 243.412 90.0975 243.497 89.6638C243.582 89.23 243.518 88.7803 243.315 88.3875C243.112 87.9947 242.783 87.6819 242.38 87.5L236.01 84.9275C234.711 84.4201 233.616 83.4959 232.899 82.2996C232.181 81.1034 231.881 79.7029 232.045 78.3177C232.209 76.9324 232.829 75.6409 233.806 74.6455C234.783 73.6501 236.063 73.0071 237.445 72.8175C237.549 72.8007 237.643 72.7473 237.71 72.667C237.777 72.5867 237.814 72.4849 237.813 72.38V71.05C237.813 70.4698 238.043 69.9134 238.453 69.5032C238.863 69.093 239.42 68.8625 240 68.8625C240.58 68.8625 241.137 69.093 241.547 69.5032C241.957 69.9134 242.188 70.4698 242.188 71.05V72.275C242.188 72.391 242.234 72.5023 242.316 72.5844C242.398 72.6664 242.509 72.7125 242.625 72.7125H244.638C245.218 72.7125 245.774 72.943 246.184 73.3532C246.595 73.7634 246.825 74.3198 246.825 74.9C246.825 75.4802 246.595 76.0366 246.184 76.4468C245.774 76.857 245.218 77.0875 244.638 77.0875H238.355C237.899 77.0857 237.456 77.2432 237.104 77.5327C236.751 77.8221 236.511 78.2256 236.423 78.6734C236.336 79.1212 236.408 79.5854 236.627 79.9859C236.845 80.3864 237.196 80.6982 237.62 80.8675L243.99 83.4225C245.289 83.9299 246.384 84.8541 247.101 86.0503C247.819 87.2466 248.119 88.6471 247.955 90.0323C247.791 91.4176 247.171 92.7091 246.194 93.7045C245.217 94.6999 243.937 95.3429 242.555 95.5325Z" fill="#111111"/>
</g>
<defs>
<clipPath id="clip0_3442_409">
<rect width="264" height="108" rx="5" fill="white"/>
</clipPath>
</defs>
</svg>
