<svg width="264" height="48" viewBox="0 0 264 48" fill="none" xmlns="http://www.w3.org/2000/svg">
<g clip-path="url(#clip0_6219_965)">
<path d="M10.5088 19.7141L8.64193 19.7474M8.64193 19.7474L8.62288 21.3571M8.64193 19.7474C9.56421 20.3221 10.2744 21.1816 10.6652 22.1955C11.056 23.2095 11.1062 24.3231 10.8083 25.3681C10.5103 26.4132 9.88035 27.3328 9.01355 27.9882C8.14675 28.6436 7.09021 28.9991 6.00353 29.0009C5.64484 29.0019 5.28712 28.9636 4.93677 28.8866M1.24638 28.2868L3.37039 28.2534M3.37039 28.2534L3.38468 26.6485M3.37039 28.2534C2.445 27.6811 1.73132 26.8223 1.33804 25.8078C0.944773 24.7933 0.893148 23.6782 1.191 22.6316C1.48885 21.5851 2.11993 20.6643 2.98848 20.0089C3.85703 19.3535 4.91566 18.9993 6.00374 19C6.35928 18.9993 6.71381 19.0376 7.06098 19.1143M7.16948 22.0003H5.29777C5.08205 21.9831 4.86963 22.0613 4.71662 22.2143C4.5636 22.3674 4.48537 22.5798 4.50259 22.7955C4.50259 23.6671 7.16948 24.3338 7.16948 25.2055C7.17337 25.4175 7.09085 25.6221 6.94087 25.772C6.79089 25.922 6.58636 26.0045 6.3743 26.0006H4.50259M5.8359 22.0003V21.0002M5.8359 27.0007V26.0007" stroke="#111111" stroke-width="0.75" stroke-linecap="round" stroke-linejoin="round"/>
<path d="M37.4106 18.8569L35.1704 18.8969M35.1704 18.8969L35.1475 20.8285M35.1704 18.8969C36.2771 19.5865 37.1292 20.6178 37.5982 21.8346C38.0672 23.0513 38.1274 24.3877 37.7699 25.6417C37.4123 26.8957 36.6564 27.9993 35.6162 28.7858C34.576 29.5722 33.3082 29.9988 32.0042 30.001C31.5738 30.0022 31.1445 29.9562 30.7241 29.8639M26.2956 29.1442L28.8444 29.1042M28.8444 29.1042L28.8616 27.1783M28.8444 29.1042C27.734 28.4174 26.8776 27.3868 26.4057 26.1694C25.9337 24.952 25.8718 23.6138 26.2292 22.358C26.5866 21.1022 27.3439 19.9972 28.3862 19.2107C29.4284 18.4242 30.6988 17.9992 32.0045 18C32.4311 17.9992 32.8566 18.0452 33.2732 18.1372M33.4033 21.6002H31.1573C30.8984 21.5796 30.6435 21.6734 30.4599 21.8571C30.2763 22.0407 30.1824 22.2956 30.2031 22.5544C30.2031 23.6004 33.4033 24.4005 33.4033 25.4464C33.408 25.7009 33.309 25.9463 33.129 26.1263C32.949 26.3063 32.7036 26.4053 32.4491 26.4006H30.2031M31.8032 21.6003V20.4002M31.8032 27.6008V26.4007" stroke="#111111" stroke-linecap="round" stroke-linejoin="round"/>
<path d="M68.7632 17.5711L65.963 17.6211M65.963 17.6211L65.9344 20.0356M65.963 17.6211C67.3464 18.4831 68.4115 19.7723 68.9977 21.2932C69.584 22.8142 69.6593 24.4846 69.2123 26.0521C68.7654 27.6196 67.8205 28.9991 66.5203 29.9822C65.2201 30.9653 63.6352 31.4985 62.0052 31.5013C61.4672 31.5027 60.9306 31.4452 60.4051 31.3299M54.8695 30.4302L58.0556 30.3802M58.0556 30.3802L58.077 27.9729M58.0556 30.3802C56.6675 29.5217 55.597 28.2335 55.0071 26.7117C54.4172 25.1899 54.3397 23.5173 54.7865 21.9475C55.2333 20.3777 56.1799 18.9965 57.4827 18.0134C58.7855 17.0303 60.3735 16.4989 62.0056 16.5C62.5389 16.499 63.0707 16.5564 63.5915 16.6715M63.7542 21.0003H60.9466C60.623 20.9745 60.3044 21.0918 60.0749 21.3213C59.8453 21.5509 59.728 21.8695 59.7538 22.1931C59.7538 23.5005 63.7542 24.5006 63.7542 25.808C63.76 26.1261 63.6362 26.4329 63.4113 26.6579C63.1863 26.8828 62.8795 27.0066 62.5614 27.0008H59.7538M61.754 21.0004V19.5003M61.754 28.501V27.0009" stroke="#111111" stroke-width="1.25" stroke-linecap="round" stroke-linejoin="round"/>
<path d="M105.016 15.41L101.283 15.4945M101.283 15.4945L101.22 18.7136M101.283 15.4945C103.127 16.6438 104.547 18.3626 105.329 20.3904C106.11 22.4181 106.211 24.6452 105.615 26.7351C105.019 28.8249 103.759 30.6641 102.026 31.9748C100.292 33.2854 98.1792 33.9963 96.0061 34.0001C95.2888 34.0019 94.5734 33.9253 93.8727 33.7715M86.4927 32.58L90.7404 32.5056M90.7404 32.5056L90.77 29.296M90.7404 32.5056C88.8897 31.361 87.4625 29.6434 86.676 27.6145C85.8896 25.5856 85.7863 23.3556 86.382 21.2627C86.9776 19.1698 88.2397 17.3284 89.9766 16.0177C91.7136 14.707 93.8307 13.9986 96.0067 14C96.7177 13.9986 97.4267 14.0753 98.121 14.2286M98.338 19.9999H94.5949C94.1635 19.9655 93.7387 20.1219 93.4327 20.4279C93.1267 20.734 92.9702 21.1588 93.0047 21.5901C93.0047 23.3333 98.338 24.6666 98.338 26.4097C98.3458 26.8338 98.1808 27.2428 97.8809 27.5428C97.5809 27.8427 97.1719 28.0077 96.7478 27.9999H93.0047M95.6714 20V18M95.6714 30.0001V28.0001" stroke="#111111" stroke-width="1.5" stroke-linecap="round" stroke-linejoin="round"/>
<path d="M148.021 12.5467L143.043 12.6594M143.043 12.6594L142.96 16.9515M143.043 12.6594C145.503 14.1918 147.396 16.4836 148.438 19.1872C149.48 21.8909 149.614 24.8603 148.82 27.6468C148.025 30.4333 146.345 32.8855 144.034 34.633C141.723 36.3806 138.905 37.3284 136.008 37.3334C135.052 37.336 134.098 37.2338 133.163 37.0287M123.323 35.44L128.987 35.3408M128.987 35.3408L129.027 31.0613M128.987 35.3408C126.519 33.8146 124.617 31.5246 123.568 28.8194C122.519 26.1142 122.382 23.1408 123.176 20.3503C123.97 17.5598 125.653 15.1045 127.969 13.3569C130.285 11.6093 133.107 10.6648 136.009 10.6667C136.957 10.6648 137.902 10.767 138.828 10.9715M139.117 18.6666H134.126C133.551 18.6207 132.985 18.8293 132.577 19.2373C132.169 19.6453 131.96 20.2117 132.006 20.7869C132.006 23.111 139.117 24.8888 139.117 27.213C139.128 27.7784 138.908 28.3238 138.508 28.7237C138.108 29.1236 137.562 29.3436 136.997 29.3333H132.006M135.562 18.6667V16M135.562 32.0001V29.3335" stroke="#111111" stroke-width="2" stroke-linecap="round" stroke-linejoin="round"/>
<path d="M199.027 9.68331L192.805 9.82422M192.805 9.82422L192.7 15.1894M192.805 9.82422C195.879 11.7397 198.245 14.6044 199.548 17.984C200.851 21.3636 201.018 25.0753 200.025 28.5584C199.032 32.0415 196.932 35.1068 194.043 37.2912C191.154 39.4757 187.632 40.6605 184.01 40.6668C182.815 40.6699 181.622 40.5422 180.455 40.2858M168.155 38.3L175.234 38.1759M175.234 38.1759L175.283 32.8266M175.234 38.1759C172.15 36.2682 169.771 33.4057 168.46 30.0242C167.149 26.6427 166.977 22.926 167.97 19.4378C168.963 15.9497 171.066 12.8806 173.961 10.6961C176.856 8.51159 180.385 7.33098 184.011 7.33334C185.196 7.33099 186.378 7.45874 187.535 7.7143M187.897 17.3332H181.658C180.939 17.2758 180.231 17.5365 179.721 18.0465C179.211 18.5566 178.951 19.2646 179.008 19.9836C179.008 22.8887 187.897 25.111 187.897 28.0162C187.91 28.723 187.635 29.4047 187.135 29.9046C186.635 30.4045 185.953 30.6795 185.247 30.6665H179.008M183.453 17.3333V14M183.453 34.0001V30.6668" stroke="#111111" stroke-width="2.5" stroke-linecap="round" stroke-linejoin="round"/>
<path d="M258.032 6.82L250.565 6.98908M250.565 6.98908L250.44 13.4273M250.565 6.98908C254.254 9.28763 257.094 12.7253 258.657 16.7808C260.22 20.8363 260.421 25.2904 259.23 29.4701C258.038 33.6499 255.518 37.3282 252.051 39.9495C248.584 42.5708 244.358 43.9926 240.012 44.0001C238.578 44.0039 237.147 43.8506 235.745 43.543M220.985 41.16L229.481 41.0111M229.481 41.0111L229.54 34.592M229.481 41.0111C225.779 38.7219 222.925 35.2868 221.352 31.2291C219.779 27.1713 219.573 22.7112 220.764 18.5254C221.955 14.3397 224.479 10.6567 227.953 8.03532C231.427 5.41394 235.661 3.99719 240.013 4.00004C241.435 3.99721 242.853 4.15051 244.242 4.45719M244.676 15.9999H237.19C236.327 15.931 235.477 16.2439 234.865 16.8559C234.253 17.4679 233.94 18.3175 234.009 19.1803C234.009 22.6665 244.676 25.3332 244.676 28.8194C244.692 29.6676 244.362 30.4856 243.762 31.0855C243.162 31.6854 242.344 32.0154 241.496 31.9999H234.009M239.343 16V12M239.343 36.0002V32.0002" stroke="#111111" stroke-width="3" stroke-linecap="round" stroke-linejoin="round"/>
</g>
<defs>
<clipPath id="clip0_6219_965">
<rect width="264" height="48" rx="5" fill="white"/>
</clipPath>
</defs>
</svg>
