<svg width="264" height="108" viewBox="0 0 264 108" fill="none" xmlns="http://www.w3.org/2000/svg">
<g clip-path="url(#clip0_3108_2488)">
<g clip-path="url(#clip1_3108_2488)">
<path d="M0.375 25.125V29.625M0.375 28.875H8.625C8.625 28.4772 8.46697 28.0956 8.18566 27.8143C7.90436 27.533 7.52282 27.375 7.125 27.375H5.25M5.25 27.375C5.25 26.9772 5.09197 26.5956 4.81066 26.3143C4.52936 26.033 4.14782 25.875 3.75 25.875H0.375M5.25 27.375H3.375M9.05 20.24H7.965C7.87372 20.2373 7.78281 20.2527 7.69747 20.2852C7.61213 20.3177 7.53402 20.3666 7.46762 20.4293C7.40122 20.492 7.34782 20.5672 7.31048 20.6505C7.27314 20.7338 7.25259 20.8237 7.25 20.915C7.25233 21.0526 7.29669 21.1863 7.37712 21.298C7.45755 21.4097 7.57021 21.4941 7.7 21.54L8.8 21.96C8.92979 22.0059 9.04245 22.0903 9.12288 22.202C9.20331 22.3137 9.24767 22.4474 9.25 22.585C9.24741 22.6763 9.22686 22.7662 9.18952 22.8495C9.15218 22.9328 9.09878 23.008 9.03238 23.0707C8.96598 23.1334 8.88787 23.1823 8.80253 23.2148C8.71719 23.2473 8.62628 23.2627 8.535 23.26H7.45M8.25 20.24V19.625M8.25 23.875V23.26M11.625 21.75C11.625 23.614 10.114 25.125 8.25 25.125C6.38604 25.125 4.875 23.614 4.875 21.75C4.875 19.886 6.38604 18.375 8.25 18.375C10.114 18.375 11.625 19.886 11.625 21.75Z" stroke="#111111" stroke-width="0.75" stroke-linecap="round" stroke-linejoin="round"/>
</g>
<g clip-path="url(#clip2_3108_2488)">
<path d="M24.5 25.5V31.5M24.5 30.5H35.5C35.5 29.9696 35.2893 29.4609 34.9142 29.0858C34.5391 28.7107 34.0304 28.5 33.5 28.5H31M31 28.5C31 27.9696 30.7893 27.4609 30.4142 27.0858C30.0391 26.7107 29.5304 26.5 29 26.5H24.5M31 28.5H28.5M36.0667 18.9867H34.62C34.4983 18.9831 34.3771 19.0036 34.2633 19.0469C34.1495 19.0902 34.0454 19.1555 33.9568 19.2391C33.8683 19.3227 33.7971 19.4229 33.7473 19.534C33.6975 19.6451 33.6701 19.765 33.6667 19.8867C33.6698 20.0702 33.7289 20.2484 33.8362 20.3973C33.9434 20.5462 34.0936 20.6588 34.2667 20.72L35.7333 21.28C35.9064 21.3412 36.0566 21.4538 36.1638 21.6027C36.2711 21.7516 36.3302 21.9298 36.3333 22.1133C36.3299 22.235 36.3025 22.3549 36.2527 22.466C36.2029 22.5771 36.1317 22.6773 36.0432 22.7609C35.9546 22.8445 35.8505 22.9098 35.7367 22.9531C35.6229 22.9964 35.5017 23.0169 35.38 23.0133H33.9333M35 18.9867V18.1667M35 23.8333V23.0133M39.5 21C39.5 23.4853 37.4853 25.5 35 25.5C32.5147 25.5 30.5 23.4853 30.5 21C30.5 18.5147 32.5147 16.5 35 16.5C37.4853 16.5 39.5 18.5147 39.5 21Z" stroke="#111111" stroke-linecap="round" stroke-linejoin="round"/>
</g>
<g clip-path="url(#clip3_3108_2488)">
<path d="M52.625 25.875V33.375M52.625 32.125H66.375C66.375 31.462 66.1116 30.8261 65.6428 30.3572C65.1739 29.8884 64.538 29.625 63.875 29.625H60.75M60.75 29.625C60.75 28.962 60.4866 28.3261 60.0178 27.8572C59.5489 27.3884 58.913 27.125 58.25 27.125H52.625M60.75 29.625H57.625M67.0833 17.7333H65.275C65.1229 17.7289 64.9714 17.7545 64.8291 17.8086C64.6869 17.8628 64.5567 17.9444 64.446 18.0489C64.3354 18.1534 64.2464 18.2786 64.1841 18.4175C64.1219 18.5564 64.0876 18.7062 64.0833 18.8583C64.0872 19.0877 64.1611 19.3104 64.2952 19.4966C64.4292 19.6828 64.617 19.8236 64.8333 19.9L66.6667 20.6C66.883 20.6764 67.0708 20.8172 67.2048 21.0034C67.3389 21.1896 67.4128 21.4123 67.4167 21.6417C67.4124 21.7938 67.3781 21.9436 67.3159 22.0825C67.2536 22.2214 67.1646 22.3466 67.054 22.4511C66.9433 22.5556 66.8131 22.6372 66.6709 22.6914C66.5286 22.7455 66.3771 22.7711 66.225 22.7667H64.4167M65.75 17.7333V16.7083M65.75 23.7917V22.7667M71.375 20.25C71.375 23.3566 68.8566 25.875 65.75 25.875C62.6434 25.875 60.125 23.3566 60.125 20.25C60.125 17.1434 62.6434 14.625 65.75 14.625C68.8566 14.625 71.375 17.1434 71.375 20.25Z" stroke="#111111" stroke-width="1.25" stroke-linecap="round" stroke-linejoin="round"/>
</g>
<g clip-path="url(#clip4_3108_2488)">
<path d="M84.75 26.25V35.25M84.75 33.75H101.25C101.25 32.9544 100.934 32.1913 100.371 31.6287C99.8087 31.0661 99.0456 30.75 98.25 30.75H94.5M94.5 30.75C94.5 29.9544 94.1839 29.1913 93.6213 28.6287C93.0587 28.0661 92.2956 27.75 91.5 27.75H84.75M94.5 30.75H90.75M102.1 16.48H99.93C99.7474 16.4747 99.5656 16.5054 99.3949 16.5703C99.2243 16.6353 99.068 16.7333 98.9352 16.8587C98.8024 16.984 98.6956 17.1344 98.621 17.301C98.5463 17.4677 98.5052 17.6474 98.5 17.83C98.5047 18.1053 98.5934 18.3725 98.7542 18.596C98.9151 18.8194 99.1404 18.9883 99.4 19.08L101.6 19.92C101.86 20.0117 102.085 20.1806 102.246 20.404C102.407 20.6275 102.495 20.8947 102.5 21.17C102.495 21.3526 102.454 21.5323 102.379 21.699C102.304 21.8656 102.198 22.016 102.065 22.1413C101.932 22.2667 101.776 22.3647 101.605 22.4297C101.434 22.4946 101.253 22.5253 101.07 22.52H98.9M100.5 16.48V15.25M100.5 23.75V22.52M107.25 19.5C107.25 23.2279 104.228 26.25 100.5 26.25C96.7721 26.25 93.75 23.2279 93.75 19.5C93.75 15.7721 96.7721 12.75 100.5 12.75C104.228 12.75 107.25 15.7721 107.25 19.5Z" stroke="#111111" stroke-width="1.5" stroke-linecap="round" stroke-linejoin="round"/>
</g>
<g clip-path="url(#clip5_3108_2488)">
<path d="M121 27V39M121 37H143C143 35.9391 142.579 34.9217 141.828 34.1716C141.078 33.4214 140.061 33 139 33H134M134 33C134 31.9391 133.579 30.9217 132.828 30.1716C132.078 29.4214 131.061 29 130 29H121M134 33H129M144.133 13.9733H141.24C140.997 13.9662 140.754 14.0072 140.527 14.0938C140.299 14.1804 140.091 14.3111 139.914 14.4782C139.737 14.6454 139.594 14.8458 139.495 15.068C139.395 15.2903 139.34 15.5299 139.333 15.7733C139.34 16.1404 139.458 16.4967 139.672 16.7946C139.887 17.0925 140.187 17.3177 140.533 17.44L143.467 18.56C143.813 18.6823 144.113 18.9075 144.328 19.2054C144.542 19.5033 144.66 19.8596 144.667 20.2267C144.66 20.4701 144.605 20.7097 144.505 20.932C144.406 21.1542 144.263 21.3546 144.086 21.5218C143.909 21.6889 143.701 21.8196 143.473 21.9062C143.246 21.9928 143.003 22.0338 142.76 22.0267H139.867M142 13.9733V12.3333M142 23.6667V22.0267M151 18C151 22.9706 146.971 27 142 27C137.029 27 133 22.9706 133 18C133 13.0294 137.029 9 142 9C146.971 9 151 13.0294 151 18Z" stroke="#111111" stroke-width="2" stroke-linecap="round" stroke-linejoin="round"/>
</g>
<g clip-path="url(#clip6_3108_2488)">
<path d="M165.25 27.75V42.75M165.25 40.25H192.75C192.75 38.9239 192.223 37.6521 191.286 36.7145C190.348 35.7768 189.076 35.25 187.75 35.25H181.5M181.5 35.25C181.5 33.9239 180.973 32.6521 180.036 31.7145C179.098 30.7768 177.826 30.25 176.5 30.25H165.25M181.5 35.25H175.25M194.167 11.4667H190.55C190.246 11.4578 189.943 11.509 189.658 11.6172C189.374 11.7255 189.113 11.8888 188.892 12.0978C188.671 12.3067 188.493 12.5573 188.368 12.835C188.244 13.1128 188.175 13.4124 188.167 13.7167C188.174 14.1754 188.322 14.6209 188.59 14.9933C188.858 15.3656 189.234 15.6471 189.667 15.8L193.333 17.2C193.766 17.3529 194.142 17.6344 194.41 18.0067C194.678 18.3791 194.826 18.8246 194.833 19.2833C194.825 19.5876 194.756 19.8872 194.632 20.165C194.507 20.4427 194.329 20.6933 194.108 20.9022C193.887 21.1112 193.626 21.2745 193.342 21.3828C193.057 21.491 192.754 21.5422 192.45 21.5333H188.833M191.5 11.4667V9.41667M191.5 23.5833V21.5333M202.75 16.5C202.75 22.7132 197.713 27.75 191.5 27.75C185.287 27.75 180.25 22.7132 180.25 16.5C180.25 10.2868 185.287 5.25 191.5 5.25C197.713 5.25 202.75 10.2868 202.75 16.5Z" stroke="#111111" stroke-width="2.5" stroke-linecap="round" stroke-linejoin="round"/>
</g>
<g clip-path="url(#clip7_3108_2488)">
<path d="M217.5 28.5V46.5M217.5 43.5H250.5C250.5 41.9087 249.868 40.3826 248.743 39.2574C247.617 38.1321 246.091 37.5 244.5 37.5H237M237 37.5C237 35.9087 236.368 34.3826 235.243 33.2574C234.117 32.1321 232.591 31.5 231 31.5H217.5M237 37.5H229.5M252.2 8.96H247.86C247.495 8.94934 247.131 9.01074 246.79 9.14069C246.449 9.27063 246.136 9.46658 245.87 9.71733C245.605 9.96808 245.391 10.2687 245.242 10.602C245.093 10.9354 245.01 11.2949 245 11.66C245.009 12.2105 245.187 12.7451 245.508 13.1919C245.83 13.6387 246.281 13.9765 246.8 14.16L251.2 15.84C251.719 16.0235 252.17 16.3613 252.492 16.8081C252.813 17.2549 252.991 17.7895 253 18.34C252.99 18.7051 252.907 19.0646 252.758 19.398C252.609 19.7313 252.395 20.0319 252.13 20.2827C251.864 20.5334 251.551 20.7294 251.21 20.8593C250.869 20.9893 250.505 21.0507 250.14 21.04H245.8M249 8.96V6.5M249 23.5V21.04M262.5 15C262.5 22.4558 256.456 28.5 249 28.5C241.544 28.5 235.5 22.4558 235.5 15C235.5 7.54416 241.544 1.5 249 1.5C256.456 1.5 262.5 7.54416 262.5 15Z" stroke="#111111" stroke-width="3" stroke-linecap="round" stroke-linejoin="round"/>
</g>
<path d="M0.782609 85.3947C0.782609 85.1767 0.607416 85 0.391304 85C0.175193 85 0 85.1767 0 85.3947V89.6053C0 89.8233 0.175193 90 0.391304 90C0.607416 90 0.782609 89.8233 0.782609 89.6053V89.0525H9C9 88.6337 8.83509 88.2321 8.54156 87.936C8.27792 87.67 7.92993 87.5088 7.56102 87.4787H3.52174C3.37766 87.4787 3.26087 87.3609 3.26087 87.2155C3.26087 87.0702 3.37766 86.9524 3.52174 86.9524H5.39054C5.3136 86.7304 5.18776 86.5265 5.01982 86.357C4.72628 86.0609 4.32817 85.8946 3.91304 85.8946H0.782609V85.3947Z" fill="#111111"/>
<path fill-rule="evenodd" clip-rule="evenodd" d="M12 81.5C12 83.433 10.433 85 8.5 85C6.567 85 5 83.433 5 81.5C5 79.567 6.567 78 8.5 78C10.433 78 12 79.567 12 81.5ZM9.32963 79.5452H8.88889V79.2963C8.88889 79.0815 8.71478 78.9074 8.5 78.9074C8.28522 78.9074 8.11111 79.0815 8.11111 79.2963V79.5473C8.00092 79.5545 7.89222 79.5781 7.78866 79.6175C7.6524 79.6694 7.5277 79.7476 7.42168 79.8477C7.31567 79.9478 7.23041 80.0678 7.17079 80.2008C7.11118 80.3339 7.07836 80.4774 7.07423 80.6231C7.07406 80.629 7.07403 80.6348 7.07413 80.6407C7.07789 80.8627 7.14944 81.0783 7.27919 81.2585C7.40789 81.4373 7.58774 81.5727 7.79496 81.6471L8.93165 82.0811L8.9408 82.0845C9.00062 82.1056 9.05254 82.1446 9.08961 82.196C9.12498 82.2452 9.14522 82.3035 9.14793 82.3638C9.1457 82.4044 9.13604 82.4441 9.11942 82.4812C9.10159 82.521 9.0761 82.5569 9.04439 82.5868C9.01269 82.6168 8.9754 82.6402 8.93464 82.6557C8.89389 82.6712 8.85049 82.6785 8.8069 82.6772L8.79556 82.6771H8.50517L8.5 82.677L8.49483 82.6771H7.67037C7.45559 82.6771 7.28148 82.8512 7.28148 83.066C7.28148 83.2807 7.45559 83.4549 7.67037 83.4549H8.11111V83.7037C8.11111 83.9185 8.28522 84.0926 8.5 84.0926C8.71478 84.0926 8.88889 83.9185 8.88889 83.7037V83.4528C8.99908 83.4456 9.10778 83.422 9.21134 83.3826C9.3476 83.3307 9.4723 83.2525 9.57832 83.1524C9.68433 83.0523 9.76959 82.9323 9.8292 82.7993C9.88882 82.6662 9.92164 82.5227 9.92577 82.377C9.92594 82.3711 9.92597 82.3653 9.92587 82.3594C9.92211 82.1374 9.85056 81.9218 9.72081 81.7416C9.59211 81.5628 9.41226 81.4274 9.20504 81.353L8.06835 80.919L8.0592 80.9156C7.99938 80.8945 7.94746 80.8555 7.91039 80.804C7.87502 80.7549 7.85478 80.6966 7.85207 80.6363C7.8543 80.5957 7.86396 80.5559 7.88057 80.5189C7.8984 80.4791 7.9239 80.4432 7.95561 80.4132C7.98731 80.3833 8.0246 80.3599 8.06536 80.3444C8.1061 80.3289 8.14951 80.3216 8.1931 80.3228L8.20444 80.323H9.32963C9.54441 80.323 9.71852 80.1489 9.71852 79.9341C9.71852 79.7193 9.54441 79.5452 9.32963 79.5452Z" fill="#111111"/>
<path d="M25.0435 85.8596C25.0435 85.569 24.8099 85.3333 24.5217 85.3333C24.2336 85.3333 24 85.569 24 85.8596V91.4737C24 91.7644 24.2336 92 24.5217 92C24.8099 92 25.0435 91.7644 25.0435 91.4737V90.7366H36C36 90.1783 35.7801 89.6428 35.3887 89.248C35.0372 88.8934 34.5732 88.6784 34.0814 88.6382H28.6957C28.5036 88.6382 28.3478 88.4811 28.3478 88.2873C28.3478 88.0936 28.5036 87.9365 28.6957 87.9365H31.1874C31.0848 87.6406 30.917 87.3686 30.6931 87.1427C30.3017 86.7479 29.7709 86.5261 29.2174 86.5261H25.0435V85.8596Z" fill="#111111"/>
<path fill-rule="evenodd" clip-rule="evenodd" d="M40 80.6667C40 83.244 37.9107 85.3333 35.3333 85.3333C32.756 85.3333 30.6667 83.244 30.6667 80.6667C30.6667 78.0893 32.756 76 35.3333 76C37.9107 76 40 78.0893 40 80.6667ZM36.4395 78.0603H35.8519V77.7284C35.8519 77.442 35.6197 77.2099 35.3333 77.2099C35.047 77.2099 34.8148 77.442 34.8148 77.7284V78.063C34.6679 78.0726 34.523 78.1041 34.3849 78.1567C34.2032 78.2258 34.0369 78.3301 33.8956 78.4636C33.7542 78.597 33.6405 78.757 33.5611 78.9344C33.4816 79.1118 33.4378 79.3031 33.4323 79.4975C33.4321 79.5053 33.432 79.5131 33.4322 79.5209C33.4372 79.817 33.5326 80.1044 33.7056 80.3447C33.8772 80.583 34.117 80.7636 34.3933 80.8628L35.9089 81.4415L35.9211 81.446C36.0008 81.4742 36.0701 81.5261 36.1195 81.5947C36.1666 81.6602 36.1936 81.738 36.1972 81.8184C36.1943 81.8725 36.1814 81.9255 36.1592 81.975C36.1355 82.028 36.1015 82.0759 36.0592 82.1158C36.0169 82.1557 35.9672 82.1869 35.9129 82.2076C35.8585 82.2283 35.8006 82.238 35.7425 82.2363L35.7274 82.2361H35.3402L35.3333 82.2361L35.3264 82.2361H34.2272C33.9408 82.2361 33.7086 82.4683 33.7086 82.7546C33.7086 83.041 33.9408 83.2731 34.2272 83.2731H34.8148V83.605C34.8148 83.8913 35.047 84.1235 35.3333 84.1235C35.6197 84.1235 35.8519 83.8913 35.8519 83.605V83.2704C35.9988 83.2608 36.1437 83.2293 36.2818 83.1768C36.4635 83.1076 36.6297 83.0033 36.7711 82.8699C36.9124 82.7364 37.0261 82.5764 37.1056 82.399C37.1851 82.2216 37.2288 82.0303 37.2344 81.836C37.2346 81.8282 37.2346 81.8203 37.2345 81.8125C37.2295 81.5165 37.1341 81.2291 36.9611 80.9888C36.7895 80.7504 36.5497 80.5698 36.2734 80.4706L34.7578 79.8919L34.7456 79.8875C34.6658 79.8593 34.5966 79.8074 34.5472 79.7387C34.5 79.6732 34.473 79.5955 34.4694 79.515C34.4724 79.461 34.4853 79.4079 34.5074 79.3585C34.5312 79.3054 34.5652 79.2576 34.6075 79.2177C34.6497 79.1777 34.6995 79.1466 34.7538 79.1259C34.8081 79.1052 34.866 79.0954 34.9241 79.0971L34.9393 79.0973H36.4395C36.7259 79.0973 36.958 78.8652 36.958 78.5788C36.958 78.2925 36.7259 78.0603 36.4395 78.0603Z" fill="#111111"/>
<path d="M53.3043 86.3246C53.3043 85.9612 53.0124 85.6667 52.6522 85.6667C52.292 85.6667 52 85.9612 52 86.3246V93.3421C52 93.7055 52.292 94 52.6522 94C53.0124 94 53.3043 93.7055 53.3043 93.3421V92.4208H67C67 91.7229 66.7252 91.0535 66.2359 90.56C65.7965 90.1167 65.2165 89.8479 64.6017 89.7978H57.8696C57.6294 89.7978 57.4348 89.6014 57.4348 89.3592C57.4348 89.117 57.6294 88.9206 57.8696 88.9206H60.9842C60.856 88.5507 60.6463 88.2108 60.3664 87.9284C59.8771 87.4349 59.2136 87.1576 58.5217 87.1576H53.3043V86.3246Z" fill="#111111"/>
<path fill-rule="evenodd" clip-rule="evenodd" d="M72 79.8333C72 83.055 69.3883 85.6667 66.1667 85.6667C62.945 85.6667 60.3333 83.055 60.3333 79.8333C60.3333 76.6117 62.945 74 66.1667 74C69.3883 74 72 76.6117 72 79.8333ZM67.5494 76.5754H66.8148V76.1605C66.8148 75.8025 66.5246 75.5123 66.1667 75.5123C65.8087 75.5123 65.5185 75.8025 65.5185 76.1605V76.5788C65.3349 76.5908 65.1537 76.6302 64.9811 76.6959C64.754 76.7823 64.5462 76.9127 64.3695 77.0795C64.1928 77.2463 64.0507 77.4463 63.9513 77.668C63.852 77.8898 63.7973 78.1289 63.7904 78.3718C63.7901 78.3816 63.7901 78.3914 63.7902 78.4012C63.7965 78.7712 63.9157 79.1305 64.132 79.4308C64.3465 79.7288 64.6462 79.9546 64.9916 80.0785L66.8861 80.8019L66.9013 80.8075C67.001 80.8427 67.0876 80.9076 67.1494 80.9934C67.2083 81.0753 67.242 81.1725 67.2466 81.273C67.2428 81.3406 67.2267 81.4069 67.199 81.4687C67.1693 81.535 67.1268 81.5949 67.074 81.6447C67.0211 81.6946 66.959 81.7336 66.8911 81.7595C66.8232 81.7853 66.7508 81.7975 66.6782 81.7954L66.6593 81.7951H66.1753L66.1667 81.7951L66.1581 81.7951H64.7839C64.426 81.7951 64.1358 82.0853 64.1358 82.4433C64.1358 82.8012 64.426 83.0914 64.7839 83.0914H65.5185V83.5062C65.5185 83.8642 65.8087 84.1543 66.1667 84.1543C66.5246 84.1543 66.8148 83.8642 66.8148 83.5062V83.088C66.9985 83.076 67.1796 83.0367 67.3522 82.971C67.5793 82.8845 67.7872 82.7542 67.9639 82.5873C68.1406 82.4205 68.2826 82.2205 68.382 81.9988C68.4814 81.777 68.5361 81.5379 68.5429 81.295C68.5432 81.2852 68.5433 81.2754 68.5431 81.2656C68.5368 80.8956 68.4176 80.5363 68.2013 80.236C67.9869 79.9381 67.6871 79.7123 67.3417 79.5883L65.4472 78.8649L65.432 78.8593C65.3323 78.8241 65.2458 78.7592 65.184 78.6734C65.125 78.5915 65.0913 78.4943 65.0868 78.3938C65.0905 78.3262 65.1066 78.2599 65.1343 78.1981C65.164 78.1318 65.2065 78.072 65.2593 78.0221C65.3122 77.9722 65.3743 77.9332 65.4423 77.9073C65.5102 77.8815 65.5825 77.8693 65.6552 77.8714L65.6741 77.8717H67.5494C67.9073 77.8717 68.1975 77.5815 68.1975 77.2235C68.1975 76.8656 67.9073 76.5754 67.5494 76.5754Z" fill="#111111"/>
<path d="M85.5652 86.7895C85.5652 86.3535 85.2148 86 84.7826 86C84.3504 86 84 86.3535 84 86.7895V95.2105C84 95.6465 84.3504 96 84.7826 96C85.2148 96 85.5652 95.6465 85.5652 95.2105V94.105H102C102 93.2674 101.67 92.4642 101.083 91.872C100.556 91.3401 99.8599 91.0175 99.122 90.9573H91.0435C90.7553 90.9573 90.5217 90.7217 90.5217 90.431C90.5217 90.1403 90.7553 89.9047 91.0435 89.9047H94.7811C94.6272 89.4608 94.3755 89.0529 94.0396 88.7141C93.4526 88.1219 92.6563 87.7892 91.8261 87.7892H85.5652V86.7895Z" fill="#111111"/>
<path fill-rule="evenodd" clip-rule="evenodd" d="M108 79C108 82.866 104.866 86 101 86C97.134 86 94 82.866 94 79C94 75.134 97.134 72 101 72C104.866 72 108 75.134 108 79ZM102.659 75.0905H101.778V74.5926C101.778 74.163 101.43 73.8148 101 73.8148C100.57 73.8148 100.222 74.163 100.222 74.5926V75.0946C100.002 75.109 99.7844 75.1562 99.5773 75.235C99.3048 75.3388 99.0554 75.4952 98.8434 75.6954C98.6313 75.8955 98.4608 76.1355 98.3416 76.4016C98.2224 76.6677 98.1567 76.9547 98.1485 77.2462C98.1481 77.2579 98.1481 77.2697 98.1483 77.2814C98.1558 77.7255 98.2989 78.1566 98.5584 78.517C98.8158 78.8745 99.1755 79.1455 99.5899 79.2942L101.863 80.1623L101.882 80.169C102.001 80.2113 102.105 80.2891 102.179 80.3921C102.25 80.4903 102.29 80.607 102.296 80.7277C102.291 80.8087 102.272 80.8883 102.239 80.9625C102.203 81.0421 102.152 81.1138 102.089 81.1737C102.025 81.2335 101.951 81.2803 101.869 81.3114C101.788 81.3424 101.701 81.357 101.614 81.3545L101.591 81.3542H101.01L101 81.3541L100.99 81.3542H99.3407C98.9112 81.3542 98.563 81.7024 98.563 82.1319C98.563 82.5615 98.9112 82.9097 99.3407 82.9097H100.222V83.4074C100.222 83.837 100.57 84.1852 101 84.1852C101.43 84.1852 101.778 83.837 101.778 83.4074V82.9056C101.998 82.8912 102.216 82.844 102.423 82.7651C102.695 82.6614 102.945 82.505 103.157 82.3048C103.369 82.1046 103.539 81.8646 103.658 81.5986C103.778 81.3325 103.843 81.0455 103.852 80.754C103.852 80.7423 103.852 80.7305 103.852 80.7188C103.844 80.2747 103.701 79.8436 103.442 79.4832C103.184 79.1257 102.825 78.8547 102.41 78.7059L100.137 77.8379L100.118 77.8312C99.9988 77.7889 99.8949 77.7111 99.8208 77.6081C99.75 77.5098 99.7096 77.3932 99.7041 77.2725C99.7086 77.1915 99.7279 77.1119 99.7611 77.0377C99.7968 76.9581 99.8478 76.8864 99.9112 76.8265C99.9746 76.7666 100.049 76.7198 100.131 76.6888C100.212 76.6578 100.299 76.6431 100.386 76.6457L100.409 76.646H102.659C103.089 76.646 103.437 76.2978 103.437 75.8682C103.437 75.4387 103.089 75.0905 102.659 75.0905Z" fill="#111111"/>
<path d="M122.087 87.7193C122.087 87.1379 121.62 86.6667 121.043 86.6667C120.467 86.6667 120 87.1379 120 87.7193V98.9474C120 99.5287 120.467 100 121.043 100C121.62 100 122.087 99.5287 122.087 98.9474V97.4733H144C144 96.3566 143.56 95.2856 142.777 94.496C142.074 93.7868 141.146 93.3567 140.163 93.2765H129.391C129.007 93.2765 128.696 92.9623 128.696 92.5747C128.696 92.1871 129.007 91.8729 129.391 91.8729H134.375C134.17 91.2811 133.834 90.7372 133.386 90.2855C132.603 89.4958 131.542 89.0522 130.435 89.0522H122.087V87.7193Z" fill="#111111"/>
<path fill-rule="evenodd" clip-rule="evenodd" d="M152 77.3333C152 82.488 147.821 86.6667 142.667 86.6667C137.512 86.6667 133.333 82.488 133.333 77.3333C133.333 72.1787 137.512 68 142.667 68C147.821 68 152 72.1787 152 77.3333ZM144.879 72.1206H143.704V71.4568C143.704 70.8841 143.239 70.4198 142.667 70.4198C142.094 70.4198 141.63 70.8841 141.63 71.4568V72.1261C141.336 72.1453 141.046 72.2082 140.77 72.3134C140.406 72.4517 140.074 72.6603 139.791 72.9271C139.508 73.194 139.281 73.514 139.122 73.8688C138.963 74.2236 138.876 74.6063 138.865 74.9949C138.864 75.0106 138.864 75.0262 138.864 75.0419C138.874 75.6339 139.065 76.2088 139.411 76.6894C139.754 77.166 140.234 77.5273 140.787 77.7257L143.818 78.883L143.842 78.892C144.002 78.9483 144.14 79.0521 144.239 79.1894C144.333 79.3204 144.387 79.476 144.394 79.6369C144.389 79.7449 144.363 79.8511 144.318 79.95C144.271 80.0561 144.203 80.1518 144.118 80.2316C144.034 80.3114 143.934 80.3738 143.826 80.4151C143.717 80.4565 143.601 80.4761 143.485 80.4727L143.455 80.4722H142.68L142.667 80.4721L142.653 80.4722H140.454C139.882 80.4722 139.417 80.9365 139.417 81.5093C139.417 82.082 139.882 82.5463 140.454 82.5463H141.63V83.2099C141.63 83.7826 142.094 84.2469 142.667 84.2469C143.239 84.2469 143.704 83.7826 143.704 83.2099V82.5408C143.998 82.5216 144.287 82.4587 144.564 82.3535C144.927 82.2152 145.259 82.0066 145.542 81.7398C145.825 81.4729 146.052 81.1529 146.211 80.7981C146.37 80.4433 146.458 80.0606 146.469 79.672C146.469 79.6563 146.469 79.6407 146.469 79.625C146.459 79.033 146.268 78.4581 145.922 77.9775C145.579 77.5009 145.099 77.1396 144.547 76.9412L141.516 75.7839L141.491 75.7749C141.332 75.7186 141.193 75.6148 141.094 75.4775C141 75.3465 140.946 75.1909 140.939 75.03C140.945 74.922 140.971 74.8158 141.015 74.7169C141.062 74.6108 141.13 74.5151 141.215 74.4353C141.299 74.3555 141.399 74.2931 141.508 74.2518C141.616 74.2104 141.732 74.1909 141.848 74.1942L141.879 74.1947H144.879C145.452 74.1947 145.916 73.7304 145.916 73.1576C145.916 72.5849 145.452 72.1206 144.879 72.1206Z" fill="#111111"/>
<path d="M166.609 88.6491C166.609 87.9224 166.025 87.3333 165.304 87.3333C164.584 87.3333 164 87.9224 164 88.6491V102.684C164 103.411 164.584 104 165.304 104C166.025 104 166.609 103.411 166.609 102.684V100.842H194C194 99.4457 193.45 98.107 192.472 97.12C191.593 96.2335 190.433 95.6959 189.203 95.5956H175.739C175.259 95.5956 174.87 95.2028 174.87 94.7184C174.87 94.2339 175.259 93.8412 175.739 93.8412H181.968C181.712 93.1014 181.293 92.4215 180.733 91.8568C179.754 90.8698 178.427 90.3153 177.043 90.3153H166.609V88.6491Z" fill="#111111"/>
<path fill-rule="evenodd" clip-rule="evenodd" d="M204 75.6667C204 82.11 198.777 87.3333 192.333 87.3333C185.89 87.3333 180.667 82.11 180.667 75.6667C180.667 69.2233 185.89 64 192.333 64C198.777 64 204 69.2233 204 75.6667ZM195.099 69.1508H193.63V68.321C193.63 67.6051 193.049 67.0247 192.333 67.0247C191.617 67.0247 191.037 67.6051 191.037 68.321V69.1576C190.67 69.1816 190.307 69.2603 189.962 69.3917C189.508 69.5646 189.092 69.8253 188.739 70.1589C188.386 70.4925 188.101 70.8925 187.903 71.336C187.704 71.7795 187.595 72.2579 187.581 72.7436C187.58 72.7632 187.58 72.7828 187.58 72.8023C187.593 73.5424 187.831 74.261 188.264 74.8617C188.693 75.4575 189.292 75.9091 189.983 76.1571L193.772 77.6038L193.803 77.615C194.002 77.6854 194.175 77.8152 194.299 77.9868C194.417 78.1505 194.484 78.3449 194.493 78.5461C194.486 78.6812 194.453 78.8138 194.398 78.9374C194.339 79.0701 194.254 79.1897 194.148 79.2895C194.042 79.3892 193.918 79.4672 193.782 79.5189C193.646 79.5706 193.502 79.5951 193.356 79.5908L193.319 79.5903H192.351L192.333 79.5902L192.316 79.5903H189.568C188.852 79.5903 188.272 80.1706 188.272 80.8866C188.272 81.6025 188.852 82.1829 189.568 82.1829H191.037V83.0124C191.037 83.7283 191.617 84.3087 192.333 84.3087C193.049 84.3087 193.63 83.7283 193.63 83.0124V82.176C193.997 82.152 194.359 82.0733 194.704 81.9419C195.159 81.769 195.574 81.5083 195.928 81.1747C196.281 80.8411 196.565 80.4411 196.764 79.9976C196.963 79.5541 197.072 79.0758 197.086 78.59C197.086 78.5704 197.087 78.5508 197.086 78.5313C197.074 77.7912 196.835 77.0726 196.403 76.4719C195.974 75.8761 195.374 75.4245 194.683 75.1766L190.894 73.7299L190.864 73.7187C190.665 73.6482 190.492 73.5185 190.368 73.3468C190.25 73.1831 190.183 72.9887 190.174 72.7875C190.181 72.6525 190.213 72.5198 190.269 72.3962C190.328 72.2635 190.413 72.1439 190.519 72.0441C190.624 71.9444 190.749 71.8664 190.885 71.8147C191.02 71.763 191.165 71.7386 191.31 71.7428L191.348 71.7434H195.099C195.815 71.7434 196.395 71.163 196.395 70.4471C196.395 69.7311 195.815 69.1508 195.099 69.1508Z" fill="#111111"/>
<path d="M219.13 89.5789C219.13 88.7069 218.43 88 217.565 88C216.701 88 216 88.7069 216 89.5789V106.421C216 107.293 216.701 108 217.565 108C218.43 108 219.13 107.293 219.13 106.421V104.21H252C252 102.535 251.34 100.928 250.166 99.744C249.112 98.6802 247.72 98.0351 246.244 97.9147H230.087C229.511 97.9147 229.043 97.4434 229.043 96.862C229.043 96.2807 229.511 95.8094 230.087 95.8094H237.562C237.254 94.9217 236.751 94.1058 236.079 93.4282C234.905 92.2437 233.313 91.5783 231.652 91.5783H219.13V89.5789Z" fill="#111111"/>
<path fill-rule="evenodd" clip-rule="evenodd" d="M264 74C264 81.732 257.732 88 250 88C242.268 88 236 81.732 236 74C236 66.268 242.268 60 250 60C257.732 60 264 66.268 264 74ZM253.319 66.1809H251.556V65.1852C251.556 64.3261 250.859 63.6296 250 63.6296C249.141 63.6296 248.444 64.3261 248.444 65.1852V66.1891C248.004 66.2179 247.569 66.3124 247.155 66.4701C246.61 66.6775 246.111 66.9904 245.687 67.3907C245.263 67.7911 244.922 68.271 244.683 68.8032C244.445 69.3354 244.313 69.9094 244.297 70.4924C244.296 70.5158 244.296 70.5393 244.297 70.5628C244.312 71.4509 244.598 72.3132 245.117 73.034C245.632 73.749 246.351 74.2909 247.18 74.5885L251.727 76.3245L251.763 76.338C252.002 76.4225 252.21 76.5782 252.358 76.7842C252.5 76.9806 252.581 77.2139 252.592 77.4553C252.583 77.6174 252.544 77.7766 252.478 77.9249C252.406 78.0841 252.304 78.2276 252.178 78.3474C252.051 78.4671 251.902 78.5607 251.739 78.6227C251.576 78.6848 251.402 78.7141 251.228 78.709L251.182 78.7083H250.021L250 78.7082L249.979 78.7083H246.681C245.822 78.7083 245.126 79.4048 245.126 80.2639C245.126 81.123 245.822 81.8194 246.681 81.8194H248.444V82.8149C248.444 83.674 249.141 84.3704 250 84.3704C250.859 84.3704 251.556 83.674 251.556 82.8149V81.8112C251.996 81.7824 252.431 81.688 252.845 81.5303C253.39 81.3228 253.889 81.01 254.313 80.6096C254.737 80.2093 255.078 79.7293 255.317 79.1971C255.555 78.6649 255.687 78.0909 255.703 77.508C255.704 77.4845 255.704 77.461 255.703 77.4375C255.688 76.5494 255.402 75.6872 254.883 74.9663C254.368 74.2513 253.649 73.7094 252.82 73.4119L248.273 71.6758L248.237 71.6624C247.998 71.5778 247.79 71.4221 247.642 71.2162C247.5 71.0197 247.419 70.7864 247.408 70.545C247.417 70.3829 247.456 70.2238 247.522 70.0754C247.594 69.9163 247.696 69.7727 247.822 69.653C247.949 69.5332 248.098 69.4397 248.261 69.3776C248.424 69.3156 248.598 69.2863 248.772 69.2914L248.818 69.292H253.319C254.178 69.292 254.874 68.5956 254.874 67.7365C254.874 66.8774 254.178 66.1809 253.319 66.1809Z" fill="#111111"/>
</g>
<defs>
<clipPath id="clip0_3108_2488">
<rect width="264" height="108" rx="5" fill="white"/>
</clipPath>
<clipPath id="clip1_3108_2488">
<rect width="12" height="12" fill="white" transform="translate(0 18)"/>
</clipPath>
<clipPath id="clip2_3108_2488">
<rect width="16" height="16" fill="white" transform="translate(24 16)"/>
</clipPath>
<clipPath id="clip3_3108_2488">
<rect width="20" height="20" fill="white" transform="translate(52 14)"/>
</clipPath>
<clipPath id="clip4_3108_2488">
<rect width="24" height="24" fill="white" transform="translate(84 12)"/>
</clipPath>
<clipPath id="clip5_3108_2488">
<rect width="32" height="32" fill="white" transform="translate(120 8)"/>
</clipPath>
<clipPath id="clip6_3108_2488">
<rect width="40" height="40" fill="white" transform="translate(164 4)"/>
</clipPath>
<clipPath id="clip7_3108_2488">
<rect width="48" height="48" fill="white" transform="translate(216)"/>
</clipPath>
</defs>
</svg>
