<svg width="264" height="108" viewBox="0 0 264 108" fill="none" xmlns="http://www.w3.org/2000/svg">
<g clip-path="url(#clip0_5111_1021)">
<path d="M10.5 19.5L1.5 28.5M11.25 27.375C11.25 28.4104 10.4107 29.2498 9.37528 29.25C8.33985 29.2502 7.50031 28.411 7.5 27.3756C7.49969 26.3401 8.33874 25.5005 9.37417 25.5C9.87159 25.4998 10.3487 25.6972 10.7005 26.0489C11.0523 26.4005 11.25 26.8776 11.25 27.375ZM4.5 20.625C4.5 19.5896 3.6607 18.7502 2.62528 18.75C1.58985 18.7498 0.750307 19.589 0.75 20.6244C0.749693 21.6599 1.58874 22.4995 2.62417 22.5C3.65984 22.5 4.49954 21.6607 4.5 20.625Z" stroke="#111111" stroke-width="0.75" stroke-linecap="round" stroke-linejoin="round"/>
<path d="M38 18L26 30M39 28.5C39 29.8806 37.8809 30.9998 36.5004 31C35.1198 31.0002 34.0004 29.8813 34 28.5007C33.9996 27.1202 35.1183 26.0006 36.4989 26C37.1621 25.9997 37.7983 26.263 38.2674 26.7318C38.7365 27.2007 39 27.8368 39 28.5ZM30 19.5C30 18.1194 28.8809 17.0002 27.5004 17C26.1198 16.9998 25.0004 18.1187 25 19.4993C24.9996 20.8798 26.1183 21.9994 27.4989 22C28.8798 22 29.9994 20.8809 30 19.5Z" stroke="#111111" stroke-linecap="round" stroke-linejoin="round"/>
<path d="M69.5 16.5L54.5 31.5M70.75 29.625C70.75 31.3507 69.3512 32.7497 67.6255 32.75C65.8998 32.7503 64.5005 31.3516 64.5 29.6259C64.4995 27.9002 65.8979 26.5008 67.6236 26.5C68.4527 26.4996 69.2479 26.8287 69.8342 27.4148C70.4206 28.0009 70.75 28.796 70.75 29.625ZM59.5 18.375C59.5 16.6493 58.1012 15.2503 56.3755 15.25C54.6498 15.2497 53.2505 16.6484 53.25 18.3741C53.2495 20.0998 54.6479 21.4992 56.3736 21.5C58.0997 21.5 59.4992 20.1011 59.5 18.375Z" stroke="#111111" stroke-width="1.25" stroke-linecap="round" stroke-linejoin="round"/>
<path d="M105 15L87 33M106 30C106 32.2089 104.209 33.9997 102.001 34C99.7917 34.0003 98.0007 32.2101 98 30.0012C97.9993 27.7923 99.7893 26.001 101.998 26C103.059 25.9995 104.077 26.4207 104.828 27.1709C105.578 27.9211 106 28.9388 106 30ZM94 18C94 15.7911 92.2095 14.0003 90.0006 14C87.7917 13.9997 86.0007 15.7899 86 17.9988C85.9993 20.2077 87.7893 21.999 89.9982 22C92.2076 22 93.999 20.2094 94 18Z" stroke="#111111" stroke-width="1.5" stroke-linecap="round" stroke-linejoin="round"/>
<path d="M148 12L124 36M150 33C150 35.7611 147.762 37.9996 145.001 38C142.24 38.0004 140.001 35.7626 140 33.0015C139.999 30.2403 142.237 28.0012 144.998 28C146.324 27.9994 147.597 28.5259 148.535 29.4637C149.473 30.4014 150 31.6735 150 33ZM132 15C132 12.2389 129.762 10.0004 127.001 10C124.24 9.99959 122.001 12.2374 122 14.9985C121.999 17.7597 124.237 19.9988 126.998 20C129.76 20 131.999 17.7618 132 15Z" stroke="#111111" stroke-width="2" stroke-linecap="round" stroke-linejoin="round"/>
<path d="M199 9L169 39M201.5 35.25C201.5 38.7014 198.702 41.4995 195.251 41.5C191.8 41.5005 189.001 38.7033 189 35.2519C188.999 31.8004 191.796 29.0015 195.247 29C196.905 28.9993 198.496 29.6574 199.668 30.8296C200.841 32.0018 201.5 33.5919 201.5 35.25ZM179 12.75C179 9.29858 176.202 6.50051 172.751 6.5C169.3 6.49949 166.501 9.29673 166.5 12.7481C166.499 16.1996 169.296 18.9985 172.747 19C176.199 19 178.998 16.2022 179 12.75Z" stroke="#111111" stroke-width="2.5" stroke-linecap="round" stroke-linejoin="round"/>
<path d="M258 6L222 42M261 37.5C261 41.6417 257.643 44.9994 253.501 45C249.359 45.0006 246.001 41.6439 246 37.5022C245.999 33.3605 249.355 30.0018 253.497 30C255.486 29.9991 257.395 30.7889 258.802 32.1955C260.209 33.6021 261 35.5103 261 37.5ZM234 10.5C234 6.3583 230.643 3.00061 226.501 3C222.359 2.99939 219.001 6.35608 219 10.4978C218.999 14.6395 222.355 17.9982 226.497 18C230.639 18 233.998 14.6427 234 10.5Z" stroke="#111111" stroke-width="3" stroke-linecap="round" stroke-linejoin="round"/>
<path fill-rule="evenodd" clip-rule="evenodd" d="M12 87C12 88.1045 11.1047 88.9998 10.0003 89C8.89584 89.0002 8.00033 88.105 8 87.0006C7.99967 85.8961 8.89466 85.0005 9.99911 85C10.5297 84.9998 11.0386 85.2104 11.4139 85.5855C11.7892 85.9606 12 86.4694 12 87Z" fill="#111111"/>
<path fill-rule="evenodd" clip-rule="evenodd" d="M4 81C4 79.8955 3.10475 79.0002 2.0003 79C0.895842 78.9998 0.000327299 79.895 8.96929e-08 80.9994C-0.00032712 82.1039 0.894657 82.9995 1.99911 83C3.10382 83 3.99951 82.1047 4 81Z" fill="#111111"/>
<path fill-rule="evenodd" clip-rule="evenodd" d="M11.3536 78.6464C11.5488 78.8417 11.5488 79.1583 11.3536 79.3536L1.35355 89.3536C1.15829 89.5488 0.841709 89.5488 0.646447 89.3536C0.451185 89.1583 0.451185 88.8417 0.646447 88.6464L10.6464 78.6464C10.8417 78.4512 11.1583 78.4512 11.3536 78.6464Z" fill="#111111"/>
<path fill-rule="evenodd" clip-rule="evenodd" d="M40 88C40 89.4726 38.8063 90.6665 37.3337 90.6667C35.8611 90.6669 34.6671 89.4734 34.6667 88.0008C34.6662 86.5282 35.8595 85.334 37.3321 85.3333C38.0396 85.333 38.7182 85.6138 39.2185 86.114C39.7189 86.6141 40 87.2926 40 88Z" fill="#111111"/>
<path fill-rule="evenodd" clip-rule="evenodd" d="M29.3333 80C29.3333 78.5274 28.1397 77.3336 26.6671 77.3333C25.1945 77.3331 24.0004 78.5266 24 79.9992C23.9996 81.4718 25.1929 82.666 26.6655 82.6667C28.1384 82.6667 29.3327 81.473 29.3333 80Z" fill="#111111"/>
<path fill-rule="evenodd" clip-rule="evenodd" d="M39.1381 76.8619C39.3984 77.1223 39.3984 77.5444 39.1381 77.8047L25.8047 91.1381C25.5444 91.3984 25.1223 91.3984 24.8619 91.1381C24.6016 90.8777 24.6016 90.4556 24.8619 90.1953L38.1953 76.8619C38.4556 76.6016 38.8777 76.6016 39.1381 76.8619Z" fill="#111111"/>
<path fill-rule="evenodd" clip-rule="evenodd" d="M72 89C72 90.8408 70.5079 92.3331 68.6672 92.3333C66.8264 92.3336 65.3339 90.8417 65.3333 89.001C65.3328 87.1602 66.8244 85.6675 68.6652 85.6667C69.5495 85.6663 70.3977 86.0173 71.0232 86.6424C71.6486 87.2676 72 88.1157 72 89Z" fill="#111111"/>
<path fill-rule="evenodd" clip-rule="evenodd" d="M58.6667 79C58.6667 77.1592 57.1746 75.6669 55.3338 75.6667C53.4931 75.6664 52.0005 77.1583 52 78.999C51.9995 80.8398 53.4911 82.3325 55.3319 82.3333C57.173 82.3333 58.6658 80.8412 58.6667 79Z" fill="#111111"/>
<path fill-rule="evenodd" clip-rule="evenodd" d="M70.9226 75.0774C71.248 75.4028 71.248 75.9305 70.9226 76.2559L54.2559 92.9226C53.9305 93.248 53.4028 93.248 53.0774 92.9226C52.752 92.5971 52.752 92.0695 53.0774 91.7441L69.7441 75.0774C70.0695 74.752 70.5972 74.752 70.9226 75.0774Z" fill="#111111"/>
<path fill-rule="evenodd" clip-rule="evenodd" d="M108 90C108 92.2089 106.209 93.9997 104.001 94C101.792 94.0003 100.001 92.2101 100 90.0012C99.9993 87.7923 101.789 86.001 103.998 86C105.059 85.9995 106.077 86.4207 106.828 87.1709C107.578 87.9211 108 88.9388 108 90Z" fill="#111111"/>
<path fill-rule="evenodd" clip-rule="evenodd" d="M92 78C92 75.7911 90.2095 74.0003 88.0006 74C85.7917 73.9997 84.0007 75.7899 84 77.9988C83.9993 80.2077 85.7893 81.999 87.9982 82C90.2076 82 91.999 80.2094 92 78Z" fill="#111111"/>
<path fill-rule="evenodd" clip-rule="evenodd" d="M106.707 73.2929C107.098 73.6834 107.098 74.3166 106.707 74.7071L86.7071 94.7071C86.3166 95.0976 85.6834 95.0976 85.2929 94.7071C84.9024 94.3166 84.9024 93.6834 85.2929 93.2929L105.293 73.2929C105.683 72.9024 106.317 72.9024 106.707 73.2929Z" fill="#111111"/>
<path fill-rule="evenodd" clip-rule="evenodd" d="M152 92C152 94.9452 149.613 97.3329 146.667 97.3333C143.722 97.3338 141.334 94.9468 141.333 92.0016C141.332 89.0564 143.719 86.668 146.664 86.6667C148.079 86.666 149.436 87.2277 150.437 88.2279C151.438 89.2282 152 90.5851 152 92Z" fill="#111111"/>
<path fill-rule="evenodd" clip-rule="evenodd" d="M130.667 76C130.667 73.0548 128.279 70.6671 125.334 70.6667C122.389 70.6662 120.001 73.0532 120 75.9984C119.999 78.9436 122.386 81.332 125.331 81.3333C128.277 81.3333 130.665 78.9459 130.667 76Z" fill="#111111"/>
<path fill-rule="evenodd" clip-rule="evenodd" d="M150.276 69.7239C150.797 70.2446 150.797 71.0888 150.276 71.6095L123.609 98.2761C123.089 98.7968 122.245 98.7968 121.724 98.2761C121.203 97.7554 121.203 96.9112 121.724 96.3905L148.391 69.7239C148.911 69.2032 149.755 69.2032 150.276 69.7239Z" fill="#111111"/>
<path fill-rule="evenodd" clip-rule="evenodd" d="M204 94C204 97.6815 201.016 100.666 197.334 100.667C193.653 100.667 190.668 97.6835 190.667 94.002C190.666 90.3205 193.649 87.335 197.33 87.3333C199.099 87.3326 200.795 88.0346 202.046 89.2849C203.297 90.5352 204 92.2314 204 94Z" fill="#111111"/>
<path fill-rule="evenodd" clip-rule="evenodd" d="M177.333 74C177.333 70.3185 174.349 67.3339 170.668 67.3333C166.986 67.3328 164.001 70.3165 164 73.998C163.999 77.6795 166.982 80.665 170.664 80.6667C174.346 80.6667 177.332 77.6824 177.333 74Z" fill="#111111"/>
<path fill-rule="evenodd" clip-rule="evenodd" d="M201.845 66.1548C202.496 66.8057 202.496 67.861 201.845 68.5118L168.512 101.845C167.861 102.496 166.806 102.496 166.155 101.845C165.504 101.194 165.504 100.139 166.155 99.4882L199.488 66.1548C200.139 65.504 201.194 65.504 201.845 66.1548Z" fill="#111111"/>
<path fill-rule="evenodd" clip-rule="evenodd" d="M264 96C264 100.418 260.419 103.999 256.001 104C251.583 104.001 248.001 100.42 248 96.0024C247.999 91.5846 251.579 88.002 255.996 88C258.119 87.9991 260.155 88.8415 261.656 90.3419C263.157 91.8423 264 93.8777 264 96Z" fill="#111111"/>
<path fill-rule="evenodd" clip-rule="evenodd" d="M232 72C232 67.5822 228.419 64.0007 224.001 64C219.583 63.9993 216.001 67.5798 216 71.9976C215.999 76.4154 219.579 79.998 223.996 80C228.415 80 231.998 76.4189 232 72Z" fill="#111111"/>
<path fill-rule="evenodd" clip-rule="evenodd" d="M261.414 62.5858C262.195 63.3668 262.195 64.6332 261.414 65.4142L221.414 105.414C220.633 106.195 219.367 106.195 218.586 105.414C217.805 104.633 217.805 103.367 218.586 102.586L258.586 62.5858C259.367 61.8047 260.633 61.8047 261.414 62.5858Z" fill="#111111"/>
</g>
<defs>
<clipPath id="clip0_5111_1021">
<rect width="264" height="108" rx="5" fill="white"/>
</clipPath>
</defs>
</svg>
