<svg width="264" height="108" viewBox="0 0 264 108" fill="none" xmlns="http://www.w3.org/2000/svg">
<g clip-path="url(#clip0_2091_226)">
<g clip-path="url(#clip1_2091_226)">
<path d="M7.6709 26.707C7.89755 26.9336 8.17063 27.0969 8.46777 27.1924L6.91699 28.7451C6.44232 29.2198 5.69069 29.2495 5.18164 28.834L5.08398 28.7451L3.56543 27.2275C3.83869 27.1552 4.09428 27.0273 4.31543 26.8457L4.46191 26.7129L6.06836 25.1045L7.6709 26.707ZM3.05371 21.9395C3.2024 21.9395 3.35019 21.9845 3.47363 22.0664L3.58789 22.1602L5.24414 23.8164C5.3178 23.89 5.40013 23.9502 5.48633 24C5.43213 24.0305 5.38021 24.0657 5.33105 24.1055L5.24414 24.1836L3.58789 25.8398C3.44795 25.9798 3.25186 26.0605 3.05371 26.0605H2.39941L1.25488 24.916C0.780329 24.4414 0.75051 23.6907 1.16602 23.1816L1.25488 23.084L2.39941 21.9395H3.05371ZM9.07812 21.9453H9.60742L10.7451 23.084C11.2197 23.5587 11.2495 24.3093 10.834 24.8184L10.7451 24.916L9.60742 26.0547H9.07812C8.92956 26.0546 8.78255 26.0087 8.65918 25.9268L8.54395 25.834V25.833L6.89453 24.1836C6.82105 24.1101 6.73811 24.0502 6.65039 24.001C6.70395 23.9702 6.75656 23.9365 6.80566 23.8965L6.89453 23.8164L8.54395 22.167V22.166C8.68384 22.026 8.88005 21.9454 9.07812 21.9453ZM5.08398 19.2549C5.55858 18.7803 6.30924 18.7505 6.81836 19.166L6.91699 19.2549L8.46777 20.8066C8.23205 20.8824 8.01151 21.0008 7.81738 21.1602L7.6709 21.293L6.06836 22.8945L4.46191 21.2871C4.21016 21.0355 3.90127 20.8603 3.56543 20.7715L5.08398 19.2549Z" stroke="#111111" stroke-width="0.75"/>
</g>
<path d="M34.1104 27.4609V27.4619C34.3926 27.744 34.7314 27.9491 35.0996 28.0732L33.1504 30.0234C32.5547 30.619 31.6126 30.6559 30.9736 30.1348L30.8496 30.0234L28.9453 28.1191C29.2817 28.0245 29.5965 27.8642 29.8701 27.6396L30.0586 27.4688L32.0879 25.4385L34.1104 27.4609ZM28.25 21.3994C28.4655 21.3994 28.6792 21.4773 28.8457 21.6133L28.9141 21.6748L31.0225 23.7822C31.1081 23.8678 31.2018 23.9403 31.3008 24.001C31.2433 24.0354 31.1876 24.0735 31.1348 24.1162L31.0215 24.2178L28.9141 26.3252C28.7402 26.4992 28.4963 26.6006 28.25 26.6006H27.4268L25.9766 25.1504C25.3809 24.5548 25.3441 23.6126 25.8652 22.9736L25.9766 22.8496L27.4268 21.3994H28.25ZM35.918 21.4072H36.5811L38.0234 22.8496C38.619 23.4452 38.6559 24.3874 38.1348 25.0264L38.0234 25.1504L36.5811 26.5928H35.918C35.7024 26.5927 35.4888 26.515 35.3223 26.3789L35.2539 26.3174L33.1543 24.2178C33.0691 24.1325 32.9743 24.061 32.874 24.001C32.931 23.9661 32.9872 23.9288 33.04 23.8857L33.1543 23.7822L35.2539 21.6826C35.4278 21.5086 35.6718 21.4073 35.918 21.4072ZM30.8496 17.9766C31.4453 17.3808 32.3883 17.3436 33.0273 17.8652L33.1504 17.9766L35.0996 19.9258C34.8099 20.0235 34.5386 20.1714 34.2988 20.3682L34.1104 20.5381V20.5391L32.0879 22.5605L30.0586 20.5312C29.7449 20.2177 29.3618 19.997 28.9453 19.8799L30.8496 17.9766Z" stroke="#111111"/>
<path d="M64.7256 28.4375C65.0934 28.8051 65.5354 29.0737 66.0166 29.2314L63.4922 31.7568C62.7199 32.529 61.4975 32.5778 60.6689 31.9023L60.5088 31.7568L58.04 29.2891C58.5323 29.1554 58.9882 28.9084 59.373 28.5596L59.4912 28.4473L62.1133 25.8252L64.7256 28.4375ZM57.1787 20.6387C57.4599 20.6387 57.7389 20.7397 57.9561 20.917L58.0449 20.998L60.7549 23.708C60.8717 23.8248 61.0015 23.9216 61.1377 24.002C61.0549 24.0497 60.974 24.1021 60.8984 24.1631L60.7549 24.292L58.0449 27.002C57.818 27.229 57.5001 27.3613 57.1787 27.3613H56.1123L54.2432 25.4912C53.471 24.719 53.4222 23.4975 54.0977 22.6689L54.2432 22.5088L56.1123 20.6387H57.1787ZM67.0371 20.6484H67.8965L69.7568 22.5088C70.529 23.281 70.5778 24.5025 69.9023 25.3311L69.7568 25.4912L67.8965 27.3516H67.0371C66.7562 27.3515 66.4778 27.2504 66.2607 27.0732L66.1719 26.9922H66.1709L63.4717 24.293C63.3556 24.1767 63.2258 24.0804 63.0879 24.001C63.1697 23.9527 63.2508 23.9013 63.3262 23.8398L63.4717 23.708L66.1719 21.0078C66.3987 20.7809 66.716 20.6486 67.0371 20.6484ZM60.5088 16.2432C61.2811 15.4709 62.5034 15.4218 63.332 16.0977L63.4922 16.2432L66.0166 18.7676C65.5856 18.9088 65.1866 19.1394 64.8438 19.4502L64.7256 19.5625L62.1123 22.1748L59.4912 19.5527H59.4902C59.082 19.1447 58.5835 18.8575 58.04 18.71L60.5088 16.2432Z" stroke="#111111" stroke-width="1.25"/>
<path d="M99.165 29.1924H99.166C99.5892 29.6152 100.096 29.926 100.647 30.1123L97.7256 33.0352C96.8322 33.9285 95.4184 33.9846 94.46 33.2031L94.2744 33.0352L91.4209 30.1816C91.9847 30.0227 92.5071 29.7366 92.9492 29.3359L93.0869 29.2041L93.0879 29.2031L96.1318 26.1582L99.165 29.1924ZM90.376 20.0996C90.699 20.0997 91.019 20.2153 91.2686 20.4189L91.3711 20.5117V20.5127L94.5332 23.6738C94.6621 23.8026 94.8041 23.9108 94.9531 24.002C94.8664 24.0538 94.7819 24.1104 94.7021 24.1748L94.5332 24.3262H94.5322L91.3711 27.4873V27.4883C91.1104 27.749 90.7451 27.9003 90.376 27.9004H89.1396L86.9648 25.7256C86.0715 24.8322 86.0153 23.4185 86.7969 22.46L86.9648 22.2744L89.1396 20.0996H90.376ZM101.877 20.1113H102.873L105.035 22.2744C105.928 23.1678 105.985 24.5815 105.203 25.54L105.035 25.7256L102.873 27.8887H101.877C101.554 27.8886 101.234 27.773 100.984 27.5693L100.882 27.4766H100.881L97.7314 24.3262C97.6035 24.1982 97.4611 24.091 97.3105 24.001C97.3959 23.9488 97.4804 23.8936 97.5596 23.8291L97.7314 23.6738L100.882 20.5234C101.143 20.2626 101.508 20.1114 101.877 20.1113ZM94.2744 14.9648C95.1677 14.0715 96.5814 14.0154 97.54 14.7969L97.7256 14.9648L100.647 17.8867C100.154 18.0532 99.6972 18.3192 99.3037 18.6758L99.165 18.8076L96.1318 21.8408L93.0869 18.7969V18.7959C92.6169 18.3262 92.0446 17.9932 91.4209 17.8174L94.2744 14.9648Z" stroke="#111111" stroke-width="1.5"/>
<path d="M140.221 30.9229C140.785 31.4868 141.46 31.9019 142.196 32.1504L138.301 36.0469C137.07 37.2779 135.097 37.3164 133.82 36.1621L133.699 36.0469L129.894 32.2422C130.646 32.0304 131.342 31.6486 131.932 31.1143L132.116 30.9385L136.176 26.8779L140.221 30.9229ZM128.501 18.7998C128.932 18.7998 129.359 18.954 129.691 19.2256L129.828 19.3496L134.044 23.5654C134.216 23.7371 134.406 23.8804 134.604 24.002C134.446 24.0965 134.294 24.2042 134.154 24.3301L134.044 24.4346V24.4355L129.828 28.6504C129.48 28.9983 128.993 29.2002 128.501 29.2002H126.853L123.953 26.3008C122.722 25.0697 122.684 23.0976 123.838 21.8203L123.953 21.6992L126.853 18.7998H128.501ZM143.836 18.8145H145.162L148.047 21.6992C149.278 22.9304 149.316 24.9024 148.162 26.1797L148.047 26.3008L145.162 29.1855H143.836C143.405 29.1855 142.978 29.0305 142.646 28.7588L142.509 28.6348L138.309 24.4355H138.31C138.139 24.2648 137.949 24.1221 137.748 24.002C137.904 23.9063 138.056 23.7986 138.196 23.6719L138.309 23.5645L142.509 19.3652C142.857 19.0173 143.344 18.8145 143.836 18.8145ZM133.699 11.9531C134.93 10.7221 136.902 10.6836 138.18 11.8379L138.301 11.9531L142.196 15.8486C141.539 16.0706 140.93 16.4259 140.405 16.9014L140.221 17.0771L136.176 21.1211L132.116 17.0615L131.932 16.8857C131.342 16.3514 130.646 15.9696 129.894 15.7578L133.699 11.9531Z" stroke="#111111" stroke-width="2"/>
<path d="M189.275 32.6533H189.276C189.982 33.3582 190.825 33.8779 191.745 34.1885L186.876 39.0586C185.337 40.5972 182.873 40.6453 181.276 39.2031L181.124 39.0586L176.367 34.3018C177.307 34.0369 178.178 33.5606 178.915 32.8926L179.146 32.6729L184.22 27.5967L189.275 32.6533ZM174.626 17.499C175.165 17.499 175.698 17.6926 176.114 18.0322L176.285 18.1865L181.556 23.457C181.769 23.6702 182.002 23.8516 182.249 24.0029C182.053 24.1206 181.866 24.2569 181.692 24.4131L181.555 24.5439L176.285 29.8135C175.851 30.2482 175.242 30.5 174.626 30.5H172.565L168.941 26.876C167.403 25.3372 167.354 22.872 168.797 21.2754L168.941 21.124L172.566 17.499H174.626ZM193.795 17.5186H195.453L199.059 21.124C200.597 22.6629 200.646 25.128 199.203 26.7246L199.059 26.876L195.453 30.4814H193.795C193.256 30.4814 192.723 30.288 192.307 29.9482L192.136 29.7939L186.886 24.5439C186.674 24.3323 186.44 24.1523 186.191 24.0029C186.385 23.884 186.571 23.747 186.745 23.5898L186.886 23.4561L192.136 18.2061C192.57 17.7711 193.179 17.5186 193.795 17.5186ZM184.026 20.5967L184.024 20.5977C184.026 20.5961 184.028 20.5943 184.029 20.5928L184.026 20.5967ZM181.124 8.94141C182.663 7.40273 185.128 7.3542 186.725 8.79688L186.876 8.94141L191.745 13.8105C190.923 14.088 190.163 14.5327 189.507 15.127L189.275 15.3467L184.22 20.4023L179.146 15.3271L178.915 15.1074C178.178 14.4394 177.307 13.9621 176.367 13.6973L181.124 8.94141Z" stroke="#111111" stroke-width="2.5"/>
<path d="M246.331 34.3838V34.3848C247.177 35.2308 248.191 35.8529 249.295 36.2256L243.451 42.0703C241.605 43.9166 238.647 43.9747 236.731 42.2441L236.549 42.0703L230.841 36.3623C231.969 36.0445 233.013 35.4724 233.897 34.6709L234.175 34.4072L240.264 28.3164L246.331 34.3838ZM228.751 16.1992C229.397 16.1992 230.038 16.4313 230.537 16.8389L230.742 17.0244H230.743L237.066 23.3477C237.323 23.6037 237.603 23.8212 237.899 24.0029C237.664 24.144 237.44 24.3078 237.231 24.4951L237.065 24.6523L230.743 30.9756H230.742C230.221 31.4975 229.49 31.8008 228.751 31.8008H226.279L221.93 27.4512C220.083 25.6047 220.026 22.6474 221.757 20.7314L221.93 20.5488L226.279 16.1992H228.751ZM251.754 16.2227H253.744L258.07 20.5488C259.917 22.3952 259.975 25.3526 258.244 27.2686L258.07 27.4512L253.744 31.7773H251.754C251.108 31.7772 250.467 31.5455 249.968 31.1377L249.763 30.9531V30.9521L243.463 24.6533C243.209 24.3993 242.929 24.1832 242.63 24.0039C242.863 23.8611 243.086 23.6965 243.295 23.5078L243.463 23.3477L249.763 17.0479V17.0469C250.284 16.5249 251.015 16.2228 251.754 16.2227ZM240.031 19.916L240.029 19.917C240.031 19.9154 240.033 19.9137 240.034 19.9121L240.031 19.916ZM236.549 5.92969C238.395 4.08318 241.353 4.02535 243.27 5.75684L243.451 5.92969L249.295 11.7734C248.309 12.1063 247.394 12.6383 246.607 13.3516L246.331 13.6152V13.6162L240.264 19.6826L234.175 13.5928C233.235 12.653 232.089 11.9883 230.841 11.6367L236.549 5.92969Z" stroke="#111111" stroke-width="3"/>
<g clip-path="url(#clip2_2091_226)">
<path d="M9.07853 86.9149C8.64697 86.9149 8.24106 86.7469 7.93587 86.4419L6.286 84.792C6.17015 84.6758 5.96826 84.6762 5.85247 84.792L4.19656 86.4479C3.89137 86.7529 3.48546 86.921 3.0539 86.921H2.72876L4.8184 89.0106C5.47097 89.6631 6.52906 89.6631 7.18169 89.0106L9.27726 86.9149H9.07853Z" fill="#111111"/>
<path d="M3.05388 81.079C3.48544 81.079 3.89135 81.247 4.19654 81.5521L5.85244 83.2083C5.9717 83.3276 6.16642 83.328 6.28597 83.2081L7.93585 81.5581C8.24104 81.2531 8.64694 81.085 9.0785 81.085H9.27723L7.18171 78.9895C6.52904 78.3368 5.47095 78.3368 4.81837 78.9895L2.72883 81.079L3.05388 81.079Z" fill="#111111"/>
<path d="M11.0106 82.8184L9.74424 81.552C9.71637 81.5632 9.68616 81.5701 9.65429 81.5701H9.07851C8.78084 81.5701 8.48945 81.6909 8.2791 81.9014L6.62928 83.5512C6.47488 83.7056 6.27201 83.7829 6.06932 83.7829C5.86644 83.7829 5.66371 83.7056 5.50937 83.5514L3.85331 81.8953C3.64296 81.6848 3.35157 81.5641 3.0539 81.5641H2.34592C2.31572 81.5641 2.2875 81.557 2.26086 81.547L0.989469 82.8184C0.336844 83.471 0.336844 84.529 0.989469 85.1816L2.26081 86.453C2.2875 86.443 2.31572 86.4358 2.34592 86.4358H3.0539C3.35157 86.4358 3.64296 86.3152 3.85331 86.1047L5.50921 84.4488C5.80852 84.1497 6.33027 84.1496 6.62928 84.4489L8.2791 86.0986C8.48945 86.3091 8.78084 86.4299 9.07851 86.4299H9.65429C9.68616 86.4299 9.71637 86.4368 9.74424 86.448L11.0106 85.1816C11.6632 84.529 11.6632 83.471 11.0106 82.8184Z" fill="#111111"/>
</g>
<path d="M35.9181 87.7099C35.3689 87.7099 34.8523 87.4961 34.4638 87.1078L32.364 85.0079C32.2166 84.8601 31.9596 84.8606 31.8122 85.0079L29.7047 87.1155C29.3163 87.5037 28.7997 87.7176 28.2504 87.7176H27.8366L30.4961 90.3771C31.3267 91.2076 32.6734 91.2076 33.504 90.3771L36.1711 87.7099H35.9181Z" fill="#111111"/>
<path d="M28.2504 80.2824C28.7997 80.2824 29.3163 80.4962 29.7047 80.8845L31.8122 82.9924C31.964 83.1442 32.2118 83.1448 32.364 82.9922L34.4638 80.8921C34.8522 80.5039 35.3688 80.29 35.9181 80.29H36.171L33.504 77.623C32.6733 76.7923 31.3267 76.7923 30.4961 77.623L27.8367 80.2824L28.2504 80.2824Z" fill="#111111"/>
<path d="M38.3771 82.4961L36.7654 80.8844C36.7299 80.8986 36.6915 80.9074 36.6509 80.9074H35.9181C35.5393 80.9074 35.1684 81.0611 34.9007 81.329L32.8009 83.4288C32.6044 83.6254 32.3462 83.7237 32.0882 83.7237C31.83 83.7237 31.572 83.6254 31.3756 83.429L29.2678 81.3213C29.0001 81.0534 28.6293 80.8998 28.2504 80.8998H27.3494C27.3109 80.8998 27.275 80.8907 27.2411 80.8779L25.623 82.4961C24.7923 83.3267 24.7923 84.6733 25.623 85.5039L27.241 87.122C27.275 87.1092 27.3109 87.1002 27.3494 87.1002H28.2504C28.6293 87.1002 29.0001 86.9466 29.2678 86.6787L31.3754 84.5711C31.7563 84.1905 32.4203 84.1904 32.8009 84.5713L34.9007 86.671C35.1684 86.9389 35.5393 87.0925 35.9181 87.0925H36.6509C36.6915 87.0925 36.7299 87.1014 36.7654 87.1156L38.3771 85.5039C39.2077 84.6733 39.2077 83.3267 38.3771 82.4961Z" fill="#111111"/>
<path d="M67.0376 88.7699C66.3314 88.7699 65.6672 88.4949 65.1678 87.9958L62.468 85.2959C62.2784 85.1059 61.9481 85.1064 61.7586 85.2959L59.0489 88.0057C58.5495 88.5048 57.8853 88.7798 57.1791 88.7798H56.6471L60.0665 92.1991C61.1343 93.267 62.8657 93.267 63.9337 92.1991L67.3628 88.7699H67.0376Z" fill="#111111"/>
<path d="M57.1791 79.2202C57.8853 79.2202 58.5495 79.4952 59.0489 79.9943L61.7585 82.7045C61.9537 82.8997 62.2723 82.9004 62.468 82.7042L65.1678 80.0042C65.6672 79.505 66.3314 79.2301 67.0375 79.2301H67.3627L63.9337 75.801C62.8657 74.733 61.1343 74.733 60.0664 75.801L56.6472 79.2202L57.1791 79.2202Z" fill="#111111"/>
<path d="M70.1992 82.0664L68.1269 79.9942C68.0813 80.0124 68.0319 80.0239 67.9797 80.0239H67.0376C66.5505 80.0239 66.0736 80.2214 65.7294 80.5659L63.0297 83.2657C62.7771 83.5183 62.4451 83.6447 62.1134 83.6447C61.7815 83.6447 61.4497 83.5183 61.1971 83.2659L58.4872 80.556C58.143 80.2115 57.6662 80.014 57.1791 80.014H56.0206C55.9712 80.014 55.925 80.0023 55.8814 79.9859L53.8009 82.0664C52.733 83.1343 52.733 84.8657 53.8009 85.9336L55.8813 88.014C55.925 87.9976 55.9712 87.9859 56.0206 87.9859H57.1791C57.6662 87.9859 58.143 87.7884 58.4872 87.444L61.1969 84.7343C61.6867 84.245 62.5404 84.2448 63.0297 84.7346L65.7294 87.4341C66.0736 87.7786 66.5505 87.9761 67.0376 87.9761H67.9797C68.0319 87.9761 68.0813 87.9875 68.1269 88.0058L70.1992 85.9336C71.267 84.8657 71.267 83.1343 70.1992 82.0664Z" fill="#111111"/>
<path d="M101.877 89.5649C101.053 89.5649 100.278 89.2441 99.6958 88.6618L96.546 85.5119C96.3248 85.2902 95.9394 85.2908 95.7183 85.5119L92.5571 88.6733C91.9744 89.2556 91.1995 89.5764 90.3756 89.5764H89.7549L93.7442 93.5656C94.99 94.8115 97.01 94.8115 98.256 93.5656L102.257 89.5649H101.877Z" fill="#111111"/>
<path d="M90.3756 78.4235C91.1995 78.4235 91.9744 78.7443 92.557 79.3267L95.7183 82.4885C95.946 82.7163 96.3177 82.7171 96.546 82.4883L99.6957 79.3382C100.278 78.7559 101.053 78.4351 101.877 78.4351H102.257L98.256 74.4344C97.01 73.1885 94.99 73.1885 93.7442 74.4344L89.755 78.4236L90.3756 78.4235Z" fill="#111111"/>
<path d="M105.566 81.7441L103.148 79.3265C103.095 79.3479 103.037 79.3612 102.976 79.3612H101.877C101.309 79.3612 100.753 79.5917 100.351 79.9935L97.2013 83.1433C96.9066 83.438 96.5193 83.5855 96.1323 83.5855C95.745 83.5855 95.358 83.438 95.0633 83.1436L91.9018 79.982C91.5002 79.5801 90.9439 79.3497 90.3756 79.3497H89.024C88.9664 79.3497 88.9125 79.3361 88.8617 79.3169L86.4344 81.7441C85.1885 82.99 85.1885 85.0099 86.4344 86.2559L88.8616 88.683C88.9125 88.6638 88.9664 88.6502 89.024 88.6502H90.3756C90.9439 88.6502 91.5002 88.4198 91.9018 88.018L95.063 84.8567C95.6344 84.2858 96.6305 84.2856 97.2013 84.857L100.351 88.0065C100.753 88.4083 101.309 88.6388 101.877 88.6388H102.976C103.037 88.6388 103.095 88.6521 103.148 88.6734L105.566 86.2559C106.812 85.0099 106.812 82.99 105.566 81.7441Z" fill="#111111"/>
<path d="M143.836 91.4199C142.738 91.4199 141.705 90.9921 140.928 90.2157L136.728 86.0159C136.433 85.7202 135.919 85.7211 135.624 86.0159L131.409 90.231C130.633 91.0075 129.599 91.4352 128.501 91.4352H127.673L132.992 96.7542C134.653 98.4153 137.347 98.4153 139.008 96.7542L144.342 91.4199H143.836Z" fill="#111111"/>
<path d="M128.501 76.5647C129.599 76.5647 130.633 76.9925 131.409 77.7689L135.624 81.9847C135.928 82.2884 136.424 82.2895 136.728 81.9843L140.928 77.7843C141.704 77.0078 142.738 76.5801 143.836 76.5801H144.342L139.008 71.2459C137.347 69.5847 134.653 69.5847 132.992 71.2459L127.673 76.5647L128.501 76.5647Z" fill="#111111"/>
<path d="M148.754 80.9922L145.531 77.7687C145.46 77.7971 145.383 77.8149 145.302 77.8149H143.836C143.079 77.8149 142.337 78.1222 141.801 78.658L137.602 82.8577C137.209 83.2507 136.692 83.4473 136.176 83.4473C135.66 83.4473 135.144 83.2507 134.751 82.8581L130.536 78.6427C130 78.1067 129.259 77.7995 128.501 77.7995H126.699C126.622 77.7995 126.55 77.7814 126.482 77.7559L123.246 80.9922C121.585 82.6534 121.585 85.3466 123.246 87.0078L126.482 90.244C126.55 90.2184 126.622 90.2003 126.699 90.2003H128.501C129.259 90.2003 130 89.8931 130.536 89.3573L134.751 85.1423C135.513 84.381 136.841 84.3808 137.602 85.1426L141.801 89.342C142.337 89.8777 143.079 90.1851 143.836 90.1851H145.302C145.383 90.1851 145.46 90.2028 145.531 90.2313L148.754 87.0078C150.415 85.3466 150.415 82.6534 148.754 80.9922Z" fill="#111111"/>
<path d="M193.795 93.2748C192.422 93.2748 191.131 92.7402 190.16 91.7696L184.91 86.5198C184.541 86.1503 183.899 86.1514 183.531 86.5198L178.262 91.7888C177.291 92.7594 175.999 93.294 174.626 93.294H173.592L180.24 99.9427C182.317 102.019 185.683 102.019 187.76 99.9427L194.428 93.2748H193.795Z" fill="#111111"/>
<path d="M174.626 74.7059C175.999 74.7059 177.291 75.2406 178.262 76.2111L183.531 81.4809C183.91 81.8605 184.53 81.8619 184.91 81.4804L190.16 76.2304C191.131 75.2598 192.422 74.7251 193.795 74.7251H194.428L187.76 68.0574C185.683 65.9809 182.317 65.9809 180.24 68.0574L173.592 74.7059L174.626 74.7059Z" fill="#111111"/>
<path d="M199.943 80.2402L195.913 76.2109C195.825 76.2464 195.729 76.2686 195.627 76.2686H193.795C192.848 76.2686 191.921 76.6528 191.252 77.3225L186.002 82.5721C185.511 83.0634 184.865 83.3092 184.221 83.3092C183.575 83.3092 182.93 83.0634 182.439 82.5726L177.17 77.3033C176.5 76.6334 175.573 76.2494 174.626 76.2494H172.373C172.277 76.2494 172.188 76.2268 172.103 76.1949L168.057 80.2402C165.981 82.3167 165.981 85.6832 168.057 87.7598L172.103 91.805C172.188 91.7731 172.277 91.7504 172.373 91.7504H174.626C175.573 91.7504 176.5 91.3664 177.17 90.6966L182.438 85.4279C183.391 84.4763 185.051 84.476 186.002 85.4283L191.252 90.6774C191.921 91.3472 192.848 91.7314 193.795 91.7314H195.627C195.729 91.7314 195.825 91.7535 195.913 91.7891L199.943 87.7598C202.019 85.6832 202.019 82.3167 199.943 80.2402Z" fill="#111111"/>
<path d="M251.754 95.1298C250.107 95.1298 248.557 94.4882 247.392 93.3235L241.092 87.0238C240.65 86.5804 239.879 86.5817 239.437 87.0238L233.114 93.3465C231.949 94.5112 230.399 95.1528 228.751 95.1528H227.51L235.488 103.131C237.98 105.623 242.02 105.623 244.512 103.131L252.513 95.1298H251.754Z" fill="#111111"/>
<path d="M228.751 72.8471C230.399 72.8471 231.949 73.4887 233.114 74.6534L239.437 80.9771C239.892 81.4326 240.635 81.4343 241.092 80.9765L247.391 74.6764C248.557 73.5117 250.107 72.8701 251.754 72.8701H252.513L244.512 64.8689C242.02 62.377 237.98 62.377 235.488 64.8689L227.51 72.8471L228.751 72.8471Z" fill="#111111"/>
<path d="M259.131 79.4883L254.296 74.6531C254.19 74.6957 254.074 74.7223 253.953 74.7223H251.754C250.618 74.7223 249.505 75.1833 248.702 75.987L242.403 82.2865C241.813 82.8761 241.039 83.171 240.265 83.171C239.49 83.171 238.716 82.8761 238.127 82.2871L231.804 75.964C231 75.1601 229.888 74.6993 228.751 74.6993H226.048C225.933 74.6993 225.825 74.6721 225.723 74.6338L220.869 79.4883C218.377 81.9801 218.377 86.0199 220.869 88.5117L225.723 93.366C225.825 93.3277 225.933 93.3005 226.048 93.3005H228.751C229.888 93.3005 231 92.8397 231.804 92.036L238.126 85.7134C239.269 84.5716 241.261 84.5712 242.403 85.714L248.702 92.0129C249.505 92.8166 250.618 93.2776 251.754 93.2776H253.953C254.074 93.2776 254.19 93.3042 254.296 93.3469L259.131 88.5117C261.623 86.0199 261.623 81.9801 259.131 79.4883Z" fill="#111111"/>
</g>
<defs>
<clipPath id="clip0_2091_226">
<rect width="264" height="108" rx="5" fill="white"/>
</clipPath>
<clipPath id="clip1_2091_226">
<rect width="12" height="12" fill="white" transform="translate(0 18)"/>
</clipPath>
<clipPath id="clip2_2091_226">
<rect width="12" height="12" fill="white" transform="translate(0 78)"/>
</clipPath>
</defs>
</svg>
