<svg width="264" height="108" viewBox="0 0 264 108" fill="none" xmlns="http://www.w3.org/2000/svg">
<g clip-path="url(#clip0_3549_448)">
<path d="M4.125 25.125L6 27M6 27L7.875 25.125M6 27V21.375M6 29.625C9.1066 29.625 11.625 27.1066 11.625 24C11.625 20.8934 9.1066 18.375 6 18.375C2.8934 18.375 0.375 20.8934 0.375 24C0.375 27.1066 2.8934 29.625 6 29.625Z" stroke="#111111" stroke-width="0.75" stroke-linecap="round" stroke-linejoin="round"/>
<path d="M29.5 25.5L32 28M32 28L34.5 25.5M32 28V20.5M32 31.5C36.1421 31.5 39.5 28.1421 39.5 24C39.5 19.8579 36.1421 16.5 32 16.5C27.8579 16.5 24.5 19.8579 24.5 24C24.5 28.1421 27.8579 31.5 32 31.5Z" stroke="#111111" stroke-linecap="round" stroke-linejoin="round"/>
<path d="M58.875 25.875L62 29M62 29L65.125 25.875M62 29V19.625M62 33.375C67.1777 33.375 71.375 29.1777 71.375 24C71.375 18.8223 67.1777 14.625 62 14.625C56.8223 14.625 52.625 18.8223 52.625 24C52.625 29.1777 56.8223 33.375 62 33.375Z" stroke="#111111" stroke-width="1.25" stroke-linecap="round" stroke-linejoin="round"/>
<path d="M92.25 26.25L96 30M96 30L99.75 26.25M96 30V18.75M96 35.25C102.213 35.25 107.25 30.2132 107.25 24C107.25 17.7868 102.213 12.75 96 12.75C89.7868 12.75 84.75 17.7868 84.75 24C84.75 30.2132 89.7868 35.25 96 35.25Z" stroke="#111111" stroke-width="1.5" stroke-linecap="round" stroke-linejoin="round"/>
<path d="M131 27L136 32M136 32L141 27M136 32V17M136 39C144.284 39 151 32.2843 151 24C151 15.7157 144.284 9 136 9C127.716 9 121 15.7157 121 24C121 32.2843 127.716 39 136 39Z" stroke="#111111" stroke-width="2" stroke-linecap="round" stroke-linejoin="round"/>
<path d="M177.75 27.75L184 34M184 34L190.25 27.75M184 34V15.25M184 42.75C194.355 42.75 202.75 34.3553 202.75 24C202.75 13.6447 194.355 5.25 184 5.25C173.645 5.25 165.25 13.6447 165.25 24C165.25 34.3553 173.645 42.75 184 42.75Z" stroke="#111111" stroke-width="2.5" stroke-linecap="round" stroke-linejoin="round"/>
<path d="M232.5 28.5L240 36M240 36L247.5 28.5M240 36V13.5M240 46.5C252.426 46.5 262.5 36.4264 262.5 24C262.5 11.5736 252.426 1.5 240 1.5C227.574 1.5 217.5 11.5736 217.5 24C217.5 36.4264 227.574 46.5 240 46.5Z" stroke="#111111" stroke-width="3" stroke-linecap="round" stroke-linejoin="round"/>
<path fill-rule="evenodd" clip-rule="evenodd" d="M6 89.625C9.1066 89.625 11.625 87.1066 11.625 84C11.625 80.8934 9.1066 78.375 6 78.375C2.8934 78.375 0.375 80.8934 0.375 84C0.375 87.1066 2.8934 89.625 6 89.625ZM3.77145 84.7714C3.96671 84.5762 4.28329 84.5762 4.47855 84.7714L5.5 85.7929V81.3278C5.5 81.0777 5.72386 80.875 6 80.875C6.27614 80.875 6.5 81.0777 6.5 81.3278V85.7929L7.52145 84.7714C7.71671 84.5762 8.03329 84.5762 8.22855 84.7714C8.42382 84.9667 8.42382 85.2833 8.22855 85.4786L6.35355 87.3536C6.15829 87.5488 5.84171 87.5488 5.64645 87.3536L3.77145 85.4786C3.57618 85.2833 3.57618 84.9667 3.77145 84.7714Z" fill="#111111"/>
<path fill-rule="evenodd" clip-rule="evenodd" d="M32 91.5C36.1421 91.5 39.5 88.1421 39.5 84C39.5 79.8579 36.1421 76.5 32 76.5C27.8579 76.5 24.5 79.8579 24.5 84C24.5 88.1421 27.8579 91.5 32 91.5ZM29.0286 85.0286C29.2889 84.7682 29.7111 84.7682 29.9714 85.0286L31.3333 86.3905V80.4371C31.3333 80.1037 31.6318 79.8333 32 79.8333C32.3682 79.8333 32.6667 80.1037 32.6667 80.4371V86.3905L34.0286 85.0286C34.2889 84.7682 34.7111 84.7682 34.9714 85.0286C35.2318 85.2889 35.2318 85.7111 34.9714 85.9714L32.4714 88.4714C32.2111 88.7318 31.7889 88.7318 31.5286 88.4714L29.0286 85.9714C28.7682 85.7111 28.7682 85.2889 29.0286 85.0286Z" fill="#111111"/>
<path fill-rule="evenodd" clip-rule="evenodd" d="M62 93.375C67.1777 93.375 71.375 89.1777 71.375 84C71.375 78.8223 67.1777 74.625 62 74.625C56.8223 74.625 52.625 78.8223 52.625 84C52.625 89.1777 56.8223 93.375 62 93.375ZM58.2857 85.2857C58.6112 84.9603 59.1388 84.9603 59.4643 85.2857L61.1667 86.9882V79.5464C61.1667 79.1296 61.5398 78.7917 62 78.7917C62.4602 78.7917 62.8333 79.1296 62.8333 79.5464V86.9882L64.5357 85.2857C64.8612 84.9603 65.3888 84.9603 65.7143 85.2857C66.0397 85.6112 66.0397 86.1388 65.7143 86.4643L62.5893 89.5893C62.2638 89.9147 61.7362 89.9147 61.4107 89.5893L58.2857 86.4643C57.9603 86.1388 57.9603 85.6112 58.2857 85.2857Z" fill="#111111"/>
<path fill-rule="evenodd" clip-rule="evenodd" d="M96 95.25C102.213 95.25 107.25 90.2132 107.25 84C107.25 77.7868 102.213 72.75 96 72.75C89.7868 72.75 84.75 77.7868 84.75 84C84.75 90.2132 89.7868 95.25 96 95.25ZM91.5429 85.5429C91.9334 85.1524 92.5666 85.1524 92.9571 85.5429L95 87.5858V78.6557C95 78.1555 95.4477 77.75 96 77.75C96.5523 77.75 97 78.1555 97 78.6557V87.5858L99.0429 85.5429C99.4334 85.1524 100.067 85.1524 100.457 85.5429C100.848 85.9334 100.848 86.5666 100.457 86.9571L96.7071 90.7071C96.3166 91.0976 95.6834 91.0976 95.2929 90.7071L91.5429 86.9571C91.1524 86.5666 91.1524 85.9334 91.5429 85.5429Z" fill="#111111"/>
<path fill-rule="evenodd" clip-rule="evenodd" d="M136 99C144.284 99 151 92.2843 151 84C151 75.7157 144.284 69 136 69C127.716 69 121 75.7157 121 84C121 92.2843 127.716 99 136 99ZM130.057 86.0572C130.578 85.5365 131.422 85.5365 131.943 86.0572L134.667 88.781V76.8742C134.667 76.2073 135.264 75.6667 136 75.6667C136.736 75.6667 137.333 76.2073 137.333 76.8742V88.781L140.057 86.0572C140.578 85.5365 141.422 85.5365 141.943 86.0572C142.464 86.5779 142.464 87.4221 141.943 87.9428L136.943 92.9428C136.422 93.4635 135.578 93.4635 135.057 92.9428L130.057 87.9428C129.536 87.4221 129.536 86.5779 130.057 86.0572Z" fill="#111111"/>
<path fill-rule="evenodd" clip-rule="evenodd" d="M184 102.75C194.355 102.75 202.75 94.3553 202.75 84C202.75 73.6447 194.355 65.25 184 65.25C173.645 65.25 165.25 73.6447 165.25 84C165.25 94.3553 173.645 102.75 184 102.75ZM176.571 86.5715C177.222 85.9206 178.278 85.9206 178.929 86.5715L182.333 89.9763V75.0928C182.333 74.2591 183.08 73.5833 184 73.5833C184.92 73.5833 185.667 74.2591 185.667 75.0928V89.9763L189.071 86.5715C189.722 85.9206 190.778 85.9206 191.429 86.5715C192.079 87.2224 192.079 88.2776 191.429 88.9285L185.179 95.1785C184.528 95.8294 183.472 95.8294 182.821 95.1785L176.571 88.9285C175.921 88.2776 175.921 87.2224 176.571 86.5715Z" fill="#111111"/>
<path fill-rule="evenodd" clip-rule="evenodd" d="M240 106.5C252.426 106.5 262.5 96.4264 262.5 84C262.5 71.5736 252.426 61.5 240 61.5C227.574 61.5 217.5 71.5736 217.5 84C217.5 96.4264 227.574 106.5 240 106.5ZM231.086 87.0858C231.867 86.3047 233.133 86.3047 233.914 87.0858L238 91.1716V73.3113C238 72.311 238.895 71.5 240 71.5C241.105 71.5 242 72.311 242 73.3113V91.1716L246.086 87.0858C246.867 86.3047 248.133 86.3047 248.914 87.0858C249.695 87.8668 249.695 89.1332 248.914 89.9142L241.414 97.4142C240.633 98.1953 239.367 98.1953 238.586 97.4142L231.086 89.9142C230.305 89.1332 230.305 87.8668 231.086 87.0858Z" fill="#111111"/>
</g>
<defs>
<clipPath id="clip0_3549_448">
<rect width="264" height="108" rx="5" fill="white"/>
</clipPath>
</defs>
</svg>
