<svg width="264" height="108" viewBox="0 0 264 108" fill="none" xmlns="http://www.w3.org/2000/svg">
<g clip-path="url(#clip0_3549_452)">
<path d="M7.875 22.875L6 21M6 21L4.125 22.875M6 21V26.625M6 29.625C9.1066 29.625 11.625 27.1066 11.625 24C11.625 20.8934 9.1066 18.375 6 18.375C2.8934 18.375 0.375 20.8934 0.375 24C0.375 27.1066 2.8934 29.625 6 29.625Z" stroke="#111111" stroke-width="0.75" stroke-linecap="round" stroke-linejoin="round"/>
<path d="M34.5 22.5L32 20M32 20L29.5 22.5M32 20V27.5M32 31.5C36.1421 31.5 39.5 28.1421 39.5 24C39.5 19.8579 36.1421 16.5 32 16.5C27.8579 16.5 24.5 19.8579 24.5 24C24.5 28.1421 27.8579 31.5 32 31.5Z" stroke="#111111" stroke-linecap="round" stroke-linejoin="round"/>
<path d="M65.125 22.125L62 19M62 19L58.875 22.125M62 19V28.375M62 33.375C67.1777 33.375 71.375 29.1777 71.375 24C71.375 18.8223 67.1777 14.625 62 14.625C56.8223 14.625 52.625 18.8223 52.625 24C52.625 29.1777 56.8223 33.375 62 33.375Z" stroke="#111111" stroke-width="1.25" stroke-linecap="round" stroke-linejoin="round"/>
<path d="M99.75 21.75L96 18M96 18L92.25 21.75M96 18V29.25M96 35.25C102.213 35.25 107.25 30.2132 107.25 24C107.25 17.7868 102.213 12.75 96 12.75C89.7868 12.75 84.75 17.7868 84.75 24C84.75 30.2132 89.7868 35.25 96 35.25Z" stroke="#111111" stroke-width="1.5" stroke-linecap="round" stroke-linejoin="round"/>
<path d="M141 21L136 16M136 16L131 21M136 16V31M136 39C144.284 39 151 32.2843 151 24C151 15.7157 144.284 9 136 9C127.716 9 121 15.7157 121 24C121 32.2843 127.716 39 136 39Z" stroke="#111111" stroke-width="2" stroke-linecap="round" stroke-linejoin="round"/>
<path d="M190.25 20.25L184 14M184 14L177.75 20.25M184 14V32.75M184 42.75C194.355 42.75 202.75 34.3553 202.75 24C202.75 13.6447 194.355 5.25 184 5.25C173.645 5.25 165.25 13.6447 165.25 24C165.25 34.3553 173.645 42.75 184 42.75Z" stroke="#111111" stroke-width="2.5" stroke-linecap="round" stroke-linejoin="round"/>
<path d="M247.5 19.5L240 12M240 12L232.5 19.5M240 12V34.5M240 46.5C252.426 46.5 262.5 36.4264 262.5 24C262.5 11.5736 252.426 1.5 240 1.5C227.574 1.5 217.5 11.5736 217.5 24C217.5 36.4264 227.574 46.5 240 46.5Z" stroke="#111111" stroke-width="3" stroke-linecap="round" stroke-linejoin="round"/>
<path fill-rule="evenodd" clip-rule="evenodd" d="M6 89.625C9.1066 89.625 11.625 87.1066 11.625 84C11.625 80.8934 9.1066 78.375 6 78.375C2.8934 78.375 0.375 80.8934 0.375 84C0.375 87.1066 2.8934 89.625 6 89.625ZM6.35355 80.6464L8.22855 82.5214C8.42382 82.7167 8.42382 83.0333 8.22855 83.2286C8.03329 83.4238 7.71671 83.4238 7.52145 83.2286L6.5 82.2071V87C6.5 87.2761 6.27614 87.5 6 87.5C5.72386 87.5 5.5 87.2761 5.5 87V82.2071L4.47855 83.2286C4.28329 83.4238 3.96671 83.4238 3.77145 83.2286C3.57618 83.0333 3.57618 82.7167 3.77145 82.5214L5.64645 80.6464C5.84171 80.4512 6.15829 80.4512 6.35355 80.6464Z" fill="#111111"/>
<path fill-rule="evenodd" clip-rule="evenodd" d="M32 91.5C36.1421 91.5 39.5 88.1421 39.5 84C39.5 79.8579 36.1421 76.5 32 76.5C27.8579 76.5 24.5 79.8579 24.5 84C24.5 88.1421 27.8579 91.5 32 91.5ZM32.4714 79.5286L34.9714 82.0286C35.2318 82.2889 35.2318 82.7111 34.9714 82.9714C34.7111 83.2318 34.2889 83.2318 34.0286 82.9714L32.6667 81.6095V88C32.6667 88.3682 32.3682 88.6667 32 88.6667C31.6318 88.6667 31.3333 88.3682 31.3333 88V81.6095L29.9714 82.9714C29.7111 83.2318 29.2889 83.2318 29.0286 82.9714C28.7682 82.7111 28.7682 82.2889 29.0286 82.0286L31.5286 79.5286C31.7889 79.2682 32.2111 79.2682 32.4714 79.5286Z" fill="#111111"/>
<path fill-rule="evenodd" clip-rule="evenodd" d="M62 93.375C67.1777 93.375 71.375 89.1777 71.375 84C71.375 78.8223 67.1777 74.625 62 74.625C56.8223 74.625 52.625 78.8223 52.625 84C52.625 89.1777 56.8223 93.375 62 93.375ZM62.5893 78.4107L65.7143 81.5357C66.0397 81.8612 66.0397 82.3888 65.7143 82.7143C65.3888 83.0397 64.8612 83.0397 64.5357 82.7143L62.8333 81.0118V89C62.8333 89.4602 62.4602 89.8333 62 89.8333C61.5398 89.8333 61.1667 89.4602 61.1667 89V81.0118L59.4643 82.7143C59.1388 83.0397 58.6112 83.0397 58.2857 82.7143C57.9603 82.3888 57.9603 81.8612 58.2857 81.5357L61.4107 78.4107C61.7362 78.0853 62.2638 78.0853 62.5893 78.4107Z" fill="#111111"/>
<path fill-rule="evenodd" clip-rule="evenodd" d="M96 95.25C102.213 95.25 107.25 90.2132 107.25 84C107.25 77.7868 102.213 72.75 96 72.75C89.7868 72.75 84.75 77.7868 84.75 84C84.75 90.2132 89.7868 95.25 96 95.25ZM96.7071 77.2929L100.457 81.0429C100.848 81.4334 100.848 82.0666 100.457 82.4571C100.067 82.8476 99.4334 82.8476 99.0429 82.4571L97 80.4142V90C97 90.5523 96.5523 91 96 91C95.4477 91 95 90.5523 95 90V80.4142L92.9571 82.4571C92.5666 82.8476 91.9334 82.8476 91.5429 82.4571C91.1524 82.0666 91.1524 81.4334 91.5429 81.0429L95.2929 77.2929C95.6834 76.9024 96.3166 76.9024 96.7071 77.2929Z" fill="#111111"/>
<path fill-rule="evenodd" clip-rule="evenodd" d="M136 99C144.284 99 151 92.2843 151 84C151 75.7157 144.284 69 136 69C127.716 69 121 75.7157 121 84C121 92.2843 127.716 99 136 99ZM136.943 75.0572L141.943 80.0572C142.464 80.5779 142.464 81.4221 141.943 81.9428C141.422 82.4635 140.578 82.4635 140.057 81.9428L137.333 79.219V92C137.333 92.7364 136.736 93.3333 136 93.3333C135.264 93.3333 134.667 92.7364 134.667 92V79.219L131.943 81.9428C131.422 82.4635 130.578 82.4635 130.057 81.9428C129.536 81.4221 129.536 80.5779 130.057 80.0572L135.057 75.0572C135.578 74.5365 136.422 74.5365 136.943 75.0572Z" fill="#111111"/>
<path fill-rule="evenodd" clip-rule="evenodd" d="M184 102.75C194.355 102.75 202.75 94.3553 202.75 84C202.75 73.6447 194.355 65.25 184 65.25C173.645 65.25 165.25 73.6447 165.25 84C165.25 94.3553 173.645 102.75 184 102.75ZM185.179 72.8215L191.429 79.0715C192.079 79.7224 192.079 80.7776 191.429 81.4285C190.778 82.0794 189.722 82.0794 189.071 81.4285L185.667 78.0237V94C185.667 94.9205 184.92 95.6667 184 95.6667C183.08 95.6667 182.333 94.9205 182.333 94V78.0237L178.929 81.4285C178.278 82.0794 177.222 82.0794 176.571 81.4285C175.921 80.7776 175.921 79.7224 176.571 79.0715L182.821 72.8215C183.472 72.1706 184.528 72.1706 185.179 72.8215Z" fill="#111111"/>
<path fill-rule="evenodd" clip-rule="evenodd" d="M240 106.5C252.426 106.5 262.5 96.4264 262.5 84C262.5 71.5736 252.426 61.5 240 61.5C227.574 61.5 217.5 71.5736 217.5 84C217.5 96.4264 227.574 106.5 240 106.5ZM241.414 70.5858L248.914 78.0858C249.695 78.8668 249.695 80.1332 248.914 80.9142C248.133 81.6953 246.867 81.6953 246.086 80.9142L242 76.8284V96C242 97.1046 241.105 98 240 98C238.895 98 238 97.1046 238 96V76.8284L233.914 80.9142C233.133 81.6953 231.867 81.6953 231.086 80.9142C230.305 80.1332 230.305 78.8668 231.086 78.0858L238.586 70.5858C239.367 69.8047 240.633 69.8047 241.414 70.5858Z" fill="#111111"/>
</g>
<defs>
<clipPath id="clip0_3549_452">
<rect width="264" height="108" rx="5" fill="white"/>
</clipPath>
</defs>
</svg>
