<svg width="264" height="108" viewBox="0 0 264 108" fill="none" xmlns="http://www.w3.org/2000/svg">
<g clip-path="url(#clip0_9406_2)">
<g clip-path="url(#clip1_9406_2)">
<path d="M10.875 27.1023C10.875 26.8952 10.7071 26.7273 10.5 26.7273C10.2929 26.7273 10.125 26.8952 10.125 27.1023H10.875ZM10.125 23.5227C10.125 23.7298 10.2929 23.8977 10.5 23.8977C10.7071 23.8977 10.875 23.7298 10.875 23.5227H10.125ZM9.03912 21.5418C9.13122 21.7273 9.35626 21.803 9.54176 21.7109C9.72726 21.6188 9.80298 21.3937 9.71088 21.2082L9.03912 21.5418ZM8.26872 19.1468L7.93282 19.3135L7.93284 19.3136L8.26872 19.1468ZM8.09825 18.9255L7.85148 19.2079L7.85157 19.208L8.09825 18.9255ZM7.85666 18.7868L7.73729 19.1423L7.73736 19.1423L7.85666 18.7868ZM7.58074 18.7518L7.60755 19.1259L7.60756 19.1259L7.58074 18.7518ZM7.31255 18.8258L7.4812 19.1608L7.48131 19.1607L7.31255 18.8258ZM2.08135 21.0401C1.89637 21.1332 1.82192 21.3587 1.91506 21.5437C2.00821 21.7286 2.23367 21.8031 2.41865 21.7099L2.08135 21.0401ZM10.5 27.1023H10.125V27.8182H10.5H10.875V27.1023H10.5ZM10.5 27.8182H10.125C10.125 28.1017 10.0153 28.3717 9.82323 28.5691L10.092 28.8306L10.3608 29.0921C10.6912 28.7525 10.875 28.2941 10.875 27.8182H10.5ZM10.092 28.8306L9.82323 28.5691C9.6315 28.7662 9.37367 28.875 9.10714 28.875V29.25V29.625C9.57938 29.625 10.0301 29.432 10.3608 29.0921L10.092 28.8306ZM9.10714 29.25V28.875H2.14286V29.25V29.625H9.10714V29.25ZM2.14286 29.25V28.875C1.8763 28.875 1.61849 28.7662 1.42675 28.5691L1.15796 28.8306L0.889164 29.0921C1.21985 29.432 1.67059 29.625 2.14286 29.625V29.25ZM1.15796 28.8306L1.42675 28.5691C1.23468 28.3717 1.125 28.1017 1.125 27.8182H0.75H0.375C0.375 28.2941 0.558812 28.7525 0.889164 29.0921L1.15796 28.8306ZM0.75 27.8182H1.125V22.8068H0.75H0.375V27.8182H0.75ZM0.75 22.8068H1.125C1.125 22.5232 1.23468 22.2533 1.42676 22.0559L1.15796 21.7944L0.889162 21.5329C0.558813 21.8725 0.375 22.3309 0.375 22.8068H0.75ZM1.15796 21.7944L1.42676 22.0559C1.61849 21.8588 1.8763 21.75 2.14286 21.75V21.375V21C1.6706 21 1.21985 21.1929 0.889162 21.5329L1.15796 21.7944ZM2.14286 21.375V21.75H9.10714V21.375V21H2.14286V21.375ZM9.10714 21.375V21.75C9.37368 21.75 9.63151 21.8588 9.82323 22.0559L10.092 21.7944L10.3608 21.5329C10.0301 21.1929 9.57937 21 9.10714 21V21.375ZM10.092 21.7944L9.82323 22.0559C10.0153 22.2533 10.125 22.5233 10.125 22.8068H10.5H10.875C10.875 22.3309 10.6912 21.8725 10.3608 21.5329L10.092 21.7944ZM10.5 22.8068H10.125V23.5227H10.5H10.875V22.8068H10.5ZM9.375 21.375L9.71088 21.2082L8.6046 18.9801L8.26872 19.1468L7.93284 19.3136L9.03912 21.5418L9.375 21.375ZM8.26872 19.1468L8.60463 18.9801C8.54101 18.8519 8.45285 18.7373 8.34492 18.6431L8.09825 18.9255L7.85157 19.208C7.8851 19.2373 7.91274 19.2731 7.93282 19.3135L8.26872 19.1468ZM8.09825 18.9255L8.34502 18.6432C8.23717 18.5489 8.11179 18.4769 7.97596 18.4313L7.85666 18.7868L7.73736 19.1423C7.77918 19.1564 7.81796 19.1786 7.85148 19.2079L8.09825 18.9255ZM7.85666 18.7868L7.97604 18.4313C7.84024 18.3857 7.69679 18.3675 7.55391 18.3778L7.58074 18.7518L7.60756 19.1259C7.65145 19.1227 7.69553 19.1283 7.73729 19.1423L7.85666 18.7868ZM7.58074 18.7518L7.55392 18.3778C7.41108 18.388 7.27169 18.4265 7.14379 18.491L7.31255 18.8258L7.48131 19.1607C7.5208 19.1408 7.56372 19.129 7.60755 19.1259L7.58074 18.7518ZM7.31255 18.8258L7.1439 18.4909L2.08135 21.0401L2.25 21.375L2.41865 21.7099L7.4812 19.1608L7.31255 18.8258ZM8.4375 25.5V25.125C8.54106 25.125 8.625 25.2089 8.625 25.3125H8.25H7.875C7.875 25.6232 8.12684 25.875 8.4375 25.875V25.5ZM8.25 25.3125H8.625C8.625 25.4161 8.54106 25.5 8.4375 25.5V25.125V24.75C8.12684 24.75 7.875 25.0018 7.875 25.3125H8.25ZM8.4375 25.5V25.875C8.74816 25.875 9 25.6232 9 25.3125H8.625H8.25C8.25 25.2089 8.33394 25.125 8.4375 25.125V25.5ZM8.625 25.3125H9C9 25.0018 8.74816 24.75 8.4375 24.75V25.125V25.5C8.33394 25.5 8.25 25.4161 8.25 25.3125H8.625ZM8.4375 23.625V24H10.5V23.625V23.25H8.4375V23.625ZM11.25 24.375H10.875V26.25H11.25H11.625V24.375H11.25ZM10.5 27V26.625H8.4375V27V27.375H10.5V27ZM8.4375 27V26.625C7.71263 26.625 7.125 26.0374 7.125 25.3125H6.75H6.375C6.375 26.4516 7.29841 27.375 8.4375 27.375V27ZM11.25 26.25H10.875C10.875 26.4571 10.7071 26.625 10.5 26.625V27V27.375C11.1213 27.375 11.625 26.8713 11.625 26.25H11.25ZM10.5 23.625V24C10.7071 24 10.875 24.1679 10.875 24.375H11.25H11.625C11.625 23.7537 11.1213 23.25 10.5 23.25V23.625ZM8.4375 23.625V23.25C7.29841 23.25 6.375 24.1734 6.375 25.3125H6.75H7.125C7.125 24.5876 7.71263 24 8.4375 24V23.625Z" fill="#111111"/>
</g>
<g clip-path="url(#clip2_9406_2)">
<path d="M38.5 28.1364C38.5 27.8602 38.2761 27.6364 38 27.6364C37.7239 27.6364 37.5 27.8602 37.5 28.1364H38.5ZM37.5 23.3636C37.5 23.6398 37.7239 23.8636 38 23.8636C38.2761 23.8636 38.5 23.6398 38.5 23.3636H37.5ZM36.0522 20.7223C36.175 20.9697 36.475 21.0706 36.7223 20.9478C36.9697 20.825 37.0706 20.525 36.9478 20.2777L36.0522 20.7223ZM35.025 17.5291L34.5771 17.7514L34.5771 17.7514L35.025 17.5291ZM34.7977 17.234L34.4686 17.6105L34.4688 17.6106L34.7977 17.234ZM34.4755 17.0491L34.3164 17.5231L34.3165 17.5231L34.4755 17.0491ZM34.1076 17.0024L34.1434 17.5011L34.1434 17.5011L34.1076 17.0024ZM33.7501 17.1011L33.9749 17.5477L33.9751 17.5476L33.7501 17.1011ZM26.7751 20.0534C26.5285 20.1776 26.4292 20.4782 26.5534 20.7249C26.6776 20.9715 26.9782 21.0708 27.2249 20.9466L26.7751 20.0534ZM38 28.1364H37.5V29.0909H38H38.5V28.1364H38ZM38 29.0909H37.5C37.5 29.469 37.3537 29.8289 37.0976 30.0922L37.456 30.4408L37.8144 30.7895C38.2549 30.3367 38.5 29.7254 38.5 29.0909H38ZM37.456 30.4408L37.0976 30.0922C36.842 30.355 36.4982 30.5 36.1429 30.5V31V31.5C36.7725 31.5 37.3735 31.2427 37.8144 30.7895L37.456 30.4408ZM36.1429 31V30.5H26.8571V31V31.5H36.1429V31ZM26.8571 31V30.5C26.5017 30.5 26.158 30.355 25.9023 30.0922L25.5439 30.4408L25.1856 30.7895C25.6265 31.2427 26.2275 31.5 26.8571 31.5V31ZM25.5439 30.4408L25.9023 30.0922C25.6462 29.8289 25.5 29.469 25.5 29.0909H25H24.5C24.5 29.7254 24.7451 30.3367 25.1856 30.7895L25.5439 30.4408ZM25 29.0909H25.5V22.4091H25H24.5V29.0909H25ZM25 22.4091H25.5C25.5 22.031 25.6462 21.6711 25.9023 21.4078L25.5439 21.0592L25.1855 20.7105C24.7451 21.1633 24.5 21.7745 24.5 22.4091H25ZM25.5439 21.0592L25.9023 21.4078C26.158 21.145 26.5017 21 26.8571 21V20.5V20C26.2275 20 25.6265 20.2573 25.1855 20.7105L25.5439 21.0592ZM26.8571 20.5V21H36.1429V20.5V20H26.8571V20.5ZM36.1429 20.5V21C36.4982 21 36.842 21.145 37.0976 21.4078L37.456 21.0592L37.8144 20.7105C37.3735 20.2573 36.7725 20 36.1429 20V20.5ZM37.456 21.0592L37.0976 21.4078C37.3537 21.6711 37.5 22.031 37.5 22.4091H38H38.5C38.5 21.7745 38.2549 21.1633 37.8144 20.7105L37.456 21.0592ZM38 22.4091H37.5V23.3636H38H38.5V22.4091H38ZM36.5 20.5L36.9478 20.2777L35.4728 17.3067L35.025 17.5291L34.5771 17.7514L36.0522 20.7223L36.5 20.5ZM35.025 17.5291L35.4728 17.3068C35.388 17.1359 35.2705 16.9831 35.1266 16.8574L34.7977 17.234L34.4688 17.6106C34.5135 17.6497 34.5503 17.6974 34.5771 17.7514L35.025 17.5291ZM34.7977 17.234L35.1267 16.8576C34.9829 16.7319 34.8157 16.6358 34.6346 16.5751L34.4755 17.0491L34.3165 17.5231C34.3722 17.5418 34.4239 17.5715 34.4686 17.6105L34.7977 17.234ZM34.4755 17.0491L34.6347 16.5751C34.4537 16.5143 34.2624 16.49 34.0719 16.5037L34.1076 17.0024L34.1434 17.5011C34.2019 17.4969 34.2607 17.5044 34.3164 17.5231L34.4755 17.0491ZM34.1076 17.0024L34.0719 16.5037C33.8814 16.5174 33.6956 16.5687 33.5251 16.6546L33.7501 17.1011L33.9751 17.5476C34.0277 17.5211 34.085 17.5053 34.1434 17.5011L34.1076 17.0024ZM33.7501 17.1011L33.5252 16.6545L26.7751 20.0534L27 20.5L27.2249 20.9466L33.9749 17.5477L33.7501 17.1011ZM35.25 26V25.5C35.3881 25.5 35.5 25.6119 35.5 25.75H35H34.5C34.5 26.1642 34.8358 26.5 35.25 26.5V26ZM35 25.75H35.5C35.5 25.8881 35.3881 26 35.25 26V25.5V25C34.8358 25 34.5 25.3358 34.5 25.75H35ZM35.25 26V26.5C35.6642 26.5 36 26.1642 36 25.75H35.5H35C35 25.6119 35.1119 25.5 35.25 25.5V26ZM35.5 25.75H36C36 25.3358 35.6642 25 35.25 25V25.5V26C35.1119 26 35 25.8881 35 25.75H35.5ZM35.25 23.5V24H38V23.5V23H35.25V23.5ZM39 24.5H38.5V27H39H39.5V24.5H39ZM38 28V27.5H35.25V28V28.5H38V28ZM35.25 28V27.5C34.2835 27.5 33.5 26.7165 33.5 25.75H33H32.5C32.5 27.2688 33.7312 28.5 35.25 28.5V28ZM39 27H38.5C38.5 27.2761 38.2761 27.5 38 27.5V28V28.5C38.8284 28.5 39.5 27.8284 39.5 27H39ZM38 23.5V24C38.2761 24 38.5 24.2239 38.5 24.5H39H39.5C39.5 23.6716 38.8284 23 38 23V23.5ZM35.25 23.5V23C33.7312 23 32.5 24.2312 32.5 25.75H33H33.5C33.5 24.7835 34.2835 24 35.25 24V23.5Z" fill="#111111"/>
</g>
<g clip-path="url(#clip3_9406_2)">
<path d="M70.125 29.1705C70.125 28.8253 69.8452 28.5455 69.5 28.5455C69.1548 28.5455 68.875 28.8253 68.875 29.1705H70.125ZM68.875 23.2045C68.875 23.5497 69.1548 23.8295 69.5 23.8295C69.8452 23.8295 70.125 23.5497 70.125 23.2045H68.875ZM67.0652 19.9029C67.2187 20.2121 67.5938 20.3383 67.9029 20.1848C68.2121 20.0313 68.3383 19.6562 68.1848 19.3471L67.0652 19.9029ZM65.7812 15.9114L65.2214 16.1892L65.2214 16.1893L65.7812 15.9114ZM65.4971 15.5426L65.0858 16.0132L65.086 16.0133L65.4971 15.5426ZM65.0944 15.3114L64.8955 15.9039L64.8956 15.9039L65.0944 15.3114ZM64.6346 15.253L64.6793 15.8764L64.6793 15.8764L64.6346 15.253ZM64.1876 15.3764L64.4687 15.9346L64.4688 15.9345L64.1876 15.3764ZM55.4689 19.0668C55.1606 19.222 55.0365 19.5978 55.1918 19.9061C55.347 20.2144 55.7228 20.3385 56.0311 20.1832L55.4689 19.0668ZM69.5 29.1705H68.875V30.3636H69.5H70.125V29.1705H69.5ZM69.5 30.3636H68.875C68.875 30.8362 68.6922 31.2861 68.3721 31.6152L68.8201 32.051L69.268 32.4868C69.8186 31.9209 70.125 31.1568 70.125 30.3636H69.5ZM68.8201 32.051L68.3721 31.6152C68.0525 31.9437 67.6228 32.125 67.1786 32.125V32.75V33.375C67.9656 33.375 68.7169 33.0534 69.268 32.4868L68.8201 32.051ZM67.1786 32.75V32.125H55.5714V32.75V33.375H67.1786V32.75ZM55.5714 32.75V32.125C55.1272 32.125 54.6975 31.9437 54.3779 31.6152L53.9299 32.051L53.4819 32.4868C54.0331 33.0534 54.7843 33.375 55.5714 33.375V32.75ZM53.9299 32.051L54.3779 31.6152C54.0578 31.2862 53.875 30.8362 53.875 30.3636H53.25H52.625C52.625 31.1568 52.9314 31.9209 53.4819 32.4868L53.9299 32.051ZM53.25 30.3636H53.875V22.0114H53.25H52.625V30.3636H53.25ZM53.25 22.0114H53.875C53.875 21.5387 54.0578 21.0888 54.3779 20.7598L53.9299 20.324L53.4819 19.8881C52.9314 20.4541 52.625 21.2182 52.625 22.0114H53.25ZM53.9299 20.324L54.3779 20.7598C54.6975 20.4313 55.1272 20.25 55.5714 20.25V19.625V19C54.7843 19 54.0331 19.3216 53.4819 19.8881L53.9299 20.324ZM55.5714 19.625V20.25H67.1786V19.625V19H55.5714V19.625ZM67.1786 19.625V20.25C67.6228 20.25 68.0525 20.4313 68.3721 20.7598L68.8201 20.324L69.2681 19.8881C68.7169 19.3216 67.9656 19 67.1786 19V19.625ZM68.8201 20.324L68.3721 20.7598C68.6922 21.0888 68.875 21.5388 68.875 22.0114H69.5H70.125C70.125 21.2182 69.8186 20.4541 69.2681 19.8881L68.8201 20.324ZM69.5 22.0114H68.875V23.2045H69.5H70.125V22.0114H69.5ZM67.625 19.625L68.1848 19.3471L66.341 15.6334L65.7812 15.9114L65.2214 16.1893L67.0652 19.9029L67.625 19.625ZM65.7812 15.9114L66.3411 15.6335C66.235 15.4199 66.0881 15.2289 65.9082 15.0718L65.4971 15.5426L65.086 16.0133C65.1418 16.0621 65.1879 16.1218 65.2214 16.1892L65.7812 15.9114ZM65.4971 15.5426L65.9084 15.0719C65.7286 14.9149 65.5197 14.7948 65.2933 14.7188L65.0944 15.3114L64.8956 15.9039C64.9653 15.9273 65.0299 15.9643 65.0858 16.0132L65.4971 15.5426ZM65.0944 15.3114L65.2934 14.7189C65.0671 14.6429 64.828 14.6125 64.5899 14.6296L64.6346 15.253L64.6793 15.8764C64.7524 15.8712 64.8259 15.8805 64.8955 15.9039L65.0944 15.3114ZM64.6346 15.253L64.5899 14.6296C64.3518 14.6467 64.1195 14.7108 63.9063 14.8183L64.1876 15.3764L64.4688 15.9345C64.5347 15.9014 64.6062 15.8817 64.6793 15.8764L64.6346 15.253ZM64.1876 15.3764L63.9065 14.8182L55.4689 19.0668L55.75 19.625L56.0311 20.1832L64.4687 15.9346L64.1876 15.3764ZM66.0625 26.5V25.875C66.2351 25.875 66.375 26.0149 66.375 26.1875H65.75H65.125C65.125 26.7053 65.5447 27.125 66.0625 27.125V26.5ZM65.75 26.1875H66.375C66.375 26.3601 66.2351 26.5 66.0625 26.5V25.875V25.25C65.5447 25.25 65.125 25.6697 65.125 26.1875H65.75ZM66.0625 26.5V27.125C66.5803 27.125 67 26.7053 67 26.1875H66.375H65.75C65.75 26.0149 65.8899 25.875 66.0625 25.875V26.5ZM66.375 26.1875H67C67 25.6697 66.5803 25.25 66.0625 25.25V25.875V26.5C65.8899 26.5 65.75 26.3601 65.75 26.1875H66.375ZM66.0625 23.375V24H69.5V23.375V22.75H66.0625V23.375ZM70.75 24.625H70.125V27.75H70.75H71.375V24.625H70.75ZM69.5 29V28.375H66.0625V29V29.625H69.5V29ZM66.0625 29V28.375C64.8544 28.375 63.875 27.3956 63.875 26.1875H63.25H62.625C62.625 28.086 64.164 29.625 66.0625 29.625V29ZM70.75 27.75H70.125C70.125 28.0952 69.8452 28.375 69.5 28.375V29V29.625C70.5355 29.625 71.375 28.7855 71.375 27.75H70.75ZM69.5 23.375V24C69.8452 24 70.125 24.2798 70.125 24.625H70.75H71.375C71.375 23.5895 70.5355 22.75 69.5 22.75V23.375ZM66.0625 23.375V22.75C64.164 22.75 62.625 24.289 62.625 26.1875H63.25H63.875C63.875 24.9794 64.8544 24 66.0625 24V23.375Z" fill="#111111"/>
</g>
<g clip-path="url(#clip4_9406_2)">
<path d="M105.75 30.2045C105.75 29.7903 105.414 29.4545 105 29.4545C104.586 29.4545 104.25 29.7903 104.25 30.2045H105.75ZM104.25 23.0455C104.25 23.4597 104.586 23.7955 105 23.7955C105.414 23.7955 105.75 23.4597 105.75 23.0455H104.25ZM102.078 19.0835C102.262 19.4545 102.713 19.606 103.084 19.4218C103.455 19.2376 103.606 18.7875 103.422 18.4165L102.078 19.0835ZM100.537 14.2936L99.8656 14.627L99.8657 14.6272L100.537 14.2936ZM100.196 13.8511L99.703 14.4158L99.7031 14.416L100.196 13.8511ZM99.7133 13.5736L99.4746 14.2846L99.4747 14.2847L99.7133 13.5736ZM99.1615 13.5036L99.2151 14.2517L99.2151 14.2517L99.1615 13.5036ZM98.6251 13.6517L98.9624 14.3215L98.9626 14.3214L98.6251 13.6517ZM88.1627 18.0801C87.7927 18.2664 87.6438 18.7173 87.8301 19.0873C88.0164 19.4573 88.4673 19.6062 88.8373 19.4199L88.1627 18.0801ZM105 30.2045H104.25V31.6364H105H105.75V30.2045H105ZM105 31.6364H104.25C104.25 32.2034 104.031 32.7434 103.646 33.1383L104.184 33.6612L104.722 34.1842C105.382 33.505 105.75 32.5882 105.75 31.6364H105ZM104.184 33.6612L103.646 33.1383C103.263 33.5325 102.747 33.75 102.214 33.75V34.5V35.25C103.159 35.25 104.06 34.8641 104.722 34.1842L104.184 33.6612ZM102.214 34.5V33.75H88.2857V34.5V35.25H102.214V34.5ZM88.2857 34.5V33.75C87.7526 33.75 87.237 33.5325 86.8535 33.1383L86.3159 33.6612L85.7783 34.1842C86.4397 34.8641 87.3412 35.25 88.2857 35.25V34.5ZM86.3159 33.6612L86.8535 33.1383C86.4694 32.7434 86.25 32.2035 86.25 31.6364H85.5H84.75C84.75 32.5881 85.1176 33.505 85.7783 34.1842L86.3159 33.6612ZM85.5 31.6364H86.25V21.6136H85.5H84.75V31.6364H85.5ZM85.5 21.6136H86.25C86.25 21.0465 86.4694 20.5066 86.8535 20.1117L86.3159 19.5887L85.7783 19.0658C85.1176 19.745 84.75 20.6618 84.75 21.6136H85.5ZM86.3159 19.5887L86.8535 20.1117C87.237 19.7175 87.7526 19.5 88.2857 19.5V18.75V18C87.3412 18 86.4397 18.3859 85.7783 19.0658L86.3159 19.5887ZM88.2857 18.75V19.5H102.214V18.75V18H88.2857V18.75ZM102.214 18.75V19.5C102.747 19.5 103.263 19.7175 103.646 20.1117L104.184 19.5887L104.722 19.0658C104.06 18.3859 103.159 18 102.214 18V18.75ZM104.184 19.5887L103.646 20.1117C104.031 20.5066 104.25 21.0465 104.25 21.6136H105H105.75C105.75 20.6618 105.382 19.7449 104.722 19.0658L104.184 19.5887ZM105 21.6136H104.25V23.0455H105H105.75V21.6136H105ZM102.75 18.75L103.422 18.4165L101.209 13.9601L100.537 14.2936L99.8657 14.6272L102.078 19.0835L102.75 18.75ZM100.537 14.2936L101.209 13.9602C101.082 13.7038 100.906 13.4747 100.69 13.2862L100.196 13.8511L99.7031 14.416C99.7702 14.4745 99.8255 14.5461 99.8656 14.627L100.537 14.2936ZM100.196 13.8511L100.69 13.2863C100.474 13.0978 100.224 12.9538 99.9519 12.8626L99.7133 13.5736L99.4747 14.2847C99.5584 14.3127 99.6359 14.3572 99.703 14.4158L100.196 13.8511ZM99.7133 13.5736L99.9521 12.8627C99.6805 12.7715 99.3936 12.7351 99.1078 12.7555L99.1615 13.5036L99.2151 14.2517C99.3029 14.2454 99.3911 14.2566 99.4746 14.2846L99.7133 13.5736ZM99.1615 13.5036L99.1078 12.7555C98.8222 12.776 98.5434 12.853 98.2876 12.9819L98.6251 13.6517L98.9626 14.3214C99.0416 14.2816 99.1274 14.258 99.2151 14.2517L99.1615 13.5036ZM98.6251 13.6517L98.2878 12.9818L88.1627 18.0801L88.5 18.75L88.8373 19.4199L98.9624 14.3215L98.6251 13.6517ZM100.875 27V26.25C101.082 26.25 101.25 26.4179 101.25 26.625H100.5H99.75C99.75 27.2463 100.254 27.75 100.875 27.75V27ZM100.5 26.625H101.25C101.25 26.8321 101.082 27 100.875 27V26.25V25.5C100.254 25.5 99.75 26.0037 99.75 26.625H100.5ZM100.875 27V27.75C101.496 27.75 102 27.2463 102 26.625H101.25H100.5C100.5 26.4179 100.668 26.25 100.875 26.25V27ZM101.25 26.625H102C102 26.0037 101.496 25.5 100.875 25.5V26.25V27C100.668 27 100.5 26.8321 100.5 26.625H101.25ZM100.875 23.25V24H105V23.25V22.5H100.875V23.25ZM106.5 24.75H105.75V28.5H106.5H107.25V24.75H106.5ZM105 30V29.25H100.875V30V30.75H105V30ZM100.875 30V29.25C99.4253 29.25 98.25 28.0747 98.25 26.625H97.5H96.75C96.75 28.9032 98.5968 30.75 100.875 30.75V30ZM106.5 28.5H105.75C105.75 28.9142 105.414 29.25 105 29.25V30V30.75C106.243 30.75 107.25 29.7426 107.25 28.5H106.5ZM105 23.25V24C105.414 24 105.75 24.3358 105.75 24.75H106.5H107.25C107.25 23.5074 106.243 22.5 105 22.5V23.25ZM100.875 23.25V22.5C98.5968 22.5 96.75 24.3468 96.75 26.625H97.5H98.25C98.25 25.1753 99.4253 24 100.875 24V23.25Z" fill="#111111"/>
</g>
<path d="M149 32.2727C149 31.7204 148.552 31.2727 148 31.2727C147.448 31.2727 147 31.7204 147 32.2727H149ZM147 22.7273C147 23.2796 147.448 23.7273 148 23.7273C148.552 23.7273 149 23.2796 149 22.7273H147ZM144.104 17.4447C144.35 17.9394 144.95 18.1413 145.445 17.8957C145.939 17.6501 146.141 17.05 145.896 16.5553L144.104 17.4447ZM142.05 11.0582L141.154 11.5027L141.154 11.5029L142.05 11.0582ZM141.595 10.4681L140.937 11.2211L140.938 11.2213L141.595 10.4681ZM140.951 10.0982L140.633 11.0462L140.633 11.0462L140.951 10.0982ZM140.215 10.0048L140.287 11.0023L140.287 11.0023L140.215 10.0048ZM139.5 10.2022L139.95 11.0954L139.95 11.0953L139.5 10.2022ZM125.55 16.1068C125.057 16.3552 124.858 16.9565 125.107 17.4497C125.355 17.943 125.956 18.1415 126.45 17.8932L125.55 16.1068ZM148 32.2727H147V34.1818H148H149V32.2727H148ZM148 34.1818H147C147 34.9379 146.707 35.6578 146.195 36.1844L146.912 36.8817L147.629 37.5789C148.51 36.6734 149 35.4509 149 34.1818H148ZM146.912 36.8817L146.195 36.1844C145.684 36.71 144.996 37 144.286 37V38V39C145.545 39 146.747 38.4854 147.629 37.5789L146.912 36.8817ZM144.286 38V37H125.714V38V39H144.286V38ZM125.714 38V37C125.003 37 124.316 36.71 123.805 36.1844L123.088 36.8817L122.371 37.5789C123.253 38.4854 124.455 39 125.714 39V38ZM123.088 36.8817L123.805 36.1844C123.292 35.6579 123 34.938 123 34.1818H122H121C121 35.4508 121.49 36.6734 122.371 37.5789L123.088 36.8817ZM122 34.1818H123V20.8182H122H121V34.1818H122ZM122 20.8182H123C123 20.062 123.292 19.3421 123.805 18.8156L123.088 18.1183L122.371 17.421C121.49 18.3266 121 19.5491 121 20.8182H122ZM123.088 18.1183L123.805 18.8156C124.316 18.29 125.003 18 125.714 18V17V16C124.455 16 123.253 16.5145 122.371 17.421L123.088 18.1183ZM125.714 17V18H144.286V17V16H125.714V17ZM144.286 17V18C144.996 18 145.684 18.29 146.195 18.8156L146.912 18.1183L147.629 17.421C146.747 16.5145 145.545 16 144.286 16V17ZM146.912 18.1183L146.195 18.8156C146.707 19.3421 147 20.062 147 20.8182H148H149C149 19.5491 148.51 18.3266 147.629 17.421L146.912 18.1183ZM148 20.8182H147V22.7273H148H149V20.8182H148ZM145 17L145.896 16.5553L142.946 10.6135L142.05 11.0582L141.154 11.5029L144.104 17.4447L145 17ZM142.05 11.0582L142.946 10.6136C142.776 10.2718 142.541 9.96626 142.253 9.7149L141.595 10.4681L140.938 11.2213C141.027 11.2994 141.101 11.3949 141.154 11.5027L142.05 11.0582ZM141.595 10.4681L142.253 9.71512C141.966 9.46379 141.631 9.2717 141.269 9.15015L140.951 10.0982L140.633 11.0462C140.744 11.0837 140.848 11.1429 140.937 11.2211L141.595 10.4681ZM140.951 10.0982L141.269 9.15022C140.907 9.02862 140.525 8.98007 140.144 9.0074L140.215 10.0048L140.287 11.0023C140.404 10.9939 140.521 11.0088 140.633 11.0462L140.951 10.0982ZM140.215 10.0048L140.144 9.0074C139.763 9.03471 139.391 9.13735 139.05 9.30922L139.5 10.2022L139.95 11.0953C140.055 11.0422 140.17 11.0107 140.287 11.0023L140.215 10.0048ZM139.5 10.2022L139.05 9.30908L125.55 16.1068L126 17L126.45 17.8932L139.95 11.0954L139.5 10.2022ZM142.5 28V27C142.776 27 143 27.2238 143 27.5H142H141C141 28.3284 141.672 29 142.5 29V28ZM142 27.5H143C143 27.7762 142.776 28 142.5 28V27V26C141.672 26 141 26.6716 141 27.5H142ZM142.5 28V29C143.328 29 144 28.3284 144 27.5H143H142C142 27.2238 142.224 27 142.5 27V28ZM143 27.5H144C144 26.6716 143.328 26 142.5 26V27V28C142.224 28 142 27.7762 142 27.5H143ZM142.5 23V24H148V23V22H142.5V23ZM150 25H149V30H150H151V25H150ZM148 32V31H142.5V32V33H148V32ZM142.5 32V31C140.567 31 139 29.433 139 27.5H138H137C137 30.5376 139.462 33 142.5 33V32ZM150 30H149C149 30.5523 148.552 31 148 31V32V33C149.657 33 151 31.6569 151 30H150ZM148 23V24C148.552 24 149 24.4477 149 25H150H151C151 23.3431 149.657 22 148 22V23ZM142.5 23V22C139.462 22 137 24.4624 137 27.5H138H139C139 25.567 140.567 24 142.5 24V23Z" fill="#111111"/>
<path d="M200.25 34.3409C200.25 33.6506 199.69 33.0909 199 33.0909C198.31 33.0909 197.75 33.6506 197.75 34.3409H200.25ZM197.75 22.4091C197.75 23.0994 198.31 23.6591 199 23.6591C199.69 23.6591 200.25 23.0994 200.25 22.4091H197.75ZM194.13 15.8059C194.437 16.4242 195.188 16.6766 195.806 16.3696C196.424 16.0626 196.677 15.3125 196.37 14.6941L194.13 15.8059ZM191.562 7.82272L190.443 8.37841L190.443 8.37859L191.562 7.82272ZM190.994 7.08511L190.172 8.02632L190.172 8.0266L190.994 7.08511ZM190.189 6.62275L189.791 7.80772L189.791 7.80781L190.189 6.62275ZM189.269 6.50604L189.359 7.75284L189.359 7.75284L189.269 6.50604ZM188.375 6.7528L188.937 7.86925L188.938 7.86907L188.375 6.7528ZM170.938 14.1335C170.321 14.444 170.073 15.1956 170.384 15.8122C170.694 16.4288 171.446 16.6769 172.062 16.3665L170.938 14.1335ZM199 34.3409H197.75V36.7273H199H200.25V34.3409H199ZM199 36.7273H197.75C197.75 37.6724 197.384 38.5723 196.744 39.2305L197.64 40.1021L198.536 40.9737C199.637 39.8417 200.25 38.3136 200.25 36.7273H199ZM197.64 40.1021L196.744 39.2305C196.105 39.8874 195.246 40.25 194.357 40.25V41.5V42.75C195.931 42.75 197.434 42.1068 198.536 40.9737L197.64 40.1021ZM194.357 41.5V40.25H171.143V41.5V42.75H194.357V41.5ZM171.143 41.5V40.25C170.254 40.25 169.395 39.8875 168.756 39.2304L167.86 40.1021L166.964 40.9737C168.066 42.1068 169.569 42.75 171.143 42.75V41.5ZM167.86 40.1021L168.756 39.2304C168.116 38.5723 167.75 37.6724 167.75 36.7273H166.5H165.25C165.25 38.3136 165.863 39.8417 166.964 40.9737L167.86 40.1021ZM166.5 36.7273H167.75V20.0227H166.5H165.25V36.7273H166.5ZM166.5 20.0227H167.75C167.75 19.0775 168.116 18.1777 168.756 17.5195L167.86 16.6479L166.964 15.7763C165.863 16.9083 165.25 18.4364 165.25 20.0227H166.5ZM167.86 16.6479L168.756 17.5195C169.395 16.8625 170.254 16.5 171.143 16.5V15.25V14C169.569 14 168.066 14.6432 166.964 15.7763L167.86 16.6479ZM171.143 15.25V16.5H194.357V15.25V14H171.143V15.25ZM194.357 15.25V16.5C195.246 16.5 196.105 16.8625 196.744 17.5195L197.64 16.6479L198.536 15.7763C197.434 14.6432 195.931 14 194.357 14V15.25ZM197.64 16.6479L196.744 17.5195C197.384 18.1777 197.75 19.0775 197.75 20.0227H199H200.25C200.25 18.4363 199.637 16.9082 198.536 15.7763L197.64 16.6479ZM199 20.0227H197.75V22.4091H199H200.25V20.0227H199ZM195.25 15.25L196.37 14.6941L192.682 7.26685L191.562 7.82272L190.443 8.37859L194.13 15.8059L195.25 15.25ZM191.562 7.82272L192.682 7.26702C192.47 6.83973 192.176 6.45783 191.816 6.14362L190.994 7.08511L190.172 8.0266C190.284 8.12419 190.376 8.24358 190.443 8.37841L191.562 7.82272ZM190.994 7.08511L191.817 6.1439C191.457 5.82973 191.039 5.58962 190.587 5.43769L190.189 6.62275L189.791 7.80781C189.931 7.85458 190.06 7.92869 190.172 8.02632L190.994 7.08511ZM190.189 6.62275L190.587 5.43777C190.134 5.28577 189.656 5.22509 189.18 5.25925L189.269 6.50604L189.359 7.75284C189.505 7.74235 189.652 7.76098 189.791 7.80772L190.189 6.62275ZM189.269 6.50604L189.18 5.25924C188.704 5.29338 188.239 5.42168 187.813 5.63652L188.375 6.7528L188.938 7.86907C189.069 7.80273 189.212 7.76332 189.359 7.75284L189.269 6.50604ZM188.375 6.7528L187.813 5.63634L170.938 14.1335L171.5 15.25L172.062 16.3665L188.937 7.86925L188.375 6.7528ZM192.125 29V27.75C192.47 27.75 192.75 28.0298 192.75 28.375H191.5H190.25C190.25 29.4105 191.089 30.25 192.125 30.25V29ZM191.5 28.375H192.75C192.75 28.7202 192.47 29 192.125 29V27.75V26.5C191.089 26.5 190.25 27.3395 190.25 28.375H191.5ZM192.125 29V30.25C193.161 30.25 194 29.4105 194 28.375H192.75H191.5C191.5 28.0298 191.78 27.75 192.125 27.75V29ZM192.75 28.375H194C194 27.3395 193.161 26.5 192.125 26.5V27.75V29C191.78 29 191.5 28.7202 191.5 28.375H192.75ZM192.125 22.75V24H199V22.75V21.5H192.125V22.75ZM201.5 25.25H200.25V31.5H201.5H202.75V25.25H201.5ZM199 34V32.75H192.125V34V35.25H199V34ZM192.125 34V32.75C189.709 32.75 187.75 30.7912 187.75 28.375H186.5H185.25C185.25 32.172 188.328 35.25 192.125 35.25V34ZM201.5 31.5H200.25C200.25 32.1904 199.69 32.75 199 32.75V34V35.25C201.071 35.25 202.75 33.5711 202.75 31.5H201.5ZM199 22.75V24C199.69 24 200.25 24.5596 200.25 25.25H201.5H202.75C202.75 23.1789 201.071 21.5 199 21.5V22.75ZM192.125 22.75V21.5C188.328 21.5 185.25 24.578 185.25 28.375H186.5H187.75C187.75 25.9588 189.709 24 192.125 24V22.75Z" fill="#111111"/>
<path d="M259.5 36.4091C259.5 35.5807 258.828 34.9091 258 34.9091C257.172 34.9091 256.5 35.5807 256.5 36.4091H259.5ZM256.5 22.0909C256.5 22.9193 257.172 23.5909 258 23.5909C258.828 23.5909 259.5 22.9193 259.5 22.0909H256.5ZM252.156 14.167C252.525 14.9091 253.425 15.2119 254.167 14.8435C254.909 14.4751 255.212 13.575 254.844 12.833L252.156 14.167ZM249.075 4.58726L247.731 5.2541L247.731 5.25431L249.075 4.58726ZM248.393 3.70213L247.406 4.83159L247.406 4.83192L248.393 3.70213ZM247.427 3.1473L246.949 4.56927L246.949 4.56937L247.427 3.1473ZM246.323 3.00725L246.43 4.50341L246.43 4.50341L246.323 3.00725ZM245.25 3.30335L245.925 4.6431L245.925 4.64288L245.25 3.30335ZM224.325 12.1603C223.585 12.5328 223.288 13.4347 223.66 14.1746C224.033 14.9145 224.935 15.2123 225.675 14.8397L224.325 12.1603ZM258 36.4091H256.5V39.2727H258H259.5V36.4091H258ZM258 39.2727H256.5C256.5 40.4069 256.061 41.4868 255.293 42.2765L256.368 43.3225L257.443 44.3684C258.765 43.0101 259.5 41.1763 259.5 39.2727H258ZM256.368 43.3225L255.293 42.2765C254.526 43.0649 253.495 43.5 252.429 43.5V45V46.5C254.318 46.5 256.121 45.7281 257.443 44.3684L256.368 43.3225ZM252.429 45V43.5H224.571V45V46.5H252.429V45ZM224.571 45V43.5C223.505 43.5 222.474 43.0649 221.707 42.2765L220.632 43.3225L219.557 44.3684C220.879 45.7281 222.682 46.5 224.571 46.5V45ZM220.632 43.3225L221.707 42.2765C220.939 41.4868 220.5 40.4069 220.5 39.2727H219H217.5C217.5 41.1763 218.235 43.0101 219.557 44.3684L220.632 43.3225ZM219 39.2727H220.5V19.2273H219H217.5V39.2727H219ZM219 19.2273H220.5C220.5 18.093 220.939 17.0132 221.707 16.2234L220.632 15.1775L219.557 14.1315C218.235 15.4899 217.5 17.3236 217.5 19.2273H219ZM220.632 15.1775L221.707 16.2234C222.474 15.435 223.505 15 224.571 15V13.5V12C222.682 12 220.879 12.7718 219.557 14.1315L220.632 15.1775ZM224.571 13.5V15H252.429V13.5V12H224.571V13.5ZM252.429 13.5V15C253.495 15 254.526 15.435 255.293 16.2234L256.368 15.1775L257.443 14.1316C256.121 12.7718 254.317 12 252.429 12V13.5ZM256.368 15.1775L255.293 16.2234C256.061 17.0132 256.5 18.093 256.5 19.2273H258H259.5C259.5 17.3236 258.765 15.4899 257.443 14.1316L256.368 15.1775ZM258 19.2273H256.5V22.0909H258H259.5V19.2273H258ZM253.5 13.5L254.844 12.833L250.418 3.92022L249.075 4.58726L247.731 5.25431L252.156 14.167L253.5 13.5ZM249.075 4.58726L250.419 3.92043C250.164 3.40767 249.811 2.9494 249.38 2.57235L248.393 3.70213L247.406 4.83192C247.54 4.94903 247.651 5.0923 247.731 5.2541L249.075 4.58726ZM248.393 3.70213L249.38 2.57267C248.949 2.19568 248.447 1.90755 247.904 1.72522L247.427 3.1473L246.949 4.56937C247.117 4.6255 247.272 4.71442 247.406 4.83159L248.393 3.70213ZM247.427 3.1473L247.904 1.72533C247.361 1.54293 246.787 1.47011 246.216 1.51109L246.323 3.00725L246.43 4.50341C246.606 4.49082 246.782 4.51317 246.949 4.56927L247.427 3.1473ZM246.323 3.00725L246.216 1.51109C245.644 1.55206 245.087 1.70602 244.575 1.96383L245.25 3.30335L245.925 4.64288C246.083 4.56328 246.255 4.51598 246.43 4.50341L246.323 3.00725ZM245.25 3.30335L244.576 1.96361L224.325 12.1603L225 13.5L225.675 14.8397L245.925 4.6431L245.25 3.30335ZM249.75 30V28.5C250.164 28.5 250.5 28.8358 250.5 29.25H249H247.5C247.5 30.4926 248.507 31.5 249.75 31.5V30ZM249 29.25H250.5C250.5 29.6642 250.164 30 249.75 30V28.5V27C248.507 27 247.5 28.0074 247.5 29.25H249ZM249.75 30V31.5C250.993 31.5 252 30.4926 252 29.25H250.5H249C249 28.8358 249.336 28.5 249.75 28.5V30ZM250.5 29.25H252C252 28.0074 250.993 27 249.75 27V28.5V30C249.336 30 249 29.6642 249 29.25H250.5ZM249.75 22.5V24H258V22.5V21H249.75V22.5ZM261 25.5H259.5V33H261H262.5V25.5H261ZM258 36V34.5H249.75V36V37.5H258V36ZM249.75 36V34.5C246.851 34.5 244.5 32.1495 244.5 29.25H243H241.5C241.5 33.8063 245.194 37.5 249.75 37.5V36ZM261 33H259.5C259.5 33.8284 258.828 34.5 258 34.5V36V37.5C260.485 37.5 262.5 35.4853 262.5 33H261ZM258 22.5V24C258.828 24 259.5 24.6716 259.5 25.5H261H262.5C262.5 23.0147 260.485 21 258 21V22.5ZM249.75 22.5V21C245.194 21 241.5 24.6937 241.5 29.25H243H244.5C244.5 26.3505 246.851 24 249.75 24V22.5Z" fill="#111111"/>
<path d="M8.57956 78.0278L3.64223 79.5953C3.42129 79.6654 3.47053 80 3.70179 80H9.79811C9.94896 80 10.0464 79.8362 9.97745 79.6984L9.29627 78.3373C9.16215 78.0693 8.85996 77.9388 8.57956 78.0278Z" fill="#111111"/>
<path d="M11.5 87.8637V86.5H10C9.17157 86.5 8.5 85.8284 8.5 85C8.5 84.1716 9.17157 83.5 10 83.5H11.5V82.1364C11.5 81.7024 11.3344 81.2862 11.0397 80.9793C10.745 80.6724 10.3453 80.5 9.92857 80.5H2.07143C1.65466 80.5 1.25496 80.6724 0.960261 80.9793C0.66556 81.2862 0.5 81.7024 0.5 82.1364V87.8637C0.5 88.2976 0.66556 88.7139 0.960261 89.0207C1.25496 89.3276 1.65466 89.5 2.07143 89.5H9.92857C10.3453 89.5 10.745 89.3276 11.0397 89.0207C11.3344 88.7139 11.5 88.2976 11.5 87.8637Z" fill="#111111"/>
<path d="M9 85C9 84.4477 9.44772 84 10 84H11.5C11.7761 84 12 84.2239 12 84.5V85.5C12 85.7762 11.7761 86 11.5 86H10C9.44772 86 9 85.5523 9 85Z" fill="#111111"/>
<path d="M35.4427 76.0371L28.8596 78.127C28.565 78.2205 28.6306 78.6667 28.939 78.6667H37.0674C37.2685 78.6667 37.3984 78.4482 37.3065 78.2646L36.3983 76.4497C36.2195 76.0924 35.8165 75.9184 35.4427 76.0371Z" fill="#111111"/>
<path d="M39.3366 89.1515V87.3334H37.3366C36.232 87.3334 35.3366 86.4379 35.3366 85.3334C35.3366 84.2288 36.232 83.3334 37.3366 83.3334H39.3366V81.5152C39.3366 80.9365 39.1158 80.3816 38.7229 79.9724C38.33 79.5632 37.797 79.3334 37.2414 79.3334H26.7652C26.2095 79.3334 25.6765 79.5632 25.2836 79.9724C24.8907 80.3816 24.6699 80.9365 24.6699 81.5152V89.1515C24.6699 89.7302 24.8907 90.2851 25.2836 90.6943C25.6765 91.1035 26.2095 91.3334 26.7652 91.3334H37.2414C37.797 91.3334 38.33 91.1035 38.7229 90.6943C39.1158 90.2851 39.3366 89.7302 39.3366 89.1515Z" fill="#111111"/>
<path d="M36.0033 85.3334C36.0033 84.597 36.6002 84 37.3366 84H39.3366C39.7048 84 40.0033 84.2985 40.0033 84.6667V86C40.0033 86.3682 39.7048 86.6667 39.3366 86.6667H37.3366C36.6002 86.6667 36.0033 86.0697 36.0033 85.3334Z" fill="#111111"/>
<path d="M66.296 74.0463L58.0671 76.6588C57.6989 76.7757 57.781 77.3333 58.1664 77.3333H68.3269C68.5783 77.3333 68.7407 77.0603 68.6258 76.8307L67.4905 74.5621C67.267 74.1154 66.7633 73.898 66.296 74.0463Z" fill="#111111"/>
<path d="M71.1634 90.4394V88.1667H68.6634C67.2827 88.1667 66.1634 87.0474 66.1634 85.6667C66.1634 84.286 67.2827 83.1667 68.6634 83.1667H71.1634V80.894C71.1634 80.1706 70.8874 79.477 70.3963 78.9655C69.9051 78.454 69.2389 78.1667 68.5444 78.1667H55.4491C54.7545 78.1667 54.0883 78.454 53.5972 78.9655C53.106 79.477 52.8301 80.1706 52.8301 80.894V90.4394C52.8301 91.1627 53.106 91.8564 53.5972 92.3679C54.0883 92.8793 54.7545 93.1667 55.4491 93.1667H68.5444C69.2389 93.1667 69.9051 92.8793 70.3963 92.3679C70.8874 91.8564 71.1634 91.1627 71.1634 90.4394Z" fill="#111111"/>
<path d="M66.9967 85.6667C66.9967 84.7462 67.7429 84 68.6634 84H71.1634C71.6236 84 71.9967 84.3731 71.9967 84.8334V86.5C71.9967 86.9603 71.6236 87.3334 71.1634 87.3334H68.6634C67.7429 87.3334 66.9967 86.5872 66.9967 85.6667Z" fill="#111111"/>
<path d="M101.159 72.0556L91.2845 75.1905C90.8426 75.3308 90.9411 76 91.4036 76H103.596C103.898 76 104.093 75.6723 103.955 75.3969L102.593 72.6746C102.324 72.1385 101.72 71.8776 101.159 72.0556Z" fill="#111111"/>
<path d="M107 91.7273V89H104C102.343 89 101 87.6569 101 86C101 84.3432 102.343 83 104 83H107V80.2728C107 79.4048 106.669 78.5723 106.079 77.9586C105.49 77.3448 104.691 77 103.857 77H88.1429C87.3093 77 86.5099 77.3448 85.9205 77.9586C85.3311 78.5723 85 79.4048 85 80.2728V91.7273C85 92.5952 85.3311 93.4277 85.9205 94.0414C86.5099 94.6552 87.3093 95 88.1429 95H103.857C104.691 95 105.49 94.6552 106.079 94.0414C106.669 93.4277 107 92.5952 107 91.7273Z" fill="#111111"/>
<path d="M102 86C102 84.8955 102.895 84 104 84H107C107.552 84 108 84.4477 108 85V87C108 87.5523 107.552 88 107 88H104C102.895 88 102 87.1046 102 86Z" fill="#111111"/>
<path d="M142.545 68.4041L129.379 72.5841C128.79 72.7711 128.921 73.6633 129.538 73.6633H145.795C146.197 73.6633 146.457 73.2265 146.273 72.8591L144.457 69.2294C144.099 68.5147 143.293 68.1668 142.545 68.4041Z" fill="#111111"/>
<path d="M150.333 94.6331V90.9967H146.333C144.124 90.9967 142.333 89.2058 142.333 86.9967C142.333 84.7876 144.124 82.9967 146.333 82.9967H150.333V79.3603C150.333 78.203 149.892 77.0931 149.106 76.2748C148.32 75.4564 147.254 74.9967 146.143 74.9967H125.19C124.079 74.9967 123.013 75.4564 122.227 76.2748C121.441 77.0931 121 78.203 121 79.3603V94.6331C121 95.7903 121.441 96.9003 122.227 97.7186C123.013 98.5369 124.079 98.9967 125.19 98.9967H146.143C147.254 98.9967 148.32 98.5369 149.106 97.7186C149.892 96.9003 150.333 95.7903 150.333 94.6331Z" fill="#111111"/>
<path d="M143.667 86.9967C143.667 85.5239 144.861 84.33 146.333 84.33H150.333C151.07 84.33 151.667 84.927 151.667 85.6634V88.33C151.667 89.0664 151.07 89.6634 150.333 89.6634H146.333C144.861 89.6634 143.667 88.4695 143.667 86.9967Z" fill="#111111"/>
<path d="M191.932 64.7627L175.474 69.9876C174.738 70.2214 174.902 71.3367 175.673 71.3367H195.994C196.497 71.3367 196.821 70.7906 196.591 70.3314L194.321 65.7943C193.874 64.9009 192.867 64.4659 191.932 64.7627Z" fill="#111111"/>
<path d="M201.667 97.5488V93.0034H196.667C193.905 93.0034 191.667 90.7648 191.667 88.0034C191.667 85.242 193.905 83.0034 196.667 83.0034H201.667V78.4579C201.667 77.0113 201.115 75.6239 200.132 74.601C199.15 73.5781 197.818 73.0034 196.429 73.0034H170.238C168.849 73.0034 167.517 73.5781 166.534 74.601C165.552 75.6239 165 77.0113 165 78.4579V97.5488C165 98.9954 165.552 100.383 166.534 101.406C167.517 102.429 168.849 103.003 170.238 103.003H196.429C197.818 103.003 199.15 102.429 200.132 101.406C201.115 100.383 201.667 98.9954 201.667 97.5488Z" fill="#111111"/>
<path d="M193.333 88.0034C193.333 86.1624 194.826 84.67 196.667 84.67H201.667C202.587 84.67 203.333 85.4162 203.333 86.3367V89.67C203.333 90.5905 202.587 91.3367 201.667 91.3367H196.667C194.826 91.3367 193.333 89.8443 193.333 88.0034Z" fill="#111111"/>
<path d="M249.818 60.6112L230.069 66.8811C229.185 67.1616 229.382 68.5 230.307 68.5H254.692C255.296 68.5 255.686 67.8447 255.41 67.2937L252.685 61.8491C252.149 60.7771 250.94 60.2551 249.818 60.6112Z" fill="#111111"/>
<path d="M261.5 99.9546V94.5001H255.5C252.186 94.5001 249.5 91.8138 249.5 88.5001C249.5 85.1864 252.186 82.5001 255.5 82.5001H261.5V77.0455C261.5 75.3095 260.838 73.6447 259.659 72.4172C258.48 71.1897 256.881 70.5001 255.214 70.5001H223.786C222.119 70.5001 220.52 71.1897 219.341 72.4172C218.162 73.6447 217.5 75.3095 217.5 77.0455V99.9546C217.5 101.69 218.162 103.355 219.341 104.583C220.52 105.81 222.119 106.5 223.786 106.5H255.214C256.881 106.5 258.48 105.81 259.659 104.583C260.838 103.355 261.5 101.69 261.5 99.9546Z" fill="#111111"/>
<path d="M251.5 88.5001C251.5 86.2909 253.291 84.5001 255.5 84.5001H261.5C262.605 84.5001 263.5 85.3955 263.5 86.5001V90.5001C263.5 91.6046 262.605 92.5001 261.5 92.5001H255.5C253.291 92.5001 251.5 90.7092 251.5 88.5001Z" fill="#111111"/>
</g>
<defs>
<clipPath id="clip0_9406_2">
<rect width="264" height="108" fill="white"/>
</clipPath>
<clipPath id="clip1_9406_2">
<rect width="12" height="12" fill="white" transform="translate(0 18)"/>
</clipPath>
<clipPath id="clip2_9406_2">
<rect width="16" height="16" fill="white" transform="translate(24 16)"/>
</clipPath>
<clipPath id="clip3_9406_2">
<rect width="20" height="20" fill="white" transform="translate(52 14)"/>
</clipPath>
<clipPath id="clip4_9406_2">
<rect width="24" height="24" fill="white" transform="translate(84 12)"/>
</clipPath>
</defs>
</svg>
