<svg width="264" height="108" viewBox="0 0 264 108" fill="none" xmlns="http://www.w3.org/2000/svg">
<g id="Archive">
<g clip-path="url(#clip0_2415_963)">
<g id="Size=12px, Filled=false">
<path id="Vector" d="M10.5 24.75V20.25C10.5 19.8358 10.184 19.5 9.79412 19.5H5.20588C4.81604 19.5 4.5 19.8358 4.5 20.25V24.75M1.5 24.75V21.75C1.5 21.3358 1.76863 21 2.1 21H3M7.5 21.75H9M6 23.25H9M10.9 26.25H7.40001C7.40001 26.8713 6.77319 27.375 6 27.375C5.2268 27.375 4.6 26.8713 4.6 26.25H1.1C0.906705 26.25 0.75 26.3759 0.75 26.5313V27.9375C0.75 28.2482 1.0634 28.5 1.45001 28.5H10.55C10.9366 28.5 11.25 28.2482 11.25 27.9375V26.5313C11.25 26.3759 11.0933 26.25 10.9 26.25Z" stroke="#111111" stroke-width="0.75" stroke-linecap="round" stroke-linejoin="round"/>
</g>
<g id="Size=16px, Filled=false">
<path id="Vector_2" d="M38 25V19C38 18.4477 37.5786 18 37.0588 18H30.9412C30.4214 18 30 18.4477 30 19V25M26 25V21C26 20.4477 26.3582 20 26.8 20H28M34 21H36M32 23H36M38.5333 27H33.8667C33.8667 27.8284 33.0309 28.5 32 28.5C30.9691 28.5 30.1333 27.8284 30.1333 27H25.4667C25.2089 27 25 27.1679 25 27.375V29.25C25 29.6642 25.4179 30 25.9333 30H38.0667C38.5821 30 39 29.6642 39 29.25V27.375C39 27.1679 38.7911 27 38.5333 27Z" stroke="#111111" stroke-linecap="round" stroke-linejoin="round"/>
</g>
<g id="Size=20px, Filled=false">
<path id="Vector_3" d="M69.5 25.25V17.75C69.5 17.0596 68.9733 16.5 68.3235 16.5H60.6765C60.0267 16.5 59.5 17.0596 59.5 17.75V25.25M54.5 25.25V20.25C54.5 19.5596 54.9477 19 55.5 19H57M64.5 20.25H67M62 22.75H67M70.1666 27.75H64.3333C64.3333 28.7856 63.2886 29.625 62 29.625C60.7113 29.625 59.6667 28.7856 59.6667 27.75H53.8333C53.5112 27.75 53.25 27.9599 53.25 28.2188V30.5625C53.25 31.0803 53.7723 31.5 54.4167 31.5H69.5833C70.2277 31.5 70.75 31.0803 70.75 30.5625V28.2188C70.75 27.9599 70.4889 27.75 70.1666 27.75Z" stroke="#111111" stroke-width="1.25" stroke-linecap="round" stroke-linejoin="round"/>
</g>
<g id="Size=24px, Filled=false">
<path id="Vector_4" d="M104.5 26.5V16.2143C104.5 15.2675 103.868 14.5 103.088 14.5H93.9118C93.1321 14.5 92.5 15.2675 92.5 16.2143V26.5M86.5 26.5V19.3C86.5 18.3059 87.2163 17.5 88.1 17.5H90.5M98.5 19.5H101.5M95.5 21.5H101.5M105.8 28.5H98.8C98.8 29.8807 97.5464 31.0001 96 31.0001C94.4536 31.0001 93.2 29.8807 93.2 28.5H86.2C85.8134 28.5 85.5 28.7799 85.5 29.125V32.25C85.5 32.9403 86.1268 33.5 86.9 33.5H105.1C105.873 33.5 106.5 32.9403 106.5 32.25V29.125C106.5 28.7799 106.187 28.5 105.8 28.5Z" stroke="#111111" stroke-width="1.5" stroke-linecap="round" stroke-linejoin="round"/>
</g>
<g id="Size=32px, Filled=false">
<path id="Vector_5" d="M147.333 27.33V13.6157C147.333 12.3534 146.491 11.33 145.451 11.33H133.216C132.176 11.33 131.333 12.3534 131.333 13.6157V27.33M123.333 27.33V17.73C123.333 16.4045 124.288 15.33 125.467 15.33H128.667M139.333 17.9967H143.333M135.333 20.6634H143.333M149.067 29.9967H139.733C139.733 31.8377 138.062 33.3301 136 33.3301C133.938 33.3301 132.267 31.8377 132.267 29.9967H122.933C122.418 29.9967 122 30.3699 122 30.8301V34.9967C122 35.9171 122.836 36.6634 123.867 36.6634H148.133C149.164 36.6634 150 35.9171 150 34.9967V30.8301C150 30.3699 149.582 29.9967 149.067 29.9967Z" stroke="#111111" stroke-width="2" stroke-linecap="round" stroke-linejoin="round"/>
</g>
<g id="Size=40px, Filled=false">
<path id="Vector_6" d="M198.167 28.17V11.0271C198.167 9.44917 197.113 8.16998 195.814 8.16998H180.52C179.22 8.16998 178.167 9.44917 178.167 11.0271V28.17M168.167 28.17V16.17C168.167 14.5131 169.361 13.17 170.833 13.17H174.833M188.167 16.5033H193.167M183.167 19.8367H193.167M200.333 31.5033H188.667C188.667 33.8046 186.577 35.6701 184 35.6701C181.423 35.6701 179.333 33.8046 179.333 31.5033H167.667C167.022 31.5033 166.5 31.9698 166.5 32.5451V37.7534C166.5 38.9039 167.545 39.8367 168.833 39.8367H199.167C200.455 39.8367 201.5 38.9039 201.5 37.7534V32.5451C201.5 31.9698 200.978 31.5033 200.333 31.5033Z" stroke="#111111" stroke-width="2.5" stroke-linecap="round" stroke-linejoin="round"/>
</g>
<g id="Size=48px, Filled=false">
<path id="Vector_7" d="M257 29V8.42858C257 6.53502 255.736 5 254.176 5H235.824C234.264 5 233 6.53502 233 8.42858V29M221 29V14.6C221 12.6118 222.433 11 224.2 11H229M245 15H251M239 19H251M259.6 33H245.6C245.6 35.7615 243.093 38.0001 240 38.0001C236.907 38.0001 234.4 35.7615 234.4 33H220.4C219.627 33 219 33.5598 219 34.2501V40.5001C219 41.8807 220.254 43 221.8 43H258.2C259.746 43 261 41.8807 261 40.5001V34.2501C261 33.5598 260.373 33 259.6 33Z" stroke="#111111" stroke-width="3" stroke-linecap="round" stroke-linejoin="round"/>
</g>
<g id="Size=12px, Filled=true">
<g id="Vector_8">
<path d="M8.29167 81.7083C8.37455 81.7083 8.45403 81.6754 8.51264 81.6168C8.57124 81.5582 8.60417 81.4787 8.60417 81.3958C8.60417 81.313 8.57124 81.2335 8.51264 81.1749C8.45403 81.1163 8.37455 81.0833 8.29167 81.0833H6.20833C6.12545 81.0833 6.04597 81.1163 5.98736 81.1749C5.92876 81.2335 5.89583 81.313 5.89583 81.3958C5.89583 81.4787 5.92876 81.5582 5.98736 81.6168C6.04597 81.6754 6.12545 81.7083 6.20833 81.7083H8.29167Z" fill="#111111"/>
<path d="M5.0625 82.6458C5.06358 82.7284 5.09685 82.8072 5.15522 82.8656C5.2136 82.924 5.29246 82.9573 5.375 82.9583H8.29167C8.37455 82.9583 8.45403 82.9254 8.51264 82.8668C8.57124 82.8082 8.60417 82.7287 8.60417 82.6458C8.60417 82.563 8.57124 82.4835 8.51264 82.4249C8.45403 82.3663 8.37455 82.3333 8.29167 82.3333H5.375C5.29246 82.3344 5.2136 82.3677 5.15522 82.4261C5.09685 82.4844 5.06358 82.5633 5.0625 82.6458Z" fill="#111111"/>
<path d="M5.375 84.2083H8.29167C8.37455 84.2083 8.45403 84.1754 8.51264 84.1168C8.57124 84.0582 8.60417 83.9787 8.60417 83.8958C8.60417 83.813 8.57124 83.7335 8.51264 83.6749C8.45403 83.6163 8.37455 83.5833 8.29167 83.5833H5.375C5.29212 83.5833 5.21263 83.6163 5.15403 83.6749C5.09542 83.7335 5.0625 83.813 5.0625 83.8958C5.0625 83.9787 5.09542 84.0582 5.15403 84.1168C5.21263 84.1754 5.29212 84.2083 5.375 84.2083Z" fill="#111111"/>
<path d="M10.375 84.8333H10.0625V79.8333C10.0625 79.6123 9.9747 79.4004 9.81842 79.2441C9.66214 79.0878 9.45018 79 9.22917 79H4.4375C4.21649 79 4.00452 79.0878 3.84824 79.2441C3.69196 79.4004 3.60417 79.6123 3.60417 79.8333V84.5208C3.60417 84.6313 3.64807 84.7373 3.72621 84.8155C3.80435 84.8936 3.91033 84.9375 4.02083 84.9375C4.13134 84.9375 4.23732 84.8936 4.31546 84.8155C4.3936 84.7373 4.4375 84.6313 4.4375 84.5208V80.0417C4.4375 79.9864 4.45945 79.9334 4.49852 79.8944C4.53759 79.8553 4.59058 79.8333 4.64583 79.8333H9.02083C9.07609 79.8333 9.12908 79.8553 9.16815 79.8944C9.20722 79.9334 9.22917 79.9864 9.22917 80.0417V84.625C9.22917 84.6803 9.20722 84.7332 9.16815 84.7723C9.12908 84.8114 9.07609 84.8333 9.02083 84.8333H8.91667C8.80616 84.8333 8.70018 84.8772 8.62204 84.9554C8.5439 85.0335 8.5 85.1395 8.5 85.25C8.5 85.3605 8.4561 85.4665 8.37796 85.5446C8.29982 85.6228 8.19384 85.6667 8.08333 85.6667H3.91667C3.80616 85.6667 3.70018 85.6228 3.62204 85.5446C3.5439 85.4665 3.5 85.3605 3.5 85.25C3.5 85.1395 3.4561 85.0335 3.37796 84.9554C3.29982 84.8772 3.19384 84.8333 3.08333 84.8333H2.77083C2.71558 84.8333 2.66259 84.8114 2.62352 84.7723C2.58445 84.7332 2.5625 84.6803 2.5625 84.625V81.2917C2.5625 81.2364 2.58445 81.1834 2.62352 81.1444C2.66259 81.1053 2.71558 81.0833 2.77083 81.0833C2.88134 81.0833 2.98732 81.0394 3.06546 80.9613C3.1436 80.8832 3.1875 80.7772 3.1875 80.6667C3.1875 80.5562 3.1436 80.4502 3.06546 80.372C2.98732 80.2939 2.88134 80.25 2.77083 80.25H2.5625C2.34149 80.25 2.12952 80.3378 1.97324 80.4941C1.81696 80.6504 1.72917 80.8623 1.72917 81.0833V84.8333H1.625C1.45924 84.8333 1.30027 84.8992 1.18306 85.0164C1.06585 85.1336 1 85.2926 1 85.4583V88.1667C1 88.3877 1.0878 88.5996 1.24408 88.7559C1.40036 88.9122 1.61232 89 1.83333 89H10.1667C10.3877 89 10.5996 88.9122 10.7559 88.7559C10.9122 88.5996 11 88.3877 11 88.1667V85.4583C11 85.2926 10.9342 85.1336 10.8169 85.0164C10.6997 84.8992 10.5408 84.8333 10.375 84.8333Z" fill="#111111"/>
</g>
</g>
<g id="Size=16px, Filled=true">
<g id="Vector_9">
<path d="M35.0556 80.9444C35.1661 80.9444 35.2721 80.9005 35.3502 80.8224C35.4284 80.7442 35.4723 80.6383 35.4723 80.5278C35.4723 80.4173 35.4284 80.3113 35.3502 80.2331C35.2721 80.155 35.1661 80.1111 35.0556 80.1111H32.2778C32.1673 80.1111 32.0613 80.155 31.9832 80.2331C31.9051 80.3113 31.8612 80.4173 31.8612 80.5278C31.8612 80.6383 31.9051 80.7442 31.9832 80.8224C32.0613 80.9005 32.1673 80.9444 32.2778 80.9444H35.0556Z" fill="#111111"/>
<path d="M30.75 82.1944C30.7515 82.3045 30.7958 82.4096 30.8737 82.4875C30.9515 82.5653 31.0566 82.6097 31.1667 82.6111H35.0556C35.1661 82.6111 35.2721 82.5672 35.3502 82.4891C35.4284 82.4109 35.4723 82.3049 35.4723 82.1944C35.4723 82.0839 35.4284 81.9779 35.3502 81.8998C35.2721 81.8217 35.1661 81.7778 35.0556 81.7778H31.1667C31.0566 81.7792 30.9515 81.8236 30.8737 81.9014C30.7958 81.9792 30.7515 82.0844 30.75 82.1944Z" fill="#111111"/>
<path d="M31.1667 84.2778H35.0556C35.1661 84.2778 35.2721 84.2339 35.3502 84.1557C35.4284 84.0776 35.4723 83.9716 35.4723 83.8611C35.4723 83.7506 35.4284 83.6446 35.3502 83.5665C35.2721 83.4883 35.1661 83.4444 35.0556 83.4444H31.1667C31.0562 83.4444 30.9502 83.4883 30.8721 83.5665C30.7939 83.6446 30.75 83.7506 30.75 83.8611C30.75 83.9716 30.7939 84.0776 30.8721 84.1557C30.9502 84.2339 31.0562 84.2778 31.1667 84.2778Z" fill="#111111"/>
<path d="M37.8334 85.1111H37.4167V78.4444C37.4167 78.1497 37.2996 77.8671 37.0913 77.6587C36.8829 77.4504 36.6003 77.3333 36.3056 77.3333H29.9167C29.622 77.3333 29.3394 77.4504 29.131 77.6587C28.9227 77.8671 28.8056 78.1497 28.8056 78.4444V84.6944C28.8056 84.8418 28.8641 84.9831 28.9683 85.0873C29.0725 85.1914 29.2138 85.25 29.3612 85.25C29.5085 85.25 29.6498 85.1914 29.754 85.0873C29.8582 84.9831 29.9167 84.8418 29.9167 84.6944V78.7222C29.9167 78.6485 29.946 78.5779 29.9981 78.5258C30.0502 78.4737 30.1208 78.4444 30.1945 78.4444H36.0278C36.1015 78.4444 36.1721 78.4737 36.2242 78.5258C36.2763 78.5779 36.3056 78.6485 36.3056 78.7222V84.8333C36.3056 84.907 36.2763 84.9776 36.2242 85.0297C36.1721 85.0818 36.1015 85.1111 36.0278 85.1111H35.8889C35.7416 85.1111 35.6003 85.1696 35.4961 85.2738C35.3919 85.378 35.3334 85.5193 35.3334 85.6666C35.3334 85.814 35.2748 85.9553 35.1707 86.0595C35.0665 86.1637 34.9252 86.2222 34.7778 86.2222H29.2223C29.0749 86.2222 28.9336 86.1637 28.8294 86.0595C28.7252 85.9553 28.6667 85.814 28.6667 85.6666C28.6667 85.5193 28.6082 85.378 28.504 85.2738C28.3998 85.1696 28.2585 85.1111 28.1112 85.1111H27.6945C27.6208 85.1111 27.5502 85.0818 27.4981 85.0297C27.446 84.9776 27.4167 84.907 27.4167 84.8333V80.3889C27.4167 80.3152 27.446 80.2445 27.4981 80.1924C27.5502 80.1404 27.6208 80.1111 27.6945 80.1111C27.8418 80.1111 27.9831 80.0526 28.0873 79.9484C28.1915 79.8442 28.25 79.7029 28.25 79.5555C28.25 79.4082 28.1915 79.2669 28.0873 79.1627C27.9831 79.0585 27.8418 79 27.6945 79H27.4167C27.122 79 26.8394 79.117 26.631 79.3254C26.4227 79.5338 26.3056 79.8164 26.3056 80.1111V85.1111H26.1667C25.9457 85.1111 25.7337 85.1989 25.5775 85.3552C25.4212 85.5114 25.3334 85.7234 25.3334 85.9444V89.5555C25.3334 89.8502 25.4504 90.1328 25.6588 90.3412C25.8672 90.5496 26.1498 90.6666 26.4445 90.6666H37.5556C37.8503 90.6666 38.1329 90.5496 38.3413 90.3412C38.5496 90.1328 38.6667 89.8502 38.6667 89.5555V85.9444C38.6667 85.7234 38.5789 85.5114 38.4226 85.3552C38.2663 85.1989 38.0544 85.1111 37.8334 85.1111Z" fill="#111111"/>
</g>
</g>
<g id="Size=20px, Filled=true">
<g id="Vector_10">
<path d="M65.8194 80.1806C65.9575 80.1806 66.09 80.1257 66.1877 80.028C66.2854 79.9304 66.3402 79.7979 66.3402 79.6597C66.3402 79.5216 66.2854 79.3891 66.1877 79.2915C66.09 79.1938 65.9575 79.1389 65.8194 79.1389H62.3472C62.209 79.1389 62.0766 79.1938 61.9789 79.2915C61.8812 79.3891 61.8263 79.5216 61.8263 79.6597C61.8263 79.7979 61.8812 79.9304 61.9789 80.028C62.0766 80.1257 62.209 80.1806 62.3472 80.1806H65.8194Z" fill="#111111"/>
<path d="M60.4375 81.7431C60.4393 81.8807 60.4947 82.0121 60.592 82.1094C60.6893 82.2067 60.8207 82.2621 60.9583 82.2639H65.8194C65.9575 82.2639 66.09 82.209 66.1877 82.1114C66.2854 82.0137 66.3402 81.8812 66.3402 81.7431C66.3402 81.6049 66.2854 81.4725 66.1877 81.3748C66.09 81.2771 65.9575 81.2222 65.8194 81.2222H60.9583C60.8207 81.224 60.6893 81.2795 60.592 81.3768C60.4947 81.4741 60.4393 81.6055 60.4375 81.7431Z" fill="#111111"/>
<path d="M60.9583 84.3472H65.8194C65.9575 84.3472 66.09 84.2924 66.1877 84.1947C66.2854 84.097 66.3402 83.9645 66.3402 83.8264C66.3402 83.6883 66.2854 83.5558 66.1877 83.4581C66.09 83.3604 65.9575 83.3056 65.8194 83.3056H60.9583C60.8202 83.3056 60.6877 83.3604 60.59 83.4581C60.4923 83.5558 60.4375 83.6883 60.4375 83.8264C60.4375 83.9645 60.4923 84.097 60.59 84.1947C60.6877 84.2924 60.8202 84.3472 60.9583 84.3472Z" fill="#111111"/>
<path d="M69.2916 85.3889H68.7708V77.0556C68.7708 76.6872 68.6245 76.334 68.364 76.0735C68.1035 75.813 67.7503 75.6667 67.3819 75.6667H59.3958C59.0274 75.6667 58.6742 75.813 58.4137 76.0735C58.1532 76.334 58.0069 76.6872 58.0069 77.0556V84.8681C58.0069 85.0523 58.0801 85.2289 58.2103 85.3591C58.3405 85.4894 58.5172 85.5625 58.7013 85.5625C58.8855 85.5625 59.0622 85.4894 59.1924 85.3591C59.3226 85.2289 59.3958 85.0523 59.3958 84.8681V77.4028C59.3958 77.3107 59.4324 77.2224 59.4975 77.1573C59.5626 77.0922 59.6509 77.0556 59.743 77.0556H67.0347C67.1268 77.0556 67.2151 77.0922 67.2802 77.1573C67.3453 77.2224 67.3819 77.3107 67.3819 77.4028V85.0417C67.3819 85.1338 67.3453 85.2221 67.2802 85.2872C67.2151 85.3523 67.1268 85.3889 67.0347 85.3889H66.8611C66.6769 85.3889 66.5003 85.4621 66.37 85.5923C66.2398 85.7225 66.1666 85.8992 66.1666 86.0834C66.1666 86.2675 66.0935 86.4442 65.9632 86.5744C65.833 86.7046 65.6564 86.7778 65.4722 86.7778H58.5277C58.3436 86.7778 58.1669 86.7046 58.0367 86.5744C57.9065 86.4442 57.8333 86.2675 57.8333 86.0834C57.8333 85.8992 57.7601 85.7225 57.6299 85.5923C57.4997 85.4621 57.323 85.3889 57.1388 85.3889H56.618C56.5259 85.3889 56.4376 85.3523 56.3725 85.2872C56.3074 85.2221 56.2708 85.1338 56.2708 85.0417V79.4861C56.2708 79.394 56.3074 79.3057 56.3725 79.2406C56.4376 79.1755 56.5259 79.1389 56.618 79.1389C56.8022 79.1389 56.9788 79.0657 57.1091 78.9355C57.2393 78.8053 57.3125 78.6286 57.3125 78.4445C57.3125 78.2603 57.2393 78.0837 57.1091 77.9534C56.9788 77.8232 56.8022 77.75 56.618 77.75H56.2708C55.9024 77.75 55.5492 77.8963 55.2887 78.1568C55.0282 78.4173 54.8819 78.7706 54.8819 79.1389V85.3889H54.7083C54.432 85.3889 54.1671 85.4987 53.9717 85.694C53.7764 85.8894 53.6666 86.1543 53.6666 86.4306V90.9445C53.6666 91.3128 53.813 91.6661 54.0734 91.9266C54.3339 92.187 54.6872 92.3334 55.0555 92.3334H68.9444C69.3128 92.3334 69.666 92.187 69.9265 91.9266C70.187 91.6661 70.3333 91.3128 70.3333 90.9445V86.4306C70.3333 86.1543 70.2235 85.8894 70.0282 85.694C69.8328 85.4987 69.5679 85.3889 69.2916 85.3889Z" fill="#111111"/>
</g>
</g>
<g id="Size=24px, Filled=true">
<g id="Vector_11">
<path d="M100.583 79.4167C100.749 79.4167 100.908 79.3508 101.025 79.2336C101.142 79.1164 101.208 78.9574 101.208 78.7917C101.208 78.6259 101.142 78.4669 101.025 78.3497C100.908 78.2325 100.749 78.1667 100.583 78.1667H96.4167C96.2509 78.1667 96.0919 78.2325 95.9747 78.3497C95.8575 78.4669 95.7917 78.6259 95.7917 78.7917C95.7917 78.9574 95.8575 79.1164 95.9747 79.2336C96.0919 79.3508 96.2509 79.4167 96.4167 79.4167H100.583Z" fill="#111111"/>
<path d="M94.125 81.2917C94.1272 81.4568 94.1937 81.6145 94.3104 81.7312C94.4272 81.848 94.5849 81.9145 94.75 81.9167H100.583C100.749 81.9167 100.908 81.8508 101.025 81.7336C101.142 81.6164 101.208 81.4574 101.208 81.2917C101.208 81.1259 101.142 80.9669 101.025 80.8497C100.908 80.7325 100.749 80.6667 100.583 80.6667H94.75C94.5849 80.6688 94.4272 80.7354 94.3104 80.8521C94.1937 80.9689 94.1272 81.1266 94.125 81.2917Z" fill="#111111"/>
<path d="M94.75 84.4167H100.583C100.749 84.4167 100.908 84.3508 101.025 84.2336C101.142 84.1164 101.208 83.9574 101.208 83.7917C101.208 83.6259 101.142 83.4669 101.025 83.3497C100.908 83.2325 100.749 83.1667 100.583 83.1667H94.75C94.5842 83.1667 94.4253 83.2325 94.3081 83.3497C94.1908 83.4669 94.125 83.6259 94.125 83.7917C94.125 83.9574 94.1908 84.1164 94.3081 84.2336C94.4253 84.3508 94.5842 84.4167 94.75 84.4167Z" fill="#111111"/>
<path d="M104.75 85.6667H104.125V75.6667C104.125 75.2246 103.949 74.8007 103.637 74.4882C103.324 74.1756 102.9 74 102.458 74H92.875C92.433 74 92.009 74.1756 91.6965 74.4882C91.3839 74.8007 91.2083 75.2246 91.2083 75.6667V85.0417C91.2083 85.2627 91.2961 85.4746 91.4524 85.6309C91.6087 85.7872 91.8207 85.875 92.0417 85.875C92.2627 85.875 92.4746 85.7872 92.6309 85.6309C92.7872 85.4746 92.875 85.2627 92.875 85.0417V76.0833C92.875 75.9728 92.9189 75.8668 92.997 75.7887C93.0752 75.7106 93.1812 75.6667 93.2917 75.6667H102.042C102.152 75.6667 102.258 75.7106 102.336 75.7887C102.414 75.8668 102.458 75.9728 102.458 76.0833V85.25C102.458 85.3605 102.414 85.4665 102.336 85.5446C102.258 85.6228 102.152 85.6667 102.042 85.6667H101.833C101.612 85.6667 101.4 85.7545 101.244 85.9107C101.088 86.067 101 86.279 101 86.5C101 86.721 100.912 86.933 100.756 87.0893C100.6 87.2455 100.388 87.3333 100.167 87.3333H91.8333C91.6123 87.3333 91.4004 87.2455 91.2441 87.0893C91.0878 86.933 91 86.721 91 86.5C91 86.279 90.9122 86.067 90.7559 85.9107C90.5996 85.7545 90.3877 85.6667 90.1667 85.6667H89.5417C89.4312 85.6667 89.3252 85.6228 89.247 85.5446C89.1689 85.4665 89.125 85.3605 89.125 85.25V78.5833C89.125 78.4728 89.1689 78.3668 89.247 78.2887C89.3252 78.2106 89.4312 78.1667 89.5417 78.1667C89.7627 78.1667 89.9746 78.0789 90.1309 77.9226C90.2872 77.7663 90.375 77.5543 90.375 77.3333C90.375 77.1123 90.2872 76.9004 90.1309 76.7441C89.9746 76.5878 89.7627 76.5 89.5417 76.5H89.125C88.683 76.5 88.259 76.6756 87.9465 76.9882C87.6339 77.3007 87.4583 77.7246 87.4583 78.1667V85.6667H87.25C86.9185 85.6667 86.6005 85.7984 86.3661 86.0328C86.1317 86.2672 86 86.5851 86 86.9167V92.3333C86 92.7754 86.1756 93.1993 86.4882 93.5118C86.8007 93.8244 87.2246 94 87.6667 94H104.333C104.775 94 105.199 93.8244 105.512 93.5118C105.824 93.1993 106 92.7754 106 92.3333V86.9167C106 86.5851 105.868 86.2672 105.634 86.0328C105.399 85.7984 105.082 85.6667 104.75 85.6667Z" fill="#111111"/>
</g>
</g>
<g id="Size=32px, Filled=true">
<g id="Vector_12">
<path d="M142.111 77.8889C142.332 77.8889 142.544 77.8011 142.7 77.6448C142.857 77.4886 142.944 77.2766 142.944 77.0556C142.944 76.8346 142.857 76.6226 142.7 76.4663C142.544 76.31 142.332 76.2222 142.111 76.2222H136.556C136.335 76.2222 136.123 76.31 135.966 76.4663C135.81 76.6226 135.722 76.8346 135.722 77.0556C135.722 77.2766 135.81 77.4886 135.966 77.6448C136.123 77.8011 136.335 77.8889 136.556 77.8889H142.111Z" fill="#111111"/>
<path d="M133.5 80.3889C133.503 80.609 133.592 80.8193 133.747 80.975C133.903 81.1306 134.113 81.2194 134.333 81.2222H142.111C142.332 81.2222 142.544 81.1344 142.7 80.9782C142.857 80.8219 142.944 80.6099 142.944 80.3889C142.944 80.1679 142.857 79.9559 142.7 79.7997C142.544 79.6434 142.332 79.5556 142.111 79.5556H134.333C134.113 79.5585 133.903 79.6472 133.747 79.8028C133.592 79.9585 133.503 80.1688 133.5 80.3889Z" fill="#111111"/>
<path d="M134.333 84.5556H142.111C142.332 84.5556 142.544 84.4678 142.7 84.3115C142.857 84.1552 142.944 83.9433 142.944 83.7222C142.944 83.5012 142.857 83.2893 142.7 83.133C142.544 82.9767 142.332 82.8889 142.111 82.8889H134.333C134.112 82.8889 133.9 82.9767 133.744 83.133C133.588 83.2893 133.5 83.5012 133.5 83.7222C133.5 83.9433 133.588 84.1552 133.744 84.3115C133.9 84.4678 134.112 84.5556 134.333 84.5556Z" fill="#111111"/>
<path d="M147.667 86.2222H146.833V72.8889C146.833 72.2995 146.599 71.7343 146.182 71.3176C145.766 70.9008 145.2 70.6667 144.611 70.6667H131.833C131.244 70.6667 130.679 70.9008 130.262 71.3176C129.845 71.7343 129.611 72.2995 129.611 72.8889V85.3889C129.611 85.6836 129.728 85.9662 129.937 86.1746C130.145 86.383 130.427 86.5 130.722 86.5C131.017 86.5 131.299 86.383 131.508 86.1746C131.716 85.9662 131.833 85.6836 131.833 85.3889V73.4445C131.833 73.2971 131.892 73.1558 131.996 73.0516C132.1 72.9474 132.242 72.8889 132.389 72.8889H144.056C144.203 72.8889 144.344 72.9474 144.448 73.0516C144.553 73.1558 144.611 73.2971 144.611 73.4445V85.6667C144.611 85.814 144.553 85.9553 144.448 86.0595C144.344 86.1637 144.203 86.2222 144.056 86.2222H143.778C143.483 86.2222 143.2 86.3393 142.992 86.5477C142.784 86.7561 142.667 87.0387 142.667 87.3334C142.667 87.628 142.55 87.9107 142.341 88.119C142.133 88.3274 141.85 88.4445 141.556 88.4445H130.444C130.15 88.4445 129.867 88.3274 129.659 88.119C129.45 87.9107 129.333 87.628 129.333 87.3334C129.333 87.0387 129.216 86.7561 129.008 86.5477C128.799 86.3393 128.517 86.2222 128.222 86.2222H127.389C127.242 86.2222 127.1 86.1637 126.996 86.0595C126.892 85.9553 126.833 85.814 126.833 85.6667V76.7778C126.833 76.6305 126.892 76.4891 126.996 76.385C127.1 76.2808 127.242 76.2222 127.389 76.2222C127.684 76.2222 127.966 76.1052 128.175 75.8968C128.383 75.6884 128.5 75.4058 128.5 75.1111C128.5 74.8164 128.383 74.5338 128.175 74.3255C127.966 74.1171 127.684 74 127.389 74H126.833C126.244 74 125.679 74.2341 125.262 74.6509C124.845 75.0676 124.611 75.6329 124.611 76.2222V86.2222H124.333C123.891 86.2222 123.467 86.3978 123.155 86.7104C122.842 87.023 122.667 87.4469 122.667 87.8889V95.1111C122.667 95.7005 122.901 96.2657 123.317 96.6825C123.734 97.0992 124.299 97.3334 124.889 97.3334H147.111C147.7 97.3334 148.266 97.0992 148.682 96.6825C149.099 96.2657 149.333 95.7005 149.333 95.1111V87.8889C149.333 87.4469 149.158 87.023 148.845 86.7104C148.533 86.3978 148.109 86.2222 147.667 86.2222Z" fill="#111111"/>
</g>
</g>
<g id="Size=40px, Filled=true">
<g id="Vector_13">
<path d="M191.639 76.3611C191.915 76.3611 192.18 76.2513 192.375 76.056C192.571 75.8606 192.681 75.5957 192.681 75.3194C192.681 75.0432 192.571 74.7782 192.375 74.5829C192.18 74.3875 191.915 74.2778 191.639 74.2778H184.694C184.418 74.2778 184.153 74.3875 183.958 74.5829C183.763 74.7782 183.653 75.0432 183.653 75.3194C183.653 75.5957 183.763 75.8606 183.958 76.056C184.153 76.2513 184.418 76.3611 184.694 76.3611H191.639Z" fill="#111111"/>
<path d="M180.875 79.4861C180.879 79.7612 180.99 80.0241 181.184 80.2187C181.379 80.4133 181.642 80.5242 181.917 80.5278H191.639C191.915 80.5278 192.18 80.418 192.375 80.2227C192.571 80.0273 192.681 79.7624 192.681 79.4861C192.681 79.2098 192.571 78.9449 192.375 78.7495C192.18 78.5542 191.915 78.4444 191.639 78.4444H181.917C181.642 78.448 181.379 78.5589 181.184 78.7535C180.99 78.9481 180.879 79.2109 180.875 79.4861Z" fill="#111111"/>
<path d="M181.917 84.6944H191.639C191.915 84.6944 192.18 84.5847 192.375 84.3893C192.571 84.194 192.681 83.929 192.681 83.6528C192.681 83.3765 192.571 83.1115 192.375 82.9162C192.18 82.7208 191.915 82.6111 191.639 82.6111H181.917C181.64 82.6111 181.375 82.7208 181.18 82.9162C180.985 83.1115 180.875 83.3765 180.875 83.6528C180.875 83.929 180.985 84.194 181.18 84.3893C181.375 84.5847 181.64 84.6944 181.917 84.6944Z" fill="#111111"/>
<path d="M198.583 86.7778H197.542V70.1111C197.542 69.3744 197.249 68.6678 196.728 68.1469C196.207 67.626 195.501 67.3333 194.764 67.3333H178.792C178.055 67.3333 177.348 67.626 176.828 68.1469C176.307 68.6678 176.014 69.3744 176.014 70.1111V85.7361C176.014 86.1044 176.16 86.4577 176.421 86.7182C176.681 86.9787 177.034 87.125 177.403 87.125C177.771 87.125 178.124 86.9787 178.385 86.7182C178.645 86.4577 178.792 86.1044 178.792 85.7361V70.8055C178.792 70.6214 178.865 70.4447 178.995 70.3145C179.125 70.1843 179.302 70.1111 179.486 70.1111H194.069C194.254 70.1111 194.43 70.1843 194.561 70.3145C194.691 70.4447 194.764 70.6214 194.764 70.8055V86.0833C194.764 86.2675 194.691 86.4441 194.561 86.5744C194.43 86.7046 194.254 86.7778 194.069 86.7778H193.722C193.354 86.7778 193.001 86.9241 192.74 87.1846C192.48 87.445 192.333 87.7983 192.333 88.1666C192.333 88.535 192.187 88.8883 191.927 89.1487C191.666 89.4092 191.313 89.5555 190.944 89.5555H177.056C176.687 89.5555 176.334 89.4092 176.074 89.1487C175.813 88.8883 175.667 88.535 175.667 88.1666C175.667 87.7983 175.52 87.445 175.26 87.1846C174.999 86.9241 174.646 86.7778 174.278 86.7778H173.236C173.052 86.7778 172.875 86.7046 172.745 86.5744C172.615 86.4441 172.542 86.2675 172.542 86.0833V74.9722C172.542 74.788 172.615 74.6114 172.745 74.4812C172.875 74.3509 173.052 74.2778 173.236 74.2778C173.605 74.2778 173.958 74.1314 174.218 73.871C174.479 73.6105 174.625 73.2572 174.625 72.8889C174.625 72.5205 174.479 72.1672 174.218 71.9068C173.958 71.6463 173.605 71.5 173.236 71.5H172.542C171.805 71.5 171.098 71.7926 170.578 72.3136C170.057 72.8345 169.764 73.541 169.764 74.2778V86.7778H169.417C168.864 86.7778 168.334 86.9972 167.944 87.388C167.553 87.7787 167.333 88.3086 167.333 88.8611V97.8889C167.333 98.6256 167.626 99.3321 168.147 99.8531C168.668 100.374 169.374 100.667 170.111 100.667H197.889C198.626 100.667 199.332 100.374 199.853 99.8531C200.374 99.3321 200.667 98.6256 200.667 97.8889V88.8611C200.667 88.3086 200.447 87.7787 200.057 87.388C199.666 86.9972 199.136 86.7778 198.583 86.7778Z" fill="#111111"/>
</g>
</g>
<g id="Size=48px, Filled=true">
<g id="Vector_14">
<path d="M249.167 74.8333C249.498 74.8333 249.816 74.7016 250.051 74.4672C250.285 74.2328 250.417 73.9149 250.417 73.5833C250.417 73.2518 250.285 72.9339 250.051 72.6994C249.816 72.465 249.498 72.3333 249.167 72.3333H240.833C240.502 72.3333 240.184 72.465 239.949 72.6994C239.715 72.9339 239.583 73.2518 239.583 73.5833C239.583 73.9149 239.715 74.2328 239.949 74.4672C240.184 74.7016 240.502 74.8333 240.833 74.8333H249.167Z" fill="#111111"/>
<path d="M236.25 78.5833C236.254 78.9135 236.387 79.229 236.621 79.4624C236.854 79.6959 237.17 79.829 237.5 79.8333H249.167C249.498 79.8333 249.816 79.7016 250.051 79.4672C250.285 79.2328 250.417 78.9149 250.417 78.5833C250.417 78.2518 250.285 77.9339 250.051 77.6995C249.816 77.465 249.498 77.3333 249.167 77.3333H237.5C237.17 77.3376 236.854 77.4707 236.621 77.7042C236.387 77.9377 236.254 78.2532 236.25 78.5833Z" fill="#111111"/>
<path d="M237.5 84.8333H249.167C249.498 84.8333 249.816 84.7016 250.051 84.4672C250.285 84.2328 250.417 83.9149 250.417 83.5833C250.417 83.2518 250.285 82.9339 250.051 82.6995C249.816 82.465 249.498 82.3333 249.167 82.3333H237.5C237.168 82.3333 236.851 82.465 236.616 82.6995C236.382 82.9339 236.25 83.2518 236.25 83.5833C236.25 83.9149 236.382 84.2328 236.616 84.4672C236.851 84.7016 237.168 84.8333 237.5 84.8333Z" fill="#111111"/>
<path d="M257.5 87.3333H256.25V67.3333C256.25 66.4493 255.899 65.6014 255.274 64.9763C254.649 64.3512 253.801 64 252.917 64H233.75C232.866 64 232.018 64.3512 231.393 64.9763C230.768 65.6014 230.417 66.4493 230.417 67.3333V86.0833C230.417 86.5254 230.592 86.9493 230.905 87.2618C231.217 87.5744 231.641 87.75 232.083 87.75C232.525 87.75 232.949 87.5744 233.262 87.2618C233.574 86.9493 233.75 86.5254 233.75 86.0833V68.1667C233.75 67.9457 233.838 67.7337 233.994 67.5774C234.15 67.4211 234.362 67.3333 234.583 67.3333H252.083C252.304 67.3333 252.516 67.4211 252.673 67.5774C252.829 67.7337 252.917 67.9457 252.917 68.1667V86.5C252.917 86.721 252.829 86.933 252.673 87.0893C252.516 87.2455 252.304 87.3333 252.083 87.3333H251.667C251.225 87.3333 250.801 87.5089 250.488 87.8215C250.176 88.1341 250 88.558 250 89C250 89.442 249.824 89.8659 249.512 90.1785C249.199 90.4911 248.775 90.6667 248.333 90.6667H231.667C231.225 90.6667 230.801 90.4911 230.488 90.1785C230.176 89.8659 230 89.442 230 89C230 88.558 229.824 88.1341 229.512 87.8215C229.199 87.5089 228.775 87.3333 228.333 87.3333H227.083C226.862 87.3333 226.65 87.2455 226.494 87.0893C226.338 86.933 226.25 86.721 226.25 86.5V73.1667C226.25 72.9457 226.338 72.7337 226.494 72.5774C226.65 72.4211 226.862 72.3333 227.083 72.3333C227.525 72.3333 227.949 72.1577 228.262 71.8452C228.574 71.5326 228.75 71.1087 228.75 70.6667C228.75 70.2246 228.574 69.8007 228.262 69.4882C227.949 69.1756 227.525 69 227.083 69H226.25C225.366 69 224.518 69.3512 223.893 69.9763C223.268 70.6014 222.917 71.4493 222.917 72.3333V87.3333H222.5C221.837 87.3333 221.201 87.5967 220.732 88.0656C220.263 88.5344 220 89.1703 220 89.8333V100.667C220 101.551 220.351 102.399 220.976 103.024C221.601 103.649 222.449 104 223.333 104H256.667C257.551 104 258.399 103.649 259.024 103.024C259.649 102.399 260 101.551 260 100.667V89.8333C260 89.1703 259.737 88.5344 259.268 88.0656C258.799 87.5967 258.163 87.3333 257.5 87.3333Z" fill="#111111"/>
</g>
</g>
</g>
</g>
<defs>
<clipPath id="clip0_2415_963">
<rect width="264" height="108" rx="5" fill="white"/>
</clipPath>
</defs>
</svg>
