<svg width="268" height="108" viewBox="0 0 268 108" fill="none" xmlns="http://www.w3.org/2000/svg">
<g id="Bed">
<g id="Size=12px, Filled=false" clip-path="url(#clip0_3570_541)">
<path id="Vector" d="M9.65519 20.3316H10.6467L11.6249 26.2011M11.6249 26.2011H0.375M11.6249 26.2011V28.4022C11.6249 28.5968 11.5476 28.7834 11.41 28.921C11.2724 29.0586 11.0858 29.1359 10.8912 29.1359H1.10869C0.914103 29.1359 0.727486 29.0586 0.589893 28.921C0.452299 28.7834 0.375 28.5968 0.375 28.4022V26.2011M0.375 26.2011L1.35325 20.3316H2.46748M1.02624 22.2881H10.9721M1.35172 20.3315V19.1087C1.35172 18.9141 1.42902 18.7275 1.56662 18.5899C1.70421 18.4523 1.89083 18.375 2.08541 18.375H9.91143C10.106 18.375 10.2926 18.4523 10.4302 18.5899C10.5678 18.7275 10.6451 18.9141 10.6451 19.1087V20.3315M1.84238 29.1359V29.625M10.156 29.1359V29.625M5.31709 20.3875H6.80501M5.29147 21.0701C5.29019 21.1341 5.26386 21.1951 5.21813 21.2399C5.17241 21.2847 5.11093 21.3098 5.04691 21.3098H2.61204C2.57687 21.3101 2.54205 21.3029 2.50994 21.2885C2.47783 21.2742 2.4492 21.2531 2.42598 21.2267C2.40277 21.2002 2.38553 21.1691 2.37543 21.1354C2.36533 21.1018 2.36262 21.0663 2.36747 21.0315L2.50345 20.0532C2.51165 19.9944 2.54099 19.9405 2.586 19.9017C2.63101 19.8629 2.6886 19.8418 2.74801 19.8424H5.06745C5.09998 19.8424 5.13219 19.8489 5.16218 19.8615C5.19218 19.8741 5.21936 19.8925 5.24214 19.9157C5.26491 19.939 5.28282 19.9665 5.29482 19.9968C5.30682 20.027 5.31266 20.0593 5.31201 20.0918L5.29147 21.0701ZM6.8307 21.0702C6.83198 21.1342 6.85831 21.1951 6.90404 21.24C6.94977 21.2848 7.01124 21.3099 7.07527 21.3099H9.50965C9.54481 21.3102 9.57964 21.3029 9.61174 21.2886C9.64385 21.2743 9.67249 21.2532 9.6957 21.2267C9.71891 21.2003 9.73616 21.1692 9.74625 21.1355C9.75635 21.1018 9.75906 21.0664 9.75421 21.0315L9.61823 20.0533C9.61005 19.9945 9.58077 19.9407 9.53587 19.9019C9.49097 19.8632 9.43349 19.842 9.37416 19.8425H7.05423C7.0217 19.8425 6.98949 19.849 6.9595 19.8615C6.9295 19.8741 6.90232 19.8926 6.87955 19.9158C6.85677 19.9391 6.83886 19.9666 6.82686 19.9968C6.81486 20.0271 6.80902 20.0594 6.80967 20.0919L6.8307 21.0702Z" stroke="#111111" stroke-width="0.75" stroke-linecap="round" stroke-linejoin="round"/>
</g>
<g id="Size=16px, Filled=false" clip-path="url(#clip1_3570_541)">
<path id="Vector_2" d="M36.8736 19.1088H38.1955L39.4999 26.9348M39.4999 26.9348H24.5M39.4999 26.9348V29.8696C39.4999 30.129 39.3968 30.3778 39.2133 30.5613C39.0299 30.7448 38.7811 30.8478 38.5216 30.8478H25.4783C25.2188 30.8478 24.97 30.7448 24.7865 30.5613C24.6031 30.3778 24.5 30.129 24.5 29.8696V26.9348M24.5 26.9348L25.8043 19.1088H27.29M25.3683 21.7175H38.6295M25.8023 19.1087V17.4783C25.8023 17.2188 25.9054 16.97 26.0888 16.7865C26.2723 16.6031 26.5211 16.5 26.7806 16.5H37.2152C37.4747 16.5 37.7235 16.6031 37.907 16.7865C38.0904 16.97 38.1935 17.2188 38.1935 17.4783V19.1087M26.4565 30.8478V31.5M37.5413 30.8478V31.5M31.0894 19.1833H33.0733M31.0553 20.0935C31.0536 20.1788 31.0185 20.2601 30.9575 20.3198C30.8965 20.3796 30.8146 20.413 30.7292 20.413H27.4827C27.4358 20.4135 27.3894 20.4038 27.3466 20.3847C27.3038 20.3656 27.2656 20.3374 27.2346 20.3022C27.2037 20.267 27.1807 20.2255 27.1672 20.1806C27.1538 20.1357 27.1502 20.0884 27.1566 20.0419L27.3379 18.7376C27.3489 18.6591 27.388 18.5873 27.448 18.5356C27.508 18.4839 27.5848 18.4558 27.664 18.4565H30.7566C30.8 18.4565 30.8429 18.4652 30.8829 18.482C30.9229 18.4987 30.9591 18.5233 30.9895 18.5543C31.0199 18.5853 31.0438 18.622 31.0598 18.6623C31.0758 18.7027 31.0836 18.7458 31.0827 18.7891L31.0553 20.0935ZM33.1076 20.0936C33.1093 20.1789 33.1444 20.2602 33.2054 20.3199C33.2664 20.3797 33.3483 20.4132 33.4337 20.4131H36.6795C36.7264 20.4136 36.7728 20.4039 36.8157 20.3848C36.8585 20.3657 36.8966 20.3375 36.9276 20.3023C36.9586 20.2671 36.9815 20.2256 36.995 20.1807C37.0085 20.1358 37.0121 20.0885 37.0056 20.0421L36.8243 18.7377C36.8134 18.6594 36.7744 18.5876 36.7145 18.5359C36.6546 18.4842 36.578 18.456 36.4989 18.4566H33.4056C33.3623 18.4566 33.3193 18.4653 33.2793 18.4821C33.2393 18.4989 33.2031 18.5235 33.1727 18.5544C33.1424 18.5854 33.1185 18.6221 33.1025 18.6624C33.0865 18.7028 33.0787 18.7459 33.0796 18.7892L33.1076 20.0936Z" stroke="#111111" stroke-linecap="round" stroke-linejoin="round"/>
</g>
<g id="Size=20px, Filled=false" clip-path="url(#clip2_3570_541)">
<path id="Vector_3" d="M68.092 17.886H69.7444L71.3748 27.6685M71.3748 27.6685H52.625M71.3748 27.6685V31.337C71.3748 31.6613 71.246 31.9723 71.0167 32.2016C70.7874 32.431 70.4763 32.5598 70.152 32.5598H53.8478C53.5235 32.5598 53.2125 32.431 52.9832 32.2016C52.7538 31.9723 52.625 31.6613 52.625 31.337V27.6685M52.625 27.6685L54.2554 17.886H56.1125M53.7104 21.1468H70.2869M54.2529 17.8858V15.8478C54.2529 15.5235 54.3817 15.2125 54.611 14.9832C54.8404 14.7538 55.1514 14.625 55.4757 14.625H68.5191C68.8434 14.625 69.1544 14.7538 69.3837 14.9832C69.613 15.2125 69.7419 15.5235 69.7419 15.8478V17.8858M55.0706 32.5598V33.375M68.9267 32.5598V33.375M60.8618 17.9791H63.3417M60.8191 19.1168C60.817 19.2235 60.7731 19.3251 60.6969 19.3998C60.6207 19.4745 60.5182 19.5163 60.4115 19.5163H56.3534C56.2948 19.5168 56.2367 19.5048 56.1832 19.4809C56.1297 19.4569 56.082 19.4218 56.0433 19.3778C56.0046 19.3337 55.9759 19.2819 55.9591 19.2257C55.9422 19.1696 55.9377 19.1105 55.9458 19.0524L56.1724 17.422C56.1861 17.3239 56.235 17.2342 56.31 17.1695C56.385 17.1048 56.481 17.0697 56.58 17.0707H60.4458C60.5 17.0706 60.5536 17.0814 60.6036 17.1024C60.6536 17.1234 60.6989 17.1542 60.7369 17.1929C60.7749 17.2316 60.8047 17.2775 60.8247 17.3279C60.8447 17.3783 60.8544 17.4322 60.8534 17.4864L60.8191 19.1168ZM63.3845 19.117C63.3866 19.2237 63.4305 19.3252 63.5067 19.3999C63.5829 19.4746 63.6854 19.5164 63.7921 19.5164H67.8494C67.908 19.517 67.9661 19.5049 68.0196 19.481C68.0731 19.4571 68.1208 19.4219 68.1595 19.3779C68.1982 19.3339 68.2269 19.282 68.2438 19.2259C68.2606 19.1697 68.2651 19.1106 68.257 19.0526L68.0304 17.4221C68.0167 17.3242 67.968 17.2346 67.8931 17.1699C67.8183 17.1053 67.7225 17.07 67.6236 17.0708H63.7571C63.7028 17.0708 63.6492 17.0816 63.5992 17.1026C63.5492 17.1236 63.5039 17.1543 63.4659 17.193C63.428 17.2318 63.3981 17.2777 63.3781 17.3281C63.3581 17.3785 63.3484 17.4323 63.3495 17.4865L63.3845 19.117Z" stroke="#111111" stroke-width="1.25" stroke-linecap="round" stroke-linejoin="round"/>
</g>
<g id="Size=24px, Filled=false" clip-path="url(#clip3_3570_541)">
<path id="Vector_4" d="M103.31 16.6632H105.293L107.25 28.4022M107.25 28.4022H84.75M107.25 28.4022V32.8044C107.25 33.1935 107.095 33.5668 106.82 33.842C106.545 34.1171 106.172 34.2717 105.782 34.2717H86.2174C85.8282 34.2717 85.455 34.1171 85.1798 33.842C84.9046 33.5668 84.75 33.1935 84.75 32.8044V28.4022M84.75 28.4022L86.7065 16.6632H88.935M86.0525 20.5762H105.944M86.7034 16.663V14.2174C86.7034 13.8282 86.858 13.455 87.1332 13.1798C87.4084 12.9046 87.7817 12.75 88.1708 12.75H103.823C104.212 12.75 104.585 12.9046 104.86 13.1798C105.136 13.455 105.29 13.8282 105.29 14.2174V16.663M87.6848 34.2717V35.25M104.312 34.2717V35.25M94.6342 16.775H97.61M94.5829 18.1402C94.5804 18.2682 94.5277 18.3901 94.4363 18.4798C94.3448 18.5694 94.2219 18.6196 94.0938 18.6195H89.2241C89.1537 18.6202 89.0841 18.6057 89.0199 18.577C88.9557 18.5483 88.8984 18.5061 88.852 18.4533C88.8055 18.4005 88.7711 18.3382 88.7509 18.2709C88.7307 18.2035 88.7252 18.1326 88.7349 18.0629L89.0069 16.1064C89.0233 15.9887 89.082 15.881 89.172 15.8034C89.262 15.7258 89.3772 15.6836 89.496 15.6848H94.1349C94.2 15.6848 94.2644 15.6977 94.3244 15.7229C94.3844 15.7481 94.4387 15.785 94.4843 15.8315C94.5298 15.8779 94.5656 15.933 94.5896 15.9935C94.6136 16.054 94.6253 16.1186 94.624 16.1837L94.5829 18.1402ZM97.6614 18.1404C97.664 18.2684 97.7166 18.3903 97.8081 18.4799C97.8995 18.5695 98.0225 18.6197 98.1505 18.6197H103.019C103.09 18.6204 103.159 18.6059 103.223 18.5772C103.288 18.5485 103.345 18.5063 103.391 18.4535C103.438 18.4006 103.472 18.3384 103.493 18.271C103.513 18.2037 103.518 18.1327 103.508 18.0631L103.236 16.1066C103.22 15.989 103.162 15.8815 103.072 15.8039C102.982 15.7263 102.867 15.6841 102.748 15.6849H98.1085C98.0434 15.6849 97.979 15.6979 97.919 15.7231C97.859 15.7483 97.8046 15.7852 97.7591 15.8317C97.7135 15.8781 97.6777 15.9332 97.6537 15.9937C97.6297 16.0541 97.618 16.1188 97.6193 16.1839L97.6614 18.1404Z" stroke="#111111" stroke-width="1.5" stroke-linecap="round" stroke-linejoin="round"/>
</g>
<g id="Size=32px, Filled=false" clip-path="url(#clip4_3570_541)">
<path id="Vector_5" d="M145.747 14.2176H148.391L151 29.8696M151 29.8696H121M151 29.8696V35.7392C151 36.2581 150.794 36.7557 150.427 37.1226C150.06 37.4895 149.562 37.6957 149.043 37.6957H122.957C122.438 37.6957 121.94 37.4895 121.573 37.1226C121.206 36.7557 121 36.2581 121 35.7392V29.8696M121 29.8696L123.609 14.2176H126.58M122.737 19.4349H149.259M123.605 14.2173V10.9565C123.605 10.4376 123.811 9.93996 124.178 9.57305C124.545 9.20613 125.042 9 125.561 9H146.43C146.949 9 147.447 9.20613 147.814 9.57305C148.181 9.93996 148.387 10.4376 148.387 10.9565V14.2173M124.913 37.6957V39M147.083 37.6957V39M134.179 14.3666H138.147M134.111 16.1869C134.107 16.3576 134.037 16.5202 133.915 16.6397C133.793 16.7592 133.629 16.8261 133.458 16.8261H126.965C126.872 16.8269 126.779 16.8076 126.693 16.7694C126.608 16.7311 126.531 16.6748 126.469 16.6044C126.407 16.534 126.361 16.451 126.334 16.3612C126.308 16.2713 126.3 16.1768 126.313 16.0839L126.676 13.4752C126.698 13.3183 126.776 13.1747 126.896 13.0712C127.016 12.9677 127.17 12.9115 127.328 12.913H133.513C133.6 12.913 133.686 12.9303 133.766 12.9639C133.846 12.9975 133.918 13.0467 133.979 13.1086C134.04 13.1706 134.088 13.244 134.12 13.3247C134.152 13.4053 134.167 13.4915 134.165 13.5783L134.111 16.1869ZM138.215 16.1872C138.219 16.3578 138.289 16.5204 138.411 16.6399C138.533 16.7594 138.697 16.8263 138.867 16.8263H145.359C145.453 16.8272 145.546 16.8078 145.631 16.7696C145.717 16.7313 145.793 16.6751 145.855 16.6046C145.917 16.5342 145.963 16.4512 145.99 16.3614C146.017 16.2716 146.024 16.177 146.011 16.0841L145.649 13.4754C145.627 13.3187 145.549 13.1753 145.429 13.0719C145.309 12.9684 145.156 12.9121 144.998 12.9133H138.811C138.725 12.9132 138.639 12.9305 138.559 12.9641C138.479 12.9977 138.406 13.0469 138.345 13.1089C138.285 13.1708 138.237 13.2443 138.205 13.3249C138.173 13.4055 138.157 13.4917 138.159 13.5785L138.215 16.1872Z" stroke="#111111" stroke-width="2" stroke-linecap="round" stroke-linejoin="round"/>
</g>
<g id="Size=40px, Filled=false" clip-path="url(#clip5_3570_541)">
<path id="Vector_6" d="M196.184 11.772H199.489L202.75 31.3371M202.75 31.3371H165.25M202.75 31.3371V38.6739C202.75 39.3226 202.492 39.9446 202.033 40.4033C201.575 40.8619 200.953 41.1196 200.304 41.1196H167.696C167.047 41.1196 166.425 40.8619 165.966 40.4033C165.508 39.9446 165.25 39.3226 165.25 38.6739V31.3371M165.25 31.3371L168.511 11.772H172.225M167.421 18.2937H200.574M168.506 11.7717V7.69563C168.506 7.04701 168.763 6.42495 169.222 5.96631C169.681 5.50766 170.303 5.25 170.951 5.25H197.038C197.687 5.25 198.309 5.50766 198.767 5.96631C199.226 6.42495 199.484 7.04701 199.484 7.69563V11.7717M170.141 41.1196V42.75M197.853 41.1196V42.75M181.724 11.9583H186.683M181.638 14.2337C181.634 14.447 181.546 14.6502 181.394 14.7996C181.241 14.949 181.036 15.0326 180.823 15.0326H172.707C172.59 15.0337 172.473 15.0095 172.366 14.9617C172.259 14.9139 172.164 14.8436 172.087 14.7555C172.009 14.6675 171.952 14.5637 171.918 14.4515C171.884 14.3392 171.875 14.221 171.892 14.1049L172.345 10.844C172.372 10.6478 172.47 10.4683 172.62 10.339C172.77 10.2097 172.962 10.1394 173.16 10.1413H180.892C181 10.1413 181.107 10.1629 181.207 10.2049C181.307 10.2469 181.398 10.3084 181.474 10.3858C181.55 10.4632 181.609 10.555 181.649 10.6558C181.689 10.7566 181.709 10.8644 181.707 10.9728L181.638 14.2337ZM186.769 14.2339C186.773 14.4473 186.861 14.6505 187.013 14.7999C187.166 14.9492 187.371 15.0329 187.584 15.0328H195.699C195.816 15.034 195.932 15.0098 196.039 14.962C196.146 14.9142 196.242 14.8438 196.319 14.7558C196.396 14.6677 196.454 14.564 196.488 14.4517C196.521 14.3395 196.53 14.2212 196.514 14.1051L196.061 10.8443C196.033 10.6484 195.936 10.4691 195.786 10.3398C195.637 10.2105 195.445 10.1401 195.247 10.1416H187.514C187.406 10.1416 187.298 10.1632 187.198 10.2052C187.098 10.2471 187.008 10.3087 186.932 10.3861C186.856 10.4635 186.796 10.5553 186.756 10.6561C186.716 10.7569 186.697 10.8647 186.699 10.9731L186.769 14.2339Z" stroke="#111111" stroke-width="2.5" stroke-linecap="round" stroke-linejoin="round"/>
</g>
<g id="Size=48px, Filled=false" clip-path="url(#clip6_3570_541)">
<path id="Vector_7" d="M254.621 9.3264H258.587L262.5 32.8045M262.5 32.8045H217.5M262.5 32.8045V41.6087C262.5 42.3871 262.19 43.1335 261.64 43.6839C261.09 44.2343 260.343 44.5435 259.565 44.5435H220.435C219.656 44.5435 218.91 44.2343 218.36 43.6839C217.809 43.1335 217.5 42.3871 217.5 41.6087V32.8045M217.5 32.8045L221.413 9.3264H225.87M220.105 17.1524H259.889M221.407 9.32602V4.43476C221.407 3.65641 221.716 2.90994 222.266 2.35957C222.817 1.8092 223.563 1.5 224.342 1.5H255.646C256.424 1.5 257.171 1.8092 257.721 2.35957C258.271 2.90994 258.58 3.65641 258.58 4.43476V9.32602M223.37 44.5435V46.5M256.624 44.5435V46.5M237.268 9.54995H243.22M237.166 12.2804C237.161 12.5364 237.055 12.7803 236.873 12.9595C236.69 13.1388 236.444 13.2391 236.188 13.2391H226.448C226.307 13.2404 226.168 13.2114 226.04 13.154C225.911 13.0967 225.797 13.0123 225.704 12.9066C225.611 12.8009 225.542 12.6765 225.502 12.5418C225.461 12.407 225.45 12.2651 225.47 12.1258L226.014 8.21281C226.047 7.97741 226.164 7.76199 226.344 7.6068C226.524 7.45162 226.754 7.36729 226.992 7.36956H236.27C236.4 7.36953 236.529 7.39547 236.649 7.44585C236.769 7.49623 236.877 7.57004 236.969 7.66297C237.06 7.75589 237.131 7.86605 237.179 7.98701C237.227 8.10796 237.251 8.23728 237.248 8.36738L237.166 12.2804ZM243.323 12.2807C243.328 12.5368 243.433 12.7806 243.616 12.9598C243.799 13.1391 244.045 13.2395 244.301 13.2394H254.039C254.179 13.2408 254.319 13.2118 254.447 13.1544C254.575 13.097 254.69 13.0126 254.783 12.9069C254.876 12.8013 254.945 12.6768 254.985 12.5421C255.025 12.4073 255.036 12.2655 255.017 12.1262L254.473 8.21315C254.44 7.97808 254.323 7.76293 254.143 7.60779C253.964 7.45265 253.734 7.3681 253.497 7.3699H244.217C244.087 7.36987 243.958 7.39581 243.838 7.44619C243.718 7.49657 243.609 7.57038 243.518 7.6633C243.427 7.75623 243.355 7.86639 243.307 7.98734C243.259 8.1083 243.236 8.23761 243.239 8.36772L243.323 12.2807Z" stroke="#111111" stroke-width="3" stroke-linecap="round" stroke-linejoin="round"/>
</g>
<g id="Size=12px, Filled=true" clip-path="url(#clip7_3570_541)">
<g id="Vector_8">
<path d="M10.6705 78.3295C10.8815 78.5405 11 78.8266 11 79.125V80.5C11 80.5328 10.9935 80.5653 10.981 80.5957C10.9684 80.626 10.95 80.6536 10.9268 80.6768C10.9036 80.7 10.876 80.7184 10.8457 80.731C10.8153 80.7435 10.7828 80.75 10.75 80.75H9.96C9.90094 80.7496 9.84393 80.7283 9.79908 80.6898C9.75424 80.6514 9.72445 80.5983 9.715 80.54L9.535 79.46C9.52555 79.4017 9.49576 79.3486 9.45092 79.3102C9.40607 79.2717 9.34906 79.2504 9.29 79.25H7C6.9337 79.25 6.87011 79.2763 6.82322 79.3232C6.77634 79.3701 6.75 79.4337 6.75 79.5V80.5C6.75 80.5663 6.72366 80.6299 6.67678 80.6768C6.62989 80.7237 6.5663 80.75 6.5 80.75H5.5C5.4337 80.75 5.37011 80.7237 5.32322 80.6768C5.27634 80.6299 5.25 80.5663 5.25 80.5V79.5C5.25 79.4337 5.22366 79.3701 5.17678 79.3232C5.12989 79.2763 5.0663 79.25 5 79.25H2.71C2.65094 79.2504 2.59393 79.2717 2.54908 79.3102C2.50424 79.3486 2.47445 79.4017 2.465 79.46L2.285 80.54C2.27555 80.5983 2.24576 80.6514 2.20092 80.6898C2.15607 80.7283 2.09906 80.7496 2.04 80.75H1.25C1.1837 80.75 1.12011 80.7237 1.07322 80.6768C1.02634 80.6299 1 80.5663 1 80.5V79.125C1 78.8266 1.11853 78.5405 1.3295 78.3295C1.54048 78.1185 1.82663 78 2.125 78H9.875C10.1734 78 10.4595 78.1185 10.6705 78.3295Z" fill="#111111"/>
<path d="M11.6151 85.75C11.6512 85.7488 11.6867 85.7401 11.7194 85.7246C11.752 85.7092 11.7812 85.6872 11.8051 85.66C11.8496 85.6015 11.8693 85.5279 11.8601 85.455L11.1151 81.455C11.1046 81.3976 11.0743 81.3457 11.0296 81.3083C10.9848 81.2708 10.9284 81.2502 10.8701 81.25H1.13006C1.07172 81.2502 1.01529 81.2708 0.970546 81.3083C0.925802 81.3457 0.895561 81.3976 0.88506 81.455L0.14006 85.455C0.13078 85.5279 0.150534 85.6015 0.19506 85.66C0.218915 85.6872 0.248077 85.7092 0.280753 85.7246C0.313428 85.7401 0.348925 85.7488 0.38506 85.75H11.6151Z" fill="#111111"/>
<path d="M0.25 86.25C0.183696 86.25 0.120107 86.2763 0.0732233 86.3232C0.0263392 86.3701 0 86.4337 0 86.5V88.125C0 88.4234 0.118526 88.7095 0.329505 88.9205C0.540483 89.1315 0.826631 89.25 1.125 89.25C1.15815 89.25 1.18995 89.2632 1.21339 89.2866C1.23683 89.3101 1.25 89.3418 1.25 89.375V89.625C1.25 89.7245 1.28951 89.8198 1.35983 89.8902C1.43016 89.9605 1.52554 90 1.625 90C1.72446 90 1.81984 89.9605 1.89017 89.8902C1.96049 89.8198 2 89.7245 2 89.625V89.5C2 89.4337 2.02634 89.3701 2.07322 89.3232C2.12011 89.2763 2.1837 89.25 2.25 89.25H9.75C9.8163 89.25 9.87989 89.2763 9.92678 89.3232C9.97366 89.3701 10 89.4337 10 89.5V89.625C10 89.7245 10.0395 89.8198 10.1098 89.8902C10.1802 89.9605 10.2755 90 10.375 90C10.4745 90 10.5698 89.9605 10.6402 89.8902C10.7105 89.8198 10.75 89.7245 10.75 89.625V89.375C10.75 89.3418 10.7632 89.3101 10.7866 89.2866C10.8101 89.2632 10.8418 89.25 10.875 89.25C11.1734 89.25 11.4595 89.1315 11.6705 88.9205C11.8815 88.7095 12 88.4234 12 88.125V86.5C12 86.4337 11.9737 86.3701 11.9268 86.3232C11.8799 86.2763 11.8163 86.25 11.75 86.25H0.25Z" fill="#111111"/>
</g>
</g>
<g id="Size=16px, Filled=true" clip-path="url(#clip8_3570_541)">
<g id="Vector_9">
<path d="M38.2273 76.4393C38.5086 76.7206 38.6667 77.1022 38.6667 77.5V79.3333C38.6667 79.3771 38.658 79.4205 38.6413 79.4609C38.6245 79.5013 38.6 79.5381 38.569 79.569C38.5381 79.6 38.5013 79.6245 38.4609 79.6413C38.4205 79.658 38.3771 79.6667 38.3333 79.6667H37.28C37.2012 79.6661 37.1252 79.6377 37.0654 79.5864C37.0056 79.5352 36.9659 79.4644 36.9533 79.3867L36.7133 77.9467C36.7007 77.8689 36.661 77.7982 36.6012 77.7469C36.5414 77.6957 36.4654 77.6672 36.3867 77.6667H33.3333C33.2449 77.6667 33.1601 77.7018 33.0976 77.7643C33.0351 77.8268 33 77.9116 33 78V79.3333C33 79.4217 32.9649 79.5065 32.9024 79.569C32.8399 79.6315 32.7551 79.6667 32.6667 79.6667H31.3333C31.2449 79.6667 31.1601 79.6315 31.0976 79.569C31.0351 79.5065 31 79.4217 31 79.3333V78C31 77.9116 30.9649 77.8268 30.9024 77.7643C30.8399 77.7018 30.7551 77.6667 30.6667 77.6667H27.6133C27.5346 77.6672 27.4586 77.6957 27.3988 77.7469C27.339 77.7982 27.2993 77.8689 27.2867 77.9467L27.0467 79.3867C27.0341 79.4644 26.9944 79.5352 26.9346 79.5864C26.8748 79.6377 26.7988 79.6661 26.72 79.6667H25.6667C25.5783 79.6667 25.4935 79.6315 25.431 79.569C25.3685 79.5065 25.3333 79.4217 25.3333 79.3333V77.5C25.3333 77.1022 25.4914 76.7206 25.7727 76.4393C26.054 76.158 26.4355 76 26.8333 76H37.1667C37.5645 76 37.946 76.158 38.2273 76.4393Z" fill="#111111"/>
<path d="M39.4867 86.3333C39.5349 86.3317 39.5823 86.3202 39.6258 86.2995C39.6694 86.2789 39.7083 86.2496 39.7401 86.2133C39.7994 86.1354 39.8258 86.0372 39.8134 85.94L38.8201 80.6067C38.8061 80.5301 38.7658 80.4609 38.7061 80.411C38.6464 80.3611 38.5712 80.3336 38.4934 80.3333H25.5067C25.429 80.3336 25.3537 80.3611 25.2941 80.411C25.2344 80.4609 25.1941 80.5301 25.1801 80.6067L24.1867 85.94C24.1744 86.0372 24.2007 86.1354 24.2601 86.2133C24.2919 86.2496 24.3308 86.2789 24.3743 86.2995C24.4179 86.3202 24.4652 86.3317 24.5134 86.3333H39.4867Z" fill="#111111"/>
<path d="M24.3333 87C24.2449 87 24.1601 87.0351 24.0976 87.0976C24.0351 87.1601 24 87.2449 24 87.3333V89.5C24 89.8978 24.158 90.2794 24.4393 90.5607C24.7206 90.842 25.1022 91 25.5 91C25.5442 91 25.5866 91.0176 25.6179 91.0488C25.6491 91.0801 25.6667 91.1225 25.6667 91.1667V91.5C25.6667 91.6326 25.7193 91.7598 25.8131 91.8536C25.9069 91.9473 26.0341 92 26.1667 92C26.2993 92 26.4265 91.9473 26.5202 91.8536C26.614 91.7598 26.6667 91.6326 26.6667 91.5V91.3333C26.6667 91.2449 26.7018 91.1601 26.7643 91.0976C26.8268 91.0351 26.9116 91 27 91H37C37.0884 91 37.1732 91.0351 37.2357 91.0976C37.2982 91.1601 37.3333 91.2449 37.3333 91.3333V91.5C37.3333 91.6326 37.386 91.7598 37.4798 91.8536C37.5735 91.9473 37.7007 92 37.8333 92C37.9659 92 38.0931 91.9473 38.1869 91.8536C38.2807 91.7598 38.3333 91.6326 38.3333 91.5V91.1667C38.3333 91.1225 38.3509 91.0801 38.3821 91.0488C38.4134 91.0176 38.4558 91 38.5 91C38.8978 91 39.2794 90.842 39.5607 90.5607C39.842 90.2794 40 89.8978 40 89.5V87.3333C40 87.2449 39.9649 87.1601 39.9024 87.0976C39.8399 87.0351 39.7551 87 39.6667 87H24.3333Z" fill="#111111"/>
</g>
</g>
<g id="Size=20px, Filled=true" clip-path="url(#clip9_3570_541)">
<g id="Vector_10">
<path d="M69.7842 74.5492C70.1358 74.9008 70.3333 75.3777 70.3333 75.875V78.1667C70.3333 78.2214 70.3226 78.2756 70.3016 78.3261C70.2807 78.3767 70.25 78.4226 70.2113 78.4613C70.1726 78.5 70.1267 78.5307 70.0761 78.5516C70.0256 78.5726 69.9714 78.5833 69.9167 78.5833H68.6C68.5016 78.5826 68.4065 78.5471 68.3318 78.483C68.2571 78.419 68.2074 78.3305 68.1917 78.2333L67.8917 76.4333C67.8759 76.3362 67.8263 76.2477 67.7515 76.1836C67.6768 76.1196 67.5818 76.084 67.4833 76.0833H63.6667C63.5562 76.0833 63.4502 76.1272 63.372 76.2054C63.2939 76.2835 63.25 76.3895 63.25 76.5V78.1667C63.25 78.2772 63.2061 78.3832 63.128 78.4613C63.0498 78.5394 62.9438 78.5833 62.8333 78.5833H61.1667C61.0562 78.5833 60.9502 78.5394 60.872 78.4613C60.7939 78.3832 60.75 78.2772 60.75 78.1667V76.5C60.75 76.3895 60.7061 76.2835 60.628 76.2054C60.5498 76.1272 60.4438 76.0833 60.3333 76.0833H56.5167C56.4182 76.084 56.3232 76.1196 56.2485 76.1836C56.1737 76.2477 56.1241 76.3362 56.1083 76.4333L55.8083 78.2333C55.7926 78.3305 55.7429 78.419 55.6682 78.483C55.5935 78.5471 55.4984 78.5826 55.4 78.5833H54.0833C53.9728 78.5833 53.8668 78.5394 53.7887 78.4613C53.7106 78.3832 53.6667 78.2772 53.6667 78.1667V75.875C53.6667 75.3777 53.8642 74.9008 54.2158 74.5492C54.5675 74.1975 55.0444 74 55.5417 74H68.4583C68.9556 74 69.4325 74.1975 69.7842 74.5492Z" fill="#111111"/>
<path d="M71.3584 86.9167C71.4187 86.9146 71.4778 86.9002 71.5323 86.8744C71.5867 86.8486 71.6353 86.8119 71.6751 86.7667C71.7493 86.6692 71.7822 86.5465 71.7668 86.425L70.5251 79.7583C70.5076 79.6627 70.4572 79.5762 70.3826 79.5138C70.308 79.4514 70.214 79.417 70.1168 79.4167H53.8834C53.7862 79.417 53.6921 79.4514 53.6176 79.5138C53.543 79.5762 53.4926 79.6627 53.4751 79.7583L52.2334 86.425C52.218 86.5465 52.2509 86.6692 52.3251 86.7667C52.3649 86.8119 52.4135 86.8486 52.4679 86.8744C52.5224 86.9002 52.5815 86.9146 52.6418 86.9167H71.3584Z" fill="#111111"/>
<path d="M52.4167 87.75C52.3062 87.75 52.2002 87.7939 52.122 87.872C52.0439 87.9502 52 88.0562 52 88.1667V90.875C52 91.3723 52.1975 91.8492 52.5492 92.2008C52.9008 92.5525 53.3777 92.75 53.875 92.75C53.9303 92.75 53.9832 92.7719 54.0223 92.811C54.0614 92.8501 54.0833 92.9031 54.0833 92.9583V93.375C54.0833 93.5408 54.1492 93.6997 54.2664 93.8169C54.3836 93.9342 54.5426 94 54.7083 94C54.8741 94 55.0331 93.9342 55.1503 93.8169C55.2675 93.6997 55.3333 93.5408 55.3333 93.375V93.1667C55.3333 93.0562 55.3772 92.9502 55.4554 92.872C55.5335 92.7939 55.6395 92.75 55.75 92.75H68.25C68.3605 92.75 68.4665 92.7939 68.5446 92.872C68.6228 92.9502 68.6667 93.0562 68.6667 93.1667V93.375C68.6667 93.5408 68.7325 93.6997 68.8497 93.8169C68.9669 93.9342 69.1259 94 69.2917 94C69.4574 94 69.6164 93.9342 69.7336 93.8169C69.8508 93.6997 69.9167 93.5408 69.9167 93.375V92.9583C69.9167 92.9031 69.9386 92.8501 69.9777 92.811C70.0168 92.7719 70.0697 92.75 70.125 92.75C70.6223 92.75 71.0992 92.5525 71.4508 92.2008C71.8025 91.8492 72 91.3723 72 90.875V88.1667C72 88.0562 71.9561 87.9502 71.878 87.872C71.7998 87.7939 71.6938 87.75 71.5833 87.75H52.4167Z" fill="#111111"/>
</g>
</g>
<g id="Size=24px, Filled=true" clip-path="url(#clip10_3570_541)">
<g id="Vector_11">
<path d="M105.341 72.659C105.763 73.081 106 73.6533 106 74.25V77C106 77.0657 105.987 77.1307 105.962 77.1913C105.937 77.252 105.9 77.3071 105.854 77.3536C105.807 77.4 105.752 77.4368 105.691 77.4619C105.631 77.4871 105.566 77.5 105.5 77.5H103.92C103.802 77.4992 103.688 77.4565 103.598 77.3796C103.508 77.3028 103.449 77.1966 103.43 77.08L103.07 74.92C103.051 74.8034 102.992 74.6972 102.902 74.6204C102.812 74.5435 102.698 74.5008 102.58 74.5H98C97.8674 74.5 97.7402 74.5527 97.6464 74.6464C97.5527 74.7402 97.5 74.8674 97.5 75V77C97.5 77.1326 97.4473 77.2598 97.3536 77.3536C97.2598 77.4473 97.1326 77.5 97 77.5H95C94.8674 77.5 94.7402 77.4473 94.6464 77.3536C94.5527 77.2598 94.5 77.1326 94.5 77V75C94.5 74.8674 94.4473 74.7402 94.3536 74.6464C94.2598 74.5527 94.1326 74.5 94 74.5H89.42C89.3019 74.5008 89.1879 74.5435 89.0982 74.6204C89.0085 74.6972 88.9489 74.8034 88.93 74.92L88.57 77.08C88.5511 77.1966 88.4915 77.3028 88.4018 77.3796C88.3121 77.4565 88.1981 77.4992 88.08 77.5H86.5C86.3674 77.5 86.2402 77.4473 86.1464 77.3536C86.0527 77.2598 86 77.1326 86 77V74.25C86 73.6533 86.2371 73.081 86.659 72.659C87.081 72.2371 87.6533 72 88.25 72H103.75C104.347 72 104.919 72.2371 105.341 72.659Z" fill="#111111"/>
<path d="M107.23 87.5C107.302 87.4975 107.373 87.4803 107.439 87.4493C107.504 87.4183 107.562 87.3743 107.61 87.32C107.699 87.2031 107.739 87.0558 107.72 86.91L106.23 78.91C106.209 78.7952 106.149 78.6914 106.059 78.6165C105.97 78.5417 105.857 78.5004 105.74 78.5H86.2601C86.1434 78.5004 86.0306 78.5417 85.9411 78.6165C85.8516 78.6914 85.7911 78.7952 85.7701 78.91L84.2801 86.91C84.2616 87.0558 84.3011 87.2031 84.3901 87.32C84.4378 87.3743 84.4962 87.4183 84.5615 87.4493C84.6269 87.4803 84.6979 87.4975 84.7701 87.5H107.23Z" fill="#111111"/>
<path d="M84.5 88.5C84.3674 88.5 84.2402 88.5527 84.1464 88.6464C84.0527 88.7402 84 88.8674 84 89V92.25C84 92.8467 84.2371 93.419 84.659 93.841C85.081 94.2629 85.6533 94.5 86.25 94.5C86.3163 94.5 86.3799 94.5263 86.4268 94.5732C86.4737 94.6201 86.5 94.6837 86.5 94.75V95.25C86.5 95.4489 86.579 95.6397 86.7197 95.7803C86.8603 95.921 87.0511 96 87.25 96C87.4489 96 87.6397 95.921 87.7803 95.7803C87.921 95.6397 88 95.4489 88 95.25V95C88 94.8674 88.0527 94.7402 88.1464 94.6464C88.2402 94.5527 88.3674 94.5 88.5 94.5H103.5C103.633 94.5 103.76 94.5527 103.854 94.6464C103.947 94.7402 104 94.8674 104 95V95.25C104 95.4489 104.079 95.6397 104.22 95.7803C104.36 95.921 104.551 96 104.75 96C104.949 96 105.14 95.921 105.28 95.7803C105.421 95.6397 105.5 95.4489 105.5 95.25V94.75C105.5 94.6837 105.526 94.6201 105.573 94.5732C105.62 94.5263 105.684 94.5 105.75 94.5C106.347 94.5 106.919 94.2629 107.341 93.841C107.763 93.419 108 92.8467 108 92.25V89C108 88.8674 107.947 88.7402 107.854 88.6464C107.76 88.5527 107.633 88.5 107.5 88.5H84.5Z" fill="#111111"/>
</g>
</g>
<g id="Size=32px, Filled=true" clip-path="url(#clip11_3570_541)">
<g id="Vector_12">
<path d="M148.455 68.8787C149.017 69.4413 149.333 70.2044 149.333 71V74.6667C149.333 74.7542 149.316 74.8409 149.283 74.9218C149.249 75.0027 149.2 75.0762 149.138 75.1381C149.076 75.2 149.003 75.2491 148.922 75.2826C148.841 75.3161 148.754 75.3333 148.667 75.3333H146.56C146.402 75.3322 146.25 75.2754 146.131 75.1729C146.011 75.0704 145.932 74.9288 145.907 74.7733L145.427 71.8933C145.401 71.7379 145.322 71.5963 145.202 71.4938C145.083 71.3913 144.931 71.3345 144.773 71.3333H138.667C138.49 71.3333 138.32 71.4036 138.195 71.5286C138.07 71.6536 138 71.8232 138 72V74.6667C138 74.8435 137.93 75.013 137.805 75.1381C137.68 75.2631 137.51 75.3333 137.333 75.3333H134.667C134.49 75.3333 134.32 75.2631 134.195 75.1381C134.07 75.013 134 74.8435 134 74.6667V72C134 71.8232 133.93 71.6536 133.805 71.5286C133.68 71.4036 133.51 71.3333 133.333 71.3333H127.227C127.069 71.3345 126.917 71.3913 126.798 71.4938C126.678 71.5963 126.599 71.7379 126.573 71.8933L126.093 74.7733C126.068 74.9288 125.989 75.0704 125.869 75.1729C125.75 75.2754 125.598 75.3322 125.44 75.3333H123.333C123.157 75.3333 122.987 75.2631 122.862 75.1381C122.737 75.013 122.667 74.8435 122.667 74.6667V71C122.667 70.2044 122.983 69.4413 123.545 68.8787C124.108 68.3161 124.871 68 125.667 68H146.333C147.129 68 147.892 68.3161 148.455 68.8787Z" fill="#111111"/>
<path d="M150.973 88.6667C151.07 88.6633 151.165 88.6403 151.252 88.5991C151.339 88.5578 151.417 88.4991 151.48 88.4267C151.599 88.2708 151.652 88.0744 151.627 87.88L149.64 77.2133C149.612 77.0603 149.532 76.9219 149.412 76.822C149.293 76.7222 149.142 76.6672 148.987 76.6667H123.013C122.858 76.6672 122.707 76.7222 122.588 76.822C122.469 76.9219 122.388 77.0603 122.36 77.2133L120.373 87.88C120.349 88.0744 120.401 88.2708 120.52 88.4267C120.584 88.4991 120.662 88.5578 120.749 88.5991C120.836 88.6403 120.93 88.6633 121.027 88.6667H150.973Z" fill="#111111"/>
<path d="M120.667 90C120.49 90 120.32 90.0702 120.195 90.1953C120.07 90.3203 120 90.4899 120 90.6667V95C120 95.7957 120.316 96.5587 120.879 97.1213C121.441 97.6839 122.204 98 123 98C123.088 98 123.173 98.0351 123.236 98.0976C123.298 98.1601 123.333 98.2449 123.333 98.3333V99C123.333 99.2652 123.439 99.5196 123.626 99.7071C123.814 99.8946 124.068 100 124.333 100C124.599 100 124.853 99.8946 125.04 99.7071C125.228 99.5196 125.333 99.2652 125.333 99V98.6667C125.333 98.4899 125.404 98.3203 125.529 98.1953C125.654 98.0702 125.823 98 126 98H146C146.177 98 146.346 98.0702 146.471 98.1953C146.596 98.3203 146.667 98.4899 146.667 98.6667V99C146.667 99.2652 146.772 99.5196 146.96 99.7071C147.147 99.8946 147.401 100 147.667 100C147.932 100 148.186 99.8946 148.374 99.7071C148.561 99.5196 148.667 99.2652 148.667 99V98.3333C148.667 98.2449 148.702 98.1601 148.764 98.0976C148.827 98.0351 148.912 98 149 98C149.796 98 150.559 97.6839 151.121 97.1213C151.684 96.5587 152 95.7957 152 95V90.6667C152 90.4899 151.93 90.3203 151.805 90.1953C151.68 90.0702 151.51 90 151.333 90H120.667Z" fill="#111111"/>
</g>
</g>
<g id="Size=40px, Filled=true" clip-path="url(#clip12_3570_541)">
<g id="Vector_13">
<path d="M199.568 65.0983C200.272 65.8016 200.667 66.7554 200.667 67.75V72.3333C200.667 72.4428 200.645 72.5511 200.603 72.6522C200.561 72.7533 200.5 72.8452 200.423 72.9226C200.345 73 200.253 73.0614 200.152 73.1032C200.051 73.1451 199.943 73.1667 199.833 73.1667H197.2C197.003 73.1653 196.813 73.0942 196.664 72.9661C196.514 72.8379 196.415 72.661 196.383 72.4667L195.783 68.8667C195.752 68.6723 195.653 68.4954 195.503 68.3673C195.354 68.2391 195.164 68.1681 194.967 68.1667H187.333C187.112 68.1667 186.9 68.2545 186.744 68.4107C186.588 68.567 186.5 68.779 186.5 69V72.3333C186.5 72.5543 186.412 72.7663 186.256 72.9226C186.1 73.0789 185.888 73.1667 185.667 73.1667H182.333C182.112 73.1667 181.9 73.0789 181.744 72.9226C181.588 72.7663 181.5 72.5543 181.5 72.3333V69C181.5 68.779 181.412 68.567 181.256 68.4107C181.1 68.2545 180.888 68.1667 180.667 68.1667H173.033C172.836 68.1681 172.646 68.2391 172.497 68.3673C172.347 68.4954 172.248 68.6723 172.217 68.8667L171.617 72.4667C171.585 72.661 171.486 72.8379 171.336 72.9661C171.187 73.0942 170.997 73.1653 170.8 73.1667H168.167C167.946 73.1667 167.734 73.0789 167.577 72.9226C167.421 72.7663 167.333 72.5543 167.333 72.3333V67.75C167.333 66.7554 167.728 65.8016 168.432 65.0983C169.135 64.3951 170.089 64 171.083 64H196.917C197.911 64 198.865 64.3951 199.568 65.0983Z" fill="#111111"/>
<path d="M202.717 89.8333C202.837 89.8292 202.956 89.8004 203.065 89.7488C203.173 89.6972 203.271 89.6239 203.35 89.5333C203.499 89.3384 203.564 89.093 203.534 88.85L201.05 75.5167C201.015 75.3254 200.914 75.1523 200.765 75.0275C200.616 74.9028 200.428 74.834 200.234 74.8333H167.767C167.572 74.834 167.384 74.9028 167.235 75.0275C167.086 75.1523 166.985 75.3254 166.95 75.5167L164.467 88.85C164.436 89.093 164.502 89.3384 164.65 89.5333C164.73 89.6239 164.827 89.6972 164.936 89.7488C165.045 89.8004 165.163 89.8292 165.284 89.8333H202.717Z" fill="#111111"/>
<path d="M164.833 91.5C164.612 91.5 164.4 91.5878 164.244 91.7441C164.088 91.9004 164 92.1123 164 92.3333V97.75C164 98.7446 164.395 99.6984 165.098 100.402C165.802 101.105 166.755 101.5 167.75 101.5C167.861 101.5 167.966 101.544 168.045 101.622C168.123 101.7 168.167 101.806 168.167 101.917V102.75C168.167 103.082 168.298 103.399 168.533 103.634C168.767 103.868 169.085 104 169.417 104C169.748 104 170.066 103.868 170.301 103.634C170.535 103.399 170.667 103.082 170.667 102.75V102.333C170.667 102.112 170.754 101.9 170.911 101.744C171.067 101.588 171.279 101.5 171.5 101.5H196.5C196.721 101.5 196.933 101.588 197.089 101.744C197.246 101.9 197.333 102.112 197.333 102.333V102.75C197.333 103.082 197.465 103.399 197.699 103.634C197.934 103.868 198.252 104 198.583 104C198.915 104 199.233 103.868 199.467 103.634C199.702 103.399 199.833 103.082 199.833 102.75V101.917C199.833 101.806 199.877 101.7 199.955 101.622C200.034 101.544 200.139 101.5 200.25 101.5C201.245 101.5 202.198 101.105 202.902 100.402C203.605 99.6984 204 98.7446 204 97.75V92.3333C204 92.1123 203.912 91.9004 203.756 91.7441C203.6 91.5878 203.388 91.5 203.167 91.5H164.833Z" fill="#111111"/>
</g>
</g>
<g id="Size=48px, Filled=true" clip-path="url(#clip13_3570_541)">
<g id="Vector_14">
<path d="M258.682 61.318C259.526 62.1619 260 63.3065 260 64.5V70C260 70.1313 259.974 70.2614 259.924 70.3827C259.874 70.504 259.8 70.6142 259.707 70.7071C259.614 70.8 259.504 70.8736 259.383 70.9239C259.261 70.9741 259.131 71 259 71H255.84C255.604 70.9983 255.376 70.913 255.196 70.7593C255.017 70.6055 254.898 70.3932 254.86 70.16L254.14 65.84C254.102 65.6068 253.983 65.3945 253.804 65.2407C253.624 65.087 253.396 65.0017 253.16 65H244C243.735 65 243.48 65.1054 243.293 65.2929C243.105 65.4804 243 65.7348 243 66V70C243 70.2652 242.895 70.5196 242.707 70.7071C242.52 70.8946 242.265 71 242 71H238C237.735 71 237.48 70.8946 237.293 70.7071C237.105 70.5196 237 70.2652 237 70V66C237 65.7348 236.895 65.4804 236.707 65.2929C236.52 65.1054 236.265 65 236 65H226.84C226.604 65.0017 226.376 65.087 226.196 65.2407C226.017 65.3945 225.898 65.6068 225.86 65.84L225.14 70.16C225.102 70.3932 224.983 70.6055 224.804 70.7593C224.624 70.913 224.396 70.9983 224.16 71H221C220.735 71 220.48 70.8946 220.293 70.7071C220.105 70.5196 220 70.2652 220 70V64.5C220 63.3065 220.474 62.1619 221.318 61.318C222.162 60.4741 223.307 60 224.5 60H255.5C256.693 60 257.838 60.4741 258.682 61.318Z" fill="#111111"/>
<path d="M262.46 91C262.605 90.995 262.747 90.9605 262.877 90.8986C263.008 90.8367 263.125 90.7487 263.22 90.64C263.398 90.4061 263.477 90.1116 263.44 89.82L260.46 73.82C260.418 73.5904 260.297 73.3828 260.118 73.2331C259.939 73.0833 259.714 73.0009 259.48 73H220.52C220.287 73.0009 220.061 73.0833 219.882 73.2331C219.703 73.3828 219.582 73.5904 219.54 73.82L216.56 89.82C216.523 90.1116 216.602 90.4061 216.78 90.64C216.876 90.7487 216.992 90.8367 217.123 90.8986C217.254 90.9605 217.396 90.995 217.54 91H262.46Z" fill="#111111"/>
<path d="M217 93C216.735 93 216.48 93.1054 216.293 93.2929C216.105 93.4804 216 93.7348 216 94V100.5C216 101.693 216.474 102.838 217.318 103.682C218.162 104.526 219.307 105 220.5 105C220.633 105 220.76 105.053 220.854 105.146C220.947 105.24 221 105.367 221 105.5V106.5C221 106.898 221.158 107.279 221.439 107.561C221.721 107.842 222.102 108 222.5 108C222.898 108 223.279 107.842 223.561 107.561C223.842 107.279 224 106.898 224 106.5V106C224 105.735 224.105 105.48 224.293 105.293C224.48 105.105 224.735 105 225 105H255C255.265 105 255.52 105.105 255.707 105.293C255.895 105.48 256 105.735 256 106V106.5C256 106.898 256.158 107.279 256.439 107.561C256.721 107.842 257.102 108 257.5 108C257.898 108 258.279 107.842 258.561 107.561C258.842 107.279 259 106.898 259 106.5V105.5C259 105.367 259.053 105.24 259.146 105.146C259.24 105.053 259.367 105 259.5 105C260.693 105 261.838 104.526 262.682 103.682C263.526 102.838 264 101.693 264 100.5V94C264 93.7348 263.895 93.4804 263.707 93.2929C263.52 93.1054 263.265 93 263 93H217Z" fill="#111111"/>
</g>
</g>
</g>
<defs>
<clipPath id="clip0_3570_541">
<rect width="12" height="12" fill="white" transform="translate(0 18)"/>
</clipPath>
<clipPath id="clip1_3570_541">
<rect width="16" height="16" fill="white" transform="translate(24 16)"/>
</clipPath>
<clipPath id="clip2_3570_541">
<rect width="20" height="20" fill="white" transform="translate(52 14)"/>
</clipPath>
<clipPath id="clip3_3570_541">
<rect width="24" height="24" fill="white" transform="translate(84 12)"/>
</clipPath>
<clipPath id="clip4_3570_541">
<rect width="32" height="32" fill="white" transform="translate(120 8)"/>
</clipPath>
<clipPath id="clip5_3570_541">
<rect width="40" height="40" fill="white" transform="translate(164 4)"/>
</clipPath>
<clipPath id="clip6_3570_541">
<rect width="48" height="48" fill="white" transform="translate(216)"/>
</clipPath>
<clipPath id="clip7_3570_541">
<rect width="12" height="12" fill="white" transform="translate(0 78)"/>
</clipPath>
<clipPath id="clip8_3570_541">
<rect width="16" height="16" fill="white" transform="translate(24 76)"/>
</clipPath>
<clipPath id="clip9_3570_541">
<rect width="20" height="20" fill="white" transform="translate(52 74)"/>
</clipPath>
<clipPath id="clip10_3570_541">
<rect width="24" height="24" fill="white" transform="translate(84 72)"/>
</clipPath>
<clipPath id="clip11_3570_541">
<rect width="32" height="32" fill="white" transform="translate(120 68)"/>
</clipPath>
<clipPath id="clip12_3570_541">
<rect width="40" height="40" fill="white" transform="translate(164 64)"/>
</clipPath>
<clipPath id="clip13_3570_541">
<rect width="48" height="48" fill="white" transform="translate(216 60)"/>
</clipPath>
</defs>
</svg>
