<svg width="264" height="108" viewBox="0 0 264 108" fill="none" xmlns="http://www.w3.org/2000/svg">
<g id="Checkbox">
<g clip-path="url(#clip0_1110_1323)">
<g id="Size=12px, Filled=false">
<path id="Vector" d="M3 24.5338L4.07188 26.0474C4.15437 26.17 4.29132 26.2454 4.43954 26.2498C4.58776 26.2542 4.72899 26.1871 4.81869 26.0696L8.25 21.75M2.25 29.25H9.75C10.5784 29.25 11.25 28.5784 11.25 27.75V20.25C11.25 19.4216 10.5784 18.75 9.75 18.75H2.25C1.42157 18.75 0.75 19.4216 0.75 20.25V27.75C0.75 28.5784 1.42157 29.25 2.25 29.25Z" stroke="#111111" stroke-width="0.75" stroke-linecap="round" stroke-linejoin="round"/>
</g>
<g id="Size=16px, Filled=false">
<path id="Vector_2" d="M28 24.7118L29.4292 26.7299C29.5392 26.8933 29.7218 26.9939 29.9194 26.9997C30.117 27.0056 30.3053 26.9161 30.4249 26.7595L35 21M27 31H37C38.1046 31 39 30.1046 39 29V19C39 17.8954 38.1046 17 37 17H27C25.8954 17 25 17.8954 25 19V29C25 30.1046 25.8954 31 27 31Z" stroke="#111111" stroke-linecap="round" stroke-linejoin="round"/>
</g>
<g id="Size=20px, Filled=false">
<path id="Vector_3" d="M57 24.8897L58.7865 27.4123C58.9239 27.6167 59.1522 27.7423 59.3992 27.7497C59.6463 27.757 59.8816 27.6451 60.0311 27.4493L65.75 20.25M55.75 32.75H68.25C69.6307 32.75 70.75 31.6307 70.75 30.25V17.75C70.75 16.3693 69.6307 15.25 68.25 15.25H55.75C54.3693 15.25 53.25 16.3693 53.25 17.75V30.25C53.25 31.6307 54.3693 32.75 55.75 32.75Z" stroke="#111111" stroke-width="1.25" stroke-linecap="round" stroke-linejoin="round"/>
</g>
<g id="Size=24px, Filled=false">
<path id="Vector_4" d="M90 25.1863L92.45 28.5498C92.6386 28.8222 92.9516 28.9898 93.2904 28.9995C93.6292 29.0093 93.952 28.8602 94.157 28.5991L102 19M89 35H103C105.209 35 107 33.2091 107 31V17C107 14.7909 105.209 13 103 13H89C86.7909 13 85 14.7909 85 17V31C85 33.2091 86.7909 35 89 35Z" stroke="#111111" stroke-width="1.5" stroke-linecap="round" stroke-linejoin="round"/>
</g>
<g id="Size=32px, Filled=false">
<path id="Vector_5" d="M128 25.4235L130.858 29.4597C131.078 29.7867 131.444 29.9877 131.839 29.9995C132.234 30.0112 132.611 29.8322 132.85 29.5189L142 18M126 38H146C148.209 38 150 36.2091 150 34V14C150 11.7909 148.209 10 146 10H126C123.791 10 122 11.7909 122 14V34C122 36.2091 123.791 38 126 38Z" stroke="#111111" stroke-width="2" stroke-linecap="round" stroke-linejoin="round"/>
</g>
<g id="Size=40px, Filled=false">
<path id="Vector_6" d="M174 25.7794L177.573 30.8246C177.848 31.2333 178.304 31.4846 178.798 31.4993C179.293 31.514 179.763 31.2903 180.062 30.8986L191.5 16.5M171.5 41.5H196.5C199.261 41.5 201.5 39.2614 201.5 36.5V11.5C201.5 8.73858 199.261 6.5 196.5 6.5H171.5C168.739 6.5 166.5 8.73858 166.5 11.5V36.5C166.5 39.2614 168.739 41.5 171.5 41.5Z" stroke="#111111" stroke-width="2.5" stroke-linecap="round" stroke-linejoin="round"/>
</g>
<g id="Size=48px, Filled=false">
<path id="Vector_7" d="M228 26.1353L232.288 32.1896C232.617 32.68 233.165 32.9816 233.758 32.9992C234.351 33.0168 234.916 32.7483 235.275 32.2784L249 15M225 45H255C258.314 45 261 42.3137 261 39V9C261 5.68629 258.314 3 255 3H225C221.686 3 219 5.68629 219 9V39C219 42.3137 221.686 45 225 45Z" stroke="#111111" stroke-width="3" stroke-linecap="round" stroke-linejoin="round"/>
</g>
<g id="Size=12px, Filled=true">
<path id="Vector_8" d="M11.5 80.15C11.5 79.7124 11.3262 79.2927 11.0167 78.9833C10.7073 78.6738 10.2876 78.5 9.85 78.5H2.15C1.71239 78.5 1.29271 78.6738 0.983274 78.9833C0.673839 79.2927 0.5 79.7124 0.5 80.15L0.5 87.85C0.5 88.2876 0.673839 88.7073 0.983274 89.0167C1.29271 89.3262 1.71239 89.5 2.15 89.5H9.85C10.2876 89.5 10.7073 89.3262 11.0167 89.0167C11.3262 88.7073 11.5 88.2876 11.5 87.85V80.15ZM8.9425 81.1202C9.03178 81.1816 9.10809 81.26 9.16707 81.3508C9.22606 81.4417 9.26656 81.5433 9.28628 81.6499C9.30599 81.7564 9.30453 81.8658 9.28197 81.9718C9.25941 82.0777 9.2162 82.1782 9.1548 82.2675L6.1298 86.6675C6.06398 86.763 5.97881 86.8436 5.8798 86.9041C5.7808 86.9646 5.67018 87.0036 5.55514 87.0185C5.4401 87.0334 5.3232 87.024 5.21204 86.9908C5.10087 86.9576 4.99793 86.9015 4.9099 86.8259L2.9849 85.1759C2.82696 85.0313 2.73145 84.8309 2.71856 84.6171C2.70567 84.4033 2.77642 84.1929 2.91584 84.0304C3.05526 83.8678 3.25242 83.7658 3.46566 83.746C3.6789 83.7262 3.89149 83.79 4.0585 83.9241L5.0485 84.7777C5.07851 84.8034 5.11366 84.8224 5.1516 84.8334C5.18954 84.8444 5.2294 84.8472 5.2685 84.8415C5.30695 84.8367 5.34392 84.8237 5.37694 84.8034C5.40995 84.7831 5.43824 84.7559 5.4599 84.7238L7.7919 81.3325C7.85331 81.2428 7.93184 81.1661 8.023 81.1068C8.11415 81.0475 8.21613 81.0068 8.32306 80.9871C8.42998 80.9674 8.53976 80.969 8.64606 80.9918C8.75237 81.0147 8.85312 81.0583 8.9425 81.1202Z" fill="#111111"/>
</g>
<g id="Size=16px, Filled=true">
<path id="Vector_9" d="M39.3334 78.8667C39.3334 78.2832 39.1016 77.7236 38.689 77.3111C38.2764 76.8985 37.7168 76.6667 37.1334 76.6667H26.8667C26.2832 76.6667 25.7236 76.8985 25.3111 77.3111C24.8985 77.7236 24.6667 78.2832 24.6667 78.8667V89.1334C24.6667 89.7168 24.8985 90.2764 25.3111 90.689C25.7236 91.1016 26.2832 91.3334 26.8667 91.3334H37.1334C37.7168 91.3334 38.2764 91.1016 38.689 90.689C39.1016 90.2764 39.3334 89.7168 39.3334 89.1334V78.8667ZM35.9234 80.1603C36.0424 80.2421 36.1441 80.3466 36.2228 80.4678C36.3014 80.589 36.3554 80.7245 36.3817 80.8665C36.408 81.0086 36.4061 81.1544 36.376 81.2957C36.3459 81.437 36.2883 81.571 36.2064 81.69L32.1731 87.5567C32.0853 87.6841 31.9718 87.7915 31.8398 87.8722C31.7078 87.9528 31.5603 88.0048 31.4069 88.0247C31.2535 88.0446 31.0976 88.032 30.9494 87.9878C30.8012 87.9435 30.6639 87.8686 30.5466 87.7679L27.9799 85.5679C27.7693 85.375 27.642 85.1079 27.6248 84.8228C27.6076 84.5378 27.7019 84.2573 27.8878 84.0405C28.0737 83.8238 28.3366 83.6878 28.6209 83.6614C28.9052 83.6349 29.1887 83.7201 29.4114 83.8988L30.7314 85.037C30.7714 85.0712 30.8182 85.0965 30.8688 85.1112C30.9194 85.1259 30.9726 85.1296 31.0247 85.122C31.076 85.1156 31.1253 85.0982 31.1693 85.0712C31.2133 85.0441 31.251 85.0079 31.2799 84.9651L34.3892 80.4434C34.4711 80.3237 34.5758 80.2214 34.6974 80.1424C34.8189 80.0634 34.9549 80.0091 35.0974 79.9828C35.24 79.9565 35.3864 79.9586 35.5281 79.9891C35.6698 80.0196 35.8042 80.0777 35.9234 80.1603Z" fill="#111111"/>
</g>
<g id="Size=20px, Filled=true">
<path id="Vector_10" d="M71.1666 77.5833C71.1666 76.854 70.8769 76.1545 70.3612 75.6388C69.8455 75.123 69.146 74.8333 68.4166 74.8333H55.5833C54.854 74.8333 54.1545 75.123 53.6388 75.6388C53.123 76.1545 52.8333 76.854 52.8333 77.5833V90.4166C52.8333 91.146 53.123 91.8455 53.6388 92.3612C54.1545 92.8769 54.854 93.1666 55.5833 93.1666H68.4166C69.146 93.1666 69.8455 92.8769 70.3612 92.3612C70.8769 91.8455 71.1666 91.146 71.1666 90.4166V77.5833ZM66.9041 79.2003C67.0529 79.3026 67.1801 79.4333 67.2784 79.5847C67.3767 79.7362 67.4443 79.9055 67.4771 80.0831C67.51 80.2607 67.5075 80.443 67.4699 80.6196C67.4323 80.7962 67.3603 80.9637 67.258 81.1125L62.2163 88.4458C62.1066 88.605 61.9647 88.7394 61.7997 88.8402C61.6346 88.941 61.4503 89.0059 61.2585 89.0308C61.0668 89.0557 60.872 89.04 60.6867 88.9847C60.5014 88.9294 60.3299 88.8357 60.1831 88.7098L56.9748 85.9598C56.7116 85.7188 56.5524 85.3848 56.5309 85.0285C56.5094 84.6722 56.6273 84.3216 56.8597 84.0506C57.0921 83.7797 57.4207 83.6097 57.7761 83.5767C58.1315 83.5436 58.4858 83.6501 58.7641 83.8735L60.4141 85.2961C60.4642 85.339 60.5227 85.3706 60.586 85.389C60.6492 85.4073 60.7156 85.4119 60.7808 85.4025C60.8449 85.3944 60.9065 85.3728 60.9615 85.3389C61.0166 85.3051 61.0637 85.2599 61.0998 85.2063L64.9865 79.5541C65.0888 79.4046 65.2197 79.2767 65.3716 79.1779C65.5236 79.0791 65.6935 79.0114 65.8717 78.9785C66.05 78.9456 66.2329 78.9483 66.4101 78.9863C66.5873 79.0244 66.7552 79.0971 66.9041 79.2003Z" fill="#111111"/>
</g>
<g id="Size=24px, Filled=true">
<path id="Vector_11" d="M107 76.3C107 75.4248 106.652 74.5854 106.033 73.9665C105.415 73.3477 104.575 73 103.7 73H88.3C87.4248 73 86.5854 73.3477 85.9665 73.9665C85.3477 74.5854 85 75.4248 85 76.3V91.7C85 92.5752 85.3477 93.4146 85.9665 94.0335C86.5854 94.6523 87.4248 95 88.3 95H103.7C104.575 95 105.415 94.6523 106.033 94.0335C106.652 93.4146 107 92.5752 107 91.7V76.3ZM101.885 78.2404C102.064 78.3632 102.216 78.5199 102.334 78.7017C102.452 78.8835 102.533 79.0867 102.573 79.2998C102.612 79.5128 102.609 79.7316 102.564 79.9435C102.519 80.1555 102.432 80.3565 102.31 80.535L96.2596 89.335C96.128 89.5261 95.9576 89.6873 95.7596 89.8082C95.5616 89.9292 95.3404 90.0071 95.1103 90.037C94.8802 90.0669 94.6464 90.048 94.4241 89.9816C94.2017 89.9153 93.9959 89.8029 93.8198 89.6518L89.9698 86.3518C89.6539 86.0625 89.4629 85.6618 89.4371 85.2342C89.4113 84.8067 89.5528 84.3859 89.8317 84.0608C90.1105 83.7356 90.5048 83.5317 90.9313 83.492C91.3578 83.4524 91.783 83.5801 92.117 83.8482L94.097 85.5554C94.157 85.6068 94.2273 85.6448 94.3032 85.6668C94.3791 85.6888 94.4588 85.6943 94.537 85.683C94.6139 85.6733 94.6878 85.6473 94.7539 85.6067C94.8199 85.5661 94.8765 85.5119 94.9198 85.4476L99.5838 78.665C99.7066 78.4855 99.8637 78.3321 100.046 78.2136C100.228 78.095 100.432 78.0137 100.646 77.9742C100.86 77.9347 101.08 77.9379 101.292 77.9836C101.505 78.0293 101.706 78.1166 101.885 78.2404Z" fill="#111111"/>
</g>
<g id="Size=32px, Filled=true">
<path id="Vector_12" d="M150.667 73.7333C150.667 72.5664 150.203 71.4472 149.378 70.622C148.553 69.7969 147.434 69.3333 146.267 69.3333H125.733C124.566 69.3333 123.447 69.7969 122.622 70.622C121.797 71.4472 121.333 72.5664 121.333 73.7333V94.2666C121.333 95.4336 121.797 96.5528 122.622 97.3779C123.447 98.2031 124.566 98.6666 125.733 98.6666H146.267C147.434 98.6666 148.553 98.2031 149.378 97.3779C150.203 96.5528 150.667 95.4336 150.667 94.2666V73.7333ZM143.847 76.3205C144.085 76.4842 144.288 76.6932 144.446 76.9356C144.603 77.1779 144.711 77.4489 144.763 77.733C144.816 78.0171 144.812 78.3088 144.752 78.5914C144.692 78.8739 144.577 79.1419 144.413 79.38L136.346 91.1133C136.171 91.3681 135.943 91.583 135.679 91.7443C135.415 91.9055 135.12 92.0095 134.814 92.0493C134.507 92.0891 134.195 92.064 133.899 91.9755C133.602 91.887 133.328 91.7372 133.093 91.5357L127.96 87.1357C127.539 86.75 127.284 86.2157 127.249 85.6456C127.215 85.0756 127.404 84.5145 127.776 84.081C128.147 83.6475 128.673 83.3756 129.242 83.3227C129.81 83.2698 130.377 83.4401 130.823 83.7976L133.463 86.0738C133.543 86.1424 133.636 86.193 133.738 86.2223C133.839 86.2517 133.945 86.2591 134.049 86.244C134.152 86.2311 134.25 86.1964 134.338 86.1423C134.427 86.0881 134.502 86.0158 134.56 85.9301L140.778 76.8866C140.942 76.6474 141.152 76.4428 141.395 76.2847C141.638 76.1266 141.91 76.0182 142.195 75.9656C142.48 75.913 142.773 75.9172 143.056 75.9782C143.34 76.0391 143.608 76.1554 143.847 76.3205Z" fill="#111111"/>
</g>
<g id="Size=40px, Filled=true">
<path id="Vector_13" d="M202.333 71.1667C202.333 69.708 201.754 68.309 200.722 67.2776C199.691 66.2461 198.292 65.6667 196.833 65.6667H171.167C169.708 65.6667 168.309 66.2461 167.278 67.2776C166.246 68.309 165.667 69.708 165.667 71.1667V96.8334C165.667 98.292 166.246 99.691 167.278 100.722C168.309 101.754 169.708 102.333 171.167 102.333H196.833C198.292 102.333 199.691 101.754 200.722 100.722C201.754 99.691 202.333 98.292 202.333 96.8334V71.1667ZM193.808 74.4007C194.106 74.6053 194.36 74.8666 194.557 75.1695C194.754 75.4725 194.889 75.8112 194.954 76.1663C195.02 76.5214 195.015 76.886 194.94 77.2392C194.865 77.5925 194.721 77.9275 194.516 78.225L184.433 92.8917C184.213 93.2101 183.929 93.4788 183.599 93.6804C183.269 93.882 182.901 94.0119 182.517 94.0617C182.134 94.1115 181.744 94.08 181.373 93.9694C181.003 93.8588 180.66 93.6715 180.366 93.4197L173.95 87.9197C173.423 87.4376 173.105 86.7696 173.062 86.0571C173.019 85.3445 173.255 84.6432 173.719 84.1013C174.184 83.5594 174.841 83.2195 175.552 83.1534C176.263 83.0873 176.972 83.3002 177.528 83.747L180.828 86.5924C180.928 86.678 181.046 86.7413 181.172 86.778C181.299 86.8147 181.431 86.8239 181.562 86.805C181.69 86.7889 181.813 86.7456 181.923 86.6779C182.033 86.6102 182.127 86.5198 182.2 86.4127L189.973 75.1084C190.178 74.8092 190.439 74.5535 190.743 74.3559C191.047 74.1584 191.387 74.0228 191.744 73.957C192.1 73.8913 192.466 73.8966 192.82 73.9727C193.175 74.0489 193.51 74.1943 193.808 74.4007Z" fill="#111111"/>
</g>
<g id="Size=48px, Filled=true">
<path id="Vector_14" d="M262 68.6C262 66.8496 261.305 65.1708 260.067 63.9331C258.829 62.6954 257.15 62 255.4 62H224.6C222.85 62 221.171 62.6954 219.933 63.9331C218.695 65.1708 218 66.8496 218 68.6V99.4C218 101.15 218.695 102.829 219.933 104.067C221.171 105.305 222.85 106 224.6 106H255.4C257.15 106 258.829 105.305 260.067 104.067C261.305 102.829 262 101.15 262 99.4V68.6ZM251.77 72.4808C252.127 72.7264 252.432 73.0399 252.668 73.4034C252.904 73.7669 253.066 74.1734 253.145 74.5995C253.224 75.0257 253.218 75.4632 253.128 75.8871C253.038 76.311 252.865 76.7129 252.619 77.07L240.519 94.67C240.256 95.0521 239.915 95.3746 239.519 95.6165C239.123 95.8583 238.681 96.0142 238.221 96.074C237.76 96.1337 237.293 96.096 236.848 95.9633C236.403 95.8306 235.992 95.6058 235.64 95.3036L227.94 88.7036C227.308 88.1251 226.926 87.3236 226.874 86.4685C226.823 85.6134 227.106 84.7718 227.663 84.1215C228.221 83.4713 229.01 83.0634 229.863 82.9841C230.716 82.9047 231.566 83.1602 232.234 83.6964L236.194 87.1108C236.314 87.2136 236.455 87.2895 236.606 87.3335C236.758 87.3776 236.918 87.3886 237.074 87.366C237.228 87.3467 237.376 87.2947 237.508 87.2135C237.64 87.1322 237.753 87.0237 237.84 86.8952L247.168 73.33C247.413 72.9711 247.727 72.6642 248.092 72.4271C248.457 72.19 248.865 72.0273 249.292 71.9484C249.72 71.8695 250.159 71.8759 250.584 71.9673C251.009 72.0586 251.412 72.2332 251.77 72.4808Z" fill="#111111"/>
</g>
</g>
</g>
<defs>
<clipPath id="clip0_1110_1323">
<rect width="264" height="108" rx="5" fill="white"/>
</clipPath>
</defs>
</svg>
