<svg width="264" height="108" viewBox="0 0 264 108" fill="none" xmlns="http://www.w3.org/2000/svg">
<g id="Contact list" clip-path="url(#clip0_4221_451)">
<g id="Size=12px, Filled=false" clip-path="url(#clip1_4221_451)">
<path id="Vector" d="M2.30425 29H9.26059C9.3759 29 9.48649 28.9542 9.56802 28.8727C9.64956 28.7911 9.69536 28.6805 9.69536 28.5652V19.4348C9.69536 19.3195 9.64956 19.2089 9.56802 19.1273C9.48649 19.0458 9.3759 19 9.26059 19H2.30425M2.30425 29V19M2.30425 29H1.43477C1.31946 29 1.20888 28.9542 1.12734 28.8727C1.04581 28.7911 1 28.6805 1 28.5652V19.4348C1 19.3195 1.04581 19.2089 1.12734 19.1273C1.20888 19.0458 1.31946 19 1.43477 19H2.30425M9.69575 19.5556H10.1305C10.3609 19.5563 10.5817 19.6501 10.7446 19.8167C10.9075 19.9832 10.9994 20.2089 11.0001 20.4444V21.7778M11.0001 21.7778H9.69575M11.0001 21.7778L11 24.0001M11 24.0001H9.69569M11 24.0001V26.2223M11 26.2223H9.69569M11 26.2223V27.5556C10.9993 27.7911 10.9075 28.0168 10.7446 28.1833C10.5816 28.3499 10.3609 28.4437 10.1305 28.4444H9.69569M7.95633 26.506C7.95633 25.9455 7.7273 25.4079 7.31962 25.0115C6.91194 24.6152 6.35901 24.3925 5.78247 24.3925C5.20593 24.3925 4.653 24.6152 4.24532 25.0115C3.83765 25.4079 3.60862 25.9455 3.60862 26.506H7.95633ZM4.47857 22.4903C4.47857 22.8267 4.61599 23.1492 4.86059 23.387C5.1052 23.6248 5.43696 23.7584 5.78288 23.7584C6.12881 23.7584 6.46057 23.6248 6.70517 23.387C6.94978 23.1492 7.0872 22.8267 7.0872 22.4903C7.0872 22.154 6.94978 21.8315 6.70517 21.5936C6.46057 21.3558 6.12881 21.2222 5.78288 21.2222C5.43696 21.2222 5.1052 21.3558 4.86059 21.5936C4.61599 21.8315 4.47857 22.154 4.47857 22.4903Z" stroke="#111111" stroke-width="0.75" stroke-linecap="round" stroke-linejoin="round"/>
</g>
<g id="Size=16px, Filled=false" clip-path="url(#clip2_4221_451)">
<path id="Vector_2" d="M27.0723 30.6666H36.3475C36.5012 30.6666 36.6487 30.6056 36.7574 30.4969C36.8661 30.3881 36.9272 30.2407 36.9272 30.0869V17.913C36.9272 17.7593 36.8661 17.6118 36.7574 17.5031C36.6487 17.3944 36.5012 17.3333 36.3475 17.3333H27.0723M27.0723 30.6666V17.3333M27.0723 30.6666H25.913C25.7593 30.6666 25.6118 30.6056 25.5031 30.4969C25.3944 30.3881 25.3333 30.2407 25.3333 30.0869V17.913C25.3333 17.7593 25.3944 17.6118 25.5031 17.5031C25.6118 17.3944 25.7593 17.3333 25.913 17.3333H27.0723M36.9277 18.0741H37.5074C37.8146 18.075 38.1089 18.2002 38.3262 18.4222C38.5434 18.6443 38.6658 18.9452 38.6668 19.2592V21.037M38.6668 21.037H36.9277M38.6668 21.037L38.6667 24.0001M38.6667 24.0001H36.9276M38.6667 24.0001V26.963M38.6667 26.963H36.9276M38.6667 26.963V28.7407C38.6658 29.0548 38.5433 29.3557 38.3261 29.5777C38.1089 29.7998 37.8145 29.925 37.5073 29.9259H36.9276M34.6084 27.3413C34.6084 26.594 34.3031 25.8772 33.7595 25.3487C33.2159 24.8202 32.4787 24.5233 31.71 24.5233C30.9412 24.5233 30.204 24.8202 29.6604 25.3487C29.1169 25.8772 28.8115 26.594 28.8115 27.3413H34.6084ZM29.9714 21.9871C29.9714 22.4355 30.1547 22.8656 30.4808 23.1827C30.8069 23.4998 31.2493 23.6779 31.7105 23.6779C32.1718 23.6779 32.6141 23.4998 32.9402 23.1827C33.2664 22.8656 33.4496 22.4355 33.4496 21.9871C33.4496 21.5387 33.2664 21.1086 32.9402 20.7915C32.6141 20.4744 32.1718 20.2963 31.7105 20.2963C31.2493 20.2963 30.8069 20.4744 30.4808 20.7915C30.1547 21.1086 29.9714 21.5387 29.9714 21.9871Z" stroke="#111111" stroke-linecap="round" stroke-linejoin="round"/>
</g>
<g id="Size=20px, Filled=false">
<path id="Vector_3" d="M55.8404 32.3334H67.4343C67.6265 32.3334 67.8108 32.257 67.9467 32.1211C68.0826 31.9852 68.1589 31.8009 68.1589 31.6087V16.3913C68.1589 16.1991 68.0826 16.0148 67.9467 15.8789C67.8108 15.743 67.6265 15.6667 67.4343 15.6667H55.8404M55.8404 32.3334V15.6667M55.8404 32.3334H54.3913C54.1991 32.3334 54.0148 32.257 53.8789 32.1211C53.743 31.9852 53.6667 31.8009 53.6667 31.6087V16.3913C53.6667 16.1991 53.743 16.0148 53.8789 15.8789C54.0148 15.743 54.1991 15.6667 54.3913 15.6667H55.8404M68.1596 16.5926H68.8842C69.2682 16.5938 69.6361 16.7502 69.9077 17.0278C70.1792 17.3054 70.3323 17.6815 70.3334 18.0741V20.2963M70.3334 20.2963H68.1596M70.3334 20.2963L70.3333 24.0002M70.3333 24.0002H68.1595M70.3333 24.0002V27.7038M70.3333 27.7038H68.1595M70.3333 27.7038V29.9259C70.3322 30.3185 70.1791 30.6946 69.9076 30.9722C69.6361 31.2498 69.2681 31.4062 68.8841 31.4074H68.1595M65.2605 28.1767C65.2605 27.2425 64.8788 26.3465 64.1994 25.6859C63.5199 25.0253 62.5983 24.6542 61.6374 24.6542C60.6765 24.6542 59.755 25.0253 59.0755 25.6859C58.3961 26.3465 58.0143 27.2425 58.0143 28.1767H65.2605ZM59.4643 21.4839C59.4643 22.0444 59.6933 22.582 60.101 22.9784C60.5087 23.3748 61.0616 23.5974 61.6381 23.5974C62.2147 23.5974 62.7676 23.3748 63.1753 22.9784C63.583 22.582 63.812 22.0444 63.812 21.4839C63.812 20.9234 63.583 20.3858 63.1753 19.9894C62.7676 19.5931 62.2147 19.3704 61.6381 19.3704C61.0616 19.3704 60.5087 19.5931 60.101 19.9894C59.6933 20.3858 59.4643 20.9234 59.4643 21.4839Z" stroke="#111111" stroke-width="1.25" stroke-linecap="round" stroke-linejoin="round"/>
</g>
<g id="Size=24px, Filled=false">
<path id="Vector_4" d="M88.6085 34H102.521C102.752 34 102.973 33.9084 103.136 33.7453C103.299 33.5822 103.391 33.3611 103.391 33.1304V14.8696C103.391 14.6389 103.299 14.4178 103.136 14.2547C102.973 14.0916 102.752 14 102.521 14H88.6085M88.6085 34V14M88.6085 34H86.8695C86.6389 34 86.4178 33.9084 86.2547 33.7453C86.0916 33.5822 86 33.3611 86 33.1304V14.8696C86 14.6389 86.0916 14.4178 86.2547 14.2547C86.4178 14.0916 86.6389 14 86.8695 14H88.6085M103.391 15.1111H104.261C104.722 15.1125 105.163 15.3003 105.489 15.6334C105.815 15.9665 105.999 16.4178 106 16.8889V19.5556M106 19.5556H103.391M106 19.5556L106 24.0002M106 24.0002H103.391M106 24.0002V28.4445M106 28.4445H103.391M106 28.4445V31.1111C105.999 31.5822 105.815 32.0335 105.489 32.3666C105.163 32.6997 104.722 32.8875 104.261 32.8889H103.391M99.9127 29.0121C99.9127 27.891 99.4546 26.8158 98.6392 26.0231C97.8239 25.2303 96.718 24.785 95.5649 24.785C94.4119 24.785 93.306 25.2303 92.4906 26.0231C91.6753 26.8158 91.2172 27.891 91.2172 29.0121H99.9127ZM92.9571 20.9807C92.9571 21.6533 93.232 22.2984 93.7212 22.7741C94.2104 23.2497 94.8739 23.5169 95.5658 23.5169C96.2576 23.5169 96.9211 23.2497 97.4103 22.7741C97.8996 22.2984 98.1744 21.6533 98.1744 20.9807C98.1744 20.308 97.8996 19.6629 97.4103 19.1873C96.9211 18.7116 96.2576 18.4444 95.5658 18.4444C94.8739 18.4444 94.2104 18.7116 93.7212 19.1873C93.232 19.6629 92.9571 20.308 92.9571 20.9807Z" stroke="#111111" stroke-width="1.5" stroke-linecap="round" stroke-linejoin="round"/>
</g>
<g id="Size=32px, Filled=false">
<path id="Vector_5" d="M126.145 37.3334H144.695C145.002 37.3334 145.297 37.2112 145.515 36.9938C145.732 36.7763 145.854 36.4814 145.854 36.1739V11.8261C145.854 11.5186 145.732 11.2237 145.515 11.0063C145.297 10.7888 145.002 10.6667 144.695 10.6667H126.145M126.145 37.3334V10.6667M126.145 37.3334H123.826C123.519 37.3334 123.224 37.2112 123.006 36.9938C122.789 36.7763 122.667 36.4814 122.667 36.1739V11.8261C122.667 11.5186 122.789 11.2237 123.006 11.0063C123.224 10.7888 123.519 10.6667 123.826 10.6667H126.145M145.855 12.1482H147.015C147.629 12.15 148.218 12.4004 148.652 12.8445C149.087 13.2886 149.332 13.8905 149.333 14.5185V18.0741M149.333 18.0741H145.855M149.333 18.0741L149.333 24.0003M149.333 24.0003H145.855M149.333 24.0003V29.9261M149.333 29.9261H145.855M149.333 29.9261V33.4815C149.332 34.1096 149.087 34.7114 148.652 35.1555C148.218 35.5997 147.629 35.85 147.015 35.8519H145.855M141.217 30.6828C141.217 29.188 140.606 27.7544 139.519 26.6975C138.432 25.6405 136.957 25.0467 135.42 25.0467C133.882 25.0467 132.408 25.6405 131.321 26.6975C130.234 27.7544 129.623 29.188 129.623 30.6828H141.217ZM131.943 19.9742C131.943 20.8711 132.309 21.7312 132.962 22.3654C133.614 22.9996 134.499 23.3559 135.421 23.3559C136.343 23.3559 137.228 22.9996 137.88 22.3654C138.533 21.7312 138.899 20.8711 138.899 19.9742C138.899 19.0774 138.533 18.2172 137.88 17.5831C137.228 16.9489 136.343 16.5926 135.421 16.5926C134.499 16.5926 133.614 16.9489 132.962 17.5831C132.309 18.2172 131.943 19.0774 131.943 19.9742Z" stroke="#111111" stroke-width="2" stroke-linecap="round" stroke-linejoin="round"/>
</g>
<g id="Size=40px, Filled=false">
<path id="Vector_6" d="M171.681 40.6666H194.869C195.253 40.6666 195.622 40.514 195.893 40.2422C196.165 39.9704 196.318 39.6017 196.318 39.2174V8.78259C196.318 8.39822 196.165 8.02959 195.893 7.7578C195.622 7.486 195.253 7.33331 194.869 7.33331H171.681M171.681 40.6666V7.33331M171.681 40.6666H168.783C168.398 40.6666 168.03 40.514 167.758 40.2422C167.486 39.9704 167.333 39.6017 167.333 39.2174V8.78259C167.333 8.39822 167.486 8.02959 167.758 7.7578C168.03 7.486 168.398 7.33331 168.783 7.33331H171.681M196.319 9.18516H197.768C198.536 9.18751 199.272 9.50043 199.815 10.0556C200.358 10.6107 200.665 11.363 200.667 12.1481V16.5926M200.667 16.5926H196.319M200.667 16.5926L200.667 24.0004M200.667 24.0004H196.319M200.667 24.0004V31.4075M200.667 31.4075H196.319M200.667 31.4075V35.8518C200.664 36.6369 200.358 37.3892 199.815 37.9444C199.272 38.4995 198.536 38.8124 197.768 38.8148H196.319M190.521 32.3534C190.521 30.4849 189.758 28.693 188.399 27.3718C187.04 26.0506 185.197 25.3083 183.275 25.3083C181.353 25.3083 179.51 26.0506 178.151 27.3718C176.792 28.693 176.029 30.4849 176.029 32.3534H190.521ZM178.929 18.9678C178.929 20.0888 179.387 21.164 180.202 21.9567C181.017 22.7495 182.123 23.1948 183.276 23.1948C184.429 23.1948 185.535 22.7495 186.351 21.9567C187.166 21.164 187.624 20.0888 187.624 18.9678C187.624 17.8467 187.166 16.7715 186.351 15.9788C185.535 15.186 184.429 14.7407 183.276 14.7407C182.123 14.7407 181.017 15.186 180.202 15.9788C179.387 16.7715 178.929 17.8467 178.929 18.9678Z" stroke="#111111" stroke-width="2.5" stroke-linecap="round" stroke-linejoin="round"/>
</g>
<g id="Size=48px, Filled=false">
<path id="Vector_7" d="M225.217 44H253.042C253.504 44 253.946 43.8168 254.272 43.4906C254.598 43.1645 254.781 42.7221 254.781 42.2609V5.73913C254.781 5.27788 254.598 4.83553 254.272 4.50938C253.946 4.18323 253.504 4 253.042 4H225.217M225.217 44V4M225.217 44H221.739C221.278 44 220.836 43.8168 220.509 43.4906C220.183 43.1645 220 42.7221 220 42.2609V5.73913C220 5.27788 220.183 4.83553 220.509 4.50938C220.836 4.18323 221.278 4 221.739 4H225.217M254.783 6.22222H256.522C257.444 6.22504 258.327 6.60054 258.978 7.26673C259.63 7.93291 259.997 8.83565 260 9.77778V15.1111M260 15.1111H254.783M260 15.1111L260 24.0005M260 24.0005H254.783M260 24.0005V32.8891M260 32.8891H254.783M260 32.8891V38.2222C259.997 39.1643 259.63 40.0671 258.978 40.7333C258.327 41.3994 257.443 41.7749 256.522 41.7778H254.783M247.825 34.0241C247.825 31.7819 246.909 29.6316 245.278 28.0462C243.648 26.4607 241.436 25.57 239.13 25.57C236.824 25.57 234.612 26.4607 232.981 28.0462C231.351 29.6316 230.434 31.7819 230.434 34.0241H247.825ZM233.914 17.9613C233.914 19.3066 234.464 20.5968 235.442 21.5481C236.421 22.4994 237.748 23.0338 239.132 23.0338C240.515 23.0338 241.842 22.4994 242.821 21.5481C243.799 20.5968 244.349 19.3066 244.349 17.9613C244.349 16.616 243.799 15.3258 242.821 14.3746C241.842 13.4233 240.515 12.8889 239.132 12.8889C237.748 12.8889 236.421 13.4233 235.442 14.3746C234.464 15.3258 233.914 16.616 233.914 17.9613Z" stroke="#111111" stroke-width="3" stroke-linecap="round" stroke-linejoin="round"/>
</g>
<g id="Size=12px, Filled=true">
<g id="Vector_8">
<path d="M8.99984 79.5833C8.76972 79.5833 8.58317 79.7698 8.58317 80C8.58317 80.2301 8.76972 80.4166 8.99984 80.4166H9.66613C9.96006 80.4172 10.2211 80.4886 10.3939 80.5923C10.5693 80.6975 10.583 80.786 10.5833 80.8016V81.5833H8.99984C8.76972 81.5833 8.58317 81.7698 8.58317 82C8.58317 82.2301 8.76972 82.4166 8.99984 82.4166L10.5833 82.4166V83.5833H8.99984C8.76972 83.5833 8.58317 83.7698 8.58317 84C8.58317 84.2301 8.76972 84.4166 8.99984 84.4166H10.9999C11.23 84.4166 11.4166 84.2301 11.4166 84L11.4166 80.8L11.4166 80.7979C11.4145 80.3884 11.1451 80.0712 10.8226 79.8777C10.4957 79.6816 10.0791 79.584 9.66653 79.5833H8.99984Z" fill="#111111"/>
<path fill-rule="evenodd" clip-rule="evenodd" d="M8.58317 84C8.58317 83.7698 8.76972 83.5833 8.99984 83.5833L10.9999 83.5834C11.23 83.5834 11.4166 83.7698 11.4166 84V86C11.4166 86.2301 11.23 86.4167 10.9999 86.4167H8.99984C8.76972 86.4167 8.58317 86.2301 8.58317 86C8.58317 85.7699 8.76972 85.5834 8.99984 85.5834H10.5833V84.4167L8.99984 84.4166C8.76972 84.4166 8.58317 84.2301 8.58317 84Z" fill="#111111"/>
<path fill-rule="evenodd" clip-rule="evenodd" d="M8.58317 86C8.58317 85.7699 8.76972 85.5834 8.99984 85.5834L10.9999 85.5833C11.23 85.5833 11.4166 85.7699 11.4166 86V87.202C11.4146 87.6116 11.1451 87.9287 10.8226 88.1222C10.4957 88.3183 10.0798 88.4159 9.66728 88.4166L8.99984 88.4166C8.76972 88.4166 8.58317 88.2301 8.58317 88C8.58317 87.7698 8.76972 87.5833 8.99984 87.5833H9.66616C9.96008 87.5827 10.2211 87.5113 10.3939 87.4077C10.5693 87.3024 10.583 87.2139 10.5833 87.1983V86.4166L8.99984 86.4167C8.76972 86.4167 8.58317 86.2301 8.58317 86Z" fill="#111111"/>
<path fill-rule="evenodd" clip-rule="evenodd" d="M1.5 81C1.5 79.8954 2.39543 79 3.5 79H8.5C9.05228 79 9.5 79.4477 9.5 80V88C9.5 88.5523 9.05228 89 8.5 89H3.5C2.39543 89 1.5 88.1046 1.5 87V81ZM7.5 86.5C7.5 85.9696 7.28929 85.4609 6.91421 85.0858C6.53914 84.7107 6.03043 84.5 5.5 84.5C4.96957 84.5 4.46086 84.7107 4.08579 85.0858C3.71071 85.4609 3.5 85.9696 3.5 86.5H7.5ZM4.65176 83.5485C4.42672 83.3235 4.30029 83.0183 4.30029 82.7C4.30029 82.3817 4.42672 82.0765 4.65176 81.8515C4.87681 81.6264 5.18203 81.5 5.50029 81.5C5.81855 81.5 6.12378 81.6264 6.34882 81.8515C6.57386 82.0765 6.70029 82.3817 6.70029 82.7C6.70029 83.0183 6.57386 83.3235 6.34882 83.5485C6.12378 83.7736 5.81855 83.9 5.50029 83.9C5.18203 83.9 4.87681 83.7736 4.65176 83.5485Z" fill="#111111"/>
</g>
</g>
<g id="Size=16px, Filled=true">
<g id="Vector_9">
<path d="M35.9998 78.111C35.693 78.111 35.4442 78.3598 35.4442 78.6666C35.4442 78.9734 35.693 79.2221 35.9998 79.2221H36.8882C37.2801 79.2229 37.6281 79.3181 37.8585 79.4563C38.0924 79.5967 38.1106 79.7146 38.111 79.7355V80.7777H35.9998C35.693 80.7777 35.4442 81.0264 35.4442 81.3333C35.4442 81.6401 35.693 81.8888 35.9998 81.8888L38.111 81.8888V83.4444H35.9998C35.693 83.4444 35.4442 83.6931 35.4442 83.9999C35.4442 84.3068 35.693 84.5555 35.9998 84.5555H38.6666C38.9734 84.5555 39.2221 84.3068 39.2221 83.9999L39.2221 79.7333L39.2221 79.7305C39.2194 79.1845 38.8602 78.7616 38.4301 78.5036C37.9943 78.2421 37.4388 78.112 36.8887 78.111H35.9998Z" fill="#111111"/>
<path fill-rule="evenodd" clip-rule="evenodd" d="M35.4442 83.9999C35.4442 83.6931 35.693 83.4444 35.9998 83.4444L38.6666 83.4445C38.9734 83.4445 39.2221 83.6931 39.2221 83.9999V86.6667C39.2221 86.9735 38.9734 87.2222 38.6666 87.2222H35.9998C35.693 87.2222 35.4442 86.9735 35.4442 86.6667C35.4442 86.3598 35.693 86.1111 35.9998 86.1111H38.111V84.5556L35.9998 84.5555C35.693 84.5555 35.4442 84.3068 35.4442 83.9999Z" fill="#111111"/>
<path fill-rule="evenodd" clip-rule="evenodd" d="M35.4442 86.6667C35.4442 86.3598 35.693 86.1111 35.9998 86.1111L38.6666 86.111C38.9734 86.111 39.2221 86.3598 39.2221 86.6667V88.2694C39.2194 88.8154 38.8602 89.2383 38.4301 89.4963C37.9943 89.7578 37.4398 89.8878 36.8897 89.8888L35.9998 89.8888C35.693 89.8888 35.4442 89.6401 35.4442 89.3333C35.4442 89.0264 35.693 88.7777 35.9998 88.7777H36.8882C37.2801 88.7769 37.6281 88.6817 37.8585 88.5435C38.0924 88.4031 38.1106 88.2852 38.111 88.2644V87.2221L35.9998 87.2222C35.693 87.2222 35.4442 86.9735 35.4442 86.6667Z" fill="#111111"/>
<path fill-rule="evenodd" clip-rule="evenodd" d="M26 80C26 78.5272 27.1939 77.3333 28.6667 77.3333H35.3333C36.0697 77.3333 36.6667 77.9303 36.6667 78.6666V89.3333C36.6667 90.0697 36.0697 90.6666 35.3333 90.6666H28.6667C27.1939 90.6666 26 89.4727 26 88V80ZM34 87.3333C34 86.6261 33.719 85.9478 33.219 85.4477C32.7189 84.9476 32.0406 84.6666 31.3333 84.6666C30.6261 84.6666 29.9478 84.9476 29.4477 85.4477C28.9476 85.9478 28.6667 86.6261 28.6667 87.3333H34ZM30.2024 83.398C29.9023 83.098 29.7337 82.691 29.7337 82.2666C29.7337 81.8423 29.9023 81.4353 30.2024 81.1353C30.5024 80.8352 30.9094 80.6666 31.3337 80.6666C31.7581 80.6666 32.165 80.8352 32.4651 81.1353C32.7652 81.4353 32.9337 81.8423 32.9337 82.2666C32.9337 82.691 32.7652 83.098 32.4651 83.398C32.165 83.6981 31.7581 83.8667 31.3337 83.8667C30.9094 83.8667 30.5024 83.6981 30.2024 83.398Z" fill="#111111"/>
</g>
</g>
<g id="Size=20px, Filled=true">
<g id="Vector_10">
<path d="M66.9997 76.6388C66.6162 76.6388 66.3053 76.9498 66.3053 77.3333C66.3053 77.7168 66.6162 78.0277 66.9997 78.0277H68.1102C68.6001 78.0287 69.0352 78.1477 69.3231 78.3205C69.6155 78.4959 69.6383 78.6433 69.6388 78.6694V79.9722H66.9997C66.6162 79.9722 66.3053 80.2831 66.3053 80.6666C66.3053 81.0502 66.6162 81.3611 66.9997 81.3611L69.6388 81.3611V83.3055H66.9997C66.6162 83.3055 66.3053 83.6164 66.3053 84C66.3053 84.3835 66.6162 84.6944 66.9997 84.6944H70.3332C70.7167 84.6944 71.0276 84.3835 71.0276 84L71.0277 78.6666L71.0276 78.6632C71.0242 77.9806 70.5752 77.452 70.0376 77.1295C69.4929 76.8027 68.7985 76.6401 68.1109 76.6388H66.9997Z" fill="#111111"/>
<path fill-rule="evenodd" clip-rule="evenodd" d="M66.3053 84C66.3053 83.6164 66.6162 83.3055 66.9997 83.3055L70.3332 83.3056C70.7167 83.3056 71.0276 83.6164 71.0276 84V87.3334C71.0276 87.7169 70.7167 88.0278 70.3332 88.0278H66.9997C66.6162 88.0278 66.3053 87.7169 66.3053 87.3334C66.3053 86.9499 66.6162 86.6389 66.9997 86.6389H69.6388V84.6945L66.9997 84.6944C66.6162 84.6944 66.3053 84.3835 66.3053 84Z" fill="#111111"/>
<path fill-rule="evenodd" clip-rule="evenodd" d="M66.3053 87.3334C66.3053 86.9499 66.6162 86.6389 66.9997 86.6389L70.3332 86.6388C70.7167 86.6388 71.0276 86.9499 71.0276 87.3334V89.3367C71.0243 90.0193 70.5752 90.5479 70.0376 90.8704C69.4929 91.1973 68.7997 91.3598 68.1121 91.3611L66.9997 91.3611C66.6162 91.3611 66.3053 91.0502 66.3053 90.6666C66.3053 90.2831 66.6162 89.9722 66.9997 89.9722H68.1103C68.6001 89.9712 69.0352 89.8522 69.3231 89.6794C69.6155 89.504 69.6383 89.3566 69.6388 89.3305V88.0277L66.9997 88.0278C66.6162 88.0278 66.3053 87.7169 66.3053 87.3334Z" fill="#111111"/>
<path fill-rule="evenodd" clip-rule="evenodd" d="M54.5 79C54.5 77.1591 55.9924 75.6667 57.8333 75.6667H66.1667C67.0871 75.6667 67.8333 76.4129 67.8333 77.3334V90.6667C67.8333 91.5872 67.0871 92.3334 66.1667 92.3334H57.8333C55.9924 92.3334 54.5 90.841 54.5 89V79ZM64.5 88.1667C64.5 87.2826 64.1488 86.4348 63.5237 85.8097C62.8986 85.1845 62.0507 84.8334 61.1667 84.8334C60.2826 84.8334 59.4348 85.1845 58.8096 85.8097C58.1845 86.4348 57.8333 87.2826 57.8333 88.1667H64.5ZM59.7529 83.2476C59.3779 82.8725 59.1672 82.3638 59.1672 81.8334C59.1672 81.3029 59.3779 80.7942 59.7529 80.4191C60.128 80.0441 60.6367 79.8334 61.1672 79.8334C61.6976 79.8334 62.2063 80.0441 62.5814 80.4191C62.9564 80.7942 63.1672 81.3029 63.1672 81.8334C63.1672 82.3638 62.9564 82.8725 62.5814 83.2476C62.2063 83.6226 61.6976 83.8334 61.1672 83.8334C60.6367 83.8334 60.128 83.6226 59.7529 83.2476Z" fill="#111111"/>
</g>
</g>
<g id="Size=24px, Filled=true">
<g id="Vector_11">
<path d="M102 75.1666C101.539 75.1666 101.166 75.5397 101.166 75.9999C101.166 76.4602 101.539 76.8333 102 76.8333H103.332C103.92 76.8344 104.442 76.9772 104.788 77.1845C105.139 77.3951 105.166 77.572 105.167 77.6032V79.1666H102C101.539 79.1666 101.166 79.5397 101.166 79.9999C101.166 80.4602 101.539 80.8333 102 80.8333L105.167 80.8333V83.1666H102C101.539 83.1666 101.166 83.5397 101.166 83.9999C101.166 84.4602 101.539 84.8333 102 84.8333H106C106.46 84.8333 106.833 84.4602 106.833 83.9999L106.833 77.5999L106.833 77.5958C106.829 76.7767 106.29 76.1424 105.645 75.7554C104.991 75.3632 104.158 75.1681 103.333 75.1666H102Z" fill="#111111"/>
<path fill-rule="evenodd" clip-rule="evenodd" d="M101.166 83.9999C101.166 83.5397 101.539 83.1666 102 83.1666L106 83.1667C106.46 83.1667 106.833 83.5397 106.833 83.9999V88C106.833 88.4603 106.46 88.8334 106 88.8334H102C101.539 88.8334 101.166 88.4603 101.166 88C101.166 87.5398 101.539 87.1667 102 87.1667H105.167V84.8334L102 84.8333C101.539 84.8333 101.166 84.4602 101.166 83.9999Z" fill="#111111"/>
<path fill-rule="evenodd" clip-rule="evenodd" d="M101.166 88C101.166 87.5398 101.539 87.1667 102 87.1667L106 87.1666C106.46 87.1666 106.833 87.5398 106.833 88V90.4041C106.829 91.2231 106.29 91.8574 105.645 92.2445C104.991 92.6367 104.16 92.8318 103.335 92.8333L102 92.8333C101.539 92.8333 101.166 92.4602 101.166 91.9999C101.166 91.5397 101.539 91.1666 102 91.1666H103.332C103.92 91.1654 104.442 91.0226 104.788 90.8153C105.139 90.6047 105.166 90.4279 105.167 90.3966V88.8333L102 88.8334C101.539 88.8334 101.166 88.4603 101.166 88Z" fill="#111111"/>
<path fill-rule="evenodd" clip-rule="evenodd" d="M87 78C87 75.7909 88.7909 74 91 74H101C102.105 74 103 74.8954 103 76V92C103 93.1046 102.105 94 101 94H91C88.7909 94 87 92.2091 87 90V78ZM99 89C99 87.9391 98.5786 86.9217 97.8284 86.1716C97.0783 85.4214 96.0609 85 95 85C93.9391 85 92.9217 85.4214 92.1716 86.1716C91.4214 86.9217 91 87.9391 91 89H99ZM93.3035 83.0971C92.8534 82.647 92.6006 82.0365 92.6006 81.4C92.6006 80.7635 92.8534 80.153 93.3035 79.7029C93.7536 79.2529 94.3641 79 95.0006 79C95.6371 79 96.2476 79.2529 96.6976 79.7029C97.1477 80.153 97.4006 80.7635 97.4006 81.4C97.4006 82.0365 97.1477 82.647 96.6976 83.0971C96.2476 83.5471 95.6371 83.8 95.0006 83.8C94.3641 83.8 93.7536 83.5471 93.3035 83.0971Z" fill="#111111"/>
</g>
</g>
<g id="Size=32px, Filled=true">
<g id="Vector_12">
<path d="M144 72.2221C143.386 72.2221 142.888 72.7196 142.888 73.3332C142.888 73.9469 143.386 74.4444 144 74.4444H145.776C146.56 74.4459 147.256 74.6363 147.717 74.9127C148.185 75.1935 148.221 75.4293 148.222 75.471V77.5555H144C143.386 77.5555 142.888 78.0529 142.888 78.6666C142.888 79.2802 143.386 79.7777 144 79.7777L148.222 79.7777V82.8888H144C143.386 82.8888 142.888 83.3863 142.888 83.9999C142.888 84.6136 143.386 85.111 144 85.111H149.333C149.947 85.111 150.444 84.6136 150.444 83.9999L150.444 75.4666L150.444 75.461C150.439 74.369 149.72 73.5233 148.86 73.0072C147.989 72.4842 146.878 72.2241 145.777 72.2221H144Z" fill="#111111"/>
<path fill-rule="evenodd" clip-rule="evenodd" d="M142.888 83.9999C142.888 83.3863 143.386 82.8888 144 82.8888L149.333 82.889C149.947 82.889 150.444 83.3863 150.444 83.9999V89.3334C150.444 89.9471 149.947 90.4445 149.333 90.4445H144C143.386 90.4445 142.888 89.9471 142.888 89.3334C142.888 88.7198 143.386 88.2223 144 88.2223H148.222V85.1112L144 85.111C143.386 85.111 142.888 84.6136 142.888 83.9999Z" fill="#111111"/>
<path fill-rule="evenodd" clip-rule="evenodd" d="M142.888 89.3334C142.888 88.7198 143.386 88.2223 144 88.2223L149.333 88.2221C149.947 88.2221 150.444 88.7198 150.444 89.3334V92.5388C150.439 93.6309 149.72 94.4766 148.86 94.9927C147.989 95.5156 146.88 95.7757 145.779 95.7777L144 95.7777C143.386 95.7777 142.888 95.2802 142.888 94.6666C142.888 94.0529 143.386 93.5555 144 93.5555H145.776C146.56 93.5539 147.256 93.3635 147.717 93.0871C148.185 92.8063 148.221 92.5705 148.222 92.5288V90.4444L144 90.4445C143.386 90.4445 142.888 89.9471 142.888 89.3334Z" fill="#111111"/>
<path fill-rule="evenodd" clip-rule="evenodd" d="M124 76C124 73.0545 126.388 70.6667 129.333 70.6667H142.667C144.139 70.6667 145.333 71.8606 145.333 73.3334V94.6667C145.333 96.1394 144.139 97.3334 142.667 97.3334H129.333C126.388 97.3334 124 94.9455 124 92V76ZM140 90.6667C140 89.2522 139.438 87.8956 138.438 86.8955C137.438 85.8953 136.081 85.3334 134.667 85.3334C133.252 85.3334 131.896 85.8953 130.895 86.8955C129.895 87.8956 129.333 89.2522 129.333 90.6667H140ZM132.405 82.7961C131.805 82.196 131.467 81.3821 131.467 80.5334C131.467 79.6847 131.805 78.8707 132.405 78.2706C133.005 77.6705 133.819 77.3334 134.667 77.3334C135.516 77.3334 136.33 77.6705 136.93 78.2706C137.53 78.8707 137.867 79.6847 137.867 80.5334C137.867 81.3821 137.53 82.196 136.93 82.7961C136.33 83.3962 135.516 83.7334 134.667 83.7334C133.819 83.7334 133.005 83.3962 132.405 82.7961Z" fill="#111111"/>
</g>
</g>
<g id="Size=40px, Filled=true">
<g id="Vector_13">
<path d="M193.999 69.2776C193.232 69.2776 192.611 69.8994 192.611 70.6665C192.611 71.4336 193.232 72.0554 193.999 72.0554H196.22C197.2 72.0573 198.07 72.2954 198.646 72.6409C199.231 72.9918 199.277 73.2866 199.278 73.3387V75.9443H193.999C193.232 75.9443 192.611 76.5661 192.611 77.3332C192.611 78.1002 193.232 78.7221 193.999 78.7221L199.278 78.7221V82.611H193.999C193.232 82.611 192.611 83.2328 192.611 83.9998C192.611 84.7669 193.232 85.3887 193.999 85.3887H200.666C201.433 85.3887 202.055 84.7669 202.055 83.9998L202.055 73.3332L202.055 73.3263C202.048 71.9612 201.15 70.904 200.075 70.2589C198.986 69.6053 197.597 69.2801 196.222 69.2776H193.999Z" fill="#111111"/>
<path fill-rule="evenodd" clip-rule="evenodd" d="M192.611 83.9998C192.611 83.2328 193.232 82.611 193.999 82.611L200.666 82.6112C201.433 82.6112 202.055 83.2328 202.055 83.9998V90.6667C202.055 91.4338 201.433 92.0556 200.666 92.0556H193.999C193.232 92.0556 192.611 91.4338 192.611 90.6667C192.611 89.8997 193.232 89.2778 193.999 89.2778H199.278V85.3889L193.999 85.3887C193.232 85.3887 192.611 84.7669 192.611 83.9998Z" fill="#111111"/>
<path fill-rule="evenodd" clip-rule="evenodd" d="M192.611 90.6667C192.611 89.8997 193.232 89.2778 193.999 89.2778L200.666 89.2776C201.433 89.2776 202.055 89.8997 202.055 90.6667V94.6734C202.049 96.0385 201.15 97.0957 200.075 97.7408C198.986 98.3944 197.599 98.7196 196.224 98.7221L193.999 98.7221C193.232 98.7221 192.611 98.1002 192.611 97.3332C192.611 96.5661 193.232 95.9443 193.999 95.9443H196.221C197.2 95.9423 198.07 95.7043 198.646 95.3588C199.231 95.0079 199.277 94.7131 199.278 94.661V92.0554L193.999 92.0556C193.232 92.0556 192.611 91.4338 192.611 90.6667Z" fill="#111111"/>
<path fill-rule="evenodd" clip-rule="evenodd" d="M169 74C169 70.3181 171.985 67.3333 175.667 67.3333H192.333C194.174 67.3333 195.667 68.8257 195.667 70.6666V97.3333C195.667 99.1743 194.174 100.667 192.333 100.667H175.667C171.985 100.667 169 97.6819 169 94V74ZM189 92.3333C189 90.5652 188.298 88.8695 187.047 87.6193C185.797 86.369 184.101 85.6666 182.333 85.6666C180.565 85.6666 178.87 86.369 177.619 87.6193C176.369 88.8695 175.667 90.5652 175.667 92.3333H189ZM179.506 82.4951C178.756 81.7449 178.334 80.7275 178.334 79.6667C178.334 78.6058 178.756 77.5884 179.506 76.8382C180.256 76.0881 181.273 75.6666 182.334 75.6666C183.395 75.6666 184.413 76.0881 185.163 76.8382C185.913 77.5884 186.334 78.6058 186.334 79.6667C186.334 80.7275 185.913 81.7449 185.163 82.4951C184.413 83.2452 183.395 83.6667 182.334 83.6667C181.273 83.6667 180.256 83.2452 179.506 82.4951Z" fill="#111111"/>
</g>
</g>
<g id="Size=48px, Filled=true">
<g id="Vector_14">
<path d="M251.999 66.3332C251.079 66.3332 250.333 67.0794 250.333 67.9998C250.333 68.9203 251.079 69.6665 251.999 69.6665H254.665C255.84 69.6688 256.884 69.9545 257.575 70.3691C258.277 70.7902 258.332 71.1439 258.333 71.2065V74.3332H251.999C251.079 74.3332 250.333 75.0794 250.333 75.9998C250.333 76.9203 251.079 77.6665 251.999 77.6665L258.333 77.6665V82.3332H251.999C251.079 82.3332 250.333 83.0794 250.333 83.9998C250.333 84.9203 251.079 85.6665 251.999 85.6665H260C260.92 85.6665 261.666 84.9203 261.666 83.9998L261.666 71.1998L261.666 71.1915C261.658 69.5534 260.581 68.2848 259.29 67.5107C257.983 66.7263 256.316 66.3361 254.666 66.3332H251.999Z" fill="#111111"/>
<path fill-rule="evenodd" clip-rule="evenodd" d="M250.333 83.9998C250.333 83.0794 251.079 82.3332 251.999 82.3332L260 82.3334C260.92 82.3334 261.666 83.0794 261.666 83.9998V92.0001C261.666 92.9206 260.92 93.6667 260 93.6667H251.999C251.079 93.6667 250.333 92.9206 250.333 92.0001C250.333 91.0796 251.079 90.3334 251.999 90.3334H258.333V85.6667L251.999 85.6665C251.079 85.6665 250.333 84.9203 250.333 83.9998Z" fill="#111111"/>
<path fill-rule="evenodd" clip-rule="evenodd" d="M250.333 92.0001C250.333 91.0796 251.079 90.3334 251.999 90.3334L260 90.3332C260.92 90.3332 261.666 91.0796 261.666 92.0001V96.8081C261.658 98.4463 260.581 99.7148 259.29 100.489C257.983 101.273 256.319 101.664 254.669 101.667L251.999 101.667C251.079 101.667 250.333 100.92 250.333 99.9998C250.333 99.0794 251.079 98.3332 251.999 98.3332H254.665C255.84 98.3308 256.884 98.0452 257.575 97.6306C258.277 97.2095 258.332 96.8558 258.333 96.7932V93.6665L251.999 93.6667C251.079 93.6667 250.333 92.9206 250.333 92.0001Z" fill="#111111"/>
<path fill-rule="evenodd" clip-rule="evenodd" d="M222 72C222 67.5817 225.582 64 230 64H250C252.209 64 254 65.7909 254 68V100C254 102.209 252.209 104 250 104H230C225.582 104 222 100.418 222 96V72ZM246 94C246 91.8783 245.157 89.8434 243.657 88.3431C242.157 86.8429 240.122 86 238 86C235.878 86 233.843 86.8429 232.343 88.3431C230.843 89.8434 230 91.8783 230 94H246ZM234.607 82.1941C233.707 81.2939 233.201 80.073 233.201 78.8C233.201 77.527 233.707 76.3061 234.607 75.4059C235.507 74.5057 236.728 74 238.001 74C239.274 74 240.495 74.5057 241.395 75.4059C242.295 76.3061 242.801 77.527 242.801 78.8C242.801 80.073 242.295 81.2939 241.395 82.1941C240.495 83.0943 239.274 83.6 238.001 83.6C236.728 83.6 235.507 83.0943 234.607 82.1941Z" fill="#111111"/>
</g>
</g>
</g>
<defs>
<clipPath id="clip0_4221_451">
<rect width="264" height="108" fill="white"/>
</clipPath>
<clipPath id="clip1_4221_451">
<rect width="12" height="12" fill="white" transform="translate(0 18)"/>
</clipPath>
<clipPath id="clip2_4221_451">
<rect width="16" height="16" fill="white" transform="translate(24 16)"/>
</clipPath>
</defs>
</svg>
