<svg width="264" height="108" viewBox="0 0 264 108" fill="none" xmlns="http://www.w3.org/2000/svg">
<g id="Convenience">
<g clip-path="url(#clip0_7887_211)">
<g id="Size=12px, Filled=false">
<path id="Vector" d="M10.925 24.35C10.925 24.1429 10.7571 23.975 10.55 23.975C10.3429 23.975 10.175 24.1429 10.175 24.35H10.925ZM1.825 24.35C1.825 24.1429 1.65711 23.975 1.45 23.975C1.24289 23.975 1.075 24.1429 1.075 24.35H1.825ZM6.35 29.25H5.975C5.975 29.4571 6.14289 29.625 6.35 29.625V29.25ZM9.15 29.25V29.625C9.35711 29.625 9.525 29.4571 9.525 29.25H9.15ZM0.75 21.9L0.383944 21.8186C0.376377 21.8526 0.37359 21.8875 0.375665 21.9223L0.75 21.9ZM1.16123 22.7795L0.904077 23.0525L0.904082 23.0525L1.16123 22.7795ZM2.9661 22.7795L3.22325 23.0525L3.22326 23.0525L2.9661 22.7795ZM3.37733 21.9H3.75233C3.75233 21.6972 3.59117 21.5312 3.3885 21.5252C3.18583 21.5191 3.01507 21.6753 3.003 21.8777L3.37733 21.9ZM3.76141 22.8273L3.49625 23.0924L3.49626 23.0924L3.76141 22.8273ZM5.61593 22.8273L5.88108 23.0924L5.88112 23.0924L5.61593 22.8273ZM6 21.9L6.37433 21.8777C6.36226 21.6753 6.1915 21.5191 5.98883 21.5252C5.78616 21.5312 5.625 21.6972 5.625 21.9H6ZM6.41123 22.7795L6.15407 23.0525L6.15407 23.0525L6.41123 22.7795ZM8.21611 22.7795L8.47326 23.0525L8.47326 23.0525L8.21611 22.7795ZM8.62733 21.9H9.00233C9.00233 21.6972 8.84117 21.5312 8.6385 21.5252C8.43583 21.5191 8.26507 21.6753 8.253 21.8777L8.62733 21.9ZM9.0114 22.8273L8.74621 23.0924L8.74625 23.0924L9.0114 22.8273ZM10.8659 22.8273L11.1311 23.0924L11.1311 23.0924L10.8659 22.8273ZM11.25 21.9H11.625C11.625 21.8726 11.622 21.8453 11.6161 21.8186L11.25 21.9ZM10.6107 19.0253L10.2443 19.1053L10.2446 19.1067L10.6107 19.0253ZM10.4887 18.8278L10.7245 18.5362L10.7245 18.5362L10.4887 18.8278ZM10.27 18.75L10.2714 18.375H10.27V18.75ZM1.73 18.75V18.375L1.72863 18.375L1.73 18.75ZM1.51127 18.8278L1.27555 18.5361L1.27555 18.5361L1.51127 18.8278ZM1.38933 19.0253L1.75539 19.1067L1.7557 19.1053L1.38933 19.0253ZM10.175 24.35V28.55H10.925V24.35H10.175ZM10.175 28.55C10.175 28.6362 10.1407 28.7189 10.0798 28.7798L10.6102 29.3102C10.8118 29.1085 10.925 28.8351 10.925 28.55H10.175ZM10.0798 28.7798C10.0189 28.8407 9.93622 28.875 9.85 28.875V29.625C10.1351 29.625 10.4085 29.5118 10.6102 29.3102L10.0798 28.7798ZM9.85 28.875H2.15V29.625H9.85V28.875ZM2.15 28.875C2.06378 28.875 1.98112 28.8408 1.92019 28.7798L1.38986 29.3102C1.59148 29.5118 1.86492 29.625 2.15 29.625V28.875ZM1.92019 28.7798C1.85925 28.7189 1.825 28.6362 1.825 28.55H1.075C1.075 28.8351 1.18825 29.1086 1.38986 29.3102L1.92019 28.7798ZM1.825 28.55V24.35H1.075V28.55H1.825ZM9.525 26.1C9.525 25.6293 9.33797 25.1778 9.00511 24.8449L8.47477 25.3752C8.667 25.5675 8.775 25.8282 8.775 26.1H9.525ZM9.00511 24.8449C8.67224 24.512 8.22074 24.325 7.75 24.325V25.075C8.02182 25.075 8.28255 25.183 8.47477 25.3752L9.00511 24.8449ZM7.75 24.325C7.27926 24.325 6.82776 24.512 6.49489 24.8449L7.02523 25.3752C7.21745 25.183 7.47818 25.075 7.75 25.075V24.325ZM6.49489 24.8449C6.16203 25.1778 5.975 25.6293 5.975 26.1H6.725C6.725 25.8282 6.833 25.5675 7.02523 25.3752L6.49489 24.8449ZM5.975 26.1V29.25H6.725V26.1H5.975ZM6.35 29.625H9.15V28.875H6.35V29.625ZM9.525 29.25V26.1H8.775V29.25H9.525ZM4.6 25.375H3.2V26.125H4.6V25.375ZM3.2 25.375C2.79959 25.375 2.475 25.6996 2.475 26.1H3.225C3.225 26.1138 3.21381 26.125 3.2 26.125V25.375ZM2.475 26.1V27.5H3.225V26.1H2.475ZM2.475 27.5C2.475 27.9004 2.79959 28.225 3.2 28.225V27.475C3.21381 27.475 3.225 27.4862 3.225 27.5H2.475ZM3.2 28.225H4.6V27.475H3.2V28.225ZM4.6 28.225C5.00041 28.225 5.325 27.9004 5.325 27.5H4.575C4.575 27.4862 4.58619 27.475 4.6 27.475V28.225ZM5.325 27.5V26.1H4.575V27.5H5.325ZM5.325 26.1C5.325 25.6996 5.00041 25.375 4.6 25.375V26.125C4.58619 26.125 4.575 26.1138 4.575 26.1H5.325ZM7.925 26.7777C8.03546 26.7777 8.125 26.8673 8.125 26.9777H7.375C7.375 27.2815 7.62125 27.5277 7.925 27.5277V26.7777ZM8.125 26.9777C8.125 27.0882 8.03546 27.1777 7.925 27.1777V26.4277C7.62125 26.4277 7.375 26.674 7.375 26.9777H8.125ZM7.925 27.5277C8.22875 27.5277 8.475 27.2815 8.475 26.9777H7.725C7.725 26.8673 7.81454 26.7777 7.925 26.7777V27.5277ZM8.475 26.9777C8.475 26.674 8.22875 26.4277 7.925 26.4277V27.1777C7.81454 27.1777 7.725 27.0882 7.725 26.9777H8.475ZM0.375665 21.9223C0.401323 22.3526 0.590338 22.7569 0.904077 23.0525L1.41839 22.5066C1.2438 22.3421 1.13861 22.1171 1.12434 21.8777L0.375665 21.9223ZM0.904082 23.0525C1.21784 23.3481 1.63263 23.5126 2.06367 23.5126V22.7626C1.82378 22.7626 1.59296 22.6711 1.41838 22.5066L0.904082 23.0525ZM2.06367 23.5126C2.49471 23.5126 2.90949 23.3481 3.22325 23.0525L2.70895 22.5066C2.53437 22.6711 2.30355 22.7626 2.06367 22.7626V23.5126ZM3.22326 23.0525C3.537 22.7569 3.72601 22.3526 3.75167 21.9223L3.003 21.8777C2.98872 22.1171 2.88354 22.3421 2.70895 22.5066L3.22326 23.0525ZM3.00233 21.9C3.00233 22.3472 3.18 22.7762 3.49625 23.0924L4.02658 22.5621C3.85098 22.3865 3.75233 22.1483 3.75233 21.9H3.00233ZM3.49626 23.0924C3.8125 23.4086 4.24141 23.5863 4.68867 23.5863V22.8363C4.44035 22.8363 4.20218 22.7377 4.02657 22.5621L3.49626 23.0924ZM4.68867 23.5863C5.13593 23.5863 5.56484 23.4086 5.88108 23.0924L5.35079 22.5621C5.17516 22.7377 4.93698 22.8363 4.68867 22.8363V23.5863ZM5.88112 23.0924C6.1973 22.7762 6.375 22.3473 6.375 21.9H5.625C5.625 22.1483 5.52634 22.3865 5.35075 22.5621L5.88112 23.0924ZM5.62567 21.9223C5.65133 22.3526 5.84033 22.7569 6.15407 23.0525L6.66838 22.5066C6.4938 22.3421 6.38862 22.1171 6.37433 21.8777L5.62567 21.9223ZM6.15407 23.0525C6.46782 23.3481 6.88261 23.5126 7.31367 23.5126V22.7626C7.07375 22.7626 6.84295 22.671 6.66838 22.5066L6.15407 23.0525ZM7.31367 23.5126C7.74473 23.5126 8.15951 23.3481 8.47326 23.0525L7.95895 22.5066C7.78438 22.671 7.55358 22.7626 7.31367 22.7626V23.5126ZM8.47326 23.0525C8.787 22.7569 8.976 22.3526 9.00167 21.9223L8.253 21.8777C8.23872 22.1171 8.13353 22.3421 7.95895 22.5066L8.47326 23.0525ZM8.25233 21.9C8.25233 22.3473 8.43003 22.7762 8.74621 23.0924L9.27658 22.5621C9.101 22.3865 9.00233 22.1483 9.00233 21.9H8.25233ZM8.74625 23.0924C9.06249 23.4086 9.49139 23.5863 9.93867 23.5863V22.8363C9.69033 22.8363 9.45218 22.7377 9.27655 22.5621L8.74625 23.0924ZM9.93867 23.5863C10.3859 23.5863 10.8148 23.4086 11.1311 23.0924L10.6008 22.5621C10.4252 22.7377 10.187 22.8363 9.93867 22.8363V23.5863ZM11.1311 23.0924C11.4473 22.7762 11.625 22.3473 11.625 21.9H10.875C10.875 22.1483 10.7763 22.3865 10.6007 22.5621L11.1311 23.0924ZM11.6161 21.8186L10.9767 18.9439L10.2446 19.1067L10.8839 21.9814L11.6161 21.8186ZM10.977 18.9453C10.9418 18.7841 10.8527 18.6398 10.7245 18.5362L10.253 19.1194C10.2486 19.1159 10.2455 19.1109 10.2443 19.1053L10.977 18.9453ZM10.7245 18.5362C10.5961 18.4324 10.4363 18.3756 10.2714 18.375L10.2686 19.125C10.2629 19.125 10.2575 19.123 10.253 19.1194L10.7245 18.5362ZM10.27 18.375H1.73V19.125H10.27V18.375ZM1.72863 18.375C1.56367 18.3756 1.40385 18.4324 1.27555 18.5361L1.74699 19.1194C1.74257 19.123 1.73706 19.125 1.73137 19.125L1.72863 18.375ZM1.27555 18.5361C1.14727 18.6398 1.05815 18.7842 1.02296 18.9453L1.7557 19.1053C1.75449 19.1109 1.75141 19.1159 1.747 19.1194L1.27555 18.5361ZM1.02328 18.9439L0.383944 21.8186L1.11606 21.9814L1.75539 19.1067L1.02328 18.9439Z" fill="#111111"/>
</g>
<g id="Size=16px, Filled=false">
<path id="Vector_2" d="M38.5667 24.4667C38.5667 24.1905 38.3428 23.9667 38.0667 23.9667C37.7905 23.9667 37.5667 24.1905 37.5667 24.4667H38.5667ZM26.4333 24.4667C26.4333 24.1905 26.2095 23.9667 25.9333 23.9667C25.6572 23.9667 25.4333 24.1905 25.4333 24.4667H26.4333ZM32.4667 31H31.9667C31.9667 31.2761 32.1905 31.5 32.4667 31.5V31ZM36.2 31V31.5C36.4761 31.5 36.7 31.2761 36.7 31H36.2ZM25 21.2L24.5119 21.0915C24.5018 21.1368 24.4981 21.1834 24.5009 21.2298L25 21.2ZM25.5483 22.3727L25.2054 22.7366L25.2054 22.7366L25.5483 22.3727ZM27.9548 22.3727L28.2977 22.7366L28.2977 22.7366L27.9548 22.3727ZM28.5031 21.2H29.0031C29.0031 20.9297 28.7882 20.7083 28.518 20.7002C28.2478 20.6922 28.0201 20.9004 28.004 21.1702L28.5031 21.2ZM29.0152 22.4363L28.6617 22.7899L28.6617 22.7899L29.0152 22.4363ZM31.4879 22.4363L31.8414 22.7899L31.8415 22.7899L31.4879 22.4363ZM32 21.2L32.4991 21.1702C32.483 20.9004 32.2553 20.6922 31.9851 20.7002C31.7149 20.7083 31.5 20.9297 31.5 21.2H32ZM32.5483 22.3727L32.2054 22.7366L32.2054 22.7366L32.5483 22.3727ZM34.9548 22.3727L35.2977 22.7366L35.2977 22.7366L34.9548 22.3727ZM35.5031 21.2H36.0031C36.0031 20.9297 35.7882 20.7083 35.518 20.7002C35.2478 20.6922 35.0201 20.9004 35.004 21.1702L35.5031 21.2ZM36.0152 22.4363L35.6616 22.7899L35.6617 22.7899L36.0152 22.4363ZM38.4879 22.4363L38.8414 22.7899L38.8415 22.7899L38.4879 22.4363ZM39 21.2H39.5C39.5 21.1635 39.496 21.1271 39.4881 21.0915L39 21.2ZM38.1476 17.3671L37.6591 17.4738L37.6595 17.4757L38.1476 17.3671ZM37.985 17.1037L38.2993 16.7149L38.2993 16.7149L37.985 17.1037ZM37.6933 17L37.6952 16.5H37.6933V17ZM26.3067 17V16.5L26.3048 16.5L26.3067 17ZM26.015 17.1037L25.7007 16.7148L25.7007 16.7149L26.015 17.1037ZM25.8524 17.3671L26.3405 17.4757L26.3409 17.4738L25.8524 17.3671ZM37.5667 24.4667V30.0667H38.5667V24.4667H37.5667ZM37.5667 30.0667C37.5667 30.1816 37.521 30.2919 37.4398 30.3731L38.1469 31.0802C38.4157 30.8114 38.5667 30.4467 38.5667 30.0667H37.5667ZM37.4398 30.3731C37.3585 30.4543 37.2483 30.5 37.1333 30.5V31.5C37.5134 31.5 37.878 31.349 38.1469 31.0802L37.4398 30.3731ZM37.1333 30.5H26.8667V31.5H37.1333V30.5ZM26.8667 30.5C26.7517 30.5 26.6415 30.4543 26.5603 30.3731L25.8531 31.0802C26.122 31.349 26.4866 31.5 26.8667 31.5V30.5ZM26.5603 30.3731C26.479 30.2919 26.4333 30.1816 26.4333 30.0667H25.4333C25.4333 30.4468 25.5843 30.8114 25.8531 31.0802L26.5603 30.3731ZM26.4333 30.0667V24.4667H25.4333V30.0667H26.4333ZM36.7 26.8C36.7 26.1723 36.4506 25.5704 36.0068 25.1265L35.2997 25.8336C35.556 26.0899 35.7 26.4376 35.7 26.8H36.7ZM36.0068 25.1265C35.563 24.6827 34.961 24.4333 34.3333 24.4333V25.4333C34.6958 25.4333 35.0434 25.5773 35.2997 25.8336L36.0068 25.1265ZM34.3333 24.4333C33.7057 24.4333 33.1037 24.6827 32.6599 25.1265L33.367 25.8336C33.6233 25.5773 33.9709 25.4333 34.3333 25.4333V24.4333ZM32.6599 25.1265C32.216 25.5704 31.9667 26.1723 31.9667 26.8H32.9667C32.9667 26.4376 33.1107 26.0899 33.367 25.8336L32.6599 25.1265ZM31.9667 26.8V31H32.9667V26.8H31.9667ZM32.4667 31.5H36.2V30.5H32.4667V31.5ZM36.7 31V26.8H35.7V31H36.7ZM30.1333 25.8333H28.2667V26.8333H30.1333V25.8333ZM28.2667 25.8333C27.7328 25.8333 27.3 26.2661 27.3 26.8H28.3C28.3 26.8184 28.2851 26.8333 28.2667 26.8333V25.8333ZM27.3 26.8V28.6667H28.3V26.8H27.3ZM27.3 28.6667C27.3 29.2005 27.7328 29.6333 28.2667 29.6333V28.6333C28.2851 28.6333 28.3 28.6483 28.3 28.6667H27.3ZM28.2667 29.6333H30.1333V28.6333H28.2667V29.6333ZM30.1333 29.6333C30.6672 29.6333 31.1 29.2005 31.1 28.6667H30.1C30.1 28.6483 30.1149 28.6333 30.1333 28.6333V29.6333ZM31.1 28.6667V26.8H30.1V28.6667H31.1ZM31.1 26.8C31.1 26.2661 30.6672 25.8333 30.1333 25.8333V26.8333C30.1149 26.8333 30.1 26.8184 30.1 26.8H31.1ZM34.5667 27.7036C34.7139 27.7036 34.8333 27.823 34.8333 27.9703H33.8333C33.8333 28.3753 34.1617 28.7036 34.5667 28.7036V27.7036ZM34.8333 27.9703C34.8333 28.1176 34.7139 28.237 34.5667 28.237V27.237C34.1617 27.237 33.8333 27.5653 33.8333 27.9703H34.8333ZM34.5667 28.7036C34.9717 28.7036 35.3 28.3753 35.3 27.9703H34.3C34.3 27.823 34.4194 27.7036 34.5667 27.7036V28.7036ZM35.3 27.9703C35.3 27.5653 34.9717 27.237 34.5667 27.237V28.237C34.4194 28.237 34.3 28.1176 34.3 27.9703H35.3ZM24.5009 21.2298C24.5351 21.8035 24.7871 22.3425 25.2054 22.7366L25.8912 22.0088C25.6584 21.7894 25.5182 21.4895 25.4991 21.1702L24.5009 21.2298ZM25.2054 22.7366C25.6238 23.1307 26.1768 23.3502 26.7516 23.3502V22.3502C26.4317 22.3502 26.124 22.2281 25.8912 22.0088L25.2054 22.7366ZM26.7516 23.3502C27.3263 23.3502 27.8793 23.1307 28.2977 22.7366L27.6119 22.0088C27.3792 22.2281 27.0714 22.3502 26.7516 22.3502V23.3502ZM28.2977 22.7366C28.716 22.3425 28.968 21.8035 29.0022 21.2298L28.004 21.1702C27.985 21.4895 27.8447 21.7894 27.6119 22.0088L28.2977 22.7366ZM28.0031 21.2C28.0031 21.7963 28.24 22.3682 28.6617 22.7899L29.3688 22.0828C29.1346 21.8487 29.0031 21.5311 29.0031 21.2H28.0031ZM28.6617 22.7899C29.0833 23.2115 29.6552 23.4484 30.2516 23.4484V22.4484C29.9205 22.4484 29.6029 22.3169 29.3688 22.0828L28.6617 22.7899ZM30.2516 23.4484C30.8479 23.4484 31.4198 23.2115 31.8414 22.7899L31.1344 22.0828C30.9002 22.3169 30.5826 22.4484 30.2516 22.4484V23.4484ZM31.8415 22.7899C32.2631 22.3682 32.5 21.7963 32.5 21.2H31.5C31.5 21.5311 31.3685 21.8487 31.1343 22.0828L31.8415 22.7899ZM31.5009 21.2298C31.5351 21.8035 31.7871 22.3425 32.2054 22.7366L32.8912 22.0088C32.6584 21.7895 32.5182 21.4895 32.4991 21.1702L31.5009 21.2298ZM32.2054 22.7366C32.6238 23.1307 33.1768 23.3502 33.7516 23.3502V22.3502C33.4317 22.3502 33.1239 22.2281 32.8912 22.0088L32.2054 22.7366ZM33.7516 23.3502C34.3263 23.3502 34.8793 23.1307 35.2977 22.7366L34.6119 22.0088C34.3792 22.2281 34.0714 22.3502 33.7516 22.3502V23.3502ZM35.2977 22.7366C35.716 22.3425 35.968 21.8035 36.0022 21.2298L35.004 21.1702C34.985 21.4895 34.8447 21.7895 34.6119 22.0088L35.2977 22.7366ZM35.0031 21.2C35.0031 21.7963 35.24 22.3682 35.6616 22.7899L36.3688 22.0828C36.1347 21.8487 36.0031 21.5311 36.0031 21.2H35.0031ZM35.6617 22.7899C36.0833 23.2115 36.6552 23.4484 37.2516 23.4484V22.4484C36.9204 22.4484 36.6029 22.3169 36.3687 22.0828L35.6617 22.7899ZM37.2516 23.4484C37.8479 23.4484 38.4198 23.2115 38.8414 22.7899L38.1344 22.0828C37.9002 22.3169 37.5827 22.4484 37.2516 22.4484V23.4484ZM38.8415 22.7899C39.2631 22.3682 39.5 21.7963 39.5 21.2H38.5C38.5 21.5311 38.3685 21.8487 38.1343 22.0828L38.8415 22.7899ZM39.4881 21.0915L38.6356 17.2586L37.6595 17.4757L38.5119 21.3085L39.4881 21.0915ZM38.636 17.2605C38.5891 17.0455 38.4703 16.8531 38.2993 16.7149L37.6706 17.4926C37.6648 17.4878 37.6607 17.4812 37.6591 17.4738L38.636 17.2605ZM38.2993 16.7149C38.1282 16.5766 37.915 16.5008 37.6952 16.5L37.6915 17.5C37.6839 17.5 37.6766 17.4974 37.6706 17.4926L38.2993 16.7149ZM37.6933 16.5H26.3067V17.5H37.6933V16.5ZM26.3048 16.5C26.0849 16.5008 25.8718 16.5766 25.7007 16.7148L26.3293 17.4926C26.3234 17.4974 26.3161 17.5 26.3085 17.5L26.3048 16.5ZM25.7007 16.7149C25.5297 16.8531 25.4109 17.0455 25.364 17.2605L26.3409 17.4738C26.3393 17.4812 26.3352 17.4878 26.3293 17.4926L25.7007 16.7149ZM25.3644 17.2586L24.5119 21.0915L25.4881 21.3085L26.3405 17.4757L25.3644 17.2586Z" fill="#111111"/>
</g>
<g id="Size=20px, Filled=false">
<path id="Vector_3" d="M70.2083 24.5833C70.2083 24.2382 69.9285 23.9583 69.5833 23.9583C69.2382 23.9583 68.9583 24.2382 68.9583 24.5833H70.2083ZM55.0417 24.5833C55.0417 24.2382 54.7618 23.9583 54.4167 23.9583C54.0715 23.9583 53.7917 24.2382 53.7917 24.5833H55.0417ZM62.5833 32.75H61.9583C61.9583 33.0952 62.2382 33.375 62.5833 33.375V32.75ZM67.25 32.75V33.375C67.5952 33.375 67.875 33.0952 67.875 32.75H67.25ZM53.25 20.5L52.6399 20.3643C52.6273 20.421 52.6227 20.4792 52.6261 20.5372L53.25 20.5ZM53.9354 21.9659L53.5068 22.4208L53.5068 22.4208L53.9354 21.9659ZM56.9435 21.9659L57.3721 22.4208L57.3721 22.4208L56.9435 21.9659ZM57.6289 20.5H58.2539C58.2539 20.1621 57.9853 19.8853 57.6475 19.8753C57.3097 19.8652 57.0251 20.1255 57.005 20.4628L57.6289 20.5ZM58.269 22.0454L57.8271 22.4874L57.8271 22.4874L58.269 22.0454ZM61.3599 22.0454L61.8018 22.4874L61.8019 22.4873L61.3599 22.0454ZM62 20.5L62.6239 20.4628C62.6038 20.1255 62.3192 19.8652 61.9814 19.8753C61.6436 19.8853 61.375 20.1621 61.375 20.5H62ZM62.6854 21.9659L62.2568 22.4208L62.2568 22.4208L62.6854 21.9659ZM65.6935 21.9659L66.1221 22.4208L66.1221 22.4208L65.6935 21.9659ZM66.3789 20.5H67.0039C67.0039 20.1621 66.7353 19.8853 66.3975 19.8753C66.0597 19.8652 65.7751 20.1255 65.755 20.4628L66.3789 20.5ZM67.019 22.0454L66.577 22.4873L66.5771 22.4874L67.019 22.0454ZM70.1099 22.0454L70.5518 22.4874L70.5519 22.4873L70.1099 22.0454ZM70.75 20.5H71.375C71.375 20.4544 71.37 20.4089 71.3601 20.3643L70.75 20.5ZM69.6844 15.7089L69.0738 15.8422L69.0743 15.8446L69.6844 15.7089ZM69.4812 15.3796L69.8741 14.8936L69.8741 14.8936L69.4812 15.3796ZM69.1167 15.25L69.1189 14.625H69.1167V15.25ZM54.8833 15.25V14.625L54.8811 14.625L54.8833 15.25ZM54.5188 15.3796L54.1259 14.8936L54.1259 14.8936L54.5188 15.3796ZM54.3156 15.7089L54.9257 15.8446L54.9262 15.8422L54.3156 15.7089ZM68.9583 24.5833V31.5833H70.2083V24.5833H68.9583ZM68.9583 31.5833C68.9583 31.727 68.9012 31.8648 68.7997 31.9664L69.6836 32.8503C70.0196 32.5142 70.2083 32.0584 70.2083 31.5833H68.9583ZM68.7997 31.9664C68.6982 32.0679 68.5604 32.125 68.4167 32.125V33.375C68.8918 33.375 69.3476 33.1863 69.6836 32.8503L68.7997 31.9664ZM68.4167 32.125H55.5833V33.375H68.4167V32.125ZM55.5833 32.125C55.4396 32.125 55.3019 32.0679 55.2003 31.9664L54.3164 32.8503C54.6525 33.1863 55.1082 33.375 55.5833 33.375V32.125ZM55.2003 31.9664C55.0988 31.8648 55.0417 31.727 55.0417 31.5833H53.7917C53.7917 32.0585 53.9804 32.5142 54.3164 32.8503L55.2003 31.9664ZM55.0417 31.5833V24.5833H53.7917V31.5833H55.0417ZM67.875 27.5C67.875 26.7154 67.5633 25.9629 67.0085 25.4082L66.1246 26.292C66.445 26.6124 66.625 27.047 66.625 27.5H67.875ZM67.0085 25.4082C66.4537 24.8534 65.7012 24.5417 64.9167 24.5417V25.7917C65.3697 25.7917 65.8042 25.9717 66.1246 26.292L67.0085 25.4082ZM64.9167 24.5417C64.1321 24.5417 63.3796 24.8534 62.8248 25.4082L63.7087 26.292C64.0291 25.9717 64.4636 25.7917 64.9167 25.7917V24.5417ZM62.8248 25.4082C62.27 25.9629 61.9583 26.7154 61.9583 27.5H63.2083C63.2083 27.047 63.3883 26.6124 63.7087 26.292L62.8248 25.4082ZM61.9583 27.5V32.75H63.2083V27.5H61.9583ZM62.5833 33.375H67.25V32.125H62.5833V33.375ZM67.875 32.75V27.5H66.625V32.75H67.875ZM59.6667 26.2917H57.3333V27.5417H59.6667V26.2917ZM57.3333 26.2917C56.666 26.2917 56.125 26.8327 56.125 27.5H57.375C57.375 27.523 57.3564 27.5417 57.3333 27.5417V26.2917ZM56.125 27.5V29.8333H57.375V27.5H56.125ZM56.125 29.8333C56.125 30.5007 56.666 31.0417 57.3333 31.0417V29.7917C57.3564 29.7917 57.375 29.8103 57.375 29.8333H56.125ZM57.3333 31.0417H59.6667V29.7917H57.3333V31.0417ZM59.6667 31.0417C60.334 31.0417 60.875 30.5007 60.875 29.8333H59.625C59.625 29.8103 59.6436 29.7917 59.6667 29.7917V31.0417ZM60.875 29.8333V27.5H59.625V29.8333H60.875ZM60.875 27.5C60.875 26.8327 60.334 26.2917 59.6667 26.2917V27.5417C59.6436 27.5417 59.625 27.523 59.625 27.5H60.875ZM65.2083 28.6296C65.3924 28.6296 65.5417 28.7788 65.5417 28.9629H64.2917C64.2917 29.4691 64.7021 29.8796 65.2083 29.8796V28.6296ZM65.5417 28.9629C65.5417 29.147 65.3924 29.2962 65.2083 29.2962V28.0462C64.7021 28.0462 64.2917 28.4566 64.2917 28.9629H65.5417ZM65.2083 29.8796C65.7146 29.8796 66.125 29.4691 66.125 28.9629H64.875C64.875 28.7788 65.0242 28.6296 65.2083 28.6296V29.8796ZM66.125 28.9629C66.125 28.4566 65.7146 28.0462 65.2083 28.0462V29.2962C65.0242 29.2962 64.875 29.147 64.875 28.9629H66.125ZM52.6261 20.5372C52.6689 21.2544 52.9839 21.9281 53.5068 22.4208L54.364 21.511C54.073 21.2368 53.8977 20.8619 53.8739 20.4628L52.6261 20.5372ZM53.5068 22.4208C54.0297 22.9134 54.721 23.1877 55.4394 23.1877V21.9377C55.0396 21.9377 54.6549 21.7851 54.364 21.511L53.5068 22.4208ZM55.4394 23.1877C56.1578 23.1877 56.8492 22.9134 57.3721 22.4208L56.5149 21.511C56.224 21.7851 55.8393 21.9377 55.4394 21.9377V23.1877ZM57.3721 22.4208C57.895 21.9281 58.21 21.2544 58.2528 20.5372L57.005 20.4628C56.9812 20.8619 56.8059 21.2368 56.5149 21.511L57.3721 22.4208ZM57.0039 20.5C57.0039 21.2454 57.3 21.9603 57.8271 22.4874L58.711 21.6035C58.4183 21.3108 58.2539 20.9139 58.2539 20.5H57.0039ZM57.8271 22.4874C58.3542 23.0144 59.069 23.3106 59.8144 23.3106V22.0606C59.4006 22.0606 59.0036 21.8961 58.7109 21.6035L57.8271 22.4874ZM59.8144 23.3106C60.5599 23.3106 61.2747 23.0144 61.8018 22.4874L60.918 21.6034C60.6253 21.8961 60.2283 22.0606 59.8144 22.0606V23.3106ZM61.8019 22.4873C62.3288 21.9603 62.625 21.2454 62.625 20.5H61.375C61.375 20.9139 61.2106 21.3108 60.9179 21.6035L61.8019 22.4873ZM61.3761 20.5372C61.4189 21.2544 61.7339 21.9281 62.2568 22.4208L63.114 21.511C62.823 21.2368 62.6477 20.8619 62.6239 20.4628L61.3761 20.5372ZM62.2568 22.4208C62.7797 22.9134 63.471 23.1877 64.1894 23.1877V21.9377C63.7896 21.9377 63.4049 21.7851 63.114 21.511L62.2568 22.4208ZM64.1894 23.1877C64.9079 23.1877 65.5992 22.9134 66.1221 22.4208L65.2649 21.511C64.974 21.7851 64.5893 21.9377 64.1894 21.9377V23.1877ZM66.1221 22.4208C66.645 21.9281 66.96 21.2544 67.0028 20.5372L65.755 20.4628C65.7312 20.8619 65.5559 21.2368 65.2649 21.511L66.1221 22.4208ZM65.7539 20.5C65.7539 21.2454 66.0501 21.9603 66.577 22.4873L67.461 21.6035C67.1683 21.3108 67.0039 20.9139 67.0039 20.5H65.7539ZM66.5771 22.4874C67.1042 23.0144 67.819 23.3106 68.5644 23.3106V22.0606C68.1506 22.0606 67.7536 21.8961 67.4609 21.6034L66.5771 22.4874ZM68.5644 23.3106C69.3099 23.3106 70.0247 23.0144 70.5518 22.4874L69.668 21.6034C69.3753 21.8961 68.9783 22.0606 68.5644 22.0606V23.3106ZM70.5519 22.4873C71.0788 21.9603 71.375 21.2454 71.375 20.5H70.125C70.125 20.9139 69.9606 21.3108 69.6679 21.6035L70.5519 22.4873ZM71.3601 20.3643L70.2945 15.5732L69.0743 15.8446L70.1399 20.6357L71.3601 20.3643ZM70.2951 15.5756C70.2364 15.3069 70.0878 15.0664 69.8741 14.8936L69.0883 15.8657C69.081 15.8598 69.0759 15.8515 69.0738 15.8422L70.2951 15.5756ZM69.8741 14.8936C69.6602 14.7207 69.3938 14.626 69.1189 14.625L69.1144 15.875C69.1049 15.875 69.0958 15.8717 69.0883 15.8657L69.8741 14.8936ZM69.1167 14.625H54.8833V15.875H69.1167V14.625ZM54.8811 14.625C54.6061 14.626 54.3397 14.7207 54.1259 14.8936L54.9117 15.8657C54.9043 15.8717 54.8951 15.875 54.8856 15.875L54.8811 14.625ZM54.1259 14.8936C53.9121 15.0664 53.7636 15.3069 53.7049 15.5756L54.9262 15.8422C54.9241 15.8515 54.919 15.8598 54.9117 15.8657L54.1259 14.8936ZM53.7055 15.5732L52.6399 20.3643L53.8601 20.6357L54.9256 15.8446L53.7055 15.5732Z" fill="#111111"/>
</g>
<g id="Size=24px, Filled=false">
<path id="Vector_4" d="M105.85 24.7C105.85 24.2858 105.514 23.95 105.1 23.95C104.686 23.95 104.35 24.2858 104.35 24.7H105.85ZM87.65 24.7C87.65 24.2858 87.3142 23.95 86.9 23.95C86.4858 23.95 86.15 24.2858 86.15 24.7H87.65ZM96.7 34.5H95.95C95.95 34.9142 96.2858 35.25 96.7 35.25V34.5ZM102.3 34.5V35.25C102.714 35.25 103.05 34.9142 103.05 34.5H102.3ZM85.5 19.8L84.7679 19.6372C84.7528 19.7052 84.7472 19.7751 84.7513 19.8446L85.5 19.8ZM86.3225 21.559L85.8082 22.1049L85.8082 22.1049L86.3225 21.559ZM89.9322 21.559L90.4465 22.1049L90.4465 22.1049L89.9322 21.559ZM90.7547 19.8H91.5047C91.5047 19.3945 91.1823 19.0624 90.777 19.0503C90.3717 19.0383 90.0301 19.3506 90.006 19.7554L90.7547 19.8ZM91.5228 21.6545L90.9925 22.1848L90.9925 22.1849L91.5228 21.6545ZM95.2319 21.6545L95.7622 22.1849L95.7622 22.1848L95.2319 21.6545ZM96 19.8L96.7487 19.7553C96.7245 19.3505 96.383 19.0383 95.9777 19.0503C95.5723 19.0624 95.25 19.3945 95.25 19.8H96ZM96.8225 21.559L96.3081 22.1049L96.3081 22.1049L96.8225 21.559ZM100.432 21.559L100.947 22.1049L100.947 22.1049L100.432 21.559ZM101.255 19.8H102.005C102.005 19.3945 101.682 19.0624 101.277 19.0503C100.872 19.0383 100.53 19.3505 100.506 19.7553L101.255 19.8ZM102.023 21.6545L101.492 22.1848L101.493 22.1849L102.023 21.6545ZM105.732 21.6545L106.262 22.1849L106.262 22.1848L105.732 21.6545ZM106.5 19.8H107.25C107.25 19.7452 107.244 19.6906 107.232 19.6372L106.5 19.8ZM105.221 14.0507L104.489 14.2106L104.489 14.2135L105.221 14.0507ZM104.977 13.6556L105.449 13.0723L105.449 13.0723L104.977 13.6556ZM104.54 13.5L104.543 12.75H104.54V13.5ZM87.46 13.5V12.75L87.4573 12.75L87.46 13.5ZM87.0225 13.6556L86.5511 13.0723L86.5511 13.0723L87.0225 13.6556ZM86.7787 14.0507L87.5108 14.2135L87.5114 14.2106L86.7787 14.0507ZM104.35 24.7V33.1H105.85V24.7H104.35ZM104.35 33.1C104.35 33.2724 104.281 33.4378 104.16 33.5597L105.22 34.6203C105.624 34.2171 105.85 33.6701 105.85 33.1H104.35ZM104.16 33.5597C104.038 33.6815 103.872 33.75 103.7 33.75V35.25C104.27 35.25 104.817 35.0236 105.22 34.6203L104.16 33.5597ZM103.7 33.75H88.3V35.25H103.7V33.75ZM88.3 33.75C88.1276 33.75 87.9622 33.6815 87.8404 33.5597L86.7797 34.6203C87.183 35.0236 87.7298 35.25 88.3 35.25V33.75ZM87.8404 33.5597C87.7185 33.4378 87.65 33.2724 87.65 33.1H86.15C86.15 33.6702 86.3765 34.2171 86.7797 34.6203L87.8404 33.5597ZM87.65 33.1V24.7H86.15V33.1H87.65ZM103.05 28.2C103.05 27.2585 102.676 26.3555 102.01 25.6898L100.95 26.7505C101.334 27.1349 101.55 27.6564 101.55 28.2H103.05ZM102.01 25.6898C101.344 25.0241 100.441 24.65 99.5 24.65V26.15C100.044 26.15 100.565 26.366 100.95 26.7505L102.01 25.6898ZM99.5 24.65C98.5585 24.65 97.6555 25.0241 96.9898 25.6898L98.0505 26.7505C98.4349 26.366 98.9564 26.15 99.5 26.15V24.65ZM96.9898 25.6898C96.3241 26.3555 95.95 27.2585 95.95 28.2H97.45C97.45 27.6564 97.666 27.1349 98.0505 26.7505L96.9898 25.6898ZM95.95 28.2V34.5H97.45V28.2H95.95ZM96.7 35.25H102.3V33.75H96.7V35.25ZM103.05 34.5V28.2H101.55V34.5H103.05ZM93.2 26.75H90.4V28.25H93.2V26.75ZM90.4 26.75C89.5992 26.75 88.95 27.3992 88.95 28.2H90.45C90.45 28.2276 90.4276 28.25 90.4 28.25V26.75ZM88.95 28.2V31H90.45V28.2H88.95ZM88.95 31C88.95 31.8008 89.5992 32.45 90.4 32.45V30.95C90.4276 30.95 90.45 30.9724 90.45 31H88.95ZM90.4 32.45H93.2V30.95H90.4V32.45ZM93.2 32.45C94.0008 32.45 94.65 31.8008 94.65 31H93.15C93.15 30.9724 93.1724 30.95 93.2 30.95V32.45ZM94.65 31V28.2H93.15V31H94.65ZM94.65 28.2C94.65 27.3992 94.0008 26.75 93.2 26.75V28.25C93.1724 28.25 93.15 28.2276 93.15 28.2H94.65ZM99.85 29.5555C100.071 29.5555 100.25 29.7345 100.25 29.9555H98.75C98.75 30.563 99.2425 31.0555 99.85 31.0555V29.5555ZM100.25 29.9555C100.25 30.1764 100.071 30.3555 99.85 30.3555V28.8555C99.2425 28.8555 98.75 29.348 98.75 29.9555H100.25ZM99.85 31.0555C100.458 31.0555 100.95 30.563 100.95 29.9555H99.45C99.45 29.7345 99.6291 29.5555 99.85 29.5555V31.0555ZM100.95 29.9555C100.95 29.348 100.458 28.8555 99.85 28.8555V30.3555C99.6291 30.3555 99.45 30.1764 99.45 29.9555H100.95ZM84.7513 19.8446C84.8026 20.7052 85.1807 21.5137 85.8082 22.1049L86.8368 21.0132C86.4876 20.6842 86.2772 20.2343 86.2487 19.7554L84.7513 19.8446ZM85.8082 22.1049C86.4357 22.6961 87.2653 23.0253 88.1273 23.0253V21.5253C87.6476 21.5253 87.1859 21.3421 86.8368 21.0131L85.8082 22.1049ZM88.1273 23.0253C88.9894 23.0253 89.819 22.6961 90.4465 22.1049L89.4179 21.0131C89.0687 21.3421 88.6071 21.5253 88.1273 21.5253V23.0253ZM90.4465 22.1049C91.074 21.5137 91.452 20.7052 91.5033 19.8446L90.006 19.7554C89.9774 20.2343 89.7671 20.6842 89.4179 21.0132L90.4465 22.1049ZM90.0047 19.8C90.0047 20.6945 90.36 21.5523 90.9925 22.1848L92.0532 21.1242C91.702 20.773 91.5047 20.2967 91.5047 19.8H90.0047ZM90.9925 22.1849C91.625 22.8173 92.4828 23.1727 93.3773 23.1727V21.6727C92.8807 21.6727 92.4044 21.4753 92.0531 21.1241L90.9925 22.1849ZM93.3773 23.1727C94.2719 23.1727 95.1297 22.8173 95.7622 22.1849L94.7016 21.1241C94.3503 21.4753 93.874 21.6727 93.3773 21.6727V23.1727ZM95.7622 22.1848C96.3946 21.5523 96.75 20.6945 96.75 19.8H95.25C95.25 20.2966 95.0527 20.773 94.7015 21.1242L95.7622 22.1848ZM95.2513 19.8447C95.3027 20.7052 95.6807 21.5137 96.3081 22.1049L97.3368 21.0132C96.9876 20.6842 96.7772 20.2343 96.7487 19.7553L95.2513 19.8447ZM96.3081 22.1049C96.9356 22.6961 97.7652 23.0253 98.6273 23.0253V21.5253C98.1475 21.5253 97.6859 21.3421 97.3368 21.0132L96.3081 22.1049ZM98.6273 23.0253C99.4895 23.0253 100.319 22.6961 100.947 22.1049L99.9179 21.0132C99.5688 21.3421 99.1072 21.5253 98.6273 21.5253V23.0253ZM100.947 22.1049C101.574 21.5137 101.952 20.7052 102.003 19.8447L100.506 19.7553C100.477 20.2343 100.267 20.6842 99.9179 21.0132L100.947 22.1049ZM100.505 19.8C100.505 20.6945 100.86 21.5523 101.492 22.1848L102.553 21.1242C102.202 20.773 102.005 20.2966 102.005 19.8H100.505ZM101.493 22.1849C102.125 22.8173 102.983 23.1727 103.877 23.1727V21.6727C103.381 21.6727 102.904 21.4753 102.553 21.1241L101.493 22.1849ZM103.877 23.1727C104.772 23.1727 105.63 22.8173 106.262 22.1849L105.202 21.1241C104.85 21.4753 104.374 21.6727 103.877 21.6727V23.1727ZM106.262 22.1848C106.895 21.5523 107.25 20.6945 107.25 19.8H105.75C105.75 20.2966 105.553 20.773 105.201 21.1242L106.262 22.1848ZM107.232 19.6372L105.953 13.8878L104.489 14.2135L105.768 19.9628L107.232 19.6372ZM105.954 13.8907C105.884 13.5683 105.705 13.2796 105.449 13.0723L104.506 14.2388C104.497 14.2318 104.491 14.2218 104.489 14.2106L105.954 13.8907ZM105.449 13.0723C105.192 12.8649 104.873 12.7512 104.543 12.75L104.537 14.25C104.526 14.25 104.515 14.2461 104.506 14.2388L105.449 13.0723ZM104.54 12.75H87.46V14.25H104.54V12.75ZM87.4573 12.75C87.1273 12.7512 86.8077 12.8649 86.5511 13.0723L87.494 14.2389C87.4851 14.246 87.4741 14.25 87.4627 14.25L87.4573 12.75ZM86.5511 13.0723C86.2945 13.2796 86.1163 13.5683 86.0459 13.8907L87.5114 14.2106C87.509 14.2218 87.5028 14.2317 87.494 14.2389L86.5511 13.0723ZM86.0466 13.8878L84.7679 19.6372L86.2321 19.9628L87.5108 14.2135L86.0466 13.8878Z" fill="#111111"/>
</g>
<g id="Size=32px, Filled=false">
<path id="Vector_5" d="M149.133 24.9333C149.133 24.381 148.686 23.9333 148.133 23.9333C147.581 23.9333 147.133 24.381 147.133 24.9333H149.133ZM124.867 24.9333C124.867 24.381 124.419 23.9333 123.867 23.9333C123.314 23.9333 122.867 24.381 122.867 24.9333H124.867ZM136.933 38H135.933C135.933 38.5523 136.381 39 136.933 39V38ZM144.4 38V39C144.952 39 145.4 38.5523 145.4 38H144.4ZM122 18.4L121.024 18.1829C121.004 18.2736 120.996 18.3667 121.002 18.4595L122 18.4ZM123.097 20.7454L122.411 21.4732L122.411 21.4732L123.097 20.7454ZM127.91 20.7454L128.595 21.4732L128.595 21.4732L127.91 20.7454ZM129.006 18.4H130.006C130.006 17.8593 129.576 17.4165 129.036 17.4004C128.496 17.3843 128.04 17.8007 128.008 18.3405L129.006 18.4ZM130.03 20.8727L129.323 21.5798L129.323 21.5798L130.03 20.8727ZM134.976 20.8727L135.683 21.5798L135.683 21.5797L134.976 20.8727ZM136 18.4L136.998 18.3405C136.966 17.8007 136.511 17.3843 135.97 17.4004C135.43 17.4165 135 17.8593 135 18.4H136ZM137.097 20.7454L136.411 21.4732L136.411 21.4732L137.097 20.7454ZM141.91 20.7454L142.595 21.4732L142.595 21.4732L141.91 20.7454ZM143.006 18.4H144.006C144.006 17.8593 143.576 17.4165 143.036 17.4004C142.496 17.3843 142.04 17.8007 142.008 18.3405L143.006 18.4ZM144.03 20.8727L143.323 21.5797L143.323 21.5798L144.03 20.8727ZM148.976 20.8727L149.683 21.5798L149.683 21.5797L148.976 20.8727ZM150 18.4H151C151 18.327 150.992 18.2542 150.976 18.1829L150 18.4ZM148.295 10.7342L147.318 10.9475L147.319 10.9513L148.295 10.7342ZM147.97 10.2074L148.599 9.42975L148.599 9.42974L147.97 10.2074ZM147.387 10L147.39 9H147.387V10ZM124.613 10V8.99999L124.61 9.00001L124.613 10ZM124.03 10.2074L123.401 9.42969L123.401 9.42971L124.03 10.2074ZM123.705 10.7342L124.681 10.9513L124.682 10.9475L123.705 10.7342ZM147.133 24.9333V36.1333H149.133V24.9333H147.133ZM147.133 36.1333C147.133 36.3633 147.042 36.5838 146.88 36.7462L148.294 38.1604C148.831 37.6228 149.133 36.8935 149.133 36.1333H147.133ZM146.88 36.7462C146.717 36.9087 146.497 37 146.267 37V39C147.027 39 147.756 38.6981 148.294 38.1604L146.88 36.7462ZM146.267 37H125.733V39H146.267V37ZM125.733 37C125.503 37 125.283 36.9087 125.121 36.7462L123.706 38.1604C124.244 38.6981 124.973 39 125.733 39V37ZM125.121 36.7462C124.958 36.5837 124.867 36.3632 124.867 36.1333H122.867C122.867 36.8936 123.169 37.6228 123.706 38.1604L125.121 36.7462ZM124.867 36.1333V24.9333H122.867V36.1333H124.867ZM145.4 29.6C145.4 28.3447 144.901 27.1407 144.014 26.2531L142.599 27.6673C143.112 28.1799 143.4 28.8752 143.4 29.6H145.4ZM144.014 26.2531C143.126 25.3654 141.922 24.8667 140.667 24.8667V26.8667C141.392 26.8667 142.087 27.1547 142.599 27.6673L144.014 26.2531ZM140.667 24.8667C139.411 24.8667 138.207 25.3654 137.32 26.2531L138.734 27.6673C139.247 27.1547 139.942 26.8667 140.667 26.8667V24.8667ZM137.32 26.2531C136.432 27.1407 135.933 28.3447 135.933 29.6H137.933C137.933 28.8752 138.221 28.1799 138.734 27.6673L137.32 26.2531ZM135.933 29.6V38H137.933V29.6H135.933ZM136.933 39H144.4V37H136.933V39ZM145.4 38V29.6H143.4V38H145.4ZM132.267 27.6667H128.533V29.6667H132.267V27.6667ZM128.533 27.6667C127.466 27.6667 126.6 28.5323 126.6 29.6H128.6C128.6 29.6368 128.57 29.6667 128.533 29.6667V27.6667ZM126.6 29.6V33.3333H128.6V29.6H126.6ZM126.6 33.3333C126.6 34.4011 127.466 35.2667 128.533 35.2667V33.2667C128.57 33.2667 128.6 33.2965 128.6 33.3333H126.6ZM128.533 35.2667H132.267V33.2667H128.533V35.2667ZM132.267 35.2667C133.334 35.2667 134.2 34.4011 134.2 33.3333H132.2C132.2 33.2965 132.23 33.2667 132.267 33.2667V35.2667ZM134.2 33.3333V29.6H132.2V33.3333H134.2ZM134.2 29.6C134.2 28.5323 133.334 27.6667 132.267 27.6667V29.6667C132.23 29.6667 132.2 29.6368 132.2 29.6H134.2ZM141.133 31.4073C141.428 31.4073 141.667 31.6461 141.667 31.9406H139.667C139.667 32.7506 140.323 33.4073 141.133 33.4073V31.4073ZM141.667 31.9406C141.667 32.2352 141.428 32.474 141.133 32.474V30.474C140.323 30.474 139.667 31.1306 139.667 31.9406H141.667ZM141.133 33.4073C141.943 33.4073 142.6 32.7506 142.6 31.9406H140.6C140.6 31.6461 140.839 31.4073 141.133 31.4073V33.4073ZM142.6 31.9406C142.6 31.1306 141.943 30.474 141.133 30.474V32.474C140.839 32.474 140.6 32.2352 140.6 31.9406H142.6ZM121.002 18.4595C121.07 19.607 121.574 20.685 122.411 21.4732L123.782 20.0175C123.317 19.5789 123.036 18.979 122.998 18.3405L121.002 18.4595ZM122.411 21.4732C123.248 22.2615 124.354 22.7004 125.503 22.7004V20.7004C124.863 20.7004 124.248 20.4561 123.782 20.0175L122.411 21.4732ZM125.503 22.7004C126.653 22.7004 127.759 22.2615 128.595 21.4732L127.224 20.0175C126.758 20.4561 126.143 20.7004 125.503 20.7004V22.7004ZM128.595 21.4732C129.432 20.685 129.936 19.607 130.004 18.4595L128.008 18.3405C127.97 18.979 127.689 19.5789 127.224 20.0175L128.595 21.4732ZM128.006 18.4C128.006 19.5926 128.48 20.7364 129.323 21.5798L130.738 20.1656C130.269 19.6973 130.006 19.0622 130.006 18.4H128.006ZM129.323 21.5798C130.167 22.423 131.31 22.8969 132.503 22.8969V20.8969C131.841 20.8969 131.206 20.6338 130.738 20.1655L129.323 21.5798ZM132.503 22.8969C133.696 22.8969 134.84 22.423 135.683 21.5798L134.269 20.1655C133.8 20.6338 133.165 20.8969 132.503 20.8969V22.8969ZM135.683 21.5797C136.526 20.7364 137 19.5927 137 18.4H135C135 19.0622 134.737 19.6973 134.269 20.1656L135.683 21.5797ZM135.002 18.4595C135.07 19.607 135.574 20.685 136.411 21.4732L137.782 20.0175C137.317 19.5789 137.036 18.979 136.998 18.3405L135.002 18.4595ZM136.411 21.4732C137.248 22.2615 138.354 22.7004 139.503 22.7004V20.7004C138.863 20.7004 138.248 20.4561 137.782 20.0175L136.411 21.4732ZM139.503 22.7004C140.653 22.7004 141.759 22.2615 142.595 21.4732L141.224 20.0175C140.758 20.4561 140.143 20.7004 139.503 20.7004V22.7004ZM142.595 21.4732C143.432 20.685 143.936 19.607 144.004 18.4595L142.008 18.3405C141.97 18.979 141.689 19.5789 141.224 20.0175L142.595 21.4732ZM142.006 18.4C142.006 19.5927 142.48 20.7364 143.323 21.5797L144.738 20.1656C144.269 19.6973 144.006 19.0622 144.006 18.4H142.006ZM143.323 21.5798C144.167 22.423 145.31 22.8969 146.503 22.8969V20.8969C145.841 20.8969 145.206 20.6338 144.737 20.1655L143.323 21.5798ZM146.503 22.8969C147.696 22.8969 148.84 22.423 149.683 21.5798L148.269 20.1655C147.8 20.6338 147.165 20.8969 146.503 20.8969V22.8969ZM149.683 21.5797C150.526 20.7364 151 19.5927 151 18.4H149C149 19.0622 148.737 19.6973 148.269 20.1656L149.683 21.5797ZM150.976 18.1829L149.271 10.5171L147.319 10.9513L149.024 18.6171L150.976 18.1829ZM149.272 10.5209C149.178 10.091 148.941 9.70619 148.599 9.42975L147.341 10.9851C147.33 10.9757 147.321 10.9625 147.318 10.9475L149.272 10.5209ZM148.599 9.42974C148.256 9.15314 147.83 9.00161 147.39 9.00001L147.383 11C147.368 10.9999 147.353 10.9948 147.341 10.9851L148.599 9.42974ZM147.387 9H124.613V11H147.387V9ZM124.61 9.00001C124.17 9.00161 123.744 9.15319 123.401 9.42969L124.659 10.9852C124.647 10.9947 124.632 10.9999 124.617 11L124.61 9.00001ZM123.401 9.42971C123.059 9.70619 122.822 10.0911 122.728 10.5209L124.682 10.9475C124.679 10.9624 124.67 10.9757 124.659 10.9852L123.401 9.42971ZM122.729 10.5171L121.024 18.1829L122.976 18.6171L124.681 10.9513L122.729 10.5171Z" fill="#111111"/>
</g>
<g id="Size=40px, Filled=false">
<path id="Vector_6" d="M200.417 25.1667C200.417 24.4763 199.857 23.9167 199.167 23.9167C198.476 23.9167 197.917 24.4763 197.917 25.1667H200.417ZM170.083 25.1667C170.083 24.4763 169.524 23.9167 168.833 23.9167C168.143 23.9167 167.583 24.4763 167.583 25.1667H170.083ZM185.167 41.5H183.917C183.917 42.1904 184.476 42.75 185.167 42.75V41.5ZM194.5 41.5V42.75C195.19 42.75 195.75 42.1904 195.75 41.5H194.5ZM166.5 17L165.28 16.7286C165.255 16.842 165.245 16.9584 165.252 17.0744L166.5 17ZM167.871 19.9317L167.014 20.8415L167.014 20.8415L167.871 19.9317ZM173.887 19.9317L174.744 20.8415L174.744 20.8415L173.887 19.9317ZM175.258 17H176.508C176.508 16.3241 175.971 15.7707 175.295 15.7506C174.619 15.7304 174.05 16.2509 174.01 16.9256L175.258 17ZM176.538 20.0908L175.654 20.9747L175.654 20.9748L176.538 20.0908ZM182.72 20.0908L183.604 20.9748L183.604 20.9747L182.72 20.0908ZM184 17L185.248 16.9256C185.208 16.2509 184.638 15.7304 183.963 15.7506C183.287 15.7707 182.75 16.3241 182.75 17H184ZM185.371 19.9317L184.514 20.8415L184.514 20.8415L185.371 19.9317ZM191.387 19.9317L192.244 20.8415L192.244 20.8415L191.387 19.9317ZM192.758 17H194.008C194.008 16.3241 193.471 15.7707 192.795 15.7506C192.119 15.7304 191.55 16.2509 191.51 16.9256L192.758 17ZM194.038 20.0908L193.154 20.9747L193.154 20.9748L194.038 20.0908ZM200.22 20.0908L201.104 20.9748L201.104 20.9747L200.22 20.0908ZM201.5 17H202.75C202.75 16.9087 202.74 16.8177 202.72 16.7286L201.5 17ZM199.369 7.41778L198.148 7.68441L198.149 7.68915L199.369 7.41778ZM198.962 6.75929L199.748 5.78719L199.748 5.78718L198.962 6.75929ZM198.233 6.5L198.238 5.25H198.233V6.5ZM169.767 6.5V5.24999L169.762 5.25001L169.767 6.5ZM169.038 6.75929L168.252 5.78712L168.252 5.78713L169.038 6.75929ZM168.631 7.41778L169.851 7.68915L169.852 7.68441L168.631 7.41778ZM197.917 25.1667V39.1667H200.417V25.1667H197.917ZM197.917 39.1667C197.917 39.4541 197.802 39.7297 197.599 39.9328L199.367 41.7005C200.039 41.0284 200.417 40.1169 200.417 39.1667H197.917ZM197.599 39.9328C197.396 40.1358 197.121 40.25 196.833 40.25V42.75C197.784 42.75 198.695 42.3726 199.367 41.7005L197.599 39.9328ZM196.833 40.25H171.167V42.75H196.833V40.25ZM171.167 40.25C170.879 40.25 170.604 40.1359 170.401 39.9328L168.633 41.7005C169.305 42.3726 170.216 42.75 171.167 42.75V40.25ZM170.401 39.9328C170.198 39.7296 170.083 39.454 170.083 39.1667H167.583C167.583 40.1169 167.961 41.0285 168.633 41.7005L170.401 39.9328ZM170.083 39.1667V25.1667H167.583V39.1667H170.083ZM195.75 31C195.75 29.4309 195.127 27.9259 194.017 26.8163L192.249 28.5841C192.89 29.2248 193.25 30.0939 193.25 31H195.75ZM194.017 26.8163C192.907 25.7068 191.402 25.0833 189.833 25.0833V27.5833C190.739 27.5833 191.608 27.9433 192.249 28.5841L194.017 26.8163ZM189.833 25.0833C188.264 25.0833 186.759 25.7068 185.65 26.8163L187.417 28.5841C188.058 27.9433 188.927 27.5833 189.833 27.5833V25.0833ZM185.65 26.8163C184.54 27.9259 183.917 29.4309 183.917 31H186.417C186.417 30.0939 186.777 29.2248 187.417 28.5841L185.65 26.8163ZM183.917 31V41.5H186.417V31H183.917ZM185.167 42.75H194.5V40.25H185.167V42.75ZM195.75 41.5V31H193.25V41.5H195.75ZM179.333 28.5833H174.667V31.0833H179.333V28.5833ZM174.667 28.5833C173.332 28.5833 172.25 29.6653 172.25 31H174.75C174.75 31.046 174.713 31.0833 174.667 31.0833V28.5833ZM172.25 31V35.6667H174.75V31H172.25ZM172.25 35.6667C172.25 37.0013 173.332 38.0833 174.667 38.0833V35.5833C174.713 35.5833 174.75 35.6206 174.75 35.6667H172.25ZM174.667 38.0833H179.333V35.5833H174.667V38.0833ZM179.333 38.0833C180.668 38.0833 181.75 37.0013 181.75 35.6667H179.25C179.25 35.6206 179.287 35.5833 179.333 35.5833V38.0833ZM181.75 35.6667V31H179.25V35.6667H181.75ZM181.75 31C181.75 29.6653 180.668 28.5833 179.333 28.5833V31.0833C179.287 31.0833 179.25 31.046 179.25 31H181.75ZM190.417 33.2591C190.785 33.2591 191.083 33.5576 191.083 33.9258H188.583C188.583 34.9383 189.404 35.7591 190.417 35.7591V33.2591ZM191.083 33.9258C191.083 34.294 190.785 34.5924 190.417 34.5924V32.0924C189.404 32.0924 188.583 32.9133 188.583 33.9258H191.083ZM190.417 35.7591C191.429 35.7591 192.25 34.9383 192.25 33.9258H189.75C189.75 33.5576 190.048 33.2591 190.417 33.2591V35.7591ZM192.25 33.9258C192.25 32.9133 191.429 32.0924 190.417 32.0924V34.5924C190.048 34.5924 189.75 34.294 189.75 33.9258H192.25ZM165.252 17.0744C165.338 18.5087 165.968 19.8562 167.014 20.8415L168.728 19.0219C168.146 18.4736 167.795 17.7238 167.748 16.9256L165.252 17.0744ZM167.014 20.8415C168.059 21.8269 169.442 22.3755 170.879 22.3755V19.8755C170.079 19.8755 169.31 19.5702 168.728 19.0219L167.014 20.8415ZM170.879 22.3755C172.316 22.3755 173.698 21.8269 174.744 20.8415L173.03 19.0219C172.448 19.5702 171.679 19.8755 170.879 19.8755V22.3755ZM174.744 20.8415C175.79 19.8562 176.42 18.5087 176.506 17.0744L174.01 16.9256C173.962 17.7238 173.612 18.4736 173.03 19.0219L174.744 20.8415ZM174.008 17C174.008 18.4908 174.6 19.9206 175.654 20.9747L177.422 19.207C176.837 18.6216 176.508 17.8278 176.508 17H174.008ZM175.654 20.9748C176.708 22.0288 178.138 22.6211 179.629 22.6211V20.1211C178.801 20.1211 178.007 19.7922 177.422 19.2069L175.654 20.9748ZM179.629 22.6211C181.12 22.6211 182.549 22.0288 183.604 20.9748L181.836 19.2069C181.251 19.7922 180.457 20.1211 179.629 20.1211V22.6211ZM183.604 20.9747C184.658 19.9206 185.25 18.4909 185.25 17H182.75C182.75 17.8277 182.421 18.6216 181.836 19.207L183.604 20.9747ZM182.752 17.0744C182.838 18.5087 183.468 19.8562 184.514 20.8415L186.228 19.0219C185.646 18.4736 185.295 17.7238 185.248 16.9256L182.752 17.0744ZM184.514 20.8415C185.559 21.8269 186.942 22.3755 188.379 22.3755V19.8755C187.579 19.8755 186.81 19.5702 186.228 19.0219L184.514 20.8415ZM188.379 22.3755C189.816 22.3755 191.198 21.8269 192.244 20.8415L190.53 19.0219C189.948 19.5702 189.179 19.8755 188.379 19.8755V22.3755ZM192.244 20.8415C193.29 19.8562 193.92 18.5087 194.006 17.0744L191.51 16.9256C191.462 17.7238 191.112 18.4736 190.53 19.0219L192.244 20.8415ZM191.508 17C191.508 18.4909 192.1 19.9206 193.154 20.9747L194.922 19.207C194.337 18.6216 194.008 17.8277 194.008 17H191.508ZM193.154 20.9748C194.208 22.0288 195.638 22.6211 197.129 22.6211V20.1211C196.301 20.1211 195.507 19.7922 194.922 19.2069L193.154 20.9748ZM197.129 22.6211C198.62 22.6211 200.049 22.0288 201.104 20.9748L199.336 19.2069C198.751 19.7922 197.957 20.1211 197.129 20.1211V22.6211ZM201.104 20.9747C202.158 19.9206 202.75 18.4909 202.75 17H200.25C200.25 17.8277 199.921 18.6216 199.336 19.207L201.104 20.9747ZM202.72 16.7286L200.589 7.1464L198.149 7.68915L200.28 17.2714L202.72 16.7286ZM200.59 7.15115C200.473 6.6138 200.176 6.13273 199.748 5.78719L198.177 7.7314C198.162 7.71959 198.152 7.70307 198.148 7.68441L200.59 7.15115ZM199.748 5.78718C199.32 5.44143 198.788 5.25201 198.238 5.25001L198.229 7.74999C198.21 7.74992 198.192 7.74344 198.177 7.73141L199.748 5.78718ZM198.233 5.25H169.767V7.75H198.233V5.25ZM169.762 5.25001C169.212 5.25201 168.679 5.44148 168.252 5.78712L169.823 7.73147C169.809 7.74338 169.79 7.74992 169.771 7.74999L169.762 5.25001ZM168.252 5.78713C167.824 6.13274 167.527 6.61387 167.41 7.15115L169.852 7.68441C169.848 7.703 169.838 7.71958 169.823 7.73146L168.252 5.78713ZM167.411 7.1464L165.28 16.7286L167.72 17.2714L169.851 7.68915L167.411 7.1464Z" fill="#111111"/>
</g>
<g id="Size=48px, Filled=false">
<path id="Vector_7" d="M259.7 25.4C259.7 24.5716 259.028 23.9 258.2 23.9C257.372 23.9 256.7 24.5716 256.7 25.4H259.7ZM223.3 25.4C223.3 24.5716 222.628 23.9 221.8 23.9C220.972 23.9 220.3 24.5716 220.3 25.4H223.3ZM241.4 45H239.9C239.9 45.8284 240.572 46.5 241.4 46.5V45ZM252.6 45V46.5C253.428 46.5 254.1 45.8284 254.1 45H252.6ZM219 15.6L217.536 15.2744C217.506 15.4104 217.494 15.5501 217.503 15.6893L219 15.6ZM220.645 19.1181L219.616 20.2098L219.616 20.2099L220.645 19.1181ZM227.864 19.1181L228.893 20.2099L228.893 20.2098L227.864 19.1181ZM229.509 15.6H231.009C231.009 14.789 230.365 14.1248 229.554 14.1007C228.743 14.0765 228.06 14.7011 228.012 15.5107L229.509 15.6ZM231.046 19.309L229.985 20.3697L229.985 20.3697L231.046 19.309ZM238.464 19.309L239.524 20.3697L239.524 20.3696L238.464 19.309ZM240 15.6L241.497 15.5107C241.449 14.7011 240.766 14.0765 239.955 14.1007C239.145 14.1248 238.5 14.789 238.5 15.6H240ZM241.645 19.1181L240.616 20.2098L240.616 20.2098L241.645 19.1181ZM248.864 19.1181L249.893 20.2098L249.893 20.2098L248.864 19.1181ZM250.509 15.6H252.009C252.009 14.789 251.365 14.1248 250.554 14.1007C249.743 14.0765 249.06 14.7011 249.012 15.5107L250.509 15.6ZM252.046 19.309L250.985 20.3696L250.985 20.3697L252.046 19.309ZM259.464 19.309L260.524 20.3697L260.524 20.3696L259.464 19.309ZM261 15.6H262.5C262.5 15.4905 262.488 15.3813 262.464 15.2744L261 15.6ZM258.443 4.10133L256.977 4.42129L256.978 4.42698L258.443 4.10133ZM257.955 3.31115L258.898 2.14463L258.898 2.14461L257.955 3.31115ZM257.08 3L257.085 1.5H257.08V3ZM222.92 3V1.49999L222.915 1.50001L222.92 3ZM222.045 3.31115L221.102 2.14454L221.102 2.14456L222.045 3.31115ZM221.557 4.10133L223.022 4.42698L223.023 4.42129L221.557 4.10133ZM256.7 25.4V42.2H259.7V25.4H256.7ZM256.7 42.2C256.7 42.5449 256.563 42.8756 256.319 43.1193L258.441 45.2406C259.247 44.4341 259.7 43.3402 259.7 42.2H256.7ZM256.319 43.1193C256.076 43.363 255.745 43.5 255.4 43.5V46.5C256.54 46.5 257.634 46.0471 258.441 45.2406L256.319 43.1193ZM255.4 43.5H224.6V46.5H255.4V43.5ZM224.6 43.5C224.255 43.5 223.924 43.363 223.681 43.1193L221.559 45.2406C222.366 46.0471 223.46 46.5 224.6 46.5V43.5ZM223.681 43.1193C223.437 42.8756 223.3 42.5448 223.3 42.2H220.3C220.3 43.3403 220.753 44.4342 221.559 45.2406L223.681 43.1193ZM223.3 42.2V25.4H220.3V42.2H223.3ZM254.1 32.4C254.1 30.517 253.352 28.7111 252.02 27.3796L249.899 29.5009C250.668 30.2698 251.1 31.3127 251.1 32.4H254.1ZM252.02 27.3796C250.689 26.0481 248.883 25.3 247 25.3V28.3C248.087 28.3 249.13 28.732 249.899 29.5009L252.02 27.3796ZM247 25.3C245.117 25.3 243.311 26.0481 241.98 27.3796L244.101 29.5009C244.87 28.732 245.913 28.3 247 28.3V25.3ZM241.98 27.3796C240.648 28.7111 239.9 30.517 239.9 32.4H242.9C242.9 31.3127 243.332 30.2698 244.101 29.5009L241.98 27.3796ZM239.9 32.4V45H242.9V32.4H239.9ZM241.4 46.5H252.6V43.5H241.4V46.5ZM254.1 45V32.4H251.1V45H254.1ZM234.4 29.5H228.8V32.5H234.4V29.5ZM228.8 29.5C227.198 29.5 225.9 30.7984 225.9 32.4H228.9C228.9 32.4552 228.855 32.5 228.8 32.5V29.5ZM225.9 32.4V38H228.9V32.4H225.9ZM225.9 38C225.9 39.6016 227.198 40.9 228.8 40.9V37.9C228.855 37.9 228.9 37.9448 228.9 38H225.9ZM228.8 40.9H234.4V37.9H228.8V40.9ZM234.4 40.9C236.002 40.9 237.3 39.6016 237.3 38H234.3C234.3 37.9448 234.345 37.9 234.4 37.9V40.9ZM237.3 38V32.4H234.3V38H237.3ZM237.3 32.4C237.3 30.7984 236.002 29.5 234.4 29.5V32.5C234.345 32.5 234.3 32.4552 234.3 32.4H237.3ZM247.7 35.1109C248.142 35.1109 248.5 35.4691 248.5 35.9109H245.5C245.5 37.1259 246.485 38.1109 247.7 38.1109V35.1109ZM248.5 35.9109C248.5 36.3528 248.142 36.7109 247.7 36.7109V33.7109C246.485 33.7109 245.5 34.6959 245.5 35.9109H248.5ZM247.7 38.1109C248.915 38.1109 249.9 37.1259 249.9 35.9109H246.9C246.9 35.4691 247.258 35.1109 247.7 35.1109V38.1109ZM249.9 35.9109C249.9 34.6959 248.915 33.7109 247.7 33.7109V36.7109C247.258 36.7109 246.9 36.3528 246.9 35.9109H249.9ZM217.503 15.6893C217.605 17.4105 218.361 19.0275 219.616 20.2098L221.674 18.0263C220.975 17.3683 220.554 16.4685 220.497 15.5107L217.503 15.6893ZM219.616 20.2099C220.871 21.3922 222.531 22.0506 224.255 22.0506V19.0506C223.295 19.0506 222.372 18.6842 221.674 18.0263L219.616 20.2099ZM224.255 22.0506C225.979 22.0506 227.638 21.3922 228.893 20.2099L226.836 18.0263C226.137 18.6842 225.214 19.0506 224.255 19.0506V22.0506ZM228.893 20.2098C230.148 19.0275 230.904 17.4105 231.007 15.6893L228.012 15.5107C227.955 16.4685 227.534 17.3683 226.836 18.0263L228.893 20.2098ZM228.009 15.6C228.009 17.389 228.72 19.1047 229.985 20.3697L232.106 18.2483C231.404 17.546 231.009 16.5933 231.009 15.6H228.009ZM229.985 20.3697C231.25 21.6345 232.966 22.3453 234.755 22.3453V19.3453C233.761 19.3453 232.809 18.9507 232.106 18.2483L229.985 20.3697ZM234.755 22.3453C236.544 22.3453 238.259 21.6345 239.524 20.3697L237.403 18.2483C236.701 18.9507 235.748 19.3453 234.755 19.3453V22.3453ZM239.524 20.3696C240.789 19.1047 241.5 17.389 241.5 15.6H238.5C238.5 16.5933 238.105 17.546 237.403 18.2484L239.524 20.3696ZM238.503 15.6893C238.605 17.4104 239.361 19.0274 240.616 20.2098L242.674 18.0263C241.975 17.3684 241.554 16.4685 241.497 15.5107L238.503 15.6893ZM240.616 20.2098C241.871 21.3922 243.53 22.0506 245.255 22.0506V19.0506C244.295 19.0506 243.372 18.6842 242.674 18.0263L240.616 20.2098ZM245.255 22.0506C246.979 22.0506 248.638 21.3922 249.893 20.2098L247.836 18.0263C247.138 18.6842 246.214 19.0506 245.255 19.0506V22.0506ZM249.893 20.2098C251.148 19.0274 251.904 17.4104 252.007 15.6893L249.012 15.5107C248.955 16.4685 248.534 17.3684 247.836 18.0263L249.893 20.2098ZM249.009 15.6C249.009 17.389 249.72 19.1047 250.985 20.3696L253.106 18.2484C252.404 17.546 252.009 16.5933 252.009 15.6H249.009ZM250.985 20.3697C252.25 21.6345 253.966 22.3453 255.755 22.3453V19.3453C254.761 19.3453 253.809 18.9507 253.106 18.2483L250.985 20.3697ZM255.755 22.3453C257.544 22.3453 259.259 21.6345 260.524 20.3697L258.403 18.2483C257.701 18.9507 256.748 19.3453 255.755 19.3453V22.3453ZM260.524 20.3696C261.789 19.1047 262.5 17.389 262.5 15.6H259.5C259.5 16.5933 259.105 17.546 258.403 18.2484L260.524 20.3696ZM262.464 15.2744L259.907 3.77569L256.978 4.42698L259.536 15.9256L262.464 15.2744ZM259.908 3.78138C259.767 3.13656 259.411 2.55928 258.898 2.14463L257.012 4.47768C256.994 4.4635 256.982 4.44368 256.977 4.42129L259.908 3.78138ZM258.898 2.14461C258.385 1.72971 257.745 1.50242 257.085 1.50001L257.075 4.49999C257.052 4.49991 257.03 4.49213 257.012 4.47769L258.898 2.14461ZM257.08 1.5H222.92V4.5H257.08V1.5ZM222.915 1.50001C222.255 1.50242 221.615 1.72978 221.102 2.14454L222.988 4.47776C222.97 4.49206 222.948 4.49991 222.925 4.49999L222.915 1.50001ZM221.102 2.14456C220.589 2.55929 220.233 3.13665 220.092 3.78138L223.023 4.42129C223.018 4.4436 223.006 4.46349 222.988 4.47775L221.102 2.14456ZM220.093 3.77569L217.536 15.2744L220.464 15.9256L223.022 4.42698L220.093 3.77569Z" fill="#111111"/>
</g>
<g id="Size=12px, Filled=true" clip-path="url(#clip1_7887_211)">
<g id="Vector_8">
<path d="M10.6171 83.9507C10.3353 83.9463 10.0583 83.8769 9.80773 83.7477C9.55718 83.6186 9.33987 83.4333 9.17276 83.2063C9.16128 83.191 9.14639 83.1786 9.12928 83.1701C9.11217 83.1615 9.0933 83.157 9.07417 83.157C9.05503 83.157 9.03616 83.1615 9.01905 83.1701C9.00194 83.1786 8.98705 83.191 8.97557 83.2063C8.81194 83.4363 8.59569 83.6238 8.34486 83.7531C8.09403 83.8825 7.8159 83.95 7.53367 83.95C7.25145 83.95 6.97332 83.8825 6.72249 83.7531C6.47166 83.6238 6.2554 83.4363 6.09177 83.2063C6.08029 83.191 6.06541 83.1786 6.04829 83.1701C6.03118 83.1615 6.01231 83.157 5.99318 83.157C5.97405 83.157 5.95518 83.1615 5.93807 83.1701C5.92095 83.1786 5.90607 83.191 5.89459 83.2063C5.72748 83.4333 5.51016 83.6186 5.25961 83.7477C5.00906 83.8769 4.73205 83.9463 4.45022 83.9507C4.1686 83.9452 3.89199 83.8753 3.64161 83.7462C3.39123 83.6172 3.17375 83.4325 3.00586 83.2063C2.99514 83.1914 2.9811 83.1792 2.96484 83.1706C2.94859 83.1621 2.93056 83.1574 2.91219 83.157C2.89313 83.1574 2.87438 83.162 2.85733 83.1705C2.84027 83.1791 2.82533 83.1913 2.8136 83.2063C2.64649 83.4333 2.42918 83.6186 2.17863 83.7477C1.92807 83.8769 1.65107 83.9463 1.36924 83.9507H1.18191C1.16432 83.9482 1.1464 83.9496 1.12938 83.9547C1.11236 83.9598 1.09665 83.9685 1.08332 83.9803C1.07071 83.9924 1.0607 84.0069 1.05392 84.023C1.04714 84.0391 1.04372 84.0565 1.04388 84.0739V88.5106C1.04388 88.7067 1.12179 88.8948 1.26046 89.0334C1.39913 89.1721 1.58721 89.25 1.78332 89.25H10.1636C10.3597 89.25 10.5478 89.1721 10.6865 89.0334C10.8251 88.8948 10.903 88.7067 10.903 88.5106V84.0739C10.9028 84.0573 10.8992 84.0408 10.8924 84.0255C10.8856 84.0103 10.8758 83.9966 10.8636 83.9852C10.8511 83.9735 10.8364 83.9644 10.8203 83.9585C10.8042 83.9525 10.7871 83.9499 10.7699 83.9507H10.6171ZM7.47205 85.4789C7.47331 85.4543 7.47942 85.4301 7.49002 85.4079C7.50062 85.3856 7.5155 85.3657 7.53382 85.3492C7.55214 85.3327 7.57353 85.32 7.59676 85.3118C7.62 85.3036 7.64463 85.3001 7.66924 85.3014H9.24177C9.26678 85.2994 9.29193 85.3024 9.31574 85.3103C9.33955 85.3182 9.36154 85.3308 9.38039 85.3474C9.39924 85.3639 9.41457 85.3841 9.42548 85.4067C9.43639 85.4293 9.44264 85.4538 9.44388 85.4789V88.0127C9.44388 88.078 9.41792 88.1407 9.37169 88.187C9.32547 88.2332 9.26278 88.2592 9.1974 88.2592H7.71853C7.65316 88.2592 7.59047 88.2332 7.54424 88.187C7.49802 88.1407 7.47205 88.078 7.47205 88.0127V85.4789ZM2.78895 85.4789C2.79021 85.4562 2.79593 85.434 2.80579 85.4135C2.81564 85.3931 2.82944 85.3748 2.84638 85.3597C2.86333 85.3446 2.88309 85.3329 2.90453 85.3255C2.92598 85.318 2.94868 85.3149 2.97135 85.3162H5.55938C5.60483 85.3148 5.6491 85.3309 5.68304 85.3611C5.71698 85.3914 5.738 85.4336 5.74177 85.4789V87.1254C5.738 87.1707 5.71698 87.2128 5.68304 87.2431C5.6491 87.2734 5.60483 87.2894 5.55938 87.288H2.95163C2.92896 87.2894 2.90626 87.2862 2.88481 87.2787C2.86337 87.2713 2.84361 87.2597 2.82666 87.2446C2.80972 87.2294 2.79592 87.2111 2.78607 87.1907C2.77621 87.1702 2.77049 87.148 2.76924 87.1254L2.78895 85.4789Z" fill="#111111"/>
<path d="M10.6171 83.2113C10.8755 83.195 11.1218 83.0962 11.3197 82.9293C11.5176 82.7624 11.6567 82.5364 11.7164 82.2845C11.7853 82.0647 11.7853 81.829 11.7164 81.6092L10.8242 78.9127C10.7897 78.819 10.7206 78.75 10.6516 78.75H1.33473C1.26571 78.75 1.1967 78.819 1.16219 78.9127L0.274869 81.6092C0.208385 81.8294 0.208385 82.0643 0.274869 82.2845C0.334331 82.5356 0.472672 82.7611 0.669614 82.9279C0.866556 83.0947 1.11174 83.194 1.36924 83.2113C1.71163 83.1751 2.02621 83.0062 2.24554 82.7408C2.46486 82.4754 2.57146 82.1346 2.54248 81.7915C2.54248 81.6935 2.58143 81.5995 2.65076 81.5301C2.7201 81.4608 2.81414 81.4218 2.91219 81.4218C3.01025 81.4218 3.10429 81.4608 3.17362 81.5301C3.24296 81.5995 3.28191 81.6935 3.28191 81.7915C3.25156 82.1341 3.35702 82.4749 3.57555 82.7405C3.79409 83.006 4.10821 83.1751 4.45022 83.2113C4.79261 83.1751 5.1072 83.0062 5.32652 82.7408C5.54585 82.4754 5.65245 82.1346 5.62346 81.7915C5.62346 81.6935 5.66241 81.5995 5.73175 81.5301C5.80108 81.4608 5.89512 81.4218 5.99318 81.4218C6.09123 81.4218 6.18527 81.4608 6.25461 81.5301C6.32395 81.5995 6.3629 81.6935 6.3629 81.7915C6.33391 82.1346 6.44051 82.4754 6.65984 82.7408C6.87916 83.0062 7.19375 83.1751 7.53614 83.2113C7.87815 83.1751 8.19227 83.006 8.41081 82.7405C8.62934 82.4749 8.7348 82.1341 8.70445 81.7915C8.70445 81.6935 8.7434 81.5995 8.81273 81.5301C8.88207 81.4608 8.97611 81.4218 9.07417 81.4218C9.17222 81.4218 9.26626 81.4608 9.3356 81.5301C9.40493 81.5995 9.44388 81.6935 9.44388 81.7915C9.4149 82.1346 9.5215 82.4754 9.74082 82.7408C9.96014 83.0062 10.2747 83.1751 10.6171 83.2113Z" fill="#111111"/>
</g>
</g>
<g id="Size=16px, Filled=true">
<g id="Vector_9">
<path d="M38.1561 83.9343C37.7804 83.9284 37.411 83.8358 37.077 83.6636C36.7429 83.4915 36.4531 83.2444 36.2303 82.9418C36.215 82.9214 36.1952 82.9048 36.1724 82.8934C36.1495 82.882 36.1244 82.8761 36.0989 82.8761C36.0734 82.8761 36.0482 82.882 36.0254 82.8934C36.0026 82.9048 35.9827 82.9214 35.9674 82.9418C35.7492 83.2484 35.4609 83.4983 35.1265 83.6708C34.792 83.8433 34.4212 83.9333 34.0449 83.9333C33.6686 83.9333 33.2977 83.8433 32.9633 83.6708C32.6289 83.4983 32.3405 83.2484 32.1223 82.9418C32.107 82.9214 32.0872 82.9048 32.0644 82.8934C32.0416 82.882 32.0164 82.8761 31.9909 82.8761C31.9654 82.8761 31.9402 82.882 31.9174 82.8934C31.8946 82.9048 31.8747 82.9214 31.8594 82.9418C31.6366 83.2444 31.3469 83.4915 31.0128 83.6636C30.6787 83.8358 30.3094 83.9284 29.9336 83.9343C29.5581 83.9269 29.1893 83.8337 28.8555 83.6616C28.5216 83.4896 28.2316 83.2433 28.0078 82.9418C27.9935 82.9219 27.9748 82.9056 27.9531 82.8942C27.9314 82.8828 27.9074 82.8766 27.8829 82.8761C27.8575 82.8765 27.8325 82.8827 27.8097 82.8941C27.787 82.9054 27.7671 82.9217 27.7514 82.9418C27.5286 83.2444 27.2389 83.4915 26.9048 83.6636C26.5707 83.8358 26.2014 83.9284 25.8256 83.9343H25.5759C25.5524 83.931 25.5285 83.9328 25.5058 83.9396C25.4831 83.9464 25.4622 83.958 25.4444 83.9737C25.4276 83.9898 25.4143 84.0092 25.4052 84.0307C25.3962 84.0522 25.3916 84.0753 25.3918 84.0986V90.0141C25.3918 90.2756 25.4957 90.5263 25.6806 90.7112C25.8655 90.8961 26.1163 91 26.3777 91H37.5514C37.8129 91 38.0637 90.8961 38.2486 90.7112C38.4335 90.5263 38.5374 90.2756 38.5374 90.0141V84.0986C38.5371 84.0763 38.5323 84.0544 38.5232 84.034C38.5142 84.0137 38.5011 83.9954 38.4848 83.9803C38.4681 83.9646 38.4485 83.9525 38.427 83.9446C38.4056 83.9367 38.3827 83.9332 38.3599 83.9343H38.1561ZM33.9627 85.9718C33.9644 85.939 33.9725 85.9069 33.9867 85.8772C34.0008 85.8475 34.0206 85.8209 34.0451 85.799C34.0695 85.777 34.098 85.76 34.129 85.7491C34.16 85.7382 34.1928 85.7334 34.2256 85.7352H36.3223C36.3557 85.7325 36.3892 85.7366 36.421 85.7471C36.4527 85.7576 36.482 85.7744 36.5072 85.7965C36.5323 85.8186 36.5527 85.8454 36.5673 85.8756C36.5818 85.9057 36.5902 85.9384 36.5918 85.9718V89.3502C36.5918 89.4374 36.5572 89.521 36.4956 89.5826C36.4339 89.6442 36.3503 89.6789 36.2632 89.6789H34.2914C34.2042 89.6789 34.1206 89.6442 34.059 89.5826C33.9973 89.521 33.9627 89.4374 33.9627 89.3502V85.9718ZM27.7186 85.9718C27.7203 85.9416 27.7279 85.912 27.741 85.8847C27.7542 85.8575 27.7726 85.833 27.7952 85.8129C27.8177 85.7927 27.8441 85.7773 27.8727 85.7673C27.9013 85.7574 27.9316 85.7532 27.9618 85.7549H31.4125C31.4731 85.753 31.5321 85.7745 31.5774 85.8148C31.6226 85.8552 31.6507 85.9114 31.6557 85.9718V88.1671C31.6507 88.2276 31.6226 88.2838 31.5774 88.3241C31.5321 88.3645 31.4731 88.3859 31.4125 88.384H27.9355C27.9053 88.3858 27.875 88.3816 27.8464 88.3717C27.8178 88.3617 27.7915 88.3462 27.7689 88.3261C27.7463 88.3059 27.7279 88.2815 27.7147 88.2542C27.7016 88.227 27.694 88.1974 27.6923 88.1671L27.7186 85.9718Z" fill="#111111"/>
<path d="M38.1561 82.9484C38.5006 82.9267 38.829 82.7949 39.0929 82.5724C39.3568 82.3499 39.5422 82.0485 39.6219 81.7127C39.7138 81.4196 39.7138 81.1053 39.6219 80.8122L38.4322 77.2169C38.3862 77.092 38.2942 77 38.2022 77H25.7796C25.6876 77 25.5956 77.092 25.5496 77.2169L24.3665 80.8122C24.2778 81.1058 24.2778 81.4191 24.3665 81.7127C24.4458 82.0475 24.6302 82.3482 24.8928 82.5705C25.1554 82.7929 25.4823 82.9253 25.8256 82.9484C26.2821 82.9001 26.7016 82.6749 26.994 82.3211C27.2865 81.9672 27.4286 81.5128 27.3899 81.0554C27.3899 80.9247 27.4419 80.7993 27.5343 80.7068C27.6268 80.6144 27.7522 80.5624 27.8829 80.5624C28.0136 80.5624 28.139 80.6144 28.2315 80.7068C28.3239 80.7993 28.3759 80.9247 28.3759 81.0554C28.3354 81.5122 28.476 81.9666 28.7674 82.3206C29.0588 82.6747 29.4776 82.9002 29.9336 82.9484C30.3901 82.9001 30.8096 82.6749 31.102 82.3211C31.3944 81.9672 31.5366 81.5128 31.4979 81.0554C31.4979 80.9247 31.5499 80.7993 31.6423 80.7068C31.7348 80.6144 31.8601 80.5624 31.9909 80.5624C32.1216 80.5624 32.247 80.6144 32.3395 80.7068C32.4319 80.7993 32.4838 80.9247 32.4838 81.0554C32.4452 81.5128 32.5873 81.9672 32.8798 82.3211C33.1722 82.6749 33.5916 82.9001 34.0482 82.9484C34.5042 82.9002 34.923 82.6747 35.2144 82.3206C35.5058 81.9666 35.6464 81.5122 35.6059 81.0554C35.6059 80.9247 35.6578 80.7993 35.7503 80.7068C35.8427 80.6144 35.9681 80.5624 36.0989 80.5624C36.2296 80.5624 36.355 80.6144 36.4474 80.7068C36.5399 80.7993 36.5918 80.9247 36.5918 81.0554C36.5532 81.5128 36.6953 81.9672 36.9877 82.3211C37.2802 82.6749 37.6996 82.9001 38.1561 82.9484Z" fill="#111111"/>
</g>
</g>
<g id="Size=20px, Filled=true">
<g id="Vector_10">
<path d="M69.6952 83.9178C69.2255 83.9105 68.7638 83.7948 68.3462 83.5796C67.9286 83.3644 67.5664 83.0555 67.2879 82.6772C67.2688 82.6517 67.244 82.631 67.2155 82.6168C67.1869 82.6025 67.1555 82.5951 67.1236 82.5951C67.0917 82.5951 67.0603 82.6025 67.0317 82.6168C67.0032 82.631 66.9784 82.6517 66.9593 82.6772C66.6866 83.0605 66.3261 83.3729 65.9081 83.5885C65.49 83.8041 65.0265 83.9166 64.5561 83.9166C64.0857 83.9166 63.6222 83.8041 63.2041 83.5885C62.7861 83.3729 62.4257 83.0605 62.1529 82.6772C62.1338 82.6517 62.109 82.631 62.0805 82.6168C62.052 82.6025 62.0205 82.5951 61.9886 82.5951C61.9567 82.5951 61.9253 82.6025 61.8968 82.6168C61.8682 82.631 61.8434 82.6517 61.8243 82.6772C61.5458 83.0555 61.1836 83.3644 60.766 83.5796C60.3484 83.7948 59.8867 83.9105 59.417 83.9178C58.9477 83.9087 58.4866 83.7921 58.0693 83.577C57.652 83.362 57.2896 83.0542 57.0097 82.6772C56.9919 82.6524 56.9685 82.632 56.9414 82.6177C56.9143 82.6035 56.8843 82.5957 56.8536 82.5951C56.8219 82.5957 56.7906 82.6034 56.7622 82.6176C56.7338 82.6318 56.7089 82.6522 56.6893 82.6772C56.4108 83.0555 56.0486 83.3644 55.631 83.5796C55.2134 83.7948 54.7518 83.9105 54.282 83.9178H53.9698C53.9405 83.9137 53.9107 83.916 53.8823 83.9245C53.8539 83.933 53.8277 83.9476 53.8055 83.9671C53.7845 83.9873 53.7678 84.0115 53.7565 84.0384C53.7452 84.0652 53.7395 84.0941 53.7398 84.1232V91.5176C53.7398 91.8445 53.8696 92.1579 54.1008 92.389C54.3319 92.6202 54.6453 92.75 54.9722 92.75H68.9393C69.2662 92.75 69.5796 92.6202 69.8108 92.389C70.0419 92.1579 70.1717 91.8445 70.1717 91.5176V84.1232C70.1714 84.0954 70.1653 84.068 70.154 84.0425C70.1427 84.0171 70.1264 83.9943 70.106 83.9754C70.0851 83.9558 70.0606 83.9407 70.0338 83.9308C70.007 83.9209 69.9784 83.9165 69.9499 83.9178H69.6952ZM64.4534 86.4648C64.4555 86.4238 64.4657 86.3836 64.4834 86.3465C64.501 86.3094 64.5258 86.2762 64.5564 86.2487C64.5869 86.2212 64.6225 86.2 64.6613 86.1864C64.7 86.1727 64.741 86.1668 64.782 86.169H67.4029C67.4446 86.1657 67.4865 86.1707 67.5262 86.1839C67.5659 86.197 67.6025 86.218 67.634 86.2456C67.6654 86.2732 67.6909 86.3068 67.7091 86.3445C67.7273 86.3821 67.7377 86.423 67.7398 86.4648V90.6878C67.7398 90.7967 67.6965 90.9012 67.6195 90.9783C67.5424 91.0553 67.4379 91.0986 67.329 91.0986H64.8642C64.7553 91.0986 64.6508 91.0553 64.5737 90.9783C64.4967 90.9012 64.4534 90.7967 64.4534 90.6878V86.4648ZM56.6482 86.4648C56.6503 86.427 56.6599 86.39 56.6763 86.3559C56.6927 86.3218 56.7157 86.2913 56.744 86.2661C56.7722 86.2409 56.8051 86.2216 56.8409 86.2091C56.8766 86.1967 56.9145 86.1914 56.9522 86.1937H61.2656C61.3414 86.1913 61.4152 86.2181 61.4717 86.2686C61.5283 86.319 61.5633 86.3893 61.5696 86.4648V89.2089C61.5633 89.2845 61.5283 89.3547 61.4717 89.4052C61.4152 89.4556 61.3414 89.4824 61.2656 89.48H56.9194C56.8816 89.4823 56.8438 89.477 56.808 89.4646C56.7723 89.4521 56.7393 89.4328 56.7111 89.4076C56.6829 89.3824 56.6599 89.3519 56.6434 89.3178C56.627 89.2837 56.6175 89.2467 56.6154 89.2089L56.6482 86.4648Z" fill="#111111"/>
<path d="M69.6952 82.6854C70.1258 82.6583 70.5363 82.4936 70.8662 82.2155C71.196 81.9374 71.4278 81.5607 71.5274 81.1408C71.6422 80.7744 71.6422 80.3817 71.5274 80.0153L70.0403 75.5211C69.9828 75.365 69.8677 75.25 69.7527 75.25H54.2245C54.1095 75.25 53.9945 75.365 53.937 75.5211L52.4581 80.0153C52.3473 80.3823 52.3473 80.7738 52.4581 81.1408C52.5572 81.5594 52.7878 81.9352 53.116 82.2132C53.4442 82.4911 53.8529 82.6566 54.282 82.6854C54.8527 82.6252 55.377 82.3437 55.7426 81.9013C56.1081 81.459 56.2858 80.891 56.2374 80.3192C56.2374 80.1558 56.3024 79.9991 56.4179 79.8835C56.5335 79.768 56.6902 79.7031 56.8536 79.7031C57.0171 79.7031 57.1738 79.768 57.2894 79.8835C57.4049 79.9991 57.4698 80.1558 57.4698 80.3192C57.4193 80.8902 57.595 81.4582 57.9592 81.9008C58.3235 82.3434 58.847 82.6252 59.417 82.6854C59.9877 82.6252 60.512 82.3437 60.8775 81.9013C61.2431 81.459 61.4207 80.891 61.3724 80.3192C61.3724 80.1558 61.4373 79.9991 61.5529 79.8835C61.6685 79.768 61.8252 79.7031 61.9886 79.7031C62.152 79.7031 62.3088 79.768 62.4243 79.8835C62.5399 79.9991 62.6048 80.1558 62.6048 80.3192C62.5565 80.891 62.7342 81.459 63.0997 81.9013C63.4653 82.3437 63.9896 82.6252 64.5602 82.6854C65.1302 82.6252 65.6538 82.3434 66.018 81.9008C66.3822 81.4582 66.558 80.8902 66.5074 80.3192C66.5074 80.1558 66.5723 79.9991 66.6879 79.8835C66.8034 79.768 66.9602 79.7031 67.1236 79.7031C67.287 79.7031 67.4438 79.768 67.5593 79.8835C67.6749 79.9991 67.7398 80.1558 67.7398 80.3192C67.6915 80.891 67.8692 81.459 68.2347 81.9013C68.6002 82.3437 69.1245 82.6252 69.6952 82.6854Z" fill="#111111"/>
</g>
</g>
<g id="Size=24px, Filled=true">
<g id="Vector_11">
<path d="M105.234 83.9014C104.671 83.8926 104.117 83.7537 103.615 83.4955C103.114 83.2372 102.68 82.8666 102.346 82.4127C102.323 82.3821 102.293 82.3572 102.259 82.3401C102.224 82.323 102.187 82.3141 102.148 82.3141C102.11 82.3141 102.072 82.323 102.038 82.3401C102.004 82.3572 101.974 82.3821 101.951 82.4127C101.624 82.8726 101.191 83.2475 100.69 83.5062C100.188 83.765 99.6318 83.9 99.0673 83.9C98.5029 83.9 97.9466 83.765 97.445 83.5062C96.9433 83.2475 96.5108 82.8726 96.1835 82.4127C96.1606 82.3821 96.1308 82.3572 96.0966 82.3401C96.0624 82.323 96.0246 82.3141 95.9864 82.3141C95.9481 82.3141 95.9104 82.323 95.8761 82.3401C95.8419 82.3572 95.8121 82.3821 95.7892 82.4127C95.455 82.8666 95.0203 83.2372 94.5192 83.4955C94.0181 83.7537 93.4641 83.8926 92.9004 83.9014C92.3372 83.8904 91.784 83.7505 91.2832 83.4924C90.7825 83.2344 90.3475 82.865 90.0117 82.4127C89.9903 82.3828 89.9622 82.3584 89.9297 82.3413C89.8972 82.3242 89.8611 82.3148 89.8244 82.3141C89.7863 82.3148 89.7488 82.324 89.7147 82.3411C89.6805 82.3582 89.6507 82.3826 89.6272 82.4127C89.293 82.8666 88.8584 83.2372 88.3573 83.4955C87.8561 83.7537 87.3021 83.8926 86.7385 83.9014H86.3638C86.3286 83.8965 86.2928 83.8992 86.2588 83.9094C86.2247 83.9196 86.1933 83.9371 86.1666 83.9606C86.1414 83.9848 86.1214 84.0139 86.1078 84.0461C86.0943 84.0783 86.0874 84.1129 86.0878 84.1479V93.0211C86.0878 93.4133 86.2436 93.7895 86.5209 94.0668C86.7983 94.3442 87.1744 94.5 87.5666 94.5H104.327C104.719 94.5 105.096 94.3442 105.373 94.0668C105.65 93.7895 105.806 93.4133 105.806 93.0211V84.1479C105.806 84.1145 105.798 84.0816 105.785 84.0511C105.771 84.0206 105.752 83.9931 105.727 83.9704C105.702 83.947 105.673 83.9288 105.641 83.9169C105.608 83.9051 105.574 83.8998 105.54 83.9014H105.234ZM98.9441 86.9577C98.9466 86.9085 98.9588 86.8603 98.98 86.8158C99.0012 86.7713 99.031 86.7314 99.0676 86.6984C99.1043 86.6655 99.1471 86.6401 99.1935 86.6236C99.24 86.6072 99.2893 86.6002 99.3385 86.6028H102.484C102.534 86.5988 102.584 86.6049 102.631 86.6206C102.679 86.6364 102.723 86.6616 102.761 86.6947C102.798 86.7278 102.829 86.7682 102.851 86.8134C102.873 86.8585 102.885 86.9076 102.888 86.9577V92.0254C102.888 92.1561 102.836 92.2815 102.743 92.3739C102.651 92.4664 102.526 92.5183 102.395 92.5183H99.4371C99.3063 92.5183 99.1809 92.4664 99.0885 92.3739C98.996 92.2815 98.9441 92.1561 98.9441 92.0254V86.9577ZM89.5779 86.9577C89.5804 86.9124 89.5919 86.868 89.6116 86.8271C89.6313 86.7862 89.6589 86.7496 89.6928 86.7193C89.7267 86.6891 89.7662 86.6659 89.8091 86.651C89.852 86.636 89.8974 86.6297 89.9427 86.6324H95.1188C95.2097 86.6296 95.2982 86.6617 95.3661 86.7223C95.434 86.7828 95.476 86.8671 95.4835 86.9577V90.2507C95.476 90.3413 95.434 90.4256 95.3661 90.4862C95.2982 90.5467 95.2097 90.5789 95.1188 90.5761H89.9033C89.8579 90.5787 89.8125 90.5724 89.7696 90.5575C89.7267 90.5426 89.6872 90.5193 89.6533 90.4891C89.6194 90.4589 89.5918 90.4223 89.5721 90.3814C89.5524 90.3404 89.541 90.296 89.5385 90.2507L89.5779 86.9577Z" fill="#111111"/>
<path d="M105.234 82.4225C105.751 82.39 106.244 82.1923 106.639 81.8586C107.035 81.5249 107.313 81.0728 107.433 80.569C107.571 80.1293 107.571 79.658 107.433 79.2183L105.648 73.8254C105.579 73.638 105.441 73.5 105.303 73.5H86.6695C86.5314 73.5 86.3934 73.638 86.3244 73.8254L84.5497 79.2183C84.4168 79.6587 84.4168 80.1286 84.5497 80.569C84.6687 81.0713 84.9453 81.5222 85.3392 81.8558C85.7331 82.1893 86.2235 82.388 86.7385 82.4225C87.4233 82.3502 88.0524 82.0124 88.4911 81.4816C88.9297 80.9508 89.1429 80.2692 89.085 79.5831C89.085 79.387 89.1629 79.1989 89.3015 79.0602C89.4402 78.9216 89.6283 78.8437 89.8244 78.8437C90.0205 78.8437 90.2086 78.9216 90.3472 79.0602C90.4859 79.1989 90.5638 79.387 90.5638 79.5831C90.5031 80.2683 90.714 80.9498 91.1511 81.481C91.5882 82.0121 92.2164 82.3502 92.9004 82.4225C93.5852 82.3502 94.2144 82.0124 94.653 81.4816C95.0917 80.9508 95.3049 80.2692 95.2469 79.5831C95.2469 79.387 95.3248 79.1989 95.4635 79.0602C95.6022 78.9216 95.7902 78.8437 95.9864 78.8437C96.1825 78.8437 96.3705 78.9216 96.5092 79.0602C96.6479 79.1989 96.7258 79.387 96.7258 79.5831C96.6678 80.2692 96.881 80.9508 97.3197 81.4816C97.7583 82.0124 98.3875 82.3502 99.0723 82.4225C99.7563 82.3502 100.385 82.0121 100.822 81.481C101.259 80.9498 101.47 80.2683 101.409 79.5831C101.409 79.387 101.487 79.1989 101.625 79.0602C101.764 78.9216 101.952 78.8437 102.148 78.8437C102.344 78.8437 102.533 78.9216 102.671 79.0602C102.81 79.1989 102.888 79.387 102.888 79.5831C102.83 80.2692 103.043 80.9508 103.482 81.4816C103.92 82.0124 104.549 82.3502 105.234 82.4225Z" fill="#111111"/>
</g>
</g>
<g id="Size=32px, Filled=true">
<g id="Vector_12">
<path d="M148.312 83.8685C147.561 83.8569 146.822 83.6716 146.154 83.3273C145.486 82.983 144.906 82.4889 144.461 81.8836C144.43 81.8428 144.39 81.8096 144.345 81.7868C144.299 81.764 144.249 81.7521 144.198 81.7521C144.147 81.7521 144.096 81.764 144.051 81.7868C144.005 81.8096 143.965 81.8428 143.935 81.8836C143.499 82.4968 142.922 82.9967 142.253 83.3417C141.584 83.6866 140.842 83.8666 140.09 83.8666C139.337 83.8666 138.595 83.6866 137.927 83.3417C137.258 82.9967 136.681 82.4968 136.245 81.8836C136.214 81.8428 136.174 81.8096 136.129 81.7868C136.083 81.764 136.033 81.7521 135.982 81.7521C135.931 81.7521 135.88 81.764 135.835 81.7868C135.789 81.8096 135.75 81.8428 135.719 81.8836C135.273 82.4889 134.694 82.983 134.026 83.3273C133.357 83.6716 132.619 83.8569 131.867 83.8685C131.116 83.8539 130.379 83.6674 129.711 83.3233C129.043 82.9792 128.463 82.4867 128.016 81.8836C127.987 81.8438 127.95 81.8112 127.906 81.7884C127.863 81.7655 127.815 81.7531 127.766 81.7521C127.715 81.7531 127.665 81.7654 127.62 81.7881C127.574 81.8109 127.534 81.8435 127.503 81.8836C127.057 82.4889 126.478 82.983 125.81 83.3273C125.142 83.6716 124.403 83.8569 123.651 83.8685H123.152C123.105 83.862 123.057 83.8656 123.012 83.8792C122.966 83.8928 122.924 83.9161 122.889 83.9474C122.855 83.9797 122.829 84.0185 122.81 84.0614C122.792 84.1044 122.783 84.1506 122.784 84.1972V96.0282C122.784 96.5511 122.991 97.0527 123.361 97.4225C123.731 97.7923 124.233 98 124.756 98H147.103C147.626 98 148.127 97.7923 148.497 97.4225C148.867 97.0527 149.075 96.5511 149.075 96.0282V84.1972C149.074 84.1527 149.065 84.1088 149.046 84.0681C149.028 84.0274 149.002 83.9908 148.97 83.9606C148.936 83.9293 148.897 83.905 148.854 83.8892C148.811 83.8734 148.765 83.8664 148.72 83.8685H148.312ZM139.925 87.9437C139.929 87.878 139.945 87.8137 139.973 87.7544C140.002 87.6951 140.041 87.6419 140.09 87.5979C140.139 87.554 140.196 87.5201 140.258 87.4982C140.32 87.4763 140.386 87.4669 140.451 87.4704H144.645C144.711 87.4651 144.778 87.4731 144.842 87.4942C144.905 87.5152 144.964 87.5488 145.014 87.593C145.065 87.6371 145.106 87.6909 145.135 87.7511C145.164 87.8114 145.18 87.8768 145.184 87.9437V94.7005C145.184 94.8748 145.114 95.042 144.991 95.1652C144.868 95.2885 144.701 95.3577 144.526 95.3577H140.583C140.408 95.3577 140.241 95.2885 140.118 95.1652C139.995 95.042 139.925 94.8748 139.925 94.7005V87.9437ZM127.437 87.9437C127.441 87.8832 127.456 87.824 127.482 87.7695C127.508 87.7149 127.545 87.6661 127.59 87.6258C127.636 87.5855 127.688 87.5545 127.745 87.5346C127.803 87.5147 127.863 87.5063 127.924 87.5099H134.825C134.946 87.5061 135.064 87.549 135.155 87.6297C135.245 87.7104 135.301 87.8228 135.311 87.9437V92.3343C135.301 92.4551 135.245 92.5675 135.155 92.6482C135.064 92.729 134.946 92.7719 134.825 92.7681H127.871C127.811 92.7716 127.75 92.7632 127.693 92.7433C127.636 92.7234 127.583 92.6924 127.538 92.6521C127.493 92.6118 127.456 92.563 127.43 92.5085C127.403 92.4539 127.388 92.3947 127.385 92.3343L127.437 87.9437Z" fill="#111111"/>
<path d="M148.312 81.8967C149.001 81.8533 149.658 81.5897 150.186 81.1448C150.714 80.6998 151.085 80.0971 151.244 79.4254C151.428 78.8391 151.428 78.2107 151.244 77.6244L148.864 70.4338C148.772 70.184 148.588 70 148.404 70H123.559C123.375 70 123.191 70.184 123.099 70.4338L120.733 77.6244C120.556 78.2116 120.556 78.8381 120.733 79.4254C120.892 80.095 121.26 80.6963 121.786 81.1411C122.311 81.5858 122.965 81.8506 123.651 81.8967C124.564 81.8003 125.403 81.3499 125.988 80.6421C126.573 79.9344 126.857 79.0257 126.78 78.1108C126.78 77.8493 126.884 77.5985 127.069 77.4137C127.254 77.2288 127.504 77.1249 127.766 77.1249C128.027 77.1249 128.278 77.2288 128.463 77.4137C128.648 77.5985 128.752 77.8493 128.752 78.1108C128.671 79.0243 128.952 79.9331 129.535 80.6413C130.118 81.3494 130.955 81.8003 131.867 81.8967C132.78 81.8003 133.619 81.3499 134.204 80.6421C134.789 79.9344 135.073 79.0257 134.996 78.1108C134.996 77.8493 135.1 77.5985 135.285 77.4137C135.47 77.2288 135.72 77.1249 135.982 77.1249C136.243 77.1249 136.494 77.2288 136.679 77.4137C136.864 77.5985 136.968 77.8493 136.968 78.1108C136.89 79.0257 137.175 79.9344 137.76 80.6421C138.344 81.3499 139.183 81.8003 140.096 81.8967C141.008 81.8003 141.846 81.3494 142.429 80.6413C143.012 79.9331 143.293 79.0243 143.212 78.1108C143.212 77.8493 143.316 77.5985 143.501 77.4137C143.686 77.2288 143.936 77.1249 144.198 77.1249C144.459 77.1249 144.71 77.2288 144.895 77.4137C145.08 77.5985 145.184 77.8493 145.184 78.1108C145.106 79.0257 145.391 79.9344 145.976 80.6421C146.56 81.3499 147.399 81.8003 148.312 81.8967Z" fill="#111111"/>
</g>
</g>
<g id="Size=40px, Filled=true">
<g id="Vector_13">
<path d="M199.39 83.8357C198.451 83.8211 197.528 83.5895 196.692 83.1591C195.857 82.7287 195.133 82.1111 194.576 81.3545C194.538 81.3034 194.488 81.262 194.431 81.2335C194.374 81.205 194.311 81.1901 194.247 81.1901C194.183 81.1901 194.121 81.205 194.063 81.2335C194.006 81.262 193.957 81.3034 193.919 81.3545C193.373 82.1209 192.652 82.7459 191.816 83.1771C190.98 83.6083 190.053 83.8333 189.112 83.8333C188.171 83.8333 187.244 83.6083 186.408 83.1771C185.572 82.7459 184.851 82.1209 184.306 81.3545C184.268 81.3034 184.218 81.262 184.161 81.2335C184.104 81.205 184.041 81.1901 183.977 81.1901C183.913 81.1901 183.851 81.205 183.794 81.2335C183.736 81.262 183.687 81.3034 183.649 81.3545C183.092 82.1111 182.367 82.7287 181.532 83.1591C180.697 83.5895 179.773 83.8211 178.834 83.8357C177.895 83.8174 176.973 83.5842 176.139 83.1541C175.304 82.724 174.579 82.1083 174.019 81.3545C173.984 81.3047 173.937 81.264 173.883 81.2354C173.829 81.2069 173.769 81.1914 173.707 81.1901C173.644 81.1914 173.581 81.2067 173.524 81.2352C173.468 81.2636 173.418 81.3043 173.379 81.3545C172.822 82.1111 172.097 82.7287 171.262 83.1591C170.427 83.5895 169.504 83.8211 168.564 83.8357H167.94C167.881 83.8275 167.821 83.832 167.765 83.849C167.708 83.866 167.655 83.8951 167.611 83.9343C167.569 83.9746 167.536 84.0231 167.513 84.0768C167.49 84.1305 167.479 84.1882 167.48 84.2465V99.0352C167.48 99.6889 167.739 100.316 168.202 100.778C168.664 101.24 169.291 101.5 169.944 101.5H197.879C198.532 101.5 199.159 101.24 199.622 100.778C200.084 100.316 200.343 99.6889 200.343 99.0352V84.2465C200.343 84.1908 200.331 84.1359 200.308 84.0851C200.285 84.0343 200.253 83.9885 200.212 83.9507C200.17 83.9116 200.121 83.8813 200.068 83.8615C200.014 83.8418 199.957 83.833 199.9 83.8357H199.39ZM188.907 88.9296C188.911 88.8475 188.931 88.7671 188.967 88.693C189.002 88.6188 189.052 88.5524 189.113 88.4974C189.174 88.4425 189.245 88.4001 189.323 88.3727C189.4 88.3454 189.482 88.3336 189.564 88.338H194.806C194.889 88.3313 194.973 88.3414 195.052 88.3677C195.132 88.3941 195.205 88.436 195.268 88.4912C195.331 88.5464 195.382 88.6136 195.418 88.6889C195.455 88.7642 195.475 88.8461 195.48 88.9296V97.3756C195.48 97.5935 195.393 97.8025 195.239 97.9565C195.085 98.1106 194.876 98.1972 194.658 98.1972H189.728C189.511 98.1972 189.302 98.1106 189.147 97.9565C188.993 97.8025 188.907 97.5935 188.907 97.3756V88.9296ZM173.296 88.9296C173.301 88.854 173.32 88.78 173.353 88.7118C173.385 88.6436 173.431 88.5826 173.488 88.5322C173.544 88.4819 173.61 88.4431 173.682 88.4183C173.753 88.3934 173.829 88.3829 173.904 88.3873H182.531C182.683 88.3826 182.83 88.4362 182.943 88.5371C183.057 88.638 183.127 88.7785 183.139 88.9296V94.4178C183.127 94.5689 183.057 94.7094 182.943 94.8103C182.83 94.9112 182.683 94.9648 182.531 94.9601H173.839C173.763 94.9645 173.688 94.954 173.616 94.9291C173.545 94.9043 173.479 94.8655 173.422 94.8152C173.366 94.7648 173.32 94.7038 173.287 94.6356C173.254 94.5674 173.235 94.4934 173.231 94.4178L173.296 88.9296Z" fill="#111111"/>
<path d="M199.39 81.3709C200.252 81.3167 201.073 80.9872 201.732 80.431C202.392 79.8748 202.856 79.1213 203.055 78.2817C203.284 77.5489 203.284 76.7633 203.055 76.0305L200.081 67.0423C199.966 66.73 199.735 66.5 199.505 66.5H168.449C168.219 66.5 167.989 66.73 167.874 67.0423L164.916 76.0305C164.695 76.7645 164.695 77.5477 164.916 78.2817C165.114 79.1188 165.576 79.8704 166.232 80.4263C166.888 80.9822 167.706 81.3133 168.564 81.3709C169.705 81.2503 170.754 80.6873 171.485 79.8027C172.216 78.918 172.572 77.7821 172.475 76.6385C172.475 76.3116 172.605 75.9982 172.836 75.7671C173.067 75.5359 173.38 75.4061 173.707 75.4061C174.034 75.4061 174.348 75.5359 174.579 75.7671C174.81 75.9982 174.94 76.3116 174.94 76.6385C174.839 77.7804 175.19 78.9164 175.918 79.8016C176.647 80.6868 177.694 81.2504 178.834 81.3709C179.975 81.2503 181.024 80.6873 181.755 79.8027C182.486 78.918 182.841 77.7821 182.745 76.6385C182.745 76.3116 182.875 75.9982 183.106 75.7671C183.337 75.5359 183.65 75.4061 183.977 75.4061C184.304 75.4061 184.618 75.5359 184.849 75.7671C185.08 75.9982 185.21 76.3116 185.21 76.6385C185.113 77.7821 185.468 78.918 186.199 79.8027C186.931 80.6873 187.979 81.2503 189.12 81.3709C190.26 81.2504 191.308 80.6868 192.036 79.8016C192.764 78.9164 193.116 77.7804 193.015 76.6385C193.015 76.3116 193.145 75.9982 193.376 75.7671C193.607 75.5359 193.92 75.4061 194.247 75.4061C194.574 75.4061 194.888 75.5359 195.119 75.7671C195.35 75.9982 195.48 76.3116 195.48 76.6385C195.383 77.7821 195.738 78.918 196.469 79.8027C197.2 80.6873 198.249 81.2503 199.39 81.3709Z" fill="#111111"/>
</g>
</g>
<g id="Size=48px, Filled=true">
<g id="Vector_14">
<path d="M258.468 83.8028C257.341 83.7853 256.233 83.5074 255.231 82.9909C254.229 82.4745 253.359 81.7333 252.691 80.8254C252.645 80.7641 252.586 80.7144 252.517 80.6802C252.449 80.646 252.373 80.6282 252.297 80.6282C252.22 80.6282 252.145 80.646 252.076 80.6802C252.008 80.7144 251.948 80.7641 251.902 80.8254C251.248 81.7451 250.383 82.495 249.379 83.0125C248.376 83.5299 247.264 83.7999 246.135 83.7999C245.006 83.7999 243.893 83.5299 242.89 83.0125C241.887 82.495 241.022 81.7451 240.367 80.8254C240.321 80.7641 240.262 80.7144 240.193 80.6802C240.125 80.646 240.049 80.6282 239.973 80.6282C239.896 80.6282 239.821 80.646 239.752 80.6802C239.684 80.7144 239.624 80.7641 239.578 80.8254C238.91 81.7333 238.041 82.4745 237.038 82.9909C236.036 83.5074 234.928 83.7853 233.801 83.8028C232.674 83.7808 231.568 83.501 230.566 82.9849C229.565 82.4688 228.695 81.73 228.023 80.8254C227.981 80.7657 227.924 80.7168 227.859 80.6825C227.794 80.6483 227.722 80.6297 227.649 80.6282C227.572 80.6296 227.498 80.6481 227.429 80.6822C227.361 80.7163 227.301 80.7652 227.254 80.8254C226.586 81.7333 225.717 82.4745 224.714 82.9909C223.712 83.5074 222.604 83.7853 221.477 83.8028H220.728C220.657 83.7929 220.586 83.7984 220.517 83.8188C220.449 83.8392 220.387 83.8741 220.333 83.9211C220.283 83.9695 220.243 84.0277 220.216 84.0921C220.189 84.1566 220.175 84.2259 220.176 84.2958V102.042C220.176 102.827 220.487 103.579 221.042 104.134C221.596 104.688 222.349 105 223.133 105H256.654C257.439 105 258.191 104.688 258.746 104.134C259.301 103.579 259.612 102.827 259.612 102.042V84.2958C259.611 84.229 259.597 84.1631 259.57 84.1021C259.543 84.0411 259.503 83.9862 259.454 83.9408C259.404 83.8939 259.345 83.8576 259.281 83.8339C259.217 83.8102 259.148 83.7996 259.08 83.8028H258.468ZM245.888 89.9155C245.893 89.817 245.918 89.7206 245.96 89.6316C246.002 89.5426 246.062 89.4628 246.135 89.3969C246.209 89.3309 246.294 89.2801 246.387 89.2473C246.48 89.2145 246.578 89.2003 246.677 89.2056H252.967C253.067 89.1976 253.168 89.2097 253.263 89.2413C253.358 89.2729 253.446 89.3233 253.522 89.3895C253.597 89.4557 253.658 89.5363 253.702 89.6267C253.746 89.7171 253.771 89.8153 253.776 89.9155V100.051C253.776 100.312 253.672 100.563 253.487 100.748C253.302 100.933 253.051 101.037 252.79 101.037H246.874C246.613 101.037 246.362 100.933 246.177 100.748C245.992 100.563 245.888 100.312 245.888 100.051V89.9155ZM227.156 89.9155C227.161 89.8248 227.184 89.736 227.223 89.6542C227.263 89.5724 227.318 89.4991 227.385 89.4387C227.453 89.3782 227.532 89.3318 227.618 89.3019C227.704 89.2721 227.795 89.2595 227.885 89.2648H238.237C238.419 89.2591 238.596 89.3235 238.732 89.4445C238.868 89.5656 238.952 89.7342 238.967 89.9155V96.5014C238.952 96.6827 238.868 96.8513 238.732 96.9724C238.596 97.0934 238.419 97.1578 238.237 97.1521H227.806C227.716 97.1574 227.625 97.1448 227.539 97.115C227.453 97.0851 227.374 97.0387 227.307 96.9782C227.239 96.9178 227.184 96.8445 227.144 96.7627C227.105 96.6809 227.082 96.5921 227.077 96.5014L227.156 89.9155Z" fill="#111111"/>
<path d="M258.468 80.8451C259.502 80.78 260.487 80.3846 261.279 79.7172C262.07 79.0497 262.627 78.1456 262.866 77.138C263.141 76.2587 263.141 75.316 262.866 74.4366L259.297 63.6507C259.159 63.2761 258.883 63 258.606 63H221.339C221.063 63 220.787 63.2761 220.649 63.6507L217.099 74.4366C216.834 75.3175 216.834 76.2572 217.099 77.138C217.337 78.1425 217.891 79.0445 218.678 79.7116C219.466 80.3787 220.447 80.7759 221.477 80.8451C222.846 80.7004 224.105 80.0248 224.982 78.9632C225.859 77.9016 226.286 76.5385 226.17 75.1662C226.17 74.774 226.326 74.3978 226.603 74.1205C226.88 73.8431 227.257 73.6873 227.649 73.6873C228.041 73.6873 228.417 73.8431 228.694 74.1205C228.972 74.3978 229.128 74.774 229.128 75.1662C229.006 76.5365 229.428 77.8997 230.302 78.9619C231.176 80.0242 232.433 80.7005 233.801 80.8451C235.17 80.7004 236.429 80.0248 237.306 78.9632C238.183 77.9016 238.61 76.5385 238.494 75.1662C238.494 74.774 238.65 74.3978 238.927 74.1205C239.204 73.8431 239.58 73.6873 239.973 73.6873C240.365 73.6873 240.741 73.8431 241.018 74.1205C241.296 74.3978 241.452 74.774 241.452 75.1662C241.336 76.5385 241.762 77.9016 242.639 78.9632C243.517 80.0248 244.775 80.7004 246.145 80.8451C247.513 80.7005 248.769 80.0242 249.643 78.9619C250.517 77.8997 250.939 76.5365 250.818 75.1662C250.818 74.774 250.974 74.3978 251.251 74.1205C251.528 73.8431 251.904 73.6873 252.297 73.6873C252.689 73.6873 253.065 73.8431 253.342 74.1205C253.62 74.3978 253.776 74.774 253.776 75.1662C253.66 76.5385 254.086 77.9016 254.963 78.9632C255.841 80.0248 257.099 80.7004 258.468 80.8451Z" fill="#111111"/>
</g>
</g>
</g>
</g>
<defs>
<clipPath id="clip0_7887_211">
<rect width="264" height="108" rx="5" fill="white"/>
</clipPath>
<clipPath id="clip1_7887_211">
<rect width="12" height="12" fill="white" transform="translate(0 78)"/>
</clipPath>
</defs>
</svg>
