<svg width="264" height="108" viewBox="0 0 264 108" fill="none" xmlns="http://www.w3.org/2000/svg">
<g id="CSV">
<g clip-path="url(#clip0_5428_1040)">
<g id="Size=12px, Filled=false" clip-path="url(#clip1_5428_1040)">
<path id="CSV_2" d="M3.9684 28.036C3.3024 28.036 2.8854 27.595 2.8854 26.893C2.8854 26.2 3.3264 25.744 3.9894 25.744C4.5444 25.744 4.9434 26.062 5.0124 26.56H4.4994C4.4334 26.338 4.2444 26.212 3.9774 26.212C3.6174 26.212 3.3984 26.467 3.3984 26.89C3.3984 27.307 3.6204 27.568 3.9774 27.568C4.2504 27.568 4.4514 27.433 4.5114 27.214H5.0154C4.9374 27.709 4.5234 28.036 3.9684 28.036ZM5.27743 26.425C5.27743 26.023 5.61643 25.738 6.09343 25.738C6.57043 25.738 6.87043 26.002 6.87043 26.422H6.38743C6.38743 26.266 6.27043 26.17 6.08743 26.17C5.88943 26.17 5.76343 26.26 5.76343 26.407C5.76343 26.542 5.83243 26.608 5.98843 26.641L6.32143 26.71C6.71743 26.791 6.90643 26.98 6.90643 27.331C6.90643 27.76 6.57043 28.039 6.06043 28.039C5.56543 28.039 5.24443 27.772 5.24443 27.355H5.72743C5.72743 27.517 5.84743 27.607 6.06343 27.607C6.28243 27.607 6.42043 27.52 6.42043 27.379C6.42043 27.256 6.36343 27.193 6.21643 27.163L5.87743 27.094C5.48143 27.013 5.27743 26.788 5.27743 26.425ZM7.87461 28L7.04361 25.78H7.56261L7.98261 26.902C8.03361 27.04 8.07561 27.178 8.12361 27.37C8.18061 27.157 8.22261 27.034 8.27061 26.902L8.68461 25.78H9.19161L8.37561 28H7.87461Z" fill="#111111"/>
<path id="Vector" d="M6.44995 18.75V22.4886C6.44995 22.9091 6.79086 23.25 7.21137 23.25H10.95M6.78085 18.75H1.84995C1.49097 18.75 1.19995 19.0492 1.19995 19.4182V28.5818C1.19995 28.9508 1.49097 29.25 1.84995 29.25H10.3C10.6589 29.25 10.95 28.9508 10.95 28.5818V23.0357C10.9499 22.8587 10.8815 22.6888 10.7597 22.5636L7.24017 18.9455C7.11832 18.8204 6.9531 18.7501 6.78085 18.75Z" stroke="#111111" stroke-width="0.75" stroke-linecap="round" stroke-linejoin="round"/>
</g>
<g id="Size=16px, Filled=false">
<path id="CSV_3" d="M29.2912 29.048C28.4032 29.048 27.8472 28.46 27.8472 27.524C27.8472 26.6 28.4352 25.992 29.3192 25.992C30.0592 25.992 30.5912 26.416 30.6832 27.08H29.9992C29.9112 26.784 29.6592 26.616 29.3032 26.616C28.8232 26.616 28.5312 26.956 28.5312 27.52C28.5312 28.076 28.8272 28.424 29.3032 28.424C29.6672 28.424 29.9352 28.244 30.0152 27.952H30.6872C30.5832 28.612 30.0312 29.048 29.2912 29.048ZM31.0366 26.9C31.0366 26.364 31.4886 25.984 32.1246 25.984C32.7606 25.984 33.1606 26.336 33.1606 26.896H32.5166C32.5166 26.688 32.3606 26.56 32.1166 26.56C31.8526 26.56 31.6846 26.68 31.6846 26.876C31.6846 27.056 31.7766 27.144 31.9846 27.188L32.4286 27.28C32.9566 27.388 33.2086 27.64 33.2086 28.108C33.2086 28.68 32.7606 29.052 32.0806 29.052C31.4206 29.052 30.9926 28.696 30.9926 28.14H31.6366C31.6366 28.356 31.7966 28.476 32.0846 28.476C32.3766 28.476 32.5606 28.36 32.5606 28.172C32.5606 28.008 32.4846 27.924 32.2886 27.884L31.8366 27.792C31.3086 27.684 31.0366 27.384 31.0366 26.9ZM34.4995 29L33.3915 26.04H34.0835L34.6435 27.536C34.7115 27.72 34.7675 27.904 34.8315 28.16C34.9075 27.876 34.9635 27.712 35.0275 27.536L35.5795 26.04H36.2555L35.1675 29H34.4995Z" fill="#111111"/>
<path id="Vector_2" d="M32.5 17V21.9848C32.5 22.5455 32.9545 23 33.5152 23H38.5M32.9412 17H26.3667C25.888 17 25.5 17.3989 25.5 17.8909V30.1091C25.5 30.6011 25.888 31 26.3667 31H37.6333C38.112 31 38.5 30.6011 38.5 30.1091V22.7143C38.4999 22.4782 38.4087 22.2517 38.2464 22.0847L33.5536 17.2607C33.3912 17.0939 33.1709 17.0001 32.9412 17Z" stroke="#111111" stroke-linecap="round" stroke-linejoin="round"/>
</g>
<g id="Size=20px, Filled=false">
<path id="CSV_4" d="M58.489 30.56C57.379 30.56 56.684 29.825 56.684 28.655C56.684 27.5 57.419 26.74 58.524 26.74C59.449 26.74 60.114 27.27 60.229 28.1H59.374C59.264 27.73 58.949 27.52 58.504 27.52C57.904 27.52 57.539 27.945 57.539 28.65C57.539 29.345 57.909 29.78 58.504 29.78C58.959 29.78 59.294 29.555 59.394 29.19H60.234C60.104 30.015 59.414 30.56 58.489 30.56ZM60.6707 27.875C60.6707 27.205 61.2357 26.73 62.0307 26.73C62.8257 26.73 63.3257 27.17 63.3257 27.87H62.5207C62.5207 27.61 62.3257 27.45 62.0207 27.45C61.6907 27.45 61.4807 27.6 61.4807 27.845C61.4807 28.07 61.5957 28.18 61.8557 28.235L62.4107 28.35C63.0707 28.485 63.3857 28.8 63.3857 29.385C63.3857 30.1 62.8257 30.565 61.9757 30.565C61.1507 30.565 60.6157 30.12 60.6157 29.425H61.4207C61.4207 29.695 61.6207 29.845 61.9807 29.845C62.3457 29.845 62.5757 29.7 62.5757 29.465C62.5757 29.26 62.4807 29.155 62.2357 29.105L61.6707 28.99C61.0107 28.855 60.6707 28.48 60.6707 27.875ZM64.9994 30.5L63.6144 26.8H64.4794L65.1794 28.67C65.2644 28.9 65.3344 29.13 65.4144 29.45C65.5094 29.095 65.5794 28.89 65.6594 28.67L66.3494 26.8H67.1944L65.8344 30.5H64.9994Z" fill="#111111"/>
<path id="Vector_3" d="M62.6 15.25V21.481C62.6 22.1818 63.1682 22.75 63.869 22.75H70.1M63.1515 15.25H54.9333C54.335 15.25 53.85 15.7486 53.85 16.3636V31.6364C53.85 32.2514 54.335 32.75 54.9333 32.75H69.0166C69.6149 32.75 70.1 32.2514 70.1 31.6364V22.3929C70.0999 22.0978 69.9858 21.8147 69.783 21.6059L63.917 15.5759C63.7139 15.3673 63.4386 15.2501 63.1515 15.25Z" stroke="#111111" stroke-width="1.25" stroke-linecap="round" stroke-linejoin="round"/>
</g>
<g id="Size=24px, Filled=false" clip-path="url(#clip2_5428_1040)">
<path id="CSV_5" d="M92.0568 32.072C90.7248 32.072 89.8908 31.19 89.8908 29.786C89.8908 28.4 90.7728 27.488 92.0988 27.488C93.2088 27.488 94.0068 28.124 94.1448 29.12H93.1188C92.9868 28.676 92.6088 28.424 92.0748 28.424C91.3548 28.424 90.9168 28.934 90.9168 29.78C90.9168 30.614 91.3608 31.136 92.0748 31.136C92.6208 31.136 93.0228 30.866 93.1428 30.428H94.1508C93.9948 31.418 93.1668 32.072 92.0568 32.072ZM94.5549 28.85C94.5549 28.046 95.2329 27.476 96.1869 27.476C97.1409 27.476 97.7409 28.004 97.7409 28.844H96.7749C96.7749 28.532 96.5409 28.34 96.1749 28.34C95.7789 28.34 95.5269 28.52 95.5269 28.814C95.5269 29.084 95.6649 29.216 95.9769 29.282L96.6429 29.42C97.4349 29.582 97.8129 29.96 97.8129 30.662C97.8129 31.52 97.1409 32.078 96.1209 32.078C95.1309 32.078 94.4889 31.544 94.4889 30.71H95.4549C95.4549 31.034 95.6949 31.214 96.1269 31.214C96.5649 31.214 96.8409 31.04 96.8409 30.758C96.8409 30.512 96.7269 30.386 96.4329 30.326L95.7549 30.188C94.9629 30.026 94.5549 29.576 94.5549 28.85ZM99.6292 32L97.9672 27.56H99.0052L99.8452 29.804C99.9472 30.08 100.031 30.356 100.127 30.74C100.241 30.314 100.325 30.068 100.421 29.804L101.249 27.56H102.263L100.631 32H99.6292Z" fill="#111111"/>
<path id="Vector_4" d="M97 13V20.4772C97 21.3182 97.6818 22 98.5228 22H106M97.448 13H87.3333C86.597 13 86 13.6268 86 14.4V33.6C86 34.3732 86.597 35 87.3333 35H104.667C105.403 35 106 34.3732 106 33.6V21.9796C106 21.6086 105.86 21.2527 105.61 20.9903L98.3902 13.4097C98.1402 13.1475 97.8013 13.0001 97.448 13Z" stroke="#111111" stroke-width="1.5" stroke-linecap="round" stroke-linejoin="round"/>
</g>
<g id="Size=32px, Filled=false">
<path id="CSV_6" d="M130.921 35.09C129.256 35.09 128.214 33.9875 128.214 32.2325C128.214 30.5 129.316 29.36 130.974 29.36C132.361 29.36 133.359 30.155 133.531 31.4H132.249C132.084 30.845 131.611 30.53 130.944 30.53C130.044 30.53 129.496 31.1675 129.496 32.225C129.496 33.2675 130.051 33.92 130.944 33.92C131.626 33.92 132.129 33.5825 132.279 33.035H133.539C133.344 34.2725 132.309 35.09 130.921 35.09ZM134.194 31.0625C134.194 30.0575 135.041 29.345 136.234 29.345C137.426 29.345 138.176 30.005 138.176 31.055H136.969C136.969 30.665 136.676 30.425 136.219 30.425C135.724 30.425 135.409 30.65 135.409 31.0175C135.409 31.355 135.581 31.52 135.971 31.6025L136.804 31.775C137.794 31.9775 138.266 32.45 138.266 33.3275C138.266 34.4 137.426 35.0975 136.151 35.0975C134.914 35.0975 134.111 34.43 134.111 33.3875H135.319C135.319 33.7925 135.619 34.0175 136.159 34.0175C136.706 34.0175 137.051 33.8 137.051 33.4475C137.051 33.14 136.909 32.9825 136.541 32.9075L135.694 32.735C134.704 32.5325 134.194 31.97 134.194 31.0625ZM140.687 35L138.609 29.45H139.907L140.957 32.255C141.084 32.6 141.189 32.945 141.309 33.425C141.452 32.8925 141.557 32.585 141.677 32.255L142.712 29.45L143.979 29.45L141.939 35H140.687Z" fill="#111111"/>
<path id="Vector_5" d="M137 10V19.9695C137 21.0909 137.909 22 139.03 22H149M137.882 10H124.733C123.776 10 123 10.7978 123 11.7818V36.2182C123 37.2022 123.776 38 124.733 38H147.267C148.224 38 149 37.2022 149 36.2182V21.4286C149 20.9564 148.817 20.5035 148.493 20.1695L139.107 10.5214C138.782 10.1877 138.342 10.0002 137.882 10Z" stroke="#111111" stroke-width="2" stroke-linecap="round" stroke-linejoin="round"/>
</g>
<g id="Size=40px, Filled=false">
<path id="CSV_7" d="M178.155 37.108C176.157 37.108 174.906 35.785 174.906 33.679C174.906 31.6 176.229 30.232 178.218 30.232C179.883 30.232 181.08 31.186 181.287 32.68H179.748C179.55 32.014 178.983 31.636 178.182 31.636C177.102 31.636 176.445 32.401 176.445 33.67C176.445 34.921 177.111 35.704 178.182 35.704C179.001 35.704 179.604 35.299 179.784 34.642H181.296C181.062 36.127 179.82 37.108 178.155 37.108ZM182.082 32.275C182.082 31.069 183.099 30.214 184.53 30.214C185.961 30.214 186.861 31.006 186.861 32.266H185.412C185.412 31.798 185.061 31.51 184.512 31.51C183.918 31.51 183.54 31.78 183.54 32.221C183.54 32.626 183.747 32.824 184.215 32.923L185.214 33.13C186.402 33.373 186.969 33.94 186.969 34.993C186.969 36.28 185.961 37.117 184.431 37.117C182.946 37.117 181.983 36.316 181.983 35.065H183.432C183.432 35.551 183.792 35.821 184.44 35.821C185.097 35.821 185.511 35.56 185.511 35.137C185.511 34.768 185.34 34.579 184.899 34.489L183.882 34.282C182.694 34.039 182.082 33.364 182.082 32.275ZM189.874 37L187.381 30.34H188.938L190.198 33.706C190.351 34.12 190.477 34.534 190.621 35.11C190.792 34.471 190.918 34.102 191.062 33.706L192.304 30.34H193.825L191.377 37H189.874Z" fill="#111111"/>
<path id="Vector_6" d="M185.25 6.5V18.9619C185.25 20.3636 186.386 21.5 187.788 21.5H200.25M186.353 6.5H169.917C168.72 6.5 167.75 7.49721 167.75 8.72728V39.2727C167.75 40.5028 168.72 41.5 169.917 41.5H198.083C199.28 41.5 200.25 40.5028 200.25 39.2727V20.7857C200.25 20.1955 200.022 19.6294 199.616 19.2119L187.884 7.15178C187.478 6.73467 186.927 6.5002 186.353 6.5Z" stroke="#111111" stroke-width="2.5" stroke-linecap="round" stroke-linejoin="round"/>
</g>
<g id="Size=48px, Filled=false">
<path id="CSV_8" d="M232.551 40.132C230.109 40.132 228.58 38.515 228.58 35.941C228.58 33.4 230.197 31.728 232.628 31.728C234.663 31.728 236.126 32.894 236.379 34.72H234.498C234.256 33.906 233.563 33.444 232.584 33.444C231.264 33.444 230.461 34.379 230.461 35.93C230.461 37.459 231.275 38.416 232.584 38.416C233.585 38.416 234.322 37.921 234.542 37.118H236.39C236.104 38.933 234.586 40.132 232.551 40.132ZM237.351 34.225C237.351 32.751 238.594 31.706 240.343 31.706C242.092 31.706 243.192 32.674 243.192 34.214H241.421C241.421 33.642 240.992 33.29 240.321 33.29C239.595 33.29 239.133 33.62 239.133 34.159C239.133 34.654 239.386 34.896 239.958 35.017L241.179 35.27C242.631 35.567 243.324 36.26 243.324 37.547C243.324 39.12 242.092 40.143 240.222 40.143C238.407 40.143 237.23 39.164 237.23 37.635H239.001C239.001 38.229 239.441 38.559 240.233 38.559C241.036 38.559 241.542 38.24 241.542 37.723C241.542 37.272 241.333 37.041 240.794 36.931L239.551 36.678C238.099 36.381 237.351 35.556 237.351 34.225ZM246.874 40L243.827 31.86L245.73 31.86L247.27 35.974C247.457 36.48 247.611 36.986 247.787 37.69C247.996 36.909 248.15 36.458 248.326 35.974L249.844 31.86H251.703L248.711 40H246.874Z" fill="#111111"/>
<path id="Vector_7" d="M241.5 3V17.9543C241.5 19.6364 242.864 21 244.546 21H259.5M242.824 3H223.1C221.664 3 220.5 4.19666 220.5 5.67273V42.3273C220.5 43.8034 221.664 45 223.1 45H256.9C258.336 45 259.5 43.8034 259.5 42.3273V20.1429C259.5 19.4346 259.226 18.7552 258.739 18.2542L244.661 3.78214C244.173 3.28161 243.513 3.00024 242.824 3Z" stroke="#111111" stroke-width="3" stroke-linecap="round" stroke-linejoin="round"/>
</g>
<g id="Size=12px, Filled=true">
<path id="Vector_8" fill-rule="evenodd" clip-rule="evenodd" d="M6.34621 79H2.1C1.76863 79 1.5 79.2849 1.5 79.6364L1.5 88.3636C1.5 88.7151 1.76863 89 2.1 89H9.9C10.2314 89 10.5 88.7151 10.5 88.3636L10.5 83.2857H7.51235C6.86832 83.2857 6.34621 82.747 6.34621 82.0825V79ZM10.2673 82.5714L7.07558 79.1862C7.06366 79.1736 7.05129 79.1616 7.03851 79.1501V82.0825C7.03851 82.3525 7.25067 82.5714 7.51235 82.5714H10.2673ZM5.28704 86.0568C5.28704 85.6725 5.61116 85.4 6.06722 85.4C6.52328 85.4 6.81011 85.6524 6.81011 86.054H6.34831C6.34831 85.9048 6.23645 85.813 6.06148 85.813C5.87217 85.813 5.7517 85.8991 5.7517 86.0396C5.7517 86.1687 5.81767 86.2318 5.96683 86.2634L6.28521 86.3293C6.66383 86.4068 6.84453 86.5875 6.84453 86.9231C6.84453 87.3332 6.52328 87.6 6.03567 87.6C5.56239 87.6 5.25548 87.3447 5.25548 86.946H5.71728C5.71728 87.1009 5.83202 87.187 6.03853 87.187C6.24792 87.187 6.37986 87.1038 6.37986 86.969C6.37986 86.8514 6.32537 86.7911 6.18482 86.7624L5.8607 86.6965C5.48208 86.619 5.28704 86.4039 5.28704 86.0568ZM4.03546 87.5971C3.3987 87.5971 3 87.1755 3 86.5043C3 85.8417 3.42164 85.4057 4.05554 85.4057C4.58618 85.4057 4.96767 85.7098 5.03364 86.1859H4.54315C4.48005 85.9737 4.29935 85.8532 4.04407 85.8532C3.69987 85.8532 3.49048 86.097 3.49048 86.5014C3.49048 86.9001 3.70274 87.1497 4.04407 87.1497C4.30508 87.1497 4.49726 87.0206 4.55463 86.8112H5.03651C4.96193 87.2845 4.5661 87.5971 4.03546 87.5971ZM7.47191 85.4402H6.97569L7.77021 87.5627H8.24922L9.02941 85.4402H8.54466L8.14883 86.5129C8.10294 86.6391 8.06278 86.7567 8.00828 86.9604C7.96239 86.7768 7.92224 86.6448 7.87347 86.5129L7.47191 85.4402Z" fill="#111111"/>
</g>
<g id="Size=16px, Filled=true">
<path id="Vector_9" fill-rule="evenodd" clip-rule="evenodd" d="M32.4616 77.3333H26.8C26.3582 77.3333 26 77.7132 26 78.1818V89.8182C26 90.2868 26.3582 90.6667 26.8 90.6667L37.2 90.6667C37.6418 90.6667 38 90.2868 38 89.8182V83.0476H34.0165C33.1578 83.0476 32.4616 82.3294 32.4616 81.4434V77.3333ZM37.6898 82.0952L33.4341 77.5816C33.4182 77.5648 33.4017 77.5487 33.3847 77.5335V81.4434C33.3847 81.8034 33.6676 82.0952 34.0165 82.0952H37.6898ZM31.0494 86.7425C31.0494 86.23 31.4815 85.8667 32.0896 85.8667C32.6977 85.8667 33.0802 86.2032 33.0802 86.7386H32.4644C32.4644 86.5398 32.3153 86.4174 32.082 86.4174C31.8296 86.4174 31.6689 86.5321 31.6689 86.7195C31.6689 86.8916 31.7569 86.9757 31.9558 87.0178L32.3803 87.1058C32.8851 87.209 33.126 87.45 33.126 87.8974C33.126 88.4443 32.6977 88.8 32.0476 88.8C31.4165 88.8 31.0073 88.4596 31.0073 87.928H31.623C31.623 88.1345 31.776 88.2493 32.0514 88.2493C32.3306 88.2493 32.5065 88.1384 32.5065 87.9586C32.5065 87.8018 32.4338 87.7215 32.2464 87.6833L31.8143 87.5953C31.3094 87.492 31.0494 87.2052 31.0494 86.7425ZM29.3806 88.7962C28.5316 88.7962 28 88.234 28 87.3391C28 86.4556 28.5622 85.8743 29.4074 85.8743C30.1149 85.8743 30.6236 86.2797 30.7115 86.9146H30.0575C29.9734 86.6315 29.7325 86.4709 29.3921 86.4709C28.9332 86.4709 28.654 86.796 28.654 87.3352C28.654 87.8668 28.937 88.1996 29.3921 88.1996C29.7401 88.1996 29.9963 88.0275 30.0728 87.7483H30.7153C30.6159 88.3793 30.0881 88.7962 29.3806 88.7962ZM33.9625 85.9202H33.3009L34.3603 88.7503H34.999L36.0392 85.9202H35.3929L34.8651 87.3505C34.8039 87.5188 34.7504 87.6756 34.6777 87.9471C34.6165 87.7024 34.563 87.5265 34.498 87.3505L33.9625 85.9202Z" fill="#111111"/>
</g>
<g id="Size=20px, Filled=true">
<path id="Vector_10" fill-rule="evenodd" clip-rule="evenodd" d="M62.577 75.6667H55.5C54.9477 75.6667 54.5 76.1415 54.5 76.7273V91.2727C54.5 91.8585 54.9477 92.3333 55.5 92.3333H68.5C69.0523 92.3333 69.5 91.8585 69.5 91.2727V82.8095H64.5206C63.4472 82.8095 62.577 81.9117 62.577 80.8042V75.6667ZM69.1122 81.619L63.7926 75.977C63.7728 75.956 63.7522 75.9359 63.7309 75.9169V80.8042C63.7309 81.2542 64.0844 81.619 64.5206 81.619H69.1122ZM60.8117 87.4281C60.8117 86.7875 61.3519 86.3333 62.112 86.3333C62.8721 86.3333 63.3502 86.754 63.3502 87.4233H62.5805C62.5805 87.1747 62.3941 87.0217 62.1025 87.0217C61.787 87.0217 61.5862 87.1651 61.5862 87.3994C61.5862 87.6145 61.6961 87.7197 61.9447 87.7723L62.4753 87.8822C63.1064 88.0113 63.4076 88.3125 63.4076 88.8718C63.4076 89.5554 62.8721 90 62.0594 90C61.2707 90 60.7591 89.5745 60.7591 88.91H61.5288C61.5288 89.1682 61.72 89.3116 62.0642 89.3116C62.4132 89.3116 62.6331 89.173 62.6331 88.9483C62.6331 88.7523 62.5423 88.6519 62.308 88.6041L61.7678 88.4941C61.1368 88.3651 60.8117 88.0065 60.8117 87.4281ZM58.7258 89.9952C57.6645 89.9952 57 89.2925 57 88.1738C57 87.0695 57.7027 86.3429 58.7592 86.3429C59.6436 86.3429 60.2794 86.8496 60.3894 87.6432H59.5719C59.4668 87.2894 59.1656 87.0887 58.7401 87.0887C58.1664 87.0887 57.8175 87.495 57.8175 88.1691C57.8175 88.8335 58.1712 89.2495 58.7401 89.2495C59.1751 89.2495 59.4954 89.0343 59.591 88.6853H60.3942C60.2699 89.4741 59.6102 89.9952 58.7258 89.9952ZM64.4532 86.4003H63.6262L64.9504 89.9378H65.7487L67.049 86.4003H66.2411L65.5814 88.1882C65.5049 88.3985 65.438 88.5945 65.3471 88.9339C65.2707 88.628 65.2037 88.4081 65.1225 88.1882L64.4532 86.4003Z" fill="#111111"/>
</g>
<g id="Size=24px, Filled=true">
<path id="Vector_11" fill-rule="evenodd" clip-rule="evenodd" d="M96.6924 74H88.2C87.5373 74 87 74.5698 87 75.2727V92.7273C87 93.4302 87.5373 94 88.2 94H103.8C104.463 94 105 93.4302 105 92.7273V82.5714H99.0247C97.7366 82.5714 96.6924 81.494 96.6924 80.1651V74ZM104.535 81.1428L98.1512 74.3724C98.1273 74.3472 98.1026 74.3231 98.077 74.3002V80.1651C98.077 80.7051 98.5013 81.1428 99.0247 81.1428H104.535ZM94.5741 88.1137C94.5741 87.345 95.2223 86.8 96.1344 86.8C97.0466 86.8 97.6202 87.3048 97.6202 88.1079H96.6966C96.6966 87.8096 96.4729 87.6261 96.123 87.6261C95.7443 87.6261 95.5034 87.7982 95.5034 88.0793C95.5034 88.3374 95.6353 88.4636 95.9337 88.5267L96.5704 88.6587C97.3277 88.8135 97.6891 89.175 97.6891 89.8461C97.6891 90.6665 97.0466 91.2 96.0713 91.2C95.1248 91.2 94.511 90.6894 94.511 89.892H95.4346C95.4346 90.2018 95.664 90.3739 96.0771 90.3739C96.4958 90.3739 96.7597 90.2076 96.7597 89.9379C96.7597 89.7027 96.6507 89.5823 96.3696 89.5249L95.7214 89.3929C94.9642 89.2381 94.5741 88.8078 94.5741 88.1137ZM92.0709 91.1943C90.7974 91.1943 90 90.351 90 89.0086C90 87.6834 90.8433 86.8115 92.1111 86.8115C93.1724 86.8115 93.9353 87.4195 94.0673 88.3718H93.0863C92.9601 87.9473 92.5987 87.7064 92.0881 87.7064C91.3997 87.7064 90.981 88.194 90.981 89.0029C90.981 89.8002 91.4055 90.2993 92.0881 90.2993C92.6102 90.2993 92.9945 90.0412 93.1093 89.6224H94.073C93.9239 90.569 93.1322 91.1943 92.0709 91.1943ZM98.9438 86.8803H97.9514L99.5404 91.1254H100.498L102.059 86.8803H101.089L100.298 89.0258C100.206 89.2782 100.126 89.5134 100.017 89.9207C99.9248 89.5536 99.8445 89.2897 99.7469 89.0258L98.9438 86.8803Z" fill="#111111"/>
</g>
<g id="Size=32px, Filled=true">
<path id="Vector_12" fill-rule="evenodd" clip-rule="evenodd" d="M136.923 70.6667H125.6C124.716 70.6667 124 71.4265 124 72.3636V95.6364C124 96.5736 124.716 97.3333 125.6 97.3333L146.4 97.3333C147.284 97.3333 148 96.5736 148 95.6364V82.0952H140.033C138.316 82.0952 136.923 80.6587 136.923 78.8868V70.6667ZM147.38 80.1905L138.868 71.1633C138.836 71.1296 138.803 71.0975 138.769 71.067V78.8868C138.769 79.6068 139.335 80.1905 140.033 80.1905H147.38ZM134.099 89.4849C134.099 88.46 134.963 87.7333 136.179 87.7333C137.395 87.7333 138.16 88.4064 138.16 89.4773H136.929C136.929 89.0795 136.631 88.8348 136.164 88.8348C135.659 88.8348 135.338 89.0642 135.338 89.439C135.338 89.7832 135.514 89.9515 135.912 90.0356L136.761 90.2115C137.77 90.4181 138.252 90.8999 138.252 91.7949C138.252 92.8886 137.395 93.6 136.095 93.6C134.833 93.6 134.015 92.9192 134.015 91.8561H135.246C135.246 92.2691 135.552 92.4986 136.103 92.4986C136.661 92.4986 137.013 92.2767 137.013 91.9172C137.013 91.6036 136.868 91.443 136.493 91.3665L135.629 91.1906C134.619 90.9841 134.099 90.4104 134.099 89.4849ZM130.761 93.5923C129.063 93.5923 128 92.468 128 90.6781C128 88.9112 129.124 87.7486 130.815 87.7486C132.23 87.7486 133.247 88.5594 133.423 89.8291H132.115C131.947 89.2631 131.465 88.9418 130.784 88.9418C129.866 88.9418 129.308 89.592 129.308 90.6705C129.308 91.7337 129.874 92.3991 130.784 92.3991C131.48 92.3991 131.993 92.0549 132.146 91.4966H133.431C133.232 92.7586 132.176 93.5923 130.761 93.5923ZM139.925 87.8404H138.602L140.721 93.5006H141.998L144.078 87.8404H142.786L141.73 90.7011C141.608 91.0376 141.501 91.3512 141.355 91.8943C141.233 91.4048 141.126 91.0529 140.996 90.7011L139.925 87.8404Z" fill="#111111"/>
</g>
<g id="Size=40px, Filled=true">
<path id="Vector_13" fill-rule="evenodd" clip-rule="evenodd" d="M185.154 67.3333H171C169.895 67.3333 169 68.2831 169 69.4545V98.5455C169 99.717 169.895 100.667 171 100.667H197C198.105 100.667 199 99.717 199 98.5455V81.619H189.041C186.894 81.619 185.154 79.8234 185.154 77.6085V67.3333ZM198.224 79.2381L187.585 67.9541C187.546 67.912 187.504 67.8718 187.462 67.8337V77.6085C187.462 78.5084 188.169 79.2381 189.041 79.2381H198.224ZM181.623 90.8561C181.623 89.5749 182.704 88.6666 184.224 88.6666C185.744 88.6666 186.7 89.508 186.7 90.8466H185.161C185.161 90.3494 184.788 90.0434 184.205 90.0434C183.574 90.0434 183.172 90.3303 183.172 90.7988C183.172 91.229 183.392 91.4394 183.889 91.5445L184.951 91.7644C186.213 92.0226 186.815 92.6249 186.815 93.7436C186.815 95.1108 185.744 96 184.119 96C182.541 96 181.518 95.149 181.518 93.8201H183.058C183.058 94.3364 183.44 94.6232 184.128 94.6232C184.826 94.6232 185.266 94.3459 185.266 93.8965C185.266 93.5045 185.085 93.3038 184.616 93.2082L183.536 92.9882C182.274 92.7301 181.623 92.013 181.623 90.8561ZM177.452 95.9904C175.329 95.9904 174 94.5849 174 92.3477C174 90.1391 175.405 88.6858 177.518 88.6858C179.287 88.6858 180.559 89.6992 180.779 91.2864H179.144C178.934 90.5789 178.331 90.1773 177.48 90.1773C176.333 90.1773 175.635 90.99 175.635 92.3381C175.635 93.6671 176.342 94.4989 177.48 94.4989C178.35 94.4989 178.991 94.0686 179.182 93.3707H180.788C180.54 94.9483 179.22 95.9904 177.452 95.9904ZM188.906 88.8005H187.252L189.901 95.8757H191.497L194.098 88.8005H192.482L191.163 92.3763C191.01 92.797 190.876 93.189 190.694 93.8679C190.541 93.256 190.407 92.8161 190.245 92.3763L188.906 88.8005Z" fill="#111111"/>
</g>
<g id="Size=48px, Filled=true">
<path id="Vector_14" fill-rule="evenodd" clip-rule="evenodd" d="M241.385 64H224.4C223.075 64 222 65.1397 222 66.5455V101.455C222 102.86 223.075 104 224.4 104H255.6C256.925 104 258 102.86 258 101.455V81.1428H246.049C243.473 81.1428 241.385 78.9881 241.385 76.3302V64ZM257.069 78.2857L244.302 64.7449C244.255 64.6944 244.205 64.6462 244.154 64.6004V76.3302C244.154 77.4101 245.003 78.2857 246.049 78.2857H257.069ZM237.148 92.2274C237.148 90.6899 238.445 89.6 240.269 89.6C242.093 89.6 243.24 90.6096 243.24 92.2159H241.393C241.393 91.6193 240.946 91.2521 240.246 91.2521C239.489 91.2521 239.007 91.5963 239.007 92.1585C239.007 92.6748 239.271 92.9272 239.867 93.0534L241.141 93.3173C242.655 93.6271 243.378 94.3499 243.378 95.6923C243.378 97.333 242.093 98.4 240.143 98.4C238.25 98.4 237.022 97.3789 237.022 95.7841H238.869C238.869 96.4036 239.328 96.7478 240.154 96.7478C240.992 96.7478 241.519 96.4151 241.519 95.8759C241.519 95.4055 241.301 95.1645 240.739 95.0498L239.443 94.7859C237.928 94.4761 237.148 93.6156 237.148 92.2274ZM232.142 98.3885C229.595 98.3885 228 96.7019 228 94.0172C228 91.3669 229.687 89.6229 232.222 89.6229C234.345 89.6229 235.871 90.8391 236.135 92.7437H234.173C233.92 91.8946 233.197 91.4128 232.176 91.4128C230.799 91.4128 229.962 92.388 229.962 94.0057C229.962 95.6005 230.811 96.5987 232.176 96.5987C233.22 96.5987 233.989 96.0824 234.219 95.2448H236.146C235.848 97.1379 234.264 98.3885 232.142 98.3885ZM245.888 89.7606H243.903L247.081 98.2508H248.997L252.118 89.7606H250.179L248.595 94.0516C248.412 94.5564 248.251 95.0268 248.033 95.8414C247.85 95.1071 247.689 94.5794 247.494 94.0516L245.888 89.7606Z" fill="#111111"/>
</g>
</g>
</g>
<defs>
<clipPath id="clip0_5428_1040">
<rect width="264" height="108" rx="5" fill="white"/>
</clipPath>
<clipPath id="clip1_5428_1040">
<rect width="12" height="12" fill="white" transform="translate(0 18)"/>
</clipPath>
<clipPath id="clip2_5428_1040">
<rect width="24" height="24" fill="white" transform="translate(84 12)"/>
</clipPath>
</defs>
</svg>
