<svg width="268" height="108" viewBox="0 0 268 108" fill="none" xmlns="http://www.w3.org/2000/svg">
<g id="Document">
<g id="Size=12px, Filled=false" clip-path="url(#clip0_2415_961)">
<path id="Vector" d="M6.40002 29.25V25.5114C6.40002 25.0909 6.74093 24.75 7.16145 24.75H10.9M3.40002 21H8.65002M3.40002 22.5H5.65002M6.73092 29.25H1.80002C1.44104 29.25 1.15002 28.9508 1.15002 28.5818V19.4182C1.15002 19.0492 1.44104 18.75 1.80002 18.75H10.25C10.609 18.75 10.9 19.0492 10.9 19.4182V24.9643C10.9 25.1414 10.8315 25.3112 10.7098 25.4364L7.19024 29.0545C7.06839 29.1796 6.90317 29.2499 6.73092 29.25Z" stroke="#111111" stroke-width="0.75" stroke-linecap="round" stroke-linejoin="round"/>
</g>
<g id="Size=16px, Filled=false">
<path id="Vector_2" d="M32.5 31V26.0152C32.5 25.4545 32.9545 25 33.5152 25H38.5M28.5 20H35.5M28.5 22H31.5M32.9412 31H26.3667C25.888 31 25.5 30.6011 25.5 30.1091V17.8909C25.5 17.3989 25.888 17 26.3667 17H37.6333C38.112 17 38.5 17.3989 38.5 17.8909V25.2857C38.4999 25.5218 38.4087 25.7483 38.2464 25.9153L33.5536 30.7393C33.3912 30.9061 33.1709 30.9999 32.9412 31Z" stroke="#111111" stroke-linecap="round" stroke-linejoin="round"/>
</g>
<g id="Size=20px, Filled=false">
<path id="Vector_3" d="M62.6 32.75V26.519C62.6 25.8182 63.1682 25.25 63.869 25.25H70.1M57.6 19H66.35M57.6 21.5H61.35M63.1515 32.75H54.9333C54.335 32.75 53.85 32.2514 53.85 31.6364V16.3636C53.85 15.7486 54.335 15.25 54.9333 15.25H69.0166C69.6149 15.25 70.1 15.7486 70.1 16.3636V25.6071C70.0999 25.9023 69.9858 26.1853 69.783 26.3941L63.917 32.4241C63.7139 32.6327 63.4386 32.7499 63.1515 32.75Z" stroke="#111111" stroke-width="1.25" stroke-linecap="round" stroke-linejoin="round"/>
</g>
<g id="Size=24px, Filled=false">
<path id="Vector_4" d="M97 35V27.5228C97 26.6818 97.6818 26 98.5228 26H106M90 18H102M90 21H96M97.448 35H87.3333C86.597 35 86 34.3732 86 33.6V14.4C86 13.6268 86.597 13 87.3333 13H104.667C105.403 13 106 13.6268 106 14.4V26.0204C106 26.3914 105.86 26.7473 105.61 27.0097L98.3902 34.5903C98.1402 34.8525 97.8013 34.9999 97.448 35Z" stroke="#111111" stroke-width="1.5" stroke-linecap="round" stroke-linejoin="round"/>
</g>
<g id="Size=32px, Filled=false">
<path id="Vector_5" d="M137 38V28.0305C137 26.9091 137.909 26 139.03 26H149M129 16H143M129 20H135M137.882 38H124.733C123.776 38 123 37.2022 123 36.2182V11.7818C123 10.7978 123.776 10 124.733 10H147.267C148.224 10 149 10.7978 149 11.7818V26.5714C149 27.0436 148.817 27.4965 148.493 27.8305L139.107 37.4786C138.782 37.8123 138.342 37.9998 137.882 38Z" stroke="#111111" stroke-width="2" stroke-linecap="round" stroke-linejoin="round"/>
</g>
<g id="Size=40px, Filled=false">
<path id="Vector_6" d="M185.25 41.5V29.0381C185.25 27.6364 186.386 26.5 187.788 26.5H200.25M175.25 14H192.75M175.25 19H182.75M186.353 41.5H169.917C168.72 41.5 167.75 40.5028 167.75 39.2727V8.72727C167.75 7.49719 168.72 6.5 169.917 6.5H198.083C199.28 6.5 200.25 7.49719 200.25 8.72727V27.2143C200.25 27.8045 200.022 28.3706 199.616 28.7881L187.884 40.8482C187.478 41.2653 186.927 41.4998 186.353 41.5Z" stroke="#111111" stroke-width="2.5" stroke-linecap="round" stroke-linejoin="round"/>
</g>
<g id="Size=48px, Filled=false">
<path id="Vector_7" d="M241.5 45V30.0457C241.5 28.3636 242.864 27 244.546 27H259.5M229.5 12H250.5M229.5 18H238.5M242.824 45H223.1C221.664 45 220.5 43.8033 220.5 42.3273V5.67273C220.5 4.19663 221.664 3 223.1 3H256.9C258.336 3 259.5 4.19663 259.5 5.67273V27.8571C259.5 28.5654 259.226 29.2448 258.739 29.7458L244.661 44.2179C244.173 44.7184 243.513 44.9998 242.824 45Z" stroke="#111111" stroke-width="3" stroke-linecap="round" stroke-linejoin="round"/>
</g>
<g id="Size=12px, Filled=true">
<g id="Vector_8">
<path d="M7.0125 86.6103C7.01309 86.1351 7.19108 85.6796 7.50741 85.3437C7.82375 85.0077 8.25263 84.8186 8.7 84.818H10.5V79.4779C10.5 79.3512 10.4526 79.2296 10.3682 79.14C10.2838 79.0504 10.1693 79 10.05 79H1.95C1.83065 79 1.71619 79.0504 1.6318 79.14C1.54741 79.2296 1.5 79.3512 1.5 79.4779V88.5221C1.5 88.6488 1.54741 88.7704 1.6318 88.86C1.71619 88.9496 1.83065 89 1.95 89H7.0125V86.6103ZM3.16154 80.7647H8.56154V81.4706H3.16154V80.7647ZM3.16154 82.3529H6.06923V83.0588H3.16154V82.3529Z" fill="#111111"/>
<path d="M8.7 85.5349C8.43158 85.5353 8.17425 85.6487 7.98445 85.8503C7.79465 86.0519 7.68786 86.3252 7.6875 86.6103V89H7.8C7.866 89.0001 7.93121 88.9848 7.99101 88.9551C8.05082 88.9255 8.10374 88.8822 8.14605 88.8284L10.396 85.9608C10.4632 85.8746 10.5 85.7663 10.5 85.6544V85.5349H8.7Z" fill="#111111"/>
</g>
</g>
<g id="Size=16px, Filled=true">
<g id="Vector_9">
<path d="M33.35 87.4804C33.3508 86.8468 33.5881 86.2395 34.0099 85.7915C34.4317 85.3435 35.0035 85.0915 35.6 85.0907H38V77.9706C38 77.8016 37.9368 77.6395 37.8243 77.52C37.7117 77.4005 37.5591 77.3333 37.4 77.3333H26.6C26.4409 77.3333 26.2883 77.4005 26.1757 77.52C26.0632 77.6395 26 77.8016 26 77.9706V90.0294C26 90.1984 26.0632 90.3605 26.1757 90.48C26.2883 90.5995 26.4409 90.6666 26.6 90.6666H33.35V87.4804ZM28.2154 79.6863H35.4154V80.6274H28.2154V79.6863ZM28.2154 81.8039H32.0923V82.7451H28.2154V81.8039Z" fill="#111111"/>
<path d="M35.6 86.0465C35.2421 86.047 34.899 86.1983 34.6459 86.4671C34.3929 86.7358 34.2505 87.1002 34.25 87.4804V90.6666H34.4C34.488 90.6668 34.5749 90.6464 34.6547 90.6068C34.7344 90.5673 34.805 90.5096 34.8614 90.4379L37.8614 86.6143C37.9509 86.4994 37.9999 86.355 38 86.2059V86.0465H35.6Z" fill="#111111"/>
</g>
</g>
<g id="Size=20px, Filled=true">
<g id="Vector_10">
<path d="M63.6875 88.3505C63.6885 87.5586 63.9851 86.7994 64.5124 86.2394C65.0396 85.6795 65.7544 85.3644 66.5 85.3634H69.5V76.4633C69.5 76.252 69.421 76.0494 69.2803 75.9C69.1397 75.7506 68.9489 75.6667 68.75 75.6667H55.25C55.0511 75.6667 54.8603 75.7506 54.7197 75.9C54.579 76.0494 54.5 76.252 54.5 76.4633V91.5368C54.5 91.748 54.579 91.9507 54.7197 92.1C54.8603 92.2494 55.0511 92.3333 55.25 92.3333H63.6875V88.3505ZM57.2692 78.6079H66.2692V79.7843H57.2692V78.6079ZM57.2692 81.2549H62.1154V82.4314H57.2692V81.2549Z" fill="#111111"/>
<path d="M66.5 86.5582C66.0526 86.5589 65.6238 86.7479 65.3074 87.0839C64.9911 87.4198 64.8131 87.8754 64.8125 88.3505V92.3334H65C65.11 92.3335 65.2187 92.308 65.3184 92.2586C65.418 92.2092 65.5062 92.1371 65.5767 92.0474L69.3267 87.268C69.4387 87.1243 69.4999 86.9438 69.5 86.7574V86.5582H66.5Z" fill="#111111"/>
</g>
</g>
<g id="Size=24px, Filled=true">
<g id="Vector_11">
<path d="M98.025 89.2206C98.0262 88.2703 98.3822 87.3593 99.0148 86.6873C99.6475 86.0153 100.505 85.6373 101.4 85.636H105V74.9559C105 74.7024 104.905 74.4592 104.736 74.28C104.568 74.1007 104.339 74 104.1 74H87.9C87.6613 74 87.4324 74.1007 87.2636 74.28C87.0948 74.4592 87 74.7024 87 74.9559V93.0441C87 93.2976 87.0948 93.5408 87.2636 93.72C87.4324 93.8993 87.6613 94 87.9 94H98.025V89.2206ZM90.3231 77.5294H101.123V78.9412H90.3231V77.5294ZM90.3231 80.7059H96.1385V82.1177H90.3231V80.7059Z" fill="#111111"/>
<path d="M101.4 87.0698C100.863 87.0706 100.349 87.2974 99.9689 87.7006C99.5893 88.1038 99.3757 88.6504 99.375 89.2206V94H99.6C99.732 94.0002 99.8624 93.9696 99.982 93.9103C100.102 93.851 100.207 93.7644 100.292 93.6568L104.792 87.9215C104.926 87.7492 105 87.5325 105 87.3088V87.0698H101.4Z" fill="#111111"/>
</g>
</g>
<g id="Size=32px, Filled=true">
<g id="Vector_12">
<path d="M138.7 90.9608C138.702 89.6937 139.176 88.479 140.02 87.5831C140.863 86.6871 142.007 86.1831 143.2 86.1814H148V71.9412C148 71.6032 147.874 71.279 147.649 71.04C147.423 70.801 147.118 70.6667 146.8 70.6667H125.2C124.882 70.6667 124.577 70.801 124.351 71.04C124.126 71.279 124 71.6032 124 71.9412V96.0588C124 96.3969 124.126 96.721 124.351 96.9601C124.577 97.1991 124.882 97.3333 125.2 97.3333H138.7V90.9608ZM128.431 75.3726H142.831V77.2549H128.431V75.3726ZM128.431 79.6079H136.185V81.4902H128.431V79.6079Z" fill="#111111"/>
<path d="M143.2 88.0931C142.484 88.0941 141.798 88.3966 141.292 88.9342C140.786 89.4717 140.501 90.2006 140.5 90.9608V97.3333H140.8C140.976 97.3336 141.15 97.2928 141.309 97.2137C141.469 97.1346 141.61 97.0193 141.723 96.8758L147.723 89.2287C147.902 88.9989 148 88.71 148 88.4118V88.0931H143.2Z" fill="#111111"/>
</g>
</g>
<g id="Size=40px, Filled=true">
<g id="Vector_13">
<path d="M187.375 92.7009C187.377 91.1171 187.97 89.5988 189.025 88.4788C190.079 87.3589 191.509 86.7288 193 86.7267H199V68.9265C199 68.5039 198.842 68.0987 198.561 67.7999C198.279 67.5012 197.898 67.3333 197.5 67.3333H170.5C170.102 67.3333 169.721 67.5012 169.439 67.7999C169.158 68.0987 169 68.5039 169 68.9265V99.0735C169 99.496 169.158 99.9012 169.439 100.2C169.721 100.499 170.102 100.667 170.5 100.667H187.375V92.7009ZM174.538 73.2157H192.538V75.5686H174.538V73.2157ZM174.538 78.5098H184.231V80.8627H174.538V78.5098Z" fill="#111111"/>
<path d="M193 89.1164C192.105 89.1176 191.248 89.4957 190.615 90.1677C189.982 90.8396 189.626 91.7506 189.625 92.7009V100.667H190C190.22 100.667 190.437 100.616 190.637 100.517C190.836 100.418 191.012 100.274 191.153 100.095L198.653 90.5359C198.877 90.2486 199 89.8875 199 89.5147V89.1164H193Z" fill="#111111"/>
</g>
</g>
<g id="Size=48px, Filled=true">
<g id="Vector_14">
<path d="M244.05 94.4412C244.052 92.5406 244.764 90.7185 246.03 89.3746C247.295 88.0307 249.011 87.2746 250.8 87.272H258V65.9118C258 65.4047 257.81 64.9185 257.473 64.5599C257.135 64.2014 256.677 64 256.2 64H223.8C223.323 64 222.865 64.2014 222.527 64.5599C222.19 64.9185 222 65.4047 222 65.9118V102.088C222 102.595 222.19 103.082 222.527 103.44C222.865 103.799 223.323 104 223.8 104H244.05V94.4412ZM228.646 71.0588H250.246V73.8824H228.646V71.0588ZM228.646 77.4118H240.277V80.2353H228.646V77.4118Z" fill="#111111"/>
<path d="M250.8 90.1397C249.726 90.1412 248.697 90.5949 247.938 91.4012C247.179 92.2076 246.751 93.3008 246.75 94.4412V104H247.2C247.464 104 247.725 103.939 247.964 103.821C248.203 103.702 248.415 103.529 248.584 103.314L257.584 91.8431C257.853 91.4984 258 91.065 258 90.6176V90.1397H250.8Z" fill="#111111"/>
</g>
</g>
</g>
<defs>
<clipPath id="clip0_2415_961">
<rect width="12" height="12" fill="white" transform="translate(0 18)"/>
</clipPath>
</defs>
</svg>
