<svg width="265" height="108" viewBox="0 0 265 108" fill="none" xmlns="http://www.w3.org/2000/svg">
<g id="Fire">
<g id="Size=12px, Filled=false">
<path id="Vector" d="M4.4043 18.4355C5.96073 18.8874 7.08906 19.8758 7.81445 20.9951C8.57952 22.1758 8.87972 23.4724 8.78027 24.3857C8.76656 24.5121 8.8175 24.6366 8.91602 24.7168C9.01447 24.797 9.14672 24.8221 9.26758 24.7832C9.72349 24.636 10.1566 24.4251 10.5547 24.1582C10.6001 24.4193 10.6251 24.6839 10.625 24.9492L10.6191 25.1807C10.5662 26.2604 10.1451 27.2884 9.42773 28.0889L9.26855 28.2568C8.40092 29.1332 7.22527 29.625 6 29.625C4.85135 29.625 3.74603 29.193 2.89746 28.417L2.73145 28.2568C1.86371 27.3803 1.37505 26.1905 1.375 24.9492V24.9482C1.37445 24.3335 1.49552 23.7246 1.73145 23.1582C1.94548 22.6444 2.25055 22.1753 2.62988 21.7725C2.8442 22.2806 3.13635 22.7527 3.49512 23.1709C3.57484 23.2636 3.69476 23.3119 3.81641 23.2998C3.93828 23.2876 4.04663 23.2162 4.10645 23.1094C4.46921 22.4604 4.69403 21.7437 4.76855 21.0049L4.79199 20.6875C4.8244 19.9167 4.69042 19.1491 4.4043 18.4355Z" stroke="#111111" stroke-width="0.75" stroke-linecap="round" stroke-linejoin="round"/>
</g>
<g id="Size=16px, Filled=false">
<path id="Vector_2" d="M29.7393 16.5713C31.9508 17.1718 33.5464 18.5033 34.5674 20.0039C35.6383 21.578 36.0554 23.3014 35.917 24.5117C35.8979 24.6792 35.965 24.8454 36.0947 24.9531C36.2244 25.0607 36.3995 25.0954 36.5605 25.0459C37.2121 24.8456 37.8301 24.5558 38.3975 24.1875C38.4642 24.5432 38.5001 24.904 38.5 25.2656L38.4922 25.5732C38.4183 27.0063 37.8306 28.3739 36.8252 29.4424L36.6035 29.667C35.3859 30.8385 33.73 31.5 32 31.5C30.378 31.5 28.8214 30.9189 27.6299 29.8809L27.3965 29.667C26.1798 28.4962 25.5001 26.9126 25.5 25.2656V25.2646C25.4993 24.5503 25.6286 23.8418 25.8818 23.1709L25.998 22.8857C26.3041 22.186 26.7441 21.5476 27.2939 21.001C27.596 21.6937 28.0088 22.3364 28.5195 22.9033C28.6262 23.0217 28.7829 23.0815 28.9414 23.0654C29.1 23.0493 29.2416 22.9588 29.3223 22.8213C29.8305 21.9553 30.1472 20.9979 30.252 20.0098L30.2832 19.584C30.3288 18.5519 30.1411 17.5251 29.7393 16.5713Z" stroke="#111111" stroke-linecap="round" stroke-linejoin="round"/>
</g>
<g id="Size=20px, Filled=false">
<path id="Vector_3" d="M59.0762 14.709C61.9413 15.4585 64.0049 17.1297 65.3213 19.0107C66.6983 20.9784 67.232 23.1303 67.0547 24.6377C67.0303 24.8463 67.1118 25.0532 67.2725 25.1885C67.4334 25.3237 67.6521 25.3696 67.8535 25.3096C68.7002 25.0565 69.5039 24.6884 70.2402 24.2197C70.3026 24.5383 70.3461 24.8595 70.3643 25.1826L70.375 25.5811V25.582C70.3749 27.5064 69.6089 29.3648 68.2227 30.7969L67.9375 31.0781C66.3696 32.5447 64.2342 33.375 62 33.375C59.9055 33.375 57.8979 32.6453 56.3633 31.3457L56.0625 31.0781C54.4962 29.613 53.6251 27.6348 53.625 25.582V25.5811C53.6241 24.6905 53.7903 23.807 54.1152 22.9697L54.2637 22.6133C54.6617 21.7286 55.2367 20.9212 55.957 20.2314C56.3467 21.1081 56.8813 21.9206 57.5439 22.6357C57.6774 22.7797 57.8711 22.852 58.0664 22.832C58.2617 22.812 58.4366 22.7013 58.5381 22.5332C59.2386 21.3728 59.656 20.0798 59.7588 18.748L59.7754 18.4805C59.834 17.188 59.593 15.9023 59.0762 14.709Z" stroke="#111111" stroke-width="1.25" stroke-linecap="round" stroke-linejoin="round"/>
</g>
<g id="Size=24px, Filled=false">
<path id="Vector_4" d="M88.6562 19.2012L88.666 19.2119V19.2109L88.6572 19.2012M88.6562 19.2012H88.6572M88.6562 19.2012H88.6572M88.6562 19.2012L88.6455 19.1895L88.2676 18.7666L88.6572 19.2012M92.4102 12.8408C95.931 13.7388 98.4618 15.7564 100.074 18.0186C101.757 20.3796 102.407 22.9584 102.191 24.7627C102.161 25.0129 102.259 25.262 102.451 25.4248C102.644 25.5876 102.906 25.6433 103.147 25.5723C104.189 25.2665 105.177 24.8198 106.082 24.251C106.16 24.6377 106.214 25.0276 106.236 25.4199L106.25 25.8975V25.8984C106.25 28.2032 105.316 30.4319 103.62 32.1514L103.271 32.4893C101.352 34.2507 98.7379 35.25 96 35.25C93.4331 35.25 90.9746 34.3719 89.0967 32.8105L88.7295 32.4893C86.8134 30.7296 85.7501 28.357 85.75 25.8984V25.8975C85.7489 24.8306 85.9508 23.7713 86.3477 22.7676L86.5303 22.3408C87.0202 21.2718 87.7292 20.2955 88.6201 19.4629C89.0975 20.5231 89.7549 21.5041 90.5693 22.3672C90.7295 22.5369 90.9593 22.6225 91.1914 22.5986C91.4235 22.5747 91.6317 22.4439 91.7539 22.2451C92.6105 20.852 93.1213 19.2988 93.2471 17.6982L93.2666 17.3779C93.3385 15.8226 93.0439 14.2754 92.4102 12.8408ZM88.6729 19.2188L88.7676 19.3242V19.3252L88.6729 19.2197V19.2188Z" stroke="#111111" stroke-width="1.5" stroke-linecap="round" stroke-linejoin="round"/>
</g>
<g id="Size=32px, Filled=false">
<path id="Vector_5" d="M123 26.5293C122.998 24.9989 123.296 23.482 123.876 22.0566L123.996 21.7725C124.608 20.3723 125.487 19.0926 126.587 17.999C127.191 19.3856 128.017 20.6719 129.039 21.8066C129.252 22.0434 129.567 22.1641 129.884 22.1318C130.201 22.0995 130.483 21.9181 130.645 21.6436C131.734 19.7875 132.382 17.7206 132.541 15.5938L132.566 15.168C132.658 13.1028 132.285 11.0471 131.48 9.13867C135.903 10.3398 139.094 13.0057 141.136 16.0068C143.278 19.1548 144.111 22.6018 143.834 25.0225C143.796 25.3576 143.929 25.6897 144.188 25.9053C144.448 26.1208 144.799 26.1917 145.121 26.0928C146.425 25.6919 147.662 25.1113 148.798 24.374C148.931 25.0856 149 25.807 149 26.5303L148.996 26.8389C148.917 29.9192 147.65 32.8692 145.432 35.1123L145.206 35.334C142.771 37.6769 139.46 39 136 39C132.648 39 129.436 37.7586 127.024 35.5508L126.794 35.334C124.36 32.9923 123 29.8245 123 26.5303V26.5293Z" stroke="#111111" stroke-width="2" stroke-linecap="round" stroke-linejoin="round"/>
</g>
<g id="Size=40px, Filled=false">
<path id="Vector_6" d="M167.25 27.1621C167.248 25.2539 167.629 23.3614 168.374 21.582L168.528 21.2275C169.324 19.4589 170.469 17.8412 171.909 16.4619C172.689 18.2163 173.763 19.8395 175.089 21.2705C175.356 21.5585 175.742 21.7049 176.133 21.665C176.523 21.625 176.873 21.4035 177.076 21.0674C178.478 18.7461 179.312 16.1592 179.518 13.4951L179.55 12.9619C179.667 10.374 179.186 7.79897 178.15 5.41016C183.883 6.90863 188.008 10.2596 190.642 14.0225C193.395 17.9577 194.463 22.2597 194.108 25.2744C194.059 25.6923 194.224 26.1073 194.546 26.3779C194.868 26.6485 195.305 26.7386 195.708 26.6182C197.403 26.1115 199.01 25.3743 200.484 24.4355C200.661 25.3354 200.75 26.2482 200.75 27.1631L200.745 27.5479C200.643 31.3874 199.019 35.0713 196.164 37.8779L195.874 38.1562C192.738 41.0892 188.468 42.75 184 42.75C179.671 42.75 175.528 41.191 172.423 38.4268L172.126 38.1562C168.993 35.2258 167.25 31.2689 167.25 27.1631V27.1621Z" stroke="#111111" stroke-width="2.5" stroke-linecap="round" stroke-linejoin="round"/>
</g>
<g id="Size=48px, Filled=false">
<path id="Vector_7" d="M219.5 27.7949C219.498 25.509 219.962 23.2407 220.872 21.1074L221.06 20.6826C222.039 18.5455 223.455 16.5916 225.235 14.9268C226.19 17.0476 227.509 19.008 229.139 20.7344C229.459 21.0738 229.919 21.245 230.383 21.1973C230.847 21.1495 231.262 20.8886 231.507 20.4912C233.22 17.7048 234.242 14.5979 234.493 11.3965L234.533 10.7549C234.677 7.64477 234.088 4.5513 232.821 1.68262C239.862 3.47859 244.923 7.51313 248.147 12.0371C251.514 16.7597 252.815 21.9176 252.383 25.5264C252.323 26.0269 252.518 26.524 252.903 26.8496C253.288 27.1753 253.811 27.2855 254.295 27.1436C256.381 26.5314 258.36 25.6421 260.172 24.5029C260.39 25.5892 260.5 26.6916 260.5 27.7959L260.494 28.2568C260.37 32.8557 258.389 37.2743 254.896 40.6445L254.542 40.9775C250.705 44.5009 245.476 46.5 240 46.5C234.695 46.5 229.622 44.6241 225.822 41.3037L225.458 40.9775C221.626 37.4581 219.5 32.7132 219.5 27.7959V27.7949Z" stroke="#111111" stroke-width="3" stroke-linecap="round" stroke-linejoin="round"/>
</g>
<g id="Size=12px, Filled=true">
<path id="Vector_8" d="M11 84.949C11 86.2886 10.4732 87.5734 9.53553 88.5206C8.59785 89.4678 7.32608 90 6 90C4.67392 90 3.40215 89.4678 2.46447 88.5206C1.52679 87.5734 1 86.2886 1 84.949C0.999352 84.2846 1.13044 83.6268 1.38552 83.0144C1.64061 82.402 2.01453 81.8474 2.48522 81.3833C2.51665 81.352 2.55535 81.3293 2.59778 81.317C2.6402 81.3048 2.68498 81.3036 2.728 81.3134C2.77102 81.3233 2.8109 81.3439 2.84398 81.3734C2.87706 81.4028 2.90227 81.4403 2.9173 81.4822C3.12063 82.0099 3.41224 82.4984 3.77938 82.9263C4.16522 82.2361 4.38374 81.4634 4.41703 80.6715C4.45033 79.8795 4.29747 79.0909 3.97096 78.3701C3.95007 78.3249 3.9425 78.2745 3.94916 78.2251C3.95582 78.1756 3.97642 78.1291 4.0085 78.0912C4.04059 78.0532 4.0828 78.0254 4.13011 78.011C4.17742 77.9967 4.22782 77.9963 4.27531 78.0101C7.82872 78.9018 9.37367 82.3972 9.15275 84.4262C9.63159 84.2716 10.0834 84.042 10.4917 83.7457C10.5275 83.7217 10.5686 83.707 10.6113 83.7029C10.6541 83.6988 10.6972 83.7054 10.7368 83.7222C10.7764 83.739 10.8112 83.7654 10.8383 83.7991C10.8654 83.8328 10.8838 83.8727 10.8919 83.9153C10.9639 84.2551 11.0001 84.6016 11 84.949Z" fill="#111111"/>
</g>
<g id="Size=16px, Filled=true">
<path id="Vector_9" d="M39 85.2654C39 87.0515 38.2625 88.7645 36.9497 90.0275C35.637 91.2905 33.8565 92 32 92C30.1435 92 28.363 91.2905 27.0503 90.0275C25.7375 88.7645 25 87.0515 25 85.2654C24.9991 84.3795 25.1826 83.5024 25.5397 82.6858C25.8969 81.8693 26.4203 81.1298 27.0793 80.5111C27.1233 80.4694 27.1775 80.439 27.2369 80.4227C27.2963 80.4064 27.359 80.4048 27.4192 80.4179C27.4794 80.431 27.5353 80.4585 27.5816 80.4978C27.6279 80.5371 27.6632 80.587 27.6842 80.6429C27.9689 81.3465 28.3771 81.9978 28.8911 82.5684C29.4313 81.6482 29.7372 80.6179 29.7838 79.5619C29.8305 78.506 29.6165 77.4545 29.1593 76.4935C29.1301 76.4331 29.1195 76.366 29.1288 76.3001C29.1381 76.2342 29.167 76.1722 29.2119 76.1216C29.2568 76.071 29.3159 76.0339 29.3822 76.0147C29.4484 75.9955 29.519 75.9951 29.5854 76.0134C34.5602 77.2024 36.7231 81.863 36.4138 84.5682C37.0842 84.3621 37.7168 84.056 38.2884 83.6609C38.3385 83.6289 38.396 83.6093 38.4558 83.6038C38.5157 83.5984 38.576 83.6072 38.6315 83.6296C38.6869 83.652 38.7357 83.6872 38.7736 83.7321C38.8115 83.777 38.8373 83.8303 38.8486 83.8871C38.9494 84.3401 39.0001 84.8021 39 85.2654Z" fill="#111111"/>
</g>
<g id="Size=20px, Filled=true">
<path id="Vector_10" d="M71 85.5817C71 87.8144 70.0518 89.9556 68.364 91.5343C66.6761 93.1131 64.3869 94 62 94C59.6131 94 57.3239 93.1131 55.636 91.5343C53.9482 89.9556 53 87.8144 53 85.5817C52.9988 84.4743 53.2348 83.378 53.6939 82.3573C54.1531 81.3366 54.8262 80.4123 55.6734 79.6388C55.73 79.5867 55.7996 79.5488 55.876 79.5284C55.9524 79.5081 56.033 79.506 56.1104 79.5224C56.1878 79.5388 56.2596 79.5731 56.3192 79.6223C56.3787 79.6714 56.4241 79.7338 56.4511 79.8036C56.8171 80.6831 57.342 81.4973 58.0029 82.2106C58.6974 81.0602 59.0907 79.7723 59.1507 78.4524C59.2106 77.1325 58.9354 75.8181 58.3477 74.6168C58.3101 74.5414 58.2965 74.4575 58.3085 74.3751C58.3205 74.2927 58.3576 74.2152 58.4153 74.152C58.4731 74.0887 58.549 74.0424 58.6342 74.0184C58.7194 73.9944 58.8101 73.9939 58.8956 74.0168C65.2917 75.503 68.0726 81.3287 67.6749 84.7103C68.5369 84.4527 69.3502 84.07 70.0851 83.5762C70.1495 83.5362 70.2234 83.5116 70.3004 83.5048C70.3773 83.498 70.4549 83.509 70.5262 83.537C70.5975 83.565 70.6602 83.609 70.7089 83.6651C70.7576 83.7213 70.7908 83.7878 70.8053 83.8588C70.9349 84.4251 71.0002 85.0026 71 85.5817Z" fill="#111111"/>
</g>
<g id="Size=24px, Filled=true">
<path id="Vector_11" d="M106 85.898C106 88.5772 104.946 91.1467 103.071 93.0412C101.196 94.9357 98.6522 96 96 96C93.3478 96 90.8043 94.9357 88.9289 93.0412C87.0536 91.1467 86 88.5772 86 85.898C85.9987 84.5692 86.2609 83.2536 86.771 82.0287C87.2812 80.8039 88.0291 79.6947 88.9704 78.7666C89.0333 78.7041 89.1107 78.6585 89.1956 78.6341C89.2804 78.6097 89.37 78.6072 89.456 78.6269C89.542 78.6466 89.6218 78.6878 89.688 78.7467C89.7541 78.8057 89.8045 78.8805 89.8346 78.9643C90.2413 80.0198 90.8245 80.9968 91.5588 81.8527C92.3304 80.4722 92.7675 78.9268 92.8341 77.3429C92.9007 75.759 92.5949 74.1817 91.9419 72.7402C91.9001 72.6497 91.885 72.549 91.8983 72.4501C91.9116 72.3512 91.9528 72.2583 92.017 72.1824C92.0812 72.1065 92.1656 72.0508 92.2602 72.0221C92.3548 71.9933 92.4556 71.9926 92.5506 72.0202C99.6574 73.8035 102.747 80.7945 102.305 84.8524C103.263 84.5432 104.167 84.0839 104.983 83.4914C105.055 83.4434 105.137 83.414 105.223 83.4058C105.308 83.3976 105.394 83.4108 105.474 83.4444C105.553 83.478 105.622 83.5308 105.677 83.5982C105.731 83.6655 105.768 83.7454 105.784 83.8306C105.928 84.5101 106 85.2031 106 85.898Z" fill="#111111"/>
</g>
<g id="Size=32px, Filled=true">
<path id="Vector_12" d="M150 86.5307C150 90.103 148.525 93.529 145.899 96.0549C143.274 98.5809 139.713 100 136 100C132.287 100 128.726 98.5809 126.101 96.0549C123.475 93.529 122 90.103 122 86.5307C121.998 84.7589 122.365 83.0048 123.079 81.3717C123.794 79.7386 124.841 78.2596 126.159 77.0221C126.247 76.9388 126.355 76.878 126.474 76.8455C126.593 76.8129 126.718 76.8096 126.838 76.8358C126.959 76.8621 127.071 76.917 127.163 76.9956C127.256 77.0743 127.326 77.174 127.368 77.2857C127.938 78.693 128.754 79.9957 129.782 81.1369C130.863 79.2963 131.474 77.2358 131.568 75.1239C131.661 73.012 131.233 70.909 130.319 68.9869C130.26 68.8663 130.239 68.7321 130.258 68.6002C130.276 68.4683 130.334 68.3444 130.424 68.2432C130.514 68.142 130.632 68.0678 130.764 68.0294C130.897 67.9911 131.038 67.9902 131.171 68.0269C141.12 70.4047 145.446 79.726 144.828 85.1365C146.168 84.7242 147.434 84.1119 148.577 83.3219C148.677 83.2578 148.792 83.2186 148.912 83.2077C149.031 83.1967 149.152 83.2144 149.263 83.2592C149.374 83.304 149.471 83.3744 149.547 83.4642C149.623 83.5541 149.675 83.6605 149.697 83.7741C149.899 84.6802 150 85.6042 150 86.5307Z" fill="#111111"/>
</g>
<g id="Size=40px, Filled=true">
<path id="Vector_13" d="M202 87.1634C202 91.6287 200.104 95.9112 196.728 99.0687C193.352 102.226 188.774 104 184 104C179.226 104 174.648 102.226 171.272 99.0687C167.896 95.9112 166 91.6287 166 87.1634C165.998 84.9487 166.47 82.7559 167.388 80.7146C168.306 78.6732 169.652 76.8246 171.347 75.2777C171.46 75.1735 171.599 75.0975 171.752 75.0568C171.905 75.0161 172.066 75.012 172.221 75.0448C172.376 75.0776 172.519 75.1463 172.638 75.2446C172.757 75.3428 172.848 75.4675 172.902 75.6072C173.634 77.3663 174.684 78.9946 176.006 80.4211C177.395 78.1204 178.181 75.5447 178.301 72.9049C178.421 70.2651 177.871 67.6362 176.695 65.2336C176.62 65.0829 176.593 64.9151 176.617 64.7502C176.641 64.5854 176.715 64.4305 176.831 64.304C176.946 64.1775 177.098 64.0847 177.268 64.0368C177.439 63.9888 177.62 63.9877 177.791 64.0336C190.583 67.0059 196.145 78.6575 195.35 85.4206C197.074 84.9053 198.7 84.1399 200.17 83.1523C200.299 83.0723 200.447 83.0233 200.601 83.0096C200.755 82.9959 200.91 83.0181 201.052 83.074C201.195 83.13 201.32 83.218 201.418 83.3303C201.515 83.4426 201.582 83.5757 201.611 83.7177C201.87 84.8502 202 86.0052 202 87.1634Z" fill="#111111"/>
</g>
<g id="Size=48px, Filled=true">
<path id="Vector_14" d="M262 87.7961C262 93.1545 259.682 98.2934 255.556 102.082C251.431 105.871 245.835 108 240 108C234.165 108 228.569 105.871 224.444 102.082C220.318 98.2934 218 93.1545 218 87.7961C217.997 85.1384 218.574 82.5071 219.696 80.0575C220.819 77.6079 222.464 75.3895 224.535 73.5332C224.673 73.4082 224.844 73.317 225.03 73.2682C225.217 73.2193 225.414 73.2144 225.603 73.2537C225.792 73.2931 225.968 73.3755 226.114 73.4935C226.259 73.6114 226.37 73.761 226.436 73.9286C227.331 76.0395 228.614 77.9935 230.229 79.7053C231.927 76.9445 232.888 73.8536 233.035 70.6858C233.181 67.5181 232.509 64.3635 231.072 61.4804C230.98 61.2994 230.947 61.0981 230.976 60.9003C231.006 60.7025 231.096 60.5166 231.237 60.3648C231.379 60.213 231.564 60.1017 231.772 60.0441C231.981 59.9866 232.202 59.9853 232.411 60.0403C248.046 63.6071 254.844 77.589 253.872 85.7047C255.979 85.0864 257.967 84.1679 259.764 82.9828C259.921 82.8868 260.102 82.8279 260.29 82.8115C260.478 82.7951 260.668 82.8217 260.842 82.8888C261.016 82.9559 261.169 83.0616 261.289 83.1963C261.408 83.3311 261.489 83.4908 261.524 83.6612C261.841 85.0202 262 86.4062 262 87.7961Z" fill="#111111"/>
</g>
</g>
</svg>
