<svg width="264" height="48" viewBox="0 0 264 48" fill="none" xmlns="http://www.w3.org/2000/svg">
<g id="Frete.com">
<g clip-path="url(#clip0_8239_132)">
<g id="Size=48px">
<g id="LOGOMARCA">
<path id="Vector" d="M250.631 30.2258C250.631 25.8033 247.048 22.2178 242.629 22.2178C238.208 22.2178 234.626 25.8033 234.626 30.2258C234.626 34.6496 238.208 38.2339 242.629 38.2339C247.048 38.2339 250.631 34.6496 250.631 30.2258Z" fill="#111111"/>
<path id="Vector_2" d="M224.712 5.10728L216 17.5574V42.8922H229.969V17.5574H255.288L264 5.10728H224.712Z" fill="#111111"/>
</g>
</g>
<g id="Size=40px">
<g id="LOGOMARCA_2">
<path id="Vector_3" d="M192.859 29.1882C192.859 25.5028 189.873 22.5148 186.191 22.5148C182.507 22.5148 179.521 25.5028 179.521 29.1882C179.521 32.8747 182.507 35.8616 186.191 35.8616C189.873 35.8616 192.859 32.8747 192.859 29.1882Z" fill="#111111"/>
<path id="Vector_4" d="M171.26 8.25608L164 18.6312V39.7435H175.641V18.6312H196.74L204 8.25608H171.26Z" fill="#111111"/>
</g>
</g>
<g id="Size=32px">
<g id="LOGOMARCA_3">
<path id="Vector_5" d="M143.087 28.1505C143.087 25.2022 140.699 22.8118 137.752 22.8118C134.805 22.8118 132.417 25.2022 132.417 28.1505C132.417 31.0997 134.805 33.4893 137.752 33.4893C140.699 33.4893 143.087 31.0997 143.087 28.1505Z" fill="#111111"/>
<path id="Vector_6" d="M125.808 11.4049L120 19.705V36.5948H129.313V19.705H146.192L152 11.4049H125.808Z" fill="#111111"/>
</g>
</g>
<g id="Size=24px">
<g id="LOGOMARCA_4">
<path id="Vector_7" d="M101.316 27.1129C101.316 24.9017 99.5241 23.1089 97.3144 23.1089C95.104 23.1089 93.3129 24.9017 93.3129 27.1129C93.3129 29.3248 95.104 31.1169 97.3144 31.1169C99.5241 31.1169 101.316 29.3248 101.316 27.1129Z" fill="#111111"/>
<path id="Vector_8" d="M88.3561 14.5537L84 20.7788V33.4462H90.9846V20.7788H103.644L108 14.5537H88.3561Z" fill="#111111"/>
</g>
</g>
<g id="Size=20px">
<g id="LOGOMARCA_5">
<path id="Vector_9" d="M66.4297 26.5941C66.4297 24.7514 64.9368 23.2574 63.0953 23.2574C61.2533 23.2574 59.7607 24.7514 59.7607 26.5941C59.7607 28.4373 61.2533 29.9308 63.0953 29.9308C64.9368 29.9308 66.4297 28.4373 66.4297 26.5941Z" fill="#111111"/>
<path id="Vector_10" d="M55.63 16.1281L52 21.3157V31.8718H57.8205V21.3157H68.37L72 16.1281H55.63Z" fill="#111111"/>
</g>
</g>
<g id="Size=16px">
<g id="LOGOMARCA_6">
<path id="Vector_11" d="M35.5438 26.0753C35.5438 24.6011 34.3494 23.4059 32.8763 23.4059C31.4027 23.4059 30.2086 24.6011 30.2086 26.0753C30.2086 27.5499 31.4027 28.7446 32.8763 28.7446C34.3494 28.7446 35.5438 27.5499 35.5438 26.0753Z" fill="#111111"/>
<path id="Vector_12" d="M26.904 17.7025L24 21.8526V30.2975H28.6564V21.8526H37.096L40 17.7025H26.904Z" fill="#111111"/>
</g>
</g>
<g id="Size=12px">
<g id="LOGOMARCA_7">
<path id="Vector_13" d="M8.65788 25.5565C8.65788 24.4508 7.76211 23.5544 6.65724 23.5544C5.55206 23.5544 4.65649 24.4508 4.65649 25.5565C4.65649 26.6624 5.55206 27.5585 6.65724 27.5585C7.76211 27.5585 8.65788 26.6624 8.65788 25.5565Z" fill="#111111"/>
<path id="Vector_14" d="M2.17803 19.2769L0 22.3894V28.7231H3.49231V22.3894H9.82197L12 19.2769H2.17803Z" fill="#111111"/>
</g>
</g>
</g>
</g>
<defs>
<clipPath id="clip0_8239_132">
<rect width="264" height="48" rx="5" fill="white"/>
</clipPath>
</defs>
</svg>
