<svg width="264" height="108" viewBox="0 0 264 108" fill="none" xmlns="http://www.w3.org/2000/svg">
<g id="Handshake">
<g clip-path="url(#clip0_2046_337)">
<g id="Size=12px, Filled=false">
<path id="Vector" d="M5.37509 26.1701C5.20994 26.0451 4.97475 26.0777 4.84977 26.2428C4.72479 26.408 4.75735 26.6432 4.92249 26.7681L5.37509 26.1701ZM7.01967 27.885L6.79337 28.184C6.80368 28.1918 6.81439 28.1991 6.82545 28.2058L7.01967 27.885ZM6.32004 25.2616C6.15717 25.1337 5.92143 25.162 5.7935 25.3249C5.66557 25.4878 5.6939 25.7235 5.85677 25.8514L6.32004 25.2616ZM7.95926 27.026L7.72762 27.3209C7.73956 27.3303 7.75206 27.3389 7.76504 27.3468L7.95926 27.026ZM9.09992 26.7406L9.43373 26.9115V26.9115L9.09992 26.7406ZM4.79042 27.5709L5.04482 27.2952L5.03666 27.2881L4.79042 27.5709ZM9.33387 26.3793L9.09761 26.6706C9.18433 26.7409 9.2979 26.769 9.40741 26.7471L9.33387 26.3793ZM7.27475 24.2259C7.11392 24.0954 6.87776 24.12 6.74728 24.2809C6.6168 24.4417 6.6414 24.6779 6.80223 24.8083L7.27475 24.2259ZM10.4639 20.6195H10.8389V20.2445H10.4639V20.6195ZM9.26855 20.2924L9.15271 20.649L9.26855 20.2924ZM4.73305 20.8448L4.44806 20.6011L4.73305 20.8448ZM3.44806 22.4423L3.11446 22.271L3.00585 22.4826L3.1509 22.671L3.44806 22.4423ZM5.58352 22.502L5.82013 22.793L5.83318 22.7824L5.84522 22.7706L5.58352 22.502ZM6.15045 21.9496L6.38922 21.6604L6.12975 21.4462L5.88875 21.681L6.15045 21.9496ZM10.204 25.2967L9.96524 25.5859L10.0692 25.6717H10.204V25.2967ZM10.4639 25.2967V25.6717H10.8389V25.2967H10.4639ZM8.22576 27.4483L8.57817 27.5765L8.22576 27.4483ZM1.53302 21.0436H4.92723V20.2936H1.53302V21.0436ZM4.92249 26.7681L6.79337 28.184L7.24596 27.5859L5.37509 26.1701L4.92249 26.7681ZM5.85677 25.8514L7.72762 27.3209L8.19089 26.7311L6.32004 25.2616L5.85677 25.8514ZM7.76504 27.3468C7.94884 27.4581 8.23777 27.5673 8.55209 27.54C8.89514 27.5101 9.22482 27.3196 9.43373 26.9115L8.76611 26.5698C8.67375 26.7502 8.5704 26.7855 8.48708 26.7928C8.37504 26.8025 8.24427 26.7602 8.15347 26.7052L7.76504 27.3468ZM9.43373 26.9115C9.477 26.827 9.57155 26.6245 9.61194 26.4778L8.88883 26.2788C8.88094 26.3074 8.86179 26.3591 8.83468 26.4222C8.80893 26.4822 8.78233 26.5381 8.76611 26.5698L9.43373 26.9115ZM1.33527 25.0598L4.54417 27.8537L5.03666 27.2881L1.82776 24.4942L1.33527 25.0598ZM4.53612 27.8465C4.76812 28.0606 5.16523 28.3336 5.62348 28.4599C6.09405 28.5896 6.66733 28.5703 7.15082 28.1241L6.64222 27.5729C6.40361 27.7931 6.12443 27.82 5.82276 27.7369C5.50877 27.6503 5.21387 27.4514 5.04472 27.2953L4.53612 27.8465ZM9.71303 25.3561C9.80022 25.5305 9.7905 25.6268 9.77719 25.6734C9.76207 25.7263 9.72248 25.7829 9.6448 25.8412C9.56661 25.8998 9.47064 25.944 9.38638 25.9741C9.3458 25.9886 9.31138 25.9986 9.28815 26.0047C9.27662 26.0078 9.26807 26.0098 9.26317 26.011C9.26072 26.0115 9.2592 26.0118 9.2587 26.012C9.25844 26.012 9.25845 26.012 9.25871 26.012C9.25885 26.0119 9.25905 26.0119 9.25932 26.0118C9.25945 26.0118 9.2596 26.0118 9.25977 26.0117C9.25985 26.0117 9.25999 26.0117 9.26003 26.0117C9.26018 26.0117 9.26032 26.0116 9.33387 26.3793C9.40741 26.7471 9.40757 26.747 9.40773 26.747C9.40779 26.747 9.40796 26.7469 9.40808 26.7469C9.40832 26.7469 9.40858 26.7468 9.40885 26.7468C9.40941 26.7467 9.41004 26.7465 9.41075 26.7464C9.41215 26.7461 9.41386 26.7457 9.41584 26.7453C9.41982 26.7445 9.42493 26.7433 9.43109 26.7419C9.4434 26.7391 9.45997 26.7351 9.48007 26.7298C9.52011 26.7192 9.57502 26.7031 9.63864 26.6804C9.7628 26.636 9.93479 26.5612 10.0948 26.4412C10.2553 26.3208 10.4241 26.1392 10.4983 25.8794C10.5743 25.6134 10.5348 25.3227 10.3838 25.0207L9.71303 25.3561ZM9.57013 26.0881L7.27475 24.2259L6.80223 24.8083L9.09761 26.6706L9.57013 26.0881ZM10.4639 20.2445C10.3751 20.2445 10.2866 20.2294 10.124 20.18C9.94732 20.1263 9.74232 20.052 9.38439 19.9357L9.15271 20.649C9.4751 20.7538 9.72602 20.843 9.90606 20.8976C10.1001 20.9566 10.2691 20.9945 10.4639 20.9945V20.2445ZM9.38439 19.9357C8.971 19.8015 8.14027 19.5059 7.22862 19.4688C6.30501 19.4313 5.25489 19.6577 4.44806 20.6011L5.01804 21.0885C5.62856 20.3747 6.42099 20.1867 7.19819 20.2182C7.98734 20.2503 8.71569 20.5071 9.15271 20.649L9.38439 19.9357ZM4.44806 20.6011C3.8786 21.2669 3.64813 21.5054 3.48953 21.6866C3.31493 21.8861 3.26053 21.9865 3.11446 22.271L3.78167 22.6136C3.9192 22.3457 3.94036 22.3103 4.05388 22.1806C4.18341 22.0326 4.45363 21.7485 5.01804 21.0885L4.44806 20.6011ZM3.1509 22.671C3.41253 23.0109 3.72458 23.2039 4.0533 23.2825C4.37467 23.3593 4.68353 23.3203 4.9385 23.2468C5.1937 23.1733 5.41169 23.0606 5.56319 22.9691C5.63982 22.9229 5.70169 22.8807 5.74534 22.8494C5.76721 22.8337 5.78465 22.8206 5.79723 22.811C5.80352 22.8061 5.80861 22.8021 5.81244 22.7991C5.81436 22.7976 5.81596 22.7963 5.81724 22.7953C5.81788 22.7948 5.81845 22.7943 5.81893 22.7939C5.81917 22.7937 5.81939 22.7936 5.81959 22.7934C5.81969 22.7933 5.81982 22.7932 5.81987 22.7932C5.82 22.7931 5.82013 22.793 5.58352 22.502C5.34691 22.2111 5.34702 22.211 5.34713 22.2109C5.34716 22.2109 5.34727 22.2108 5.34733 22.2108C5.34745 22.2107 5.34755 22.2106 5.34764 22.2105C5.34781 22.2104 5.3479 22.2103 5.34792 22.2103C5.34796 22.2103 5.34771 22.2105 5.34716 22.2109C5.34608 22.2117 5.34385 22.2135 5.34052 22.216C5.33386 22.2212 5.32286 22.2294 5.30794 22.2402C5.27799 22.2617 5.23282 22.2925 5.17569 22.327C5.05967 22.397 4.90324 22.4765 4.73088 22.5261C4.55829 22.5759 4.38644 22.591 4.22769 22.553C4.07628 22.5168 3.9088 22.4261 3.74523 22.2136L3.1509 22.671ZM5.84522 22.7706L6.41216 22.2182L5.88875 21.681L5.32181 22.2335L5.84522 22.7706ZM5.91169 22.2388L9.96524 25.5859L10.4428 25.0075L6.38922 21.6604L5.91169 22.2388ZM10.204 25.6717H10.4639V24.9217H10.204V25.6717ZM10.8389 25.2967V20.6195H10.0889V25.2967H10.8389ZM10.6081 20.5008H11.3584V19.7508H10.6081V20.5008ZM11.125 20.2687V25.1635H11.875V20.2687H11.125ZM11.3584 24.9315H10.6081V25.6815H11.3584V24.9315ZM10.8402 25.1635V20.2687H10.0902V25.1635H10.8402ZM10.6081 24.9315C10.7362 24.9315 10.8402 25.0354 10.8402 25.1635H10.0902C10.0902 25.4496 10.322 25.6815 10.6081 25.6815V24.9315ZM11.125 25.1635C11.125 25.0398 11.2258 24.9315 11.3584 24.9315V25.6815C11.6488 25.6815 11.875 25.4451 11.875 25.1635H11.125ZM11.3584 20.5008C11.2258 20.5008 11.125 20.3925 11.125 20.2687H11.875C11.875 19.9871 11.6488 19.7508 11.3584 19.7508V20.5008ZM10.6081 19.7508C10.322 19.7508 10.0902 19.9827 10.0902 20.2687H10.8402C10.8402 20.3969 10.7362 20.5008 10.6081 20.5008V19.7508ZM0.64449 20.5008H1.3901V19.7508H0.64449V20.5008ZM1.15802 20.2687V25.1635H1.90802V20.2687H1.15802ZM1.3901 24.9315H0.64449V25.6815H1.3901V24.9315ZM0.875 25.1635V20.2687H0.125V25.1635H0.875ZM0.64449 24.9315C0.767301 24.9315 0.875 25.03 0.875 25.1635H0.125C0.125 25.4549 0.363821 25.6815 0.64449 25.6815V24.9315ZM1.15802 25.1635C1.15802 25.0354 1.26192 24.9315 1.3901 24.9315V25.6815C1.67614 25.6815 1.90802 25.4496 1.90802 25.1635H1.15802ZM1.3901 20.5008C1.26192 20.5008 1.15802 20.3969 1.15802 20.2687H1.90802C1.90802 19.9827 1.67614 19.7508 1.3901 19.7508V20.5008ZM0.64449 19.7508C0.363821 19.7508 0.125 19.9774 0.125 20.2687H0.875C0.875 20.4022 0.767301 20.5008 0.64449 20.5008V19.7508ZM6.82545 28.2058C7.02148 28.3244 7.34371 28.4443 7.6886 28.3896C8.0712 28.329 8.39975 28.067 8.57817 27.5765L7.87335 27.3201C7.77495 27.5907 7.64846 27.6366 7.57122 27.6489C7.45628 27.6671 7.31388 27.6247 7.21388 27.5642L6.82545 28.2058ZM8.57817 27.5765C8.59627 27.5267 8.62832 27.4269 8.64369 27.371L7.92059 27.172C7.91069 27.2079 7.88479 27.2887 7.87335 27.3201L8.57817 27.5765Z" fill="#111111"/>
</g>
<g id="Size=16px, Filled=false">
<path id="Vector_2" d="M31.141 26.971C30.9208 26.8044 30.6072 26.8478 30.4406 27.068C30.2739 27.2882 30.3173 27.6018 30.5375 27.7684L31.141 26.971ZM33.3905 29.3004L33.0887 29.6991C33.1025 29.7095 33.1167 29.7192 33.1315 29.7281L33.3905 29.3004ZM32.4294 25.7321C32.2122 25.5615 31.8979 25.5993 31.7273 25.8164C31.5568 26.0336 31.5945 26.3479 31.8117 26.5185L32.4294 25.7321ZM34.6717 28.1291L34.3629 28.5223C34.3788 28.5348 34.3954 28.5463 34.4128 28.5568L34.6717 28.1291ZM36.2272 27.74L36.6722 27.9678L36.6722 27.9678L36.2272 27.74ZM30.3506 28.8722L30.6896 28.5047C30.6861 28.5014 30.6825 28.4982 30.6789 28.4951L30.3506 28.8722ZM36.5462 27.2473L36.2312 27.6356C36.3468 27.7294 36.4982 27.7668 36.6442 27.7376L36.5462 27.2473ZM33.7311 24.3196C33.5167 24.1456 33.2018 24.1784 33.0278 24.3929C32.8539 24.6073 32.8867 24.9222 33.1011 25.0962L33.7311 24.3196ZM38.0871 19.393H38.5871V18.893H38.0871V19.393ZM36.4571 18.9469L36.3027 19.4224L36.4571 18.9469ZM30.2723 19.7002L29.8924 19.3752L30.2723 19.7002ZM28.5201 21.8786L28.0753 21.6502L27.9305 21.9323L28.1239 22.1836L28.5201 21.8786ZM31.4321 21.9601L31.7475 22.348L31.7649 22.3338L31.781 22.3182L31.4321 21.9601ZM32.2052 21.2067L32.5235 20.8212L32.1776 20.5355L31.8562 20.8486L32.2052 21.2067ZM37.7327 25.7709L37.4144 26.1565L37.553 26.2709H37.7327V25.7709ZM38.0871 25.7709V26.2709H38.5871V25.7709H38.0871ZM35.0351 28.705L35.505 28.8759L35.0351 28.705ZM25.9087 19.96H30.5371V18.96H25.9087V19.96ZM30.5375 27.7684L33.0887 29.6991L33.6922 28.9017L31.141 26.971L30.5375 27.7684ZM31.8117 26.5185L34.3629 28.5223L34.9806 27.7359L32.4294 25.7321L31.8117 26.5185ZM34.4128 28.5568C34.662 28.7077 35.0536 28.8556 35.4791 28.8186C35.943 28.7783 36.3891 28.5209 36.6722 27.9678L35.7821 27.5121C35.6544 27.7616 35.51 27.8122 35.3925 27.8224C35.2366 27.8359 35.0559 27.7772 34.9307 27.7014L34.4128 28.5568ZM36.6722 27.9678C36.7312 27.8527 36.8597 27.5774 36.9144 27.3786L35.9503 27.1131C35.9393 27.153 35.9129 27.224 35.8759 27.3103C35.8407 27.3923 35.8043 27.4687 35.7821 27.5121L36.6722 27.9678ZM25.6465 25.4393L30.0222 29.2493L30.6789 28.4951L26.3031 24.6852L25.6465 25.4393ZM30.0115 29.2396C30.3269 29.5307 30.8669 29.9019 31.4896 30.0735C32.1287 30.2496 32.906 30.2231 33.5616 29.6182L32.8835 28.8833C32.5544 29.1869 32.1692 29.2235 31.7553 29.1094C31.3249 28.9908 30.9213 28.7184 30.6896 28.5047L30.0115 29.2396ZM37.0734 25.8469C37.1932 26.0866 37.1807 26.2209 37.1616 26.2878C37.1401 26.363 37.0842 26.4421 36.977 26.5225C36.8691 26.6034 36.7371 26.6641 36.6216 26.7054C36.5659 26.7253 36.5187 26.739 36.4868 26.7474C36.4709 26.7516 36.4591 26.7545 36.4523 26.756C36.4489 26.7568 36.4468 26.7573 36.4461 26.7574C36.4457 26.7575 36.4457 26.7575 36.446 26.7574C36.4462 26.7574 36.4464 26.7573 36.4468 26.7573C36.447 26.7572 36.4472 26.7572 36.4474 26.7571C36.4475 26.7571 36.4477 26.7571 36.4477 26.7571C36.4479 26.757 36.4481 26.757 36.5462 27.2473C36.6442 27.7376 36.6445 27.7375 36.6447 27.7375C36.6447 27.7375 36.645 27.7374 36.6451 27.7374C36.6455 27.7373 36.6458 27.7373 36.6462 27.7372C36.6469 27.737 36.6478 27.7369 36.6487 27.7367C36.6506 27.7363 36.6529 27.7358 36.6556 27.7352C36.661 27.7341 36.6679 27.7325 36.6762 27.7306C36.6929 27.7268 36.7154 27.7214 36.7426 27.7141C36.797 27.6998 36.8716 27.678 36.958 27.6471C37.1267 27.5869 37.36 27.4852 37.577 27.3225C37.7946 27.1593 38.0229 26.9135 38.1232 26.5625C38.2259 26.203 38.1728 25.8095 37.9678 25.3997L37.0734 25.8469ZM36.8612 26.859L33.7311 24.3196L33.1011 25.0962L36.2312 27.6356L36.8612 26.859ZM38.0871 18.893C37.9644 18.893 37.8426 18.872 37.6203 18.8045C37.3794 18.7313 37.0991 18.6297 36.6116 18.4713L36.3027 19.4224C36.7428 19.5654 37.0843 19.6868 37.3298 19.7613C37.5939 19.8416 37.8232 19.893 38.0871 19.893V18.893ZM36.6116 18.4713C36.0475 18.2881 34.9162 17.8856 33.6749 17.8352C32.4177 17.7842 30.9896 18.0922 29.8924 19.3752L30.6523 20.0252C31.4878 19.0482 32.5723 18.7913 33.6344 18.8344C34.7123 18.8782 35.7071 19.229 36.3027 19.4224L36.6116 18.4713ZM29.8924 19.3752C29.1159 20.2831 28.801 20.609 28.5852 20.8556C28.348 21.1265 28.2743 21.2625 28.0753 21.6502L28.9649 22.1069C29.1526 21.7414 29.1819 21.6921 29.3377 21.5142C29.5147 21.3119 29.8826 20.9252 30.6523 20.0252L29.8924 19.3752ZM28.1239 22.1836C28.4791 22.6451 28.9025 22.9067 29.348 23.0132C29.7838 23.1174 30.2029 23.0646 30.5494 22.9648C30.8961 22.8649 31.1924 22.7116 31.3985 22.5873C31.5027 22.5244 31.5868 22.4671 31.6461 22.4245C31.6758 22.4032 31.6995 22.3854 31.7166 22.3723C31.7251 22.3657 31.732 22.3603 31.7372 22.3562C31.7398 22.3542 31.7419 22.3525 31.7437 22.3511C31.7445 22.3504 31.7453 22.3498 31.7459 22.3493C31.7463 22.349 31.7466 22.3488 31.7468 22.3485C31.747 22.3484 31.7471 22.3483 31.7472 22.3482C31.7474 22.3481 31.7475 22.348 31.4321 21.9601C31.1166 21.5721 31.1167 21.572 31.1169 21.5719C31.1169 21.5719 31.1171 21.5718 31.1171 21.5717C31.1173 21.5716 31.1174 21.5714 31.1176 21.5714C31.1178 21.5712 31.1179 21.5711 31.1179 21.5711C31.1179 21.571 31.1176 21.5713 31.1168 21.5719C31.1153 21.5731 31.1122 21.5756 31.1076 21.5791C31.0985 21.5861 31.0834 21.5975 31.0629 21.6122C31.0219 21.6417 30.96 21.6839 30.8818 21.7311C30.7231 21.8269 30.5088 21.9358 30.2725 22.0038C30.0359 22.072 29.7995 22.093 29.5806 22.0406C29.3714 21.9906 29.1408 21.8653 28.9163 21.5736L28.1239 22.1836ZM31.781 22.3182L32.5541 21.5648L31.8562 20.8486L31.0831 21.6019L31.781 22.3182ZM31.8868 21.5923L37.4144 26.1565L38.0511 25.3854L32.5235 20.8212L31.8868 21.5923ZM37.7327 26.2709H38.0871V25.2709H37.7327V26.2709ZM38.5871 25.7709V19.393H37.5871V25.7709H38.5871ZM38.2837 19.2197H39.3069V18.2197H38.2837V19.2197ZM39 18.9146V25.5894H40V18.9146H39ZM39.3069 25.2843H38.2837V26.2843H39.3069V25.2843ZM38.5888 25.5894V18.9146H37.5888V25.5894H38.5888ZM38.2837 25.2843C38.4522 25.2843 38.5888 25.4209 38.5888 25.5894H37.5888C37.5888 25.9731 37.9 26.2843 38.2837 26.2843V25.2843ZM39 25.5894C39 25.4268 39.1325 25.2843 39.3069 25.2843V26.2843C39.6965 26.2843 40 25.9672 40 25.5894H39ZM39.3069 19.2197C39.1325 19.2197 39 19.0772 39 18.9146H40C40 18.5368 39.6965 18.2197 39.3069 18.2197V19.2197ZM38.2837 18.2197C37.9 18.2197 37.5888 18.5309 37.5888 18.9146H38.5888C38.5888 19.0831 38.4522 19.2197 38.2837 19.2197V18.2197ZM24.697 19.2197H25.7138V18.2197H24.697V19.2197ZM25.4087 18.9146V25.5894H26.4087V18.9146H25.4087ZM25.7138 25.2843H24.697V26.2843H25.7138V25.2843ZM25 25.5894V18.9146H24V25.5894H25ZM24.697 25.2843C24.8584 25.2843 25 25.4138 25 25.5894H24C24 25.9802 24.3204 26.2843 24.697 26.2843V25.2843ZM25.4087 25.5894C25.4087 25.4209 25.5453 25.2843 25.7138 25.2843V26.2843C26.0975 26.2843 26.4087 25.9731 26.4087 25.5894H25.4087ZM25.7138 19.2197C25.5453 19.2197 25.4087 19.0831 25.4087 18.9146H26.4087C26.4087 18.5309 26.0976 18.2197 25.7138 18.2197V19.2197ZM24.697 18.2197C24.3204 18.2197 24 18.5238 24 18.9146H25C25 19.0902 24.8584 19.2197 24.697 19.2197V18.2197ZM33.1315 29.7281C33.3974 29.8891 33.834 30.0513 34.3009 29.9774C34.818 29.8954 35.2629 29.5415 35.505 28.8759L34.5652 28.5341C34.4298 28.9063 34.2543 28.9723 34.1444 28.9897C33.9841 29.0151 33.7872 28.9561 33.6494 28.8727L33.1315 29.7281ZM35.505 28.8759C35.5296 28.8083 35.5732 28.6724 35.5941 28.5966L34.6299 28.3312C34.6164 28.3805 34.5809 28.4909 34.5652 28.5341L35.505 28.8759Z" fill="#111111"/>
</g>
<g id="Size=20px, Filled=false" clip-path="url(#clip1_2046_337)">
<path id="Vector_3" d="M60.9069 27.7719C60.6316 27.5636 60.2397 27.6179 60.0314 27.8931C59.8231 28.1684 59.8773 28.5604 60.1526 28.7687L60.9069 27.7719ZM63.7612 30.7159L63.3841 31.2142C63.4013 31.2272 63.4191 31.2393 63.4375 31.2505L63.7612 30.7159ZM62.5388 26.2025C62.2673 25.9893 61.8744 26.0365 61.6612 26.308C61.448 26.5794 61.4952 26.9723 61.7666 27.1855L62.5388 26.2025ZM65.3842 29.2322L64.9981 29.7237C65.018 29.7393 65.0388 29.7537 65.0605 29.7668L65.3842 29.2322ZM67.3544 28.7393L67.9108 29.0241V29.0241L67.3544 28.7393ZM59.9107 30.1734L60.3346 29.7141C60.3301 29.71 60.3257 29.706 60.3211 29.7021L59.9107 30.1734ZM67.7585 28.1152L67.3647 28.6006C67.5093 28.7179 67.6986 28.7646 67.8811 28.7281L67.7585 28.1152ZM64.1875 24.4133C63.9195 24.1958 63.5259 24.2369 63.3084 24.5049C63.0909 24.773 63.1319 25.1666 63.4 25.384L64.1875 24.4133ZM69.7103 18.1664H70.3353V17.5414H69.7103V18.1664ZM67.6457 17.6014L67.4526 18.1958V18.1958L67.6457 17.6014ZM59.8116 18.5556L59.3366 18.1494L59.8116 18.5556ZM57.5921 21.3149L57.0361 21.0294L56.8551 21.382L57.0968 21.6961L57.5921 21.3149ZM61.2806 21.4181L61.675 21.903L61.6967 21.8853L61.7168 21.8657L61.2806 21.4181ZM62.2599 20.4639L62.6578 19.9819L62.2254 19.6249L61.8237 20.0162L62.2599 20.4639ZM69.2615 26.2452L68.8635 26.7271L69.0368 26.8702H69.2615V26.2452ZM69.7103 26.2452V26.8702H70.3353V26.2452H69.7103ZM65.8445 29.9616L66.4318 30.1753L65.8445 29.9616ZM54.2843 18.8763H60.147V17.6263H54.2843V18.8763ZM60.1526 28.7687L63.3841 31.2142L64.1384 30.2175L60.9069 27.7719L60.1526 28.7687ZM61.7666 27.1855L64.9981 29.7237L65.7702 28.7406L62.5388 26.2025L61.7666 27.1855ZM65.0605 29.7668C65.3751 29.9573 65.8694 30.144 66.4062 30.0973C66.9909 30.0464 67.5534 29.7221 67.9108 29.0241L66.7981 28.4545C66.635 28.7731 66.4496 28.8388 66.2978 28.852C66.0982 28.8694 65.8675 28.7942 65.7079 28.6975L65.0605 29.7668ZM67.9108 29.0241C67.9853 28.8784 68.1478 28.5304 68.2169 28.2793L67.0117 27.9475C66.9977 27.9986 66.9641 28.0889 66.9172 28.1983C66.8725 28.3024 66.8263 28.3993 66.7981 28.4545L67.9108 29.0241ZM53.9577 25.8189L59.5003 30.6448L60.3211 29.7021L54.7785 24.8761L53.9577 25.8189ZM59.4869 30.6328C59.8857 31.0008 60.5685 31.4701 61.3557 31.687C62.1634 31.9097 63.1447 31.876 63.9724 31.1123L63.1247 30.1936C62.7051 30.5807 62.214 30.627 61.6878 30.482C61.1411 30.3313 60.6286 29.9854 60.3346 29.7141L59.4869 30.6328ZM68.4337 26.3376C68.5863 26.6427 68.571 26.815 68.5461 26.9021C68.5182 26.9998 68.4459 27.1013 68.3092 27.2038C68.1717 27.307 68.0036 27.3842 67.8569 27.4366C67.786 27.4619 67.726 27.4794 67.6854 27.4901C67.6652 27.4955 67.6502 27.4991 67.6415 27.5011C67.6371 27.5021 67.6344 27.5027 67.6334 27.5029C67.6329 27.503 67.6329 27.503 67.6333 27.5029C67.6335 27.5029 67.6338 27.5028 67.6343 27.5027C67.6345 27.5027 67.6347 27.5026 67.635 27.5026C67.6351 27.5025 67.6354 27.5025 67.6354 27.5025C67.6357 27.5024 67.6359 27.5024 67.7585 28.1152C67.8811 28.7281 67.8813 28.728 67.8816 28.728C67.8817 28.728 67.882 28.7279 67.8822 28.7279C67.8826 28.7278 67.883 28.7277 67.8835 28.7276C67.8844 28.7274 67.8855 28.7272 67.8867 28.7269C67.8891 28.7265 67.892 28.7259 67.8953 28.7251C67.9021 28.7237 67.9108 28.7218 67.9213 28.7193C67.9424 28.7145 67.9708 28.7076 68.0052 28.6985C68.0739 28.6804 68.1681 28.6528 68.2773 28.6138C68.4905 28.5377 68.7853 28.4092 69.0592 28.2038C69.3339 27.9978 69.6216 27.6879 69.748 27.2455C69.8774 26.7927 69.8107 26.2964 69.5518 25.7786L68.4337 26.3376ZM68.1523 27.6299L64.1875 24.4133L63.4 25.384L67.3647 28.6006L68.1523 27.6299ZM69.7103 17.5414C69.5537 17.5414 69.3985 17.5146 69.1166 17.429C68.8114 17.3363 68.4559 17.2074 67.8388 17.007L67.4526 18.1958C68.0105 18.3771 68.4426 18.5307 68.7534 18.6251C69.0877 18.7266 69.3772 18.7914 69.7103 18.7914V17.5414ZM67.8388 17.007C67.124 16.7748 65.6922 16.2654 64.1212 16.2016C62.5303 16.137 60.7243 16.5268 59.3366 18.1494L60.2866 18.9618C61.3471 17.7218 62.7236 17.3959 64.0705 17.4506C65.4373 17.5061 66.6985 17.9509 67.4526 18.1958L67.8388 17.007ZM59.3366 18.1494C58.3532 19.2993 57.9539 19.7126 57.6808 20.0245C57.3811 20.367 57.2881 20.5385 57.0361 21.0294L58.1481 21.6003C58.3859 21.1371 58.4235 21.074 58.6214 20.8478C58.846 20.5912 59.3116 20.1019 60.2866 18.9618L59.3366 18.1494ZM57.0968 21.6961C57.5458 22.2793 58.0804 22.6095 58.6428 22.744C59.193 22.8755 59.7223 22.8088 60.1602 22.6827C60.5985 22.5564 60.9732 22.3627 61.2338 22.2054C61.3655 22.1259 61.4719 22.0534 61.5469 21.9996C61.5844 21.9726 61.6144 21.9502 61.6359 21.9336C61.6467 21.9254 61.6554 21.9185 61.6619 21.9134C61.6652 21.9108 61.6679 21.9086 61.6701 21.9069C61.6712 21.906 61.6721 21.9052 61.673 21.9046C61.6734 21.9043 61.6737 21.904 61.6741 21.9037C61.6742 21.9035 61.6745 21.9034 61.6745 21.9033C61.6748 21.9031 61.675 21.903 61.2806 21.4181C60.8863 20.9332 60.8865 20.933 60.8866 20.9329C60.8867 20.9328 60.8869 20.9327 60.887 20.9326C60.8872 20.9325 60.8873 20.9323 60.8875 20.9322C60.8877 20.932 60.8879 20.9319 60.8879 20.9319C60.8879 20.9318 60.8875 20.9322 60.8865 20.933C60.8845 20.9345 60.8806 20.9376 60.8747 20.9421C60.8631 20.9511 60.8439 20.9655 60.8179 20.9842C60.7657 21.0216 60.6872 21.0753 60.5879 21.1352C60.3865 21.2568 60.1144 21.3951 59.8142 21.4815C59.5136 21.5681 59.2126 21.595 58.9334 21.5282C58.6666 21.4644 58.3729 21.3046 58.0874 20.9337L57.0968 21.6961ZM61.7168 21.8657L62.6961 20.9115L61.8237 20.0162L60.8444 20.9704L61.7168 21.8657ZM61.8619 20.9458L68.8635 26.7271L69.6594 25.7633L62.6578 19.9819L61.8619 20.9458ZM69.2615 26.8702H69.7103V25.6202H69.2615V26.8702ZM70.3353 26.2452V18.1664H69.0853V26.2452H70.3353ZM69.9594 17.9387H71.2554V16.6887H69.9594V17.9387ZM70.875 17.5605V26.0152H72.125V17.5605H70.875ZM71.2554 25.6371H69.9594V26.8871H71.2554V25.6371ZM70.3375 26.0152V17.5605H69.0875V26.0152H70.3375ZM69.9594 25.6371C70.1682 25.6371 70.3375 25.8064 70.3375 26.0152H69.0875C69.0875 26.4967 69.4779 26.8871 69.9594 26.8871V25.6371ZM70.875 26.0152C70.875 25.8137 71.0392 25.6371 71.2554 25.6371V26.8871C71.7442 26.8871 72.125 26.4893 72.125 26.0152H70.875ZM71.2554 17.9387C71.0392 17.9387 70.875 17.762 70.875 17.5605H72.125C72.125 17.0864 71.7442 16.6887 71.2554 16.6887V17.9387ZM69.9594 16.6887C69.4779 16.6887 69.0875 17.079 69.0875 17.5605H70.3375C70.3375 17.7694 70.1682 17.9387 69.9594 17.9387V16.6887ZM52.7496 17.9387H54.0374V16.6887H52.7496V17.9387ZM53.6593 17.5605V26.0152H54.9093V17.5605H53.6593ZM54.0374 25.6371H52.7496V26.8871H54.0374V25.6371ZM53.125 26.0152V17.5605H51.875V26.0152H53.125ZM52.7496 25.6371C52.9495 25.6371 53.125 25.7975 53.125 26.0152H51.875C51.875 26.5056 52.277 26.8871 52.7496 26.8871V25.6371ZM53.6593 26.0152C53.6593 25.8064 53.8286 25.6371 54.0374 25.6371V26.8871C54.519 26.8871 54.9093 26.4967 54.9093 26.0152H53.6593ZM54.0374 17.9387C53.8286 17.9387 53.6593 17.7694 53.6593 17.5605H54.9093C54.9093 17.079 54.519 16.6887 54.0374 16.6887V17.9387ZM52.7496 16.6887C52.277 16.6887 51.875 17.0701 51.875 17.5605H53.125C53.125 17.7783 52.9495 17.9387 52.7496 17.9387V16.6887ZM63.4375 31.2505C63.7732 31.4537 64.3244 31.6584 64.9131 31.5651C65.5647 31.4618 66.1261 31.0159 66.4318 30.1753L65.2571 29.748C65.0848 30.2219 64.8601 30.3079 64.7175 30.3305C64.512 30.3631 64.2606 30.2875 64.0849 30.1812L63.4375 31.2505ZM66.4318 30.1753C66.4629 30.0899 66.5181 29.918 66.5445 29.8221L65.3393 29.4904C65.322 29.5531 65.2771 29.6931 65.2571 29.748L66.4318 30.1753Z" fill="#111111"/>
</g>
<g id="Size=24px, Filled=false" clip-path="url(#clip2_2046_337)">
<path id="Vector_4" d="M94.6728 28.5629C94.3425 28.313 93.8721 28.3781 93.6221 28.7084C93.3722 29.0387 93.4373 29.5091 93.7676 29.759L94.6728 28.5629ZM98.132 32.1214L97.6794 32.7195C97.7001 32.7351 97.7215 32.7496 97.7436 32.763L98.132 32.1214ZM96.6481 26.6631C96.3224 26.4072 95.8509 26.4639 95.595 26.7896C95.3392 27.1154 95.3958 27.5868 95.7216 27.8427L96.6481 26.6631ZM100.097 30.3254L99.6334 30.9152C99.6572 30.9339 99.6822 30.9512 99.7082 30.9669L100.097 30.3254ZM102.482 29.7287L103.149 30.0705V30.0705L102.482 29.7287ZM93.4709 31.4648L93.9795 30.9136C93.9742 30.9087 93.9688 30.9039 93.9634 30.8991L93.4709 31.4648ZM102.971 28.9733L102.498 29.5557C102.672 29.6964 102.899 29.7525 103.118 29.7087L102.971 28.9733ZM98.6439 24.4971C98.3222 24.2362 97.8499 24.2854 97.589 24.607C97.328 24.9287 97.3772 25.401 97.6989 25.662L98.6439 24.4971ZM105.334 16.93H106.084V16.18H105.334V16.93ZM102.834 16.246L102.603 16.9593L102.834 16.246ZM93.3509 17.4011L92.7809 16.9136L93.3509 17.4011ZM90.6641 20.7413L89.9969 20.3987L89.7797 20.8218L90.0698 21.1987L90.6641 20.7413ZM95.1292 20.8662L95.6024 21.4481L95.6285 21.4268L95.6526 21.4034L95.1292 20.8662ZM96.3146 19.7111L96.7921 19.1328L96.2732 18.7043L95.7912 19.174L96.3146 19.7111ZM104.79 26.7096L104.313 27.2879L104.521 27.4596H104.79V26.7096ZM105.334 26.7096V27.4596H106.084V26.7096H105.334ZM100.654 31.2084L101.359 31.4648L100.654 31.2084ZM86.6599 17.7827H93.7569V16.2827H86.6599V17.7827ZM93.7676 29.759L97.6794 32.7195L98.5846 31.5234L94.6728 28.5629L93.7676 29.759ZM95.7216 27.8427L99.6334 30.9152L100.56 29.7355L96.6481 26.6631L95.7216 27.8427ZM99.7082 30.9669C100.088 31.1971 100.685 31.4224 101.333 31.3661C102.039 31.3047 102.718 30.9135 103.149 30.0705L101.814 29.387C101.616 29.7746 101.389 29.8555 101.203 29.8717C100.96 29.8929 100.679 29.8013 100.485 29.6838L99.7082 30.9669ZM103.149 30.0705C103.24 29.8942 103.436 29.4734 103.519 29.1702L102.073 28.772C102.056 28.8343 102.015 28.944 101.958 29.0764C101.904 29.2025 101.848 29.32 101.814 29.387L103.149 30.0705ZM86.2689 26.1885L92.9784 32.0304L93.9634 30.8991L87.2538 25.0573L86.2689 26.1885ZM92.9623 32.016C93.4445 32.461 94.2702 33.0284 95.2218 33.2907C96.198 33.5598 97.3833 33.519 98.3831 32.5965L97.3659 31.4941C96.8559 31.9647 96.2588 32.0206 95.6203 31.8446C94.9573 31.6619 94.336 31.2426 93.9795 30.9136L92.9623 32.016ZM103.794 26.8185C103.979 27.1889 103.961 27.3992 103.931 27.5066C103.896 27.6266 103.808 27.7506 103.641 27.8753C103.474 28.0006 103.27 28.0945 103.092 28.158C103.006 28.1887 102.933 28.2099 102.884 28.223C102.859 28.2295 102.841 28.2338 102.831 28.2362C102.825 28.2375 102.822 28.2382 102.821 28.2384C102.82 28.2386 102.82 28.2386 102.821 28.2385C102.821 28.2384 102.821 28.2384 102.822 28.2383C102.822 28.2382 102.822 28.2381 102.823 28.2381C102.823 28.238 102.823 28.238 102.823 28.238C102.823 28.2379 102.824 28.2379 102.971 28.9733C103.118 29.7087 103.118 29.7087 103.119 29.7086C103.119 29.7086 103.119 29.7085 103.119 29.7085C103.12 29.7084 103.12 29.7083 103.121 29.7081C103.122 29.7079 103.123 29.7076 103.125 29.7073C103.128 29.7068 103.131 29.706 103.135 29.7051C103.143 29.7034 103.154 29.7011 103.166 29.6982C103.192 29.6923 103.226 29.684 103.268 29.673C103.351 29.6511 103.465 29.6178 103.597 29.5706C103.854 29.4786 104.211 29.3234 104.541 29.0753C104.873 28.8264 105.22 28.4523 105.373 27.9187C105.529 27.3724 105.449 26.7733 105.136 26.1477L103.794 26.8185ZM103.443 28.3909L98.6439 24.4971L97.6989 25.662L102.498 29.5557L103.443 28.3909ZM105.334 16.18C105.143 16.18 104.954 16.1473 104.613 16.0436C104.243 15.9314 103.813 15.7753 103.066 15.5327L102.603 16.9593C103.278 17.1788 103.801 17.3646 104.177 17.4789C104.581 17.6017 104.931 17.68 105.334 17.68V16.18ZM103.066 15.5327C102.2 15.2516 100.468 14.6353 98.5675 14.5581C96.643 14.48 94.459 14.9515 92.7809 16.9136L93.9209 17.8886C95.2064 16.3855 96.875 15.9907 98.5067 16.0569C100.162 16.1241 101.69 16.6629 102.603 16.9593L103.066 15.5327ZM92.7809 16.9136C91.5905 18.3056 91.1068 18.8063 90.7765 19.1836C90.4142 19.5976 90.302 19.8046 89.9969 20.3987L91.3313 21.0838C91.6193 20.5229 91.6651 20.4459 91.9052 20.1716C92.1773 19.8607 92.7405 19.2688 93.9209 17.8886L92.7809 16.9136ZM90.0698 21.1987C90.6124 21.9037 91.2583 22.3024 91.9376 22.4648C92.6021 22.6237 93.2417 22.5432 93.7711 22.3907C94.3009 22.2381 94.7539 22.0039 95.069 21.8137C95.2284 21.7175 95.357 21.6299 95.4476 21.5648C95.4931 21.5322 95.5292 21.5051 95.5553 21.4851C95.5683 21.4751 95.5788 21.4669 95.5867 21.4606C95.5906 21.4575 95.5939 21.4549 95.5965 21.4528C95.5978 21.4517 95.599 21.4508 95.6 21.45C95.6005 21.4496 95.6009 21.4493 95.6013 21.4489C95.6015 21.4488 95.6018 21.4486 95.6019 21.4485C95.6021 21.4483 95.6024 21.4481 95.1292 20.8662C94.6559 20.2843 94.6562 20.2841 94.6564 20.284C94.6565 20.2839 94.6567 20.2838 94.6568 20.2837C94.657 20.2835 94.6572 20.2833 94.6574 20.2832C94.6577 20.2829 94.6579 20.2828 94.6579 20.2828C94.6579 20.2827 94.6573 20.2832 94.6561 20.2842C94.6537 20.2861 94.6489 20.2898 94.6419 20.2953C94.6277 20.3062 94.6044 20.3237 94.5728 20.3463C94.5096 20.3917 94.4144 20.4568 94.2941 20.5294C94.0499 20.6768 93.72 20.8444 93.3558 20.9494C92.9912 21.0544 92.6257 21.0871 92.2863 21.0059C91.9617 20.9283 91.6049 20.734 91.2585 20.2838L90.0698 21.1987ZM95.6526 21.4034L96.838 20.2483L95.7912 19.174L94.6058 20.329L95.6526 21.4034ZM95.8371 20.2894L104.313 27.2879L105.268 26.1312L96.7921 19.1328L95.8371 20.2894ZM104.79 27.4596H105.334V25.9596H104.79V27.4596ZM106.084 26.7096V16.93H104.584V26.7096H106.084ZM105.635 16.6477H107.204V15.1477H105.635V16.6477ZM106.75 16.1965V26.4312H108.25V16.1965H106.75ZM107.204 25.98H105.635V27.48H107.204V25.98ZM106.086 26.4312V16.1965H104.586V26.4312H106.086ZM105.635 25.98C105.884 25.98 106.086 26.182 106.086 26.4312H104.586C104.586 27.0104 105.056 27.48 105.635 27.48V25.98ZM106.75 26.4312C106.75 26.1908 106.946 25.98 107.204 25.98V27.48C107.792 27.48 108.25 27.0015 108.25 26.4312H106.75ZM107.204 16.6477C106.946 16.6477 106.75 16.4369 106.75 16.1965H108.25C108.25 15.6262 107.792 15.1477 107.204 15.1477V16.6477ZM105.635 15.1477C105.056 15.1477 104.586 15.6173 104.586 16.1965H106.086C106.086 16.4457 105.884 16.6477 105.635 16.6477V15.1477ZM84.8021 16.6477H86.3611V15.1477H84.8021V16.6477ZM85.9099 16.1965V26.4312H87.4099V16.1965H85.9099ZM86.3611 25.98H84.8021V27.48H86.3611V25.98ZM85.25 26.4312V16.1965H83.75V26.4312H85.25ZM84.8021 25.98C85.0406 25.98 85.25 26.1713 85.25 26.4312H83.75C83.75 27.0211 84.2336 27.48 84.8021 27.48V25.98ZM85.9099 26.4312C85.9099 26.182 86.1119 25.98 86.3611 25.98V27.48C86.9404 27.48 87.4099 27.0104 87.4099 26.4312H85.9099ZM86.3611 16.6477C86.1119 16.6477 85.9099 16.4457 85.9099 16.1965H87.4099C87.4099 15.6173 86.9404 15.1477 86.3611 15.1477V16.6477ZM84.8021 15.1477C84.2336 15.1477 83.75 15.6066 83.75 16.1965H85.25C85.25 16.4564 85.0406 16.6477 84.8021 16.6477V15.1477ZM97.7436 32.763C98.1491 33.0085 98.8147 33.2556 99.5254 33.1429C100.311 33.0184 100.989 32.4804 101.359 31.4648L99.949 30.952C99.7397 31.5277 99.466 31.6336 99.2906 31.6614C99.0398 31.7012 98.7339 31.6091 98.5205 31.4798L97.7436 32.763ZM101.359 31.4648C101.396 31.3616 101.463 31.1536 101.495 31.0378L100.049 30.6397C100.028 30.7157 99.9733 30.8855 99.949 30.952L101.359 31.4648Z" fill="#111111"/>
</g>
<g id="Size=32px, Filled=false">
<path id="Vector_5" d="M134.282 29.9421C133.842 29.6089 133.214 29.6957 132.881 30.1361C132.548 30.5765 132.635 31.2036 133.075 31.5369L134.282 29.9421ZM138.781 34.601L138.177 35.3984C138.205 35.4192 138.233 35.4385 138.263 35.4564L138.781 34.601ZM136.859 27.4643C136.424 27.1231 135.796 27.1987 135.455 27.633C135.114 28.0673 135.189 28.696 135.623 29.0371L136.859 27.4643ZM141.343 32.2583L140.726 33.0447C140.758 33.0697 140.791 33.0927 140.826 33.1137L141.343 32.2583ZM144.454 31.4801L145.344 31.9357L145.344 31.9357L144.454 31.4801ZM132.701 33.7445L133.379 33.0095C133.372 33.003 133.365 32.9966 133.358 32.9903L132.701 33.7445ZM145.092 30.4947L144.462 31.2713C144.694 31.4589 144.996 31.5337 145.288 31.4753L145.092 30.4947ZM139.462 24.6394C139.033 24.2914 138.404 24.357 138.056 24.7859C137.708 25.2148 137.773 25.8445 138.202 26.1925L139.462 24.6394ZM148.174 14.786H149.174V13.786H148.174V14.786ZM144.914 13.8939L144.605 14.845L144.914 13.8939ZM132.545 15.4005L131.785 14.7506L132.545 15.4005ZM129.04 19.7573L128.151 19.3006L127.861 19.8647L128.248 20.3672L129.04 19.7573ZM134.864 19.9202L135.495 20.696L135.53 20.6677L135.562 20.6364L134.864 19.9202ZM136.41 18.4136L137.047 17.6425L136.355 17.0712L135.712 17.6974L136.41 18.4136ZM147.465 27.542L146.829 28.3131L147.106 28.542H147.465V27.542ZM148.174 27.542V28.542H149.174V27.542H148.174ZM142.07 33.4101L143.01 33.7519L142.07 33.4101ZM123.817 15.92H133.074V13.92H123.817V15.92ZM133.075 31.5369L138.177 35.3984L139.384 33.8036L134.282 29.9421L133.075 31.5369ZM135.623 29.0371L140.726 33.0447L141.961 31.4718L136.859 27.4643L135.623 29.0371ZM140.826 33.1137C141.324 33.4155 142.107 33.7114 142.958 33.6374C143.886 33.5567 144.778 33.0419 145.344 31.9357L143.564 31.0244C143.309 31.5234 143.02 31.6244 142.785 31.6449C142.473 31.672 142.112 31.5545 141.861 31.4028L140.826 33.1137ZM145.344 31.9357C145.462 31.7055 145.719 31.155 145.829 30.7572L143.901 30.2264C143.879 30.3061 143.826 30.4481 143.752 30.6206C143.681 30.7847 143.609 30.9375 143.564 31.0244L145.344 31.9357ZM123.293 26.8788L132.044 34.4987L133.358 32.9903L124.606 25.3704L123.293 26.8788ZM132.023 34.4794C132.654 35.0615 133.734 35.8038 134.979 36.1471C136.257 36.4994 137.812 36.4464 139.123 35.2365L137.767 33.7667C137.109 34.374 136.338 34.4471 135.511 34.219C134.65 33.9818 133.843 33.437 133.379 33.0095L132.023 34.4794ZM146.147 27.6939C146.386 28.1733 146.361 28.4419 146.323 28.5756C146.28 28.7262 146.168 28.8843 145.954 29.0451C145.738 29.2069 145.474 29.3284 145.243 29.4108C145.132 29.4506 145.037 29.4781 144.974 29.495C144.942 29.5034 144.918 29.509 144.905 29.5121C144.898 29.5137 144.894 29.5146 144.892 29.5149C144.891 29.5151 144.891 29.5151 144.892 29.515C144.892 29.5149 144.893 29.5148 144.894 29.5147C144.894 29.5146 144.894 29.5145 144.895 29.5144C144.895 29.5144 144.895 29.5143 144.895 29.5143C144.896 29.5142 144.896 29.5141 145.092 30.4947C145.288 31.4753 145.289 31.4752 145.289 31.4751C145.289 31.4751 145.29 31.475 145.29 31.4749C145.291 31.4748 145.292 31.4746 145.292 31.4745C145.294 31.4742 145.296 31.4738 145.297 31.4735C145.301 31.4727 145.306 31.4717 145.311 31.4706C145.322 31.4683 145.336 31.4652 145.352 31.4614C145.386 31.4537 145.431 31.4429 145.485 31.4284C145.594 31.3996 145.743 31.356 145.916 31.2943C146.253 31.1738 146.72 30.9705 147.154 30.6451C147.589 30.3187 148.046 29.8271 148.246 29.1251C148.452 28.4062 148.346 27.6192 147.936 26.7994L146.147 27.6939ZM145.722 29.7181L139.462 24.6394L138.202 26.1925L144.462 31.2713L145.722 29.7181ZM148.174 13.786C147.929 13.786 147.685 13.7441 147.241 13.6091C146.759 13.4628 146.198 13.2595 145.223 12.9428L144.605 14.845C145.486 15.1309 146.169 15.3738 146.66 15.5228C147.188 15.6832 147.646 15.786 148.174 15.786V13.786ZM145.223 12.9428C144.095 12.5764 141.832 11.7714 139.35 11.6706C136.835 11.5685 133.979 12.1846 131.785 14.7506L133.305 16.0505C134.976 14.0966 137.145 13.5827 139.269 13.669C141.425 13.7565 143.414 14.4581 144.605 14.845L145.223 12.9428ZM131.785 14.7506C130.232 16.5664 129.602 17.2181 129.17 17.7113C128.696 18.2532 128.549 18.5251 128.151 19.3006L129.93 20.214C130.305 19.4829 130.364 19.3843 130.675 19.0285C131.029 18.6239 131.765 17.8506 133.305 16.0505L131.785 14.7506ZM128.248 20.3672C128.958 21.2904 129.805 21.8135 130.696 22.0266C131.568 22.2349 132.406 22.1292 133.099 21.9296C133.792 21.7299 134.385 21.4234 134.797 21.1747C135.005 21.0489 135.174 20.9343 135.292 20.8491C135.352 20.8065 135.399 20.7709 135.433 20.7447C135.45 20.7316 135.464 20.7208 135.474 20.7126C135.48 20.7085 135.484 20.7051 135.487 20.7023C135.489 20.7009 135.491 20.6997 135.492 20.6986C135.493 20.6981 135.493 20.6976 135.494 20.6972C135.494 20.697 135.494 20.6967 135.494 20.6966C135.495 20.6963 135.495 20.696 134.864 19.9202C134.233 19.1444 134.233 19.1442 134.234 19.1439C134.234 19.1439 134.234 19.1436 134.234 19.1435C134.235 19.1432 134.235 19.143 134.235 19.1428C134.236 19.1425 134.236 19.1423 134.236 19.1423C134.236 19.1422 134.235 19.1428 134.234 19.144C134.231 19.1464 134.224 19.1513 134.215 19.1583C134.197 19.1724 134.167 19.1951 134.126 19.2245C134.044 19.2834 133.92 19.3679 133.764 19.4623C133.446 19.6539 133.018 19.8717 132.545 20.0078C132.072 20.1441 131.599 20.1861 131.161 20.0814C130.743 19.9814 130.282 19.7308 129.833 19.1473L128.248 20.3672ZM135.562 20.6364L137.108 19.1298L135.712 17.6974L134.166 19.204L135.562 20.6364ZM135.774 19.1847L146.829 28.3131L148.102 26.7709L137.047 17.6425L135.774 19.1847ZM147.465 28.542H148.174V26.542H147.465V28.542ZM149.174 27.542V14.786H147.174V27.542H149.174ZM148.567 14.4396H150.614V12.4396H148.567V14.4396ZM150 13.8294V27.1789H152V13.8294H150ZM150.614 26.5686H148.567V28.5686H150.614V26.5686ZM149.178 27.1789V13.8294H147.178V27.1789H149.178ZM148.567 26.5686C148.904 26.5686 149.178 26.8418 149.178 27.1789H147.178C147.178 27.9464 147.8 28.5686 148.567 28.5686V26.5686ZM150 27.1789C150 26.8537 150.265 26.5686 150.614 26.5686V28.5686C151.393 28.5686 152 27.9346 152 27.1789H150ZM150.614 14.4396C150.265 14.4396 150 14.1546 150 13.8294H152C152 13.0736 151.393 12.4396 150.614 12.4396V14.4396ZM148.567 12.4396C147.8 12.4396 147.178 13.0618 147.178 13.8294H149.178C149.178 14.1664 148.904 14.4396 148.567 14.4396V12.4396ZM121.394 14.4396H123.428V12.4396H121.394V14.4396ZM122.817 13.8294V27.1789H124.817V13.8294H122.817ZM123.428 26.5686H121.394V28.5686H123.428V26.5686ZM122 27.1789V13.8294H120V27.1789H122ZM121.394 26.5686C121.717 26.5686 122 26.8276 122 27.1789H120C120 27.9606 120.641 28.5686 121.394 28.5686V26.5686ZM122.817 27.1789C122.817 26.8418 123.091 26.5686 123.428 26.5686V28.5686C124.195 28.5686 124.817 27.9464 124.817 27.1789H122.817ZM123.428 14.4396C123.091 14.4396 122.817 14.1664 122.817 13.8294H124.817C124.817 13.0618 124.195 12.4396 123.428 12.4396V14.4396ZM121.394 12.4396C120.641 12.4396 120 13.0476 120 13.8294H122C122 14.1806 121.717 14.4396 121.394 14.4396V12.4396ZM138.263 35.4564C138.795 35.7783 139.668 36.1028 140.602 35.9548C141.636 35.791 142.526 35.083 143.01 33.7519L141.13 33.0682C140.86 33.8127 140.509 33.9446 140.289 33.9795C139.968 34.0303 139.574 33.9124 139.299 33.7455L138.263 35.4564ZM143.01 33.7519C143.059 33.6167 143.146 33.345 143.188 33.1933L141.26 32.6625C141.233 32.7611 141.162 32.9819 141.13 33.0682L143.01 33.7519Z" fill="#111111"/>
</g>
<g id="Size=40px, Filled=false" clip-path="url(#clip3_2046_337)">
<path id="Vector_6" d="M181.814 30.544C181.263 30.1274 180.479 30.2359 180.063 30.7864C179.646 31.3369 179.755 32.1208 180.305 32.5374L181.814 30.544ZM187.522 36.4319L186.768 37.4286C186.803 37.4546 186.838 37.4788 186.875 37.5011L187.522 36.4319ZM185.078 27.4051C184.535 26.9787 183.749 27.0731 183.322 27.616C182.896 28.159 182.99 28.9448 183.533 29.3712L185.078 27.4051ZM190.768 33.4644L189.996 34.4475C190.036 34.4787 190.078 34.5075 190.121 34.5337L190.768 33.4644ZM194.709 32.4787L195.822 33.0483V33.0483L194.709 32.4787ZM179.821 35.347L180.669 34.4283C180.66 34.4201 180.651 34.4121 180.642 34.4042L179.821 35.347ZM195.517 31.2306L194.729 32.2013C195.019 32.4358 195.397 32.5293 195.762 32.4563L195.517 31.2306ZM188.375 23.8268C187.839 23.3918 187.052 23.4738 186.617 24.0099C186.182 24.5461 186.264 25.3333 186.8 25.7682L188.375 23.8268ZM199.421 11.3329H200.671V10.0829H199.421V11.3329ZM195.291 10.2029L194.905 11.3918V11.3918L195.291 10.2029ZM179.623 12.1113L178.673 11.2989L179.623 12.1113ZM175.184 17.6299L174.072 17.059L173.71 17.7642L174.194 18.3923L175.184 17.6299ZM182.561 17.8363L183.35 18.806L183.393 18.7707L183.434 18.7315L182.561 17.8363ZM184.52 15.9279L185.316 14.964L184.451 14.2498L183.647 15.0326L184.52 15.9279ZM198.523 27.4905L197.727 28.4544L198.074 28.7405H198.523V27.4905ZM199.421 27.4905V28.7405H200.671V27.4905H199.421ZM191.689 34.9234L192.864 35.3507L191.689 34.9234ZM168.569 12.7527H180.294V10.2527H168.569V12.7527ZM180.305 32.5374L186.768 37.4286L188.277 35.4351L181.814 30.544L180.305 32.5374ZM183.533 29.3712L189.996 34.4475L191.54 32.4814L185.078 27.4051L183.533 29.3712ZM190.121 34.5337C190.75 34.9147 191.739 35.2881 192.812 35.1947C193.982 35.093 195.107 34.4443 195.822 33.0483L193.596 31.9091C193.27 32.5463 192.899 32.6777 192.596 32.7041C192.196 32.7388 191.735 32.5885 191.416 32.3951L190.121 34.5337ZM195.822 33.0483C195.971 32.7568 196.296 32.0608 196.434 31.5587L194.023 30.8952C193.995 30.9973 193.928 31.178 193.834 31.3967C193.745 31.6049 193.653 31.7987 193.596 31.9091L195.822 33.0483ZM167.915 26.6379L179.001 36.2897L180.642 34.4042L169.557 24.7524L167.915 26.6379ZM178.974 36.2656C179.771 37.0016 181.137 37.9403 182.711 38.3742C184.327 38.8194 186.289 38.7521 187.945 37.2247L186.249 35.3873C185.41 36.1616 184.428 36.2541 183.376 35.9641C182.282 35.6627 181.257 34.971 180.669 34.4283L178.974 36.2656ZM196.867 27.6754C197.173 28.2856 197.142 28.6301 197.092 28.8044C197.036 28.9997 196.892 29.2027 196.618 29.4077C196.343 29.614 196.007 29.7686 195.714 29.8734C195.572 29.924 195.452 29.9589 195.371 29.9804C195.33 29.9911 195.3 29.9983 195.283 30.0023C195.274 30.0043 195.269 30.0054 195.267 30.0059C195.266 30.0061 195.266 30.0061 195.267 30.0059C195.267 30.0058 195.268 30.0057 195.269 30.0055C195.269 30.0054 195.269 30.0053 195.27 30.0052C195.27 30.0052 195.271 30.0051 195.271 30.0051C195.271 30.005 195.272 30.0049 195.517 31.2306C195.762 32.4563 195.763 32.4562 195.763 32.4561C195.763 32.4561 195.764 32.4559 195.764 32.4559C195.765 32.4557 195.766 32.4555 195.767 32.4553C195.769 32.455 195.771 32.4545 195.773 32.454C195.778 32.453 195.784 32.4518 195.791 32.4504C195.804 32.4475 195.822 32.4436 195.843 32.4388C195.885 32.4291 195.942 32.4154 196.01 32.3972C196.148 32.3608 196.336 32.3058 196.555 32.2278C196.981 32.0754 197.571 31.8186 198.118 31.4077C198.668 30.9957 199.243 30.3758 199.496 29.4912C199.755 28.5854 199.621 27.5929 199.104 26.5574L196.867 27.6754ZM196.305 30.2599L188.375 23.8268L186.8 25.7682L194.729 32.2013L196.305 30.2599ZM199.421 10.0829C199.107 10.0829 198.797 10.0293 198.233 9.85812C197.623 9.67274 196.912 9.41497 195.678 9.01406L194.905 11.3918C196.021 11.7542 196.885 12.0615 197.507 12.2503C198.175 12.4533 198.754 12.5829 199.421 12.5829V10.0829ZM195.678 9.01406C194.248 8.54975 191.384 7.53095 188.242 7.40338C185.061 7.2742 181.449 8.05372 178.673 11.2989L180.573 12.9237C182.694 10.4437 185.447 9.79196 188.141 9.90132C190.875 10.0123 193.397 10.9019 194.905 11.3918L195.678 9.01406ZM178.673 11.2989C176.706 13.5988 175.908 14.4253 175.362 15.0492C174.762 15.7341 174.576 16.0771 174.072 17.059L176.296 18.2008C176.772 17.2743 176.847 17.148 177.243 16.6958C177.692 16.1826 178.623 15.204 180.573 12.9237L178.673 11.2989ZM174.194 18.3923C175.092 19.5588 176.161 20.2192 177.286 20.4881C178.386 20.7511 179.445 20.6178 180.32 20.3655C181.197 20.113 181.946 19.7255 182.468 19.411C182.731 19.252 182.944 19.107 183.094 18.9993C183.169 18.9454 183.229 18.9005 183.272 18.8674C183.293 18.8508 183.311 18.8372 183.324 18.8269C183.33 18.8217 183.336 18.8174 183.34 18.8139C183.342 18.8121 183.344 18.8106 183.346 18.8093C183.347 18.8086 183.347 18.808 183.348 18.8075C183.348 18.8072 183.349 18.8069 183.349 18.8067C183.35 18.8064 183.35 18.806 182.561 17.8363C181.773 16.8665 181.773 16.8662 181.773 16.8659C181.773 16.8658 181.774 16.8655 181.774 16.8654C181.774 16.865 181.775 16.8648 181.775 16.8645C181.775 16.8641 181.776 16.8639 181.776 16.8638C181.776 16.8638 181.775 16.8646 181.773 16.8661C181.769 16.8692 181.761 16.8754 181.749 16.8844C181.726 16.9023 181.688 16.9312 181.636 16.9685C181.531 17.0434 181.374 17.1507 181.176 17.2705C180.773 17.5137 180.229 17.7902 179.628 17.9632C179.027 18.1364 178.425 18.1901 177.867 18.0566C177.333 17.929 176.746 17.6093 176.175 16.8674L174.194 18.3923ZM183.434 18.7315L185.392 16.8231L183.647 15.0326L181.689 16.941L183.434 18.7315ZM183.724 16.8917L197.727 28.4544L199.319 26.5266L185.316 14.964L183.724 16.8917ZM198.523 28.7405H199.421V26.2405H198.523V28.7405ZM200.671 27.4905V11.3329H198.171V27.4905H200.671ZM199.919 10.8775H202.511V8.37748H199.919V10.8775ZM201.75 10.1212V27.0305H204.25V10.1212H201.75ZM202.511 26.2742H199.919V28.7742H202.511V26.2742ZM200.675 27.0305V10.1212H198.175V27.0305H200.675ZM199.919 26.2742C200.336 26.2742 200.675 26.6128 200.675 27.0305H198.175C198.175 27.9936 198.956 28.7742 199.919 28.7742V26.2742ZM201.75 27.0305C201.75 26.6276 202.078 26.2742 202.511 26.2742V28.7742C203.488 28.7742 204.25 27.9788 204.25 27.0305H201.75ZM202.511 10.8775C202.078 10.8775 201.75 10.5241 201.75 10.1212H204.25C204.25 9.17293 203.488 8.37748 202.511 8.37748V10.8775ZM199.919 8.37748C198.956 8.37748 198.175 9.15816 198.175 10.1212H200.675C200.675 10.5389 200.336 10.8775 199.919 10.8775V8.37748ZM165.499 10.8775H168.075V8.37748H165.499V10.8775ZM167.319 10.1212V27.0305H169.819V10.1212H167.319ZM168.075 26.2742H165.499V28.7742H168.075V26.2742ZM166.25 27.0305V10.1212H163.75V27.0305H166.25ZM165.499 26.2742C165.899 26.2742 166.25 26.5951 166.25 27.0305H163.75C163.75 28.0113 164.554 28.7742 165.499 28.7742V26.2742ZM167.319 27.0305C167.319 26.6128 167.657 26.2742 168.075 26.2742V28.7742C169.038 28.7742 169.819 27.9936 169.819 27.0305H167.319ZM168.075 10.8775C167.657 10.8775 167.319 10.5389 167.319 10.1212H169.819C169.819 9.15817 169.038 8.37748 168.075 8.37748V10.8775ZM165.499 8.37748C164.554 8.37748 163.75 9.14041 163.75 10.1212H166.25C166.25 10.5566 165.899 10.8775 165.499 10.8775V8.37748ZM186.875 37.5011C187.546 37.9076 188.649 38.3169 189.826 38.1303C191.129 37.9238 192.252 37.0319 192.864 35.3507L190.514 34.4961C190.17 35.444 189.72 35.6159 189.435 35.6611C189.024 35.7263 188.521 35.5752 188.17 35.3626L186.875 37.5011ZM192.864 35.3507C192.926 35.1799 193.036 34.8361 193.089 34.6444L190.679 33.9808C190.644 34.1063 190.554 34.3864 190.514 34.4961L192.864 35.3507Z" fill="#111111"/>
</g>
<g id="Size=48px, Filled=false" clip-path="url(#clip4_2046_337)">
<path id="Vector_7" d="M237.346 33.1358C236.685 32.6359 235.744 32.7661 235.244 33.4267C234.744 34.0873 234.875 35.028 235.535 35.528L237.346 33.1358ZM244.264 40.2527L243.359 41.4488C243.4 41.48 243.443 41.5091 243.487 41.5359L244.264 40.2527ZM241.296 29.336C240.645 28.8243 239.702 28.9376 239.19 29.5891C238.678 30.2406 238.792 31.1836 239.443 31.6953L241.296 29.336ZM248.193 36.6606L247.267 37.8402C247.314 37.8777 247.364 37.9123 247.416 37.9438L248.193 36.6606ZM252.963 35.4673L254.299 36.1508V36.1508L252.963 35.4673ZM234.942 38.9395L235.959 37.837C235.948 37.8273 235.938 37.8176 235.927 37.8082L234.942 38.9395ZM253.942 33.9565L252.997 35.1213C253.343 35.4028 253.798 35.5149 254.236 35.4273L253.942 33.9565ZM245.288 25.0042C244.644 24.4822 243.7 24.5806 243.178 25.224C242.656 25.8673 242.754 26.8119 243.398 27.3339L245.288 25.0042ZM258.667 9.86985H260.167V8.36985H258.667V9.86985ZM253.668 8.50192L253.205 9.92856L253.668 8.50192ZM234.702 10.8121L233.562 9.83716L234.702 10.8121ZM229.328 17.4924L227.994 16.8074L227.559 17.6536L228.14 18.4074L229.328 17.4924ZM238.258 17.7423L239.205 18.906L239.257 18.8636L239.305 18.8166L238.258 17.7423ZM240.629 15.4321L241.584 14.2755L240.546 13.4185L239.582 14.3578L240.629 15.4321ZM257.58 29.429L256.625 30.5857L257.041 30.929H257.58V29.429ZM258.667 29.429V30.929H260.167V29.429H258.667ZM249.308 38.4267L250.717 38.9394L249.308 38.4267ZM221.32 11.5753H235.514V8.57531H221.32V11.5753ZM235.535 35.528L243.359 41.4488L245.169 39.0566L237.346 33.1358L235.535 35.528ZM239.443 31.6953L247.267 37.8402L249.12 35.481L241.296 29.336L239.443 31.6953ZM247.416 37.9438C248.177 38.404 249.37 38.8548 250.666 38.742C252.077 38.6193 253.436 37.8368 254.299 36.1508L251.628 34.7839C251.231 35.5591 250.778 35.7209 250.406 35.7533C249.92 35.7957 249.358 35.6125 248.97 35.3775L247.416 37.9438ZM254.299 36.1508C254.479 35.7982 254.872 34.9567 255.039 34.3502L252.146 33.5539C252.112 33.6784 252.03 33.8979 251.917 34.1627C251.809 34.415 251.697 34.6498 251.628 34.7839L254.299 36.1508ZM220.538 28.387L233.957 40.0707L235.927 37.8082L222.508 26.1244L220.538 28.387ZM233.925 40.0419C234.889 40.9318 236.54 42.0668 238.444 42.5913C240.396 43.1295 242.767 43.0478 244.766 41.2028L242.732 38.998C241.712 39.9392 240.518 40.0511 239.241 39.6992C237.915 39.3337 236.672 38.495 235.959 37.837L233.925 40.0419ZM255.588 29.6469C255.959 30.3878 255.922 30.8083 255.861 31.0231C255.792 31.2631 255.615 31.5111 255.283 31.7604C254.948 32.0112 254.54 32.1988 254.184 32.326C254.012 32.3873 253.867 32.4297 253.768 32.4558C253.719 32.4688 253.682 32.4775 253.661 32.4824C253.651 32.4848 253.644 32.4863 253.642 32.4868C253.64 32.487 253.64 32.4871 253.641 32.4869C253.642 32.4868 253.642 32.4866 253.643 32.4864C253.644 32.4863 253.645 32.4862 253.645 32.486C253.646 32.486 253.646 32.4859 253.646 32.4858C253.647 32.4857 253.647 32.4856 253.942 33.9565C254.236 35.4273 254.236 35.4272 254.237 35.4271C254.237 35.427 254.238 35.4269 254.238 35.4268C254.239 35.4266 254.24 35.4264 254.242 35.4262C254.244 35.4257 254.246 35.4252 254.249 35.4246C254.255 35.4234 254.262 35.4219 254.27 35.4202C254.286 35.4167 254.307 35.4121 254.333 35.4062C254.384 35.3946 254.452 35.378 254.536 35.3559C254.701 35.312 254.929 35.2455 255.193 35.1512C255.709 34.967 256.421 34.6567 257.083 34.1604C257.746 33.6626 258.441 32.9145 258.746 31.8472C259.058 30.7547 258.897 29.5566 258.271 28.3053L255.588 29.6469ZM254.887 32.7916L245.288 25.0042L243.398 27.3339L252.997 35.1213L254.887 32.7916ZM258.667 8.36985C258.286 8.36985 257.909 8.30451 257.226 8.09712C256.487 7.8727 255.625 7.5604 254.132 7.07529L253.205 9.92856C254.557 10.3675 255.602 10.7392 256.354 10.9677C257.163 11.2133 257.862 11.3698 258.667 11.3698V8.36985ZM254.132 7.07529C252.401 6.51309 248.936 5.28049 245.135 5.12616C241.286 4.96988 236.918 5.91284 233.562 9.83716L235.842 11.787C238.413 8.78085 241.75 7.99119 245.013 8.12369C248.325 8.25812 251.38 9.33567 253.205 9.92856L254.132 7.07529ZM233.562 9.83716C231.181 12.6211 230.214 13.6224 229.553 14.3771C228.828 15.205 228.604 15.619 227.994 16.8074L230.663 18.1775C231.239 17.0557 231.33 16.9017 231.81 16.353C232.355 15.7312 233.481 14.5474 235.842 11.787L233.562 9.83716ZM228.14 18.4074C229.225 19.8172 230.517 20.6148 231.875 20.9396C233.204 21.2573 234.483 21.0964 235.542 20.7914C236.602 20.4861 237.508 20.0176 238.138 19.6373C238.457 19.445 238.714 19.2697 238.895 19.1395C238.986 19.0743 239.058 19.02 239.111 18.9801C239.137 18.9601 239.158 18.9436 239.173 18.9311C239.181 18.9249 239.188 18.9197 239.193 18.9154C239.196 18.9133 239.198 18.9115 239.2 18.9099C239.201 18.9091 239.202 18.9084 239.203 18.9078C239.203 18.9074 239.204 18.907 239.204 18.9068C239.204 18.9064 239.205 18.906 238.258 17.7423C237.312 16.5786 237.312 16.5782 237.313 16.5778C237.313 16.5777 237.313 16.5774 237.314 16.5772C237.314 16.5768 237.314 16.5765 237.315 16.5762C237.315 16.5757 237.316 16.5754 237.316 16.5754C237.316 16.5754 237.315 16.5763 237.312 16.5782C237.307 16.582 237.298 16.5895 237.284 16.6004C237.255 16.6222 237.209 16.6573 237.146 16.7026C237.019 16.7934 236.829 16.9235 236.588 17.0687C236.1 17.3634 235.44 17.6988 234.712 17.9086C233.982 18.1187 233.251 18.184 232.573 18.0218C231.923 17.8666 231.21 17.4778 230.517 16.5775L228.14 18.4074ZM239.305 18.8166L241.676 16.5064L239.582 14.3578L237.212 16.668L239.305 18.8166ZM239.674 16.5888L256.625 30.5857L258.535 28.2724L241.584 14.2755L239.674 16.5888ZM257.58 30.929H258.667V27.929H257.58V30.929ZM260.167 29.429V9.86985H257.167V29.429H260.167ZM259.27 9.30534H262.408V6.30534H259.27V9.30534ZM261.5 8.40298V28.8722H264.5V8.40298H261.5ZM262.408 27.9698H259.27V30.9698H262.408V27.9698ZM260.172 28.8722V8.40298H257.172V28.8722H260.172ZM259.27 27.9698C259.768 27.9698 260.172 28.3738 260.172 28.8722H257.172C257.172 30.0307 258.112 30.9698 259.27 30.9698V27.9698ZM261.5 28.8722C261.5 28.3915 261.892 27.9698 262.408 27.9698V30.9698C263.584 30.9698 264.5 30.013 264.5 28.8722H261.5ZM262.408 9.30534C261.892 9.30534 261.5 8.88363 261.5 8.40298H264.5C264.5 7.2622 263.584 6.30534 262.408 6.30534V9.30534ZM259.27 6.30534C258.112 6.30534 257.172 7.24448 257.172 8.40298H260.172C260.172 8.90135 259.768 9.30534 259.27 9.30534V6.30534ZM217.604 9.30534H220.722V6.30534H217.604V9.30534ZM219.82 8.40298V28.8722H222.82V8.40298H219.82ZM220.722 27.9698H217.604V30.9698H220.722V27.9698ZM218.5 28.8722V8.40298H215.5V28.8722H218.5ZM217.604 27.9698C218.081 27.9698 218.5 28.3525 218.5 28.8722H215.5C215.5 30.052 216.467 30.9698 217.604 30.9698V27.9698ZM219.82 28.8722C219.82 28.3738 220.224 27.9698 220.722 27.9698V30.9698C221.881 30.9698 222.82 30.0307 222.82 28.8722H219.82ZM220.722 9.30534C220.224 9.30534 219.82 8.90134 219.82 8.40298H222.82C222.82 7.24449 221.881 6.30534 220.722 6.30534V9.30534ZM217.604 6.30534C216.467 6.30534 215.5 7.22318 215.5 8.40298H218.5C218.5 8.92265 218.081 9.30534 217.604 9.30534V6.30534ZM243.487 41.5359C244.298 42.0269 245.629 42.521 247.051 42.2958C248.623 42.0466 249.979 40.9708 250.717 38.9394L247.898 37.914C247.479 39.0653 246.932 39.2772 246.581 39.3327C246.08 39.4122 245.468 39.228 245.041 38.9696L243.487 41.5359ZM250.717 38.9394C250.792 38.733 250.926 38.3171 250.99 38.0854L248.097 37.2892C248.055 37.4414 247.947 37.7808 247.898 37.914L250.717 38.9394Z" fill="#111111"/>
</g>
<g id="Size=12px, Filled=true">
<path id="Vector_8" d="M11.617 80.8811H10.5651C10.4058 80.8816 10.2486 80.9215 10.1055 80.9976C10.0895 81.0055 10.0721 81.0097 10.0545 81.0097C10.0368 81.0097 10.0194 81.0055 10.0034 80.9976L7.80766 80.1105C7.38482 79.9444 6.91867 79.9663 6.51064 80.1715L5.42809 80.7259C5.40884 80.7354 5.38795 80.7403 5.36681 80.7403C5.34567 80.7403 5.32478 80.7354 5.30553 80.7259C5.10281 80.5985 4.87587 80.5232 4.64217 80.5059C4.40847 80.4886 4.17422 80.5297 3.95745 80.6261L2.42553 81.3358C2.40016 81.3466 2.37235 81.3487 2.34585 81.3417C2.31936 81.3348 2.29548 81.3191 2.27745 81.297C2.1757 81.1665 2.04898 81.0617 1.90611 80.9899C1.76323 80.9181 1.60765 80.881 1.45021 80.8811H0.382979C0.281818 80.8826 0.185172 80.9268 0.113634 81.0045C0.0420966 81.0822 0.00132254 81.1871 0 81.297V86.564C0 86.6743 0.0403494 86.7801 0.112172 86.8581C0.183994 86.936 0.281406 86.9798 0.382979 86.9798H1.43489C1.60788 86.9811 1.77857 86.9368 1.9324 86.8509C2.08623 86.765 2.21863 86.6399 2.3183 86.4864C2.33044 86.4677 2.3465 86.4525 2.36514 86.4419C2.38379 86.4313 2.40448 86.4256 2.42553 86.4254H2.90043C2.92892 86.4256 2.9563 86.4375 2.97702 86.4587L4.40681 87.6729C4.49765 87.7765 4.60699 87.859 4.72814 87.9152C4.84929 87.9714 4.97973 88.0003 5.11149 88C5.34185 87.9985 5.565 87.9126 5.74468 87.7561L7.30213 86.3644C7.3181 86.3497 7.33756 86.3401 7.3583 86.3367L9.34979 85.9043C9.36493 85.8964 9.38151 85.8923 9.3983 85.8923C9.41509 85.8923 9.43166 85.8964 9.44681 85.9043C9.47385 85.9254 9.49218 85.9573 9.49787 85.993C9.54337 86.2641 9.67517 86.5093 9.87025 86.6856C10.0653 86.8619 10.3113 86.9582 10.5651 86.9577H11.617C11.7186 86.9577 11.816 86.9139 11.8878 86.8359C11.9597 86.7579 12 86.6521 12 86.5419V81.297C11.9987 81.1871 11.9579 81.0822 11.8864 81.0045C11.8148 80.9268 11.7182 80.8826 11.617 80.8811ZM7.41957 84.8287L5.21362 86.8302C5.19311 86.8472 5.16798 86.8565 5.14213 86.8565C5.11628 86.8565 5.09115 86.8472 5.07064 86.8302L3.44681 85.4385C3.35697 85.3603 3.24539 85.3173 3.13021 85.3166H2.65021C2.61636 85.3166 2.58388 85.302 2.55994 85.276C2.536 85.25 2.52255 85.2147 2.52255 85.178V82.5777C2.52247 82.5506 2.52967 82.5241 2.54328 82.5015C2.55689 82.4788 2.57631 82.461 2.59915 82.4502L4.32511 81.6518C4.34374 81.6401 4.36487 81.634 4.38638 81.634C4.4079 81.634 4.42903 81.6401 4.44766 81.6518C4.46609 81.6706 4.47813 81.6956 4.48184 81.7228C4.48555 81.7499 4.4807 81.7777 4.46809 81.8015C4.39871 82.1031 4.41654 82.4205 4.51915 82.7107C4.65432 83.0731 4.91559 83.3631 5.24632 83.5177C5.57705 83.6724 5.95059 83.6792 6.28596 83.5368L6.36766 83.498C6.39187 83.4878 6.41833 83.4855 6.44375 83.4914C6.46916 83.4973 6.49242 83.5112 6.51064 83.5313L7.42468 84.6402C7.43603 84.6535 7.44464 84.6693 7.44992 84.6865C7.4552 84.7037 7.45704 84.7219 7.45532 84.74C7.45461 84.7735 7.44177 84.8053 7.41957 84.8287ZM9.46213 84.6291C9.46273 84.6615 9.45284 84.6931 9.43418 84.7185C9.41552 84.7438 9.38927 84.7612 9.36 84.7677L8.69106 84.9118C8.67247 84.9171 8.65296 84.9173 8.63426 84.9125C8.61557 84.9076 8.59825 84.8979 8.58383 84.8841C8.56945 84.8701 8.55793 84.8531 8.55001 84.834C8.5421 84.8149 8.53796 84.7942 8.53787 84.7732C8.53787 84.1911 8.35915 84.1024 6.96 82.428C6.88698 82.3477 6.79423 82.292 6.69281 82.2674C6.5914 82.2428 6.48561 82.2504 6.38809 82.2894L5.87745 82.5056C5.79553 82.5414 5.70405 82.5414 5.62213 82.5056C5.56203 82.4628 5.51564 82.4008 5.48936 82.3282C5.45875 82.2446 5.45801 82.1517 5.4873 82.0675C5.51659 81.9834 5.57379 81.9142 5.64766 81.8736L6.94468 81.1639C7.10425 81.0804 7.28769 81.0684 7.45532 81.1306L9.41617 81.9456C9.43548 81.9543 9.45205 81.9688 9.46384 81.9875C9.47563 82.0063 9.48214 82.0283 9.48255 82.051L9.46213 84.6291Z" fill="#111111"/>
</g>
<g id="Size=16px, Filled=true">
<path id="Vector_9" d="M39.4894 79.8415H38.0868C37.8744 79.8422 37.6648 79.8952 37.474 79.9967C37.4527 80.0073 37.4295 80.0128 37.406 80.0128C37.3825 80.0128 37.3592 80.0073 37.3379 79.9967L34.4102 78.8139C33.8464 78.5924 33.2249 78.6217 32.6809 78.8952L31.2374 79.6345C31.2118 79.6471 31.1839 79.6537 31.1557 79.6537C31.1276 79.6537 31.0997 79.6471 31.074 79.6345C30.8037 79.4646 30.5012 79.3642 30.1896 79.3412C29.878 79.3181 29.5656 79.3729 29.2766 79.5014L27.234 80.4476C27.2002 80.4621 27.1631 80.4648 27.1278 80.4556C27.0925 80.4463 27.0606 80.4255 27.0366 80.3959C26.9009 80.222 26.732 80.0822 26.5415 79.9865C26.351 79.8907 26.1435 79.8412 25.9336 79.8415H24.5106C24.3758 79.8434 24.2469 79.9024 24.1515 80.006C24.0561 80.1095 24.0018 80.2494 24 80.3959V87.4187C24 87.5657 24.0538 87.7067 24.1496 87.8107C24.2453 87.9147 24.3752 87.9731 24.5106 87.9731H25.9132C26.1438 87.9747 26.3714 87.9157 26.5765 87.8012C26.7816 87.6866 26.9582 87.5199 27.0911 87.3152C27.1073 87.2903 27.1287 87.2699 27.1535 87.2558C27.1784 87.2416 27.206 87.2341 27.234 87.2339H27.8672C27.9052 87.234 27.9417 87.2499 27.9694 87.2782L29.8757 88.8971C29.9969 89.0353 30.1426 89.1452 30.3042 89.2202C30.4657 89.2952 30.6396 89.3337 30.8153 89.3333C31.1225 89.3314 31.42 89.2167 31.6596 89.008L33.7362 87.1525C33.7575 87.1329 33.7834 87.1201 33.8111 87.1156L36.4664 86.539C36.4866 86.5285 36.5087 86.523 36.5311 86.523C36.5535 86.523 36.5756 86.5285 36.5957 86.539C36.6318 86.5672 36.6562 86.6097 36.6638 86.6572C36.7245 87.0188 36.9002 87.3456 37.1603 87.5808C37.4204 87.8159 37.7484 87.9443 38.0868 87.9435H39.4894C39.6248 87.9435 39.7547 87.8851 39.8504 87.7811C39.9462 87.6772 40 87.5361 40 87.3891V80.3959C39.9982 80.2494 39.9439 80.1095 39.8485 80.006C39.7531 79.9024 39.6242 79.8434 39.4894 79.8415ZM33.8928 85.1048L30.9515 87.7735C30.9241 87.7963 30.8906 87.8086 30.8562 87.8086C30.8217 87.8086 30.7882 87.7963 30.7609 87.7735L28.5957 85.918C28.476 85.8137 28.3272 85.7563 28.1736 85.7554H27.5336C27.4885 85.7554 27.4452 85.7359 27.4133 85.7012C27.3813 85.6666 27.3634 85.6196 27.3634 85.5706V82.1035C27.3633 82.0675 27.3729 82.0321 27.391 82.0019C27.4092 81.9717 27.4351 81.9479 27.4655 81.9335L29.7668 80.869C29.7916 80.8534 29.8198 80.8452 29.8485 80.8452C29.8772 80.8452 29.9054 80.8534 29.9302 80.869C29.9548 80.8941 29.9708 80.9274 29.9758 80.9637C29.9807 80.9999 29.9743 81.0369 29.9574 81.0686C29.8649 81.4707 29.8887 81.894 30.0255 82.281C30.2058 82.7641 30.5541 83.1507 30.9951 83.3569C31.4361 83.5631 31.9341 83.5723 32.3813 83.3824L32.4902 83.3307C32.5225 83.317 32.5578 83.3139 32.5917 83.3218C32.6256 83.3297 32.6566 83.3482 32.6809 83.375L33.8996 84.8535C33.9147 84.8713 33.9262 84.8923 33.9332 84.9152C33.9403 84.9382 33.9427 84.9625 33.9404 84.9866C33.9395 85.0313 33.9224 85.0738 33.8928 85.1048ZM36.6162 84.8387C36.617 84.882 36.6038 84.9241 36.5789 84.9579C36.554 84.9917 36.519 85.0149 36.48 85.0235L35.5881 85.2157C35.5633 85.2227 35.5373 85.223 35.5124 85.2166C35.4874 85.2101 35.4643 85.1972 35.4451 85.1788C35.4259 85.1602 35.4106 85.1374 35.4 85.1119C35.3895 85.0864 35.3839 85.0588 35.3838 85.0309C35.3838 84.2547 35.1455 84.1364 33.28 81.9039C33.1826 81.7969 33.059 81.7226 32.9237 81.6898C32.7885 81.657 32.6475 81.6672 32.5174 81.7191L31.8366 82.0074C31.7274 82.0551 31.6054 82.0551 31.4962 82.0074C31.416 81.9504 31.3542 81.8677 31.3191 81.7709C31.2783 81.6595 31.2773 81.5355 31.3164 81.4233C31.3555 81.3112 31.4317 81.2189 31.5302 81.1647L33.2596 80.2185C33.4723 80.1071 33.7169 80.0912 33.9404 80.1741L36.5549 81.2608C36.5806 81.2723 36.6027 81.2917 36.6185 81.3167C36.6342 81.3416 36.6428 81.371 36.6434 81.4013L36.6162 84.8387Z" fill="#111111"/>
</g>
<g id="Size=20px, Filled=true">
<path id="Vector_10" d="M71.3617 78.8019H69.6085C69.343 78.8028 69.081 78.8691 68.8426 78.996C68.8159 79.0093 68.7868 79.0161 68.7574 79.0161C68.7281 79.0161 68.699 79.0093 68.6723 78.996L65.0128 77.5175C64.308 77.2406 63.5311 77.2772 62.8511 77.6191L61.0468 78.5432C61.0147 78.559 60.9799 78.5672 60.9447 78.5672C60.9094 78.5672 60.8746 78.559 60.8426 78.5432C60.5047 78.3308 60.1265 78.2054 59.737 78.1765C59.3474 78.1477 58.957 78.2162 58.5957 78.3769L56.0426 79.5596C56.0003 79.5777 55.9539 79.5811 55.9098 79.5696C55.8656 79.558 55.8258 79.5319 55.7957 79.495C55.6262 79.2775 55.415 79.1029 55.1768 78.9832C54.9387 78.8635 54.6794 78.8016 54.417 78.8019H52.6383C52.4697 78.8043 52.3086 78.8781 52.1894 79.0076C52.0702 79.137 52.0022 79.3119 52 79.495V88.2734C52 88.4572 52.0672 88.6335 52.187 88.7635C52.3067 88.8934 52.469 88.9665 52.6383 88.9665H54.3915C54.6798 88.9685 54.9643 88.8947 55.2207 88.7515C55.477 88.6083 55.6977 88.3999 55.8638 88.1441C55.8841 88.1129 55.9108 88.0875 55.9419 88.0698C55.973 88.0522 56.0075 88.0428 56.0426 88.0424H56.834C56.8815 88.0426 56.9272 88.0625 56.9617 88.0978L59.3447 90.1215C59.4961 90.2942 59.6783 90.4316 59.8802 90.5254C60.0822 90.6191 60.2995 90.6672 60.5191 90.6667C60.9031 90.6643 61.275 90.521 61.5745 90.2601L64.1702 87.9408C64.1968 87.9162 64.2293 87.9002 64.2638 87.8946L67.583 87.1738C67.6082 87.1607 67.6358 87.1539 67.6638 87.1539C67.6918 87.1539 67.7194 87.1607 67.7447 87.1738C67.7897 87.2091 67.8203 87.2622 67.8298 87.3216C67.9056 87.7735 68.1253 88.1821 68.4504 88.476C68.7755 88.7699 69.1855 88.9304 69.6085 88.9295H71.3617C71.531 88.9295 71.6933 88.8565 71.813 88.7265C71.9328 88.5965 72 88.4203 72 88.2365V79.495C71.9978 79.3119 71.9298 79.137 71.8106 79.0076C71.6914 78.8781 71.5303 78.8043 71.3617 78.8019ZM64.366 85.3811L60.6894 88.717C60.6552 88.7454 60.6133 88.7609 60.5702 88.7609C60.5271 88.7609 60.4852 88.7454 60.4511 88.717L57.7447 86.3976C57.5949 86.2672 57.409 86.1955 57.217 86.1943H56.417C56.3606 86.1943 56.3065 86.17 56.2666 86.1266C56.2267 86.0833 56.2043 86.0246 56.2043 85.9633V81.6295C56.2041 81.5844 56.2161 81.5403 56.2388 81.5025C56.2615 81.4647 56.2939 81.435 56.3319 81.417L59.2085 80.0864C59.2396 80.0669 59.2748 80.0566 59.3106 80.0566C59.3465 80.0566 59.3817 80.0669 59.4128 80.0864C59.4435 80.1177 59.4636 80.1594 59.4697 80.2047C59.4759 80.25 59.4678 80.2962 59.4468 80.3358C59.3312 80.8385 59.3609 81.3676 59.5319 81.8513C59.7572 82.4553 60.1926 82.9385 60.7439 83.1962C61.2951 83.454 61.9176 83.4654 62.4766 83.2281L62.6128 83.1634C62.6531 83.1463 62.6972 83.1425 62.7396 83.1523C62.7819 83.1622 62.8207 83.1853 62.8511 83.2189L64.3745 85.067C64.3934 85.0892 64.4077 85.1155 64.4165 85.1442C64.4253 85.1728 64.4284 85.2032 64.4255 85.2333C64.4243 85.2892 64.4029 85.3423 64.366 85.3811ZM67.7702 85.0485C67.7712 85.1025 67.7547 85.1553 67.7236 85.1975C67.6925 85.2397 67.6488 85.2687 67.6 85.2795L66.4851 85.5198C66.4541 85.5285 66.4216 85.5289 66.3904 85.5208C66.3593 85.5128 66.3304 85.4965 66.3064 85.4736C66.2824 85.4503 66.2632 85.4218 66.25 85.39C66.2368 85.3581 66.2299 85.3237 66.2298 85.2887C66.2298 84.3185 65.9319 84.1706 63.6 81.38C63.4783 81.2462 63.3237 81.1533 63.1547 81.1123C62.9857 81.0714 62.8094 81.0841 62.6468 81.149L61.7957 81.5094C61.6592 81.569 61.5067 81.569 61.3702 81.5094C61.27 81.4381 61.1927 81.3347 61.1489 81.2137C61.0979 81.0744 61.0967 80.9195 61.1455 80.7793C61.1943 80.6391 61.2896 80.5238 61.4128 80.456L63.5745 79.2732C63.8404 79.134 64.1462 79.1141 64.4255 79.2177L67.6936 80.5761C67.7258 80.5905 67.7534 80.6148 67.7731 80.646C67.7927 80.6771 67.8036 80.7139 67.8043 80.7517L67.7702 85.0485Z" fill="#111111"/>
</g>
<g id="Size=24px, Filled=true">
<path id="Vector_11" d="M107.234 77.7623H105.13C104.812 77.7633 104.497 77.8429 104.211 77.9951C104.179 78.0111 104.144 78.0193 104.109 78.0193C104.074 78.0193 104.039 78.0111 104.007 77.9951L99.6153 76.2209C98.7696 75.8887 97.8373 75.9326 97.0213 76.3429L94.8562 77.4518C94.8177 77.4708 94.7759 77.4806 94.7336 77.4806C94.6913 77.4806 94.6496 77.4708 94.6111 77.4518C94.2056 77.1969 93.7517 77.0464 93.2843 77.0118C92.8169 76.9772 92.3484 77.0594 91.9149 77.2522L88.8511 78.6715C88.8003 78.6932 88.7447 78.6973 88.6917 78.6834C88.6387 78.6695 88.591 78.6383 88.5549 78.5939C88.3514 78.333 88.098 78.1234 87.8122 77.9798C87.5265 77.8362 87.2153 77.7619 86.9004 77.7623H84.766C84.5636 77.7651 84.3703 77.8537 84.2273 78.009C84.0842 78.1644 84.0026 78.3742 84 78.5939V89.1281C84 89.3486 84.0807 89.5602 84.2243 89.7161C84.368 89.8721 84.5628 89.9597 84.766 89.9597H86.8698C87.2158 89.9621 87.5571 89.8737 87.8648 89.7018C88.1725 89.53 88.4373 89.2798 88.6366 88.9728C88.6609 88.9355 88.693 88.905 88.7303 88.8837C88.7676 88.8625 88.809 88.8513 88.8511 88.8508H89.8009C89.8578 88.8511 89.9126 88.8749 89.954 88.9174L92.8136 91.3458C92.9953 91.553 93.214 91.7179 93.4563 91.8304C93.6986 91.9429 93.9595 92.0006 94.223 92C94.6837 91.9971 95.13 91.8252 95.4894 91.5121L98.6043 88.7289C98.6362 88.6994 98.6751 88.6802 98.7166 88.6734L102.7 87.8085C102.73 87.7928 102.763 87.7846 102.797 87.7846C102.83 87.7846 102.863 87.7928 102.894 87.8085C102.948 87.8509 102.984 87.9146 102.996 87.9859C103.087 88.5282 103.35 89.0185 103.741 89.3712C104.131 89.7239 104.623 89.9165 105.13 89.9153H107.234C107.437 89.9153 107.632 89.8277 107.776 89.6718C107.919 89.5158 108 89.3043 108 89.0837V78.5939C107.997 78.3742 107.916 78.1644 107.773 78.009C107.63 77.8537 107.436 77.7651 107.234 77.7623ZM98.8391 85.6573L94.4272 89.6603C94.3862 89.6945 94.336 89.713 94.2843 89.713C94.2326 89.713 94.1823 89.6945 94.1413 89.6603L90.8936 86.8771C90.7139 86.7205 90.4908 86.6346 90.2604 86.6331H89.3004C89.2327 86.6331 89.1678 86.6039 89.1199 86.5519C89.072 86.4999 89.0451 86.4294 89.0451 86.3559V81.1554C89.0449 81.1013 89.0593 81.0483 89.0866 81.003C89.1138 80.9576 89.1526 80.922 89.1983 80.9003L92.6502 79.3036C92.6875 79.2802 92.7297 79.2679 92.7728 79.2679C92.8158 79.2679 92.8581 79.2802 92.8953 79.3036C92.9322 79.3412 92.9563 79.3912 92.9637 79.4456C92.9711 79.4999 92.9614 79.5554 92.9362 79.603C92.7974 80.2061 92.8331 80.8411 93.0383 81.4215C93.3086 82.1463 93.8312 82.7261 94.4926 83.0354C95.1541 83.3447 95.9012 83.3585 96.5719 83.0737L96.7353 82.9961C96.7837 82.9755 96.8367 82.9709 96.8875 82.9827C96.9383 82.9946 96.9848 83.0223 97.0213 83.0626L98.8494 85.2803C98.8721 85.3069 98.8893 85.3385 98.8998 85.3729C98.9104 85.4074 98.9141 85.4438 98.9106 85.4799C98.9092 85.547 98.8835 85.6107 98.8391 85.6573ZM102.924 85.2581C102.925 85.323 102.906 85.3863 102.868 85.4369C102.831 85.4876 102.779 85.5224 102.72 85.5354L101.382 85.8237C101.345 85.8342 101.306 85.8346 101.269 85.825C101.231 85.8153 101.197 85.7958 101.168 85.7682C101.139 85.7403 101.116 85.7061 101.1 85.6679C101.084 85.6297 101.076 85.5883 101.076 85.5464C101.076 84.3821 100.718 84.2047 97.92 80.856C97.774 80.6954 97.5885 80.5839 97.3856 80.5348C97.1828 80.4856 96.9712 80.5009 96.7762 80.5788L95.7549 81.0112C95.5911 81.0828 95.4081 81.0828 95.2443 81.0112C95.1241 80.9256 95.0313 80.8016 94.9787 80.6564C94.9175 80.4893 94.916 80.3033 94.9746 80.1351C95.0332 79.9668 95.1476 79.8285 95.2953 79.7471L97.8894 78.3278C98.2085 78.1608 98.5754 78.1369 98.9106 78.2612L102.832 79.8913C102.871 79.9085 102.904 79.9377 102.928 79.9751C102.951 80.0125 102.964 80.0566 102.965 80.102L102.924 85.2581Z" fill="#111111"/>
</g>
<g id="Size=32px, Filled=true">
<path id="Vector_12" d="M150.979 75.6831H148.174C147.749 75.6844 147.33 75.7906 146.948 75.9935C146.905 76.0148 146.859 76.0258 146.812 76.0258C146.765 76.0258 146.718 76.0148 146.676 75.9935L140.82 73.628C139.693 73.185 138.45 73.2435 137.362 73.7906L134.475 75.2691C134.424 75.2944 134.368 75.3075 134.311 75.3075C134.255 75.3075 134.199 75.2944 134.148 75.2691C133.607 74.9293 133.002 74.7286 132.379 74.6824C131.756 74.6363 131.131 74.7459 130.553 75.003L126.468 76.8954C126.4 76.9242 126.326 76.9298 126.256 76.9113C126.185 76.8928 126.121 76.8511 126.073 76.7919C125.802 76.444 125.464 76.1646 125.083 75.9731C124.702 75.7816 124.287 75.6826 123.867 75.6831H121.021C120.752 75.6869 120.494 75.8049 120.303 76.0121C120.112 76.2192 120.004 76.499 120 76.7919V90.8374C120 91.1315 120.108 91.4136 120.299 91.6215C120.491 91.8295 120.75 91.9463 121.021 91.9463H123.826C124.288 91.9496 124.743 91.8316 125.153 91.6024C125.563 91.3733 125.916 91.0398 126.182 90.6305C126.215 90.5807 126.257 90.54 126.307 90.5117C126.357 90.4834 126.412 90.4684 126.468 90.4678H127.734C127.81 90.4682 127.883 90.4999 127.939 90.5565L131.751 93.7944C131.994 94.0707 132.285 94.2906 132.608 94.4405C132.931 94.5905 133.279 94.6675 133.631 94.6667C134.245 94.6628 134.84 94.4336 135.319 94.0162L139.472 90.3052C139.515 90.2659 139.567 90.2402 139.622 90.2313L144.933 89.0781C144.973 89.0571 145.017 89.0462 145.062 89.0462C145.107 89.0462 145.151 89.0571 145.191 89.0781C145.264 89.1346 145.312 89.2195 145.328 89.3146C145.449 90.0377 145.8 90.6914 146.321 91.1616C146.841 91.6319 147.497 91.8887 148.174 91.8872H150.979C151.25 91.8872 151.509 91.7703 151.701 91.5624C151.892 91.3544 152 91.0724 152 90.7783V76.7919C151.996 76.499 151.888 76.2192 151.697 76.0121C151.506 75.8049 151.248 75.6869 150.979 75.6831ZM139.786 86.2098L133.903 91.5471C133.848 91.5927 133.781 91.6174 133.712 91.6174C133.643 91.6174 133.576 91.5927 133.522 91.5471L129.191 87.8361C128.952 87.6274 128.654 87.5128 128.347 87.5109H127.067C126.977 87.5109 126.89 87.4719 126.827 87.4026C126.763 87.3333 126.727 87.2393 126.727 87.1413V80.2072C126.727 80.1351 126.746 80.0644 126.782 80.004C126.818 79.9436 126.87 79.896 126.931 79.8671L131.534 77.7381C131.583 77.707 131.64 77.6906 131.697 77.6906C131.754 77.6906 131.811 77.707 131.86 77.7381C131.91 77.7883 131.942 77.855 131.952 77.9275C131.961 77.9999 131.949 78.0738 131.915 78.1373C131.73 78.9416 131.777 79.7882 132.051 80.562C132.412 81.5284 133.108 82.3016 133.99 82.7139C134.872 83.1263 135.868 83.1446 136.763 82.765L136.98 82.6615C137.045 82.6341 137.116 82.6279 137.183 82.6437C137.251 82.6595 137.313 82.6965 137.362 82.7502L139.799 85.7071C139.829 85.7426 139.852 85.7847 139.866 85.8306C139.881 85.8765 139.885 85.9251 139.881 85.9733C139.879 86.0626 139.845 86.1476 139.786 86.2098ZM145.232 85.6776C145.234 85.764 145.208 85.8484 145.158 85.9159C145.108 85.9834 145.038 86.0299 144.96 86.0472L143.176 86.4316C143.127 86.4456 143.075 86.4462 143.025 86.4333C142.975 86.4204 142.929 86.3944 142.89 86.3577C142.852 86.3204 142.821 86.2749 142.8 86.2239C142.779 86.173 142.768 86.1178 142.768 86.062C142.768 84.5096 142.291 84.273 138.56 79.808C138.365 79.594 138.118 79.4453 137.847 79.3797C137.577 79.3142 137.295 79.3346 137.035 79.4384L135.673 80.015C135.455 80.1104 135.211 80.1104 134.992 80.015C134.832 79.9009 134.708 79.7356 134.638 79.5419C134.557 79.3191 134.555 79.0711 134.633 78.8468C134.711 78.6225 134.863 78.438 135.06 78.3295L138.519 76.4371C138.945 76.2144 139.434 76.1825 139.881 76.3484L145.11 78.5217C145.161 78.5448 145.205 78.5836 145.237 78.6335C145.268 78.6834 145.286 78.7422 145.287 78.8026L145.232 85.6776Z" fill="#111111"/>
</g>
<g id="Size=40px, Filled=true">
<path id="Vector_13" d="M202.723 73.6037H199.217C198.686 73.6055 198.162 73.7382 197.685 73.9918C197.632 74.0184 197.574 74.0322 197.515 74.0322C197.456 74.0322 197.398 74.0184 197.345 73.9918L190.026 71.0349C188.616 70.4812 187.062 70.5542 185.702 71.2382L182.094 73.0863C182.029 73.1179 181.96 73.1343 181.889 73.1343C181.819 73.1343 181.749 73.1179 181.685 73.0863C181.009 72.6615 180.253 72.4106 179.474 72.3529C178.695 72.2953 177.914 72.4323 177.191 72.7536L172.085 75.1192C172.001 75.1552 171.908 75.1621 171.82 75.139C171.731 75.1159 171.652 75.0638 171.591 74.9898C171.252 74.555 170.83 74.2057 170.354 73.9663C169.877 73.7269 169.359 73.6032 168.834 73.6037H165.277C164.939 73.6085 164.617 73.7561 164.379 74.015C164.14 74.2739 164.004 74.6237 164 74.9898V92.5467C164 92.9143 164.134 93.2669 164.374 93.5268C164.613 93.7868 164.938 93.9328 165.277 93.9328H168.783C169.36 93.9368 169.929 93.7894 170.441 93.503C170.954 93.2166 171.395 92.7997 171.728 92.288C171.768 92.2258 171.822 92.1749 171.884 92.1395C171.946 92.1042 172.015 92.0854 172.085 92.0847H173.668C173.763 92.0852 173.854 92.1248 173.923 92.1956L178.689 96.2429C178.992 96.5883 179.357 96.8631 179.76 97.0506C180.164 97.2381 180.599 97.3342 181.038 97.3333C181.806 97.3284 182.55 97.0419 183.149 96.5201L188.34 91.8814C188.394 91.8322 188.459 91.8002 188.528 91.789L195.166 90.3475C195.216 90.3212 195.272 90.3076 195.328 90.3076C195.384 90.3076 195.439 90.3212 195.489 90.3475C195.579 90.4181 195.641 90.5243 195.66 90.6432C195.811 91.547 196.251 92.3642 196.901 92.952C197.551 93.5397 198.371 93.8607 199.217 93.8589H202.723C203.062 93.8589 203.387 93.7128 203.626 93.4529C203.866 93.193 204 92.8404 204 92.4728V74.9898C203.996 74.6237 203.86 74.2739 203.621 74.015C203.383 73.7561 203.061 73.6085 202.723 73.6037ZM188.732 86.7622L181.379 93.4338C181.31 93.4908 181.227 93.5216 181.14 93.5216C181.054 93.5216 180.97 93.4908 180.902 93.4338L175.489 88.7951C175.19 88.5342 174.818 88.3909 174.434 88.3885H172.834C172.721 88.3885 172.613 88.3398 172.533 88.2532C172.453 88.1665 172.409 88.049 172.409 87.9265V79.2589C172.408 79.1687 172.432 79.0804 172.478 79.0049C172.523 78.9294 172.588 78.8699 172.664 78.8338L178.417 76.1726C178.479 76.1337 178.55 76.1132 178.621 76.1132C178.693 76.1132 178.763 76.1337 178.826 76.1726C178.887 76.2353 178.927 76.3187 178.939 76.4092C178.952 76.4998 178.936 76.5922 178.894 76.6716C178.662 77.6769 178.722 78.7351 179.064 79.7024C179.514 80.9104 180.385 81.8769 181.488 82.3923C182.59 82.9078 183.835 82.9307 184.953 82.4561L185.226 82.3267C185.306 82.2925 185.394 82.2848 185.479 82.3045C185.564 82.3242 185.641 82.3705 185.702 82.4376L188.749 86.1338C188.787 86.1782 188.815 86.2308 188.833 86.2882C188.851 86.3455 188.857 86.4063 188.851 86.4665C188.849 86.5782 188.806 86.6845 188.732 86.7622ZM195.54 86.0969C195.542 86.2049 195.509 86.3104 195.447 86.3948C195.385 86.4792 195.298 86.5373 195.2 86.5589L192.97 87.0394C192.908 87.0569 192.843 87.0577 192.781 87.0415C192.719 87.0254 192.661 86.993 192.613 86.947C192.565 86.9004 192.526 86.8435 192.5 86.7798C192.474 86.7162 192.46 86.6472 192.46 86.5774C192.46 84.6369 191.864 84.3412 187.2 78.7599C186.957 78.4923 186.647 78.3065 186.309 78.2246C185.971 78.1426 185.619 78.1681 185.294 78.2979L183.591 79.0186C183.318 79.1379 183.013 79.1379 182.74 79.0186C182.54 78.876 182.385 78.6694 182.298 78.4273C182.196 78.1487 182.193 77.8388 182.291 77.5584C182.389 77.278 182.579 77.0474 182.826 76.9118L187.149 74.5463C187.681 74.2679 188.292 74.228 188.851 74.4354L195.387 77.1521C195.452 77.1809 195.507 77.2294 195.546 77.2918C195.585 77.3542 195.607 77.4276 195.609 77.5032L195.54 86.0969Z" fill="#111111"/>
</g>
<g id="Size=48px, Filled=true">
<path id="Vector_14" d="M262.468 71.5245H258.26C257.623 71.5266 256.994 71.6858 256.422 71.9902C256.358 72.0221 256.288 72.0386 256.218 72.0386C256.147 72.0386 256.078 72.0221 256.014 71.9902L247.231 68.4419C245.539 67.7775 243.675 67.8651 242.043 68.6858L237.712 70.9036C237.635 70.9415 237.552 70.9612 237.467 70.9612C237.383 70.9612 237.299 70.9415 237.222 70.9036C236.411 70.3938 235.503 70.0928 234.569 70.0236C233.634 69.9544 232.697 70.1189 231.83 70.5044L225.702 73.343C225.601 73.3863 225.489 73.3946 225.383 73.3668C225.277 73.3391 225.182 73.2766 225.11 73.1878C224.703 72.666 224.196 72.2468 223.624 71.9596C223.053 71.6723 222.431 71.5238 221.801 71.5245H217.532C217.127 71.5303 216.741 71.7073 216.455 72.018C216.168 72.3287 216.005 72.7485 216 73.1878V94.2561C216 94.6972 216.161 95.1203 216.449 95.4322C216.736 95.7442 217.126 95.9194 217.532 95.9194H221.74C222.432 95.9243 223.114 95.7473 223.73 95.4036C224.345 95.0599 224.875 94.5597 225.273 93.9456C225.322 93.871 225.386 93.8099 225.461 93.7675C225.535 93.7251 225.618 93.7025 225.702 93.7017H227.602C227.716 93.7022 227.825 93.7498 227.908 93.8347L233.627 98.6915C233.991 99.106 234.428 99.4358 234.913 99.6608C235.397 99.8857 235.919 100.001 236.446 100C237.367 99.9942 238.26 99.6503 238.979 99.0242L245.209 93.4577C245.272 93.3987 245.35 93.3603 245.433 93.3468L253.399 91.617C253.46 91.5855 253.526 91.5692 253.593 91.5692C253.66 91.5692 253.727 91.5855 253.787 91.617C253.895 91.7018 253.969 91.8292 253.991 91.9719C254.173 93.0564 254.701 94.037 255.481 94.7424C256.261 95.4477 257.245 95.8329 258.26 95.8307H262.468C262.874 95.8307 263.264 95.6555 263.551 95.3435C263.839 95.0316 264 94.6085 264 94.1674V73.1878C263.995 72.7485 263.832 72.3287 263.545 72.018C263.259 71.7073 262.873 71.5303 262.468 71.5245ZM245.678 87.3147L236.854 95.3206C236.772 95.389 236.672 95.426 236.569 95.426C236.465 95.426 236.365 95.389 236.283 95.3206L229.787 89.7541C229.428 89.4411 228.982 89.2691 228.521 89.2662H226.601C226.465 89.2662 226.336 89.2078 226.24 89.1039C226.144 88.9999 226.09 88.8589 226.09 88.7118V78.3107C226.09 78.2025 226.119 78.0966 226.173 78.0059C226.228 77.9153 226.305 77.8439 226.397 77.8007L233.3 74.6071C233.375 74.5604 233.459 74.5358 233.546 74.5358C233.632 74.5358 233.716 74.5604 233.791 74.6071C233.864 74.6824 233.913 74.7824 233.927 74.8911C233.942 74.9998 233.923 75.1107 233.872 75.2059C233.595 76.4123 233.666 77.6822 234.077 78.843C234.617 80.2925 235.662 81.4523 236.985 82.0708C238.308 82.6894 239.802 82.7169 241.144 82.1474L241.471 81.9921C241.567 81.9511 241.673 81.9418 241.775 81.9655C241.877 81.9891 241.97 82.0447 242.043 82.1252L245.699 86.5606C245.744 86.6139 245.779 86.677 245.8 86.7459C245.821 86.8147 245.828 86.8876 245.821 86.9598C245.818 87.0939 245.767 87.2214 245.678 87.3147ZM253.849 86.5163C253.851 86.646 253.811 86.7725 253.737 86.8738C253.662 86.9751 253.557 87.0448 253.44 87.0707L250.764 87.6473C250.69 87.6683 250.612 87.6692 250.537 87.6499C250.462 87.6306 250.393 87.5916 250.335 87.5364C250.278 87.4806 250.232 87.4122 250.2 87.3358C250.168 87.2594 250.152 87.1767 250.151 87.0929C250.151 84.7643 249.437 84.4095 243.84 77.7119C243.548 77.3909 243.177 77.1679 242.771 77.0695C242.366 76.9712 241.942 77.0018 241.552 77.1575L239.51 78.0224C239.182 78.1655 238.816 78.1655 238.489 78.0224C238.248 77.8512 238.063 77.6033 237.957 77.3128C237.835 76.9785 237.832 76.6066 237.949 76.2702C238.066 75.9337 238.295 75.6569 238.591 75.4942L243.779 72.6556C244.417 72.3215 245.151 72.2737 245.821 72.5225L253.665 75.7825C253.742 75.8171 253.808 75.8753 253.855 75.9502C253.903 76.025 253.929 76.1132 253.93 76.2039L253.849 86.5163Z" fill="#111111"/>
</g>
</g>
</g>
<defs>
<clipPath id="clip0_2046_337">
<rect width="264" height="108" rx="5" fill="white"/>
</clipPath>
<clipPath id="clip1_2046_337">
<rect width="20" height="20" fill="white" transform="translate(52 14)"/>
</clipPath>
<clipPath id="clip2_2046_337">
<rect width="24" height="24" fill="white" transform="translate(84 12)"/>
</clipPath>
<clipPath id="clip3_2046_337">
<rect width="40" height="40" fill="white" transform="translate(164 4)"/>
</clipPath>
<clipPath id="clip4_2046_337">
<rect width="48" height="48" fill="white" transform="translate(216)"/>
</clipPath>
</defs>
</svg>
