<svg width="265" height="108" viewBox="0 0 265 108" fill="none" xmlns="http://www.w3.org/2000/svg">
<g id="Heart check">
<g id="Size=12px, Filled=false">
<path id="Vector" d="M11.4989 26.5666C11.4989 28.1867 10.1856 29.5 8.56553 29.5C6.94549 29.5 5.63219 28.1867 5.63219 26.5666C5.63219 24.9465 6.94549 23.6332 8.56553 23.6332M11.4985 24.3665L8.82481 27.0403C8.75604 27.1092 8.66274 27.1478 8.56545 27.1478C8.46817 27.1478 8.37487 27.1092 8.3061 27.0403L7.46667 26.1999M4.15354 26.1999L1.3126 23.2347C0.468293 22.3906 0.258949 21.1008 0.792914 20.0329C1.1916 19.2355 1.94934 18.6785 2.82934 18.5358C3.70934 18.3931 4.60427 18.6822 5.23447 19.3128L6.00007 20.0779L6.76568 19.3128C7.39588 18.6822 8.29081 18.3931 9.17081 18.5358C10.0508 18.6785 10.8085 19.2355 11.2072 20.0329C11.6009 20.8206 11.5974 21.7484 11.1979 22.5332" stroke="#111111" stroke-width="0.75" stroke-linecap="round" stroke-linejoin="round"/>
</g>
<g id="Size=16px, Filled=false">
<path id="Vector_2" d="M39.4988 27.4999C39.4988 29.7091 37.7079 31.5 35.4987 31.5C33.2895 31.5 31.4986 29.7091 31.4986 27.4999C31.4986 25.2907 33.2895 23.4998 35.4987 23.4998M39.4984 24.4998L35.8523 28.1459C35.7585 28.2398 35.6313 28.2925 35.4986 28.2925C35.366 28.2925 35.2387 28.2398 35.1449 28.1459L34.0002 26.9999M29.4822 26.9999L25.6081 22.9565C24.4568 21.8053 24.1713 20.0466 24.8994 18.5904C25.4431 17.503 26.4764 16.7434 27.6764 16.5488C28.8765 16.3542 30.0969 16.7485 30.9563 17.6083L32.0003 18.6517L33.0443 17.6083C33.9037 16.7485 35.1241 16.3542 36.3241 16.5488C37.5242 16.7434 38.5575 17.503 39.1011 18.5904C39.6379 19.6645 39.6332 20.9296 39.0885 21.9998" stroke="#111111" stroke-linecap="round" stroke-linejoin="round"/>
</g>
<g id="Size=20px, Filled=false">
<path id="Vector_3" d="M70.9985 28.1999C70.9985 30.8509 68.8495 33 66.1985 33C63.5475 33 61.3985 30.8509 61.3985 28.1999C61.3985 25.5488 63.5475 23.3997 66.1985 23.3997M70.998 24.5998L66.6228 28.9751C66.5102 29.0877 66.3576 29.151 66.1984 29.151C66.0392 29.151 65.8865 29.0877 65.774 28.9751L64.4004 27.5999M58.9789 27.5999L54.3301 22.7478C52.9485 21.3664 52.6059 19.2559 53.4797 17.5084C54.1321 16.2036 55.372 15.292 56.812 15.0585C58.252 14.8251 59.7164 15.2982 60.7477 16.33L62.0005 17.582L63.2533 16.33C64.2845 15.2982 65.749 14.8251 67.189 15.0585C68.629 15.292 69.8689 16.2036 70.5213 17.5084C71.1654 18.7974 71.1598 20.3156 70.5061 21.5997" stroke="#111111" stroke-width="1.25" stroke-linecap="round" stroke-linejoin="round"/>
</g>
<g id="Size=24px, Filled=false">
<path id="Vector_4" d="M106.999 29.1332C106.999 32.3733 104.372 35 101.132 35C97.8917 35 95.265 32.3733 95.265 29.1332C95.265 25.893 97.8917 23.2664 101.132 23.2664M106.998 24.7331L101.65 30.0807C101.513 30.2183 101.326 30.2956 101.132 30.2956C100.937 30.2956 100.75 30.2183 100.613 30.0807L98.9341 28.3998M92.3076 28.3999L86.6256 22.4695C84.937 20.7812 84.5183 18.2016 85.5862 16.0659C86.3836 14.4711 87.8991 13.3569 89.6592 13.0716C91.4192 12.7862 93.2091 13.3644 94.4696 14.6256L96.0008 16.1558L97.532 14.6256C98.7925 13.3644 100.582 12.7862 102.342 13.0716C104.102 13.3569 105.618 14.4711 106.415 16.0659C107.203 17.6413 107.196 19.4968 106.397 21.0664" stroke="#111111" stroke-width="1.5" stroke-linecap="round" stroke-linejoin="round"/>
</g>
<g id="Size=32px, Filled=false">
<path id="Vector_5" d="M150.998 30.9998C150.998 35.4182 147.416 39 142.998 39C138.58 39 134.998 35.4182 134.998 30.9998C134.998 26.5814 138.58 22.9996 142.998 22.9996M150.997 24.9996L143.705 32.2918C143.517 32.4795 143.263 32.585 142.998 32.585C142.732 32.585 142.478 32.4795 142.29 32.2918L140.001 29.9998M130.965 29.9998L123.217 21.913C120.915 19.6107 120.344 16.0931 121.8 13.1807C122.887 11.006 124.954 9.48671 127.354 9.09758C129.754 8.70845 132.194 9.49694 133.913 11.2167L136.001 13.3034L138.089 11.2167C139.808 9.49694 142.249 8.70845 144.649 9.09758C147.049 9.48671 149.115 11.006 150.203 13.1807C151.276 15.329 151.267 17.8593 150.177 19.9996" stroke="#111111" stroke-width="2" stroke-linecap="round" stroke-linejoin="round"/>
</g>
<g id="Size=40px, Filled=false">
<path id="Vector_6" d="M202.997 32.8664C202.997 38.463 198.46 43 192.864 43C187.267 43 182.73 38.463 182.73 32.8664C182.73 27.2698 187.267 22.7328 192.864 22.7328M202.996 25.2662L193.759 34.503C193.522 34.7407 193.2 34.8743 192.863 34.8743C192.527 34.8743 192.205 34.7407 191.967 34.503L189.068 31.5997M177.622 31.5998L167.808 21.3564C164.891 18.4402 164.168 13.9846 166.013 10.2956C167.39 7.54096 170.008 5.6165 173.048 5.1236C176.088 4.6307 179.179 5.62946 181.356 7.80779L184.001 10.451L186.646 7.80779C188.823 5.62946 191.915 4.6307 194.955 5.1236C197.995 5.6165 200.612 7.54096 201.99 10.2956C203.349 13.0168 203.338 16.2218 201.958 18.9328" stroke="#111111" stroke-width="2.5" stroke-linecap="round" stroke-linejoin="round"/>
</g>
<g id="Size=48px, Filled=false">
<path id="Vector_7" d="M262.996 34.733C262.996 41.5079 257.504 47 250.73 47C243.955 47 238.463 41.5079 238.463 34.733C238.463 27.9581 243.955 22.466 250.73 22.466M262.995 25.5328L251.814 36.7141C251.526 37.0019 251.136 37.1636 250.729 37.1636C250.322 37.1636 249.932 37.0019 249.645 36.7141L246.134 33.1996M232.279 33.1997L220.399 20.7999C216.868 17.2697 215.993 11.8761 218.226 7.41045C219.893 4.0759 223.062 1.74629 226.742 1.14962C230.422 0.55295 234.164 1.76198 236.8 4.3989L240.001 7.59854L243.203 4.3989C245.838 1.76198 249.581 0.55295 253.261 1.14962C256.941 1.74629 260.109 4.0759 261.777 7.41045C263.423 10.7045 263.408 14.5843 261.738 17.866" stroke="#111111" stroke-width="3" stroke-linecap="round" stroke-linejoin="round"/>
</g>
<g id="Size=12px, Filled=true">
<g id="Vector_8">
<path d="M1.44329 82.1528C1.51323 82.5774 1.71644 82.9688 2.02352 83.2702L4.82021 86.2958C4.84032 86.3186 4.85168 86.3478 4.85225 86.3782L4.81563 87.3531C4.81649 87.3757 4.80973 87.3979 4.79645 87.4162C4.78316 87.4344 4.76413 87.4477 4.7424 87.4538C4.72138 87.4619 4.69845 87.4636 4.67646 87.4587C4.65448 87.4539 4.63442 87.4426 4.61881 87.4264L1.36897 83.9065C0.927281 83.47 0.635973 82.9043 0.537223 82.2912C0.438473 81.6781 0.537407 81.0495 0.819701 80.4964C1.03146 80.0747 1.34091 79.7098 1.72229 79.4319C2.10366 79.154 2.54591 78.9713 3.0122 78.899C3.48022 78.8196 3.96043 78.8534 4.41272 78.9976C4.865 79.1417 5.27624 79.392 5.61207 79.7274L5.99199 80.0707L6.39021 79.7137C6.7263 79.3807 7.13602 79.1314 7.58626 78.986C8.0365 78.8405 8.51464 78.8031 8.98204 78.8766C9.44944 78.9501 9.89299 79.1326 10.2768 79.4092C10.6607 79.6858 10.9741 80.0488 11.1917 80.469C11.4096 80.8974 11.5151 81.3742 11.4983 81.8545C11.4815 82.3349 11.3429 82.8031 11.0956 83.2153C11.0879 83.2299 11.0768 83.2425 11.0633 83.2521C11.0498 83.2616 11.0342 83.2678 11.0178 83.2702C11.0034 83.2768 10.9878 83.2802 10.972 83.2802C10.9562 83.2802 10.9406 83.2768 10.9263 83.2702C10.7494 83.1366 10.5592 83.0216 10.3587 82.9269C10.3308 82.9124 10.3096 82.8879 10.2992 82.8583C10.2926 82.8439 10.2892 82.8283 10.2892 82.8125C10.2892 82.7967 10.2926 82.7811 10.2992 82.7667C10.4659 82.4874 10.5588 82.1703 10.5692 81.8452C10.5796 81.5202 10.5072 81.1978 10.3587 80.9084C10.208 80.616 9.99061 80.3632 9.72412 80.1703C9.45763 79.9775 9.1495 79.8501 8.82465 79.7984C8.4998 79.7467 8.16734 79.7722 7.85416 79.8728C7.54098 79.9734 7.25587 80.1462 7.02187 80.3774L6.30782 81.0274C6.22344 81.1046 6.11322 81.1474 5.99885 81.1474C5.88449 81.1474 5.77427 81.1046 5.68989 81.0274L4.98957 80.3911C4.75346 80.154 4.46414 79.9767 4.14567 79.874C3.82721 79.7713 3.48882 79.7462 3.15867 79.8007C2.83506 79.8515 2.52813 79.9784 2.26314 80.1709C1.99815 80.3635 1.78268 80.6163 1.63445 80.9084C1.4403 81.2924 1.37335 81.7282 1.44329 82.1528Z" fill="#111111"/>
<path fill-rule="evenodd" clip-rule="evenodd" d="M6.85644 83.7075C7.34571 83.3806 7.92094 83.2061 8.50938 83.2061C9.29808 83.2073 10.0541 83.5212 10.6118 84.0789C11.1695 84.6366 11.4834 85.3926 11.4846 86.1813C11.4846 86.7698 11.3101 87.345 10.9832 87.8343C10.6563 88.3235 10.1916 88.7049 9.64794 88.93C9.10429 89.1552 8.50608 89.2142 7.92894 89.0994C7.35181 88.9846 6.82168 88.7012 6.40559 88.2851C5.9895 87.869 5.70614 87.3389 5.59134 86.7617C5.47654 86.1846 5.53546 85.5864 5.76064 85.0428C5.98583 84.4991 6.36717 84.0344 6.85644 83.7075ZM8.67874 87.3622L10.0061 85.5863V85.5908C10.0378 85.5553 10.0618 85.5134 10.0764 85.4681C10.0911 85.4227 10.0961 85.3748 10.0912 85.3274C10.0863 85.28 10.0716 85.2341 10.0481 85.1927C10.0245 85.1513 9.99253 85.1152 9.95425 85.0868C9.91596 85.0584 9.87219 85.0383 9.8257 85.0278C9.77922 85.0172 9.73105 85.0165 9.68427 85.0256C9.63748 85.0347 9.5931 85.0534 9.55394 85.0806C9.51479 85.1078 9.48173 85.1428 9.45687 85.1835L8.12947 86.9549L7.44288 86.2683C7.3778 86.2076 7.29173 86.1746 7.20279 86.1762C7.11386 86.1778 7.029 86.2138 6.9661 86.2767C6.90321 86.3396 6.86718 86.4244 6.86561 86.5134C6.86404 86.6023 6.89705 86.6884 6.95769 86.7535L7.64428 87.4355C7.71381 87.505 7.79747 87.5588 7.88959 87.5932C7.9817 87.6276 8.08013 87.6418 8.17821 87.6348C8.27629 87.6279 8.37174 87.5999 8.45809 87.5529C8.54445 87.5059 8.61969 87.4409 8.67874 87.3622Z" fill="#111111"/>
</g>
</g>
<g id="Size=16px, Filled=true">
<g id="Vector_9">
<path d="M25.9246 81.5372C26.0179 82.1033 26.2888 82.6251 26.6982 83.027L30.4271 87.0611C30.4539 87.0915 30.469 87.1304 30.4698 87.1709L30.421 88.4709C30.4221 88.501 30.4131 88.5306 30.3954 88.5549C30.3777 88.5793 30.3523 88.597 30.3233 88.6051C30.2953 88.6159 30.2647 88.6182 30.2354 88.6117C30.2061 88.6052 30.1794 88.5902 30.1585 88.5685L25.8255 83.8753C25.2366 83.2934 24.8482 82.539 24.7166 81.7216C24.5849 80.9042 24.7168 80.0661 25.0932 79.3286C25.3755 78.7664 25.7881 78.2797 26.2966 77.9092C26.8051 77.5387 27.3947 77.2951 28.0164 77.1987C28.6405 77.0929 29.2807 77.138 29.8838 77.3301C30.4868 77.5223 31.0351 77.856 31.4829 78.3033L31.9894 78.761L32.5203 78.285C32.9685 77.841 33.5147 77.5086 34.115 77.3147C34.7154 77.1208 35.3529 77.0708 35.976 77.1688C36.5992 77.2669 37.1906 77.5101 37.7024 77.8789C38.2142 78.2478 38.6321 78.7318 38.9222 79.292C39.2127 79.8633 39.3533 80.4989 39.3309 81.1394C39.3085 81.7799 39.1238 82.4042 38.7941 82.9538C38.7837 82.9733 38.769 82.9901 38.7509 83.0028C38.7329 83.0155 38.7121 83.0238 38.6903 83.027C38.6712 83.0358 38.6503 83.0403 38.6293 83.0403C38.6082 83.0403 38.5874 83.0358 38.5683 83.027C38.3324 82.8489 38.0788 82.6955 37.8115 82.5693C37.7744 82.55 37.746 82.5172 37.7322 82.4777C37.7234 82.4586 37.7188 82.4378 37.7188 82.4167C37.7188 82.3957 37.7234 82.3748 37.7322 82.3557C37.9544 81.9833 38.0783 81.5605 38.0922 81.127C38.1061 80.6936 38.0095 80.2637 37.8115 79.8779C37.6106 79.488 37.3208 79.1509 36.9654 78.8938C36.6101 78.6367 36.1993 78.4668 35.7662 78.3979C35.3331 78.329 34.8898 78.363 34.4722 78.4971C34.0547 78.6312 33.6745 78.8617 33.3625 79.1699L32.4105 80.0365C32.298 80.1395 32.151 80.1966 31.9986 80.1966C31.8461 80.1966 31.6991 80.1395 31.5866 80.0365L30.6529 79.1882C30.3381 78.8721 29.9523 78.6357 29.5277 78.4988C29.1031 78.3618 28.6519 78.3283 28.2117 78.4009C27.7803 78.4687 27.371 78.6379 27.0177 78.8946C26.6644 79.1514 26.3771 79.4884 26.1795 79.8779C25.9206 80.3899 25.8314 80.971 25.9246 81.5372Z" fill="#111111"/>
<path fill-rule="evenodd" clip-rule="evenodd" d="M33.142 83.6101C33.7943 83.1742 34.5613 82.9415 35.3458 82.9415C36.3974 82.9431 37.4055 83.3616 38.149 84.1052C38.8926 84.8488 39.3111 85.8569 39.3127 86.9085C39.3127 87.693 39.08 88.46 38.6441 89.1124C38.2083 89.7647 37.5887 90.2732 36.8639 90.5734C36.139 90.8737 35.3414 90.9522 34.5719 90.7992C33.8025 90.6461 33.0956 90.2683 32.5409 89.7135C31.9861 89.1587 31.6083 88.4519 31.4552 87.6824C31.3022 86.9129 31.3807 86.1152 31.6809 85.3904C31.9812 84.6655 32.4896 84.046 33.142 83.6101ZM35.5716 88.483L37.3415 86.1151V86.1212C37.3837 86.0737 37.4156 86.018 37.4352 85.9575C37.4547 85.897 37.4614 85.8331 37.4549 85.7699C37.4484 85.7067 37.4288 85.6455 37.3974 85.5903C37.3659 85.5351 37.3233 85.487 37.2723 85.4492C37.2212 85.4113 37.1629 85.3845 37.1009 85.3704C37.0389 85.3564 36.9747 85.3554 36.9123 85.3675C36.8499 85.3796 36.7908 85.4046 36.7386 85.4408C36.6864 85.4771 36.6423 85.5238 36.6091 85.578L34.8393 87.9399L33.9239 87.0244C33.8371 86.9436 33.7223 86.8995 33.6038 86.9016C33.4852 86.9037 33.3721 86.9518 33.2882 87.0356C33.2043 87.1195 33.1563 87.2326 33.1542 87.3512C33.1521 87.4698 33.1961 87.5846 33.277 87.6713L34.1924 88.5807C34.2851 88.6734 34.3966 88.7451 34.5195 88.7909C34.6423 88.8368 34.7735 88.8557 34.9043 88.8465C35.0351 88.8372 35.1623 88.8 35.2775 88.7373C35.3926 88.6746 35.4929 88.5879 35.5716 88.483Z" fill="#111111"/>
</g>
</g>
<g id="Size=20px, Filled=true">
<g id="Vector_10">
<path d="M54.4056 80.9215C54.5222 81.6291 54.8608 82.2814 55.3726 82.7838L60.0337 87.8264C60.0672 87.8644 60.0861 87.9131 60.0871 87.9637L60.026 89.5886C60.0275 89.6262 60.0162 89.6632 59.9941 89.6937C59.9719 89.7241 59.9402 89.7462 59.904 89.7565C59.869 89.77 59.8307 89.7728 59.7941 89.7647C59.7575 89.7565 59.724 89.7377 59.698 89.7107L54.2817 83.8442C53.5456 83.1167 53.0601 82.1738 52.8955 81.1521C52.731 80.1303 52.8958 79.0826 53.3663 78.1608C53.7192 77.458 54.235 76.8497 54.8706 76.3866C55.5062 75.9235 56.2433 75.6189 57.0204 75.4984C57.8004 75.3661 58.6007 75.4225 59.3545 75.6627C60.1083 75.9029 60.7937 76.32 61.3534 76.8792L61.9866 77.4513L62.6503 76.8563C63.2104 76.3012 63.8932 75.8857 64.6436 75.6434C65.394 75.401 66.1909 75.3386 66.9699 75.4611C67.7489 75.5836 68.4881 75.8877 69.1278 76.3487C69.7676 76.8097 70.2899 77.4148 70.6526 78.115C71.0157 78.8291 71.1915 79.6237 71.1635 80.4243C71.1355 81.2249 70.9045 82.0053 70.4924 82.6923C70.4795 82.7166 70.461 82.7376 70.4385 82.7535C70.416 82.7694 70.39 82.7798 70.3627 82.7838C70.3388 82.7948 70.3128 82.8005 70.2864 82.8005C70.2601 82.8005 70.2341 82.7948 70.2102 82.7838C69.9153 82.5611 69.5983 82.3694 69.2642 82.2116C69.2178 82.1875 69.1824 82.1466 69.165 82.0972C69.1541 82.0733 69.1484 82.0473 69.1484 82.0209C69.1484 81.9946 69.1541 81.9686 69.165 81.9446C69.4428 81.4791 69.5977 80.9506 69.615 80.4088C69.6324 79.867 69.5117 79.3297 69.2642 78.8474C69.0131 78.3601 68.6508 77.9387 68.2066 77.6173C67.7625 77.2959 67.249 77.0836 66.7076 76.9974C66.1662 76.9113 65.6121 76.9537 65.0901 77.1214C64.5682 77.289 64.093 77.5771 63.703 77.9624L62.5129 79.0457C62.3723 79.1744 62.1886 79.2457 61.998 79.2457C61.8074 79.2457 61.6237 79.1744 61.4831 79.0457L60.3159 77.9853C59.9224 77.5901 59.4402 77.2947 58.9095 77.1235C58.3787 76.9523 57.8147 76.9104 57.2645 77.0012C56.7252 77.0859 56.2136 77.2974 55.772 77.6183C55.3304 77.9393 54.9712 78.3605 54.7242 78.8474C54.4006 79.4874 54.289 80.2138 54.4056 80.9215Z" fill="#111111"/>
<path fill-rule="evenodd" clip-rule="evenodd" d="M63.4273 83.5126C64.2427 82.9677 65.2014 82.6769 66.1821 82.6769C67.4966 82.6789 68.7567 83.202 69.6861 84.1315C70.6156 85.061 71.1387 86.3211 71.1407 87.6356C71.1407 88.6163 70.8499 89.575 70.305 90.3905C69.7602 91.2059 68.9857 91.8415 68.0797 92.2168C67.1736 92.5921 66.1766 92.6903 65.2148 92.499C64.2529 92.3077 63.3694 91.8354 62.6759 91.1419C61.9824 90.4484 61.5102 89.5649 61.3188 88.603C61.1275 87.6411 61.2257 86.6441 61.601 85.738C61.9763 84.8319 62.6119 84.0575 63.4273 83.5126ZM66.4644 89.6038L68.6767 86.6439V86.6515C68.7295 86.5922 68.7694 86.5225 68.7938 86.4469C68.8182 86.3713 68.8266 86.2915 68.8185 86.2124C68.8103 86.1334 68.7858 86.0569 68.7465 85.9879C68.7072 85.9189 68.654 85.8588 68.5902 85.8115C68.5264 85.7641 68.4534 85.7306 68.3759 85.7131C68.2985 85.6955 68.2182 85.6942 68.1402 85.7094C68.0622 85.7245 67.9883 85.7558 67.923 85.8011C67.8578 85.8464 67.8027 85.9048 67.7612 85.9725L65.549 88.9249L64.4047 87.7806C64.2962 87.6795 64.1528 87.6245 64.0045 87.6271C63.8563 87.6297 63.7149 87.6897 63.6101 87.7946C63.5052 87.8994 63.4452 88.0408 63.4426 88.1891C63.44 88.3373 63.495 88.4807 63.596 88.5892L64.7403 89.7259C64.8562 89.8417 64.9956 89.9314 65.1492 89.9887C65.3027 90.046 65.4667 90.0697 65.6302 90.0581C65.7937 90.0465 65.9527 90 66.0967 89.9216C66.2406 89.8432 66.366 89.7349 66.4644 89.6038Z" fill="#111111"/>
</g>
</g>
<g id="Size=24px, Filled=true">
<g id="Vector_11">
<path d="M86.8868 80.3058C87.0267 81.155 87.4331 81.9377 88.0472 82.5406L93.6405 88.5917C93.6807 88.6373 93.7034 88.6957 93.7045 88.7565L93.6313 90.7064C93.633 90.7515 93.6195 90.7959 93.5929 90.8324C93.5664 90.869 93.5283 90.8955 93.4848 90.9078C93.4428 90.924 93.3969 90.9274 93.353 90.9176C93.309 90.9078 93.2689 90.8853 93.2377 90.8529L86.7381 83.8131C85.8548 82.9401 85.2722 81.8086 85.0747 80.5825C84.8772 79.3563 85.0751 78.0992 85.6396 76.993C86.0631 76.1496 86.682 75.4196 87.4448 74.8639C88.2075 74.3082 89.092 73.9427 90.0245 73.798C90.9605 73.6394 91.9209 73.707 92.8255 73.9953C93.73 74.2835 94.5525 74.784 95.2241 75.455L95.9839 76.1416L96.7804 75.4275C97.4525 74.7615 98.2719 74.2629 99.1724 73.9721C100.073 73.6812 101.029 73.6063 101.964 73.7533C102.899 73.9004 103.786 74.2652 104.553 74.8185C105.321 75.3717 105.948 76.0978 106.383 76.938C106.819 77.7949 107.03 78.7485 106.996 79.7092C106.963 80.6699 106.686 81.6064 106.191 82.4307C106.175 82.46 106.153 82.4852 106.126 82.5043C106.099 82.5233 106.068 82.5358 106.035 82.5406C106.007 82.5538 105.975 82.5606 105.944 82.5606C105.912 82.5606 105.881 82.5538 105.852 82.5406C105.498 82.2733 105.118 82.0433 104.717 81.854C104.661 81.825 104.619 81.7759 104.598 81.7167C104.585 81.688 104.578 81.6567 104.578 81.6251C104.578 81.5935 104.585 81.5623 104.598 81.5336C104.931 80.975 105.117 80.3408 105.138 79.6906C105.159 79.0404 105.014 78.3956 104.717 77.8169C104.416 77.2321 103.981 76.7264 103.448 76.3408C102.915 75.9551 102.299 75.7003 101.649 75.5969C100.999 75.4936 100.335 75.5445 99.7082 75.7457C99.0819 75.9469 98.5116 76.2926 98.0436 76.7549L96.6156 78.0549C96.4468 78.2093 96.2264 78.2949 95.9977 78.2949C95.769 78.2949 95.5485 78.2093 95.3798 78.0549L93.9792 76.7824C93.507 76.3082 92.9283 75.9536 92.2914 75.7482C91.6545 75.5428 90.9777 75.4925 90.3175 75.6015C89.6702 75.7031 89.0564 75.9569 88.5264 76.342C87.9965 76.7272 87.5655 77.2326 87.2691 77.8169C86.8808 78.5849 86.7469 79.4566 86.8868 80.3058Z" fill="#111111"/>
<path fill-rule="evenodd" clip-rule="evenodd" d="M97.7128 83.4152C98.6913 82.7613 99.8417 82.4123 101.019 82.4123C102.596 82.4148 104.108 83.0424 105.223 84.1578C106.339 85.2732 106.966 86.7853 106.969 88.3627C106.969 89.5396 106.62 90.6901 105.966 91.6686C105.312 92.6472 104.383 93.4098 103.296 93.8602C102.208 94.3106 101.012 94.4284 99.8578 94.1988C98.7035 93.9692 97.6433 93.4025 96.8111 92.5703C95.979 91.7381 95.4123 90.6779 95.1827 89.5236C94.9531 88.3693 95.0709 87.1729 95.5213 86.0856C95.9716 84.9983 96.7343 84.069 97.7128 83.4152ZM101.357 90.7246L104.012 87.1727V87.1818C104.075 87.1106 104.123 87.027 104.153 86.9363C104.182 86.8456 104.192 86.7498 104.182 86.6549C104.172 86.5601 104.143 86.4684 104.096 86.3855C104.049 86.3027 103.985 86.2306 103.908 86.1738C103.832 86.117 103.744 86.0768 103.651 86.0557C103.558 86.0346 103.462 86.0331 103.368 86.0513C103.275 86.0695 103.186 86.1069 103.108 86.1613C103.029 86.2157 102.963 86.2857 102.914 86.3671L100.259 89.9099L98.8857 88.5367C98.7555 88.4154 98.5834 88.3494 98.4055 88.3525C98.2276 88.3557 98.0579 88.4277 97.9321 88.5535C97.8063 88.6793 97.7343 88.849 97.7311 89.0269C97.728 89.2048 97.794 89.3769 97.9153 89.5071L99.2884 90.8711C99.4275 91.0101 99.5948 91.1177 99.779 91.1865C99.9633 91.2552 100.16 91.2836 100.356 91.2698C100.552 91.2559 100.743 91.2 100.916 91.106C101.089 91.0119 101.239 90.8819 101.357 90.7246Z" fill="#111111"/>
</g>
</g>
<g id="Size=32px, Filled=true">
<g id="Vector_12">
<path d="M123.849 79.0743C124.035 80.2066 124.577 81.2501 125.396 82.054L132.854 90.1222C132.907 90.183 132.938 90.2608 132.939 90.3419L132.842 92.9418C132.844 93.0019 132.826 93.0611 132.79 93.1098C132.755 93.1585 132.704 93.1939 132.646 93.2103C132.59 93.2319 132.529 93.2364 132.47 93.2234C132.412 93.2104 132.358 93.1803 132.317 93.1371L123.651 83.7507C122.473 82.5867 121.696 81.0781 121.433 79.4432C121.169 77.8084 121.433 76.1321 122.186 74.6572C122.751 73.5327 123.576 72.5594 124.593 71.8185C125.61 71.0775 126.789 70.5902 128.033 70.3973C129.281 70.1858 130.561 70.2759 131.767 70.6603C132.973 71.0446 134.07 71.712 134.965 72.6066L135.978 73.522L137.04 72.57C137.937 71.6819 139.029 71.0171 140.23 70.6293C141.43 70.2415 142.705 70.1416 143.952 70.3377C145.198 70.5337 146.381 71.0202 147.404 71.7579C148.428 72.4955 149.264 73.4636 149.844 74.584C150.425 75.7265 150.706 76.9979 150.661 78.2789C150.617 79.5598 150.247 80.8084 149.588 81.9076C149.567 81.9466 149.538 81.9802 149.502 82.0056C149.465 82.0311 149.424 82.0476 149.38 82.054C149.342 82.0716 149.3 82.0807 149.258 82.0807C149.216 82.0807 149.174 82.0716 149.136 82.054C148.664 81.6977 148.157 81.3909 147.623 81.1386C147.548 81.0999 147.492 81.0345 147.464 80.9555C147.446 80.9172 147.437 80.8756 147.437 80.8334C147.437 80.7913 147.446 80.7497 147.464 80.7114C147.908 79.9666 148.156 79.121 148.184 78.2541C148.212 77.3872 148.019 76.5274 147.623 75.7557C147.221 74.976 146.641 74.3018 145.931 73.7876C145.22 73.2734 144.398 72.9337 143.532 72.7958C142.666 72.658 141.779 72.7259 140.944 72.9942C140.109 73.2624 139.349 73.7234 138.725 74.3398L136.821 76.0731C136.596 76.279 136.302 76.3931 135.997 76.3931C135.692 76.3931 135.398 76.279 135.173 76.0731L133.305 74.3765C132.676 73.7442 131.904 73.2714 131.055 72.9975C130.206 72.7237 129.303 72.6566 128.423 72.8019C127.56 72.9373 126.742 73.2757 126.035 73.7893C125.328 74.3028 124.754 74.9768 124.359 75.7557C123.841 76.7798 123.662 77.9421 123.849 79.0743Z" fill="#111111"/>
<path fill-rule="evenodd" clip-rule="evenodd" d="M138.284 83.2201C139.588 82.3483 141.122 81.883 142.691 81.883C144.794 81.8863 146.811 82.7232 148.298 84.2104C149.785 85.6976 150.622 87.7137 150.625 89.8169C150.625 91.3861 150.16 92.92 149.288 94.2247C148.416 95.5295 147.177 96.5464 145.727 97.1469C144.278 97.7474 142.683 97.9045 141.144 97.5984C139.605 97.2922 138.191 96.5366 137.081 95.427C135.972 94.3174 135.216 92.9038 134.91 91.3647C134.604 89.8257 134.761 88.2305 135.362 86.7807C135.962 85.331 136.979 84.0919 138.284 83.2201ZM143.143 92.9661L146.683 88.2301V88.2423C146.767 88.1474 146.831 88.0359 146.87 87.915C146.909 87.794 146.922 87.6663 146.909 87.5398C146.896 87.4134 146.857 87.2911 146.794 87.1806C146.731 87.0702 146.646 86.974 146.544 86.8983C146.442 86.8226 146.325 86.769 146.201 86.7408C146.077 86.7127 145.949 86.7107 145.824 86.7349C145.699 86.7592 145.581 86.8092 145.477 86.8816C145.372 86.9541 145.284 87.0476 145.218 87.156L141.678 91.8797L139.847 90.0488C139.674 89.8871 139.444 89.7991 139.207 89.8033C138.97 89.8075 138.744 89.9035 138.576 90.0713C138.408 90.239 138.312 90.4653 138.308 90.7024C138.304 90.9396 138.392 91.1691 138.554 91.3427L140.384 93.1614C140.57 93.3467 140.793 93.4901 141.039 93.5819C141.284 93.6736 141.547 93.7114 141.808 93.6929C142.07 93.6744 142.324 93.5999 142.555 93.4745C142.785 93.3491 142.985 93.1757 143.143 92.9661Z" fill="#111111"/>
</g>
</g>
<g id="Size=40px, Filled=true">
<g id="Vector_13">
<path d="M168.811 77.843C169.044 79.2583 169.722 80.5627 170.745 81.5676L180.067 91.6528C180.134 91.7288 180.172 91.8261 180.174 91.9274L180.052 95.1773C180.055 95.2525 180.032 95.3265 179.988 95.3874C179.944 95.4482 179.88 95.4925 179.808 95.5129C179.738 95.5399 179.661 95.5456 179.588 95.5293C179.515 95.513 179.448 95.4755 179.396 95.4214L168.563 83.6884C167.091 82.2334 166.12 80.3477 165.791 78.3041C165.462 76.2605 165.792 74.1652 166.733 72.3216C167.438 70.916 168.47 69.6994 169.741 68.7731C171.012 67.8469 172.486 67.2378 174.041 66.9967C175.601 66.7323 177.201 66.845 178.709 67.3254C180.217 67.8058 181.587 68.64 182.707 69.7583L183.973 70.9026L185.3 69.7125C186.421 68.6024 187.786 67.7715 189.287 67.2867C190.788 66.802 192.382 66.6771 193.94 66.9222C195.498 67.1672 196.976 67.7754 198.256 68.6974C199.535 69.6195 200.58 70.8296 201.305 72.23C202.031 73.6582 202.383 75.2474 202.327 76.8486C202.271 78.4499 201.809 80.0106 200.985 81.3845C200.959 81.4333 200.922 81.4753 200.877 81.5071C200.832 81.5389 200.78 81.5596 200.725 81.5676C200.677 81.5895 200.625 81.6009 200.573 81.6009C200.52 81.6009 200.468 81.5895 200.42 81.5676C199.831 81.1222 199.197 80.7387 198.528 80.4233C198.436 80.375 198.365 80.2931 198.33 80.1944C198.308 80.1466 198.297 80.0945 198.297 80.0419C198.297 79.9892 198.308 79.9372 198.33 79.8893C198.886 78.9583 199.195 77.9013 199.23 76.8177C199.265 75.734 199.023 74.6594 198.528 73.6947C198.026 72.7201 197.301 71.8773 196.413 71.2346C195.525 70.5918 194.498 70.1672 193.415 69.9949C192.332 69.8225 191.224 69.9075 190.18 70.2428C189.136 70.578 188.186 71.1543 187.406 71.9249L185.026 74.0914C184.745 74.3488 184.377 74.4915 183.996 74.4915C183.615 74.4915 183.247 74.3488 182.966 74.0914L180.632 71.9706C179.845 71.1803 178.88 70.5893 177.819 70.247C176.757 69.9046 175.629 69.8208 174.529 70.0024C173.45 70.1717 172.427 70.5947 171.544 71.2366C170.661 71.8785 169.942 72.721 169.448 73.6947C168.801 74.9748 168.578 76.4276 168.811 77.843Z" fill="#111111"/>
<path fill-rule="evenodd" clip-rule="evenodd" d="M186.854 83.0252C188.485 81.9355 190.403 81.3538 192.364 81.3538C194.993 81.3579 197.513 82.404 199.372 84.263C201.231 86.122 202.277 88.6422 202.281 91.2712C202.281 93.2327 201.7 95.1501 200.61 96.781C199.52 98.4119 197.971 99.683 196.159 100.434C194.347 101.184 192.353 101.381 190.429 100.998C188.506 100.615 186.739 99.6708 185.352 98.2838C183.965 96.8969 183.02 95.1298 182.638 93.206C182.255 91.2822 182.451 89.2882 183.202 87.476C183.953 85.6638 185.224 84.115 186.854 83.0252ZM192.929 95.2076L197.353 89.2877V89.303C197.459 89.1843 197.539 89.045 197.587 88.8938C197.636 88.7426 197.653 88.5829 197.637 88.4249C197.621 88.2668 197.572 88.1139 197.493 87.9758C197.414 87.8378 197.308 87.7176 197.18 87.6229C197.053 87.5283 196.907 87.4613 196.752 87.4261C196.597 87.391 196.436 87.3884 196.28 87.4188C196.124 87.4491 195.976 87.5115 195.846 87.6021C195.715 87.6927 195.605 87.8095 195.522 87.9451L191.098 93.8497L188.809 91.5611C188.592 91.359 188.305 91.2489 188.009 91.2542C187.713 91.2594 187.43 91.3795 187.22 91.5891C187.01 91.7988 186.89 92.0816 186.885 92.3781C186.88 92.6746 186.99 92.9615 187.192 93.1784L189.481 95.4518C189.712 95.6835 189.991 95.8628 190.298 95.9774C190.605 96.092 190.933 96.1394 191.26 96.1162C191.587 96.0931 191.905 96 192.193 95.8432C192.481 95.6865 192.732 95.4697 192.929 95.2076Z" fill="#111111"/>
</g>
</g>
<g id="Size=48px, Filled=true">
<g id="Vector_14">
<path d="M221.773 76.6115C222.053 78.3099 222.866 79.8752 224.094 81.081L235.281 93.1833C235.361 93.2745 235.407 93.3913 235.409 93.5128L235.262 97.4127C235.266 97.5029 235.239 97.5917 235.186 97.6648C235.132 97.7378 235.056 97.7909 234.969 97.8154C234.885 97.8478 234.794 97.8547 234.706 97.8351C234.618 97.8156 234.538 97.7705 234.475 97.7056L221.476 83.626C219.709 81.8801 218.544 79.6171 218.149 77.1648C217.754 74.7126 218.15 72.1982 219.279 69.9858C220.126 68.2991 221.364 66.8392 222.889 65.7277C224.415 64.6162 226.184 63.8853 228.049 63.596C229.921 63.2787 231.842 63.4139 233.651 63.9904C235.46 64.5669 237.105 65.568 238.448 66.9099L239.968 68.2831L241.56 66.855C242.905 65.5229 244.544 64.5257 246.345 63.944C248.146 63.3623 250.058 63.2125 251.928 63.5065C253.797 63.8006 255.571 64.5304 257.107 65.6368C258.642 66.7433 259.896 68.1955 260.766 69.876C261.638 71.5898 262.059 73.4968 261.992 75.4183C261.925 77.3398 261.371 79.2127 260.382 80.8613C260.351 80.9198 260.306 80.9702 260.252 81.0084C260.198 81.0466 260.136 81.0715 260.07 81.081C260.013 81.1074 259.95 81.121 259.887 81.121C259.824 81.121 259.762 81.1074 259.704 81.081C258.997 80.5466 258.236 80.0864 257.434 79.7079C257.323 79.6499 257.238 79.5517 257.196 79.4332C257.17 79.3758 257.156 79.3133 257.156 79.2501C257.156 79.187 257.17 79.1245 257.196 79.0671C257.863 77.9499 258.234 76.6815 258.276 75.3811C258.318 74.0808 258.028 72.7912 257.434 71.6336C256.831 70.4641 255.962 69.4527 254.896 68.6814C253.83 67.9101 252.597 67.4005 251.298 67.1937C249.999 66.987 248.669 67.0889 247.416 67.4912C246.163 67.8936 245.023 68.5851 244.087 69.5098L241.231 72.1096C240.893 72.4184 240.453 72.5897 239.995 72.5897C239.538 72.5897 239.097 72.4184 238.759 72.1096L235.958 69.5647C235.014 68.6163 233.856 67.9071 232.583 67.4963C231.309 67.0855 229.955 66.9849 228.635 67.2028C227.34 67.406 226.113 67.9136 225.053 68.6839C223.993 69.4542 223.131 70.4652 222.538 71.6336C221.761 73.1697 221.494 74.9131 221.773 76.6115Z" fill="#111111"/>
<path fill-rule="evenodd" clip-rule="evenodd" d="M243.425 82.8302C245.382 81.5225 247.683 80.8245 250.037 80.8245C253.192 80.8294 256.216 82.0848 258.447 84.3156C260.677 86.5464 261.933 89.5706 261.937 92.7254C261.937 95.0791 261.24 97.38 259.932 99.3371C258.624 101.294 256.766 102.82 254.591 103.72C252.417 104.621 250.024 104.857 247.715 104.398C245.407 103.938 243.286 102.805 241.622 101.141C239.958 99.4762 238.824 97.3557 238.365 95.0471C237.906 92.7386 238.142 90.3457 239.042 88.1711C239.943 85.9965 241.468 84.1379 243.425 82.8302ZM250.714 97.4491L256.024 90.3452V90.3635C256.151 90.2211 256.246 90.0539 256.305 89.8725C256.364 89.691 256.384 89.4994 256.364 89.3098C256.345 89.1201 256.286 88.9366 256.192 88.7709C256.097 88.6052 255.969 88.461 255.816 88.3475C255.663 88.2339 255.488 88.1534 255.302 88.1113C255.116 88.0691 254.924 88.0661 254.736 88.1024C254.549 88.1388 254.372 88.2137 254.215 88.3225C254.059 88.4312 253.926 88.5714 253.827 88.734L248.517 95.8196L245.771 93.0732C245.511 92.8307 245.166 92.6986 244.811 92.7049C244.455 92.7112 244.116 92.8553 243.864 93.1069C243.612 93.3585 243.468 93.6979 243.462 94.0536C243.456 94.4094 243.588 94.7537 243.83 95.014L246.577 97.742C246.855 98.0201 247.189 98.2352 247.558 98.3728C247.926 98.5104 248.32 98.5672 248.712 98.5394C249.105 98.5116 249.486 98.3999 249.832 98.2118C250.177 98.0237 250.478 97.7636 250.714 97.4491Z" fill="#111111"/>
</g>
</g>
</g>
</svg>
