<svg width="264" height="108" viewBox="0 0 264 108" fill="none" xmlns="http://www.w3.org/2000/svg">
<g id="Link">
<g clip-path="url(#clip0_1110_1314)">
<g id="Size=12px, Filled=false">
<path id="Vector" d="M4.79013 27.3242L4.35301 27.8112C3.52877 28.7296 2.19242 28.7296 1.36818 27.8112C0.543941 26.8928 0.543941 25.4039 1.36818 24.4855L3.6068 21.9907C4.38519 21.1214 5.63279 21.0658 6.47104 21.8629C7.3093 22.6601 7.456 24.0416 6.80784 25.0347M7.29494 20.5809L7.64673 20.1889C8.47103 19.2704 9.80748 19.2704 10.6318 20.1889C11.4561 21.1074 11.4561 22.5966 10.6318 23.5151L8.39299 26.0098C7.61439 26.8788 6.36687 26.9341 5.52876 26.1368C4.69065 25.3394 4.54405 23.9579 5.19218 22.9647" stroke="#111111" stroke-width="0.75" stroke-linecap="round" stroke-linejoin="round"/>
</g>
<g id="Size=16px, Filled=false">
<path id="Vector_2" d="M30.3868 28.4322L29.804 29.0816C28.705 30.3061 26.9232 30.3061 25.8242 29.0816C24.7253 27.8571 24.7253 25.8718 25.8242 24.6473L28.8091 21.3209C29.8469 20.1619 31.5104 20.0877 32.6281 21.1506C33.7457 22.2134 33.9413 24.0555 33.0771 25.3796M33.7266 19.4412L34.1956 18.9185C35.2947 17.6938 37.0766 17.6938 38.1757 18.9185C39.2748 20.1432 39.2748 22.1288 38.1757 23.3535L35.1907 26.6797C34.1525 27.8384 32.4892 27.9121 31.3717 26.849C30.2542 25.7859 30.0587 23.9438 30.9229 22.6196" stroke="#111111" stroke-linecap="round" stroke-linejoin="round"/>
</g>
<g id="Size=20px, Filled=false">
<path id="Vector_3" d="M59.9835 29.5403L59.255 30.352C57.8813 31.8827 55.654 31.8827 54.2803 30.352C52.9066 28.8214 52.9066 26.3398 54.2803 24.8091L58.0113 20.6511C59.3086 19.2024 61.388 19.1096 62.7851 20.4382C64.1822 21.7668 64.4267 24.0694 63.3464 25.7245M64.1582 18.3015L64.7446 17.6481C66.1184 16.1173 68.3458 16.1173 69.7196 17.6481C71.0935 19.179 71.0935 21.661 69.7196 23.1918L65.9883 27.3496C64.6907 28.7979 62.6114 28.8901 61.2146 27.5613C59.8178 26.2324 59.5734 23.9298 60.6536 22.2746" stroke="#111111" stroke-width="1.25" stroke-linecap="round" stroke-linejoin="round"/>
</g>
<g id="Size=24px, Filled=false">
<path id="Vector_4" d="M93.7536 30.7137L92.8065 31.6607C91.0207 33.4464 88.1252 33.4464 86.3394 31.6607C84.5535 29.875 84.5535 26.9797 86.3394 25.194L91.1897 20.343C92.8762 18.6527 95.5794 18.5445 97.3956 20.0946C99.2118 21.6446 99.5297 24.3309 98.1253 26.262M98.4307 17.1017L99.1929 16.3395C100.979 14.5535 103.875 14.5535 105.661 16.3395C107.446 18.1255 107.446 21.0211 105.661 22.8071L100.81 27.6579C99.1228 29.3476 96.4199 29.4552 94.604 27.9048C92.7881 26.3545 92.4705 23.6681 93.8747 21.737" stroke="#111111" stroke-width="1.5" stroke-linecap="round" stroke-linejoin="round"/>
</g>
<g id="Size=32px, Filled=false">
<path id="Vector_5" d="M132.774 32.8645L131.608 34.1633C129.41 36.6123 125.846 36.6123 123.648 34.1633C121.451 31.7143 121.451 27.7436 123.648 25.2946L129.618 18.6418C131.694 16.3238 135.021 16.1754 137.256 18.3011C139.491 20.4268 139.883 24.111 138.154 26.7593M139.453 14.8823L140.391 13.837C142.589 11.3877 146.153 11.3877 148.351 13.837C150.55 16.2864 150.55 20.2576 148.351 22.7069L142.381 29.3594C140.305 31.6767 136.978 31.8242 134.743 29.698C132.508 27.5719 132.117 23.8876 133.846 21.2393" stroke="#111111" stroke-width="2" stroke-linecap="round" stroke-linejoin="round"/>
</g>
<g id="Size=40px, Filled=false">
<path id="Vector_6" d="M179.967 35.0806L178.51 36.7041C175.763 39.7653 171.308 39.7653 168.561 36.7041C165.813 33.6428 165.813 28.6795 168.561 25.6183L176.023 17.3022C178.617 14.4047 182.776 14.2192 185.57 16.8764C188.364 19.5335 188.853 24.1388 186.693 27.4491M188.316 12.6029L189.489 11.2963C192.237 8.23458 196.692 8.23458 199.439 11.2963C202.187 14.358 202.187 19.322 199.439 22.3837L191.977 30.6992C189.381 33.5959 185.223 33.7803 182.429 31.1225C179.636 28.4648 179.147 23.8595 181.307 20.5491" stroke="#111111" stroke-width="2.5" stroke-linecap="round" stroke-linejoin="round"/>
</g>
<g id="Size=48px, Filled=false">
<path id="Vector_7" d="M235.161 37.2967L233.412 39.2449C230.115 42.9184 224.77 42.9184 221.473 39.2449C218.176 35.5714 218.176 29.6155 221.473 25.942L230.427 15.9627C233.541 12.4857 238.531 12.2631 241.884 15.4517C245.237 18.6403 245.824 24.1665 243.231 28.1389M245.18 10.3235L246.587 8.75553C249.884 5.08149 255.23 5.08149 258.527 8.75553C261.824 12.4296 261.824 18.3864 258.527 22.0604L249.572 32.039C246.458 35.5151 241.467 35.7363 238.115 32.5471C234.763 29.3578 234.176 23.8314 236.769 19.8589" stroke="#111111" stroke-width="3" stroke-linecap="round" stroke-linejoin="round"/>
</g>
<g id="Size=12px, Filled=true" clip-path="url(#clip1_1110_1314)">
<path id="Vector_8" fill-rule="evenodd" clip-rule="evenodd" d="M6 90C9.31371 90 12 87.3137 12 84C12 80.6863 9.31371 78 6 78C2.68629 78 0 80.6863 0 84C0 87.3137 2.68629 90 6 90ZM5.37028 82.3149C5.37028 81.9989 5.49582 81.6959 5.71927 81.4724L6.84266 80.349C7.06612 80.1256 7.36919 80 7.6852 80C8.00122 80 8.30429 80.1256 8.52774 80.349L9.65113 81.4724C9.87459 81.6959 10.0001 81.9989 10.0001 82.3149C10.0001 82.6309 9.87459 82.934 9.65113 83.1575L8.52774 84.2808C8.30429 84.5043 8.00122 84.6298 7.6852 84.6298C7.36919 84.6298 7.06612 84.5043 6.84266 84.2808L7.40436 83.7192C7.47884 83.7936 7.57986 83.8355 7.6852 83.8355C7.79054 83.8355 7.89156 83.7936 7.96605 83.7192L9.08944 82.5958C9.16392 82.5213 9.20577 82.4203 9.20577 82.3149C9.20577 82.2096 9.16392 82.1086 9.08944 82.0341L7.96605 80.9107C7.89156 80.8362 7.79054 80.7944 7.6852 80.7944C7.57986 80.7944 7.47884 80.8362 7.40436 80.9107L6.28097 82.0341C6.20648 82.1086 6.16464 82.2096 6.16464 82.3149C6.16464 82.4203 6.20648 82.5213 6.28097 82.5958L5.71927 83.1575C5.49582 82.934 5.37028 82.6309 5.37028 82.3149ZM4.38525 85.1936L7.19372 82.3851L7.61499 82.8064L4.80652 85.6149L4.38525 85.1936ZM4.59589 87.0893C4.5214 87.1638 4.42038 87.2056 4.31504 87.2056C4.2097 87.2056 4.10868 87.1638 4.03419 87.0893L2.91081 85.9659C2.83632 85.8914 2.79448 85.7904 2.79448 85.6851C2.79448 85.5797 2.83632 85.4787 2.91081 85.4042L4.03419 84.2808C4.10868 84.2064 4.2097 84.1645 4.31504 84.1645C4.42038 84.1645 4.5214 84.2064 4.59589 84.2808L5.15758 83.7192C4.93413 83.4957 4.63105 83.3702 4.31504 83.3702C3.99903 83.3702 3.69596 83.4957 3.4725 83.7192L2.34911 84.8425C2.12566 85.066 2.00012 85.3691 2.00012 85.6851C2.00012 86.0011 2.12566 86.3041 2.34911 86.5276L3.4725 87.651C3.69596 87.8744 3.99903 88 4.31504 88C4.63105 88 4.93413 87.8744 5.15758 87.651L6.28097 86.5276C6.50442 86.3041 6.62996 86.0011 6.62996 85.6851C6.62996 85.3691 6.50442 85.066 6.28097 84.8425L5.71927 85.4042C5.79376 85.4787 5.83561 85.5797 5.83561 85.6851C5.83561 85.7904 5.79376 85.8914 5.71927 85.9659L4.59589 87.0893Z" fill="#111111"/>
</g>
<g id="Size=16px, Filled=true" clip-path="url(#clip2_1110_1314)">
<path id="Vector_9" fill-rule="evenodd" clip-rule="evenodd" d="M32 92C36.4183 92 40 88.4183 40 84C40 79.5817 36.4183 76 32 76C27.5817 76 24 79.5817 24 84C24 88.4183 27.5817 92 32 92ZM31.1604 81.7532C31.1604 81.3319 31.3278 80.9278 31.6257 80.6299L33.1236 79.132C33.4215 78.8341 33.8256 78.6667 34.2469 78.6667C34.6683 78.6667 35.0724 78.8341 35.3703 79.132L36.8682 80.6299C37.1661 80.9278 37.3335 81.3319 37.3335 81.7532C37.3335 82.1746 37.1661 82.5787 36.8682 82.8766L35.3703 84.3745C35.0724 84.6724 34.6683 84.8398 34.2469 84.8398C33.8256 84.8398 33.4215 84.6724 33.1236 84.3745L33.8725 83.6255C33.9718 83.7249 34.1065 83.7806 34.2469 83.7806C34.3874 83.7806 34.5221 83.7249 34.6214 83.6255L36.1192 82.1277C36.2186 82.0284 36.2744 81.8937 36.2744 81.7532C36.2744 81.6128 36.2186 81.4781 36.1192 81.3788L34.6214 79.881C34.5221 79.7816 34.3874 79.7258 34.2469 79.7258C34.1065 79.7258 33.9718 79.7816 33.8725 79.881L32.3746 81.3788C32.2753 81.4781 32.2195 81.6128 32.2195 81.7532C32.2195 81.8937 32.2753 82.0284 32.3746 82.1277L31.6257 82.8766C31.3278 82.5787 31.1604 82.1746 31.1604 81.7532ZM29.847 85.5915L33.5916 81.8469L34.1533 82.4085L30.4087 86.1531L29.847 85.5915ZM30.1279 88.119C30.0285 88.2184 29.8938 88.2742 29.7534 88.2742C29.6129 88.2742 29.4782 88.2184 29.3789 88.119L27.8811 86.6212C27.7818 86.5219 27.726 86.3872 27.726 86.2468C27.726 86.1063 27.7818 85.9716 27.8811 85.8723L29.3789 84.3745C29.4782 84.2751 29.6129 84.2194 29.7534 84.2194C29.8938 84.2194 30.0285 84.2751 30.1279 84.3745L30.8768 83.6255C30.5788 83.3276 30.1747 83.1602 29.7534 83.1602C29.332 83.1602 28.9279 83.3276 28.63 83.6255L27.1322 85.1234C26.8342 85.4213 26.6668 85.8254 26.6668 86.2468C26.6668 86.6681 26.8342 87.0722 27.1322 87.3701L28.63 88.868C28.9279 89.1659 29.332 89.3333 29.7534 89.3333C30.1747 89.3333 30.5788 89.1659 30.8768 88.868L32.3746 87.3701C32.6726 87.0722 32.8399 86.6681 32.8399 86.2468C32.8399 85.8254 32.6726 85.4213 32.3746 85.1234L31.6257 85.8723C31.725 85.9716 31.7808 86.1063 31.7808 86.2468C31.7808 86.3872 31.725 86.5219 31.6257 86.6212L30.1279 88.119Z" fill="#111111"/>
</g>
<g id="Size=20px, Filled=true" clip-path="url(#clip3_1110_1314)">
<path id="Vector_10" fill-rule="evenodd" clip-rule="evenodd" d="M62 94C67.5228 94 72 89.5228 72 84C72 78.4772 67.5228 74 62 74C56.4772 74 52 78.4772 52 84C52 89.5228 56.4772 94 62 94ZM60.9505 81.1916C60.9505 80.6649 61.1597 80.1598 61.5321 79.7873L63.4044 77.915C63.7769 77.5426 64.282 77.3334 64.8087 77.3334C65.3354 77.3334 65.8405 77.5426 66.2129 77.915L68.0852 79.7873C68.4576 80.1598 68.6669 80.6649 68.6669 81.1916C68.6669 81.7182 68.4576 82.2234 68.0852 82.5958L66.2129 84.4681C65.8405 84.8405 65.3354 85.0497 64.8087 85.0497C64.282 85.0497 63.7769 84.8405 63.4044 84.4681L64.3406 83.5319C64.4647 83.6561 64.6331 83.7258 64.8087 83.7258C64.9842 83.7258 65.1526 83.6561 65.2767 83.5319L67.1491 81.6596C67.2732 81.5355 67.3429 81.3671 67.3429 81.1916C67.3429 81.016 67.2732 80.8476 67.1491 80.7235L65.2767 78.8512C65.1526 78.727 64.9842 78.6573 64.8087 78.6573C64.6331 78.6573 64.4647 78.727 64.3406 78.8512L62.4683 80.7235C62.3441 80.8476 62.2744 81.016 62.2744 81.1916C62.2744 81.3671 62.3441 81.5355 62.4683 81.6596L61.5321 82.5958C61.1597 82.2234 60.9505 81.7182 60.9505 81.1916ZM59.3088 85.9893L63.9895 81.3086L64.6917 82.0107L60.0109 86.6914L59.3088 85.9893ZM59.6598 89.1488C59.5357 89.273 59.3673 89.3427 59.1917 89.3427C59.0162 89.3427 58.8478 89.273 58.7237 89.1488L56.8513 87.2765C56.7272 87.1524 56.6575 86.984 56.6575 86.8084C56.6575 86.6329 56.7272 86.4645 56.8513 86.3404L58.7237 84.4681C58.8478 84.3439 59.0162 84.2742 59.1917 84.2742C59.3673 84.2742 59.5357 84.3439 59.6598 84.4681L60.596 83.5319C60.2235 83.1595 59.7184 82.9503 59.1917 82.9503C58.665 82.9503 58.1599 83.1595 57.7875 83.5319L55.9152 85.4042C55.5428 85.7766 55.3335 86.2818 55.3335 86.8084C55.3335 87.3351 55.5428 87.8402 55.9152 88.2127L57.7875 90.085C58.1599 90.4574 58.665 90.6666 59.1917 90.6666C59.7184 90.6666 60.2235 90.4574 60.596 90.085L62.4683 88.2127C62.8407 87.8402 63.0499 87.3351 63.0499 86.8084C63.0499 86.2818 62.8407 85.7766 62.4683 85.4042L61.5321 86.3404C61.6563 86.4645 61.726 86.6329 61.726 86.8084C61.726 86.984 61.6563 87.1524 61.5321 87.2765L59.6598 89.1488Z" fill="#111111"/>
</g>
<g id="Size=24px, Filled=true" clip-path="url(#clip4_1110_1314)">
<path id="Vector_11" fill-rule="evenodd" clip-rule="evenodd" d="M96 96C102.627 96 108 90.6274 108 84C108 77.3726 102.627 72 96 72C89.3726 72 84 77.3726 84 84C84 90.6274 89.3726 96 96 96ZM94.7406 80.6299C94.7406 79.9978 94.9916 79.3917 95.4385 78.9448L97.6853 76.6981C98.1322 76.2511 98.7384 76.0001 99.3704 76.0001C100.002 76.0001 100.609 76.2511 101.055 76.6981L103.302 78.9448C103.749 79.3917 104 79.9978 104 80.6299C104 81.2619 103.749 81.868 103.302 82.3149L101.055 84.5617C100.609 85.0086 100.002 85.2597 99.3704 85.2597C98.7384 85.2597 98.1322 85.0086 97.6853 84.5617L98.8087 83.4383C98.9577 83.5873 99.1597 83.671 99.3704 83.671C99.5811 83.671 99.7831 83.5873 99.9321 83.4383L102.179 81.1916C102.328 81.0426 102.412 80.8405 102.412 80.6299C102.412 80.4192 102.328 80.2171 102.179 80.0682L99.9321 77.8214C99.7831 77.6725 99.5811 77.5888 99.3704 77.5888C99.1597 77.5888 98.9577 77.6725 98.8087 77.8214L96.5619 80.0682C96.413 80.2171 96.3293 80.4192 96.3293 80.6299C96.3293 80.8405 96.413 81.0426 96.5619 81.1916L95.4385 82.3149C94.9916 81.868 94.7406 81.2619 94.7406 80.6299ZM92.7705 86.3872L98.3874 80.7703L99.23 81.6128L93.613 87.2297L92.7705 86.3872ZM93.1918 90.1786C93.0428 90.3275 92.8408 90.4112 92.6301 90.4112C92.4194 90.4112 92.2174 90.3275 92.0684 90.1786L89.8216 87.9318C89.6726 87.7829 89.589 87.5808 89.589 87.3701C89.589 87.1595 89.6726 86.9574 89.8216 86.8084L92.0684 84.5617C92.2174 84.4127 92.4194 84.329 92.6301 84.329C92.8408 84.329 93.0428 84.4127 93.1918 84.5617L94.3152 83.4383C93.8683 82.9914 93.2621 82.7403 92.6301 82.7403C91.9981 82.7403 91.3919 82.9914 90.945 83.4383L88.6982 85.6851C88.2513 86.132 88.0002 86.7381 88.0002 87.3701C88.0002 88.0022 88.2513 88.6083 88.6982 89.0552L90.945 91.3019C91.3919 91.7489 91.9981 91.9999 92.6301 91.9999C93.2621 91.9999 93.8683 91.7489 94.3152 91.3019L96.5619 89.0552C97.0088 88.6083 97.2599 88.0022 97.2599 87.3701C97.2599 86.7381 97.0088 86.132 96.5619 85.6851L95.4385 86.8084C95.5875 86.9574 95.6712 87.1595 95.6712 87.3701C95.6712 87.5808 95.5875 87.7829 95.4385 87.9318L93.1918 90.1786Z" fill="#111111"/>
</g>
<g id="Size=32px, Filled=true" clip-path="url(#clip5_1110_1314)">
<path id="Vector_12" fill-rule="evenodd" clip-rule="evenodd" d="M136 100C144.837 100 152 92.8366 152 84C152 75.1634 144.837 68 136 68C127.163 68 120 75.1634 120 84C120 92.8366 127.163 100 136 100ZM134.321 79.5065C134.321 78.6638 134.656 77.8556 135.251 77.2597L138.247 74.2641C138.843 73.6682 139.651 73.3334 140.494 73.3334C141.337 73.3334 142.145 73.6682 142.741 74.2641L145.736 77.2597C146.332 77.8556 146.667 78.6638 146.667 79.5065C146.667 80.3492 146.332 81.1574 145.736 81.7532L142.741 84.7489C142.145 85.3448 141.337 85.6796 140.494 85.6796C139.651 85.6796 138.843 85.3448 138.247 84.7489L139.745 83.2511C139.944 83.4497 140.213 83.5613 140.494 83.5613C140.775 83.5613 141.044 83.4497 141.243 83.2511L144.238 80.2554C144.437 80.0568 144.549 79.7874 144.549 79.5065C144.549 79.2256 144.437 78.9562 144.238 78.7576L141.243 75.7619C141.044 75.5633 140.775 75.4517 140.494 75.4517C140.213 75.4517 139.944 75.5633 139.745 75.7619L136.749 78.7576C136.551 78.9562 136.439 79.2256 136.439 79.5065C136.439 79.7874 136.551 80.0568 136.749 80.2554L135.251 81.7532C134.656 81.1574 134.321 80.3492 134.321 79.5065ZM131.694 87.1829L139.183 79.6937L140.307 80.8171L132.817 88.3063L131.694 87.1829ZM132.256 92.2381C132.057 92.4367 131.788 92.5483 131.507 92.5483C131.226 92.5483 130.956 92.4367 130.758 92.2381L127.762 89.2424C127.564 89.0438 127.452 88.7744 127.452 88.4935C127.452 88.2126 127.564 87.9432 127.762 87.7446L130.758 84.7489C130.956 84.5503 131.226 84.4387 131.507 84.4387C131.788 84.4387 132.057 84.5503 132.256 84.7489L133.754 83.2511C133.158 82.6552 132.349 82.3204 131.507 82.3204C130.664 82.3204 129.856 82.6552 129.26 83.2511L126.264 86.2468C125.668 86.8426 125.334 87.6508 125.334 88.4935C125.334 89.3362 125.668 90.1444 126.264 90.7403L129.26 93.7359C129.856 94.3318 130.664 94.6666 131.507 94.6666C132.349 94.6666 133.158 94.3318 133.754 93.7359L136.749 90.7403C137.345 90.1444 137.68 89.3362 137.68 88.4935C137.68 87.6508 137.345 86.8426 136.749 86.2468L135.251 87.7446C135.45 87.9432 135.562 88.2126 135.562 88.4935C135.562 88.7744 135.45 89.0438 135.251 89.2424L132.256 92.2381Z" fill="#111111"/>
</g>
<g id="Size=40px, Filled=true" clip-path="url(#clip6_1110_1314)">
<path id="Vector_13" fill-rule="evenodd" clip-rule="evenodd" d="M184 104C195.046 104 204 95.0457 204 84C204 72.9543 195.046 64 184 64C172.954 64 164 72.9543 164 84C164 95.0457 172.954 104 184 104ZM181.901 78.3831C181.901 77.3297 182.319 76.3195 183.064 75.5747L186.809 71.8301C187.554 71.0852 188.564 70.6668 189.617 70.6668C190.671 70.6668 191.681 71.0852 192.426 71.8301L196.17 75.5747C196.915 76.3195 197.334 77.3297 197.334 78.3831C197.334 79.4365 196.915 80.4467 196.17 81.1916L192.426 84.9361C191.681 85.681 190.671 86.0994 189.617 86.0994C188.564 86.0994 187.554 85.681 186.809 84.9361L188.681 83.0639C188.929 83.3121 189.266 83.4516 189.617 83.4516C189.968 83.4516 190.305 83.3121 190.553 83.0639L194.298 79.3193C194.546 79.071 194.686 78.7342 194.686 78.3831C194.686 78.032 194.546 77.6952 194.298 77.447L190.553 73.7024C190.305 73.4541 189.968 73.3146 189.617 73.3146C189.266 73.3146 188.929 73.4541 188.681 73.7024L184.937 77.447C184.688 77.6952 184.549 78.032 184.549 78.3831C184.549 78.7342 184.688 79.071 184.937 79.3193L183.064 81.1916C182.319 80.4467 181.901 79.4365 181.901 78.3831ZM178.618 87.9786L187.979 78.6172L189.383 80.0214L180.022 89.3828L178.618 87.9786ZM179.32 94.2976C179.071 94.5459 178.735 94.6854 178.383 94.6854C178.032 94.6854 177.696 94.5459 177.447 94.2976L173.703 90.553C173.454 90.3048 173.315 89.968 173.315 89.6169C173.315 89.2658 173.454 88.929 173.703 88.6807L177.447 84.9361C177.696 84.6879 178.032 84.5484 178.383 84.5484C178.735 84.5484 179.071 84.6879 179.32 84.9361L181.192 83.0639C180.447 82.319 179.437 81.9006 178.383 81.9006C177.33 81.9006 176.32 82.319 175.575 83.0639L171.83 86.8084C171.086 87.5533 170.667 88.5635 170.667 89.6169C170.667 90.6703 171.086 91.6805 171.83 92.4253L175.575 96.1699C176.32 96.9148 177.33 97.3332 178.383 97.3332C179.437 97.3332 180.447 96.9148 181.192 96.1699L184.937 92.4253C185.681 91.6805 186.1 90.6703 186.1 89.6169C186.1 88.5635 185.681 87.5533 184.937 86.8084L183.064 88.6807C183.313 88.929 183.452 89.2658 183.452 89.6169C183.452 89.968 183.313 90.3048 183.064 90.553L179.32 94.2976Z" fill="#111111"/>
</g>
<g id="Size=48px, Filled=true" clip-path="url(#clip7_1110_1314)">
<path id="Vector_14" fill-rule="evenodd" clip-rule="evenodd" d="M240 108C253.255 108 264 97.2548 264 84C264 70.7452 253.255 60 240 60C226.745 60 216 70.7452 216 84C216 97.2548 226.745 108 240 108ZM237.481 77.2597C237.481 75.9957 237.983 74.7834 238.877 73.8896L243.371 69.3961C244.264 68.5023 245.477 68.0001 246.741 68.0001C248.005 68.0001 249.217 68.5023 250.111 69.3961L254.605 73.8896C255.498 74.7834 256 75.9957 256 77.2597C256 78.5238 255.498 79.7361 254.605 80.6299L250.111 85.1234C249.217 86.0172 248.005 86.5193 246.741 86.5193C245.477 86.5193 244.264 86.0172 243.371 85.1234L245.617 82.8766C245.915 83.1746 246.319 83.3419 246.741 83.3419C247.162 83.3419 247.566 83.1746 247.864 82.8766L252.358 78.3831C252.656 78.0852 252.823 77.6811 252.823 77.2597C252.823 76.8384 252.656 76.4343 252.358 76.1364L247.864 71.6429C247.566 71.3449 247.162 71.1775 246.741 71.1775C246.319 71.1775 245.915 71.3449 245.617 71.6429L241.124 76.1364C240.826 76.4343 240.659 76.8384 240.659 77.2597C240.659 77.6811 240.826 78.0852 241.124 78.3831L238.877 80.6299C237.983 79.7361 237.481 78.5238 237.481 77.2597ZM233.541 88.7744L244.775 77.5406L246.46 79.2256L235.226 90.4594L233.541 88.7744ZM234.384 96.3571C234.086 96.6551 233.682 96.8225 233.26 96.8225C232.839 96.8225 232.435 96.6551 232.137 96.3571L227.643 91.8636C227.345 91.5657 227.178 91.1616 227.178 90.7403C227.178 90.3189 227.345 89.9148 227.643 89.6169L232.137 85.1234C232.435 84.8254 232.839 84.6581 233.26 84.6581C233.682 84.6581 234.086 84.8254 234.384 85.1234L236.63 82.8766C235.737 81.9828 234.524 81.4807 233.26 81.4807C231.996 81.4807 230.784 81.9828 229.89 82.8766L225.396 87.3701C224.503 88.2639 224 89.4762 224 90.7403C224 92.0043 224.503 93.2166 225.396 94.1104L229.89 98.6039C230.784 99.4977 231.996 99.9999 233.26 99.9999C234.524 99.9999 235.737 99.4977 236.63 98.6039L241.124 94.1104C242.018 93.2166 242.52 92.0043 242.52 90.7403C242.52 89.4762 242.018 88.2639 241.124 87.3701L238.877 89.6169C239.175 89.9148 239.342 90.3189 239.342 90.7403C239.342 91.1616 239.175 91.5657 238.877 91.8636L234.384 96.3571Z" fill="#111111"/>
</g>
</g>
</g>
<defs>
<clipPath id="clip0_1110_1314">
<rect width="264" height="108" rx="5" fill="white"/>
</clipPath>
<clipPath id="clip1_1110_1314">
<rect width="12" height="12" fill="white" transform="translate(0 78)"/>
</clipPath>
<clipPath id="clip2_1110_1314">
<rect width="16" height="16" fill="white" transform="translate(24 76)"/>
</clipPath>
<clipPath id="clip3_1110_1314">
<rect width="20" height="20" fill="white" transform="translate(52 74)"/>
</clipPath>
<clipPath id="clip4_1110_1314">
<rect width="24" height="24" fill="white" transform="translate(84 72)"/>
</clipPath>
<clipPath id="clip5_1110_1314">
<rect width="32" height="32" fill="white" transform="translate(120 68)"/>
</clipPath>
<clipPath id="clip6_1110_1314">
<rect width="40" height="40" fill="white" transform="translate(164 64)"/>
</clipPath>
<clipPath id="clip7_1110_1314">
<rect width="48" height="48" fill="white" transform="translate(216 60)"/>
</clipPath>
</defs>
</svg>
