<svg width="264" height="48" viewBox="0 0 264 48" fill="none" xmlns="http://www.w3.org/2000/svg">
<g id="List selection">
<g clip-path="url(#clip0_4323_440)">
<g id="Size=12px, Filled=false" clip-path="url(#clip1_4323_440)">
<path id="Vector" d="M10.5 21.75L11.25 22.5M6 21.75H1.40625C1.2322 21.75 1.06528 21.671 0.942211 21.5303C0.81914 21.3897 0.75 21.1989 0.75 21V20.25C0.75 20.0511 0.81914 19.8603 0.942211 19.7197C1.06528 19.579 1.2322 19.5 1.40625 19.5H6M3.75 24H9.75M3.75 26.625H9.75M3.75 29.25H9.75M9 21.75C9.82843 21.75 10.5 21.0784 10.5 20.25C10.5 19.4216 9.82843 18.75 9 18.75C8.17157 18.75 7.5 19.4216 7.5 20.25C7.5 21.0784 8.17157 21.75 9 21.75ZM1.3125 24C1.20894 24 1.125 23.9161 1.125 23.8125C1.125 23.7089 1.20894 23.625 1.3125 23.625C1.41606 23.625 1.5 23.7089 1.5 23.8125C1.5 23.9161 1.41606 24 1.3125 24ZM1.3125 26.625C1.20894 26.625 1.125 26.5411 1.125 26.4375C1.125 26.3339 1.20894 26.25 1.3125 26.25C1.41606 26.25 1.5 26.3339 1.5 26.4375C1.5 26.5411 1.41606 26.625 1.3125 26.625ZM1.3125 29.25C1.20894 29.25 1.125 29.1661 1.125 29.0625C1.125 28.9589 1.20894 28.875 1.3125 28.875C1.41606 28.875 1.5 28.9589 1.5 29.0625C1.5 29.1661 1.41606 29.25 1.3125 29.25Z" stroke="#111111" stroke-width="0.75" stroke-linecap="round" stroke-linejoin="round"/>
</g>
<g id="Size=16px, Filled=false" clip-path="url(#clip2_4323_440)">
<path id="Vector_2" d="M38 21L39 22M32 21H25.875C25.6429 21 25.4204 20.8946 25.2563 20.7071C25.0922 20.5196 25 20.2652 25 20V19C25 18.7348 25.0922 18.4804 25.2563 18.2929C25.4204 18.1054 25.6429 18 25.875 18H32M29 24H37M29 27.5H37M29 31H37M36 21C37.1046 21 38 20.1046 38 19C38 17.8954 37.1046 17 36 17C34.8954 17 34 17.8954 34 19C34 20.1046 34.8954 21 36 21ZM25.75 24C25.6119 24 25.5 23.8881 25.5 23.75C25.5 23.6119 25.6119 23.5 25.75 23.5C25.8881 23.5 26 23.6119 26 23.75C26 23.8881 25.8881 24 25.75 24ZM25.75 27.5C25.6119 27.5 25.5 27.3881 25.5 27.25C25.5 27.1119 25.6119 27 25.75 27C25.8881 27 26 27.1119 26 27.25C26 27.3881 25.8881 27.5 25.75 27.5ZM25.75 31C25.6119 31 25.5 30.8881 25.5 30.75C25.5 30.6119 25.6119 30.5 25.75 30.5C25.8881 30.5 26 30.6119 26 30.75C26 30.8881 25.8881 31 25.75 31Z" stroke="#111111" stroke-linecap="round" stroke-linejoin="round"/>
</g>
<g id="Size=20px, Filled=false" clip-path="url(#clip3_4323_440)">
<path id="Vector_3" d="M69.5 20.25L70.75 21.5M62 20.25H54.3438C54.0537 20.25 53.7755 20.1183 53.5704 19.8839C53.3652 19.6495 53.25 19.3315 53.25 19V17.75C53.25 17.4185 53.3652 17.1005 53.5704 16.8661C53.7755 16.6317 54.0537 16.5 54.3438 16.5H62M58.25 24H68.25M58.25 28.375H68.25M58.25 32.75H68.25M67 20.25C68.3807 20.25 69.5 19.1307 69.5 17.75C69.5 16.3693 68.3807 15.25 67 15.25C65.6193 15.25 64.5 16.3693 64.5 17.75C64.5 19.1307 65.6193 20.25 67 20.25ZM54.1875 24C54.0149 24 53.875 23.8601 53.875 23.6875C53.875 23.5149 54.0149 23.375 54.1875 23.375C54.3601 23.375 54.5 23.5149 54.5 23.6875C54.5 23.8601 54.3601 24 54.1875 24ZM54.1875 28.375C54.0149 28.375 53.875 28.2351 53.875 28.0625C53.875 27.8899 54.0149 27.75 54.1875 27.75C54.3601 27.75 54.5 27.8899 54.5 28.0625C54.5 28.2351 54.3601 28.375 54.1875 28.375ZM54.1875 32.75C54.0149 32.75 53.875 32.6101 53.875 32.4375C53.875 32.2649 54.0149 32.125 54.1875 32.125C54.3601 32.125 54.5 32.2649 54.5 32.4375C54.5 32.6101 54.3601 32.75 54.1875 32.75Z" stroke="#111111" stroke-width="1.25" stroke-linecap="round" stroke-linejoin="round"/>
</g>
<g id="Size=24px, Filled=false" clip-path="url(#clip4_4323_440)">
<path id="Vector_4" d="M105.086 18.834L107.251 21M96.75 19.5H86.25C85.8522 19.5 85.4706 19.342 85.1893 19.0607C84.908 18.7794 84.75 18.3978 84.75 18V16.5C84.75 16.1022 84.908 15.7206 85.1893 15.4393C85.4706 15.158 85.8522 15 86.25 15H96.75M90 24H102M90 29.25H102M90 34.5H102M102.875 19.75C104.601 19.75 106 18.3509 106 16.625C106 14.8991 104.601 13.5 102.875 13.5C101.149 13.5 99.75 14.8991 99.75 16.625C99.75 18.3509 101.149 19.75 102.875 19.75ZM86.625 24C86.4179 24 86.25 23.8321 86.25 23.625C86.25 23.4179 86.4179 23.25 86.625 23.25C86.8321 23.25 87 23.4179 87 23.625C87 23.8321 86.8321 24 86.625 24ZM86.625 29.25C86.4179 29.25 86.25 29.0821 86.25 28.875C86.25 28.6679 86.4179 28.5 86.625 28.5C86.8321 28.5 87 28.6679 87 28.875C87 29.0821 86.8321 29.25 86.625 29.25ZM86.625 34.5C86.4179 34.5 86.25 34.3321 86.25 34.125C86.25 33.9179 86.4179 33.75 86.625 33.75C86.8321 33.75 87 33.9179 87 34.125C87 34.3321 86.8321 34.5 86.625 34.5Z" stroke="#111111" stroke-width="1.5" stroke-linecap="round" stroke-linejoin="round"/>
</g>
<g id="Size=32px, Filled=false">
<path id="Vector_5" d="M148 18L150 20M136 18H123.75C123.286 18 122.841 17.7893 122.513 17.4142C122.184 17.0391 122 16.5304 122 16V14C122 13.4696 122.184 12.9609 122.513 12.5858C122.841 12.2107 123.286 12 123.75 12H136M130 24H146M130 31H146M130 38H146M144 18C146.209 18 148 16.2091 148 14C148 11.7909 146.209 10 144 10C141.791 10 140 11.7909 140 14C140 16.2091 141.791 18 144 18ZM123.5 24C123.224 24 123 23.7761 123 23.5C123 23.2239 123.224 23 123.5 23C123.776 23 124 23.2239 124 23.5C124 23.7761 123.776 24 123.5 24ZM123.5 31C123.224 31 123 30.7761 123 30.5C123 30.2239 123.224 30 123.5 30C123.776 30 124 30.2239 124 30.5C124 30.7761 123.776 31 123.5 31ZM123.5 38C123.224 38 123 37.7761 123 37.5C123 37.2239 123.224 37 123.5 37C123.776 37 124 37.2239 124 37.5C124 37.7761 123.776 38 123.5 38Z" stroke="#111111" stroke-width="2" stroke-linecap="round" stroke-linejoin="round"/>
</g>
<g id="Size=40px, Filled=false">
<path id="Vector_6" d="M199 16.5L201.5 19M184 16.5H168.688C168.107 16.5 167.551 16.2366 167.141 15.7678C166.73 15.2989 166.5 14.663 166.5 14V11.5C166.5 10.837 166.73 10.2011 167.141 9.73223C167.551 9.2634 168.107 9 168.688 9H184M176.5 24H196.5M176.5 32.75H196.5M176.5 41.5H196.5M194 16.5C196.761 16.5 199 14.2614 199 11.5C199 8.73858 196.761 6.5 194 6.5C191.239 6.5 189 8.73858 189 11.5C189 14.2614 191.239 16.5 194 16.5ZM168.375 24C168.03 24 167.75 23.7202 167.75 23.375C167.75 23.0298 168.03 22.75 168.375 22.75C168.72 22.75 169 23.0298 169 23.375C169 23.7202 168.72 24 168.375 24ZM168.375 32.75C168.03 32.75 167.75 32.4702 167.75 32.125C167.75 31.7798 168.03 31.5 168.375 31.5C168.72 31.5 169 31.7798 169 32.125C169 32.4702 168.72 32.75 168.375 32.75ZM168.375 41.5C168.03 41.5 167.75 41.2202 167.75 40.875C167.75 40.5298 168.03 40.25 168.375 40.25C168.72 40.25 169 40.5298 169 40.875C169 41.2202 168.72 41.5 168.375 41.5Z" stroke="#111111" stroke-width="2.5" stroke-linecap="round" stroke-linejoin="round"/>
</g>
<g id="Size=48px, Filled=false">
<path id="Vector_7" d="M258 15L261 18M240 15H221.625C220.929 15 220.261 14.6839 219.769 14.1213C219.277 13.5587 219 12.7956 219 12V9C219 8.20436 219.277 7.44128 219.769 6.87868C220.261 6.31608 220.929 6 221.625 6H240M231 24H255M231 34.5H255M231 45H255M252 15C255.314 15 258 12.3137 258 9C258 5.68629 255.314 3 252 3C248.686 3 246 5.68629 246 9C246 12.3137 248.686 15 252 15ZM221.25 24C220.836 24 220.5 23.6642 220.5 23.25C220.5 22.8358 220.836 22.5 221.25 22.5C221.664 22.5 222 22.8358 222 23.25C222 23.6642 221.664 24 221.25 24ZM221.25 34.5C220.836 34.5 220.5 34.1642 220.5 33.75C220.5 33.3358 220.836 33 221.25 33C221.664 33 222 33.3358 222 33.75C222 34.1642 221.664 34.5 221.25 34.5ZM221.25 45C220.836 45 220.5 44.6642 220.5 44.25C220.5 43.8358 220.836 43.5 221.25 43.5C221.664 43.5 222 43.8358 222 44.25C222 44.6642 221.664 45 221.25 45Z" stroke="#111111" stroke-width="3" stroke-linecap="round" stroke-linejoin="round"/>
</g>
</g>
</g>
<defs>
<clipPath id="clip0_4323_440">
<rect width="264" height="48" rx="5" fill="white"/>
</clipPath>
<clipPath id="clip1_4323_440">
<rect width="12" height="12" fill="white" transform="translate(0 18)"/>
</clipPath>
<clipPath id="clip2_4323_440">
<rect width="16" height="16" fill="white" transform="translate(24 16)"/>
</clipPath>
<clipPath id="clip3_4323_440">
<rect width="20" height="20" fill="white" transform="translate(52 14)"/>
</clipPath>
<clipPath id="clip4_4323_440">
<rect width="24" height="24" fill="white" transform="translate(84 12)"/>
</clipPath>
</defs>
</svg>
