<svg width="264" height="48" viewBox="0 0 264 48" fill="none" xmlns="http://www.w3.org/2000/svg">
<g id="Loading">
<g clip-path="url(#clip0_1118_337)">
<g id="Size=12px, Filled=true" clip-path="url(#clip1_1118_337)">
<path id="Vector" d="M6.0072 18.8986C6.0072 18.6705 5.82201 18.484 5.59454 18.5011C4.65066 18.572 3.73844 18.8853 2.94756 19.4137C2.04191 20.0189 1.33604 20.879 0.919213 21.8853C0.502386 22.8916 0.393325 23.9989 0.605822 25.0672C0.818318 26.1355 1.34283 27.1168 2.11302 27.887C2.88322 28.6572 3.86451 29.1817 4.9328 29.3942C6.00109 29.6067 7.1084 29.4976 8.11471 29.0808C9.12102 28.664 9.98112 27.9581 10.5863 27.0524C11.1147 26.2616 11.428 25.3493 11.4989 24.4055C11.516 24.178 11.3295 23.9928 11.1014 23.9928C10.8732 23.9928 10.6902 24.1781 10.6701 24.4053C10.6011 25.1856 10.337 25.9385 9.8994 26.5935C9.38503 27.3633 8.65394 27.9633 7.79858 28.3176C6.94322 28.6719 6.002 28.7646 5.09396 28.584C4.18591 28.4034 3.35181 27.9575 2.69715 27.3029C2.04248 26.6482 1.59665 25.8141 1.41603 24.906C1.23541 23.998 1.32811 23.0568 1.68241 22.2014C2.03671 21.3461 2.6367 20.615 3.40651 20.1006C4.06149 19.663 4.81438 19.3989 5.59468 19.3299C5.82191 19.3098 6.0072 19.1268 6.0072 18.8986Z" fill="#111111"/>
</g>
<g id="Size=16px, Filled=true">
<path id="Vector_2" d="M32.0092 17.5074C32.0092 17.217 31.7735 16.9796 31.484 17.0014C30.2827 17.0916 29.1217 17.4904 28.1151 18.1629C26.9624 18.9331 26.064 20.0278 25.5335 21.3086C25.003 22.5893 24.8642 23.9986 25.1347 25.3583C25.4051 26.7179 26.0727 27.9668 27.0529 28.9471C28.0332 29.9273 29.2821 30.5949 30.6417 30.8653C32.0014 31.1358 33.4107 30.997 34.6914 30.4665C35.9722 29.936 37.0669 29.0376 37.8371 27.8849C38.5096 26.8783 38.9084 25.7173 38.9986 24.516C39.0204 24.2265 38.783 23.9908 38.4926 23.9908C38.2023 23.9908 37.9694 24.2267 37.9438 24.5159C37.8559 25.509 37.5199 26.4672 36.9629 27.3008C36.3082 28.2806 35.3777 29.0442 34.2891 29.4951C33.2005 29.946 32.0026 30.064 30.8469 29.8341C29.6912 29.6043 28.6296 29.0368 27.7964 28.2036C26.9632 27.3704 26.3957 26.3088 26.1659 25.1531C25.936 23.9974 26.054 22.7995 26.5049 21.7109C26.9558 20.6223 27.7194 19.6918 28.6992 19.0371C29.5328 18.4801 30.491 18.1441 31.4841 18.0562C31.7733 18.0306 32.0092 17.7977 32.0092 17.5074Z" fill="#111111"/>
</g>
<g id="Size=20px, Filled=true">
<path id="Vector_3" d="M62.0118 15.6523C62.0118 15.2791 61.7087 14.9738 61.3365 15.0018C59.792 15.1178 58.2993 15.6305 57.0051 16.4952C55.5231 17.4854 54.3681 18.8929 53.686 20.5396C53.0039 22.1863 52.8254 23.9982 53.1732 25.7463C53.5209 27.4944 54.3792 29.1002 55.6395 30.3605C56.8998 31.6208 58.5056 32.4791 60.2537 32.8268C62.0018 33.1746 63.8137 32.9961 65.4604 32.314C67.1071 31.6319 68.5146 30.4769 69.5048 28.9949C70.3695 27.7007 70.8822 26.208 70.9982 24.6635C71.0262 24.2913 70.7209 23.9882 70.3477 23.9882C69.9744 23.9882 69.6749 24.2914 69.642 24.6633C69.529 25.9401 69.097 27.1721 68.3808 28.2439C67.5391 29.5036 66.3428 30.4854 64.9431 31.0651C63.5435 31.6449 62.0033 31.7966 60.5174 31.501C59.0315 31.2055 57.6666 30.4759 56.5953 29.4047C55.5241 28.3334 54.7945 26.9685 54.499 25.4826C54.2034 23.9967 54.3551 22.4565 54.9349 21.0569C55.5146 19.6572 56.4964 18.4609 57.7561 17.6192C58.8279 16.903 60.0599 16.471 61.3367 16.358C61.7086 16.3251 62.0118 16.0256 62.0118 15.6523Z" fill="#111111"/>
</g>
<g id="Size=24px, Filled=true">
<path id="Vector_4" d="M96.0137 14.2611C96.0137 13.8256 95.6602 13.4694 95.2259 13.5021C93.424 13.6375 91.6825 14.2356 90.1726 15.2444C88.4436 16.3997 87.0961 18.0417 86.3003 19.9628C85.5046 21.884 85.2963 23.9979 85.702 26.0374C86.1077 28.0769 87.109 29.9502 88.5794 31.4206C90.0498 32.891 91.9231 33.8923 93.9626 34.298C96.0021 34.7037 98.116 34.4954 100.037 33.6997C101.958 32.9039 103.6 31.5564 104.756 29.8274C105.764 28.3175 106.363 26.576 106.498 24.7741C106.531 24.3398 106.174 23.9863 105.739 23.9863C105.303 23.9863 104.954 24.34 104.916 24.7738C104.784 26.2635 104.28 27.7008 103.444 28.9512C102.462 30.4208 101.067 31.5663 99.4337 32.2427C97.8007 32.9191 96.0038 33.096 94.2703 32.7512C92.5367 32.4064 90.9444 31.5553 89.6946 30.3054C88.4447 29.0556 87.5936 27.4633 87.2488 25.7297C86.904 23.9962 87.0809 22.1993 87.7573 20.5663C88.4337 18.9334 89.5792 17.5377 91.0488 16.5557C92.2992 15.7202 93.7365 15.2161 95.2262 15.0843C95.66 15.046 96.0137 14.6965 96.0137 14.2611Z" fill="#111111"/>
</g>
<g id="Size=32px, Filled=true">
<path id="Vector_5" d="M136.018 11.0147C136.018 10.4341 135.547 9.95927 134.968 10.0028C132.565 10.1833 130.243 10.9807 128.23 12.3259C125.925 13.8662 124.128 16.0556 123.067 18.6171C122.006 21.1786 121.728 23.9972 122.269 26.7165C122.81 29.4358 124.145 31.9336 126.106 33.8941C128.066 35.8546 130.564 37.1897 133.283 37.7306C136.003 38.2715 138.821 37.9939 141.383 36.9329C143.944 35.8719 146.134 34.0751 147.674 31.7698C149.019 29.7567 149.817 27.4347 149.997 25.0321C150.041 24.4531 149.566 23.9817 148.985 23.9817C148.405 23.9817 147.939 24.4533 147.888 25.0317C147.712 27.0179 147.04 28.9344 145.926 30.6016C144.616 32.5611 142.755 34.0884 140.578 34.9902C138.401 35.8921 136.005 36.1281 133.694 35.6683C131.382 35.2085 129.259 34.0737 127.593 32.4073C125.926 30.7408 124.791 28.6177 124.332 26.3063C123.872 23.9949 124.108 21.5991 125.01 19.4218C125.912 17.2445 127.439 15.3835 129.398 14.0742C131.066 12.9602 132.982 12.2882 134.968 12.1125C135.547 12.0613 136.018 11.5954 136.018 11.0147Z" fill="#111111"/>
</g>
<g id="Size=40px, Filled=true">
<path id="Vector_6" d="M184.023 7.76843C184.023 7.0426 183.434 6.44908 182.71 6.50346C179.707 6.72911 176.804 7.72592 174.288 9.40735C171.406 11.3328 169.16 14.0695 167.834 17.2714C166.508 20.4733 166.161 23.9965 166.837 27.3956C167.513 30.7948 169.182 33.917 171.632 36.3677C174.083 38.8183 177.205 40.4872 180.604 41.1633C184.003 41.8394 187.527 41.4924 190.729 40.1661C193.931 38.8399 196.667 36.5939 198.593 33.7123C200.274 31.1959 201.271 28.2934 201.497 25.2901C201.551 24.5663 200.957 23.9771 200.232 23.9771C199.506 23.9771 198.923 24.5667 198.859 25.2897C198.64 27.7724 197.8 30.168 196.407 32.252C194.771 34.7014 192.444 36.6105 189.723 37.7378C187.001 38.8651 184.006 39.1601 181.117 38.5854C178.228 38.0107 175.574 36.5921 173.491 34.5091C171.408 32.426 169.989 29.7721 169.415 26.8829C168.84 23.9936 169.135 20.9988 170.262 18.2772C171.39 15.5556 173.299 13.2294 175.748 11.5928C177.832 10.2003 180.228 9.36021 182.71 9.14058C183.433 9.07662 184.023 8.49425 184.023 7.76843Z" fill="#111111"/>
</g>
<g id="Size=48px, Filled=true">
<path id="Vector_7" d="M240.027 4.52211C240.027 3.65113 239.32 2.9389 238.452 3.00415C234.848 3.27493 231.365 4.47111 228.345 6.48882C224.887 8.79935 222.192 12.0834 220.601 15.9257C219.009 19.7679 218.593 23.9958 219.404 28.0748C220.215 32.1537 222.218 35.9004 225.159 38.8412C228.1 41.7819 231.846 43.7846 235.925 44.596C240.004 45.4073 244.232 44.9909 248.074 43.3994C251.917 41.8078 255.201 39.1127 257.511 35.6548C259.529 32.635 260.725 29.152 260.996 25.5481C261.061 24.6796 260.349 23.9725 259.478 23.9725C258.607 23.9725 257.908 24.68 257.831 25.5476C257.568 28.5269 256.56 31.4016 254.889 33.9024C252.925 36.8417 250.133 39.1326 246.867 40.4853C243.601 41.8381 240.008 42.1921 236.541 41.5024C233.073 40.8128 229.889 39.1105 227.389 36.6109C224.889 34.1113 223.187 30.9265 222.498 27.4594C221.808 23.9923 222.162 20.3986 223.515 17.1327C224.867 13.8668 227.158 11.0753 230.098 9.11137C232.598 7.44036 235.473 6.43225 238.452 6.1687C239.32 6.09195 240.027 5.3931 240.027 4.52211Z" fill="#111111"/>
</g>
</g>
</g>
<defs>
<clipPath id="clip0_1118_337">
<rect width="264" height="48" rx="5" fill="white"/>
</clipPath>
<clipPath id="clip1_1118_337">
<rect width="12" height="12" fill="white" transform="translate(0 18)"/>
</clipPath>
</defs>
</svg>
