<svg width="264" height="108" viewBox="0 0 264 108" fill="none" xmlns="http://www.w3.org/2000/svg">
<g id="Megaphone">
<g clip-path="url(#clip0_8063_4)">
<g id="Size=12px, Filled=false" clip-path="url(#clip1_8063_4)">
<path id="Vector" d="M4.81001 20.553V25.3461L5.34698 28.1724C5.45848 28.7299 5.03208 29.25 4.46357 29.25C4.03412 29.25 3.66438 28.9469 3.58015 28.5258L2.9375 25.3125M2.5875 20.5899H3.96699C5.69295 20.5899 7.38831 20.0858 8.88155 19.1286L9.3857 18.8054C9.6307 18.6484 9.9375 18.8439 9.9375 19.157V26.6555C9.9375 26.9645 9.63803 27.1605 9.39311 27.0117L8.80528 26.6548C7.35977 25.7769 5.73731 25.3166 4.08819 25.3166H2.5875C1.57268 25.3166 0.75 24.4068 0.75 23.2845V22.6221C0.75 21.4998 1.57268 20.5899 2.5875 20.5899ZM9.99716 24.0547C10.6891 24.0547 11.25 23.5405 11.25 22.9062C11.25 22.272 10.6891 21.7578 9.99716 21.7578C9.96379 21.7578 9.9375 21.7854 9.9375 21.8188V23.9937C9.9375 24.0271 9.96379 24.0547 9.99716 24.0547Z" stroke="#111111" stroke-width="0.75"/>
</g>
<g id="Size=16px, Filled=false" clip-path="url(#clip2_8063_4)">
<path id="Vector_2" d="M30.4133 19.404V25.7948L31.1293 29.5632C31.278 30.3065 30.7094 31 29.9514 31C29.3788 31 28.8858 30.5958 28.7735 30.0344L27.9167 25.75M27.45 19.4533H29.2893C31.5906 19.4533 33.8511 18.7811 35.8421 17.5048L36.5143 17.0739C36.8409 16.8645 37.25 17.1251 37.25 17.5427V27.5407C37.25 27.9527 36.8507 28.214 36.5241 28.0157L35.7404 27.5397C33.813 26.3692 31.6497 25.7555 29.4509 25.7555H27.45C26.0969 25.7555 25 24.5424 25 23.046V22.1628C25 20.6664 26.0969 19.4533 27.45 19.4533ZM37.3295 24.0729C38.2521 24.0729 39 23.3874 39 22.5417C39 21.696 38.2521 21.0104 37.3295 21.0104C37.2851 21.0104 37.25 21.0472 37.25 21.0917V23.9916C37.25 24.0361 37.2851 24.0729 37.3295 24.0729Z" stroke="#111111"/>
</g>
<g id="Size=20px, Filled=false" clip-path="url(#clip3_8063_4)">
<path id="Vector_3" d="M60.0167 18.255V26.2434L60.9116 30.954C61.0975 31.8831 60.3868 32.75 59.4393 32.75C58.7235 32.75 58.1073 32.2448 57.9669 31.543L56.8958 26.1875M56.3125 18.3166H58.6117C61.4883 18.3166 64.3138 17.4764 66.8026 15.881L67.6428 15.3423C68.0512 15.0806 68.5625 15.4064 68.5625 15.9284V28.4258C68.5625 28.9408 68.0634 29.2675 67.6552 29.0196L66.6755 28.4246C64.2663 26.9615 61.5622 26.1944 58.8136 26.1944H56.3125C54.6211 26.1944 53.25 24.678 53.25 22.8075V21.7035C53.25 19.833 54.6211 18.3166 56.3125 18.3166ZM68.6619 24.0911C69.8151 24.0911 70.75 23.2342 70.75 22.1771C70.75 21.12 69.8151 20.263 68.6619 20.263C68.6063 20.263 68.5625 20.309 68.5625 20.3646V23.9896C68.5625 24.0452 68.6063 24.0911 68.6619 24.0911Z" stroke="#111111" stroke-width="1.25"/>
</g>
<g id="Size=24px, Filled=false" clip-path="url(#clip4_8063_4)">
<path id="Vector_4" d="M93.62 17.106V26.6921L94.694 32.3448C94.917 33.4598 94.0642 34.5 92.9271 34.5C92.0682 34.5 91.3288 33.8938 91.1603 33.0515L89.875 26.625M89.175 17.1799H91.934C95.3859 17.1799 98.7766 16.1717 101.763 14.2572L102.771 13.6108C103.261 13.2967 103.875 13.6877 103.875 14.3141V29.311C103.875 29.929 103.276 30.321 102.786 30.0235L101.611 29.3095C98.7195 27.5538 95.4746 26.6333 92.1764 26.6333H89.175C87.1454 26.6333 85.5 24.8136 85.5 22.569V21.2442C85.5 18.9995 87.1454 17.1799 89.175 17.1799ZM103.994 24.1094C105.378 24.1094 106.5 23.081 106.5 21.8125C106.5 20.544 105.378 19.5156 103.994 19.5156C103.928 19.5156 103.875 19.5708 103.875 19.6375V23.9875C103.875 24.0542 103.928 24.1094 103.994 24.1094Z" stroke="#111111" stroke-width="1.5"/>
</g>
<g id="Size=32px, Filled=false">
<path id="Vector_5" d="M132.827 14.8079V27.5895L134.259 35.1264C134.556 36.613 133.419 38 131.903 38C130.758 38 129.772 37.1917 129.547 36.0687L127.833 27.5M126.9 14.9065H130.579C135.181 14.9065 139.702 13.5622 143.684 11.0096L145.029 10.1478C145.682 9.72894 146.5 10.2503 146.5 11.0854V31.0813C146.5 31.9053 145.701 32.428 145.048 32.0313L143.481 31.0793C139.626 28.7383 135.299 27.511 130.902 27.511H126.9C124.194 27.511 122 25.0848 122 22.0919V20.3256C122 17.3327 124.194 14.9065 126.9 14.9065ZM146.659 24.1458C148.504 24.1458 150 22.7747 150 21.0833C150 19.392 148.504 18.0208 146.659 18.0208C146.57 18.0208 146.5 18.0944 146.5 18.1834V23.9833C146.5 24.0723 146.57 24.1458 146.659 24.1458Z" stroke="#111111" stroke-width="2"/>
</g>
<g id="Size=40px, Filled=false">
<path id="Vector_6" d="M180.033 12.5099V28.4869L181.823 37.908C182.195 39.7663 180.774 41.5 178.879 41.5C177.447 41.5 176.215 40.4896 175.934 39.0859L173.792 28.375M172.625 12.6332H177.223C182.977 12.6332 188.628 10.9528 193.605 7.76197L195.286 6.6847C196.102 6.16118 197.125 6.81286 197.125 7.8568V32.8516C197.125 33.8817 196.127 34.5349 195.31 34.0391L193.351 32.8492C188.533 29.9229 183.124 28.3888 177.627 28.3888H172.625C169.242 28.3888 166.5 25.356 166.5 21.6149V19.407C166.5 15.6659 169.242 12.6332 172.625 12.6332ZM197.324 24.1823C199.63 24.1823 201.5 22.4684 201.5 20.3542C201.5 18.24 199.63 16.526 197.324 16.526C197.213 16.526 197.125 16.618 197.125 16.7292V23.9791C197.125 24.0903 197.213 24.1823 197.324 24.1823Z" stroke="#111111" stroke-width="2.5" stroke-linejoin="round"/>
</g>
<g id="Size=48px, Filled=false">
<path id="Vector_7" d="M235.24 10.2119V29.3843L237.388 40.6896C237.834 42.9195 236.128 45 233.854 45C232.136 45 230.658 43.7875 230.321 42.1031L227.75 29.25M226.35 10.3598H231.868C238.772 10.3598 245.553 8.34332 251.526 4.51437L253.543 3.22164C254.523 2.59341 255.75 3.37544 255.75 4.62816V34.622C255.75 35.858 254.552 36.6419 253.572 36.047L251.221 34.619C245.439 31.1075 238.949 29.2665 232.353 29.2665H226.35C222.291 29.2665 219 25.6272 219 21.1379V18.4884C219 13.9991 222.291 10.3598 226.35 10.3598ZM255.989 24.2188C258.756 24.2188 261 22.1621 261 19.625C261 17.0879 258.756 15.0312 255.989 15.0312C255.855 15.0312 255.75 15.1416 255.75 15.2751V23.9749C255.75 24.1084 255.855 24.2188 255.989 24.2188Z" stroke="#111111" stroke-width="3" stroke-linejoin="round"/>
</g>
<g id="Size=12px, Filled=true">
<g id="Vector_8">
<path d="M10.125 84.3185C10.125 84.3551 10.1526 84.3854 10.1875 84.3854C10.9124 84.3854 11.5 83.8211 11.5 83.125C11.5 82.4289 10.9124 81.8646 10.1875 81.8646C10.1526 81.8646 10.125 81.8949 10.125 81.9315V84.3185Z" fill="#111111"/>
<path d="M8.41144 86.7636C7.40952 86.1551 6.32106 85.7509 5.19792 85.5657V80.6703C6.35223 80.4635 7.46722 80.0251 8.48635 79.3718L8.9815 79.0544C9.22212 78.9002 9.52344 79.0922 9.52344 79.3998V86.7643C9.52344 87.0678 9.22931 87.2603 8.98877 87.1142L8.41144 86.7636Z" fill="#111111"/>
<path d="M3.65954 80.8071H2.30469C1.30799 80.8071 0.5 81.7007 0.5 82.803V83.4535C0.5 84.5558 1.30799 85.4494 2.30469 85.4494H2.35189L3.1318 88.1768C3.2239 88.6373 3.62823 88.9688 4.09783 88.9688C4.71951 88.9688 5.18579 88.4 5.06387 87.7904L4.51042 85.4167V80.7654C4.22817 80.7931 3.94428 80.8071 3.65954 80.8071Z" fill="#111111"/>
</g>
</g>
<g id="Size=16px, Filled=true">
<g id="Vector_9">
<path d="M37.5 84.4247C37.5 84.4736 37.5368 84.5139 37.5834 84.5139C38.5499 84.5139 39.3334 83.7615 39.3334 82.8334C39.3334 81.9052 38.5499 81.1528 37.5834 81.1528C37.5368 81.1528 37.5 81.1932 37.5 81.242V84.4247Z" fill="#111111"/>
<path d="M35.2153 87.6848C33.8794 86.8735 32.4281 86.3346 30.9306 86.0877V79.5604C32.4697 79.2848 33.9563 78.7002 35.3152 77.8291L35.9753 77.4059C36.2962 77.2003 36.6979 77.4563 36.6979 77.8664V87.6858C36.6979 88.0905 36.3058 88.3471 35.985 88.1523L35.2153 87.6848Z" fill="#111111"/>
<path d="M28.8794 79.7428H27.0729C25.744 79.7428 24.6667 80.9343 24.6667 82.404V83.2714C24.6667 84.7411 25.744 85.9325 27.0729 85.9325H27.1359L28.1758 89.5691C28.2985 90.1831 28.8377 90.625 29.4638 90.625C30.2927 90.625 30.9144 89.8667 30.7518 89.0539L30.0139 85.8889V79.6873C29.6376 79.7242 29.2591 79.7428 28.8794 79.7428Z" fill="#111111"/>
</g>
</g>
<g id="Size=20px, Filled=true">
<g id="Vector_10">
<path d="M68.875 84.5308C68.875 84.5919 68.921 84.6423 68.9792 84.6423C70.1873 84.6423 71.1666 83.7018 71.1666 82.5416C71.1666 81.3814 70.1873 80.4409 68.9792 80.4409C68.921 80.4409 68.875 80.4914 68.875 80.5524V84.5308Z" fill="#111111"/>
<path d="M66.019 88.606C64.3492 87.5918 62.5351 86.9182 60.6632 86.6095V78.4504C62.587 78.1059 64.4453 77.3752 66.1439 76.2863L66.9691 75.7573C67.3702 75.5002 67.8724 75.8203 67.8724 76.3329V88.6072C67.8724 89.113 67.3822 89.4338 66.9813 89.1903L66.019 88.606Z" fill="#111111"/>
<path d="M58.0992 78.6784H55.8411C54.18 78.6784 52.8333 80.1677 52.8333 82.0049V83.0891C52.8333 84.9263 54.18 86.4156 55.8411 86.4156H55.9198L57.2196 90.9613C57.3731 91.7288 58.047 92.2812 58.8297 92.2812C59.8658 92.2812 60.643 91.3333 60.4398 90.3173L59.5173 86.3611V78.609C59.0469 78.6552 58.5738 78.6784 58.0992 78.6784Z" fill="#111111"/>
</g>
</g>
<g id="Size=24px, Filled=true">
<g id="Vector_11">
<path d="M104.25 84.637C104.25 84.7103 104.305 84.7708 104.375 84.7708C105.825 84.7708 107 83.6422 107 82.25C107 80.8578 105.825 79.7292 104.375 79.7292C104.305 79.7292 104.25 79.7897 104.25 79.863V84.637Z" fill="#111111"/>
<path d="M100.823 89.5272C98.819 88.3103 96.6421 87.5019 94.3958 87.1315V77.3405C96.7045 76.9271 98.9344 76.0503 100.973 74.7437L101.963 74.1088C102.444 73.8003 103.047 74.1844 103.047 74.7995V89.5286C103.047 90.1356 102.459 90.5206 101.978 90.2284L100.823 89.5272Z" fill="#111111"/>
<path d="M91.3191 77.6142H88.6094C86.616 77.6142 85 79.4013 85 81.6059V82.907C85 85.1116 86.616 86.8987 88.6094 86.8987H88.7038L90.2636 92.3536C90.4478 93.2746 91.2565 93.9375 92.1957 93.9375C93.439 93.9375 94.3716 92.8 94.1277 91.5808L93.0208 86.8333V77.5308C92.4563 77.5862 91.8886 77.6142 91.3191 77.6142Z" fill="#111111"/>
</g>
</g>
<g id="Size=32px, Filled=true">
<g id="Vector_12">
<path d="M147 84.8493C147 84.947 147.074 85.0277 147.167 85.0277C149.1 85.0277 150.667 83.5229 150.667 81.6666C150.667 79.8103 149.1 78.3055 147.167 78.3055C147.074 78.3055 147 78.3863 147 78.4839V84.8493Z" fill="#111111"/>
<path d="M142.43 91.3695C139.759 89.747 136.856 88.6691 133.861 88.1753V75.1206C136.939 74.5694 139.913 73.4003 142.63 71.6582L143.951 70.8117C144.592 70.4004 145.396 70.9124 145.396 71.7327V91.3715C145.396 92.1808 144.611 92.6941 143.97 92.3045L142.43 91.3695Z" fill="#111111"/>
<path d="M129.759 75.4855H126.146C123.488 75.4855 121.333 77.8684 121.333 80.8078V82.5426C121.333 85.4821 123.488 87.8649 126.146 87.8649H126.272L128.351 95.1381C128.597 96.3661 129.675 97.25 130.928 97.25C132.585 97.25 133.829 95.7333 133.504 94.1077L132.028 87.7777V75.3744C131.275 75.4483 130.518 75.4855 129.759 75.4855Z" fill="#111111"/>
</g>
</g>
<g id="Size=40px, Filled=true">
<g id="Vector_13">
<path d="M197.75 85.0618C197.75 85.1838 197.842 85.2848 197.958 85.2848C200.375 85.2848 202.333 83.4037 202.333 81.0834C202.333 78.763 200.375 76.882 197.958 76.882C197.842 76.882 197.75 76.9829 197.75 77.105V85.0618Z" fill="#111111"/>
<path d="M192.038 93.212C188.698 91.1838 185.07 89.8365 181.326 89.2192V72.9009C185.174 72.2119 188.891 70.7505 192.288 68.5728L193.938 67.5148C194.74 67.0006 195.745 67.6407 195.745 68.6659V93.2144C195.745 94.2261 194.764 94.8677 193.963 94.3807L192.038 93.212Z" fill="#111111"/>
<path d="M176.199 73.357H171.682C168.36 73.357 165.667 76.3356 165.667 80.0099V82.1784C165.667 85.8527 168.36 88.8313 171.682 88.8313H171.84L174.439 97.9227C174.746 99.4577 176.094 100.563 177.659 100.563C179.732 100.563 181.286 98.6667 180.88 96.6347L179.035 88.7223V73.2181C178.094 73.3104 177.148 73.357 176.199 73.357Z" fill="#111111"/>
</g>
</g>
<g id="Size=48px, Filled=true">
<g id="Vector_14">
<path d="M256.5 85.2741C256.5 85.4205 256.61 85.5417 256.75 85.5417C259.65 85.5417 262 83.2844 262 80.5C262 77.7156 259.65 75.4583 256.75 75.4583C256.61 75.4583 256.5 75.5795 256.5 75.7259V85.2741Z" fill="#111111"/>
<path d="M249.646 95.0544C245.638 92.6205 241.284 91.0037 236.792 90.263V70.681C241.409 69.8542 245.869 68.1006 249.945 65.4873L251.926 64.2177C252.888 63.6007 254.094 64.3687 254.094 65.5991V95.0573C254.094 96.2713 252.917 97.0412 251.955 96.4568L249.646 95.0544Z" fill="#111111"/>
<path d="M230.638 71.2284H225.219C221.232 71.2284 218 74.8027 218 79.2118V81.814C218 86.2232 221.232 89.7975 225.219 89.7975H225.408L228.527 100.707C228.896 102.549 230.513 103.875 232.391 103.875C234.878 103.875 236.743 101.6 236.255 99.1616L234.042 89.6667V71.0617C232.913 71.1725 231.777 71.2284 230.638 71.2284Z" fill="#111111"/>
</g>
</g>
</g>
</g>
<defs>
<clipPath id="clip0_8063_4">
<rect width="264" height="108" rx="5" fill="white"/>
</clipPath>
<clipPath id="clip1_8063_4">
<rect width="12" height="12" fill="white" transform="translate(0 18)"/>
</clipPath>
<clipPath id="clip2_8063_4">
<rect width="16" height="16" fill="white" transform="translate(24 16)"/>
</clipPath>
<clipPath id="clip3_8063_4">
<rect width="20" height="20" fill="white" transform="translate(52 14)"/>
</clipPath>
<clipPath id="clip4_8063_4">
<rect width="24" height="24" fill="white" transform="translate(84 12)"/>
</clipPath>
</defs>
</svg>
