<svg width="264" height="108" viewBox="0 0 264 108" fill="none" xmlns="http://www.w3.org/2000/svg">
<g id="Moon">
<g clip-path="url(#clip0_7754_1250)">
<g id="Size=12px, Filled=false" clip-path="url(#clip1_7754_1250)">
<path id="Vector" d="M1.7835 26.3722C2.46072 27.7539 3.6434 28.7707 5.11489 29.2351C5.8396 29.464 6.60717 29.5463 7.35928 29.4752C8.08362 29.407 8.80778 29.1924 9.45384 28.8544C10.0323 28.5516 10.5621 28.143 10.9977 27.6641C10.8751 27.6761 10.7524 27.6842 10.6297 27.6879C10.0775 27.7044 9.52251 27.6357 8.98851 27.4821C8.84027 27.4396 8.69203 27.3903 8.54827 27.3356C6.02461 26.3758 4.62071 23.6139 5.35226 21.0477C5.51179 20.4898 5.75951 19.9677 6.08881 19.4968C6.34531 19.1298 6.64933 18.7959 6.99257 18.5051L6.99508 18.5032C6.76582 18.4956 6.53656 18.5015 6.31071 18.5211C5.61091 18.5826 4.9364 18.7707 4.30562 19.0802C3.67558 19.3896 3.11864 19.8056 2.65044 20.3166C2.17632 20.8335 1.79757 21.4546 1.5545 22.1126C1.03986 23.5076 1.12117 25.0207 1.7835 26.3722Z" stroke="#111111" stroke-width="0.75" stroke-linejoin="round"/>
</g>
<g id="Size=16px, Filled=false">
<path id="Vector_2" d="M26.2685 27.2349C27.1919 29.119 28.8047 30.5055 30.8113 31.1387C31.7995 31.451 32.8462 31.5632 33.8718 31.4661C34.8595 31.3732 35.847 31.0805 36.728 30.6197C37.5168 30.2067 38.2393 29.6495 38.8333 28.9965C38.6661 29.0128 38.4987 29.0238 38.3315 29.029C37.5784 29.0515 36.8216 28.9578 36.0935 28.7483C35.8913 28.6903 35.6892 28.6231 35.4931 28.5485C32.0518 27.2398 30.1374 23.4735 31.1349 19.9742C31.3525 19.2133 31.6903 18.5013 32.1393 17.8593C32.4891 17.3588 32.9037 16.9035 33.3717 16.507L33.3752 16.5043C33.0625 16.494 32.7499 16.5021 32.4419 16.5288C31.4876 16.6126 30.5679 16.8691 29.7077 17.2911C28.8486 17.7131 28.0891 18.2804 27.4506 18.9772C26.8041 19.6821 26.2876 20.529 25.9562 21.4263C25.2544 23.3285 25.3653 25.3918 26.2685 27.2349Z" stroke="#111111" stroke-linejoin="round"/>
</g>
<g id="Size=20px, Filled=false">
<path id="Vector_3" d="M54.9478 27.9897C56.0867 30.3134 58.0758 32.0235 60.5505 32.8044C61.7694 33.1895 63.0603 33.3279 64.3252 33.2082C65.5434 33.0936 66.7613 32.7327 67.8479 32.1643C68.8207 31.655 69.7118 30.9678 70.4444 30.1623C70.2382 30.1825 70.0317 30.1961 69.8255 30.2024C68.8967 30.2301 67.9634 30.1147 67.0653 29.8562C66.816 29.7848 66.5667 29.7018 66.3249 29.6099C62.0805 27.9957 59.7194 23.3507 60.9498 19.0348C61.2181 18.0964 61.6347 17.2183 62.1885 16.4264C62.6199 15.8092 63.1312 15.2477 63.7085 14.7586L63.7127 14.7553C63.3271 14.7426 62.9415 14.7526 62.5617 14.7855C61.3848 14.8889 60.2504 15.2052 59.1895 15.7257C58.1299 16.2462 57.1932 16.9458 56.4058 17.8052C55.6084 18.6746 54.9714 19.7191 54.5626 20.8258C53.6971 23.1719 53.8338 25.7166 54.9478 27.9897Z" stroke="#111111" stroke-width="1.25" stroke-linejoin="round"/>
</g>
<g id="Size=24px, Filled=false">
<path id="Vector_4" d="M87.6527 28.8523C89.0379 31.6785 91.457 33.7583 94.4669 34.7081C95.9492 35.1764 97.5193 35.3448 99.0577 35.1992C100.539 35.0598 102.021 34.6208 103.342 33.9296C104.525 33.3101 105.609 32.4743 106.5 31.4947C106.249 31.5193 105.998 31.5358 105.747 31.5435C104.618 31.5772 103.482 31.4367 102.39 31.1224C102.087 31.0355 101.784 30.9347 101.49 30.8228C96.3277 28.8596 93.4561 23.2103 94.9524 17.9613C95.2787 16.82 95.7854 15.752 96.459 14.7889C96.9837 14.0382 97.6055 13.3553 98.3076 12.7605L98.3127 12.7565C97.8438 12.7411 97.3748 12.7532 96.9129 12.7931C95.4815 12.9189 94.1018 13.3036 92.8116 13.9367C91.5228 14.5697 90.3836 15.4206 89.426 16.4658C88.4562 17.5232 87.6814 18.7935 87.1843 20.1395C86.1316 22.9928 86.2979 26.0877 87.6527 28.8523Z" stroke="#111111" stroke-width="1.5" stroke-linejoin="round"/>
</g>
<g id="Size=32px, Filled=false">
<path id="Vector_5" d="M124.537 30.4697C126.384 34.238 129.609 37.011 133.623 38.2775C135.599 38.9019 137.692 39.1264 139.744 38.9322C141.719 38.7464 143.694 38.1611 145.456 37.2394C147.034 36.4135 148.479 35.2991 149.667 33.9929C149.332 34.0257 148.997 34.0477 148.663 34.058C147.157 34.1029 145.643 33.9157 144.187 33.4966C143.783 33.3807 143.378 33.2462 142.986 33.0971C136.104 30.4795 132.275 22.947 134.27 15.9483C134.705 14.4266 135.381 13.0027 136.279 11.7186C136.978 10.7176 137.807 9.80702 138.743 9.01399L138.75 9.00861C138.125 8.98808 137.5 9.00421 136.884 9.05751C134.975 9.22523 133.136 9.73819 131.415 10.5822C129.697 11.4262 128.178 12.5607 126.901 13.9544C125.608 15.3642 124.575 17.058 123.912 18.8527C122.509 22.6571 122.731 26.7836 124.537 30.4697Z" stroke="#111111" stroke-width="2" stroke-linejoin="round"/>
</g>
<g id="Size=40px, Filled=false">
<path id="Vector_6" d="M169.591 32.0872C171.9 36.7975 175.932 40.2638 180.948 41.8468C183.419 42.6274 186.036 42.908 188.6 42.6653C191.069 42.433 193.538 41.7014 195.74 40.5493C197.712 39.5169 199.518 38.1238 201.003 36.4912C200.585 36.5321 200.167 36.5596 199.749 36.5724C197.866 36.6287 195.974 36.3946 194.154 35.8707C193.648 35.7259 193.143 35.5578 192.653 35.3714C184.049 32.0994 179.263 22.6838 181.757 13.9354C182.301 12.0333 183.146 10.2534 184.268 8.6482C185.143 7.39699 186.179 6.25878 187.349 5.26749L187.358 5.26077C186.576 5.2351 185.795 5.25527 185.025 5.32189C182.639 5.53154 180.34 6.17274 178.189 7.22779C176.041 8.2828 174.143 9.70093 172.547 11.443C170.93 13.2053 169.639 15.3226 168.81 17.5658C167.056 22.3213 167.333 27.4795 169.591 32.0872Z" stroke="#111111" stroke-width="2.5" stroke-linejoin="round"/>
</g>
<g id="Size=48px, Filled=false">
<path id="Vector_7" d="M222.805 33.7046C225.576 39.3569 230.414 43.5165 236.434 45.4162C239.398 46.3529 242.539 46.6895 245.615 46.3984C248.579 46.1196 251.541 45.2416 254.184 43.8591C256.55 42.6202 258.718 40.9486 260.5 38.9894C259.998 39.0385 259.496 39.0715 258.995 39.0869C256.735 39.1544 254.465 38.8735 252.28 38.2449C251.674 38.071 251.068 37.8693 250.479 37.6456C240.155 33.7193 234.412 22.4206 237.405 11.9225C238.057 9.63994 239.071 7.50402 240.418 5.57784C241.467 4.07638 242.711 2.71054 244.115 1.52099L244.125 1.51292C243.188 1.48212 242.25 1.50632 241.326 1.58627C238.463 1.83785 235.704 2.60729 233.123 3.87335C230.546 5.13936 228.267 6.84112 226.352 8.9316C224.412 11.0463 222.863 13.5871 221.869 16.279C219.763 21.9856 220.096 28.1754 222.805 33.7046Z" stroke="#111111" stroke-width="3" stroke-linejoin="round"/>
</g>
<g id="Size=12px, Filled=true">
<path id="Vector_8" d="M1.9481 86.5879C2.68688 88.0952 3.97707 89.2044 5.58234 89.711C6.37293 89.9608 7.21028 90.0505 8.03076 89.9729C8.82095 89.8986 9.61095 89.6644 10.3157 89.2958C10.9467 88.9654 11.5248 88.5196 12 87.9972C11.8662 88.0103 11.7323 88.0191 11.5985 88.0232C10.9961 88.0412 10.3907 87.9663 9.80811 87.7986C9.64639 87.7523 9.48468 87.6985 9.32784 87.6388C6.57476 86.5918 5.04323 83.5788 5.84128 80.7793C6.01532 80.1707 6.28556 79.6011 6.64479 79.0874C6.92461 78.687 7.25627 78.3228 7.63072 78.0056L7.63346 78.0034C7.38335 77.9952 7.13325 78.0017 6.88686 78.023C6.12345 78.0901 5.38762 78.2953 4.6995 78.6329C4.01218 78.9705 3.40461 79.4243 2.89385 79.9818C2.37663 80.5457 1.96344 81.2232 1.69827 81.9411C1.13685 83.4628 1.22555 85.1134 1.9481 86.5879Z" fill="#111111"/>
</g>
<g id="Size=16px, Filled=true">
<path id="Vector_9" d="M26.5975 87.4505C27.5825 89.4602 29.3028 90.9392 31.4431 91.6147C32.4972 91.9477 33.6137 92.0674 34.7077 91.9639C35.7613 91.8648 36.8146 91.5526 37.7543 91.061C38.5957 90.6205 39.3664 90.0262 40 89.3296C39.8217 89.347 39.6431 89.3588 39.4647 89.3642C38.6614 89.3882 37.8542 89.2884 37.0775 89.0648C36.8619 89.003 36.6462 88.9313 36.4371 88.8518C32.7663 87.4557 30.7243 83.4384 31.7884 79.7058C32.0204 78.8942 32.3807 78.1348 32.8597 77.4499C33.2328 76.916 33.675 76.4304 34.1743 76.0075L34.1779 76.0046C33.8445 75.9936 33.511 76.0022 33.1825 76.0307C32.1646 76.1201 31.1835 76.3937 30.266 76.8439C29.3496 77.294 28.5395 77.8991 27.8585 78.6423C27.1688 79.3942 26.6179 80.2976 26.2644 81.2548C25.5158 83.2838 25.6341 85.4846 26.5975 87.4505Z" fill="#111111"/>
</g>
<g id="Size=20px, Filled=true">
<path id="Vector_10" d="M55.2468 88.3132C56.4781 90.8253 58.6284 92.674 61.3039 93.5183C62.6216 93.9346 64.0171 94.0842 65.3846 93.9548C66.7016 93.8309 68.0182 93.4407 69.1929 92.8263C70.2446 92.2757 71.208 91.5327 72 90.6619C71.7771 90.6838 71.5538 90.6985 71.3309 90.7053C70.3268 90.7353 69.3178 90.6104 68.3468 90.3311C68.0773 90.2538 67.8078 90.1642 67.5464 90.0647C62.9579 88.3197 60.4054 83.298 61.7355 78.6322C62.0255 77.6178 62.4759 76.6685 63.0747 75.8124C63.541 75.1451 64.0938 74.538 64.7179 74.0093L64.7224 74.0057C64.3056 73.9921 63.8887 74.0028 63.4781 74.0383C62.2058 74.1502 60.9794 74.4921 59.8325 75.0548C58.687 75.6175 57.6743 76.3738 56.8231 77.3029C55.961 78.2428 55.2724 79.372 54.8304 80.5684C53.8947 83.1047 54.0426 85.8557 55.2468 88.3132Z" fill="#111111"/>
</g>
<g id="Size=24px, Filled=true">
<path id="Vector_11" d="M87.8962 89.1758C89.3738 92.1904 91.9541 94.4088 95.1647 95.422C96.7459 95.9215 98.4206 96.1011 100.062 95.9458C101.642 95.7971 103.222 95.3289 104.631 94.5915C105.893 93.9308 107.05 93.0393 108 91.9943C107.732 92.0205 107.465 92.0382 107.197 92.0464C105.992 92.0824 104.781 91.9325 103.616 91.5973C103.293 91.5046 102.969 91.397 102.656 91.2777C97.1495 89.1836 94.0865 83.1576 95.6826 77.5587C96.0306 76.3413 96.5711 75.2021 97.2896 74.1748C97.8492 73.3741 98.5125 72.6456 99.2614 72.0112L99.2669 72.0069C98.7667 71.9905 98.2665 72.0034 97.7737 72.046C96.2469 72.1802 94.7752 72.5906 93.399 73.2658C92.0244 73.941 90.8092 74.8486 89.7877 75.9635C88.7533 77.0914 87.9269 78.4464 87.3965 79.8821C86.2737 82.9257 86.4511 86.2269 87.8962 89.1758Z" fill="#111111"/>
</g>
<g id="Size=32px, Filled=true">
<path id="Vector_12" d="M125.195 90.901C127.165 94.9205 130.606 97.8784 134.886 99.2293C136.994 99.8954 139.227 100.135 141.415 99.9277C143.523 99.7295 145.629 99.1052 147.509 98.122C149.191 97.2411 150.733 96.0523 152 94.6591C151.643 94.6941 151.286 94.7175 150.929 94.7285C149.323 94.7765 147.708 94.5767 146.155 94.1297C145.724 94.0061 145.292 93.8626 144.874 93.7036C137.533 90.9115 133.449 82.8768 135.577 75.4116C136.041 73.7884 136.761 72.2695 137.719 70.8998C138.466 69.8321 139.35 68.8608 140.349 68.0149L140.356 68.0092C139.689 67.9873 139.022 68.0045 138.365 68.0613C136.329 68.2402 134.367 68.7874 132.532 69.6877C130.699 70.588 129.079 71.7981 127.717 73.2847C126.338 74.7885 125.236 76.5952 124.529 78.5095C123.032 82.5675 123.268 86.9692 125.195 90.901Z" fill="#111111"/>
</g>
<g id="Size=40px, Filled=true">
<path id="Vector_13" d="M170.494 92.6263C172.956 97.6506 177.257 101.348 182.608 103.037C185.243 103.869 188.034 104.168 190.769 103.91C193.403 103.662 196.036 102.881 198.386 101.653C200.489 100.551 202.416 99.0654 204 97.3239C203.554 97.3676 203.108 97.3969 202.662 97.4106C200.654 97.4706 198.636 97.2209 196.694 96.6621C196.155 96.5076 195.616 96.3283 195.093 96.1294C185.916 92.6394 180.811 82.5961 183.471 73.2645C184.051 71.2355 184.952 69.3369 186.149 67.6247C187.082 66.2901 188.188 65.076 189.436 64.0187L189.445 64.0115C188.611 63.9841 187.777 64.0056 186.956 64.0767C184.412 64.3003 181.959 64.9843 179.665 66.1096C177.374 67.235 175.349 68.7477 173.646 70.6059C171.922 72.4856 170.545 74.7441 169.661 77.1369C167.789 82.2094 168.085 87.7115 170.494 92.6263Z" fill="#111111"/>
</g>
<g id="Size=48px, Filled=true">
<path id="Vector_14" d="M223.792 94.3516C226.748 100.381 231.908 104.818 238.329 106.844C241.492 107.843 244.841 108.202 248.123 107.892C251.284 107.594 254.444 106.658 257.263 105.183C259.787 103.862 262.099 102.079 264 99.9887C263.465 100.041 262.929 100.076 262.394 100.093C259.984 100.165 257.563 99.8651 255.232 99.1945C254.586 99.0091 253.939 98.794 253.311 98.5553C242.299 94.3672 236.173 82.3153 239.365 71.1174C240.061 68.6826 241.142 66.4043 242.579 64.3497C243.698 62.7481 245.025 61.2912 246.523 60.0224L246.534 60.0138C245.533 59.9809 244.533 60.0067 243.547 60.092C240.494 60.3604 237.55 61.1811 234.798 62.5316C232.049 63.882 229.618 65.6972 227.575 67.927C225.507 70.1827 223.854 72.8929 222.793 75.7643C220.547 81.8513 220.902 88.4538 223.792 94.3516Z" fill="#111111"/>
</g>
</g>
</g>
<defs>
<clipPath id="clip0_7754_1250">
<rect width="264" height="108" rx="5" fill="white"/>
</clipPath>
<clipPath id="clip1_7754_1250">
<rect width="12" height="12" fill="white" transform="translate(0 18)"/>
</clipPath>
</defs>
</svg>
