<svg width="264" height="108" viewBox="0 0 264 108" fill="none" xmlns="http://www.w3.org/2000/svg">
<g id="PDF">
<g clip-path="url(#clip0_5428_1018)">
<g id="Size=12px, Filled=false" clip-path="url(#clip1_5428_1018)">
<g id="Vector">
<path d="M4.05002 27.012H3.63602V27.75H3.15002V25.53H4.05002C4.50302 25.53 4.80602 25.827 4.80602 26.271C4.80602 26.715 4.50302 27.012 4.05002 27.012ZM3.94202 25.962H3.63602V26.58H3.94202C4.17602 26.58 4.29302 26.478 4.29302 26.271C4.29302 26.064 4.17602 25.962 3.94202 25.962Z" fill="#111111"/>
<path d="M6.04292 27.75H5.17291V25.53H6.01292C6.66391 25.53 7.11691 25.986 7.11691 26.646C7.11691 27.294 6.67592 27.75 6.04292 27.75ZM5.96492 25.98H5.65892V27.3H5.99492C6.37892 27.3 6.60391 27.057 6.60391 26.646C6.60391 26.226 6.36691 25.98 5.96492 25.98Z" fill="#111111"/>
<path d="M8.72114 26.883H7.94114V27.75H7.45514V25.53H8.86814V25.98H7.94114V26.445H8.72114V26.883Z" fill="#111111"/>
</g>
<path id="Vector_2" d="M6.38001 18.75V22.4886C6.38001 22.9091 6.72091 23.25 7.14143 23.25H10.88M6.71091 18.75H1.78C1.42102 18.75 1.13 19.0492 1.13 19.4182V28.5818C1.13 28.9508 1.42102 29.25 1.78 29.25H10.23C10.589 29.25 10.88 28.9508 10.88 28.5818V23.0357C10.8799 22.8586 10.8115 22.6888 10.6898 22.5636L7.17022 18.9455C7.04837 18.8204 6.88316 18.7501 6.71091 18.75Z" stroke="#111111" stroke-width="0.75" stroke-linecap="round" stroke-linejoin="round"/>
</g>
<g id="Size=16px, Filled=false" clip-path="url(#clip2_5428_1018)">
<g id="Vector_3">
<path d="M29.4 28.016H28.848V29H28.2V26.04H29.4C30.004 26.04 30.408 26.436 30.408 27.028C30.408 27.62 30.004 28.016 29.4 28.016ZM29.256 26.616H28.848V27.44H29.256C29.568 27.44 29.724 27.304 29.724 27.028C29.724 26.752 29.568 26.616 29.256 26.616Z" fill="#111111"/>
<path d="M32.0571 29H30.8971V26.04H32.0171C32.8851 26.04 33.4891 26.648 33.4891 27.528C33.4891 28.392 32.9011 29 32.0571 29ZM31.9531 26.64H31.5451V28.4H31.9931C32.5051 28.4 32.8051 28.076 32.8051 27.528C32.8051 26.968 32.4891 26.64 31.9531 26.64Z" fill="#111111"/>
<path d="M35.6281 27.844H34.5881V29H33.9401V26.04H35.8241V26.64H34.5881V27.26H35.6281V27.844Z" fill="#111111"/>
</g>
<path id="Vector_4" d="M32.5 17V21.9848C32.5 22.5455 32.9545 23 33.5152 23H38.5M32.9412 17H26.3667C25.888 17 25.5 17.3989 25.5 17.8909V30.1091C25.5 30.6011 25.888 31 26.3667 31H37.6333C38.112 31 38.5 30.6011 38.5 30.1091V22.7143C38.4999 22.4782 38.4087 22.2517 38.2464 22.0847L33.5536 17.2607C33.3912 17.0939 33.1709 17.0001 32.9412 17Z" stroke="#111111" stroke-linecap="round" stroke-linejoin="round"/>
</g>
<g id="Size=20px, Filled=false">
<g id="Vector_5">
<path d="M58.75 29.02H58.06V30.25H57.25V26.55H58.75C59.505 26.55 60.01 27.045 60.01 27.785C60.01 28.525 59.505 29.02 58.75 29.02ZM58.57 27.27H58.06V28.3H58.57C58.96 28.3 59.155 28.13 59.155 27.785C59.155 27.44 58.96 27.27 58.57 27.27Z" fill="#111111"/>
<path d="M62.0715 30.25H60.6215V26.55H62.0215C63.1065 26.55 63.8615 27.31 63.8615 28.41C63.8615 29.49 63.1265 30.25 62.0715 30.25ZM61.9415 27.3H61.4315V29.5H61.9915C62.6315 29.5 63.0065 29.095 63.0065 28.41C63.0065 27.71 62.6115 27.3 61.9415 27.3Z" fill="#111111"/>
<path d="M66.5352 28.805H65.2352V30.25H64.4252V26.55H66.7802V27.3H65.2352V28.075H66.5352V28.805Z" fill="#111111"/>
</g>
<path id="Vector_6" d="M62.62 15.25V21.481C62.62 22.1818 63.1882 22.75 63.889 22.75H70.12M63.1715 15.25H54.9533C54.355 15.25 53.87 15.7486 53.87 16.3636V31.6364C53.87 32.2514 54.355 32.75 54.9533 32.75H69.0367C69.635 32.75 70.12 32.2514 70.12 31.6364V22.3929C70.1199 22.0977 70.0059 21.8147 69.803 21.6059L63.937 15.5759C63.7339 15.3673 63.4586 15.2501 63.1715 15.25Z" stroke="#111111" stroke-width="1.25" stroke-linecap="round" stroke-linejoin="round"/>
</g>
<g id="Size=24px, Filled=false">
<g id="Vector_7">
<path d="M92.15 30.524H91.322V32H90.35V27.56H92.15C93.056 27.56 93.662 28.154 93.662 29.042C93.662 29.93 93.056 30.524 92.15 30.524ZM91.934 28.424H91.322V29.66H91.934C92.402 29.66 92.636 29.456 92.636 29.042C92.636 28.628 92.402 28.424 91.934 28.424Z" fill="#111111"/>
<path d="M96.0158 32H94.2758V27.56H95.9558C97.2578 27.56 98.1638 28.472 98.1638 29.792C98.1638 31.088 97.2818 32 96.0158 32ZM95.8598 28.46H95.2478V31.1H95.9198C96.6878 31.1 97.1378 30.614 97.1378 29.792C97.1378 28.952 96.6638 28.46 95.8598 28.46Z" fill="#111111"/>
<path d="M101.372 30.266H99.8122V32H98.8402V27.56H101.666V28.46H99.8122V29.39H101.372V30.266Z" fill="#111111"/>
</g>
<path id="Vector_8" d="M97 13V20.4772C97 21.3182 97.6818 22 98.5228 22H106M97.448 13H87.3333C86.597 13 86 13.6268 86 14.4V33.6C86 34.3732 86.597 35 87.3333 35H104.667C105.403 35 106 34.3732 106 33.6V21.9796C106 21.6086 105.86 21.2527 105.61 20.9903L98.3902 13.4097C98.1402 13.1475 97.8013 13.0001 97.448 13Z" stroke="#111111" stroke-width="1.5" stroke-linecap="round" stroke-linejoin="round"/>
</g>
<g id="Size=32px, Filled=false">
<g id="Vector_9">
<path d="M130.8 32.032H129.696V34H128.4V28.08H130.8C132.008 28.08 132.816 28.872 132.816 30.056C132.816 31.24 132.008 32.032 130.8 32.032ZM130.512 29.232H129.696V30.88H130.512C131.136 30.88 131.448 30.608 131.448 30.056C131.448 29.504 131.136 29.232 130.512 29.232Z" fill="#111111"/>
<path d="M136.114 34H133.794V28.08H136.034C137.77 28.08 138.978 29.296 138.978 31.056C138.978 32.784 137.802 34 136.114 34ZM135.906 29.28H135.09V32.8H135.986C137.01 32.8 137.61 32.152 137.61 31.056C137.61 29.936 136.978 29.28 135.906 29.28Z" fill="#111111"/>
<path d="M143.256 31.688H141.176V34H139.88V28.08H143.648V29.28H141.176V30.52H143.256V31.688Z" fill="#111111"/>
</g>
<path id="Vector_10" d="M137 10V19.9695C137 21.0909 137.909 22 139.03 22H149M137.882 10H124.733C123.776 10 123 10.7978 123 11.7818V36.2182C123 37.2022 123.776 38 124.733 38H147.267C148.224 38 149 37.2022 149 36.2182V21.4286C149 20.9564 148.817 20.5035 148.493 20.1695L139.107 10.5214C138.782 10.1877 138.342 10.0002 137.882 10Z" stroke="#111111" stroke-width="2" stroke-linecap="round" stroke-linejoin="round"/>
</g>
<g id="Size=40px, Filled=false">
<g id="Vector_11">
<path d="M177.5 34.04H176.12V36.5H174.5V29.1H177.5C179.01 29.1 180.02 30.09 180.02 31.57C180.02 33.05 179.01 34.04 177.5 34.04ZM177.14 30.54H176.12V32.6H177.14C177.92 32.6 178.31 32.26 178.31 31.57C178.31 30.88 177.92 30.54 177.14 30.54Z" fill="#111111"/>
<path d="M184.143 36.5H181.243V29.1H184.043C186.213 29.1 187.723 30.62 187.723 32.82C187.723 34.98 186.253 36.5 184.143 36.5ZM183.883 30.6H182.863V35H183.983C185.263 35 186.013 34.19 186.013 32.82C186.013 31.42 185.223 30.6 183.883 30.6Z" fill="#111111"/>
<path d="M193.07 33.61H190.47V36.5H188.85V29.1H193.56V30.6H190.47V32.15H193.07V33.61Z" fill="#111111"/>
</g>
<path id="Vector_12" d="M185.25 6.5V18.9619C185.25 20.3636 186.386 21.5 187.788 21.5H200.25M186.353 6.5H169.917C168.72 6.5 167.75 7.49721 167.75 8.72728V39.2727C167.75 40.5028 168.72 41.5 169.917 41.5H198.083C199.28 41.5 200.25 40.5028 200.25 39.2727V20.7857C200.25 20.1955 200.022 19.6294 199.616 19.2119L187.884 7.15178C187.478 6.73467 186.927 6.5002 186.353 6.5Z" stroke="#111111" stroke-width="2.5" stroke-linecap="round" stroke-linejoin="round"/>
</g>
<g id="Size=48px, Filled=false">
<g id="Vector_13">
<path d="M232.15 36.048H230.494V39H228.55V30.12H232.15C233.962 30.12 235.174 31.308 235.174 33.084C235.174 34.86 233.962 36.048 232.15 36.048ZM231.718 31.848H230.494V34.32H231.718C232.654 34.32 233.122 33.912 233.122 33.084C233.122 32.256 232.654 31.848 231.718 31.848Z" fill="#111111"/>
<path d="M240.122 39H236.642V30.12H240.002C242.606 30.12 244.418 31.944 244.418 34.584C244.418 37.176 242.654 39 240.122 39ZM239.81 31.92H238.586V37.2H239.93C241.466 37.2 242.366 36.228 242.366 34.584C242.366 32.904 241.418 31.92 239.81 31.92Z" fill="#111111"/>
<path d="M250.835 35.532H247.715V39H245.771V30.12H251.423V31.92H247.715V33.78H250.835V35.532Z" fill="#111111"/>
</g>
<path id="Vector_14" d="M241.5 3V17.9543C241.5 19.6364 242.864 21 244.546 21H259.5M242.824 3H223.1C221.664 3 220.5 4.19666 220.5 5.67273V42.3273C220.5 43.8034 221.664 45 223.1 45H256.9C258.336 45 259.5 43.8034 259.5 42.3273V20.1429C259.5 19.4346 259.226 18.7552 258.739 18.2542L244.661 3.78214C244.173 3.28161 243.513 3.00024 242.824 3Z" stroke="#111111" stroke-width="3" stroke-linecap="round" stroke-linejoin="round"/>
</g>
<g id="Size=12px, Filled=true">
<g id="Vector_15">
<path d="M4.15135 85.8685H3.86889V86.4571H4.15135C4.36735 86.4571 4.47535 86.3599 4.47535 86.1628C4.47535 85.9657 4.36735 85.8685 4.15135 85.8685Z" fill="#111111"/>
<path d="M6.01863 85.8857H5.73617V87.1428H6.04633C6.40079 87.1428 6.60848 86.9114 6.60848 86.5199C6.60848 86.1199 6.38971 85.8857 6.01863 85.8857Z" fill="#111111"/>
<path fill-rule="evenodd" clip-rule="evenodd" d="M2.1 79H6.34621V82.0825C6.34621 82.747 6.86832 83.2857 7.51235 83.2857H10.5V88.3636C10.5 88.7151 10.2314 89 9.9 89H2.1C1.76863 89 1.5 88.7151 1.5 88.3636V79.6364C1.5 79.2849 1.76863 79 2.1 79ZM4.25104 86.8685H3.86889V87.5714H3.42027V85.4571H4.25104C4.6692 85.4571 4.94889 85.7399 4.94889 86.1628C4.94889 86.5857 4.6692 86.8685 4.25104 86.8685ZM6.09063 87.5714H5.28756V85.4571H6.06294C6.66386 85.4571 7.08202 85.8914 7.08202 86.5199C7.08202 87.1371 6.67494 87.5714 6.09063 87.5714ZM7.84284 86.7457H8.56284V86.3285H7.84284V85.8857H8.69853V85.4571H7.39423V87.5714H7.84284V86.7457Z" fill="#111111"/>
<path d="M7.07558 79.1862L10.2673 82.5714H7.51235C7.25067 82.5714 7.03851 82.3525 7.03851 82.0825V79.1501C7.05129 79.1616 7.06366 79.1736 7.07558 79.1862Z" fill="#111111"/>
</g>
</g>
<g id="Size=16px, Filled=true">
<g id="Vector_16">
<path d="M29.5351 86.4914H29.1585V87.2761H29.5351C29.8231 87.2761 29.9671 87.1466 29.9671 86.8838C29.9671 86.6209 29.8231 86.4914 29.5351 86.4914Z" fill="#111111"/>
<path d="M32.0248 86.5142H31.6482V88.1904H32.0618C32.5344 88.1904 32.8113 87.8818 32.8113 87.3599C32.8113 86.8266 32.5196 86.5142 32.0248 86.5142Z" fill="#111111"/>
<path fill-rule="evenodd" clip-rule="evenodd" d="M26.8 77.3333H32.4616V81.4434C32.4616 82.3294 33.1578 83.0476 34.0165 83.0476H38V89.8182C38 90.2868 37.6418 90.6667 37.2 90.6667H26.8C26.3582 90.6667 26 90.2868 26 89.8182V78.1818C26 77.7132 26.3582 77.3333 26.8 77.3333ZM29.6681 87.8247H29.1585V88.7618H28.5604V85.9428H29.6681C30.2256 85.9428 30.5985 86.3199 30.5985 86.8838C30.5985 87.4476 30.2256 87.8247 29.6681 87.8247ZM32.1208 88.7618H31.0501V85.9428H32.0839C32.8852 85.9428 33.4427 86.5218 33.4427 87.3599C33.4427 88.1828 32.8999 88.7618 32.1208 88.7618ZM34.4571 87.6609H35.4171V87.1047H34.4571V86.5142H35.598V85.9428H33.859V88.7618H34.4571V87.6609Z" fill="#111111"/>
<path d="M33.4341 77.5816L37.6898 82.0952H34.0165C33.6676 82.0952 33.3847 81.8034 33.3847 81.4434V77.5335C33.4017 77.5487 33.4182 77.5648 33.4341 77.5816Z" fill="#111111"/>
</g>
</g>
<g id="Size=20px, Filled=true">
<g id="Vector_17">
<path d="M58.9189 87.1142H58.4481V88.0951H58.9189C59.2789 88.0951 59.4589 87.9332 59.4589 87.6047C59.4589 87.2761 59.2789 87.1142 58.9189 87.1142Z" fill="#111111"/>
<path d="M62.0311 87.1428H61.5603V89.238H62.0772C62.668 89.238 63.0141 88.8523 63.0141 88.1999C63.0141 87.5332 62.6495 87.1428 62.0311 87.1428Z" fill="#111111"/>
<path fill-rule="evenodd" clip-rule="evenodd" d="M55.5 75.6667H62.577V80.8042C62.577 81.9117 63.4472 82.8095 64.5206 82.8095H69.5V91.2727C69.5 91.8585 69.0523 92.3333 68.5 92.3333H55.5C54.9477 92.3333 54.5 91.8585 54.5 91.2727V76.7273C54.5 76.1415 54.9477 75.6667 55.5 75.6667ZM59.0851 88.7809H58.4481V89.9523H57.7005V86.4285H59.0851C59.782 86.4285 60.2481 86.8999 60.2481 87.6047C60.2481 88.3094 59.782 88.7809 59.0851 88.7809ZM62.1511 89.9523H60.8126V86.4285H62.1049C63.1064 86.4285 63.8034 87.1523 63.8034 88.1999C63.8034 89.2285 63.1249 89.9523 62.1511 89.9523ZM65.0714 88.5761H66.2714V87.8809H65.0714V87.1428H66.4976V86.4285H64.3237V89.9523H65.0714V88.5761Z" fill="#111111"/>
<path d="M63.7926 75.977L69.1122 81.619H64.5206C64.0844 81.619 63.7309 81.2542 63.7309 80.8042V75.9168C63.7522 75.9359 63.7728 75.956 63.7926 75.977Z" fill="#111111"/>
</g>
</g>
<g id="Size=24px, Filled=true">
<g id="Vector_18">
<path d="M92.3027 87.737H91.7378V88.9142H92.3027C92.7347 88.9142 92.9507 88.7199 92.9507 88.3256C92.9507 87.9313 92.7347 87.737 92.3027 87.737Z" fill="#111111"/>
<path d="M96.0373 87.7713H95.4723V90.2856H96.0927C96.8016 90.2856 97.217 89.8228 97.217 89.0399C97.217 88.2399 96.7794 87.7713 96.0373 87.7713Z" fill="#111111"/>
<path fill-rule="evenodd" clip-rule="evenodd" d="M88.2 74H96.6924V80.1651C96.6924 81.494 97.7366 82.5714 99.0247 82.5714H105V92.7273C105 93.4302 104.463 94 103.8 94H88.2C87.5373 94 87 93.4302 87 92.7273V75.2727C87 74.5698 87.5373 74 88.2 74ZM92.5021 89.737H91.7378V91.1428H90.8405V86.9142H92.5021C93.3384 86.9142 93.8978 87.4799 93.8978 88.3256C93.8978 89.1713 93.3384 89.737 92.5021 89.737ZM96.1813 91.1428H94.5751V86.9142H96.1259C97.3277 86.9142 98.164 87.7828 98.164 89.0399C98.164 90.2742 97.3499 91.1428 96.1813 91.1428ZM99.6857 89.4913H101.126V88.657H99.6857V87.7713H101.397V86.9142H98.7885V91.1428H99.6857V89.4913Z" fill="#111111"/>
<path d="M98.1512 74.3724L104.535 81.1428H99.0247C98.5013 81.1428 98.077 80.7051 98.077 80.1651V74.3002C98.1026 74.3231 98.1273 74.3472 98.1512 74.3724Z" fill="#111111"/>
</g>
</g>
<g id="Size=32px, Filled=true">
<g id="Vector_19">
<path d="M131.07 88.9827H130.317V90.5522H131.07C131.646 90.5522 131.934 90.2932 131.934 89.7675C131.934 89.2418 131.646 88.9827 131.07 88.9827Z" fill="#111111"/>
<path d="M136.05 89.0284H135.296V92.3808H136.124C137.069 92.3808 137.623 91.7637 137.623 90.7199C137.623 89.6532 137.039 89.0284 136.05 89.0284Z" fill="#111111"/>
<path fill-rule="evenodd" clip-rule="evenodd" d="M125.6 70.6667H136.923V78.8868C136.923 80.6587 138.316 82.0952 140.033 82.0952H148V95.6364C148 96.5736 147.284 97.3333 146.4 97.3333H125.6C124.716 97.3333 124 96.5736 124 95.6364V72.3636C124 71.4264 124.716 70.6667 125.6 70.6667ZM131.336 91.6494H130.317V93.5237H129.121V87.8856H131.336C132.451 87.8856 133.197 88.6399 133.197 89.7675C133.197 90.8951 132.451 91.6494 131.336 91.6494ZM136.242 93.5237H134.1V87.8856H136.168C137.77 87.8856 138.885 89.0437 138.885 90.7199C138.885 92.3656 137.8 93.5237 136.242 93.5237ZM140.914 91.3218H142.834V90.2094H140.914V89.0284H143.196V87.8856H139.718V93.5237H140.914V91.3218Z" fill="#111111"/>
<path d="M138.868 71.1633L147.38 80.1904H140.033C139.335 80.1904 138.769 79.6067 138.769 78.8868V71.067C138.803 71.0975 138.836 71.1296 138.868 71.1633Z" fill="#111111"/>
</g>
</g>
<g id="Size=40px, Filled=true">
<g id="Vector_20">
<path d="M177.838 90.2284H176.896V92.1903H177.838C178.558 92.1903 178.918 91.8665 178.918 91.2094C178.918 90.5522 178.558 90.2284 177.838 90.2284Z" fill="#111111"/>
<path d="M184.062 90.2856H183.121V94.476H184.154C185.336 94.476 186.028 93.7046 186.028 92.3998C186.028 91.0665 185.299 90.2856 184.062 90.2856Z" fill="#111111"/>
<path fill-rule="evenodd" clip-rule="evenodd" d="M171 67.3333H185.154V77.6085C185.154 79.8234 186.894 81.619 189.041 81.619H199V98.5455C199 99.717 198.105 100.667 197 100.667H171C169.895 100.667 169 99.717 169 98.5455V69.4546C169 68.2831 169.895 67.3333 171 67.3333ZM178.17 93.5617H176.896V95.9046H175.401V88.857H178.17C179.564 88.857 180.496 89.7998 180.496 91.2094C180.496 92.6189 179.564 93.5617 178.17 93.5617ZM184.302 95.9046H181.625V88.857H184.21C186.213 88.857 187.607 90.3046 187.607 92.3998C187.607 94.457 186.25 95.9046 184.302 95.9046ZM190.143 93.1522H192.543V91.7617H190.143V90.2856H192.995V88.857H188.647V95.9046H190.143V93.1522Z" fill="#111111"/>
<path d="M187.585 67.9541L198.224 79.2381H189.041C188.169 79.2381 187.462 78.5084 187.462 77.6085V67.8337C187.504 67.8718 187.546 67.912 187.585 67.9541Z" fill="#111111"/>
</g>
</g>
<g id="Size=48px, Filled=true">
<g id="Vector_21">
<path d="M232.605 91.4741H231.476V93.8284H232.605C233.469 93.8284 233.901 93.4398 233.901 92.6512C233.901 91.8627 233.469 91.4741 232.605 91.4741Z" fill="#111111"/>
<path d="M240.075 91.5427H238.945V96.5712H240.185C241.603 96.5712 242.434 95.6455 242.434 94.0798C242.434 92.4798 241.559 91.5427 240.075 91.5427Z" fill="#111111"/>
<path fill-rule="evenodd" clip-rule="evenodd" d="M224.4 64H241.385V76.3302C241.385 78.9881 243.473 81.1428 246.049 81.1428H258V101.455C258 102.86 256.925 104 255.6 104H224.4C223.075 104 222 102.86 222 101.455V66.5455C222 65.1397 223.075 64 224.4 64ZM233.004 95.4741H231.476V98.2855H229.681V89.8284H233.004C234.677 89.8284 235.796 90.9598 235.796 92.6512C235.796 94.3427 234.677 95.4741 233.004 95.4741ZM240.363 98.2855H237.15V89.8284H240.252C242.655 89.8284 244.328 91.5655 244.328 94.0798C244.328 96.5484 242.7 98.2855 240.363 98.2855ZM247.371 94.9827H250.251V93.3141H247.371V91.5427H250.794V89.8284H245.577V98.2855H247.371V94.9827Z" fill="#111111"/>
<path d="M244.302 64.7449L257.069 78.2857H246.049C245.003 78.2857 244.154 77.4101 244.154 76.3302V64.6004C244.205 64.6462 244.255 64.6944 244.302 64.7449Z" fill="#111111"/>
</g>
</g>
</g>
</g>
<defs>
<clipPath id="clip0_5428_1018">
<rect width="264" height="108" rx="5" fill="white"/>
</clipPath>
<clipPath id="clip1_5428_1018">
<rect width="12" height="12" fill="white" transform="translate(0 18)"/>
</clipPath>
<clipPath id="clip2_5428_1018">
<rect width="16" height="16" fill="white" transform="translate(24 16)"/>
</clipPath>
</defs>
</svg>
