<svg width="268" height="108" viewBox="0 0 268 108" fill="none" xmlns="http://www.w3.org/2000/svg">
<g id="QR Code">
<g id="Size=12px, Filled=false" clip-path="url(#clip0_2166_842)">
<path id="Vector" d="M2.85 24.35H5.65V25.05M7.05 25.05V27.15H9.15V25.05H8.45M5.65 26.45V27.15M5.65 20.85V22.95H6.35M7.75 23.65H9.15M0.75 21V19.3929C0.75 19.2224 0.817729 19.0588 0.938289 18.9383C1.05885 18.8177 1.22236 18.75 1.39286 18.75H3M9 18.75H10.6071C10.7776 18.75 10.9412 18.8177 11.0617 18.9383C11.1823 19.0588 11.25 19.2224 11.25 19.3929V21M11.25 27V28.6071C11.25 28.7776 11.1823 28.9412 11.0617 29.0617C10.9412 29.1823 10.7776 29.25 10.6071 29.25H9M3 29.25H1.39286C1.22236 29.25 1.05885 29.1823 0.938289 29.0617C0.817729 28.9412 0.75 28.7776 0.75 28.6071V27M2.85 20.85H4.25V22.25H2.85V20.85ZM2.85 25.75H4.25V27.15H2.85V25.75ZM7.75 20.85H9.15V22.25H7.75V20.85Z" stroke="#111111" stroke-width="0.75" stroke-linecap="round" stroke-linejoin="round"/>
</g>
<g id="Size=16px, Filled=false" clip-path="url(#clip1_2166_842)">
<path id="Vector_2" d="M27.8 24.4667H31.5333V25.4M33.4 25.4V28.2H36.2V25.4H35.2667M31.5333 27.2667V28.2M31.5333 19.8V22.6H32.4667M34.3333 23.5333H36.2M25 20V17.8571C25 17.6298 25.0903 17.4118 25.2511 17.2511C25.4118 17.0903 25.6298 17 25.8571 17H28M36 17H38.1429C38.3702 17 38.5882 17.0903 38.7489 17.2511C38.9097 17.4118 39 17.6298 39 17.8571V20M39 28V30.1429C39 30.3702 38.9097 30.5882 38.7489 30.7489C38.5882 30.9097 38.3702 31 38.1429 31H36M28 31H25.8571C25.6298 31 25.4118 30.9097 25.2511 30.7489C25.0903 30.5882 25 30.3702 25 30.1429V28M27.8 19.8H29.6667V21.6667H27.8V19.8ZM27.8 26.3333H29.6667V28.2H27.8V26.3333ZM34.3333 19.8H36.2V21.6667H34.3333V19.8Z" stroke="#111111" stroke-linecap="round" stroke-linejoin="round"/>
</g>
<g id="Size=20px, Filled=false" clip-path="url(#clip2_2166_842)">
<path id="Vector_3" d="M56.75 24.5833H61.4167V25.75M63.75 25.75V29.25H67.25V25.75H66.0833M61.4167 28.0833V29.25M61.4167 18.75V22.25H62.5833M64.9167 23.4167H67.25M53.25 19V16.3214C53.25 16.0373 53.3629 15.7647 53.5638 15.5638C53.7647 15.3629 54.0373 15.25 54.3214 15.25H57M67 15.25H69.6786C69.9627 15.25 70.2353 15.3629 70.4362 15.5638C70.6371 15.7647 70.75 16.0373 70.75 16.3214V19M70.75 29V31.6786C70.75 31.9627 70.6371 32.2353 70.4362 32.4362C70.2353 32.6371 69.9627 32.75 69.6786 32.75H67M57 32.75H54.3214C54.0373 32.75 53.7647 32.6371 53.5638 32.4362C53.3629 32.2353 53.25 31.9627 53.25 31.6786V29M56.75 18.75H59.0833V21.0833H56.75V18.75ZM56.75 26.9167H59.0833V29.25H56.75V26.9167ZM64.9167 18.75H67.25V21.0833H64.9167V18.75Z" stroke="#111111" stroke-width="1.25" stroke-linecap="round" stroke-linejoin="round"/>
</g>
<g id="Size=24px, Filled=false" clip-path="url(#clip3_2166_842)">
<path id="Vector_4" d="M89.4 24.7333H95.2667V26.2M98.2 26.2V30.6H102.6V26.2H101.133M95.2667 29.1333V30.6M95.2667 17.4V21.8H96.7333M99.6667 23.2667H102.667M85 18V14.4286C85 14.0497 85.1505 13.6863 85.4184 13.4184C85.6863 13.1505 86.0497 13 86.4286 13H90M102 13H105.571C105.95 13 106.314 13.1505 106.582 13.4184C106.849 13.6863 107 14.0497 107 14.4286V18M107 30V33.5714C107 33.9503 106.849 34.3137 106.582 34.5816C106.314 34.8495 105.95 35 105.571 35H102M90 35H86.4286C86.0497 35 85.6863 34.8495 85.4184 34.5816C85.1505 34.3137 85 33.9503 85 33.5714V30M89.4 17.4H92.3333V20.3333H89.4V17.4ZM89.4 27.6667H92.3333V30.6H89.4V27.6667ZM99.6667 17.4H102.6V20.3333H99.6667V17.4Z" stroke="#111111" stroke-width="1.5" stroke-linecap="round" stroke-linejoin="round"/>
</g>
<g id="Size=32px, Filled=false">
<path id="Vector_5" d="M127.6 24.9333H135.067V26.8M138.8 26.8V32.4H144.4V26.8H142.533M135.067 30.5333V32.4M135.067 15.6V21.2H136.933M140.667 23.0667H144.4M122 16V11.7143C122 11.2596 122.181 10.8236 122.502 10.5021C122.824 10.1806 123.26 10 123.714 10H128M144 10H148.286C148.74 10 149.176 10.1806 149.498 10.5021C149.819 10.8236 150 11.2596 150 11.7143V16M150 32V36.2857C150 36.7404 149.819 37.1764 149.498 37.4979C149.176 37.8194 148.74 38 148.286 38H144M128 38H123.714C123.26 38 122.824 37.8194 122.502 37.4979C122.181 37.1764 122 36.7404 122 36.2857V32M127.6 15.6H131.333V19.3333H127.6V15.6ZM127.6 28.6667H131.333V32.4H127.6V28.6667ZM140.667 15.6H144.4V19.3333H140.667V15.6Z" stroke="#111111" stroke-width="2" stroke-linecap="round" stroke-linejoin="round"/>
</g>
<g id="Size=40px, Filled=false">
<path id="Vector_6" d="M173.5 25.1667H182.833V27.5M187.5 27.5V34.5H194.5V27.5H192.167M182.833 32.1667V34.5M182.833 13.5V20.5H185.167M189.833 22.8333H194.5M166.5 14V8.64286C166.5 8.07454 166.726 7.52949 167.128 7.12763C167.529 6.72576 168.075 6.5 168.643 6.5H174M194 6.5H199.357C199.925 6.5 200.471 6.72576 200.872 7.12763C201.274 7.52949 201.5 8.07454 201.5 8.64286V14M201.5 34V39.3571C201.5 39.9255 201.274 40.4705 200.872 40.8724C200.471 41.2742 199.925 41.5 199.357 41.5H194M174 41.5H168.643C168.075 41.5 167.529 41.2742 167.128 40.8724C166.726 40.4705 166.5 39.9255 166.5 39.3571V34M173.5 13.5H178.167V18.1667H173.5V13.5ZM173.5 29.8333H178.167V34.5H173.5V29.8333ZM189.833 13.5H194.5V18.1667H189.833V13.5Z" stroke="#111111" stroke-width="2.5" stroke-linecap="round" stroke-linejoin="round"/>
</g>
<g id="Size=48px, Filled=false">
<path id="Vector_7" d="M227.4 25.4H238.6V28.2M244.2 28.2V36.6H252.6V28.2H249.8M238.6 33.8V36.6M238.6 11.4V19.8H241.4M247 22.6H252.6M219 12V5.57143C219 4.88944 219.271 4.23539 219.753 3.75315C220.235 3.27092 220.889 3 221.571 3H228M252 3H258.429C259.111 3 259.765 3.27092 260.247 3.75315C260.729 4.23539 261 4.88944 261 5.57143V12M261 36V42.4286C261 43.1106 260.729 43.7646 260.247 44.2468C259.765 44.7291 259.111 45 258.429 45H252M228 45H221.571C220.889 45 220.235 44.7291 219.753 44.2468C219.271 43.7646 219 43.1106 219 42.4286V36M227.4 11.4H233V17H227.4V11.4ZM227.4 31H233V36.6H227.4V31ZM247 11.4H252.6V17H247V11.4Z" stroke="#111111" stroke-width="3" stroke-linecap="round" stroke-linejoin="round"/>
</g>
<g id="Size=12px, Filled=true" clip-path="url(#clip4_2166_842)">
<g id="Vector_8">
<path d="M0.729167 80.5692C0.85625 80.5692 0.978127 80.5187 1.06799 80.4288C1.15785 80.339 1.20833 80.2171 1.20833 80.09V79.3329C1.20779 79.3036 1.21757 79.2751 1.23598 79.2523C1.25438 79.2295 1.28022 79.214 1.30896 79.2083H2.09C2.21708 79.2083 2.33896 79.1578 2.42882 79.068C2.51868 78.9781 2.56917 78.8562 2.56917 78.7292C2.56917 78.6021 2.51868 78.4802 2.42882 78.3903C2.33896 78.3005 2.21708 78.25 2.09 78.25H1.20833C0.954167 78.25 0.710412 78.351 0.530689 78.5307C0.350967 78.7104 0.25 78.9542 0.25 79.2083V80.09C0.25 80.2171 0.300483 80.339 0.390345 80.4288C0.480206 80.5187 0.602084 80.5692 0.729167 80.5692Z" fill="#111111"/>
<path d="M2.09 88.7916H1.33292C1.30364 88.7922 1.2751 88.7824 1.25232 88.764C1.22953 88.7456 1.21396 88.7197 1.20833 88.691V87.91C1.20833 87.7829 1.15785 87.661 1.06799 87.5711C0.978127 87.4813 0.85625 87.4308 0.729167 87.4308C0.602084 87.4308 0.480206 87.4813 0.390345 87.5711C0.300483 87.661 0.25 87.7829 0.25 87.91V88.7916C0.25 89.0458 0.350967 89.2895 0.530689 89.4693C0.710412 89.649 0.954167 89.75 1.20833 89.75H2.09C2.21708 89.75 2.33896 89.6995 2.42882 89.6096C2.51868 89.5198 2.56917 89.3979 2.56917 89.2708C2.56917 89.1437 2.51868 89.0218 2.42882 88.932C2.33896 88.8421 2.21708 88.7916 2.09 88.7916Z" fill="#111111"/>
<path d="M9.91008 78.25H10.7917C11.0459 78.25 11.2897 78.351 11.4694 78.5307C11.6491 78.7104 11.7501 78.9542 11.7501 79.2083V80.09C11.7501 80.2171 11.6996 80.339 11.6097 80.4288C11.5199 80.5187 11.398 80.5692 11.2709 80.5692C11.1438 80.5692 11.0219 80.5187 10.9321 80.4288C10.8422 80.339 10.7917 80.2171 10.7917 80.09V79.3281C10.7905 79.2959 10.7768 79.2655 10.7536 79.2431C10.7304 79.2208 10.6994 79.2083 10.6672 79.2083H9.91008C9.78299 79.2083 9.66111 79.1578 9.57125 79.068C9.48139 78.9781 9.43091 78.8562 9.43091 78.7292C9.43091 78.6021 9.48139 78.4802 9.57125 78.3903C9.66111 78.3005 9.78299 78.25 9.91008 78.25Z" fill="#111111"/>
<path d="M11.2709 87.4308C11.1438 87.4308 11.0219 87.4813 10.9321 87.5711C10.8422 87.661 10.7917 87.7829 10.7917 87.91V88.667C10.7918 88.6993 10.7793 88.7303 10.757 88.7535C10.7346 88.7767 10.7042 88.7904 10.672 88.7916H9.91008C9.78299 88.7916 9.66111 88.8421 9.57125 88.932C9.48139 89.0218 9.43091 89.1437 9.43091 89.2708C9.43091 89.3979 9.48139 89.5198 9.57125 89.6096C9.66111 89.6995 9.78299 89.75 9.91008 89.75H10.7917C11.0459 89.75 11.2897 89.649 11.4694 89.4693C11.6491 89.2895 11.7501 89.0458 11.7501 88.7916V87.91C11.7501 87.7829 11.6996 87.661 11.6097 87.5711C11.5199 87.4813 11.398 87.4308 11.2709 87.4308Z" fill="#111111"/>
<path d="M4.08333 80.4062H2.88542C2.64583 80.4062 2.64583 80.6458 2.64583 80.6458V81.8438C2.64583 82.0833 2.88542 82.0833 2.88542 82.0833H4.08333C4.32292 82.0833 4.32292 81.8438 4.32292 81.8438V80.6458C4.32292 80.4062 4.08333 80.4062 4.08333 80.4062Z" fill="#111111"/>
<path d="M7.91667 80.4062H9.11458C9.11458 80.4062 9.35417 80.4062 9.35417 80.6458V81.8438C9.35417 81.8438 9.35417 82.0833 9.11458 82.0833H7.91667C7.91667 82.0833 7.67708 82.0833 7.67708 81.8438V80.6458C7.67708 80.6458 7.67708 80.4062 7.91667 80.4062Z" fill="#111111"/>
<path d="M9.11458 85.9167H7.91667C7.67708 85.9167 7.67708 86.1562 7.67708 86.1562V87.3542C7.67708 87.5938 7.91667 87.5938 7.91667 87.5938H9.11458C9.35417 87.5938 9.35417 87.3542 9.35417 87.3542V86.1562C9.35417 85.9167 9.11458 85.9167 9.11458 85.9167Z" fill="#111111"/>
<path d="M2.88542 85.9167H4.08333C4.08333 85.9167 4.32292 85.9167 4.32292 86.1562V87.3542C4.32292 87.3542 4.32292 87.5938 4.08333 87.5938H2.88542C2.88542 87.5938 2.64583 87.5938 2.64583 87.3542V86.1562C2.64583 86.1562 2.64583 85.9167 2.88542 85.9167Z" fill="#111111"/>
<path d="M5.53399 82.1013C5.46687 82.1684 5.37618 82.2067 5.28125 82.2079C5.18632 82.2067 5.09563 82.1684 5.02851 82.1013C4.96138 82.0342 4.92312 81.9435 4.92188 81.8485V80.7656C4.92312 80.6707 4.96138 80.58 5.02851 80.5129C5.09563 80.4458 5.18632 80.4075 5.28125 80.4062H6.68521C6.78052 80.4062 6.87193 80.4441 6.93932 80.5115C7.00672 80.5789 7.04458 80.6703 7.04458 80.7656C7.04458 80.8609 7.00672 80.9523 6.93932 81.0197C6.87193 81.0871 6.78052 81.125 6.68521 81.125H5.76042C5.72865 81.125 5.69818 81.1376 5.67571 81.1601C5.65325 81.1826 5.64062 81.213 5.64062 81.2448V81.8485C5.63938 81.9435 5.60112 82.0342 5.53399 82.1013Z" fill="#111111"/>
<path d="M6.71875 81.6665C6.62382 81.6677 6.53313 81.706 6.46601 81.7731C6.39888 81.8402 6.36062 81.9309 6.35938 82.0258V83.631C6.35938 83.7264 6.39724 83.8178 6.46463 83.8852C6.53203 83.9526 6.62344 83.9904 6.71875 83.9904C6.81406 83.9904 6.90547 83.9526 6.97287 83.8852C7.04026 83.8178 7.07812 83.7264 7.07812 83.631V82.0258C7.07688 81.9309 7.03862 81.8402 6.97149 81.7731C6.90437 81.706 6.81368 81.6677 6.71875 81.6665Z" fill="#111111"/>
<path d="M5.53399 85.0913C5.46687 85.1585 5.37618 85.1967 5.28125 85.198H2.88542C2.7901 85.198 2.6987 85.1601 2.6313 85.0927C2.5639 85.0253 2.52604 84.9339 2.52604 84.8386C2.52604 84.7433 2.5639 84.6519 2.6313 84.5845C2.6987 84.5171 2.7901 84.4792 2.88542 84.4792H4.80208C4.83385 84.4792 4.86432 84.4666 4.88679 84.4441C4.90925 84.4217 4.92188 84.3912 4.92188 84.3594V83.6838C4.92188 83.5885 4.95974 83.4971 5.02713 83.4297C5.09453 83.3623 5.18594 83.3244 5.28125 83.3244C5.37656 83.3244 5.46797 83.3623 5.53537 83.4297C5.60276 83.4971 5.64062 83.5885 5.64062 83.6838V84.8386C5.63938 84.9335 5.60112 85.0242 5.53399 85.0913Z" fill="#111111"/>
<path d="M6.68521 86.875H5.76042C5.72865 86.875 5.69818 86.8624 5.67571 86.84C5.65325 86.8175 5.64062 86.787 5.64062 86.7553V86.0796C5.64062 85.9843 5.60276 85.8929 5.53537 85.8255C5.46797 85.7581 5.37656 85.7203 5.28125 85.7203C5.18594 85.7203 5.09453 85.7581 5.02713 85.8255C4.95974 85.8929 4.92188 85.9843 4.92188 86.0796V87.2344C4.92312 87.3293 4.96138 87.42 5.02851 87.4872C5.09563 87.5543 5.18632 87.5926 5.28125 87.5938H6.68521C6.78052 87.5938 6.87193 87.5559 6.93932 87.4885C7.00672 87.4211 7.04458 87.3297 7.04458 87.2344C7.04458 87.1391 7.00672 87.0477 6.93932 86.9803C6.87193 86.9129 6.78052 86.875 6.68521 86.875Z" fill="#111111"/>
<path d="M3.84375 83.5208H2.88542C2.7901 83.5208 2.6987 83.483 2.6313 83.4156C2.5639 83.3482 2.52604 83.2568 2.52604 83.1615C2.52604 83.0661 2.5639 82.9747 2.6313 82.9073C2.6987 82.8399 2.7901 82.8021 2.88542 82.8021H3.84375C3.93906 82.8021 4.03047 82.8399 4.09787 82.9073C4.16526 82.9747 4.20313 83.0661 4.20313 83.1615C4.20313 83.2568 4.16526 83.3482 4.09787 83.4156C4.03047 83.483 3.93906 83.5208 3.84375 83.5208Z" fill="#111111"/>
<path d="M7.91667 83.5208H9.11458C9.2099 83.5208 9.3013 83.483 9.3687 83.4156C9.4361 83.3482 9.47396 83.2568 9.47396 83.1615C9.47396 83.0661 9.4361 82.9747 9.3687 82.9073C9.3013 82.8399 9.2099 82.8021 9.11458 82.8021H7.91667C7.82135 82.8021 7.72995 82.8399 7.66255 82.9073C7.59515 82.9747 7.55729 83.0661 7.55729 83.1615C7.55729 83.2568 7.59515 83.3482 7.66255 83.4156C7.72995 83.483 7.82135 83.5208 7.91667 83.5208Z" fill="#111111"/>
<path d="M6.47917 84.4792H9.11458C9.2099 84.4792 9.3013 84.517 9.3687 84.5844C9.4361 84.6518 9.47396 84.7432 9.47396 84.8385C9.47396 84.9339 9.4361 85.0253 9.3687 85.0927C9.3013 85.1601 9.2099 85.1979 9.11458 85.1979H6.47917C6.38385 85.1979 6.29245 85.1601 6.22505 85.0927C6.15765 85.0253 6.11979 84.9339 6.11979 84.8385C6.11979 84.7432 6.15765 84.6518 6.22505 84.5844C6.29245 84.517 6.38385 84.4792 6.47917 84.4792Z" fill="#111111"/>
</g>
</g>
<g id="Size=16px, Filled=true" clip-path="url(#clip5_2166_842)">
<g id="Vector_9">
<path d="M24.9723 79.4256C25.1417 79.4256 25.3042 79.3583 25.424 79.2384C25.5438 79.1186 25.6112 78.9561 25.6112 78.7867V77.7772C25.6104 77.7382 25.6235 77.7001 25.648 77.6698C25.6725 77.6394 25.707 77.6186 25.7453 77.6111H26.7867C26.9562 77.6111 27.1187 77.5438 27.2385 77.424C27.3583 77.3042 27.4256 77.1417 27.4256 76.9722C27.4256 76.8028 27.3583 76.6403 27.2385 76.5205C27.1187 76.4007 26.9562 76.3333 26.7867 76.3333H25.6112C25.2723 76.3333 24.9473 76.468 24.7076 76.7076C24.468 76.9472 24.3334 77.2722 24.3334 77.6111V78.7867C24.3334 78.9561 24.4007 79.1186 24.5205 79.2384C24.6403 79.3583 24.8028 79.4256 24.9723 79.4256Z" fill="#111111"/>
<path d="M26.7867 90.3888H25.7773C25.7382 90.3896 25.7002 90.3765 25.6698 90.352C25.6394 90.3274 25.6187 90.293 25.6112 90.2547V89.2133C25.6112 89.0438 25.5438 88.8813 25.424 88.7615C25.3042 88.6417 25.1417 88.5744 24.9723 88.5744C24.8028 88.5744 24.6403 88.6417 24.5205 88.7615C24.4007 88.8813 24.3334 89.0438 24.3334 89.2133V90.3888C24.3334 90.7277 24.468 91.0527 24.7076 91.2924C24.9473 91.532 25.2723 91.6666 25.6112 91.6666H26.7867C26.9562 91.6666 27.1187 91.5993 27.2385 91.4795C27.3583 91.3597 27.4256 91.1972 27.4256 91.0277C27.4256 90.8583 27.3583 90.6958 27.2385 90.576C27.1187 90.4562 26.9562 90.3888 26.7867 90.3888Z" fill="#111111"/>
<path d="M37.2135 76.3333H38.389C38.7279 76.3333 39.0529 76.468 39.2926 76.7076C39.5322 76.9472 39.6668 77.2722 39.6668 77.6111V78.7867C39.6668 78.9561 39.5995 79.1186 39.4797 79.2384C39.3599 79.3583 39.1974 79.4256 39.0279 79.4256C38.8585 79.4256 38.696 79.3583 38.5762 79.2384C38.4563 79.1186 38.389 78.9561 38.389 78.7867V77.7708C38.3874 77.7279 38.3691 77.6873 38.3382 77.6575C38.3072 77.6277 38.2659 77.6111 38.2229 77.6111H37.2135C37.044 77.6111 36.8815 77.5438 36.7617 77.424C36.6419 77.3042 36.5746 77.1417 36.5746 76.9722C36.5746 76.8028 36.6419 76.6403 36.7617 76.5205C36.8815 76.4007 37.044 76.3333 37.2135 76.3333Z" fill="#111111"/>
<path d="M39.0279 88.5744C38.8585 88.5744 38.696 88.6417 38.5762 88.7615C38.4563 88.8813 38.389 89.0438 38.389 89.2133V90.2227C38.3891 90.2657 38.3724 90.307 38.3427 90.338C38.3129 90.369 38.2722 90.3872 38.2293 90.3888H37.2135C37.044 90.3888 36.8815 90.4562 36.7617 90.576C36.6419 90.6958 36.5746 90.8583 36.5746 91.0277C36.5746 91.1972 36.6419 91.3597 36.7617 91.4795C36.8815 91.5993 37.044 91.6666 37.2135 91.6666H38.389C38.7279 91.6666 39.0529 91.532 39.2926 91.2924C39.5322 91.0527 39.6668 90.7277 39.6668 90.3888V89.2133C39.6668 89.0438 39.5995 88.8813 39.4797 88.7615C39.3599 88.6417 39.1974 88.5744 39.0279 88.5744Z" fill="#111111"/>
<path d="M29.4445 79.2083H27.8473C27.5278 79.2083 27.5278 79.5278 27.5278 79.5278V81.125C27.5278 81.4445 27.8473 81.4445 27.8473 81.4445H29.4445C29.7639 81.4445 29.7639 81.125 29.7639 81.125V79.5278C29.7639 79.2083 29.4445 79.2083 29.4445 79.2083Z" fill="#111111"/>
<path d="M34.5556 79.2083H36.1528C36.1528 79.2083 36.4723 79.2083 36.4723 79.5278V81.125C36.4723 81.125 36.4723 81.4445 36.1528 81.4445H34.5556C34.5556 81.4445 34.2362 81.4445 34.2362 81.125V79.5278C34.2362 79.5278 34.2362 79.2083 34.5556 79.2083Z" fill="#111111"/>
<path d="M36.1528 86.5556H34.5556C34.2362 86.5556 34.2362 86.875 34.2362 86.875V88.4722C34.2362 88.7917 34.5556 88.7917 34.5556 88.7917H36.1528C36.4723 88.7917 36.4723 88.4722 36.4723 88.4722V86.875C36.4723 86.5556 36.1528 86.5556 36.1528 86.5556Z" fill="#111111"/>
<path d="M27.8473 86.5556H29.4445C29.4445 86.5556 29.7639 86.5556 29.7639 86.875V88.4722C29.7639 88.4722 29.7639 88.7917 29.4445 88.7917H27.8473C27.8473 88.7917 27.5278 88.7917 27.5278 88.4722V86.875C27.5278 86.875 27.5278 86.5556 27.8473 86.5556Z" fill="#111111"/>
<path d="M31.3787 81.4684C31.2892 81.5579 31.1683 81.6089 31.0417 81.6106C30.9151 81.6089 30.7942 81.5579 30.7047 81.4684C30.6152 81.3789 30.5642 81.258 30.5625 81.1314V79.6875C30.5642 79.5609 30.6152 79.44 30.7047 79.3505C30.7942 79.261 30.9151 79.21 31.0417 79.2083H32.9137C33.0407 79.2083 33.1626 79.2588 33.2525 79.3487C33.3423 79.4385 33.3928 79.5604 33.3928 79.6875C33.3928 79.8146 33.3423 79.9365 33.2525 80.0263C33.1626 80.1162 33.0407 80.1667 32.9137 80.1667H31.6806C31.6382 80.1667 31.5976 80.1835 31.5677 80.2135C31.5377 80.2434 31.5209 80.284 31.5209 80.3264V81.1314C31.5192 81.258 31.4682 81.3789 31.3787 81.4684Z" fill="#111111"/>
<path d="M32.9584 80.8886C32.8318 80.8903 32.7109 80.9413 32.6214 81.0308C32.5319 81.1203 32.4809 81.2412 32.4792 81.3678V83.5081C32.4792 83.6352 32.5297 83.757 32.6196 83.8469C32.7094 83.9368 32.8313 83.9872 32.9584 83.9872C33.0855 83.9872 33.2073 83.9368 33.2972 83.8469C33.3871 83.757 33.4375 83.6352 33.4375 83.5081V81.3678C33.4359 81.2412 33.3849 81.1203 33.2954 81.0308C33.2059 80.9413 33.0849 80.8903 32.9584 80.8886Z" fill="#111111"/>
<path d="M31.3787 85.4551C31.2892 85.5446 31.1683 85.5956 31.0417 85.5973H27.8473C27.7202 85.5973 27.5983 85.5468 27.5084 85.4569C27.4186 85.3671 27.3681 85.2452 27.3681 85.1181C27.3681 84.991 27.4186 84.8692 27.5084 84.7793C27.5983 84.6894 27.7202 84.639 27.8473 84.639H30.4028C30.4452 84.639 30.4858 84.6221 30.5158 84.5922C30.5457 84.5622 30.5625 84.5216 30.5625 84.4792V83.5784C30.5625 83.4513 30.613 83.3294 30.7029 83.2396C30.7927 83.1497 30.9146 83.0992 31.0417 83.0992C31.1688 83.0992 31.2907 83.1497 31.3805 83.2396C31.4704 83.3294 31.5209 83.4513 31.5209 83.5784V85.1181C31.5192 85.2447 31.4682 85.3656 31.3787 85.4551Z" fill="#111111"/>
<path d="M32.9137 87.8334H31.6806C31.6382 87.8334 31.5976 87.8166 31.5677 87.7866C31.5377 87.7567 31.5209 87.716 31.5209 87.6737V86.7728C31.5209 86.6458 31.4704 86.5239 31.3805 86.434C31.2907 86.3442 31.1688 86.2937 31.0417 86.2937C30.9146 86.2937 30.7927 86.3442 30.7029 86.434C30.613 86.5239 30.5625 86.6458 30.5625 86.7728V88.3126C30.5642 88.4391 30.6152 88.5601 30.7047 88.6496C30.7942 88.7391 30.9151 88.7901 31.0417 88.7917H32.9137C33.0407 88.7917 33.1626 88.7413 33.2525 88.6514C33.3423 88.5615 33.3928 88.4396 33.3928 88.3126C33.3928 88.1855 33.3423 88.0636 33.2525 87.9737C33.1626 87.8839 33.0407 87.8334 32.9137 87.8334Z" fill="#111111"/>
<path d="M29.125 83.3611H27.8473C27.7202 83.3611 27.5983 83.3106 27.5084 83.2208C27.4186 83.1309 27.3681 83.009 27.3681 82.882C27.3681 82.7549 27.4186 82.633 27.5084 82.5431C27.5983 82.4533 27.7202 82.4028 27.8473 82.4028H29.125C29.2521 82.4028 29.374 82.4533 29.4639 82.5431C29.5537 82.633 29.6042 82.7549 29.6042 82.882C29.6042 83.009 29.5537 83.1309 29.4639 83.2208C29.374 83.3106 29.2521 83.3611 29.125 83.3611Z" fill="#111111"/>
<path d="M34.5556 83.3611H36.1528C36.2799 83.3611 36.4018 83.3106 36.4916 83.2208C36.5815 83.1309 36.632 83.009 36.632 82.882C36.632 82.7549 36.5815 82.633 36.4916 82.5431C36.4018 82.4533 36.2799 82.4028 36.1528 82.4028H34.5556C34.4285 82.4028 34.3066 82.4533 34.2168 82.5431C34.1269 82.633 34.0764 82.7549 34.0764 82.882C34.0764 83.009 34.1269 83.1309 34.2168 83.2208C34.3066 83.3106 34.4285 83.3611 34.5556 83.3611Z" fill="#111111"/>
<path d="M32.6389 84.6389H36.1528C36.2799 84.6389 36.4018 84.6894 36.4916 84.7792C36.5815 84.8691 36.632 84.991 36.632 85.1181C36.632 85.2451 36.5815 85.367 36.4916 85.4569C36.4018 85.5467 36.2799 85.5972 36.1528 85.5972H32.6389C32.5118 85.5972 32.39 85.5467 32.3001 85.4569C32.2102 85.367 32.1598 85.2451 32.1598 85.1181C32.1598 84.991 32.2102 84.8691 32.3001 84.7792C32.39 84.6894 32.5118 84.6389 32.6389 84.6389Z" fill="#111111"/>
</g>
</g>
<g id="Size=20px, Filled=true" clip-path="url(#clip6_2166_842)">
<g id="Vector_10">
<path d="M53.2152 78.2819C53.427 78.2819 53.6302 78.1978 53.7799 78.048C53.9297 77.8983 54.0138 77.6951 54.0138 77.4833V76.2215C54.0129 76.1727 54.0293 76.1252 54.0599 76.0872C54.0906 76.0492 54.1337 76.0233 54.1816 76.0139H55.4833C55.6951 76.0139 55.8982 75.9297 56.048 75.78C56.1978 75.6302 56.2819 75.4271 56.2819 75.2153C56.2819 75.0035 56.1978 74.8003 56.048 74.6506C55.8982 74.5008 55.6951 74.4167 55.4833 74.4167H54.0138C53.5902 74.4167 53.184 74.5849 52.8844 74.8845C52.5849 75.184 52.4166 75.5903 52.4166 76.0139V77.4833C52.4166 77.6951 52.5008 77.8983 52.6505 78.048C52.8003 78.1978 53.0034 78.2819 53.2152 78.2819Z" fill="#111111"/>
<path d="M55.4833 91.986H54.2215C54.1727 91.9869 54.1251 91.9706 54.0872 91.94C54.0492 91.9093 54.0232 91.8662 54.0138 91.8183V90.5166C54.0138 90.3048 53.9297 90.1017 53.7799 89.9519C53.6302 89.8021 53.427 89.718 53.2152 89.718C53.0034 89.718 52.8003 89.8021 52.6505 89.9519C52.5008 90.1017 52.4166 90.3048 52.4166 90.5166V91.986C52.4166 92.4096 52.5849 92.8159 52.8844 93.1154C53.184 93.415 53.5902 93.5833 54.0138 93.5833H55.4833C55.6951 93.5833 55.8982 93.4991 56.048 93.3493C56.1978 93.1996 56.2819 92.9964 56.2819 92.7846C56.2819 92.5728 56.1978 92.3697 56.048 92.2199C55.8982 92.0702 55.6951 91.986 55.4833 91.986Z" fill="#111111"/>
<path d="M68.5168 74.4167H69.9862C70.4098 74.4167 70.8161 74.5849 71.1156 74.8845C71.4151 75.184 71.5834 75.5903 71.5834 76.0139V77.4833C71.5834 77.6951 71.4993 77.8983 71.3495 78.048C71.1997 78.1978 70.9966 78.2819 70.7848 78.2819C70.573 78.2819 70.3699 78.1978 70.2201 78.048C70.0703 77.8983 69.9862 77.6951 69.9862 77.4833V76.2135C69.9841 76.1599 69.9613 76.1091 69.9226 76.0718C69.8839 76.0346 69.8323 76.0138 69.7786 76.0139H68.5168C68.3049 76.0139 68.1018 75.9297 67.952 75.78C67.8023 75.6302 67.7181 75.4271 67.7181 75.2153C67.7181 75.0035 67.8023 74.8003 67.952 74.6506C68.1018 74.5008 68.3049 74.4167 68.5168 74.4167Z" fill="#111111"/>
<path d="M70.7848 89.718C70.573 89.718 70.3699 89.8021 70.2201 89.9519C70.0703 90.1017 69.9862 90.3048 69.9862 90.5166V91.7784C69.9862 91.8321 69.9655 91.8837 69.9282 91.9225C69.891 91.9612 69.8402 91.984 69.7865 91.986H68.5168C68.3049 91.986 68.1018 92.0702 67.952 92.2199C67.8023 92.3697 67.7181 92.5728 67.7181 92.7846C67.7181 92.9964 67.8023 93.1996 67.952 93.3493C68.1018 93.4991 68.3049 93.5833 68.5168 93.5833H69.9862C70.4098 93.5833 70.8161 93.415 71.1156 93.1154C71.4151 92.8159 71.5834 92.4096 71.5834 91.986V90.5166C71.5834 90.3048 71.4993 90.1017 71.3495 89.9519C71.1997 89.8021 70.9966 89.718 70.7848 89.718Z" fill="#111111"/>
<path d="M58.8055 78.0104H56.809C56.4097 78.0104 56.4097 78.4097 56.4097 78.4097V80.4062C56.4097 80.8055 56.809 80.8055 56.809 80.8055H58.8055C59.2048 80.8055 59.2048 80.4062 59.2048 80.4062V78.4097C59.2048 78.0104 58.8055 78.0104 58.8055 78.0104Z" fill="#111111"/>
<path d="M65.1944 78.0104H67.1909C67.1909 78.0104 67.5902 78.0104 67.5902 78.4097V80.4062C67.5902 80.4062 67.5902 80.8055 67.1909 80.8055H65.1944C65.1944 80.8055 64.7951 80.8055 64.7951 80.4062V78.4097C64.7951 78.4097 64.7951 78.0104 65.1944 78.0104Z" fill="#111111"/>
<path d="M67.1909 87.1944H65.1944C64.7951 87.1944 64.7951 87.5937 64.7951 87.5937V89.5903C64.7951 89.9896 65.1944 89.9896 65.1944 89.9896H67.1909C67.5902 89.9896 67.5902 89.5903 67.5902 89.5903V87.5937C67.5902 87.1944 67.1909 87.1944 67.1909 87.1944Z" fill="#111111"/>
<path d="M56.809 87.1944H58.8055C58.8055 87.1944 59.2048 87.1944 59.2048 87.5937V89.5903C59.2048 89.5903 59.2048 89.9896 58.8055 89.9896H56.809C56.809 89.9896 56.4097 89.9896 56.4097 89.5903V87.5937C56.4097 87.5937 56.4097 87.1944 56.809 87.1944Z" fill="#111111"/>
<path d="M61.2233 80.8355C61.1114 80.9473 60.9603 81.0111 60.802 81.0132C60.6438 81.0111 60.4927 80.9473 60.3808 80.8355C60.2689 80.7236 60.2052 80.5724 60.2031 80.4142V78.6094C60.2052 78.4512 60.2689 78.3 60.3808 78.1881C60.4927 78.0762 60.6438 78.0125 60.802 78.0104H63.142C63.3008 78.0104 63.4532 78.0735 63.5655 78.1858C63.6778 78.2982 63.7409 78.4505 63.7409 78.6094C63.7409 78.7682 63.6778 78.9206 63.5655 79.0329C63.4532 79.1452 63.3008 79.2083 63.142 79.2083H61.6007C61.5477 79.2083 61.4969 79.2294 61.4595 79.2668C61.422 79.3042 61.401 79.355 61.401 79.408V80.4142C61.3989 80.5724 61.3352 80.7236 61.2233 80.8355Z" fill="#111111"/>
<path d="M63.1979 80.1108C63.0397 80.1128 62.8885 80.1766 62.7766 80.2885C62.6648 80.4004 62.601 80.5515 62.5989 80.7097V83.3851C62.5989 83.5439 62.662 83.6963 62.7743 83.8086C62.8867 83.9209 63.039 83.984 63.1979 83.984C63.3567 83.984 63.5091 83.9209 63.6214 83.8086C63.7337 83.6963 63.7968 83.5439 63.7968 83.3851V80.7097C63.7948 80.5515 63.731 80.4004 63.6191 80.2885C63.5072 80.1766 63.3561 80.1128 63.1979 80.1108Z" fill="#111111"/>
<path d="M61.2233 85.8189C61.1114 85.9308 60.9603 85.9945 60.802 85.9966H56.809C56.6501 85.9966 56.4978 85.9335 56.3855 85.8212C56.2731 85.7088 56.21 85.5565 56.21 85.3976C56.21 85.2388 56.2731 85.0864 56.3855 84.9741C56.4978 84.8618 56.6501 84.7987 56.809 84.7987H60.0034C60.0564 84.7987 60.1072 84.7776 60.1446 84.7402C60.182 84.7028 60.2031 84.652 60.2031 84.599V83.473C60.2031 83.3141 60.2662 83.1618 60.3785 83.0494C60.4908 82.9371 60.6432 82.874 60.802 82.874C60.9609 82.874 61.1132 82.9371 61.2256 83.0494C61.3379 83.1618 61.401 83.3141 61.401 83.473V85.3976C61.3989 85.5558 61.3352 85.707 61.2233 85.8189Z" fill="#111111"/>
<path d="M63.142 88.7917H61.6007C61.5477 88.7917 61.4969 88.7707 61.4595 88.7333C61.422 88.6958 61.401 88.645 61.401 88.5921V87.466C61.401 87.3072 61.3379 87.1548 61.2256 87.0425C61.1132 86.9302 60.9609 86.8671 60.802 86.8671C60.6432 86.8671 60.4908 86.9302 60.3785 87.0425C60.2662 87.1548 60.2031 87.3072 60.2031 87.466V89.3907C60.2052 89.5489 60.2689 89.7 60.3808 89.8119C60.4927 89.9238 60.6438 89.9876 60.802 89.9896H63.142C63.3008 89.9896 63.4532 89.9265 63.5655 89.8142C63.6778 89.7019 63.7409 89.5495 63.7409 89.3907C63.7409 89.2318 63.6778 89.0795 63.5655 88.9672C63.4532 88.8548 63.3008 88.7917 63.142 88.7917Z" fill="#111111"/>
<path d="M58.4062 83.2014H56.809C56.6501 83.2014 56.4978 83.1383 56.3855 83.0259C56.2731 82.9136 56.21 82.7613 56.21 82.6024C56.21 82.4436 56.2731 82.2912 56.3855 82.1789C56.4978 82.0666 56.6501 82.0035 56.809 82.0035H58.4062C58.5651 82.0035 58.7174 82.0666 58.8297 82.1789C58.9421 82.2912 59.0052 82.4436 59.0052 82.6024C59.0052 82.7613 58.9421 82.9136 58.8297 83.0259C58.7174 83.1383 58.5651 83.2014 58.4062 83.2014Z" fill="#111111"/>
<path d="M65.1944 83.2014H67.1909C67.3498 83.2014 67.5021 83.1383 67.6145 83.0259C67.7268 82.9136 67.7899 82.7613 67.7899 82.6024C67.7899 82.4436 67.7268 82.2912 67.6145 82.1789C67.5021 82.0666 67.3498 82.0035 67.1909 82.0035H65.1944C65.0356 82.0035 64.8832 82.0666 64.7709 82.1789C64.6585 82.2912 64.5954 82.4436 64.5954 82.6024C64.5954 82.7613 64.6585 82.9136 64.7709 83.0259C64.8832 83.1383 65.0356 83.2014 65.1944 83.2014Z" fill="#111111"/>
<path d="M62.7986 84.7986H67.1909C67.3498 84.7986 67.5021 84.8617 67.6145 84.974C67.7268 85.0864 67.7899 85.2387 67.7899 85.3976C67.7899 85.5564 67.7268 85.7088 67.6145 85.8211C67.5021 85.9334 67.3498 85.9965 67.1909 85.9965H62.7986C62.6397 85.9965 62.4874 85.9334 62.375 85.8211C62.2627 85.7088 62.1996 85.5564 62.1996 85.3976C62.1996 85.2387 62.2627 85.0864 62.375 84.974C62.4874 84.8617 62.6397 84.7986 62.7986 84.7986Z" fill="#111111"/>
</g>
</g>
<g id="Size=24px, Filled=true" clip-path="url(#clip7_2166_842)">
<g id="Vector_11">
<path d="M85.4583 77.1383C85.7125 77.1383 85.9563 77.0374 86.136 76.8576C86.3157 76.6779 86.4167 76.4342 86.4167 76.18V74.6658C86.4156 74.6073 86.4351 74.5502 86.472 74.5046C86.5088 74.4591 86.5604 74.4279 86.6179 74.4167H88.18C88.4342 74.4167 88.6779 74.3157 88.8576 74.136C89.0374 73.9563 89.1383 73.7125 89.1383 73.4583C89.1383 73.2042 89.0374 72.9604 88.8576 72.7807C88.6779 72.601 88.4342 72.5 88.18 72.5H86.4167C85.9083 72.5 85.4208 72.7019 85.0614 73.0614C84.7019 73.4208 84.5 73.9083 84.5 74.4167V76.18C84.5 76.4342 84.601 76.6779 84.7807 76.8576C84.9604 77.0374 85.2042 77.1383 85.4583 77.1383Z" fill="#111111"/>
<path d="M88.18 93.5832H86.6658C86.6073 93.5843 86.5502 93.5648 86.5046 93.528C86.4591 93.4912 86.4279 93.4395 86.4167 93.382V91.8199C86.4167 91.5658 86.3157 91.322 86.136 91.1423C85.9563 90.9625 85.7125 90.8616 85.4583 90.8616C85.2042 90.8616 84.9604 90.9625 84.7807 91.1423C84.601 91.322 84.5 91.5658 84.5 91.8199V93.5832C84.5 94.0916 84.7019 94.5791 85.0614 94.9385C85.4208 95.298 85.9083 95.4999 86.4167 95.4999H88.18C88.4342 95.4999 88.6779 95.3989 88.8576 95.2192C89.0374 95.0395 89.1383 94.7957 89.1383 94.5416C89.1383 94.2874 89.0374 94.0437 88.8576 93.8639C88.6779 93.6842 88.4342 93.5832 88.18 93.5832Z" fill="#111111"/>
<path d="M103.82 72.5H105.583C106.092 72.5 106.579 72.7019 106.939 73.0614C107.298 73.4208 107.5 73.9083 107.5 74.4167V76.18C107.5 76.4342 107.399 76.6779 107.219 76.8576C107.04 77.0374 106.796 77.1383 106.542 77.1383C106.288 77.1383 106.044 77.0374 105.864 76.8576C105.684 76.6779 105.583 76.4342 105.583 76.18V74.6562C105.581 74.5918 105.554 74.5309 105.507 74.4862C105.461 74.4416 105.399 74.4166 105.334 74.4167H103.82C103.566 74.4167 103.322 74.3157 103.143 74.136C102.963 73.9563 102.862 73.7125 102.862 73.4583C102.862 73.2042 102.963 72.9604 103.143 72.7807C103.322 72.601 103.566 72.5 103.82 72.5Z" fill="#111111"/>
<path d="M106.542 90.8616C106.288 90.8616 106.044 90.9625 105.864 91.1423C105.684 91.322 105.583 91.5658 105.583 91.8199V93.3341C105.584 93.3985 105.559 93.4605 105.514 93.507C105.469 93.5534 105.408 93.5808 105.344 93.5832H103.82C103.566 93.5832 103.322 93.6842 103.143 93.8639C102.963 94.0437 102.862 94.2874 102.862 94.5416C102.862 94.7957 102.963 95.0395 103.143 95.2192C103.322 95.3989 103.566 95.4999 103.82 95.4999H105.583C106.092 95.4999 106.579 95.298 106.939 94.9385C107.298 94.5791 107.5 94.0916 107.5 93.5832V91.8199C107.5 91.5658 107.399 91.322 107.219 91.1423C107.04 90.9625 106.796 90.8616 106.542 90.8616Z" fill="#111111"/>
<path d="M92.1667 76.8125H89.7708C89.2917 76.8125 89.2917 77.2917 89.2917 77.2917V79.6875C89.2917 80.1667 89.7708 80.1667 89.7708 80.1667H92.1667C92.6458 80.1667 92.6458 79.6875 92.6458 79.6875V77.2917C92.6458 76.8125 92.1667 76.8125 92.1667 76.8125Z" fill="#111111"/>
<path d="M99.8333 76.8125H102.229C102.229 76.8125 102.708 76.8125 102.708 77.2917V79.6875C102.708 79.6875 102.708 80.1667 102.229 80.1667H99.8333C99.8333 80.1667 99.3542 80.1667 99.3542 79.6875V77.2917C99.3542 77.2917 99.3542 76.8125 99.8333 76.8125Z" fill="#111111"/>
<path d="M102.229 87.8333H99.8333C99.3542 87.8333 99.3542 88.3125 99.3542 88.3125V90.7083C99.3542 91.1875 99.8333 91.1875 99.8333 91.1875H102.229C102.708 91.1875 102.708 90.7083 102.708 90.7083V88.3125C102.708 87.8333 102.229 87.8333 102.229 87.8333Z" fill="#111111"/>
<path d="M89.7708 87.8333H92.1667C92.1667 87.8333 92.6458 87.8333 92.6458 88.3125V90.7083C92.6458 90.7083 92.6458 91.1875 92.1667 91.1875H89.7708C89.7708 91.1875 89.2917 91.1875 89.2917 90.7083V88.3125C89.2917 88.3125 89.2917 87.8333 89.7708 87.8333Z" fill="#111111"/>
<path d="M95.068 80.2026C94.9337 80.3368 94.7524 80.4134 94.5625 80.4158C94.3726 80.4134 94.1913 80.3368 94.057 80.2026C93.9228 80.0683 93.8462 79.8869 93.8438 79.6971V77.5312C93.8462 77.3414 93.9228 77.16 94.057 77.0258C94.1913 76.8915 94.3726 76.815 94.5625 76.8125H97.3704C97.561 76.8125 97.7439 76.8882 97.8786 77.023C98.0134 77.1578 98.0892 77.3406 98.0892 77.5312C98.0892 77.7219 98.0134 77.9047 97.8786 78.0395C97.7439 78.1743 97.561 78.25 97.3704 78.25H95.5208C95.4573 78.25 95.3964 78.2752 95.3514 78.3202C95.3065 78.3651 95.2812 78.426 95.2812 78.4896V79.6971C95.2788 79.8869 95.2022 80.0683 95.068 80.2026Z" fill="#111111"/>
<path d="M97.4375 79.3329C97.2476 79.3354 97.0663 79.4119 96.932 79.5462C96.7978 79.6804 96.7212 79.8618 96.7188 80.0517V83.2621C96.7188 83.4527 96.7945 83.6355 96.9293 83.7703C97.0641 83.9051 97.2469 83.9808 97.4375 83.9808C97.6281 83.9808 97.8109 83.9051 97.9457 83.7703C98.0805 83.6355 98.1562 83.4527 98.1562 83.2621V80.0517C98.1538 79.8618 98.0772 79.6804 97.943 79.5462C97.8087 79.4119 97.6274 79.3354 97.4375 79.3329Z" fill="#111111"/>
<path d="M95.068 86.1827C94.9337 86.3169 94.7524 86.3934 94.5625 86.3959H89.7708C89.5802 86.3959 89.3974 86.3202 89.2626 86.1854C89.1278 86.0506 89.0521 85.8678 89.0521 85.6772C89.0521 85.4865 89.1278 85.3037 89.2626 85.1689C89.3974 85.0341 89.5802 84.9584 89.7708 84.9584H93.6042C93.6677 84.9584 93.7286 84.9332 93.7736 84.8882C93.8185 84.8433 93.8438 84.7824 93.8438 84.7188V83.3676C93.8438 83.177 93.9195 82.9941 94.0543 82.8594C94.1891 82.7246 94.3719 82.6488 94.5625 82.6488C94.7531 82.6488 94.9359 82.7246 95.0707 82.8594C95.2055 82.9941 95.2812 83.177 95.2812 83.3676V85.6772C95.2788 85.867 95.2022 86.0484 95.068 86.1827Z" fill="#111111"/>
<path d="M97.3704 89.7501H95.5208C95.4573 89.7501 95.3964 89.7248 95.3514 89.6799C95.3065 89.635 95.2812 89.574 95.2812 89.5105V88.1593C95.2812 87.9686 95.2055 87.7858 95.0707 87.651C94.9359 87.5162 94.7531 87.4405 94.5625 87.4405C94.3719 87.4405 94.1891 87.5162 94.0543 87.651C93.9195 87.7858 93.8438 87.9686 93.8438 88.1593V90.4688C93.8462 90.6587 93.9228 90.8401 94.057 90.9743C94.1913 91.1086 94.3726 91.1851 94.5625 91.1876H97.3704C97.561 91.1876 97.7439 91.1119 97.8786 90.9771C98.0134 90.8423 98.0892 90.6595 98.0892 90.4688C98.0892 90.2782 98.0134 90.0954 97.8786 89.9606C97.7439 89.8258 97.561 89.7501 97.3704 89.7501Z" fill="#111111"/>
<path d="M91.6875 83.0417H89.7708C89.5802 83.0417 89.3974 82.9659 89.2626 82.8312C89.1278 82.6964 89.0521 82.5135 89.0521 82.3229C89.0521 82.1323 89.1278 81.9495 89.2626 81.8147C89.3974 81.6799 89.5802 81.6042 89.7708 81.6042H91.6875C91.8781 81.6042 92.0609 81.6799 92.1957 81.8147C92.3305 81.9495 92.4063 82.1323 92.4063 82.3229C92.4063 82.5135 92.3305 82.6964 92.1957 82.8312C92.0609 82.9659 91.8781 83.0417 91.6875 83.0417Z" fill="#111111"/>
<path d="M99.8333 83.0417H102.229C102.42 83.0417 102.603 82.9659 102.737 82.8312C102.872 82.6964 102.948 82.5135 102.948 82.3229C102.948 82.1323 102.872 81.9495 102.737 81.8147C102.603 81.6799 102.42 81.6042 102.229 81.6042H99.8333C99.6427 81.6042 99.4599 81.6799 99.3251 81.8147C99.1903 81.9495 99.1146 82.1323 99.1146 82.3229C99.1146 82.5135 99.1903 82.6964 99.3251 82.8312C99.4599 82.9659 99.6427 83.0417 99.8333 83.0417Z" fill="#111111"/>
<path d="M96.9583 84.9583H102.229C102.42 84.9583 102.603 85.0341 102.737 85.1688C102.872 85.3036 102.948 85.4865 102.948 85.6771C102.948 85.8677 102.872 86.0505 102.737 86.1853C102.603 86.3201 102.42 86.3958 102.229 86.3958H96.9583C96.7677 86.3958 96.5849 86.3201 96.4501 86.1853C96.3153 86.0505 96.2396 85.8677 96.2396 85.6771C96.2396 85.4865 96.3153 85.3036 96.4501 85.1688C96.5849 85.0341 96.7677 84.9583 96.9583 84.9583Z" fill="#111111"/>
</g>
</g>
<g id="Size=32px, Filled=true" clip-path="url(#clip8_2166_842)">
<g id="Vector_12">
<path d="M121.944 74.8511C122.283 74.8511 122.608 74.7165 122.848 74.4768C123.088 74.2372 123.222 73.9122 123.222 73.5733V71.5544C123.221 71.4764 123.247 71.4003 123.296 71.3395C123.345 71.2787 123.414 71.2372 123.491 71.2222H125.573C125.912 71.2222 126.237 71.0876 126.477 70.848C126.716 70.6083 126.851 70.2833 126.851 69.9444C126.851 69.6055 126.716 69.2805 126.477 69.0409C126.237 68.8013 125.912 68.6667 125.573 68.6667H123.222C122.544 68.6667 121.894 68.9359 121.415 69.4152C120.936 69.8944 120.667 70.5444 120.667 71.2222V73.5733C120.667 73.9122 120.801 74.2372 121.041 74.4768C121.281 74.7165 121.606 74.8511 121.944 74.8511Z" fill="#111111"/>
<path d="M125.573 96.7777H123.554C123.476 96.7791 123.4 96.753 123.339 96.7039C123.279 96.6549 123.237 96.586 123.222 96.5093V94.4265C123.222 94.0877 123.088 93.7626 122.848 93.523C122.608 93.2834 122.283 93.1488 121.944 93.1488C121.606 93.1488 121.281 93.2834 121.041 93.523C120.801 93.7626 120.667 94.0877 120.667 94.4265V96.7777C120.667 97.4554 120.936 98.1054 121.415 98.5847C121.894 99.064 122.544 99.3332 123.222 99.3332H125.573C125.912 99.3332 126.237 99.1986 126.477 98.959C126.716 98.7193 126.851 98.3943 126.851 98.0554C126.851 97.7165 126.716 97.3915 126.477 97.1519C126.237 96.9123 125.912 96.7777 125.573 96.7777Z" fill="#111111"/>
<path d="M146.427 68.6667H148.778C149.456 68.6667 150.106 68.9359 150.585 69.4152C151.064 69.8944 151.333 70.5444 151.333 71.2222V73.5733C151.333 73.9122 151.199 74.2372 150.959 74.4768C150.72 74.7165 150.395 74.8511 150.056 74.8511C149.717 74.8511 149.392 74.7165 149.152 74.4768C148.913 74.2372 148.778 73.9122 148.778 73.5733V71.5417C148.775 71.4558 148.738 71.3745 148.676 71.315C148.614 71.2554 148.532 71.2221 148.446 71.2222H146.427C146.088 71.2222 145.763 71.0876 145.523 70.848C145.284 70.6083 145.149 70.2833 145.149 69.9444C145.149 69.6055 145.284 69.2805 145.523 69.0409C145.763 68.8013 146.088 68.6667 146.427 68.6667Z" fill="#111111"/>
<path d="M150.056 93.1488C149.717 93.1488 149.392 93.2834 149.152 93.523C148.913 93.7626 148.778 94.0877 148.778 94.4265V96.4454C148.778 96.5314 148.745 96.614 148.685 96.6759C148.626 96.7379 148.544 96.7743 148.458 96.7777H146.427C146.088 96.7777 145.763 96.9123 145.523 97.1519C145.284 97.3915 145.149 97.7165 145.149 98.0554C145.149 98.3943 145.284 98.7193 145.523 98.959C145.763 99.1986 146.088 99.3332 146.427 99.3332H148.778C149.456 99.3332 150.106 99.064 150.585 98.5847C151.064 98.1054 151.333 97.4554 151.333 96.7777V94.4265C151.333 94.0877 151.199 93.7626 150.959 93.523C150.72 93.2834 150.395 93.1488 150.056 93.1488Z" fill="#111111"/>
<path d="M130.889 74.4167H127.694C127.056 74.4167 127.056 75.0555 127.056 75.0555V78.25C127.056 78.8889 127.694 78.8889 127.694 78.8889H130.889C131.528 78.8889 131.528 78.25 131.528 78.25V75.0555C131.528 74.4167 130.889 74.4167 130.889 74.4167Z" fill="#111111"/>
<path d="M141.111 74.4167H144.306C144.306 74.4167 144.944 74.4167 144.944 75.0555V78.25C144.944 78.25 144.944 78.8889 144.306 78.8889H141.111C141.111 78.8889 140.472 78.8889 140.472 78.25V75.0555C140.472 75.0555 140.472 74.4167 141.111 74.4167Z" fill="#111111"/>
<path d="M144.306 89.1111H141.111C140.472 89.1111 140.472 89.75 140.472 89.75V92.9444C140.472 93.5833 141.111 93.5833 141.111 93.5833H144.306C144.944 93.5833 144.944 92.9444 144.944 92.9444V89.75C144.944 89.1111 144.306 89.1111 144.306 89.1111Z" fill="#111111"/>
<path d="M127.694 89.1111H130.889C130.889 89.1111 131.528 89.1111 131.528 89.75V92.9444C131.528 92.9444 131.528 93.5833 130.889 93.5833H127.694C127.694 93.5833 127.056 93.5833 127.056 92.9444V89.75C127.056 89.75 127.056 89.1111 127.694 89.1111Z" fill="#111111"/>
<path d="M134.757 78.9368C134.578 79.1158 134.336 79.2178 134.083 79.2211C133.83 79.2178 133.588 79.1158 133.409 78.9368C133.23 78.7577 133.128 78.5159 133.125 78.2628V75.375C133.128 75.1219 133.23 74.88 133.409 74.701C133.588 74.522 133.83 74.42 134.083 74.4167H137.827C138.081 74.4167 138.325 74.5176 138.505 74.6973C138.685 74.8771 138.786 75.1208 138.786 75.375C138.786 75.6292 138.685 75.8729 138.505 76.0526C138.325 76.2324 138.081 76.3333 137.827 76.3333H135.361C135.276 76.3333 135.195 76.367 135.135 76.4269C135.075 76.4868 135.042 76.568 135.042 76.6528V78.2628C135.038 78.5159 134.936 78.7577 134.757 78.9368Z" fill="#111111"/>
<path d="M137.917 77.7772C137.663 77.7805 137.422 77.8826 137.243 78.0616C137.064 78.2406 136.962 78.4824 136.958 78.7356V83.0161C136.958 83.2703 137.059 83.514 137.239 83.6938C137.419 83.8735 137.662 83.9744 137.917 83.9744C138.171 83.9744 138.415 83.8735 138.594 83.6938C138.774 83.514 138.875 83.2703 138.875 83.0161V78.7356C138.872 78.4824 138.77 78.2406 138.591 78.0616C138.412 77.8826 138.17 77.7805 137.917 77.7772Z" fill="#111111"/>
<path d="M134.757 86.9102C134.578 87.0892 134.336 87.1912 134.083 87.1945H127.694C127.44 87.1945 127.196 87.0936 127.017 86.9139C126.837 86.7341 126.736 86.4904 126.736 86.2362C126.736 85.982 126.837 85.7383 127.017 85.5586C127.196 85.3788 127.44 85.2779 127.694 85.2779H132.806C132.89 85.2779 132.971 85.2442 133.031 85.1843C133.091 85.1244 133.125 85.0432 133.125 84.9584V83.1568C133.125 82.9026 133.226 82.6588 133.406 82.4791C133.585 82.2994 133.829 82.1984 134.083 82.1984C134.337 82.1984 134.581 82.2994 134.761 82.4791C134.941 82.6588 135.042 82.9026 135.042 83.1568V86.2362C135.038 86.4893 134.936 86.7312 134.757 86.9102Z" fill="#111111"/>
<path d="M137.827 91.6668H135.361C135.276 91.6668 135.195 91.6331 135.135 91.5732C135.075 91.5133 135.042 91.432 135.042 91.3473V89.5457C135.042 89.2915 134.941 89.0477 134.761 88.868C134.581 88.6883 134.337 88.5873 134.083 88.5873C133.829 88.5873 133.585 88.6883 133.406 88.868C133.226 89.0477 133.125 89.2915 133.125 89.5457V92.6251C133.128 92.8782 133.23 93.1201 133.409 93.2991C133.588 93.4781 133.83 93.5801 134.083 93.5834H137.827C138.081 93.5834 138.325 93.4825 138.505 93.3027C138.685 93.123 138.786 92.8793 138.786 92.6251C138.786 92.3709 138.685 92.1272 138.505 91.9475C138.325 91.7677 138.081 91.6668 137.827 91.6668Z" fill="#111111"/>
<path d="M130.25 82.7222H127.694C127.44 82.7222 127.196 82.6212 127.017 82.4415C126.837 82.2618 126.736 82.018 126.736 81.7639C126.736 81.5097 126.837 81.266 127.017 81.0862C127.196 80.9065 127.44 80.8055 127.694 80.8055H130.25C130.504 80.8055 130.748 80.9065 130.928 81.0862C131.107 81.266 131.208 81.5097 131.208 81.7639C131.208 82.018 131.107 82.2618 130.928 82.4415C130.748 82.6212 130.504 82.7222 130.25 82.7222Z" fill="#111111"/>
<path d="M141.111 82.7222H144.306C144.56 82.7222 144.803 82.6212 144.983 82.4415C145.163 82.2618 145.264 82.018 145.264 81.7639C145.264 81.5097 145.163 81.266 144.983 81.0862C144.803 80.9065 144.56 80.8055 144.306 80.8055H141.111C140.857 80.8055 140.613 80.9065 140.433 81.0862C140.254 81.266 140.153 81.5097 140.153 81.7639C140.153 82.018 140.254 82.2618 140.433 82.4415C140.613 82.6212 140.857 82.7222 141.111 82.7222Z" fill="#111111"/>
<path d="M137.278 85.2778H144.306C144.56 85.2778 144.803 85.3787 144.983 85.5585C145.163 85.7382 145.264 85.9819 145.264 86.2361C145.264 86.4903 145.163 86.734 144.983 86.9137C144.803 87.0935 144.56 87.1944 144.306 87.1944H137.278C137.024 87.1944 136.78 87.0935 136.6 86.9137C136.42 86.734 136.319 86.4903 136.319 86.2361C136.319 85.9819 136.42 85.7382 136.6 85.5585C136.78 85.3787 137.024 85.2778 137.278 85.2778Z" fill="#111111"/>
</g>
</g>
<g id="Size=40px, Filled=true" clip-path="url(#clip9_2166_842)">
<g id="Vector_13">
<path d="M166.431 72.5639C166.854 72.5639 167.26 72.3956 167.56 72.0961C167.86 71.7965 168.028 71.3903 168.028 70.9667V68.4431C168.026 68.3455 168.059 68.2503 168.12 68.1744C168.181 68.0985 168.267 68.0465 168.363 68.0278H170.967C171.39 68.0278 171.797 67.8595 172.096 67.56C172.396 67.2604 172.564 66.8542 172.564 66.4306C172.564 66.007 172.396 65.6007 172.096 65.3012C171.797 65.0016 171.39 64.8333 170.967 64.8333H168.028C167.181 64.8333 166.368 65.1699 165.769 65.769C165.17 66.368 164.833 67.1806 164.833 68.0278V70.9667C164.833 71.3903 165.002 71.7965 165.301 72.0961C165.601 72.3956 166.007 72.5639 166.431 72.5639Z" fill="#111111"/>
<path d="M170.967 99.9721H168.443C168.345 99.9739 168.25 99.9413 168.174 99.8799C168.098 99.8186 168.047 99.7325 168.028 99.6367V97.0332C168.028 96.6096 167.86 96.2033 167.56 95.9038C167.26 95.6043 166.854 95.436 166.431 95.436C166.007 95.436 165.601 95.6043 165.301 95.9038C165.002 96.2033 164.833 96.6096 164.833 97.0332V99.9721C164.833 100.819 165.17 101.632 165.769 102.231C166.368 102.83 167.181 103.167 168.028 103.167H170.967C171.39 103.167 171.797 102.998 172.096 102.699C172.396 102.399 172.564 101.993 172.564 101.569C172.564 101.146 172.396 100.739 172.096 100.44C171.797 100.14 171.39 99.9721 170.967 99.9721Z" fill="#111111"/>
<path d="M197.034 64.8333H199.973C200.82 64.8333 201.632 65.1699 202.231 65.769C202.83 66.368 203.167 67.1806 203.167 68.0278V70.9667C203.167 71.3903 202.999 71.7965 202.699 72.0961C202.4 72.3956 201.993 72.5639 201.57 72.5639C201.146 72.5639 200.74 72.3956 200.44 72.0961C200.141 71.7965 199.973 71.3903 199.973 70.9667V68.4271C199.968 68.3197 199.923 68.2182 199.845 68.1437C199.768 68.0693 199.665 68.0277 199.557 68.0278H197.034C196.61 68.0278 196.204 67.8595 195.904 67.56C195.605 67.2604 195.436 66.8542 195.436 66.4306C195.436 66.007 195.605 65.6007 195.904 65.3012C196.204 65.0016 196.61 64.8333 197.034 64.8333Z" fill="#111111"/>
<path d="M201.57 95.436C201.146 95.436 200.74 95.6043 200.44 95.9038C200.141 96.2033 199.973 96.6096 199.973 97.0332V99.5568C199.973 99.6642 199.931 99.7675 199.857 99.845C199.782 99.9224 199.681 99.968 199.573 99.9721H197.034C196.61 99.9721 196.204 100.14 195.904 100.44C195.605 100.739 195.436 101.146 195.436 101.569C195.436 101.993 195.605 102.399 195.904 102.699C196.204 102.998 196.61 103.167 197.034 103.167H199.973C200.82 103.167 201.632 102.83 202.231 102.231C202.83 101.632 203.167 100.819 203.167 99.9721V97.0332C203.167 96.6096 202.999 96.2033 202.699 95.9038C202.4 95.6043 201.993 95.436 201.57 95.436Z" fill="#111111"/>
<path d="M177.611 72.0208H173.618C172.819 72.0208 172.819 72.8195 172.819 72.8195V76.8125C172.819 77.6111 173.618 77.6111 173.618 77.6111H177.611C178.41 77.6111 178.41 76.8125 178.41 76.8125V72.8195C178.41 72.0208 177.611 72.0208 177.611 72.0208Z" fill="#111111"/>
<path d="M190.389 72.0208H194.382C194.382 72.0208 195.181 72.0208 195.181 72.8195V76.8125C195.181 76.8125 195.181 77.6111 194.382 77.6111H190.389C190.389 77.6111 189.59 77.6111 189.59 76.8125V72.8195C189.59 72.8195 189.59 72.0208 190.389 72.0208Z" fill="#111111"/>
<path d="M194.382 90.3889H190.389C189.59 90.3889 189.59 91.1875 189.59 91.1875V95.1806C189.59 95.9792 190.389 95.9792 190.389 95.9792H194.382C195.181 95.9792 195.181 95.1806 195.181 95.1806V91.1875C195.181 90.3889 194.382 90.3889 194.382 90.3889Z" fill="#111111"/>
<path d="M173.618 90.3889H177.611C177.611 90.3889 178.41 90.3889 178.41 91.1875V95.1806C178.41 95.1806 178.41 95.9792 177.611 95.9792H173.618C173.618 95.9792 172.819 95.9792 172.819 95.1806V91.1875C172.819 91.1875 172.819 90.3889 173.618 90.3889Z" fill="#111111"/>
<path d="M182.447 77.671C182.223 77.8947 181.921 78.0223 181.604 78.0264C181.288 78.0223 180.985 77.8947 180.762 77.671C180.538 77.4472 180.41 77.1449 180.406 76.8285V73.2188C180.41 72.9023 180.538 72.6 180.762 72.3763C180.985 72.1525 181.288 72.025 181.604 72.0208H186.284C186.602 72.0208 186.906 72.1471 187.131 72.3717C187.356 72.5964 187.482 72.9011 187.482 73.2188C187.482 73.5365 187.356 73.8412 187.131 74.0658C186.906 74.2905 186.602 74.4167 186.284 74.4167H183.201C183.096 74.4167 182.994 74.4587 182.919 74.5336C182.844 74.6085 182.802 74.7101 182.802 74.816V76.8285C182.798 77.1449 182.67 77.4472 182.447 77.671Z" fill="#111111"/>
<path d="M186.396 76.2215C186.079 76.2257 185.777 76.3532 185.553 76.577C185.33 76.8007 185.202 77.103 185.198 77.4195V82.7702C185.198 83.0879 185.324 83.3926 185.549 83.6172C185.773 83.8419 186.078 83.9681 186.396 83.9681C186.714 83.9681 187.018 83.8419 187.243 83.6172C187.468 83.3926 187.594 83.0879 187.594 82.7702V77.4195C187.59 77.103 187.462 76.8007 187.238 76.577C187.015 76.3532 186.712 76.2257 186.396 76.2215Z" fill="#111111"/>
<path d="M182.447 87.6378C182.223 87.8615 181.921 87.9891 181.604 87.9932H173.618C173.3 87.9932 172.996 87.867 172.771 87.6423C172.546 87.4177 172.42 87.113 172.42 86.7953C172.42 86.4776 172.546 86.1729 172.771 85.9482C172.996 85.7236 173.3 85.5974 173.618 85.5974H180.007C180.113 85.5974 180.214 85.5553 180.289 85.4804C180.364 85.4055 180.406 85.304 180.406 85.1981V82.946C180.406 82.6283 180.532 82.3236 180.757 82.0989C180.982 81.8743 181.286 81.7481 181.604 81.7481C181.922 81.7481 182.227 81.8743 182.451 82.0989C182.676 82.3236 182.802 82.6283 182.802 82.946V86.7953C182.798 87.1117 182.67 87.414 182.447 87.6378Z" fill="#111111"/>
<path d="M186.284 93.5835H183.201C183.096 93.5835 182.994 93.5414 182.919 93.4665C182.844 93.3916 182.802 93.2901 182.802 93.1842V90.9321C182.802 90.6144 182.676 90.3097 182.451 90.085C182.227 89.8604 181.922 89.7342 181.604 89.7342C181.286 89.7342 180.982 89.8604 180.757 90.085C180.532 90.3097 180.406 90.6144 180.406 90.9321V94.7814C180.41 95.0978 180.538 95.4001 180.762 95.6239C180.985 95.8476 181.288 95.9752 181.604 95.9793H186.284C186.602 95.9793 186.906 95.8531 187.131 95.6285C187.356 95.4038 187.482 95.0991 187.482 94.7814C187.482 94.4637 187.356 94.159 187.131 93.9343C186.906 93.7097 186.602 93.5835 186.284 93.5835Z" fill="#111111"/>
<path d="M176.813 82.4028H173.618C173.3 82.4028 172.996 82.2766 172.771 82.0519C172.546 81.8273 172.42 81.5226 172.42 81.2049C172.42 80.8872 172.546 80.5825 172.771 80.3578C172.996 80.1332 173.3 80.007 173.618 80.007H176.813C177.13 80.007 177.435 80.1332 177.66 80.3578C177.884 80.5825 178.01 80.8872 178.01 81.2049C178.01 81.5226 177.884 81.8273 177.66 82.0519C177.435 82.2766 177.13 82.4028 176.813 82.4028Z" fill="#111111"/>
<path d="M190.389 82.4028H194.382C194.7 82.4028 195.004 82.2766 195.229 82.0519C195.454 81.8273 195.58 81.5226 195.58 81.2049C195.58 80.8872 195.454 80.5825 195.229 80.3578C195.004 80.1332 194.7 80.007 194.382 80.007H190.389C190.071 80.007 189.767 80.1332 189.542 80.3578C189.317 80.5825 189.191 80.8872 189.191 81.2049C189.191 81.5226 189.317 81.8273 189.542 82.0519C189.767 82.2766 190.071 82.4028 190.389 82.4028Z" fill="#111111"/>
<path d="M185.597 85.5972H194.382C194.7 85.5972 195.004 85.7234 195.229 85.9481C195.454 86.1727 195.58 86.4774 195.58 86.7951C195.58 87.1129 195.454 87.4176 195.229 87.6422C195.004 87.8669 194.7 87.9931 194.382 87.9931H185.597C185.28 87.9931 184.975 87.8669 184.75 87.6422C184.526 87.4176 184.399 87.1129 184.399 86.7951C184.399 86.4774 184.526 86.1727 184.75 85.9481C184.975 85.7234 185.28 85.5972 185.597 85.5972Z" fill="#111111"/>
</g>
</g>
<g id="Size=48px, Filled=true">
<g id="Vector_14">
<path d="M218.917 70.2767C219.425 70.2767 219.913 70.0747 220.272 69.7153C220.631 69.3558 220.833 68.8683 220.833 68.36V65.3317C220.831 65.2145 220.87 65.1004 220.944 65.0093C221.018 64.9181 221.121 64.8558 221.236 64.8333H224.36C224.868 64.8333 225.356 64.6314 225.715 64.272C226.075 63.9125 226.277 63.425 226.277 62.9167C226.277 62.4083 226.075 61.9208 225.715 61.5614C225.356 61.2019 224.868 61 224.36 61H220.833C219.817 61 218.842 61.4039 218.123 62.1228C217.404 62.8416 217 63.8167 217 64.8333V68.36C217 68.8683 217.202 69.3558 217.561 69.7153C217.921 70.0747 218.408 70.2767 218.917 70.2767Z" fill="#111111"/>
<path d="M224.36 103.166H221.332C221.215 103.169 221.1 103.13 221.009 103.056C220.918 102.982 220.856 102.879 220.833 102.764V99.6398C220.833 99.1315 220.631 98.644 220.272 98.2845C219.913 97.9251 219.425 97.7232 218.917 97.7232C218.408 97.7232 217.921 97.9251 217.561 98.2845C217.202 98.644 217 99.1315 217 99.6398V103.166C217 104.183 217.404 105.158 218.123 105.877C218.842 106.596 219.817 107 220.833 107H224.36C224.868 107 225.356 106.798 225.715 106.438C226.075 106.079 226.277 105.591 226.277 105.083C226.277 104.575 226.075 104.087 225.715 103.728C225.356 103.368 224.868 103.166 224.36 103.166Z" fill="#111111"/>
<path d="M255.64 61H259.167C260.184 61 261.159 61.4039 261.878 62.1228C262.596 62.8416 263 63.8167 263 64.8333V68.36C263 68.8683 262.798 69.3558 262.439 69.7153C262.079 70.0747 261.592 70.2767 261.084 70.2767C260.575 70.2767 260.088 70.0747 259.728 69.7153C259.369 69.3558 259.167 68.8683 259.167 68.36V65.3125C259.162 65.1837 259.107 65.0618 259.014 64.9725C258.921 64.8831 258.798 64.8332 258.669 64.8333H255.64C255.132 64.8333 254.644 64.6314 254.285 64.272C253.926 63.9125 253.724 63.425 253.724 62.9167C253.724 62.4083 253.926 61.9208 254.285 61.5614C254.644 61.2019 255.132 61 255.64 61Z" fill="#111111"/>
<path d="M261.084 97.7232C260.575 97.7232 260.088 97.9251 259.728 98.2845C259.369 98.644 259.167 99.1315 259.167 99.6398V102.668C259.167 102.797 259.117 102.921 259.028 103.014C258.938 103.107 258.817 103.162 258.688 103.166H255.64C255.132 103.166 254.644 103.368 254.285 103.728C253.926 104.087 253.724 104.575 253.724 105.083C253.724 105.591 253.926 106.079 254.285 106.438C254.644 106.798 255.132 107 255.64 107H259.167C260.184 107 261.159 106.596 261.878 105.877C262.596 105.158 263 104.183 263 103.166V99.6398C263 99.1315 262.798 98.644 262.439 98.2845C262.079 97.9251 261.592 97.7232 261.084 97.7232Z" fill="#111111"/>
<path d="M232.333 69.625H227.542C226.583 69.625 226.583 70.5833 226.583 70.5833V75.375C226.583 76.3333 227.542 76.3333 227.542 76.3333H232.333C233.292 76.3333 233.292 75.375 233.292 75.375V70.5833C233.292 69.625 232.333 69.625 232.333 69.625Z" fill="#111111"/>
<path d="M247.667 69.625H252.458C252.458 69.625 253.417 69.625 253.417 70.5833V75.375C253.417 75.375 253.417 76.3333 252.458 76.3333H247.667C247.667 76.3333 246.708 76.3333 246.708 75.375V70.5833C246.708 70.5833 246.708 69.625 247.667 69.625Z" fill="#111111"/>
<path d="M252.458 91.6667H247.667C246.708 91.6667 246.708 92.625 246.708 92.625V97.4167C246.708 98.375 247.667 98.375 247.667 98.375H252.458C253.417 98.375 253.417 97.4167 253.417 97.4167V92.625C253.417 91.6667 252.458 91.6667 252.458 91.6667Z" fill="#111111"/>
<path d="M227.542 91.6667H232.333C232.333 91.6667 233.292 91.6667 233.292 92.625V97.4167C233.292 97.4167 233.292 98.375 232.333 98.375H227.542C227.542 98.375 226.583 98.375 226.583 97.4167V92.625C226.583 92.625 226.583 91.6667 227.542 91.6667Z" fill="#111111"/>
<path d="M238.136 76.4051C237.867 76.6737 237.505 76.8267 237.125 76.8317C236.745 76.8267 236.383 76.6737 236.114 76.4051C235.846 76.1366 235.692 75.7739 235.688 75.3942V71.0625C235.692 70.6828 235.846 70.32 236.114 70.0515C236.383 69.783 236.745 69.63 237.125 69.625H242.741C243.122 69.625 243.488 69.7765 243.757 70.046C244.027 70.3156 244.178 70.6813 244.178 71.0625C244.178 71.4437 244.027 71.8094 243.757 72.079C243.488 72.3485 243.122 72.5 242.741 72.5H239.042C238.915 72.5 238.793 72.5505 238.703 72.6403C238.613 72.7302 238.562 72.8521 238.562 72.9792V75.3942C238.558 75.7739 238.404 76.1366 238.136 76.4051Z" fill="#111111"/>
<path d="M242.875 74.6658C242.495 74.6708 242.133 74.8239 241.864 75.0924C241.596 75.3609 241.442 75.7236 241.438 76.1033V82.5242C241.438 82.9054 241.589 83.2711 241.859 83.5406C242.128 83.8102 242.494 83.9617 242.875 83.9617C243.256 83.9617 243.622 83.8102 243.891 83.5406C244.161 83.2711 244.312 82.9054 244.312 82.5242V76.1033C244.308 75.7236 244.154 75.3609 243.886 75.0924C243.617 74.8239 243.255 74.6708 242.875 74.6658Z" fill="#111111"/>
<path d="M238.136 88.3653C237.867 88.6338 237.505 88.7869 237.125 88.7918H227.542C227.16 88.7918 226.795 88.6404 226.525 88.3708C226.256 88.1012 226.104 87.7356 226.104 87.3543C226.104 86.9731 226.256 86.6075 226.525 86.3379C226.795 86.0683 227.16 85.9168 227.542 85.9168H235.208C235.335 85.9168 235.457 85.8664 235.547 85.7765C235.637 85.6866 235.688 85.5648 235.688 85.4377V82.7352C235.688 82.3539 235.839 81.9883 236.109 81.7187C236.378 81.4491 236.744 81.2977 237.125 81.2977C237.506 81.2977 237.872 81.4491 238.141 81.7187C238.411 81.9883 238.562 82.3539 238.562 82.7352V87.3543C238.558 87.734 238.404 88.0968 238.136 88.3653Z" fill="#111111"/>
<path d="M242.741 95.5002H239.042C238.915 95.5002 238.793 95.4497 238.703 95.3598C238.613 95.27 238.562 95.1481 238.562 95.021V92.3185C238.562 91.9373 238.411 91.5716 238.141 91.302C237.872 91.0325 237.506 90.881 237.125 90.881C236.744 90.881 236.378 91.0325 236.109 91.302C235.839 91.5716 235.688 91.9373 235.688 92.3185V96.9377C235.692 97.3174 235.846 97.6801 236.114 97.9486C236.383 98.2172 236.745 98.3702 237.125 98.3752H242.741C243.122 98.3752 243.488 98.2237 243.757 97.9541C244.027 97.6846 244.178 97.3189 244.178 96.9377C244.178 96.5564 244.027 96.1908 243.757 95.9212C243.488 95.6516 243.122 95.5002 242.741 95.5002Z" fill="#111111"/>
<path d="M231.375 82.0833H227.542C227.16 82.0833 226.795 81.9319 226.525 81.6623C226.256 81.3927 226.104 81.0271 226.104 80.6458C226.104 80.2646 226.256 79.899 226.525 79.6294C226.795 79.3598 227.16 79.2083 227.542 79.2083H231.375C231.756 79.2083 232.122 79.3598 232.391 79.6294C232.661 79.899 232.813 80.2646 232.813 80.6458C232.813 81.0271 232.661 81.3927 232.391 81.6623C232.122 81.9319 231.756 82.0833 231.375 82.0833Z" fill="#111111"/>
<path d="M247.667 82.0833H252.458C252.84 82.0833 253.205 81.9319 253.475 81.6623C253.744 81.3927 253.896 81.0271 253.896 80.6458C253.896 80.2646 253.744 79.899 253.475 79.6294C253.205 79.3598 252.84 79.2083 252.458 79.2083H247.667C247.285 79.2083 246.92 79.3598 246.65 79.6294C246.381 79.899 246.229 80.2646 246.229 80.6458C246.229 81.0271 246.381 81.3927 246.65 81.6623C246.92 81.9319 247.285 82.0833 247.667 82.0833Z" fill="#111111"/>
<path d="M241.917 85.9167H252.458C252.84 85.9167 253.205 86.0681 253.475 86.3377C253.744 86.6073 253.896 86.9729 253.896 87.3542C253.896 87.7354 253.744 88.101 253.475 88.3706C253.205 88.6402 252.84 88.7917 252.458 88.7917H241.917C241.535 88.7917 241.17 88.6402 240.9 88.3706C240.631 88.101 240.479 87.7354 240.479 87.3542C240.479 86.9729 240.631 86.6073 240.9 86.3377C241.17 86.0681 241.535 85.9167 241.917 85.9167Z" fill="#111111"/>
</g>
</g>
</g>
<defs>
<clipPath id="clip0_2166_842">
<rect width="12" height="12" fill="white" transform="translate(0 18)"/>
</clipPath>
<clipPath id="clip1_2166_842">
<rect width="16" height="16" fill="white" transform="translate(24 16)"/>
</clipPath>
<clipPath id="clip2_2166_842">
<rect width="20" height="20" fill="white" transform="translate(52 14)"/>
</clipPath>
<clipPath id="clip3_2166_842">
<rect width="24" height="24" fill="white" transform="translate(84 12)"/>
</clipPath>
<clipPath id="clip4_2166_842">
<rect width="12" height="12" fill="white" transform="translate(0 78)"/>
</clipPath>
<clipPath id="clip5_2166_842">
<rect width="16" height="16" fill="white" transform="translate(24 76)"/>
</clipPath>
<clipPath id="clip6_2166_842">
<rect width="20" height="20" fill="white" transform="translate(52 74)"/>
</clipPath>
<clipPath id="clip7_2166_842">
<rect width="24" height="24" fill="white" transform="translate(84 72)"/>
</clipPath>
<clipPath id="clip8_2166_842">
<rect width="32" height="32" fill="white" transform="translate(120 68)"/>
</clipPath>
<clipPath id="clip9_2166_842">
<rect width="40" height="40" fill="white" transform="translate(164 64)"/>
</clipPath>
</defs>
</svg>
