<svg width="264" height="108" viewBox="0 0 264 108" fill="none" xmlns="http://www.w3.org/2000/svg">
<g id="Restaurant">
<g clip-path="url(#clip0_7887_212)">
<g id="Size=12px, Filled=false">
<path id="Vector" d="M3.54477 18.75V29.2481M4.94451 18.75V21.8994C4.94221 22.6715 4.31687 23.2969 3.54477 23.2992C2.77266 23.2969 2.14733 22.6715 2.14502 21.8994V18.75M7.74379 25.7506H9.14353C9.33125 25.7578 9.51345 25.6863 9.64629 25.5535C9.77912 25.4207 9.85056 25.2385 9.84341 25.0508C9.76829 23.0407 9.6871 20.9355 8.39094 18.9119C8.30562 18.782 8.14524 18.7232 7.99612 18.7672C7.847 18.8113 7.74432 18.9478 7.74332 19.1032V29.25" stroke="#111111" stroke-width="0.75" stroke-linecap="round" stroke-linejoin="round"/>
</g>
<g id="Size=16px, Filled=false">
<path id="Vector_2" d="M28.7263 17V30.9975M30.5926 17V21.1992C30.5896 22.2287 29.7558 23.0625 28.7263 23.0656C27.6968 23.0625 26.8631 22.2287 26.86 21.1992V17M34.325 26.3342H36.1913C36.4416 26.3437 36.6846 26.2485 36.8617 26.0714C37.0388 25.8942 37.134 25.6513 37.1245 25.401C37.0243 22.721 36.9161 19.914 35.1879 17.2159C35.0741 17.0426 34.8603 16.9642 34.6615 17.0229C34.4626 17.0817 34.3257 17.2637 34.3244 17.471V31" stroke="#111111" stroke-linecap="round" stroke-linejoin="round"/>
</g>
<g id="Size=20px, Filled=false">
<path id="Vector_3" d="M57.9079 15.25V32.7468M60.2408 15.25V20.499C60.2369 21.7859 59.1947 22.8281 57.9079 22.832C56.621 22.8281 55.5788 21.7859 55.575 20.499V15.25M64.9062 26.9177H67.2391C67.552 26.9296 67.8557 26.8106 68.0771 26.5892C68.2985 26.3678 68.4175 26.0641 68.4056 25.7513C68.2804 22.4012 68.1451 18.8925 65.9848 15.5199C65.8426 15.3033 65.5753 15.2053 65.3268 15.2787C65.0783 15.3521 64.9071 15.5796 64.9055 15.8387V32.75" stroke="#111111" stroke-width="1.25" stroke-linecap="round" stroke-linejoin="round"/>
</g>
<g id="Size=24px, Filled=false">
<path id="Vector_4" d="M91.0895 13.5V34.4962M93.889 13.5V19.7989C93.8844 21.3431 92.6337 22.5937 91.0895 22.5984C89.5453 22.5937 88.2947 21.3431 88.29 19.7989V13.5M99.4876 27.5013H102.287C102.663 27.5156 103.027 27.3727 103.293 27.107C103.558 26.8414 103.701 26.477 103.687 26.1015C103.537 22.0815 103.374 17.871 100.782 13.8239C100.611 13.5639 100.29 13.4463 99.9922 13.5344C99.694 13.6225 99.4886 13.8955 99.4866 14.2065V34.5" stroke="#111111" stroke-width="1.5" stroke-linecap="round" stroke-linejoin="round"/>
</g>
<g id="Size=32px, Filled=false">
<path id="Vector_5" d="M129.453 10V37.9949M133.185 10V18.3985C133.179 20.4574 131.512 22.125 129.453 22.1311C127.394 22.125 125.726 20.4574 125.72 18.3985V10M140.65 28.6684H144.383C144.883 28.6874 145.369 28.4969 145.723 28.1427C146.078 27.7885 146.268 27.3026 146.249 26.802C146.049 21.4419 145.832 15.828 142.376 10.4318C142.148 10.0852 141.721 9.92844 141.323 10.0459C140.925 10.1634 140.651 10.5273 140.649 10.942V38" stroke="#111111" stroke-width="2" stroke-linecap="round" stroke-linejoin="round"/>
</g>
<g id="Size=40px, Filled=false">
<path id="Vector_6" d="M175.816 6.5V41.4937M180.482 6.5V16.9981C180.474 19.5718 178.39 21.6562 175.816 21.6639C173.242 21.6562 171.158 19.5718 171.15 16.9981V6.5M189.813 29.8354H194.478C195.104 29.8593 195.711 29.6212 196.154 29.1784C196.597 28.7356 196.835 28.1283 196.811 27.5025C196.561 20.8024 196.29 13.785 191.97 7.0398C191.685 6.60651 191.151 6.41054 190.654 6.55737C190.157 6.7042 189.814 7.15918 189.811 7.67746V41.5" stroke="#111111" stroke-width="2.5" stroke-linecap="round" stroke-linejoin="round"/>
</g>
<g id="Size=48px, Filled=false">
<path id="Vector_7" d="M230.179 3V44.9924M235.778 3V15.5977C235.769 18.6861 233.267 21.1875 230.179 21.1967C227.091 21.1875 224.589 18.6861 224.58 15.5977V3M246.975 31.0025H252.574C253.325 31.0311 254.054 30.7454 254.585 30.2141C255.116 29.6827 255.402 28.9539 255.374 28.203C255.073 20.1629 254.748 11.742 249.564 3.64776C249.222 3.12781 248.581 2.89265 247.984 3.06885C247.388 3.24504 246.977 3.79102 246.973 4.41296V45" stroke="#111111" stroke-width="3" stroke-linecap="round" stroke-linejoin="round"/>
</g>
<g id="Size=12px, Filled=true">
<g id="Vector_8">
<path d="M7.63782 78.375C7.54495 78.3762 7.45624 78.4136 7.39057 78.4793C7.3249 78.545 7.28747 78.6337 7.28625 78.7266V89.1562C7.28625 89.2806 7.33564 89.3998 7.42355 89.4877C7.51146 89.5756 7.63068 89.625 7.755 89.625C7.87932 89.625 7.99855 89.5756 8.08646 89.4877C8.17437 89.3998 8.22375 89.2806 8.22375 89.1562V85.4062C8.22375 85.3441 8.24845 85.2845 8.2924 85.2405C8.33636 85.1966 8.39597 85.1719 8.45813 85.1719H9.27844C9.43384 85.1719 9.58288 85.1101 9.69276 85.0003C9.80265 84.8904 9.86438 84.7413 9.86438 84.5859C9.83626 81.2156 8.73 78.375 7.63782 78.375Z" fill="#111111"/>
<path d="M5.41126 78.375C5.28693 78.375 5.16771 78.4244 5.0798 78.5123C4.99189 78.6002 4.9425 78.7194 4.9425 78.8438V81.1875C4.94272 81.4328 4.8468 81.6684 4.67532 81.8438C4.65643 81.8559 4.63447 81.8623 4.61204 81.8623C4.5896 81.8623 4.56764 81.8559 4.54875 81.8438C4.52654 81.8359 4.50735 81.8213 4.49389 81.8019C4.48043 81.7826 4.47339 81.7595 4.47375 81.7359V78.8438C4.47375 78.7194 4.42437 78.6002 4.33646 78.5123C4.24855 78.4244 4.12933 78.375 4.005 78.375C3.88068 78.375 3.76146 78.4244 3.67355 78.5123C3.58564 78.6002 3.53625 78.7194 3.53625 78.8438V81.7594C3.53662 81.7829 3.52958 81.806 3.51612 81.8254C3.50266 81.8447 3.48347 81.8593 3.46125 81.8672C3.44237 81.8793 3.42041 81.8857 3.39797 81.8857C3.37554 81.8857 3.35358 81.8793 3.33469 81.8672C3.24695 81.7775 3.17809 81.6712 3.13219 81.5544C3.0863 81.4377 3.0643 81.3129 3.0675 81.1875V78.8438C3.0675 78.7194 3.01812 78.6002 2.93021 78.5123C2.8423 78.4244 2.72308 78.375 2.59875 78.375C2.47443 78.375 2.35521 78.4244 2.2673 78.5123C2.17939 78.6002 2.13 78.7194 2.13 78.8438V81.1875C2.13024 81.5753 2.25073 81.9535 2.47488 82.27C2.69903 82.5865 3.0158 82.8257 3.38157 82.9547C3.42687 82.9711 3.46602 83.001 3.4937 83.0404C3.52137 83.0798 3.53623 83.1268 3.53625 83.175V89.1562C3.53625 89.2806 3.58564 89.3998 3.67355 89.4877C3.76146 89.5756 3.88068 89.625 4.005 89.625C4.12933 89.625 4.24855 89.5756 4.33646 89.4877C4.42437 89.3998 4.47375 89.2806 4.47375 89.1562V83.175C4.47378 83.1268 4.48864 83.0798 4.51631 83.0404C4.54399 83.001 4.58314 82.9711 4.62844 82.9547C4.99421 82.8257 5.31098 82.5865 5.53513 82.27C5.75928 81.9535 5.87977 81.5753 5.88 81.1875V78.8438C5.88 78.7194 5.83062 78.6002 5.74271 78.5123C5.6548 78.4244 5.53558 78.375 5.41126 78.375Z" fill="#111111"/>
</g>
</g>
<g id="Size=16px, Filled=true">
<g id="Vector_9">
<path d="M34.1838 76.5C34.06 76.5016 33.9417 76.5515 33.8541 76.6391C33.7666 76.7266 33.7166 76.8449 33.715 76.9688V90.875C33.715 91.0408 33.7809 91.1997 33.8981 91.3169C34.0153 91.4342 34.1743 91.5 34.34 91.5C34.5058 91.5 34.6648 91.4342 34.782 91.3169C34.8992 91.1997 34.965 91.0408 34.965 90.875V85.875C34.965 85.7921 34.998 85.7126 35.0566 85.654C35.1152 85.5954 35.1946 85.5625 35.2775 85.5625H36.3713C36.5785 85.5625 36.7772 85.4802 36.9237 85.3337C37.0702 85.1872 37.1525 84.9885 37.1525 84.7813C37.115 80.2875 35.64 76.5 34.1838 76.5Z" fill="#111111"/>
<path d="M31.215 76.5C31.0493 76.5 30.8903 76.5658 30.7731 76.6831C30.6559 76.8003 30.59 76.9592 30.59 77.125V80.25C30.5903 80.577 30.4624 80.8912 30.2338 81.125C30.2086 81.1412 30.1793 81.1497 30.1494 81.1497C30.1195 81.1497 30.0902 81.1412 30.065 81.125C30.0354 81.1145 30.0098 81.095 29.9919 81.0692C29.9739 81.0434 29.9645 81.0127 29.965 80.9813V77.125C29.965 76.9592 29.8992 76.8003 29.782 76.6831C29.6648 76.5658 29.5058 76.5 29.34 76.5C29.1743 76.5 29.0153 76.5658 28.8981 76.6831C28.7809 76.8003 28.715 76.9592 28.715 77.125V81.0125C28.7155 81.0439 28.7061 81.0747 28.6882 81.1005C28.6702 81.1263 28.6447 81.1458 28.615 81.1562C28.5898 81.1724 28.5606 81.181 28.5307 81.181C28.5007 81.181 28.4715 81.1724 28.4463 81.1562C28.3293 81.0367 28.2375 80.8949 28.1763 80.7392C28.1151 80.5836 28.0858 80.4172 28.09 80.25V77.125C28.09 76.9592 28.0242 76.8003 27.907 76.6831C27.7898 76.5658 27.6308 76.5 27.465 76.5C27.2993 76.5 27.1403 76.5658 27.0231 76.6831C26.9059 76.8003 26.84 76.9592 26.84 77.125V80.25C26.8403 80.7671 27.001 81.2714 27.2999 81.6934C27.5987 82.1154 28.0211 82.4343 28.5088 82.6063C28.5692 82.6281 28.6214 82.668 28.6583 82.7206C28.6952 82.7731 28.715 82.8358 28.715 82.9V90.875C28.715 91.0408 28.7809 91.1997 28.8981 91.3169C29.0153 91.4342 29.1743 91.5 29.34 91.5C29.5058 91.5 29.6648 91.4342 29.782 91.3169C29.8992 91.1997 29.965 91.0408 29.965 90.875V82.9C29.9651 82.8358 29.9849 82.7731 30.0218 82.7206C30.0587 82.668 30.1109 82.6281 30.1713 82.6063C30.659 82.4343 31.0813 82.1154 31.3802 81.6934C31.6791 81.2714 31.8397 80.7671 31.84 80.25V77.125C31.84 76.9592 31.7742 76.8003 31.657 76.6831C31.5398 76.5658 31.3808 76.5 31.215 76.5Z" fill="#111111"/>
</g>
</g>
<g id="Size=20px, Filled=true">
<g id="Vector_10">
<path d="M64.7297 74.625C64.575 74.627 64.4271 74.6894 64.3177 74.7989C64.2082 74.9083 64.1458 75.0562 64.1438 75.2109V92.5938C64.1438 92.801 64.2261 92.9997 64.3726 93.1462C64.5191 93.2927 64.7178 93.375 64.925 93.375C65.1322 93.375 65.331 93.2927 65.4775 93.1462C65.624 92.9997 65.7063 92.801 65.7063 92.5938V86.3438C65.7063 86.2401 65.7475 86.1408 65.8207 86.0675C65.894 85.9943 65.9933 85.9531 66.0969 85.9531H67.4641C67.7231 85.9531 67.9715 85.8502 68.1546 85.6671C68.3378 85.484 68.4407 85.2356 68.4407 84.9766C68.3938 79.3594 66.55 74.625 64.7297 74.625Z" fill="#111111"/>
<path d="M61.0188 74.625C60.8116 74.625 60.6129 74.7073 60.4664 74.8538C60.3199 75.0003 60.2375 75.199 60.2375 75.4062V79.3125C60.2379 79.7213 60.078 80.114 59.7922 80.4062C59.7608 80.4264 59.7242 80.4372 59.6868 80.4372C59.6494 80.4372 59.6128 80.4264 59.5813 80.4062C59.5443 80.3932 59.5123 80.3688 59.4899 80.3365C59.4674 80.3043 59.4557 80.2658 59.4563 80.2266V75.4062C59.4563 75.199 59.374 75.0003 59.2275 74.8538C59.081 74.7073 58.8822 74.625 58.675 74.625C58.4678 74.625 58.2691 74.7073 58.1226 74.8538C57.9761 75.0003 57.8938 75.199 57.8938 75.4062V80.2656C57.8944 80.3049 57.8827 80.3434 57.8602 80.3756C57.8378 80.4078 57.8058 80.4322 57.7688 80.4453C57.7373 80.4655 57.7007 80.4762 57.6633 80.4762C57.6259 80.4762 57.5893 80.4655 57.5579 80.4453C57.4116 80.2959 57.2969 80.1186 57.2204 79.9241C57.1439 79.7295 57.1072 79.5215 57.1125 79.3125V75.4062C57.1125 75.199 57.0302 75.0003 56.8837 74.8538C56.7372 74.7073 56.5385 74.625 56.3313 74.625C56.1241 74.625 55.9254 74.7073 55.7789 74.8538C55.6324 75.0003 55.55 75.199 55.55 75.4062V79.3125C55.5504 79.9589 55.7513 80.5892 56.1248 81.1167C56.4984 81.6442 57.0264 82.0429 57.636 82.2578C57.7115 82.2851 57.7767 82.335 57.8229 82.4007C57.869 82.4664 57.8938 82.5447 57.8938 82.625V92.5938C57.8938 92.801 57.9761 92.9997 58.1226 93.1462C58.2691 93.2927 58.4678 93.375 58.675 93.375C58.8822 93.375 59.081 93.2927 59.2275 93.1462C59.374 92.9997 59.4563 92.801 59.4563 92.5938V82.625C59.4563 82.5447 59.4811 82.4664 59.5272 82.4007C59.5734 82.335 59.6386 82.2851 59.7141 82.2578C60.3237 82.0429 60.8517 81.6442 61.2253 81.1167C61.5988 80.5892 61.7997 79.9589 61.8 79.3125V75.4062C61.8 75.199 61.7177 75.0003 61.5712 74.8538C61.4247 74.7073 61.226 74.625 61.0188 74.625Z" fill="#111111"/>
</g>
</g>
<g id="Size=24px, Filled=true">
<g id="Vector_11">
<path d="M99.2756 72.75C99.0899 72.7524 98.9125 72.8273 98.7811 72.9586C98.6498 73.09 98.5749 73.2674 98.5725 73.4531V94.3125C98.5725 94.5611 98.6713 94.7996 98.8471 94.9754C99.0229 95.1512 99.2614 95.25 99.51 95.25C99.7586 95.25 99.9971 95.1512 100.173 94.9754C100.349 94.7996 100.448 94.5611 100.448 94.3125V86.8125C100.448 86.6882 100.497 86.569 100.585 86.481C100.673 86.3931 100.792 86.3438 100.916 86.3438H102.557C102.868 86.3438 103.166 86.2203 103.386 86.0005C103.605 85.7807 103.729 85.4827 103.729 85.1719C103.673 78.4313 101.46 72.75 99.2756 72.75Z" fill="#111111"/>
<path d="M94.8225 72.75C94.5739 72.75 94.3354 72.8488 94.1596 73.0246C93.9838 73.2004 93.885 73.4389 93.885 73.6875V78.375C93.8854 78.8656 93.6936 79.3368 93.3506 79.6875C93.3129 79.7117 93.2689 79.7246 93.2241 79.7246C93.1792 79.7246 93.1353 79.7117 93.0975 79.6875C93.0531 79.6718 93.0147 79.6425 92.9878 79.6038C92.9609 79.5652 92.9468 79.519 92.9475 79.4719V73.6875C92.9475 73.4389 92.8487 73.2004 92.6729 73.0246C92.4971 72.8488 92.2587 72.75 92.01 72.75C91.7614 72.75 91.5229 72.8488 91.3471 73.0246C91.1713 73.2004 91.0725 73.4389 91.0725 73.6875V79.5188C91.0732 79.5659 91.0592 79.612 91.0322 79.6507C91.0053 79.6894 90.9669 79.7187 90.9225 79.7344C90.8847 79.7586 90.8408 79.7715 90.7959 79.7715C90.7511 79.7715 90.7072 79.7586 90.6694 79.7344C90.4939 79.5551 90.3562 79.3424 90.2644 79.1089C90.1726 78.8754 90.1286 78.6258 90.135 78.375V73.6875C90.135 73.4389 90.0362 73.2004 89.8604 73.0246C89.6846 72.8488 89.4462 72.75 89.1975 72.75C88.9489 72.75 88.7104 72.8488 88.5346 73.0246C88.3588 73.2004 88.26 73.4389 88.26 73.6875V78.375C88.2605 79.1507 88.5015 79.9071 88.9498 80.5401C89.3981 81.1731 90.0316 81.6515 90.7631 81.9094C90.8537 81.9421 90.932 82.002 90.9874 82.0808C91.0427 82.1597 91.0725 82.2537 91.0725 82.35V94.3125C91.0725 94.5611 91.1713 94.7996 91.3471 94.9754C91.5229 95.1512 91.7614 95.25 92.01 95.25C92.2587 95.25 92.4971 95.1512 92.6729 94.9754C92.8487 94.7996 92.9475 94.5611 92.9475 94.3125V82.35C92.9476 82.2537 92.9773 82.1597 93.0326 82.0808C93.088 82.002 93.1663 81.9421 93.2569 81.9094C93.9884 81.6515 94.622 81.1731 95.0703 80.5401C95.5186 79.9071 95.7595 79.1507 95.76 78.375V73.6875C95.76 73.4389 95.6612 73.2004 95.4854 73.0246C95.3096 72.8488 95.0712 72.75 94.8225 72.75Z" fill="#111111"/>
</g>
</g>
<g id="Size=32px, Filled=true">
<g id="Vector_12">
<path d="M140.368 69C140.12 69.0032 139.883 69.103 139.708 69.2782C139.533 69.4533 139.433 69.6899 139.43 69.9375V97.75C139.43 98.0815 139.562 98.3995 139.796 98.6339C140.031 98.8683 140.349 99 140.68 99C141.012 99 141.33 98.8683 141.564 98.6339C141.798 98.3995 141.93 98.0815 141.93 97.75V87.75C141.93 87.5842 141.996 87.4253 142.113 87.3081C142.23 87.1908 142.389 87.125 142.555 87.125H144.743C145.157 87.125 145.554 86.9604 145.847 86.6674C146.14 86.3743 146.305 85.9769 146.305 85.5625C146.23 76.575 143.28 69 140.368 69Z" fill="#111111"/>
<path d="M134.43 69C134.099 69 133.781 69.1317 133.546 69.3661C133.312 69.6005 133.18 69.9185 133.18 70.25V76.5C133.181 77.1541 132.925 77.7823 132.468 78.25C132.417 78.2823 132.359 78.2995 132.299 78.2995C132.239 78.2995 132.18 78.2823 132.13 78.25C132.071 78.2291 132.02 78.19 131.984 78.1385C131.948 78.0869 131.929 78.0253 131.93 77.9625V70.25C131.93 69.9185 131.798 69.6005 131.564 69.3661C131.33 69.1317 131.012 69 130.68 69C130.349 69 130.031 69.1317 129.796 69.3661C129.562 69.6005 129.43 69.9185 129.43 70.25V78.025C129.431 78.0878 129.412 78.1494 129.376 78.201C129.34 78.2525 129.289 78.2916 129.23 78.3125C129.18 78.3448 129.121 78.362 129.061 78.362C129.001 78.362 128.943 78.3448 128.893 78.3125C128.659 78.0734 128.475 77.7898 128.353 77.4785C128.23 77.1671 128.172 76.8344 128.18 76.5V70.25C128.18 69.9185 128.048 69.6005 127.814 69.3661C127.58 69.1317 127.262 69 126.93 69C126.599 69 126.281 69.1317 126.046 69.3661C125.812 69.6005 125.68 69.9185 125.68 70.25V76.5C125.681 77.5342 126.002 78.5428 126.6 79.3868C127.197 80.2308 128.042 80.8686 129.018 81.2125C129.138 81.2562 129.243 81.336 129.317 81.4411C129.39 81.5462 129.43 81.6716 129.43 81.8V97.75C129.43 98.0815 129.562 98.3995 129.796 98.6339C130.031 98.8683 130.349 99 130.68 99C131.012 99 131.33 98.8683 131.564 98.6339C131.798 98.3995 131.93 98.0815 131.93 97.75V81.8C131.93 81.6716 131.97 81.5462 132.044 81.4411C132.117 81.336 132.222 81.2562 132.343 81.2125C133.318 80.8686 134.163 80.2308 134.76 79.3868C135.358 78.5428 135.679 77.5342 135.68 76.5V70.25C135.68 69.9185 135.548 69.6005 135.314 69.3661C135.08 69.1317 134.762 69 134.43 69Z" fill="#111111"/>
</g>
</g>
<g id="Size=40px, Filled=true">
<g id="Vector_13">
<path d="M189.459 65.25C189.15 65.254 188.854 65.3788 188.635 65.5977C188.416 65.8166 188.292 66.1123 188.287 66.4219V101.188C188.287 101.602 188.452 101.999 188.745 102.292C189.038 102.585 189.436 102.75 189.85 102.75C190.264 102.75 190.662 102.585 190.955 102.292C191.248 101.999 191.412 101.602 191.412 101.188V88.6875C191.412 88.4803 191.495 88.2816 191.641 88.1351C191.788 87.9886 191.987 87.9062 192.194 87.9062H194.928C195.446 87.9062 195.943 87.7005 196.309 87.3342C196.675 86.9679 196.881 86.4711 196.881 85.9531C196.787 74.7188 193.1 65.25 189.459 65.25Z" fill="#111111"/>
<path d="M182.037 65.25C181.623 65.25 181.226 65.4146 180.933 65.7076C180.64 66.0007 180.475 66.3981 180.475 66.8125V74.625C180.476 75.4426 180.156 76.2279 179.584 76.8125C179.521 76.8529 179.448 76.8743 179.373 76.8743C179.299 76.8743 179.225 76.8529 179.162 76.8125C179.088 76.7863 179.024 76.7376 178.98 76.6731C178.935 76.6086 178.911 76.5317 178.912 76.4531V66.8125C178.912 66.3981 178.748 66.0007 178.455 65.7076C178.162 65.4146 177.764 65.25 177.35 65.25C176.936 65.25 176.538 65.4146 176.245 65.7076C175.952 66.0007 175.787 66.3981 175.787 66.8125V76.5312C175.789 76.6098 175.765 76.6867 175.72 76.7512C175.676 76.8157 175.612 76.8645 175.537 76.8906C175.475 76.931 175.401 76.9525 175.327 76.9525C175.252 76.9525 175.179 76.931 175.116 76.8906C174.823 76.5918 174.594 76.2373 174.441 75.8481C174.288 75.4589 174.214 75.043 174.225 74.625V66.8125C174.225 66.3981 174.06 66.0007 173.767 65.7076C173.474 65.4146 173.077 65.25 172.662 65.25C172.248 65.25 171.851 65.4146 171.558 65.7076C171.265 66.0007 171.1 66.3981 171.1 66.8125V74.625C171.101 75.9178 171.502 77.1785 172.25 78.2335C172.997 79.2884 174.053 80.0858 175.272 80.5156C175.423 80.5702 175.553 80.67 175.646 80.8014C175.738 80.9328 175.787 81.0894 175.787 81.25V101.188C175.787 101.602 175.952 101.999 176.245 102.292C176.538 102.585 176.936 102.75 177.35 102.75C177.764 102.75 178.162 102.585 178.455 102.292C178.748 101.999 178.912 101.602 178.912 101.188V81.25C178.913 81.0894 178.962 80.9328 179.054 80.8014C179.147 80.67 179.277 80.5702 179.428 80.5156C180.647 80.0858 181.703 79.2884 182.45 78.2335C183.198 77.1785 183.599 75.9178 183.6 74.625V66.8125C183.6 66.3981 183.435 66.0007 183.142 65.7076C182.849 65.4146 182.452 65.25 182.037 65.25Z" fill="#111111"/>
</g>
</g>
<g id="Size=48px, Filled=true">
<g id="Vector_14">
<path d="M246.551 61.5C246.18 61.5049 245.825 61.6546 245.562 61.9173C245.3 62.1799 245.15 62.5348 245.145 62.9062V104.625C245.145 105.122 245.343 105.599 245.694 105.951C246.046 106.302 246.523 106.5 247.02 106.5C247.517 106.5 247.994 106.302 248.346 105.951C248.697 105.599 248.895 105.122 248.895 104.625V89.625C248.895 89.3764 248.994 89.1379 249.17 88.9621C249.345 88.7863 249.584 88.6875 249.833 88.6875H253.114C253.735 88.6875 254.332 88.4406 254.771 88.001C255.211 87.5615 255.458 86.9654 255.458 86.3438C255.345 72.8625 250.92 61.5 246.551 61.5Z" fill="#111111"/>
<path d="M237.645 61.5C237.148 61.5 236.671 61.6975 236.319 62.0492C235.968 62.4008 235.77 62.8777 235.77 63.375V72.75C235.771 73.7311 235.387 74.6735 234.701 75.375C234.626 75.4235 234.538 75.4492 234.448 75.4492C234.358 75.4492 234.271 75.4235 234.195 75.375C234.106 75.3436 234.029 75.2851 233.976 75.2077C233.922 75.1303 233.894 75.038 233.895 74.9438V63.375C233.895 62.8777 233.697 62.4008 233.346 62.0492C232.994 61.6975 232.517 61.5 232.02 61.5C231.523 61.5 231.046 61.6975 230.694 62.0492C230.343 62.4008 230.145 62.8777 230.145 63.375V75.0375C230.146 75.1317 230.118 75.2241 230.064 75.3014C230.011 75.3788 229.934 75.4373 229.845 75.4688C229.769 75.5172 229.682 75.543 229.592 75.543C229.502 75.543 229.414 75.5172 229.339 75.4688C228.988 75.1101 228.712 74.6847 228.529 74.2177C228.345 73.7507 228.257 73.2516 228.27 72.75V63.375C228.27 62.8777 228.072 62.4008 227.721 62.0492C227.369 61.6975 226.892 61.5 226.395 61.5C225.898 61.5 225.421 61.6975 225.069 62.0492C224.718 62.4008 224.52 62.8777 224.52 63.375V72.75C224.521 74.3013 225.003 75.8142 225.9 77.0802C226.796 78.3461 228.063 79.3029 229.526 79.8188C229.707 79.8843 229.864 80.004 229.975 80.1617C230.085 80.3194 230.145 80.5073 230.145 80.7V104.625C230.145 105.122 230.343 105.599 230.694 105.951C231.046 106.302 231.523 106.5 232.02 106.5C232.517 106.5 232.994 106.302 233.346 105.951C233.697 105.599 233.895 105.122 233.895 104.625V80.7C233.895 80.5073 233.955 80.3194 234.065 80.1617C234.176 80.004 234.333 79.8843 234.514 79.8188C235.977 79.3029 237.244 78.3461 238.141 77.0802C239.037 75.8142 239.519 74.3013 239.52 72.75V63.375C239.52 62.8777 239.322 62.4008 238.971 62.0492C238.619 61.6975 238.142 61.5 237.645 61.5Z" fill="#111111"/>
</g>
</g>
</g>
</g>
<defs>
<clipPath id="clip0_7887_212">
<rect width="264" height="108" rx="5" fill="white"/>
</clipPath>
</defs>
</svg>
