<svg width="264" height="108" viewBox="0 0 264 108" fill="none" xmlns="http://www.w3.org/2000/svg">
<g id="Sun">
<g clip-path="url(#clip0_7754_1257)">
<g id="Size=12px, Filled=false" clip-path="url(#clip1_7754_1257)">
<path id="Vector" d="M6 28.5V29.5M10.5 24H11.5M6 19.5V18.5M1.5 24H0.5M2.8185 27.182L2.111 27.8895M9.182 27.182L9.889 27.889M9.1825 20.8185L9.8895 20.1115M2.818 20.8185L2.111 20.1115M9.5 24C9.5 23.0717 9.13125 22.1815 8.47487 21.5251C7.8185 20.8687 6.92826 20.5 6 20.5C5.07174 20.5 4.1815 20.8687 3.52513 21.5251C2.86875 22.1815 2.5 23.0717 2.5 24C2.5 24.9283 2.86875 25.8185 3.52513 26.4749C4.1815 27.1313 5.07174 27.5 6 27.5C6.92826 27.5 7.8185 27.1313 8.47487 26.4749C9.13125 25.8185 9.5 24.9283 9.5 24Z" stroke="#111111" stroke-width="0.75" stroke-linecap="round" stroke-linejoin="round"/>
</g>
<g id="Size=16px, Filled=false" clip-path="url(#clip2_7754_1257)">
<path id="Vector_2" d="M32 30V31.3334M38 24H39.3333M32 18V16.6667M26 24H24.6666M27.758 28.2427L26.8146 29.186M36.2426 28.2427L37.1853 29.1854M36.2433 19.758L37.186 18.8154M27.7573 19.758L26.8146 18.8154M36.6666 24C36.6666 22.7623 36.175 21.5754 35.2998 20.7002C34.4246 19.825 33.2376 19.3334 32 19.3334C30.7623 19.3334 29.5753 19.825 28.7001 20.7002C27.825 21.5754 27.3333 22.7623 27.3333 24C27.3333 25.2377 27.825 26.4247 28.7001 27.2999C29.5753 28.175 30.7623 28.6667 32 28.6667C33.2376 28.6667 34.4246 28.175 35.2998 27.2999C36.175 26.4247 36.6666 25.2377 36.6666 24Z" stroke="#111111" stroke-linecap="round" stroke-linejoin="round"/>
</g>
<g id="Size=20px, Filled=false" clip-path="url(#clip3_7754_1257)">
<path id="Vector_3" d="M62 31.5V33.1666M69.5 24H71.1667M62 16.5V14.8333M54.5 24H52.8334M56.6975 29.3033L55.5184 30.4825M67.3034 29.3033L68.4817 30.4816M67.3042 18.6975L68.4825 17.5191M56.6967 18.6975L55.5184 17.5191M67.8334 24C67.8334 22.4529 67.2188 20.9692 66.1248 19.8752C65.0309 18.7812 63.5471 18.1666 62 18.1666C60.4529 18.1666 58.9692 18.7812 57.8753 19.8752C56.7813 20.9692 56.1667 22.4529 56.1667 24C56.1667 25.5471 56.7813 27.0308 57.8753 28.1248C58.9692 29.2187 60.4529 29.8333 62 29.8333C63.5471 29.8333 65.0309 29.2187 66.1248 28.1248C67.2188 27.0308 67.8334 25.5471 67.8334 24Z" stroke="#111111" stroke-width="1.25" stroke-linecap="round" stroke-linejoin="round"/>
</g>
<g id="Size=24px, Filled=false" clip-path="url(#clip4_7754_1257)">
<path id="Vector_4" d="M96 33V35M105 24H107M96 15V13M87 24H85M89.637 30.364L88.222 31.779M102.364 30.364L103.778 31.778M102.365 17.637L103.779 16.223M89.636 17.637L88.222 16.223M103 24C103 22.1435 102.263 20.363 100.95 19.0503C99.637 17.7375 97.8565 17 96 17C94.1435 17 92.363 17.7375 91.0503 19.0503C89.7375 20.363 89 22.1435 89 24C89 25.8565 89.7375 27.637 91.0503 28.9497C92.363 30.2625 94.1435 31 96 31C97.8565 31 99.637 30.2625 100.95 28.9497C102.263 27.637 103 25.8565 103 24Z" stroke="#111111" stroke-width="1.5" stroke-linecap="round" stroke-linejoin="round"/>
</g>
<g id="Size=32px, Filled=false" clip-path="url(#clip5_7754_1257)">
<path id="Vector_5" d="M136 36V38.6666M148 24H150.667M136 12V9.33331M124 24H121.333M127.516 32.4853L125.629 34.372M144.485 32.4853L146.371 34.3706M144.487 15.516L146.372 13.6306M127.515 15.516L125.629 13.6306M145.333 24C145.333 21.5246 144.35 19.1507 142.6 17.4003C140.849 15.65 138.475 14.6666 136 14.6666C133.525 14.6666 131.151 15.65 129.4 17.4003C127.65 19.1507 126.667 21.5246 126.667 24C126.667 26.4753 127.65 28.8493 129.4 30.5996C131.151 32.35 133.525 33.3333 136 33.3333C138.475 33.3333 140.849 32.35 142.6 30.5996C144.35 28.8493 145.333 26.4753 145.333 24Z" stroke="#111111" stroke-width="2" stroke-linecap="round" stroke-linejoin="round"/>
</g>
<g id="Size=40px, Filled=false" clip-path="url(#clip6_7754_1257)">
<path id="Vector_6" d="M184 39V42.3334M199 24H202.333M184 9.00002V5.66669M169 24H165.667M173.395 34.6067L171.037 36.965M194.607 34.6067L196.963 36.9634M194.608 13.395L196.965 11.0384M173.393 13.395L171.037 11.0384M195.667 24C195.667 20.9058 194.437 17.9384 192.25 15.7504C190.062 13.5625 187.094 12.3334 184 12.3334C180.906 12.3334 177.938 13.5625 175.75 15.7504C173.562 17.9384 172.333 20.9058 172.333 24C172.333 27.0942 173.562 30.0617 175.75 32.2496C177.938 34.4375 180.906 35.6667 184 35.6667C187.094 35.6667 190.062 34.4375 192.25 32.2496C194.437 30.0617 195.667 27.0942 195.667 24Z" stroke="#111111" stroke-width="2.5" stroke-linecap="round" stroke-linejoin="round"/>
</g>
<g id="Size=48px, Filled=false" clip-path="url(#clip7_7754_1257)">
<path id="Vector_7" d="M240 42V46M258 24H262M240 6V2M222 24H218M227.274 36.728L224.444 39.558M252.728 36.728L255.556 39.556M252.73 11.274L255.558 8.446M227.272 11.274L224.444 8.446M254 24C254 20.287 252.525 16.726 249.899 14.1005C247.274 11.475 243.713 10 240 10C236.287 10 232.726 11.475 230.101 14.1005C227.475 16.726 226 20.287 226 24C226 27.713 227.475 31.274 230.101 33.8995C232.726 36.525 236.287 38 240 38C243.713 38 247.274 36.525 249.899 33.8995C252.525 31.274 254 27.713 254 24Z" stroke="#111111" stroke-width="3" stroke-linecap="round" stroke-linejoin="round"/>
</g>
<g id="Size=12px, Filled=true" clip-path="url(#clip8_7754_1257)">
<g id="Vector_8">
<path d="M6 78.5C6.25313 78.5 6.45833 78.7052 6.45833 78.9583V79.875C6.45833 80.1281 6.25313 80.3333 6 80.3333C5.74687 80.3333 5.54167 80.1281 5.54167 79.875V78.9583C5.54167 78.7052 5.74687 78.5 6 78.5Z" fill="#111111"/>
<path d="M9.20833 84C9.20833 83.1491 8.87031 82.333 8.26863 81.7314C7.66695 81.1297 6.8509 80.7917 6 80.7917C5.1491 80.7917 4.33304 81.1297 3.73137 81.7314C3.12969 82.333 2.79167 83.1491 2.79167 84C2.79167 84.8509 3.12969 85.667 3.73137 86.2686C4.33304 86.8703 5.1491 87.2083 6 87.2083C6.8509 87.2083 7.66695 86.8703 8.26863 86.2686C8.87031 85.667 9.20833 84.8509 9.20833 84Z" fill="#111111"/>
<path d="M6 87.6667C6.25313 87.6667 6.45833 87.8719 6.45833 88.125V89.0417C6.45833 89.2948 6.25313 89.5 6 89.5C5.74687 89.5 5.54167 89.2948 5.54167 89.0417V88.125C5.54167 87.8719 5.74687 87.6667 6 87.6667Z" fill="#111111"/>
<path d="M10.125 83.5417C9.87187 83.5417 9.66667 83.7469 9.66667 84C9.66667 84.2531 9.87187 84.4583 10.125 84.4583H11.0417C11.2948 84.4583 11.5 84.2531 11.5 84C11.5 83.7469 11.2948 83.5417 11.0417 83.5417H10.125Z" fill="#111111"/>
<path d="M0.958333 83.5417C0.705203 83.5417 0.5 83.7469 0.5 84C0.5 84.2531 0.705203 84.4583 0.958333 84.4583H1.875C2.12813 84.4583 2.33333 84.2531 2.33333 84C2.33333 83.7469 2.12813 83.5417 1.875 83.5417H0.958333Z" fill="#111111"/>
<path d="M3.40768 86.5927C3.58667 86.7717 3.58667 87.0619 3.40768 87.2409L2.75914 87.8895C2.58015 88.0685 2.28995 88.0685 2.11096 87.8895C1.93197 87.7105 1.93197 87.4203 2.11096 87.2413L2.7595 86.5927C2.93849 86.4138 3.22869 86.4138 3.40768 86.5927Z" fill="#111111"/>
<path d="M9.24093 86.5927C9.06194 86.4138 8.77174 86.4138 8.59275 86.5927C8.41376 86.7717 8.41376 87.0619 8.59275 87.2409L9.24083 87.889C9.41982 88.068 9.71002 88.068 9.88901 87.889C10.068 87.71 10.068 87.4198 9.88901 87.2408L9.24093 86.5927Z" fill="#111111"/>
<path d="M9.88946 80.1115C10.0685 80.2905 10.0685 80.5807 9.88946 80.7596L9.24138 81.4077C9.06239 81.5867 8.77219 81.5867 8.5932 81.4077C8.41421 81.2287 8.41421 80.9385 8.5932 80.7595L9.24128 80.1115C9.42027 79.9325 9.71047 79.9325 9.88946 80.1115Z" fill="#111111"/>
<path d="M2.75914 80.1115C2.58015 79.9325 2.28995 79.9325 2.11096 80.1115C1.93197 80.2905 1.93197 80.5807 2.11096 80.7596L2.75904 81.4077C2.93803 81.5867 3.22823 81.5867 3.40722 81.4077C3.58621 81.2287 3.58621 80.9385 3.40722 80.7595L2.75914 80.1115Z" fill="#111111"/>
</g>
</g>
<g id="Size=16px, Filled=true" clip-path="url(#clip9_7754_1257)">
<g id="Vector_9">
<path d="M32.005 76.67C32.3426 76.67 32.6163 76.9436 32.6163 77.2812V78.5037C32.6163 78.8413 32.3426 79.115 32.005 79.115C31.6675 79.115 31.3938 78.8413 31.3938 78.5037V77.2812C31.3938 76.9436 31.6675 76.67 32.005 76.67Z" fill="#111111"/>
<path d="M36.2838 84.005C36.2838 82.8702 35.833 81.7819 35.0306 80.9794C34.2282 80.177 33.1398 79.7262 32.005 79.7262C30.8702 79.7262 29.7819 80.177 28.9795 80.9794C28.1771 81.7819 27.7263 82.8702 27.7263 84.005C27.7263 85.1398 28.1771 86.2281 28.9795 87.0305C29.7819 87.8329 30.8702 88.2837 32.005 88.2837C33.1398 88.2837 34.2282 87.8329 35.0306 87.0305C35.833 86.2281 36.2838 85.1398 36.2838 84.005Z" fill="#111111"/>
<path d="M32.005 88.895C32.3426 88.895 32.6163 89.1686 32.6163 89.5062V90.7287C32.6163 91.0663 32.3426 91.34 32.005 91.34C31.6675 91.34 31.3938 91.0663 31.3938 90.7287V89.5062C31.3938 89.1686 31.6675 88.895 32.005 88.895Z" fill="#111111"/>
<path d="M37.5063 83.3937C37.1687 83.3937 36.895 83.6674 36.895 84.005C36.895 84.3426 37.1687 84.6162 37.5063 84.6162H38.7288C39.0664 84.6162 39.34 84.3426 39.34 84.005C39.34 83.6674 39.0664 83.3937 38.7288 83.3937H37.5063Z" fill="#111111"/>
<path d="M25.2813 83.3937C24.9437 83.3937 24.67 83.6674 24.67 84.005C24.67 84.3426 24.9437 84.6162 25.2813 84.6162H26.5038C26.8414 84.6162 27.115 84.3426 27.115 84.005C27.115 83.6674 26.8414 83.3937 26.5038 83.3937H25.2813Z" fill="#111111"/>
<path d="M28.5478 87.4628C28.7865 87.7015 28.7865 88.0885 28.5478 88.3272L27.6829 89.1921C27.4442 89.4308 27.0572 89.4308 26.8185 89.1921C26.5798 88.9534 26.5798 88.5664 26.8185 88.3277L27.6834 87.4628C27.9221 87.2241 28.3091 87.2241 28.5478 87.4628Z" fill="#111111"/>
<path d="M36.3273 87.4628C36.0886 87.2241 35.7015 87.2241 35.4628 87.4628C35.2241 87.7015 35.2241 88.0885 35.4628 88.3272L36.3271 89.1915C36.5658 89.4302 36.9529 89.4302 37.1916 89.1915C37.4303 88.9528 37.4303 88.5658 37.1916 88.3271L36.3273 87.4628Z" fill="#111111"/>
<path d="M37.1922 78.8191C37.4309 79.0578 37.4309 79.4448 37.1922 79.6835L36.3279 80.5478C36.0892 80.7865 35.7021 80.7865 35.4634 80.5478C35.2247 80.3091 35.2247 79.9221 35.4634 79.6834L36.3277 78.8191C36.5664 78.5804 36.9535 78.5804 37.1922 78.8191Z" fill="#111111"/>
<path d="M27.6829 78.8191C27.4442 78.5804 27.0572 78.5804 26.8185 78.8191C26.5798 79.0578 26.5798 79.4448 26.8185 79.6835L27.6828 80.5478C27.9215 80.7865 28.3085 80.7865 28.5472 80.5478C28.7859 80.3091 28.7859 79.9221 28.5472 79.6834L27.6829 78.8191Z" fill="#111111"/>
</g>
</g>
<g id="Size=20px, Filled=true" clip-path="url(#clip10_7754_1257)">
<g id="Vector_10">
<path d="M61.995 74.83C62.4168 74.83 62.7587 75.172 62.7587 75.5938V77.1213C62.7587 77.5431 62.4168 77.885 61.995 77.885C61.5731 77.885 61.2312 77.5431 61.2312 77.1213V75.5938C61.2312 75.172 61.5731 74.83 61.995 74.83Z" fill="#111111"/>
<path d="M67.3412 83.995C67.3412 82.5771 66.7779 81.2173 65.7753 80.2146C64.7727 79.212 63.4129 78.6488 61.995 78.6488C60.577 78.6488 59.2172 79.212 58.2146 80.2146C57.212 81.2173 56.6487 82.5771 56.6487 83.995C56.6487 85.4129 57.212 86.7728 58.2146 87.7754C59.2172 88.778 60.577 89.3413 61.995 89.3413C63.4129 89.3413 64.7727 88.778 65.7753 87.7754C66.7779 86.7728 67.3412 85.4129 67.3412 83.995Z" fill="#111111"/>
<path d="M61.995 90.105C62.4168 90.105 62.7587 90.447 62.7587 90.8688V92.3963C62.7587 92.8181 62.4168 93.16 61.995 93.16C61.5731 93.16 61.2312 92.8181 61.2312 92.3963V90.8688C61.2312 90.447 61.5731 90.105 61.995 90.105Z" fill="#111111"/>
<path d="M68.8687 83.2313C68.4469 83.2313 68.105 83.5732 68.105 83.995C68.105 84.4168 68.4469 84.7588 68.8687 84.7588H70.3962C70.818 84.7588 71.16 84.4168 71.16 83.995C71.16 83.5732 70.818 83.2313 70.3962 83.2313H68.8687Z" fill="#111111"/>
<path d="M53.5937 83.2313C53.1719 83.2313 52.83 83.5732 52.83 83.995C52.83 84.4168 53.1719 84.7588 53.5937 84.7588H55.1212C55.543 84.7588 55.885 84.4168 55.885 83.995C55.885 83.5732 55.543 83.2313 55.1212 83.2313H53.5937Z" fill="#111111"/>
<path d="M57.6752 88.3155C57.9735 88.6137 57.9735 89.0973 57.6752 89.3956L56.5945 90.4763C56.2962 90.7746 55.8127 90.7746 55.5144 90.4763C55.2161 90.178 55.2161 89.6944 55.5144 89.3962L56.5951 88.3155C56.8934 88.0172 57.3769 88.0172 57.6752 88.3155Z" fill="#111111"/>
<path d="M67.3955 88.3155C67.0973 88.0172 66.6137 88.0172 66.3154 88.3155C66.0172 88.6137 66.0172 89.0973 66.3154 89.3956L67.3954 90.4755C67.6936 90.7738 68.1772 90.7738 68.4755 90.4755C68.7737 90.1773 68.7737 89.6937 68.4755 89.3954L67.3955 88.3155Z" fill="#111111"/>
<path d="M68.4762 77.5153C68.7745 77.8136 68.7745 78.2971 68.4762 78.5954L67.3963 79.6753C67.098 79.9736 66.6144 79.9736 66.3162 79.6753C66.0179 79.3771 66.0179 78.8935 66.3162 78.5952L67.3961 77.5153C67.6944 77.217 68.1779 77.217 68.4762 77.5153Z" fill="#111111"/>
<path d="M56.5945 77.5153C56.2962 77.217 55.8127 77.217 55.5144 77.5153C55.2161 77.8136 55.2161 78.2971 55.5144 78.5954L56.5943 79.6753C56.8926 79.9736 57.3762 79.9736 57.6744 79.6753C57.9727 79.3771 57.9727 78.8935 57.6744 78.5952L56.5945 77.5153Z" fill="#111111"/>
</g>
</g>
<g id="Size=24px, Filled=true">
<g id="Vector_11">
<path d="M96 73C96.5063 73 96.9167 73.4104 96.9167 73.9167V75.75C96.9167 76.2563 96.5063 76.6667 96 76.6667C95.4937 76.6667 95.0833 76.2563 95.0833 75.75V73.9167C95.0833 73.4104 95.4937 73 96 73Z" fill="#111111"/>
<path d="M102.417 84C102.417 82.2982 101.741 80.6661 100.537 79.4627C99.3339 78.2594 97.7018 77.5833 96 77.5833C94.2982 77.5833 92.6661 78.2594 91.4627 79.4627C90.2594 80.6661 89.5833 82.2982 89.5833 84C89.5833 85.7018 90.2594 87.3339 91.4627 88.5373C92.6661 89.7406 94.2982 90.4167 96 90.4167C97.7018 90.4167 99.3339 89.7406 100.537 88.5373C101.741 87.3339 102.417 85.7018 102.417 84Z" fill="#111111"/>
<path d="M96 91.3333C96.5063 91.3333 96.9167 91.7437 96.9167 92.25V94.0833C96.9167 94.5896 96.5063 95 96 95C95.4937 95 95.0833 94.5896 95.0833 94.0833V92.25C95.0833 91.7437 95.4937 91.3333 96 91.3333Z" fill="#111111"/>
<path d="M104.25 83.0833C103.744 83.0833 103.333 83.4937 103.333 84C103.333 84.5063 103.744 84.9167 104.25 84.9167H106.083C106.59 84.9167 107 84.5063 107 84C107 83.4937 106.59 83.0833 106.083 83.0833H104.25Z" fill="#111111"/>
<path d="M85.9167 83.0833C85.4104 83.0833 85 83.4937 85 84C85 84.5063 85.4104 84.9167 85.9167 84.9167H87.75C88.2563 84.9167 88.6667 84.5063 88.6667 84C88.6667 83.4937 88.2563 83.0833 87.75 83.0833H85.9167Z" fill="#111111"/>
<path d="M90.8154 89.1855C91.1733 89.5435 91.1733 90.1239 90.8154 90.4819L89.5183 91.7789C89.1603 92.1369 88.5799 92.1369 88.2219 91.7789C87.8639 91.421 87.8639 90.8406 88.2219 90.4826L89.519 89.1855C89.877 88.8275 90.4574 88.8275 90.8154 89.1855Z" fill="#111111"/>
<path d="M102.482 89.1855C102.124 88.8275 101.543 88.8275 101.185 89.1855C100.828 89.5435 100.828 90.1239 101.185 90.4819L102.482 91.778C102.84 92.136 103.42 92.136 103.778 91.778C104.136 91.42 104.136 90.8396 103.778 90.4817L102.482 89.1855Z" fill="#111111"/>
<path d="M103.779 76.2229C104.137 76.5809 104.137 77.1613 103.779 77.5193L102.483 78.8155C102.125 79.1734 101.544 79.1734 101.186 78.8155C100.828 78.4575 100.828 77.8771 101.186 77.5191L102.483 76.2229C102.841 75.8649 103.421 75.8649 103.779 76.2229Z" fill="#111111"/>
<path d="M89.5183 76.2229C89.1603 75.8649 88.5799 75.8649 88.2219 76.2229C87.8639 76.5809 87.8639 77.1613 88.2219 77.5193L89.5181 78.8155C89.8761 79.1734 90.4565 79.1734 90.8144 78.8155C91.1724 78.4575 91.1724 77.8771 90.8144 77.5191L89.5183 76.2229Z" fill="#111111"/>
</g>
</g>
<g id="Size=32px, Filled=true">
<g id="Vector_12">
<path d="M135.995 69.33C136.67 69.33 137.217 69.8772 137.217 70.5521V72.9963C137.217 73.6712 136.67 74.2184 135.995 74.2184C135.32 74.2184 134.773 73.6712 134.773 72.9963V70.5521C134.773 69.8772 135.32 69.33 135.995 69.33Z" fill="#111111"/>
<path d="M144.55 83.995C144.55 81.7262 143.648 79.5503 142.044 77.946C140.44 76.3417 138.264 75.4404 135.995 75.4404C133.726 75.4404 131.55 76.3417 129.946 77.946C128.342 79.5503 127.44 81.7262 127.44 83.995C127.44 86.2638 128.342 88.4397 129.946 90.044C131.55 91.6483 133.726 92.5496 135.995 92.5496C138.264 92.5496 140.44 91.6483 142.044 90.044C143.648 88.4397 144.55 86.2638 144.55 83.995Z" fill="#111111"/>
<path d="M135.995 93.7717C136.67 93.7717 137.217 94.3188 137.217 94.9938V97.4379C137.217 98.1129 136.67 98.66 135.995 98.66C135.32 98.66 134.773 98.1129 134.773 97.4379V94.9938C134.773 94.3188 135.32 93.7717 135.995 93.7717Z" fill="#111111"/>
<path d="M146.994 82.7729C146.319 82.7729 145.772 83.3201 145.772 83.995C145.772 84.67 146.319 85.2171 146.994 85.2171H149.438C150.113 85.2171 150.66 84.67 150.66 83.995C150.66 83.3201 150.113 82.7729 149.438 82.7729H146.994Z" fill="#111111"/>
<path d="M122.552 82.7729C121.877 82.7729 121.33 83.3201 121.33 83.995C121.33 84.67 121.877 85.2171 122.552 85.2171H124.996C125.671 85.2171 126.218 84.67 126.218 83.995C126.218 83.3201 125.671 82.7729 124.996 82.7729H122.552Z" fill="#111111"/>
<path d="M129.083 90.9082C129.56 91.3855 129.56 92.1593 129.083 92.6365L127.354 94.3658C126.876 94.843 126.103 94.843 125.625 94.3658C125.148 93.8885 125.148 93.1147 125.625 92.6375L127.355 90.9082C127.832 90.431 128.606 90.431 129.083 90.9082Z" fill="#111111"/>
<path d="M144.636 90.9082C144.159 90.431 143.385 90.431 142.908 90.9082C142.431 91.3855 142.431 92.1593 142.908 92.6365L144.636 94.3645C145.113 94.8418 145.887 94.8418 146.364 94.3645C146.842 93.8873 146.842 93.1135 146.364 92.6363L144.636 90.9082Z" fill="#111111"/>
<path d="M146.366 73.6268C146.843 74.104 146.843 74.8778 146.366 75.355L144.638 77.0831C144.16 77.5603 143.387 77.5603 142.909 77.0831C142.432 76.6058 142.432 75.832 142.909 75.3548L144.637 73.6268C145.115 73.1495 145.888 73.1495 146.366 73.6268Z" fill="#111111"/>
<path d="M127.354 73.6268C126.876 73.1495 126.103 73.1495 125.625 73.6268C125.148 74.104 125.148 74.8778 125.625 75.355L127.353 77.0831C127.831 77.5603 128.604 77.5603 129.082 77.0831C129.559 76.6058 129.559 75.832 129.082 75.3548L127.354 73.6268Z" fill="#111111"/>
</g>
</g>
<g id="Size=40px, Filled=true">
<g id="Vector_13">
<path d="M184.005 65.67C184.849 65.67 185.533 66.3541 185.533 67.1979V70.2537C185.533 71.0976 184.849 71.7816 184.005 71.7816C183.161 71.7816 182.477 71.0976 182.477 70.2537V67.1979C182.477 66.3541 183.161 65.67 184.005 65.67Z" fill="#111111"/>
<path d="M194.7 84.005C194.7 81.1684 193.574 78.448 191.568 76.4422C189.562 74.4364 186.842 73.3096 184.005 73.3096C181.168 73.3096 178.448 74.4364 176.442 76.4422C174.436 78.448 173.31 81.1684 173.31 84.005C173.31 86.8416 174.436 89.562 176.442 91.5678C178.448 93.5736 181.168 94.7004 184.005 94.7004C186.842 94.7004 189.562 93.5736 191.568 91.5678C193.574 89.562 194.7 86.8416 194.7 84.005Z" fill="#111111"/>
<path d="M184.005 96.2283C184.849 96.2283 185.533 96.9124 185.533 97.7562V100.812C185.533 101.656 184.849 102.34 184.005 102.34C183.161 102.34 182.477 101.656 182.477 100.812V97.7562C182.477 96.9124 183.161 96.2283 184.005 96.2283Z" fill="#111111"/>
<path d="M197.756 82.4771C196.912 82.4771 196.228 83.1611 196.228 84.005C196.228 84.8488 196.912 85.5329 197.756 85.5329H200.812C201.656 85.5329 202.34 84.8488 202.34 84.005C202.34 83.1611 201.656 82.4771 200.812 82.4771H197.756Z" fill="#111111"/>
<path d="M167.198 82.4771C166.354 82.4771 165.67 83.1611 165.67 84.005C165.67 84.8488 166.354 85.5329 167.198 85.5329H170.254C171.098 85.5329 171.782 84.8488 171.782 84.005C171.782 83.1611 171.098 82.4771 170.254 82.4771H167.198Z" fill="#111111"/>
<path d="M175.363 92.6483C175.96 93.245 175.96 94.2124 175.363 94.8091L173.201 96.9711C172.605 97.5678 171.637 97.5678 171.04 96.9711C170.444 96.3744 170.444 95.4069 171.04 94.8103L173.202 92.6483C173.799 92.0516 174.767 92.0516 175.363 92.6483Z" fill="#111111"/>
<path d="M194.809 92.6483C194.212 92.0516 193.245 92.0516 192.648 92.6483C192.052 93.245 192.052 94.2124 192.648 94.8091L194.809 96.9695C195.405 97.5662 196.373 97.5662 196.97 96.9695C197.566 96.3728 197.566 95.4054 196.97 94.8087L194.809 92.6483Z" fill="#111111"/>
<path d="M196.971 71.042C197.568 71.6387 197.568 72.6061 196.971 73.2028L194.811 75.3633C194.214 75.96 193.247 75.96 192.65 75.3633C192.053 74.7666 192.053 73.7992 192.65 73.2025L194.81 71.042C195.407 70.4453 196.374 70.4453 196.971 71.042Z" fill="#111111"/>
<path d="M173.201 71.042C172.605 70.4453 171.637 70.4453 171.04 71.042C170.444 71.6387 170.444 72.6061 171.04 73.2028L173.201 75.3633C173.798 75.96 174.765 75.96 175.362 75.3633C175.958 74.7666 175.958 73.7992 175.362 73.2025L173.201 71.042Z" fill="#111111"/>
</g>
</g>
<g id="Size=48px, Filled=true">
<g id="Vector_14">
<path d="M240 62C241.013 62 241.833 62.8208 241.833 63.8333V67.5C241.833 68.5125 241.013 69.3333 240 69.3333C238.987 69.3333 238.167 68.5125 238.167 67.5V63.8333C238.167 62.8208 238.987 62 240 62Z" fill="#111111"/>
<path d="M252.833 84C252.833 80.5964 251.481 77.3322 249.075 74.9255C246.668 72.5187 243.404 71.1667 240 71.1667C236.596 71.1667 233.332 72.5187 230.925 74.9255C228.519 77.3322 227.167 80.5964 227.167 84C227.167 87.4036 228.519 90.6678 230.925 93.0745C233.332 95.4813 236.596 96.8333 240 96.8333C243.404 96.8333 246.668 95.4813 249.075 93.0745C251.481 90.6678 252.833 87.4036 252.833 84Z" fill="#111111"/>
<path d="M240 98.6667C241.013 98.6667 241.833 99.4875 241.833 100.5V104.167C241.833 105.179 241.013 106 240 106C238.987 106 238.167 105.179 238.167 104.167V100.5C238.167 99.4875 238.987 98.6667 240 98.6667Z" fill="#111111"/>
<path d="M256.5 82.1667C255.487 82.1667 254.667 82.9875 254.667 84C254.667 85.0125 255.487 85.8333 256.5 85.8333H260.167C261.179 85.8333 262 85.0125 262 84C262 82.9875 261.179 82.1667 260.167 82.1667H256.5Z" fill="#111111"/>
<path d="M219.833 82.1667C218.821 82.1667 218 82.9875 218 84C218 85.0125 218.821 85.8333 219.833 85.8333H223.5C224.513 85.8333 225.333 85.0125 225.333 84C225.333 82.9875 224.513 82.1667 223.5 82.1667H219.833Z" fill="#111111"/>
<path d="M229.631 94.371C230.347 95.087 230.347 96.2478 229.631 96.9637L227.037 99.5579C226.321 100.274 225.16 100.274 224.444 99.5579C223.728 98.8419 223.728 97.6811 224.444 96.9652L227.038 94.371C227.754 93.655 228.915 93.655 229.631 94.371Z" fill="#111111"/>
<path d="M252.964 94.371C252.248 93.655 251.087 93.655 250.371 94.371C249.655 95.087 249.655 96.2478 250.371 96.9637L252.963 99.5561C253.679 100.272 254.84 100.272 255.556 99.5561C256.272 98.8401 256.272 97.6793 255.556 96.9633L252.964 94.371Z" fill="#111111"/>
<path d="M255.558 68.4458C256.274 69.1618 256.274 70.3226 255.558 71.0386L252.966 73.6309C252.25 74.3469 251.089 74.3469 250.373 73.6309C249.657 72.9149 249.657 71.7541 250.373 71.0382L252.965 68.4458C253.681 67.7299 254.842 67.7299 255.558 68.4458Z" fill="#111111"/>
<path d="M227.037 68.4458C226.321 67.7299 225.16 67.7299 224.444 68.4458C223.728 69.1618 223.728 70.3226 224.444 71.0386L227.036 73.6309C227.752 74.3469 228.913 74.3469 229.629 73.6309C230.345 72.9149 230.345 71.7541 229.629 71.0382L227.037 68.4458Z" fill="#111111"/>
</g>
</g>
</g>
</g>
<defs>
<clipPath id="clip0_7754_1257">
<rect width="264" height="108" rx="5" fill="white"/>
</clipPath>
<clipPath id="clip1_7754_1257">
<rect width="12" height="12" fill="white" transform="translate(0 18)"/>
</clipPath>
<clipPath id="clip2_7754_1257">
<rect width="16" height="16" fill="white" transform="translate(24 16)"/>
</clipPath>
<clipPath id="clip3_7754_1257">
<rect width="20" height="20" fill="white" transform="translate(52 14)"/>
</clipPath>
<clipPath id="clip4_7754_1257">
<rect width="24" height="24" fill="white" transform="translate(84 12)"/>
</clipPath>
<clipPath id="clip5_7754_1257">
<rect width="32" height="32" fill="white" transform="translate(120 8)"/>
</clipPath>
<clipPath id="clip6_7754_1257">
<rect width="40" height="40" fill="white" transform="translate(164 4)"/>
</clipPath>
<clipPath id="clip7_7754_1257">
<rect width="48" height="48" fill="white" transform="translate(216)"/>
</clipPath>
<clipPath id="clip8_7754_1257">
<rect width="12" height="12" fill="white" transform="translate(0 78)"/>
</clipPath>
<clipPath id="clip9_7754_1257">
<rect width="16" height="16" fill="white" transform="translate(24 76)"/>
</clipPath>
<clipPath id="clip10_7754_1257">
<rect width="20" height="20" fill="white" transform="translate(52 74)"/>
</clipPath>
</defs>
</svg>
