<svg width="264" height="108" viewBox="0 0 264 108" fill="none" xmlns="http://www.w3.org/2000/svg">
<g id="Toilet">
<g clip-path="url(#clip0_7887_208)">
<g id="Size=12px, Filled=false">
<g id="Vector">
<path fill-rule="evenodd" clip-rule="evenodd" d="M4.17912 24.3486H1.99217C1.58956 24.3486 1.26318 24.0353 1.26318 23.6488V19.4498C1.26318 19.0633 1.58956 18.75 1.99217 18.75H3.45014C3.85275 18.75 4.17912 19.0633 4.17912 19.4498V24.3486Z" stroke="#111111" stroke-width="0.75" stroke-linecap="round" stroke-linejoin="round"/>
<path fill-rule="evenodd" clip-rule="evenodd" d="M10.011 22.9502C10.4136 22.9502 10.74 23.2635 10.74 23.65C10.74 24.0365 10.4136 24.3499 10.011 24.3499H4.17912V22.9502H10.011Z" stroke="#111111" stroke-width="0.75" stroke-linecap="round" stroke-linejoin="round"/>
<path fill-rule="evenodd" clip-rule="evenodd" d="M2.98845 25.6786C2.3941 25.4874 1.99355 24.953 1.99363 24.3512H10.011C10.0113 25.798 9.16643 27.1227 7.82405 27.7804L8.18854 29.25H3.45014V26.3481C3.45962 26.0535 3.27461 25.7852 2.98845 25.6786Z" stroke="#111111" stroke-width="0.75" stroke-linecap="round" stroke-linejoin="round"/>
</g>
</g>
<g id="Size=16px, Filled=false">
<g id="Vector_2">
<path fill-rule="evenodd" clip-rule="evenodd" d="M29.5722 24.4648H26.6562C26.1194 24.4648 25.6843 24.047 25.6843 23.5317V17.9331C25.6843 17.4178 26.1194 17 26.6562 17H28.6002C29.137 17 29.5722 17.4178 29.5722 17.9331V24.4648Z" stroke="#111111" stroke-linecap="round" stroke-linejoin="round"/>
<path fill-rule="evenodd" clip-rule="evenodd" d="M37.348 22.6003C37.8848 22.6003 38.32 23.018 38.32 23.5334C38.32 24.0487 37.8848 24.4665 37.348 24.4665H29.5722V22.6003H37.348Z" stroke="#111111" stroke-linecap="round" stroke-linejoin="round"/>
<path fill-rule="evenodd" clip-rule="evenodd" d="M27.9846 26.2381C27.1922 25.9832 26.6581 25.2706 26.6582 24.4683H37.348C37.3484 26.3973 36.2219 28.1637 34.4321 29.0405L34.9181 31H28.6002V27.1307C28.6128 26.738 28.3662 26.3803 27.9846 26.2381Z" stroke="#111111" stroke-linecap="round" stroke-linejoin="round"/>
</g>
</g>
<g id="Size=20px, Filled=false">
<g id="Vector_3">
<path fill-rule="evenodd" clip-rule="evenodd" d="M58.9652 24.581H55.3203C54.6493 24.581 54.1053 24.0588 54.1053 23.4146V16.4164C54.1053 15.7722 54.6493 15.25 55.3203 15.25H57.7503C58.4213 15.25 58.9652 15.7722 58.9652 16.4164V24.581Z" stroke="#111111" stroke-width="1.25" stroke-linecap="round" stroke-linejoin="round"/>
<path fill-rule="evenodd" clip-rule="evenodd" d="M68.685 22.2503C69.3561 22.2503 69.9 22.7725 69.9 23.4167C69.9 24.0609 69.3561 24.5831 68.685 24.5831H58.9652V22.2503H68.685Z" stroke="#111111" stroke-width="1.25" stroke-linecap="round" stroke-linejoin="round"/>
<path fill-rule="evenodd" clip-rule="evenodd" d="M56.9808 26.7976C55.9902 26.479 55.3226 25.5883 55.3228 24.5854H68.685C68.6855 26.9967 67.2774 29.2046 65.0401 30.3006L65.6476 32.75H57.7503V27.9134C57.7661 27.4225 57.4577 26.9754 56.9808 26.7976Z" stroke="#111111" stroke-width="1.25" stroke-linecap="round" stroke-linejoin="round"/>
</g>
</g>
<g id="Size=24px, Filled=false">
<g id="Vector_4">
<path fill-rule="evenodd" clip-rule="evenodd" d="M92.3582 24.6972H87.9843C87.1791 24.6972 86.5264 24.0706 86.5264 23.2976V14.8997C86.5264 14.1266 87.1791 13.5 87.9843 13.5H90.9003C91.7055 13.5 92.3582 14.1266 92.3582 14.8997V24.6972Z" stroke="#111111" stroke-width="1.5" stroke-linecap="round" stroke-linejoin="round"/>
<path fill-rule="evenodd" clip-rule="evenodd" d="M104.022 21.9004C104.827 21.9004 105.48 22.5271 105.48 23.3001C105.48 24.0731 104.827 24.6997 104.022 24.6997H92.3582V21.9004H104.022Z" stroke="#111111" stroke-width="1.5" stroke-linecap="round" stroke-linejoin="round"/>
<path fill-rule="evenodd" clip-rule="evenodd" d="M89.9769 27.3571C88.7882 26.9748 87.9871 25.9059 87.9873 24.7024H104.022C104.023 27.596 102.333 30.2455 99.6481 31.5607L100.377 34.5H90.9003V28.6961C90.9192 28.107 90.5492 27.5704 89.9769 27.3571Z" stroke="#111111" stroke-width="1.5" stroke-linecap="round" stroke-linejoin="round"/>
</g>
</g>
<g id="Size=32px, Filled=false">
<g id="Vector_5">
<path fill-rule="evenodd" clip-rule="evenodd" d="M131.144 24.9296H125.312C124.239 24.9296 123.369 24.0941 123.369 23.0634V11.8662C123.369 10.8355 124.239 10 125.312 10H129.2C130.274 10 131.144 10.8355 131.144 11.8662V24.9296Z" stroke="#111111" stroke-width="2" stroke-linecap="round" stroke-linejoin="round"/>
<path fill-rule="evenodd" clip-rule="evenodd" d="M146.696 21.2005C147.77 21.2005 148.64 22.0361 148.64 23.0667C148.64 24.0974 147.77 24.9329 146.696 24.9329H131.144V21.2005H146.696Z" stroke="#111111" stroke-width="2" stroke-linecap="round" stroke-linejoin="round"/>
<path fill-rule="evenodd" clip-rule="evenodd" d="M127.969 28.4762C126.384 27.9664 125.316 26.5412 125.316 24.9366H146.696C146.697 28.7947 144.444 32.3273 140.864 34.081L141.836 38H129.2V30.2615C129.226 29.476 128.732 28.7606 127.969 28.4762Z" stroke="#111111" stroke-width="2" stroke-linecap="round" stroke-linejoin="round"/>
</g>
</g>
<g id="Size=40px, Filled=false">
<g id="Vector_6">
<path fill-rule="evenodd" clip-rule="evenodd" d="M177.93 25.162H170.641C169.299 25.162 168.211 24.1176 168.211 22.8293V8.83275C168.211 7.54441 169.299 6.5 170.641 6.5H175.5C176.843 6.5 177.93 7.54441 177.93 8.83275V25.162Z" stroke="#111111" stroke-width="2.5" stroke-linecap="round" stroke-linejoin="round"/>
<path fill-rule="evenodd" clip-rule="evenodd" d="M197.37 20.5007C198.712 20.5007 199.8 21.5451 199.8 22.8334C199.8 24.1218 198.712 25.1662 197.37 25.1662H177.93V20.5007H197.37Z" stroke="#111111" stroke-width="2.5" stroke-linecap="round" stroke-linejoin="round"/>
<path fill-rule="evenodd" clip-rule="evenodd" d="M173.962 29.5952C171.98 28.958 170.645 27.1765 170.645 25.1707H197.37C197.371 29.9934 194.555 34.4091 190.08 36.6012L191.295 41.5H175.5V31.8269C175.532 30.845 174.915 29.9507 173.962 29.5952Z" stroke="#111111" stroke-width="2.5" stroke-linecap="round" stroke-linejoin="round"/>
</g>
</g>
<g id="Size=48px, Filled=false">
<g id="Vector_7">
<path fill-rule="evenodd" clip-rule="evenodd" d="M232.717 25.3944H223.969C222.358 25.3944 221.053 24.1411 221.053 22.5951V5.7993C221.053 4.25329 222.358 3 223.969 3H229.801C231.411 3 232.717 4.25329 232.717 5.7993V25.3944Z" stroke="#111111" stroke-width="3" stroke-linecap="round" stroke-linejoin="round"/>
<path fill-rule="evenodd" clip-rule="evenodd" d="M256.044 19.8008C257.654 19.8008 258.96 21.0541 258.96 22.6001C258.96 24.1461 257.654 25.3994 256.044 25.3994H232.717V19.8008H256.044Z" stroke="#111111" stroke-width="3" stroke-linecap="round" stroke-linejoin="round"/>
<path fill-rule="evenodd" clip-rule="evenodd" d="M227.954 30.7142C225.576 29.9496 223.974 27.8118 223.975 25.4049H256.044C256.045 31.192 252.666 36.491 247.296 39.1215L248.754 45H229.801V33.3922C229.839 32.214 229.098 31.1409 227.954 30.7142Z" stroke="#111111" stroke-width="3" stroke-linecap="round" stroke-linejoin="round"/>
</g>
</g>
<g id="Size=12px, Filled=true">
<g id="Vector_8">
<path d="M5.53126 84.2344C5.4691 84.2344 5.40949 84.2097 5.36554 84.1657C5.32158 84.1218 5.29689 84.0621 5.29689 84V83.0625C5.29689 83.0003 5.32158 82.9407 5.36554 82.8968C5.40949 82.8528 5.4691 82.8281 5.53126 82.8281H10.2188C10.3431 82.8281 10.4623 82.8775 10.5502 82.9654C10.6381 83.0533 10.6875 83.1725 10.6875 83.2969V83.7656C10.6875 83.8899 10.6381 84.0092 10.5502 84.0971C10.4623 84.185 10.3431 84.2344 10.2188 84.2344H5.53126Z" fill="#111111"/>
<path d="M2.4844 78.375H3.42189C3.73269 78.375 4.03076 78.4985 4.25053 78.7182C4.4703 78.938 4.59377 79.2361 4.59377 79.5469V84.2344C4.59377 84.4208 4.66785 84.5997 4.79971 84.7315C4.93157 84.8634 5.11041 84.9375 5.29689 84.9375H9.98438C10.0465 84.9375 10.1062 84.9622 10.1501 85.0061C10.1941 85.0501 10.2188 85.1097 10.2188 85.1719C10.2188 86.8125 8.93907 87.1406 8.26407 87.239C8.20294 87.2476 8.14751 87.2796 8.10938 87.3281C8.09018 87.3532 8.07615 87.3819 8.0681 87.4125C8.06005 87.443 8.05815 87.4749 8.06251 87.5062L8.30157 89.0859C8.31177 89.1531 8.30723 89.2217 8.28829 89.2869C8.26934 89.3522 8.23644 89.4126 8.19185 89.4638C8.14726 89.5151 8.09206 89.5561 8.03006 89.5839C7.96807 89.6117 7.90077 89.6257 7.83282 89.625H3.65627C3.53195 89.625 3.41272 89.5756 3.32481 89.4877C3.23691 89.3998 3.18752 89.2805 3.18752 89.1562V87.4219C3.18752 86.7328 2.71877 86.3859 2.25002 86.0156C1.78127 85.6453 1.31252 85.3265 1.31252 84.7031V79.5469C1.31252 79.2361 1.43599 78.938 1.65576 78.7182C1.87553 78.4985 2.1736 78.375 2.4844 78.375Z" fill="#111111"/>
</g>
</g>
<g id="Size=16px, Filled=true">
<g id="Vector_9">
<path d="M31.375 84.3125C31.2921 84.3125 31.2127 84.2796 31.154 84.221C31.0954 84.1623 31.0625 84.0829 31.0625 84V82.75C31.0625 82.6671 31.0954 82.5876 31.154 82.529C31.2127 82.4704 31.2921 82.4375 31.375 82.4375H37.625C37.7908 82.4375 37.9497 82.5033 38.0669 82.6205C38.1842 82.7378 38.25 82.8967 38.25 83.0625V83.6875C38.25 83.8532 38.1842 84.0122 38.0669 84.1294C37.9497 84.2466 37.7908 84.3125 37.625 84.3125H31.375Z" fill="#111111"/>
<path d="M27.3125 76.5H28.5625C28.9769 76.5 29.3744 76.6646 29.6674 76.9576C29.9604 77.2507 30.125 77.6481 30.125 78.0625V84.3125C30.125 84.5611 30.2238 84.7996 30.3996 84.9754C30.5754 85.1512 30.8139 85.25 31.0625 85.25H37.3125C37.3954 85.25 37.4749 85.2829 37.5335 85.3415C37.5921 85.4001 37.625 85.4796 37.625 85.5625C37.625 87.75 35.9188 88.1875 35.0188 88.3187C34.9373 88.3302 34.8633 88.3727 34.8125 88.4375C34.7869 88.471 34.7682 88.5092 34.7575 88.55C34.7467 88.5907 34.7442 88.6332 34.75 88.675L35.0688 90.7812C35.0824 90.8708 35.0763 90.9623 35.0511 91.0493C35.0258 91.1363 34.9819 91.2167 34.9225 91.2851C34.863 91.3535 34.7894 91.4081 34.7068 91.4452C34.6241 91.4823 34.5344 91.501 34.4438 91.5H28.875C28.7093 91.5 28.5503 91.4341 28.4331 91.3169C28.3159 91.1997 28.25 91.0407 28.25 90.875V88.5625C28.25 87.6437 27.625 87.1812 27 86.6875C26.375 86.1937 25.75 85.7687 25.75 84.9375V78.0625C25.75 77.6481 25.9147 77.2507 26.2077 76.9576C26.5007 76.6646 26.8981 76.5 27.3125 76.5Z" fill="#111111"/>
</g>
</g>
<g id="Size=20px, Filled=true">
<g id="Vector_10">
<path d="M61.2188 84.3906C61.1152 84.3906 61.0158 84.3494 60.9426 84.2762C60.8693 84.2029 60.8281 84.1036 60.8281 84V82.4375C60.8281 82.3339 60.8693 82.2345 60.9426 82.1613C61.0158 82.088 61.1152 82.0469 61.2188 82.0469H69.0313C69.2385 82.0469 69.4372 82.1292 69.5837 82.2757C69.7302 82.4222 69.8125 82.6209 69.8125 82.8281V83.6094C69.8125 83.8166 69.7302 84.0153 69.5837 84.1618C69.4372 84.3083 69.2385 84.3906 69.0313 84.3906H61.2188Z" fill="#111111"/>
<path d="M56.1407 74.625H57.7032C58.2212 74.625 58.7179 74.8308 59.0842 75.1971C59.4505 75.5633 59.6563 76.0601 59.6563 76.5781V84.3906C59.6563 84.7014 59.7797 84.9995 59.9995 85.2192C60.2193 85.439 60.5173 85.5625 60.8281 85.5625H68.6406C68.7442 85.5625 68.8436 85.6036 68.9168 85.6769C68.9901 85.7501 69.0313 85.8495 69.0313 85.9531C69.0313 88.6875 66.8984 89.2343 65.7734 89.3984C65.6716 89.4127 65.5792 89.4659 65.5156 89.5468C65.4836 89.5887 65.4602 89.6365 65.4468 89.6874C65.4334 89.7384 65.4303 89.7915 65.4375 89.8437L65.8359 92.4765C65.8529 92.5885 65.8454 92.7028 65.8138 92.8116C65.7822 92.9203 65.7274 93.0209 65.6531 93.1064C65.5788 93.1919 65.4868 93.2601 65.3834 93.3065C65.2801 93.3529 65.1679 93.3762 65.0547 93.375H58.0938C57.8866 93.375 57.6879 93.2926 57.5414 93.1461C57.3948 92.9996 57.3125 92.8009 57.3125 92.5937V89.7031C57.3125 88.5547 56.5313 87.9765 55.75 87.3593C54.9688 86.7422 54.1875 86.2109 54.1875 85.1718V76.5781C54.1875 76.0601 54.3933 75.5633 54.7596 75.1971C55.1259 74.8308 55.6227 74.625 56.1407 74.625Z" fill="#111111"/>
</g>
</g>
<g id="Size=24px, Filled=true">
<g id="Vector_11">
<path d="M95.0625 84.4687C94.9382 84.4687 94.819 84.4193 94.7311 84.3314C94.6432 84.2435 94.5938 84.1243 94.5938 84V82.125C94.5938 82.0007 94.6432 81.8814 94.7311 81.7935C94.819 81.7056 94.9382 81.6562 95.0625 81.6562H104.438C104.686 81.6562 104.925 81.755 105.1 81.9308C105.276 82.1066 105.375 82.3451 105.375 82.5937V83.5312C105.375 83.7799 105.276 84.0183 105.1 84.1941C104.925 84.3699 104.686 84.4687 104.438 84.4687H95.0625Z" fill="#111111"/>
<path d="M88.9688 72.75H90.8438C91.4654 72.75 92.0615 72.9969 92.5011 73.4365C92.9406 73.876 93.1875 74.4721 93.1875 75.0937V84.4687C93.1875 84.8417 93.3357 85.1994 93.5994 85.4631C93.8631 85.7268 94.2208 85.875 94.5938 85.875H103.969C104.093 85.875 104.212 85.9244 104.3 86.0123C104.388 86.1002 104.438 86.2194 104.438 86.3437C104.438 89.625 101.878 90.2812 100.528 90.4781C100.406 90.4953 100.295 90.5591 100.219 90.6562C100.18 90.7064 100.152 90.7638 100.136 90.8249C100.12 90.8861 100.116 90.9498 100.125 91.0125L100.603 94.1718C100.624 94.3062 100.614 94.4434 100.577 94.5739C100.539 94.7044 100.473 94.8251 100.384 94.9277C100.295 95.0302 100.184 95.1122 100.06 95.1678C99.9361 95.2235 99.8015 95.2515 99.6656 95.2499H91.3125C91.0639 95.2499 90.8254 95.1512 90.6496 94.9754C90.4738 94.7995 90.375 94.5611 90.375 94.3124V90.8437C90.375 89.4656 89.4375 88.7718 88.5 88.0312C87.5625 87.2906 86.625 86.6531 86.625 85.4062V75.0937C86.625 74.4721 86.872 73.876 87.3115 73.4365C87.7511 72.9969 88.3472 72.75 88.9688 72.75Z" fill="#111111"/>
</g>
</g>
<g id="Size=32px, Filled=true">
<g id="Vector_12">
<path d="M134.75 84.625C134.584 84.625 134.425 84.5591 134.308 84.4419C134.191 84.3247 134.125 84.1657 134.125 84V81.5C134.125 81.3342 134.191 81.1752 134.308 81.058C134.425 80.9408 134.584 80.875 134.75 80.875H147.25C147.582 80.875 147.899 81.0067 148.134 81.2411C148.368 81.4755 148.5 81.7934 148.5 82.125V83.375C148.5 83.7065 148.368 84.0244 148.134 84.2588C147.899 84.4933 147.582 84.625 147.25 84.625H134.75Z" fill="#111111"/>
<path d="M126.625 69H129.125C129.954 69 130.749 69.3292 131.335 69.9153C131.921 70.5013 132.25 71.2962 132.25 72.125V84.625C132.25 85.1222 132.448 85.5992 132.799 85.9508C133.151 86.3024 133.628 86.5 134.125 86.5H146.625C146.791 86.5 146.95 86.5658 147.067 86.683C147.184 86.8002 147.25 86.9592 147.25 87.125C147.25 91.4999 143.838 92.3749 142.038 92.6374C141.875 92.6604 141.727 92.7455 141.625 92.8749C141.574 92.9419 141.536 93.0184 141.515 93.0999C141.493 93.1815 141.488 93.2664 141.5 93.3499L142.138 97.5624C142.165 97.7416 142.153 97.9245 142.102 98.0985C142.052 98.2725 141.964 98.4335 141.845 98.5702C141.726 98.707 141.579 98.8162 141.414 98.8904C141.248 98.9646 141.069 99.002 140.888 98.9999H129.75C129.419 98.9999 129.101 98.8682 128.866 98.6338C128.632 98.3994 128.5 98.0814 128.5 97.7499V93.1249C128.5 91.2874 127.25 90.3624 126 89.3749C124.75 88.3874 123.5 87.5375 123.5 85.875V72.125C123.5 71.2962 123.829 70.5013 124.415 69.9153C125.001 69.3292 125.796 69 126.625 69Z" fill="#111111"/>
</g>
</g>
<g id="Size=40px, Filled=true">
<g id="Vector_13">
<path d="M182.438 84.7812C182.23 84.7812 182.032 84.6989 181.885 84.5524C181.739 84.4059 181.656 84.2071 181.656 84V80.875C181.656 80.6678 181.739 80.469 181.885 80.3225C182.032 80.176 182.23 80.0937 182.438 80.0937H198.063C198.477 80.0937 198.874 80.2583 199.167 80.5514C199.46 80.8444 199.625 81.2418 199.625 81.6562V83.2187C199.625 83.6331 199.46 84.0305 199.167 84.3236C198.874 84.6166 198.477 84.7812 198.063 84.7812H182.438Z" fill="#111111"/>
<path d="M172.281 65.25H175.406C176.442 65.25 177.436 65.6615 178.168 66.3941C178.901 67.1267 179.313 68.1202 179.313 69.1562V84.7812C179.313 85.4028 179.559 85.9989 179.999 86.4385C180.439 86.878 181.035 87.1249 181.656 87.1249H197.281C197.488 87.1249 197.687 87.2073 197.834 87.3538C197.98 87.5003 198.063 87.699 198.063 87.9062C198.063 93.3749 193.797 94.4687 191.547 94.7968C191.343 94.8255 191.158 94.9319 191.031 95.0937C190.967 95.1774 190.92 95.273 190.894 95.3749C190.867 95.4768 190.861 95.583 190.875 95.6874L191.672 100.953C191.706 101.177 191.691 101.406 191.628 101.623C191.564 101.841 191.455 102.042 191.306 102.213C191.158 102.384 190.974 102.52 190.767 102.613C190.56 102.706 190.336 102.752 190.109 102.75H176.188C175.773 102.75 175.376 102.585 175.083 102.292C174.79 101.999 174.625 101.602 174.625 101.187V95.4062C174.625 93.1093 173.063 91.9531 171.5 90.7187C169.938 89.4843 168.375 88.4218 168.375 86.3437V69.1562C168.375 68.1202 168.787 67.1267 169.519 66.3941C170.252 65.6615 171.245 65.25 172.281 65.25Z" fill="#111111"/>
</g>
</g>
<g id="Size=48px, Filled=true">
<g id="Vector_14">
<path d="M238.125 84.9374C237.876 84.9374 237.638 84.8387 237.462 84.6629C237.286 84.487 237.188 84.2486 237.188 83.9999V80.25C237.188 80.0013 237.286 79.7629 237.462 79.587C237.638 79.4112 237.876 79.3125 238.125 79.3125H256.875C257.372 79.3125 257.849 79.51 258.201 79.8616C258.552 80.2133 258.75 80.6902 258.75 81.1874V83.0624C258.75 83.5597 258.552 84.0366 258.201 84.3883C257.849 84.7399 257.372 84.9374 256.875 84.9374H238.125Z" fill="#111111"/>
<path d="M225.938 61.5H229.688C230.931 61.5 232.123 61.9939 233.002 62.8729C233.881 63.752 234.375 64.9443 234.375 66.1875V84.9374C234.375 85.6834 234.671 86.3987 235.199 86.9262C235.726 87.4536 236.442 87.7499 237.188 87.7499H255.938C256.186 87.7499 256.425 87.8487 256.6 88.0245C256.776 88.2003 256.875 88.4388 256.875 88.6874C256.875 95.2499 251.756 96.5624 249.056 96.9562C248.812 96.9906 248.59 97.1182 248.438 97.3124C248.361 97.4129 248.305 97.5276 248.272 97.6499C248.24 97.7722 248.233 97.8996 248.25 98.0249L249.206 104.344C249.247 104.612 249.229 104.887 249.153 105.148C249.077 105.409 248.946 105.65 248.767 105.855C248.589 106.06 248.368 106.224 248.12 106.336C247.872 106.447 247.603 106.503 247.331 106.5H230.625C230.128 106.5 229.651 106.302 229.299 105.951C228.948 105.599 228.75 105.122 228.75 104.625V97.6874C228.75 94.9312 226.875 93.5437 225 92.0624C223.125 90.5812 221.25 89.3062 221.25 86.8124V66.1875C221.25 64.9443 221.744 63.752 222.623 62.8729C223.502 61.9939 224.694 61.5 225.938 61.5Z" fill="#111111"/>
</g>
</g>
</g>
</g>
<defs>
<clipPath id="clip0_7887_208">
<rect width="264" height="108" rx="5" fill="white"/>
</clipPath>
</defs>
</svg>
