<svg width="264" height="108" viewBox="0 0 264 108" fill="none" xmlns="http://www.w3.org/2000/svg">
<g id="Touch ID">
<g clip-path="url(#clip0_4350_411)">
<g id="Size=12px, Filled=false" clip-path="url(#clip1_4350_411)">
<path id="Vector" d="M6 29.75C7.19347 29.75 8.33807 29.2759 9.18198 28.432C10.0259 27.5881 10.5 26.4435 10.5 25.25V22.75C10.5014 21.6427 10.093 20.5741 9.3535 19.75M1.5 23.75V25.25C1.49976 26.1351 1.76052 27.0006 2.24966 27.7382C2.7388 28.4758 3.4346 29.0528 4.25 29.397M8.25081 18.853C7.58509 18.4687 6.83201 18.2613 6.06338 18.2506C5.29475 18.2399 4.5362 18.4263 3.86006 18.792C3.18391 19.1577 2.61272 19.6905 2.20095 20.3396C1.78917 20.9887 1.55054 21.7325 1.50781 22.5M4.75 20.022C5.20711 19.8125 5.70954 19.7212 6.21113 19.7566C6.71272 19.792 7.19737 19.9529 7.62053 20.2245C8.04369 20.4961 8.39179 20.8698 8.63284 21.3111C8.87388 21.7524 9.00014 22.2472 9 22.75V25.25C9.00011 25.503 8.96836 25.755 8.9055 26M8.236 27.25C7.83095 27.7028 7.29795 28.022 6.70752 28.1653C6.1171 28.3086 5.49709 28.2692 4.92952 28.0524C4.36196 27.8356 3.87359 27.4516 3.52905 26.9512C3.1845 26.4508 3.00002 25.8576 3 25.25V22.75C2.99903 22.0119 3.27116 21.2995 3.764 20.75M4.5 25.25C4.5 25.6478 4.65804 26.0294 4.93934 26.3107C5.22064 26.592 5.60218 26.75 6 26.75C6.39782 26.75 6.77936 26.592 7.06066 26.3107C7.34197 26.0294 7.5 25.6478 7.5 25.25V22.75C7.5 22.3522 7.34197 21.9706 7.06066 21.6893C6.77936 21.408 6.39782 21.25 6 21.25C5.60218 21.25 5.22064 21.408 4.93934 21.6893C4.65804 21.9706 4.5 22.3522 4.5 22.75V24.25M6 22.5L6 25.5" stroke="#111111" stroke-width="0.75" stroke-linecap="round" stroke-linejoin="round"/>
</g>
<g id="Size=16px, Filled=false" clip-path="url(#clip2_4350_411)">
<path id="Vector_2" d="M32 31.6667C33.5913 31.6667 35.1174 31.0345 36.2426 29.9093C37.3679 28.7841 38 27.258 38 25.6667V22.3333C38.0019 20.857 37.4573 19.4321 36.4713 18.3333M26 23.6667V25.6667C25.9997 26.8467 26.3474 28.0007 26.9996 28.9842C27.6517 29.9677 28.5795 30.7371 29.6667 31.196M35.0011 17.1373C34.1135 16.6249 33.1093 16.3483 32.0845 16.3341C31.0597 16.3199 30.0483 16.5684 29.1467 17.056C28.2452 17.5436 27.4836 18.254 26.9346 19.1195C26.3856 19.985 26.0674 20.9767 26.0104 22M30.3333 18.696C30.9428 18.4166 31.6127 18.295 32.2815 18.3421C32.9503 18.3893 33.5965 18.6039 34.1607 18.966C34.7249 19.3282 35.1891 19.8264 35.5105 20.4147C35.8318 21.0031 36.0002 21.6629 36 22.3333V25.6667C36.0001 26.004 35.9578 26.3399 35.874 26.6667M34.9813 28.3333C34.4413 28.9371 33.7306 29.3627 32.9434 29.5537C32.1561 29.7448 31.3295 29.6923 30.5727 29.4032C29.8159 29.1142 29.1648 28.6022 28.7054 27.9349C28.246 27.2677 28 26.4767 28 25.6667V22.3333C27.9987 21.3492 28.3616 20.3993 29.0187 19.6667M30 25.6667C30 26.1971 30.2107 26.7058 30.5858 27.0809C30.9609 27.4559 31.4696 27.6667 32 27.6667C32.5304 27.6667 33.0391 27.4559 33.4142 27.0809C33.7893 26.7058 34 26.1971 34 25.6667V22.3333C34 21.8029 33.7893 21.2942 33.4142 20.9191C33.0391 20.544 32.5304 20.3333 32 20.3333C31.4696 20.3333 30.9609 20.544 30.5858 20.9191C30.2107 21.2942 30 21.8029 30 22.3333V24.3333M32 22L32 26" stroke="#111111" stroke-linecap="round" stroke-linejoin="round"/>
</g>
<g id="Size=20px, Filled=false" clip-path="url(#clip3_4350_411)">
<path id="Vector_3" d="M62 33.5833C63.9891 33.5833 65.8968 32.7932 67.3033 31.3866C68.7098 29.9801 69.5 28.0725 69.5 26.0833V21.9167C69.5023 20.0712 68.8217 18.2902 67.5892 16.9167M54.5 23.5833V26.0833C54.4996 27.5585 54.9342 29.0009 55.7494 30.2303C56.5647 31.4597 57.7243 32.4214 59.0833 32.995M65.7514 15.4217C64.6418 14.7811 63.3867 14.4355 62.1056 14.4177C60.8246 14.3999 59.5603 14.7105 58.4334 15.32C57.3065 15.9295 56.3545 16.8175 55.6682 17.8994C54.982 18.9812 54.5842 20.2208 54.513 21.5M59.9167 17.37C60.6785 17.0208 61.5159 16.8687 62.3519 16.9277C63.1879 16.9867 63.9956 17.2548 64.7009 17.7075C65.4062 18.1602 65.9863 18.783 66.3881 19.5185C66.7898 20.2539 67.0002 21.0786 67 21.9167V26.0833C67.0002 26.505 66.9473 26.9249 66.8425 27.3333M65.7267 29.4167C65.0516 30.1714 64.1632 30.7034 63.1792 30.9422C62.1952 31.181 61.1618 31.1154 60.2159 30.7541C59.2699 30.3927 58.456 29.7527 57.8817 28.9187C57.3075 28.0847 57 27.0959 57 26.0833V21.9167C56.9984 20.6865 57.4519 19.4992 58.2733 18.5833M59.5 26.0833C59.5 26.7464 59.7634 27.3823 60.2322 27.8511C60.7011 28.32 61.337 28.5833 62 28.5833C62.663 28.5833 63.2989 28.32 63.7678 27.8511C64.2366 27.3823 64.5 26.7464 64.5 26.0833V21.9167C64.5 21.2536 64.2366 20.6178 63.7678 20.1489C63.2989 19.6801 62.663 19.4167 62 19.4167C61.337 19.4167 60.7011 19.6801 60.2322 20.1489C59.7634 20.6178 59.5 21.2536 59.5 21.9167V24.4167M62 21.5L62 26.5" stroke="#111111" stroke-width="1.25" stroke-linecap="round" stroke-linejoin="round"/>
</g>
<g id="Size=24px, Filled=false" clip-path="url(#clip4_4350_411)">
<path id="Vector_4" d="M96 35.5C98.3869 35.5 100.676 34.5518 102.364 32.864C104.052 31.1761 105 28.8869 105 26.5V21.5C105.003 19.2855 104.186 17.1482 102.707 15.5M87 23.5V26.5C86.9995 28.2701 87.521 30.0011 88.4993 31.4764C89.4776 32.9516 90.8692 34.1056 92.5 34.794M100.502 13.706C99.1702 12.9373 97.664 12.5225 96.1268 12.5012C94.5895 12.4798 93.0724 12.8526 91.7201 13.584C90.3678 14.3154 89.2254 15.381 88.4019 16.6792C87.5783 17.9774 87.1011 19.465 87.0156 21M93.5 16.044C94.4142 15.625 95.4191 15.4425 96.4223 15.5132C97.4254 15.584 98.3947 15.9058 99.2411 16.449C100.087 16.9923 100.784 17.7395 101.266 18.6221C101.748 19.5047 102 20.4943 102 21.5V26.5C102 27.0059 101.937 27.5099 101.811 28M100.472 30.5C99.6619 31.4057 98.5959 32.044 97.415 32.3306C96.2342 32.6172 94.9942 32.5385 93.859 32.1049C92.7239 31.6713 91.7472 30.9033 91.0581 29.9024C90.369 28.9016 90 27.7151 90 26.5V21.5C89.9981 20.0238 90.5423 18.599 91.528 17.5M93 26.5C93 27.2956 93.3161 28.0587 93.8787 28.6213C94.4413 29.1839 95.2044 29.5 96 29.5C96.7956 29.5 97.5587 29.1839 98.1213 28.6213C98.6839 28.0587 99 27.2956 99 26.5V21.5C99 20.7044 98.6839 19.9413 98.1213 19.3787C97.5587 18.8161 96.7956 18.5 96 18.5C95.2044 18.5 94.4413 18.8161 93.8787 19.3787C93.3161 19.9413 93 20.7044 93 21.5V24.5M96 21V27" stroke="#111111" stroke-width="1.5" stroke-linecap="round" stroke-linejoin="round"/>
</g>
<g id="Size=32px, Filled=false" clip-path="url(#clip5_4350_411)">
<path id="Vector_5" d="M136 39.3333C139.183 39.3333 142.235 38.0691 144.485 35.8186C146.736 33.5682 148 30.5159 148 27.3333V20.6667C148.004 17.714 146.915 14.8643 144.943 12.6667M124 23.3333V27.3333C123.999 29.6935 124.695 32.0015 125.999 33.9685C127.303 35.9355 129.159 37.4742 131.333 38.392M142.002 10.2747C140.227 9.2498 138.219 8.69673 136.169 8.66824C134.119 8.63976 132.097 9.13681 130.293 10.112C128.49 11.0872 126.967 12.508 125.869 14.239C124.771 15.9699 124.135 17.9533 124.021 20M132.667 13.392C133.886 12.8333 135.225 12.5899 136.563 12.6843C137.901 12.7787 139.193 13.2077 140.321 13.9321C141.45 14.6564 142.378 15.6527 143.021 16.8295C143.664 18.0063 144 19.3258 144 20.6667V27.3333C144 28.0079 143.916 28.6799 143.748 29.3333M141.963 32.6667C140.883 33.8742 139.461 34.7254 137.887 35.1075C136.312 35.4896 134.659 35.3846 133.145 34.8065C131.632 34.2284 130.33 33.2044 129.411 31.8699C128.492 30.5355 128 28.9535 128 27.3333V20.6667C127.997 18.6983 128.723 16.7986 130.037 15.3333M132 27.3333C132 28.3942 132.421 29.4116 133.172 30.1618C133.922 30.9119 134.939 31.3333 136 31.3333C137.061 31.3333 138.078 30.9119 138.828 30.1618C139.579 29.4116 140 28.3942 140 27.3333V20.6667C140 19.6058 139.579 18.5884 138.828 17.8383C138.078 17.0881 137.061 16.6667 136 16.6667C134.939 16.6667 133.922 17.0881 133.172 17.8383C132.421 18.5884 132 19.6058 132 20.6667V24.6667M136 20L136 28" stroke="#111111" stroke-width="2" stroke-linecap="round" stroke-linejoin="round"/>
</g>
<g id="Size=40px, Filled=false" clip-path="url(#clip6_4350_411)">
<path id="Vector_6" d="M184 43.1667C187.978 43.1667 191.794 41.5863 194.607 38.7733C197.42 35.9602 199 32.1449 199 28.1667V19.8333C199.005 16.1424 197.643 12.5804 195.178 9.83332M169 23.1667V28.1667C168.999 31.1169 169.868 34.0018 171.499 36.4606C173.129 38.9193 175.449 40.8427 178.167 41.99M191.503 6.84337C189.284 5.56222 186.773 4.87088 184.211 4.83528C181.649 4.79968 179.121 5.42099 176.867 6.63998C174.613 7.85897 172.709 9.635 171.336 11.7987C169.964 13.9624 169.168 16.4417 169.026 19M179.833 10.74C181.357 10.0416 183.032 9.73741 184.704 9.85537C186.376 9.97334 187.991 10.5097 189.402 11.4151C190.812 12.3205 191.973 13.5659 192.776 15.0369C193.58 16.5079 194 18.1572 194 19.8333V28.1667C194 29.0099 193.895 29.8498 193.685 30.6667M191.453 34.8333C190.103 36.3428 188.326 37.4067 186.358 37.8843C184.39 38.3619 182.324 38.2308 180.432 37.5081C178.54 36.7855 176.912 35.5054 175.763 33.8374C174.615 32.1693 174 30.1919 174 28.1667V19.8333C173.997 17.3729 174.904 14.9983 176.547 13.1667M179 28.1667C179 29.4927 179.527 30.7645 180.464 31.7022C181.402 32.6399 182.674 33.1667 184 33.1667C185.326 33.1667 186.598 32.6399 187.536 31.7022C188.473 30.7645 189 29.4927 189 28.1667V19.8333C189 18.5072 188.473 17.2355 187.536 16.2978C186.598 15.3601 185.326 14.8333 184 14.8333C182.674 14.8333 181.402 15.3601 180.464 16.2978C179.527 17.2355 179 18.5072 179 19.8333V24.8333M184 19L184 29" stroke="#111111" stroke-width="2.5" stroke-linecap="round" stroke-linejoin="round"/>
</g>
<g id="Size=48px, Filled=false" clip-path="url(#clip7_4350_411)">
<path id="Vector_7" d="M240 47C244.774 47 249.352 45.1036 252.728 41.7279C256.104 38.3523 258 33.7739 258 29V19C258.006 14.5709 256.372 10.2965 253.414 7M222 23V29C221.999 32.5403 223.042 36.0022 224.999 38.9527C226.955 41.9032 229.738 44.2112 233 45.588M249.003 3.41206C246.34 1.87468 243.328 1.04507 240.254 1.00235C237.179 0.959624 234.145 1.7052 231.44 3.16799C228.736 4.63078 226.451 6.76201 224.804 9.35845C223.157 11.9549 222.202 14.93 222.031 18.0001M235 8.088C236.828 7.24994 238.838 6.88491 240.845 7.02646C242.851 7.16802 244.789 7.81161 246.482 8.89809C248.175 9.98457 249.567 11.4791 250.531 13.2443C251.496 15.0094 252.001 16.9887 252 19V29C252 30.0119 251.873 31.0198 251.622 32M248.944 37C247.324 38.8113 245.192 40.088 242.83 40.6612C240.468 41.2343 237.988 41.0769 235.718 40.2097C233.448 39.3426 231.494 37.8065 230.116 35.8049C228.738 33.8032 228 31.4302 228 29V19C227.996 16.0475 229.085 13.198 231.056 11M234 29C234 30.5913 234.632 32.1174 235.757 33.2426C236.883 34.3679 238.409 35 240 35C241.591 35 243.117 34.3679 244.243 33.2426C245.368 32.1174 246 30.5913 246 29V19C246 17.4087 245.368 15.8826 244.243 14.7574C243.117 13.6321 241.591 13 240 13C238.409 13 236.883 13.6321 235.757 14.7574C234.632 15.8826 234 17.4087 234 19V25M240 18L240 30" stroke="#111111" stroke-width="3" stroke-linecap="round" stroke-linejoin="round"/>
</g>
<g id="Size=12px, Filled=true">
<path id="Vector_8" d="M6 79C5.0111 79 4.0444 79.2932 3.22215 79.8427C2.3999 80.3921 1.75904 81.173 1.3806 82.0866C1.00217 83.0002 0.90315 84.0055 1.09608 84.9755C1.289 85.9454 1.76521 86.8363 2.46447 87.5355C3.16373 88.2348 4.05465 88.711 5.02455 88.9039C5.99446 89.0969 6.99979 88.9978 7.91342 88.6194C8.82705 88.241 9.60794 87.6001 10.1573 86.7779C10.7068 85.9556 11 84.9889 11 84C10.9986 82.6744 10.4713 81.4034 9.53395 80.466C8.59658 79.5287 7.32564 79.0014 6 79ZM3.60417 83.5833C3.60414 83.1501 3.7216 82.7249 3.94403 82.3531C4.16647 81.9813 4.48556 81.6768 4.86734 81.472C5.24912 81.2672 5.67929 81.1697 6.11207 81.19C6.54485 81.2102 6.96404 81.3475 7.325 81.5871L6.97917 82.1075C6.71232 81.9306 6.4025 81.8293 6.08267 81.8144C5.76284 81.7996 5.44496 81.8717 5.16284 82.0231C4.88073 82.1745 4.64492 82.3995 4.48052 82.6743C4.31611 82.949 4.22925 83.2632 4.22917 83.5833V83.7571H3.60417V83.5833ZM5.17917 86.6517L4.7375 86.2083L6.1075 84.8383C6.19484 84.7515 6.26407 84.6482 6.3112 84.5344C6.35834 84.4206 6.38243 84.2986 6.38209 84.1754V83.5833C6.38209 83.482 6.34183 83.3848 6.27018 83.3132C6.19852 83.2415 6.10134 83.2013 6 83.2013C5.89867 83.2013 5.80148 83.2415 5.72983 83.3132C5.65817 83.3848 5.61792 83.482 5.61792 83.5833V84.0696C5.61796 84.1524 5.58514 84.2318 5.52667 84.2904L3.60375 86.2133L3.16167 85.7713L4.995 83.9379V83.5833C4.995 83.3162 5.10111 83.0601 5.28997 82.8712C5.47884 82.6824 5.73499 82.5763 6.00209 82.5763C6.26918 82.5763 6.52534 82.6824 6.7142 82.8712C6.90307 83.0601 7.00917 83.3162 7.00917 83.5833V84.1767C7.00962 84.382 6.96935 84.5854 6.89068 84.7751C6.812 84.9647 6.6965 85.1369 6.55084 85.2817L5.17917 86.6517ZM8.39584 84.3533C8.39684 84.7228 8.32456 85.0888 8.18316 85.4302C8.04176 85.7716 7.83406 86.0815 7.57209 86.3421L7.05417 86.86L6.6125 86.4167L7.13 85.8992C7.3338 85.6965 7.49537 85.4554 7.60537 85.1898C7.71537 84.9243 7.77161 84.6395 7.77084 84.3521V83.5833C7.77133 83.2351 7.66868 82.8945 7.47584 82.6046L7.99667 82.2588C8.25753 82.6512 8.39642 83.1121 8.39584 83.5833V84.3533Z" fill="#111111"/>
</g>
<g id="Size=16px, Filled=true">
<path id="Vector_9" d="M32 77.3333C30.6815 77.3333 29.3926 77.7243 28.2962 78.4568C27.1999 79.1894 26.3454 80.2306 25.8408 81.4488C25.3363 82.6669 25.2042 84.0074 25.4615 85.3006C25.7187 86.5938 26.3536 87.7817 27.286 88.714C28.2183 89.6464 29.4062 90.2813 30.6994 90.5385C31.9926 90.7958 33.3331 90.6638 34.5513 90.1592C35.7694 89.6546 36.8106 88.8001 37.5432 87.7038C38.2757 86.6075 38.6667 85.3185 38.6667 84C38.6648 82.2325 37.9618 80.5379 36.712 79.288C35.4621 78.0382 33.7676 77.3352 32 77.3333ZM28.8056 83.4444C28.8056 82.8668 28.9622 82.2999 29.2588 81.8042C29.5553 81.3084 29.9808 80.9024 30.4898 80.6293C30.9989 80.3562 31.5724 80.2262 32.1495 80.2533C32.7265 80.2803 33.2854 80.4633 33.7667 80.7828L33.3056 81.4766C32.9498 81.2408 32.5367 81.1057 32.1103 81.0859C31.6838 81.0661 31.26 81.1622 30.8838 81.3641C30.5077 81.5659 30.1933 81.866 29.9741 82.2323C29.7549 82.5986 29.639 83.0175 29.6389 83.4444V83.6761H28.8056V83.4444ZM30.9056 87.5355L30.3167 86.9444L32.1434 85.1178C32.2598 85.002 32.3521 84.8642 32.415 84.7125C32.4778 84.5608 32.5099 84.3981 32.5095 84.2339V83.4444C32.5095 83.3093 32.4558 83.1797 32.3603 83.0842C32.2647 82.9887 32.1352 82.935 32 82.935C31.8649 82.935 31.7354 82.9887 31.6398 83.0842C31.5443 83.1797 31.4906 83.3093 31.4906 83.4444V84.0928C31.4906 84.2031 31.4469 84.309 31.3689 84.3872L28.805 86.9511L28.2156 86.3616L30.66 83.9172V83.4444C30.66 83.0883 30.8015 82.7468 31.0533 82.4949C31.3052 82.2431 31.6467 82.1016 32.0028 82.1016C32.3589 82.1016 32.7005 82.2431 32.9523 82.4949C33.2041 82.7468 33.3456 83.0883 33.3456 83.4444V84.2355C33.3462 84.5093 33.2925 84.7805 33.1876 85.0334C33.0827 85.2863 32.9287 85.5159 32.7345 85.7089L30.9056 87.5355ZM35.1945 84.4711C35.1958 84.9637 35.0995 85.4518 34.9109 85.9069C34.7224 86.3621 34.4455 86.7753 34.0962 87.1228L33.4056 87.8133L32.8167 87.2222L33.5067 86.5322C33.7784 86.2619 33.9939 85.9405 34.1405 85.5864C34.2872 85.2323 34.3622 84.8527 34.3612 84.4694V83.4444C34.3618 82.9801 34.2249 82.526 33.9678 82.1394L34.6623 81.6783C35.0101 82.2016 35.1953 82.8161 35.1945 83.4444V84.4711Z" fill="#111111"/>
</g>
<g id="Size=20px, Filled=true">
<path id="Vector_10" d="M62 75.6667C60.3518 75.6667 58.7406 76.1554 57.3702 77.0711C55.9998 77.9868 54.9317 79.2883 54.301 80.811C53.6702 82.3337 53.5052 84.0093 53.8268 85.6258C54.1483 87.2423 54.942 88.7271 56.1074 89.8926C57.2728 91.058 58.7577 91.8517 60.3742 92.1732C61.9907 92.4948 63.6663 92.3297 65.189 91.699C66.7117 91.0683 68.0132 90.0002 68.9289 88.6298C69.8446 87.2594 70.3333 85.6482 70.3333 84C70.3309 81.7906 69.4522 79.6724 67.8899 78.1101C66.3276 76.5478 64.2094 75.6691 62 75.6667ZM58.0069 83.3056C58.0069 82.5835 58.2026 81.8749 58.5733 81.2552C58.9441 80.6356 59.4759 80.1281 60.1122 79.7867C60.7485 79.4453 61.4654 79.2829 62.1867 79.3166C62.908 79.3504 63.6067 79.5791 64.2083 79.9785L63.6319 80.8459C63.1872 80.551 62.6708 80.3822 62.1377 80.3574C61.6047 80.3326 61.0749 80.4528 60.6047 80.7051C60.1345 80.9575 59.7415 81.3325 59.4675 81.7904C59.1935 82.2483 59.0487 82.772 59.0486 83.3056V83.5952H58.0069V83.3056ZM60.6319 88.4195L59.8958 87.6806L62.1791 85.3972C62.3247 85.2525 62.4401 85.0803 62.5186 84.8907C62.5972 84.701 62.6373 84.4977 62.6368 84.2924V83.3056C62.6368 83.1367 62.5697 82.9747 62.4503 82.8553C62.3308 82.7359 62.1689 82.6688 62 82.6688C61.8311 82.6688 61.6691 82.7359 61.5497 82.8553C61.4302 82.9747 61.3632 83.1367 61.3632 83.3056V84.116C61.3632 84.254 61.3085 84.3864 61.2111 84.484L58.0062 87.6889L57.2694 86.9521L60.325 83.8965V83.3056C60.325 82.8604 60.5018 82.4335 60.8166 82.1187C61.1314 81.8039 61.5583 81.6271 62.0034 81.6271C62.4486 81.6271 62.8755 81.8039 63.1903 82.1187C63.5051 82.4335 63.6819 82.8604 63.6819 83.3056V84.2945C63.6827 84.6367 63.6155 84.9757 63.4844 85.2918C63.3533 85.6079 63.1608 85.8949 62.918 86.1361L60.6319 88.4195ZM65.993 84.5889C65.9947 85.2047 65.8742 85.8148 65.6386 86.3837C65.4029 86.9527 65.0567 87.4692 64.6201 87.9035L63.7569 88.7667L63.0208 88.0278L63.8833 87.1653C64.223 86.8275 64.4922 86.4256 64.6756 85.983C64.8589 85.5404 64.9526 85.0659 64.9514 84.5868V83.3056C64.9522 82.7252 64.7811 82.1576 64.4597 81.6743L65.3277 81.0979C65.7625 81.752 65.994 82.5202 65.993 83.3056V84.5889Z" fill="#111111"/>
</g>
<g id="Size=24px, Filled=true">
<path id="Vector_11" d="M96 74C94.0222 74 92.0888 74.5865 90.4443 75.6853C88.7998 76.7841 87.5181 78.3459 86.7612 80.1732C86.0043 82.0004 85.8063 84.0111 86.1922 85.9509C86.578 87.8907 87.5304 89.6725 88.9289 91.0711C90.3275 92.4696 92.1093 93.422 94.0491 93.8079C95.9889 94.1937 97.9996 93.9957 99.8268 93.2388C101.654 92.4819 103.216 91.2002 104.315 89.5557C105.414 87.9112 106 85.9778 106 84C105.997 81.3487 104.943 78.8068 103.068 76.9321C101.193 75.0574 98.6513 74.0029 96 74ZM91.2083 83.1667C91.2083 82.3002 91.4432 81.4499 91.8881 80.7063C92.3329 79.9627 92.9711 79.3536 93.7347 78.944C94.4982 78.5343 95.3586 78.3394 96.2241 78.3799C97.0897 78.4205 97.9281 78.695 98.65 79.1742L97.9583 80.215C97.4246 79.8612 96.805 79.6586 96.1653 79.6289C95.5257 79.5991 94.8899 79.7433 94.3257 80.0461C93.7615 80.3489 93.2898 80.799 92.961 81.3485C92.6322 81.898 92.4585 82.5263 92.4583 83.1667V83.5142H91.2083V83.1667ZM94.3583 89.3033L93.475 88.4167L96.215 85.6767C96.3897 85.503 96.5281 85.2963 96.6224 85.0688C96.7167 84.8412 96.7649 84.5972 96.7642 84.3508V83.1667C96.7642 82.964 96.6837 82.7696 96.5404 82.6263C96.397 82.483 96.2027 82.4025 96 82.4025C95.7973 82.4025 95.603 82.483 95.4597 82.6263C95.3163 82.7696 95.2358 82.964 95.2358 83.1667V84.1392C95.2359 84.3048 95.1703 84.4636 95.0533 84.5808L91.2075 88.4267L90.3233 87.5425L93.99 83.8758V83.1667C93.99 82.6325 94.2022 82.1202 94.5799 81.7424C94.9577 81.3647 95.47 81.1525 96.0042 81.1525C96.5384 81.1525 97.0507 81.3647 97.4284 81.7424C97.8061 82.1202 98.0183 82.6325 98.0183 83.1667V84.3533C98.0192 84.764 97.9387 85.1708 97.7814 85.5501C97.624 85.9295 97.393 86.2739 97.1017 86.5633L94.3583 89.3033ZM100.792 84.7067C100.794 85.4457 100.649 86.1777 100.366 86.8604C100.084 87.5432 99.6681 88.163 99.1442 88.6842L98.1083 89.72L97.225 88.8333L98.26 87.7983C98.6676 87.3929 98.9907 86.9107 99.2107 86.3796C99.4307 85.8485 99.5432 85.279 99.5417 84.7042V83.1667C99.5427 82.4702 99.3374 81.7891 98.9517 81.2092L99.9933 80.5175C100.515 81.3024 100.793 82.2242 100.792 83.1667V84.7067Z" fill="#111111"/>
</g>
<g id="Size=32px, Filled=true">
<path id="Vector_12" d="M136 70.6667C133.363 70.6667 130.785 71.4487 128.592 72.9138C126.4 74.3788 124.691 76.4612 123.682 78.8976C122.672 81.3339 122.408 84.0148 122.923 86.6012C123.437 89.1876 124.707 91.5634 126.572 93.4281C128.437 95.2928 130.812 96.5627 133.399 97.0772C135.985 97.5916 138.666 97.3276 141.102 96.3184C143.539 95.3092 145.621 93.6003 147.086 91.4076C148.551 89.215 149.333 86.6371 149.333 84C149.329 80.465 147.923 77.0758 145.424 74.5762C142.924 72.0765 139.535 70.6705 136 70.6667ZM129.611 82.8889C129.611 81.7336 129.924 80.5998 130.517 79.6084C131.111 78.6169 131.961 77.8049 132.98 77.2587C133.998 76.7125 135.145 76.4526 136.299 76.5066C137.453 76.5606 138.571 76.9266 139.533 77.5656L138.611 78.9534C137.899 78.4816 137.073 78.2115 136.22 78.1718C135.368 78.1322 134.52 78.3245 133.768 78.7282C133.015 79.1319 132.386 79.732 131.948 80.4647C131.51 81.1973 131.278 82.0351 131.278 82.8889V83.3522H129.611V82.8889ZM133.811 91.0711L132.633 89.8889L136.287 86.2356C136.52 86.004 136.704 85.7285 136.83 85.425C136.956 85.1216 137.02 84.7962 137.019 84.4678V82.8889C137.019 82.6187 136.912 82.3595 136.72 82.1684C136.529 81.9774 136.27 81.87 136 81.87C135.73 81.87 135.471 81.9774 135.28 82.1684C135.088 82.3595 134.981 82.6187 134.981 82.8889V84.1856C134.981 84.4064 134.894 84.6182 134.738 84.7745L129.61 89.9022L128.431 88.7234L133.32 83.8345V82.8889C133.32 82.1767 133.603 81.4936 134.107 80.9899C134.61 80.4863 135.293 80.2034 136.006 80.2034C136.718 80.2034 137.401 80.4863 137.904 80.9899C138.408 81.4936 138.691 82.1767 138.691 82.8889V84.4711C138.692 85.0187 138.585 85.5611 138.375 86.0669C138.165 86.5727 137.857 87.0318 137.469 87.4178L133.811 91.0711ZM142.389 84.9422C142.392 85.9276 142.199 86.9036 141.822 87.8139C141.445 88.7243 140.891 89.5507 140.192 90.2456L138.811 91.6267L137.633 90.4445L139.013 89.0645C139.557 88.5239 139.988 87.881 140.281 87.1728C140.574 86.4647 140.724 85.7054 140.722 84.9389V82.8889C140.723 81.9603 140.45 81.0521 139.936 80.2789L141.324 79.3567C142.02 80.4032 142.39 81.6323 142.389 82.8889V84.9422Z" fill="#111111"/>
</g>
<g id="Size=40px, Filled=true">
<path id="Vector_13" d="M184 67.3333C180.704 67.3333 177.481 68.3108 174.741 70.1422C172 71.9735 169.864 74.5765 168.602 77.6219C167.341 80.6674 167.011 84.0185 167.654 87.2515C168.297 90.4845 169.884 93.4542 172.215 95.7851C174.546 98.116 177.516 99.7033 180.749 100.346C183.982 100.989 187.333 100.659 190.378 99.398C193.424 98.1365 196.027 96.0003 197.858 93.2595C199.689 90.5187 200.667 87.2963 200.667 84C200.662 79.5812 198.904 75.3447 195.78 72.2201C192.655 69.0956 188.419 67.3381 184 67.3333ZM176.014 82.6111C176.014 81.1669 176.405 79.7497 177.147 78.5104C177.888 77.2711 178.952 76.2561 180.225 75.5733C181.497 74.8905 182.931 74.5656 184.374 74.6332C185.816 74.7008 187.213 75.1582 188.417 75.9569L187.264 77.6916C186.374 77.1019 185.342 76.7643 184.276 76.7148C183.209 76.6652 182.15 76.9055 181.21 77.4102C180.269 77.9149 179.483 78.665 178.935 79.5808C178.387 80.4966 178.098 81.5438 178.097 82.6111V83.1903H176.014V82.6111ZM181.264 92.8389L179.792 91.3611L184.358 86.7944C184.649 86.5049 184.88 86.1606 185.037 85.7813C185.194 85.402 185.275 84.9953 185.274 84.5847V82.6111C185.274 82.2733 185.139 81.9494 184.901 81.7105C184.662 81.4717 184.338 81.3375 184 81.3375C183.662 81.3375 183.338 81.4717 183.099 81.7105C182.861 81.9494 182.726 82.2733 182.726 82.6111V84.2319C182.727 84.5079 182.617 84.7726 182.422 84.968L176.013 91.3778L174.539 89.9041L180.65 83.793V82.6111C180.65 81.7208 181.004 80.8669 181.633 80.2374C182.263 79.6078 183.117 79.2541 184.007 79.2541C184.897 79.2541 185.751 79.6078 186.381 80.2374C187.01 80.8669 187.364 81.7208 187.364 82.6111V84.5889C187.365 85.2733 187.231 85.9513 186.969 86.5836C186.707 87.2158 186.322 87.7898 185.836 88.2722L181.264 92.8389ZM191.986 85.1778C191.99 86.4094 191.749 87.6295 191.277 88.7674C190.806 89.9053 190.114 90.9384 189.24 91.8069L187.514 93.5333L186.042 92.0555L187.767 90.3305C188.446 89.6549 188.985 88.8512 189.351 87.966C189.718 87.0808 189.905 86.1317 189.903 85.1736V82.6111C189.904 81.4503 189.562 80.3151 188.919 79.3486L190.656 78.1958C191.525 79.504 191.988 81.0403 191.986 82.6111V85.1778Z" fill="#111111"/>
</g>
<g id="Size=48px, Filled=true">
<path id="Vector_14" d="M240 64C236.044 64 232.178 65.173 228.889 67.3706C225.6 69.5682 223.036 72.6918 221.522 76.3463C220.009 80.0009 219.613 84.0222 220.384 87.9018C221.156 91.7814 223.061 95.3451 225.858 98.1421C228.655 100.939 232.219 102.844 236.098 103.616C239.978 104.387 243.999 103.991 247.654 102.478C251.308 100.964 254.432 98.4004 256.629 95.1114C258.827 91.8224 260 87.9556 260 84C259.994 78.6974 257.885 73.6137 254.136 69.8642C250.386 66.1147 245.303 64.0057 240 64ZM230.417 82.3333C230.417 80.6003 230.886 78.8997 231.776 77.4125C232.666 75.9254 233.942 74.7073 235.469 73.888C236.996 73.0687 238.717 72.6788 240.448 72.7599C242.179 72.8409 243.856 73.3899 245.3 74.3483L243.917 76.43C242.849 75.7223 241.61 75.3172 240.331 75.2577C239.051 75.1983 237.78 75.4867 236.651 76.0923C235.523 76.6979 234.58 77.598 233.922 78.697C233.264 79.796 232.917 81.0526 232.917 82.3333V83.0283H230.417V82.3333ZM236.717 94.6067L234.95 92.8333L240.43 87.3533C240.779 87.0059 241.056 86.5927 241.245 86.1375C241.433 85.6824 241.53 85.1943 241.528 84.7017V82.3333C241.528 81.928 241.367 81.5393 241.081 81.2526C240.794 80.966 240.405 80.805 240 80.805C239.595 80.805 239.206 80.966 238.919 81.2526C238.633 81.5393 238.472 81.928 238.472 82.3333V84.2783C238.472 84.6095 238.341 84.9272 238.107 85.1617L230.415 92.8533L228.647 91.085L235.98 83.7517V82.3333C235.98 81.265 236.404 80.2403 237.16 79.4849C237.915 78.7294 238.94 78.305 240.008 78.305C241.077 78.305 242.101 78.7294 242.857 79.4849C243.612 80.2403 244.037 81.265 244.037 82.3333V84.7067C244.038 85.528 243.877 86.3416 243.563 87.1003C243.248 87.859 242.786 88.5477 242.203 89.1267L236.717 94.6067ZM249.583 85.4133C249.587 86.8913 249.298 88.3554 248.733 89.7209C248.167 91.0863 247.336 92.3261 246.288 93.3683L244.217 95.44L242.45 93.6667L244.52 91.5967C245.335 90.7859 245.981 89.8215 246.421 88.7592C246.861 87.697 247.086 86.5581 247.083 85.4083V82.3333C247.085 80.9404 246.675 79.5782 245.903 78.4183L247.987 77.035C249.03 78.6048 249.586 80.4484 249.583 82.3333V85.4133Z" fill="#111111"/>
</g>
</g>
</g>
<defs>
<clipPath id="clip0_4350_411">
<rect width="264" height="108" rx="5" fill="white"/>
</clipPath>
<clipPath id="clip1_4350_411">
<rect width="12" height="12" fill="white" transform="translate(0 18)"/>
</clipPath>
<clipPath id="clip2_4350_411">
<rect width="16" height="16" fill="white" transform="translate(24 16)"/>
</clipPath>
<clipPath id="clip3_4350_411">
<rect width="20" height="20" fill="white" transform="translate(52 14)"/>
</clipPath>
<clipPath id="clip4_4350_411">
<rect width="24" height="24" fill="white" transform="translate(84 12)"/>
</clipPath>
<clipPath id="clip5_4350_411">
<rect width="32" height="32" fill="white" transform="translate(120 8)"/>
</clipPath>
<clipPath id="clip6_4350_411">
<rect width="40" height="40" fill="white" transform="translate(164 4)"/>
</clipPath>
<clipPath id="clip7_4350_411">
<rect width="48" height="48" fill="white" transform="translate(216)"/>
</clipPath>
</defs>
</svg>
