<svg width="264" height="108" viewBox="0 0 264 108" fill="none" xmlns="http://www.w3.org/2000/svg">
<g id="User information">
<g clip-path="url(#clip0_6388_978)">
<g id="Size=12px, Filled=false" clip-path="url(#clip1_6388_978)">
<path id="Vector" d="M0.630432 26.6957C0.630291 26.9028 0.79807 27.0709 1.00518 27.071C1.21228 27.0711 1.38029 26.9034 1.38043 26.6963L0.630432 26.6957ZM1.41755 25.0636L1.08737 24.8858L1.08736 24.8858L1.41755 25.0636ZM4.14231 23.2641L4.17618 23.6376L4.17618 23.6376L4.14231 23.2641ZM5.65844 23.8709C5.84898 23.9521 6.06925 23.8635 6.15042 23.6729C6.2316 23.4824 6.14295 23.2621 5.95242 23.181L5.65844 23.8709ZM8.30625 28.2129C8.30625 28.42 8.47414 28.5879 8.68125 28.5879C8.88836 28.5879 9.05625 28.42 9.05625 28.2129H8.30625ZM9.05625 26.681C9.05625 26.4739 8.88836 26.306 8.68125 26.306C8.47414 26.306 8.30625 26.4739 8.30625 26.681H9.05625ZM1.38043 26.6963C1.38078 26.1884 1.50697 25.6886 1.74773 25.2414L1.08736 24.8858C0.787851 25.4421 0.630863 26.0639 0.630432 26.6957L1.38043 26.6963ZM1.74773 25.2414C1.98848 24.7942 2.3363 24.4137 2.76009 24.1338L2.34676 23.508C1.81958 23.8562 1.38688 24.3295 1.08737 24.8858L1.74773 25.2414ZM2.76009 24.1338C3.18386 23.8539 3.67039 23.6834 4.17618 23.6376L4.10844 22.8906C3.47923 22.9477 2.87396 23.1598 2.34676 23.508L2.76009 24.1338ZM4.17618 23.6376C4.68196 23.5917 5.19122 23.6719 5.65844 23.8709L5.95242 23.181C5.37119 22.9333 4.73765 22.8336 4.10844 22.8906L4.17618 23.6376ZM4.22113 22.875C5.46377 22.875 6.47113 21.8676 6.47113 20.625H5.72113C5.72113 21.4534 5.04956 22.125 4.22113 22.125V22.875ZM6.47113 20.625C6.47113 19.3824 5.46377 18.375 4.22113 18.375V19.125C5.04956 19.125 5.72113 19.7966 5.72113 20.625H6.47113ZM4.22113 18.375C2.97849 18.375 1.97113 19.3824 1.97113 20.625H2.72113C2.72113 19.7966 3.39271 19.125 4.22113 19.125V18.375ZM1.97113 20.625C1.97113 21.8676 2.97849 22.875 4.22113 22.875V22.125C3.39271 22.125 2.72113 21.4534 2.72113 20.625H1.97113ZM8.61797 29.9921C10.4819 29.9921 11.993 28.481 11.993 26.6171H11.243C11.243 28.0668 10.0677 29.2421 8.61797 29.2421V29.9921ZM11.993 26.6171C11.993 24.7531 10.4819 23.2421 8.61797 23.2421V23.9921C10.0677 23.9921 11.243 25.1673 11.243 26.6171H11.993ZM8.61797 23.2421C6.75401 23.2421 5.24297 24.7531 5.24297 26.6171H5.99297C5.99297 25.1673 7.16823 23.9921 8.61797 23.9921V23.2421ZM5.24297 26.6171C5.24297 28.481 6.75401 29.9921 8.61797 29.9921V29.2421C7.16823 29.2421 5.99297 28.0668 5.99297 26.6171H5.24297ZM9.05625 28.2129V26.681H8.30625V28.2129H9.05625ZM8.68055 25.157C8.7819 25.157 8.86406 25.2392 8.86406 25.3405H8.11406C8.11406 25.6534 8.36769 25.907 8.68055 25.907V25.157ZM8.86406 25.3405C8.86406 25.4419 8.78191 25.524 8.68055 25.524V24.774C8.36769 24.774 8.11406 25.0277 8.11406 25.3405H8.86406ZM8.68055 25.907C8.99163 25.907 9.24774 25.6551 9.24774 25.3405H8.49774C8.49774 25.2374 8.58098 25.157 8.68055 25.157V25.907ZM9.24774 25.3405C9.24774 25.0259 8.99164 24.774 8.68055 24.774V25.524C8.58098 25.524 8.49774 25.4436 8.49774 25.3405H9.24774Z" fill="#111111"/>
</g>
<g id="Size=16px, Filled=false" clip-path="url(#clip2_6388_978)">
<path id="Vector_2" d="M24.8406 27.5943C24.8404 27.8705 25.0641 28.0945 25.3402 28.0947C25.6164 28.0948 25.8404 27.8711 25.8406 27.595L24.8406 27.5943ZM25.8901 25.4181L25.4498 25.1811L25.4498 25.1811L25.8901 25.4181ZM29.5231 23.0188L29.5682 23.5168L29.5231 23.0188ZM31.5446 23.8279C31.7986 23.9362 32.0923 23.818 32.2006 23.5639C32.3088 23.3099 32.1906 23.0162 31.9366 22.9079L31.5446 23.8279ZM35.075 29.6172C35.075 29.8933 35.2989 30.1172 35.575 30.1172C35.8511 30.1172 36.075 29.8933 36.075 29.6172H35.075ZM36.075 27.5746C36.075 27.2985 35.8511 27.0746 35.575 27.0746C35.2989 27.0746 35.075 27.2985 35.075 27.5746H36.075ZM25.8406 27.595C25.841 26.9179 26.0093 26.2514 26.3303 25.6551L25.4498 25.1811C25.0505 25.9228 24.8412 26.7519 24.8406 27.5943L25.8406 27.595ZM26.3303 25.6552C26.6513 25.059 27.1151 24.5516 27.6801 24.1784L27.129 23.344C26.4261 23.8082 25.8492 24.4394 25.4498 25.1811L26.3303 25.6552ZM27.6801 24.1784C28.2452 23.8052 28.8939 23.5779 29.5682 23.5168L29.4779 22.5208C28.639 22.5969 27.832 22.8797 27.129 23.344L27.6801 24.1784ZM29.5682 23.5168C30.2426 23.4556 30.9216 23.5625 31.5446 23.8279L31.9366 22.9079C31.1616 22.5778 30.3169 22.4447 29.4779 22.5208L29.5682 23.5168ZM29.6282 22.5C31.285 22.5 32.6282 21.1569 32.6282 19.5H31.6282C31.6282 20.6046 30.7327 21.5 29.6282 21.5V22.5ZM32.6282 19.5C32.6282 17.8431 31.285 16.5 29.6282 16.5V17.5C30.7327 17.5 31.6282 18.3954 31.6282 19.5H32.6282ZM29.6282 16.5C27.9713 16.5 26.6282 17.8431 26.6282 19.5H27.6282C27.6282 18.3954 28.5236 17.5 29.6282 17.5V16.5ZM26.6282 19.5C26.6282 21.1569 27.9713 22.5 29.6282 22.5V21.5C28.5236 21.5 27.6282 20.6046 27.6282 19.5H26.6282ZM35.4906 31.9895C37.9759 31.9895 39.9906 29.9747 39.9906 27.4895H38.9906C38.9906 29.4224 37.4236 30.9895 35.4906 30.9895V31.9895ZM39.9906 27.4895C39.9906 25.0042 37.9759 22.9895 35.4906 22.9895V23.9895C37.4236 23.9895 38.9906 25.5565 38.9906 27.4895H39.9906ZM35.4906 22.9895C33.0053 22.9895 30.9906 25.0042 30.9906 27.4895H31.9906C31.9906 25.5565 33.5576 23.9895 35.4906 23.9895V22.9895ZM30.9906 27.4895C30.9906 29.9747 33.0053 31.9895 35.4906 31.9895V30.9895C33.5576 30.9895 31.9906 29.4224 31.9906 27.4895H30.9906ZM36.075 29.6172V27.5746H35.075V29.6172H36.075ZM35.5741 25.5427C35.7092 25.5427 35.8188 25.6522 35.8188 25.7874H34.8188C34.8188 26.2045 35.1569 26.5427 35.5741 26.5427V25.5427ZM35.8188 25.7874C35.8188 25.9225 35.7092 26.032 35.5741 26.032V25.032C35.1569 25.032 34.8188 25.3702 34.8188 25.7874H35.8188ZM35.5741 26.5427C35.9888 26.5427 36.3303 26.2069 36.3303 25.7874H35.3303C35.3303 25.6498 35.4413 25.5427 35.5741 25.5427V26.5427ZM36.3303 25.7874C36.3303 25.3678 35.9888 25.032 35.5741 25.032V26.032C35.4413 26.032 35.3303 25.9249 35.3303 25.7874H36.3303Z" fill="#111111"/>
</g>
<g id="Size=20px, Filled=false">
<path id="Vector_3" d="M53.0507 28.4929C53.0505 28.8381 53.3301 29.1181 53.6753 29.1183C54.0205 29.1186 54.3005 28.8389 54.3007 28.4938L53.0507 28.4929ZM54.3626 25.7726L53.8123 25.4763L53.8123 25.4764L54.3626 25.7726ZM58.9038 22.7735L58.9603 23.3959H58.9603L58.9038 22.7735ZM61.4307 23.7849C61.7483 23.9202 62.1154 23.7725 62.2507 23.4549C62.386 23.1373 62.2383 22.7702 61.9207 22.6349L61.4307 23.7849ZM65.8438 31.0215C65.8438 31.3666 66.1236 31.6465 66.4688 31.6465C66.8139 31.6465 67.0938 31.3666 67.0938 31.0215H65.8438ZM67.0938 28.4683C67.0938 28.1231 66.8139 27.8433 66.4688 27.8433C66.1236 27.8433 65.8438 28.1231 65.8438 28.4683H67.0938ZM54.3007 28.4938C54.3013 27.6473 54.5116 26.8143 54.9129 26.0689L53.8123 25.4764C53.3131 26.4035 53.0514 27.4399 53.0507 28.4929L54.3007 28.4938ZM54.9129 26.0689C55.3141 25.3237 55.8938 24.6895 56.6002 24.223L55.9113 23.18C55.0326 23.7603 54.3115 24.5492 53.8123 25.4763L54.9129 26.0689ZM56.6002 24.223C57.3064 23.7565 58.1173 23.4724 58.9603 23.3959L58.8474 22.1511C57.7987 22.2462 56.7899 22.5996 55.9113 23.18L56.6002 24.223ZM58.9603 23.3959C59.8033 23.3195 60.652 23.4531 61.4307 23.7849L61.9207 22.6349C60.952 22.2222 59.8961 22.0559 58.8474 22.1511L58.9603 23.3959ZM59.0352 22.125C61.1063 22.125 62.7852 20.4461 62.7852 18.375H61.5352C61.5352 19.7557 60.4159 20.875 59.0352 20.875V22.125ZM62.7852 18.375C62.7852 16.3039 61.1063 14.625 59.0352 14.625V15.875C60.4159 15.875 61.5352 16.9943 61.5352 18.375H62.7852ZM59.0352 14.625C56.9642 14.625 55.2852 16.3039 55.2852 18.375H56.5352C56.5352 16.9943 57.6545 15.875 59.0352 15.875V14.625ZM55.2852 18.375C55.2852 20.4461 56.9642 22.125 59.0352 22.125V20.875C57.6545 20.875 56.5352 19.7557 56.5352 18.375H55.2852ZM66.3633 33.9868C69.4699 33.9868 71.9883 31.4684 71.9883 28.3618H70.7383C70.7383 30.7781 68.7795 32.7368 66.3633 32.7368V33.9868ZM71.9883 28.3618C71.9883 25.2552 69.4699 22.7368 66.3633 22.7368V23.9868C68.7795 23.9868 70.7383 25.9456 70.7383 28.3618H71.9883ZM66.3633 22.7368C63.2567 22.7368 60.7383 25.2552 60.7383 28.3618H61.9883C61.9883 25.9456 63.947 23.9868 66.3633 23.9868V22.7368ZM60.7383 28.3618C60.7383 31.4684 63.2567 33.9868 66.3633 33.9868V32.7368C63.947 32.7368 61.9883 30.7781 61.9883 28.3618H60.7383ZM67.0938 31.0215V28.4683H65.8438V31.0215H67.0938ZM66.4676 25.9283C66.6365 25.9283 66.7734 26.0653 66.7734 26.2342H65.5234C65.5234 26.7556 65.9462 27.1783 66.4676 27.1783V25.9283ZM66.7734 26.2342C66.7734 26.4031 66.6365 26.54 66.4676 26.54V25.29C65.9462 25.29 65.5234 25.7128 65.5234 26.2342H66.7734ZM66.4676 27.1783C66.9861 27.1783 67.4129 26.7586 67.4129 26.2342H66.1629C66.1629 26.0623 66.3016 25.9283 66.4676 25.9283V27.1783ZM67.4129 26.2342C67.4129 25.7098 66.9861 25.29 66.4676 25.29V26.54C66.3016 26.54 66.1629 26.4061 66.1629 26.2342H67.4129Z" fill="#111111"/>
</g>
<g id="Size=24px, Filled=false">
<path id="Vector_4" d="M85.2609 29.3915C85.2606 29.8057 85.5961 30.1417 86.0104 30.142C86.4246 30.1423 86.7606 29.8067 86.7609 29.3925L85.2609 29.3915ZM86.8351 26.1272L86.1747 25.7716L86.1747 25.7716L86.8351 26.1272ZM92.2846 22.5282L92.3524 23.2751H92.3524L92.2846 22.5282ZM95.3169 23.7419C95.698 23.9042 96.1385 23.7269 96.3008 23.3459C96.4632 22.9648 96.2859 22.5243 95.9048 22.3619L95.3169 23.7419ZM100.612 32.4257C100.612 32.84 100.948 33.1757 101.362 33.1757C101.777 33.1757 102.112 32.84 102.112 32.4257H100.612ZM102.112 29.3619C102.112 28.9477 101.777 28.6119 101.362 28.6119C100.948 28.6119 100.612 28.9477 100.612 29.3619H102.112ZM86.7609 29.3925C86.7616 28.3768 87.0139 27.3771 87.4955 26.4827L86.1747 25.7716C85.5757 26.8843 85.2617 28.1279 85.2609 29.3915L86.7609 29.3925ZM87.4955 26.4827C87.977 25.5885 88.6726 24.8274 89.5202 24.2676L88.6935 23.016C87.6392 23.7123 86.7738 24.6591 86.1747 25.7716L87.4955 26.4827ZM89.5202 24.2676C90.3677 23.7078 91.3408 23.3669 92.3524 23.2751L92.2169 21.7813C90.9585 21.8954 89.7479 22.3196 88.6935 23.016L89.5202 24.2676ZM92.3524 23.2751C93.3639 23.1834 94.3824 23.3438 95.3169 23.7419L95.9048 22.3619C94.7424 21.8666 93.4753 21.6671 92.2169 21.7813L92.3524 23.2751ZM92.4423 21.75C94.9275 21.75 96.9423 19.7353 96.9423 17.25H95.4423C95.4423 18.9069 94.0991 20.25 92.4423 20.25V21.75ZM96.9423 17.25C96.9423 14.7647 94.9275 12.75 92.4423 12.75V14.25C94.0991 14.25 95.4423 15.5931 95.4423 17.25H96.9423ZM92.4423 12.75C89.957 12.75 87.9423 14.7647 87.9423 17.25H89.4423C89.4423 15.5931 90.7854 14.25 92.4423 14.25V12.75ZM87.9423 17.25C87.9423 19.7353 89.957 21.75 92.4423 21.75V20.25C90.7854 20.25 89.4423 18.9069 89.4423 17.25H87.9423ZM101.236 35.9842C104.964 35.9842 107.986 32.9621 107.986 29.2342H106.486C106.486 32.1337 104.135 34.4842 101.236 34.4842V35.9842ZM107.986 29.2342C107.986 25.5063 104.964 22.4842 101.236 22.4842V23.9842C104.135 23.9842 106.486 26.3347 106.486 29.2342H107.986ZM101.236 22.4842C97.508 22.4842 94.4859 25.5063 94.4859 29.2342H95.9859C95.9859 26.3347 98.3365 23.9842 101.236 23.9842V22.4842ZM94.4859 29.2342C94.4859 32.9621 97.508 35.9842 101.236 35.9842V34.4842C98.3365 34.4842 95.9859 32.1337 95.9859 29.2342H94.4859ZM102.112 32.4257V29.3619H100.612V32.4257H102.112ZM101.361 26.314C101.564 26.314 101.728 26.4783 101.728 26.681H100.228C100.228 27.3067 100.735 27.814 101.361 27.814V26.314ZM101.728 26.681C101.728 26.8837 101.564 27.048 101.361 27.048V25.548C100.735 25.548 100.228 26.0553 100.228 26.681H101.728ZM101.362 27.814C101.988 27.814 102.495 27.3067 102.495 26.681H100.995C100.995 26.4783 101.16 26.314 101.362 26.314V27.814ZM102.495 26.681C102.495 26.0553 101.988 25.548 101.362 25.548V27.048C101.16 27.048 100.995 26.8837 100.995 26.681H102.495Z" fill="#111111"/>
</g>
<g id="Size=32px, Filled=false">
<path id="Vector_5" d="M121.681 31.1886C121.681 31.7409 122.128 32.1889 122.68 32.1893C123.233 32.1897 123.681 31.7423 123.681 31.19L121.681 31.1886ZM123.78 26.8362L122.9 26.3622L122.9 26.3622L123.78 26.8362ZM131.046 22.0376L131.136 23.0335L131.046 22.0376ZM135.089 23.6559C135.597 23.8723 136.185 23.6359 136.401 23.1278C136.618 22.6198 136.381 22.0324 135.873 21.8159L135.089 23.6559ZM142.15 35.2343C142.15 35.7866 142.598 36.2343 143.15 36.2343C143.702 36.2343 144.15 35.7866 144.15 35.2343H142.15ZM144.15 31.1492C144.15 30.5969 143.702 30.1492 143.15 30.1492C142.598 30.1492 142.15 30.5969 142.15 31.1492H144.15ZM123.681 31.19C123.682 29.8357 124.019 28.5028 124.661 27.3103L122.9 26.3622C122.101 27.8457 121.682 29.5039 121.681 31.1886L123.681 31.19ZM124.661 27.3103C125.303 26.1179 126.23 25.1032 127.36 24.3568L126.258 22.688C124.852 23.6165 123.698 24.8788 122.9 26.3622L124.661 27.3103ZM127.36 24.3568C128.49 23.6105 129.788 23.1558 131.136 23.0335L130.956 21.0417C129.278 21.1939 127.664 21.7594 126.258 22.688L127.36 24.3568ZM131.136 23.0335C132.485 22.9112 133.843 23.125 135.089 23.6559L135.873 21.8159C134.323 21.1555 132.634 20.8895 130.956 21.0417L131.136 23.0335ZM131.256 21C134.57 21 137.256 18.3137 137.256 15H135.256C135.256 17.2091 133.465 19 131.256 19V21ZM137.256 15C137.256 11.6863 134.57 9 131.256 9V11C133.465 11 135.256 12.7909 135.256 15H137.256ZM131.256 9C127.943 9 125.256 11.6863 125.256 15H127.256C127.256 12.7909 129.047 11 131.256 11V9ZM125.256 15C125.256 18.3137 127.943 21 131.256 21V19C129.047 19 127.256 17.2091 127.256 15H125.256ZM142.981 39.9789C147.952 39.9789 151.981 35.9495 151.981 30.9789H149.981C149.981 34.8449 146.847 37.9789 142.981 37.9789V39.9789ZM151.981 30.9789C151.981 26.0084 147.952 21.9789 142.981 21.9789V23.9789C146.847 23.9789 149.981 27.1129 149.981 30.9789H151.981ZM142.981 21.9789C138.011 21.9789 133.981 26.0084 133.981 30.9789H135.981C135.981 27.1129 139.115 23.9789 142.981 23.9789V21.9789ZM133.981 30.9789C133.981 35.9495 138.011 39.9789 142.981 39.9789V37.9789C139.115 37.9789 135.981 34.8449 135.981 30.9789H133.981ZM144.15 35.2343V31.1492H142.15V35.2343H144.15ZM143.148 27.0853C143.418 27.0853 143.638 27.3044 143.638 27.5747H141.638C141.638 28.409 142.314 29.0853 143.148 29.0853V27.0853ZM143.638 27.5747C143.638 27.845 143.418 28.0641 143.148 28.0641V26.0641C142.314 26.0641 141.638 26.7404 141.638 27.5747H143.638ZM143.148 29.0853C143.978 29.0853 144.661 28.4137 144.661 27.5747H142.661C142.661 27.2997 142.883 27.0853 143.148 27.0853V29.0853ZM144.661 27.5747C144.661 26.7357 143.978 26.0641 143.148 26.0641V28.0641C142.883 28.0641 142.661 27.8497 142.661 27.5747H144.661Z" fill="#111111"/>
</g>
<g id="Size=40px, Filled=false">
<path id="Vector_6" d="M166.101 32.9858C166.101 33.6762 166.66 34.2362 167.351 34.2366C168.041 34.2371 168.601 33.6779 168.601 32.9875L166.101 32.9858ZM168.725 27.5453L167.625 26.9527L167.625 26.9527L168.725 27.5453ZM177.808 21.547L177.921 22.7919H177.921L177.808 21.547ZM182.861 23.5698C183.497 23.8404 184.231 23.5449 184.501 22.9098C184.772 22.2747 184.477 21.5405 183.841 21.2699L182.861 23.5698ZM191.688 38.0429C191.688 38.7333 192.247 39.2929 192.938 39.2929C193.628 39.2929 194.188 38.7333 194.188 38.0429H191.688ZM194.188 32.9365C194.188 32.2462 193.628 31.6865 192.938 31.6865C192.247 31.6865 191.688 32.2462 191.688 32.9365H194.188ZM168.601 32.9875C168.603 31.2947 169.023 29.6285 169.826 28.1379L167.625 26.9527C166.626 28.8071 166.103 30.8798 166.101 32.9858L168.601 32.9875ZM169.826 28.1379C170.628 26.6474 171.788 25.379 173.2 24.446L171.823 22.36C170.065 23.5206 168.623 25.0985 167.625 26.9527L169.826 28.1379ZM173.2 24.446C174.613 23.5131 176.235 22.9448 177.921 22.7919L177.695 20.3021C175.597 20.4923 173.58 21.1993 171.823 22.36L173.2 24.446ZM177.921 22.7919C179.607 22.639 181.304 22.9063 182.861 23.5698L183.841 21.2699C181.904 20.4444 179.792 20.1119 177.695 20.3021L177.921 22.7919ZM178.07 20.25C182.213 20.25 185.57 16.8921 185.57 12.75H183.07C183.07 15.5114 180.832 17.75 178.07 17.75V20.25ZM185.57 12.75C185.57 8.60787 182.213 5.25 178.07 5.25V7.75C180.832 7.75 183.07 9.98858 183.07 12.75H185.57ZM178.07 5.25C173.928 5.25 170.57 8.60787 170.57 12.75H173.07C173.07 9.98858 175.309 7.75 178.07 7.75V5.25ZM170.57 12.75C170.57 16.8921 173.928 20.25 178.07 20.25V17.75C175.309 17.75 173.07 15.5114 173.07 12.75H170.57ZM192.727 43.9736C198.94 43.9736 203.977 38.9368 203.977 32.7236H201.477C201.477 37.5561 197.559 41.4736 192.727 41.4736V43.9736ZM203.977 32.7236C203.977 26.5104 198.94 21.4736 192.727 21.4736V23.9736C197.559 23.9736 201.477 27.8912 201.477 32.7236H203.977ZM192.727 21.4736C186.513 21.4736 181.477 26.5104 181.477 32.7236H183.977C183.977 27.8912 187.894 23.9736 192.727 23.9736V21.4736ZM181.477 32.7236C181.477 38.9368 186.513 43.9736 192.727 43.9736V41.4736C187.894 41.4736 183.977 37.5561 183.977 32.7236H181.477ZM194.188 38.0429V32.9365H191.688V38.0429H194.188ZM192.935 27.8567C193.273 27.8567 193.547 28.1305 193.547 28.4684H191.047C191.047 29.5112 191.892 30.3567 192.935 30.3567V27.8567ZM193.547 28.4684C193.547 28.8062 193.273 29.0801 192.935 29.0801V26.5801C191.892 26.5801 191.047 27.4255 191.047 28.4684H193.547ZM192.935 30.3567C193.972 30.3567 194.826 29.5172 194.826 28.4684H192.326C192.326 28.1246 192.603 27.8567 192.935 27.8567V30.3567ZM194.826 28.4684C194.826 27.4196 193.972 26.5801 192.935 26.5801V29.0801C192.603 29.0801 192.326 28.8121 192.326 28.4684H194.826Z" fill="#111111"/>
</g>
<g id="Size=48px, Filled=false">
<path id="Vector_7" d="M218.522 34.783C218.521 35.6114 219.192 36.2834 220.021 36.284C220.849 36.2845 221.521 35.6134 221.522 34.785L218.522 34.783ZM221.67 28.2543L220.349 27.5432L220.349 27.5433L221.67 28.2543ZM232.569 21.0564L232.705 22.5503L232.705 22.5503L232.569 21.0564ZM238.634 23.4838C239.396 23.8085 240.277 23.4539 240.602 22.6918C240.926 21.9296 240.572 21.0486 239.81 20.7238L238.634 23.4838ZM249.225 40.8515C249.225 41.6799 249.897 42.3515 250.725 42.3515C251.553 42.3515 252.225 41.6799 252.225 40.8515H249.225ZM252.225 34.7238C252.225 33.8954 251.553 33.2238 250.725 33.2238C249.897 33.2238 249.225 33.8954 249.225 34.7238H252.225ZM221.522 34.785C221.523 32.7536 222.028 30.7542 222.991 28.9654L220.349 27.5433C219.151 29.7685 218.523 32.2558 218.522 34.783L221.522 34.785ZM222.991 28.9655C223.954 27.1769 225.345 25.6548 227.04 24.5352L225.387 22.0319C223.278 23.4247 221.548 25.3182 220.349 27.5432L222.991 28.9655ZM227.04 24.5352C228.735 23.4157 230.682 22.7338 232.705 22.5503L232.434 19.5625C229.917 19.7908 227.496 20.6391 225.387 22.0319L227.04 24.5352ZM232.705 22.5503C234.728 22.3668 236.765 22.6875 238.634 23.4838L239.81 20.7238C237.485 19.7333 234.951 19.3342 232.434 19.5625L232.705 22.5503ZM232.885 19.5C237.855 19.5 241.885 15.4706 241.885 10.5H238.885C238.885 13.8137 236.198 16.5 232.885 16.5V19.5ZM241.885 10.5C241.885 5.52945 237.855 1.5 232.885 1.5V4.5C236.198 4.5 238.885 7.1863 238.885 10.5H241.885ZM232.885 1.5C227.914 1.5 223.885 5.52945 223.885 10.5H226.885C226.885 7.1863 229.571 4.5 232.885 4.5V1.5ZM223.885 10.5C223.885 15.4706 227.914 19.5 232.885 19.5V16.5C229.571 16.5 226.885 13.8137 226.885 10.5H223.885ZM250.472 47.9684C257.928 47.9684 263.972 41.9242 263.972 34.4684H260.972C260.972 40.2673 256.271 44.9684 250.472 44.9684V47.9684ZM263.972 34.4684C263.972 27.0125 257.928 20.9684 250.472 20.9684V23.9684C256.271 23.9684 260.972 28.6694 260.972 34.4684H263.972ZM250.472 20.9684C243.016 20.9684 236.972 27.0125 236.972 34.4684H239.972C239.972 28.6694 244.673 23.9684 250.472 23.9684V20.9684ZM236.972 34.4684C236.972 41.9242 243.016 47.9684 250.472 47.9684V44.9684C244.673 44.9684 239.972 40.2673 239.972 34.4684H236.972ZM252.225 40.8515V34.7238H249.225V40.8515H252.225ZM250.722 28.628C251.128 28.628 251.456 28.9566 251.456 29.3621H248.456C248.456 30.6135 249.471 31.628 250.722 31.628V28.628ZM251.456 29.3621C251.456 29.7675 251.128 30.0961 250.722 30.0961V27.0961C249.471 27.0961 248.456 28.1106 248.456 29.3621H251.456ZM250.722 31.628C251.967 31.628 252.991 30.6206 252.991 29.3621H249.991C249.991 28.9495 250.324 28.628 250.722 28.628V31.628ZM252.991 29.3621C252.991 28.1035 251.967 27.0961 250.722 27.0961V30.0961C250.324 30.0961 249.991 29.7746 249.991 29.3621H252.991Z" fill="#111111"/>
</g>
<g id="Size=12px, Filled=true">
<g id="Vector_8">
<path d="M2.66748 84.0004C2.66748 84.2193 2.71059 84.436 2.79435 84.6382C2.87811 84.8404 3.00087 85.0242 3.15564 85.1789C3.3104 85.3337 3.49413 85.4564 3.69634 85.5402C3.89855 85.624 4.11528 85.6671 4.33415 85.6671C4.55302 85.6671 4.76974 85.624 4.97195 85.5402C5.17416 85.4564 5.35789 85.3337 5.51266 85.1789C5.66742 85.0242 5.79019 84.8404 5.87395 84.6382C5.9577 84.436 6.00081 84.2193 6.00081 84.0004C6.00081 83.5584 5.82522 83.1345 5.51266 82.8219C5.2001 82.5093 4.77617 82.3337 4.33415 82.3337C3.89212 82.3337 3.4682 82.5093 3.15564 82.8219C2.84308 83.1345 2.66748 83.5584 2.66748 84.0004Z" fill="#111111"/>
<path d="M4.33333 86.0833C2.37083 86.0833 1 87.1117 1 88.5833V89H7.66667V88.5833C7.66667 87.1121 6.29708 86.0833 4.33333 86.0833ZM8.5 79C8.00555 79 7.5222 79.1466 7.11107 79.4213C6.69995 79.696 6.37952 80.0865 6.1903 80.5433C6.00108 81.0001 5.95157 81.5028 6.04804 81.9877C6.1445 82.4727 6.3826 82.9181 6.73223 83.2678C7.08186 83.6174 7.52732 83.8555 8.01227 83.952C8.49723 84.0484 8.99989 83.9989 9.45671 83.8097C9.91352 83.6205 10.304 83.3 10.5787 82.8889C10.8534 82.4778 11 81.9945 11 81.5C10.9991 80.8372 10.7354 80.2019 10.2668 79.7332C9.79814 79.2646 9.16277 79.0009 8.5 79ZM8.91667 83.1667H8.08333V81.5H8.91667V83.1667ZM8.91667 80.6667C8.91667 80.7491 8.89223 80.8296 8.84645 80.8982C8.80066 80.9667 8.73559 81.0201 8.65945 81.0516C8.58331 81.0832 8.49954 81.0914 8.41871 81.0753C8.33789 81.0592 8.26364 81.0196 8.20537 80.9613C8.1471 80.903 8.10742 80.8288 8.09134 80.748C8.07526 80.6671 8.08351 80.5834 8.11505 80.5072C8.14659 80.4311 8.19999 80.366 8.26851 80.3202C8.33703 80.2744 8.41759 80.25 8.5 80.25C8.61051 80.25 8.71649 80.2939 8.79463 80.372C8.87277 80.4502 8.91667 80.5562 8.91667 80.6667Z" fill="#111111"/>
</g>
</g>
<g id="Size=16px, Filled=true">
<g id="Vector_9">
<path d="M27.5567 84.0005C27.5567 84.2924 27.6141 84.5813 27.7258 84.851C27.8375 85.1206 28.0012 85.3655 28.2075 85.5719C28.4139 85.7782 28.6589 85.9419 28.9285 86.0536C29.1981 86.1653 29.487 86.2228 29.7789 86.2228C30.0707 86.2228 30.3597 86.1653 30.6293 86.0536C30.8989 85.9419 31.1439 85.7782 31.3502 85.5719C31.5566 85.3655 31.7203 85.1206 31.8319 84.851C31.9436 84.5813 32.0011 84.2924 32.0011 84.0005C32.0011 83.4112 31.767 82.8459 31.3502 82.4292C30.9335 82.0124 30.3682 81.7783 29.7789 81.7783C29.1895 81.7783 28.6243 82.0124 28.2075 82.4292C27.7908 82.8459 27.5567 83.4112 27.5567 84.0005Z" fill="#111111"/>
<path d="M29.7778 86.7778C27.1611 86.7778 25.3333 88.1489 25.3333 90.1111V90.6667H34.2222V90.1111C34.2222 88.1494 32.3961 86.7778 29.7778 86.7778ZM35.3333 77.3333C34.6741 77.3333 34.0296 77.5288 33.4814 77.8951C32.9333 78.2614 32.506 78.782 32.2537 79.3911C32.0015 80.0001 31.9354 80.6704 32.0641 81.317C32.1927 81.9636 32.5101 82.5575 32.9763 83.0237C33.4425 83.4899 34.0364 83.8073 34.683 83.936C35.3296 84.0646 35.9999 83.9986 36.609 83.7463C37.218 83.494 37.7386 83.0667 38.1049 82.5186C38.4712 81.9704 38.6667 81.3259 38.6667 80.6667C38.6655 79.783 38.3139 78.9358 37.6891 78.3109C37.0642 77.6861 36.217 77.3345 35.3333 77.3333ZM35.8889 82.8889H34.7778V80.6667H35.8889V82.8889ZM35.8889 79.5556C35.8889 79.6654 35.8563 79.7728 35.7953 79.8642C35.7342 79.9556 35.6475 80.0268 35.5459 80.0688C35.4444 80.1109 35.3327 80.1219 35.225 80.1004C35.1172 80.079 35.0182 80.0261 34.9405 79.9484C34.8628 79.8707 34.8099 79.7717 34.7885 79.6639C34.767 79.5562 34.778 79.4445 34.8201 79.343C34.8621 79.2414 34.9333 79.1547 35.0247 79.0936C35.1161 79.0326 35.2235 79 35.3333 79C35.4807 79 35.622 79.0585 35.7262 79.1627C35.8304 79.2669 35.8889 79.4082 35.8889 79.5556Z" fill="#111111"/>
</g>
</g>
<g id="Size=20px, Filled=true">
<g id="Vector_10">
<path d="M56.4458 84.0007C56.4458 84.3655 56.5176 84.7267 56.6572 85.0637C56.7968 85.4007 57.0014 85.7069 57.2594 85.9649C57.5173 86.2228 57.8235 86.4274 58.1606 86.567C58.4976 86.7066 58.8588 86.7785 59.2236 86.7785C59.5884 86.7785 59.9496 86.7066 60.2866 86.567C60.6236 86.4274 60.9298 86.2228 61.1878 85.9649C61.4457 85.7069 61.6503 85.4007 61.7899 85.0637C61.9295 84.7267 62.0013 84.3655 62.0013 84.0007C62.0013 83.264 61.7087 82.5574 61.1878 82.0365C60.6668 81.5156 59.9603 81.2229 59.2236 81.2229C58.4869 81.2229 57.7803 81.5156 57.2594 82.0365C56.7384 82.5574 56.4458 83.264 56.4458 84.0007Z" fill="#111111"/>
<path d="M59.2222 87.4722C55.9514 87.4722 53.6667 89.1861 53.6667 91.6389V92.3333H64.7778V91.6389C64.7778 89.1868 62.4951 87.4722 59.2222 87.4722ZM66.1667 75.6667C65.3426 75.6667 64.537 75.911 63.8518 76.3689C63.1666 76.8267 62.6325 77.4775 62.3172 78.2388C62.0018 79.0002 61.9193 79.838 62.0801 80.6462C62.2408 81.4545 62.6377 82.1969 63.2204 82.7796C63.8031 83.3623 64.5455 83.7592 65.3538 83.9199C66.162 84.0807 66.9998 83.9982 67.7612 83.6828C68.5225 83.3675 69.1733 82.8334 69.6311 82.1482C70.089 81.463 70.3333 80.6574 70.3333 79.8333C70.3319 78.7287 69.8924 77.6698 69.1113 76.8887C68.3302 76.1076 67.2713 75.6681 66.1667 75.6667ZM66.8611 82.6111H65.4722V79.8333H66.8611V82.6111ZM66.8611 78.4444C66.8611 78.5818 66.8204 78.7161 66.7441 78.8303C66.6678 78.9445 66.5593 79.0335 66.4324 79.086C66.3055 79.1386 66.1659 79.1523 66.0312 79.1255C65.8965 79.0987 65.7727 79.0326 65.6756 78.9355C65.5785 78.8384 65.5124 78.7146 65.4856 78.5799C65.4588 78.4452 65.4725 78.3056 65.5251 78.1787C65.5776 78.0518 65.6666 77.9433 65.7808 77.867C65.895 77.7907 66.0293 77.75 66.1667 77.75C66.3508 77.75 66.5275 77.8232 66.6577 77.9534C66.7879 78.0836 66.8611 78.2603 66.8611 78.4444Z" fill="#111111"/>
</g>
</g>
<g id="Size=24px, Filled=true">
<g id="Vector_11">
<path d="M89.335 84.0008C89.335 84.4386 89.4212 84.872 89.5887 85.2764C89.7562 85.6808 90.0017 86.0483 90.3113 86.3578C90.6208 86.6674 90.9883 86.9129 91.3927 87.0804C91.7971 87.2479 92.2306 87.3341 92.6683 87.3341C93.106 87.3341 93.5395 87.2479 93.9439 87.0804C94.3483 86.9129 94.7158 86.6674 95.0253 86.3578C95.3348 86.0483 95.5804 85.6808 95.7479 85.2764C95.9154 84.872 96.0016 84.4386 96.0016 84.0008C96.0016 83.1168 95.6504 82.2689 95.0253 81.6438C94.4002 81.0187 93.5523 80.6675 92.6683 80.6675C91.7842 80.6675 90.9364 81.0187 90.3113 81.6438C89.6862 82.2689 89.335 83.1168 89.335 84.0008Z" fill="#111111"/>
<path d="M92.6667 88.1667C88.7417 88.1667 86 90.2233 86 93.1667V94H99.3333V93.1667C99.3333 90.2242 96.5942 88.1667 92.6667 88.1667ZM101 74C100.011 74 99.0444 74.2932 98.2221 74.8427C97.3999 75.3921 96.759 76.173 96.3806 77.0866C96.0022 78.0002 95.9031 79.0055 96.0961 79.9755C96.289 80.9454 96.7652 81.8363 97.4645 82.5355C98.1637 83.2348 99.0546 83.711 100.025 83.9039C100.994 84.0969 102 83.9978 102.913 83.6194C103.827 83.241 104.608 82.6001 105.157 81.7779C105.707 80.9556 106 79.9889 106 79C105.998 77.6745 105.471 76.4037 104.534 75.4664C103.596 74.5291 102.326 74.0018 101 74ZM101.833 82.3333H100.167V79H101.833V82.3333ZM101.833 77.3333C101.833 77.4982 101.784 77.6593 101.693 77.7963C101.601 77.9333 101.471 78.0402 101.319 78.1032C101.167 78.1663 100.999 78.1828 100.837 78.1507C100.676 78.1185 100.527 78.0391 100.411 77.9226C100.294 77.806 100.215 77.6576 100.183 77.4959C100.151 77.3343 100.167 77.1667 100.23 77.0144C100.293 76.8622 100.4 76.732 100.537 76.6404C100.674 76.5489 100.835 76.5 101 76.5C101.221 76.5 101.433 76.5878 101.589 76.7441C101.746 76.9004 101.833 77.1123 101.833 77.3333Z" fill="#111111"/>
</g>
</g>
<g id="Size=32px, Filled=true">
<g id="Vector_12">
<path d="M127.113 84.0011C127.113 84.5847 127.228 85.1627 127.452 85.7019C127.675 86.2411 128.002 86.7311 128.415 87.1438C128.828 87.5565 129.318 87.8839 129.857 88.1072C130.396 88.3306 130.974 88.4455 131.558 88.4455C132.141 88.4455 132.719 88.3306 133.259 88.1072C133.798 87.8839 134.288 87.5565 134.7 87.1438C135.113 86.7311 135.44 86.2411 135.664 85.7019C135.887 85.1627 136.002 84.5847 136.002 84.0011C136.002 82.8223 135.534 81.6919 134.7 80.8584C133.867 80.0249 132.736 79.5566 131.558 79.5566C130.379 79.5566 129.249 80.0249 128.415 80.8584C127.582 81.6919 127.113 82.8223 127.113 84.0011Z" fill="#111111"/>
<path d="M131.556 89.5556C126.322 89.5556 122.667 92.2978 122.667 96.2222V97.3333H140.444V96.2222C140.444 92.2989 136.792 89.5556 131.556 89.5556ZM142.667 70.6667C141.348 70.6667 140.059 71.0577 138.963 71.7902C137.867 72.5227 137.012 73.5639 136.507 74.7821C136.003 76.0003 135.871 77.3407 136.128 78.6339C136.385 79.9271 137.02 81.115 137.953 82.0474C138.885 82.9797 140.073 83.6147 141.366 83.8719C142.659 84.1291 144 83.9971 145.218 83.4925C146.436 82.9879 147.477 82.1335 148.21 81.0371C148.942 79.9408 149.333 78.6519 149.333 77.3333C149.331 75.5659 148.628 73.8716 147.378 72.6219C146.128 71.3722 144.434 70.669 142.667 70.6667ZM143.778 81.7778H141.556V77.3333H143.778V81.7778ZM143.778 75.1111C143.778 75.3309 143.713 75.5457 143.591 75.7284C143.468 75.9111 143.295 76.0535 143.092 76.1376C142.889 76.2217 142.665 76.2437 142.45 76.2009C142.234 76.158 142.036 76.0522 141.881 75.8968C141.726 75.7414 141.62 75.5434 141.577 75.3279C141.534 75.1123 141.556 74.8889 141.64 74.6859C141.724 74.4829 141.867 74.3093 142.049 74.1873C142.232 74.0652 142.447 74 142.667 74C142.961 74 143.244 74.1171 143.452 74.3254C143.661 74.5338 143.778 74.8164 143.778 75.1111Z" fill="#111111"/>
</g>
</g>
<g id="Size=40px, Filled=true">
<g id="Vector_13">
<path d="M172.892 84.0014C172.892 84.7309 173.035 85.4533 173.315 86.1274C173.594 86.8014 174.003 87.4138 174.519 87.9297C175.035 88.4456 175.647 88.8548 176.321 89.134C176.995 89.4132 177.718 89.5569 178.447 89.5569C179.177 89.5569 179.899 89.4132 180.573 89.134C181.247 88.8548 181.86 88.4456 182.376 87.9297C182.891 87.4138 183.301 86.8014 183.58 86.1274C183.859 85.4533 184.003 84.7309 184.003 84.0014C184.003 82.5279 183.417 81.1149 182.376 80.073C181.334 79.0311 179.921 78.4458 178.447 78.4458C176.974 78.4458 175.561 79.0311 174.519 80.073C173.477 81.1149 172.892 82.5279 172.892 84.0014Z" fill="#111111"/>
<path d="M178.444 90.9444C171.903 90.9444 167.333 94.3722 167.333 99.2778V100.667H189.556V99.2778C189.556 94.3736 184.99 90.9444 178.444 90.9444ZM192.333 67.3333C190.685 67.3333 189.074 67.8221 187.704 68.7378C186.333 69.6534 185.265 70.9549 184.634 72.4776C184.004 74.0004 183.839 75.6759 184.16 77.2924C184.482 78.9089 185.275 80.3938 186.441 81.5592C187.606 82.7247 189.091 83.5183 190.708 83.8399C192.324 84.1614 194 83.9964 195.522 83.3657C197.045 82.7349 198.347 81.6668 199.262 80.2964C200.178 78.926 200.667 77.3148 200.667 75.6667C200.664 73.4574 199.785 71.3395 198.223 69.7774C196.66 68.2152 194.543 67.3363 192.333 67.3333ZM193.722 81.2222H190.944V75.6667H193.722V81.2222ZM193.722 72.8889C193.722 73.1636 193.641 73.4321 193.488 73.6605C193.336 73.8889 193.119 74.0669 192.865 74.1721C192.611 74.2772 192.332 74.3047 192.062 74.2511C191.793 74.1975 191.545 74.0652 191.351 73.871C191.157 73.6767 191.025 73.4293 190.971 73.1599C190.918 72.8904 190.945 72.6112 191.05 72.3574C191.155 72.1036 191.333 71.8867 191.562 71.7341C191.79 71.5815 192.059 71.5 192.333 71.5C192.702 71.5 193.055 71.6463 193.315 71.9068C193.576 72.1673 193.722 72.5205 193.722 72.8889Z" fill="#111111"/>
</g>
</g>
<g id="Size=48px, Filled=true">
<g id="Vector_14">
<path d="M226.67 84.0016C226.67 84.8771 226.842 85.744 227.177 86.5529C227.512 87.3617 228.003 88.0966 228.623 88.7157C229.242 89.3347 229.977 89.8258 230.785 90.1608C231.594 90.4959 232.461 90.6683 233.337 90.6683C234.212 90.6683 235.079 90.4959 235.888 90.1608C236.697 89.8258 237.432 89.3347 238.051 88.7157C238.67 88.0966 239.161 87.3617 239.496 86.5529C239.831 85.744 240.003 84.8771 240.003 84.0016C240.003 82.2335 239.301 80.5378 238.051 79.2876C236.8 78.0373 235.105 77.335 233.337 77.335C231.568 77.335 229.873 78.0373 228.623 79.2876C227.372 80.5378 226.67 82.2335 226.67 84.0016Z" fill="#111111"/>
<path d="M233.333 92.3333C225.483 92.3333 220 96.4467 220 102.333V104H246.667V102.333C246.667 96.4483 241.188 92.3333 233.333 92.3333ZM250 64C248.022 64 246.089 64.5865 244.444 65.6853C242.8 66.7841 241.518 68.3459 240.761 70.1732C240.004 72.0004 239.806 74.0111 240.192 75.9509C240.578 77.8907 241.53 79.6725 242.929 81.0711C244.327 82.4696 246.109 83.422 248.049 83.8079C249.989 84.1937 252 83.9957 253.827 83.2388C255.654 82.4819 257.216 81.2002 258.315 79.5557C259.414 77.9112 260 75.9778 260 74C259.996 71.3489 258.942 68.8074 257.067 66.9328C255.193 65.0582 252.651 64.0035 250 64ZM251.667 80.6667H248.333V74H251.667V80.6667ZM251.667 70.6667C251.667 70.9963 251.569 71.3185 251.386 71.5926C251.203 71.8667 250.942 72.0803 250.638 72.2065C250.333 72.3326 249.998 72.3656 249.675 72.3013C249.352 72.237 249.055 72.0783 248.821 71.8452C248.588 71.6121 248.43 71.3151 248.365 70.9918C248.301 70.6685 248.334 70.3334 248.46 70.0289C248.586 69.7243 248.8 69.464 249.074 69.2809C249.348 69.0977 249.67 69 250 69C250.442 69 250.866 69.1756 251.179 69.4882C251.491 69.8007 251.667 70.2246 251.667 70.6667Z" fill="#111111"/>
</g>
</g>
</g>
</g>
<defs>
<clipPath id="clip0_6388_978">
<rect width="264" height="108" rx="5" fill="white"/>
</clipPath>
<clipPath id="clip1_6388_978">
<rect width="12" height="12" fill="white" transform="translate(0 18)"/>
</clipPath>
<clipPath id="clip2_6388_978">
<rect width="16" height="16" fill="white" transform="translate(24 16)"/>
</clipPath>
</defs>
</svg>
