<svg width="264" height="108" viewBox="0 0 264 108" fill="none" xmlns="http://www.w3.org/2000/svg">
<g id="User Collaborate">
<g clip-path="url(#clip0_8290_232)">
<g id="Size=12px, Filled=false" clip-path="url(#clip1_8290_232)">
<path id="Vector" d="M1.62935 26.5177C1.63667 26.6466 1.64307 26.7764 1.65131 26.9053C1.67593 27.325 1.85618 27.7211 2.15781 28.0184C2.45944 28.3157 2.86143 28.4935 3.28739 28.518C3.71288 28.5424 4.13379 28.5613 4.55288 28.5739M7.32726 19.2584C7.77406 19.271 8.22065 19.2902 8.66686 19.3161C9.54895 19.3675 10.2499 20.0589 10.3029 20.9279C10.3203 21.2172 10.335 21.5048 10.3459 21.7906M2.96163 21.7203C4.30673 21.7203 5.17418 22.7614 5.17418 24.1325H0.75C0.75 22.7614 1.61745 21.7203 2.96163 21.7203ZM2.96163 21.7203C3.92699 21.7203 4.46961 21.1857 4.46961 20.2356C4.46961 19.2846 3.92699 18.75 2.96163 18.75C1.99719 18.75 1.45458 19.2846 1.45458 20.2356C1.45458 21.1857 1.99719 21.7203 2.96163 21.7203ZM9.03745 26.8377C10.3825 26.8377 11.25 27.878 11.25 29.25H6.8249C6.8249 27.878 7.69327 26.8377 9.03745 26.8377ZM9.03745 26.8377C10.0019 26.8377 10.5454 26.3032 10.5454 25.3531C10.5454 24.402 10.0019 23.8675 9.03745 23.8675C8.07209 23.8675 7.52948 24.402 7.52948 25.3531C7.52948 26.3032 8.07209 26.8377 9.03745 26.8377Z" stroke="#111111" stroke-width="0.75" stroke-linecap="round" stroke-linejoin="round"/>
</g>
<g id="Size=16px, Filled=false" clip-path="url(#clip2_8290_232)">
<path id="Vector_2" d="M26.1725 27.357C26.1822 27.5288 26.1908 27.7019 26.2017 27.8738C26.2346 28.4333 26.4749 28.9615 26.8771 29.3579C27.2793 29.7543 27.8152 29.9914 28.3832 30.024C28.9505 30.0565 29.5117 30.0817 30.0705 30.0986M33.7697 17.6779C34.3654 17.6946 34.9609 17.7203 35.5558 17.7548C36.7319 17.8233 37.6665 18.7452 37.7373 19.9038C37.7604 20.2897 37.78 20.6731 37.7946 21.0541M27.9488 20.9603C29.7423 20.9603 30.8989 22.3486 30.8989 24.1767H25C25 22.3486 26.1566 20.9603 27.9488 20.9603ZM27.9488 20.9603C29.236 20.9603 29.9595 20.2476 29.9595 18.9808C29.9595 17.7127 29.236 17 27.9488 17C26.6629 17 25.9394 17.7127 25.9394 18.9808C25.9394 20.2476 26.6629 20.9603 27.9488 20.9603ZM36.0499 27.7837C37.8434 27.7837 39 29.1707 39 31H33.0999C33.0999 29.1707 34.2577 27.7837 36.0499 27.7837ZM36.0499 27.7837C37.3359 27.7837 38.0606 27.0709 38.0606 25.8041C38.0606 24.5361 37.3359 23.8233 36.0499 23.8233C34.7628 23.8233 34.0393 24.5361 34.0393 25.8041C34.0393 27.0709 34.7628 27.7837 36.0499 27.7837Z" stroke="#111111" stroke-linecap="round" stroke-linejoin="round"/>
</g>
<g id="Size=20px, Filled=false" clip-path="url(#clip3_8290_232)">
<path id="Vector_3" d="M54.7156 28.1962C54.7278 28.4111 54.7385 28.6274 54.7522 28.8422C54.7932 29.5417 55.0936 30.2019 55.5964 30.6974C56.0991 31.1929 56.769 31.4892 57.479 31.53C58.1881 31.5706 58.8897 31.6022 59.5881 31.6232M64.2121 16.0974C64.9568 16.1183 65.7011 16.1504 66.4448 16.1935C67.9149 16.2791 69.0831 17.4315 69.1716 18.8798C69.2005 19.3621 69.2249 19.8413 69.2432 20.3176M56.9361 20.2004C59.1779 20.2004 60.6236 21.9357 60.6236 24.2209H53.25C53.25 21.9357 54.6958 20.2004 56.9361 20.2004ZM56.9361 20.2004C58.545 20.2004 59.4493 19.3095 59.4493 17.726C59.4493 16.1409 58.545 15.25 56.9361 15.25C55.3286 15.25 54.4243 16.1409 54.4243 17.726C54.4243 19.3095 55.3286 20.2004 56.9361 20.2004ZM67.0624 28.7296C69.3042 28.7296 70.75 30.4633 70.75 32.75H63.3748C63.3748 30.4633 64.8221 28.7296 67.0624 28.7296ZM67.0624 28.7296C68.6698 28.7296 69.5757 27.8386 69.5757 26.2551C69.5757 24.6701 68.6698 23.7791 67.0624 23.7791C65.4535 23.7791 64.5491 24.6701 64.5491 26.2551C64.5491 27.8386 65.4535 28.7296 67.0624 28.7296Z" stroke="#111111" stroke-width="1.25" stroke-linecap="round" stroke-linejoin="round"/>
</g>
<g id="Size=24px, Filled=false" clip-path="url(#clip4_8290_232)">
<path id="Vector_4" d="M87.2587 29.0355C87.2733 29.2933 87.2861 29.5529 87.3026 29.8107C87.3519 30.65 87.7124 31.4422 88.3156 32.0369C88.9189 32.6315 89.7229 32.9871 90.5748 33.0361C91.4258 33.0847 92.2676 33.1226 93.1058 33.1478M98.6545 14.5168C99.5481 14.542 100.441 14.5804 101.334 14.6322C103.098 14.735 104.5 16.1178 104.606 17.8558C104.641 18.4345 104.67 19.0096 104.692 19.5811M89.9233 19.4405C92.6135 19.4405 94.3484 21.5228 94.3484 24.265H85.5C85.5 21.5228 87.2349 19.4405 89.9233 19.4405ZM89.9233 19.4405C91.854 19.4405 92.9392 18.3714 92.9392 16.4712C92.9392 14.5691 91.854 13.5 89.9233 13.5C87.9944 13.5 86.9092 14.5691 86.9092 16.4712C86.9092 18.3714 87.9944 19.4405 89.9233 19.4405ZM102.075 29.6755C104.765 29.6755 106.5 31.756 106.5 34.5H97.6498C97.6498 31.756 99.3865 29.6755 102.075 29.6755ZM102.075 29.6755C104.004 29.6755 105.091 28.6064 105.091 26.7061C105.091 24.8041 104.004 23.735 102.075 23.735C100.144 23.735 99.059 24.8041 99.059 26.7061C99.059 28.6064 100.144 29.6755 102.075 29.6755Z" stroke="#111111" stroke-width="1.5" stroke-linecap="round" stroke-linejoin="round"/>
</g>
<g id="Size=32px, Filled=false">
<path id="Vector_5" d="M124.345 30.7139C124.364 31.0577 124.382 31.4038 124.403 31.7476C124.469 32.8667 124.95 33.923 125.754 34.7158C126.559 35.5086 127.63 35.9828 128.766 36.0481C129.901 36.113 131.023 36.1635 132.141 36.1971M139.539 11.3558C140.731 11.3893 141.922 11.4406 143.112 11.5096C145.464 11.6466 147.333 13.4904 147.475 15.8077C147.521 16.5793 147.56 17.3462 147.589 18.1082M127.898 17.9207C131.485 17.9207 133.798 20.6971 133.798 24.3534H122C122 20.6971 124.313 17.9207 127.898 17.9207ZM127.898 17.9207C130.472 17.9207 131.919 16.4952 131.919 13.9615C131.919 11.4255 130.472 10 127.898 10C125.326 10 123.879 11.4255 123.879 13.9615C123.879 16.4952 125.326 17.9207 127.898 17.9207ZM144.1 31.5673C147.687 31.5673 150 34.3413 150 38H138.2C138.2 34.3413 140.515 31.5673 144.1 31.5673ZM144.1 31.5673C146.672 31.5673 148.121 30.1418 148.121 27.6082C148.121 25.0721 146.672 23.6466 144.1 23.6466C141.526 23.6466 140.079 25.0721 140.079 27.6082C140.079 30.1418 141.526 31.5673 144.1 31.5673Z" stroke="#111111" stroke-width="2" stroke-linecap="round" stroke-linejoin="round"/>
</g>
<g id="Size=40px, Filled=false">
<path id="Vector_6" d="M169.431 32.3924C169.456 32.8221 169.477 33.2548 169.504 33.6845C169.586 35.0833 170.187 36.4037 171.193 37.3948C172.198 38.3858 173.538 38.9785 174.958 39.0601C176.376 39.1412 177.779 39.2043 179.176 39.2464M188.424 8.19471C189.914 8.23661 191.402 8.30072 192.89 8.38702C195.83 8.55829 198.166 10.863 198.343 13.7596C198.401 14.7242 198.45 15.6827 198.486 16.6352M173.872 16.4008C178.356 16.4008 181.247 19.8714 181.247 24.4417H166.5C166.5 19.8714 169.392 16.4008 173.872 16.4008ZM173.872 16.4008C177.09 16.4008 178.899 14.619 178.899 11.4519C178.899 8.28185 177.09 6.5 173.872 6.5C170.657 6.5 168.849 8.28185 168.849 11.4519C168.849 14.619 170.657 16.4008 173.872 16.4008ZM194.125 33.4591C198.608 33.4591 201.5 36.9267 201.5 41.5H186.75C186.75 36.9267 189.644 33.4591 194.125 33.4591ZM194.125 33.4591C197.34 33.4591 199.151 31.6773 199.151 28.5102C199.151 25.3401 197.34 23.5583 194.125 23.5583C190.907 23.5583 189.098 25.3401 189.098 28.5102C189.098 31.6773 190.907 33.4591 194.125 33.4591Z" stroke="#111111" stroke-width="2.5" stroke-linecap="round" stroke-linejoin="round"/>
</g>
<g id="Size=48px, Filled=false">
<path id="Vector_7" d="M222.517 34.0709C222.547 34.5865 222.572 35.1058 222.605 35.6214C222.704 37.3 223.425 38.8844 224.631 40.0737C225.838 41.263 227.446 41.9741 229.15 42.0721C230.852 42.1695 232.535 42.2452 234.212 42.2957M245.309 5.03365C247.096 5.08393 248.883 5.16087 250.667 5.26442C254.196 5.46995 256.999 8.23558 257.212 11.7115C257.281 12.869 257.34 14.0192 257.384 15.1623M227.847 14.881C233.227 14.881 236.697 19.0457 236.697 24.5301H219C219 19.0457 222.47 14.881 227.847 14.881ZM227.847 14.881C231.708 14.881 233.878 12.7428 233.878 8.94231C233.878 5.13822 231.708 3 227.847 3C223.989 3 221.818 5.13822 221.818 8.94231C221.818 12.7428 223.989 14.881 227.847 14.881ZM252.15 35.351C257.53 35.351 261 39.512 261 45H243.3C243.3 39.512 246.773 35.351 252.15 35.351ZM252.15 35.351C256.008 35.351 258.182 33.2127 258.182 29.4123C258.182 25.6082 256.008 23.47 252.15 23.47C248.288 23.47 246.118 25.6082 246.118 29.4123C246.118 33.2127 248.288 35.351 252.15 35.351Z" stroke="#111111" stroke-width="3" stroke-linecap="round" stroke-linejoin="round"/>
</g>
<g id="Size=12px, Filled=true">
<g id="Vector_8">
<path d="M3.10632 81.8288C4.38736 81.8288 5.21351 82.8204 5.21351 84.1262H1C1 82.8204 1.82614 81.8288 3.10632 81.8288Z" fill="#111111"/>
<path d="M8.89281 86.7026C10.1739 86.7026 11 87.6933 11 89H6.78562C6.78562 87.6933 7.61264 86.7026 8.89281 86.7026Z" fill="#111111"/>
<path d="M3.10632 81.8288C4.02571 81.8288 4.54248 81.3197 4.54248 80.4148C4.54248 79.5091 4.02571 79 3.10632 79C2.1878 79 1.67102 79.5091 1.67102 80.4148C1.67102 81.3197 2.1878 81.8288 3.10632 81.8288Z" fill="#111111"/>
<path d="M8.89281 86.7026C9.81133 86.7026 10.329 86.1935 10.329 85.2886C10.329 84.3829 9.81133 83.8738 8.89281 83.8738C7.97342 83.8738 7.45665 84.3829 7.45665 85.2886C7.45665 86.1935 7.97342 86.7026 8.89281 86.7026Z" fill="#111111"/>
<path fill-rule="evenodd" clip-rule="evenodd" d="M6.73298 79.3949C6.73298 79.1875 6.90368 79.0193 7.11424 79.0193C7.99982 79.0193 8.83976 79.1442 9.46179 79.5926C10.1104 80.0602 10.444 80.8187 10.444 81.8989C10.444 82.1064 10.2733 82.2745 10.0627 82.2745C9.85214 82.2745 9.68144 82.1064 9.68144 81.8989C9.68144 80.9759 9.405 80.4825 9.01151 80.1988C8.59143 79.896 7.95714 79.7705 7.11424 79.7705C6.90368 79.7705 6.73298 79.6024 6.73298 79.3949Z" fill="#111111"/>
<path fill-rule="evenodd" clip-rule="evenodd" d="M5.13176 88.4093C5.13176 88.6168 4.96106 88.7849 4.7505 88.7849C3.86492 88.7849 3.02498 88.6601 2.40295 88.2117C1.75432 87.7441 1.42077 86.9856 1.42077 85.9053C1.42077 85.6979 1.59147 85.5297 1.80203 85.5297C2.0126 85.5297 2.1833 85.6979 2.1833 85.9053C2.1833 86.8283 2.45974 87.3218 2.85323 87.6054C3.27331 87.9082 3.9076 88.0337 4.7505 88.0337C4.96106 88.0337 5.13176 88.2019 5.13176 88.4093Z" fill="#111111"/>
</g>
</g>
<g id="Size=16px, Filled=true">
<g id="Vector_9">
<path d="M27.9488 80.9603C29.7423 80.9603 30.8989 82.3486 30.8989 84.1767H25C25 82.3486 26.1566 80.9603 27.9488 80.9603Z" fill="#111111"/>
<path d="M36.0499 87.7837C37.8434 87.7837 39 89.1707 39 91H33.0999C33.0999 89.1707 34.2577 87.7837 36.0499 87.7837Z" fill="#111111"/>
<path d="M27.9488 80.9603C29.236 80.9603 29.9595 80.2476 29.9595 78.9808C29.9595 77.7127 29.236 77 27.9488 77C26.6629 77 25.9394 77.7127 25.9394 78.9808C25.9394 80.2476 26.6629 80.9603 27.9488 80.9603Z" fill="#111111"/>
<path d="M36.0499 87.7837C37.3359 87.7837 38.0606 87.0709 38.0606 85.8041C38.0606 84.5361 37.3359 83.8233 36.0499 83.8233C34.7628 83.8233 34.0393 84.5361 34.0393 85.8041C34.0393 87.0709 34.7628 87.7837 36.0499 87.7837Z" fill="#111111"/>
<path fill-rule="evenodd" clip-rule="evenodd" d="M33.0262 77.5529C33.0262 77.2625 33.2651 77.027 33.5599 77.027C34.7997 77.027 35.9757 77.2019 36.8465 77.8296C37.7546 78.4842 38.2216 79.5462 38.2216 81.0585C38.2216 81.3489 37.9826 81.5843 37.6878 81.5843C37.393 81.5843 37.154 81.3489 37.154 81.0585C37.154 79.7663 36.767 79.0755 36.2161 78.6784C35.628 78.2544 34.74 78.0787 33.5599 78.0787C33.2651 78.0787 33.0262 77.8433 33.0262 77.5529Z" fill="#111111"/>
<path fill-rule="evenodd" clip-rule="evenodd" d="M30.7845 90.1731C30.7845 90.4635 30.5455 90.6989 30.2507 90.6989C29.0109 90.6989 27.835 90.5241 26.9641 89.8963C26.0561 89.2417 25.5891 88.1798 25.5891 86.6675C25.5891 86.3771 25.8281 86.1416 26.1228 86.1416C26.4176 86.1416 26.6566 86.3771 26.6566 86.6675C26.6566 87.9596 27.0436 88.6505 27.5945 89.0476C28.1826 89.4715 29.0706 89.6472 30.2507 89.6472C30.5455 89.6472 30.7845 89.8827 30.7845 90.1731Z" fill="#111111"/>
</g>
</g>
<g id="Size=20px, Filled=true">
<g id="Vector_10">
<path d="M56.9361 80.2004C59.1779 80.2004 60.6236 81.9357 60.6236 84.2209H53.25C53.25 81.9357 54.6958 80.2004 56.9361 80.2004Z" fill="#111111"/>
<path d="M67.0624 88.7296C69.3042 88.7296 70.75 90.4633 70.75 92.75H63.3748C63.3748 90.4633 64.8221 88.7296 67.0624 88.7296Z" fill="#111111"/>
<path d="M56.9361 80.2004C58.545 80.2004 59.4493 79.3095 59.4493 77.726C59.4493 76.1409 58.545 75.25 56.9361 75.25C55.3286 75.25 54.4243 76.1409 54.4243 77.726C54.4243 79.3095 55.3286 80.2004 56.9361 80.2004Z" fill="#111111"/>
<path d="M67.0624 88.7296C68.6698 88.7296 69.5757 87.8386 69.5757 86.2551C69.5757 84.6701 68.6698 83.7791 67.0624 83.7791C65.4535 83.7791 64.5491 84.6701 64.5491 86.2551C64.5491 87.8386 65.4535 88.7296 67.0624 88.7296Z" fill="#111111"/>
<path fill-rule="evenodd" clip-rule="evenodd" d="M63.2827 75.9411C63.2827 75.5781 63.5814 75.2838 63.9499 75.2838C65.4997 75.2838 66.9696 75.5024 68.0581 76.287C69.1932 77.1053 69.7769 78.4327 69.7769 80.3231C69.7769 80.6861 69.4782 80.9804 69.1097 80.9804C68.7412 80.9804 68.4425 80.6861 68.4425 80.3231C68.4425 78.7079 67.9587 77.8443 67.2701 77.348C66.535 76.8181 65.425 76.5984 63.9499 76.5984C63.5814 76.5984 63.2827 76.3041 63.2827 75.9411Z" fill="#111111"/>
<path fill-rule="evenodd" clip-rule="evenodd" d="M60.4806 91.7163C60.4806 92.0794 60.1819 92.3736 59.8134 92.3736C58.2636 92.3736 56.7937 92.1551 55.7052 91.3704C54.5701 90.5522 53.9863 89.2247 53.9863 87.3343C53.9863 86.9713 54.2851 86.677 54.6536 86.677C55.022 86.677 55.3208 86.9713 55.3208 87.3343C55.3208 88.9495 55.8045 89.8131 56.4932 90.3095C57.2283 90.8394 58.3383 91.059 59.8134 91.059C60.1819 91.059 60.4806 91.3533 60.4806 91.7163Z" fill="#111111"/>
</g>
</g>
<g id="Size=24px, Filled=true">
<g id="Vector_11">
<path d="M89.9233 79.4405C92.6135 79.4405 94.3484 81.5228 94.3484 84.265H85.5C85.5 81.5228 87.2349 79.4405 89.9233 79.4405Z" fill="#111111"/>
<path d="M102.075 89.6755C104.765 89.6755 106.5 91.756 106.5 94.5H97.6498C97.6498 91.756 99.3865 89.6755 102.075 89.6755Z" fill="#111111"/>
<path d="M89.9233 79.4405C91.854 79.4405 92.9392 78.3714 92.9392 76.4712C92.9392 74.5691 91.854 73.5 89.9233 73.5C87.9944 73.5 86.9092 74.5691 86.9092 76.4712C86.9092 78.3714 87.9944 79.4405 89.9233 79.4405Z" fill="#111111"/>
<path d="M102.075 89.6755C104.004 89.6755 105.091 88.6064 105.091 86.7061C105.091 84.8041 104.004 83.735 102.075 83.735C100.144 83.735 99.059 84.8041 99.059 86.7061C99.059 88.6064 100.144 89.6755 102.075 89.6755Z" fill="#111111"/>
<path fill-rule="evenodd" clip-rule="evenodd" d="M97.5393 74.3293C97.5393 73.8937 97.8977 73.5406 98.3399 73.5406C100.2 73.5406 101.963 73.8028 103.27 74.7445C104.632 75.7263 105.332 77.3193 105.332 79.5877C105.332 80.0234 104.974 80.3765 104.532 80.3765C104.089 80.3765 103.731 80.0234 103.731 79.5877C103.731 77.6495 103.15 76.6132 102.324 76.0176C101.442 75.3817 100.11 75.1181 98.3399 75.1181C97.8977 75.1181 97.5393 74.7649 97.5393 74.3293Z" fill="#111111"/>
<path fill-rule="evenodd" clip-rule="evenodd" d="M94.1767 93.2596C94.1767 93.6952 93.8182 94.0484 93.376 94.0484C91.5163 94.0484 89.7525 93.7861 88.4462 92.8445C87.0841 91.8626 86.3836 90.2697 86.3836 88.0012C86.3836 87.5656 86.7421 87.2124 87.1843 87.2124C87.6265 87.2124 87.9849 87.5656 87.9849 88.0012C87.9849 89.9395 88.5655 90.9757 89.3918 91.5714C90.2739 92.2073 91.606 92.4709 93.376 92.4709C93.8182 92.4709 94.1767 92.824 94.1767 93.2596Z" fill="#111111"/>
</g>
</g>
<g id="Size=32px, Filled=true">
<g id="Vector_12">
<path d="M127.898 77.9207C131.485 77.9207 133.798 80.6971 133.798 84.3534H122C122 80.6971 124.313 77.9207 127.898 77.9207Z" fill="#111111"/>
<path d="M144.1 91.5673C147.687 91.5673 150 94.3413 150 98H138.2C138.2 94.3413 140.515 91.5673 144.1 91.5673Z" fill="#111111"/>
<path d="M127.898 77.9207C130.472 77.9207 131.919 76.4952 131.919 73.9615C131.919 71.4255 130.472 70 127.898 70C125.326 70 123.879 71.4255 123.879 73.9615C123.879 76.4952 125.326 77.9207 127.898 77.9207Z" fill="#111111"/>
<path d="M144.1 91.5673C146.672 91.5673 148.121 90.1418 148.121 87.6082C148.121 85.0721 146.672 83.6466 144.1 83.6466C141.526 83.6466 140.079 85.0721 140.079 87.6082C140.079 90.1418 141.526 91.5673 144.1 91.5673Z" fill="#111111"/>
<path fill-rule="evenodd" clip-rule="evenodd" d="M138.052 71.1058C138.052 70.5249 138.53 70.0541 139.12 70.0541C141.599 70.0541 143.951 70.4038 145.693 71.6593C147.509 72.9684 148.443 75.0924 148.443 78.117C148.443 78.6978 147.965 79.1687 147.376 79.1687C146.786 79.1687 146.308 78.6978 146.308 78.117C146.308 75.5327 145.534 74.151 144.432 73.3568C143.256 72.5089 141.48 72.1575 139.12 72.1575C138.53 72.1575 138.052 71.6866 138.052 71.1058Z" fill="#111111"/>
<path fill-rule="evenodd" clip-rule="evenodd" d="M133.569 96.3462C133.569 96.927 133.091 97.3978 132.501 97.3978C130.022 97.3978 127.67 97.0481 125.928 95.7927C124.112 94.4835 123.178 92.3596 123.178 89.3349C123.178 88.7541 123.656 88.2833 124.246 88.2833C124.835 88.2833 125.313 88.7541 125.313 89.3349C125.313 91.9193 126.087 93.301 127.189 94.0952C128.365 94.943 130.141 95.2945 132.501 95.2945C133.091 95.2945 133.569 95.7653 133.569 96.3462Z" fill="#111111"/>
</g>
</g>
<g id="Size=40px, Filled=true">
<g id="Vector_13">
<path d="M173.872 76.4008C178.356 76.4008 181.247 79.8714 181.247 84.4417H166.5C166.5 79.8714 169.392 76.4008 173.872 76.4008Z" fill="#111111"/>
<path d="M194.125 93.4591C198.608 93.4591 201.5 96.9267 201.5 101.5H186.75C186.75 96.9267 189.644 93.4591 194.125 93.4591Z" fill="#111111"/>
<path d="M173.872 76.4008C177.09 76.4008 178.899 74.619 178.899 71.4519C178.899 68.2819 177.09 66.5 173.872 66.5C170.657 66.5 168.849 68.2819 168.849 71.4519C168.849 74.619 170.657 76.4008 173.872 76.4008Z" fill="#111111"/>
<path d="M194.125 93.4591C197.34 93.4591 199.151 91.6773 199.151 88.5102C199.151 85.3401 197.34 83.5583 194.125 83.5583C190.907 83.5583 189.098 85.3401 189.098 88.5102C189.098 91.6773 190.907 93.4591 194.125 93.4591Z" fill="#111111"/>
<path fill-rule="evenodd" clip-rule="evenodd" d="M186.565 67.8822C186.565 67.1562 187.163 66.5676 187.9 66.5676C190.999 66.5676 193.939 67.0047 196.116 68.5741C198.386 70.2105 199.554 72.8654 199.554 76.6462C199.554 77.3723 198.956 77.9608 198.219 77.9608C197.482 77.9608 196.885 77.3723 196.885 76.6462C196.885 73.4158 195.917 71.6887 194.54 70.6959C193.07 69.6361 190.85 69.1968 187.9 69.1968C187.163 69.1968 186.565 68.6082 186.565 67.8822Z" fill="#111111"/>
<path fill-rule="evenodd" clip-rule="evenodd" d="M180.961 99.4327C180.961 100.159 180.364 100.747 179.627 100.747C176.527 100.747 173.587 100.31 171.41 98.7408C169.14 97.1044 167.973 94.4495 167.973 90.6687C167.973 89.9426 168.57 89.3541 169.307 89.3541C170.044 89.3541 170.642 89.9426 170.642 90.6687C170.642 93.8991 171.609 95.6262 172.986 96.619C174.457 97.6788 176.677 98.1181 179.627 98.1181C180.364 98.1181 180.961 98.7067 180.961 99.4327Z" fill="#111111"/>
</g>
</g>
<g id="Size=48px, Filled=true">
<g id="Vector_14">
<path d="M227.847 74.881C233.227 74.881 236.697 79.0457 236.697 84.5301H219C219 79.0457 222.47 74.881 227.847 74.881Z" fill="#111111"/>
<path d="M252.15 95.351C257.53 95.351 261 99.512 261 105H243.3C243.3 99.512 246.773 95.351 252.15 95.351Z" fill="#111111"/>
<path d="M227.847 74.881C231.708 74.881 233.878 72.7428 233.878 68.9423C233.878 65.1382 231.708 63 227.847 63C223.989 63 221.818 65.1382 221.818 68.9423C221.818 72.7428 223.989 74.881 227.847 74.881Z" fill="#111111"/>
<path d="M252.15 95.351C256.008 95.351 258.182 93.2127 258.182 89.4123C258.182 85.6082 256.008 83.47 252.15 83.47C248.288 83.47 246.118 85.6082 246.118 89.4123C246.118 93.2127 248.288 95.351 252.15 95.351Z" fill="#111111"/>
<path fill-rule="evenodd" clip-rule="evenodd" d="M243.079 64.6587C243.079 63.7874 243.795 63.0811 244.68 63.0811C248.399 63.0811 251.927 63.6057 254.54 65.4889C257.264 67.4527 258.665 70.6385 258.665 75.1755C258.665 76.0467 257.948 76.753 257.063 76.753C256.179 76.753 255.462 76.0467 255.462 75.1755C255.462 71.299 254.301 69.2264 252.648 68.0351C250.884 66.7633 248.22 66.2362 244.68 66.2362C243.795 66.2362 243.079 65.5299 243.079 64.6587Z" fill="#111111"/>
<path fill-rule="evenodd" clip-rule="evenodd" d="M236.353 102.519C236.353 103.39 235.636 104.097 234.752 104.097C231.033 104.097 227.505 103.572 224.892 101.689C222.168 99.7252 220.767 96.5394 220.767 92.0024C220.767 91.1312 221.484 90.4249 222.369 90.4249C223.253 90.4249 223.97 91.1312 223.97 92.0024C223.97 95.8789 225.131 97.9515 226.784 99.1428C228.548 100.415 231.212 100.942 234.752 100.942C235.636 100.942 236.353 101.648 236.353 102.519Z" fill="#111111"/>
</g>
</g>
</g>
</g>
<defs>
<clipPath id="clip0_8290_232">
<rect width="264" height="108" rx="5" fill="white"/>
</clipPath>
<clipPath id="clip1_8290_232">
<rect width="12" height="12" fill="white" transform="translate(0 18)"/>
</clipPath>
<clipPath id="clip2_8290_232">
<rect width="16" height="16" fill="white" transform="translate(24 16)"/>
</clipPath>
<clipPath id="clip3_8290_232">
<rect width="20" height="20" fill="white" transform="translate(52 14)"/>
</clipPath>
<clipPath id="clip4_8290_232">
<rect width="24" height="24" fill="white" transform="translate(84 12)"/>
</clipPath>
</defs>
</svg>
