<svg width="264" height="107" viewBox="0 0 264 107" fill="none" xmlns="http://www.w3.org/2000/svg">
<g id="User ID">
<g id="Size=12px, Filled=false">
<path id="Vector" d="M2.25 27.75V20.25C2.25 19.4216 2.92157 18.75 3.75 18.75H8.25C9.07843 18.75 9.75 19.4216 9.75 20.25V27.75M2.25 27.75C2.25 28.5784 2.92157 29.25 3.75 29.25H8.25C9.07843 29.25 9.75 28.5784 9.75 27.75M2.25 27.75H9.75M3.75 21.5V20H5.25M3.75 23.25H5.25M6.75 23.25H8.25M8.25 24.75V26.25H6.75M6.75 20H8.25V21.5H6.75V20ZM3.75 24.75H5.25V26.25H3.75V24.75Z" stroke="#111111" stroke-width="0.75" stroke-linecap="round" stroke-linejoin="round"/>
</g>
<g id="Size=16px, Filled=false">
<path id="Vector_2" d="M26 29V19C26 17.8954 26.8954 17 28 17H34C35.1046 17 36 17.8954 36 19V29M26 29C26 30.1046 26.8954 31 28 31H34C35.1046 31 36 30.1046 36 29M26 29H36M28 20.6667V18.6667H30M28 23H30M32 23H34M34 25V27H32M32 18.6667H34V20.6667H32V18.6667ZM28 25H30V27H28V25Z" stroke="#111111" stroke-linecap="round" stroke-linejoin="round"/>
</g>
<g id="Size=20px, Filled=false">
<path id="Vector_3" d="M53.75 30.25V17.75C53.75 16.3693 54.8693 15.25 56.25 15.25H63.75C65.1307 15.25 66.25 16.3693 66.25 17.75V30.25M53.75 30.25C53.75 31.6307 54.8693 32.75 56.25 32.75H63.75C65.1307 32.75 66.25 31.6307 66.25 30.25M53.75 30.25H66.25M56.25 19.8333V17.3333H58.75M56.25 22.75H58.75M61.25 22.75H63.75M63.75 25.25V27.75H61.25M61.25 17.3333H63.75V19.8333H61.25V17.3333ZM56.25 25.25H58.75V27.75H56.25V25.25Z" stroke="#111111" stroke-width="1.25" stroke-linecap="round" stroke-linejoin="round"/>
</g>
<g id="Size=24px, Filled=false">
<path id="Vector_4" d="M86 31H99.5M89 18V16H92M89 21H92M94 23H97M97 26V28H94M89 35H97C98.6569 35 100 33.6569 100 32V16C100 14.3431 98.6569 13 97 13H89C87.3431 13 86 14.3431 86 16V32C86 33.6569 87.3431 35 89 35ZM94 16H97V19H94V16ZM89 25H92V28H89V25Z" stroke="#111111" stroke-width="1.5" stroke-linecap="round" stroke-linejoin="round"/>
</g>
<g id="Size=32px, Filled=false">
<path id="Vector_5" d="M122 34V14C122 11.7909 123.791 10 126 10H138C140.209 10 142 11.7909 142 14V34M122 34C122 36.2091 123.791 38 126 38H138C140.209 38 142 36.2091 142 34M122 34H142M126 17.3333V13.3333H130M126 22H130M134 22H138M138 26V30H134M134 13.3333H138V17.3333H134V13.3333ZM126 26H130V30H126V26Z" stroke="#111111" stroke-width="2" stroke-linecap="round" stroke-linejoin="round"/>
</g>
<g id="Size=40px, Filled=false">
<path id="Vector_6" d="M166.5 36.5V11.5C166.5 8.73858 168.739 6.5 171.5 6.5H186.5C189.261 6.5 191.5 8.73858 191.5 11.5V36.5M166.5 36.5C166.5 39.2614 168.739 41.5 171.5 41.5H186.5C189.261 41.5 191.5 39.2614 191.5 36.5M166.5 36.5H191.5M171.5 15.6666V10.6666H176.5M171.5 21.5H176.5M181.5 21.5H186.5M186.5 26.5V31.5H181.5M181.5 10.6666H186.5V15.6666H181.5V10.6666ZM171.5 26.5H176.5V31.5H171.5V26.5Z" stroke="#111111" stroke-width="2.5" stroke-linecap="round" stroke-linejoin="round"/>
</g>
<g id="Size=48px, Filled=false">
<path id="Vector_7" d="M219 39V9C219 5.68629 221.686 3 225 3H243C246.314 3 249 5.68629 249 9V39M219 39C219 42.3137 221.686 45 225 45H243C246.314 45 249 42.3137 249 39M219 39H249M225 14V7.99997H231M225 21H231M237 21H243M243 27V33H237M237 7.99997H243V14H237V7.99997ZM225 27H231V33H225V27Z" stroke="#111111" stroke-width="3" stroke-linecap="round" stroke-linejoin="round"/>
</g>
<g id="Size=12px, Filled=true">
<g id="Vector_8">
<path d="M7.25 79V79.5H7.75V79H7.25Z" fill="#111111"/>
<path d="M4.25 84.25V83.75H4.75V84.25H4.25Z" fill="#111111"/>
<path fill-rule="evenodd" clip-rule="evenodd" d="M2.25 79C2.25 77.8954 3.14543 77 4.25 77H7.75C8.85457 77 9.75 77.8954 9.75 79V87C9.75 88.1046 8.85457 89 7.75 89H4.25C3.14543 89 2.25 88.1046 2.25 87V79ZM3.25 78.5C3.25 78.2239 3.47386 78 3.75 78H5.25C5.52614 78 5.75 78.2239 5.75 78.5C5.75 78.7761 5.52614 79 5.25 79H4.25V80C4.25 80.2761 4.02614 80.5 3.75 80.5C3.47386 80.5 3.25 80.2761 3.25 80V78.5ZM6.25 78.5C6.25 78.2239 6.47386 78 6.75 78H8.25C8.52614 78 8.75 78.2239 8.75 78.5V80C8.75 80.2761 8.52614 80.5 8.25 80.5H6.75C6.47386 80.5 6.25 80.2761 6.25 80V78.5ZM3.75 82.75C3.47386 82.75 3.25 82.9739 3.25 83.25V84.75C3.25 85.0261 3.47386 85.25 3.75 85.25H5.25C5.52614 85.25 5.75 85.0261 5.75 84.75V83.25C5.75 82.9739 5.52614 82.75 5.25 82.75H3.75ZM3.25 81.75C3.25 81.4739 3.47386 81.25 3.75 81.25H5.25C5.52614 81.25 5.75 81.4739 5.75 81.75C5.75 82.0262 5.52614 82.25 5.25 82.25H3.75C3.47386 82.25 3.25 82.0262 3.25 81.75ZM6.75 81.25C6.47386 81.25 6.25 81.4739 6.25 81.75C6.25 82.0262 6.47386 82.25 6.75 82.25H8.25C8.52614 82.25 8.75 82.0262 8.75 81.75C8.75 81.4739 8.52614 81.25 8.25 81.25H6.75ZM8.25 82.75C8.52614 82.75 8.75 82.9739 8.75 83.25V84.75C8.75 85.0261 8.52614 85.25 8.25 85.25H6.75C6.47386 85.25 6.25 85.0261 6.25 84.75C6.25 84.4739 6.47386 84.25 6.75 84.25H7.75V83.25C7.75 82.9739 7.97386 82.75 8.25 82.75ZM5 87.5C4.72386 87.5 4.5 87.7239 4.5 88C4.5 88.2761 4.72386 88.5 5 88.5H7C7.27614 88.5 7.5 88.2761 7.5 88C7.5 87.7239 7.27614 87.5 7 87.5H5Z" fill="#111111"/>
</g>
</g>
<g id="Size=16px, Filled=true">
<g id="Vector_9">
<path d="M32.6667 77.6667V78.3333H33.3333V77.6667H32.6667Z" fill="#111111"/>
<path d="M28.6667 84.6667V84H29.3333V84.6667H28.6667Z" fill="#111111"/>
<path fill-rule="evenodd" clip-rule="evenodd" d="M26 77.6667C26 76.1939 27.1939 75 28.6667 75H33.3333C34.8061 75 36 76.1939 36 77.6667V88.3333C36 89.8061 34.8061 91 33.3333 91H28.6667C27.1939 91 26 89.8061 26 88.3333V77.6667ZM27.3333 77C27.3333 76.6318 27.6318 76.3333 28 76.3333H30C30.3682 76.3333 30.6667 76.6318 30.6667 77C30.6667 77.3682 30.3682 77.6667 30 77.6667H28.6667V79C28.6667 79.3682 28.3682 79.6667 28 79.6667C27.6318 79.6667 27.3333 79.3682 27.3333 79V77ZM31.3333 77C31.3333 76.6318 31.6318 76.3333 32 76.3333H34C34.3682 76.3333 34.6667 76.6318 34.6667 77V79C34.6667 79.3682 34.3682 79.6667 34 79.6667H32C31.6318 79.6667 31.3333 79.3682 31.3333 79V77ZM28 82.6667C27.6318 82.6667 27.3333 82.9652 27.3333 83.3333V85.3333C27.3333 85.7015 27.6318 86 28 86H30C30.3682 86 30.6667 85.7015 30.6667 85.3333V83.3333C30.6667 82.9652 30.3682 82.6667 30 82.6667H28ZM27.3333 81.3333C27.3333 80.9652 27.6318 80.6667 28 80.6667H30C30.3682 80.6667 30.6667 80.9652 30.6667 81.3333C30.6667 81.7015 30.3682 82 30 82H28C27.6318 82 27.3333 81.7015 27.3333 81.3333ZM32 80.6667C31.6318 80.6667 31.3333 80.9652 31.3333 81.3333C31.3333 81.7015 31.6318 82 32 82H34C34.3682 82 34.6667 81.7015 34.6667 81.3333C34.6667 80.9652 34.3682 80.6667 34 80.6667H32ZM34 82.6667C34.3682 82.6667 34.6667 82.9652 34.6667 83.3333V85.3333C34.6667 85.7015 34.3682 86 34 86H32C31.6318 86 31.3333 85.7015 31.3333 85.3333C31.3333 84.9652 31.6318 84.6667 32 84.6667H33.3333V83.3333C33.3333 82.9652 33.6318 82.6667 34 82.6667ZM29.6667 89C29.2985 89 29 89.2985 29 89.6667C29 90.0349 29.2985 90.3333 29.6667 90.3333H32.3333C32.7015 90.3333 33 90.0349 33 89.6667C33 89.2985 32.7015 89 32.3333 89H29.6667Z" fill="#111111"/>
</g>
</g>
<g id="Size=20px, Filled=true">
<g id="Vector_10">
<path d="M62.0833 76.3333V77.1667H62.9167V76.3333H62.0833Z" fill="#111111"/>
<path d="M57.0833 85.0833V84.25H57.9167V85.0833H57.0833Z" fill="#111111"/>
<path fill-rule="evenodd" clip-rule="evenodd" d="M53.75 76.3333C53.75 74.4924 55.2424 73 57.0833 73H62.9167C64.7576 73 66.25 74.4924 66.25 76.3333V89.6667C66.25 91.5076 64.7576 93 62.9167 93H57.0833C55.2424 93 53.75 91.5076 53.75 89.6667V76.3333ZM55.4167 75.5C55.4167 75.0398 55.7898 74.6667 56.25 74.6667H58.75C59.2102 74.6667 59.5833 75.0398 59.5833 75.5C59.5833 75.9602 59.2102 76.3333 58.75 76.3333H57.0833V78C57.0833 78.4602 56.7102 78.8333 56.25 78.8333C55.7898 78.8333 55.4167 78.4602 55.4167 78V75.5ZM60.4167 75.5C60.4167 75.0398 60.7898 74.6667 61.25 74.6667H63.75C64.2102 74.6667 64.5833 75.0398 64.5833 75.5V78C64.5833 78.4602 64.2102 78.8333 63.75 78.8333H61.25C60.7898 78.8333 60.4167 78.4602 60.4167 78V75.5ZM56.25 82.5833C55.7898 82.5833 55.4167 82.9564 55.4167 83.4167V85.9167C55.4167 86.3769 55.7898 86.75 56.25 86.75H58.75C59.2102 86.75 59.5833 86.3769 59.5833 85.9167V83.4167C59.5833 82.9564 59.2102 82.5833 58.75 82.5833H56.25ZM55.4167 80.9167C55.4167 80.4564 55.7898 80.0833 56.25 80.0833H58.75C59.2102 80.0833 59.5833 80.4564 59.5833 80.9167C59.5833 81.3769 59.2102 81.75 58.75 81.75H56.25C55.7898 81.75 55.4167 81.3769 55.4167 80.9167ZM61.25 80.0833C60.7898 80.0833 60.4167 80.4564 60.4167 80.9167C60.4167 81.3769 60.7898 81.75 61.25 81.75H63.75C64.2102 81.75 64.5833 81.3769 64.5833 80.9167C64.5833 80.4564 64.2102 80.0833 63.75 80.0833H61.25ZM63.75 82.5833C64.2102 82.5833 64.5833 82.9564 64.5833 83.4167V85.9167C64.5833 86.3769 64.2102 86.75 63.75 86.75H61.25C60.7898 86.75 60.4167 86.3769 60.4167 85.9167C60.4167 85.4564 60.7898 85.0833 61.25 85.0833H62.9167V83.4167C62.9167 82.9564 63.2898 82.5833 63.75 82.5833ZM58.3333 90.5C57.8731 90.5 57.5 90.8731 57.5 91.3333C57.5 91.7936 57.8731 92.1667 58.3333 92.1667H61.6667C62.1269 92.1667 62.5 91.7936 62.5 91.3333C62.5 90.8731 62.1269 90.5 61.6667 90.5H58.3333Z" fill="#111111"/>
</g>
</g>
<g id="Size=24px, Filled=true">
<g id="Vector_11">
<path d="M95.5 75V76H96.5V75H95.5Z" fill="#111111"/>
<path d="M89.5 85.5V84.5H90.5V85.5H89.5Z" fill="#111111"/>
<path fill-rule="evenodd" clip-rule="evenodd" d="M85.5 75C85.5 72.7909 87.2909 71 89.5 71H96.5C98.7091 71 100.5 72.7909 100.5 75V91C100.5 93.2091 98.7091 95 96.5 95H89.5C87.2909 95 85.5 93.2091 85.5 91V75ZM87.5 74C87.5 73.4477 87.9477 73 88.5 73H91.5C92.0523 73 92.5 73.4477 92.5 74C92.5 74.5523 92.0523 75 91.5 75H89.5V77C89.5 77.5523 89.0523 78 88.5 78C87.9477 78 87.5 77.5523 87.5 77V74ZM93.5 74C93.5 73.4477 93.9477 73 94.5 73H97.5C98.0523 73 98.5 73.4477 98.5 74V77C98.5 77.5523 98.0523 78 97.5 78H94.5C93.9477 78 93.5 77.5523 93.5 77V74ZM88.5 82.5C87.9477 82.5 87.5 82.9477 87.5 83.5V86.5C87.5 87.0523 87.9477 87.5 88.5 87.5H91.5C92.0523 87.5 92.5 87.0523 92.5 86.5V83.5C92.5 82.9477 92.0523 82.5 91.5 82.5H88.5ZM87.5 80.5C87.5 79.9477 87.9477 79.5 88.5 79.5H91.5C92.0523 79.5 92.5 79.9477 92.5 80.5C92.5 81.0523 92.0523 81.5 91.5 81.5H88.5C87.9477 81.5 87.5 81.0523 87.5 80.5ZM94.5 79.5C93.9477 79.5 93.5 79.9477 93.5 80.5C93.5 81.0523 93.9477 81.5 94.5 81.5H97.5C98.0523 81.5 98.5 81.0523 98.5 80.5C98.5 79.9477 98.0523 79.5 97.5 79.5H94.5ZM97.5 82.5C98.0523 82.5 98.5 82.9477 98.5 83.5V86.5C98.5 87.0523 98.0523 87.5 97.5 87.5H94.5C93.9477 87.5 93.5 87.0523 93.5 86.5C93.5 85.9477 93.9477 85.5 94.5 85.5H96.5V83.5C96.5 82.9477 96.9477 82.5 97.5 82.5ZM91 92C90.4477 92 90 92.4477 90 93C90 93.5523 90.4477 94 91 94H95C95.5523 94 96 93.5523 96 93C96 92.4477 95.5523 92 95 92H91Z" fill="#111111"/>
</g>
</g>
<g id="Size=32px, Filled=true">
<g id="Vector_12">
<path d="M135.333 72.3333V73.6667H136.667V72.3333H135.333Z" fill="#111111"/>
<path d="M127.333 86.3334V85H128.667V86.3334H127.333Z" fill="#111111"/>
<path fill-rule="evenodd" clip-rule="evenodd" d="M122 72.3333C122 69.3878 124.388 67 127.333 67H136.667C139.612 67 142 69.3878 142 72.3333V93.6667C142 96.6122 139.612 99 136.667 99H127.333C124.388 99 122 96.6122 122 93.6667V72.3333ZM124.667 71C124.667 70.2636 125.264 69.6667 126 69.6667H130C130.736 69.6667 131.333 70.2636 131.333 71C131.333 71.7364 130.736 72.3333 130 72.3333H127.333V75C127.333 75.7364 126.736 76.3333 126 76.3333C125.264 76.3333 124.667 75.7364 124.667 75V71ZM132.667 71C132.667 70.2636 133.264 69.6667 134 69.6667H138C138.736 69.6667 139.333 70.2636 139.333 71V75C139.333 75.7364 138.736 76.3333 138 76.3333H134C133.264 76.3333 132.667 75.7364 132.667 75V71ZM126 82.3334C125.264 82.3334 124.667 82.9303 124.667 83.6667V87.6667C124.667 88.4031 125.264 89 126 89H130C130.736 89 131.333 88.4031 131.333 87.6667V83.6667C131.333 82.9303 130.736 82.3334 130 82.3334H126ZM124.667 79.6667C124.667 78.9303 125.264 78.3334 126 78.3334H130C130.736 78.3334 131.333 78.9303 131.333 79.6667C131.333 80.4031 130.736 81 130 81H126C125.264 81 124.667 80.4031 124.667 79.6667ZM134 78.3334C133.264 78.3334 132.667 78.9303 132.667 79.6667C132.667 80.4031 133.264 81 134 81H138C138.736 81 139.333 80.4031 139.333 79.6667C139.333 78.9303 138.736 78.3334 138 78.3334H134ZM138 82.3334C138.736 82.3334 139.333 82.9303 139.333 83.6667V87.6667C139.333 88.4031 138.736 89 138 89H134C133.264 89 132.667 88.4031 132.667 87.6667C132.667 86.9303 133.264 86.3334 134 86.3334H136.667V83.6667C136.667 82.9303 137.264 82.3334 138 82.3334ZM129.333 95C128.597 95 128 95.597 128 96.3333C128 97.0697 128.597 97.6667 129.333 97.6667H134.667C135.403 97.6667 136 97.0697 136 96.3333C136 95.597 135.403 95 134.667 95H129.333Z" fill="#111111"/>
</g>
</g>
<g id="Size=40px, Filled=true">
<g id="Vector_13">
<path d="M183.167 69.6667V71.3333H184.833V69.6667H183.167Z" fill="#111111"/>
<path d="M173.167 87.1667V85.5H174.833V87.1667H173.167Z" fill="#111111"/>
<path fill-rule="evenodd" clip-rule="evenodd" d="M166.5 69.6667C166.5 65.9848 169.485 63 173.167 63H184.833C188.515 63 191.5 65.9848 191.5 69.6667V96.3333C191.5 100.015 188.515 103 184.833 103H173.167C169.485 103 166.5 100.015 166.5 96.3333V69.6667ZM169.833 68C169.833 67.0795 170.58 66.3333 171.5 66.3333H176.5C177.42 66.3333 178.167 67.0795 178.167 68C178.167 68.9205 177.42 69.6667 176.5 69.6667H173.167V73C173.167 73.9205 172.42 74.6667 171.5 74.6667C170.58 74.6667 169.833 73.9205 169.833 73V68ZM179.833 68C179.833 67.0795 180.58 66.3333 181.5 66.3333H186.5C187.42 66.3333 188.167 67.0795 188.167 68V73C188.167 73.9205 187.42 74.6667 186.5 74.6667H181.5C180.58 74.6667 179.833 73.9205 179.833 73V68ZM171.5 82.1667C170.58 82.1667 169.833 82.9129 169.833 83.8334V88.8334C169.833 89.7538 170.58 90.5 171.5 90.5H176.5C177.42 90.5 178.167 89.7538 178.167 88.8334V83.8334C178.167 82.9129 177.42 82.1667 176.5 82.1667H171.5ZM169.833 78.8334C169.833 77.9129 170.58 77.1667 171.5 77.1667H176.5C177.42 77.1667 178.167 77.9129 178.167 78.8334C178.167 79.7538 177.42 80.5 176.5 80.5H171.5C170.58 80.5 169.833 79.7538 169.833 78.8334ZM181.5 77.1667C180.58 77.1667 179.833 77.9129 179.833 78.8334C179.833 79.7538 180.58 80.5 181.5 80.5H186.5C187.42 80.5 188.167 79.7538 188.167 78.8334C188.167 77.9129 187.42 77.1667 186.5 77.1667H181.5ZM186.5 82.1667C187.42 82.1667 188.167 82.9129 188.167 83.8334V88.8334C188.167 89.7538 187.42 90.5 186.5 90.5H181.5C180.58 90.5 179.833 89.7538 179.833 88.8334C179.833 87.9129 180.58 87.1667 181.5 87.1667H184.833V83.8334C184.833 82.9129 185.58 82.1667 186.5 82.1667ZM175.667 98C174.746 98 174 98.7462 174 99.6667C174 100.587 174.746 101.333 175.667 101.333H182.333C183.254 101.333 184 100.587 184 99.6667C184 98.7462 183.254 98 182.333 98H175.667Z" fill="#111111"/>
</g>
</g>
<g id="Size=48px, Filled=true">
<g id="Vector_14">
<path d="M239 67V69H241V67H239Z" fill="#111111"/>
<path d="M227 88V86H229V88H227Z" fill="#111111"/>
<path fill-rule="evenodd" clip-rule="evenodd" d="M219 67C219 62.5817 222.582 59 227 59H241C245.418 59 249 62.5817 249 67V99C249 103.418 245.418 107 241 107H227C222.582 107 219 103.418 219 99V67ZM223 65C223 63.8954 223.895 63 225 63H231C232.105 63 233 63.8954 233 65C233 66.1046 232.105 67 231 67H227V71C227 72.1046 226.105 73 225 73C223.895 73 223 72.1046 223 71V65ZM235 65C235 63.8954 235.895 63 237 63H243C244.105 63 245 63.8954 245 65V71C245 72.1046 244.105 73 243 73H237C235.895 73 235 72.1046 235 71V65ZM225 82C223.895 82 223 82.8955 223 84V90C223 91.1046 223.895 92 225 92H231C232.105 92 233 91.1046 233 90V84C233 82.8955 232.105 82 231 82H225ZM223 78C223 76.8955 223.895 76 225 76H231C232.105 76 233 76.8955 233 78C233 79.1046 232.105 80 231 80H225C223.895 80 223 79.1046 223 78ZM237 76C235.895 76 235 76.8955 235 78C235 79.1046 235.895 80 237 80H243C244.105 80 245 79.1046 245 78C245 76.8955 244.105 76 243 76H237ZM243 82C244.105 82 245 82.8955 245 84V90C245 91.1046 244.105 92 243 92H237C235.895 92 235 91.1046 235 90C235 88.8955 235.895 88 237 88H241V84C241 82.8955 241.895 82 243 82ZM230 101C228.895 101 228 101.895 228 103C228 104.105 228.895 105 230 105H238C239.105 105 240 104.105 240 103C240 101.895 239.105 101 238 101H230Z" fill="#111111"/>
</g>
</g>
</g>
</svg>
