<svg width="264" height="108" viewBox="0 0 264 108" fill="none" xmlns="http://www.w3.org/2000/svg">
<g id="User star">
<g clip-path="url(#clip0_7804_271)">
<g id="Size=12px, Filled=false" clip-path="url(#clip1_7804_271)">
<path id="Vector" d="M0.75 26.451C0.750251 25.8798 0.90577 25.3194 1.19992 24.8298C1.49407 24.3401 1.91579 23.9397 2.41998 23.6712C2.92416 23.4027 3.49183 23.2764 4.06228 23.3056C4.63273 23.3349 5.1845 23.5187 5.65857 23.8373M1.97516 20.6752C1.97516 21.1859 2.178 21.6755 2.53905 22.0366C2.9001 22.3977 3.3898 22.6005 3.90041 22.6005C4.41101 22.6005 4.90071 22.3977 5.26176 22.0366C5.62282 21.6755 5.82565 21.1859 5.82565 20.6752C5.82565 20.1646 5.62282 19.6749 5.26176 19.3139C4.90071 18.9528 4.41101 18.75 3.90041 18.75C3.3898 18.75 2.9001 18.9528 2.53905 19.3139C2.178 19.6749 1.97516 20.1646 1.97516 20.6752ZM8.77583 23.8513L9.49553 25.4009H10.8957C10.9663 25.3981 11.0361 25.4172 11.0954 25.4556C11.1548 25.4939 11.2008 25.5497 11.2273 25.6152C11.2537 25.6807 11.2593 25.7528 11.2432 25.8216C11.2271 25.8905 11.1902 25.9526 11.1375 25.9997L9.92398 27.1954L10.5975 28.7422C10.6269 28.813 10.6333 28.8912 10.616 28.9659C10.5986 29.0406 10.5583 29.1079 10.5006 29.1585C10.443 29.2091 10.371 29.2403 10.2947 29.2479C10.2183 29.2554 10.1416 29.2388 10.0752 29.2005L8.44773 28.2852L6.82072 29.2005C6.75431 29.239 6.67749 29.2557 6.60108 29.2483C6.52467 29.2408 6.45253 29.2096 6.3948 29.159C6.33708 29.1084 6.29669 29.0409 6.27932 28.9662C6.26195 28.8914 6.26848 28.813 6.29798 28.7422L6.97147 27.1954L5.75798 25.9997C5.70533 25.953 5.66832 25.8913 5.65199 25.8228C5.63565 25.7544 5.64078 25.6826 5.66669 25.6172C5.69259 25.5518 5.738 25.4959 5.79675 25.4572C5.85551 25.4185 5.92475 25.3988 5.99508 25.4009H7.39526L8.11588 23.8499C8.14777 23.79 8.19537 23.7399 8.25359 23.7051C8.3118 23.6702 8.37842 23.6518 8.44628 23.652C8.51414 23.6521 8.58068 23.6707 8.63875 23.7059C8.69681 23.741 8.74421 23.7913 8.77583 23.8513Z" stroke="#111111" stroke-width="0.75" stroke-linecap="round" stroke-linejoin="round"/>
</g>
<g id="Size=16px, Filled=false" clip-path="url(#clip2_7804_271)">
<path id="Vector_2" d="M25 27.268C25.0003 26.5064 25.2077 25.7592 25.5999 25.1064C25.9921 24.4535 26.5544 23.9195 27.2266 23.5616C27.8989 23.2037 28.6558 23.0352 29.4164 23.0742C30.177 23.1132 30.9127 23.3582 31.5448 23.7831M26.6335 19.567C26.6335 20.2478 26.904 20.9007 27.3854 21.3821C27.8668 21.8635 28.5197 22.134 29.2005 22.134C29.8814 22.134 30.5343 21.8635 31.0157 21.3821C31.4971 20.9007 31.7675 20.2478 31.7675 19.567C31.7675 18.8862 31.4971 18.2333 31.0157 17.7519C30.5343 17.2705 29.8814 17 29.2005 17C28.5197 17 27.8668 17.2705 27.3854 17.7519C26.904 18.2333 26.6335 18.8862 26.6335 19.567ZM35.7011 23.8018L36.6607 25.8678H38.5276C38.6218 25.8641 38.7148 25.8896 38.7939 25.9407C38.873 25.9919 38.9344 26.0662 38.9697 26.1536C39.0049 26.241 39.0124 26.3371 38.991 26.4289C38.9695 26.5206 38.9203 26.6035 38.85 26.6662L37.232 28.2606L38.13 30.3229C38.1692 30.4173 38.1778 30.5216 38.1546 30.6212C38.1315 30.7208 38.0777 30.8106 38.0008 30.878C37.924 30.9455 37.8279 30.9871 37.7262 30.9972C37.6245 31.0072 37.5221 30.9851 37.4336 30.934L35.2636 29.7136L33.0943 30.934C33.0057 30.9853 32.9033 31.0076 32.8014 30.9977C32.6996 30.9878 32.6034 30.9461 32.5264 30.8787C32.4494 30.8112 32.3956 30.7212 32.3724 30.6215C32.3493 30.5218 32.358 30.4174 32.3973 30.3229L33.2953 28.2606L31.6773 26.6662C31.6071 26.604 31.5578 26.5217 31.536 26.4304C31.5142 26.3392 31.521 26.2435 31.5556 26.1562C31.5901 26.069 31.6507 25.9945 31.729 25.9429C31.8073 25.8913 31.8997 25.8651 31.9934 25.8678H33.8603L34.8212 23.7999C34.8637 23.72 34.9272 23.6532 35.0048 23.6067C35.0824 23.5602 35.1712 23.5358 35.2617 23.536C35.3522 23.5362 35.4409 23.561 35.5183 23.6078C35.5957 23.6547 35.6589 23.7217 35.7011 23.8018Z" stroke="#111111" stroke-linecap="round" stroke-linejoin="round"/>
</g>
<g id="Size=20px, Filled=false" clip-path="url(#clip3_7804_271)">
<path id="Vector_3" d="M53.25 28.085C53.2504 27.133 53.5096 26.199 53.9999 25.3829C54.4901 24.5669 55.193 23.8994 56.0333 23.452C56.8736 23.0046 57.8197 22.794 58.7705 22.8427C59.7212 22.8915 60.6408 23.1978 61.4309 23.7289M55.2919 18.4587C55.2919 19.3098 55.63 20.1259 56.2317 20.7277C56.8335 21.3294 57.6497 21.6675 58.5007 21.6675C59.3517 21.6675 60.1678 21.3294 60.7696 20.7277C61.3714 20.1259 61.7094 19.3098 61.7094 18.4587C61.7094 17.6077 61.3714 16.7916 60.7696 16.1898C60.1678 15.5881 59.3517 15.25 58.5007 15.25C57.6497 15.25 56.8335 15.5881 56.2317 16.1898C55.63 16.7916 55.2919 17.6077 55.2919 18.4587ZM66.6264 23.7522L67.8259 26.3348H70.1595C70.2772 26.3301 70.3934 26.362 70.4923 26.4259C70.5912 26.4899 70.668 26.5828 70.7121 26.692C70.7562 26.8012 70.7655 26.9214 70.7387 27.0361C70.7119 27.1508 70.6504 27.2544 70.5625 27.3328L68.54 29.3257L69.6624 31.9036C69.7114 32.0216 69.7222 32.152 69.6933 32.2765C69.6643 32.401 69.5971 32.5132 69.501 32.5975C69.405 32.6818 69.2849 32.7339 69.1578 32.7465C69.0306 32.759 68.9027 32.7314 68.792 32.6675L66.0795 31.142L63.3679 32.6675C63.2572 32.7317 63.1291 32.7595 63.0018 32.7471C62.8745 32.7347 62.7542 32.6827 62.658 32.5983C62.5618 32.514 62.4945 32.4015 62.4655 32.2769C62.4366 32.1523 62.4475 32.0217 62.4966 31.9036L63.6191 29.3257L61.5966 27.3328C61.5089 27.255 61.4472 27.1521 61.42 27.038C61.3928 26.924 61.4013 26.8043 61.4445 26.6953C61.4876 26.5863 61.5633 26.4932 61.6613 26.4287C61.7592 26.3642 61.8746 26.3314 61.9918 26.3348H64.3254L65.5265 23.7499C65.5796 23.65 65.659 23.5666 65.756 23.5084C65.853 23.4503 65.964 23.4197 66.0771 23.4199C66.1902 23.4202 66.3011 23.4512 66.3979 23.5098C66.4947 23.5683 66.5737 23.6521 66.6264 23.7522Z" stroke="#111111" stroke-width="1.25" stroke-linecap="round" stroke-linejoin="round"/>
</g>
<g id="Size=24px, Filled=false" clip-path="url(#clip4_7804_271)">
<path id="Vector_4" d="M85.5 28.902C85.5005 27.7596 85.8115 26.6388 86.3998 25.6595C86.9881 24.6803 87.8316 23.8793 88.84 23.3424C89.8483 22.8055 90.9837 22.5528 92.1246 22.6113C93.2655 22.6698 94.369 23.0374 95.3171 23.6746M87.9503 17.3505C87.9503 18.3717 88.356 19.3511 89.0781 20.0732C89.8002 20.7953 90.7796 21.201 91.8008 21.201C92.822 21.201 93.8014 20.7953 94.5235 20.0732C95.2456 19.3511 95.6513 18.3717 95.6513 17.3505C95.6513 16.3293 95.2456 15.3499 94.5235 14.6278C93.8014 13.9057 92.822 13.5 91.8008 13.5C90.7796 13.5 89.8002 13.9057 89.0781 14.6278C88.356 15.3499 87.9503 16.3293 87.9503 17.3505ZM101.552 23.7026L102.991 26.8017H105.791C105.933 26.7962 106.072 26.8344 106.191 26.9111C106.31 26.9878 106.402 27.0994 106.455 27.2304C106.507 27.3615 106.519 27.5057 106.486 27.6433C106.454 27.7809 106.38 27.9053 106.275 27.9993L103.848 30.3908L105.195 33.4843C105.254 33.6259 105.267 33.7824 105.232 33.9318C105.197 34.0812 105.117 34.2159 105.001 34.3171C104.886 34.4182 104.742 34.4807 104.589 34.4957C104.437 34.5108 104.283 34.4776 104.15 34.401L100.895 32.5705L97.6414 34.401C97.5086 34.478 97.355 34.5114 97.2022 34.4965C97.0493 34.4817 96.9051 34.4192 96.7896 34.318C96.6742 34.2168 96.5934 34.0819 96.5586 33.9323C96.5239 33.7827 96.537 33.6261 96.596 33.4843L97.9429 30.3908L95.516 27.9993C95.4107 27.906 95.3366 27.7825 95.304 27.6456C95.2713 27.5088 95.2816 27.3652 95.3334 27.2344C95.3852 27.1035 95.476 26.9918 95.5935 26.9144C95.711 26.837 95.8495 26.7977 95.9902 26.8017H98.7905L100.232 23.6998C100.296 23.58 100.391 23.4799 100.507 23.4101C100.624 23.3404 100.757 23.3036 100.893 23.3039C101.028 23.3042 101.161 23.3415 101.277 23.4117C101.394 23.482 101.488 23.5826 101.552 23.7026Z" stroke="#111111" stroke-width="1.5" stroke-linecap="round" stroke-linejoin="round"/>
</g>
<g id="Size=32px, Filled=false">
<path id="Vector_5" d="M122 30.536C122.001 29.0128 122.415 27.5184 123.2 26.2127C123.984 24.907 125.109 23.8391 126.453 23.1232C127.798 22.4073 129.312 22.0703 130.833 22.1484C132.354 22.2264 133.825 22.7165 135.09 23.5662M125.267 15.134C125.267 16.4956 125.808 17.8015 126.771 18.7643C127.734 19.7271 129.039 20.268 130.401 20.268C131.763 20.268 133.069 19.7271 134.031 18.7643C134.994 17.8015 135.535 16.4956 135.535 15.134C135.535 13.7724 134.994 12.4665 134.031 11.5037C133.069 10.5409 131.763 10 130.401 10C129.039 10 127.734 10.5409 126.771 11.5037C125.808 12.4665 125.267 13.7724 125.267 15.134ZM143.402 23.6035L145.321 27.7356H149.055C149.244 27.7282 149.43 27.7792 149.588 27.8815C149.746 27.9838 149.869 28.1325 149.939 28.3072C150.01 28.482 150.025 28.6742 149.982 28.8577C149.939 29.0412 149.841 29.207 149.7 29.3324L146.464 32.5211L148.26 36.6457C148.338 36.8346 148.356 37.0433 148.309 37.2424C148.263 37.4416 148.155 37.6212 148.002 37.7561C147.848 37.8909 147.656 37.9743 147.452 37.9943C147.249 38.0144 147.044 37.9702 146.867 37.8679L142.527 35.4273L138.189 37.8679C138.011 37.9707 137.807 38.0152 137.603 37.9954C137.399 37.9755 137.207 37.8923 137.053 37.7573C136.899 37.6223 136.791 37.4425 136.745 37.2431C136.699 37.0437 136.716 36.8347 136.795 36.6457L138.591 32.5211L135.355 29.3324C135.214 29.208 135.116 29.0434 135.072 28.8609C135.028 28.6784 135.042 28.4869 135.111 28.3125C135.18 28.138 135.301 27.9891 135.458 27.8859C135.615 27.7827 135.799 27.7302 135.987 27.7356H139.721L141.642 23.5998C141.727 23.44 141.854 23.3065 142.01 23.2135C142.165 23.1205 142.342 23.0715 142.523 23.0719C142.704 23.0723 142.882 23.122 143.037 23.2157C143.191 23.3093 143.318 23.4434 143.402 23.6035Z" stroke="#111111" stroke-width="2" stroke-linecap="round" stroke-linejoin="round"/>
</g>
<g id="Size=40px, Filled=false">
<path id="Vector_6" d="M166.5 32.17C166.501 30.266 167.019 28.398 168 26.7659C168.98 25.1338 170.386 23.7989 172.067 22.904C173.747 22.0091 175.639 21.5879 177.541 21.6855C179.442 21.783 181.282 22.3956 182.862 23.4577M170.584 12.9175C170.584 14.6195 171.26 16.2518 172.463 17.4553C173.667 18.6589 175.299 19.335 177.001 19.335C178.703 19.335 180.336 18.6589 181.539 17.4553C182.743 16.2518 183.419 14.6195 183.419 12.9175C183.419 11.2155 182.743 9.58315 181.539 8.37964C180.336 7.17613 178.703 6.5 177.001 6.5C175.299 6.5 173.667 7.17613 172.463 8.37964C171.26 9.58315 170.584 11.2155 170.584 12.9175ZM193.253 23.5044L195.652 28.6695H200.319C200.554 28.6603 200.787 28.724 200.985 28.8519C201.182 28.9797 201.336 29.1656 201.424 29.384C201.512 29.6025 201.531 29.8428 201.477 30.0722C201.424 30.3015 201.301 30.5088 201.125 30.6656L197.08 34.6514L199.325 39.8072C199.423 40.0432 199.444 40.3041 199.387 40.553C199.329 40.802 199.194 41.0265 199.002 41.1951C198.81 41.3637 198.57 41.4678 198.316 41.4929C198.061 41.518 197.805 41.4627 197.584 41.3349L192.159 38.2841L186.736 41.3349C186.514 41.4633 186.258 41.519 186.004 41.4942C185.749 41.4694 185.508 41.3653 185.316 41.1966C185.124 41.0279 184.989 40.8031 184.931 40.5538C184.873 40.3046 184.895 40.0434 184.993 39.8072L187.238 34.6514L183.193 30.6656C183.018 30.51 182.894 30.3042 182.84 30.0761C182.786 29.848 182.803 29.6086 182.889 29.3906C182.975 29.1725 183.127 28.9864 183.323 28.8574C183.518 28.7283 183.749 28.6628 183.984 28.6695H188.651L191.053 23.4997C191.159 23.3001 191.318 23.1331 191.512 23.0169C191.706 22.9006 191.928 22.8394 192.154 22.8399C192.38 22.8404 192.602 22.9025 192.796 23.0196C192.989 23.1367 193.147 23.3043 193.253 23.5044Z" stroke="#111111" stroke-width="2.5" stroke-linecap="round" stroke-linejoin="round"/>
</g>
<g id="Size=48px, Filled=false">
<path id="Vector_7" d="M219 33.804C219.001 31.5192 219.623 29.2776 220.8 27.3191C221.976 25.3605 223.663 23.7586 225.68 22.6848C227.697 21.611 229.967 21.1055 232.249 21.2226C234.531 21.3396 236.738 22.0747 238.634 23.3493M223.901 10.701C223.901 12.7434 224.712 14.7022 226.156 16.1464C227.6 17.5906 229.559 18.402 231.602 18.402C233.644 18.402 235.603 17.5906 237.047 16.1464C238.491 14.7022 239.303 12.7434 239.303 10.701C239.303 8.65856 238.491 6.69978 237.047 5.25557C235.603 3.81135 233.644 3 231.602 3C229.559 3 227.6 3.81135 226.156 5.25557C224.712 6.69978 223.901 8.65856 223.901 10.701ZM251.103 23.4053L253.982 29.6034H259.583C259.865 29.5923 260.144 29.6688 260.382 29.8222C260.619 29.9757 260.803 30.1987 260.909 30.4608C261.015 30.7229 261.037 31.0113 260.973 31.2866C260.909 31.5619 260.761 31.8105 260.55 31.9987L255.696 36.7817L258.39 42.9686C258.507 43.2519 258.533 43.5649 258.464 43.8636C258.394 44.1623 258.233 44.4318 258.002 44.6341C257.772 44.8364 257.484 44.9614 257.179 44.9915C256.873 45.0216 256.566 44.9553 256.301 44.8019L249.791 41.1409L243.283 44.8019C243.017 44.956 242.71 45.0229 242.404 44.9931C242.099 44.9633 241.81 44.8384 241.579 44.636C241.348 44.4335 241.187 44.1637 241.117 43.8646C241.048 43.5655 241.074 43.2521 241.192 42.9686L243.886 36.7817L239.032 31.9987C238.821 31.812 238.673 31.565 238.608 31.2913C238.543 31.0176 238.563 30.7304 238.667 30.4687C238.77 30.207 238.952 29.9836 239.187 29.8288C239.422 29.674 239.699 29.5953 239.98 29.6034H245.581L248.464 23.3997C248.591 23.1601 248.781 22.9597 249.014 22.8202C249.247 22.6807 249.514 22.6073 249.785 22.6079C250.057 22.6085 250.323 22.683 250.555 22.8235C250.787 22.964 250.977 23.1651 251.103 23.4053Z" stroke="#111111" stroke-width="3" stroke-linecap="round" stroke-linejoin="round"/>
</g>
<g id="Size=12px, Filled=true" clip-path="url(#clip5_7804_271)">
<g id="Vector_8">
<path d="M4.6829 85.4165C4.79795 85.1371 4.99367 84.8984 5.24505 84.7308C5.49644 84.5632 5.79208 84.4744 6.0942 84.4756C6.11769 84.4753 6.14056 84.468 6.15984 84.4546C6.17913 84.4412 6.19395 84.4223 6.20241 84.4004C6.20959 84.3786 6.21076 84.3553 6.20579 84.333C6.20082 84.3106 6.1899 84.29 6.17418 84.2734C5.73829 83.8588 5.20328 83.5631 4.62037 83.4145C4.03746 83.2659 3.42617 83.2694 2.84502 83.4248C2.26387 83.5801 1.73232 83.882 1.30126 84.3016C0.870196 84.7211 0.554057 85.2443 0.383106 85.8211C0.373915 85.8562 0.372521 85.893 0.379022 85.9287C0.385523 85.9645 0.399761 85.9984 0.420741 86.0281C0.443566 86.0563 0.472171 86.0793 0.50463 86.0955C0.537089 86.1117 0.572649 86.1208 0.608915 86.1222H4.33948C4.37153 86.1241 4.40364 86.1194 4.43383 86.1085C4.46402 86.0975 4.49164 86.0805 4.515 86.0585C4.53836 86.0364 4.55696 86.0098 4.56965 85.9803C4.58235 85.9508 4.58887 85.9191 4.58881 85.8869C4.59381 85.726 4.62561 85.567 4.6829 85.4165Z" fill="#111111"/>
<path d="M3.66674 82.8291C4.90086 82.8291 5.90132 81.8287 5.90132 80.5946C5.90132 79.3604 4.90086 78.36 3.66674 78.36C2.43262 78.36 1.43217 79.3604 1.43217 80.5946C1.43217 81.8287 2.43262 82.8291 3.66674 82.8291Z" fill="#111111"/>
<path d="M10.0882 89.5704C10.1996 89.6347 10.3287 89.6617 10.4565 89.6473C10.5844 89.6329 10.7042 89.5779 10.7986 89.4905C10.8919 89.4068 10.9562 89.2957 10.9824 89.1731C11.0086 89.0506 10.9953 88.9229 10.9444 88.8083L10.3705 87.4864C10.3607 87.4635 10.3582 87.4382 10.3633 87.4138C10.3683 87.3894 10.3807 87.3672 10.3987 87.35L11.4431 86.4091C11.5277 86.3267 11.5862 86.2212 11.6113 86.1057C11.6364 85.9903 11.6269 85.87 11.5842 85.7599C11.5367 85.6546 11.4591 85.5658 11.3611 85.5046C11.2631 85.4435 11.1492 85.4128 11.0338 85.4165H9.85769C9.83473 85.4166 9.81226 85.4099 9.79303 85.3974C9.7738 85.3849 9.75867 85.367 9.74949 85.3459L9.1144 83.8782C9.06328 83.7788 8.98572 83.6954 8.89026 83.6373C8.7948 83.5792 8.68515 83.5486 8.57339 83.5489C8.45879 83.5493 8.34657 83.5816 8.24934 83.6423C8.15211 83.7029 8.07372 83.7895 8.02298 83.8923L7.41142 85.3459C7.40224 85.367 7.3871 85.3849 7.36787 85.3974C7.34865 85.4099 7.32617 85.4166 7.30322 85.4165H6.12713C6.00997 85.4133 5.89461 85.4458 5.79632 85.5097C5.69804 85.5735 5.62146 85.6657 5.57671 85.774C5.53345 85.8856 5.52467 86.0075 5.55151 86.1241C5.57835 86.2407 5.63958 86.3465 5.72725 86.4279L6.75751 87.3688C6.77634 87.3854 6.7896 87.4074 6.79549 87.4318C6.80138 87.4562 6.79962 87.4819 6.79044 87.5052L6.18828 88.8083C6.1364 88.9231 6.12303 89.0515 6.15016 89.1744C6.17729 89.2974 6.24348 89.4082 6.33882 89.4905C6.43314 89.5762 6.55207 89.6301 6.67873 89.6445C6.80539 89.6588 6.93336 89.6329 7.04448 89.5704L8.50753 88.7472C8.52505 88.7358 8.54547 88.7298 8.56634 88.7298C8.5872 88.7298 8.60763 88.7358 8.62514 88.7472L10.0882 89.5704Z" fill="#111111"/>
</g>
</g>
<g id="Size=16px, Filled=true" clip-path="url(#clip6_7804_271)">
<g id="Vector_9">
<path d="M30.2439 85.8887C30.3973 85.5162 30.6582 85.1979 30.9934 84.9744C31.3286 84.751 31.7228 84.6325 32.1256 84.6342C32.1569 84.6338 32.1874 84.624 32.2131 84.6061C32.2388 84.5882 32.2586 84.563 32.2699 84.5338C32.2795 84.5048 32.281 84.4738 32.2744 84.444C32.2678 84.4141 32.2532 84.3867 32.2322 84.3645C31.6511 83.8117 30.9377 83.4174 30.1605 83.2193C29.3833 83.0212 28.5682 83.0259 27.7934 83.233C27.0185 83.4401 26.3098 83.8426 25.735 84.4021C25.1603 84.9615 24.7387 85.6591 24.5108 86.4281C24.4986 86.475 24.4967 86.524 24.5054 86.5717C24.514 86.6193 24.533 86.6645 24.561 86.7041C24.5914 86.7417 24.6296 86.7724 24.6728 86.794C24.7161 86.8157 24.7635 86.8278 24.8119 86.8296H29.786C29.8287 86.8321 29.8715 86.8259 29.9118 86.8113C29.952 86.7967 29.9889 86.774 30.02 86.7446C30.0511 86.7152 30.0759 86.6798 30.0929 86.6405C30.1098 86.6011 30.1185 86.5587 30.1184 86.5159C30.1251 86.3013 30.1675 86.0893 30.2439 85.8887Z" fill="#111111"/>
<path d="M28.889 82.4388C30.5345 82.4388 31.8684 81.1049 31.8684 79.4594C31.8684 77.8139 30.5345 76.48 28.889 76.48C27.2435 76.48 25.9096 77.8139 25.9096 79.4594C25.9096 81.1049 27.2435 82.4388 28.889 82.4388Z" fill="#111111"/>
<path d="M37.4509 91.4273C37.5995 91.513 37.7716 91.5489 37.942 91.5297C38.1125 91.5105 38.2723 91.4372 38.3981 91.3206C38.5225 91.2091 38.6083 91.0609 38.6433 90.8975C38.6782 90.7341 38.6604 90.5638 38.5925 90.4111L37.8273 88.6485C37.8143 88.618 37.8109 88.5842 37.8177 88.5517C37.8244 88.5192 37.8409 88.4895 37.8649 88.4666L39.2574 87.2121C39.3702 87.1022 39.4482 86.9616 39.4817 86.8076C39.5151 86.6537 39.5026 86.4934 39.4456 86.3465C39.3823 86.2061 39.2788 86.0877 39.1482 86.0062C39.0175 85.9247 38.8656 85.8838 38.7117 85.8887H37.1436C37.113 85.8888 37.083 85.8799 37.0574 85.8632C37.0317 85.8465 37.0116 85.8226 36.9993 85.7946L36.1525 83.8376C36.0844 83.705 35.981 83.5939 35.8537 83.5164C35.7264 83.439 35.5802 83.3981 35.4312 83.3985C35.2784 83.399 35.1288 83.4421 34.9991 83.523C34.8695 83.6039 34.765 83.7194 34.6973 83.8564L33.8819 85.7946C33.8696 85.8226 33.8495 85.8465 33.8238 85.8632C33.7982 85.8799 33.7682 85.8888 33.7376 85.8887H32.1695C32.0133 85.8844 31.8595 85.9278 31.7284 86.0129C31.5974 86.098 31.4953 86.2209 31.4356 86.3654C31.3779 86.5141 31.3662 86.6767 31.402 86.8321C31.4378 86.9876 31.5194 87.1287 31.6363 87.2372L33.01 88.4917C33.0351 88.5139 33.0528 88.5432 33.0607 88.5758C33.0685 88.6083 33.0662 88.6425 33.0539 88.6736L32.251 90.4111C32.1819 90.5641 32.164 90.7353 32.2002 90.8992C32.2364 91.0632 32.3246 91.211 32.4518 91.3206C32.5775 91.435 32.7361 91.5068 32.905 91.5259C33.0739 91.5451 33.2445 91.5106 33.3926 91.4273L35.3434 90.3296C35.3667 90.3145 35.394 90.3064 35.4218 90.3064C35.4496 90.3064 35.4768 90.3145 35.5002 90.3296L37.4509 91.4273Z" fill="#111111"/>
</g>
</g>
<g id="Size=20px, Filled=true" clip-path="url(#clip7_7804_271)">
<g id="Vector_10">
<path d="M59.8048 86.3609C59.9966 85.8952 60.3228 85.4974 60.7418 85.218C61.1607 84.9387 61.6535 84.7906 62.157 84.7927C62.1962 84.7922 62.2343 84.78 62.2664 84.7576C62.2985 84.7353 62.3232 84.7038 62.3373 84.6673C62.3493 84.631 62.3513 84.5922 62.343 84.555C62.3347 84.5177 62.3165 84.4833 62.2903 84.4556C61.5638 83.7647 60.6721 83.2718 59.7006 83.0241C58.7291 82.7765 57.7103 82.7824 56.7417 83.0413C55.7731 83.3001 54.8872 83.8033 54.1688 84.5026C53.4503 85.2019 52.9234 86.0739 52.6385 87.0351C52.6232 87.0937 52.6209 87.155 52.6317 87.2146C52.6425 87.2742 52.6663 87.3307 52.7012 87.3801C52.7393 87.4272 52.787 87.4655 52.8411 87.4925C52.8951 87.5196 52.9544 87.5347 53.0149 87.5369H59.2325C59.2859 87.5402 59.3394 87.5324 59.3897 87.5141C59.44 87.4959 59.4861 87.4675 59.525 87.4308C59.5639 87.3941 59.5949 87.3497 59.6161 87.3006C59.6372 87.2514 59.6481 87.1984 59.648 87.1449C59.6564 86.8767 59.7093 86.6117 59.8048 86.3609Z" fill="#111111"/>
<path d="M58.1112 82.0486C60.1681 82.0486 61.8355 80.3811 61.8355 78.3243C61.8355 76.2674 60.1681 74.6 58.1112 74.6C56.0544 74.6 54.3869 76.2674 54.3869 78.3243C54.3869 80.3811 56.0544 82.0486 58.1112 82.0486Z" fill="#111111"/>
<path d="M68.8137 93.2841C68.9994 93.3912 69.2145 93.4361 69.4276 93.4121C69.6406 93.3881 69.8404 93.2965 69.9976 93.1508C70.1531 93.0113 70.2604 92.8261 70.3041 92.6219C70.3477 92.4176 70.3255 92.2048 70.2407 92.0139L69.2841 89.8107C69.2679 89.7725 69.2637 89.7303 69.2721 89.6896C69.2805 89.649 69.3011 89.6119 69.3311 89.5833L71.0718 88.0152C71.2128 87.8778 71.3103 87.7019 71.3521 87.5096C71.3939 87.3172 71.3782 87.1167 71.307 86.9332C71.2279 86.7577 71.0985 86.6096 70.9352 86.5077C70.7719 86.4058 70.582 86.3547 70.3896 86.3608H68.4295C68.3912 86.361 68.3538 86.3499 68.3217 86.329C68.2897 86.3081 68.2644 86.2783 68.2491 86.2432L67.1907 83.7969C67.1055 83.6313 66.9762 83.4924 66.8171 83.3956C66.658 83.2987 66.4752 83.2477 66.289 83.2481C66.098 83.2488 65.911 83.3027 65.7489 83.4038C65.5869 83.5049 65.4562 83.6492 65.3716 83.8205L64.3524 86.2432C64.3371 86.2783 64.3118 86.3081 64.2798 86.329C64.2477 86.3499 64.2103 86.361 64.172 86.3608H62.2119C62.0166 86.3556 61.8244 86.4097 61.6605 86.5161C61.4967 86.6225 61.3691 86.7762 61.2945 86.9567C61.2224 87.1426 61.2078 87.3459 61.2525 87.5402C61.2973 87.7345 61.3993 87.9109 61.5454 88.0465L63.2625 89.6147C63.2939 89.6424 63.316 89.679 63.3258 89.7197C63.3356 89.7604 63.3327 89.8031 63.3174 89.842L62.3138 92.0139C62.2273 92.2051 62.205 92.4191 62.2503 92.624C62.2955 92.829 62.4058 93.0137 62.5647 93.1508C62.7219 93.2937 62.9201 93.3835 63.1312 93.4074C63.3423 93.4314 63.5556 93.3882 63.7408 93.2841L66.1792 91.912C66.2084 91.8931 66.2425 91.883 66.2772 91.883C66.312 91.883 66.346 91.8931 66.3752 91.912L68.8137 93.2841Z" fill="#111111"/>
</g>
</g>
<g id="Size=24px, Filled=true" clip-path="url(#clip8_7804_271)">
<g id="Vector_11">
<path d="M93.3658 86.833C93.5959 86.2743 93.9873 85.7968 94.4901 85.4617C94.9929 85.1265 95.5842 84.9488 96.1884 84.9513C96.2354 84.9507 96.2811 84.936 96.3197 84.9092C96.3583 84.8823 96.3879 84.8446 96.4048 84.8007C96.4192 84.7572 96.4215 84.7107 96.4116 84.6659C96.4016 84.6212 96.3798 84.58 96.3484 84.5467C95.4766 83.7176 94.4066 83.1261 93.2407 82.829C92.0749 82.5318 90.8523 82.5389 89.69 82.8495C88.5277 83.1602 87.4646 83.764 86.6025 84.6031C85.7404 85.4423 85.1081 86.4887 84.7662 87.6422C84.7478 87.7125 84.745 87.786 84.758 87.8575C84.771 87.929 84.7995 87.9968 84.8415 88.0562C84.8871 88.1126 84.9443 88.1586 85.0093 88.191C85.0742 88.2235 85.1453 88.2417 85.2178 88.2443H92.679C92.7431 88.2482 92.8073 88.2389 92.8677 88.217C92.928 88.195 92.9833 88.161 93.03 88.1169C93.0767 88.0729 93.1139 88.0197 93.1393 87.9607C93.1647 87.9017 93.1777 87.8381 93.1776 87.7739C93.1876 87.452 93.2512 87.134 93.3658 86.833Z" fill="#111111"/>
<path d="M91.3335 81.6583C93.8017 81.6583 95.8026 79.6574 95.8026 77.1891C95.8026 74.7209 93.8017 72.72 91.3335 72.72C88.8652 72.72 86.8643 74.7209 86.8643 77.1891C86.8643 79.6574 88.8652 81.6583 91.3335 81.6583Z" fill="#111111"/>
<path d="M104.176 95.1409C104.399 95.2695 104.657 95.3233 104.913 95.2945C105.169 95.2658 105.408 95.1559 105.597 94.9809C105.784 94.8136 105.912 94.5914 105.965 94.3463C106.017 94.1011 105.991 93.8457 105.889 93.6167L104.741 90.9728C104.721 90.927 104.716 90.8763 104.727 90.8276C104.737 90.7788 104.761 90.7343 104.797 90.7L106.886 88.8182C107.055 88.6533 107.172 88.4423 107.223 88.2115C107.273 87.9806 107.254 87.7401 107.168 87.5198C107.073 87.3092 106.918 87.1315 106.722 87.0093C106.526 86.887 106.298 86.8256 106.068 86.833H103.715C103.669 86.8331 103.625 86.8199 103.586 86.7948C103.548 86.7697 103.517 86.7339 103.499 86.6918L102.229 83.7563C102.127 83.5576 101.971 83.3909 101.781 83.2747C101.59 83.1585 101.37 83.0972 101.147 83.0977C100.918 83.0985 100.693 83.1632 100.499 83.2846C100.304 83.4059 100.147 83.579 100.046 83.7846L98.8228 86.6918C98.8045 86.7339 98.7742 86.7697 98.7357 86.7948C98.6973 86.8199 98.6523 86.8331 98.6064 86.833H96.2543C96.0199 86.8267 95.7892 86.8916 95.5926 87.0193C95.3961 87.147 95.2429 87.3314 95.1534 87.548C95.0669 87.7711 95.0493 88.015 95.103 88.2482C95.1567 88.4814 95.2792 88.6931 95.4545 88.8559L97.515 90.7376C97.5527 90.7708 97.5792 90.8148 97.591 90.8636C97.6028 90.9125 97.5992 90.9637 97.5809 91.0105L96.3766 93.6167C96.2728 93.8461 96.2461 94.103 96.3003 94.3489C96.3546 94.5947 96.487 94.8165 96.6776 94.9809C96.8663 95.1524 97.1041 95.2602 97.3575 95.2889C97.6108 95.3176 97.8667 95.2658 98.089 95.1409L101.015 93.4944C101.05 93.4717 101.091 93.4596 101.133 93.4596C101.174 93.4596 101.215 93.4717 101.25 93.4944L104.176 95.1409Z" fill="#111111"/>
</g>
</g>
<g id="Size=32px, Filled=true">
<g id="Vector_12">
<path d="M132.488 87.7774C132.795 87.0324 133.316 86.3958 133.987 85.9489C134.657 85.502 135.446 85.265 136.251 85.2684C136.314 85.2676 136.375 85.248 136.426 85.2122C136.478 85.1765 136.517 85.1261 136.54 85.0676C136.559 85.0097 136.562 84.9475 136.549 84.8879C136.536 84.8283 136.506 84.7734 136.464 84.7289C135.302 83.6234 133.875 82.8348 132.321 82.4386C130.767 82.0424 129.136 82.0518 127.587 82.466C126.037 82.8802 124.62 83.6853 123.47 84.8041C122.321 85.923 121.477 87.3182 121.022 88.8562C120.997 88.95 120.993 89.048 121.011 89.1433C121.028 89.2387 121.066 89.3291 121.122 89.4082C121.183 89.4834 121.259 89.5448 121.346 89.588C121.432 89.6313 121.527 89.6556 121.624 89.6591H131.572C131.657 89.6642 131.743 89.6518 131.824 89.6226C131.904 89.5934 131.978 89.548 132.04 89.4892C132.102 89.4305 132.152 89.3596 132.186 89.2809C132.22 89.2023 132.237 89.1175 132.237 89.0319C132.25 88.6027 132.335 88.1787 132.488 87.7774Z" fill="#111111"/>
<path d="M129.778 80.8777C133.069 80.8777 135.737 78.2098 135.737 74.9188C135.737 71.6278 133.069 68.96 129.778 68.96C126.487 68.96 123.819 71.6278 123.819 74.9188C123.819 78.2098 126.487 80.8777 129.778 80.8777Z" fill="#111111"/>
<path d="M146.902 98.8545C147.199 99.026 147.543 99.0978 147.884 99.0594C148.225 99.021 148.545 98.8745 148.796 98.6413C149.045 98.4181 149.217 98.1218 149.287 97.795C149.356 97.4682 149.321 97.1276 149.185 96.8222L147.655 93.2971C147.629 93.236 147.622 93.1684 147.635 93.1034C147.649 93.0384 147.682 92.9791 147.73 92.9333L150.515 90.4243C150.74 90.2045 150.896 89.9231 150.963 89.6153C151.03 89.3075 151.005 88.9868 150.891 88.6931C150.765 88.4123 150.558 88.1754 150.296 88.0123C150.035 87.8493 149.731 87.7675 149.423 87.7773H146.287C146.226 87.7775 146.166 87.7598 146.115 87.7264C146.063 87.6929 146.023 87.6452 145.999 87.5891L144.305 83.6751C144.169 83.4101 143.962 83.1879 143.707 83.0329C143.453 82.8779 143.16 82.7963 142.862 82.797C142.557 82.798 142.258 82.8843 141.998 83.0461C141.739 83.2078 141.53 83.4387 141.395 83.7127L139.764 87.5891C139.739 87.6452 139.699 87.6929 139.648 87.7264C139.596 87.7598 139.536 87.7775 139.475 87.7773H136.339C136.027 87.7689 135.719 87.8555 135.457 88.0258C135.195 88.196 134.991 88.4419 134.871 88.7307C134.756 89.0282 134.732 89.3534 134.804 89.6643C134.876 89.9752 135.039 90.2574 135.273 90.4745L138.02 92.9835C138.07 93.0278 138.106 93.0864 138.121 93.1515C138.137 93.2166 138.132 93.285 138.108 93.3473L136.502 96.8222C136.364 97.1281 136.328 97.4706 136.4 97.7985C136.473 98.1263 136.649 98.422 136.904 98.6413C137.155 98.8699 137.472 99.0136 137.81 99.0519C138.148 99.0902 138.489 99.0211 138.785 98.8545L142.687 96.6591C142.733 96.6289 142.788 96.6128 142.844 96.6128C142.899 96.6128 142.954 96.6289 143 96.6591L146.902 98.8545Z" fill="#111111"/>
</g>
</g>
<g id="Size=40px, Filled=true">
<g id="Vector_13">
<path d="M179.61 88.7217C179.993 87.7905 180.646 86.9947 181.484 86.4361C182.321 85.8775 183.307 85.5813 184.314 85.5855C184.392 85.5844 184.469 85.56 184.533 85.5153C184.597 85.4706 184.646 85.4076 184.675 85.3346C184.699 85.2621 184.703 85.1844 184.686 85.1099C184.669 85.0354 184.633 84.9667 184.581 84.9112C183.128 83.5293 181.344 82.5435 179.401 82.0483C177.458 81.553 175.421 81.5648 173.483 82.0825C171.546 82.6003 169.774 83.6066 168.338 85.0052C166.901 86.4038 165.847 88.1478 165.277 90.0703C165.246 90.1875 165.242 90.31 165.263 90.4292C165.285 90.5483 165.333 90.6613 165.402 90.7603C165.479 90.8543 165.574 90.931 165.682 90.9851C165.79 91.0392 165.909 91.0694 166.03 91.0739H178.465C178.572 91.0803 178.679 91.0648 178.779 91.0283C178.88 90.9918 178.972 90.935 179.05 90.8616C179.128 90.7881 179.19 90.6995 179.232 90.6012C179.274 90.5028 179.296 90.3969 179.296 90.2898C179.313 89.7533 179.419 89.2234 179.61 88.7217Z" fill="#111111"/>
<path d="M176.222 80.0971C180.336 80.0971 183.671 76.7623 183.671 72.6485C183.671 68.5348 180.336 65.2 176.222 65.2C172.109 65.2 168.774 68.5348 168.774 72.6485C168.774 76.7623 172.109 80.0971 176.222 80.0971Z" fill="#111111"/>
<path d="M197.627 102.568C197.999 102.782 198.429 102.872 198.855 102.824C199.281 102.776 199.681 102.593 199.995 102.302C200.306 102.023 200.521 101.652 200.608 101.244C200.695 100.835 200.651 100.41 200.481 100.028L198.568 95.6214C198.536 95.545 198.527 95.4605 198.544 95.3793C198.561 95.298 198.602 95.2238 198.662 95.1666L202.144 92.0304C202.426 91.7556 202.621 91.4039 202.704 91.0191C202.788 90.6343 202.756 90.2334 202.614 89.8664C202.456 89.5154 202.197 89.2192 201.87 89.0154C201.544 88.8116 201.164 88.7094 200.779 88.7216H196.859C196.782 88.7219 196.708 88.6998 196.643 88.658C196.579 88.6162 196.529 88.5565 196.498 88.4864L194.381 83.5939C194.211 83.2626 193.952 82.9848 193.634 82.7911C193.316 82.5974 192.95 82.4954 192.578 82.4962C192.196 82.4975 191.822 82.6054 191.498 82.8076C191.174 83.0098 190.912 83.2984 190.743 83.6409L188.705 88.4864C188.674 88.5565 188.624 88.6162 188.56 88.658C188.495 88.6998 188.421 88.7219 188.344 88.7216H184.424C184.033 88.7111 183.649 88.8194 183.321 89.0322C182.993 89.245 182.738 89.5523 182.589 89.9134C182.445 90.2852 182.416 90.6917 182.505 91.0804C182.595 91.469 182.799 91.8218 183.091 92.0931L186.525 95.2293C186.588 95.2847 186.632 95.3581 186.652 95.4394C186.671 95.5208 186.665 95.6062 186.635 95.6841L184.628 100.028C184.455 100.41 184.41 100.838 184.501 101.248C184.591 101.658 184.812 102.027 185.129 102.302C185.444 102.587 185.84 102.767 186.262 102.815C186.685 102.863 187.111 102.776 187.482 102.568L192.358 99.8239C192.417 99.7861 192.485 99.766 192.554 99.766C192.624 99.766 192.692 99.7861 192.75 99.8239L197.627 102.568Z" fill="#111111"/>
</g>
</g>
<g id="Size=48px, Filled=true">
<g id="Vector_14">
<path d="M234.732 89.666C235.192 88.5486 235.975 87.5937 236.98 86.9233C237.986 86.2529 239.168 85.8976 240.377 85.9026C240.471 85.9013 240.562 85.872 240.639 85.8183C240.717 85.7647 240.776 85.6891 240.81 85.6015C240.838 85.5145 240.843 85.4213 240.823 85.3319C240.803 85.2424 240.76 85.16 240.697 85.0934C238.953 83.4352 236.813 82.2523 234.481 81.6579C232.15 81.0636 229.705 81.0778 227.38 81.699C225.055 82.3203 222.929 83.5279 221.205 85.2062C219.481 86.8845 218.216 88.9774 217.532 91.2843C217.496 91.425 217.49 91.572 217.516 91.715C217.542 91.858 217.599 91.9936 217.683 92.1123C217.774 92.2252 217.889 92.3172 218.019 92.3821C218.148 92.447 218.291 92.4833 218.436 92.4887H233.358C233.486 92.4964 233.615 92.4777 233.735 92.4339C233.856 92.3901 233.967 92.322 234.06 92.2339C234.153 92.1457 234.228 92.0394 234.279 91.9214C234.329 91.8034 234.355 91.6762 234.355 91.5478C234.375 90.904 234.502 90.268 234.732 89.666Z" fill="#111111"/>
<path d="M230.667 79.3165C235.603 79.3165 239.605 75.3147 239.605 70.3782C239.605 65.4418 235.603 61.4399 230.667 61.4399C225.73 61.4399 221.729 65.4418 221.729 70.3782C221.729 75.3147 225.73 79.3165 230.667 79.3165Z" fill="#111111"/>
<path d="M256.353 106.282C256.798 106.539 257.315 106.647 257.826 106.589C258.337 106.532 258.817 106.312 259.194 105.962C259.567 105.627 259.825 105.183 259.93 104.693C260.035 104.202 259.981 103.691 259.778 103.233L257.482 97.9456C257.443 97.854 257.433 97.7527 257.453 97.6551C257.473 97.5576 257.523 97.4686 257.595 97.3999L261.772 93.6364C262.111 93.3067 262.345 92.8847 262.445 92.4229C262.545 91.9612 262.508 91.4801 262.337 91.0396C262.147 90.6184 261.836 90.263 261.445 90.0185C261.053 89.774 260.597 89.6513 260.135 89.666H255.431C255.339 89.6663 255.249 89.6397 255.172 89.5896C255.095 89.5394 255.035 89.4678 254.998 89.3837L252.458 83.5127C252.253 83.1151 251.943 82.7818 251.561 82.5493C251.179 82.3169 250.741 82.1944 250.294 82.1954C249.835 82.197 249.386 82.3264 248.997 82.5691C248.608 82.8118 248.295 83.1581 248.092 83.5691L245.646 89.3837C245.609 89.4678 245.548 89.5394 245.471 89.5896C245.395 89.6397 245.305 89.6663 245.213 89.666H240.509C240.04 89.6533 239.578 89.7833 239.185 90.0387C238.792 90.294 238.486 90.6628 238.307 91.0961C238.134 91.5422 238.099 92.0301 238.206 92.4964C238.313 92.9628 238.558 93.3861 238.909 93.7117L243.03 97.4752C243.105 97.5416 243.158 97.6297 243.182 97.7273C243.206 97.8249 243.198 97.9274 243.162 98.0209L240.753 103.233C240.546 103.692 240.492 104.206 240.601 104.698C240.709 105.189 240.974 105.633 241.355 105.962C241.733 106.305 242.208 106.52 242.715 106.578C243.222 106.635 243.733 106.532 244.178 106.282L250.03 102.989C250.1 102.943 250.182 102.919 250.265 102.919C250.349 102.919 250.431 102.943 250.501 102.989L256.353 106.282Z" fill="#111111"/>
</g>
</g>
</g>
</g>
<defs>
<clipPath id="clip0_7804_271">
<rect width="264" height="108" rx="5" fill="white"/>
</clipPath>
<clipPath id="clip1_7804_271">
<rect width="12" height="12" fill="white" transform="translate(0 18)"/>
</clipPath>
<clipPath id="clip2_7804_271">
<rect width="16" height="16" fill="white" transform="translate(24 16)"/>
</clipPath>
<clipPath id="clip3_7804_271">
<rect width="20" height="20" fill="white" transform="translate(52 14)"/>
</clipPath>
<clipPath id="clip4_7804_271">
<rect width="24" height="24" fill="white" transform="translate(84 12)"/>
</clipPath>
<clipPath id="clip5_7804_271">
<rect width="12" height="12" fill="white" transform="translate(0 78)"/>
</clipPath>
<clipPath id="clip6_7804_271">
<rect width="16" height="16" fill="white" transform="translate(24 76)"/>
</clipPath>
<clipPath id="clip7_7804_271">
<rect width="20" height="20" fill="white" transform="translate(52 74)"/>
</clipPath>
<clipPath id="clip8_7804_271">
<rect width="24" height="24" fill="white" transform="translate(84 72)"/>
</clipPath>
</defs>
</svg>
