<svg width="264" height="108" viewBox="0 0 264 108" fill="none" xmlns="http://www.w3.org/2000/svg">
<g id="View search">
<g clip-path="url(#clip0_3072_493)">
<g id="Size=12px, Filled=false" clip-path="url(#clip1_3072_493)">
<path id="Vector" d="M10.7079 22.7731C10.8293 22.6565 10.9413 22.5398 11.0486 22.4185C11.1775 22.2767 11.2489 22.092 11.2489 21.9005C11.2489 21.7089 11.1775 21.5242 11.0486 21.3825C9.82597 20.0339 7.86604 18.7179 5.99944 18.7506C4.13283 18.7833 2.1729 20.0339 0.950277 21.3825C0.821408 21.5242 0.75 21.7089 0.75 21.9005C0.75 22.092 0.821408 22.2767 0.950277 22.4185C1.77367 23.3349 2.7757 24.0733 3.89484 24.5884M4.72079 23.0951C4.51962 22.8793 4.37629 22.6162 4.3041 22.3301C4.23191 22.0441 4.23322 21.7444 4.30789 21.459C4.38257 21.1736 4.52819 20.9117 4.73123 20.6976C4.93426 20.4836 5.18811 20.3244 5.46919 20.2347C5.75027 20.1451 6.04944 20.128 6.33891 20.185C6.62837 20.242 6.89873 20.3712 7.12485 20.5607C7.35097 20.7502 7.52551 20.9938 7.63224 21.2688C7.73898 21.5439 7.77445 21.8414 7.73535 22.1338M11.2499 29.2504L9.49529 27.4958M10.1997 25.7504C10.1997 27.1035 9.10281 28.2004 7.74976 28.2004C6.39671 28.2004 5.29984 27.1035 5.29984 25.7504C5.29984 24.3974 6.39671 23.3005 7.74976 23.3005C9.10281 23.3005 10.1997 24.3974 10.1997 25.7504Z" stroke="#111111" stroke-width="0.75" stroke-linecap="round" stroke-linejoin="round"/>
</g>
<g id="Size=16px, Filled=false" clip-path="url(#clip2_3072_493)">
<path id="Vector_2" d="M38.2773 22.3642C38.439 22.2086 38.5884 22.0531 38.7315 21.8913C38.9033 21.7023 38.9985 21.4561 38.9985 21.2006C38.9985 20.9452 38.9033 20.699 38.7315 20.51C37.1013 18.7118 34.4881 16.9572 31.9992 17.0008C29.5104 17.0443 26.8972 18.7118 25.267 20.51C25.0952 20.699 25 20.9452 25 21.2006C25 21.4561 25.0952 21.7023 25.267 21.8913C26.3649 23.1132 27.7009 24.0977 29.1931 24.7845M30.2944 22.7935C30.0262 22.5058 29.835 22.1549 29.7388 21.7735C29.6425 21.3921 29.6443 20.9925 29.7439 20.612C29.8434 20.2314 30.0376 19.8822 30.3083 19.5968C30.579 19.3115 30.9175 19.0991 31.2923 18.9796C31.667 18.8601 32.0659 18.8373 32.4519 18.9133C32.8378 18.9893 33.1983 19.1616 33.4998 19.4143C33.8013 19.6669 34.034 19.9917 34.1763 20.3584C34.3186 20.7252 34.3659 21.1219 34.3138 21.5118M38.9999 31.0005L36.6604 28.661M37.5996 26.3339C37.5996 28.138 36.1371 29.6005 34.333 29.6005C32.5289 29.6005 31.0665 28.138 31.0665 26.3339C31.0665 24.5299 32.5289 23.0674 34.333 23.0674C36.1371 23.0674 37.5996 24.5299 37.5996 26.3339Z" stroke="#111111" stroke-linecap="round" stroke-linejoin="round"/>
</g>
<g id="Size=20px, Filled=false" clip-path="url(#clip3_3072_493)">
<path id="Vector_3" d="M69.8466 21.9552C70.0488 21.7608 70.2354 21.5663 70.4143 21.3641C70.6291 21.1279 70.7481 20.8201 70.7481 20.5008C70.7481 20.1815 70.6291 19.8737 70.4143 19.6375C68.3766 17.3898 65.1101 15.1966 61.9991 15.251C58.8881 15.3054 55.6215 17.3898 53.5838 19.6375C53.369 19.8737 53.25 20.1815 53.25 20.5008C53.25 20.8201 53.369 21.1279 53.5838 21.3641C54.9561 22.8915 56.6262 24.1222 58.4914 24.9807M59.868 22.4919C59.5327 22.1322 59.2938 21.6936 59.1735 21.2169C59.0532 20.7401 59.0554 20.2407 59.1798 19.765C59.3043 19.2893 59.547 18.8528 59.8854 18.4961C60.2238 18.1393 60.6469 17.8739 61.1153 17.7245C61.5838 17.5751 62.0824 17.5466 62.5648 17.6416C63.0473 17.7366 63.4979 17.952 63.8747 18.2679C64.2516 18.5837 64.5425 18.9897 64.7204 19.4481C64.8983 19.9064 64.9574 20.4024 64.8922 20.8897M70.7498 32.7506L67.8255 29.8263M68.9995 26.9174C68.9995 29.1725 67.1713 31.0006 64.9163 31.0006C62.6612 31.0006 60.8331 29.1725 60.8331 26.9174C60.8331 24.6623 62.6612 22.8342 64.9163 22.8342C67.1713 22.8342 68.9995 24.6623 68.9995 26.9174Z" stroke="#111111" stroke-width="1.25" stroke-linecap="round" stroke-linejoin="round"/>
</g>
<g id="Size=24px, Filled=false" clip-path="url(#clip4_3072_493)">
<path id="Vector_4" d="M106.089 21.3698C106.349 21.1198 106.589 20.8698 106.819 20.6098C107.095 20.3061 107.248 19.9103 107.248 19.4998C107.248 19.0893 107.095 18.6935 106.819 18.3898C104.199 15.4998 99.9992 12.6798 95.9992 12.7498C91.9992 12.8198 87.7992 15.4998 85.1792 18.3898C84.903 18.6935 84.75 19.0893 84.75 19.4998C84.75 19.9103 84.903 20.3061 85.1792 20.6098C86.9436 22.5736 89.0909 24.156 91.4892 25.2598M93.2589 22.0599C92.8278 21.5974 92.5206 21.0335 92.3659 20.4205C92.2113 19.8075 92.214 19.1654 92.3741 18.5537C92.5341 17.9421 92.8462 17.3809 93.2812 16.9222C93.7163 16.4635 94.2603 16.1223 94.8627 15.9302C95.465 15.7381 96.1061 15.7014 96.7264 15.8236C97.3467 15.9457 97.9261 16.2227 98.4106 16.6288C98.8952 17.0348 99.2692 17.5568 99.4979 18.1462C99.7267 18.7356 99.8027 19.3733 99.7189 19.9999M107.25 35.25L103.49 31.49M105 27.75C105 30.6495 102.649 33 99.75 33C96.8505 33 94.5 30.6495 94.5 27.75C94.5 24.8505 96.8505 22.5 99.75 22.5C102.649 22.5 105 24.8505 105 27.75Z" stroke="#111111" stroke-width="1.5" stroke-linecap="round" stroke-linejoin="round"/>
</g>
<g id="Size=32px, Filled=false">
<path id="Vector_5" d="M148.555 20.7283C148.878 20.4172 149.177 20.1061 149.463 19.7826C149.807 19.4046 149.997 18.9121 149.997 18.4013C149.997 17.8905 149.807 17.398 149.463 17.02C146.203 13.4237 140.976 9.91448 135.998 10.0016C131.021 10.0887 125.794 13.4237 122.534 17.02C122.19 17.398 122 17.8905 122 18.4013C122 18.9121 122.19 19.4046 122.534 19.7826C124.73 22.2264 127.402 24.1955 130.386 25.5691M132.589 21.5871C132.052 21.0116 131.67 20.3098 131.478 19.547C131.285 18.7842 131.289 17.9851 131.488 17.224C131.687 16.4629 132.075 15.7645 132.617 15.1937C133.158 14.6229 133.835 14.1983 134.585 13.9593C135.334 13.7202 136.132 13.6746 136.904 13.8266C137.676 13.9786 138.397 14.3232 139 14.8286C139.603 15.3339 140.068 15.9835 140.353 16.7169C140.637 17.4503 140.732 18.2438 140.628 19.0236M150 38.001L145.321 33.322M147.199 28.6678C147.199 32.276 144.274 35.201 140.666 35.201C137.058 35.201 134.133 32.276 134.133 28.6678C134.133 25.0597 137.058 22.1347 140.666 22.1347C144.274 22.1347 147.199 25.0597 147.199 28.6678Z" stroke="#111111" stroke-width="2" stroke-linecap="round" stroke-linejoin="round"/>
</g>
<g id="Size=40px, Filled=false">
<path id="Vector_6" d="M199.693 19.9104C200.098 19.5215 200.471 19.1327 200.829 18.7282C201.258 18.2558 201.496 17.6402 201.496 17.0016C201.496 16.3631 201.258 15.7475 200.829 15.275C196.753 10.7796 190.22 6.3931 183.998 6.50199C177.776 6.61087 171.243 10.7796 167.168 15.275C166.738 15.7475 166.5 16.3631 166.5 17.0016C166.5 17.6402 166.738 18.2558 167.168 18.7282C169.912 21.783 173.252 24.2444 176.983 25.9613M179.736 20.9838C179.065 20.2645 178.588 19.3873 178.347 18.4338C178.106 17.4802 178.111 16.4814 178.36 15.53C178.609 14.5786 179.094 13.7056 179.771 12.9921C180.448 12.2786 181.294 11.7478 182.231 11.4491C183.168 11.1503 184.165 11.0932 185.13 11.2832C186.095 11.4732 186.996 11.904 187.749 12.5357C188.503 13.1674 189.085 13.9793 189.441 14.8961C189.797 15.8129 189.915 16.8048 189.784 17.7795M201.5 41.5012L195.651 35.6525M197.999 29.8348C197.999 34.345 194.343 38.0012 189.833 38.0012C185.322 38.0012 181.666 34.345 181.666 29.8348C181.666 25.3246 185.322 21.6684 189.833 21.6684C194.343 21.6684 197.999 25.3246 197.999 29.8348Z" stroke="#111111" stroke-width="2.5" stroke-linecap="round" stroke-linejoin="round"/>
</g>
<g id="Size=48px, Filled=false">
<path id="Vector_7" d="M258.832 19.0925C259.317 18.6258 259.765 18.1592 260.194 17.6739C260.71 17.1069 260.995 16.3682 260.995 15.6019C260.995 14.8357 260.71 14.097 260.194 13.53C255.304 8.13554 247.464 2.87172 239.998 3.00238C232.531 3.13305 224.692 8.13554 219.801 13.53C219.286 14.097 219 14.8357 219 15.6019C219 16.3682 219.286 17.1069 219.801 17.6739C223.095 21.3395 227.103 24.2932 231.579 26.3536M234.883 20.3806C234.078 19.5174 233.505 18.4647 233.216 17.3205C232.928 16.1763 232.933 14.9776 233.232 13.836C233.53 12.6943 234.113 11.6467 234.925 10.7905C235.737 9.93436 236.752 9.2974 237.877 8.93888C239.001 8.58035 240.198 8.51189 241.356 8.73987C242.513 8.96785 243.595 9.48486 244.499 10.2428C245.404 11.0008 246.102 11.9752 246.529 13.0753C246.956 14.1755 247.098 15.3657 246.941 16.5354M261 45.0015L253.981 37.983M256.799 31.0018C256.799 36.414 252.411 40.8014 246.999 40.8014C241.587 40.8014 237.199 36.414 237.199 31.0018C237.199 25.5896 241.587 21.2021 246.999 21.2021C252.411 21.2021 256.799 25.5896 256.799 31.0018Z" stroke="#111111" stroke-width="3" stroke-linecap="round" stroke-linejoin="round"/>
</g>
<g id="Size=12px, Filled=true" clip-path="url(#clip5_3072_493)">
<g id="Vector_8">
<path d="M8.89548 83.3754C9.16203 83.0674 9.64034 82.5066 9.72541 82.3981C9.88193 82.2014 9.97659 81.9523 9.99615 81.6898C9.99866 81.6602 9.99994 81.6304 9.99994 81.6004L9.99992 81.5946L9.99994 81.5878C9.99994 81.2877 9.90162 80.9982 9.72417 80.776C9.16197 80.0707 8.43065 79.3737 7.62066 78.8548C6.87033 78.3742 6.03256 78.0338 5.18743 78.0024C5.1462 78.0008 5.10499 78 5.06383 78C5.04029 78 5.01675 78.0002 4.99321 78.0007C3.20549 78.0362 1.38945 79.3789 0.275891 80.7758C0.0983256 80.998 -6.10352e-05 81.2875 -6.10352e-05 81.5878L-4.46166e-05 81.5946L-6.10352e-05 81.6004C-6.10352e-05 81.6304 0.00121587 81.6603 0.0037355 81.6899C0.0233386 81.9528 0.118284 82.2023 0.275258 82.3991C0.896508 83.1852 1.8402 84.0418 2.73067 84.6229C2.93628 84.7652 3.1388 84.8924 3.33373 85L3.37483 84.9886C3.3829 84.9908 3.39099 84.9926 3.3991 84.9941C3.49175 84.4598 3.6788 83.9669 3.93836 83.5419C3.56877 83.175 3.33327 82.6205 3.33327 82C3.33327 80.8954 4.07946 80 4.99994 80C5.92041 80 6.66661 80.8954 6.66661 82C6.66661 82.0024 6.6666 82.0048 6.66659 82.0072C7.56368 82.0735 8.35879 82.5921 8.89548 83.3754Z" fill="#111111"/>
<path fill-rule="evenodd" clip-rule="evenodd" d="M6.47042 83.6005C5.47414 83.6005 4.66649 84.5697 4.66649 85.7653C4.66649 86.9608 5.47414 87.93 6.47042 87.93C7.46671 87.93 8.27435 86.9608 8.27435 85.7653C8.27435 84.5697 7.46671 83.6005 6.47042 83.6005ZM3.88211 85.7653C3.88211 84.0499 5.04094 82.6593 6.47042 82.6593C7.89991 82.6593 9.05873 84.0499 9.05873 85.7653C9.05873 87.4807 7.89991 88.8712 6.47042 88.8712C5.04094 88.8712 3.88211 87.4807 3.88211 85.7653Z" fill="#111111"/>
<path fill-rule="evenodd" clip-rule="evenodd" d="M7.75754 87.3099C7.9107 87.1261 8.15903 87.1261 8.31218 87.3099L9.88503 89.1973C10.0382 89.3811 10.0382 89.6791 9.88503 89.8629C9.73187 90.0466 9.48355 90.0466 9.33039 89.8629L7.75754 87.9754C7.60438 87.7917 7.60438 87.4937 7.75754 87.3099Z" fill="#111111"/>
</g>
</g>
<g id="Size=16px, Filled=true" clip-path="url(#clip6_3072_493)">
<g id="Vector_9">
<path d="M36.2328 83.1672C36.6593 82.7565 37.4246 82.0089 37.5607 81.8641C37.8111 81.6019 37.9626 81.2698 37.9939 80.9197C37.9979 80.8803 37.9999 80.8406 37.9999 80.8006L37.9999 80.7928L37.9999 80.7838C37.9999 80.3835 37.8426 79.9976 37.5587 79.7014C36.6592 78.761 35.4891 77.8316 34.1931 77.1398C32.9926 76.4989 31.6521 76.0451 30.2999 76.0032C30.234 76.001 30.168 76 30.1022 76C30.0645 76 30.0268 76.0003 29.9892 76.0009C27.1288 76.0483 24.2232 77.8385 22.4415 79.7011C22.1574 79.9974 21.9999 80.3834 21.9999 80.7838L22 80.7927L21.9999 80.8006C21.9999 80.8406 22.002 80.8804 22.006 80.9199C22.0374 81.2704 22.1893 81.603 22.4404 81.8654C23.4345 82.9136 24.9444 84.0557 26.3691 84.8305C26.6981 85.0203 27.0221 85.1898 27.334 85.3333L27.3998 85.3182C27.4127 85.321 27.4256 85.3235 27.4386 85.3255C27.5868 84.613 27.8861 83.9559 28.3014 83.3892C27.7101 82.9001 27.3333 82.1607 27.3333 81.3333C27.3333 79.8606 28.5272 78.6667 29.9999 78.6667C31.4727 78.6667 32.6666 79.8606 32.6666 81.3333C32.6666 81.3365 32.6666 81.3397 32.6666 81.3429C34.1019 81.4313 35.3741 82.1228 36.2328 83.1672Z" fill="#111111"/>
<path fill-rule="evenodd" clip-rule="evenodd" d="M32.3527 83.4674C30.7587 83.4674 29.4664 84.7596 29.4664 86.3537C29.4664 87.9477 30.7587 89.24 32.3527 89.24C33.9468 89.24 35.239 87.9477 35.239 86.3537C35.239 84.7596 33.9468 83.4674 32.3527 83.4674ZM28.2114 86.3537C28.2114 84.0665 30.0655 82.2124 32.3527 82.2124C34.6399 82.2124 36.494 84.0665 36.494 86.3537C36.494 88.6409 34.6399 90.495 32.3527 90.495C30.0655 90.495 28.2114 88.6409 28.2114 86.3537Z" fill="#111111"/>
<path fill-rule="evenodd" clip-rule="evenodd" d="M34.4121 88.4132C34.6572 88.1681 35.0545 88.1681 35.2995 88.4132L37.8161 90.9297C38.0611 91.1748 38.0611 91.5721 37.8161 91.8171C37.571 92.0622 37.1737 92.0622 36.9287 91.8171L34.4121 89.3006C34.1671 89.0555 34.1671 88.6582 34.4121 88.4132Z" fill="#111111"/>
</g>
</g>
<g id="Size=20px, Filled=true" clip-path="url(#clip7_3072_493)">
<g id="Vector_10">
<path d="M67.791 82.959C68.3241 82.4456 69.2807 81.5111 69.4509 81.3301C69.7639 81.0024 69.9532 80.5872 69.9924 80.1497C69.9974 80.1004 69.9999 80.0507 69.9999 80.0007L69.9999 79.9911L69.9999 79.9797C69.9999 79.4794 69.8033 78.9971 69.4484 78.6267C68.324 77.4512 66.8614 76.2895 65.2414 75.4247C63.7407 74.6236 62.0652 74.0564 60.3749 74.004C60.2925 74.0013 60.21 74 60.1277 74C60.0806 74 60.0336 74.0003 59.9865 74.0011C56.411 74.0604 52.779 76.2982 50.5518 78.6263C50.1967 78.9967 49.9999 79.4792 49.9999 79.9797L50 79.9909L49.9999 80.0007C49.9999 80.0507 50.0025 80.1005 50.0075 80.1498C50.0467 80.588 50.2366 81.0038 50.5506 81.3318C51.7931 82.642 53.6805 84.0697 55.4614 85.0382C55.8726 85.2754 56.2777 85.4873 56.6675 85.6667L56.7497 85.6477C56.7659 85.6513 56.782 85.6543 56.7983 85.6569C56.9836 84.7663 57.3577 83.9449 57.8768 83.2365C57.1376 82.6251 56.6666 81.7009 56.6666 80.6667C56.6666 78.8257 58.159 77.3333 59.9999 77.3333C61.8409 77.3333 63.3333 78.8257 63.3333 80.6667C63.3333 80.6707 63.3333 80.6747 63.3333 80.6787C65.1274 80.7892 66.7176 81.6536 67.791 82.959Z" fill="#111111"/>
<path fill-rule="evenodd" clip-rule="evenodd" d="M62.9409 83.3342C60.9483 83.3342 59.333 84.9495 59.333 86.9421C59.333 88.9347 60.9483 90.55 62.9409 90.55C64.9335 90.55 66.5488 88.9347 66.5488 86.9421C66.5488 84.9495 64.9335 83.3342 62.9409 83.3342ZM57.7643 86.9421C57.7643 84.0831 60.0819 81.7655 62.9409 81.7655C65.7999 81.7655 68.1175 84.0831 68.1175 86.9421C68.1175 89.8011 65.7999 92.1187 62.9409 92.1187C60.0819 92.1187 57.7643 89.8011 57.7643 86.9421Z" fill="#111111"/>
<path fill-rule="evenodd" clip-rule="evenodd" d="M65.5151 89.5165C65.8215 89.2101 66.3181 89.2101 66.6244 89.5165L69.7701 92.6621C70.0764 92.9685 70.0764 93.4651 69.7701 93.7714C69.4638 94.0777 68.9672 94.0777 68.6608 93.7714L65.5151 90.6257C65.2088 90.3194 65.2088 89.8228 65.5151 89.5165Z" fill="#111111"/>
</g>
</g>
<g id="Size=24px, Filled=true" clip-path="url(#clip8_3072_493)">
<g id="Vector_11">
<path d="M103.349 82.7508C103.989 82.1347 105.137 81.0133 105.341 80.7962C105.717 80.4028 105.944 79.9047 105.991 79.3796C105.997 79.3205 106 79.2608 106 79.2009L106 79.1893L106 79.1757C106 78.5753 105.764 77.9965 105.338 77.5521C103.989 76.1414 102.234 74.7474 100.29 73.7097C98.4889 72.7484 96.4782 72.0677 94.4499 72.0048C94.351 72.0016 94.2521 72 94.1533 72C94.0968 72 94.0403 72.0004 93.9838 72.0013C89.6933 72.0725 85.3348 74.7578 82.6622 77.5516C82.2361 77.9961 81.9999 78.5751 81.9999 79.1757L82 79.1891L81.9999 79.2009C81.9999 79.2609 82.003 79.3206 82.0091 79.3798C82.0561 79.9056 82.284 80.4045 82.6607 80.7982C84.1517 82.3705 86.4166 84.0836 88.5537 85.2458C89.0472 85.5304 89.5332 85.7847 90.001 86L90.0997 85.9772C90.119 85.9815 90.1385 85.9852 90.1579 85.9883C90.3803 84.9195 90.8292 83.9339 91.4522 83.0838C90.5651 82.3501 89.9999 81.2411 89.9999 80C89.9999 77.7909 91.7908 76 93.9999 76C96.2091 76 97.9999 77.7909 97.9999 80C97.9999 80.0048 97.9999 80.0096 97.9999 80.0144C100.153 80.147 102.061 81.1843 103.349 82.7508Z" fill="#111111"/>
<path fill-rule="evenodd" clip-rule="evenodd" d="M97.5291 83.2011C95.138 83.2011 93.1997 85.1395 93.1997 87.5305C93.1997 89.9216 95.138 91.86 97.5291 91.86C99.9202 91.86 101.859 89.9216 101.859 87.5305C101.859 85.1395 99.9202 83.2011 97.5291 83.2011ZM91.3171 87.5305C91.3171 84.0998 94.0983 81.3186 97.5291 81.3186C100.96 81.3186 103.741 84.0998 103.741 87.5305C103.741 90.9613 100.96 93.7425 97.5291 93.7425C94.0983 93.7425 91.3171 90.9613 91.3171 87.5305Z" fill="#111111"/>
<path fill-rule="evenodd" clip-rule="evenodd" d="M100.618 90.6197C100.986 90.2522 101.582 90.2522 101.949 90.6197L105.724 94.3946C106.092 94.7622 106.092 95.3581 105.724 95.7257C105.357 96.0933 104.761 96.0933 104.393 95.7257L100.618 91.9509C100.251 91.5833 100.251 90.9873 100.618 90.6197Z" fill="#111111"/>
</g>
</g>
<g id="Size=32px, Filled=true" clip-path="url(#clip9_3072_493)">
<g id="Vector_12">
<path d="M146.466 82.3344C147.319 81.513 148.849 80.0177 149.121 79.7282C149.622 79.2038 149.925 78.5395 149.988 77.8395C149.996 77.7606 150 77.6811 150 77.6012L150 77.5857L150 77.5676C150 76.7671 149.685 75.9953 149.117 75.4028C147.318 73.5219 144.978 71.6633 142.386 70.2796C139.985 68.9978 137.304 68.0902 134.6 68.0064C134.468 68.0021 134.336 68 134.204 68C134.129 67.9999 134.054 68.0005 133.978 68.0018C128.258 68.0967 122.446 71.6771 118.883 75.4021C118.315 75.9948 118 76.7668 118 77.5676L118 77.5855L118 77.6012C118 77.6812 118.004 77.7608 118.012 77.8397C118.075 78.5409 118.379 79.2061 118.881 79.7309C120.869 81.8273 123.889 84.1115 126.738 85.6611C127.396 86.0406 128.044 86.3796 128.668 86.6667L128.8 86.6363C128.825 86.642 128.851 86.6469 128.877 86.651C129.174 85.2261 129.772 83.9119 130.603 82.7784C129.42 81.8001 128.667 80.3214 128.667 78.6667C128.667 75.7212 131.054 73.3333 134 73.3333C136.945 73.3333 139.333 75.7212 139.333 78.6667C139.333 78.6731 139.333 78.6795 139.333 78.6859C142.204 78.8627 144.748 80.2457 146.466 82.3344Z" fill="#111111"/>
<path fill-rule="evenodd" clip-rule="evenodd" d="M138.705 82.9348C135.517 82.9348 132.933 85.5193 132.933 88.7074C132.933 91.8955 135.517 94.48 138.705 94.48C141.894 94.48 144.478 91.8955 144.478 88.7074C144.478 85.5193 141.894 82.9348 138.705 82.9348ZM130.423 88.7074C130.423 84.133 134.131 80.4248 138.705 80.4248C143.28 80.4248 146.988 84.133 146.988 88.7074C146.988 93.2817 143.28 96.99 138.705 96.99C134.131 96.99 130.423 93.2817 130.423 88.7074Z" fill="#111111"/>
<path fill-rule="evenodd" clip-rule="evenodd" d="M142.824 92.8263C143.314 92.3362 144.109 92.3362 144.599 92.8263L149.632 97.8594C150.122 98.3495 150.122 99.1442 149.632 99.6343C149.142 100.124 148.347 100.124 147.857 99.6343L142.824 94.6012C142.334 94.1111 142.334 93.3164 142.824 92.8263Z" fill="#111111"/>
</g>
</g>
<g id="Size=40px, Filled=true" clip-path="url(#clip10_3072_493)">
<g id="Vector_13">
<path d="M197.582 81.918C198.648 80.8912 200.562 79.0221 200.902 78.6603C201.528 78.0047 201.907 77.1744 201.985 76.2994C201.995 76.2008 202 76.1014 202 76.0015L202 75.9821L202 75.9595C202 74.9588 201.607 73.9941 200.897 73.2535C198.648 70.9024 195.723 68.5791 192.483 66.8495C189.482 65.2473 186.13 64.1128 182.75 64.0079C182.585 64.0026 182.42 64 182.256 64C182.161 63.9999 182.067 64.0007 181.973 64.0022C174.822 64.1208 167.558 68.5963 163.104 73.2527C162.393 73.9934 162 74.9585 162 75.9595L162 75.9819L162 76.0015C162 76.1015 162.005 76.201 162.015 76.2996C162.094 77.1761 162.473 78.0076 163.101 78.6636C165.586 81.2841 169.361 84.1394 172.923 86.0763C173.745 86.5507 174.555 86.9745 175.335 87.3333L175.499 87.2954C175.532 87.3026 175.564 87.3087 175.597 87.3138C175.967 85.5326 176.715 83.8898 177.754 82.473C176.275 81.2502 175.333 79.4018 175.333 77.3333C175.333 73.6514 178.318 70.6667 182 70.6667C185.682 70.6667 188.667 73.6514 188.667 77.3333C188.667 77.3414 188.667 77.3494 188.667 77.3574C192.255 77.5783 195.435 79.3071 197.582 81.918Z" fill="#111111"/>
<path fill-rule="evenodd" clip-rule="evenodd" d="M187.882 82.6685C183.897 82.6685 180.666 85.8991 180.666 89.8842C180.666 93.8694 183.897 97.1 187.882 97.1C191.867 97.1 195.098 93.8694 195.098 89.8842C195.098 85.8991 191.867 82.6685 187.882 82.6685ZM177.529 89.8842C177.529 84.1663 182.164 79.531 187.882 79.531C193.6 79.531 198.235 84.1663 198.235 89.8842C198.235 95.6022 193.6 100.237 187.882 100.237C182.164 100.237 177.529 95.6022 177.529 89.8842Z" fill="#111111"/>
<path fill-rule="evenodd" clip-rule="evenodd" d="M193.03 95.0329C193.643 94.4203 194.636 94.4203 195.249 95.0329L201.54 101.324C202.153 101.937 202.153 102.93 201.54 103.543C200.928 104.155 199.934 104.155 199.322 103.543L193.03 97.2515C192.418 96.6388 192.418 95.6455 193.03 95.0329Z" fill="#111111"/>
</g>
</g>
<g id="Size=48px, Filled=true" clip-path="url(#clip11_3072_493)">
<g id="Vector_14">
<path d="M256.699 81.5016C257.978 80.2694 260.274 78.0266 260.682 77.5924C261.433 76.8057 261.888 75.8093 261.982 74.7592C261.994 74.641 262 74.5217 262 74.4018L262 74.3785L262 74.3514C262 73.1506 261.528 71.9929 260.676 71.1041C257.978 68.2829 254.467 65.4949 250.579 63.4194C246.978 61.4967 242.957 60.1354 238.9 60.0095C238.702 60.0031 238.504 59.9999 238.307 60C238.194 59.9999 238.081 60.0008 237.968 60.0027C229.387 60.145 220.67 65.5156 215.325 71.1032C214.472 71.9921 214 73.1502 214 74.3514L214 74.3782L214 74.4018C214 74.5218 214.006 74.6412 214.018 74.7596C214.112 75.8113 214.568 76.8091 215.321 77.5963C218.303 80.7409 222.833 84.1672 227.107 86.4916C228.094 87.0609 229.066 87.5694 230.002 88L230.199 87.9545C230.238 87.9631 230.277 87.9704 230.316 87.9765C230.761 85.8391 231.658 83.8678 232.904 82.1676C231.13 80.7002 230 78.4821 230 76C230 71.5817 233.582 68 238 68C242.418 68 246 71.5817 246 76C246 76.0096 246 76.0192 246 76.0288C250.306 76.294 254.122 78.3685 256.699 81.5016Z" fill="#111111"/>
<path fill-rule="evenodd" clip-rule="evenodd" d="M245.058 82.4022C240.276 82.4022 236.399 86.2789 236.399 91.0611C236.399 95.8432 240.276 99.72 245.058 99.72C249.84 99.72 253.717 95.8432 253.717 91.0611C253.717 86.2789 249.84 82.4022 245.058 82.4022ZM232.634 91.0611C232.634 84.1995 238.197 78.6372 245.058 78.6372C251.92 78.6372 257.482 84.1995 257.482 91.0611C257.482 97.9226 251.92 103.485 245.058 103.485C238.197 103.485 232.634 97.9226 232.634 91.0611Z" fill="#111111"/>
<path fill-rule="evenodd" clip-rule="evenodd" d="M251.236 97.2395C251.972 96.5043 253.164 96.5043 253.899 97.2395L261.448 104.789C262.184 105.524 262.184 106.716 261.448 107.451C260.713 108.187 259.521 108.187 258.786 107.451L251.236 99.9018C250.501 99.1666 250.501 97.9747 251.236 97.2395Z" fill="#111111"/>
</g>
</g>
</g>
</g>
<defs>
<clipPath id="clip0_3072_493">
<rect width="264" height="108" rx="5" fill="white"/>
</clipPath>
<clipPath id="clip1_3072_493">
<rect width="12" height="12" fill="white" transform="translate(0 18)"/>
</clipPath>
<clipPath id="clip2_3072_493">
<rect width="16" height="16" fill="white" transform="translate(24 16)"/>
</clipPath>
<clipPath id="clip3_3072_493">
<rect width="20" height="20" fill="white" transform="translate(52 14)"/>
</clipPath>
<clipPath id="clip4_3072_493">
<rect width="24" height="24" fill="white" transform="translate(84 12)"/>
</clipPath>
<clipPath id="clip5_3072_493">
<rect width="10" height="12" fill="white" transform="translate(0 78)"/>
</clipPath>
<clipPath id="clip6_3072_493">
<rect width="16" height="16" fill="white" transform="translate(22 76)"/>
</clipPath>
<clipPath id="clip7_3072_493">
<rect width="20" height="20" fill="white" transform="translate(50 74)"/>
</clipPath>
<clipPath id="clip8_3072_493">
<rect width="24" height="24" fill="white" transform="translate(82 72)"/>
</clipPath>
<clipPath id="clip9_3072_493">
<rect width="32" height="32" fill="white" transform="translate(118 68)"/>
</clipPath>
<clipPath id="clip10_3072_493">
<rect width="40" height="40" fill="white" transform="translate(162 64)"/>
</clipPath>
<clipPath id="clip11_3072_493">
<rect width="48" height="48" fill="white" transform="translate(214 60)"/>
</clipPath>
</defs>
</svg>
