<svg width="264" height="108" viewBox="0 0 264 108" fill="none" xmlns="http://www.w3.org/2000/svg">
<g id="XLS">
<g clip-path="url(#clip0_6080_959)">
<g id="Size=12px, Filled=false" clip-path="url(#clip1_6080_959)">
<g id="XLS_2">
<path d="M3.89102 26.64L3.17702 25.53H3.75602L3.94202 25.821C4.02302 25.947 4.10102 26.082 4.20002 26.265L4.64402 25.53H5.21102L4.50902 26.64L5.21102 27.75H4.63502L4.48802 27.519C4.37702 27.342 4.30502 27.21 4.19702 27.012L3.72002 27.75H3.15002L3.89102 26.64Z" fill="#111111"/>
<path d="M6.04099 25.53V27.3H6.91699V27.75H5.55499V25.53H6.04099Z" fill="#111111"/>
<path d="M7.08281 26.175C7.08281 25.773 7.42181 25.488 7.89881 25.488C8.37581 25.488 8.67581 25.752 8.67581 26.172H8.19281C8.19281 26.016 8.07581 25.92 7.89281 25.92C7.69481 25.92 7.56881 26.01 7.56881 26.157C7.56881 26.292 7.63781 26.358 7.79381 26.391L8.12681 26.46C8.52281 26.541 8.71181 26.73 8.71181 27.081C8.71181 27.51 8.37581 27.789 7.86581 27.789C7.37081 27.789 7.04981 27.522 7.04981 27.105H7.53281C7.53281 27.267 7.65281 27.357 7.86881 27.357C8.08781 27.357 8.22581 27.27 8.22581 27.129C8.22581 27.006 8.16881 26.943 8.02181 26.913L7.68281 26.844C7.28681 26.763 7.08281 26.538 7.08281 26.175Z" fill="#111111"/>
</g>
<path id="Vector" d="M6.37 18.75V22.4886C6.37 22.9091 6.7109 23.25 7.13142 23.25H10.87M6.7009 18.75H1.77C1.41101 18.75 1.12 19.0492 1.12 19.4182V28.5818C1.12 28.9508 1.41101 29.25 1.77 29.25H10.22C10.579 29.25 10.87 28.9508 10.87 28.5818V23.0357C10.8699 22.8586 10.8015 22.6888 10.6798 22.5636L7.16021 18.9455C7.03836 18.8204 6.87315 18.7501 6.7009 18.75Z" stroke="#111111" stroke-width="0.75" stroke-linecap="round" stroke-linejoin="round"/>
</g>
<g id="Size=16px, Filled=false">
<g id="XLS_3">
<path d="M29.238 27.52L28.286 26.04H29.058L29.306 26.428C29.414 26.596 29.518 26.776 29.65 27.02L30.242 26.04H30.998L30.062 27.52L30.998 29H30.23L30.034 28.692C29.886 28.456 29.79 28.28 29.646 28.016L29.01 29H28.25L29.238 27.52Z" fill="#111111"/>
<path d="M32.1046 26.04V28.4H33.2726V29H31.4566V26.04H32.1046Z" fill="#111111"/>
<path d="M33.4937 26.9C33.4937 26.364 33.9457 25.984 34.5817 25.984C35.2177 25.984 35.6177 26.336 35.6177 26.896H34.9737C34.9737 26.688 34.8177 26.56 34.5737 26.56C34.3097 26.56 34.1417 26.68 34.1417 26.876C34.1417 27.056 34.2337 27.144 34.4417 27.188L34.8857 27.28C35.4137 27.388 35.6657 27.64 35.6657 28.108C35.6657 28.68 35.2177 29.052 34.5377 29.052C33.8777 29.052 33.4497 28.696 33.4497 28.14H34.0937C34.0937 28.356 34.2537 28.476 34.5417 28.476C34.8337 28.476 35.0177 28.36 35.0177 28.172C35.0177 28.008 34.9417 27.924 34.7457 27.884L34.2937 27.792C33.7657 27.684 33.4937 27.384 33.4937 26.9Z" fill="#111111"/>
</g>
<path id="Vector_2" d="M32.5 17V21.9848C32.5 22.5455 32.9545 23 33.5152 23H38.5M32.9412 17H26.3667C25.888 17 25.5 17.3989 25.5 17.8909V30.1091C25.5 30.6011 25.888 31 26.3667 31H37.6333C38.112 31 38.5 30.6011 38.5 30.1091V22.7143C38.4999 22.4782 38.4087 22.2517 38.2464 22.0847L33.5536 17.2607C33.3912 17.0939 33.1709 17.0001 32.9412 17Z" stroke="#111111" stroke-linecap="round" stroke-linejoin="round"/>
</g>
<g id="Size=20px, Filled=false">
<g id="XLS_4">
<path d="M58.535 28.4L57.345 26.55H58.31L58.62 27.035C58.755 27.245 58.885 27.47 59.05 27.775L59.79 26.55H60.735L59.565 28.4L60.735 30.25H59.775L59.53 29.865C59.345 29.57 59.225 29.35 59.045 29.02L58.25 30.25H57.3L58.535 28.4Z" fill="#111111"/>
<path d="M62.1183 26.55V29.5H63.5783V30.25H61.3083V26.55H62.1183Z" fill="#111111"/>
<path d="M63.8547 27.625C63.8547 26.955 64.4197 26.48 65.2147 26.48C66.0097 26.48 66.5097 26.92 66.5097 27.62H65.7047C65.7047 27.36 65.5097 27.2 65.2047 27.2C64.8747 27.2 64.6647 27.35 64.6647 27.595C64.6647 27.82 64.7797 27.93 65.0397 27.985L65.5947 28.1C66.2547 28.235 66.5697 28.55 66.5697 29.135C66.5697 29.85 66.0097 30.315 65.1597 30.315C64.3347 30.315 63.7997 29.87 63.7997 29.175H64.6047C64.6047 29.445 64.8047 29.595 65.1647 29.595C65.5297 29.595 65.7597 29.45 65.7597 29.215C65.7597 29.01 65.6647 28.905 65.4197 28.855L64.8547 28.74C64.1947 28.605 63.8547 28.23 63.8547 27.625Z" fill="#111111"/>
</g>
<path id="Vector_3" d="M62.63 15.25V21.481C62.63 22.1818 63.1982 22.75 63.899 22.75H70.13M63.1815 15.25H54.9633C54.365 15.25 53.88 15.7486 53.88 16.3636V31.6364C53.88 32.2514 54.365 32.75 54.9633 32.75H69.0467C69.645 32.75 70.13 32.2514 70.13 31.6364V22.3929C70.1299 22.0977 70.0159 21.8147 69.813 21.6059L63.947 15.5759C63.744 15.3673 63.4686 15.2501 63.1815 15.25Z" stroke="#111111" stroke-width="1.25" stroke-linecap="round" stroke-linejoin="round"/>
</g>
<g id="Size=24px, Filled=false">
<g id="XLS_5">
<path d="M92.0031 29.78L90.5751 27.56H91.7331L92.1051 28.142C92.2671 28.394 92.4231 28.664 92.6211 29.03L93.5091 27.56H94.6431L93.2391 29.78L94.6431 32H93.4911L93.1971 31.538C92.9751 31.184 92.8311 30.92 92.6151 30.524L91.6611 32H90.5211L92.0031 29.78Z" fill="#111111"/>
<path d="M96.1831 27.56V31.1H97.9351V32H95.2111V27.56H96.1831Z" fill="#111111"/>
<path d="M98.1467 28.85C98.1467 28.046 98.8247 27.476 99.7787 27.476C100.733 27.476 101.333 28.004 101.333 28.844H100.367C100.367 28.532 100.133 28.34 99.7667 28.34C99.3707 28.34 99.1187 28.52 99.1187 28.814C99.1187 29.084 99.2567 29.216 99.5687 29.282L100.235 29.42C101.027 29.582 101.405 29.96 101.405 30.662C101.405 31.52 100.733 32.078 99.7127 32.078C98.7227 32.078 98.0807 31.544 98.0807 30.71H99.0467C99.0467 31.034 99.2867 31.214 99.7187 31.214C100.157 31.214 100.433 31.04 100.433 30.758C100.433 30.512 100.319 30.386 100.025 30.326L99.3467 30.188C98.5547 30.026 98.1467 29.576 98.1467 28.85Z" fill="#111111"/>
</g>
<path id="Vector_4" d="M97 13V20.4772C97 21.3182 97.6818 22 98.5228 22H106M97.448 13H87.3333C86.597 13 86 13.6268 86 14.4V33.6C86 34.3732 86.597 35 87.3333 35H104.667C105.403 35 106 34.3732 106 33.6V21.9796C106 21.6086 105.86 21.2527 105.61 20.9903L98.3902 13.4097C98.1402 13.1475 97.8013 13.0001 97.448 13Z" stroke="#111111" stroke-width="1.5" stroke-linecap="round" stroke-linejoin="round"/>
</g>
<g id="Size=32px, Filled=false">
<g id="XLS_6">
<path d="M130.456 31.04L128.552 28.08H130.096L130.592 28.856C130.808 29.192 131.016 29.552 131.28 30.04L132.464 28.08H133.976L132.104 31.04L133.976 34H132.44L132.048 33.384C131.752 32.912 131.56 32.56 131.272 32.032L130 34H128.48L130.456 31.04Z" fill="#111111"/>
<path d="M136.189 28.08V32.8H138.525V34H134.893V28.08H136.189Z" fill="#111111"/>
<path d="M138.967 29.8C138.967 28.728 139.871 27.968 141.143 27.968C142.415 27.968 143.215 28.672 143.215 29.792H141.927C141.927 29.376 141.615 29.12 141.127 29.12C140.599 29.12 140.263 29.36 140.263 29.752C140.263 30.112 140.447 30.288 140.863 30.376L141.751 30.56C142.807 30.776 143.311 31.28 143.311 32.216C143.311 33.36 142.415 34.104 141.055 34.104C139.735 34.104 138.879 33.392 138.879 32.28H140.167C140.167 32.712 140.487 32.952 141.063 32.952C141.647 32.952 142.015 32.72 142.015 32.344C142.015 32.016 141.863 31.848 141.471 31.768L140.567 31.584C139.511 31.368 138.967 30.768 138.967 29.8Z" fill="#111111"/>
</g>
<path id="Vector_5" d="M137 10V19.9695C137 21.0909 137.909 22 139.03 22H149M137.882 10H124.733C123.776 10 123 10.7978 123 11.7818V36.2182C123 37.2022 123.776 38 124.733 38H147.267C148.224 38 149 37.2022 149 36.2182V21.4286C149 20.9564 148.817 20.5035 148.493 20.1695L139.107 10.5214C138.782 10.1877 138.342 10.0002 137.882 10Z" stroke="#111111" stroke-width="2" stroke-linecap="round" stroke-linejoin="round"/>
</g>
<g id="Size=40px, Filled=false">
<g id="XLS_7">
<path d="M177.07 32.8L174.69 29.1H176.62L177.24 30.07C177.51 30.49 177.77 30.94 178.1 31.55L179.58 29.1H181.47L179.13 32.8L181.47 36.5H179.55L179.06 35.73C178.69 35.14 178.45 34.7 178.09 34.04L176.5 36.5H174.6L177.07 32.8Z" fill="#111111"/>
<path d="M184.237 29.1V35H187.157V36.5H182.617V29.1H184.237Z" fill="#111111"/>
<path d="M187.709 31.25C187.709 29.91 188.839 28.96 190.429 28.96C192.019 28.96 193.019 29.84 193.019 31.24H191.409C191.409 30.72 191.019 30.4 190.409 30.4C189.749 30.4 189.329 30.7 189.329 31.19C189.329 31.64 189.559 31.86 190.079 31.97L191.189 32.2C192.509 32.47 193.139 33.1 193.139 34.27C193.139 35.7 192.019 36.63 190.319 36.63C188.669 36.63 187.599 35.74 187.599 34.35H189.209C189.209 34.89 189.609 35.19 190.329 35.19C191.059 35.19 191.519 34.9 191.519 34.43C191.519 34.02 191.329 33.81 190.839 33.71L189.709 33.48C188.389 33.21 187.709 32.46 187.709 31.25Z" fill="#111111"/>
</g>
<path id="Vector_6" d="M185.25 6.5V18.9619C185.25 20.3636 186.386 21.5 187.788 21.5H200.25M186.353 6.5H169.917C168.72 6.5 167.75 7.49721 167.75 8.72728V39.2727C167.75 40.5028 168.72 41.5 169.917 41.5H198.083C199.28 41.5 200.25 40.5028 200.25 39.2727V20.7857C200.25 20.1955 200.022 19.6294 199.616 19.2119L187.884 7.15178C187.478 6.73467 186.927 6.5002 186.353 6.5Z" stroke="#111111" stroke-width="2.5" stroke-linecap="round" stroke-linejoin="round"/>
</g>
<g id="Size=48px, Filled=false">
<g id="XLS_8">
<path d="M231.764 34.56L228.908 30.12H231.224L231.968 31.284C232.292 31.788 232.604 32.328 233 33.06L234.776 30.12H237.044L234.236 34.56L237.044 39H234.74L234.152 38.076C233.708 37.368 233.42 36.84 232.988 36.048L231.08 39H228.8L231.764 34.56Z" fill="#111111"/>
<path d="M240.364 30.12V37.2H243.868V39H238.42V30.12H240.364Z" fill="#111111"/>
<path d="M244.531 32.7C244.531 31.092 245.887 29.952 247.795 29.952C249.703 29.952 250.903 31.008 250.903 32.688H248.971C248.971 32.064 248.503 31.68 247.771 31.68C246.979 31.68 246.475 32.04 246.475 32.628C246.475 33.168 246.751 33.432 247.375 33.564L248.707 33.84C250.291 34.164 251.047 34.92 251.047 36.324C251.047 38.04 249.703 39.156 247.663 39.156C245.683 39.156 244.399 38.088 244.399 36.42H246.331C246.331 37.068 246.811 37.428 247.675 37.428C248.551 37.428 249.103 37.08 249.103 36.516C249.103 36.024 248.875 35.772 248.287 35.652L246.931 35.376C245.347 35.052 244.531 34.152 244.531 32.7Z" fill="#111111"/>
</g>
<path id="Vector_7" d="M241.5 3V17.9543C241.5 19.6364 242.864 21 244.546 21H259.5M242.824 3H223.1C221.664 3 220.5 4.19666 220.5 5.67273V42.3273C220.5 43.8034 221.664 45 223.1 45H256.9C258.336 45 259.5 43.8034 259.5 42.3273V20.1429C259.5 19.4346 259.226 18.7552 258.739 18.2542L244.661 3.78214C244.173 3.28161 243.513 3.00024 242.824 3Z" stroke="#111111" stroke-width="3" stroke-linecap="round" stroke-linejoin="round"/>
</g>
<g id="Size=12px, Filled=true">
<path id="Vector_8" fill-rule="evenodd" clip-rule="evenodd" d="M6.34621 79H2.1C1.76863 79 1.5 79.2849 1.5 79.6364L1.5 88.3636C1.5 88.7151 1.76863 89 2.1 89H9.9C10.2314 89 10.5 88.7151 10.5 88.3636L10.5 83.2857H7.51235C6.86832 83.2857 6.34621 82.747 6.34621 82.0825V79ZM10.2673 82.5714L7.07558 79.1862C7.06366 79.1736 7.05129 79.1616 7.03851 79.1501V82.0825C7.03851 82.3525 7.25067 82.5714 7.51235 82.5714H10.2673ZM7.94037 85.4C7.48431 85.4 7.16019 85.6725 7.16019 86.0568C7.16019 86.4039 7.35523 86.619 7.73385 86.6965L8.05797 86.7624C8.19852 86.7911 8.25302 86.8514 8.25302 86.969C8.25302 87.1038 8.12107 87.187 7.91169 87.187C7.70517 87.187 7.59044 87.1009 7.59044 86.946H7.12864C7.12864 87.3447 7.43555 87.6 7.90882 87.6C8.39643 87.6 8.71768 87.3332 8.71768 86.9231C8.71768 86.5875 8.53698 86.4068 8.15836 86.3293L7.83998 86.2634C7.69083 86.2318 7.62486 86.1687 7.62486 86.0396C7.62486 85.8991 7.74532 85.813 7.93463 85.813C8.1096 85.813 8.22147 85.9048 8.22147 86.054H8.68326C8.68326 85.6524 8.39643 85.4 7.94037 85.4ZM4.1085 86.5014L3.42584 85.4402H3.97942L4.15726 85.7184C4.2347 85.8388 4.30928 85.9679 4.40394 86.1429L4.82845 85.4402H5.37056L4.69937 86.5014L5.37056 87.5627H4.81984L4.67929 87.3418C4.57317 87.1726 4.50433 87.0464 4.40107 86.8571L3.945 87.5627H3.40002L4.1085 86.5014ZM6.1641 85.4402V87.1325H7.00165V87.5627H5.69943V85.4402H6.1641Z" fill="#111111"/>
</g>
<g id="Size=16px, Filled=true">
<path id="Vector_9" fill-rule="evenodd" clip-rule="evenodd" d="M32.4616 77.3333H26.8C26.3582 77.3333 26 77.7132 26 78.1818V89.8182C26 90.2868 26.3582 90.6667 26.8 90.6667L37.2 90.6667C37.6418 90.6667 38 90.2868 38 89.8182V83.0476H34.0165C33.1578 83.0476 32.4616 82.3294 32.4616 81.4434V77.3333ZM37.6898 82.0952L33.4341 77.5816C33.4182 77.5648 33.4017 77.5487 33.3847 77.5335V81.4434C33.3847 81.8034 33.6676 82.0952 34.0165 82.0952H37.6898ZM34.5872 85.8667C33.9791 85.8667 33.5469 86.23 33.5469 86.7425C33.5469 87.2052 33.807 87.492 34.3118 87.5953L34.744 87.6833C34.9314 87.7215 35.004 87.8018 35.004 87.9586C35.004 88.1384 34.8281 88.2493 34.5489 88.2493C34.2736 88.2493 34.1206 88.1346 34.1206 87.928H33.5048C33.5048 88.4596 33.9141 88.8 34.5451 88.8C35.1952 88.8 35.6236 88.4443 35.6236 87.8974C35.6236 87.45 35.3826 87.209 34.8778 87.1058L34.4533 87.0178C34.2544 86.9758 34.1665 86.8916 34.1665 86.7195C34.1665 86.5321 34.3271 86.4174 34.5795 86.4174C34.8128 86.4174 34.962 86.5398 34.962 86.7386H35.5777C35.5777 86.2032 35.1952 85.8667 34.5872 85.8667ZM29.478 87.3352L28.5678 85.9202H29.3059L29.543 86.2912C29.6463 86.4518 29.7457 86.6239 29.8719 86.8572L30.4379 85.9202H31.1607L30.2658 87.3352L31.1607 88.7503H30.4265L30.2391 88.4558C30.0976 88.2302 30.0058 88.0619 29.8681 87.8095L29.26 88.7503H28.5334L29.478 87.3352ZM32.2188 85.9202V88.1766H33.3355V88.7503H31.5992V85.9202H32.2188Z" fill="#111111"/>
</g>
<g id="Size=20px, Filled=true">
<path id="Vector_10" fill-rule="evenodd" clip-rule="evenodd" d="M62.577 75.6667H55.5C54.9477 75.6667 54.5 76.1415 54.5 76.7273V91.2727C54.5 91.8585 54.9477 92.3333 55.5 92.3333H68.5C69.0523 92.3333 69.5 91.8585 69.5 91.2727V82.8095H64.5206C63.4472 82.8095 62.577 81.9117 62.577 80.8042V75.6667ZM69.1122 81.619L63.7926 75.977C63.7728 75.956 63.7522 75.9359 63.7309 75.9168V80.8042C63.7309 81.2542 64.0844 81.619 64.5206 81.619H69.1122ZM65.2339 86.3333C64.4738 86.3333 63.9336 86.7875 63.9336 87.4281C63.9336 88.0065 64.2587 88.365 64.8898 88.4941L65.43 88.6041C65.6642 88.6519 65.755 88.7523 65.755 88.9483C65.755 89.1729 65.5351 89.3116 65.1861 89.3116C64.8419 89.3116 64.6507 89.1682 64.6507 88.91H63.8811C63.8811 89.5745 64.3926 90 65.1814 90C65.9941 90 66.5295 89.5554 66.5295 88.8718C66.5295 88.3125 66.2283 88.0113 65.5973 87.8822L65.0666 87.7723C64.818 87.7197 64.7081 87.6145 64.7081 87.3994C64.7081 87.1651 64.9089 87.0217 65.2244 87.0217C65.516 87.0217 65.7024 87.1747 65.7024 87.4233H66.4721C66.4721 86.754 65.9941 86.3333 65.2339 86.3333ZM58.8475 88.169L57.7097 86.4002H58.6324L58.9288 86.864C59.0578 87.0647 59.1821 87.2799 59.3399 87.5715L60.0474 86.4002H60.9509L59.8323 88.169L60.9509 89.9378H60.0331L59.7988 89.5697C59.6219 89.2877 59.5072 89.0773 59.3351 88.7618L59.3351 88.7618L58.575 89.9378H57.6667L58.8475 88.169ZM62.2735 86.4002V89.2208H63.6694V89.9378H61.499V86.4002H62.2735Z" fill="#111111"/>
</g>
<g id="Size=24px, Filled=true">
<path id="Vector_11" fill-rule="evenodd" clip-rule="evenodd" d="M96.6924 74H88.2C87.5373 74 87 74.5698 87 75.2727V92.7273C87 93.4302 87.5373 94 88.2 94H103.8C104.463 94 105 93.4302 105 92.7273V82.5714H99.0247C97.7366 82.5714 96.6924 81.494 96.6924 80.1651V74ZM104.535 81.1428L98.1512 74.3724C98.1273 74.3472 98.1026 74.3231 98.077 74.3002V80.1651C98.077 80.7051 98.5013 81.1428 99.0247 81.1428H104.535ZM99.8807 86.8C98.9686 86.8 98.3204 87.345 98.3204 88.1137C98.3204 88.8078 98.7105 89.2381 99.4677 89.3929L100.116 89.5249C100.397 89.5823 100.506 89.7027 100.506 89.9379C100.506 90.2076 100.242 90.3739 99.8234 90.3739C99.4103 90.3739 99.1809 90.2018 99.1809 89.892H98.2573C98.2573 90.6894 98.8711 91.2 99.8176 91.2C100.793 91.2 101.435 90.6665 101.435 89.8461C101.435 89.175 101.074 88.8135 100.317 88.6587L99.68 88.5267C99.3817 88.4636 99.2497 88.3374 99.2497 88.0793C99.2497 87.7982 99.4906 87.6261 99.8693 87.6261C100.219 87.6261 100.443 87.8096 100.443 88.1079H101.367C101.367 87.3048 100.793 86.8 99.8807 86.8ZM92.217 89.0029L90.8517 86.8803H91.9588L92.3145 87.4368C92.4694 87.6777 92.6186 87.9358 92.8079 88.2858L93.6569 86.8803H94.7411L93.3987 89.0029L94.7411 91.1254H93.6397L93.3586 90.6837C93.1463 90.3452 93.0087 90.0928 92.8021 89.7142L91.89 91.1254H90.8L92.217 89.0029ZM96.3282 86.8803V90.2649H98.0033V91.1254H95.3989V86.8803H96.3282Z" fill="#111111"/>
</g>
<g id="Size=32px, Filled=true">
<path id="Vector_12" fill-rule="evenodd" clip-rule="evenodd" d="M136.923 70.6667H125.6C124.716 70.6667 124 71.4264 124 72.3636V95.6364C124 96.5736 124.716 97.3333 125.6 97.3333L146.4 97.3333C147.284 97.3333 148 96.5736 148 95.6364V82.0952H140.033C138.316 82.0952 136.923 80.6587 136.923 78.8868V70.6667ZM147.38 80.1904L138.868 71.1633C138.836 71.1296 138.803 71.0975 138.769 71.067V78.8868C138.769 79.6067 139.335 80.1904 140.033 80.1904H147.38ZM141.174 87.7333C139.958 87.7333 139.094 88.4599 139.094 89.4849C139.094 90.4104 139.614 90.9841 140.624 91.1906L141.488 91.3665C141.863 91.443 142.008 91.6036 142.008 91.9172C142.008 92.2767 141.656 92.4985 141.098 92.4985C140.547 92.4985 140.241 92.2691 140.241 91.856H139.01C139.01 92.9192 139.828 93.6 141.09 93.6C142.39 93.6 143.247 92.8886 143.247 91.7948C143.247 90.8999 142.765 90.4181 141.756 90.2115L140.907 90.0356C140.509 89.9515 140.333 89.7832 140.333 89.439C140.333 89.0642 140.654 88.8347 141.159 88.8347C141.626 88.8347 141.924 89.0795 141.924 89.4772H143.155C143.155 88.4064 142.39 87.7333 141.174 87.7333ZM130.956 90.6705L129.136 87.8404H130.612L131.086 88.5823C131.293 88.9036 131.491 89.2478 131.744 89.7144L132.876 87.8404H134.321L132.532 90.6705L134.321 93.5005H132.853L132.478 92.9116C132.195 92.4603 132.012 92.1237 131.736 91.6189L130.52 93.5005H129.067L130.956 90.6705ZM136.438 87.8404V92.3532H138.671V93.5005H135.198V87.8404H136.438Z" fill="#111111"/>
</g>
<g id="Size=40px, Filled=true">
<path id="Vector_13" fill-rule="evenodd" clip-rule="evenodd" d="M185.154 67.3333H171C169.895 67.3333 169 68.2831 169 69.4546V98.5455C169 99.717 169.895 100.667 171 100.667H197C198.105 100.667 199 99.717 199 98.5455V81.619H189.041C186.894 81.619 185.154 79.8234 185.154 77.6085V67.3333ZM198.224 79.2381L187.585 67.9541C187.546 67.912 187.504 67.8718 187.462 67.8337V77.6085C187.462 78.5084 188.169 79.2381 189.041 79.2381H198.224ZM190.468 88.6667C188.948 88.6667 187.867 89.575 187.867 90.8561C187.867 92.013 188.517 92.7301 189.78 92.9883L190.86 93.2082C191.328 93.3038 191.51 93.5046 191.51 93.8966C191.51 94.3459 191.07 94.6232 190.372 94.6232C189.684 94.6232 189.301 94.3364 189.301 93.8201H187.762C187.762 95.1491 188.785 96 190.363 96C191.988 96 193.059 95.1108 193.059 93.7436C193.059 92.6249 192.457 92.0226 191.195 91.7644L190.133 91.5445C189.636 91.4394 189.416 91.229 189.416 90.7988C189.416 90.3303 189.818 90.0434 190.449 90.0434C191.032 90.0434 191.405 90.3494 191.405 90.8466H192.944C192.944 89.508 191.988 88.6667 190.468 88.6667ZM177.695 92.3381L175.419 88.8005H177.265L177.858 89.7279C178.116 90.1295 178.364 90.5597 178.68 91.143L180.095 88.8005H181.902L179.665 92.3381L181.902 95.8757H180.066L179.598 95.1395C179.244 94.5754 179.014 94.1547 178.67 93.5237L178.67 93.5237L177.15 95.8757H175.333L177.695 92.3381ZM184.547 88.8005V94.4415H187.339V95.8757H182.998V88.8005H184.547Z" fill="#111111"/>
</g>
<g id="Size=48px, Filled=true">
<path id="Vector_14" fill-rule="evenodd" clip-rule="evenodd" d="M241.385 64H224.4C223.075 64 222 65.1397 222 66.5455V101.455C222 102.86 223.075 104 224.4 104H255.6C256.925 104 258 102.86 258 101.455V81.1428H246.049C243.473 81.1428 241.385 78.9881 241.385 76.3302V64ZM257.069 78.2857L244.302 64.7449C244.255 64.6944 244.205 64.6462 244.154 64.6004V76.3302C244.154 77.4101 245.003 78.2857 246.049 78.2857H257.069ZM247.761 89.6C245.937 89.6 244.641 90.6899 244.641 92.2274C244.641 93.6156 245.421 94.4761 246.935 94.7859L248.232 95.0498C248.794 95.1645 249.012 95.4055 249.012 95.8759C249.012 96.4151 248.484 96.7478 247.647 96.7478C246.821 96.7478 246.362 96.4036 246.362 95.7841H244.515C244.515 97.3789 245.742 98.4 247.635 98.4C249.586 98.4 250.871 97.333 250.871 95.6923C250.871 94.3499 250.148 93.6271 248.633 93.3173L247.36 93.0534C246.763 92.9272 246.499 92.6748 246.499 92.1585C246.499 91.5963 246.981 91.2521 247.739 91.2521C248.438 91.2521 248.886 91.6193 248.886 92.2159H250.733C250.733 90.6096 249.586 89.6 247.761 89.6ZM232.434 94.0057L229.703 89.7606H231.918L232.629 90.8735C232.939 91.3554 233.237 91.8717 233.616 92.5716L235.314 89.7606H237.482L234.797 94.0057L237.482 98.2508H235.279L234.717 97.3674C234.293 96.6905 234.017 96.1856 233.604 95.4284L231.78 98.2508H229.6L232.434 94.0057ZM240.656 89.7606V96.5298H244.007V98.2508H238.798V89.7606H240.656Z" fill="#111111"/>
</g>
</g>
</g>
<defs>
<clipPath id="clip0_6080_959">
<rect width="264" height="108" rx="5" fill="white"/>
</clipPath>
<clipPath id="clip1_6080_959">
<rect width="12" height="12" fill="white" transform="translate(0 18)"/>
</clipPath>
</defs>
</svg>
