<svg width="264" height="108" viewBox="0 0 264 108" fill="none" xmlns="http://www.w3.org/2000/svg">
<g clip-path="url(#clip0_4197_540)">
<g clip-path="url(#clip1_4197_540)">
<path fill-rule="evenodd" clip-rule="evenodd" d="M9.18421 18.5H2.81579C1.53681 18.5 0.5 19.5368 0.5 20.8158V24.2895C0.5 25.5684 1.53681 26.6053 2.81579 26.6053H5.71053V29.5L8.60526 26.6053H9.18421C10.4632 26.6053 11.5 25.5684 11.5 24.2895V20.8158C11.5 19.5368 10.4632 18.5 9.18421 18.5Z" stroke="#111111" stroke-width="0.75" stroke-linecap="round" stroke-linejoin="round"/>
<path fill-rule="evenodd" clip-rule="evenodd" d="M3.9375 22.4286C3.77477 22.4286 3.64286 22.5605 3.64286 22.7232C3.64286 22.8859 3.77477 23.0179 3.9375 23.0179C4.10023 23.0179 4.23214 22.8859 4.23214 22.7232C4.23214 22.5605 4.10023 22.4286 3.9375 22.4286Z" stroke="#111111" stroke-width="0.75" stroke-linecap="round" stroke-linejoin="round"/>
<path fill-rule="evenodd" clip-rule="evenodd" d="M6.29464 22.4286C6.13192 22.4286 6 22.5605 6 22.7232C6 22.8859 6.13192 23.0179 6.29464 23.0179C6.45737 23.0179 6.58929 22.8859 6.58929 22.7232C6.58929 22.5605 6.45737 22.4286 6.29464 22.4286Z" stroke="#111111" stroke-width="0.75" stroke-linecap="round" stroke-linejoin="round"/>
<path fill-rule="evenodd" clip-rule="evenodd" d="M8.65179 22.4286C8.48906 22.4286 8.35714 22.5605 8.35714 22.7232C8.35714 22.8859 8.48906 23.0179 8.65179 23.0179C8.81451 23.0179 8.94643 22.8859 8.94643 22.7232C8.94643 22.5605 8.81451 22.4286 8.65179 22.4286Z" stroke="#111111" stroke-width="0.75" stroke-linecap="round" stroke-linejoin="round"/>
</g>
<g clip-path="url(#clip2_4197_540)">
<path fill-rule="evenodd" clip-rule="evenodd" d="M36.0526 17H27.9474C26.3196 17 25 18.3196 25 19.9474V24.3684C25 25.9962 26.3196 27.3158 27.9474 27.3158H31.6316V31L35.3158 27.3158H36.0526C37.6804 27.3158 39 25.9962 39 24.3684V19.9474C39 18.3196 37.6804 17 36.0526 17Z" stroke="#111111" stroke-linecap="round" stroke-linejoin="round"/>
<path fill-rule="evenodd" clip-rule="evenodd" d="M29.375 22C29.1679 22 29 22.1679 29 22.375C29 22.5821 29.1679 22.75 29.375 22.75C29.5821 22.75 29.75 22.5821 29.75 22.375C29.75 22.1679 29.5821 22 29.375 22Z" stroke="#111111" stroke-linecap="round" stroke-linejoin="round"/>
<path fill-rule="evenodd" clip-rule="evenodd" d="M32.375 22C32.1679 22 32 22.1679 32 22.375C32 22.5821 32.1679 22.75 32.375 22.75C32.5821 22.75 32.75 22.5821 32.75 22.375C32.75 22.1679 32.5821 22 32.375 22Z" stroke="#111111" stroke-linecap="round" stroke-linejoin="round"/>
<path fill-rule="evenodd" clip-rule="evenodd" d="M35.375 22C35.1679 22 35 22.1679 35 22.375C35 22.5821 35.1679 22.75 35.375 22.75C35.5821 22.75 35.75 22.5821 35.75 22.375C35.75 22.1679 35.5821 22 35.375 22Z" stroke="#111111" stroke-linecap="round" stroke-linejoin="round"/>
</g>
<g clip-path="url(#clip3_4197_540)">
<path fill-rule="evenodd" clip-rule="evenodd" d="M67.2105 15H56.7895C54.6966 15 53 16.6966 53 18.7895V24.4737C53 26.5666 54.6966 28.2632 56.7895 28.2632H61.5263V33L66.2632 28.2632H67.2105C69.3034 28.2632 71 26.5666 71 24.4737V18.7895C71 16.6966 69.3034 15 67.2105 15Z" stroke="#111111" stroke-width="1.25" stroke-linecap="round" stroke-linejoin="round"/>
<path fill-rule="evenodd" clip-rule="evenodd" d="M58.625 21.4286C58.3587 21.4286 58.1429 21.6444 58.1429 21.9107C58.1429 22.177 58.3587 22.3929 58.625 22.3929C58.8913 22.3929 59.1071 22.177 59.1071 21.9107C59.1071 21.6444 58.8913 21.4286 58.625 21.4286Z" stroke="#111111" stroke-width="1.25" stroke-linecap="round" stroke-linejoin="round"/>
<path fill-rule="evenodd" clip-rule="evenodd" d="M62.4821 21.4286C62.2159 21.4286 62 21.6444 62 21.9107C62 22.177 62.2159 22.3929 62.4821 22.3929C62.7484 22.3929 62.9643 22.177 62.9643 21.9107C62.9643 21.6444 62.7484 21.4286 62.4821 21.4286Z" stroke="#111111" stroke-width="1.25" stroke-linecap="round" stroke-linejoin="round"/>
<path fill-rule="evenodd" clip-rule="evenodd" d="M66.3393 21.4286C66.073 21.4286 65.8571 21.6444 65.8571 21.9107C65.8571 22.177 66.073 22.3929 66.3393 22.3929C66.6056 22.3929 66.8214 22.177 66.8214 21.9107C66.8214 21.6444 66.6056 21.4286 66.3393 21.4286Z" stroke="#111111" stroke-width="1.25" stroke-linecap="round" stroke-linejoin="round"/>
</g>
<g clip-path="url(#clip4_4197_540)">
<path fill-rule="evenodd" clip-rule="evenodd" d="M102.079 13.5H89.9211C87.4794 13.5 85.5 15.4794 85.5 17.9211V24.5526C85.5 26.9943 87.4794 28.9737 89.9211 28.9737H95.4474V34.5L100.974 28.9737H102.079C104.521 28.9737 106.5 26.9943 106.5 24.5526V17.9211C106.5 15.4794 104.521 13.5 102.079 13.5Z" stroke="#111111" stroke-width="1.5" stroke-linecap="round" stroke-linejoin="round"/>
<path fill-rule="evenodd" clip-rule="evenodd" d="M92.0625 21C91.7518 21 91.5 21.2518 91.5 21.5625C91.5 21.8732 91.7518 22.125 92.0625 22.125C92.3732 22.125 92.625 21.8732 92.625 21.5625C92.625 21.2518 92.3732 21 92.0625 21Z" stroke="#111111" stroke-width="1.5" stroke-linecap="round" stroke-linejoin="round"/>
<path fill-rule="evenodd" clip-rule="evenodd" d="M96.5625 21C96.2518 21 96 21.2518 96 21.5625C96 21.8732 96.2518 22.125 96.5625 22.125C96.8732 22.125 97.125 21.8732 97.125 21.5625C97.125 21.2518 96.8732 21 96.5625 21Z" stroke="#111111" stroke-width="1.5" stroke-linecap="round" stroke-linejoin="round"/>
<path fill-rule="evenodd" clip-rule="evenodd" d="M101.062 21C100.752 21 100.5 21.2518 100.5 21.5625C100.5 21.8732 100.752 22.125 101.062 22.125C101.373 22.125 101.625 21.8732 101.625 21.5625C101.625 21.2518 101.373 21 101.062 21Z" stroke="#111111" stroke-width="1.5" stroke-linecap="round" stroke-linejoin="round"/>
</g>
<path fill-rule="evenodd" clip-rule="evenodd" d="M144.105 10H127.895C124.639 10 122 12.6392 122 15.8947V24.7368C122 27.9924 124.639 30.6316 127.895 30.6316H135.263V38L142.632 30.6316H144.105C147.361 30.6316 150 27.9924 150 24.7368V15.8947C150 12.6392 147.361 10 144.105 10Z" stroke="#111111" stroke-width="2" stroke-linecap="round" stroke-linejoin="round"/>
<path fill-rule="evenodd" clip-rule="evenodd" d="M130.75 20C130.336 20 130 20.3358 130 20.75C130 21.1642 130.336 21.5 130.75 21.5C131.164 21.5 131.5 21.1642 131.5 20.75C131.5 20.3358 131.164 20 130.75 20Z" stroke="#111111" stroke-width="2" stroke-linecap="round" stroke-linejoin="round"/>
<path fill-rule="evenodd" clip-rule="evenodd" d="M136.75 20C136.336 20 136 20.3358 136 20.75C136 21.1642 136.336 21.5 136.75 21.5C137.164 21.5 137.5 21.1642 137.5 20.75C137.5 20.3358 137.164 20 136.75 20Z" stroke="#111111" stroke-width="2" stroke-linecap="round" stroke-linejoin="round"/>
<path fill-rule="evenodd" clip-rule="evenodd" d="M142.75 20C142.336 20 142 20.3358 142 20.75C142 21.1642 142.336 21.5 142.75 21.5C143.164 21.5 143.5 21.1642 143.5 20.75C143.5 20.3358 143.164 20 142.75 20Z" stroke="#111111" stroke-width="2" stroke-linecap="round" stroke-linejoin="round"/>
<path fill-rule="evenodd" clip-rule="evenodd" d="M194.132 6.5H173.868C169.799 6.5 166.5 9.79895 166.5 13.8684V24.9211C166.5 28.9905 169.799 32.2895 173.868 32.2895H183.079V41.5L192.289 32.2895H194.132C198.201 32.2895 201.5 28.9905 201.5 24.9211V13.8684C201.5 9.79895 198.201 6.5 194.132 6.5Z" stroke="#111111" stroke-width="2.5" stroke-linecap="round" stroke-linejoin="round"/>
<path fill-rule="evenodd" clip-rule="evenodd" d="M177.438 19C176.92 19 176.5 19.4197 176.5 19.9375C176.5 20.4553 176.92 20.875 177.438 20.875C177.955 20.875 178.375 20.4553 178.375 19.9375C178.375 19.4197 177.955 19 177.438 19Z" stroke="#111111" stroke-width="2.5" stroke-linecap="round" stroke-linejoin="round"/>
<path fill-rule="evenodd" clip-rule="evenodd" d="M184.938 19C184.42 19 184 19.4197 184 19.9375C184 20.4553 184.42 20.875 184.938 20.875C185.455 20.875 185.875 20.4553 185.875 19.9375C185.875 19.4197 185.455 19 184.938 19Z" stroke="#111111" stroke-width="2.5" stroke-linecap="round" stroke-linejoin="round"/>
<path fill-rule="evenodd" clip-rule="evenodd" d="M192.438 19C191.92 19 191.5 19.4197 191.5 19.9375C191.5 20.4553 191.92 20.875 192.438 20.875C192.955 20.875 193.375 20.4553 193.375 19.9375C193.375 19.4197 192.955 19 192.438 19Z" stroke="#111111" stroke-width="2.5" stroke-linecap="round" stroke-linejoin="round"/>
<path fill-rule="evenodd" clip-rule="evenodd" d="M252.158 3H227.842C222.959 3 219 6.95875 219 11.8421V25.1053C219 29.9886 222.959 33.9474 227.842 33.9474H238.895V45L249.947 33.9474H252.158C257.041 33.9474 261 29.9886 261 25.1053V11.8421C261 6.95875 257.041 3 252.158 3Z" stroke="#111111" stroke-width="3" stroke-linecap="round" stroke-linejoin="round"/>
<path fill-rule="evenodd" clip-rule="evenodd" d="M232.125 18C231.504 18 231 18.5037 231 19.125C231 19.7463 231.504 20.25 232.125 20.25C232.746 20.25 233.25 19.7463 233.25 19.125C233.25 18.5037 232.746 18 232.125 18Z" stroke="#111111" stroke-width="3" stroke-linecap="round" stroke-linejoin="round"/>
<path fill-rule="evenodd" clip-rule="evenodd" d="M241.125 18C240.504 18 240 18.5037 240 19.125C240 19.7463 240.504 20.25 241.125 20.25C241.746 20.25 242.25 19.7463 242.25 19.125C242.25 18.5037 241.746 18 241.125 18Z" stroke="#111111" stroke-width="3" stroke-linecap="round" stroke-linejoin="round"/>
<path fill-rule="evenodd" clip-rule="evenodd" d="M250.125 18C249.504 18 249 18.5037 249 19.125C249 19.7463 249.504 20.25 250.125 20.25C250.746 20.25 251.25 19.7463 251.25 19.125C251.25 18.5037 250.746 18 250.125 18Z" stroke="#111111" stroke-width="3" stroke-linecap="round" stroke-linejoin="round"/>
<g clip-path="url(#clip5_4197_540)">
<path fill-rule="evenodd" clip-rule="evenodd" d="M9.18421 78.5H2.81579C1.53681 78.5 0.5 79.5368 0.5 80.8158V84.2895C0.5 85.5684 1.53681 86.6053 2.81579 86.6053H5.71053V89.5L8.60526 86.6053H9.18421C10.4632 86.6053 11.5 85.5684 11.5 84.2895V80.8158C11.5 79.5368 10.4632 78.5 9.18421 78.5Z" fill="#111111"/>
</g>
<path fill-rule="evenodd" clip-rule="evenodd" d="M36.0526 77H27.9474C26.3196 77 25 78.3196 25 79.9474V84.3684C25 85.9962 26.3196 87.3158 27.9474 87.3158H31.6316V91L35.3158 87.3158H36.0526C37.6804 87.3158 39 85.9962 39 84.3684V79.9474C39 78.3196 37.6804 77 36.0526 77Z" fill="#111111"/>
<path fill-rule="evenodd" clip-rule="evenodd" d="M67.2105 75H56.7895C54.6966 75 53 76.6966 53 78.7895V84.4737C53 86.5666 54.6966 88.2632 56.7895 88.2632H61.5263V93L66.2632 88.2632H67.2105C69.3034 88.2632 71 86.5666 71 84.4737V78.7895C71 76.6966 69.3034 75 67.2105 75Z" fill="#111111"/>
<path fill-rule="evenodd" clip-rule="evenodd" d="M102.079 73.5H89.9211C87.4794 73.5 85.5 75.4794 85.5 77.9211V84.5526C85.5 86.9943 87.4794 88.9737 89.9211 88.9737H95.4474V94.5L100.974 88.9737H102.079C104.521 88.9737 106.5 86.9943 106.5 84.5526V77.9211C106.5 75.4794 104.521 73.5 102.079 73.5Z" fill="#111111"/>
<path fill-rule="evenodd" clip-rule="evenodd" d="M144.105 70H127.895C124.639 70 122 72.6392 122 75.8947V84.7368C122 87.9924 124.639 90.6316 127.895 90.6316H135.263V98L142.632 90.6316H144.105C147.361 90.6316 150 87.9924 150 84.7368V75.8947C150 72.6392 147.361 70 144.105 70Z" fill="#111111"/>
<path fill-rule="evenodd" clip-rule="evenodd" d="M194.132 66.5H173.868C169.799 66.5 166.5 69.799 166.5 73.8684V84.9211C166.5 88.9905 169.799 92.2895 173.868 92.2895H183.079V101.5L192.289 92.2895H194.132C198.201 92.2895 201.5 88.9905 201.5 84.9211V73.8684C201.5 69.799 198.201 66.5 194.132 66.5Z" fill="#111111"/>
<path fill-rule="evenodd" clip-rule="evenodd" d="M252.158 63H227.842C222.959 63 219 66.9587 219 71.8421V85.1053C219 89.9886 222.959 93.9474 227.842 93.9474H238.895V105L249.947 93.9474H252.158C257.041 93.9474 261 89.9886 261 85.1053V71.8421C261 66.9587 257.041 63 252.158 63Z" fill="#111111"/>
</g>
<defs>
<clipPath id="clip0_4197_540">
<rect width="264" height="108" rx="5" fill="white"/>
</clipPath>
<clipPath id="clip1_4197_540">
<rect width="12" height="12" fill="white" transform="translate(0 18)"/>
</clipPath>
<clipPath id="clip2_4197_540">
<rect width="16" height="16" fill="white" transform="translate(24 16)"/>
</clipPath>
<clipPath id="clip3_4197_540">
<rect width="20" height="20" fill="white" transform="translate(52 14)"/>
</clipPath>
<clipPath id="clip4_4197_540">
<rect width="24" height="24" fill="white" transform="translate(84 12)"/>
</clipPath>
<clipPath id="clip5_4197_540">
<rect width="12" height="12" fill="white" transform="translate(0 78)"/>
</clipPath>
</defs>
</svg>
