<svg width="264" height="108" viewBox="0 0 264 108" fill="none" xmlns="http://www.w3.org/2000/svg">
<g clip-path="url(#clip0_2180_416)">
<path d="M8.71289 20.6006L8.40137 20.5469H8.39844C8.39698 20.5466 8.39508 20.5453 8.39258 20.5449C8.38738 20.5441 8.37956 20.5435 8.37012 20.542C8.35118 20.5389 8.32412 20.5343 8.29004 20.5293C8.22153 20.5191 8.12431 20.5056 8.00879 20.4922C7.77949 20.4656 7.47015 20.4385 7.16309 20.4385C6.48706 20.4385 5.88631 20.6458 5.45508 21.0801C5.02386 21.5144 4.80473 22.1322 4.80469 22.8682V23.6572H3.47168V25.9336H4.80469V28.7891C2.69182 28.2528 1.12506 26.3283 1.125 24.0322C1.125 21.32 3.30976 19.125 6 19.125C8.69024 19.125 10.875 21.32 10.875 24.0322C10.8749 26.3283 9.30818 28.2528 7.19531 28.7891V25.9336H8.36621L8.41406 25.6152L8.64746 24.0889L8.71289 23.6572H7.19531V23.041C7.19535 22.8863 7.2339 22.7799 7.28809 22.7168C7.33326 22.6642 7.43195 22.5918 7.67578 22.5918H8.71289V20.6006Z" stroke="#111111" stroke-width="0.75"/>
<path d="M35.6172 19.4668L35.2021 19.3955H35.1982C35.1963 19.3952 35.1938 19.3941 35.1904 19.3936C35.1835 19.3924 35.1728 19.3907 35.1602 19.3887C35.135 19.3846 35.099 19.3788 35.0537 19.3721C34.9624 19.3585 34.8327 19.3411 34.6787 19.3232C34.3728 19.2877 33.9595 19.251 33.5498 19.251C32.6486 19.2511 31.8483 19.5275 31.2734 20.1064C30.6983 20.6856 30.4062 21.5097 30.4062 22.4912V23.543H28.6289V26.5781H30.4062V30.3867C27.5889 29.6719 25.5001 27.1045 25.5 24.043C25.5 20.4266 28.413 17.5 32 17.5C35.587 17.5 38.5 20.4266 38.5 24.043C38.4999 27.1045 36.4111 29.6719 33.5938 30.3867V26.5781H35.1543L35.2188 26.1543L35.5293 24.1182L35.6172 23.543H33.5938V22.7217C33.5938 22.5155 33.6447 22.3732 33.7168 22.2891C33.777 22.219 33.9093 22.1221 34.2344 22.1221H35.6172V19.4668Z" stroke="#111111"/>
<path d="M66.5215 18.334L66.002 18.2451L66.001 18.2441C66.0003 18.244 65.9992 18.2443 65.998 18.2441C65.9956 18.2437 65.9916 18.2429 65.9873 18.2422C65.9787 18.2408 65.9666 18.2388 65.9512 18.2363C65.9196 18.2312 65.8735 18.2243 65.8164 18.2158C65.7023 18.1989 65.5409 18.1766 65.3486 18.1543C64.9663 18.1099 64.4496 18.0635 63.9375 18.0635C62.811 18.0635 61.8114 18.4102 61.0928 19.1338C60.3739 19.8577 60.0078 20.8874 60.0078 22.1143V23.4287H57.7861V27.2236H60.0078V31.9834C56.4862 31.0898 53.8751 27.8806 53.875 24.0537C53.875 19.5333 57.5163 15.875 62 15.875C66.4837 15.875 70.125 19.5333 70.125 24.0537C70.1249 27.8806 67.5138 31.0898 63.9922 31.9834V27.2236H65.9434L66.0234 26.6924L66.4121 24.1475L66.5215 23.4287H63.9922V22.4023C63.9922 22.1444 64.0562 21.9665 64.1465 21.8613C64.2218 21.7737 64.3866 21.6524 64.793 21.6523H66.5215V18.334Z" stroke="#111111" stroke-width="1.25"/>
<path d="M101.648 16.9072L101.025 16.7998H101.023C101.023 16.7996 101.021 16.7991 101.02 16.7988C101.017 16.7983 101.012 16.7977 101.007 16.7969C100.996 16.7951 100.981 16.7922 100.961 16.7891C100.921 16.7827 100.864 16.7743 100.793 16.7637C100.65 16.7425 100.447 16.7146 100.205 16.6865C99.7252 16.6308 99.0783 16.5733 98.4365 16.5732C97.0274 16.5732 95.7792 17.0055 94.8838 17.9072C93.9883 18.8091 93.5313 20.0938 93.5312 21.6289V23.3174H90.7383V28.0166H93.5312V34.082C89.0659 32.9706 85.7501 28.9111 85.75 24.0674C85.75 18.365 90.3434 13.75 96 13.75C101.657 13.75 106.25 18.365 106.25 24.0674C106.25 28.9111 102.934 32.9706 98.4688 34.082V28.0166H100.926L101.023 27.3789L101.511 24.1807L101.643 23.3174H98.4688V21.9912C98.4688 21.6616 98.5508 21.4289 98.6719 21.2881C98.7748 21.1683 98.9929 21.0127 99.5117 21.0127H101.648V16.9072Z" stroke="#111111" stroke-width="1.5"/>
<path d="M143.234 14.9346L142.403 14.792H142.402L142.401 14.791C142.4 14.7908 142.398 14.7904 142.396 14.79C142.393 14.7894 142.387 14.7892 142.38 14.7881C142.366 14.7858 142.346 14.7824 142.321 14.7783C142.271 14.7702 142.198 14.7587 142.106 14.7451C141.924 14.7181 141.665 14.6823 141.357 14.6465C140.746 14.5754 139.92 14.502 139.101 14.502C137.298 14.502 135.698 15.0558 134.548 16.2139C133.398 17.3722 132.812 19.0195 132.812 20.9824V23.0859H129.258V29.1572H132.812V36.7744C127.178 35.3448 123 30.2091 123 24.0859C123 16.8532 128.826 11 136 11C143.174 11 149 16.8532 149 24.0859C149 30.2091 144.822 35.3448 139.188 36.7744V29.1572H142.309L142.438 28.3076L143.059 24.2363L143.234 23.0859H139.188V21.4434C139.188 21.0304 139.29 20.7454 139.435 20.5771C139.555 20.437 139.819 20.2432 140.469 20.2432H143.234V14.9346Z" stroke="#111111" stroke-width="2"/>
<path d="M191.793 13.7217C192.005 12.4897 192.004 12.4893 192.004 12.4893H192.002C192 12.489 191.998 12.4887 191.995 12.4883C191.99 12.4875 191.984 12.4858 191.976 12.4844C191.958 12.4815 191.933 12.4777 191.901 12.4727C191.838 12.4625 191.747 12.4486 191.633 12.4316C191.404 12.3978 191.081 12.3523 190.696 12.3076C189.932 12.2188 188.9 12.128 187.876 12.1279C185.623 12.1279 183.622 12.82 182.185 14.2676C180.747 15.7154 180.016 17.7741 180.016 20.2275V22.8574H175.572V30.4463H180.016V39.9678C172.972 38.1807 167.75 31.7613 167.75 24.1074C167.75 15.0665 175.033 7.75 184 7.75C192.967 7.75 200.25 15.0665 200.25 24.1074C200.25 31.7613 195.028 38.1807 187.984 39.9678V30.4463H191.886L192.048 29.3848L192.823 24.2949L193.043 22.8574H187.984V20.8037C187.984 20.2878 188.112 19.9319 188.293 19.7217C188.444 19.5465 188.773 19.3048 189.586 19.3047H193.043V12.668L192.005 12.4893L191.793 13.7217Z" stroke="#111111" stroke-width="2.5"/>
<path d="M250.852 10.4014L249.605 10.1875H249.604L249.602 10.1865C249.6 10.1862 249.598 10.186 249.595 10.1855C249.589 10.1846 249.581 10.1834 249.57 10.1816C249.55 10.1782 249.519 10.1731 249.481 10.167C249.406 10.1548 249.297 10.1375 249.16 10.1172C248.886 10.0766 248.498 10.0234 248.036 9.96973C247.118 9.86311 245.88 9.75293 244.65 9.75293C241.946 9.75301 239.546 10.5833 237.821 12.3203C236.096 14.0578 235.219 16.5292 235.219 19.4736V22.6279H229.887V31.7354H235.219V43.1621C226.766 41.0177 220.5 33.313 220.5 24.1279C220.5 13.279 229.239 4.5 240 4.5C250.761 4.5 259.5 13.279 259.5 24.1279C259.5 33.313 253.234 41.0177 244.781 43.1621V31.7354H249.463L249.657 30.4619L250.588 24.3545L250.852 22.6279H244.781V20.165C244.781 19.5457 244.934 19.1186 245.151 18.8662C245.332 18.656 245.728 18.3653 246.703 18.3652H250.852V10.4014Z" stroke="#111111" stroke-width="3"/>
<path d="M11 84.0306C11 81.2523 8.76143 79 6 79C3.23857 79 1 81.2523 1 84.0306C1 86.5415 2.82843 88.6226 5.21875 89V85.4847H3.94922V84.0306H5.21875V82.9223C5.21875 81.6615 5.96521 80.9651 7.10732 80.9651C7.65437 80.9651 8.22656 81.0633 8.22656 81.0633V82.3013H7.59607C6.97495 82.3013 6.78125 82.6891 6.78125 83.0869V84.0306H8.16797L7.94629 85.4847H6.78125V89C9.17157 88.6226 11 86.5415 11 84.0306Z" fill="#111111"/>
<path d="M38.6668 84.0407C38.6668 80.3363 35.6821 77.3333 32.0002 77.3333C28.3183 77.3333 25.3335 80.3363 25.3335 84.0407C25.3335 87.3886 27.7714 90.1635 30.9585 90.6666V85.9796H29.2658V84.0407H30.9585V82.563C30.9585 80.882 31.9538 79.9534 33.4766 79.9534C34.206 79.9534 34.9689 80.0844 34.9689 80.0844V81.735H34.1283C33.3001 81.735 33.0418 82.2521 33.0418 82.7825V84.0407H34.8908L34.5952 85.9796H33.0418V90.6666C36.2289 90.1635 38.6668 87.3886 38.6668 84.0407Z" fill="#111111"/>
<path d="M70.3332 84.0509C70.3332 79.4204 66.6022 75.6667 61.9998 75.6667C57.3975 75.6667 53.6665 79.4204 53.6665 84.0509C53.6665 88.2358 56.7139 91.7044 60.6978 92.3334V86.4745H58.5819V84.0509H60.6978V82.2038C60.6978 80.1025 61.9419 78.9418 63.8454 78.9418C64.7571 78.9418 65.7108 79.1055 65.7108 79.1055V81.1689H64.66C63.6248 81.1689 63.3019 81.8151 63.3019 82.4782V84.0509H65.6131L65.2437 86.4745H63.3019V92.3334C67.2858 91.7044 70.3332 88.2358 70.3332 84.0509Z" fill="#111111"/>
<path d="M106 84.0611C106 78.5045 101.523 74 96 74C90.4771 74 86 78.5045 86 84.0611C86 89.0829 89.6569 93.2452 94.4375 94V86.9694H91.8984V84.0611H94.4375V81.8445C94.4375 79.323 95.9304 77.9301 98.2146 77.9301C99.3087 77.9301 100.453 78.1266 100.453 78.1266V80.6026H99.1921C97.9499 80.6026 97.5625 81.3782 97.5625 82.1738V84.0611H100.336L99.8926 86.9694H97.5625V94C102.343 93.2452 106 89.0829 106 84.0611Z" fill="#111111"/>
<path d="M149.333 84.0815C149.333 76.6727 143.364 70.6667 136 70.6667C128.636 70.6667 122.667 76.6727 122.667 84.0815C122.667 90.7772 127.542 96.327 133.917 97.3334V87.9592H130.531V84.0815H133.917V81.1261C133.917 77.764 135.907 75.9068 138.953 75.9068C140.411 75.9068 141.937 76.1689 141.937 76.1689V79.4702H140.256C138.6 79.4702 138.083 80.5042 138.083 81.5651V84.0815H141.781L141.19 87.9592H138.083V97.3334C144.457 96.327 149.333 90.7772 149.333 84.0815Z" fill="#111111"/>
<path d="M200.667 84.1018C200.667 74.8408 193.205 67.3333 184 67.3333C174.795 67.3333 167.333 74.8408 167.333 84.1018C167.333 92.4715 173.428 99.4087 181.396 100.667V88.949H177.164V84.1018H181.396V80.4075C181.396 76.2049 183.884 73.8835 187.691 73.8835C189.515 73.8835 191.422 74.211 191.422 74.211V78.3377H189.32C187.25 78.3377 186.604 79.6302 186.604 80.9563V84.1018H191.227L190.488 88.949H186.604V100.667C194.572 99.4087 200.667 92.4715 200.667 84.1018Z" fill="#111111"/>
<path d="M260 84.1222C260 73.009 251.046 64 240 64C228.954 64 220 73.009 220 84.1222C220 94.1658 227.314 102.49 236.875 104V89.9388H231.797V84.1222H236.875V79.689C236.875 74.6459 239.861 71.8602 244.429 71.8602C246.617 71.8602 248.906 72.2533 248.906 72.2533V77.2052H246.384C243.9 77.2052 243.125 78.7563 243.125 80.3476V84.1222H248.672L247.785 89.9388H243.125V104C252.686 102.49 260 94.1658 260 84.1222Z" fill="#111111"/>
</g>
<defs>
<clipPath id="clip0_2180_416">
<rect width="264" height="108" rx="5" fill="white"/>
</clipPath>
</defs>
</svg>
