<svg width="264" height="108" viewBox="0 0 264 108" fill="none" xmlns="http://www.w3.org/2000/svg">
<g clip-path="url(#clip0_4586_477)">
<g clip-path="url(#clip1_4586_477)">
<path d="M8.75 21.25H8.755M3.5 19H8.5C9.88071 19 11 20.1193 11 21.5V26.5C11 27.8807 9.88071 29 8.5 29H3.5C2.11929 29 1 27.8807 1 26.5V21.5C1 20.1193 2.11929 19 3.5 19ZM8 23.685C8.06171 24.1011 7.99063 24.5261 7.79688 24.8995C7.60313 25.2729 7.29657 25.5757 6.92081 25.7648C6.54505 25.954 6.11922 26.0198 5.70389 25.953C5.28856 25.8861 4.90488 25.69 4.60742 25.3926C4.30996 25.0951 4.11387 24.7114 4.04703 24.2961C3.9802 23.8808 4.04603 23.4549 4.23516 23.0792C4.42429 22.7034 4.72709 22.3969 5.10049 22.2031C5.47389 22.0094 5.89888 21.9383 6.315 22C6.73946 22.0629 7.13243 22.2607 7.43585 22.5642C7.73927 22.8676 7.93706 23.2605 8 23.685Z" stroke="#111111" stroke-width="0.75" stroke-linecap="round" stroke-linejoin="round"/>
</g>
<g clip-path="url(#clip2_4586_477)">
<path d="M35.6668 20.3333H35.6735M28.6668 17.3333H35.3335C37.1744 17.3333 38.6668 18.8257 38.6668 20.6666V27.3333C38.6668 29.1743 37.1744 30.6666 35.3335 30.6666H28.6668C26.8259 30.6666 25.3335 29.1743 25.3335 27.3333V20.6666C25.3335 18.8257 26.8259 17.3333 28.6668 17.3333ZM34.6668 23.58C34.7491 24.1348 34.6543 24.7015 34.396 25.1993C34.1377 25.6972 33.7289 26.1009 33.2279 26.3531C32.7269 26.6053 32.1591 26.693 31.6054 26.6039C31.0516 26.5148 30.54 26.2534 30.1434 25.8568C29.7468 25.4601 29.4853 24.9486 29.3962 24.3948C29.3071 23.841 29.3949 23.2732 29.647 22.7722C29.8992 22.2712 30.303 21.8625 30.8008 21.6041C31.2987 21.3458 31.8653 21.251 32.4202 21.3333C32.9861 21.4172 33.5101 21.681 33.9146 22.0855C34.3192 22.4901 34.5829 23.014 34.6668 23.58Z" stroke="#111111" stroke-linecap="round" stroke-linejoin="round"/>
</g>
<path d="M66.5832 19.4167H66.5915M57.8332 15.6667H66.1665C68.4677 15.6667 70.3332 17.5322 70.3332 19.8334V28.1667C70.3332 30.4679 68.4677 32.3334 66.1665 32.3334H57.8332C55.532 32.3334 53.6665 30.4679 53.6665 28.1667V19.8334C53.6665 17.5322 55.532 15.6667 57.8332 15.6667ZM65.3332 23.475C65.436 24.1686 65.3176 24.8769 64.9946 25.4992C64.6717 26.1215 64.1608 26.6262 63.5345 26.9414C62.9083 27.2566 62.1985 27.3664 61.5063 27.255C60.8141 27.1436 60.1746 26.8168 59.6789 26.321C59.1831 25.8252 58.8563 25.1857 58.7449 24.4935C58.6335 23.8013 58.7432 23.0916 59.0584 22.4653C59.3737 21.8391 59.8783 21.3281 60.5007 21.0052C61.123 20.6823 61.8313 20.5638 62.5248 20.6667C63.2323 20.7716 63.8872 21.1012 64.3929 21.6069C64.8986 22.1126 65.2283 22.7676 65.3332 23.475Z" stroke="#111111" stroke-width="1.25" stroke-linecap="round" stroke-linejoin="round"/>
<path d="M101.5 18.5H101.51M91 14H101C103.761 14 106 16.2386 106 19V29C106 31.7614 103.761 34 101 34H91C88.2386 34 86 31.7614 86 29V19C86 16.2386 88.2386 14 91 14ZM100 23.37C100.123 24.2022 99.9813 25.0522 99.5938 25.799C99.2063 26.5458 98.5931 27.1514 97.8416 27.5297C97.0901 27.9079 96.2384 28.0396 95.4078 27.9059C94.5771 27.7723 93.8098 27.3801 93.2148 26.7852C92.6199 26.1902 92.2277 25.4229 92.0941 24.5922C91.9604 23.7616 92.0921 22.9099 92.4703 22.1584C92.8486 21.4069 93.4542 20.7937 94.201 20.4062C94.9478 20.0187 95.7978 19.8766 96.63 20C97.4789 20.1259 98.2649 20.5215 98.8717 21.1283C99.4785 21.7351 99.8741 22.5211 100 23.37Z" stroke="#111111" stroke-width="1.5" stroke-linecap="round" stroke-linejoin="round"/>
<path d="M143.333 16.6667H143.347M129.333 10.6667H142.667C146.348 10.6667 149.333 13.6515 149.333 17.3334V30.6667C149.333 34.3486 146.348 37.3334 142.667 37.3334H129.333C125.651 37.3334 122.667 34.3486 122.667 30.6667V17.3334C122.667 13.6515 125.651 10.6667 129.333 10.6667ZM141.333 23.16C141.498 24.2697 141.308 25.403 140.792 26.3987C140.275 27.3944 139.457 28.2019 138.455 28.7063C137.453 29.2106 136.318 29.3862 135.21 29.2079C134.103 29.0297 133.08 28.5068 132.286 27.7136C131.493 26.9203 130.97 25.8972 130.792 24.7896C130.614 23.6821 130.789 22.5465 131.294 21.5445C131.798 20.5425 132.605 19.725 133.601 19.2083C134.597 18.6917 135.73 18.5021 136.84 18.6667C137.972 18.8345 139.02 19.362 139.829 20.1711C140.638 20.9802 141.165 22.0281 141.333 23.16Z" stroke="#111111" stroke-width="2" stroke-linecap="round" stroke-linejoin="round"/>
<path d="M193.167 14.8333H193.183M175.667 7.33331H192.333C196.936 7.33331 200.667 11.0643 200.667 15.6666V32.3333C200.667 36.9357 196.936 40.6666 192.333 40.6666H175.667C171.064 40.6666 167.333 36.9357 167.333 32.3333V15.6666C167.333 11.0643 171.064 7.33331 175.667 7.33331ZM190.667 22.95C190.873 24.3371 190.636 25.7537 189.99 26.9983C189.344 28.243 188.322 29.2523 187.07 29.8828C185.817 30.5132 184.398 30.7326 183.013 30.5099C181.629 30.2871 180.35 29.6335 179.358 28.6419C178.367 27.6504 177.713 26.3714 177.49 24.987C177.268 23.6026 177.487 22.1831 178.117 20.9306C178.748 19.6781 179.757 18.6562 181.002 18.0104C182.246 17.3645 183.663 17.1276 185.05 17.3333C186.465 17.5431 187.775 18.2024 188.786 19.2138C189.798 20.2252 190.457 21.5351 190.667 22.95Z" stroke="#111111" stroke-width="2.5" stroke-linecap="round" stroke-linejoin="round"/>
<path d="M251 13H251.02M230 4H250C255.523 4 260 8.47715 260 14V34C260 39.5228 255.523 44 250 44H230C224.477 44 220 39.5228 220 34V14C220 8.47715 224.477 4 230 4ZM248 22.74C248.247 24.4045 247.963 26.1044 247.188 27.598C246.413 29.0916 245.186 30.3028 243.683 31.0593C242.18 31.8159 240.477 32.0792 238.816 31.8119C237.154 31.5445 235.62 30.7602 234.43 29.5703C233.24 28.3805 232.455 26.8457 232.188 25.1844C231.921 23.5231 232.184 21.8198 232.941 20.3167C233.697 18.8137 234.908 17.5875 236.402 16.8125C237.896 16.0375 239.596 15.7532 241.26 16C242.958 16.2518 244.53 17.0429 245.743 18.2566C246.957 19.4703 247.748 21.0422 248 22.74Z" stroke="#111111" stroke-width="3" stroke-linecap="round" stroke-linejoin="round"/>
<g clip-path="url(#clip3_4586_477)">
<path d="M5.33088 82.6468C5.61093 82.5015 5.92966 82.4482 6.24176 82.4945C6.5601 82.5417 6.85483 82.69 7.08239 82.9176C7.30996 83.1452 7.4583 83.4399 7.50551 83.7582C7.55179 84.0703 7.49848 84.3891 7.35317 84.6691C7.20785 84.9492 6.97794 85.1763 6.69612 85.3181C6.4143 85.46 6.09492 85.5093 5.78343 85.4592C5.47193 85.4091 5.18417 85.262 4.96107 85.0389C4.73798 84.8158 4.59091 84.5281 4.54078 84.2166C4.49066 83.9051 4.54003 83.5857 4.68188 83.3039C4.82373 83.0221 5.05083 82.7922 5.33088 82.6468Z" fill="#111111"/>
<path fill-rule="evenodd" clip-rule="evenodd" d="M3.5 78.5C1.84315 78.5 0.5 79.8431 0.5 81.5V86.5C0.5 88.1569 1.84315 89.5 3.5 89.5H8.5C10.1569 89.5 11.5 88.1569 11.5 86.5V81.5C11.5 79.8431 10.1569 78.5 8.5 78.5H3.5ZM8.25 81.25C8.25 80.9739 8.47386 80.75 8.75 80.75H8.755C9.03114 80.75 9.255 80.9739 9.255 81.25C9.255 81.5261 9.03114 81.75 8.755 81.75H8.75C8.47386 81.75 8.25 81.5261 8.25 81.25ZM6.38844 81.5053C5.86829 81.4282 5.33705 81.517 4.87031 81.7592C4.40356 82.0014 4.02506 82.3846 3.78864 82.8543C3.55223 83.324 3.46994 83.8563 3.55348 84.3754C3.63702 84.8946 3.88214 85.3742 4.25396 85.746C4.62579 86.1179 5.10539 86.363 5.62456 86.4465C6.14372 86.5301 6.67601 86.4478 7.14571 86.2114C7.61541 85.9749 7.9986 85.5964 8.24079 85.1297C8.48298 84.663 8.57182 84.1317 8.49469 83.6116C8.41601 83.081 8.16878 82.5898 7.7895 82.2105C7.41022 81.8312 6.91902 81.584 6.38844 81.5053Z" fill="#111111"/>
</g>
<g clip-path="url(#clip4_4586_477)">
<path d="M31.1077 82.1958C31.4811 82.0021 31.9061 81.931 32.3222 81.9927C32.7466 82.0556 33.1396 82.2534 33.443 82.5568C33.7464 82.8603 33.9442 83.2532 34.0072 83.6777C34.0689 84.0938 33.9978 84.5188 33.8041 84.8922C33.6103 85.2656 33.3038 85.5684 32.928 85.7575C32.5522 85.9467 32.1264 86.0125 31.7111 85.9457C31.2957 85.8788 30.9121 85.6827 30.6146 85.3853C30.3171 85.0878 30.121 84.7041 30.0542 84.2888C29.9874 83.8735 30.0532 83.4476 30.2423 83.0719C30.4315 82.6961 30.7343 82.3896 31.1077 82.1958Z" fill="#111111"/>
<path fill-rule="evenodd" clip-rule="evenodd" d="M28.6665 76.6667C26.4574 76.6667 24.6665 78.4575 24.6665 80.6667V87.3334C24.6665 89.5425 26.4574 91.3334 28.6665 91.3334H35.3332C37.5423 91.3334 39.3332 89.5425 39.3332 87.3334V80.6667C39.3332 78.4575 37.5423 76.6667 35.3332 76.6667H28.6665ZM34.9998 80.3334C34.9998 79.9652 35.2983 79.6667 35.6665 79.6667H35.6732C36.0414 79.6667 36.3398 79.9652 36.3398 80.3334C36.3398 80.7015 36.0414 81 35.6732 81H35.6665C35.2983 81 34.9998 80.7015 34.9998 80.3334ZM32.5178 80.6738C31.8242 80.5709 31.1159 80.6894 30.4936 81.0123C29.8712 81.3352 29.3666 81.8462 29.0514 82.4724C28.7361 83.0987 28.6264 83.8084 28.7378 84.5006C28.8492 85.1928 29.176 85.8323 29.6718 86.3281C30.1676 86.8238 30.807 87.1507 31.4992 87.2621C32.1915 87.3734 32.9012 87.2637 33.5274 86.9485C34.1537 86.6333 34.6646 86.1286 34.9876 85.5063C35.3105 84.884 35.4289 84.1756 35.3261 83.4821C35.2212 82.7747 34.8915 82.1197 34.3858 81.614C33.8801 81.1083 33.2252 80.7787 32.5178 80.6738Z" fill="#111111"/>
</g>
<g clip-path="url(#clip5_4586_477)">
<path d="M60.885 81.7447C61.3517 81.5025 61.8829 81.4137 62.4031 81.4908C62.9337 81.5695 63.4249 81.8167 63.8041 82.196C64.1834 82.5753 64.4307 83.0665 64.5093 83.5971C64.5865 84.1172 64.4976 84.6484 64.2554 85.1152C64.0133 85.5819 63.6301 85.9604 63.1604 86.1969C62.6907 86.4333 62.1584 86.5156 61.6392 86.432C61.12 86.3485 60.6404 86.1034 60.2686 85.7315C59.8968 85.3597 59.6517 84.8801 59.5681 84.3609C59.4846 83.8418 59.5669 83.3095 59.8033 82.8398C60.0397 82.3701 60.4182 81.9869 60.885 81.7447Z" fill="#111111"/>
<path fill-rule="evenodd" clip-rule="evenodd" d="M57.8335 74.8333C55.0721 74.8333 52.8335 77.0719 52.8335 79.8333V88.1666C52.8335 90.9281 55.0721 93.1666 57.8335 93.1666H66.1668C68.9283 93.1666 71.1668 90.9281 71.1668 88.1666V79.8333C71.1668 77.0719 68.9283 74.8333 66.1668 74.8333H57.8335ZM65.7502 79.4166C65.7502 78.9564 66.1233 78.5833 66.5835 78.5833H66.5918C67.0521 78.5833 67.4252 78.9564 67.4252 79.4166C67.4252 79.8769 67.0521 80.25 66.5918 80.25H66.5835C66.1233 80.25 65.7502 79.8769 65.7502 79.4166ZM62.6476 79.8422C61.7806 79.7136 60.8953 79.8617 60.1173 80.2653C59.3394 80.669 58.7086 81.3076 58.3146 82.0905C57.9205 82.8733 57.7834 83.7605 57.9226 84.6257C58.0619 85.491 58.4704 86.2903 59.0901 86.91C59.7098 87.5298 60.5092 87.9383 61.3744 88.0775C62.2397 88.2168 63.1268 88.0796 63.9097 87.6856C64.6925 87.2916 65.3312 86.6607 65.7348 85.8828C66.1385 85.1049 66.2865 84.2195 66.158 83.3526C66.0269 82.4683 65.6148 81.6496 64.9827 81.0175C64.3505 80.3854 63.5319 79.9733 62.6476 79.8422Z" fill="#111111"/>
</g>
<path d="M94.6618 81.2937C95.2219 81.0031 95.8593 80.8964 96.4835 80.989C97.1202 81.0834 97.7097 81.3801 98.1648 81.8352C98.6199 82.2904 98.9166 82.8798 99.011 83.5165C99.1036 84.1407 98.997 84.7782 98.7063 85.3383C98.4157 85.8984 97.9559 86.3526 97.3922 86.6363C96.8286 86.9199 96.1898 87.0187 95.5669 86.9184C94.9439 86.8182 94.3683 86.5241 93.9221 86.0779C93.476 85.6317 93.1818 85.0562 93.0816 84.4332C92.9813 83.8102 93.0801 83.1714 93.3638 82.6078C93.6475 82.0441 94.1017 81.5843 94.6618 81.2937Z" fill="#111111"/>
<path fill-rule="evenodd" clip-rule="evenodd" d="M91 73C87.6863 73 85 75.6863 85 79V89C85 92.3137 87.6863 95 91 95H101C104.314 95 107 92.3137 107 89V79C107 75.6863 104.314 73 101 73H91ZM100.5 78.5C100.5 77.9477 100.948 77.5 101.5 77.5H101.51C102.062 77.5 102.51 77.9477 102.51 78.5C102.51 79.0523 102.062 79.5 101.51 79.5H101.5C100.948 79.5 100.5 79.0523 100.5 78.5ZM96.7769 79.0106C95.7366 78.8564 94.6741 79.0341 93.7406 79.5184C92.8071 80.0028 92.0501 80.7692 91.5773 81.7086C91.1045 82.648 90.9399 83.7126 91.107 84.7509C91.274 85.7892 91.7643 86.7484 92.5079 87.4921C93.2516 88.2357 94.2108 88.726 95.2491 88.893C96.2874 89.0601 97.352 88.8955 98.2914 88.4227C99.2308 87.9499 99.9972 87.1929 100.482 86.2594C100.966 85.3259 101.144 84.2634 100.989 83.2231C100.832 82.162 100.338 81.1796 99.579 80.421C98.8204 79.6625 97.838 79.168 96.7769 79.0106Z" fill="#111111"/>
<path d="M134.216 80.3916C134.963 80.0041 135.813 79.8619 136.645 79.9853C137.494 80.1112 138.28 80.5068 138.887 81.1136C139.493 81.7205 139.889 82.5064 140.015 83.3553C140.138 84.1876 139.996 85.0375 139.609 85.7843C139.221 86.5311 138.608 87.1367 137.856 87.515C137.105 87.8932 136.253 88.0249 135.423 87.8912C134.592 87.7576 133.825 87.3654 133.23 86.7705C132.635 86.1755 132.243 85.4082 132.109 84.5775C131.975 83.7469 132.107 82.8952 132.485 82.1437C132.863 81.3922 133.469 80.7791 134.216 80.3916Z" fill="#111111"/>
<path fill-rule="evenodd" clip-rule="evenodd" d="M129.333 69.3333C124.915 69.3333 121.333 72.915 121.333 77.3333V90.6666C121.333 95.0849 124.915 98.6666 129.333 98.6666H142.667C147.085 98.6666 150.667 95.0849 150.667 90.6666V77.3333C150.667 72.915 147.085 69.3333 142.667 69.3333H129.333ZM142 76.6666C142 75.9303 142.597 75.3333 143.333 75.3333H143.347C144.083 75.3333 144.68 75.9303 144.68 76.6666C144.68 77.403 144.083 78 143.347 78H143.333C142.597 78 142 77.403 142 76.6666ZM137.036 77.3475C135.649 77.1418 134.232 77.3787 132.988 78.0246C131.743 78.6704 130.734 79.6922 130.103 80.9448C129.473 82.1973 129.253 83.6167 129.476 85.0012C129.699 86.3856 130.353 87.6646 131.344 88.6561C132.336 89.6476 133.615 90.3013 134.999 90.524C136.383 90.7468 137.803 90.5274 139.055 89.8969C140.308 89.2665 141.33 88.2572 141.976 87.0125C142.621 85.7678 142.858 84.3512 142.653 82.9642C142.443 81.5493 141.784 80.2394 140.772 79.228C139.761 78.2166 138.451 77.5573 137.036 77.3475Z" fill="#111111"/>
<path d="M181.769 79.4895C182.703 79.0051 183.765 78.8274 184.806 78.9817C185.867 79.139 186.849 79.6335 187.608 80.3921C188.366 81.1506 188.861 82.133 189.018 83.1942C189.172 84.2345 188.995 85.297 188.51 86.2305C188.026 87.1639 187.26 87.9209 186.32 88.3938C185.381 88.8666 184.316 89.0312 183.278 88.8641C182.24 88.697 181.28 88.2068 180.537 87.4631C179.793 86.7195 179.303 85.7603 179.136 84.722C178.969 83.6836 179.133 82.6191 179.606 81.6797C180.079 80.7403 180.836 79.9739 181.769 79.4895Z" fill="#111111"/>
<path fill-rule="evenodd" clip-rule="evenodd" d="M175.667 65.6667C170.144 65.6667 165.667 70.1438 165.667 75.6667V92.3334C165.667 97.8562 170.144 102.333 175.667 102.333H192.333C197.856 102.333 202.333 97.8562 202.333 92.3334V75.6667C202.333 70.1438 197.856 65.6667 192.333 65.6667H175.667ZM191.5 74.8334C191.5 73.9129 192.246 73.1667 193.167 73.1667H193.183C194.104 73.1667 194.85 73.9129 194.85 74.8334C194.85 75.7538 194.104 76.5 193.183 76.5H193.167C192.246 76.5 191.5 75.7538 191.5 74.8334ZM185.295 75.6844C183.561 75.4273 181.79 75.7235 180.234 76.5307C178.678 77.338 177.417 78.6154 176.629 80.181C175.841 81.7467 175.566 83.521 175.845 85.2515C176.123 86.9821 176.94 88.5807 178.18 89.8202C179.419 91.0596 181.018 91.8766 182.748 92.1551C184.479 92.4336 186.253 92.1593 187.819 91.3712C189.385 90.5832 190.662 89.3215 191.469 87.7657C192.276 86.2099 192.573 84.4391 192.315 82.7052C192.053 80.9367 191.229 79.2993 189.965 78.035C188.701 76.7708 187.063 75.9467 185.295 75.6844Z" fill="#111111"/>
<path d="M237.324 78.5874C238.444 78.0061 239.719 77.7929 240.967 77.978C242.24 78.1668 243.419 78.7602 244.33 79.6705C245.24 80.5807 245.833 81.7596 246.022 83.033C246.207 84.2814 245.994 85.5563 245.413 86.6765C244.831 87.7967 243.912 88.7051 242.784 89.2725C241.657 89.8399 240.38 90.0374 239.134 89.8369C237.888 89.6364 236.737 89.0481 235.844 88.1557C234.952 87.2634 234.364 86.1123 234.163 84.8663C233.963 83.6203 234.16 82.3428 234.728 81.2156C235.295 80.0883 236.203 79.1686 237.324 78.5874Z" fill="#111111"/>
<path fill-rule="evenodd" clip-rule="evenodd" d="M230 62C223.373 62 218 67.3726 218 74V94C218 100.627 223.373 106 230 106H250C256.627 106 262 100.627 262 94V74C262 67.3726 256.627 62 250 62H230ZM249 73C249 71.8954 249.895 71 251 71H251.02C252.125 71 253.02 71.8954 253.02 73C253.02 74.1046 252.125 75 251.02 75H251C249.895 75 249 74.1046 249 73ZM241.554 74.0213C239.473 73.7127 237.348 74.0681 235.481 75.0369C233.614 76.0056 232.1 77.5384 231.155 79.4172C230.209 81.296 229.88 83.4251 230.214 85.5018C230.548 87.5784 231.529 89.4969 233.016 90.9842C234.503 92.4715 236.422 93.4519 238.498 93.7861C240.575 94.1203 242.704 93.7911 244.583 92.8454C246.462 91.8998 247.994 90.3858 248.963 88.5188C249.932 86.6518 250.287 84.5269 249.979 82.4463C249.664 80.324 248.675 78.3591 247.158 76.842C245.641 75.3249 243.676 74.336 241.554 74.0213Z" fill="#111111"/>
</g>
<defs>
<clipPath id="clip0_4586_477">
<rect width="264" height="108" rx="5" fill="white"/>
</clipPath>
<clipPath id="clip1_4586_477">
<rect width="12" height="12" fill="white" transform="translate(0 18)"/>
</clipPath>
<clipPath id="clip2_4586_477">
<rect width="16" height="16" fill="white" transform="translate(24 16)"/>
</clipPath>
<clipPath id="clip3_4586_477">
<rect width="12" height="12" fill="white" transform="translate(0 78)"/>
</clipPath>
<clipPath id="clip4_4586_477">
<rect width="16" height="16" fill="white" transform="translate(24 76)"/>
</clipPath>
<clipPath id="clip5_4586_477">
<rect width="20" height="20" fill="white" transform="translate(52 74)"/>
</clipPath>
</defs>
</svg>
