<svg width="264" height="108" viewBox="0 0 264 108" fill="none" xmlns="http://www.w3.org/2000/svg">
<g clip-path="url(#clip0_4586_439)">
<path d="M8 22C8.79565 22 9.55871 22.3161 10.1213 22.8787C10.6839 23.4413 11 24.2044 11 25V28.5H9V25C9 24.7348 8.89464 24.4804 8.70711 24.2929C8.51957 24.1054 8.26522 24 8 24C7.73478 24 7.48043 24.1054 7.29289 24.2929C7.10536 24.4804 7 24.7348 7 25V28.5H5V25C5 24.2044 5.31607 23.4413 5.87868 22.8787C6.44129 22.3161 7.20435 22 8 22Z" stroke="#111111" stroke-width="0.75" stroke-linecap="round" stroke-linejoin="round"/>
<path d="M3 22.5H1V28.5H3V22.5Z" stroke="#111111" stroke-width="0.75" stroke-linecap="round" stroke-linejoin="round"/>
<path d="M2 21C2.55228 21 3 20.5523 3 20C3 19.4477 2.55228 19 2 19C1.44772 19 1 19.4477 1 20C1 20.5523 1.44772 21 2 21Z" stroke="#111111" stroke-width="0.75" stroke-linecap="round" stroke-linejoin="round"/>
<path d="M34.6668 21.3333C35.7277 21.3333 36.7451 21.7547 37.4953 22.5049C38.2454 23.255 38.6668 24.2724 38.6668 25.3333V30H36.0002V25.3333C36.0002 24.9797 35.8597 24.6406 35.6096 24.3905C35.3596 24.1405 35.0205 24 34.6668 24C34.3132 24 33.9741 24.1405 33.724 24.3905C33.474 24.6406 33.3335 24.9797 33.3335 25.3333V30H30.6668V25.3333C30.6668 24.2724 31.0883 23.255 31.8384 22.5049C32.5885 21.7547 33.606 21.3333 34.6668 21.3333Z" stroke="#111111" stroke-linecap="round" stroke-linejoin="round"/>
<path d="M28.0002 22H25.3335V30H28.0002V22Z" stroke="#111111" stroke-linecap="round" stroke-linejoin="round"/>
<path d="M26.6668 20C27.4032 20 28.0002 19.403 28.0002 18.6666C28.0002 17.9303 27.4032 17.3333 26.6668 17.3333C25.9304 17.3333 25.3335 17.9303 25.3335 18.6666C25.3335 19.403 25.9304 20 26.6668 20Z" stroke="#111111" stroke-linecap="round" stroke-linejoin="round"/>
<path d="M65.3332 20.6667C66.6593 20.6667 67.931 21.1935 68.8687 22.1312C69.8064 23.0688 70.3332 24.3406 70.3332 25.6667V31.5H66.9998V25.6667C66.9998 25.2247 66.8242 24.8007 66.5117 24.4882C66.1991 24.1756 65.7752 24 65.3332 24C64.8911 24 64.4672 24.1756 64.1547 24.4882C63.8421 24.8007 63.6665 25.2247 63.6665 25.6667V31.5H60.3332V25.6667C60.3332 24.3406 60.86 23.0688 61.7976 22.1312C62.7353 21.1935 64.0071 20.6667 65.3332 20.6667Z" stroke="#111111" stroke-width="1.25" stroke-linecap="round" stroke-linejoin="round"/>
<path d="M56.9998 21.5H53.6665V31.5H56.9998V21.5Z" stroke="#111111" stroke-width="1.25" stroke-linecap="round" stroke-linejoin="round"/>
<path d="M55.3332 19C56.2536 19 56.9998 18.2538 56.9998 17.3334C56.9998 16.4129 56.2536 15.6667 55.3332 15.6667C54.4127 15.6667 53.6665 16.4129 53.6665 17.3334C53.6665 18.2538 54.4127 19 55.3332 19Z" stroke="#111111" stroke-width="1.25" stroke-linecap="round" stroke-linejoin="round"/>
<path d="M100 20C101.591 20 103.117 20.6321 104.243 21.7574C105.368 22.8826 106 24.4087 106 26V33H102V26C102 25.4696 101.789 24.9609 101.414 24.5858C101.039 24.2107 100.53 24 100 24C99.4696 24 98.9609 24.2107 98.5858 24.5858C98.2107 24.9609 98 25.4696 98 26V33H94V26C94 24.4087 94.6321 22.8826 95.7574 21.7574C96.8826 20.6321 98.4087 20 100 20Z" stroke="#111111" stroke-width="1.5" stroke-linecap="round" stroke-linejoin="round"/>
<path d="M90 21H86V33H90V21Z" stroke="#111111" stroke-width="1.5" stroke-linecap="round" stroke-linejoin="round"/>
<path d="M88 18C89.1046 18 90 17.1046 90 16C90 14.8954 89.1046 14 88 14C86.8954 14 86 14.8954 86 16C86 17.1046 86.8954 18 88 18Z" stroke="#111111" stroke-width="1.5" stroke-linecap="round" stroke-linejoin="round"/>
<path d="M141.333 18.6667C143.455 18.6667 145.49 19.5095 146.99 21.0098C148.49 22.5101 149.333 24.545 149.333 26.6667V36H144V26.6667C144 25.9594 143.719 25.2812 143.219 24.7811C142.719 24.281 142.04 24 141.333 24C140.626 24 139.948 24.281 139.448 24.7811C138.947 25.2812 138.667 25.9594 138.667 26.6667V36H133.333V26.6667C133.333 24.545 134.176 22.5101 135.676 21.0098C137.177 19.5095 139.211 18.6667 141.333 18.6667Z" stroke="#111111" stroke-width="2" stroke-linecap="round" stroke-linejoin="round"/>
<path d="M128 20H122.667V36H128V20Z" stroke="#111111" stroke-width="2" stroke-linecap="round" stroke-linejoin="round"/>
<path d="M125.333 16C126.806 16 128 14.8061 128 13.3334C128 11.8606 126.806 10.6667 125.333 10.6667C123.86 10.6667 122.667 11.8606 122.667 13.3334C122.667 14.8061 123.86 16 125.333 16Z" stroke="#111111" stroke-width="2" stroke-linecap="round" stroke-linejoin="round"/>
<path d="M190.667 17.3333C193.319 17.3333 195.863 18.3869 197.738 20.2622C199.613 22.1376 200.667 24.6811 200.667 27.3333V39H194V27.3333C194 26.4493 193.649 25.6014 193.024 24.9763C192.399 24.3512 191.551 24 190.667 24C189.783 24 188.935 24.3512 188.31 24.9763C187.685 25.6014 187.333 26.4493 187.333 27.3333V39H180.667V27.3333C180.667 24.6811 181.72 22.1376 183.596 20.2622C185.471 18.3869 188.015 17.3333 190.667 17.3333Z" stroke="#111111" stroke-width="2.5" stroke-linecap="round" stroke-linejoin="round"/>
<path d="M174 19H167.333V39H174V19Z" stroke="#111111" stroke-width="2.5" stroke-linecap="round" stroke-linejoin="round"/>
<path d="M170.667 14C172.508 14 174 12.5076 174 10.6666C174 8.8257 172.508 7.33331 170.667 7.33331C168.826 7.33331 167.333 8.8257 167.333 10.6666C167.333 12.5076 168.826 14 170.667 14Z" stroke="#111111" stroke-width="2.5" stroke-linecap="round" stroke-linejoin="round"/>
<path d="M248 16C251.183 16 254.235 17.2643 256.485 19.5147C258.736 21.7652 260 24.8174 260 28V42H252V28C252 26.9391 251.579 25.9217 250.828 25.1716C250.078 24.4214 249.061 24 248 24C246.939 24 245.922 24.4214 245.172 25.1716C244.421 25.9217 244 26.9391 244 28V42H236V28C236 24.8174 237.264 21.7652 239.515 19.5147C241.765 17.2643 244.817 16 248 16Z" stroke="#111111" stroke-width="3" stroke-linecap="round" stroke-linejoin="round"/>
<path d="M228 18H220V42H228V18Z" stroke="#111111" stroke-width="3" stroke-linecap="round" stroke-linejoin="round"/>
<path d="M224 12C226.209 12 228 10.2091 228 8C228 5.79086 226.209 4 224 4C221.791 4 220 5.79086 220 8C220 10.2091 221.791 12 224 12Z" stroke="#111111" stroke-width="3" stroke-linecap="round" stroke-linejoin="round"/>
<path d="M8 82C8.79565 82 9.55871 82.3161 10.1213 82.8787C10.6839 83.4413 11 84.2044 11 85V88.5H9V85C9 84.7348 8.89464 84.4804 8.70711 84.2929C8.51957 84.1054 8.26522 84 8 84C7.73478 84 7.48043 84.1054 7.29289 84.2929C7.10536 84.4804 7 84.7348 7 85V88.5H5V85C5 84.2044 5.31607 83.4413 5.87868 82.8787C6.44129 82.3161 7.20435 82 8 82Z" fill="#111111"/>
<path d="M3 82.5H1V88.5H3V82.5Z" fill="#111111"/>
<path d="M2 81C2.55228 81 3 80.5523 3 80C3 79.4477 2.55228 79 2 79C1.44772 79 1 79.4477 1 80C1 80.5523 1.44772 81 2 81Z" fill="#111111"/>
<path d="M34.6668 81.3333C35.7277 81.3333 36.7451 81.7547 37.4953 82.5049C38.2454 83.255 38.6668 84.2724 38.6668 85.3333V90H36.0002V85.3333C36.0002 84.9797 35.8597 84.6406 35.6096 84.3905C35.3596 84.1405 35.0205 84 34.6668 84C34.3132 84 33.9741 84.1405 33.724 84.3905C33.474 84.6406 33.3335 84.9797 33.3335 85.3333V90H30.6668V85.3333C30.6668 84.2724 31.0883 83.255 31.8384 82.5049C32.5885 81.7547 33.606 81.3333 34.6668 81.3333Z" fill="#111111"/>
<path d="M28.0002 82H25.3335V90H28.0002V82Z" fill="#111111"/>
<path d="M26.6668 80C27.4032 80 28.0002 79.403 28.0002 78.6666C28.0002 77.9303 27.4032 77.3333 26.6668 77.3333C25.9304 77.3333 25.3335 77.9303 25.3335 78.6666C25.3335 79.403 25.9304 80 26.6668 80Z" fill="#111111"/>
<path d="M65.3332 80.6667C66.6593 80.6667 67.931 81.1935 68.8687 82.1312C69.8064 83.0688 70.3332 84.3406 70.3332 85.6667V91.5H66.9998V85.6667C66.9998 85.2247 66.8242 84.8007 66.5117 84.4882C66.1991 84.1756 65.7752 84 65.3332 84C64.8911 84 64.4672 84.1756 64.1547 84.4882C63.8421 84.8007 63.6665 85.2247 63.6665 85.6667V91.5H60.3332V85.6667C60.3332 84.3406 60.86 83.0688 61.7976 82.1312C62.7353 81.1935 64.0071 80.6667 65.3332 80.6667Z" fill="#111111"/>
<path d="M56.9998 81.5H53.6665V91.5H56.9998V81.5Z" fill="#111111"/>
<path d="M55.3332 79C56.2536 79 56.9998 78.2538 56.9998 77.3334C56.9998 76.4129 56.2536 75.6667 55.3332 75.6667C54.4127 75.6667 53.6665 76.4129 53.6665 77.3334C53.6665 78.2538 54.4127 79 55.3332 79Z" fill="#111111"/>
<path d="M100 80C101.591 80 103.117 80.6321 104.243 81.7574C105.368 82.8826 106 84.4087 106 86V93H102V86C102 85.4696 101.789 84.9609 101.414 84.5858C101.039 84.2107 100.53 84 100 84C99.4696 84 98.9609 84.2107 98.5858 84.5858C98.2107 84.9609 98 85.4696 98 86V93H94V86C94 84.4087 94.6321 82.8826 95.7574 81.7574C96.8826 80.6321 98.4087 80 100 80Z" fill="#111111"/>
<path d="M90 81H86V93H90V81Z" fill="#111111"/>
<path d="M88 78C89.1046 78 90 77.1046 90 76C90 74.8954 89.1046 74 88 74C86.8954 74 86 74.8954 86 76C86 77.1046 86.8954 78 88 78Z" fill="#111111"/>
<path d="M141.333 78.6667C143.455 78.6667 145.49 79.5095 146.99 81.0098C148.49 82.5101 149.333 84.545 149.333 86.6667V96H144V86.6667C144 85.9594 143.719 85.2812 143.219 84.7811C142.719 84.281 142.04 84 141.333 84C140.626 84 139.948 84.281 139.448 84.7811C138.947 85.2812 138.667 85.9594 138.667 86.6667V96H133.333V86.6667C133.333 84.545 134.176 82.5101 135.676 81.0098C137.177 79.5095 139.211 78.6667 141.333 78.6667Z" fill="#111111"/>
<path d="M128 80H122.667V96H128V80Z" fill="#111111"/>
<path d="M125.333 76C126.806 76 128 74.8061 128 73.3334C128 71.8606 126.806 70.6667 125.333 70.6667C123.86 70.6667 122.667 71.8606 122.667 73.3334C122.667 74.8061 123.86 76 125.333 76Z" fill="#111111"/>
<path d="M190.667 77.3333C193.319 77.3333 195.863 78.3869 197.738 80.2622C199.613 82.1376 200.667 84.6811 200.667 87.3333V99H194V87.3333C194 86.4493 193.649 85.6014 193.024 84.9763C192.399 84.3512 191.551 84 190.667 84C189.783 84 188.935 84.3512 188.31 84.9763C187.685 85.6014 187.333 86.4493 187.333 87.3333V99H180.667V87.3333C180.667 84.6811 181.72 82.1376 183.596 80.2622C185.471 78.3869 188.015 77.3333 190.667 77.3333Z" fill="#111111"/>
<path d="M174 79H167.333V99H174V79Z" fill="#111111"/>
<path d="M170.667 74C172.508 74 174 72.5076 174 70.6666C174 68.8257 172.508 67.3333 170.667 67.3333C168.826 67.3333 167.333 68.8257 167.333 70.6666C167.333 72.5076 168.826 74 170.667 74Z" fill="#111111"/>
<path d="M248 76C251.183 76 254.235 77.2643 256.485 79.5147C258.736 81.7652 260 84.8174 260 88V102H252V88C252 86.9391 251.579 85.9217 250.828 85.1716C250.078 84.4214 249.061 84 248 84C246.939 84 245.922 84.4214 245.172 85.1716C244.421 85.9217 244 86.9391 244 88V102H236V88C236 84.8174 237.264 81.7652 239.515 79.5147C241.765 77.2643 244.817 76 248 76Z" fill="#111111"/>
<path d="M228 78H220V102H228V78Z" fill="#111111"/>
<path d="M224 72C226.209 72 228 70.2091 228 68C228 65.7909 226.209 64 224 64C221.791 64 220 65.7909 220 68C220 70.2091 221.791 72 224 72Z" fill="#111111"/>
</g>
<defs>
<clipPath id="clip0_4586_439">
<rect width="264" height="108" rx="5" fill="white"/>
</clipPath>
</defs>
</svg>
