<svg width="264" height="108" viewBox="0 0 264 108" fill="none" xmlns="http://www.w3.org/2000/svg">
<g clip-path="url(#clip0_2046_342)">
<path d="M6 24.6429V27.3291C6 27.9758 5.46487 28.5 4.80475 28.5H1.94569C1.2855 28.5 0.750242 27.9759 0.75 27.3291V20.6713C0.750241 20.0245 1.28543 19.5002 1.94569 19.5H3.04688M0.75 26.55H5.86667M9.82895 18.75H5.92105C5.13623 18.75 4.5 19.3862 4.5 20.1711V22.3026C4.5 23.0875 5.13623 23.7237 5.92105 23.7237H7.69737V25.5L9.47368 23.7237H9.82895C10.6138 23.7237 11.25 23.0875 11.25 22.3026V20.1711C11.25 19.3862 10.6138 18.75 9.82895 18.75ZM6.28125 21C6.12592 21 6 21.1259 6 21.2812C6 21.4366 6.12592 21.5625 6.28125 21.5625C6.43658 21.5625 6.5625 21.4366 6.5625 21.2812C6.5625 21.1259 6.43658 21 6.28125 21ZM7.78125 21C7.62592 21 7.5 21.1259 7.5 21.2812C7.5 21.4366 7.62592 21.5625 7.78125 21.5625C7.93658 21.5625 8.0625 21.4366 8.0625 21.2812C8.0625 21.1259 7.93658 21 7.78125 21ZM9.28125 21C9.12592 21 9 21.1259 9 21.2812C9 21.4366 9.12592 21.5625 9.28125 21.5625C9.43658 21.5625 9.5625 21.4366 9.5625 21.2812C9.5625 21.1259 9.43658 21 9.28125 21Z" stroke="#111111" stroke-width="0.75" stroke-linecap="round" stroke-linejoin="round"/>
<path d="M32 24.8571V28.4389C32 29.3011 31.2865 30 30.4063 30H26.5942C25.714 30 25.0003 29.3011 25 28.4389V19.5617C25.0003 18.6993 25.7139 18.0003 26.5942 18H28.0625M25 27.4H31.8222M37.1053 17H31.8947C30.8483 17 30 17.8483 30 18.8947V21.7368C30 22.7833 30.8483 23.6316 31.8947 23.6316H34.2632V26L36.6316 23.6316H37.1053C38.1517 23.6316 39 22.7833 39 21.7368V18.8947C39 17.8483 38.1517 17 37.1053 17ZM32.375 20C32.1679 20 32 20.1679 32 20.375C32 20.5821 32.1679 20.75 32.375 20.75C32.5821 20.75 32.75 20.5821 32.75 20.375C32.75 20.1679 32.5821 20 32.375 20ZM34.375 20C34.1679 20 34 20.1679 34 20.375C34 20.5821 34.1679 20.75 34.375 20.75C34.5821 20.75 34.75 20.5821 34.75 20.375C34.75 20.1679 34.5821 20 34.375 20ZM36.375 20C36.1679 20 36 20.1679 36 20.375C36 20.5821 36.1679 20.75 36.375 20.75C36.5821 20.75 36.75 20.5821 36.75 20.375C36.75 20.1679 36.5821 20 36.375 20Z" stroke="#111111" stroke-linecap="round" stroke-linejoin="round"/>
<path d="M62 25.0714V29.5486C62 30.6263 61.1081 31.5 60.0079 31.5H55.2428C54.1425 31.5 53.2504 30.6264 53.25 29.5486V18.4521C53.2504 17.3742 54.1424 16.5004 55.2428 16.5H57.0781M53.25 28.25H61.7778M68.3816 15.25H61.8684C60.5604 15.25 59.5 16.3104 59.5 17.6184V21.1711C59.5 22.4791 60.5604 23.5395 61.8684 23.5395H64.8289V26.5L67.7895 23.5395H68.3816C69.6896 23.5395 70.75 22.4791 70.75 21.1711V17.6184C70.75 16.3104 69.6896 15.25 68.3816 15.25ZM62.4688 19C62.2099 19 62 19.2099 62 19.4688C62 19.7276 62.2099 19.9375 62.4688 19.9375C62.7276 19.9375 62.9375 19.7276 62.9375 19.4688C62.9375 19.2099 62.7276 19 62.4688 19ZM64.9688 19C64.7099 19 64.5 19.2099 64.5 19.4688C64.5 19.7276 64.7099 19.9375 64.9688 19.9375C65.2276 19.9375 65.4375 19.7276 65.4375 19.4688C65.4375 19.2099 65.2276 19 64.9688 19ZM67.4688 19C67.2099 19 67 19.2099 67 19.4688C67 19.7276 67.2099 19.9375 67.4688 19.9375C67.7276 19.9375 67.9375 19.7276 67.9375 19.4688C67.9375 19.2099 67.7276 19 67.4688 19Z" stroke="#111111" stroke-width="1.25" stroke-linecap="round" stroke-linejoin="round"/>
<path d="M97 25.4286V31.3981C97 32.8351 95.7768 34 94.268 34H87.733C86.224 34 85.0006 32.8352 85 31.3981V16.6029C85.0006 15.1656 86.2238 14.0005 87.733 14H90.25M85 30.6H96.7333M104.053 13H95.9474C94.3196 13 93 14.3196 93 15.9474V20.3684C93 21.9962 94.3196 23.3158 95.9474 23.3158H99.6316V27L103.316 23.3158H104.053C105.68 23.3158 107 21.9962 107 20.3684V15.9474C107 14.3196 105.68 13 104.053 13ZM97.375 18C97.1679 18 97 18.1679 97 18.375C97 18.5821 97.1679 18.75 97.375 18.75C97.5821 18.75 97.75 18.5821 97.75 18.375C97.75 18.1679 97.5821 18 97.375 18ZM100.375 18C100.168 18 100 18.1679 100 18.375C100 18.5821 100.168 18.75 100.375 18.75C100.582 18.75 100.75 18.5821 100.75 18.375C100.75 18.1679 100.582 18 100.375 18ZM103.375 18C103.168 18 103 18.1679 103 18.375C103 18.5821 103.168 18.75 103.375 18.75C103.582 18.75 103.75 18.5821 103.75 18.375C103.75 18.1679 103.582 18 103.375 18Z" stroke="#111111" stroke-width="1.5" stroke-linecap="round" stroke-linejoin="round"/>
<path d="M136 25.7142V32.8777C136 34.602 134.573 35.9999 132.813 35.9999H125.188C123.428 35.9999 122.001 34.6022 122 32.8777V15.1234C122.001 13.3986 123.428 12.0006 125.188 11.9999H128.125M122 30.8H135.644M146.211 9.99994H135.789C133.697 9.99994 132 11.6965 132 13.7894V19.4736C132 21.5665 133.697 23.2631 135.789 23.2631H140.526V27.9999L145.263 23.2631H146.211C148.303 23.2631 150 21.5665 150 19.4736V13.7894C150 11.6965 148.303 9.99994 146.211 9.99994ZM136.75 15.9999C136.336 15.9999 136 16.3357 136 16.7499C136 17.1642 136.336 17.4999 136.75 17.4999C137.164 17.4999 137.5 17.1642 137.5 16.7499C137.5 16.3357 137.164 15.9999 136.75 15.9999ZM140.75 15.9999C140.336 15.9999 140 16.3357 140 16.7499C140 17.1642 140.336 17.4999 140.75 17.4999C141.164 17.4999 141.5 17.1642 141.5 16.7499C141.5 16.3357 141.164 15.9999 140.75 15.9999ZM144.75 15.9999C144.336 15.9999 144 16.3357 144 16.7499C144 17.1642 144.336 17.4999 144.75 17.4999C145.164 17.4999 145.5 17.1642 145.5 16.7499C145.5 16.3357 145.164 15.9999 144.75 15.9999Z" stroke="#111111" stroke-width="2" stroke-linecap="round" stroke-linejoin="round"/>
<path d="M184 26.1428V35.0971C184 37.2526 182.216 38.9999 180.016 38.9999H170.486C168.285 38.9999 166.501 37.2528 166.5 35.0971V12.9042C166.501 10.7483 168.285 9.00073 170.486 8.99994H174.156M166.5 32.5H183.556M196.763 6.49994H183.737C181.121 6.49994 179 8.6207 179 11.2368V18.342C179 20.9581 181.121 23.0789 183.737 23.0789H189.658V28.9999L195.579 23.0789H196.763C199.379 23.0789 201.5 20.9581 201.5 18.342V11.2368C201.5 8.6207 199.379 6.49994 196.763 6.49994ZM184.938 13.9999C184.42 13.9999 184 14.4197 184 14.9374C184 15.4552 184.42 15.8749 184.938 15.8749C185.455 15.8749 185.875 15.4552 185.875 14.9374C185.875 14.4197 185.455 13.9999 184.938 13.9999ZM189.938 13.9999C189.42 13.9999 189 14.4197 189 14.9374C189 15.4552 189.42 15.8749 189.938 15.8749C190.455 15.8749 190.875 15.4552 190.875 14.9374C190.875 14.4197 190.455 13.9999 189.938 13.9999ZM194.938 13.9999C194.42 13.9999 194 14.4197 194 14.9374C194 15.4552 194.42 15.8749 194.938 15.8749C195.455 15.8749 195.875 15.4552 195.875 14.9374C195.875 14.4197 195.455 13.9999 194.938 13.9999Z" stroke="#111111" stroke-width="2.5" stroke-linecap="round" stroke-linejoin="round"/>
<path d="M240 26.5714V37.3165C240 39.9031 237.859 41.9999 235.219 41.9999H223.783C221.142 41.9999 219.001 39.9034 219 37.3165V10.6851C219.001 8.09794 221.142 6.00089 223.783 5.99994H228.188M219 34.2H239.467M255.316 2.99994H239.684C236.545 2.99994 234 5.54485 234 8.68415V17.2105C234 20.3498 236.545 22.8947 239.684 22.8947H246.789V29.9999L253.895 22.8947H255.316C258.455 22.8947 261 20.3498 261 17.2105V8.68415C261 5.54485 258.455 2.99994 255.316 2.99994ZM241.125 11.9999C240.504 11.9999 240 12.5036 240 13.1249C240 13.7463 240.504 14.2499 241.125 14.2499C241.746 14.2499 242.25 13.7463 242.25 13.1249C242.25 12.5036 241.746 11.9999 241.125 11.9999ZM247.125 11.9999C246.504 11.9999 246 12.5036 246 13.1249C246 13.7463 246.504 14.2499 247.125 14.2499C247.746 14.2499 248.25 13.7463 248.25 13.1249C248.25 12.5036 247.746 11.9999 247.125 11.9999ZM253.125 11.9999C252.504 11.9999 252 12.5036 252 13.1249C252 13.7463 252.504 14.2499 253.125 14.2499C253.746 14.2499 254.25 13.7463 254.25 13.1249C254.25 12.5036 253.746 11.9999 253.125 11.9999Z" stroke="#111111" stroke-width="3" stroke-linecap="round" stroke-linejoin="round"/>
<path d="M8.64673 84.6383C8.64673 84.5029 8.59069 84.373 8.49093 84.2772C8.39117 84.1815 8.25588 84.1277 8.1148 84.1277C7.97372 84.1277 7.83842 84.1815 7.73867 84.2772C7.63891 84.373 7.58287 84.5029 7.58287 84.6383V87.4468C7.58287 87.5145 7.55485 87.5795 7.50497 87.6273C7.45509 87.6752 7.38744 87.7021 7.3169 87.7021H2.52953C2.45899 87.7021 2.39135 87.6752 2.34147 87.6273C2.29159 87.5795 2.26357 87.5145 2.26357 87.4468V79.5319C2.26357 79.3965 2.31961 79.2666 2.41937 79.1708C2.51912 79.0751 2.65442 79.0213 2.7955 79.0213H3.32743C3.4685 79.0213 3.6038 78.9675 3.70356 78.8717C3.80332 78.776 3.85936 78.6461 3.85936 78.5106C3.85936 78.3752 3.80332 78.2453 3.70356 78.1496C3.6038 78.0538 3.4685 78 3.32743 78H2.7955C2.37227 78 1.96637 78.1614 1.6671 78.4487C1.36783 78.736 1.19971 79.1256 1.19971 79.5319V88.4681C1.19971 88.8744 1.36783 89.264 1.6671 89.5513C1.96637 89.8386 2.37227 90 2.7955 90H7.05094C7.47417 90 7.88006 89.8386 8.17933 89.5513C8.4786 89.264 8.64673 88.8744 8.64673 88.4681V84.6383Z" fill="#111111"/>
<path d="M6.64327 81.1557C6.99673 81.1557 7.28327 80.87 7.28327 80.5174C7.28327 80.1649 6.99673 79.8791 6.64327 79.8791C6.28981 79.8791 6.00327 80.1649 6.00327 80.5174C6.00327 80.87 6.28981 81.1557 6.64327 81.1557Z" fill="#111111"/>
<path d="M8.77077 81.1557C9.12423 81.1557 9.41077 80.87 9.41077 80.5174C9.41077 80.1649 9.12423 79.8791 8.77077 79.8791C8.41731 79.8791 8.13077 80.1649 8.13077 80.5174C8.13077 80.87 8.41731 81.1557 8.77077 81.1557Z" fill="#111111"/>
<path d="M11.1998 80.5123C11.1984 79.9033 10.9458 79.3196 10.4972 78.889C10.0486 78.4583 9.44055 78.2158 8.80614 78.2145H6.41245C5.77761 78.2145 5.16876 78.4566 4.71986 78.8875C4.27096 79.3184 4.01877 79.9029 4.01877 80.5123C4.01877 81.1218 4.27096 81.7062 4.71986 82.1372C5.16876 82.5681 5.77761 82.8102 6.41245 82.8102H6.54543C6.5807 82.8102 6.61453 82.8237 6.63947 82.8476C6.66441 82.8715 6.67842 82.904 6.67842 82.9379V83.4485C6.67874 83.5179 6.69871 83.5859 6.73618 83.6453C6.77366 83.7047 6.82724 83.7531 6.89119 83.7855C6.94826 83.8156 7.01228 83.8314 7.07737 83.8315C7.15683 83.8298 7.23423 83.8068 7.30078 83.7651L8.76358 82.8306C8.78599 82.8232 8.81033 82.8232 8.83274 82.8306C9.46622 82.8226 10.0707 82.5743 10.5141 82.1399C10.9576 81.7056 11.2041 81.1205 11.1998 80.5123ZM8.67316 82.0443C8.59417 82.0441 8.51674 82.0654 8.44975 82.1055L7.68377 82.6162C7.66258 82.6273 7.63879 82.6332 7.61461 82.6332C7.59044 82.6332 7.56665 82.6273 7.54546 82.6162C7.52448 82.6051 7.50698 82.5889 7.49481 82.5691C7.48264 82.5494 7.47625 82.5268 7.47631 82.5038V82.4272C7.47631 82.3257 7.43428 82.2283 7.35946 82.1564C7.28465 82.0846 7.18317 82.0443 7.07737 82.0443H6.41245C5.98922 82.0443 5.58333 81.8829 5.28406 81.5956C4.98479 81.3083 4.81666 80.9186 4.81666 80.5123C4.81666 80.1061 4.98479 79.7164 5.28406 79.4291C5.58333 79.1418 5.98922 78.9804 6.41245 78.9804H8.80614C9.22937 78.9804 9.63526 79.1418 9.93453 79.4291C10.2338 79.7164 10.4019 80.1061 10.4019 80.5123C10.4019 80.9186 10.2338 81.3083 9.93453 81.5956C9.63526 81.8829 9.22937 82.0443 8.80614 82.0443H8.67316Z" fill="#111111"/>
<path d="M35.529 84.8511C35.529 84.6705 35.4542 84.4973 35.3212 84.3696C35.1882 84.2419 35.0078 84.1702 34.8197 84.1702C34.6316 84.1702 34.4512 84.2419 34.3182 84.3696C34.1852 84.4973 34.1105 84.6705 34.1105 84.8511V88.5957C34.1105 88.686 34.0731 88.7726 34.0066 88.8365C33.9401 88.9003 33.8499 88.9362 33.7559 88.9362H27.3727C27.2787 88.9362 27.1885 88.9003 27.122 88.8365C27.0555 88.7726 27.0181 88.686 27.0181 88.5957V78.0426C27.0181 77.862 27.0928 77.6888 27.2258 77.5611C27.3588 77.4334 27.5392 77.3617 27.7273 77.3617H28.4366C28.6247 77.3617 28.8051 77.29 28.9381 77.1623C29.0711 77.0346 29.1458 76.8614 29.1458 76.6809C29.1458 76.5003 29.0711 76.3271 28.9381 76.1994C28.8051 76.0717 28.6247 76 28.4366 76H27.7273C27.163 76 26.6218 76.2152 26.2228 76.5982C25.8238 76.9813 25.5996 77.5008 25.5996 78.0426V89.9574C25.5996 90.4992 25.8238 91.0187 26.2228 91.4018C26.6218 91.7848 27.163 92 27.7273 92H33.4013C33.9656 92 34.5068 91.7848 34.9058 91.4018C35.3048 91.0187 35.529 90.4992 35.529 89.9574V84.8511Z" fill="#111111"/>
<path d="M32.8577 80.2077C33.329 80.2077 33.711 79.8266 33.711 79.3566C33.711 78.8866 33.329 78.5055 32.8577 78.5055C32.3864 78.5055 32.0044 78.8866 32.0044 79.3566C32.0044 79.8266 32.3864 80.2077 32.8577 80.2077Z" fill="#111111"/>
<path d="M35.6944 80.2077C36.1656 80.2077 36.5477 79.8266 36.5477 79.3566C36.5477 78.8866 36.1656 78.5055 35.6944 78.5055C35.2231 78.5055 34.841 78.8866 34.841 79.3566C34.841 79.8266 35.2231 80.2077 35.6944 80.2077Z" fill="#111111"/>
<path d="M38.9331 79.3498C38.9312 78.5378 38.5944 77.7595 37.9962 77.1853C37.3981 76.6111 36.5874 76.2878 35.7415 76.286H32.5499C31.7035 76.286 30.8917 76.6088 30.2931 77.1833C29.6946 77.7579 29.3584 78.5372 29.3584 79.3498C29.3584 80.1624 29.6946 80.9417 30.2931 81.5162C30.8917 82.0908 31.7035 82.4136 32.5499 82.4136H32.7272C32.7743 82.4136 32.8194 82.4316 32.8526 82.4635C32.8859 82.4954 32.9046 82.5387 32.9046 82.5838V83.2647C32.905 83.3572 32.9316 83.4479 32.9816 83.5271C33.0315 83.6062 33.103 83.6709 33.1883 83.714C33.2643 83.7541 33.3497 83.7752 33.4365 83.7753C33.5424 83.7731 33.6456 83.7424 33.7344 83.6868L35.6848 82.4409C35.7147 82.431 35.7471 82.431 35.777 82.4409C36.6216 82.4301 37.4275 82.099 38.0188 81.5199C38.6101 80.9408 38.9388 80.1607 38.9331 79.3498ZM35.5642 81.3923C35.4589 81.3922 35.3556 81.4205 35.2663 81.474L34.245 82.1549C34.2168 82.1698 34.1851 82.1776 34.1528 82.1776C34.1206 82.1776 34.0889 82.1698 34.0606 82.1549C34.0326 82.1402 34.0093 82.1185 33.9931 82.0922C33.9768 82.0658 33.9683 82.0357 33.9684 82.0051V81.903C33.9684 81.7676 33.9124 81.6377 33.8126 81.5419C33.7129 81.4461 33.5776 81.3923 33.4365 81.3923H32.5499C31.9856 81.3923 31.4444 81.1771 31.0454 80.7941C30.6464 80.411 30.4222 79.8915 30.4222 79.3498C30.4222 78.8081 30.6464 78.2885 31.0454 77.9055C31.4444 77.5224 31.9856 77.3072 32.5499 77.3072H35.7415C36.3058 77.3072 36.847 77.5224 37.246 77.9055C37.6451 78.2885 37.8692 78.8081 37.8692 79.3498C37.8692 79.8915 37.6451 80.411 37.246 80.7941C36.847 81.1771 36.3058 81.3923 35.7415 81.3923H35.5642Z" fill="#111111"/>
<path d="M66.4112 85.0638C66.4112 84.8381 66.3178 84.6216 66.1516 84.462C65.9853 84.3024 65.7598 84.2128 65.5247 84.2128C65.2895 84.2128 65.064 84.3024 64.8978 84.462C64.7315 84.6216 64.6381 84.8381 64.6381 85.0638V89.7447C64.6381 89.8575 64.5914 89.9658 64.5083 90.0456C64.4252 90.1254 64.3124 90.1702 64.1948 90.1702H56.2159C56.0983 90.1702 55.9856 90.1254 55.9024 90.0456C55.8193 89.9658 55.7726 89.8575 55.7726 89.7447V76.5532C55.7726 76.3275 55.866 76.111 56.0323 75.9514C56.1985 75.7918 56.424 75.7021 56.6592 75.7021H57.5457C57.7808 75.7021 58.0063 75.6125 58.1726 75.4529C58.3389 75.2933 58.4323 75.0768 58.4323 74.8511C58.4323 74.6253 58.3389 74.4089 58.1726 74.2493C58.0063 74.0897 57.7808 74 57.5457 74H56.6592C55.9538 74 55.2773 74.269 54.7785 74.7478C54.2797 75.2266 53.9995 75.876 53.9995 76.5532V91.4468C53.9995 92.124 54.2797 92.7734 54.7785 93.2522C55.2773 93.731 55.9538 94 56.6592 94H63.7516C64.4569 94 65.1334 93.731 65.6322 93.2522C66.131 92.7734 66.4112 92.124 66.4112 91.4468V85.0638Z" fill="#111111"/>
<path d="M63.0721 79.2596C63.6612 79.2596 64.1388 78.7833 64.1388 78.1957C64.1388 77.6082 63.6612 77.1319 63.0721 77.1319C62.483 77.1319 62.0054 77.6082 62.0054 78.1957C62.0054 78.7833 62.483 79.2596 63.0721 79.2596Z" fill="#111111"/>
<path d="M66.6179 79.2596C67.207 79.2596 67.6846 78.7833 67.6846 78.1957C67.6846 77.6082 67.207 77.1319 66.6179 77.1319C66.0288 77.1319 65.5513 77.6082 65.5513 78.1957C65.5513 78.7833 66.0288 79.2596 66.6179 79.2596Z" fill="#111111"/>
<path d="M70.6664 78.1872C70.664 77.1722 70.243 76.1994 69.4953 75.4817C68.7476 74.7639 67.7343 74.3597 66.6769 74.3574H62.6874C61.6293 74.3574 60.6146 74.7609 59.8664 75.4792C59.1183 76.1974 58.6979 77.1715 58.6979 78.1872C58.6979 79.203 59.1183 80.1771 59.8664 80.8953C60.6146 81.6135 61.6293 82.017 62.6874 82.017H62.9091C62.9678 82.017 63.0242 82.0394 63.0658 82.0793C63.1073 82.1192 63.1307 82.1734 63.1307 82.2298V83.0809C63.1312 83.1965 63.1645 83.3099 63.227 83.4089C63.2894 83.5078 63.3787 83.5886 63.4853 83.6426C63.5804 83.6926 63.6871 83.719 63.7956 83.7192C63.9281 83.7164 64.057 83.6781 64.168 83.6085L66.606 82.0511C66.6433 82.0387 66.6839 82.0387 66.7212 82.0511C67.777 82.0376 68.7844 81.6238 69.5235 80.8999C70.2627 80.176 70.6735 79.2008 70.6664 78.1872ZM66.4553 80.7404C66.3236 80.7402 66.1946 80.7756 66.0829 80.8426L64.8063 81.6936C64.771 81.7122 64.7313 81.722 64.691 81.722C64.6507 81.722 64.6111 81.7122 64.5758 81.6936C64.5408 81.6752 64.5116 81.6482 64.4913 81.6152C64.4711 81.5823 64.4604 81.5447 64.4605 81.5064V81.3787C64.4605 81.2094 64.3905 81.0471 64.2658 80.9274C64.1411 80.8077 63.972 80.7404 63.7956 80.7404H62.6874C61.982 80.7404 61.3055 80.4714 60.8068 79.9926C60.308 79.5138 60.0278 78.8644 60.0278 78.1872C60.0278 77.5101 60.308 76.8607 60.8068 76.3819C61.3055 75.903 61.982 75.634 62.6874 75.634H66.6769C67.3823 75.634 68.0588 75.903 68.5576 76.3819C69.0563 76.8607 69.3365 77.5101 69.3365 78.1872C69.3365 78.8644 69.0563 79.5138 68.5576 79.9926C68.0588 80.4714 67.3823 80.7404 66.6769 80.7404H66.4553Z" fill="#111111"/>
<path d="M101.293 85.2766C101.293 85.0057 101.181 84.746 100.982 84.5544C100.782 84.3629 100.512 84.2553 100.23 84.2553C99.9474 84.2553 99.6768 84.3629 99.4773 84.5544C99.2778 84.746 99.1657 85.0057 99.1657 85.2766V90.8936C99.1657 91.029 99.1097 91.1589 99.0099 91.2547C98.9102 91.3505 98.7749 91.4043 98.6338 91.4043H89.0591C88.918 91.4043 88.7827 91.3505 88.6829 91.2547C88.5832 91.1589 88.5271 91.029 88.5271 90.8936V75.0638C88.5271 74.793 88.6392 74.5332 88.8387 74.3417C89.0382 74.1502 89.3088 74.0426 89.591 74.0426H90.6549C90.937 74.0426 91.2076 73.935 91.4071 73.7434C91.6066 73.5519 91.7187 73.2921 91.7187 73.0213C91.7187 72.7504 91.6066 72.4907 91.4071 72.2991C91.2076 72.1076 90.937 72 90.6549 72H89.591C88.7445 72 87.9327 72.3228 87.3342 72.8974C86.7357 73.472 86.3994 74.2513 86.3994 75.0638V92.9362C86.3994 93.7487 86.7357 94.528 87.3342 95.1026C87.9327 95.6772 88.7445 96 89.591 96H98.1019C98.9483 96 99.7601 95.6772 100.359 95.1026C100.957 94.528 101.293 93.7487 101.293 92.9362V85.2766Z" fill="#111111"/>
<path d="M97.2865 78.3115C97.9935 78.3115 98.5665 77.7399 98.5665 77.0349C98.5665 76.3298 97.9935 75.7583 97.2865 75.7583C96.5796 75.7583 96.0065 76.3298 96.0065 77.0349C96.0065 77.7399 96.5796 78.3115 97.2865 78.3115Z" fill="#111111"/>
<path d="M101.542 78.3115C102.248 78.3115 102.822 77.7399 102.822 77.0349C102.822 76.3298 102.248 75.7583 101.542 75.7583C100.835 75.7583 100.262 76.3298 100.262 77.0349C100.262 77.7399 100.835 78.3115 101.542 78.3115Z" fill="#111111"/>
<path d="M106.4 77.0247C106.397 75.8066 105.892 74.6393 104.994 73.778C104.097 72.9167 102.881 72.4316 101.612 72.4289H96.8249C95.5552 72.4289 94.3375 72.9131 93.4397 73.775C92.5419 74.6369 92.0375 75.8058 92.0375 77.0247C92.0375 78.2436 92.5419 79.4125 93.4397 80.2744C94.3375 81.1362 95.5552 81.6204 96.8249 81.6204H97.0909C97.1614 81.6204 97.2291 81.6473 97.2789 81.6952C97.3288 81.7431 97.3568 81.808 97.3568 81.8757V82.897C97.3575 83.0359 97.3974 83.1719 97.4724 83.2906C97.5473 83.4093 97.6545 83.5063 97.7824 83.5711C97.8965 83.6312 98.0246 83.6628 98.1547 83.663C98.3137 83.6597 98.4685 83.6137 98.6016 83.5302L101.527 81.6613C101.572 81.6465 101.621 81.6465 101.665 81.6613C102.932 81.6451 104.141 81.1485 105.028 80.2799C105.915 79.4112 106.408 78.241 106.4 77.0247ZM101.346 80.0885C101.188 80.0882 101.033 80.1307 100.899 80.2111L99.3675 81.2323C99.3252 81.2547 99.2776 81.2664 99.2292 81.2664C99.1809 81.2664 99.1333 81.2547 99.0909 81.2323C99.049 81.2103 99.014 81.1778 98.9896 81.1382C98.9653 81.0987 98.9525 81.0536 98.9526 81.0077V80.8545C98.9526 80.6513 98.8686 80.4565 98.7189 80.3129C98.5693 80.1692 98.3663 80.0885 98.1547 80.0885H96.8249C95.9784 80.0885 95.1667 79.7657 94.5681 79.1911C93.9696 78.6166 93.6333 77.8373 93.6333 77.0247C93.6333 76.2121 93.9696 75.4328 94.5681 74.8582C95.1667 74.2836 95.9784 73.9609 96.8249 73.9609H101.612C102.459 73.9609 103.271 74.2836 103.869 74.8582C104.468 75.4328 104.804 76.2121 104.804 77.0247C104.804 77.8373 104.468 78.6166 103.869 79.1911C103.271 79.7657 102.459 80.0885 101.612 80.0885H101.346Z" fill="#111111"/>
<path d="M143.058 85.7021C143.058 85.341 142.908 84.9946 142.642 84.7393C142.376 84.4839 142.016 84.3404 141.639 84.3404C141.263 84.3404 140.902 84.4839 140.636 84.7393C140.37 84.9946 140.221 85.341 140.221 85.7021V93.1915C140.221 93.3721 140.146 93.5452 140.013 93.6729C139.88 93.8006 139.7 93.8723 139.512 93.8723H126.745C126.557 93.8723 126.377 93.8006 126.244 93.6729C126.111 93.5452 126.036 93.3721 126.036 93.1915V72.0851C126.036 71.724 126.186 71.3776 126.452 71.1222C126.718 70.8669 127.078 70.7234 127.455 70.7234H128.873C129.249 70.7234 129.61 70.5799 129.876 70.3246C130.142 70.0692 130.292 69.7228 130.292 69.3617C130.292 69.0006 130.142 68.6542 129.876 68.3988C129.61 68.1435 129.249 68 128.873 68H127.455C126.326 68 125.244 68.4304 124.446 69.1965C123.648 69.9626 123.199 71.0017 123.199 72.0851V95.9149C123.199 96.9983 123.648 98.0374 124.446 98.8035C125.244 99.5696 126.326 100 127.455 100H138.803C139.931 100 141.014 99.5696 141.812 98.8035C142.61 98.0374 143.058 96.9983 143.058 95.9149V85.7021Z" fill="#111111"/>
<path d="M137.715 76.4153C138.658 76.4153 139.422 75.6532 139.422 74.7132C139.422 73.7731 138.658 73.011 137.715 73.011C136.773 73.011 136.009 73.7731 136.009 74.7132C136.009 75.6532 136.773 76.4153 137.715 76.4153Z" fill="#111111"/>
<path d="M143.389 76.4153C144.331 76.4153 145.095 75.6532 145.095 74.7132C145.095 73.7731 144.331 73.011 143.389 73.011C142.446 73.011 141.682 73.7731 141.682 74.7132C141.682 75.6532 142.446 76.4153 143.389 76.4153Z" fill="#111111"/>
<path d="M149.866 74.6996C149.862 73.0755 149.189 71.519 147.992 70.3706C146.796 69.2223 145.175 68.5755 143.483 68.5719H137.1C135.407 68.5719 133.783 69.2175 132.586 70.3667C131.389 71.5158 130.717 73.0744 130.717 74.6996C130.717 76.3247 131.389 77.8833 132.586 79.0325C133.783 80.1816 135.407 80.8272 137.1 80.8272H137.454C137.549 80.8272 137.639 80.8631 137.705 80.9269C137.772 80.9908 137.809 81.0774 137.809 81.1677V82.5294C137.81 82.7145 137.863 82.8959 137.963 83.0542C138.063 83.2125 138.206 83.3417 138.377 83.4281C138.529 83.5082 138.699 83.5504 138.873 83.5506C139.085 83.5462 139.291 83.4849 139.469 83.3736L143.37 80.8817C143.429 80.862 143.494 80.862 143.554 80.8817C145.243 80.8602 146.855 80.198 148.038 79.0398C149.22 77.8816 149.878 76.3214 149.866 74.6996ZM143.128 78.7847C142.918 78.7843 142.711 78.841 142.533 78.9481L140.49 80.3098C140.434 80.3396 140.37 80.3552 140.306 80.3552C140.241 80.3552 140.178 80.3396 140.121 80.3098C140.065 80.2804 140.019 80.2371 139.986 80.1843C139.954 80.1316 139.937 80.0715 139.937 80.0102V79.806C139.937 79.5351 139.825 79.2753 139.625 79.0838C139.426 78.8923 139.155 78.7847 138.873 78.7847H137.1C135.971 78.7847 134.889 78.3543 134.091 77.5882C133.293 76.8221 132.844 75.783 132.844 74.6996C132.844 73.6161 133.293 72.5771 134.091 71.811C134.889 71.0449 135.971 70.6145 137.1 70.6145H143.483C144.612 70.6145 145.694 71.0449 146.492 71.811C147.29 72.5771 147.738 73.6161 147.738 74.6996C147.738 75.783 147.29 76.8221 146.492 77.5882C145.694 78.3543 144.612 78.7847 143.483 78.7847H143.128Z" fill="#111111"/>
<path d="M192.822 86.1277C192.822 85.6762 192.636 85.2433 192.303 84.9241C191.971 84.6049 191.52 84.4255 191.049 84.4255C190.579 84.4255 190.128 84.6049 189.796 84.9241C189.463 85.2433 189.276 85.6762 189.276 86.1277V95.4894C189.276 95.7151 189.183 95.9315 189.017 96.0912C188.85 96.2508 188.625 96.3404 188.39 96.3404H172.432C172.197 96.3404 171.971 96.2508 171.805 96.0912C171.639 95.9315 171.545 95.7151 171.545 95.4894V69.1064C171.545 68.655 171.732 68.222 172.065 67.9028C172.397 67.5836 172.848 67.4043 173.318 67.4043H175.091C175.562 67.4043 176.013 67.2249 176.345 66.9057C176.678 66.5865 176.865 66.1536 176.865 65.7021C176.865 65.2507 176.678 64.8178 176.345 64.4985C176.013 64.1793 175.562 64 175.091 64H173.318C171.908 64 170.555 64.538 169.557 65.4956C168.559 66.4533 167.999 67.7521 167.999 69.1064V98.8936C167.999 100.248 168.559 101.547 169.557 102.504C170.555 103.462 171.908 104 173.318 104H187.503C188.914 104 190.267 103.462 191.264 102.504C192.262 101.547 192.822 100.248 192.822 98.8936V86.1277Z" fill="#111111"/>
<path d="M186.144 74.5191C187.322 74.5191 188.278 73.5665 188.278 72.3915C188.278 71.2164 187.322 70.2638 186.144 70.2638C184.966 70.2638 184.011 71.2164 184.011 72.3915C184.011 73.5665 184.966 74.5191 186.144 74.5191Z" fill="#111111"/>
<path d="M193.236 74.5191C194.414 74.5191 195.369 73.5665 195.369 72.3915C195.369 71.2164 194.414 70.2638 193.236 70.2638C192.058 70.2638 191.103 71.2164 191.103 72.3915C191.103 73.5665 192.058 74.5191 193.236 74.5191Z" fill="#111111"/>
<path d="M201.333 72.3745C201.328 70.3444 200.486 68.3988 198.991 66.9633C197.495 65.5278 195.469 64.7194 193.354 64.7149H185.375C183.259 64.7149 181.229 65.5219 179.733 66.9583C178.237 68.3948 177.396 70.343 177.396 72.3745C177.396 74.4059 178.237 76.3542 179.733 77.7906C181.229 79.2271 183.259 80.034 185.375 80.034H185.818C185.936 80.034 186.048 80.0789 186.132 80.1587C186.215 80.2385 186.261 80.3467 186.261 80.4596V82.1617C186.262 82.3931 186.329 82.6198 186.454 82.8177C186.579 83.0156 186.757 83.1771 186.971 83.2851C187.161 83.3853 187.374 83.438 187.591 83.4383C187.856 83.4328 188.114 83.3561 188.336 83.217L193.212 80.1021C193.287 80.0775 193.368 80.0775 193.442 80.1021C195.554 80.0752 197.569 79.2475 199.047 77.7998C200.525 76.352 201.347 74.4017 201.333 72.3745ZM192.911 77.4809C192.647 77.4804 192.389 77.5512 192.166 77.6851L189.613 79.3872C189.542 79.4245 189.463 79.444 189.382 79.444C189.301 79.444 189.222 79.4245 189.152 79.3872C189.082 79.3505 189.023 79.2963 188.983 79.2304C188.942 79.1645 188.921 79.0893 188.921 79.0128V78.7575C188.921 78.4189 188.781 78.0942 188.532 77.8548C188.282 77.6154 187.944 77.4809 187.591 77.4809H185.375C183.964 77.4809 182.611 76.9429 181.614 75.9852C180.616 75.0276 180.056 73.7288 180.056 72.3745C180.056 71.0202 180.616 69.7213 181.614 68.7637C182.611 67.8061 183.964 67.2681 185.375 67.2681H193.354C194.765 67.2681 196.118 67.8061 197.115 68.7637C198.113 69.7213 198.673 71.0202 198.673 72.3745C198.673 73.7288 198.113 75.0276 197.115 75.9852C196.118 76.9429 194.765 77.4809 193.354 77.4809H192.911Z" fill="#111111"/>
<path d="M250.587 86.5532C250.587 86.0115 250.363 85.4919 249.964 85.1089C249.565 84.7258 249.024 84.5106 248.459 84.5106C247.895 84.5106 247.354 84.7258 246.955 85.1089C246.556 85.4919 246.331 86.0115 246.331 86.5532V97.7872C246.331 98.0581 246.219 98.3179 246.02 98.5094C245.82 98.7009 245.55 98.8085 245.268 98.8085H226.118C225.836 98.8085 225.565 98.7009 225.366 98.5094C225.166 98.3179 225.054 98.0581 225.054 97.7872V66.1277C225.054 65.5859 225.278 65.0664 225.677 64.6834C226.076 64.3003 226.618 64.0851 227.182 64.0851H229.31C229.874 64.0851 230.415 63.8699 230.814 63.4869C231.213 63.1038 231.437 62.5843 231.437 62.0426C231.437 61.5008 231.213 60.9813 230.814 60.5983C230.415 60.2152 229.874 60 229.31 60H227.182C225.489 60 223.865 60.6456 222.668 61.7947C221.471 62.9439 220.799 64.5025 220.799 66.1277V101.872C220.799 103.497 221.471 105.056 222.668 106.205C223.865 107.354 225.489 108 227.182 108H244.204C245.897 108 247.52 107.354 248.717 106.205C249.914 105.056 250.587 103.497 250.587 101.872V86.5532Z" fill="#111111"/>
<path d="M242.573 72.623C243.987 72.623 245.133 71.4799 245.133 70.0698C245.133 68.6597 243.987 67.5166 242.573 67.5166C241.159 67.5166 240.013 68.6597 240.013 70.0698C240.013 71.4799 241.159 72.623 242.573 72.623Z" fill="#111111"/>
<path d="M251.083 72.623C252.497 72.623 253.643 71.4799 253.643 70.0698C253.643 68.6597 252.497 67.5166 251.083 67.5166C249.669 67.5166 248.523 68.6597 248.523 70.0698C248.523 71.4799 249.669 72.623 251.083 72.623Z" fill="#111111"/>
<path d="M260.799 70.0494C260.794 67.6133 259.783 65.2785 257.989 63.556C256.194 61.8334 253.762 60.8633 251.225 60.8579H241.65C239.11 60.8579 236.675 61.8263 234.879 63.55C233.084 65.2737 232.075 67.6116 232.075 70.0494C232.075 72.4871 233.084 74.825 234.879 76.5487C236.675 78.2725 239.11 79.2409 241.65 79.2409H242.182C242.323 79.2409 242.458 79.2947 242.558 79.3904C242.658 79.4862 242.714 79.6161 242.714 79.7515V81.7941C242.715 82.0717 242.795 82.3438 242.945 82.5812C243.095 82.8187 243.309 83.0126 243.565 83.1421C243.793 83.2624 244.049 83.3256 244.309 83.326C244.627 83.3193 244.937 83.2273 245.203 83.0604L251.054 79.3226C251.144 79.293 251.241 79.293 251.331 79.3226C253.865 79.2903 256.283 78.2971 258.056 76.5597C259.83 74.8224 260.816 72.482 260.799 70.0494ZM250.693 76.177C250.377 76.1765 250.067 76.2614 249.799 76.4221L246.735 78.4647C246.65 78.5094 246.555 78.5328 246.458 78.5328C246.362 78.5328 246.267 78.5094 246.182 78.4647C246.098 78.4206 246.028 78.3556 245.979 78.2765C245.931 78.1974 245.905 78.1072 245.905 78.0153V77.7089C245.905 77.3027 245.737 76.913 245.438 76.6257C245.139 76.3384 244.733 76.177 244.309 76.177H241.65C239.957 76.177 238.333 75.5314 237.136 74.3823C235.939 73.2331 235.267 71.6745 235.267 70.0494C235.267 68.4242 235.939 66.8656 237.136 65.7165C238.333 64.5673 239.957 63.9217 241.65 63.9217H251.225C252.917 63.9217 254.541 64.5673 255.738 65.7165C256.935 66.8656 257.608 68.4242 257.608 70.0494C257.608 71.6745 256.935 73.2331 255.738 74.3823C254.541 75.5314 252.917 76.177 251.225 76.177H250.693Z" fill="#111111"/>
</g>
<defs>
<clipPath id="clip0_2046_342">
<rect width="264" height="108" rx="5" fill="white"/>
</clipPath>
</defs>
</svg>
