<svg width="264" height="108" viewBox="0 0 264 108" fill="none" xmlns="http://www.w3.org/2000/svg">
<g clip-path="url(#clip0_2180_418)">
<path d="M6.84225 19.8768C5.60718 20.7005 5.80835 21.8777 5.88475 22.273C3.5792 22.1373 2.07216 20.8335 1.49095 20.2279C1.36144 20.093 1.12588 20.1235 1.07176 20.302C0.48849 22.2249 2.47498 23.9772 2.47498 23.9772C2.1238 23.9772 1.42247 23.8589 1.02101 23.7854C0.865343 23.757 0.720865 23.876 0.755068 24.0294C1.01642 25.2013 2.69948 26.4908 3.79885 26.4616C3.10298 27.1168 2.21885 27.3589 1.53666 27.4412C1.27367 27.4729 1.16482 27.8636 1.40687 27.9704C5.5644 29.8058 10.6237 26.6648 10.3661 21.7203L11.2039 20.5374C11.3238 20.3682 11.1952 20.1361 10.9869 20.1459L9.75642 20.2039C9.26682 19.6292 7.96228 19.1298 6.84225 19.8768Z" stroke="#111111" stroke-width="0.75" stroke-linecap="round" stroke-linejoin="round"/>
<path d="M33.123 18.5024C31.4762 19.6007 31.7445 21.1702 31.8463 21.6973C28.7723 21.5164 26.7629 19.778 25.9879 18.9706C25.8153 18.7907 25.5012 18.8314 25.429 19.0693C24.6513 21.6332 27.3 23.9696 27.3 23.9696C26.8317 23.9696 25.8966 23.8118 25.3614 23.7139C25.1538 23.6759 24.9612 23.8347 25.0068 24.0392C25.3552 25.6018 27.5993 27.3211 29.0651 27.2821C28.1373 28.1558 26.9585 28.4786 26.0489 28.5882C25.6982 28.6305 25.5531 29.1514 25.8758 29.2939C31.4192 31.7411 38.165 27.553 37.8215 20.9604L38.9385 19.3832C39.0984 19.1575 38.9269 18.8481 38.6493 18.8612L37.0086 18.9386C36.3558 18.1723 34.6164 17.5064 33.123 18.5024Z" stroke="#111111" stroke-linecap="round" stroke-linejoin="round"/>
<path d="M63.4038 17.128C61.3453 18.5009 61.6806 20.4628 61.8079 21.1216C57.9653 20.8955 55.4536 18.7225 54.4849 17.7132C54.2691 17.4883 53.8765 17.5392 53.7863 17.8366C52.8142 21.0415 56.125 23.962 56.125 23.962C55.5397 23.962 54.3708 23.7648 53.7017 23.6424C53.4422 23.5949 53.2014 23.7934 53.2584 24.049C53.694 26.0022 56.4991 28.1514 58.3314 28.1026C57.1716 29.1947 55.6981 29.5982 54.5611 29.7353C54.1228 29.7881 53.9414 30.4393 54.3448 30.6174C61.274 33.6763 69.7062 28.4412 69.2769 20.2005L70.6732 18.229C70.873 17.9469 70.6586 17.5602 70.3116 17.5765L68.2607 17.6732C67.4447 16.7154 65.2705 15.883 63.4038 17.128Z" stroke="#111111" stroke-width="1.25" stroke-linecap="round" stroke-linejoin="round"/>
<path d="M97.6845 15.7536C95.2144 17.401 95.6167 19.7553 95.7695 20.5459C91.1584 20.2746 88.1443 17.667 86.9819 16.4559C86.7229 16.186 86.2518 16.2471 86.1435 16.604C84.977 20.4497 88.95 23.9544 88.95 23.9544C88.2476 23.9544 86.8449 23.7177 86.042 23.5709C85.7307 23.5139 85.4417 23.752 85.5101 24.0588C86.0328 26.4026 89.399 28.9816 91.5977 28.9231C90.206 30.2336 88.4377 30.7179 87.0733 30.8824C86.5473 30.9458 86.3296 31.7271 86.8137 31.9408C95.1288 35.6116 105.247 29.3295 104.732 19.4406L106.408 17.0748C106.648 16.7363 106.39 16.2722 105.974 16.2919L103.513 16.4078C102.534 15.2584 99.9246 14.2596 97.6845 15.7536Z" stroke="#111111" stroke-width="1.5" stroke-linecap="round" stroke-linejoin="round"/>
<path d="M138.246 13.0048C134.952 15.2014 135.489 18.3404 135.693 19.3945C129.545 19.0327 125.526 15.556 123.976 13.9411C123.631 13.5813 123.002 13.6628 122.858 14.1386C121.303 19.2663 126.6 23.9391 126.6 23.9391C125.663 23.9391 123.793 23.6236 122.723 23.4278C122.308 23.3519 121.922 23.6694 122.014 24.0784C122.71 27.2035 127.199 30.6422 130.13 30.5642C128.275 32.3115 125.917 32.9571 124.098 33.1765C123.396 33.261 123.106 34.3029 123.752 34.5878C134.838 39.4821 148.33 31.106 147.643 17.9209L149.877 14.7664C150.197 14.3151 149.854 13.6963 149.299 13.7225L146.017 13.8771C144.712 12.3446 141.233 11.0128 138.246 13.0048Z" stroke="#111111" stroke-width="2" stroke-linecap="round" stroke-linejoin="round"/>
<path d="M186.808 10.256C182.691 13.0017 183.361 16.9255 183.616 18.2432C175.931 17.7909 170.907 13.445 168.97 11.4264C168.538 10.9766 167.753 11.0785 167.573 11.6733C165.628 18.0829 172.25 23.9239 172.25 23.9239C171.079 23.9239 168.742 23.5295 167.403 23.2848C166.884 23.1898 166.403 23.5867 166.517 24.098C167.388 28.0044 172.998 32.3027 176.663 32.2052C174.343 34.3894 171.396 35.1964 169.122 35.4706C168.246 35.5763 167.883 36.8786 168.69 37.2347C182.548 43.3527 199.412 32.8825 198.554 16.4011L201.346 12.458C201.746 11.8938 201.317 11.1204 200.623 11.1531L196.521 11.3464C194.889 9.43072 190.541 7.76598 186.808 10.256Z" stroke="#111111" stroke-width="2.5" stroke-linecap="round" stroke-linejoin="round"/>
<path d="M243.369 7.50717C238.429 10.8021 239.233 15.5106 239.539 17.0918C230.317 16.5491 224.289 11.334 221.964 8.9117C221.446 8.37197 220.504 8.49418 220.287 9.20791C217.954 16.8995 225.9 23.9087 225.9 23.9087C224.495 23.9087 221.69 23.4354 220.084 23.1417C219.461 23.0278 218.883 23.5041 219.02 24.1176C220.066 28.8053 226.798 33.9633 231.195 33.8463C228.412 36.4673 224.875 37.4357 222.147 37.7647C221.095 37.8915 220.659 39.4543 221.627 39.8817C238.258 47.2232 258.495 34.659 257.465 14.8813L260.816 10.1496C261.295 9.4726 260.781 8.54445 259.948 8.58371L255.026 8.8157C253.067 6.51687 247.849 4.51917 243.369 7.50717Z" stroke="#111111" stroke-width="3" stroke-linecap="round" stroke-linejoin="round"/>
<path d="M10.7715 81.4895C10.7788 81.598 10.7788 81.7065 10.7788 81.816C10.7788 85.1522 8.30225 89 3.7738 89V88.998C2.43608 89 1.12614 88.607 0 87.8661C0.194516 87.8901 0.390006 87.9021 0.585984 87.9026C1.69458 87.9036 2.77148 87.5221 3.64363 86.8196C2.59013 86.7991 1.6663 86.0947 1.34357 85.0662C1.71261 85.1392 2.09287 85.1242 2.45509 85.0228C1.30652 84.7848 0.480195 83.7498 0.480195 82.5479C0.480195 82.5369 0.480195 82.5264 0.480195 82.5159C0.822425 82.7114 1.20561 82.8199 1.59756 82.8319C0.515783 82.0904 0.182328 80.6145 0.835588 79.4606C2.08556 81.038 3.9298 81.9969 5.90957 82.0984C5.71115 81.2215 5.98221 80.3025 6.62182 79.6861C7.61341 78.7301 9.17294 78.7791 10.1051 79.7956C10.6564 79.6841 11.1849 79.4766 11.6685 79.1826C11.4847 79.7671 11.1001 80.2636 10.5862 80.579C11.0742 80.52 11.551 80.386 12 80.1816C11.6695 80.6895 11.2531 81.132 10.7715 81.4895Z" fill="#111111"/>
<path d="M38.362 80.6526C38.3717 80.7973 38.3717 80.942 38.3717 81.0879C38.3717 85.5363 35.0697 90.6667 29.0317 90.6667V90.664C27.2481 90.6667 25.5015 90.1427 24 89.1548C24.2594 89.1868 24.52 89.2028 24.7813 89.2034C26.2594 89.2048 27.6953 88.6961 28.8582 87.7595C27.4535 87.7322 26.2217 86.7929 25.7914 85.4217C26.2835 85.519 26.7905 85.499 27.2735 85.3637C25.742 85.0464 24.6403 83.6665 24.6403 82.0639C24.6403 82.0492 24.6403 82.0352 24.6403 82.0212C25.0966 82.2819 25.6075 82.4265 26.1301 82.4425C24.6877 81.4539 24.2431 79.486 25.1141 77.9475C26.7807 80.0507 29.2397 81.3293 31.8794 81.4646C31.6149 80.2953 31.9763 79.0701 32.8291 78.2481C34.1512 76.9735 36.2306 77.0389 37.4734 78.3941C38.2086 78.2455 38.9132 77.9688 39.558 77.5768C39.3129 78.3561 38.8001 79.0181 38.115 79.4387C38.7656 79.3601 39.4013 79.1814 40 78.9088C39.5593 79.586 39.0042 80.176 38.362 80.6526Z" fill="#111111"/>
<path d="M69.9525 79.8158C69.9647 79.9966 69.9647 80.1774 69.9647 80.3599C69.9647 85.9204 65.8371 92.3333 58.2897 92.3333V92.33C56.0601 92.3333 53.8769 91.6784 52 90.4434C52.3242 90.4834 52.65 90.5034 52.9766 90.5043C54.8243 90.5059 56.6191 89.8701 58.0727 88.6994C56.3169 88.6652 54.7772 87.4911 54.2393 85.7771C54.8544 85.8987 55.4881 85.8737 56.0918 85.7046C54.1775 85.3079 52.8003 83.583 52.8003 81.5798C52.8003 81.5615 52.8003 81.544 52.8003 81.5265C53.3707 81.8523 54.0093 82.0331 54.6626 82.0531C52.8596 80.8174 52.3039 78.3575 53.3926 76.4343C55.4759 79.0633 58.5497 80.6616 61.8493 80.8307C61.5186 79.3691 61.9703 77.8376 63.0364 76.8101C64.689 75.2169 67.2882 75.2986 68.8418 76.9926C69.7607 76.8068 70.6415 76.461 71.4475 75.971C71.1412 76.9451 70.5001 77.7726 69.6437 78.2984C70.457 78.2 71.2517 77.9767 72 77.6359C71.4491 78.4825 70.7552 79.22 69.9525 79.8158Z" fill="#111111"/>
<path d="M105.543 78.9789C105.558 79.1959 105.558 79.4129 105.558 79.6319C105.558 86.3045 100.605 94 91.5476 94V93.996C88.8722 94 86.2523 93.2141 84 91.7321C84.389 91.7801 84.78 91.8041 85.172 91.8051C87.3892 91.8071 89.543 91.0442 91.2873 89.6393C89.1803 89.5983 87.3326 88.1894 86.6871 86.1325C87.4252 86.2785 88.1857 86.2485 88.9102 86.0455C86.613 85.5695 84.9604 83.4997 84.9604 81.0958C84.9604 81.0738 84.9604 81.0528 84.9604 81.0318C85.6449 81.4228 86.4112 81.6398 87.1951 81.6638C85.0316 80.1809 84.3647 77.2291 85.6712 74.9212C88.1711 78.076 91.8596 79.9939 95.8191 80.1969C95.4223 78.443 95.9644 76.6051 97.2436 75.3722C99.2268 73.4603 102.346 73.5583 104.21 75.5912C105.313 75.3682 106.37 74.9532 107.337 74.3652C106.969 75.5342 106.2 76.5271 105.172 77.1581C106.148 77.0401 107.102 76.7721 108 76.3631C107.339 77.379 106.506 78.264 105.543 78.9789Z" fill="#111111"/>
<path d="M148.724 77.3053C148.743 77.5946 148.743 77.8839 148.743 78.1759C148.743 87.0726 142.139 97.3333 130.063 97.3333V97.328C126.496 97.3333 123.003 96.2854 120 94.3095C120.519 94.3735 121.04 94.4055 121.563 94.4068C124.519 94.4095 127.391 93.3922 129.716 91.519C126.907 91.4644 124.443 89.5858 123.583 86.8433C124.567 87.038 125.581 86.998 126.547 86.7273C123.484 86.0927 121.281 83.3329 121.281 80.1277C121.281 80.0984 121.281 80.0704 121.281 80.0424C122.193 80.5637 123.215 80.853 124.26 80.885C121.375 78.9078 120.486 74.9721 122.228 71.8949C125.561 76.1013 130.479 78.6585 135.759 78.9292C135.23 76.5906 135.953 74.1401 137.658 72.4962C140.302 69.9471 144.461 70.0777 146.947 72.7882C148.417 72.4909 149.826 71.9376 151.116 71.1536C150.626 72.7122 149.6 74.0361 148.23 74.8774C149.531 74.7201 150.803 74.3628 152 73.8175C151.119 75.1721 150.008 76.352 148.724 77.3053Z" fill="#111111"/>
<path d="M199.905 75.6316C199.929 75.9932 199.929 76.3549 199.929 76.7199C199.929 87.8408 191.674 100.667 176.579 100.667V100.66C172.12 100.667 167.754 99.3568 164 96.8869C164.648 96.9669 165.3 97.0069 165.953 97.0086C169.649 97.0119 173.238 95.7403 176.145 93.3988C172.634 93.3305 169.554 90.9823 168.479 87.5542C169.709 87.7975 170.976 87.7475 172.184 87.4092C168.355 86.6159 165.601 83.1661 165.601 79.1597C165.601 79.123 165.601 79.088 165.601 79.053C166.741 79.7047 168.019 80.0663 169.325 80.1063C165.719 77.6348 164.608 72.7151 166.785 68.8687C170.952 74.1267 177.099 77.3232 183.699 77.6615C183.037 74.7383 183.941 71.6752 186.073 69.6203C189.378 66.4338 194.576 66.5972 197.684 69.9853C199.521 69.6136 201.283 68.922 202.895 67.9421C202.282 69.8903 201 71.5452 199.287 72.5968C200.914 72.4001 202.503 71.9535 204 71.2719C202.898 72.9651 201.51 74.44 199.905 75.6316Z" fill="#111111"/>
<path d="M259.086 73.9579C259.115 74.3919 259.115 74.8258 259.115 75.2638C259.115 88.609 249.209 104 231.095 104V103.992C225.744 104 220.505 102.428 216 99.4643C216.778 99.5603 217.56 99.6083 218.344 99.6103C222.778 99.6143 227.086 98.0884 230.575 95.2785C226.361 95.1966 222.665 92.3787 221.374 88.265C222.85 88.557 224.371 88.497 225.82 88.091C221.226 87.1391 217.921 82.9993 217.921 78.1916C217.921 78.1476 217.921 78.1056 217.921 78.0636C219.29 78.8456 220.822 79.2796 222.39 79.3276C218.063 76.3617 216.729 70.4581 219.342 65.8424C224.342 72.152 231.719 75.9878 239.638 76.3937C238.845 72.886 239.929 69.2102 242.487 66.7444C246.454 62.9206 252.692 63.1166 256.42 67.1823C258.626 66.7364 260.74 65.9064 262.674 64.7305C261.939 67.0683 260.4 69.0542 258.345 70.3161C260.297 70.0801 262.204 69.5442 264 68.7262C262.678 70.7581 261.013 72.528 259.086 73.9579Z" fill="#111111"/>
</g>
<defs>
<clipPath id="clip0_2180_418">
<rect width="264" height="108" rx="5" fill="white"/>
</clipPath>
</defs>
</svg>
