<svg width="264" height="108" viewBox="0 0 264 108" fill="none" xmlns="http://www.w3.org/2000/svg">
<path d="M4.35 23.925L5.54772 25.0201C5.61043 25.0774 5.7082 25.0712 5.76323 25.0065L7.575 22.875M5.43577 19.2703C5.57321 19.0994 5.78065 19 5.99991 19C6.21917 19 6.42661 19.0994 6.56405 19.2703L7.23569 20.1063C7.39028 20.2991 7.63245 20.3996 7.87801 20.373L8.94411 20.257C9.16271 20.2327 9.38051 20.3091 9.53604 20.4647C9.69156 20.6204 9.76796 20.8383 9.74368 21.057L9.62774 22.1237C9.60113 22.3693 9.70162 22.6116 9.89426 22.7663L10.7298 23.4383C10.9006 23.5758 11 23.7834 11 24.0028C11 24.2221 10.9006 24.4297 10.7298 24.5672L9.8916 25.2361C9.69902 25.391 9.59857 25.6334 9.62508 25.8792L9.74101 26.9459C9.76547 27.1646 9.68913 27.3826 9.53356 27.5383C9.37799 27.6939 9.16009 27.7703 8.94144 27.7459L7.87535 27.6299C7.62977 27.6031 7.38756 27.7037 7.23303 27.8965L6.56405 28.7294C6.42671 28.9005 6.21922 29 5.99991 29C5.7806 29 5.57311 28.9005 5.43577 28.7294L4.76457 27.8939C4.60979 27.7011 4.3675 27.6006 4.12181 27.6272L3.05571 27.7432C2.83702 27.7678 2.61902 27.6915 2.46341 27.5358C2.30779 27.3801 2.23151 27.162 2.25614 26.9432L2.37208 25.8765C2.39867 25.6307 2.2982 25.3883 2.10555 25.2334L1.27045 24.5619C1.09947 24.4244 1 24.2169 1 23.9974C1 23.778 1.09947 23.5704 1.27045 23.433L2.10555 22.761C2.29827 22.6064 2.39877 22.364 2.37208 22.1183L2.25614 21.0517C2.23168 20.8329 2.30803 20.6149 2.4636 20.4592C2.61917 20.3036 2.83707 20.2272 3.05571 20.2517L4.12181 20.3677C4.36748 20.3942 4.60974 20.2937 4.76457 20.101L5.43577 19.2703Z" stroke="#111111" stroke-width="0.75" stroke-linecap="round" stroke-linejoin="round"/>
<path d="M29.8002 23.9L31.3971 25.3601C31.4807 25.4365 31.6111 25.4283 31.6845 25.342L34.1002 22.5M31.2479 17.6938C31.4311 17.4659 31.7077 17.3333 32 17.3333C32.2924 17.3333 32.569 17.4659 32.7522 17.6938L33.6478 18.8084C33.8539 19.0654 34.1768 19.1995 34.5042 19.164L35.9256 19.0093C36.2171 18.9769 36.5075 19.0789 36.7149 19.2863C36.9222 19.4938 37.0241 19.7844 36.9917 20.076L36.8372 21.4982C36.8017 21.8258 36.9357 22.1489 37.1925 22.3551L38.3066 23.2511C38.5344 23.4344 38.6668 23.7112 38.6668 24.0037C38.6668 24.2962 38.5344 24.5729 38.3066 24.7563L37.189 25.6481C36.9322 25.8547 36.7983 26.1779 36.8336 26.5056L36.9882 27.9278C37.0208 28.2195 36.919 28.5102 36.7116 28.7177C36.5041 28.9253 36.2136 29.0271 35.9221 28.9945L34.5006 28.8398C34.1732 28.8042 33.8502 28.9383 33.6442 29.1954L32.7522 30.3059C32.5691 30.534 32.2925 30.6667 32 30.6667C31.7076 30.6667 31.431 30.534 31.2479 30.3059L30.3529 29.1918C30.1466 28.9348 29.8235 28.8008 29.4959 28.8363L28.0744 28.9909C27.7829 29.0238 27.4922 28.922 27.2847 28.7144C27.0772 28.5068 26.9755 28.216 27.0084 27.9243L27.1629 26.502C27.1984 26.1743 27.0644 25.8511 26.8076 25.6446L25.6941 24.7492C25.4661 24.5659 25.3335 24.2892 25.3335 23.9966C25.3335 23.704 25.4661 23.4272 25.6941 23.244L26.8076 22.348C27.0645 22.1418 27.1985 21.8187 27.1629 21.4911L27.0084 20.0689C26.9757 19.7772 27.0775 19.4865 27.285 19.279C27.4924 19.0714 27.7829 18.9696 28.0744 19.0022L29.4959 19.1569C29.8235 19.1923 30.1465 19.0582 30.3529 18.8013L31.2479 17.6938Z" stroke="#111111" stroke-linecap="round" stroke-linejoin="round"/>
<path d="M59.2498 23.875L61.246 25.7001C61.3506 25.7956 61.5135 25.7854 61.6052 25.6775L64.6248 22.125M61.0595 16.1172C61.2885 15.8323 61.6343 15.6667 61.9997 15.6667C62.3651 15.6667 62.7109 15.8323 62.9399 16.1172L64.0593 17.5105C64.317 17.8318 64.7206 17.9993 65.1299 17.955L66.9067 17.7616C67.271 17.7211 67.634 17.8485 67.8932 18.1079C68.1524 18.3673 68.2798 18.7304 68.2393 19.095L68.0461 20.8727C68.0017 21.2822 68.1692 21.6861 68.4903 21.9438L69.8829 23.0638C70.1676 23.293 70.3332 23.639 70.3332 24.0046C70.3332 24.3702 70.1676 24.7161 69.8829 24.9453L68.4858 26.0601C68.1649 26.3183 67.9974 26.7223 68.0416 27.132L68.2349 28.9098C68.2756 29.2744 68.1484 29.6377 67.8891 29.8971C67.6298 30.1566 67.2667 30.2839 66.9022 30.2431L65.1254 30.0498C64.7161 30.0052 64.3124 30.1728 64.0549 30.4942L62.9399 31.8823C62.711 32.1675 62.3652 32.3333 61.9997 32.3333C61.6342 32.3333 61.2884 32.1675 61.0595 31.8823L59.9408 30.4897C59.6828 30.1685 59.279 30.001 58.8695 30.0453L57.0927 30.2386C56.7282 30.2797 56.3649 30.1525 56.1055 29.893C55.8462 29.6335 55.719 29.27 55.7601 28.9053L55.9533 27.1275C55.9976 26.7178 55.8302 26.3138 55.5091 26.0557L54.1172 24.9364C53.8323 24.7074 53.6665 24.3614 53.6665 23.9957C53.6665 23.63 53.8323 23.284 54.1172 23.055L55.5091 21.935C55.8303 21.6773 55.9978 21.2734 55.9533 20.8639L55.7601 19.0861C55.7193 18.7215 55.8465 18.3581 56.1058 18.0987C56.3651 17.8393 56.7283 17.712 57.0927 17.7528L58.8695 17.9461C59.279 17.9903 59.6827 17.8228 59.9408 17.5016L61.0595 16.1172Z" stroke="#111111" stroke-width="1.25" stroke-linecap="round" stroke-linejoin="round"/>
<path d="M92.7 23.85L95.0954 26.0401C95.2209 26.1548 95.4164 26.1425 95.5265 26.013L99.15 21.75M94.8715 14.5407C95.1464 14.1988 95.5613 14 95.9998 14C96.4383 14 96.8532 14.1988 97.1281 14.5407L98.4714 16.2126C98.7806 16.5981 99.2649 16.7992 99.756 16.746L101.888 16.514C102.325 16.4654 102.761 16.6183 103.072 16.9295C103.383 17.2407 103.536 17.6765 103.487 18.114L103.255 20.2473C103.202 20.7387 103.403 21.2233 103.789 21.5326L105.46 22.8766C105.801 23.1517 106 23.5668 106 24.0055C106 24.4443 105.801 24.8594 105.46 25.1344L103.783 26.4722C103.398 26.782 103.197 27.2668 103.25 27.7584L103.482 29.8917C103.531 30.3292 103.378 30.7653 103.067 31.0766C102.756 31.3879 102.32 31.5407 101.883 31.4917L99.7507 31.2597C99.2595 31.2063 98.7751 31.4074 98.4661 31.793L97.1281 33.4588C96.8534 33.801 96.4385 34 95.9998 34C95.5612 34 95.1462 33.801 94.8715 33.4588L93.5291 31.7877C93.2196 31.4022 92.735 31.2012 92.2436 31.2544L90.1114 31.4864C89.674 31.5357 89.238 31.383 88.9268 31.0716C88.6156 30.7602 88.463 30.324 88.5123 29.8864L88.7442 27.7531C88.7973 27.2614 88.5964 26.7766 88.2111 26.4668L86.5409 25.1237C86.1989 24.8489 86 24.4337 86 23.9948C86 23.556 86.1989 23.1408 86.5409 22.866L88.2111 21.522C88.5965 21.2127 88.7975 20.728 88.7442 20.2366L88.5123 18.1033C88.4634 17.6658 88.6161 17.2298 88.9272 16.9184C89.2383 16.6071 89.6741 16.4544 90.1114 16.5033L92.2436 16.7353C92.735 16.7884 93.2195 16.5873 93.5291 16.202L94.8715 14.5407Z" stroke="#111111" stroke-width="1.5" stroke-linecap="round" stroke-linejoin="round"/>
<path d="M131.6 23.7999L134.794 26.7201C134.961 26.873 135.222 26.8566 135.368 26.684L140.2 21M134.495 11.3875C134.862 10.9317 135.415 10.6667 136 10.6667C136.584 10.6667 137.137 10.9317 137.504 11.3875L139.295 13.6169C139.707 14.1308 140.353 14.399 141.008 14.328L143.851 14.0186C144.434 13.9538 145.015 14.1577 145.429 14.5726C145.844 14.9876 146.048 15.5687 145.983 16.152L145.674 18.9964C145.603 19.6516 145.871 20.2977 146.385 20.7102L148.613 22.5022C149.068 22.8689 149.333 23.4223 149.333 24.0073C149.333 24.5923 149.068 25.1458 148.613 25.5125L146.377 27.2962C145.864 27.7093 145.596 28.3557 145.667 29.0112L145.976 31.8556C146.041 32.439 145.838 33.0204 145.423 33.4354C145.008 33.8505 144.427 34.0542 143.844 33.9889L141.001 33.6796C140.346 33.6084 139.7 33.8765 139.288 34.3907L137.504 36.6118C137.138 37.0679 136.584 37.3333 136 37.3333C135.415 37.3333 134.861 37.0679 134.495 36.6118L132.705 34.3836C132.293 33.8696 131.646 33.6015 130.991 33.6725L128.148 33.9818C127.565 34.0476 126.984 33.844 126.569 33.4288C126.154 33.0136 125.951 32.432 126.016 31.8485L126.325 29.0041C126.396 28.3485 126.128 27.7021 125.615 27.2891L123.388 25.4983C122.932 25.1318 122.667 24.5783 122.667 23.9931C122.667 23.408 122.932 22.8544 123.388 22.4879L125.615 20.6959C126.129 20.2836 126.397 19.6374 126.325 18.9822L126.016 16.1377C125.951 15.5544 126.155 14.973 126.569 14.5579C126.984 14.1428 127.565 13.9392 128.148 14.0044L130.991 14.3137C131.646 14.3845 132.292 14.1165 132.705 13.6026L134.495 11.3875Z" stroke="#111111" stroke-width="2" stroke-linecap="round" stroke-linejoin="round"/>
<path d="M178.5 23.7499L182.493 27.4002C182.702 27.5913 183.027 27.5708 183.211 27.355L189.25 20.25M182.119 8.23443C182.578 7.66469 183.269 7.33334 184 7.33334C184.731 7.33334 185.422 7.66469 185.88 8.23443L188.119 11.0211C188.634 11.6636 189.442 11.9987 190.26 11.91L193.814 11.5233C194.543 11.4423 195.269 11.6971 195.787 12.2158C196.305 12.7345 196.56 13.4609 196.479 14.19L196.093 17.7455C196.004 18.5645 196.339 19.3722 196.981 19.8877L199.766 22.1277C200.336 22.5861 200.667 23.278 200.667 24.0092C200.667 24.7404 200.336 25.4323 199.766 25.8907L196.972 28.1203C196.33 28.6367 195.995 29.4446 196.084 30.264L196.47 33.8195C196.552 34.5487 196.297 35.2755 195.779 35.7943C195.26 36.3132 194.534 36.5678 193.805 36.4862L190.251 36.0995C189.433 36.0105 188.625 36.3457 188.11 36.9884L185.88 39.7647C185.423 40.335 184.731 40.6667 184 40.6667C183.269 40.6667 182.577 40.335 182.119 39.7647L179.882 36.9795C179.366 36.337 178.558 36.0019 177.74 36.0906L174.186 36.4773C173.457 36.5595 172.73 36.305 172.212 35.7861C171.693 35.2671 171.439 34.54 171.521 33.8106L171.907 30.2551C171.996 29.4357 171.661 28.6276 171.019 28.1114L168.235 25.8729C167.665 25.4148 167.333 24.7229 167.333 23.9914C167.333 23.26 167.665 22.568 168.235 22.1099L171.019 19.87C171.661 19.3546 171.996 18.5468 171.907 17.7277L171.521 14.1722C171.439 13.443 171.694 12.7163 172.212 12.1974C172.731 11.6786 173.457 11.424 174.186 11.5055L177.74 11.8922C178.558 11.9806 179.366 11.6456 179.882 11.0033L182.119 8.23443Z" stroke="#111111" stroke-width="2.5" stroke-linecap="round" stroke-linejoin="round"/>
<path d="M233.4 23.6999L238.191 28.0802C238.442 28.3096 238.833 28.285 239.053 28.026L246.3 19.5M237.743 5.08131C238.293 4.39762 239.123 4 240 4C240.877 4 241.706 4.39762 242.256 5.08131L244.943 8.4253C245.561 9.19629 246.53 9.59845 247.512 9.49196L251.776 9.02796C252.651 8.93077 253.522 9.23654 254.144 9.85898C254.766 10.4814 255.072 11.3531 254.975 12.228L254.511 16.4946C254.405 17.4774 254.806 18.4466 255.577 19.0653L258.919 21.7533C259.603 22.3033 260 23.1335 260 24.011C260 24.8885 259.603 25.7187 258.919 26.2688L255.566 28.9443C254.796 29.564 254.394 30.5336 254.5 31.5168L254.964 35.7834C255.062 36.6585 254.757 37.5305 254.134 38.1532C253.512 38.7758 252.64 39.0813 251.766 38.9834L247.501 38.5194C246.519 38.4126 245.55 38.8148 244.932 39.5861L242.256 42.9176C241.707 43.6019 240.877 44 240 44C239.122 44 238.292 43.6019 237.743 42.9176L235.058 39.5754C234.439 38.8044 233.47 38.4023 232.487 38.5088L228.223 38.9728C227.348 39.0713 226.476 38.766 225.854 38.1433C225.231 37.5205 224.926 36.648 225.025 35.7728L225.488 31.5061C225.595 30.5228 225.193 29.5531 224.422 28.9337L221.082 26.2475C220.398 25.6978 220 24.8674 220 23.9897C220 23.112 220.398 22.2816 221.082 21.7319L224.422 19.0439C225.193 18.4255 225.595 17.4561 225.488 16.4733L225.025 12.2066C224.927 11.3316 225.232 10.4595 225.854 9.83689C226.477 9.21428 227.348 8.90874 228.223 9.00663L232.487 9.47063C233.47 9.57673 234.439 9.1747 235.058 8.40396L237.743 5.08131Z" stroke="#111111" stroke-width="3" stroke-linecap="round" stroke-linejoin="round"/>
<path fill-rule="evenodd" clip-rule="evenodd" d="M5.99991 79C5.78065 79 5.57321 79.0994 5.43577 79.2703L4.76457 80.101C4.60974 80.2937 4.36748 80.3942 4.12181 80.3677L3.05571 80.2517C2.83707 80.2272 2.61917 80.3036 2.4636 80.4592C2.30803 80.6149 2.23168 80.8329 2.25614 81.0517L2.37208 82.1183C2.39877 82.364 2.29827 82.6064 2.10555 82.761L1.27045 83.433C1.09947 83.5704 1 83.778 1 83.9974C1 84.2169 1.09947 84.4244 1.27045 84.5619L2.10555 85.2334C2.2982 85.3883 2.39867 85.6307 2.37208 85.8765L2.25614 86.9432C2.23151 87.162 2.30779 87.3801 2.46341 87.5358C2.61902 87.6915 2.83702 87.7678 3.05571 87.7432L4.12181 87.6272C4.3675 87.6006 4.60979 87.7011 4.76457 87.8939L5.43577 88.7294C5.57312 88.9005 5.7806 89 5.99991 89C6.21922 89 6.42671 88.9005 6.56405 88.7294L7.23303 87.8965C7.38756 87.7037 7.62977 87.6031 7.87535 87.6299L8.94144 87.7459C9.16009 87.7703 9.37799 87.6939 9.53356 87.5383C9.68913 87.3826 9.76547 87.1646 9.74101 86.9459L9.62508 85.8792C9.59857 85.6334 9.69902 85.391 9.8916 85.2361L10.7298 84.5672C10.9006 84.4297 11 84.2221 11 84.0028C11 83.7834 10.9006 83.5758 10.7298 83.4383L9.89427 82.7663C9.70162 82.6116 9.60113 82.3693 9.62774 82.1237L9.74368 81.057C9.76796 80.8383 9.69156 80.6204 9.53604 80.4647C9.38051 80.3091 9.16271 80.2327 8.94411 80.257L7.87801 80.373C7.63245 80.3996 7.39028 80.2991 7.23569 80.1063L6.56405 79.2703C6.42661 79.0994 6.21917 79 5.99991 79ZM7.88264 83.3219C8.0604 83.1105 8.03318 82.7951 7.82186 82.6174C7.61053 82.4396 7.29512 82.4668 7.11737 82.6782L5.64879 84.4241L4.83268 83.6967C4.62654 83.513 4.31048 83.5312 4.12674 83.7373C3.94301 83.9435 3.96118 84.2595 4.16733 84.4432L5.12293 85.2949C5.29007 85.4439 5.50854 85.5117 5.7204 85.4983C5.93237 85.485 6.14328 85.3895 6.29024 85.215L7.88264 83.3219Z" fill="#111111"/>
<path fill-rule="evenodd" clip-rule="evenodd" d="M32 77.3333C31.7077 77.3333 31.4311 77.4659 31.2479 77.6938L30.3529 78.8013C30.1465 79.0582 29.8235 79.1923 29.4959 79.1569L28.0744 79.0022C27.7829 78.9696 27.4924 79.0714 27.285 79.279C27.0775 79.4865 26.9757 79.7772 27.0084 80.0689L27.1629 81.4911C27.1985 81.8187 27.0645 82.1418 26.8076 82.348L25.6941 83.244C25.4661 83.4272 25.3335 83.704 25.3335 83.9966C25.3335 84.2891 25.4661 84.5659 25.6941 84.7492L26.8076 85.6446C27.0644 85.8511 27.1984 86.1743 27.1629 86.502L27.0084 87.9243C26.9755 88.216 27.0772 88.5068 27.2847 88.7144C27.4922 88.922 27.7829 89.0238 28.0744 88.9909L29.4959 88.8363C29.8235 88.8008 30.1466 88.9348 30.3529 89.1918L31.2479 90.3059C31.431 90.534 31.7076 90.6667 32 90.6667C32.2925 90.6667 32.5691 90.534 32.7522 90.3059L33.6442 89.1954C33.8502 88.9383 34.1732 88.8042 34.5006 88.8398L35.9221 88.9945C36.2136 89.0271 36.5041 88.9253 36.7116 88.7177C36.919 88.5102 37.0208 88.2195 36.9882 87.9278L36.8336 86.5056C36.7983 86.1779 36.9322 85.8547 37.189 85.6481L38.3066 84.7563C38.5344 84.5729 38.6668 84.2962 38.6668 84.0037C38.6668 83.7112 38.5344 83.4344 38.3066 83.2511L37.1925 82.3551C36.9357 82.1489 36.8017 81.8258 36.8372 81.4982L36.9917 80.076C37.0241 79.7844 36.9222 79.4938 36.7149 79.2863C36.5075 79.0789 36.2171 78.9769 35.9256 79.0093L34.5042 79.164C34.1768 79.1995 33.8539 79.0654 33.6478 78.8084L32.7522 77.6938C32.569 77.4659 32.2924 77.3333 32 77.3333ZM34.5104 83.0958C34.7474 82.8141 34.7111 82.3935 34.4293 82.1565C34.1475 81.9195 33.727 81.9558 33.49 82.2376L31.5319 84.5655L30.4437 83.5956C30.1689 83.3507 29.7475 83.3749 29.5025 83.6497C29.2575 83.9246 29.2817 84.346 29.5566 84.591L30.8307 85.7266C31.0536 85.9252 31.3449 86.0156 31.6274 85.9978C31.91 85.98 32.1912 85.8527 32.3872 85.62L34.5104 83.0958Z" fill="#111111"/>
<path fill-rule="evenodd" clip-rule="evenodd" d="M61.9997 75.6667C61.6343 75.6667 61.2885 75.8323 61.0595 76.1172L59.9408 77.5016C59.6827 77.8228 59.279 77.9903 58.8695 77.9461L57.0927 77.7528C56.7283 77.712 56.3651 77.8393 56.1058 78.0987C55.8465 78.3581 55.7193 78.7215 55.7601 79.0861L55.9533 80.8639C55.9978 81.2734 55.8303 81.6773 55.5091 81.935L54.1172 83.055C53.8323 83.284 53.6665 83.63 53.6665 83.9957C53.6665 84.3614 53.8323 84.7074 54.1172 84.9364L55.5091 86.0557C55.8302 86.3138 55.9976 86.7178 55.9533 87.1275L55.7601 88.9053C55.719 89.27 55.8462 89.6335 56.1055 89.893C56.3649 90.1525 56.7282 90.2797 57.0927 90.2386L58.8695 90.0453C59.279 90.001 59.6828 90.1685 59.9408 90.4897L61.0595 91.8823C61.2884 92.1675 61.6342 92.3333 61.9997 92.3333C62.3652 92.3333 62.711 92.1675 62.9399 91.8823L64.0549 90.4942C64.3124 90.1728 64.7161 90.0052 65.1254 90.0497L66.9022 90.2431C67.2667 90.2839 67.6298 90.1566 67.8891 89.8971C68.1484 89.6377 68.2756 89.2744 68.2349 88.9098L68.0416 87.132C67.9974 86.7223 68.1649 86.3183 68.4858 86.0601L69.8829 84.9453C70.1676 84.7161 70.3332 84.3702 70.3332 84.0046C70.3332 83.639 70.1676 83.293 69.8829 83.0638L68.4903 81.9438C68.1692 81.6861 68.0017 81.2822 68.0461 80.8727L68.2393 79.095C68.2798 78.7304 68.1524 78.3673 67.8932 78.1079C67.634 77.8485 67.271 77.7211 66.9067 77.7616L65.1299 77.955C64.7206 77.9993 64.317 77.8318 64.0593 77.5105L62.9399 76.1172C62.7109 75.8323 62.3651 75.6667 61.9997 75.6667ZM65.1376 82.8698C65.4338 82.5176 65.3885 81.9919 65.0363 81.6956C64.6841 81.3994 64.1584 81.4447 63.8621 81.7969L61.4145 84.7068L60.0543 83.4945C59.7107 83.1883 59.184 83.2186 58.8777 83.5622C58.5715 83.9057 58.6018 84.4325 58.9454 84.7387L60.538 86.1582C60.8166 86.4065 61.1807 86.5195 61.5338 86.4972C61.8871 86.4749 62.2386 86.3158 62.4836 86.025L65.1376 82.8698Z" fill="#111111"/>
<path fill-rule="evenodd" clip-rule="evenodd" d="M95.9998 74C95.5613 74 95.1464 74.1988 94.8715 74.5407L93.5291 76.202C93.2195 76.5873 92.735 76.7884 92.2436 76.7353L90.1114 76.5033C89.6741 76.4544 89.2383 76.6071 88.9272 76.9184C88.6161 77.2298 88.4634 77.6658 88.5123 78.1033L88.7442 80.2366C88.7975 80.728 88.5965 81.2127 88.2111 81.522L86.5409 82.866C86.1989 83.1408 86 83.556 86 83.9948C86 84.4337 86.1989 84.8489 86.5409 85.1237L88.2111 86.4668C88.5964 86.7766 88.7973 87.2614 88.7442 87.7531L88.5123 89.8864C88.463 90.324 88.6156 90.7602 88.9268 91.0716C89.238 91.383 89.674 91.5357 90.1114 91.4864L92.2436 91.2544C92.735 91.2012 93.2196 91.4022 93.5291 91.7877L94.8715 93.4588C95.1462 93.801 95.5612 94 95.9998 94C96.4384 94 96.8534 93.801 97.1281 93.4588L98.4661 91.793C98.7751 91.4074 99.2595 91.2063 99.7507 91.2597L101.883 91.4917C102.32 91.5407 102.756 91.3879 103.067 91.0766C103.378 90.7653 103.531 90.3292 103.482 89.8917L103.25 87.7584C103.197 87.2668 103.398 86.782 103.783 86.4722L105.46 85.1344C105.801 84.8594 106 84.4443 106 84.0055C106 83.5668 105.801 83.1517 105.46 82.8766L103.789 81.5326C103.403 81.2233 103.202 80.7387 103.255 80.2473L103.487 78.114C103.536 77.6765 103.383 77.2407 103.072 76.9295C102.761 76.6183 102.325 76.4654 101.888 76.514L99.756 76.746C99.2649 76.7992 98.7806 76.5981 98.4714 76.2126L97.1281 74.5407C96.8532 74.1988 96.4383 74 95.9998 74ZM99.7653 82.6437C100.121 82.2211 100.066 81.5903 99.6437 81.2347C99.2211 80.8792 98.5902 80.9337 98.2347 81.3563L95.2976 84.8482L93.6654 83.3934C93.2531 83.026 92.621 83.0623 92.2535 83.4746C91.886 83.8869 91.9224 84.519 92.3347 84.8865L94.2459 86.5899C94.5801 86.8878 95.0171 87.0234 95.4408 86.9967C95.8647 86.9699 96.2866 86.779 96.5805 86.43L99.7653 82.6437Z" fill="#111111"/>
<path fill-rule="evenodd" clip-rule="evenodd" d="M136 70.6667C135.415 70.6667 134.862 70.9317 134.495 71.3875L132.705 73.6026C132.292 74.1165 131.646 74.3845 130.991 74.3137L128.148 74.0044C127.565 73.9391 126.984 74.1428 126.569 74.5579C126.155 74.973 125.951 75.5544 126.016 76.1377L126.325 78.9822C126.397 79.6374 126.129 80.2836 125.615 80.6959L123.388 82.4879C122.932 82.8544 122.667 83.408 122.667 83.9931C122.667 84.5783 122.932 85.1318 123.388 85.4983L125.615 87.2891C126.128 87.7021 126.396 88.3485 126.325 89.0041L126.016 91.8485C125.951 92.432 126.154 93.0136 126.569 93.4288C126.984 93.844 127.565 94.0476 128.148 93.9818L130.991 93.6725C131.646 93.6015 132.293 93.8696 132.705 94.3836L134.495 96.6117C134.861 97.0679 135.415 97.3333 136 97.3333C136.584 97.3333 137.138 97.0679 137.504 96.6117L139.288 94.3907C139.7 93.8765 140.346 93.6084 141.001 93.6796L143.844 93.9889C144.427 94.0542 145.008 93.8505 145.423 93.4354C145.838 93.0204 146.041 92.439 145.976 91.8556L145.667 89.0112C145.596 88.3557 145.864 87.7093 146.377 87.2962L148.613 85.5125C149.068 85.1458 149.333 84.5923 149.333 84.0073C149.333 83.4223 149.068 82.8689 148.613 82.5022L146.385 80.7102C145.871 80.2977 145.603 79.6516 145.674 78.9964L145.983 76.152C146.048 75.5687 145.844 74.9876 145.429 74.5726C145.015 74.1577 144.434 73.9538 143.851 74.0186L141.008 74.328C140.353 74.399 139.707 74.1308 139.295 73.6169L137.504 71.3875C137.137 70.9317 136.584 70.6667 136 70.6667ZM141.02 82.1916C141.494 81.6281 141.422 80.787 140.858 80.313C140.295 79.839 139.453 79.9115 138.979 80.4751L135.063 85.1309L132.887 83.1912C132.337 82.7013 131.494 82.7497 131.004 83.2995C130.515 83.8492 130.563 84.692 131.113 85.182L133.661 87.4532C134.107 87.8505 134.689 88.0313 135.254 87.9956C135.819 87.9599 136.382 87.7053 136.774 87.24L141.02 82.1916Z" fill="#111111"/>
<path fill-rule="evenodd" clip-rule="evenodd" d="M184 67.3333C183.269 67.3333 182.578 67.6647 182.119 68.2344L179.882 71.0033C179.366 71.6456 178.558 71.9806 177.74 71.8922L174.186 71.5055C173.457 71.424 172.731 71.6786 172.212 72.1974C171.694 72.7163 171.439 73.443 171.521 74.1722L171.907 77.7277C171.996 78.5468 171.661 79.3546 171.019 79.87L168.235 82.1099C167.665 82.568 167.333 83.26 167.333 83.9914C167.333 84.7229 167.665 85.4148 168.235 85.8729L171.019 88.1114C171.661 88.6276 171.996 89.4357 171.907 90.2551L171.521 93.8106C171.439 94.54 171.693 95.2671 172.212 95.7861C172.73 96.305 173.457 96.5595 174.186 96.4773L177.74 96.0906C178.558 96.0019 179.366 96.337 179.882 96.9795L182.119 99.7647C182.577 100.335 183.269 100.667 184 100.667C184.731 100.667 185.423 100.335 185.88 99.7647L188.11 96.9884C188.625 96.3457 189.433 96.0105 190.251 96.0995L193.805 96.4862C194.534 96.5678 195.26 96.3132 195.779 95.7943C196.297 95.2755 196.552 94.5487 196.47 93.8195L196.084 90.264C195.995 89.4446 196.33 88.6367 196.972 88.1203L199.766 85.8907C200.336 85.4323 200.667 84.7404 200.667 84.0092C200.667 83.278 200.336 82.5861 199.766 82.1277L196.981 79.8877C196.339 79.3722 196.004 78.5645 196.093 77.7455L196.479 74.19C196.56 73.4609 196.305 72.7345 195.787 72.2158C195.269 71.6971 194.543 71.4423 193.814 71.5233L190.26 71.91C189.442 71.9987 188.634 71.6636 188.119 71.0211L185.88 68.2344C185.422 67.6647 184.731 67.3333 184 67.3333ZM190.276 81.7396C190.868 81.0351 190.777 79.9838 190.073 79.3913C189.369 78.7987 188.317 78.8895 187.725 79.5939L182.829 85.4136L180.109 82.9891C179.422 82.3766 178.368 82.4372 177.756 83.1244C177.144 83.8115 177.204 84.8651 177.891 85.4775L181.077 88.3165C181.634 88.8131 182.362 89.0391 183.068 88.9945C183.775 88.9499 184.478 88.6316 184.968 88.05L190.276 81.7396Z" fill="#111111"/>
<path fill-rule="evenodd" clip-rule="evenodd" d="M240 64C239.123 64 238.293 64.3976 237.743 65.0813L235.058 68.404C234.439 69.1747 233.47 69.5767 232.487 69.4706L228.223 69.0066C227.348 68.9087 226.477 69.2143 225.854 69.8369C225.232 70.4595 224.927 71.3316 225.025 72.2066L225.488 76.4733C225.595 77.4561 225.193 78.4255 224.422 79.0439L221.082 81.7319C220.398 82.2816 220 83.112 220 83.9897C220 84.8674 220.398 85.6978 221.082 86.2475L224.422 88.9337C225.193 89.5531 225.595 90.5228 225.488 91.5061L225.025 95.7728C224.926 96.648 225.231 97.5205 225.854 98.1432C226.476 98.766 227.348 99.0713 228.223 98.9728L232.487 98.5088C233.47 98.4023 234.439 98.8044 235.058 99.5754L237.743 102.918C238.292 103.602 239.122 104 240 104C240.877 104 241.707 103.602 242.256 102.918L244.932 99.5861C245.55 98.8148 246.519 98.4126 247.501 98.5194L251.766 98.9834C252.64 99.0813 253.512 98.7758 254.134 98.1532C254.757 97.5305 255.062 96.6585 254.964 95.7834L254.5 91.5168C254.394 90.5336 254.796 89.564 255.566 88.9443L258.919 86.2688C259.603 85.7187 260 84.8885 260 84.011C260 83.1335 259.603 82.3033 258.919 81.7533L255.577 79.0653C254.806 78.4466 254.405 77.4774 254.511 76.4946L254.975 72.228C255.072 71.3531 254.766 70.4814 254.144 69.859C253.522 69.2365 252.651 68.9308 251.776 69.028L247.512 69.492C246.53 69.5984 245.561 69.1963 244.943 68.4253L242.256 65.0813C241.706 64.3976 240.877 64 240 64ZM247.531 81.2875C248.242 80.4422 248.133 79.1805 247.287 78.4695C246.442 77.7585 245.18 77.8673 244.469 78.7126L238.595 85.6964L235.331 82.7869C234.506 82.0519 233.242 82.1246 232.507 82.9492C231.772 83.7738 231.845 85.0381 232.669 85.773L236.492 89.1798C237.16 89.7757 238.034 90.0469 238.882 89.9934C239.729 89.9399 240.573 89.558 241.161 88.86L247.531 81.2875Z" fill="#111111"/>
</svg>
