<svg width="264" height="108" viewBox="0 0 264 108" fill="none" xmlns="http://www.w3.org/2000/svg">
<g clip-path="url(#clip0_1998_370)">
<path d="M8.95298 25.3391C8.91857 25.2753 8.82023 25.2327 8.67764 25.1583C8.53505 25.0839 7.8221 24.7063 7.69426 24.6532C7.56642 24.6 7.46317 24.5734 7.36975 24.7329C7.27633 24.8924 7.1239 25.1211 7.04032 25.2221C6.95673 25.3231 6.87314 25.3391 6.72563 25.2593C5.88424 24.8628 5.17429 24.1989 4.69004 23.3558C4.60646 23.2016 4.69004 23.1165 4.75396 23.0421C4.99489 22.7816 4.99981 22.8188 5.05881 22.6912C5.10167 22.6067 5.10167 22.5044 5.05881 22.42C4.98506 22.3296 4.71463 21.5746 4.59171 21.2662C4.46878 20.9578 3.84926 20.8993 3.60833 21.1864C1.05155 24.1002 7.28124 29.0929 8.87431 26.0516C9.0073 25.8465 9.03682 25.5832 8.95298 25.3497M6.00467 18.75C3.11653 18.7396 0.765435 21.0878 0.750009 23.9982C0.747939 25.1046 1.09796 26.1826 1.74867 27.0737L1.09534 29.0253L3.11134 28.3811C4.71928 29.445 6.77562 29.5386 8.47216 28.625C10.1687 27.7113 11.2342 25.9366 11.25 23.9982C11.2346 21.0915 8.88917 18.7448 6.00467 18.75Z" stroke="#111111" stroke-width="0.75" stroke-linecap="round" stroke-linejoin="round"/>
<path d="M35.9373 25.7854C35.8914 25.7004 35.7603 25.6436 35.5702 25.5444C35.3801 25.4451 34.4295 24.9418 34.259 24.8709C34.0886 24.8 33.9509 24.7645 33.8263 24.9772C33.7018 25.1899 33.4985 25.4948 33.3871 25.6295C33.2756 25.7642 33.1642 25.7854 32.9675 25.6791C31.8457 25.1504 30.899 24.2652 30.2534 23.1411C30.1419 22.9355 30.2534 22.822 30.3386 22.7228C30.6599 22.3754 30.6664 22.425 30.7451 22.2549C30.8022 22.1423 30.8022 22.0059 30.7451 21.8933C30.6467 21.7728 30.2862 20.7661 30.1223 20.3549C29.9584 19.9437 29.1323 19.8657 28.8111 20.2486C25.4021 24.1336 33.7083 30.7906 35.8324 26.7354C36.0097 26.462 36.0491 26.1109 35.9373 25.7996M32.0062 17C28.1554 16.9862 25.0206 20.1171 25 23.9976C24.9973 25.4728 25.4639 26.9101 26.3316 28.0983L25.4605 30.7004L28.1485 29.8414C30.2924 31.26 33.0342 31.3848 35.2962 30.1666C37.5583 28.9484 38.979 26.5821 39 23.9976C38.9794 20.122 35.8522 16.9931 32.0062 17Z" stroke="#111111" stroke-linecap="round" stroke-linejoin="round"/>
<path d="M66.9216 26.2318C66.8643 26.1254 66.7004 26.0546 66.4627 25.9305C66.2251 25.8064 65.0368 25.1772 64.8238 25.0886C64.6107 25 64.4386 24.9557 64.2829 25.2215C64.1272 25.4874 63.8732 25.8685 63.7339 26.0368C63.5945 26.2052 63.4552 26.2318 63.2094 26.0989C61.8071 25.438 60.6238 24.3315 59.8167 22.9263C59.6774 22.6693 59.8167 22.5276 59.9233 22.4035C60.3248 21.9693 60.333 22.0313 60.4314 21.8186C60.5028 21.6779 60.5028 21.5074 60.4314 21.3667C60.3084 21.216 59.8577 19.9576 59.6528 19.4436C59.448 18.9297 58.4154 18.8322 58.0139 19.3107C53.7526 24.167 64.1354 32.4882 66.7905 27.4193C67.0122 27.0775 67.0614 26.6386 66.9216 26.2495M62.0078 15.2501C57.1942 15.2327 53.2757 19.1463 53.25 23.997C53.2466 25.841 53.8299 27.6376 54.9145 29.1229L53.8256 32.3755L57.1856 31.3018C59.8655 33.075 63.2927 33.231 66.1203 31.7083C68.9478 30.1855 70.7237 27.2276 70.75 23.997C70.7243 19.1525 66.8153 15.2414 62.0078 15.2501Z" stroke="#111111" stroke-width="1.25" stroke-linecap="round" stroke-linejoin="round"/>
<path d="M101.906 26.6781C101.837 26.5505 101.64 26.4655 101.355 26.3166C101.07 26.1677 99.6442 25.4127 99.3885 25.3063C99.1328 25.2 98.9263 25.1468 98.7395 25.4658C98.5527 25.7849 98.2478 26.2421 98.0806 26.4442C97.9135 26.6462 97.7463 26.6781 97.4513 26.5186C95.7685 25.7256 94.3486 24.3979 93.3801 22.7116C93.2129 22.4032 93.3801 22.2331 93.5079 22.0842C93.9898 21.5631 93.9996 21.6375 94.1176 21.3823C94.2033 21.2134 94.2033 21.0089 94.1176 20.84C93.9701 20.6592 93.4293 19.1492 93.1834 18.5324C92.9376 17.9156 91.6985 17.7986 91.2167 18.3729C86.1031 24.2004 98.5625 34.1859 101.749 28.1031C102.015 27.693 102.074 27.1664 101.906 26.6994M96.0093 13.5001C90.2331 13.4792 85.5309 18.1756 85.5 23.9964C85.4959 26.2092 86.1959 28.3651 87.4973 30.1475L86.1907 34.0506L90.2227 32.7621C93.4386 34.8901 97.5512 35.0772 100.944 33.2499C104.337 31.4227 106.468 27.8731 106.5 23.9964C106.469 18.183 101.778 13.4896 96.0093 13.5001Z" stroke="#111111" stroke-width="1.5" stroke-linecap="round" stroke-linejoin="round"/>
<path d="M143.875 27.5709C143.783 27.4007 143.521 27.2873 143.14 27.0888C142.76 26.8903 140.859 25.8836 140.518 25.7418C140.177 25.6 139.902 25.5291 139.653 25.9545C139.404 26.3798 138.997 26.9895 138.774 27.2589C138.551 27.5283 138.328 27.5709 137.935 27.3582C135.691 26.3008 133.798 24.5305 132.507 22.2821C132.284 21.8709 132.507 21.6441 132.677 21.4456C133.32 20.7508 133.333 20.8501 133.49 20.5098C133.604 20.2846 133.604 20.0118 133.49 19.7866C133.293 19.5456 132.572 17.5322 132.245 16.7098C131.917 15.8875 130.265 15.7315 129.622 16.4971C122.804 24.2672 139.417 37.5812 143.665 29.4708C144.019 28.924 144.098 28.2218 143.875 27.5992M136.012 10.0001C128.311 9.97231 122.041 16.2341 122 23.9952C121.995 26.9456 122.928 29.8201 124.663 32.1966L122.921 37.4009L128.297 35.6828C132.585 38.5201 138.068 38.7695 142.592 36.3332C147.117 33.8969 149.958 29.1642 150 23.9952C149.959 16.244 143.704 9.98616 136.012 10.0001Z" stroke="#111111" stroke-width="2" stroke-linecap="round" stroke-linejoin="round"/>
<path d="M193.843 28.4636C193.729 28.2509 193.401 28.1091 192.925 27.861C192.45 27.6128 190.074 26.3545 189.648 26.1772C189.221 26 188.877 25.9114 188.566 26.4431C188.254 26.9748 187.746 27.7369 187.468 28.0737C187.189 28.4104 186.91 28.4636 186.419 28.1977C183.614 26.8761 181.248 24.6631 179.633 21.8527C179.355 21.3387 179.633 21.0551 179.847 20.807C180.65 19.9385 180.666 20.0626 180.863 19.6372C181.006 19.3557 181.006 19.0148 180.863 18.7333C180.617 18.432 179.715 15.9153 179.306 14.8873C178.896 13.8593 176.831 13.6644 176.028 14.6214C167.505 24.334 188.271 40.9764 193.581 30.8385C194.024 30.155 194.123 29.2773 193.843 28.499M184.016 6.50012C174.388 6.46539 166.551 14.2927 166.5 23.994C166.493 27.682 167.66 31.2752 169.829 34.2458L167.651 40.7511L174.371 38.6035C179.731 42.1501 186.585 42.4619 192.241 39.4165C197.896 36.3711 201.447 30.4552 201.5 23.994C201.449 14.3049 193.631 6.48271 184.016 6.50012Z" stroke="#111111" stroke-width="2.5" stroke-linecap="round" stroke-linejoin="round"/>
<path d="M251.812 29.3563C251.674 29.1011 251.281 28.9309 250.711 28.6332C250.14 28.3354 247.288 26.8254 246.777 26.6127C246.266 26.4 245.853 26.2936 245.479 26.9317C245.105 27.5697 244.496 28.4843 244.161 28.8884C243.827 29.2925 243.493 29.3563 242.903 29.0373C239.537 27.4513 236.697 24.7957 234.76 21.4232C234.426 20.8064 234.76 20.4661 235.016 20.1684C235.98 19.1262 235.999 19.2751 236.235 18.7647C236.407 18.4269 236.407 18.0178 236.235 17.68C235.94 17.3184 234.859 14.2983 234.367 13.0647C233.875 11.8312 231.397 11.5972 230.433 12.7457C220.206 24.4008 245.125 44.3717 251.497 32.2062C252.029 31.386 252.147 30.3327 251.812 29.3988M240.019 3.00014C228.466 2.95847 219.062 12.3512 219 23.9928C218.992 28.4185 220.392 32.7302 222.995 36.2949L220.381 44.1013L228.445 41.5243C234.877 45.7801 243.102 46.1543 249.889 42.4998C256.675 38.8453 260.937 31.7462 261 23.9928C260.938 12.3659 251.557 2.97925 240.019 3.00014Z" stroke="#111111" stroke-width="3" stroke-linecap="round" stroke-linejoin="round"/>
<g clip-path="url(#clip1_1998_370)">
<path d="M5.99952 78.5001C4.54808 78.5 3.15547 79.0767 2.12529 80.1044C1.0951 81.1321 0.51089 82.5274 0.500005 83.9863C0.498549 85.1026 0.841165 86.1921 1.48075 87.1048L0.857473 88.9473C0.844641 88.9878 0.842978 89.031 0.852663 89.0724C0.862348 89.1138 0.883017 89.1517 0.912468 89.1822C0.942528 89.2123 0.98029 89.2333 1.02155 89.2431C1.06282 89.2529 1.10596 89.2509 1.1462 89.2375L3.06645 88.6249C3.78262 89.0882 4.59652 89.3771 5.44334 89.4685C6.29016 89.56 7.14654 89.4515 7.9443 89.1517C8.74206 88.8519 9.45919 88.3691 10.0386 87.7417C10.618 87.1142 11.0437 86.3595 11.2818 85.5376C11.5199 84.7157 11.5639 83.8492 11.4101 83.0073C11.2564 82.1653 10.9092 81.371 10.3963 80.6876C9.88335 80.0042 9.21878 79.4506 8.45547 79.0708C7.69217 78.6911 6.85121 78.4956 5.99952 78.5001ZM9.29923 86.2019C9.14623 86.4955 8.91541 86.7408 8.63233 86.9107C8.34924 87.0806 8.0249 87.1685 7.6952 87.1646C7.14473 87.1013 6.60873 86.9456 6.10951 86.704C4.99299 86.1922 4.04757 85.3668 3.38725 84.3271C2.50733 83.1617 2.47066 82.07 3.30934 81.1672C3.4255 81.0577 3.56572 80.9772 3.71861 80.9324C3.8715 80.8876 4.03275 80.8796 4.18926 80.9092C4.30768 80.9241 4.42033 80.9692 4.51657 81.0402C4.61281 81.1111 4.68944 81.2055 4.73921 81.3146L4.91795 81.7383L5.20667 82.4339C5.24288 82.5052 5.26176 82.5842 5.26176 82.6642C5.26176 82.7443 5.24288 82.8232 5.20667 82.8945C5.08937 83.1287 4.93454 83.3419 4.74838 83.5256C4.9868 83.8834 5.26342 84.214 5.57331 84.5114C5.94236 84.8359 6.36604 85.0918 6.82445 85.2668C6.95277 85.0964 7.20025 84.8062 7.28274 84.6772C7.34461 84.5759 7.44308 84.5025 7.55753 84.4724C7.67199 84.4424 7.79358 84.458 7.89685 84.516C8.071 84.5759 9.04717 85.0595 9.04717 85.0595C9.17196 85.1002 9.28094 85.1791 9.35881 85.2853C9.42953 85.4299 9.46125 85.5907 9.4508 85.7516C9.44034 85.9124 9.38808 86.0677 9.29923 86.2019Z" fill="#111111"/>
</g>
<g clip-path="url(#clip2_1998_370)">
<path d="M31.9992 76.6668C30.0639 76.6667 28.2071 77.4356 26.8336 78.8059C25.46 80.1761 24.681 82.0366 24.6665 83.9817C24.6646 85.4702 25.1214 86.9227 25.9742 88.1397L25.1431 90.5964C25.126 90.6504 25.1238 90.7081 25.1367 90.7632C25.1496 90.8184 25.1772 90.869 25.2165 90.9096C25.2565 90.9497 25.3069 90.9778 25.3619 90.9908C25.4169 91.0038 25.4745 91.0012 25.5281 90.9833L28.0884 90.1665C29.0433 90.7842 30.1285 91.1694 31.2576 91.2914C32.3867 91.4133 33.5286 91.2687 34.5922 90.8689C35.6559 90.4692 36.6121 89.8254 37.3846 88.9889C38.1572 88.1523 38.7248 87.146 39.0423 86.0501C39.3597 84.9542 39.4183 83.799 39.2133 82.6763C39.0084 81.5537 38.5455 80.4946 37.8616 79.5834C37.1776 78.6722 36.2915 77.9341 35.2738 77.4278C34.2561 76.9214 33.1348 76.6608 31.9992 76.6668ZM36.3988 86.9359C36.1948 87.3273 35.8871 87.6544 35.5096 87.8809C35.1322 88.1075 34.6997 88.2247 34.2601 88.2195C33.5261 88.1351 32.8115 87.9275 32.1459 87.6053C30.6572 86.923 29.3966 85.8223 28.5162 84.4362C27.3429 82.8823 27.2941 81.4267 28.4123 80.2229C28.5672 80.0769 28.7541 79.9696 28.958 79.9099C29.1618 79.8501 29.3768 79.8395 29.5855 79.8789C29.7434 79.8989 29.8936 79.959 30.0219 80.0535C30.1503 80.1481 30.2524 80.2741 30.3188 80.4194L30.5571 80.9845L30.9421 81.9119C30.9903 82.007 31.0155 82.1122 31.0155 82.219C31.0155 82.3257 30.9903 82.431 30.9421 82.5261C30.7857 82.8383 30.5792 83.1226 30.331 83.3675C30.6489 83.8446 31.0177 84.2853 31.4309 84.6818C31.923 85.1146 32.4879 85.4557 33.0991 85.6891C33.2702 85.4618 33.6002 85.0749 33.7102 84.9029C33.7927 84.7678 33.9239 84.67 34.0766 84.6299C34.2292 84.5899 34.3913 84.6107 34.529 84.688C34.7612 84.7678 36.0627 85.4127 36.0627 85.4127C36.2291 85.4669 36.3744 85.5722 36.4782 85.7137C36.5725 85.9066 36.6148 86.121 36.6009 86.3354C36.587 86.5499 36.5173 86.757 36.3988 86.9359Z" fill="#111111"/>
</g>
<g clip-path="url(#clip3_1998_370)">
<path d="M61.9994 74.8335C59.5803 74.8334 57.2593 75.7945 55.5423 77.5073C53.8253 79.2201 52.8516 81.5457 52.8335 83.9771C52.8311 85.8377 53.4021 87.6534 54.4681 89.1746L53.4293 92.2455C53.4079 92.313 53.4051 92.3851 53.4213 92.454C53.4374 92.523 53.4719 92.5862 53.5209 92.6371C53.571 92.6871 53.634 92.7222 53.7028 92.7385C53.7715 92.7548 53.8434 92.7516 53.9105 92.7292L57.1109 91.7081C58.3045 92.4803 59.661 92.9618 61.0724 93.1142C62.4838 93.2666 63.9111 93.0858 65.2407 92.5862C66.5703 92.0865 67.7655 91.2818 68.7312 90.2361C69.6968 89.1904 70.4063 87.9325 70.8032 86.5627C71.2 85.1928 71.2733 83.7487 71.017 82.3454C70.7608 80.9421 70.1822 79.6183 69.3273 78.4793C68.4724 77.3403 67.3648 76.4176 66.0926 75.7847C64.8204 75.1518 63.4188 74.826 61.9994 74.8335ZM67.4989 87.6699C67.2439 88.1591 66.8592 88.568 66.3874 88.8512C65.9156 89.1343 65.375 89.2808 64.8255 89.2744C63.908 89.1688 63.0147 88.9093 62.1827 88.5067C60.3218 87.6537 58.7461 86.2779 57.6456 84.5452C56.179 82.6029 56.1179 80.7833 57.5157 79.2786C57.7093 79.0961 57.943 78.9621 58.1978 78.8874C58.4527 78.8127 58.7214 78.7994 58.9823 78.8487C59.1796 78.8736 59.3674 78.9487 59.5278 79.0669C59.6882 79.1852 59.8159 79.3426 59.8989 79.5243L60.1967 80.2306L60.678 81.3899C60.7383 81.5087 60.7698 81.6403 60.7698 81.7737C60.7698 81.9072 60.7383 82.0387 60.678 82.1576C60.4825 82.5479 60.2244 82.9032 59.9141 83.2094C60.3115 83.8057 60.7725 84.3566 61.289 84.8523C61.9041 85.3932 62.6102 85.8196 63.3742 86.1114C63.5881 85.8273 64.0006 85.3436 64.1381 85.1287C64.2412 84.9598 64.4053 84.8375 64.5961 84.7874C64.7868 84.7373 64.9895 84.7633 65.1616 84.86C65.4518 84.9598 67.0788 85.7659 67.0788 85.7659C67.2868 85.8337 67.4684 85.9652 67.5982 86.1421C67.7161 86.3832 67.7689 86.6512 67.7515 86.9193C67.7341 87.1874 67.647 87.4462 67.4989 87.6699Z" fill="#111111"/>
</g>
<path d="M95.999 73.0001C93.0962 73.0001 90.3109 74.1534 88.2506 76.2088C86.1902 78.2642 85.0218 81.0549 85 83.9725C84.9971 86.2053 85.6823 88.3841 86.9615 90.2095L85.7149 93.8946C85.6893 93.9756 85.686 94.0621 85.7053 94.1448C85.7247 94.2276 85.766 94.3035 85.8249 94.3645C85.8851 94.4246 85.9606 94.4667 86.0431 94.4862C86.1256 94.5057 86.2119 94.5019 86.2924 94.475L90.1329 93.2497C91.5652 94.1763 93.193 94.7541 94.8867 94.937C96.5803 95.12 98.2931 94.903 99.8886 94.3034C101.484 93.7038 102.918 92.7382 104.077 91.4833C105.236 90.2285 106.087 88.719 106.564 87.0752C107.04 85.4314 107.128 83.6985 106.82 82.0145C106.513 80.3305 105.818 78.7419 104.793 77.3751C103.767 76.0084 102.438 74.9012 100.911 74.1416C99.3843 73.3821 97.7024 72.9912 95.999 73.0001ZM102.598 88.4038C102.292 88.991 101.831 89.4816 101.265 89.8214C100.698 90.1612 100.05 90.337 99.3904 90.3293C98.2895 90.2026 97.2175 89.8912 96.219 89.408C93.986 88.3845 92.0951 86.7335 90.7745 84.6543C89.0147 82.3234 88.9413 80.14 90.6187 78.3343C90.851 78.1153 91.1314 77.9545 91.4372 77.8648C91.743 77.7752 92.0655 77.7593 92.3785 77.8184C92.6154 77.8483 92.8407 77.9384 93.0331 78.0803C93.2256 78.2222 93.3789 78.4111 93.4784 78.6291L93.8359 79.4767L94.4133 80.8678C94.4858 81.0105 94.5235 81.1683 94.5235 81.3285C94.5235 81.4886 94.4858 81.6465 94.4133 81.7891C94.1787 82.2575 93.8691 82.6839 93.4968 83.0512C93.9736 83.7669 94.5268 84.428 95.1466 85.0228C95.8847 85.6719 96.7321 86.1835 97.6489 86.5336C97.9055 86.1928 98.4005 85.6124 98.5655 85.3544C98.6892 85.1517 98.8862 85.005 99.1151 84.9449C99.344 84.8848 99.5872 84.916 99.7937 85.032C100.142 85.1517 102.094 86.1191 102.094 86.1191C102.344 86.2004 102.562 86.3583 102.718 86.5705C102.859 86.8599 102.923 87.1814 102.902 87.5032C102.881 87.8249 102.776 88.1354 102.598 88.4038Z" fill="#111111"/>
<path d="M135.999 69.3335C132.128 69.3334 128.415 70.8712 125.668 73.6117C122.92 76.3522 121.363 80.0731 121.334 83.9634C121.33 86.9404 122.243 89.8455 123.949 92.2794L122.287 97.1928C122.253 97.3008 122.248 97.4161 122.274 97.5264C122.3 97.6368 122.355 97.738 122.433 97.8193C122.514 97.8994 122.614 97.9556 122.724 97.9816C122.834 98.0076 122.949 98.0025 123.057 97.9667L128.177 96.333C130.087 97.5685 132.258 98.3388 134.516 98.5827C136.774 98.8266 139.058 98.5373 141.185 97.7379C143.312 96.9384 145.225 95.6509 146.77 93.9778C148.315 92.3046 149.45 90.2921 150.085 88.1003C150.72 85.9085 150.837 83.598 150.427 81.3527C150.017 79.1074 149.091 76.9892 147.724 75.1669C146.356 73.3445 144.584 71.8682 142.548 70.8555C140.513 69.8428 138.27 69.3217 135.999 69.3335ZM144.798 89.8718C144.39 90.6546 143.775 91.3088 143.02 91.7619C142.265 92.215 141.4 92.4493 140.521 92.4391C139.053 92.2702 137.623 91.8549 136.292 91.2107C133.315 89.8459 130.794 87.6447 129.033 84.8723C126.686 81.7646 126.589 78.8534 128.825 76.4458C129.135 76.1538 129.509 75.9393 129.916 75.8198C130.324 75.7002 130.754 75.679 131.172 75.7579C131.487 75.7977 131.788 75.9179 132.044 76.1071C132.301 76.2962 132.505 76.5481 132.638 76.8388L133.115 77.9689L133.885 79.8238C133.981 80.0139 134.032 80.2244 134.032 80.4379C134.032 80.6515 133.981 80.8619 133.885 81.0521C133.572 81.6766 133.159 82.2452 132.663 82.735C133.298 83.6892 134.036 84.5706 134.862 85.3637C135.846 86.2292 136.976 86.9114 138.199 87.3782C138.541 86.9237 139.201 86.1498 139.421 85.8059C139.586 85.5356 139.848 85.34 140.154 85.2599C140.459 85.1797 140.783 85.2213 141.058 85.376C141.523 85.5357 144.126 86.8254 144.126 86.8254C144.459 86.9339 144.749 87.1444 144.957 87.4273C145.146 87.8131 145.23 88.2419 145.202 88.6709C145.174 89.0998 145.035 89.5139 144.798 89.8718Z" fill="#111111"/>
<path d="M183.998 65.6669C179.16 65.6668 174.518 67.589 171.084 71.0147C167.65 74.4403 165.703 79.0914 165.667 83.9542C165.662 87.6754 166.804 91.3069 168.936 94.3492L166.858 100.491C166.815 100.626 166.81 100.77 166.842 100.908C166.874 101.046 166.943 101.172 167.041 101.274C167.142 101.374 167.267 101.444 167.405 101.477C167.543 101.51 167.686 101.503 167.82 101.458L174.221 99.4162C176.609 100.961 179.322 101.924 182.144 102.228C184.967 102.533 187.822 102.172 190.481 101.172C193.14 100.173 195.53 98.5636 197.462 96.4722C199.393 94.3808 200.812 91.8651 201.606 89.1253C202.4 86.3856 202.546 83.4975 202.034 80.6908C201.521 77.8842 200.364 75.2365 198.654 72.9586C196.944 70.6806 194.729 68.8353 192.185 67.5694C189.64 66.3035 186.837 65.6521 183.998 65.6669ZM194.997 91.3397C194.487 92.3183 193.718 93.136 192.774 93.7023C191.831 94.2687 190.75 94.5617 189.651 94.5488C187.816 94.3377 186.029 93.8187 184.365 93.0134C180.643 91.3074 177.492 88.5559 175.291 85.0904C172.358 81.2057 172.235 77.5667 175.031 74.5572C175.418 74.1922 175.886 73.9241 176.395 73.7747C176.905 73.6253 177.442 73.5988 177.964 73.6973C178.359 73.7472 178.734 73.8974 179.055 74.1338C179.376 74.3703 179.631 74.6851 179.797 75.0485L180.393 76.4612L181.355 78.7797C181.476 79.0174 181.539 79.2805 181.539 79.5474C181.539 79.8143 181.476 80.0774 181.355 80.3152C180.964 81.0958 180.448 81.8065 179.828 82.4187C180.623 83.6114 181.545 84.7133 182.578 85.7046C183.808 86.7865 185.22 87.6392 186.748 88.2227C187.176 87.6546 188.001 86.6873 188.276 86.2574C188.482 85.9196 188.81 85.675 189.192 85.5748C189.573 85.4747 189.978 85.5267 190.323 85.72C190.903 85.9196 194.157 87.5318 194.157 87.5318C194.573 87.6673 194.936 87.9305 195.196 88.2842C195.432 88.7664 195.537 89.3024 195.502 89.8386C195.468 90.3748 195.293 90.8924 194.997 91.3397Z" fill="#111111"/>
<path d="M239.998 62.0003C234.192 62.0001 228.622 64.3069 224.501 68.4176C220.38 72.5283 218.044 78.1097 218 83.945C217.994 88.4105 219.365 92.7682 221.923 96.4191L219.43 103.789C219.379 103.951 219.372 104.124 219.411 104.29C219.449 104.455 219.532 104.607 219.65 104.729C219.77 104.849 219.921 104.933 220.086 104.972C220.251 105.011 220.424 105.004 220.585 104.95L228.266 102.499C231.13 104.353 234.386 105.508 237.773 105.874C241.161 106.24 244.586 105.806 247.777 104.607C250.968 103.408 253.837 101.476 256.154 98.9666C258.472 96.4569 260.175 93.4381 261.127 90.1504C262.08 86.8627 262.255 83.397 261.64 80.029C261.026 76.661 259.637 73.4838 257.585 70.7503C255.533 68.0167 252.875 65.8023 249.822 64.2833C246.769 62.7642 243.405 61.9825 239.998 62.0003ZM253.197 92.8077C252.585 93.9819 251.662 94.9632 250.529 95.6428C249.397 96.3224 248.1 96.674 246.781 96.6586C244.579 96.4052 242.435 95.7824 240.438 94.816C235.972 92.7689 232.19 89.467 229.549 85.3085C226.029 80.6469 225.883 76.28 229.237 72.6686C229.702 72.2306 230.263 71.9089 230.874 71.7296C231.486 71.5504 232.131 71.5186 232.757 71.6368C233.231 71.6966 233.681 71.8769 234.066 72.1606C234.451 72.4444 234.758 72.8222 234.957 73.2583L235.672 74.9534L236.827 77.7356C236.972 78.0209 237.047 78.3366 237.047 78.6569C237.047 78.9772 236.972 79.2929 236.827 79.5782C236.357 80.515 235.738 81.3678 234.994 82.1025C235.947 83.5337 237.054 84.8559 238.293 86.0455C239.769 87.3438 241.464 88.3671 243.298 89.0673C243.811 88.3856 244.801 87.2248 245.131 86.7088C245.378 86.3035 245.772 86.01 246.23 85.8898C246.688 85.7696 247.174 85.832 247.587 86.0639C248.284 86.3035 252.189 88.2382 252.189 88.2382C252.688 88.4008 253.124 88.7165 253.435 89.141C253.718 89.7197 253.845 90.3629 253.803 91.0063C253.761 91.6497 253.552 92.2709 253.197 92.8077Z" fill="#111111"/>
</g>
<defs>
<clipPath id="clip0_1998_370">
<rect width="264" height="108" rx="5" fill="white"/>
</clipPath>
<clipPath id="clip1_1998_370">
<rect width="12" height="12" fill="white" transform="translate(0 78)"/>
</clipPath>
<clipPath id="clip2_1998_370">
<rect width="16" height="16" fill="white" transform="translate(24 76)"/>
</clipPath>
<clipPath id="clip3_1998_370">
<rect width="20" height="20" fill="white" transform="translate(52 74)"/>
</clipPath>
</defs>
</svg>
