<svg width="264" height="108" viewBox="0 0 264 108" fill="none" xmlns="http://www.w3.org/2000/svg">
<g clip-path="url(#clip0_2180_419)">
<path d="M11.2701 21.2492C11.1436 20.7575 10.7709 20.3702 10.2976 20.2388C9.43977 20 5.99997 20 5.99997 20C5.99997 20 2.56021 20 1.70235 20.2388C1.22911 20.3702 0.856349 20.7575 0.729867 21.2492C0.5 22.1405 0.5 24 0.5 24C0.5 24 0.5 25.8595 0.729867 26.7508C0.856349 27.2424 1.22911 27.6297 1.70235 27.7611C2.56021 28 5.99997 28 5.99997 28C5.99997 28 9.43977 28 10.2976 27.7611C10.7709 27.6297 11.1436 27.2424 11.2701 26.7508C11.5 25.8595 11.5 24 11.5 24C11.5 24 11.5 22.1405 11.2701 21.2492Z" stroke="#111111" stroke-width="0.75" stroke-linejoin="round"/>
<path d="M4.5 26L8.5 24L4.5 22V26Z" stroke="#111111" stroke-width="0.75" stroke-linejoin="round"/>
<path d="M38.7074 20.9054C38.5464 20.3522 38.0721 19.9165 37.4697 19.7687C36.3779 19.5 32 19.5 32 19.5C32 19.5 27.6221 19.5 26.5303 19.7687C25.928 19.9165 25.4535 20.3522 25.2926 20.9054C25 21.908 25 24 25 24C25 24 25 26.092 25.2926 27.0946C25.4535 27.6477 25.928 28.0834 26.5303 28.2312C27.6221 28.5 32 28.5 32 28.5C32 28.5 36.3779 28.5 37.4697 28.2312C38.0721 28.0834 38.5464 27.6477 38.7074 27.0946C39 26.092 39 24 39 24C39 24 39 21.908 38.7074 20.9054Z" stroke="#111111" stroke-linejoin="round"/>
<path d="M30 26.5L35 24L30 21.5V26.5Z" stroke="#111111" stroke-linejoin="round"/>
<path d="M70.6238 19.8738C70.4168 19.1363 69.807 18.5554 69.0325 18.3582C67.6287 18 62 18 62 18C62 18 56.3712 18 54.9675 18.3582C54.1931 18.5554 53.5831 19.1363 53.3761 19.8738C53 21.2107 53 24 53 24C53 24 53 26.7893 53.3761 28.1262C53.5831 28.8636 54.1931 29.4446 54.9675 29.6417C56.3712 30 62 30 62 30C62 30 67.6287 30 69.0325 29.6417C69.807 29.4446 70.4168 28.8636 70.6238 28.1262C71 26.7893 71 24 71 24C71 24 71 21.2107 70.6238 19.8738Z" stroke="#111111" stroke-width="1.25" stroke-linejoin="round"/>
<path d="M60 27L66 24L60 21V27Z" stroke="#111111" stroke-width="1.25" stroke-linejoin="round"/>
<path d="M106.54 18.8423C106.287 17.9203 105.542 17.1942 104.595 16.9478C102.88 16.5 95.9999 16.5 95.9999 16.5C95.9999 16.5 89.1204 16.5 87.4047 16.9478C86.4582 17.1942 85.7127 17.9203 85.4597 18.8423C85 20.5134 85 23.9999 85 23.9999C85 23.9999 85 27.4866 85.4597 29.1577C85.7127 30.0795 86.4582 30.8057 87.4047 31.0521C89.1204 31.5 95.9999 31.5 95.9999 31.5C95.9999 31.5 102.88 31.5 104.595 31.0521C105.542 30.8057 106.287 30.0795 106.54 29.1577C107 27.4866 107 23.9999 107 23.9999C107 23.9999 107 20.5134 106.54 18.8423Z" stroke="#111111" stroke-width="1.5" stroke-linejoin="round"/>
<path d="M93.5 28L100.5 24.0001L93.5 20V28Z" stroke="#111111" stroke-width="1.5" stroke-linejoin="round"/>
<path d="M150.373 17.123C150.028 15.8938 149.012 14.9256 147.721 14.5971C145.381 14 136 14 136 14C136 14 126.619 14 124.279 14.5971C122.988 14.9256 121.972 15.8938 121.627 17.123C121 19.3512 121 23.9999 121 23.9999C121 23.9999 121 28.6488 121.627 30.8769C121.972 32.106 122.988 33.0743 124.279 33.4028C126.619 34 136 34 136 34C136 34 145.381 34 147.721 33.4028C149.012 33.0743 150.028 32.106 150.373 30.8769C151 28.6488 151 23.9999 151 23.9999C151 23.9999 151 19.3512 150.373 17.123Z" stroke="#111111" stroke-width="2" stroke-linejoin="round"/>
<path d="M133 29L141.5 24.0001L133 19V29Z" stroke="#111111" stroke-width="2" stroke-linejoin="round"/>
<path d="M201.727 15.4038C201.301 13.8672 200.048 12.657 198.456 12.2463C195.57 11.5 184 11.5 184 11.5C184 11.5 172.43 11.5 169.544 12.2463C167.952 12.657 166.699 13.8672 166.273 15.4038C165.5 18.189 165.5 23.9999 165.5 23.9999C165.5 23.9999 165.5 29.8111 166.273 32.5962C166.699 34.1325 167.952 35.3429 169.544 35.7535C172.43 36.5 184 36.5 184 36.5C184 36.5 195.57 36.5 198.456 35.7535C200.048 35.3429 201.301 34.1325 201.727 32.5962C202.5 29.8111 202.5 23.9999 202.5 23.9999C202.5 23.9999 202.5 18.189 201.727 15.4038Z" stroke="#111111" stroke-width="2.5" stroke-linejoin="round"/>
<path d="M180 30L191 24.0001L180 18V30Z" stroke="#111111" stroke-width="2.5" stroke-linejoin="round"/>
<path d="M261.56 13.6845C261.042 11.8407 259.517 10.3884 257.581 9.89559C254.072 9 240 9 240 9C240 9 225.928 9 222.419 9.89559C220.483 10.3884 218.958 11.8407 218.44 13.6845C217.5 17.0268 217.5 23.9999 217.5 23.9999C217.5 23.9999 217.5 30.9733 218.44 34.3154C218.958 36.1591 220.483 37.6115 222.419 38.1041C225.928 39 240 39 240 39C240 39 254.072 39 257.581 38.1041C259.517 37.6115 261.042 36.1591 261.56 34.3154C262.5 30.9733 262.5 23.9999 262.5 23.9999C262.5 23.9999 262.5 17.0268 261.56 13.6845Z" stroke="#111111" stroke-width="3" stroke-linejoin="round"/>
<path d="M235 31L248 24.0001L235 17V31Z" stroke="#111111" stroke-width="3" stroke-linejoin="round"/>
<path fill-rule="evenodd" clip-rule="evenodd" d="M10.6883 80.0038C11.2046 80.1434 11.6112 80.5549 11.7492 81.0773C12 82.0243 12 84 12 84C12 84 12 85.9758 11.7492 86.9227C11.6112 87.4451 11.2046 87.8566 10.6883 87.9962C9.75247 88.25 5.99997 88.25 5.99997 88.25C5.99997 88.25 2.2475 88.25 1.31166 87.9962C0.795391 87.8566 0.388744 87.4451 0.250764 86.9227C0 85.9758 0 84 0 84C0 84 0 82.0243 0.250764 81.0773C0.388744 80.5549 0.795391 80.1434 1.31166 80.0038C2.2475 79.75 5.99997 79.75 5.99997 79.75C5.99997 79.75 9.75247 79.75 10.6883 80.0038ZM8.11765 83.9999L4.94118 85.7707V82.2291L8.11765 83.9999Z" fill="#111111"/>
<path fill-rule="evenodd" clip-rule="evenodd" d="M38.2511 78.6717C38.9395 78.8578 39.4816 79.4065 39.6656 80.103C40 81.3657 40 84 40 84C40 84 40 86.6344 39.6656 87.8969C39.4816 88.5934 38.9395 89.1421 38.2511 89.3282C37.0033 89.6667 32 89.6667 32 89.6667C32 89.6667 26.9967 89.6667 25.7489 89.3282C25.0605 89.1421 24.5183 88.5934 24.3344 87.8969C24 86.6344 24 84 24 84C24 84 24 81.3657 24.3344 80.103C24.5183 79.4065 25.0605 78.8578 25.7489 78.6717C26.9967 78.3333 32 78.3333 32 78.3333C32 78.3333 37.0033 78.3333 38.2511 78.6717ZM34.8235 83.9999L30.5882 86.361V81.6387L34.8235 83.9999Z" fill="#111111"/>
<path fill-rule="evenodd" clip-rule="evenodd" d="M69.8139 77.3396C70.6744 77.5723 71.352 78.2581 71.582 79.1288C72 80.7071 72 83.9999 72 83.9999C72 83.9999 72 87.2929 71.582 88.8711C71.352 89.7418 70.6744 90.4276 69.8139 90.6603C68.2541 91.0833 62 91.0833 62 91.0833C62 91.0833 55.7458 91.0833 54.1861 90.6603C53.3257 90.4276 52.6479 89.7418 52.4179 88.8711C52 87.2929 52 83.9999 52 83.9999C52 83.9999 52 80.7071 52.4179 79.1288C52.6479 78.2581 53.3257 77.5723 54.1861 77.3396C55.7458 76.9167 62 76.9167 62 76.9167C62 76.9167 68.2541 76.9167 69.8139 77.3396ZM65.5294 83.9998L60.2353 86.9512V81.0484L65.5294 83.9998Z" fill="#111111"/>
<path fill-rule="evenodd" clip-rule="evenodd" d="M105.377 76.0075C106.409 76.2868 107.222 77.1097 107.498 78.1546C108 80.0485 108 83.9999 108 83.9999C108 83.9999 108 87.9515 107.498 89.8454C107.222 90.8901 106.409 91.7132 105.377 91.9923C103.505 92.5 95.9999 92.5 95.9999 92.5C95.9999 92.5 88.495 92.5 86.6233 91.9923C85.5908 91.7132 84.7775 90.8901 84.5015 89.8454C84 87.9515 84 83.9999 84 83.9999C84 83.9999 84 80.0485 84.5015 78.1546C84.7775 77.1097 85.5908 76.2868 86.6233 76.0075C88.495 75.5 95.9999 75.5 95.9999 75.5C95.9999 75.5 103.505 75.5 105.377 76.0075ZM100.235 83.9998L93.8824 87.5414V80.4581L100.235 83.9998Z" fill="#111111"/>
<path fill-rule="evenodd" clip-rule="evenodd" d="M148.502 73.3433C149.879 73.7157 150.963 74.813 151.331 76.2061C152 78.7313 152 83.9999 152 83.9999C152 83.9999 152 89.2687 151.331 91.7938C150.963 93.1868 149.879 94.2842 148.502 94.6565C146.007 95.3333 136 95.3333 136 95.3333C136 95.3333 125.993 95.3333 123.498 94.6565C122.121 94.2842 121.037 93.1868 120.669 91.7938C120 89.2687 120 83.9999 120 83.9999C120 83.9999 120 78.7313 120.669 76.2061C121.037 74.813 122.121 73.7157 123.498 73.3433C125.993 72.6667 136 72.6667 136 72.6667C136 72.6667 146.007 72.6667 148.502 73.3433ZM141.647 83.9997L133.176 88.7219V79.2775L141.647 83.9997Z" fill="#111111"/>
<path fill-rule="evenodd" clip-rule="evenodd" d="M199.628 70.6792C201.349 71.1446 202.704 72.5162 203.164 74.2576C204 77.4142 204 83.9999 204 83.9999C204 83.9999 204 90.5859 203.164 93.7423C202.704 95.4836 201.349 96.8553 199.628 97.3206C196.508 98.1667 184 98.1667 184 98.1667C184 98.1667 171.492 98.1667 168.372 97.3206C166.651 96.8553 165.296 95.4836 164.836 93.7423C164 90.5859 164 83.9999 164 83.9999C164 83.9999 164 77.4142 164.836 74.2576C165.296 72.5162 166.651 71.1446 168.372 70.6792C171.492 69.8333 184 69.8333 184 69.8333C184 69.8333 196.508 69.8333 199.628 70.6792ZM191.059 83.9997L180.471 89.9024V78.0968L191.059 83.9997Z" fill="#111111"/>
<path fill-rule="evenodd" clip-rule="evenodd" d="M258.753 68.015C260.819 68.5735 262.445 70.2195 262.997 72.3091C264 76.097 264 83.9999 264 83.9999C264 83.9999 264 91.903 262.997 95.6908C262.445 97.7803 260.819 99.4264 258.753 99.9847C255.01 101 240 101 240 101C240 101 224.99 101 221.247 99.9847C219.182 99.4264 217.555 97.7803 217.003 95.6908C216 91.903 216 83.9999 216 83.9999C216 83.9999 216 76.097 217.003 72.3091C217.555 70.2195 219.182 68.5735 221.247 68.015C224.99 67 240 67 240 67C240 67 255.01 67 258.753 68.015ZM248.471 83.9996L235.765 91.0829V76.9162L248.471 83.9996Z" fill="#111111"/>
</g>
<defs>
<clipPath id="clip0_2180_419">
<rect width="264" height="108" rx="5" fill="white"/>
</clipPath>
</defs>
</svg>
