<svg width="264" height="108" viewBox="0 0 264 108" fill="none" xmlns="http://www.w3.org/2000/svg">
<g id="Alert crash">
<g clip-path="url(#clip0_3570_440)">
<g id="Size=12px, Filled=false">
<path id="Vector" d="M9.99932 23.9249L9.62432 23.9258V23.9259L9.99932 23.9249ZM5.99932 27.9944L5.99387 27.6194L5.99364 27.6194L5.99932 27.9944ZM1.99933 24.0644L2.37433 24.0634L2.37433 24.0634L1.99933 24.0644ZM5.99932 19.9944L6.00481 20.3693L6.00493 20.3693L5.99932 19.9944ZM7.52317 20.2763L7.38377 20.6244L7.38379 20.6244L7.52317 20.2763ZM8.82052 21.1239L9.08334 20.8564L9.08334 20.8564L8.82052 21.1239ZM9.69077 22.4062L10.0364 22.2608V22.2608L9.69077 22.4062ZM5.6251 24.4945C5.6251 24.7016 5.79299 24.8695 6.0001 24.8695C6.2072 24.8695 6.3751 24.7016 6.3751 24.4945H5.6251ZM6.3751 21.994C6.3751 21.7869 6.2072 21.619 6.0001 21.619C5.79299 21.619 5.6251 21.7869 5.6251 21.994H6.3751ZM6.00175 25.7561V26.1311C6.20646 26.1311 6.37334 25.9669 6.3767 25.7622C6.38006 25.5575 6.21866 25.388 6.01406 25.3813L6.00175 25.7561ZM5.99775 25.3811C5.79065 25.3811 5.62275 25.5489 5.62275 25.7561C5.62275 25.9632 5.79065 26.1311 5.99775 26.1311V25.3811ZM6.0124 25.3812C5.80541 25.3744 5.6321 25.5367 5.6253 25.7437C5.6185 25.9507 5.7808 26.124 5.98779 26.1308L6.0124 25.3812ZM1.99416 28.2913C2.14565 28.4325 2.38294 28.4242 2.52417 28.2727C2.6654 28.1212 2.65708 27.8839 2.5056 27.7427L1.99416 28.2913ZM0.959845 26.1946L0.616163 26.3447L0.616166 26.3447L0.959845 26.1946ZM0.50051 24.0096L0.125511 24.0107L0.125511 24.0107L0.50051 24.0096ZM0.947585 21.8221L1.2921 21.9702L1.2921 21.9702L0.947585 21.8221ZM2.48464 20.2653C2.63532 20.1232 2.6423 19.8859 2.50022 19.7352C2.35814 19.5845 2.12081 19.5776 1.97012 19.7196L2.48464 20.2653ZM10.0181 19.7085C9.86696 19.5668 9.62964 19.5745 9.488 19.7256C9.34637 19.8767 9.35404 20.114 9.50514 20.2556L10.0181 19.7085ZM11.0484 21.8118L11.3926 21.6629L11.3926 21.6629L11.0484 21.8118ZM11.5001 24.0026L11.1251 24.002V24.002L11.5001 24.0026ZM9.49442 27.7437C9.34291 27.8849 9.33457 28.1222 9.47578 28.2737C9.61699 28.4252 9.85428 28.4336 10.0058 28.2924L9.49442 27.7437ZM9.99932 23.9249L9.62432 23.9259C9.62695 24.8954 9.2473 25.8268 8.56768 26.5183L8.83512 26.7811L9.10255 27.044C9.92053 26.2118 10.3775 25.0908 10.3743 23.9239L9.99932 23.9249ZM8.83512 26.7811L8.56768 26.5183C7.88805 27.2097 6.96329 27.6053 5.99387 27.6194L5.99932 27.9944L6.00476 28.3693C7.17155 28.3524 8.28458 27.8762 9.10255 27.044L8.83512 26.7811ZM5.99932 27.9944L5.99364 27.6194C5.52173 27.6266 5.05307 27.5399 4.61488 27.3645L4.47552 27.7127L4.33616 28.0608C4.86654 28.2731 5.4338 28.378 6.005 28.3693L5.99932 27.9944ZM4.47552 27.7127L4.61488 27.3645C4.17667 27.1891 3.77766 26.9285 3.44099 26.5977L3.17817 26.8652L2.91535 27.1327C3.32286 27.5331 3.8058 27.8485 4.33616 28.0608L4.47552 27.7127ZM3.17817 26.8652L3.44099 26.5977C3.10429 26.2669 2.83664 25.8725 2.65354 25.4375L2.30791 25.583L1.96227 25.7284C2.18389 26.255 2.50785 26.7323 2.91535 27.1327L3.17817 26.8652ZM2.30791 25.583L2.65354 25.4375C2.47044 25.0025 2.37553 24.5354 2.37433 24.0634L1.99933 24.0644L1.62433 24.0653C1.62579 24.6366 1.74066 25.2019 1.96227 25.7284L2.30791 25.583ZM1.99933 24.0644L2.37433 24.0634C2.37172 23.0938 2.75137 22.1623 3.43098 21.4708L3.16353 21.208L2.89607 20.9451C2.07813 21.7774 1.62119 22.8985 1.62433 24.0654L1.99933 24.0644ZM3.16353 21.208L3.43098 21.4708C4.11059 20.7793 5.03537 20.3836 6.00481 20.3693L5.99932 19.9944L5.99382 19.6194C4.82705 19.6365 3.71401 20.1128 2.89607 20.9451L3.16353 21.208ZM5.99932 19.9944L6.00493 20.3693C6.4769 20.3623 6.94561 20.449 7.38377 20.6244L7.52317 20.2763L7.66256 19.9282C7.13222 19.7158 6.56493 19.6109 5.9937 19.6194L5.99932 19.9944ZM7.52317 20.2763L7.38379 20.6244C7.82199 20.7999 8.22099 21.0606 8.55769 21.3914L8.82052 21.1239L9.08334 20.8564C8.67584 20.456 8.19294 20.1405 7.66255 19.9282L7.52317 20.2763ZM8.82052 21.1239L8.55769 21.3914C8.89438 21.7222 9.16203 22.1166 9.34513 22.5517L9.69077 22.4062L10.0364 22.2608C9.8148 21.7342 9.49085 21.2569 9.08334 20.8564L8.82052 21.1239ZM9.69077 22.4062L9.34513 22.5517C9.52823 22.9867 9.62314 23.4538 9.62432 23.9258L9.99932 23.9249L10.3743 23.9239C10.3729 23.3526 10.258 22.7873 10.0364 22.2608L9.69077 22.4062ZM6.0001 24.4945H6.3751V21.994H6.0001H5.6251V24.4945H6.0001ZM6.00175 25.7561V25.3811H5.99775V25.7561V26.1311H6.00175V25.7561ZM6.00175 25.7561L6.01406 25.3813L6.0124 25.3812L6.0001 25.756L5.98779 26.1308L5.98945 26.1309L6.00175 25.7561ZM2.24988 28.017L2.5056 27.7427C1.99302 27.2648 1.5839 26.6869 1.30352 26.0446L0.959845 26.1946L0.616166 26.3447C0.937569 27.0809 1.40656 27.7434 1.99416 28.2913L2.24988 28.017ZM0.959845 26.1946L1.30353 26.0446C1.02314 25.4023 0.877475 24.7093 0.875508 24.0086L0.50051 24.0096L0.125511 24.0107C0.127765 24.814 0.294755 25.6084 0.616163 26.3447L0.959845 26.1946ZM0.50051 24.0096L0.875508 24.0086C0.873545 23.3078 1.01533 22.614 1.2921 21.9702L0.947585 21.8221L0.603069 21.674C0.285791 22.412 0.123261 23.2073 0.125511 24.0107L0.50051 24.0096ZM0.947585 21.8221L1.2921 21.9702C1.56887 21.3263 1.97474 20.7461 2.48464 20.2653L2.22738 19.9925L1.97012 19.7196C1.38561 20.2708 0.92034 20.9359 0.603068 21.674L0.947585 21.8221ZM9.7616 19.9821L9.50514 20.2556C10.0174 20.7358 10.4255 21.3161 10.7042 21.9606L11.0484 21.8118L11.3926 21.6629C11.0731 20.9242 10.6053 20.2589 10.0181 19.7085L9.7616 19.9821ZM11.0484 21.8118L10.7042 21.9606C10.9829 22.6051 11.1261 23.2999 11.1251 24.002L11.5001 24.0026L11.8751 24.0031C11.8763 23.1982 11.712 22.4017 11.3926 21.6629L11.0484 21.8118ZM11.5001 24.0026L11.1251 24.002C11.1241 24.7041 10.9789 25.3986 10.6983 26.0422L11.0421 26.1921L11.3859 26.3419C11.7074 25.604 11.874 24.808 11.8751 24.0031L11.5001 24.0026ZM11.0421 26.1921L10.6983 26.0422C10.4178 26.6859 10.008 27.265 9.49442 27.7437L9.7501 28.0181L10.0058 28.2924C10.5946 27.7436 11.0643 27.0797 11.3859 26.3419L11.0421 26.1921ZM5.99854 26.0081V25.6331C6.13654 25.6331 6.24854 25.745 6.24854 25.8831H5.87354H5.49854C5.49854 26.1594 5.72253 26.3831 5.99854 26.3831V26.0081ZM5.87354 25.8831H6.24854C6.24854 26.0213 6.13654 26.1331 5.99854 26.1331V25.7581V25.3831C5.72253 25.3831 5.49854 25.6069 5.49854 25.8831H5.87354ZM5.99854 26.0081V26.3831C6.27317 26.3831 6.49893 26.1608 6.49893 25.8831H6.12393H5.74893C5.74893 25.7435 5.862 25.6331 5.99854 25.6331V26.0081ZM6.12393 25.8831H6.49893C6.49893 25.6054 6.27317 25.3831 5.99854 25.3831V25.7581V26.1331C5.862 26.1331 5.74893 26.0227 5.74893 25.8831H6.12393Z" fill="#111111"/>
</g>
<g id="Size=16px, Filled=false">
<path id="Vector_2" d="M37.3321 23.8998L36.8321 23.9011V23.9012L37.3321 23.8998ZM31.9988 29.3258L31.9915 28.8259L31.9912 28.8259L31.9988 29.3258ZM26.6654 24.0858L27.1654 24.0846L27.1654 24.0845L26.6654 24.0858ZM31.9988 18.6592L32.0061 19.1591L32.0062 19.1591L31.9988 18.6592ZM34.0306 19.0351L33.8447 19.4992L33.8447 19.4992L34.0306 19.0351ZM35.7604 20.1652L36.1108 19.8086L36.1108 19.8086L35.7604 20.1652ZM36.9207 21.8749L37.3815 21.681L37.3815 21.681L36.9207 21.8749ZM31.4998 24.6593C31.4998 24.9355 31.7237 25.1593 31.9998 25.1593C32.2759 25.1593 32.4998 24.9355 32.4998 24.6593H31.4998ZM32.4998 21.3254C32.4998 21.0492 32.2759 20.8254 31.9998 20.8254C31.7237 20.8254 31.4998 21.0492 31.4998 21.3254H32.4998ZM32.0007 26.8414C32.2768 26.8414 32.5007 26.6175 32.5007 26.3414C32.5007 26.0653 32.2768 25.8414 32.0007 25.8414V26.8414ZM31.9967 25.8414C31.7205 25.8414 31.4967 26.0653 31.4967 26.3414C31.4967 26.6175 31.7205 26.8414 31.9967 26.8414V25.8414ZM26.6586 29.7217C26.8605 29.91 27.1769 29.8989 27.3652 29.6969C27.5535 29.4949 27.5425 29.1786 27.3405 28.9903L26.6586 29.7217ZM25.2795 26.9262L24.8212 27.1262L24.8212 27.1262L25.2795 26.9262ZM24.667 24.0128L24.167 24.0142V24.0142L24.667 24.0128ZM25.2631 21.0961L25.7225 21.2935L25.7225 21.2935L25.2631 21.0961ZM27.3125 19.0204C27.5134 18.831 27.5227 18.5145 27.3333 18.3136C27.1439 18.1127 26.8274 18.1034 26.6265 18.2928L27.3125 19.0204ZM37.3571 18.2779C37.1556 18.0891 36.8392 18.0993 36.6503 18.3008C36.4615 18.5023 36.4717 18.8187 36.6732 19.0075L37.3571 18.2779ZM38.7309 21.0824L39.1898 20.8839L39.1898 20.8839L38.7309 21.0824ZM39.3331 24.0034L38.8331 24.0027V24.0027L39.3331 24.0034ZM36.6589 28.9916C36.4569 29.1799 36.4458 29.4963 36.634 29.6983C36.8223 29.9003 37.1387 29.9114 37.3407 29.7232L36.6589 28.9916ZM37.3321 23.8998L36.8321 23.9012C36.8356 25.1939 36.3294 26.4358 35.4232 27.3577L35.7798 27.7082L36.1364 28.0587C37.2271 26.9491 37.8363 25.4543 37.8321 23.8985L37.3321 23.8998ZM35.7798 27.7082L35.4232 27.3577C34.5171 28.2796 33.2841 28.8071 31.9915 28.8259L31.9988 29.3258L32.006 29.8258C33.5617 29.8032 35.0458 29.1682 36.1364 28.0587L35.7798 27.7082ZM31.9988 29.3258L31.9912 28.8259C31.362 28.8354 30.7371 28.7199 30.1528 28.486L29.967 28.9502L29.7812 29.4144C30.4884 29.6975 31.2447 29.8373 32.0063 29.8258L31.9988 29.3258ZM29.967 28.9502L30.1528 28.486C29.5686 28.2522 29.0366 27.9046 28.5877 27.4636L28.2372 27.8202L27.8868 28.1769C28.4302 28.7108 29.0741 29.1314 29.7812 29.4144L29.967 28.9502ZM28.2372 27.8202L28.5877 27.4636C28.1387 27.0225 27.7819 26.4967 27.5377 25.9167L27.0769 26.1106L26.616 26.3046C26.9115 27.0067 27.3435 27.643 27.8868 28.1769L28.2372 27.8202ZM27.0769 26.1106L27.5377 25.9167C27.2936 25.3366 27.1671 24.7139 27.1654 24.0846L26.6654 24.0858L26.1655 24.0871C26.1674 24.8488 26.3205 25.6025 26.616 26.3046L27.0769 26.1106ZM26.6654 24.0858L27.1654 24.0845C27.162 22.7918 27.6682 21.5498 28.5743 20.6277L28.2177 20.2773L27.8611 19.9268C26.7705 21.0365 26.1613 22.5313 26.1655 24.0872L26.6654 24.0858ZM28.2177 20.2773L28.5743 20.6277C29.4805 19.7057 30.7135 19.1781 32.0061 19.1591L31.9988 18.6592L31.9914 18.1592C30.4357 18.182 28.9517 18.8171 27.8611 19.9268L28.2177 20.2773ZM31.9988 18.6592L32.0062 19.1591C32.6355 19.1497 33.2605 19.2653 33.8447 19.4992L34.0306 19.0351L34.2164 18.5709C33.5093 18.2877 32.7529 18.1478 31.9913 18.1592L31.9988 18.6592ZM34.0306 19.0351L33.8447 19.4992C34.429 19.7332 34.961 20.0808 35.4099 20.5219L35.7604 20.1652L36.1108 19.8086C35.5675 19.2747 34.9236 18.854 34.2164 18.5709L34.0306 19.0351ZM35.7604 20.1652L35.4099 20.5219C35.8588 20.963 36.2157 21.4888 36.4598 22.0689L36.9207 21.8749L37.3815 21.681C37.0861 20.9789 36.6541 20.3425 36.1108 19.8086L35.7604 20.1652ZM36.9207 21.8749L36.4598 22.0689C36.704 22.649 36.8305 23.2718 36.8321 23.9011L37.3321 23.8998L37.8321 23.8986C37.8302 23.1368 37.677 22.3831 37.3815 21.681L36.9207 21.8749ZM31.9998 24.6593H32.4998V21.3254H31.9998H31.4998V24.6593H31.9998ZM32.0007 26.3414V25.8414H31.9967V26.3414V26.8414H32.0007V26.3414ZM26.9995 29.356L27.3405 28.9903C26.657 28.3531 26.1115 27.5825 25.7377 26.7261L25.2795 26.9262L24.8212 27.1262C25.2498 28.1079 25.8751 28.9913 26.6586 29.7217L26.9995 29.356ZM25.2795 26.9262L25.7377 26.7261C25.3639 25.8697 25.1696 24.9458 25.167 24.0114L24.667 24.0128L24.167 24.0142C24.17 25.0853 24.3927 26.1445 24.8212 27.1262L25.2795 26.9262ZM24.667 24.0128L25.167 24.0114C25.1644 23.077 25.3534 22.152 25.7225 21.2935L25.2631 21.0961L24.8038 20.8986C24.3807 21.8827 24.164 22.9431 24.167 24.0142L24.667 24.0128ZM25.2631 21.0961L25.7225 21.2935C26.0915 20.4351 26.6327 19.6615 27.3125 19.0204L26.9695 18.6566L26.6265 18.2928C25.8472 19.0277 25.2268 19.9145 24.8038 20.8986L25.2631 21.0961ZM37.0151 18.6427L36.6732 19.0075C37.3562 19.6478 37.9003 20.4215 38.2719 21.2808L38.7309 21.0824L39.1898 20.8839C38.7638 19.8989 38.1401 19.0119 37.3571 18.2779L37.0151 18.6427ZM38.7309 21.0824L38.2719 21.2808C38.6435 22.1401 38.8345 23.0665 38.8331 24.0027L39.3331 24.0034L39.8331 24.0041C39.8347 22.931 39.6157 21.8689 39.1898 20.8839L38.7309 21.0824ZM39.3331 24.0034L38.8331 24.0027C38.8318 24.9389 38.6381 25.8648 38.2641 26.723L38.7225 26.9227L39.1808 27.1225C39.6096 26.1387 39.8316 25.0773 39.8331 24.0041L39.3331 24.0034ZM38.7225 26.9227L38.2641 26.723C37.8901 27.5812 37.3437 28.3533 36.6589 28.9916L36.9998 29.3574L37.3407 29.7232C38.1258 28.9915 38.7521 28.1063 39.1808 27.1225L38.7225 26.9227ZM31.9977 26.6775V26.1775C32.1817 26.1775 32.3311 26.3266 32.3311 26.5108H31.8311H31.3311C31.3311 26.8791 31.6297 27.1775 31.9977 27.1775V26.6775ZM31.8311 26.5108H32.3311C32.3311 26.695 32.1817 26.8441 31.9977 26.8441V26.3441V25.8441C31.6297 25.8441 31.3311 26.1425 31.3311 26.5108H31.8311ZM31.9977 26.6775V27.1775C32.3639 27.1775 32.6649 26.881 32.6649 26.5108H32.1649H31.6649C31.6649 26.3247 31.8157 26.1775 31.9977 26.1775V26.6775ZM32.1649 26.5108H32.6649C32.6649 26.1406 32.3639 25.8441 31.9977 25.8441V26.3441V26.8441C31.8157 26.8441 31.6649 26.6969 31.6649 26.5108H32.1649Z" fill="#111111"/>
</g>
<g id="Size=20px, Filled=false">
<path id="Vector_3" d="M68.6654 23.8748L68.0404 23.8764V23.8765L68.6654 23.8748ZM61.9987 30.6573L61.9896 30.0324L61.9892 30.0324L61.9987 30.6573ZM55.3321 24.1073L55.9571 24.1057L55.9571 24.1056L55.3321 24.1073ZM61.9987 17.324L62.0079 17.9489L62.0081 17.9489L61.9987 17.324ZM64.5384 17.7938L64.3061 18.374L64.3061 18.374L64.5384 17.7938ZM66.7007 19.2065L67.1387 18.7607L67.1387 18.7607L66.7007 19.2065ZM68.1511 21.3437L68.7272 21.1013L68.7272 21.1012L68.1511 21.3437ZM61.375 24.8242C61.375 25.1693 61.6548 25.4492 62 25.4492C62.3452 25.4492 62.625 25.1693 62.625 24.8242H61.375ZM62.625 20.6567C62.625 20.3115 62.3452 20.0317 62 20.0317C61.6548 20.0317 61.375 20.3115 61.375 20.6567H62.625ZM62.0001 27.5518C62.3453 27.5518 62.6251 27.2719 62.6251 26.9268C62.6251 26.5816 62.3453 26.3018 62.0001 26.3018V27.5518ZM61.9961 26.3018C61.6509 26.3018 61.3711 26.5816 61.3711 26.9268C61.3711 27.2719 61.6509 27.5518 61.9961 27.5518V26.3018ZM55.3234 31.1521C55.5759 31.3875 55.9714 31.3736 56.2068 31.1212C56.4422 30.8687 56.4283 30.4732 56.1758 30.2378L55.3234 31.1521ZM53.5996 27.6577L53.0268 27.9078L53.0268 27.9078L53.5996 27.6577ZM52.834 24.016L52.209 24.0178L52.209 24.0178L52.834 24.016ZM53.5791 20.3701L54.1533 20.6169L54.1533 20.6169L53.5791 20.3701ZM56.1409 17.7755C56.392 17.5387 56.4037 17.1432 56.1669 16.892C55.9301 16.6409 55.5345 16.6293 55.2834 16.8661L56.1409 17.7755ZM68.6966 16.8474C68.4448 16.6114 68.0492 16.6242 67.8132 16.876C67.5771 17.1278 67.5899 17.5233 67.8417 17.7594L68.6966 16.8474ZM70.4138 20.3529L70.9875 20.1049L70.9875 20.1049L70.4138 20.3529ZM71.1667 24.0043L70.5417 24.0033V24.0034L71.1667 24.0043ZM67.8239 30.2396C67.5714 30.4749 67.5575 30.8704 67.7928 31.1229C68.0281 31.3754 68.4236 31.3893 68.6761 31.154L67.8239 30.2396ZM68.6654 23.8748L68.0404 23.8765C68.0448 25.4923 67.412 27.0447 66.2793 28.1971L66.725 28.6352L67.1708 29.0733C68.5341 27.6864 69.2956 25.8179 69.2904 23.8731L68.6654 23.8748ZM66.725 28.6352L66.2793 28.1971C65.1466 29.3495 63.6053 30.0089 61.9896 30.0324L61.9987 30.6573L62.0078 31.2822C63.9524 31.254 65.8075 30.4603 67.1708 29.0733L66.725 28.6352ZM61.9987 30.6573L61.9892 30.0324C61.2027 30.0443 60.4216 29.8999 59.6913 29.6076L59.459 30.1878L59.2268 30.768C60.1107 31.1219 61.0562 31.2966 62.0082 31.2822L61.9987 30.6573ZM59.459 30.1878L59.6913 29.6076C58.961 29.3152 58.2959 28.8808 57.7348 28.3295L57.2968 28.7753L56.8587 29.2211C57.5379 29.8884 58.3428 30.4142 59.2268 30.768L59.459 30.1878ZM57.2968 28.7753L57.7348 28.3295C57.1737 27.7781 56.7276 27.1209 56.4224 26.3958L55.8463 26.6383L55.2703 26.8807C55.6397 27.7584 56.1796 28.5538 56.8587 29.2211L57.2968 28.7753ZM55.8463 26.6383L56.4224 26.3958C56.1172 25.6708 55.9591 24.8924 55.9571 24.1057L55.3321 24.1073L54.7071 24.1089C54.7095 25.061 54.9009 26.0032 55.2703 26.8807L55.8463 26.6383ZM55.3321 24.1073L55.9571 24.1056C55.9527 22.4897 56.5855 20.9372 57.7181 19.7847L57.2724 19.3466L56.8266 18.9085C55.4634 20.2956 54.7018 22.1641 54.7071 24.109L55.3321 24.1073ZM57.2724 19.3466L57.7181 19.7847C58.8508 18.6322 60.3921 17.9726 62.0079 17.9489L61.9987 17.324L61.9895 16.699C60.0449 16.7275 58.1899 17.5214 56.8266 18.9085L57.2724 19.3466ZM61.9987 17.324L62.0081 17.9489C62.7947 17.9371 63.5759 18.0816 64.3061 18.374L64.5384 17.7938L64.7708 17.2136C63.8869 16.8597 62.9414 16.6848 61.9893 16.699L61.9987 17.324ZM64.5384 17.7938L64.3061 18.374C65.0365 18.6664 65.7015 19.1009 66.2627 19.6523L66.7007 19.2065L67.1387 18.7607C66.4596 18.0934 65.6547 17.5675 64.7707 17.2136L64.5384 17.7938ZM66.7007 19.2065L66.2627 19.6523C66.8238 20.2037 67.2699 20.861 67.5751 21.5861L68.1511 21.3437L68.7272 21.1012C68.3578 20.2236 67.8179 19.4281 67.1387 18.7607L66.7007 19.2065ZM68.1511 21.3437L67.575 21.5861C67.8802 22.3112 68.0384 23.0897 68.0404 23.8764L68.6654 23.8748L69.2904 23.8732C69.288 22.9211 69.0965 21.9788 68.7272 21.1013L68.1511 21.3437ZM62 24.8242H62.625V20.6567H62H61.375V24.8242H62ZM62.0001 26.9268V26.3018H61.9961V26.9268V27.5518H62.0001V26.9268ZM55.7496 30.695L56.1758 30.2378C55.3215 29.4414 54.6397 28.4781 54.1724 27.4077L53.5996 27.6577L53.0268 27.9078C53.5625 29.1348 54.3441 30.2391 55.3234 31.1521L55.7496 30.695ZM53.5996 27.6577L54.1724 27.4077C53.7051 26.3372 53.4623 25.1822 53.459 24.0143L52.834 24.016L52.209 24.0178C52.2128 25.3567 52.4911 26.6806 53.0268 27.9078L53.5996 27.6577ZM52.834 24.016L53.459 24.0143C53.4557 22.8463 53.6921 21.69 54.1533 20.6169L53.5791 20.3701L53.005 20.1233C52.4762 21.3534 52.2053 22.6788 52.209 24.0178L52.834 24.016ZM53.5791 20.3701L54.1533 20.6169C54.6146 19.5439 55.2911 18.5768 56.1409 17.7755L55.7121 17.3208L55.2834 16.8661C54.3092 17.7846 53.5337 18.8932 53.005 20.1233L53.5791 20.3701ZM68.2692 17.3034L67.8417 17.7594C68.6955 18.5597 69.3757 19.5269 69.8402 20.601L70.4138 20.3529L70.9875 20.1049C70.455 18.8736 69.6753 17.7649 68.6966 16.8474L68.2692 17.3034ZM70.4138 20.3529L69.8402 20.601C70.3046 21.6751 70.5434 22.8331 70.5417 24.0033L71.1667 24.0043L71.7917 24.0052C71.7936 22.6637 71.5199 21.3362 70.9875 20.1049L70.4138 20.3529ZM71.1667 24.0043L70.5417 24.0034C70.54 25.1736 70.2979 26.331 69.8304 27.4037L70.4033 27.6534L70.9763 27.9031C71.5122 26.6734 71.7898 25.3466 71.7917 24.0051L71.1667 24.0043ZM70.4033 27.6534L69.8304 27.4037C69.3628 28.4765 68.6799 29.4417 67.8239 30.2396L68.25 30.6968L68.6761 31.154C69.6574 30.2393 70.4403 29.1329 70.9763 27.9031L70.4033 27.6534ZM61.9974 27.3468V26.7218C62.2274 26.7218 62.4141 26.9083 62.4141 27.1385H61.7891H61.1641C61.1641 27.5989 61.5374 27.9718 61.9974 27.9718V27.3468ZM61.7891 27.1385H62.4141C62.4141 27.3688 62.2274 27.5552 61.9974 27.5552V26.9302V26.3052C61.5374 26.3052 61.1641 26.6781 61.1641 27.1385H61.7891ZM61.9974 27.3468V27.9718C62.4551 27.9718 62.8314 27.6013 62.8314 27.1385H62.2064H61.5814C61.5814 26.9059 61.7698 26.7218 61.9974 26.7218V27.3468ZM62.2064 27.1385H62.8314C62.8314 26.6757 62.4551 26.3052 61.9974 26.3052V26.9302V27.5552C61.7698 27.5552 61.5814 27.3711 61.5814 27.1385H62.2064Z" fill="#111111"/>
</g>
<g id="Size=24px, Filled=false">
<path id="Vector_4" d="M103.999 23.8498L103.249 23.8516V23.8518L103.999 23.8498ZM95.9986 31.9888L95.9878 31.2388L95.9873 31.2388L95.9986 31.9888ZM87.9987 24.1288L88.7487 24.1268L88.7487 24.1267L87.9987 24.1288ZM95.9986 15.9888L96.0096 16.7387L96.0099 16.7387L95.9986 15.9888ZM99.0463 16.5526L98.7675 17.2488L98.7676 17.2489L99.0463 16.5526ZM101.641 18.2478L102.167 17.7129L102.167 17.7129L101.641 18.2478ZM103.382 20.8124L104.073 20.5215V20.5215L103.382 20.8124ZM95.2502 24.989C95.2502 25.4032 95.586 25.739 96.0002 25.739C96.4144 25.739 96.7502 25.4032 96.7502 24.989H95.2502ZM96.7502 19.988C96.7502 19.5738 96.4144 19.238 96.0002 19.238C95.586 19.238 95.2502 19.5738 95.2502 19.988H96.7502ZM95.9995 27.5121V28.2621C96.0159 28.2621 96.0322 28.2616 96.0486 28.2605L95.9995 27.5121ZM95.9955 26.7621C95.5813 26.7621 95.2455 27.0979 95.2455 27.5121C95.2455 27.9263 95.5813 28.2621 95.9955 28.2621V26.7621ZM96.0502 28.2604C96.4636 28.2333 96.7767 27.8763 96.7496 27.463C96.7225 27.0496 96.3655 26.7365 95.9521 26.7636L96.0502 28.2604ZM87.9883 32.5825C88.2913 32.865 88.7659 32.8484 89.0483 32.5454C89.3308 32.2424 89.3142 31.7678 89.0112 31.4854L87.9883 32.5825ZM85.9197 28.3893L85.2323 28.6893L85.2323 28.6893L85.9197 28.3893ZM85.001 24.0193L84.251 24.0214L84.251 24.0214L85.001 24.0193ZM85.8952 19.6441L86.5842 19.9403L86.5842 19.9403L85.8952 19.6441ZM88.9693 16.5307C89.2706 16.2465 89.2846 15.7718 89.0004 15.4704C88.7163 15.1691 88.2416 15.1551 87.9402 15.4393L88.9693 16.5307ZM104.036 15.4169C103.734 15.1336 103.259 15.149 102.976 15.4512C102.693 15.7534 102.708 16.228 103.01 16.5113L104.036 15.4169ZM106.097 19.6235L106.785 19.3259L106.785 19.3258L106.097 19.6235ZM107 24.0051L106.25 24.004V24.0041L107 24.0051ZM102.989 31.4875C102.686 31.7699 102.669 32.2445 102.952 32.5475C103.234 32.8505 103.709 32.8672 104.012 32.5847L102.989 31.4875ZM103.999 23.8498L103.249 23.8518C103.254 25.7908 102.495 27.6537 101.135 29.0365L101.67 29.5623L102.205 30.088C103.841 28.4236 104.755 26.1815 104.749 23.8477L103.999 23.8498ZM101.67 29.5623L101.135 29.0365C99.7761 30.4194 97.9266 31.2107 95.9878 31.2388L95.9986 31.9888L96.0095 32.7387C98.3431 32.7048 100.569 31.7524 102.205 30.088L101.67 29.5623ZM95.9986 31.9888L95.9873 31.2388C95.0435 31.2531 94.1061 31.0799 93.2298 30.7291L92.951 31.4254L92.6723 32.1216C93.7331 32.5462 94.8676 32.756 96.01 32.7387L95.9986 31.9888ZM92.951 31.4254L93.2298 30.7291C92.3533 30.3783 91.5553 29.857 90.882 29.1954L90.3563 29.7304L89.8307 30.2653C90.6457 31.0661 91.6116 31.6971 92.6723 32.1216L92.951 31.4254ZM90.3563 29.7304L90.882 29.1954C90.2086 28.5337 89.6733 27.7451 89.3071 26.875L88.6158 27.166L87.9245 27.4569C88.3678 28.51 89.0157 29.4646 89.8307 30.2653L90.3563 29.7304ZM88.6158 27.166L89.3071 26.875C88.9409 26.0049 88.7511 25.0709 88.7487 24.1268L87.9987 24.1288L87.2487 24.1307C87.2516 25.2733 87.4813 26.4038 87.9245 27.4569L88.6158 27.166ZM87.9987 24.1288L88.7487 24.1267C88.7434 22.1876 89.5027 20.3246 90.862 18.9416L90.3271 18.4159L89.7921 17.8902C88.1563 19.5547 87.2424 21.797 87.2487 24.1308L87.9987 24.1288ZM90.3271 18.4159L90.862 18.9416C92.2212 17.5586 94.0708 16.7671 96.0096 16.7387L95.9986 15.9888L95.9876 15.2389C93.6541 15.2731 91.428 16.2257 89.7921 17.8902L90.3271 18.4159ZM95.9986 15.9888L96.0099 16.7387C96.9538 16.7246 97.8912 16.898 98.7675 17.2488L99.0463 16.5526L99.3251 15.8563C98.2644 15.4316 97.1299 15.2218 95.9874 15.2389L95.9986 15.9888ZM99.0463 16.5526L98.7676 17.2489C99.644 17.5997 100.442 18.1211 101.115 18.7828L101.641 18.2478L102.167 17.7129C101.352 16.9121 100.386 16.281 99.3251 15.8563L99.0463 16.5526ZM101.641 18.2478L101.115 18.7828C101.789 19.4445 102.324 20.2332 102.69 21.1034L103.382 20.8124L104.073 20.5215C103.63 19.4684 102.982 18.5137 102.167 17.7129L101.641 18.2478ZM103.382 20.8124L102.69 21.1033C103.056 21.9735 103.246 22.9076 103.249 23.8516L103.999 23.8498L104.749 23.8479C104.746 22.7053 104.516 21.5746 104.073 20.5215L103.382 20.8124ZM96.0002 24.989H96.7502V19.988H96.0002H95.2502V24.989H96.0002ZM95.9995 27.5121V26.7621H95.9955V27.5121V28.2621H95.9995V27.5121ZM96.0012 27.512L95.9521 26.7636L95.9505 26.7637L95.9995 27.5121L96.0486 28.2605L96.0502 28.2604L96.0012 27.512ZM88.4998 32.034L89.0112 31.4854C87.986 30.5296 87.1678 29.3737 86.607 28.0892L85.9197 28.3893L85.2323 28.6893C85.8751 30.1618 86.8131 31.4869 87.9883 32.5825L88.4998 32.034ZM85.9197 28.3893L86.6071 28.0892C86.0463 26.8046 85.7549 25.4187 85.751 24.0171L85.001 24.0193L84.251 24.0214C84.2555 25.628 84.5895 27.2167 85.2323 28.6893L85.9197 28.3893ZM85.001 24.0193L85.751 24.0172C85.7471 22.6155 86.0307 21.228 86.5842 19.9403L85.8952 19.6441L85.2061 19.3479C84.5716 20.824 84.2465 22.4146 84.251 24.0214L85.001 24.0193ZM85.8952 19.6441L86.5842 19.9403C87.1377 18.6526 87.9495 17.4922 88.9693 16.5307L88.4548 15.985L87.9402 15.4393C86.7712 16.5415 85.8407 17.8718 85.2061 19.3479L85.8952 19.6441ZM103.523 15.9641L103.01 16.5113C104.035 17.4717 104.851 18.6323 105.408 19.9212L106.097 19.6235L106.785 19.3258C106.146 17.8483 105.211 16.5179 104.036 15.4169L103.523 15.9641ZM106.097 19.6235L105.408 19.9212C105.966 21.2101 106.252 22.5998 106.25 24.004L107 24.0051L107.75 24.0062C107.753 22.3964 107.424 20.8034 106.785 19.3259L106.097 19.6235ZM107 24.0051L106.25 24.0041C106.248 25.4083 105.958 26.7971 105.397 28.0845L106.084 28.3841L106.772 28.6838C107.415 27.2081 107.748 25.6159 107.75 24.0061L107 24.0051ZM106.084 28.3841L105.397 28.0845C104.836 29.3718 104.016 30.53 102.989 31.4875L103.5 32.0361L104.012 32.5847C105.189 31.4872 106.129 30.1594 106.772 28.6838L106.084 28.3841ZM95.9971 28.0162V27.2662C96.2731 27.2662 96.4971 27.4899 96.4971 27.7662H95.7471H94.9971C94.9971 28.3187 95.4451 28.7662 95.9971 28.7662V28.0162ZM95.7471 27.7662H96.4971C96.4971 28.0425 96.2731 28.2662 95.9971 28.2662V27.5162V26.7662C95.4451 26.7662 94.9971 27.2137 94.9971 27.7662H95.7471ZM95.9971 28.0162V28.7662C96.5463 28.7662 96.9979 28.3216 96.9979 27.7662H96.2479H95.4979C95.4979 27.4871 95.724 27.2662 95.9971 27.2662V28.0162ZM96.2479 27.7662H96.9979C96.9979 27.2109 96.5463 26.7662 95.9971 26.7662V27.5162V28.2662C95.724 28.2662 95.4979 28.0454 95.4979 27.7662H96.2479Z" fill="#111111"/>
</g>
<g id="Size=32px, Filled=false">
<path id="Vector_5" d="M146.665 23.7997L145.665 23.8022V23.8024L146.665 23.7997ZM135.998 34.6517L135.984 33.6518L135.983 33.6518L135.998 34.6517ZM125.331 24.1717L126.331 24.1691L126.331 24.169L125.331 24.1717ZM135.998 13.3184L136.013 14.3183L136.013 14.3183L135.998 13.3184ZM140.062 14.0701L139.69 14.9985L139.69 14.9985L140.062 14.0701ZM143.521 16.3305L144.222 15.6172L144.222 15.6172L143.521 16.3305ZM145.842 19.7499L146.764 19.362L146.764 19.362L145.842 19.7499ZM135 25.3187C135 25.871 135.448 26.3187 136 26.3187C136.552 26.3187 137 25.871 137 25.3187H135ZM137 18.6507C137 18.0984 136.552 17.6507 136 17.6507C135.448 17.6507 135 18.0984 135 18.6507H137ZM136.002 28.6828V29.6828C136.538 29.6828 136.979 29.2599 137.001 28.7241C137.023 28.1884 136.619 27.7305 136.084 27.6862L136.002 28.6828ZM135.994 27.6828C135.442 27.6828 134.994 28.1305 134.994 28.6828C134.994 29.2351 135.442 29.6828 135.994 29.6828V27.6828ZM136.083 27.6861C135.532 27.6405 135.049 28.0497 135.004 28.6001C134.958 29.1505 135.367 29.6336 135.918 29.6793L136.083 27.6861ZM125.318 35.4434C125.722 35.82 126.354 35.7978 126.731 35.3939C127.108 34.9899 127.085 34.3571 126.681 33.9805L125.318 35.4434ZM122.559 29.8523L121.643 30.2524L121.643 30.2524L122.559 29.8523ZM121.335 24.0257L120.335 24.0285V24.0285L121.335 24.0257ZM122.527 18.1921L123.445 18.5871L123.445 18.5871L122.527 18.1921ZM126.626 14.0409C127.027 13.662 127.046 13.0291 126.667 12.6273C126.288 12.2254 125.655 12.2068 125.253 12.5857L126.626 14.0409ZM146.715 12.5559C146.312 12.1782 145.679 12.1986 145.301 12.6016C144.923 13.0045 144.944 13.6374 145.347 14.0151L146.715 12.5559ZM149.462 18.1647L150.38 17.7678L150.38 17.7678L149.462 18.1647ZM150.667 24.0068L149.667 24.0053V24.0054L150.667 24.0068ZM145.318 33.9833C144.914 34.3598 144.892 34.9926 145.269 35.3966C145.645 35.8006 146.278 35.8229 146.682 35.4463L145.318 33.9833ZM146.665 23.7997L145.665 23.8024C145.672 26.3877 144.659 28.8716 142.847 30.7153L143.56 31.4163L144.273 32.1173C146.455 29.8982 147.673 26.9087 147.665 23.797L146.665 23.7997ZM143.56 31.4163L142.847 30.7153C141.035 32.5591 138.569 33.6143 135.984 33.6518L135.998 34.6517L136.013 35.6516C139.124 35.6064 142.092 34.3365 144.273 32.1173L143.56 31.4163ZM135.998 34.6517L135.983 33.6518C134.724 33.6708 133.475 33.4398 132.306 32.9721L131.935 33.9005L131.563 34.8289C132.977 35.395 134.49 35.6746 136.013 35.6516L135.998 34.6517ZM131.935 33.9005L132.306 32.9721C131.138 32.5043 130.074 31.8093 129.176 30.9272L128.475 31.6405L127.774 32.3538C128.861 33.4215 130.149 34.2627 131.563 34.8289L131.935 33.9005ZM128.475 31.6405L129.176 30.9272C128.278 30.045 127.564 28.9934 127.076 27.8334L126.154 28.2213L125.233 28.6092C125.824 30.0134 126.687 31.2861 127.774 32.3538L128.475 31.6405ZM126.154 28.2213L127.076 27.8334C126.588 26.6732 126.335 25.4278 126.331 24.1691L125.331 24.1717L124.331 24.1742C124.335 25.6977 124.642 27.2051 125.233 28.6092L126.154 28.2213ZM125.331 24.1717L126.331 24.169C126.324 21.5835 127.337 19.0995 129.149 17.2555L128.436 16.5546L127.723 15.8536C125.542 18.073 124.323 21.0626 124.331 24.1744L125.331 24.1717ZM128.436 16.5546L129.149 17.2555C130.961 15.4115 133.428 14.3561 136.013 14.3183L135.998 13.3184L135.983 12.3185C132.872 12.3641 129.904 13.6342 127.723 15.8536L128.436 16.5546ZM135.998 13.3184L136.013 14.3183C137.272 14.2994 138.521 14.5306 139.69 14.9985L140.062 14.0701L140.433 13.1418C139.019 12.5755 137.506 12.2957 135.983 12.3185L135.998 13.3184ZM140.062 14.0701L139.69 14.9985C140.858 15.4663 141.922 16.1615 142.82 17.0438L143.521 16.3305L144.222 15.6172C143.135 14.5494 141.848 13.708 140.433 13.1418L140.062 14.0701ZM143.521 16.3305L142.82 17.0437C143.718 17.926 144.432 18.9776 144.92 20.1378L145.842 19.7499L146.764 19.362C146.173 17.9578 145.309 16.6849 144.222 15.6172L143.521 16.3305ZM145.842 19.7499L144.92 20.1378C145.408 21.298 145.662 22.5435 145.665 23.8022L146.665 23.7997L147.665 23.7972C147.661 22.2737 147.355 20.7662 146.764 19.362L145.842 19.7499ZM136 25.3187H137V18.6507H136H135V25.3187H136ZM136.002 28.6828V27.6828H135.994V28.6828V29.6828H136.002V28.6828ZM136.002 28.6828L136.084 27.6862L136.083 27.6861L136 28.6827L135.918 29.6793L135.919 29.6794L136.002 28.6828ZM126 34.7119L126.681 33.9805C125.315 32.7062 124.224 31.1649 123.476 29.4523L122.559 29.8523L121.643 30.2524C122.5 32.2157 123.751 33.9825 125.318 35.4434L126 34.7119ZM122.559 29.8523L123.476 29.4523C122.728 27.7394 122.34 25.8916 122.335 24.0229L121.335 24.0257L120.335 24.0285C120.341 26.1707 120.786 28.289 121.643 30.2524L122.559 29.8523ZM121.335 24.0257L122.335 24.0229C122.329 22.154 122.707 20.304 123.445 18.5871L122.527 18.1921L121.608 17.7972C120.762 19.7654 120.329 21.8861 120.335 24.0285L121.335 24.0257ZM122.527 18.1921L123.445 18.5871C124.183 16.8702 125.266 15.3229 126.626 14.0409L125.94 13.3133L125.253 12.5857C123.695 14.0554 122.454 15.8291 121.608 17.7972L122.527 18.1921ZM146.031 13.2855L145.347 14.0151C146.713 15.2955 147.801 16.8431 148.544 18.5617L149.462 18.1647L150.38 17.7678C149.528 15.7978 148.281 14.0238 146.715 12.5559L146.031 13.2855ZM149.462 18.1647L148.544 18.5616C149.287 20.2801 149.67 22.133 149.667 24.0053L150.667 24.0068L151.667 24.0083C151.67 21.8619 151.232 19.7379 150.38 17.7678L149.462 18.1647ZM150.667 24.0068L149.667 24.0054C149.664 25.8777 149.277 27.7295 148.529 29.4459L149.445 29.8455L150.362 30.245C151.22 28.2774 151.664 26.1546 151.667 24.0082L150.667 24.0068ZM149.445 29.8455L148.529 29.4459C147.781 31.1623 146.688 32.7067 145.318 33.9833L146 34.7148L146.682 35.4463C148.252 33.9829 149.505 32.2126 150.362 30.245L149.445 29.8455ZM135.996 29.3549V28.3549C136.364 28.3549 136.663 28.6532 136.663 29.0216H135.663H134.663C134.663 29.7583 135.26 30.3549 135.996 30.3549V29.3549ZM135.663 29.0216H136.663C136.663 29.39 136.364 29.6883 135.996 29.6883V28.6883V27.6883C135.26 27.6883 134.663 28.2849 134.663 29.0216H135.663ZM135.997 29.3549V30.3549C136.733 30.3549 137.33 29.758 137.33 29.0216H136.33H135.33C135.33 28.6535 135.629 28.3549 135.997 28.3549V29.3549ZM136.33 29.0216H137.33C137.33 28.2852 136.733 27.6883 135.997 27.6883V28.6883V29.6883C135.629 29.6883 135.33 29.3898 135.33 29.0216H136.33Z" fill="#111111"/>
</g>
<g id="Size=40px, Filled=false">
<path id="Vector_6" d="M197.331 23.7496L196.081 23.7527V23.753L197.331 23.7496ZM183.997 37.3146L183.979 36.0647L183.978 36.0647L183.997 37.3146ZM170.664 24.2146L171.914 24.2114L171.914 24.2112L170.664 24.2146ZM183.997 10.648L184.016 11.8978L184.016 11.8978L183.997 10.648ZM189.077 11.5876L188.612 12.7481L188.612 12.7481L189.077 11.5876ZM193.401 14.4131L194.277 13.5215L194.277 13.5215L193.401 14.4131ZM196.302 18.6874L197.454 18.2025L197.454 18.2025L196.302 18.6874ZM182.75 25.6483C182.75 26.3387 183.31 26.8983 184 26.8983C184.69 26.8983 185.25 26.3387 185.25 25.6483H182.75ZM185.25 17.3134C185.25 16.623 184.69 16.0634 184 16.0634C183.31 16.0634 182.75 16.623 182.75 17.3134H185.25ZM184.002 29.8535V31.1035C184.672 31.1035 185.223 30.5752 185.251 29.9057C185.279 29.2363 184.774 28.6638 184.107 28.6079L184.002 29.8535ZM183.992 28.6035C183.302 28.6035 182.742 29.1632 182.742 29.8535C182.742 30.5439 183.302 31.1035 183.992 31.1035V28.6035ZM184.104 28.6077C183.416 28.5501 182.812 29.061 182.754 29.749C182.697 30.4369 183.208 31.0413 183.896 31.099L184.104 28.6077ZM170.647 38.3042C171.152 38.775 171.943 38.7473 172.414 38.2423C172.884 37.7374 172.857 36.9464 172.352 36.4756L170.647 38.3042ZM167.199 31.3154L166.054 31.8155L166.054 31.8155L167.199 31.3154ZM165.668 24.0321L164.418 24.0356L164.418 24.0356L165.668 24.0321ZM167.158 16.7402L168.307 17.2339L168.307 17.2338L167.158 16.7402ZM172.282 11.5511C172.784 11.0775 172.807 10.2864 172.334 9.78408C171.86 9.28179 171.069 9.25852 170.567 9.73212L172.282 11.5511ZM197.393 9.69487C196.89 9.22274 196.098 9.24831 195.626 9.75198C195.154 10.2557 195.18 11.0467 195.683 11.5188L197.393 9.69487ZM200.828 16.7059L201.975 16.2098L201.975 16.2097L200.828 16.7059ZM202.333 24.0085L201.083 24.0067V24.0068L202.333 24.0085ZM195.648 36.4791C195.143 36.9498 195.115 37.7408 195.586 38.2458C196.056 38.7508 196.847 38.7786 197.352 38.3079L195.648 36.4791ZM197.331 23.7496L196.081 23.753C196.09 26.9847 194.824 30.0895 192.559 32.3942L193.45 33.2704L194.342 34.1467C197.068 31.3727 198.591 27.6358 198.581 23.7462L197.331 23.7496ZM193.45 33.2704L192.559 32.3942C190.293 34.6989 187.211 36.0178 183.979 36.0647L183.997 37.3146L184.016 38.5645C187.905 38.508 191.615 36.9206 194.342 34.1467L193.45 33.2704ZM183.997 37.3146L183.978 36.0647C182.405 36.0886 180.843 35.7998 179.383 35.2151L178.918 36.3756L178.454 37.5361C180.221 38.2437 182.112 38.5933 184.016 38.5644L183.997 37.3146ZM178.918 36.3756L179.383 35.2151C177.922 34.6304 176.592 33.7616 175.47 32.659L174.594 33.5506L173.717 34.4422C175.076 35.7769 176.686 36.8284 178.454 37.5361L178.918 36.3756ZM174.594 33.5506L175.47 32.659C174.347 31.5562 173.455 30.2418 172.845 28.7917L171.693 29.2766L170.541 29.7615C171.279 31.5167 172.359 33.1076 173.717 34.4422L174.594 33.5506ZM171.693 29.2766L172.845 28.7917C172.234 27.3415 171.918 25.7848 171.914 24.2114L170.664 24.2146L169.414 24.2178C169.419 26.1221 169.802 28.0063 170.541 29.7615L171.693 29.2766ZM170.664 24.2146L171.914 24.2112C171.905 20.9794 173.171 17.8744 175.436 15.5694L174.545 14.6932L173.653 13.817C170.927 16.5912 169.404 20.3283 169.414 24.218L170.664 24.2146ZM174.545 14.6932L175.436 15.5694C177.702 13.2644 180.784 11.9452 184.016 11.8978L183.997 10.648L183.979 9.39809C180.09 9.45509 176.38 11.0428 173.653 13.817L174.545 14.6932ZM183.997 10.648L184.016 11.8978C185.589 11.8743 187.152 12.1633 188.612 12.7481L189.077 11.5876L189.542 10.4272C187.774 9.71937 185.883 9.36959 183.979 9.3981L183.997 10.648ZM189.077 11.5876L188.612 12.7481C190.073 13.3329 191.403 14.2019 192.525 15.3047L193.401 14.4131L194.277 13.5215C192.919 12.1868 191.309 11.135 189.541 10.4272L189.077 11.5876ZM193.401 14.4131L192.525 15.3047C193.648 16.4075 194.54 17.7221 195.15 19.1722L196.302 18.6874L197.454 18.2025C196.716 16.4473 195.636 14.8562 194.277 13.5215L193.401 14.4131ZM196.302 18.6874L195.15 19.1722C195.76 20.6225 196.077 22.1794 196.081 23.7527L197.331 23.7496L198.581 23.7465C198.576 21.8421 198.193 19.9577 197.454 18.2025L196.302 18.6874ZM184 25.6483H185.25V17.3134H184H182.75V25.6483H184ZM184.002 29.8535V28.6035H183.992V29.8535V31.1035H184.002V29.8535ZM184.002 29.8535L184.107 28.6079L184.104 28.6077L184 29.8533L183.896 31.099L183.898 31.0992L184.002 29.8535ZM171.499 37.3899L172.352 36.4756C170.643 34.8827 169.279 32.9562 168.345 30.8153L167.199 31.3154L166.054 31.8155C167.125 34.2697 168.688 36.4781 170.647 38.3042L171.499 37.3899ZM167.199 31.3154L168.345 30.8153C167.41 28.6743 166.925 26.3645 166.918 24.0286L165.668 24.0321L164.418 24.0356C164.426 26.7134 164.982 29.3612 166.054 31.8155L167.199 31.3154ZM165.668 24.0321L166.918 24.0286C166.911 21.6925 167.384 19.38 168.307 17.2339L167.158 16.7402L166.01 16.2465C164.952 18.7067 164.411 21.3577 164.418 24.0356L165.668 24.0321ZM167.158 16.7402L168.307 17.2338C169.229 15.0877 170.582 13.1536 172.282 11.5511L171.424 10.6416L170.567 9.73212C168.618 11.5692 167.067 13.7863 166.01 16.2465L167.158 16.7402ZM196.538 10.6068L195.683 11.5188C197.391 13.1194 198.751 15.0538 199.68 17.2021L200.828 16.7059L201.975 16.2097C200.91 13.7472 199.351 11.5298 197.393 9.69487L196.538 10.6068ZM200.828 16.7059L199.68 17.202C200.609 19.3502 201.087 21.6663 201.083 24.0067L202.333 24.0085L203.583 24.0103C203.587 21.3274 203.04 18.6723 201.975 16.2098L200.828 16.7059ZM202.333 24.0085L201.083 24.0068C201.08 26.3471 200.596 28.6619 199.661 30.8074L200.807 31.3068L201.953 31.8063C203.024 29.3468 203.58 26.6932 203.583 24.0102L202.333 24.0085ZM200.807 31.3068L199.661 30.8074C198.726 32.9529 197.36 34.8834 195.648 36.4791L196.5 37.3935L197.352 38.3079C199.315 36.4786 200.881 34.2657 201.953 31.8063L200.807 31.3068ZM183.995 30.6937V29.4437C184.455 29.4437 184.828 29.8165 184.828 30.277H183.578H182.328C182.328 31.1979 183.075 31.9437 183.995 31.9437V30.6937ZM183.578 30.277H184.828C184.828 30.7375 184.455 31.1104 183.995 31.1104V29.8604V28.6104C183.075 28.6104 182.328 29.3562 182.328 30.277H183.578ZM183.996 30.6937V31.9437C184.917 31.9437 185.663 31.1975 185.663 30.277H184.413H183.163C183.163 29.8168 183.536 29.4437 183.996 29.4437V30.6937ZM184.413 30.277H185.663C185.663 29.3565 184.917 28.6104 183.996 28.6104V29.8604V31.1104C183.536 31.1104 183.163 30.7372 183.163 30.277H184.413Z" fill="#111111"/>
</g>
<g id="Size=48px, Filled=false">
<path id="Vector_7" d="M255.997 23.6995L254.497 23.7032V23.7036L255.997 23.6995ZM239.997 39.9775L239.975 38.4777L239.974 38.4777L239.997 39.9775ZM223.997 24.2575L225.497 24.2537L225.497 24.2535L223.997 24.2575ZM239.997 7.97755L240.019 9.47739L240.019 9.47738L239.997 7.97755ZM246.092 9.10517L245.535 10.4977L245.535 10.4977L246.092 9.10517ZM251.282 12.4957L252.333 11.4258L252.333 11.4258L251.282 12.4957ZM254.763 17.6248L256.145 17.043V17.043L254.763 17.6248ZM238.5 25.978C238.5 26.8064 239.171 27.478 240 27.478C240.828 27.478 241.5 26.8064 241.5 25.978H238.5ZM241.5 15.9761C241.5 15.1477 240.828 14.4761 240 14.4761C239.171 14.4761 238.5 15.1477 238.5 15.9761H241.5ZM240.003 31.0242V32.5242C240.807 32.5242 241.468 31.8899 241.501 31.0862C241.534 30.2826 240.928 29.5958 240.126 29.5293L240.003 31.0242ZM239.991 29.5242C239.162 29.5242 238.491 30.1958 238.491 31.0242C238.491 31.8526 239.162 32.5242 239.991 32.5242V29.5242ZM240.124 29.5291C239.298 29.4607 238.573 30.0745 238.505 30.9001C238.437 31.7257 239.05 32.4504 239.876 32.5189L240.124 29.5291ZM223.976 41.1651C224.582 41.73 225.531 41.6967 226.096 41.0908C226.661 40.4848 226.628 39.5357 226.022 38.9708L223.976 41.1651ZM219.839 32.7785L218.464 33.3786L218.464 33.3786L219.839 32.7785ZM218.002 24.0385L216.502 24.0427L216.502 24.0427L218.002 24.0385ZM219.79 15.2882L221.168 15.8806L221.168 15.8806L219.79 15.2882ZM225.938 9.0613C226.541 8.49298 226.569 7.54364 226 6.94089C225.432 6.33814 224.483 6.31023 223.88 6.87855L225.938 9.0613ZM256.072 6.83385C255.467 6.26729 254.518 6.29797 253.952 6.90238C253.385 7.50678 253.416 8.45603 254.02 9.02259L256.072 6.83385ZM260.193 15.2471L261.57 14.6517L261.57 14.6517L260.193 15.2471ZM262 24.0102L260.5 24.008V24.0081L262 24.0102ZM253.977 38.9749C253.371 39.5398 253.338 40.4889 253.903 41.0949C254.467 41.7009 255.417 41.7343 256.023 41.1695L253.977 38.9749ZM255.997 23.6995L254.497 23.7036C254.507 27.5816 252.989 31.3073 250.27 34.073L251.34 35.1245L252.41 36.176C255.682 32.8473 257.509 28.363 257.497 23.6954L255.997 23.6995ZM251.34 35.1245L250.27 34.073C247.552 36.8387 243.853 38.4214 239.975 38.4777L239.997 39.9775L240.019 41.4773C244.686 41.4096 249.138 39.5047 252.41 36.176L251.34 35.1245ZM239.997 39.9775L239.974 38.4777C238.086 38.5063 236.212 38.1597 234.459 37.4581L233.902 38.8507L233.344 40.2433C235.466 41.0925 237.735 41.5119 240.019 41.4773L239.997 39.9775ZM233.902 38.8507L234.459 37.4581C232.706 36.7565 231.11 35.714 229.763 34.3907L228.712 35.4607L227.661 36.5307C229.291 38.1323 231.223 39.3941 233.344 40.2433L233.902 38.8507ZM228.712 35.4607L229.763 34.3907C228.417 33.0675 227.346 31.4902 226.614 29.75L225.231 30.3319L223.849 30.9138C224.735 33.02 226.031 34.9291 227.661 36.5307L228.712 35.4607ZM225.231 30.3319L226.614 29.75C225.881 28.0098 225.502 26.1417 225.497 24.2537L223.997 24.2575L222.497 24.2613C222.503 26.5465 222.962 28.8076 223.849 30.9138L225.231 30.3319ZM223.997 24.2575L225.497 24.2535C225.486 20.3753 227.005 16.6493 229.723 13.8832L228.654 12.8318L227.584 11.7804C224.312 15.1094 222.484 19.5939 222.497 24.2616L223.997 24.2575ZM228.654 12.8318L229.723 13.8832C232.442 11.1172 236.141 9.53422 240.019 9.47739L239.997 7.97755L239.975 6.47771C235.308 6.54611 230.856 8.45137 227.584 11.7804L228.654 12.8318ZM239.997 7.97755L240.019 9.47738C241.907 9.44911 243.782 9.79593 245.535 10.4977L246.092 9.10517L246.65 7.71265C244.528 6.86325 242.259 6.4435 239.974 6.47772L239.997 7.97755ZM246.092 9.10517L245.535 10.4977C247.287 11.1995 248.883 12.2423 250.23 13.5656L251.282 12.4957L252.333 11.4258C250.703 9.82415 248.771 8.56202 246.65 7.71263L246.092 9.10517ZM251.282 12.4957L250.23 13.5656C251.577 14.889 252.648 16.4665 253.38 18.2067L254.763 17.6248L256.145 17.043C255.259 14.9367 253.963 13.0274 252.333 11.4258L251.282 12.4957ZM254.763 17.6248L253.38 18.2067C254.112 19.947 254.492 21.8153 254.497 23.7032L255.997 23.6995L257.497 23.6958C257.491 21.4105 257.032 19.1492 256.145 17.043L254.763 17.6248ZM240 25.978H241.5V15.9761H240H238.5V25.978H240ZM240.003 31.0242V29.5242H239.991V31.0242V32.5242H240.003V31.0242ZM240.003 31.0242L240.126 29.5293L240.124 29.5291L240 31.024L239.876 32.5189L239.879 32.5191L240.003 31.0242ZM224.999 40.0679L226.022 38.9708C223.972 37.0592 222.335 34.7474 221.214 32.1784L219.839 32.7785L218.464 33.3786C219.75 36.3236 221.626 38.9738 223.976 41.1651L224.999 40.0679ZM219.839 32.7785L221.214 32.1784C220.092 29.6092 219.509 26.8374 219.502 24.0343L218.002 24.0385L216.502 24.0427C216.511 27.256 217.179 30.4334 218.464 33.3786L219.839 32.7785ZM218.002 24.0385L219.502 24.0343C219.494 21.231 220.061 18.456 221.168 15.8806L219.79 15.2882L218.412 14.6958C217.143 17.648 216.493 20.8292 216.502 24.0427L218.002 24.0385ZM219.79 15.2882L221.168 15.8806C222.275 13.3053 223.898 10.9844 225.938 9.0613L224.909 7.96992L223.88 6.87855C221.542 9.08304 219.681 11.7436 218.412 14.6958L219.79 15.2882ZM255.046 7.92822L254.02 9.02259C256.069 10.9433 257.701 13.2646 258.816 15.8425L260.193 15.2471L261.57 14.6517C260.292 11.6967 258.421 9.03572 256.072 6.83385L255.046 7.92822ZM260.193 15.2471L258.816 15.8424C259.931 18.4202 260.504 21.1995 260.5 24.008L262 24.0102L263.5 24.0124C263.505 20.7929 262.848 17.6068 261.57 14.6517L260.193 15.2471ZM262 24.0102L260.5 24.0081C260.496 26.8166 259.915 29.5943 258.793 32.1689L260.168 32.7682L261.543 33.3675C262.829 30.4161 263.495 27.2318 263.5 24.0123L262 24.0102ZM260.168 32.7682L258.793 32.1689C257.671 34.7435 256.032 37.06 253.977 38.9749L255 40.0722L256.023 41.1695C258.378 38.9744 260.257 36.3189 261.543 33.3675L260.168 32.7682ZM239.994 32.0324V30.5324C240.546 30.5324 240.994 30.9798 240.994 31.5324H239.494H237.994C237.994 32.6374 238.89 33.5324 239.994 33.5324V32.0324ZM239.494 31.5324H240.994C240.994 32.085 240.546 32.5324 239.994 32.5324V31.0324V29.5324C238.89 29.5324 237.994 30.4274 237.994 31.5324H239.494ZM239.995 32.0324V33.5324C241.1 33.5324 241.995 32.6371 241.995 31.5324H240.495H238.995C238.995 30.9802 239.443 30.5324 239.995 30.5324V32.0324ZM240.495 31.5324H241.995C241.995 30.4278 241.1 29.5324 239.995 29.5324V31.0324V32.5324C239.443 32.5324 238.995 32.0847 238.995 31.5324H240.495Z" fill="#111111"/>
</g>
<g id="Size=12px, Filled=true" clip-path="url(#clip1_3570_440)">
<g id="Vector_8">
<path fill-rule="evenodd" clip-rule="evenodd" d="M6.0001 79.5C3.51482 79.5 1.5001 81.5147 1.5001 84C1.5001 86.4853 3.51482 88.5 6.0001 88.5C8.48538 88.5 10.5001 86.4853 10.5001 84C10.5001 81.5147 8.48538 79.5 6.0001 79.5ZM6.0001 81.4941C6.27624 81.4941 6.5001 81.718 6.5001 81.9941V84.4946C6.5001 84.7708 6.27624 84.9946 6.0001 84.9946C5.72396 84.9946 5.5001 84.7708 5.5001 84.4946V81.9941C5.5001 81.718 5.72396 81.4941 6.0001 81.4941ZM6.62388 85.8831C6.62388 85.5379 6.34383 85.2583 5.99863 85.2583C5.65362 85.2583 5.37363 85.5377 5.37363 85.8831C5.37363 86.2284 5.65386 86.5081 5.99888 86.5081C6.34407 86.5081 6.62388 86.2282 6.62388 85.8831Z" fill="#111111"/>
<path fill-rule="evenodd" clip-rule="evenodd" d="M2.59117 79.6495C2.78061 79.8504 2.77131 80.1668 2.57039 80.3563C2.07293 80.8253 1.67696 81.3914 1.40694 82.0195C1.13692 82.6476 0.998593 83.3245 1.00051 84.0082C1.00243 84.6919 1.14454 85.3679 1.41809 85.9946C1.69162 86.6212 2.09076 87.185 2.59084 87.6513C2.79282 87.8396 2.8039 88.156 2.6156 88.3579C2.42729 88.5599 2.1109 88.571 1.90892 88.3827C1.30882 87.8232 0.829847 87.1466 0.501606 86.3947C0.173361 85.6427 0.00281366 84.8315 0.000511819 84.011C-0.00178618 83.1906 0.164202 82.3783 0.488229 81.6246C0.812252 80.8708 1.28742 80.1915 1.88437 79.6287C2.08529 79.4392 2.40173 79.4486 2.59117 79.6495Z" fill="#111111"/>
<path fill-rule="evenodd" clip-rule="evenodd" d="M9.40941 79.6495C9.21998 79.8504 9.22928 80.1668 9.4302 80.3563C9.92766 80.8253 10.3236 81.3914 10.5936 82.0195C10.8637 82.6476 11.002 83.3245 11.0001 84.0082C10.9982 84.6919 10.856 85.3679 10.5825 85.9946C10.309 86.6212 9.90982 87.185 9.40975 87.6513C9.20777 87.8396 9.19668 88.156 9.38499 88.3579C9.5733 88.5599 9.88968 88.571 10.0917 88.3827C10.6918 87.8232 11.1707 87.1466 11.499 86.3947C11.8272 85.6427 11.9978 84.8314 12.0001 84.011C12.0024 83.1906 11.8364 82.3783 11.5124 81.6246C11.1883 80.8708 10.7132 80.1915 10.1162 79.6287C9.9153 79.4392 9.59885 79.4486 9.40941 79.6495Z" fill="#111111"/>
</g>
</g>
<g id="Size=16px, Filled=true">
<g id="Vector_9">
<path fill-rule="evenodd" clip-rule="evenodd" d="M31.9999 78C28.6862 78 25.9999 80.6863 25.9999 84C25.9999 87.3137 28.6862 90 31.9999 90C35.3136 90 37.9999 87.3137 37.9999 84C37.9999 80.6863 35.3136 78 31.9999 78ZM31.9999 80.6589C32.3681 80.6589 32.6666 80.9573 32.6666 81.3255V84.6595C32.6666 85.0277 32.3681 85.3262 31.9999 85.3262C31.6317 85.3262 31.3332 85.0277 31.3332 84.6595V81.3255C31.3332 80.9573 31.6317 80.6589 31.9999 80.6589ZM32.8316 86.5107C32.8316 86.0505 32.4582 85.6778 31.9979 85.6778C31.5379 85.6778 31.1646 86.0503 31.1646 86.5107C31.1646 86.9712 31.5382 87.3441 31.9983 87.3441C32.4585 87.3441 32.8316 86.971 32.8316 86.5107Z" fill="#111111"/>
<path fill-rule="evenodd" clip-rule="evenodd" d="M27.4864 78.1967C27.7368 78.4654 27.7219 78.8861 27.4532 79.1365C26.7814 79.7625 26.2471 80.5176 25.8829 81.3548C25.5188 82.192 25.3323 83.0939 25.3349 84.0046C25.3375 84.9154 25.529 85.8161 25.898 86.6514C26.2716 87.4971 26.7832 88.2461 27.4505 88.8609C27.7206 89.1098 27.7378 89.5305 27.4889 89.8006C27.2401 90.0707 26.8194 90.0879 26.5493 89.8391C25.7322 89.0862 25.1197 88.1811 24.6814 87.1888C24.2383 86.1857 24.008 85.1033 24.0049 84.0084C24.0018 82.9135 24.226 81.8298 24.6633 80.8243C25.1007 79.8189 25.7417 78.9134 26.5465 78.1635C26.8152 77.9131 27.236 77.928 27.4864 78.1967Z" fill="#111111"/>
<path fill-rule="evenodd" clip-rule="evenodd" d="M36.5134 78.1967C36.263 78.4654 36.2778 78.8861 36.5465 79.1365C37.2184 79.7625 37.7527 80.5176 38.1168 81.3548C38.481 82.192 38.6674 83.0939 38.6649 84.0046C38.6623 84.9154 38.4707 85.8161 38.1018 86.6514C37.7282 87.4971 37.2166 88.2461 36.5493 88.8609C36.2792 89.1098 36.262 89.5305 36.5108 89.8006C36.7597 90.0707 37.1804 90.0879 37.4505 89.8391C38.2676 89.0862 38.8801 88.1811 39.3184 87.1888C39.7614 86.1857 39.9917 85.1033 39.9949 84.0084C39.998 82.9135 39.7738 81.8298 39.3365 80.8243C38.8991 79.8189 38.258 78.9134 37.4532 78.1635C37.1845 77.9131 36.7637 77.928 36.5134 78.1967Z" fill="#111111"/>
</g>
</g>
<g id="Size=20px, Filled=true">
<g id="Vector_10">
<path fill-rule="evenodd" clip-rule="evenodd" d="M61.9999 76.5C57.8577 76.5 54.4999 79.8579 54.4999 84C54.4999 88.1421 57.8577 91.5 61.9999 91.5C66.142 91.5 69.4999 88.1421 69.4999 84C69.4999 79.8579 66.142 76.5 61.9999 76.5ZM61.9999 79.8236C62.4601 79.8236 62.8332 80.1967 62.8332 80.6569V84.8244C62.8332 85.2846 62.4601 85.6577 61.9999 85.6577C61.5396 85.6577 61.1666 85.2846 61.1666 84.8244V80.6569C61.1666 80.1967 61.5396 79.8236 61.9999 79.8236ZM63.0395 87.1384C63.0395 86.5631 62.5728 86.0972 61.9974 86.0972C61.4224 86.0972 60.9558 86.5629 60.9558 87.1384C60.9558 87.714 61.4228 88.1801 61.9979 88.1801C62.5732 88.1801 63.0395 87.7137 63.0395 87.1384Z" fill="#111111"/>
<path fill-rule="evenodd" clip-rule="evenodd" d="M56.3929 76.7331C56.706 77.0716 56.6854 77.5999 56.3468 77.913C55.4989 78.6972 54.825 79.6426 54.3658 80.6904C53.9066 81.7381 53.6717 82.8664 53.6749 84.0058C53.6782 85.1451 53.9196 86.2721 54.3848 87.3174C54.8559 88.3759 55.5012 89.3137 56.3434 90.0838C56.6837 90.395 56.7073 90.9232 56.3961 91.2635C56.0849 91.6038 55.5567 91.6274 55.2164 91.3162C54.1855 90.3735 53.4125 89.2398 52.8591 87.9964C52.2997 86.7396 52.0088 85.383 52.0049 84.0106C52.001 82.6381 52.2841 81.2799 52.8363 80.02C53.3884 78.7602 54.1976 77.626 55.2129 76.687C55.5515 76.3739 56.0798 76.3945 56.3929 76.7331Z" fill="#111111"/>
<path fill-rule="evenodd" clip-rule="evenodd" d="M67.6069 76.7331C67.2937 77.0716 67.3144 77.5999 67.6529 77.913C68.5008 78.6972 69.1747 79.6426 69.6339 80.6904C70.0931 81.7381 70.3281 82.8664 70.3249 84.0058C70.3216 85.1451 70.0802 86.2721 69.615 87.3174C69.1439 88.3759 68.4986 89.3137 67.6564 90.0838C67.3161 90.395 67.2925 90.9232 67.6037 91.2635C67.9149 91.6038 68.4431 91.6274 68.7834 91.3162C69.8142 90.3735 70.5873 89.2398 71.1407 87.9964C71.7 86.7396 71.9909 85.383 71.9948 84.0106C71.9988 82.6381 71.7157 81.2799 71.1635 80.02C70.6114 78.7602 69.8022 77.626 68.7868 76.687C68.4483 76.3739 67.92 76.3945 67.6069 76.7331Z" fill="#111111"/>
</g>
</g>
<g id="Size=24px, Filled=true">
<g id="Vector_11">
<path fill-rule="evenodd" clip-rule="evenodd" d="M96 75C91.0294 75 87 79.0294 87 84C87 88.9706 91.0294 93 96 93C100.971 93 105 88.9706 105 84C105 79.0294 100.971 75 96 75ZM96 78.9883C96.5523 78.9883 97 79.436 97 79.9883V84.9892C97 85.5415 96.5523 85.9892 96 85.9892C95.4477 85.9892 95 85.5415 95 84.9892V79.9883C95 79.436 95.4477 78.9883 96 78.9883ZM97.2476 87.7661C97.2476 87.0757 96.6875 86.5166 95.9971 86.5166C95.307 86.5166 94.7471 87.0755 94.7471 87.7661C94.7471 88.4568 95.3075 89.0161 95.9976 89.0161C96.6879 89.0161 97.2476 88.4565 97.2476 87.7661Z" fill="#111111"/>
<path fill-rule="evenodd" clip-rule="evenodd" d="M89.496 75.084C89.8638 75.496 89.828 76.1281 89.416 76.496C88.3293 77.4662 87.4677 78.634 86.8814 79.9254C86.2953 81.2165 85.9959 82.6056 86 84.0071C86.0042 85.4086 86.3118 86.796 86.9057 88.0842C87.5069 89.3884 88.3319 90.547 89.4118 91.5003C89.8258 91.8658 89.8652 92.4978 89.4997 92.9118C89.1342 93.3258 88.5022 93.3652 88.0882 92.9997C86.779 91.844 85.7949 90.4518 85.0894 88.9216C84.3764 87.3751 84.0051 85.7043 84.0001 84.013C83.995 82.3217 84.3565 80.6489 85.0603 79.0986C85.764 77.5485 86.7942 76.1556 88.084 75.004C88.496 74.6362 89.1281 74.672 89.496 75.084Z" fill="#111111"/>
<path fill-rule="evenodd" clip-rule="evenodd" d="M102.504 75.084C102.136 75.496 102.172 76.1281 102.584 76.496C103.671 77.4662 104.532 78.634 105.119 79.9254C105.705 81.2165 106.004 82.6056 106 84.0071C105.996 85.4086 105.688 86.796 105.094 88.0842C104.493 89.3884 103.668 90.547 102.588 91.5003C102.174 91.8658 102.135 92.4978 102.5 92.9118C102.866 93.3258 103.498 93.3652 103.912 92.9997C105.221 91.844 106.205 90.4518 106.911 88.9216C107.624 87.3751 107.995 85.7043 108 84.013C108.005 82.3217 107.643 80.6489 106.94 79.0986C106.236 77.5485 105.206 76.1556 103.916 75.004C103.504 74.6362 102.872 74.672 102.504 75.084Z" fill="#111111"/>
</g>
</g>
<g id="Size=32px, Filled=true">
<g id="Vector_12">
<path fill-rule="evenodd" clip-rule="evenodd" d="M136 72C129.373 72 124 77.3726 124 84C124 90.6274 129.373 96 136 96C142.627 96 148 90.6274 148 84C148 77.3726 142.627 72 136 72ZM136 77.3177C136.736 77.3177 137.333 77.9147 137.333 78.651V85.319C137.333 86.0554 136.736 86.6523 136 86.6523C135.264 86.6523 134.667 86.0554 134.667 85.319V78.651C134.667 77.9147 135.264 77.3177 136 77.3177ZM137.663 89.0215C137.663 88.101 136.917 87.3555 135.996 87.3555C135.076 87.3555 134.329 88.1006 134.329 89.0215C134.329 89.9423 135.077 90.6882 135.997 90.6882C136.917 90.6882 137.663 89.942 137.663 89.0215Z" fill="#111111"/>
<path fill-rule="evenodd" clip-rule="evenodd" d="M126.911 72.144C127.384 72.647 127.359 73.4381 126.856 73.9109C125.475 75.2084 124.377 76.774 123.628 78.511C122.878 80.248 122.495 82.1195 122.5 84.0099C122.505 85.9002 122.9 87.7695 123.659 89.5024C124.426 91.255 125.478 92.8086 126.851 94.0843C127.357 94.5543 127.386 95.3452 126.916 95.8509C126.446 96.3566 125.655 96.3856 125.149 95.9157C123.496 94.3794 122.256 92.532 121.369 90.5053C120.472 88.4586 120.006 86.2503 120 84.0169C119.994 81.7835 120.447 79.5726 121.332 77.5209C122.217 75.4693 123.514 73.6207 125.144 72.0891C125.647 71.6163 126.438 71.6409 126.911 72.144Z" fill="#111111"/>
<path fill-rule="evenodd" clip-rule="evenodd" d="M145.089 72.144C144.616 72.647 144.641 73.4381 145.144 73.9109C146.525 75.2084 147.623 76.774 148.372 78.511C149.122 80.248 149.505 82.1195 149.5 84.0099C149.495 85.9002 149.1 87.7695 148.341 89.5024C147.574 91.255 146.522 92.8086 145.149 94.0843C144.643 94.5543 144.614 95.3452 145.084 95.8509C145.554 96.3566 146.345 96.3856 146.851 95.9157C148.504 94.3794 149.744 92.532 150.631 90.5053C151.528 88.4586 151.994 86.2503 152 84.0169C152.006 81.7835 151.553 79.5726 150.668 77.5209C149.783 75.4693 148.486 73.6207 146.856 72.0891C146.353 71.6163 145.562 71.6409 145.089 72.144Z" fill="#111111"/>
</g>
</g>
<g id="Size=40px, Filled=true">
<g id="Vector_13">
<path fill-rule="evenodd" clip-rule="evenodd" d="M184 69C175.716 69 169 75.7157 169 84C169 92.2843 175.716 99 184 99C192.284 99 199 92.2843 199 84C199 75.7157 192.284 69 184 69ZM184 75.6471C184.92 75.6471 185.667 76.3933 185.667 77.3138V85.6487C185.667 86.5692 184.92 87.3154 184 87.3154C183.08 87.3154 182.333 86.5692 182.333 85.6487V77.3138C182.333 76.3933 183.08 75.6471 184 75.6471ZM186.079 90.2769C186.079 89.1262 185.146 88.1944 183.995 88.1944C182.845 88.1944 181.912 89.1258 181.912 90.2769C181.912 91.4279 182.846 92.3602 183.996 92.3602C185.147 92.3602 186.079 91.4275 186.079 90.2769Z" fill="#111111"/>
<path fill-rule="evenodd" clip-rule="evenodd" d="M172.348 69.591C172.916 70.1937 172.888 71.1431 172.285 71.7114C170.611 73.2905 169.277 75.1963 168.368 77.311C167.459 79.4257 166.994 81.7044 167 84.0063C167.007 86.308 167.485 88.584 168.406 90.6937C169.337 92.8271 170.614 94.7183 172.279 96.2712C172.885 96.8361 172.918 97.7853 172.353 98.3912C171.789 98.9971 170.839 99.0304 170.233 98.4655C168.232 96.5993 166.731 94.3555 165.656 91.8939C164.571 89.4083 164.008 86.7266 164 84.0147C163.992 81.3026 164.541 78.6178 165.612 76.1262C166.683 73.6346 168.254 71.3892 170.227 69.5286C170.83 68.9603 171.779 68.9882 172.348 69.591Z" fill="#111111"/>
<path fill-rule="evenodd" clip-rule="evenodd" d="M195.652 69.591C195.084 70.1937 195.112 71.1431 195.715 71.7114C197.389 73.2905 198.723 75.1963 199.632 77.311C200.541 79.4257 201.006 81.7044 201 84.0063C200.993 86.308 200.515 88.584 199.594 90.6937C198.663 92.8271 197.386 94.7183 195.721 96.2712C195.115 96.8361 195.082 97.7853 195.647 98.3912C196.211 98.9971 197.161 99.0304 197.767 98.4655C199.768 96.5993 201.269 94.3555 202.344 91.8939C203.429 89.4083 203.992 86.7266 204 84.0147C204.008 81.3026 203.459 78.6178 202.388 76.1262C201.317 73.6346 199.746 71.3892 197.773 69.5286C197.17 68.9603 196.221 68.9882 195.652 69.591ZM201.009 76.7187L201.008 76.7191L201.009 76.7187Z" fill="#111111"/>
</g>
</g>
<g id="Size=48px, Filled=true">
<g id="Vector_14">
<path fill-rule="evenodd" clip-rule="evenodd" d="M240 66C230.059 66 222 74.0589 222 84C222 93.9411 230.059 102 240 102C249.941 102 258 93.9411 258 84C258 74.0589 249.941 66 240 66ZM240 73.9766C241.105 73.9766 242 74.872 242 75.9766V85.9785C242 87.0831 241.105 87.9785 240 87.9785C238.895 87.9785 238 87.0831 238 85.9785V75.9766C238 74.872 238.895 73.9766 240 73.9766ZM242.495 91.5322C242.495 90.1515 241.375 89.0333 239.994 89.0333C238.614 89.0333 237.494 90.1509 237.494 91.5322C237.494 92.9135 238.615 94.0322 239.995 94.0322C241.376 94.0322 242.495 92.913 242.495 91.5322Z" fill="#111111"/>
<path fill-rule="evenodd" clip-rule="evenodd" d="M225.91 66.7995C226.573 67.5027 226.54 68.6102 225.837 69.2733C223.829 71.1666 222.231 73.4516 221.141 75.9871C220.051 78.5226 219.492 81.2547 219.5 84.0146C219.508 86.7743 220.081 89.5032 221.186 92.0327C222.302 94.5898 223.832 96.8576 225.83 98.72C226.537 99.3791 226.576 100.486 225.916 101.193C225.257 101.9 224.15 101.939 223.443 101.28C221.053 99.0521 219.261 96.373 217.978 93.433C216.682 90.4649 216.009 87.2628 216 84.0244C215.991 80.7859 216.646 77.58 217.925 74.6048C219.204 71.6296 221.08 68.9484 223.436 66.7267C224.139 66.0637 225.247 66.0963 225.91 66.7995Z" fill="#111111"/>
<path fill-rule="evenodd" clip-rule="evenodd" d="M254.09 66.7995C253.427 67.5027 253.46 68.6102 254.163 69.2733C256.171 71.1666 257.769 73.4516 258.859 75.9871C259.949 78.5226 260.508 81.2547 260.5 84.0146C260.492 86.7743 259.919 89.5032 258.814 92.0327C257.698 94.5898 256.168 96.8576 254.17 98.72C253.463 99.3791 253.424 100.486 254.084 101.193C254.743 101.9 255.85 101.939 256.557 101.28C258.947 99.0521 260.739 96.373 262.022 93.433C263.318 90.4649 263.991 87.2628 264 84.0244C264.009 80.7859 263.354 77.58 262.075 74.6048C260.796 71.6296 258.92 68.9484 256.564 66.7267C255.861 66.0637 254.753 66.0963 254.09 66.7995Z" fill="#111111"/>
</g>
</g>
</g>
</g>
<defs>
<clipPath id="clip0_3570_440">
<rect width="264" height="108" rx="5" fill="white"/>
</clipPath>
<clipPath id="clip1_3570_440">
<rect width="12" height="12" fill="white" transform="translate(0 78)"/>
</clipPath>
</defs>
</svg>
