<svg width="264" height="108" viewBox="0 0 264 108" fill="none" xmlns="http://www.w3.org/2000/svg">
<g id="Box blocked">
<g clip-path="url(#clip0_1126_881)">
<g id="Size=12px, Filled=false">
<path id="Vector" d="M10.7463 24.5037C11.3089 25.0663 11.625 25.8294 11.625 26.625C11.625 27.4206 11.3089 28.1837 10.7463 28.7463C10.1837 29.3089 9.42065 29.625 8.625 29.625C7.82935 29.625 7.06629 29.3089 6.50368 28.7463C5.94107 28.1837 5.625 27.4206 5.625 26.625C5.625 25.8294 5.94107 25.0663 6.50368 24.5037C7.06629 23.9411 7.82935 23.625 8.625 23.625C9.42065 23.625 10.1837 23.9411 10.7463 24.5037ZM10.7463 24.5037L6.504 28.7455M4.125 27.375H1.125C0.926088 27.375 0.735322 27.296 0.59467 27.1553C0.454018 27.0147 0.375 26.8239 0.375 26.625V21.375C0.375 21.1761 0.454018 20.9853 0.59467 20.8447C0.735322 20.704 0.926088 20.625 1.125 20.625H8.625C8.82391 20.625 9.01468 20.704 9.15533 20.8447C9.29598 20.9853 9.375 21.1761 9.375 21.375V22.125M9.133 20.8235L7.7225 18.709C7.65416 18.6065 7.56161 18.5224 7.45304 18.4641C7.34447 18.4059 7.22321 18.3753 7.1 18.375H2.65C2.52653 18.375 2.40498 18.4055 2.29612 18.4638C2.18727 18.522 2.09448 18.6063 2.026 18.709L0.617 20.8235M4.875 18.375V20.625" stroke="#111111" stroke-width="0.75" stroke-linecap="round" stroke-linejoin="round"/>
</g>
<g id="Size=16px, Filled=false">
<path id="Vector_2" d="M38.3284 24.6716C39.0786 25.4217 39.5 26.4391 39.5 27.5C39.5 28.5609 39.0786 29.5783 38.3284 30.3284C37.5783 31.0786 36.5609 31.5 35.5 31.5C34.4391 31.5 33.4217 31.0786 32.6716 30.3284C31.9214 29.5783 31.5 28.5609 31.5 27.5C31.5 26.4391 31.9214 25.4217 32.6716 24.6716C33.4217 23.9214 34.4391 23.5 35.5 23.5C36.5609 23.5 37.5783 23.9214 38.3284 24.6716ZM38.3284 24.6716L32.672 30.3273M29.5 28.5H25.5C25.2348 28.5 24.9804 28.3946 24.7929 28.2071C24.6054 28.0196 24.5 27.7652 24.5 27.5V20.5C24.5 20.2348 24.6054 19.9804 24.7929 19.7929C24.9804 19.6054 25.2348 19.5 25.5 19.5H35.5C35.7652 19.5 36.0196 19.6054 36.2071 19.7929C36.3946 19.9804 36.5 20.2348 36.5 20.5V21.5M36.1773 19.7647L34.2967 16.9453C34.2055 16.8086 34.0821 16.6965 33.9374 16.6188C33.7926 16.5412 33.631 16.5003 33.4667 16.5H27.5333C27.3687 16.5 27.2066 16.5407 27.0615 16.6184C26.9164 16.696 26.7926 16.8084 26.7013 16.9453L24.8227 19.7647M30.5 16.5V19.5" stroke="#111111" stroke-linecap="round" stroke-linejoin="round"/>
</g>
<g id="Size=20px, Filled=false">
<path id="Vector_3" d="M69.9105 24.8395C70.8482 25.7771 71.375 27.0489 71.375 28.375C71.375 29.7011 70.8482 30.9729 69.9105 31.9105C68.9729 32.8482 67.7011 33.375 66.375 33.375C65.0489 33.375 63.7771 32.8482 62.8395 31.9105C61.9018 30.9729 61.375 29.7011 61.375 28.375C61.375 27.0489 61.9018 25.7771 62.8395 24.8395C63.7771 23.9018 65.0489 23.375 66.375 23.375C67.7011 23.375 68.9729 23.9018 69.9105 24.8395ZM69.9105 24.8395L62.84 31.9092M58.875 29.625H53.875C53.5435 29.625 53.2255 29.4933 52.9911 29.2589C52.7567 29.0245 52.625 28.7065 52.625 28.375V19.625C52.625 19.2935 52.7567 18.9755 52.9911 18.7411C53.2255 18.5067 53.5435 18.375 53.875 18.375H66.375C66.7065 18.375 67.0245 18.5067 67.2589 18.7411C67.4933 18.9755 67.625 19.2935 67.625 19.625V20.875M67.2217 18.7058L64.8708 15.1817C64.7569 15.0108 64.6027 14.8706 64.4217 14.7735C64.2408 14.6764 64.0387 14.6254 63.8333 14.625H56.4167C56.2109 14.625 56.0083 14.6758 55.8269 14.7729C55.6454 14.87 55.4908 15.0104 55.3767 15.1817L53.0283 18.7058M60.125 14.625V18.375" stroke="#111111" stroke-width="1.25" stroke-linecap="round" stroke-linejoin="round"/>
</g>
<g id="Size=24px, Filled=false">
<path id="Vector_4" d="M97 33L105 25M92.5 31H86.5C86.1022 31 85.7206 30.8361 85.4393 30.5444C85.158 30.2527 85 29.857 85 29.4444V18.5556C85 18.143 85.158 17.7473 85.4393 17.4556C85.7206 17.1639 86.1022 17 86.5 17H101.5C101.898 17 102.279 17.1639 102.561 17.4556C102.842 17.7473 103 18.143 103 18.5556V20.1111M103 18L100.019 13.6821C99.8742 13.4727 99.6786 13.3009 99.4491 13.182C99.2196 13.063 98.9633 13.0005 98.7029 13H89.2971C89.0361 13 88.7792 13.0623 88.5491 13.1813C88.319 13.3002 88.1229 13.4723 87.9782 13.6821L85 18M93 13V17M95 28.3333C95 29.7478 95.5619 31.1044 96.5621 32.1046C97.5623 33.1048 98.9188 33.6667 100.333 33.6667C101.748 33.6667 103.104 33.1048 104.105 32.1046C105.105 31.1044 105.667 29.7478 105.667 28.3333C105.667 26.9188 105.105 25.5623 104.105 24.5621C103.104 23.5619 101.748 23 100.333 23C98.9188 23 97.5623 23.5619 96.5621 24.5621C95.5619 25.5623 95 26.9188 95 28.3333Z" stroke="#111111" stroke-width="1.5" stroke-linecap="round" stroke-linejoin="round"/>
</g>
<g id="Size=32px, Filled=false">
<path id="Vector_5" d="M148.657 25.3431C150.157 26.8434 151 28.8783 151 31C151 33.1217 150.157 35.1566 148.657 36.6569C147.157 38.1571 145.122 39 143 39C140.878 39 138.843 38.1571 137.343 36.6569C135.843 35.1566 135 33.1217 135 31C135 28.8783 135.843 26.8434 137.343 25.3431C138.843 23.8429 140.878 23 143 23C145.122 23 147.157 23.8429 148.657 25.3431ZM148.657 25.3431L137.344 36.6547M131 33H123C122.47 33 121.961 32.7893 121.586 32.4142C121.211 32.0391 121 31.5304 121 31V17C121 16.4696 121.211 15.9609 121.586 15.5858C121.961 15.2107 122.47 15 123 15H143C143.53 15 144.039 15.2107 144.414 15.5858C144.789 15.9609 145 16.4696 145 17V19M144.355 15.5293L140.593 9.89067C140.411 9.61727 140.164 9.39299 139.875 9.23765C139.585 9.0823 139.262 9.00068 138.933 9H127.067C126.737 9.00002 126.413 9.08133 126.123 9.2367C125.833 9.39208 125.585 9.61671 125.403 9.89067L121.645 15.5293M133 9V15" stroke="#111111" stroke-width="2" stroke-linecap="round" stroke-linejoin="round"/>
</g>
<g id="Size=40px, Filled=false">
<path id="Vector_6" d="M199.821 25.6789C201.696 27.5543 202.75 30.0978 202.75 32.75C202.75 35.4022 201.696 37.9457 199.821 39.8211C197.946 41.6964 195.402 42.75 192.75 42.75C190.098 42.75 187.554 41.6964 185.679 39.8211C183.804 37.9457 182.75 35.4022 182.75 32.75C182.75 30.0978 183.804 27.5543 185.679 25.6789C187.554 23.8036 190.098 22.75 192.75 22.75C195.402 22.75 197.946 23.8036 199.821 25.6789ZM199.821 25.6789L185.68 39.8183M177.75 35.25H167.75C167.087 35.25 166.451 34.9866 165.982 34.5178C165.513 34.0489 165.25 33.413 165.25 32.75V15.25C165.25 14.587 165.513 13.9511 165.982 13.4822C166.451 13.0134 167.087 12.75 167.75 12.75H192.75C193.413 12.75 194.049 13.0134 194.518 13.4822C194.987 13.9511 195.25 14.587 195.25 15.25V17.75M194.443 13.4117L189.742 6.36333C189.514 6.02159 189.205 5.74124 188.843 5.54706C188.482 5.35288 188.077 5.25085 187.667 5.25H172.833C172.422 5.25003 172.017 5.35166 171.654 5.54588C171.291 5.7401 170.982 6.02089 170.753 6.36333L166.057 13.4117M180.25 5.25V12.75" stroke="#111111" stroke-width="2.5" stroke-linecap="round" stroke-linejoin="round"/>
</g>
<g id="Size=48px, Filled=false">
<path id="Vector_7" d="M258.985 26.0147C261.236 28.2652 262.5 31.3174 262.5 34.5C262.5 37.6826 261.236 40.7348 258.985 42.9853C256.735 45.2357 253.683 46.5 250.5 46.5C247.317 46.5 244.265 45.2357 242.015 42.9853C239.764 40.7348 238.5 37.6826 238.5 34.5C238.5 31.3174 239.764 28.2652 242.015 26.0147C244.265 23.7643 247.317 22.5 250.5 22.5C253.683 22.5 256.735 23.7643 258.985 26.0147ZM258.985 26.0147L242.016 42.982M232.5 37.5H220.5C219.704 37.5 218.941 37.1839 218.379 36.6213C217.816 36.0587 217.5 35.2956 217.5 34.5V13.5C217.5 12.7044 217.816 11.9413 218.379 11.3787C218.941 10.8161 219.704 10.5 220.5 10.5H250.5C251.296 10.5 252.059 10.8161 252.621 11.3787C253.184 11.9413 253.5 12.7044 253.5 13.5V16.5M252.532 11.294L246.89 2.836C246.617 2.42591 246.246 2.08949 245.812 1.85647C245.378 1.62345 244.893 1.50102 244.4 1.5H226.6C226.106 1.50004 225.62 1.622 225.184 1.85506C224.749 2.08812 224.378 2.42507 224.104 2.836L218.468 11.294M235.5 1.5V10.5" stroke="#111111" stroke-width="3" stroke-linecap="round" stroke-linejoin="round"/>
</g>
<g id="Size=12px, Filled=true">
<g id="Vector_8">
<path d="M4 79.8667C4 79.902 4.01352 79.9359 4.03759 79.9609C4.06166 79.986 4.0943 80 4.12834 80H6.87488C6.89972 79.9984 6.92364 79.9896 6.94392 79.9746C6.9642 79.9596 6.98004 79.939 6.98965 79.9152C6.99926 79.8913 7.00226 79.8651 6.99831 79.8396C6.99436 79.8141 6.98361 79.7902 6.96729 79.7707L5.48364 78.2347C5.33937 78.0846 5.14363 78.0002 4.93947 78H4.12834C4.0943 78 4.06166 78.014 4.03759 78.0391C4.01352 78.0641 4 78.098 4 78.1333V79.8667Z" fill="#111111"/>
<path d="M5.05155 83.6651C5.65622 83 6.30148 82.747 7.06288 82.5953C7.08923 82.5891 7.11272 82.5743 7.12964 82.5532C7.14655 82.5322 7.15591 82.5061 7.15622 82.4791V81.1163C7.15622 81.0854 7.14393 81.0559 7.12205 81.0341C7.10017 81.0123 7.07049 81 7.03955 81H0.272884C0.241942 81 0.212268 81.0123 0.190388 81.0341C0.168509 81.0559 0.156217 81.0854 0.156217 81.1163V85.3023C0.156217 85.4874 0.229967 85.6648 0.361243 85.7957C0.492518 85.9265 0.670566 86 0.856217 86H4.14447C4.17286 85.9992 4.20008 85.9886 4.2214 85.9699C4.24272 85.9512 4.25678 85.9256 4.26114 85.8977C4.38118 85.0529 4.44688 84.3302 5.05155 83.6651Z" fill="#111111"/>
<path d="M2.87203 80C2.90556 79.9987 2.93738 79.9842 2.96111 79.9595C2.98484 79.9348 2.99873 79.9016 3 79.8667V78.1333C3 78.098 2.98652 78.0641 2.96252 78.0391C2.93852 78.014 2.90597 78 2.87203 78H2.05812C1.85476 78.0013 1.66 78.0856 1.51551 78.2347L0.0412569 79.7707C0.0218401 79.788 0.00834383 79.8113 0.00280372 79.8373C-0.00273639 79.8633 -1.99806e-05 79.8904 0.0105433 79.9147C0.0197436 79.9395 0.0358753 79.9609 0.0568595 79.9761C0.0778437 79.9913 0.102719 79.9997 0.128279 80H2.87203Z" fill="#111111"/>
<path d="M8.00888 83C7.41478 82.9983 6.83354 83.1729 6.33883 83.5019C5.84412 83.8309 5.45823 84.2993 5.23006 84.8479C5.0019 85.3964 4.94174 86.0003 5.05721 86.5831C5.17269 87.1659 5.45859 87.7012 5.87868 88.1213C6.29877 88.5414 6.83414 88.8273 7.41691 88.9428C7.99968 89.0583 8.60361 88.9981 9.15215 88.7699C9.70069 88.5418 10.1691 88.1559 10.4981 87.6612C10.8271 87.1665 11.0017 86.5852 11 85.9911C10.9976 85.1986 10.6818 84.4391 10.1213 83.8787C9.56088 83.3182 8.80145 83.0024 8.00888 83ZM6.98221 87.8489C6.96674 87.8402 6.95349 87.8281 6.94347 87.8134C6.93345 87.7988 6.92693 87.782 6.92443 87.7645C6.923 87.7476 6.92502 87.7306 6.93037 87.7146C6.93572 87.6985 6.94429 87.6838 6.95554 87.6711L9.67554 84.9511C9.68817 84.9399 9.70296 84.9313 9.719 84.926C9.73505 84.9206 9.75202 84.9186 9.76888 84.92C9.78644 84.9225 9.8032 84.929 9.81784 84.939C9.83249 84.9491 9.84463 84.9623 9.85332 84.9778C10.0727 85.379 10.1561 85.8405 10.0912 86.2932C10.0262 86.7458 9.81636 87.1652 9.49301 87.4886C9.16966 87.8119 8.75025 88.0218 8.2976 88.0868C7.84495 88.1517 7.38344 88.0683 6.98221 87.8489ZM9.02221 84.1645C9.03768 84.1732 9.05093 84.1853 9.06095 84.1999C9.07097 84.2146 9.07749 84.2313 9.07999 84.2489C9.08169 84.2658 9.0798 84.2828 9.07444 84.2989C9.06907 84.315 9.06036 84.3298 9.04888 84.3422L6.32888 87.0622C6.31625 87.0735 6.30146 87.0821 6.28542 87.0874C6.26937 87.0928 6.2524 87.0948 6.23554 87.0933C6.21855 87.0908 6.20227 87.0847 6.18774 87.0755C6.1732 87.0663 6.16073 87.0543 6.1511 87.04C5.92989 86.6387 5.84497 86.1764 5.90911 85.7227C5.97325 85.2689 6.18298 84.8483 6.50676 84.524C6.83054 84.1997 7.25086 83.9893 7.70449 83.9245C8.15813 83.8597 8.62055 83.9439 9.02221 84.1645Z" fill="#111111"/>
</g>
</g>
<g id="Size=16px, Filled=true">
<g id="Vector_9">
<path d="M29.3333 78.4889C29.3333 78.536 29.3514 78.5813 29.3835 78.6146C29.4155 78.6479 29.4591 78.6667 29.5045 78.6667H33.1665C33.1996 78.6645 33.2315 78.6528 33.2586 78.6328C33.2856 78.6128 33.3067 78.5853 33.3195 78.5535C33.3323 78.5217 33.3363 78.4868 33.3311 78.4528C33.3258 78.4188 33.3115 78.3869 33.2897 78.3609L31.3115 76.3129C31.1192 76.1128 30.8582 76.0002 30.586 76H29.5045C29.4591 76 29.4155 76.0187 29.3835 76.0521C29.3514 76.0854 29.3333 76.1306 29.3333 76.1778V78.4889Z" fill="#111111"/>
<path d="M30.7354 83.5535C31.5416 82.6667 32.402 82.3294 33.4172 82.1271C33.4523 82.1188 33.4836 82.0991 33.5062 82.071C33.5287 82.0429 33.5412 82.0081 33.5416 81.9721V80.155C33.5416 80.1139 33.5252 80.0745 33.4961 80.0454C33.4669 80.0163 33.4273 80 33.3861 80H24.3638C24.3226 80 24.283 80.0163 24.2539 80.0454C24.2247 80.0745 24.2083 80.1139 24.2083 80.155V85.7364C24.2083 85.9831 24.3066 86.2198 24.4817 86.3942C24.6567 86.5687 24.8941 86.6667 25.1416 86.6667H29.526C29.5638 86.6657 29.6001 86.6515 29.6285 86.6265C29.657 86.6016 29.6757 86.5675 29.6815 86.5302C29.8416 85.4039 29.9292 84.4403 30.7354 83.5535Z" fill="#111111"/>
<path d="M27.8294 78.6667C27.8741 78.6649 27.9165 78.6456 27.9482 78.6126C27.9798 78.5797 27.9983 78.5355 28 78.4889V76.1778C28 76.1306 27.982 76.0854 27.95 76.0521C27.918 76.0187 27.8746 76 27.8294 76H26.7442C26.473 76.0018 26.2133 76.1141 26.0207 76.3129L24.055 78.3609C24.0291 78.3839 24.0111 78.4151 24.0037 78.4498C23.9964 78.4844 24 78.5206 24.0141 78.5529C24.0263 78.586 24.0478 78.6146 24.0758 78.6348C24.1038 78.6551 24.137 78.6662 24.171 78.6667H27.8294Z" fill="#111111"/>
<path d="M34.6785 82.6667C33.8864 82.6643 33.1114 82.8972 32.4518 83.3359C31.7922 83.7745 31.2776 84.3991 30.9734 85.1305C30.6692 85.8619 30.589 86.6671 30.743 87.4441C30.8969 88.2212 31.2781 88.935 31.8382 89.4951C32.3984 90.0552 33.1122 90.4364 33.8892 90.5904C34.6662 90.7443 35.4715 90.6641 36.2029 90.3599C36.9343 90.0557 37.5588 89.5412 37.9975 88.8816C38.4361 88.222 38.669 87.447 38.6666 86.6548C38.6635 85.5981 38.2423 84.5855 37.4951 83.8382C36.7478 83.091 35.7353 82.6698 34.6785 82.6667ZM33.3096 89.1319C33.289 89.1203 33.2713 89.1041 33.258 89.0846C33.2446 89.065 33.2359 89.0427 33.2326 89.0193C33.2307 88.9968 33.2334 88.9742 33.2405 88.9528C33.2476 88.9314 33.259 88.9117 33.2741 88.8948L36.9007 85.2682C36.9176 85.2532 36.9373 85.2417 36.9587 85.2346C36.9801 85.2275 37.0027 85.2248 37.0252 85.2267C37.0486 85.23 37.0709 85.2387 37.0905 85.2521C37.11 85.2654 37.1262 85.2831 37.1378 85.3037C37.4303 85.8387 37.5415 86.454 37.4549 87.0576C37.3683 87.6611 37.0885 88.2203 36.6574 88.6515C36.2262 89.0826 35.667 89.3624 35.0635 89.449C34.4599 89.5356 33.8446 89.4244 33.3096 89.1319ZM36.0296 84.2193C36.0502 84.2309 36.0679 84.2471 36.0813 84.2666C36.0946 84.2861 36.1033 84.3084 36.1066 84.3319C36.1089 84.3544 36.1064 84.3771 36.0992 84.3985C36.0921 84.42 36.0805 84.4397 36.0652 84.4563L32.4385 88.083C32.4217 88.098 32.4019 88.1094 32.3806 88.1165C32.3592 88.1237 32.3365 88.1264 32.3141 88.1245C32.2914 88.121 32.2697 88.1129 32.2503 88.1007C32.2309 88.0885 32.2143 88.0723 32.2015 88.0534C31.9065 87.5183 31.7933 86.9019 31.8788 86.2969C31.9643 85.6919 32.244 85.1311 32.6757 84.6987C33.1074 84.2663 33.6678 83.9858 34.2727 83.8993C34.8775 83.8129 35.4941 83.9252 36.0296 84.2193Z" fill="#111111"/>
</g>
</g>
<g id="Size=20px, Filled=true">
<g id="Vector_10">
<path d="M58.6667 77.1111C58.6667 77.17 58.6892 77.2266 58.7293 77.2682C58.7694 77.3099 58.8238 77.3333 58.8806 77.3333H63.4581C63.4995 77.3306 63.5394 77.316 63.5732 77.291C63.607 77.266 63.6334 77.2317 63.6494 77.1919C63.6654 77.1522 63.6704 77.1085 63.6638 77.066C63.6573 77.0234 63.6394 76.9836 63.6121 76.9511L61.1394 74.3911C60.8989 74.141 60.5727 74.0003 60.2325 74H58.8806C58.8238 74 58.7694 74.0234 58.7293 74.0651C58.6892 74.1068 58.6667 74.1633 58.6667 74.2222V77.1111Z" fill="#111111"/>
<path d="M60.4193 83.4419C61.427 82.3333 62.5025 81.9117 63.7715 81.6589C63.8154 81.6485 63.8545 81.6238 63.8827 81.5887C63.9109 81.5536 63.9265 81.5101 63.927 81.4651V79.1938C63.927 79.1424 63.9065 79.0931 63.8701 79.0568C63.8336 79.0204 63.7842 79 63.7326 79H52.4548C52.4032 79 52.3538 79.0204 52.3173 79.0568C52.2808 79.0931 52.2604 79.1424 52.2604 79.1938V86.1705C52.2604 86.4789 52.3833 86.7747 52.6021 86.9928C52.8209 87.2108 53.1176 87.3333 53.427 87.3333H58.9075C58.9548 87.3321 59.0001 87.3143 59.0357 87.2832C59.0712 87.252 59.0946 87.2094 59.1019 87.1628C59.302 85.7549 59.4115 84.5504 60.4193 83.4419Z" fill="#111111"/>
<path d="M56.7867 77.3333C56.8426 77.3311 56.8956 77.307 56.9352 77.2658C56.9747 77.2246 56.9979 77.1693 57 77.1111V74.2222C57 74.1633 56.9775 74.1068 56.9375 74.0651C56.8975 74.0234 56.8433 74 56.7867 74H55.4302C55.0913 74.0022 54.7667 74.1426 54.5258 74.3911L52.0688 76.9511C52.0364 76.9799 52.0139 77.0189 52.0047 77.0622C51.9954 77.1055 52 77.1507 52.0176 77.1911C52.0329 77.2325 52.0598 77.2682 52.0948 77.2936C52.1297 77.3189 52.1712 77.3328 52.2138 77.3333H56.7867Z" fill="#111111"/>
<path d="M65.3481 82.3334C64.358 82.3304 63.3892 82.6216 62.5647 83.1698C61.7402 83.7181 61.097 84.4989 60.7168 85.4131C60.3365 86.3273 60.2362 87.3339 60.4287 88.3052C60.6211 89.2764 61.0976 90.1687 61.7978 90.8689C62.498 91.569 63.3902 92.0455 64.3615 92.238C65.3328 92.4304 66.3393 92.3302 67.2536 91.9499C68.1678 91.5696 68.9486 90.9265 69.4968 90.102C70.0451 89.2774 70.3362 88.3087 70.3333 87.3185C70.3294 85.9976 69.8029 84.7319 68.8689 83.7978C67.9348 82.8637 66.6691 82.3373 65.3481 82.3334ZM63.637 90.4148C63.6112 90.4003 63.5891 90.3801 63.5724 90.3557C63.5557 90.3313 63.5449 90.3034 63.5407 90.2741C63.5383 90.246 63.5417 90.2177 63.5506 90.191C63.5595 90.1642 63.5738 90.1396 63.5926 90.1185L68.1259 85.5852C68.1469 85.5664 68.1716 85.5522 68.1983 85.5433C68.2251 85.5343 68.2534 85.531 68.2815 85.5334C68.3107 85.5375 68.3387 85.5484 68.3631 85.5651C68.3875 85.5818 68.4077 85.6039 68.4222 85.6297C68.7878 86.2984 68.9269 87.0676 68.8187 87.822C68.7104 88.5764 68.3606 89.2754 67.8217 89.8143C67.2828 90.3532 66.5837 90.703 65.8293 90.8113C65.0749 90.9195 64.3057 90.7805 63.637 90.4148ZM67.037 84.2741C67.0628 84.2886 67.0849 84.3088 67.1016 84.3332C67.1183 84.3576 67.1291 84.3856 67.1333 84.4148C67.1362 84.443 67.133 84.4714 67.1241 84.4982C67.1151 84.525 67.1006 84.5496 67.0815 84.5704L62.5481 89.1037C62.5271 89.1225 62.5024 89.1368 62.4757 89.1457C62.4489 89.1546 62.4207 89.158 62.3926 89.1556C62.3642 89.1513 62.3371 89.1412 62.3129 89.1259C62.2887 89.1106 62.2679 89.0904 62.2518 89.0667C61.8832 88.3978 61.7416 87.6273 61.8485 86.8711C61.9554 86.1149 62.305 85.4138 62.8446 84.8734C63.3842 84.3329 64.0848 83.9822 64.8408 83.8742C65.5969 83.7661 66.3676 83.9065 67.037 84.2741Z" fill="#111111"/>
</g>
</g>
<g id="Size=24px, Filled=true">
<g id="Vector_11">
<path d="M92 75.7333C92 75.8041 92.027 75.8719 92.0752 75.9219C92.1233 75.9719 92.1886 76 92.2567 76H97.7498C97.7994 75.9968 97.8473 75.9792 97.8878 75.9492C97.9284 75.9192 97.9601 75.878 97.9793 75.8303C97.9985 75.7826 98.0045 75.7303 97.9966 75.6792C97.9887 75.6281 97.9672 75.5804 97.9346 75.5413L94.9673 72.4693C94.6787 72.1692 94.2873 72.0004 93.8789 72H92.2567C92.1886 72 92.1233 72.0281 92.0752 72.0781C92.027 72.1281 92 72.1959 92 72.2667V75.7333Z" fill="#111111"/>
<path d="M94.1031 83.3302C95.3124 82 96.603 81.4941 98.1258 81.1907C98.1785 81.1782 98.2254 81.1486 98.2593 81.1065C98.2931 81.0643 98.3118 81.0121 98.3124 80.9581V78.2326C98.3124 78.1709 98.2879 78.1117 98.2441 78.0681C98.2003 78.0245 98.141 78 98.0791 78H84.5458C84.4839 78 84.4245 78.0245 84.3808 78.0681C84.337 78.1117 84.3124 78.1709 84.3124 78.2326V86.6047C84.3124 86.9747 84.4599 87.3296 84.7225 87.5913C84.985 87.853 85.3411 88 85.7124 88H92.2889C92.3457 87.9985 92.4002 87.9772 92.4428 87.9398C92.4854 87.9024 92.5136 87.8513 92.5223 87.7953C92.7624 86.1059 92.8938 84.6605 94.1031 83.3302Z" fill="#111111"/>
<path d="M89.7441 76C89.8111 75.9974 89.8748 75.9684 89.9222 75.919C89.9697 75.8695 89.9975 75.8032 90 75.7333V72.2667C90 72.1959 89.973 72.1281 89.925 72.0781C89.877 72.0281 89.8119 72 89.7441 72H88.1162C87.7095 72.0027 87.32 72.1711 87.031 72.4693L84.0825 75.5413C84.0437 75.5759 84.0167 75.6227 84.0056 75.6746C83.9945 75.7266 84 75.7809 84.0211 75.8293C84.0395 75.879 84.0718 75.9218 84.1137 75.9523C84.1557 75.9827 84.2054 75.9993 84.2566 76H89.7441Z" fill="#111111"/>
<path d="M100.018 82C98.8296 81.9965 97.6671 82.3459 96.6777 83.0038C95.6882 83.6617 94.9165 84.5986 94.4601 85.6957C94.0038 86.7928 93.8835 88.0006 94.1144 89.1662C94.3454 90.3317 94.9172 91.4025 95.7574 92.2426C96.5975 93.0828 97.6683 93.6546 98.8338 93.8856C99.9994 94.1165 101.207 93.9962 102.304 93.5399C103.401 93.0835 104.338 92.3118 104.996 91.3223C105.654 90.3329 106.003 89.1704 106 87.9822C105.995 86.3971 105.364 84.8782 104.243 83.7574C103.122 82.6365 101.603 82.0047 100.018 82ZM97.9644 91.6978C97.9335 91.6804 97.907 91.6561 97.8869 91.6268C97.8669 91.5976 97.8539 91.564 97.8489 91.5289C97.846 91.4952 97.85 91.4613 97.8607 91.4292C97.8714 91.3971 97.8886 91.3675 97.9111 91.3422L103.351 85.9022C103.376 85.8797 103.406 85.8626 103.438 85.8519C103.47 85.8412 103.504 85.8372 103.538 85.84C103.573 85.845 103.606 85.8581 103.636 85.8781C103.665 85.8981 103.689 85.9246 103.707 85.9556C104.145 86.758 104.312 87.6811 104.182 88.5864C104.052 89.4917 103.633 90.3305 102.986 90.9772C102.339 91.6239 101.5 92.0436 100.595 92.1735C99.6899 92.3035 98.7669 92.1365 97.9644 91.6978ZM102.044 84.3289C102.075 84.3463 102.102 84.3706 102.122 84.3999C102.142 84.4292 102.155 84.4627 102.16 84.4978C102.163 84.5315 102.16 84.5656 102.149 84.5978C102.138 84.63 102.121 84.6595 102.098 84.6845L96.6578 90.1245C96.6325 90.147 96.6029 90.1641 96.5708 90.1748C96.5387 90.1855 96.5048 90.1896 96.4711 90.1867C96.4371 90.1815 96.4045 90.1694 96.3755 90.151C96.3464 90.1327 96.3215 90.1085 96.3022 90.08C95.8598 89.2774 95.6899 88.3528 95.8182 87.4453C95.9465 86.5379 96.366 85.6966 97.0135 85.048C97.6611 84.3995 98.5017 83.9787 99.409 83.849C100.316 83.7193 101.241 83.8877 102.044 84.3289Z" fill="#111111"/>
</g>
</g>
<g id="Size=32px, Filled=true">
<g id="Vector_12">
<path d="M130.667 72.9778C130.667 73.0721 130.703 73.1625 130.767 73.2292C130.831 73.2959 130.918 73.3333 131.009 73.3333H138.333C138.399 73.329 138.463 73.3055 138.517 73.2656C138.571 73.2256 138.613 73.1707 138.639 73.1071C138.665 73.0435 138.673 72.9737 138.662 72.9056C138.652 72.8375 138.623 72.7738 138.579 72.7218L134.623 68.6258C134.238 68.2256 133.716 68.0005 133.172 68H131.009C130.918 68 130.831 68.0375 130.767 68.1041C130.703 68.1708 130.667 68.2613 130.667 68.3556V72.9778Z" fill="#111111"/>
<path d="M133.471 83.107C135.083 81.3333 136.804 80.6588 138.834 80.2543C138.905 80.2377 138.967 80.1981 139.012 80.1419C139.057 80.0857 139.082 80.0161 139.083 79.9442V76.3101C139.083 76.2278 139.05 76.149 138.992 76.0908C138.934 76.0327 138.855 76 138.772 76H120.728C120.645 76 120.566 76.0327 120.508 76.0908C120.449 76.149 120.417 76.2278 120.417 76.3101V87.4729C120.417 87.9663 120.613 88.4395 120.963 88.7884C121.313 89.1373 121.788 89.3333 122.283 89.3333H131.052C131.128 89.3313 131.2 89.3029 131.257 89.2531C131.314 89.2032 131.351 89.135 131.363 89.0605C131.683 86.8078 131.858 84.8806 133.471 83.107Z" fill="#111111"/>
<path d="M127.659 73.3333C127.748 73.3298 127.833 73.2912 127.896 73.2253C127.96 73.1594 127.997 73.071 128 72.9778V68.3556C128 68.2613 127.964 68.1708 127.9 68.1041C127.836 68.0375 127.749 68 127.659 68H125.488C124.946 68.0036 124.427 68.2282 124.041 68.6258L120.11 72.7218C120.058 72.7679 120.022 72.8303 120.007 72.8995C119.993 72.9688 120 73.0412 120.028 73.1058C120.053 73.172 120.096 73.2291 120.152 73.2697C120.208 73.3102 120.274 73.3324 120.342 73.3333H127.659Z" fill="#111111"/>
<path d="M141.357 81.3334C139.773 81.3287 138.223 81.7945 136.904 82.6717C135.584 83.549 134.555 84.7982 133.947 86.2609C133.338 87.7237 133.178 89.3342 133.486 90.8883C133.794 92.4423 134.556 93.8699 135.676 94.9902C136.797 96.1104 138.224 96.8728 139.778 97.1808C141.332 97.4887 142.943 97.3283 144.406 96.7198C145.869 96.1114 147.118 95.0823 147.995 93.7631C148.872 92.4439 149.338 90.8939 149.333 89.3097C149.327 87.1961 148.485 85.171 146.99 83.6765C145.496 82.182 143.471 81.3396 141.357 81.3334ZM138.619 94.2637C138.578 94.2406 138.543 94.2082 138.516 94.1691C138.489 94.1301 138.472 94.0854 138.465 94.0386C138.461 93.9936 138.467 93.9484 138.481 93.9056C138.495 93.8628 138.518 93.8233 138.548 93.7897L145.801 86.5363C145.835 86.5063 145.875 86.4835 145.917 86.4692C145.96 86.4549 146.005 86.4496 146.05 86.4534C146.097 86.46 146.142 86.4774 146.181 86.5041C146.22 86.5308 146.252 86.5662 146.276 86.6074C146.861 87.6774 147.083 88.9081 146.91 90.1151C146.737 91.3222 146.177 92.4407 145.315 93.3029C144.452 94.1652 143.334 94.7248 142.127 94.8981C140.92 95.0713 139.689 94.8487 138.619 94.2637ZM144.059 84.4386C144.1 84.4617 144.136 84.4941 144.163 84.5332C144.189 84.5722 144.207 84.6169 144.213 84.6637C144.218 84.7087 144.213 84.7542 144.198 84.7971C144.184 84.84 144.161 84.8794 144.13 84.9126L136.877 92.166C136.843 92.196 136.804 92.2188 136.761 92.2331C136.718 92.2473 136.673 92.2527 136.628 92.2489C136.583 92.2421 136.539 92.2259 136.501 92.2014C136.462 92.1769 136.429 92.1447 136.403 92.1067C135.813 91.0365 135.587 89.8037 135.758 88.5938C135.929 87.3838 136.488 86.2621 137.351 85.3974C138.215 84.5326 139.336 83.9716 140.545 83.7987C141.755 83.6258 142.988 83.8503 144.059 84.4386Z" fill="#111111"/>
</g>
</g>
<g id="Size=40px, Filled=true">
<g id="Vector_13">
<path d="M177.333 70.2222C177.333 70.3401 177.378 70.4531 177.459 70.5365C177.539 70.6198 177.648 70.6667 177.761 70.6667H186.916C186.999 70.6613 187.079 70.6319 187.146 70.5819C187.214 70.532 187.267 70.4633 187.299 70.3838C187.331 70.3043 187.341 70.2171 187.328 70.132C187.315 70.0469 187.279 69.9673 187.224 69.9022L182.279 64.7822C181.798 64.282 181.145 64.0006 180.465 64H177.761C177.648 64 177.539 64.0468 177.459 64.1302C177.378 64.2135 177.333 64.3266 177.333 64.4444V70.2222Z" fill="#111111"/>
<path d="M180.839 82.8837C182.854 80.6667 185.005 79.8235 187.543 79.3178C187.631 79.2971 187.709 79.2477 187.765 79.1774C187.822 79.1072 187.853 79.0202 187.854 78.9302V74.3876C187.854 74.2848 187.813 74.1862 187.74 74.1135C187.667 74.0408 187.568 74 187.465 74H164.91C164.806 74 164.708 74.0408 164.635 74.1135C164.562 74.1862 164.521 74.2848 164.521 74.3876V88.3411C164.521 88.9579 164.767 89.5494 165.204 89.9855C165.642 90.4217 166.235 90.6667 166.854 90.6667H177.815C177.91 90.6642 178 90.6286 178.071 90.5663C178.142 90.504 178.189 90.4188 178.204 90.3256C178.604 87.5098 178.823 85.1008 180.839 82.8837Z" fill="#111111"/>
<path d="M173.573 70.6667C173.685 70.6623 173.791 70.614 173.87 70.5316C173.949 70.4492 173.996 70.3387 174 70.2222V64.4444C174 64.3266 173.955 64.2135 173.875 64.1302C173.795 64.0468 173.687 64 173.573 64H170.86C170.183 64.0045 169.533 64.2852 169.052 64.7822L164.138 69.9022C164.073 69.9598 164.028 70.0378 164.009 70.1244C163.991 70.211 164 70.3015 164.035 70.3822C164.066 70.4651 164.12 70.5364 164.19 70.5871C164.259 70.6378 164.342 70.6655 164.428 70.6667H173.573Z" fill="#111111"/>
<path d="M190.696 80.6667C188.716 80.6609 186.778 81.2431 185.129 82.3397C183.48 83.4362 182.194 84.9977 181.434 86.8262C180.673 88.6546 180.472 90.6677 180.857 92.6103C181.242 94.5529 182.195 96.3374 183.596 97.7377C184.996 99.138 186.78 100.091 188.723 100.476C190.666 100.861 192.679 100.66 194.507 99.8998C196.336 99.1392 197.897 97.8529 198.994 96.2039C200.09 94.5549 200.672 92.6174 200.667 90.6371C200.659 87.9952 199.606 85.4637 197.738 83.5956C195.87 81.7275 193.338 80.6745 190.696 80.6667ZM187.274 96.8297C187.222 96.8007 187.178 96.7602 187.145 96.7114C187.111 96.6626 187.09 96.6067 187.081 96.5482C187.077 96.492 187.083 96.4354 187.101 96.382C187.119 96.3285 187.148 96.2792 187.185 96.2371L196.252 87.1704C196.294 87.1329 196.343 87.1043 196.397 87.0865C196.45 87.0687 196.507 87.0619 196.563 87.0667C196.621 87.075 196.677 87.0968 196.726 87.1302C196.775 87.1636 196.815 87.2077 196.844 87.2593C197.576 88.5967 197.854 90.1351 197.637 91.6439C197.421 93.1528 196.721 94.5508 195.643 95.6286C194.566 96.7065 193.167 97.4061 191.659 97.6226C190.15 97.8391 188.611 97.5609 187.274 96.8297ZM194.074 84.5482C194.126 84.5772 194.17 84.6176 194.203 84.6665C194.237 84.7153 194.258 84.7711 194.267 84.8297C194.272 84.8859 194.266 84.9427 194.248 84.9963C194.23 85.05 194.201 85.0992 194.163 85.1408L185.096 94.2075C185.054 94.245 185.005 94.2735 184.951 94.2913C184.898 94.3092 184.841 94.3159 184.785 94.3112C184.728 94.3026 184.674 94.2823 184.626 94.2517C184.577 94.2211 184.536 94.1808 184.504 94.1334C183.766 92.7956 183.483 91.2547 183.697 89.7422C183.911 88.2298 184.61 86.8276 185.689 85.7467C186.768 84.6658 188.17 83.9645 189.682 83.7484C191.194 83.5322 192.735 83.8129 194.074 84.5482Z" fill="#111111"/>
</g>
</g>
<g id="Size=48px, Filled=true">
<g id="Vector_14">
<path d="M232 67.4667C232 67.6081 232.054 67.7438 232.15 67.8438C232.247 67.9438 232.377 68 232.513 68H243.5C243.599 67.9935 243.695 67.9583 243.776 67.8983C243.857 67.8384 243.92 67.756 243.959 67.6606C243.997 67.5652 244.009 67.4605 243.993 67.3584C243.977 67.2563 243.934 67.1608 243.869 67.0827L237.935 60.9387C237.357 60.3384 236.575 60.0007 235.758 60H232.513C232.377 60 232.247 60.0562 232.15 60.1562C232.054 60.2562 232 60.3919 232 60.5333V67.4667Z" fill="#111111"/>
<path d="M236.206 82.6605C238.625 80 241.206 78.9882 244.252 78.3814C244.357 78.3565 244.451 78.2972 244.519 78.2129C244.586 78.1286 244.624 78.0242 244.625 77.9163V72.4651C244.625 72.3418 244.576 72.2235 244.488 72.1362C244.401 72.049 244.282 72 244.158 72H217.092C216.968 72 216.849 72.049 216.762 72.1362C216.674 72.2235 216.625 72.3418 216.625 72.4651V89.2093C216.625 89.9494 216.92 90.6593 217.445 91.1826C217.97 91.706 218.682 92 219.425 92H232.578C232.691 91.997 232.8 91.9544 232.886 91.8796C232.971 91.8048 233.027 91.7026 233.045 91.5907C233.525 88.2118 233.788 85.3209 236.206 82.6605Z" fill="#111111"/>
<path d="M227.488 68C227.622 67.9947 227.75 67.9368 227.844 67.8379C227.939 67.739 227.995 67.6064 228 67.4667V60.5333C228 60.3919 227.946 60.2562 227.85 60.1562C227.754 60.0562 227.624 60 227.488 60H224.232C223.419 60.0054 222.64 60.3423 222.062 60.9387L216.165 67.0827C216.087 67.1518 216.033 67.2454 216.011 67.3493C215.989 67.4532 216 67.5618 216.042 67.6587C216.079 67.7581 216.144 67.8437 216.227 67.9045C216.311 67.9654 216.411 67.9986 216.513 68H227.488Z" fill="#111111"/>
<path d="M248.036 80.0001C245.659 79.993 243.334 80.6917 241.355 82.0076C239.376 83.3235 237.833 85.1972 236.92 87.3914C236.008 89.5856 235.767 92.0013 236.229 94.3324C236.691 96.6635 237.834 98.8049 239.515 100.485C241.195 102.166 243.337 103.309 245.668 103.771C247.999 104.233 250.414 103.992 252.609 103.08C254.803 102.167 256.677 100.624 257.992 98.6447C259.308 96.6659 260.007 94.3409 260 91.9645C259.991 88.7942 258.727 85.7565 256.485 83.5147C254.244 81.273 251.206 80.0094 248.036 80.0001ZM243.929 99.3956C243.867 99.3608 243.814 99.3123 243.774 99.2537C243.734 99.1951 243.708 99.1281 243.698 99.0578C243.692 98.9904 243.7 98.9225 243.721 98.8583C243.743 98.7942 243.777 98.735 243.822 98.6845L254.702 87.8045C254.753 87.7595 254.812 87.7252 254.876 87.7038C254.94 87.6824 255.008 87.6743 255.076 87.68C255.146 87.6901 255.213 87.7161 255.271 87.7562C255.33 87.7963 255.379 87.8493 255.413 87.9112C256.291 89.5161 256.625 91.3621 256.365 93.1727C256.105 94.9833 255.265 96.661 253.972 97.9544C252.679 99.2478 251.001 100.087 249.19 100.347C247.38 100.607 245.534 100.273 243.929 99.3956ZM252.089 84.6578C252.151 84.6926 252.204 84.7412 252.244 84.7997C252.284 84.8583 252.31 84.9253 252.32 84.9956C252.327 85.0631 252.319 85.1313 252.298 85.1956C252.276 85.26 252.241 85.319 252.196 85.3689L241.316 96.2489C241.265 96.294 241.206 96.3282 241.142 96.3496C241.077 96.371 241.01 96.3791 240.942 96.3734C240.874 96.3631 240.809 96.3388 240.751 96.3021C240.693 96.2654 240.643 96.217 240.604 96.16C239.72 94.5548 239.38 92.7056 239.636 90.8907C239.893 89.0757 240.732 87.3932 242.027 86.096C243.322 84.7989 245.003 83.9574 246.818 83.698C248.633 83.4387 250.482 83.7755 252.089 84.6578Z" fill="#111111"/>
</g>
</g>
</g>
</g>
<defs>
<clipPath id="clip0_1126_881">
<rect width="264" height="108" rx="5" fill="white"/>
</clipPath>
</defs>
</svg>
