<svg width="264" height="108" viewBox="0 0 264 108" fill="none" xmlns="http://www.w3.org/2000/svg">
<g id="Box">
<g clip-path="url(#clip0_1126_877)">
<g id="Size=12px, Filled=false">
<path id="Vector" d="M0.375 20.625L6 18.375L11.625 20.625M0.375 20.625L6 22.875M0.375 20.625V27.375L6 29.625M6 22.875L11.625 20.625M6 22.875V29.625M11.625 20.625V27.375L6 29.625M9.0935 21.6375L3.4685 19.3875M10.3125 26.25L9.375 26.625" stroke="#111111" stroke-width="0.75" stroke-linecap="round" stroke-linejoin="round"/>
</g>
<g id="Size=16px, Filled=false">
<path id="Vector_2" d="M24.5 19.5L32 16.5L39.5 19.5M24.5 19.5L32 22.5M24.5 19.5V28.5L32 31.5M32 22.5L39.5 19.5M32 22.5V31.5M39.5 19.5V28.5L32 31.5M36.1247 20.85L28.6247 17.85M37.75 27L36.5 27.5" stroke="#111111" stroke-linecap="round" stroke-linejoin="round"/>
</g>
<g id="Size=20px, Filled=false">
<path id="Vector_3" d="M52.625 18.375L62 14.625L71.375 18.375M52.625 18.375L62 22.125M52.625 18.375V29.625L62 33.375M62 22.125L71.375 18.375M62 22.125V33.375M71.375 18.375V29.625L62 33.375M67.1558 20.0625L57.7808 16.3125M69.1875 27.75L67.625 28.375" stroke="#111111" stroke-width="1.25" stroke-linecap="round" stroke-linejoin="round"/>
</g>
<g id="Size=24px, Filled=false">
<path id="Vector_4" d="M84.75 17.25L96 12.75L107.25 17.25M84.75 17.25L96 21.75M84.75 17.25V30.75L96 35.25M96 21.75L107.25 17.25M96 21.75V35.25M107.25 17.25V30.75L96 35.25M102.187 19.275L90.937 14.775M104.625 28.5L102.75 29.25" stroke="#111111" stroke-width="1.5" stroke-linecap="round" stroke-linejoin="round"/>
</g>
<g id="Size=32px, Filled=false">
<path id="Vector_5" d="M121 15L136 9L151 15M121 15L136 21M121 15V33L136 39M136 21L151 15M136 21V39M151 15V33L136 39M144.249 17.7L129.249 11.7M147.5 30L145 31" stroke="#111111" stroke-width="2" stroke-linecap="round" stroke-linejoin="round"/>
</g>
<g id="Size=40px, Filled=false">
<path id="Vector_6" d="M165.25 12.75L184 5.25L202.75 12.75M165.25 12.75L184 20.25M165.25 12.75V35.25L184 42.75M184 20.25L202.75 12.75M184 20.25V42.75M202.75 12.75V35.25L184 42.75M194.312 16.125L175.562 8.625M198.375 31.5L195.25 32.75" stroke="#111111" stroke-width="2.5" stroke-linecap="round" stroke-linejoin="round"/>
</g>
<g id="Size=48px, Filled=false">
<path id="Vector_7" d="M217.5 10.5L240 1.5L262.5 10.5M217.5 10.5L240 19.5M217.5 10.5V37.5L240 46.5M240 19.5L262.5 10.5M240 19.5V46.5M262.5 10.5V37.5L240 46.5M252.374 14.55L229.874 5.55M257.25 33L253.5 34.5" stroke="#111111" stroke-width="3" stroke-linecap="round" stroke-linejoin="round"/>
</g>
<g id="Size=12px, Filled=true">
<path id="Vector_8" fill-rule="evenodd" clip-rule="evenodd" d="M10.8632 80.7706C10.8505 80.7906 10.8323 80.8064 10.8109 80.8159L9.10357 81.6134C9.07282 81.6279 9.03938 81.6354 9.00553 81.6354C8.97168 81.6354 8.93823 81.6279 8.90749 81.6134L4.26852 79.446C4.24713 79.4364 4.22894 79.4207 4.21619 79.4007C4.20345 79.3807 4.1967 79.3573 4.19678 79.3335C4.19761 79.3104 4.20478 79.2881 4.21747 79.269C4.23017 79.25 4.24786 79.235 4.26852 79.2258L5.80846 78.5408C5.8688 78.5139 5.93393 78.5 5.99976 78.5C6.06559 78.5 6.13072 78.5139 6.19106 78.5408L10.8109 80.5957C10.8319 80.6044 10.8499 80.6193 10.8627 80.6385C10.8755 80.6576 10.8824 80.6802 10.8826 80.7034C10.8827 80.7273 10.876 80.7506 10.8632 80.7706ZM7.96278 82.1148C7.95246 82.1385 7.93501 82.1583 7.91297 82.1712L6.32998 82.9051C6.29974 82.9183 6.2672 82.9251 6.23433 82.9251C6.20145 82.9251 6.16892 82.9183 6.13868 82.9051L1.21754 80.8062C1.19399 80.7984 1.17389 80.7823 1.16077 80.7608C1.14765 80.7394 1.14235 80.7138 1.14581 80.6888C1.14597 80.6643 1.15277 80.6404 1.16543 80.6197C1.1781 80.5989 1.19614 80.5822 1.21754 80.5713L3.03965 79.7738C3.0707 79.7605 3.10403 79.7537 3.13769 79.7537C3.17136 79.7537 3.20469 79.7605 3.23573 79.7738L7.91297 81.9511C7.92837 81.9604 7.94152 81.9732 7.95145 81.9884C7.96139 82.0037 7.96785 82.021 7.97036 82.0391C7.97575 82.0645 7.9731 82.091 7.96278 82.1148ZM0.667386 81.3688C0.649362 81.3604 0.629794 81.3561 0.609996 81.3561C0.590199 81.3561 0.57063 81.3604 0.552607 81.3688C0.536505 81.3804 0.523338 81.3958 0.514191 81.4137C0.505044 81.4315 0.50018 81.4514 0.5 81.4715V86.9317C0.500471 87.0283 0.52888 87.1226 0.581646 87.2027C0.634413 87.2828 0.709175 87.3451 0.796512 87.3818L5.71286 89.4857C5.73059 89.4951 5.75028 89.5 5.77025 89.5C5.79023 89.5 5.80992 89.4951 5.82764 89.4857C5.84398 89.4754 5.85742 89.461 5.86665 89.4439C5.87588 89.4267 5.88056 89.4074 5.88025 89.3878V83.6732C5.88033 83.6493 5.87358 83.626 5.86084 83.606C5.84809 83.586 5.8299 83.5702 5.80851 83.5607L0.667386 81.3688ZM6.61189 89.407C6.60248 89.3891 6.59759 89.369 6.59766 89.3487V83.6635C6.59758 83.6396 6.60432 83.6162 6.61707 83.5962C6.62982 83.5762 6.64801 83.5605 6.66939 83.5509L11.3323 81.3835C11.3505 81.3754 11.3704 81.372 11.3902 81.3737C11.4101 81.3755 11.4291 81.3822 11.4458 81.3934C11.4624 81.4046 11.476 81.4198 11.4854 81.4377C11.4948 81.4556 11.4997 81.4757 11.4997 81.496V86.9317C11.5023 87.0283 11.4769 87.1236 11.4267 87.2054C11.3765 87.2873 11.3037 87.3521 11.2175 87.3916L6.76504 89.4612C6.74682 89.4694 6.72689 89.4727 6.70708 89.471C6.68726 89.4693 6.66818 89.4625 6.65156 89.4513C6.63494 89.4402 6.6213 89.4249 6.61189 89.407Z" fill="#111111"/>
</g>
<g id="Size=16px, Filled=true">
<path id="Vector_9" fill-rule="evenodd" clip-rule="evenodd" d="M38.4846 79.6942C38.4676 79.7208 38.4434 79.7418 38.4149 79.7545L36.1384 80.8179C36.0974 80.8372 36.0528 80.8472 36.0077 80.8472C35.9626 80.8472 35.918 80.8372 35.877 80.8179L29.6917 77.928C29.6632 77.9152 29.6389 77.8942 29.6219 77.8676C29.6049 77.8409 29.5959 77.8098 29.596 77.7779C29.5971 77.7472 29.6067 77.7174 29.6236 77.6921C29.6405 77.6667 29.6641 77.6467 29.6917 77.6344L31.7449 76.7211C31.8254 76.6852 31.9122 76.6667 32 76.6667C32.0878 76.6667 32.1746 76.6852 32.2551 76.7211L38.4149 79.461C38.4429 79.4726 38.4669 79.4924 38.4839 79.5179C38.5009 79.5435 38.5102 79.5736 38.5105 79.6045C38.5106 79.6363 38.5016 79.6675 38.4846 79.6942ZM34.6174 81.4864C34.6036 81.518 34.5803 81.5444 34.5509 81.5616L32.4403 82.5402C32.4 82.5577 32.3566 82.5668 32.3128 82.5668C32.2689 82.5668 32.2256 82.5577 32.1852 82.5402L25.6237 79.7416C25.5923 79.7312 25.5655 79.7098 25.548 79.6811C25.5305 79.6525 25.5235 79.6184 25.5281 79.585C25.5283 79.5524 25.5373 79.5205 25.5542 79.4929C25.5711 79.4652 25.5952 79.4429 25.6237 79.4284L28.0532 78.3651C28.0946 78.3474 28.139 78.3382 28.1839 78.3382C28.2288 78.3382 28.2732 78.3474 28.3146 78.3651L34.5509 81.2681C34.5715 81.2805 34.589 81.2976 34.6023 81.3179C34.6155 81.3382 34.6241 81.3613 34.6275 81.3855C34.6347 81.4194 34.6311 81.4547 34.6174 81.4864ZM24.8902 80.4917C24.8661 80.4805 24.8401 80.4748 24.8137 80.4748C24.7873 80.4748 24.7612 80.4805 24.7371 80.4917C24.7157 80.5072 24.6981 80.5277 24.6859 80.5516C24.6737 80.5754 24.6672 80.6018 24.667 80.6287V87.9089C24.6676 88.0377 24.7055 88.1634 24.7759 88.2702C24.8462 88.377 24.9459 88.4602 25.0623 88.5091L31.6175 91.3142C31.6411 91.3268 31.6674 91.3333 31.694 91.3333C31.7206 91.3333 31.7469 91.3268 31.7705 91.3142C31.7923 91.3006 31.8102 91.2814 31.8225 91.2585C31.8348 91.2356 31.8411 91.2098 31.8407 91.1837V83.5643C31.8408 83.5325 31.8318 83.5013 31.8148 83.4746C31.7978 83.448 31.7735 83.427 31.745 83.4142L24.8902 80.4917ZM32.8162 91.2093C32.8036 91.1854 32.7971 91.1587 32.7972 91.1316V83.5513C32.7971 83.5194 32.8061 83.4883 32.8231 83.4616C32.8401 83.435 32.8643 83.414 32.8928 83.4012L39.11 80.5113C39.1343 80.5005 39.1609 80.496 39.1873 80.4983C39.2137 80.5006 39.2392 80.5096 39.2613 80.5245C39.2835 80.5394 39.3017 80.5597 39.3142 80.5836C39.3268 80.6075 39.3333 80.6342 39.3332 80.6614V87.909C39.3367 88.0378 39.3028 88.1647 39.2359 88.2739C39.1689 88.383 39.0719 88.4694 38.957 88.5222L33.0204 91.2816C32.9961 91.2925 32.9695 91.2969 32.9431 91.2946C32.9167 91.2923 32.8912 91.2833 32.8691 91.2684C32.8469 91.2535 32.8287 91.2332 32.8162 91.2093Z" fill="#111111"/>
</g>
<g id="Size=20px, Filled=true">
<path id="Vector_10" fill-rule="evenodd" clip-rule="evenodd" d="M70.106 78.6177C70.0848 78.651 70.0545 78.6773 70.0188 78.6932L67.1733 80.0224C67.122 80.0465 67.0663 80.059 67.0099 80.059C66.9534 80.059 66.8977 80.0465 66.8465 80.0224L59.1148 76.41C59.0792 76.3941 59.0489 76.3678 59.0276 76.3345C59.0064 76.3012 58.9951 76.2622 58.9953 76.2224C58.9967 76.184 59.0086 76.1468 59.0298 76.1151C59.0509 76.0834 59.0804 76.0584 59.1148 76.043L61.6814 74.9014C61.782 74.8565 61.8905 74.8333 62.0002 74.8333C62.11 74.8333 62.2185 74.8565 62.3191 74.9014L70.0188 78.3263C70.0538 78.3407 70.0839 78.3655 70.1051 78.3974C70.1264 78.4294 70.138 78.467 70.1384 78.5057C70.1385 78.5454 70.1273 78.5844 70.106 78.6177ZM65.2719 80.858C65.2547 80.8976 65.2257 80.9305 65.1889 80.9521L62.5506 82.1752C62.5002 82.1972 62.446 82.2085 62.3912 82.2085C62.3364 82.2085 62.2822 82.1972 62.2318 82.1752L54.0299 78.677C53.9906 78.664 53.9571 78.6372 53.9353 78.6014C53.9134 78.5656 53.9046 78.5231 53.9103 78.4813C53.9106 78.4405 53.9219 78.4007 53.943 78.3661C53.9641 78.3316 53.9942 78.3037 54.0299 78.2856L57.0667 76.9564C57.1185 76.9342 57.174 76.9228 57.2301 76.9228C57.2863 76.9228 57.3418 76.9342 57.3935 76.9564L65.1889 80.5851C65.2146 80.6007 65.2365 80.622 65.2531 80.6474C65.2696 80.6728 65.2804 80.7017 65.2846 80.7319C65.2936 80.7742 65.2891 80.8184 65.2719 80.858ZM53.113 79.6147C53.0829 79.6007 53.0503 79.5935 53.0173 79.5935C52.9843 79.5935 52.9517 79.6007 52.9217 79.6147C52.8948 79.6341 52.8729 79.6597 52.8576 79.6895C52.8424 79.7192 52.8343 79.7523 52.834 79.7859V88.8862C52.8348 89.0472 52.8821 89.2043 52.9701 89.3378C53.058 89.4713 53.1826 89.5752 53.3282 89.6364L61.5221 93.1428C61.5516 93.1585 61.5844 93.1667 61.6177 93.1667C61.651 93.1667 61.6839 93.1585 61.7134 93.1428C61.7406 93.1257 61.763 93.1017 61.7784 93.0731C61.7938 93.0445 61.8016 93.0123 61.8011 92.9797V83.4554C61.8012 83.4156 61.79 83.3766 61.7687 83.3433C61.7475 83.31 61.7172 83.2837 61.6815 83.2678L53.113 79.6147ZM63.0205 93.0117C63.0048 92.9818 62.9966 92.9484 62.9967 92.9145V83.4391C62.9966 83.3993 63.0079 83.3604 63.0291 83.327C63.0503 83.2937 63.0807 83.2675 63.1163 83.2516L70.8878 79.6392C70.9182 79.6256 70.9514 79.62 70.9844 79.6229C71.0174 79.6258 71.0492 79.637 71.0769 79.6557C71.1046 79.6743 71.1273 79.6997 71.143 79.7295C71.1587 79.7594 71.1669 79.7928 71.1668 79.8267V88.8862C71.1711 89.0472 71.1288 89.2059 71.0451 89.3424C70.9614 89.4788 70.8401 89.5868 70.6965 89.6527L63.2757 93.102C63.2453 93.1156 63.2121 93.1212 63.1791 93.1183C63.1461 93.1155 63.1143 93.1042 63.0866 93.0856C63.0589 93.0669 63.0362 93.0416 63.0205 93.0117Z" fill="#111111"/>
</g>
<g id="Size=24px, Filled=true">
<path id="Vector_11" fill-rule="evenodd" clip-rule="evenodd" d="M105.727 77.5413C105.701 77.5812 105.665 77.6127 105.622 77.6318L102.208 79.2268C102.146 79.2558 102.079 79.2708 102.012 79.2708C101.944 79.2708 101.877 79.2558 101.815 79.2268L92.5375 74.892C92.4947 74.8729 92.4584 74.8414 92.4329 74.8014C92.4074 74.7614 92.3939 74.7146 92.394 74.6669C92.3957 74.6208 92.4101 74.5762 92.4354 74.5381C92.4608 74.5 92.4962 74.47 92.5375 74.4516L95.6174 73.0817C95.7381 73.0278 95.8683 73 96 73C96.1317 73 96.2619 73.0278 96.3826 73.0817L105.622 77.1915C105.664 77.2089 105.7 77.2386 105.726 77.2769C105.751 77.3152 105.765 77.3604 105.766 77.4068C105.766 77.4545 105.752 77.5013 105.727 77.5413ZM99.926 80.2296C99.9054 80.2771 99.8705 80.3166 99.8264 80.3425L96.6604 81.8102C96.6 81.8366 96.5349 81.8502 96.4691 81.8502C96.4034 81.8502 96.3383 81.8366 96.2778 81.8102L86.4356 77.6124C86.3885 77.5968 86.3483 77.5646 86.322 77.5217C86.2958 77.4787 86.2852 77.4277 86.2921 77.3775C86.2924 77.3286 86.306 77.2808 86.3313 77.2393C86.3567 77.1979 86.3928 77.1644 86.4356 77.1427L90.0798 75.5477C90.1419 75.521 90.2085 75.5073 90.2759 75.5073C90.3432 75.5073 90.4099 75.521 90.472 75.5477L99.8264 79.9021C99.8572 79.9208 99.8835 79.9463 99.9034 79.9768C99.9233 80.0073 99.9362 80.042 99.9412 80.0783C99.952 80.1291 99.9467 80.1821 99.926 80.2296ZM85.3353 78.7376C85.2992 78.7208 85.2601 78.7122 85.2205 78.7122C85.1809 78.7122 85.1417 78.7208 85.1057 78.7376C85.0735 78.7609 85.0472 78.7916 85.0289 78.8274C85.0106 78.8631 85.0008 78.9028 85.0005 78.9431V89.8634C85.0014 90.0566 85.0582 90.2452 85.1638 90.4054C85.2693 90.5656 85.4188 90.6902 85.5935 90.7637L95.4262 94.9713C95.4617 94.9902 95.501 95 95.541 95C95.581 95 95.6203 94.9902 95.6558 94.9713C95.6884 94.9509 95.7153 94.9221 95.7338 94.8878C95.7522 94.8534 95.7616 94.8148 95.761 94.7756V83.3464C95.7612 83.2987 95.7477 83.2519 95.7222 83.212C95.6967 83.172 95.6603 83.1405 95.6175 83.1214L85.3353 78.7376ZM97.2243 94.814C97.2054 94.7782 97.1957 94.7381 97.1958 94.6974V83.3269C97.1956 83.2792 97.2091 83.2324 97.2346 83.1924C97.2601 83.1525 97.2965 83.121 97.3393 83.1019L106.665 78.767C106.701 78.7507 106.741 78.744 106.781 78.7475C106.821 78.7509 106.859 78.7644 106.892 78.7868C106.925 78.8091 106.953 78.8396 106.971 78.8754C106.99 78.9113 107 78.9514 107 78.9921V89.8635C107.005 90.0567 106.954 90.2471 106.854 90.4108C106.753 90.5745 106.608 90.7041 106.435 90.7833L97.5306 94.9224C97.4941 94.9387 97.4543 94.9454 97.4146 94.942C97.375 94.9385 97.3368 94.925 97.3036 94.9027C97.2704 94.8803 97.2431 94.8498 97.2243 94.814Z" fill="#111111"/>
</g>
<g id="Size=32px, Filled=true">
<path id="Vector_12" fill-rule="evenodd" clip-rule="evenodd" d="M148.969 75.3884C148.935 75.4417 148.887 75.4837 148.83 75.5091L144.277 77.6358C144.195 77.6744 144.106 77.6944 144.015 77.6944C143.925 77.6944 143.836 77.6744 143.754 77.6358L131.383 71.856C131.326 71.8305 131.278 71.7885 131.244 71.7352C131.21 71.6819 131.192 71.6195 131.192 71.5559C131.194 71.4945 131.213 71.4349 131.247 71.3841C131.281 71.3334 131.328 71.2934 131.383 71.2688L135.49 69.4423C135.651 69.3704 135.824 69.3333 136 69.3333C136.176 69.3333 136.349 69.3704 136.51 69.4423L148.83 74.922C148.886 74.9452 148.934 74.9848 148.968 75.0359C149.002 75.087 149.02 75.1472 149.021 75.209C149.021 75.2727 149.003 75.335 148.969 75.3884ZM141.235 78.9728C141.207 79.0361 141.161 79.0888 141.102 79.1233L136.881 81.0803C136.8 81.1155 136.713 81.1336 136.626 81.1336C136.538 81.1336 136.451 81.1155 136.37 81.0803L123.247 75.4832C123.185 75.4624 123.131 75.4195 123.096 75.3623C123.061 75.305 123.047 75.2369 123.056 75.1701C123.057 75.1049 123.075 75.0411 123.108 74.9858C123.142 74.9305 123.19 74.8859 123.247 74.8569L128.106 72.7303C128.189 72.6947 128.278 72.6764 128.368 72.6764C128.458 72.6764 128.546 72.6947 128.629 72.7303L141.102 78.5362C141.143 78.5611 141.178 78.5951 141.205 78.6358C141.231 78.6764 141.248 78.7226 141.255 78.771C141.269 78.8388 141.262 78.9094 141.235 78.9728ZM121.78 76.9835C121.732 76.9611 121.68 76.9496 121.627 76.9496C121.575 76.9496 121.522 76.9611 121.474 76.9835C121.431 77.0145 121.396 77.0555 121.372 77.1032C121.347 77.1508 121.334 77.2037 121.334 77.2575V91.8179C121.335 92.0755 121.411 92.3269 121.552 92.5405C121.692 92.7541 121.892 92.9203 122.125 93.0182L135.235 98.6284C135.282 98.6536 135.335 98.6667 135.388 98.6667C135.441 98.6667 135.494 98.6536 135.541 98.6284C135.585 98.6012 135.62 98.5628 135.645 98.517C135.67 98.4712 135.682 98.4197 135.681 98.3675V83.1286C135.682 83.0649 135.664 83.0026 135.63 82.9493C135.596 82.896 135.547 82.854 135.49 82.8285L121.78 76.9835ZM137.632 98.4187C137.607 98.3709 137.594 98.3174 137.594 98.2632V83.1026C137.594 83.0389 137.612 82.9766 137.646 82.9233C137.68 82.8699 137.729 82.828 137.786 82.8025L150.22 77.0227C150.269 77.001 150.322 76.992 150.375 76.9966C150.427 77.0012 150.478 77.0192 150.523 77.049C150.567 77.0788 150.603 77.1195 150.628 77.1673C150.654 77.2151 150.667 77.2685 150.666 77.3228V91.818C150.673 92.0756 150.606 92.3295 150.472 92.5478C150.338 92.766 150.144 92.9388 149.914 93.0444L138.041 98.5633C137.992 98.585 137.939 98.5939 137.886 98.5893C137.833 98.5847 137.782 98.5667 137.738 98.5369C137.694 98.5071 137.657 98.4665 137.632 98.4187Z" fill="#111111"/>
</g>
<g id="Size=40px, Filled=true">
<path id="Vector_13" fill-rule="evenodd" clip-rule="evenodd" d="M200.212 73.2354C200.169 73.3021 200.108 73.3545 200.037 73.3864L194.346 76.0447C194.244 76.093 194.132 76.118 194.019 76.118C193.906 76.118 193.795 76.093 193.692 76.0447L178.229 68.8199C178.158 68.7881 178.097 68.7356 178.055 68.669C178.012 68.6023 177.99 68.5244 177.99 68.4448C177.993 68.368 178.017 68.2936 178.059 68.2302C178.101 68.1667 178.16 68.1167 178.229 68.086L183.362 65.8028C183.563 65.713 183.781 65.6667 184 65.6667C184.219 65.6667 184.437 65.713 184.638 65.8028L200.037 72.6525C200.107 72.6815 200.167 72.731 200.21 72.7948C200.252 72.8587 200.275 72.934 200.276 73.0113C200.277 73.0908 200.254 73.1688 200.212 73.2354ZM190.543 77.7159C190.509 77.7951 190.451 77.861 190.377 77.9041L185.101 80.3504C185 80.3944 184.891 80.417 184.782 80.417C184.672 80.417 184.564 80.3944 184.463 80.3504L168.059 73.354C167.981 73.3279 167.914 73.2744 167.87 73.2028C167.826 73.1312 167.809 73.0461 167.82 72.9625C167.821 72.8811 167.843 72.8013 167.886 72.7322C167.928 72.6631 167.988 72.6073 168.059 72.5711L174.133 69.9128C174.236 69.8684 174.348 69.8455 174.46 69.8455C174.572 69.8455 174.683 69.8684 174.787 69.9128L190.377 77.1702C190.429 77.2013 190.473 77.2439 190.506 77.2947C190.539 77.3455 190.56 77.4033 190.569 77.4638C190.587 77.5484 190.578 77.6367 190.543 77.7159ZM166.225 75.2293C166.165 75.2014 166.1 75.1869 166.034 75.1869C165.968 75.1869 165.903 75.2014 165.843 75.2293C165.789 75.2681 165.745 75.3194 165.715 75.3789C165.684 75.4385 165.668 75.5046 165.667 75.5718V93.7723C165.669 94.0943 165.764 94.4086 165.94 94.6756C166.116 94.9426 166.365 95.1504 166.656 95.2727L183.044 102.286C183.103 102.317 183.168 102.333 183.235 102.333C183.302 102.333 183.367 102.317 183.426 102.286C183.481 102.251 183.526 102.203 183.556 102.146C183.587 102.089 183.603 102.025 183.602 101.959V82.9107C183.602 82.8312 183.579 82.7532 183.537 82.6866C183.494 82.6199 183.434 82.5675 183.363 82.5356L166.225 75.2293ZM186.04 102.023C186.009 101.964 185.993 101.897 185.993 101.829V82.8782C185.993 82.7986 186.015 82.7207 186.058 82.6541C186.1 82.5874 186.161 82.5349 186.232 82.5031L201.775 75.2783C201.836 75.2512 201.902 75.24 201.968 75.2458C202.034 75.2515 202.098 75.274 202.153 75.3113C202.209 75.3485 202.254 75.3993 202.286 75.4591C202.317 75.5188 202.333 75.5856 202.333 75.6534V93.7724C202.342 94.0944 202.257 94.4119 202.09 94.6847C201.922 94.9575 201.68 95.1735 201.392 95.3055L186.551 102.204C186.49 102.231 186.424 102.242 186.358 102.237C186.292 102.231 186.228 102.208 186.173 102.171C186.117 102.134 186.072 102.083 186.04 102.023Z" fill="#111111"/>
</g>
<g id="Size=48px, Filled=true">
<path id="Vector_14" fill-rule="evenodd" clip-rule="evenodd" d="M259.454 71.0825C259.403 71.1625 259.33 71.2255 259.245 71.2637L252.415 74.4536C252.292 74.5116 252.158 74.5416 252.023 74.5416C251.888 74.5416 251.754 74.5116 251.631 74.4536L233.075 65.7839C232.989 65.7457 232.917 65.6828 232.866 65.6028C232.815 65.5228 232.788 65.4293 232.788 65.3338C232.791 65.2417 232.82 65.1524 232.871 65.0762C232.922 65 232.992 64.9401 233.075 64.9033L239.235 62.1634C239.476 62.0556 239.737 62 240 62C240.263 62 240.524 62.0556 240.765 62.1634L259.245 70.383C259.329 70.4178 259.401 70.4772 259.452 70.5538C259.503 70.6304 259.531 70.7208 259.532 70.8135C259.532 70.909 259.505 71.0025 259.454 71.0825ZM247.852 76.4591C247.811 76.5541 247.741 76.6332 247.653 76.6849L241.321 79.6205C241.2 79.6732 241.07 79.7004 240.938 79.7004C240.807 79.7004 240.677 79.6732 240.556 79.6205L220.871 71.2248C220.777 71.1935 220.697 71.1293 220.644 71.0434C220.592 70.9575 220.57 70.8554 220.584 70.7551C220.585 70.6573 220.612 70.5616 220.663 70.4787C220.713 70.3957 220.786 70.3288 220.871 70.2854L228.16 67.0954C228.284 67.0421 228.417 67.0146 228.552 67.0146C228.686 67.0146 228.82 67.0421 228.944 67.0954L247.653 75.8042C247.714 75.8416 247.767 75.8927 247.807 75.9537C247.847 76.0146 247.872 76.084 247.882 76.1565C247.904 76.2581 247.893 76.3641 247.852 76.4591ZM218.671 73.4752C218.598 73.4417 218.52 73.4243 218.441 73.4243C218.362 73.4243 218.283 73.4417 218.211 73.4752C218.147 73.5217 218.094 73.5833 218.058 73.6547C218.021 73.7262 218.002 73.8055 218.001 73.8862V95.7268C218.003 96.1132 218.116 96.4903 218.328 96.8108C218.539 97.1312 218.838 97.3805 219.187 97.5273L238.852 105.943C238.923 105.98 239.002 106 239.082 106C239.162 106 239.241 105.98 239.312 105.943C239.377 105.902 239.431 105.844 239.468 105.776C239.504 105.707 239.523 105.63 239.522 105.551V82.6929C239.522 82.5974 239.495 82.5039 239.444 82.4239C239.393 82.3439 239.321 82.281 239.235 82.2428L218.671 73.4752ZM242.449 105.628C242.411 105.556 242.391 105.476 242.392 105.395V82.6539C242.391 82.5584 242.418 82.4649 242.469 82.3849C242.52 82.3049 242.593 82.2419 242.679 82.2037L261.33 73.534C261.403 73.5015 261.483 73.488 261.562 73.4949C261.641 73.5018 261.718 73.5289 261.784 73.5735C261.851 73.6182 261.905 73.6792 261.943 73.7509C261.98 73.8226 262 73.9028 262 73.9841V95.7269C262.01 96.1133 261.909 96.4942 261.708 96.8216C261.507 97.149 261.216 97.4082 260.871 97.5666L243.061 105.845C242.988 105.877 242.909 105.891 242.829 105.884C242.75 105.877 242.674 105.85 242.607 105.805C242.541 105.761 242.486 105.7 242.449 105.628Z" fill="#111111"/>
</g>
</g>
</g>
<defs>
<clipPath id="clip0_1126_877">
<rect width="264" height="108" rx="5" fill="white"/>
</clipPath>
</defs>
</svg>
