<svg width="264" height="108" viewBox="0 0 264 108" fill="none" xmlns="http://www.w3.org/2000/svg">
<g id="Distance">
<g clip-path="url(#clip0_1126_884)">
<g id="Size=12px, Filled=false">
<path id="Vector" d="M2.70619 26.2014V26.9336M2.70619 28.3979C2.70619 28.8022 3.03399 29.13 3.43834 29.13H4.17048M5.63477 29.13H6.36691M2.70619 18.88C3.91925 18.88 4.90262 19.8695 4.90262 21.09C4.90262 22.0334 3.59062 23.8285 2.99466 24.5956C2.92528 24.6849 2.81888 24.7371 2.70619 24.7371C2.59351 24.7371 2.48711 24.6849 2.41773 24.5956C1.82177 23.829 0.509766 22.0334 0.509766 21.09C0.509766 19.8695 1.49314 18.88 2.70619 18.88ZM2.70619 21.8086C3.11055 21.8086 3.43834 21.4808 3.43834 21.0764C3.43834 20.6721 3.11055 20.3443 2.70619 20.3443C2.30184 20.3443 1.97405 20.6721 1.97405 21.0764C1.97405 21.4808 2.30184 21.8086 2.70619 21.8086ZM9.29548 23.2729C10.5085 23.2729 11.4919 24.2623 11.4919 25.4829C11.4919 26.4263 10.1799 28.2213 9.58394 28.9884C9.51457 29.0778 9.40816 29.13 9.29548 29.13C9.1828 29.13 9.07639 29.0778 9.00701 28.9884C8.41105 28.2213 7.09905 26.4263 7.09905 25.4829C7.09905 24.2623 8.08243 23.2729 9.29548 23.2729ZM9.29548 26.2014C9.69983 26.2014 10.0276 25.8736 10.0276 25.4693C10.0276 25.0649 9.69983 24.7371 9.29548 24.7371C8.89113 24.7371 8.56334 25.0649 8.56334 25.4693C8.56334 25.8736 8.89113 26.2014 9.29548 26.2014Z" stroke="#111111" stroke-width="0.75" stroke-linecap="round" stroke-linejoin="round"/>
</g>
<g id="Size=16px, Filled=false">
<path id="Vector_2" d="M27.5 27V28M27.5 30C27.5 30.5523 27.9477 31 28.5 31H29.5M31.5 31H32.5M27.5 17C29.1569 17 30.5 18.3515 30.5 20.0186C30.5 21.3071 28.708 23.7589 27.894 24.8066C27.7992 24.9287 27.6539 25 27.5 25C27.3461 25 27.2008 24.9287 27.106 24.8066C26.292 23.7595 24.5 21.3071 24.5 20.0186C24.5 18.3515 25.8431 17 27.5 17ZM27.5 21C28.0523 21 28.5 20.5523 28.5 20C28.5 19.4477 28.0523 19 27.5 19C26.9477 19 26.5 19.4477 26.5 20C26.5 20.5523 26.9477 21 27.5 21ZM36.5 23C38.1569 23 39.5 24.3515 39.5 26.0186C39.5 27.3071 37.708 29.7589 36.894 30.8066C36.7992 30.9287 36.6539 31 36.5 31C36.3461 31 36.2008 30.9287 36.106 30.8066C35.292 29.7589 33.5 27.3071 33.5 26.0186C33.5 24.3515 34.8431 23 36.5 23ZM36.5 27C37.0523 27 37.5 26.5523 37.5 26C37.5 25.4477 37.0523 25 36.5 25C35.9477 25 35.5 25.4477 35.5 26C35.5 26.5523 35.9477 27 36.5 27Z" stroke="#111111" stroke-linecap="round" stroke-linejoin="round"/>
</g>
<g id="Size=20px, Filled=false">
<path id="Vector_3" d="M56.3999 27.75V29M56.3999 31.5C56.3999 32.1904 56.9595 32.75 57.6499 32.75H58.8999M61.3999 32.75H62.6499M56.3999 15.25C58.471 15.25 60.1499 16.9393 60.1499 19.0232C60.1499 20.6339 57.9099 23.6986 56.8924 25.0083C56.774 25.1608 56.5923 25.25 56.3999 25.25C56.2075 25.25 56.0258 25.1608 55.9074 25.0083C54.8899 23.6994 52.6499 20.6339 52.6499 19.0232C52.6499 16.9393 54.3288 15.25 56.3999 15.25ZM56.3999 20.25C57.0903 20.25 57.6499 19.6904 57.6499 19C57.6499 18.3096 57.0903 17.75 56.3999 17.75C55.7095 17.75 55.1499 18.3096 55.1499 19C55.1499 19.6904 55.7095 20.25 56.3999 20.25ZM67.6499 22.75C69.721 22.75 71.3999 24.4393 71.3999 26.5232C71.3999 28.1339 69.1599 31.1986 68.1424 32.5083C68.024 32.6608 67.8423 32.75 67.6499 32.75C67.4575 32.75 67.2758 32.6608 67.1574 32.5083C66.1399 31.1986 63.8999 28.1339 63.8999 26.5232C63.8999 24.4393 65.5788 22.75 67.6499 22.75ZM67.6499 27.75C68.3403 27.75 68.8999 27.1904 68.8999 26.5C68.8999 25.8096 68.3403 25.25 67.6499 25.25C66.9595 25.25 66.3999 25.8096 66.3999 26.5C66.3999 27.1904 66.9595 27.75 67.6499 27.75Z" stroke="#111111" stroke-width="1.25" stroke-linecap="round" stroke-linejoin="round"/>
</g>
<g id="Size=24px, Filled=false">
<path id="Vector_4" d="M89 27V30M89 33C89 33.5523 89.6716 34 90.5 34H92M95 34H97M89.5 13C91.9853 13 94 14.8582 94 17.1505C94 18.9223 91.312 22.2935 90.091 23.7341C89.9489 23.9019 89.7309 24 89.5 24C89.2691 24 89.0511 23.9019 88.909 23.7341C87.688 22.2944 85 18.9223 85 17.1505C85 14.8582 87.0147 13 89.5 13ZM89.5 19C90.3284 19 91 18.3284 91 17.5C91 16.6716 90.3284 16 89.5 16C88.6716 16 88 16.6716 88 17.5C88 18.3284 88.6716 19 89.5 19ZM102.5 23C104.985 23 107 24.8582 107 27.1505C107 28.9223 104.312 32.2935 103.091 33.7341C102.949 33.9019 102.731 34 102.5 34C102.269 34 102.051 33.9019 101.909 33.7341C100.688 32.2935 98 28.9223 98 27.1505C98 24.8582 100.015 23 102.5 23ZM102.5 29C103.328 29 104 28.3284 104 27.5C104 26.6716 103.328 26 102.5 26C101.672 26 101 26.6716 101 27.5C101 28.3284 101.672 29 102.5 29Z" stroke="#111111" stroke-width="1.5" stroke-linecap="round" stroke-linejoin="round"/>
</g>
<g id="Size=32px, Filled=false">
<path id="Vector_5" d="M127 30V32M127 36C127 37.1046 127.895 38 129 38H131M135 38H137M127 10C130.314 10 133 12.7029 133 16.0371C133 18.6143 129.416 23.5178 127.788 25.6133C127.598 25.8574 127.308 26 127 26C126.692 26 126.402 25.8574 126.212 25.6133C124.584 23.5191 121 18.6143 121 16.0371C121 12.7029 123.686 10 127 10ZM127 18C128.105 18 129 17.1046 129 16C129 14.8954 128.105 14 127 14C125.895 14 125 14.8954 125 16C125 17.1046 125.895 18 127 18ZM145 22C148.314 22 151 24.7029 151 28.0371C151 30.6143 147.416 35.5178 145.788 37.6133C145.598 37.8574 145.308 38 145 38C144.692 38 144.402 37.8574 144.212 37.6133C142.584 35.5178 139 30.6143 139 28.0371C139 24.7029 141.686 22 145 22ZM145 30C146.105 30 147 29.1046 147 28C147 26.8954 146.105 26 145 26C143.895 26 143 26.8954 143 28C143 29.1046 143.895 30 145 30Z" stroke="#111111" stroke-width="2" stroke-linecap="round" stroke-linejoin="round"/>
</g>
<g id="Size=40px, Filled=false">
<path id="Vector_6" d="M172.75 31.5V34M172.75 39C172.75 40.3807 173.869 41.5 175.25 41.5H177.75M182.75 41.5H185.25M172.75 6.5C176.892 6.5 180.25 9.87863 180.25 14.0464C180.25 17.2679 175.77 23.3972 173.735 26.0166C173.498 26.3217 173.135 26.5 172.75 26.5C172.365 26.5 172.002 26.3217 171.765 26.0166C169.73 23.3989 165.25 17.2679 165.25 14.0464C165.25 9.87863 168.608 6.5 172.75 6.5ZM172.75 16.5C174.131 16.5 175.25 15.3807 175.25 14C175.25 12.6193 174.131 11.5 172.75 11.5C171.369 11.5 170.25 12.6193 170.25 14C170.25 15.3807 171.369 16.5 172.75 16.5ZM195.25 21.5C199.392 21.5 202.75 24.8786 202.75 29.0464C202.75 32.2679 198.27 38.3972 196.235 41.0166C195.998 41.3217 195.635 41.5 195.25 41.5C194.865 41.5 194.502 41.3217 194.265 41.0166C192.23 38.3972 187.75 32.2679 187.75 29.0464C187.75 24.8786 191.108 21.5 195.25 21.5ZM195.25 31.5C196.631 31.5 197.75 30.3807 197.75 29C197.75 27.6193 196.631 26.5 195.25 26.5C193.869 26.5 192.75 27.6193 192.75 29C192.75 30.3807 193.869 31.5 195.25 31.5Z" stroke="#111111" stroke-width="2.5" stroke-linecap="round" stroke-linejoin="round"/>
</g>
<g id="Size=48px, Filled=false">
<path id="Vector_7" d="M226.5 33V36M226.5 42C226.5 43.6569 227.843 45 229.5 45H232.5M238.5 45H241.5M226.5 3C231.471 3 235.5 7.05436 235.5 12.0557C235.5 15.9214 230.124 23.2766 227.682 26.4199C227.398 26.786 226.962 27 226.5 27C226.038 27 225.602 26.786 225.318 26.4199C222.876 23.2786 217.5 15.9214 217.5 12.0557C217.5 7.05436 221.529 3 226.5 3ZM226.5 15C228.157 15 229.5 13.6569 229.5 12C229.5 10.3431 228.157 9 226.5 9C224.843 9 223.5 10.3431 223.5 12C223.5 13.6569 224.843 15 226.5 15ZM253.5 21C258.471 21 262.5 25.0544 262.5 30.0557C262.5 33.9214 257.124 41.2766 254.682 44.4199C254.398 44.786 253.962 45 253.5 45C253.038 45 252.602 44.786 252.318 44.4199C249.876 41.2766 244.5 33.9214 244.5 30.0557C244.5 25.0544 248.529 21 253.5 21ZM253.5 33C255.157 33 256.5 31.6569 256.5 30C256.5 28.3431 255.157 27 253.5 27C251.843 27 250.5 28.3431 250.5 30C250.5 31.6569 251.843 33 253.5 33Z" stroke="#111111" stroke-width="3" stroke-linecap="round" stroke-linejoin="round"/>
</g>
<g id="Size=12px, Filled=true" clip-path="url(#clip1_1126_884)">
<g id="Vector_8">
<path d="M2.5 84C2.57248 84.0004 2.64226 83.9745 2.69444 83.928C2.77778 83.8302 5 81.7719 5 80.3156C5 79.7015 4.73661 79.1125 4.26777 78.6782C3.79893 78.244 3.16304 78 2.5 78C1.83696 78 1.20107 78.244 0.732233 78.6782C0.263392 79.1125 0 79.7015 0 80.3156C0 81.7719 2.22222 83.8302 2.30556 83.928C2.35774 83.9745 2.42752 84.0004 2.5 84ZM1.49444 80.3156C1.49334 80.1536 1.54421 79.9949 1.6406 79.8597C1.737 79.7244 1.87457 79.6188 2.03587 79.556C2.19718 79.4933 2.37496 79.4764 2.54668 79.5074C2.71839 79.5384 2.87631 79.6159 3.0004 79.7301C3.12449 79.8443 3.20917 79.9901 3.24371 80.1489C3.27825 80.3078 3.26108 80.4726 3.19439 80.6224C3.1277 80.7722 3.01449 80.9003 2.8691 80.9904C2.72372 81.0805 2.55272 81.1286 2.37778 81.1286C2.14446 81.1286 1.92062 81.0432 1.75512 80.8908C1.58962 80.7385 1.49591 80.5317 1.49444 80.3156Z" fill="#111111"/>
<path d="M9.5 83C8.83696 83 8.20107 83.2431 7.73223 83.676C7.26339 84.1088 7 84.6958 7 85.3079C7 86.771 9.23 88.8481 9.325 88.9358C9.37233 88.977 9.43493 89 9.5 89C9.56507 89 9.62767 88.977 9.675 88.9358C9.77 88.8481 12 86.771 12 85.3079C12 85.0048 11.9353 84.7047 11.8097 84.4247C11.6841 84.1447 11.4999 83.8903 11.2678 83.676C11.0356 83.4617 10.76 83.2917 10.4567 83.1757C10.1534 83.0597 9.8283 83 9.5 83ZM9.5 86.1156C9.32694 86.1156 9.15777 86.0682 9.01388 85.9795C8.86998 85.8907 8.75783 85.7646 8.69161 85.617C8.62538 85.4694 8.60805 85.307 8.64181 85.1503C8.67558 84.9936 8.75891 84.8497 8.88128 84.7367C9.00365 84.6237 9.15956 84.5468 9.3293 84.5156C9.49903 84.4845 9.67496 84.5005 9.83485 84.5616C9.99473 84.6227 10.1314 84.7263 10.2275 84.8591C10.3237 84.9919 10.375 85.1481 10.375 85.3079C10.375 85.5221 10.2828 85.7275 10.1187 85.879C9.95462 86.0305 9.73206 86.1156 9.5 86.1156Z" fill="#111111"/>
<path d="M2.25 84.915C2.11739 84.915 1.99021 84.9677 1.89645 85.0614C1.80268 85.1552 1.75 85.2824 1.75 85.415V86.165C1.75 86.2976 1.80268 86.4248 1.89645 86.5186C1.99021 86.6123 2.11739 86.665 2.25 86.665C2.38261 86.665 2.50979 86.6123 2.60355 86.5186C2.69732 86.4248 2.75 86.2976 2.75 86.165V85.415C2.75 85.2824 2.69732 85.1552 2.60355 85.0614C2.50979 84.9677 2.38261 84.915 2.25 84.915Z" fill="#111111"/>
<path d="M2.25 87.415C2.11739 87.415 1.99021 87.4677 1.89645 87.5614C1.80268 87.6552 1.75 87.7824 1.75 87.915V88.665C1.75 88.7976 1.80268 88.9248 1.89645 89.0186C1.99021 89.1123 2.11739 89.165 2.25 89.165C2.38261 89.165 2.50979 89.1123 2.60355 89.0186C2.69732 88.9248 2.75 88.7976 2.75 88.665V87.915C2.75 87.7824 2.69732 87.6552 2.60355 87.5614C2.50979 87.4677 2.38261 87.415 2.25 87.415Z" fill="#111111"/>
<path d="M4.75 88.165H4C3.86739 88.165 3.74021 88.2177 3.64645 88.3114C3.55268 88.4052 3.5 88.5324 3.5 88.665C3.5 88.7976 3.55268 88.9248 3.64645 89.0186C3.74021 89.1123 3.86739 89.165 4 89.165H4.75C4.88261 89.165 5.00979 89.1123 5.10355 89.0186C5.19732 88.9248 5.25 88.7976 5.25 88.665C5.25 88.5324 5.19732 88.4052 5.10355 88.3114C5.00979 88.2177 4.88261 88.165 4.75 88.165Z" fill="#111111"/>
<path d="M7.25 88.165H6.5C6.36739 88.165 6.24021 88.2177 6.14645 88.3114C6.05268 88.4052 6 88.5324 6 88.665C6 88.7976 6.05268 88.9248 6.14645 89.0186C6.24021 89.1123 6.36739 89.165 6.5 89.165H7.25C7.38261 89.165 7.50979 89.1123 7.60355 89.0186C7.69732 88.9248 7.75 88.7976 7.75 88.665C7.75 88.5324 7.69732 88.4052 7.60355 88.3114C7.50979 88.2177 7.38261 88.165 7.25 88.165Z" fill="#111111"/>
</g>
</g>
<g id="Size=16px, Filled=true">
<g id="Vector_9">
<path d="M27.3333 84C27.43 84.0005 27.523 83.9661 27.5926 83.9039C27.7037 83.7736 30.6667 81.0292 30.6667 79.0875C30.6667 78.2686 30.3155 77.4833 29.6904 76.9043C29.0652 76.3253 28.2174 76 27.3333 76C26.4493 76 25.6014 76.3253 24.9763 76.9043C24.3512 77.4833 24 78.2686 24 79.0875C24 81.0292 26.963 83.7736 27.0741 83.9039C27.1437 83.9661 27.2367 84.0005 27.3333 84ZM25.9926 79.0875C25.9911 78.8714 26.059 78.6598 26.1875 78.4795C26.316 78.2992 26.4994 78.1584 26.7145 78.0747C26.9296 77.9911 27.1666 77.9685 27.3956 78.0098C27.6245 78.0512 27.8351 78.1545 28.0005 78.3068C28.166 78.4591 28.2789 78.6535 28.3249 78.8653C28.371 79.0771 28.3481 79.2967 28.2592 79.4965C28.1703 79.6962 28.0193 79.867 27.8255 79.9872C27.6316 80.1074 27.4036 80.1715 27.1704 80.1715C26.8593 80.1715 26.5608 80.0575 26.3402 79.8544C26.1195 79.6513 25.9945 79.3756 25.9926 79.0875Z" fill="#111111"/>
<path d="M36.6667 82.6667C35.7826 82.6667 34.9348 82.9909 34.3096 83.5679C33.6845 84.145 33.3333 84.9277 33.3333 85.7438C33.3333 87.6947 36.3067 90.4642 36.4333 90.5811C36.4964 90.636 36.5799 90.6667 36.6667 90.6667C36.7534 90.6667 36.8369 90.636 36.9 90.5811C37.0267 90.4642 40 87.6947 40 85.7438C40 85.3397 39.9138 84.9396 39.7463 84.5662C39.5788 84.1929 39.3332 83.8537 39.0237 83.5679C38.7142 83.2822 38.3467 83.0555 37.9423 82.9009C37.5379 82.7463 37.1044 82.6667 36.6667 82.6667ZM36.6667 86.8208C36.4359 86.8208 36.2104 86.7576 36.0185 86.6393C35.8266 86.521 35.6771 86.3528 35.5888 86.156C35.5005 85.9592 35.4774 85.7426 35.5224 85.5337C35.5674 85.3248 35.6785 85.1329 35.8417 84.9823C36.0049 84.8316 36.2128 84.7291 36.4391 84.6875C36.6654 84.6459 36.9 84.6673 37.1131 84.7488C37.3263 84.8303 37.5085 84.9684 37.6367 85.1455C37.7649 85.3226 37.8333 85.5308 37.8333 85.7438C37.8333 86.0295 37.7104 86.3034 37.4916 86.5054C37.2728 86.7073 36.9761 86.8208 36.6667 86.8208Z" fill="#111111"/>
<path d="M27 85.22C26.8232 85.22 26.6536 85.2902 26.5286 85.4153C26.4036 85.5403 26.3333 85.7099 26.3333 85.8867V86.8867C26.3333 87.0635 26.4036 87.233 26.5286 87.3581C26.6536 87.4831 26.8232 87.5533 27 87.5533C27.1768 87.5533 27.3464 87.4831 27.4714 87.3581C27.5964 87.233 27.6667 87.0635 27.6667 86.8867V85.8867C27.6667 85.7099 27.5964 85.5403 27.4714 85.4153C27.3464 85.2902 27.1768 85.22 27 85.22Z" fill="#111111"/>
<path d="M27 88.5533C26.8232 88.5533 26.6536 88.6236 26.5286 88.7486C26.4036 88.8736 26.3333 89.0432 26.3333 89.22V90.22C26.3333 90.3968 26.4036 90.5664 26.5286 90.6914C26.6536 90.8164 26.8232 90.8867 27 90.8867C27.1768 90.8867 27.3464 90.8164 27.4714 90.6914C27.5964 90.5664 27.6667 90.3968 27.6667 90.22V89.22C27.6667 89.0432 27.5964 88.8736 27.4714 88.7486C27.3464 88.6236 27.1768 88.5533 27 88.5533Z" fill="#111111"/>
<path d="M30.3333 89.5533H29.3333C29.1565 89.5533 28.987 89.6236 28.8619 89.7486C28.7369 89.8736 28.6667 90.0432 28.6667 90.22C28.6667 90.3968 28.7369 90.5664 28.8619 90.6914C28.987 90.8164 29.1565 90.8867 29.3333 90.8867H30.3333C30.5101 90.8867 30.6797 90.8164 30.8047 90.6914C30.9298 90.5664 31 90.3968 31 90.22C31 90.0432 30.9298 89.8736 30.8047 89.7486C30.6797 89.6236 30.5101 89.5533 30.3333 89.5533Z" fill="#111111"/>
<path d="M33.6667 89.5533H32.6667C32.4899 89.5533 32.3203 89.6236 32.1953 89.7486C32.0702 89.8736 32 90.0432 32 90.22C32 90.3968 32.0702 90.5664 32.1953 90.6914C32.3203 90.8164 32.4899 90.8867 32.6667 90.8867H33.6667C33.8435 90.8867 34.013 90.8164 34.1381 90.6914C34.2631 90.5664 34.3333 90.3968 34.3333 90.22C34.3333 90.0432 34.2631 89.8736 34.1381 89.7486C34.013 89.6236 33.8435 89.5533 33.6667 89.5533Z" fill="#111111"/>
</g>
</g>
<g id="Size=20px, Filled=true">
<g id="Vector_10">
<path d="M56.1667 84C56.2875 84.0007 56.4038 83.9576 56.4907 83.8799C56.6296 83.717 60.3333 80.2864 60.3333 77.8593C60.3333 76.8358 59.8943 75.8541 59.1129 75.1304C58.3315 74.4066 57.2717 74 56.1667 74C55.0616 74 54.0018 74.4066 53.2204 75.1304C52.439 75.8541 52 76.8358 52 77.8593C52 80.2864 55.7037 83.717 55.8426 83.8799C55.9296 83.9576 56.0459 84.0007 56.1667 84ZM54.4907 77.8593C54.4889 77.5893 54.5737 77.3248 54.7343 77.0994C54.895 76.8741 55.1243 76.6979 55.3931 76.5934C55.662 76.4889 55.9583 76.4607 56.2445 76.5123C56.5307 76.5639 56.7938 76.6931 57.0007 76.8835C57.2075 77.0739 57.3486 77.3168 57.4062 77.5816C57.4637 77.8463 57.4351 78.1209 57.324 78.3706C57.2128 78.6203 57.0241 78.8338 56.7818 78.984C56.5395 79.1342 56.2545 79.2144 55.963 79.2144C55.5741 79.2144 55.201 79.0719 54.9252 78.818C54.6494 78.5642 54.4932 78.2195 54.4907 77.8593Z" fill="#111111"/>
<path d="M67.8333 82.3333C66.7283 82.3333 65.6685 82.7386 64.8871 83.4599C64.1057 84.1813 63.6667 85.1596 63.6667 86.1798C63.6667 88.6184 67.3833 92.0802 67.5417 92.2264C67.6205 92.2951 67.7249 92.3333 67.8333 92.3333C67.9418 92.3333 68.0461 92.2951 68.125 92.2264C68.2833 92.0802 72 88.6184 72 86.1798C72 85.6746 71.8922 85.1745 71.6828 84.7078C71.4734 84.2411 71.1665 83.8171 70.7796 83.4599C70.3927 83.1028 69.9334 82.8194 69.4278 82.6261C68.9223 82.4328 68.3805 82.3333 67.8333 82.3333ZM67.8333 87.526C67.5449 87.526 67.2629 87.4471 67.0231 87.2991C66.7833 87.1512 66.5964 86.941 66.486 86.695C66.3756 86.449 66.3468 86.1783 66.403 85.9171C66.4593 85.656 66.5982 85.4161 66.8021 85.2278C67.0061 85.0395 67.2659 84.9113 67.5488 84.8594C67.8317 84.8074 68.1249 84.8341 68.3914 84.936C68.6579 85.0379 68.8856 85.2104 69.0459 85.4318C69.2061 85.6532 69.2917 85.9135 69.2917 86.1798C69.2917 86.5368 69.138 86.8792 68.8645 87.1317C68.591 87.3842 68.2201 87.526 67.8333 87.526Z" fill="#111111"/>
<path d="M55.75 85.525C55.529 85.525 55.317 85.6128 55.1607 85.7691C55.0045 85.9254 54.9167 86.1373 54.9167 86.3583V87.6083C54.9167 87.8293 55.0045 88.0413 55.1607 88.1976C55.317 88.3539 55.529 88.4417 55.75 88.4417C55.971 88.4417 56.183 88.3539 56.3393 88.1976C56.4955 88.0413 56.5833 87.8293 56.5833 87.6083V86.3583C56.5833 86.1373 56.4955 85.9254 56.3393 85.7691C56.183 85.6128 55.971 85.525 55.75 85.525Z" fill="#111111"/>
<path d="M55.75 89.6917C55.529 89.6917 55.317 89.7795 55.1607 89.9357C55.0045 90.092 54.9167 90.304 54.9167 90.525V91.775C54.9167 91.996 55.0045 92.208 55.1607 92.3643C55.317 92.5205 55.529 92.6083 55.75 92.6083C55.971 92.6083 56.183 92.5205 56.3393 92.3643C56.4955 92.208 56.5833 91.996 56.5833 91.775V90.525C56.5833 90.304 56.4955 90.092 56.3393 89.9357C56.183 89.7795 55.971 89.6917 55.75 89.6917Z" fill="#111111"/>
<path d="M59.9167 90.9417H58.6667C58.4457 90.9417 58.2337 91.0295 58.0774 91.1857C57.9211 91.342 57.8333 91.554 57.8333 91.775C57.8333 91.996 57.9211 92.208 58.0774 92.3643C58.2337 92.5205 58.4457 92.6083 58.6667 92.6083H59.9167C60.1377 92.6083 60.3496 92.5205 60.5059 92.3643C60.6622 92.208 60.75 91.996 60.75 91.775C60.75 91.554 60.6622 91.342 60.5059 91.1857C60.3496 91.0295 60.1377 90.9417 59.9167 90.9417Z" fill="#111111"/>
<path d="M64.0833 90.9417H62.8333C62.6123 90.9417 62.4004 91.0295 62.2441 91.1857C62.0878 91.342 62 91.554 62 91.775C62 91.996 62.0878 92.208 62.2441 92.3643C62.4004 92.5205 62.6123 92.6083 62.8333 92.6083H64.0833C64.3043 92.6083 64.5163 92.5205 64.6726 92.3643C64.8289 92.208 64.9167 91.996 64.9167 91.775C64.9167 91.554 64.8289 91.342 64.6726 91.1857C64.5163 91.0295 64.3043 90.9417 64.0833 90.9417Z" fill="#111111"/>
</g>
</g>
<g id="Size=24px, Filled=true">
<g id="Vector_11">
<path d="M89 84C89.145 84.0008 89.2845 83.9491 89.3889 83.8559C89.5556 83.6604 94 79.5437 94 76.6312C94 75.4029 93.4732 74.225 92.5355 73.3565C91.5979 72.4879 90.3261 72 89 72C87.6739 72 86.4021 72.4879 85.4645 73.3565C84.5268 74.225 84 75.4029 84 76.6312C84 79.5437 88.4444 83.6604 88.6111 83.8559C88.7155 83.9491 88.855 84.0008 89 84ZM86.9889 76.6312C86.9867 76.3071 87.0884 75.9898 87.2812 75.7193C87.474 75.4489 87.7491 75.2375 88.0717 75.1121C88.3944 74.9867 88.7499 74.9528 89.0934 75.0148C89.4368 75.0767 89.7526 75.2318 90.0008 75.4602C90.249 75.6886 90.4183 75.9802 90.4874 76.2979C90.5565 76.6156 90.5222 76.9451 90.3888 77.2447C90.2554 77.5443 90.029 77.8005 89.7382 77.9808C89.4474 78.161 89.1054 78.2573 88.7556 78.2573C88.2889 78.2573 87.8412 78.0863 87.5102 77.7816C87.1792 77.477 86.9918 77.0634 86.9889 76.6312Z" fill="#111111"/>
<path d="M103 82C101.674 82 100.402 82.4863 99.4645 83.3519C98.5268 84.2175 98 85.3916 98 86.6157C98 89.5421 102.46 93.6962 102.65 93.8716C102.745 93.9541 102.87 94 103 94C103.13 94 103.255 93.9541 103.35 93.8716C103.54 93.6962 108 89.5421 108 86.6157C108 86.0096 107.871 85.4094 107.619 84.8494C107.368 84.2894 107 83.7805 106.536 83.3519C106.071 82.9233 105.52 82.5833 104.913 82.3514C104.307 82.1194 103.657 82 103 82ZM103 88.2312C102.654 88.2312 102.316 88.1365 102.028 87.959C101.74 87.7814 101.516 87.5291 101.383 87.2339C101.251 86.9388 101.216 86.6139 101.284 86.3006C101.351 85.9872 101.518 85.6993 101.763 85.4734C102.007 85.2475 102.319 85.0936 102.659 85.0313C102.998 84.9689 103.35 85.0009 103.67 85.1232C103.989 85.2455 104.263 85.4525 104.455 85.7182C104.647 85.9839 104.75 86.2962 104.75 86.6157C104.75 87.0442 104.566 87.4551 104.237 87.7581C103.909 88.061 103.464 88.2312 103 88.2312Z" fill="#111111"/>
<path d="M88.5 85.83C88.2348 85.83 87.9804 85.9354 87.7929 86.1229C87.6054 86.3104 87.5 86.5648 87.5 86.83V88.33C87.5 88.5952 87.6054 88.8496 87.7929 89.0371C87.9804 89.2246 88.2348 89.33 88.5 89.33C88.7652 89.33 89.0196 89.2246 89.2071 89.0371C89.3946 88.8496 89.5 88.5952 89.5 88.33V86.83C89.5 86.5648 89.3946 86.3104 89.2071 86.1229C89.0196 85.9354 88.7652 85.83 88.5 85.83Z" fill="#111111"/>
<path d="M88.5 90.83C88.2348 90.83 87.9804 90.9354 87.7929 91.1229C87.6054 91.3104 87.5 91.5648 87.5 91.83V93.33C87.5 93.5952 87.6054 93.8496 87.7929 94.0371C87.9804 94.2246 88.2348 94.33 88.5 94.33C88.7652 94.33 89.0196 94.2246 89.2071 94.0371C89.3946 93.8496 89.5 93.5952 89.5 93.33V91.83C89.5 91.5648 89.3946 91.3104 89.2071 91.1229C89.0196 90.9354 88.7652 90.83 88.5 90.83Z" fill="#111111"/>
<path d="M93.5 92.33H92C91.7348 92.33 91.4804 92.4354 91.2929 92.6229C91.1054 92.8104 91 93.0648 91 93.33C91 93.5952 91.1054 93.8496 91.2929 94.0371C91.4804 94.2246 91.7348 94.33 92 94.33H93.5C93.7652 94.33 94.0196 94.2246 94.2071 94.0371C94.3946 93.8496 94.5 93.5952 94.5 93.33C94.5 93.0648 94.3946 92.8104 94.2071 92.6229C94.0196 92.4354 93.7652 92.33 93.5 92.33Z" fill="#111111"/>
<path d="M98.5 92.33H97C96.7348 92.33 96.4804 92.4354 96.2929 92.6229C96.1054 92.8104 96 93.0648 96 93.33C96 93.5952 96.1054 93.8496 96.2929 94.0371C96.4804 94.2246 96.7348 94.33 97 94.33H98.5C98.7652 94.33 99.0196 94.2246 99.2071 94.0371C99.3946 93.8496 99.5 93.5952 99.5 93.33C99.5 93.0648 99.3946 92.8104 99.2071 92.6229C99.0196 92.4354 98.7652 92.33 98.5 92.33Z" fill="#111111"/>
</g>
</g>
<g id="Size=32px, Filled=true">
<g id="Vector_12">
<path d="M126.667 84C126.86 84.0011 127.046 83.9321 127.185 83.8079C127.407 83.5472 133.333 78.0583 133.333 74.175C133.333 72.5373 132.631 70.9666 131.381 69.8086C130.13 68.6506 128.435 68 126.667 68C124.899 68 123.203 68.6506 121.953 69.8086C120.702 70.9666 120 72.5373 120 74.175C120 78.0583 125.926 83.5472 126.148 83.8079C126.287 83.9321 126.473 84.0011 126.667 84ZM123.985 74.175C123.982 73.7429 124.118 73.3197 124.375 72.9591C124.632 72.5985 124.999 72.3167 125.429 72.1495C125.859 71.9822 126.333 71.937 126.791 72.0197C127.249 72.1023 127.67 72.309 128.001 72.6136C128.332 72.9182 128.558 73.3069 128.65 73.7305C128.742 74.1541 128.696 74.5935 128.518 74.993C128.341 75.3924 128.039 75.734 127.651 75.9744C127.263 76.2147 126.807 76.343 126.341 76.343C125.719 76.3431 125.122 76.1151 124.68 75.7089C124.239 75.3027 123.989 74.7512 123.985 74.175Z" fill="#111111"/>
<path d="M145.333 81.3333C143.565 81.3333 141.87 81.9817 140.619 83.1359C139.369 84.29 138.667 85.8554 138.667 87.4876C138.667 91.3894 144.613 96.9283 144.867 97.1622C144.993 97.2721 145.16 97.3333 145.333 97.3333C145.507 97.3333 145.674 97.2721 145.8 97.1622C146.053 96.9283 152 91.3894 152 87.4876C152 86.6794 151.828 85.8792 151.493 85.1325C151.158 84.3858 150.666 83.7074 150.047 83.1359C149.428 82.5644 148.693 82.1111 147.885 81.8018C147.076 81.4925 146.209 81.3333 145.333 81.3333ZM145.333 89.6416C144.872 89.6416 144.421 89.5153 144.037 89.2786C143.653 89.0419 143.354 88.7055 143.178 88.3119C143.001 87.9183 142.955 87.4852 143.045 87.0674C143.135 86.6496 143.357 86.2658 143.683 85.9645C144.01 85.6633 144.426 85.4581 144.878 85.375C145.331 85.2919 145.8 85.3346 146.226 85.4976C146.653 85.6606 147.017 85.9367 147.273 86.2909C147.53 86.6451 147.667 87.0616 147.667 87.4876C147.667 88.0589 147.421 88.6068 146.983 89.0107C146.546 89.4147 145.952 89.6416 145.333 89.6416Z" fill="#111111"/>
<path d="M126 86.44C125.646 86.44 125.307 86.5805 125.057 86.8305C124.807 87.0806 124.667 87.4197 124.667 87.7733V89.7733C124.667 90.127 124.807 90.4661 125.057 90.7161C125.307 90.9662 125.646 91.1067 126 91.1067C126.354 91.1067 126.693 90.9662 126.943 90.7161C127.193 90.4661 127.333 90.127 127.333 89.7733V87.7733C127.333 87.4197 127.193 87.0806 126.943 86.8305C126.693 86.5805 126.354 86.44 126 86.44Z" fill="#111111"/>
<path d="M126 93.1067C125.646 93.1067 125.307 93.2471 125.057 93.4972C124.807 93.7472 124.667 94.0864 124.667 94.44V96.44C124.667 96.7936 124.807 97.1328 125.057 97.3828C125.307 97.6329 125.646 97.7733 126 97.7733C126.354 97.7733 126.693 97.6329 126.943 97.3828C127.193 97.1328 127.333 96.7936 127.333 96.44V94.44C127.333 94.0864 127.193 93.7472 126.943 93.4972C126.693 93.2471 126.354 93.1067 126 93.1067Z" fill="#111111"/>
<path d="M132.667 95.1067H130.667C130.313 95.1067 129.974 95.2471 129.724 95.4972C129.474 95.7472 129.333 96.0864 129.333 96.44C129.333 96.7936 129.474 97.1328 129.724 97.3828C129.974 97.6329 130.313 97.7733 130.667 97.7733H132.667C133.02 97.7733 133.359 97.6329 133.609 97.3828C133.86 97.1328 134 96.7936 134 96.44C134 96.0864 133.86 95.7472 133.609 95.4972C133.359 95.2471 133.02 95.1067 132.667 95.1067Z" fill="#111111"/>
<path d="M139.333 95.1067H137.333C136.98 95.1067 136.641 95.2471 136.391 95.4972C136.14 95.7472 136 96.0864 136 96.44C136 96.7936 136.14 97.1328 136.391 97.3828C136.641 97.6329 136.98 97.7733 137.333 97.7733H139.333C139.687 97.7733 140.026 97.6329 140.276 97.3828C140.526 97.1328 140.667 96.7936 140.667 96.44C140.667 96.0864 140.526 95.7472 140.276 95.4972C140.026 95.2471 139.687 95.1067 139.333 95.1067Z" fill="#111111"/>
</g>
</g>
<g id="Size=40px, Filled=true">
<g id="Vector_13">
<path d="M172.333 84C172.575 84.0013 172.808 83.9152 172.981 83.7598C173.259 83.4339 180.667 76.5729 180.667 71.7187C180.667 69.6716 179.789 67.7083 178.226 66.2608C176.663 64.8132 174.543 64 172.333 64C170.123 64 168.004 64.8132 166.441 66.2608C164.878 67.7083 164 69.6716 164 71.7187C164 76.5729 171.407 83.4339 171.685 83.7598C171.859 83.9152 172.092 84.0013 172.333 84ZM168.981 71.7187C168.978 71.1786 169.147 70.6496 169.469 70.1989C169.79 69.7481 170.249 69.3959 170.786 69.1868C171.324 68.9778 171.917 68.9213 172.489 69.0246C173.061 69.1279 173.588 69.3863 174.001 69.767C174.415 70.1477 174.697 70.6336 174.812 71.1631C174.927 71.6926 174.87 72.2419 174.648 72.7412C174.426 73.2406 174.048 73.6675 173.564 73.968C173.079 74.2684 172.509 74.4288 171.926 74.4288C171.148 74.4288 170.402 74.1438 169.85 73.6361C169.299 73.1283 168.986 72.439 168.981 71.7187Z" fill="#111111"/>
<path d="M195.667 80.6667C193.457 80.6667 191.337 81.4772 189.774 82.9199C188.211 84.3625 187.333 86.3193 187.333 88.3595C187.333 93.2368 194.767 100.16 195.083 100.453C195.241 100.59 195.45 100.667 195.667 100.667C195.884 100.667 196.092 100.59 196.25 100.453C196.567 100.16 204 93.2368 204 88.3595C204 87.3493 203.784 86.3489 203.366 85.4156C202.947 84.4823 202.333 83.6342 201.559 82.9199C200.785 82.2055 199.867 81.6389 198.856 81.2523C197.845 80.8657 196.761 80.6667 195.667 80.6667ZM195.667 91.052C195.09 91.052 194.526 90.8941 194.046 90.5983C193.567 90.3024 193.193 89.8819 192.972 89.3899C192.751 88.8979 192.694 88.3565 192.806 87.8343C192.919 87.312 193.196 86.8322 193.604 86.4556C194.012 86.0791 194.532 85.8227 195.098 85.7188C195.663 85.6149 196.25 85.6682 196.783 85.872C197.316 86.0758 197.771 86.4209 198.092 86.8637C198.412 87.3064 198.583 87.827 198.583 88.3595C198.583 89.0736 198.276 89.7585 197.729 90.2634C197.182 90.7684 196.44 91.052 195.667 91.052Z" fill="#111111"/>
<path d="M171.5 87.05C171.058 87.05 170.634 87.2256 170.321 87.5382C170.009 87.8507 169.833 88.2746 169.833 88.7167V91.2167C169.833 91.6587 170.009 92.0826 170.321 92.3952C170.634 92.7077 171.058 92.8833 171.5 92.8833C171.942 92.8833 172.366 92.7077 172.679 92.3952C172.991 92.0826 173.167 91.6587 173.167 91.2167V88.7167C173.167 88.2746 172.991 87.8507 172.679 87.5382C172.366 87.2256 171.942 87.05 171.5 87.05Z" fill="#111111"/>
<path d="M171.5 95.3833C171.058 95.3833 170.634 95.5589 170.321 95.8715C170.009 96.184 169.833 96.608 169.833 97.05V99.55C169.833 99.992 170.009 100.416 170.321 100.729C170.634 101.041 171.058 101.217 171.5 101.217C171.942 101.217 172.366 101.041 172.679 100.729C172.991 100.416 173.167 99.992 173.167 99.55V97.05C173.167 96.608 172.991 96.184 172.679 95.8715C172.366 95.5589 171.942 95.3833 171.5 95.3833Z" fill="#111111"/>
<path d="M179.833 97.8833H177.333C176.891 97.8833 176.467 98.0589 176.155 98.3715C175.842 98.684 175.667 99.108 175.667 99.55C175.667 99.992 175.842 100.416 176.155 100.729C176.467 101.041 176.891 101.217 177.333 101.217H179.833C180.275 101.217 180.699 101.041 181.012 100.729C181.324 100.416 181.5 99.992 181.5 99.55C181.5 99.108 181.324 98.684 181.012 98.3715C180.699 98.0589 180.275 97.8833 179.833 97.8833Z" fill="#111111"/>
<path d="M188.167 97.8833H185.667C185.225 97.8833 184.801 98.0589 184.488 98.3715C184.176 98.684 184 99.108 184 99.55C184 99.992 184.176 100.416 184.488 100.729C184.801 101.041 185.225 101.217 185.667 101.217H188.167C188.609 101.217 189.033 101.041 189.345 100.729C189.658 100.416 189.833 99.992 189.833 99.55C189.833 99.108 189.658 98.684 189.345 98.3715C189.033 98.0589 188.609 97.8833 188.167 97.8833Z" fill="#111111"/>
</g>
</g>
<g id="Size=48px, Filled=true">
<g id="Vector_14">
<path d="M226 84C226.29 84.0016 226.569 83.8982 226.778 83.7118C227.111 83.3207 236 75.0875 236 69.2624C236 66.8059 234.946 64.4499 233.071 62.7129C231.196 60.9759 228.652 60 226 60C223.348 60 220.804 60.9759 218.929 62.7129C217.054 64.4499 216 66.8059 216 69.2624C216 75.0875 224.889 83.3207 225.222 83.7118C225.431 83.8982 225.71 84.0016 226 84ZM221.978 69.2624C221.973 68.6143 222.177 67.9795 222.562 67.4386C222.948 66.8977 223.498 66.4751 224.143 66.2242C224.789 65.9733 225.5 65.9056 226.187 66.0295C226.874 66.1535 227.505 66.4635 228.002 66.9204C228.498 67.3773 228.837 67.9604 228.975 68.5958C229.113 69.2312 229.044 69.8902 228.778 70.4895C228.511 71.0887 228.058 71.601 227.476 71.9616C226.895 72.3221 226.211 72.5146 225.511 72.5146C224.578 72.5146 223.682 72.1726 223.02 71.5633C222.358 70.954 221.984 70.1268 221.978 69.2624Z" fill="#111111"/>
<path d="M254 80C251.348 80 248.804 80.9726 246.929 82.7038C245.054 84.4351 244 86.7831 244 89.2314C244 95.0842 252.92 103.392 253.3 103.743C253.489 103.908 253.74 104 254 104C254.26 104 254.511 103.908 254.7 103.743C255.08 103.392 264 95.0842 264 89.2314C264 88.0191 263.741 86.8187 263.239 85.6987C262.736 84.5787 262 83.561 261.071 82.7038C260.142 81.8466 259.04 81.1666 257.827 80.7027C256.614 80.2388 255.313 80 254 80ZM254 92.4624C253.308 92.4624 252.631 92.2729 252.056 91.9179C251.48 91.5629 251.031 91.0583 250.766 90.4679C250.502 89.8775 250.432 89.2279 250.567 88.6011C250.702 87.9743 251.036 87.3986 251.525 86.9468C252.015 86.4949 252.638 86.1872 253.317 86.0625C253.996 85.9379 254.7 86.0018 255.339 86.2464C255.979 86.4909 256.526 86.9051 256.91 87.4364C257.295 87.9677 257.5 88.5924 257.5 89.2314C257.5 90.0884 257.131 90.9102 256.475 91.5161C255.818 92.122 254.928 92.4624 254 92.4624Z" fill="#111111"/>
<path d="M225 87.66C224.47 87.66 223.961 87.8707 223.586 88.2458C223.211 88.6209 223 89.1296 223 89.66V92.66C223 93.1904 223.211 93.6991 223.586 94.0742C223.961 94.4493 224.47 94.66 225 94.66C225.53 94.66 226.039 94.4493 226.414 94.0742C226.789 93.6991 227 93.1904 227 92.66V89.66C227 89.1296 226.789 88.6209 226.414 88.2458C226.039 87.8707 225.53 87.66 225 87.66Z" fill="#111111"/>
<path d="M225 97.66C224.47 97.66 223.961 97.8707 223.586 98.2458C223.211 98.6209 223 99.1296 223 99.66V102.66C223 103.19 223.211 103.699 223.586 104.074C223.961 104.449 224.47 104.66 225 104.66C225.53 104.66 226.039 104.449 226.414 104.074C226.789 103.699 227 103.19 227 102.66V99.66C227 99.1296 226.789 98.6209 226.414 98.2458C226.039 97.8707 225.53 97.66 225 97.66Z" fill="#111111"/>
<path d="M235 100.66H232C231.47 100.66 230.961 100.871 230.586 101.246C230.211 101.621 230 102.13 230 102.66C230 103.19 230.211 103.699 230.586 104.074C230.961 104.449 231.47 104.66 232 104.66H235C235.53 104.66 236.039 104.449 236.414 104.074C236.789 103.699 237 103.19 237 102.66C237 102.13 236.789 101.621 236.414 101.246C236.039 100.871 235.53 100.66 235 100.66Z" fill="#111111"/>
<path d="M245 100.66H242C241.47 100.66 240.961 100.871 240.586 101.246C240.211 101.621 240 102.13 240 102.66C240 103.19 240.211 103.699 240.586 104.074C240.961 104.449 241.47 104.66 242 104.66H245C245.53 104.66 246.039 104.449 246.414 104.074C246.789 103.699 247 103.19 247 102.66C247 102.13 246.789 101.621 246.414 101.246C246.039 100.871 245.53 100.66 245 100.66Z" fill="#111111"/>
</g>
</g>
</g>
</g>
<defs>
<clipPath id="clip0_1126_884">
<rect width="264" height="108" rx="5" fill="white"/>
</clipPath>
<clipPath id="clip1_1126_884">
<rect width="12" height="12" fill="white" transform="translate(0 78)"/>
</clipPath>
</defs>
</svg>
