<svg width="264" height="108" viewBox="0 0 264 108" fill="none" xmlns="http://www.w3.org/2000/svg">
<g id="Gas pump">
<g id="Size=12px, Filled=false">
<path id="Vector" d="M0.5 22.9H7.83333M7.83333 20.7H8.56667C8.97168 20.7 9.3 21.0283 9.3 21.4333V28.7667C9.3 29.1717 9.62832 29.5 10.0333 29.5C10.4383 29.5 10.7667 29.1717 10.7667 28.7667V24.3667M10.7667 24.3667C10.7666 23.8882 10.9081 23.4204 11.1734 23.0222L11.5 22.5333M10.7667 24.3667H11.5M1.23333 29.5H7.1C7.50501 29.5 7.83333 29.1717 7.83333 28.7667V19.2333C7.83333 18.8283 7.50501 18.5 7.1 18.5H1.23333C0.828325 18.5 0.5 18.8283 0.5 19.2333V28.7667C0.5 29.1717 0.828325 29.5 1.23333 29.5ZM6.36667 20.7C6.36667 20.295 6.03834 19.9667 5.63333 19.9667H2.7C2.29499 19.9667 1.96667 20.295 1.96667 20.7C1.96667 21.105 2.29499 21.4333 2.7 21.4333H5.63333C6.03834 21.4333 6.36667 21.105 6.36667 20.7Z" stroke="#111111" stroke-width="0.75" stroke-linecap="round" stroke-linejoin="round"/>
</g>
<g id="Size=16px, Filled=false">
<path id="Vector_2" d="M24.5 22.5H34.5M34.5 19.5H35.5C36.0523 19.5 36.5 19.9477 36.5 20.5V30.5C36.5 31.0523 36.9477 31.5 37.5 31.5C38.0523 31.5 38.5 31.0523 38.5 30.5V24.5M38.5 24.5C38.4999 23.8475 38.6929 23.2097 39.0547 22.6667L39.5 22M38.5 24.5H39.5M25.5 31.5H33.5C34.0523 31.5 34.5 31.0523 34.5 30.5V17.5C34.5 16.9477 34.0523 16.5 33.5 16.5H25.5C24.9477 16.5 24.5 16.9477 24.5 17.5V30.5C24.5 31.0523 24.9477 31.5 25.5 31.5ZM32.5 19.5C32.5 18.9477 32.0523 18.5 31.5 18.5H27.5C26.9477 18.5 26.5 18.9477 26.5 19.5C26.5 20.0523 26.9477 20.5 27.5 20.5H31.5C32.0523 20.5 32.5 20.0523 32.5 19.5Z" stroke="#111111" stroke-linecap="round" stroke-linejoin="round"/>
</g>
<g id="Size=20px, Filled=false">
<path id="Vector_3" d="M52.6499 22.15H65.1499M65.1499 18.4H66.3999C67.0903 18.4 67.6499 18.9597 67.6499 19.65V32.15C67.6499 32.8404 68.2095 33.4 68.8999 33.4C69.5903 33.4 70.1499 32.8404 70.1499 32.15V24.65M70.1499 24.65C70.1498 23.8345 70.3911 23.0371 70.8432 22.3584L71.3999 21.525M70.1499 24.65H71.3999M53.8999 33.4H63.8999C64.5903 33.4 65.1499 32.8404 65.1499 32.15V15.9C65.1499 15.2097 64.5903 14.65 63.8999 14.65H53.8999C53.2095 14.65 52.6499 15.2097 52.6499 15.9V32.15C52.6499 32.8404 53.2095 33.4 53.8999 33.4ZM62.6499 18.4C62.6499 17.7097 62.0903 17.15 61.3999 17.15H56.3999C55.7095 17.15 55.1499 17.7097 55.1499 18.4C55.1499 19.0904 55.7095 19.65 56.3999 19.65H61.3999C62.0903 19.65 62.6499 19.0904 62.6499 18.4Z" stroke="#111111" stroke-width="1.25" stroke-linecap="round" stroke-linejoin="round"/>
</g>
<g id="Size=24px, Filled=false">
<path id="Vector_4" d="M84.5 20.5H97.8333M99.5 16.5H101.1C101.984 16.5 102.7 17.1716 102.7 18V33C102.7 33.8284 103.416 34.5 104.3 34.5C105.184 34.5 105.9 33.8284 105.9 33V24C105.9 23.0213 106.209 22.0645 106.787 21.25L107.5 20.25M106.5 24.5H107.5M85.5 35.5H98.5C99.0523 35.5 99.5 35.0523 99.5 34.5V13.5C99.5 12.9477 99.0523 12.5 98.5 12.5H85.5C84.9477 12.5 84.5 12.9477 84.5 13.5V34.5C84.5 35.0523 84.9477 35.5 85.5 35.5ZM95.1667 16.5C95.1667 15.7636 94.5697 15.1667 93.8333 15.1667H88.5C87.7636 15.1667 87.1667 15.7636 87.1667 16.5C87.1667 17.2364 87.7636 17.8333 88.5 17.8333H93.8333C94.5697 17.8333 95.1667 17.2364 95.1667 16.5Z" stroke="#111111" stroke-width="1.5" stroke-linecap="round" stroke-linejoin="round"/>
</g>
<g id="Size=32px, Filled=false">
<path id="Vector_5" d="M121 21H141M141 15H143C144.105 15 145 15.8954 145 17V37C145 38.1046 145.895 39 147 39C148.105 39 149 38.1046 149 37V25M149 25C149 23.6951 149.386 22.4193 150.109 21.3333L151 20M149 25H151M123 39H139C140.105 39 141 38.1046 141 37V11C141 9.89543 140.105 9 139 9H123C121.895 9 121 9.89543 121 11V37C121 38.1046 121.895 39 123 39ZM137 15C137 13.8954 136.105 13 135 13H127C125.895 13 125 13.8954 125 15C125 16.1046 125.895 17 127 17H135C136.105 17 137 16.1046 137 15Z" stroke="#111111" stroke-width="2" stroke-linecap="round" stroke-linejoin="round"/>
</g>
<g id="Size=40px, Filled=false">
<path id="Vector_6" d="M165.25 20.25H190.25M190.25 12.75H192.75C194.131 12.75 195.25 13.8693 195.25 15.25V40.25C195.25 41.6307 196.369 42.75 197.75 42.75C199.131 42.75 200.25 41.6307 200.25 40.25V25.25M200.25 25.25C200.25 23.6189 200.732 22.0241 201.637 20.6667L202.75 19M200.25 25.25H202.75M167.75 42.75H187.75C189.131 42.75 190.25 41.6307 190.25 40.25V7.75C190.25 6.36929 189.131 5.25 187.75 5.25H167.75C166.369 5.25 165.25 6.36929 165.25 7.75V40.25C165.25 41.6307 166.369 42.75 167.75 42.75ZM185.25 12.75C185.25 11.3693 184.131 10.25 182.75 10.25H172.75C171.369 10.25 170.25 11.3693 170.25 12.75C170.25 14.1307 171.369 15.25 172.75 15.25H182.75C184.131 15.25 185.25 14.1307 185.25 12.75Z" stroke="#111111" stroke-width="2.5" stroke-linecap="round" stroke-linejoin="round"/>
</g>
<g id="Size=48px, Filled=false">
<path id="Vector_7" d="M217.5 19.5H247.5M247.5 10.5H250.5C252.157 10.5 253.5 11.8431 253.5 13.5V43.5C253.5 45.1569 254.843 46.5 256.5 46.5C258.157 46.5 259.5 45.1569 259.5 43.5V25.5M259.5 25.5C259.5 23.5426 260.079 21.629 261.164 20L262.5 18M259.5 25.5H262.5M220.5 46.5H244.5C246.157 46.5 247.5 45.1569 247.5 43.5V4.5C247.5 2.84315 246.157 1.5 244.5 1.5H220.5C218.843 1.5 217.5 2.84315 217.5 4.5V43.5C217.5 45.1569 218.843 46.5 220.5 46.5ZM241.5 10.5C241.5 8.84315 240.157 7.5 238.5 7.5H226.5C224.843 7.5 223.5 8.84315 223.5 10.5C223.5 12.1569 224.843 13.5 226.5 13.5H238.5C240.157 13.5 241.5 12.1569 241.5 10.5Z" stroke="#111111" stroke-width="3" stroke-linecap="round" stroke-linejoin="round"/>
</g>
<g id="Size=12px, Filled=true" clip-path="url(#clip0_1126_882)">
<path id="Vector_8" d="M11.84 82.32C11.7463 82.2269 11.6196 82.1746 11.4875 82.1746C11.3554 82.1746 11.2287 82.2269 11.135 82.32C10.215 83.32 9.75 84.005 9.75 84.415V88.165C9.75 88.2976 9.69732 88.4248 9.60355 88.5186C9.50979 88.6123 9.38261 88.665 9.25 88.665C9.11739 88.665 8.99021 88.6123 8.89645 88.5186C8.80268 88.4248 8.75 88.2976 8.75 88.165V81.44C8.75 81.1085 8.6183 80.7905 8.38388 80.5561C8.14946 80.3217 7.83152 80.19 7.5 80.19H7.375C7.3414 80.1887 7.3096 80.1744 7.28629 80.1502C7.26298 80.126 7.24998 80.0936 7.25 80.06V79.19C7.25066 79.0747 7.22851 78.9604 7.18483 78.8536C7.14116 78.7469 7.07681 78.6498 6.99549 78.568C6.91418 78.4863 6.81749 78.4214 6.71101 78.3771C6.60452 78.3328 6.49033 78.31 6.375 78.31H0.875C0.642477 78.3113 0.419928 78.4046 0.255976 78.5695C0.0920236 78.7344 -3.75325e-06 78.9575 1.14807e-10 79.19L1.14807e-10 88.69C0.00132115 88.9212 0.0940913 89.1425 0.258043 89.3055C0.421994 89.4685 0.643799 89.56 0.875 89.56H6.375C6.48967 89.5607 6.60334 89.5386 6.70947 89.4952C6.8156 89.4518 6.9121 89.3878 6.99342 89.307C7.07474 89.2261 7.13927 89.13 7.1833 89.0241C7.22733 88.9182 7.25 88.8047 7.25 88.69V81.31C7.25129 81.2777 7.26503 81.2472 7.28833 81.2248C7.31164 81.2025 7.3427 81.19 7.375 81.19H7.5C7.5663 81.19 7.62989 81.2163 7.67678 81.2632C7.72366 81.3101 7.75 81.3737 7.75 81.44V88.19C7.75 88.5878 7.90804 88.9694 8.18934 89.2507C8.47064 89.532 8.85218 89.69 9.25 89.69C9.64782 89.69 10.0294 89.532 10.3107 89.2507C10.592 88.9694 10.75 88.5878 10.75 88.19V87.075C10.7495 87.0511 10.7558 87.0276 10.7682 87.0073C10.7806 86.9869 10.7986 86.9705 10.82 86.96L11.32 86.705C11.4445 86.6428 11.5493 86.5472 11.6226 86.4289C11.6959 86.3106 11.7348 86.1742 11.735 86.035V85.44C11.735 85.2411 11.656 85.0503 11.5153 84.9097C11.3747 84.769 11.1839 84.69 10.985 84.69H10.855C10.8218 84.69 10.7901 84.6768 10.7666 84.6534C10.7432 84.6299 10.73 84.5981 10.73 84.565V84.5C11.0352 83.9661 11.412 83.4766 11.85 83.045C11.8985 82.9976 11.9369 82.9408 11.9628 82.8782C11.9887 82.8155 12.0016 82.7482 12.0006 82.6804C11.9997 82.6125 11.985 82.5456 11.9574 82.4837C11.9298 82.4217 11.8898 82.366 11.84 82.32ZM5.375 85.82C5.375 85.8863 5.34866 85.9499 5.30178 85.9968C5.25489 86.0437 5.1913 86.07 5.125 86.07H4.625C4.5587 86.07 4.49511 86.0437 4.44822 85.9968C4.40134 85.9499 4.375 85.8863 4.375 85.82V84.32C4.375 84.2537 4.40134 84.1901 4.44822 84.1432C4.49511 84.0963 4.5587 84.07 4.625 84.07H5.125C5.1909 84.0713 5.25375 84.098 5.30036 84.1446C5.34697 84.1912 5.37372 84.2541 5.375 84.32V85.82ZM5.875 81.445C5.875 81.5113 5.84866 81.5749 5.80178 81.6218C5.75489 81.6687 5.6913 81.695 5.625 81.695H1.625C1.5587 81.695 1.49511 81.6687 1.44822 81.6218C1.40134 81.5749 1.375 81.5113 1.375 81.445V79.945C1.375 79.8787 1.40134 79.8151 1.44822 79.7682C1.49511 79.7213 1.5587 79.695 1.625 79.695H5.625C5.6909 79.6963 5.75375 79.723 5.80036 79.7696C5.84697 79.8162 5.87372 79.8791 5.875 79.945V81.445Z" fill="#111111"/>
</g>
<g id="Size=16px, Filled=true" clip-path="url(#clip1_1126_882)">
<path id="Vector_9" d="M39.7867 81.76C39.6618 81.6358 39.4928 81.5661 39.3167 81.5661C39.1405 81.5661 38.9716 81.6358 38.8467 81.76C37.62 83.0933 37 84.0067 37 84.5533V89.5533C37 89.7301 36.9298 89.8997 36.8047 90.0247C36.6797 90.1498 36.5101 90.22 36.3333 90.22C36.1565 90.22 35.987 90.1498 35.8619 90.0247C35.7369 89.8997 35.6667 89.7301 35.6667 89.5533V80.5867C35.6667 80.1446 35.4911 79.7207 35.1785 79.4082C34.8659 79.0956 34.442 78.92 34 78.92H33.8333C33.7885 78.9183 33.7461 78.8993 33.7151 78.8669C33.684 78.8346 33.6666 78.7915 33.6667 78.7467V77.5867C33.6675 77.4329 33.638 77.2805 33.5798 77.1382C33.5215 76.9958 33.4357 76.8664 33.3273 76.7574C33.2189 76.6484 33.09 76.5618 32.948 76.5028C32.806 76.4437 32.6538 76.4133 32.5 76.4133H25.1667C24.8566 76.4151 24.5599 76.5395 24.3413 76.7593C24.1227 76.9792 24 77.2766 24 77.5867V90.2533C24.0018 90.5616 24.1255 90.8566 24.3441 91.074C24.5627 91.2913 24.8584 91.4133 25.1667 91.4133H32.5C32.6529 91.4142 32.8045 91.3849 32.946 91.327C33.0875 91.269 33.2161 91.1837 33.3246 91.0759C33.433 90.9681 33.519 90.84 33.5777 90.6988C33.6364 90.5576 33.6667 90.4062 33.6667 90.2533V80.4133C33.6684 80.3703 33.6867 80.3296 33.7178 80.2998C33.7488 80.2699 33.7903 80.2533 33.8333 80.2533H34C34.0884 80.2533 34.1732 80.2884 34.2357 80.351C34.2982 80.4135 34.3333 80.4983 34.3333 80.5867V89.5867C34.3333 90.1171 34.544 90.6258 34.9191 91.0009C35.2942 91.3759 35.8029 91.5867 36.3333 91.5867C36.8638 91.5867 37.3725 91.3759 37.7475 91.0009C38.1226 90.6258 38.3333 90.1171 38.3333 89.5867V88.1C38.3326 88.0682 38.3411 88.0369 38.3576 88.0097C38.3741 87.9825 38.3981 87.9607 38.4267 87.9467L39.0933 87.6067C39.2594 87.5238 39.3991 87.3963 39.4968 87.2385C39.5945 87.0808 39.6464 86.8989 39.6467 86.7133V85.92C39.6467 85.6548 39.5413 85.4004 39.3538 85.2129C39.1662 85.0254 38.9119 84.92 38.6467 84.92H38.4733C38.4291 84.92 38.3867 84.9024 38.3555 84.8712C38.3242 84.8399 38.3067 84.7975 38.3067 84.7533V84.6667C38.7135 83.9549 39.216 83.3021 39.8 82.7267C39.8647 82.6635 39.9159 82.5878 39.9504 82.5042C39.9849 82.4206 40.0021 82.3309 40.0009 82.2405C39.9996 82.15 39.98 82.0608 39.9432 81.9782C39.9063 81.8956 39.8531 81.8214 39.7867 81.76ZM31.1667 86.4267C31.1667 86.5151 31.1315 86.5999 31.069 86.6624C31.0065 86.7249 30.9217 86.76 30.8333 86.76H30.1667C30.0783 86.76 29.9935 86.7249 29.931 86.6624C29.8685 86.5999 29.8333 86.5151 29.8333 86.4267V84.4267C29.8333 84.3383 29.8685 84.2535 29.931 84.191C29.9935 84.1284 30.0783 84.0933 30.1667 84.0933H30.8333C30.9212 84.095 31.005 84.1307 31.0671 84.1928C31.1293 84.255 31.165 84.3388 31.1667 84.4267V86.4267ZM31.8333 80.5933C31.8333 80.6817 31.7982 80.7665 31.7357 80.829C31.6732 80.8915 31.5884 80.9267 31.5 80.9267H26.1667C26.0783 80.9267 25.9935 80.8915 25.931 80.829C25.8685 80.7665 25.8333 80.6817 25.8333 80.5933V78.5933C25.8333 78.5049 25.8685 78.4201 25.931 78.3576C25.9935 78.2951 26.0783 78.26 26.1667 78.26H31.5C31.5879 78.2617 31.6717 78.2974 31.7338 78.3595C31.796 78.4217 31.8316 78.5055 31.8333 78.5933V80.5933Z" fill="#111111"/>
</g>
<g id="Size=20px, Filled=true" clip-path="url(#clip2_1126_882)">
<path id="Vector_10" d="M71.7333 81.2C71.5772 81.0448 71.366 80.9577 71.1458 80.9577C70.9257 80.9577 70.7145 81.0448 70.5583 81.2C69.025 82.8667 68.25 84.0083 68.25 84.6917V90.9417C68.25 91.1627 68.1622 91.3746 68.0059 91.5309C67.8496 91.6872 67.6377 91.775 67.4167 91.775C67.1957 91.775 66.9837 91.6872 66.8274 91.5309C66.6711 91.3746 66.5833 91.1627 66.5833 90.9417V79.7333C66.5833 79.1808 66.3638 78.6509 65.9731 78.2602C65.5824 77.8695 65.0525 77.65 64.5 77.65H64.2917C64.2357 77.6478 64.1827 77.6241 64.1438 77.5837C64.105 77.5433 64.0833 77.4894 64.0833 77.4333V75.9833C64.0844 75.7911 64.0475 75.6006 63.9747 75.4227C63.9019 75.2448 63.7947 75.083 63.6592 74.9467C63.5236 74.8104 63.3625 74.7023 63.185 74.6285C63.0075 74.5547 62.8172 74.5167 62.625 74.5167H53.4583C53.0708 74.5189 52.6999 74.6744 52.4266 74.9492C52.1534 75.224 52 75.5958 52 75.9833V91.8167C52.0022 92.202 52.1568 92.5708 52.4301 92.8425C52.7033 93.1142 53.073 93.2667 53.4583 93.2667H62.625C62.8161 93.2678 63.0056 93.2311 63.1825 93.1587C63.3593 93.0863 63.5202 92.9797 63.6557 92.8449C63.7912 92.7102 63.8988 92.55 63.9722 92.3735C64.0456 92.197 64.0833 92.0078 64.0833 91.8167V79.5167C64.0855 79.4629 64.1084 79.412 64.1472 79.3747C64.1861 79.3374 64.2378 79.3166 64.2917 79.3167H64.5C64.6105 79.3167 64.7165 79.3606 64.7946 79.4387C64.8728 79.5168 64.9167 79.6228 64.9167 79.7333V90.9833C64.9167 91.6464 65.1801 92.2823 65.6489 92.7511C66.1177 93.2199 66.7536 93.4833 67.4167 93.4833C68.0797 93.4833 68.7156 93.2199 69.1844 92.7511C69.6533 92.2823 69.9167 91.6464 69.9167 90.9833V89.125C69.9158 89.0852 69.9263 89.0461 69.947 89.0121C69.9677 88.9782 69.9976 88.9508 70.0333 88.9333L70.8667 88.5083C71.0742 88.4047 71.2488 88.2454 71.371 88.0482C71.4932 87.851 71.558 87.6236 71.5583 87.3917V86.4C71.5583 86.0685 71.4266 85.7505 71.1922 85.5161C70.9578 85.2817 70.6399 85.15 70.3083 85.15H70.0917C70.0364 85.15 69.9834 85.128 69.9444 85.089C69.9053 85.0499 69.8833 84.9969 69.8833 84.9417V84.8333C70.3919 83.9436 71.02 83.1277 71.75 82.4083C71.8309 82.3294 71.8949 82.2347 71.938 82.1303C71.9812 82.0258 72.0026 81.9136 72.0011 81.8006C71.9995 81.6876 71.975 81.576 71.929 81.4728C71.8829 81.3695 71.8164 81.2767 71.7333 81.2ZM60.9583 87.0333C60.9583 87.1438 60.9144 87.2498 60.8363 87.328C60.7582 87.4061 60.6522 87.45 60.5417 87.45H59.7083C59.5978 87.45 59.4918 87.4061 59.4137 87.328C59.3356 87.2498 59.2917 87.1438 59.2917 87.0333V84.5333C59.2917 84.4228 59.3356 84.3168 59.4137 84.2387C59.4918 84.1606 59.5978 84.1167 59.7083 84.1167H60.5417C60.6515 84.1188 60.7563 84.1634 60.8339 84.2411C60.9116 84.3187 60.9562 84.4235 60.9583 84.5333V87.0333ZM61.7917 79.7417C61.7917 79.8522 61.7478 79.9581 61.6696 80.0363C61.5915 80.1144 61.4855 80.1583 61.375 80.1583H54.7083C54.5978 80.1583 54.4918 80.1144 54.4137 80.0363C54.3356 79.9581 54.2917 79.8522 54.2917 79.7417V77.2417C54.2917 77.1312 54.3356 77.0252 54.4137 76.947C54.4918 76.8689 54.5978 76.825 54.7083 76.825H61.375C61.4848 76.8271 61.5896 76.8717 61.6673 76.9494C61.745 77.0271 61.7895 77.1318 61.7917 77.2417V79.7417Z" fill="#111111"/>
</g>
<g id="Size=24px, Filled=true" clip-path="url(#clip3_1126_882)">
<path id="Vector_11" d="M107.68 80.64C107.493 80.4537 107.239 80.3492 106.975 80.3492C106.711 80.3492 106.457 80.4537 106.27 80.64C104.43 82.64 103.5 84.01 103.5 84.83V92.33C103.5 92.5952 103.395 92.8496 103.207 93.0371C103.02 93.2246 102.765 93.33 102.5 93.33C102.235 93.33 101.98 93.2246 101.793 93.0371C101.605 92.8496 101.5 92.5952 101.5 92.33V78.88C101.5 78.217 101.237 77.5811 100.768 77.1122C100.299 76.6434 99.663 76.38 99 76.38H98.75C98.6828 76.3774 98.6192 76.3489 98.5726 76.3004C98.526 76.2519 98.5 76.1873 98.5 76.12V74.38C98.5013 74.1493 98.457 73.9207 98.3697 73.7072C98.2823 73.4938 98.1536 73.2997 97.991 73.1361C97.8284 72.9725 97.635 72.8427 97.422 72.7542C97.209 72.6656 96.9807 72.62 96.75 72.62H85.75C85.285 72.6226 84.8399 72.8092 84.512 73.139C84.184 73.4688 84 73.9149 84 74.38V93.38C84.0026 93.8424 84.1882 94.2849 84.5161 94.611C84.844 94.937 85.2876 95.12 85.75 95.12H96.75C96.9793 95.1213 97.2067 95.0773 97.4189 94.9904C97.6312 94.9036 97.8242 94.7756 97.9868 94.6139C98.1495 94.4522 98.2785 94.2599 98.3666 94.0482C98.4547 93.8364 98.5 93.6093 98.5 93.38V78.62C98.5026 78.5554 98.5301 78.4944 98.5767 78.4496C98.6233 78.4049 98.6854 78.3799 98.75 78.38H99C99.1326 78.38 99.2598 78.4327 99.3536 78.5264C99.4473 78.6202 99.5 78.7474 99.5 78.88V92.38C99.5 93.1756 99.8161 93.9387 100.379 94.5013C100.941 95.0639 101.704 95.38 102.5 95.38C103.296 95.38 104.059 95.0639 104.621 94.5013C105.184 93.9387 105.5 93.1756 105.5 92.38V90.15C105.499 90.1023 105.512 90.0553 105.536 90.0145C105.561 89.9738 105.597 89.941 105.64 89.92L106.64 89.41C106.889 89.2857 107.099 89.0945 107.245 88.8578C107.392 88.6211 107.47 88.3484 107.47 88.07V86.88C107.47 86.4822 107.312 86.1006 107.031 85.8193C106.749 85.538 106.368 85.38 105.97 85.38H105.71C105.644 85.38 105.58 85.3537 105.533 85.3068C105.486 85.2599 105.46 85.1963 105.46 85.13V85C106.07 83.9323 106.824 82.9532 107.7 82.09C107.797 81.9952 107.874 81.8817 107.926 81.7563C107.977 81.6309 108.003 81.4963 108.001 81.3607C107.999 81.2251 107.97 81.0912 107.915 80.9673C107.86 80.8434 107.78 80.7321 107.68 80.64ZM94.75 87.64C94.75 87.7726 94.6973 87.8998 94.6036 87.9935C94.5098 88.0873 94.3826 88.14 94.25 88.14H93.25C93.1174 88.14 92.9902 88.0873 92.8964 87.9935C92.8027 87.8998 92.75 87.7726 92.75 87.64V84.64C92.75 84.5074 92.8027 84.3802 92.8964 84.2864C92.9902 84.1927 93.1174 84.14 93.25 84.14H94.25C94.3818 84.1426 94.5075 84.1961 94.6007 84.2893C94.6939 84.3825 94.7474 84.5082 94.75 84.64V87.64ZM95.75 78.89C95.75 79.0226 95.6973 79.1498 95.6036 79.2435C95.5098 79.3373 95.3826 79.39 95.25 79.39H87.25C87.1174 79.39 86.9902 79.3373 86.8964 79.2435C86.8027 79.1498 86.75 79.0226 86.75 78.89V75.89C86.75 75.7574 86.8027 75.6302 86.8964 75.5364C86.9902 75.4427 87.1174 75.39 87.25 75.39H95.25C95.3818 75.3926 95.5075 75.4461 95.6007 75.5393C95.6939 75.6325 95.7474 75.7582 95.75 75.89V78.89Z" fill="#111111"/>
</g>
<g id="Size=32px, Filled=true" clip-path="url(#clip4_1126_882)">
<path id="Vector_12" d="M151.573 79.52C151.324 79.2717 150.986 79.1323 150.633 79.1323C150.281 79.1323 149.943 79.2717 149.693 79.52C147.24 82.1867 146 84.0133 146 85.1067V95.1067C146 95.4603 145.86 95.7994 145.609 96.0495C145.359 96.2995 145.02 96.44 144.667 96.44C144.313 96.44 143.974 96.2995 143.724 96.0495C143.474 95.7994 143.333 95.4603 143.333 95.1067V77.1733C143.333 76.2893 142.982 75.4414 142.357 74.8163C141.732 74.1912 140.884 73.84 140 73.84H139.667C139.577 73.8365 139.492 73.7985 139.43 73.7339C139.368 73.6692 139.333 73.583 139.333 73.4933V71.1733C139.335 70.8658 139.276 70.5609 139.16 70.2763C139.043 69.9917 138.871 69.7329 138.655 69.5148C138.438 69.2967 138.18 69.1236 137.896 69.0055C137.612 68.8874 137.308 68.8267 137 68.8267H122.333C121.713 68.8302 121.12 69.079 120.683 69.5187C120.245 69.9584 120 70.5533 120 71.1733V96.5067C120.004 97.1232 120.251 97.7133 120.688 98.148C121.125 98.5827 121.717 98.8267 122.333 98.8267H137C137.306 98.8284 137.609 98.7697 137.892 98.6539C138.175 98.5381 138.432 98.3675 138.649 98.1519C138.866 97.9363 139.038 97.6799 139.155 97.3976C139.273 97.1152 139.333 96.8125 139.333 96.5067V76.8267C139.337 76.7406 139.373 76.6592 139.436 76.5995C139.498 76.5399 139.581 76.5066 139.667 76.5067H140C140.177 76.5067 140.346 76.5769 140.471 76.7019C140.596 76.8269 140.667 76.9965 140.667 77.1733V95.1733C140.667 96.2342 141.088 97.2516 141.838 98.0018C142.588 98.7519 143.606 99.1733 144.667 99.1733C145.728 99.1733 146.745 98.7519 147.495 98.0018C148.245 97.2516 148.667 96.2342 148.667 95.1733V92.2C148.665 92.1364 148.682 92.0737 148.715 92.0194C148.748 91.965 148.796 91.9213 148.853 91.8933L150.187 91.2133C150.519 91.0475 150.798 90.7926 150.994 90.4771C151.189 90.1615 151.293 89.7978 151.293 89.4267V87.84C151.293 87.3096 151.083 86.8009 150.708 86.4258C150.332 86.0507 149.824 85.84 149.293 85.84H148.947C148.858 85.84 148.773 85.8049 148.711 85.7424C148.648 85.6799 148.613 85.5951 148.613 85.5067V85.3333C149.427 83.9097 150.432 82.6043 151.6 81.4533C151.729 81.327 151.832 81.1756 151.901 81.0084C151.97 80.8413 152.004 80.6618 152.002 80.4809C151.999 80.3001 151.96 80.1216 151.886 79.9564C151.813 79.7912 151.706 79.6427 151.573 79.52ZM134.333 88.8533C134.333 89.0301 134.263 89.1997 134.138 89.3247C134.013 89.4498 133.843 89.52 133.667 89.52H132.333C132.157 89.52 131.987 89.4498 131.862 89.3247C131.737 89.1997 131.667 89.0301 131.667 88.8533V84.8533C131.667 84.6765 131.737 84.5069 131.862 84.3819C131.987 84.2569 132.157 84.1867 132.333 84.1867H133.667C133.842 84.1901 134.01 84.2614 134.134 84.3857C134.259 84.51 134.33 84.6776 134.333 84.8533V88.8533ZM135.667 77.1867C135.667 77.3635 135.596 77.533 135.471 77.6581C135.346 77.7831 135.177 77.8533 135 77.8533H124.333C124.157 77.8533 123.987 77.7831 123.862 77.6581C123.737 77.533 123.667 77.3635 123.667 77.1867V73.1867C123.667 73.0098 123.737 72.8403 123.862 72.7153C123.987 72.5902 124.157 72.52 124.333 72.52H135C135.176 72.5234 135.343 72.5947 135.468 72.719C135.592 72.8433 135.663 73.0109 135.667 73.1867V77.1867Z" fill="#111111"/>
</g>
<g id="Size=40px, Filled=true" clip-path="url(#clip5_1126_882)">
<path id="Vector_13" d="M203.467 78.4C203.154 78.0896 202.732 77.9153 202.292 77.9153C201.851 77.9153 201.429 78.0896 201.117 78.4C198.05 81.7333 196.5 84.0167 196.5 85.3833V97.8833C196.5 98.3254 196.324 98.7493 196.012 99.0618C195.699 99.3744 195.275 99.55 194.833 99.55C194.391 99.55 193.967 99.3744 193.655 99.0618C193.342 98.7493 193.167 98.3254 193.167 97.8833V75.4667C193.167 74.3616 192.728 73.3018 191.946 72.5204C191.165 71.739 190.105 71.3 189 71.3H188.583C188.471 71.2957 188.365 71.2481 188.288 71.1673C188.21 71.0865 188.167 70.9788 188.167 70.8667V67.9667C188.169 67.5822 188.095 67.2012 187.949 66.8454C187.804 66.4896 187.589 66.1661 187.318 65.8935C187.047 65.6209 186.725 65.4045 186.37 65.2569C186.015 65.1093 185.634 65.0333 185.25 65.0333H166.917C166.142 65.0377 165.4 65.3487 164.853 65.8983C164.307 66.448 164 67.1916 164 67.9667V99.6333C164.004 100.404 164.314 101.142 164.86 101.685C165.407 102.228 166.146 102.533 166.917 102.533H185.25C185.632 102.536 186.011 102.462 186.365 102.317C186.719 102.173 187.04 101.959 187.311 101.69C187.582 101.42 187.798 101.1 187.944 100.747C188.091 100.394 188.167 100.016 188.167 99.6333V75.0333C188.171 74.9257 188.217 74.824 188.294 74.7494C188.372 74.6748 188.476 74.6332 188.583 74.6333H189C189.221 74.6333 189.433 74.7211 189.589 74.8774C189.746 75.0337 189.833 75.2456 189.833 75.4667V97.9667C189.833 99.2927 190.36 100.565 191.298 101.502C192.235 102.44 193.507 102.967 194.833 102.967C196.159 102.967 197.431 102.44 198.369 101.502C199.307 100.565 199.833 99.2927 199.833 97.9667V94.25C199.832 94.1705 199.853 94.0922 199.894 94.0242C199.935 93.9563 199.995 93.9016 200.067 93.8667L201.733 93.0167C202.148 92.8094 202.498 92.4908 202.742 92.0963C202.986 91.7019 203.116 91.2473 203.117 90.7833V88.8C203.117 88.1369 202.853 87.5011 202.384 87.0322C201.916 86.5634 201.28 86.3 200.617 86.3H200.183C200.073 86.3 199.967 86.2561 199.889 86.178C199.811 86.0998 199.767 85.9938 199.767 85.8833V85.6667C200.784 83.8871 202.04 82.2553 203.5 80.8167C203.662 80.6587 203.79 80.4695 203.876 80.2605C203.962 80.0516 204.005 79.8272 204.002 79.6012C203.999 79.3751 203.95 79.152 203.858 78.9455C203.766 78.739 203.633 78.5534 203.467 78.4ZM181.917 90.0667C181.917 90.2877 181.829 90.4996 181.673 90.6559C181.516 90.8122 181.304 90.9 181.083 90.9H179.417C179.196 90.9 178.984 90.8122 178.827 90.6559C178.671 90.4996 178.583 90.2877 178.583 90.0667V85.0667C178.583 84.8456 178.671 84.6337 178.827 84.4774C178.984 84.3211 179.196 84.2333 179.417 84.2333H181.083C181.303 84.2376 181.513 84.3268 181.668 84.4821C181.823 84.6375 181.912 84.847 181.917 85.0667V90.0667ZM183.583 75.4833C183.583 75.7043 183.496 75.9163 183.339 76.0726C183.183 76.2289 182.971 76.3167 182.75 76.3167H169.417C169.196 76.3167 168.984 76.2289 168.827 76.0726C168.671 75.9163 168.583 75.7043 168.583 75.4833V70.4833C168.583 70.2623 168.671 70.0503 168.827 69.8941C168.984 69.7378 169.196 69.65 169.417 69.65H182.75C182.97 69.6543 183.179 69.7434 183.335 69.8988C183.49 70.0542 183.579 70.2636 183.583 70.4833V75.4833Z" fill="#111111"/>
</g>
<g id="Size=48px, Filled=true" clip-path="url(#clip6_1126_882)">
<path id="Vector_14" d="M263.36 77.28C262.985 76.9075 262.478 76.6984 261.95 76.6984C261.422 76.6984 260.915 76.9075 260.54 77.28C256.86 81.28 255 84.02 255 85.66V100.66C255 101.19 254.789 101.699 254.414 102.074C254.039 102.449 253.53 102.66 253 102.66C252.47 102.66 251.961 102.449 251.586 102.074C251.211 101.699 251 101.19 251 100.66V73.76C251 72.4339 250.473 71.1621 249.536 70.2245C248.598 69.2868 247.326 68.76 246 68.76H245.5C245.366 68.7548 245.238 68.6978 245.145 68.6008C245.052 68.5038 245 68.3745 245 68.24V64.76C245.003 64.2987 244.914 63.8414 244.739 63.4145C244.565 62.9875 244.307 62.5993 243.982 62.2722C243.657 61.9451 243.27 61.6855 242.844 61.5083C242.418 61.3312 241.961 61.24 241.5 61.24H219.5C218.57 61.2453 217.68 61.6185 217.024 62.278C216.368 62.9376 216 63.8299 216 64.76V102.76C216.005 103.685 216.376 104.57 217.032 105.222C217.688 105.874 218.575 106.24 219.5 106.24H241.5C241.959 106.243 242.413 106.155 242.838 105.981C243.262 105.807 243.648 105.551 243.974 105.228C244.299 104.904 244.557 104.52 244.733 104.096C244.909 103.673 245 103.219 245 102.76V73.24C245.005 73.1109 245.06 72.9888 245.153 72.8993C245.247 72.8098 245.371 72.7599 245.5 72.76H246C246.265 72.76 246.52 72.8653 246.707 73.0529C246.895 73.2404 247 73.4948 247 73.76V100.76C247 102.351 247.632 103.877 248.757 105.003C249.883 106.128 251.409 106.76 253 106.76C254.591 106.76 256.117 106.128 257.243 105.003C258.368 103.877 259 102.351 259 100.76V96.3C258.998 96.2046 259.023 96.1106 259.073 96.0291C259.122 95.9476 259.194 95.882 259.28 95.84L261.28 94.82C261.778 94.5713 262.197 94.1889 262.49 93.7156C262.784 93.2423 262.939 92.6967 262.94 92.14V89.76C262.94 88.9643 262.624 88.2013 262.061 87.6387C261.499 87.0761 260.736 86.76 259.94 86.76H259.42C259.287 86.76 259.16 86.7073 259.066 86.6135C258.973 86.5198 258.92 86.3926 258.92 86.26V86C260.141 83.8646 261.648 81.9064 263.4 80.18C263.594 79.9905 263.748 79.7634 263.851 79.5126C263.955 79.2619 264.006 78.9927 264.003 78.7214C263.999 78.4501 263.94 78.1824 263.829 77.9346C263.719 77.6868 263.559 77.4641 263.36 77.28ZM237.5 91.28C237.5 91.5452 237.395 91.7996 237.207 91.9871C237.02 92.1746 236.765 92.28 236.5 92.28H234.5C234.235 92.28 233.98 92.1746 233.793 91.9871C233.605 91.7996 233.5 91.5452 233.5 91.28V85.28C233.5 85.0148 233.605 84.7604 233.793 84.5729C233.98 84.3853 234.235 84.28 234.5 84.28H236.5C236.764 84.2851 237.015 84.3921 237.201 84.5785C237.388 84.765 237.495 85.0164 237.5 85.28V91.28ZM239.5 73.78C239.5 74.0452 239.395 74.2996 239.207 74.4871C239.02 74.6746 238.765 74.78 238.5 74.78H222.5C222.235 74.78 221.98 74.6746 221.793 74.4871C221.605 74.2996 221.5 74.0452 221.5 73.78V67.78C221.5 67.5148 221.605 67.2604 221.793 67.0729C221.98 66.8853 222.235 66.78 222.5 66.78H238.5C238.764 66.7851 239.015 66.8921 239.201 67.0785C239.388 67.265 239.495 67.5164 239.5 67.78V73.78Z" fill="#111111"/>
</g>
</g>
<defs>
<clipPath id="clip0_1126_882">
<rect width="12" height="12" fill="white" transform="translate(0 78)"/>
</clipPath>
<clipPath id="clip1_1126_882">
<rect width="16" height="16" fill="white" transform="translate(24 76)"/>
</clipPath>
<clipPath id="clip2_1126_882">
<rect width="20" height="20" fill="white" transform="translate(52 74)"/>
</clipPath>
<clipPath id="clip3_1126_882">
<rect width="24" height="24" fill="white" transform="translate(84 72)"/>
</clipPath>
<clipPath id="clip4_1126_882">
<rect width="32" height="32" fill="white" transform="translate(120 68)"/>
</clipPath>
<clipPath id="clip5_1126_882">
<rect width="40" height="40" fill="white" transform="translate(164 64)"/>
</clipPath>
<clipPath id="clip6_1126_882">
<rect width="48" height="48" fill="white" transform="translate(216 60)"/>
</clipPath>
</defs>
</svg>
