<svg width="264" height="108" viewBox="0 0 264 108" fill="none" xmlns="http://www.w3.org/2000/svg">
<g id="Gas can">
<g clip-path="url(#clip0_2415_959)">
<g id="Size=12px, Filled=false" clip-path="url(#clip1_2415_959)">
<path id="Vector" d="M3.75 23.25L8.25 27.75M3.75 27.75L8.25 23.25M7.75 18.75C7.3787 18.75 7.0226 18.8975 6.76005 19.1601C6.4975 19.4226 6.35 19.7787 6.35 20.15V21.75H2.15C1.7787 21.75 1.4226 21.8975 1.16005 22.1601C0.8975 22.4226 0.75 22.7787 0.75 23.15V27.85C0.75 28.2213 0.8975 28.5774 1.16005 28.8399C1.4226 29.1025 1.7787 29.25 2.15 29.25H9.85C10.2213 29.25 10.5774 29.1025 10.8399 28.8399C11.1025 28.5774 11.25 28.2213 11.25 27.85V20.15C11.25 19.7787 11.1025 19.4226 10.8399 19.1601C10.5774 18.8975 10.2213 18.75 9.85 18.75H7.75ZM9.75 21C9.75 20.8011 9.67098 20.6103 9.53033 20.4697C9.38968 20.329 9.19891 20.25 9 20.25H8.25C8.05109 20.25 7.86032 20.329 7.71967 20.4697C7.57902 20.6103 7.5 20.8011 7.5 21C7.5 21.1989 7.57902 21.3897 7.71967 21.5303C7.86032 21.671 8.05109 21.75 8.25 21.75H9C9.19891 21.75 9.38968 21.671 9.53033 21.5303C9.67098 21.3897 9.75 21.1989 9.75 21ZM2.75 20.25H4.75C4.88261 20.25 5.00979 20.3027 5.10355 20.3964C5.19732 20.4902 5.25 20.6174 5.25 20.75V21.75H2.25V20.75C2.25 20.6174 2.30268 20.4902 2.39645 20.3964C2.49021 20.3027 2.61739 20.25 2.75 20.25Z" stroke="#111111" stroke-width="0.75" stroke-linecap="round" stroke-linejoin="round"/>
</g>
<g id="Size=16px, Filled=false" clip-path="url(#clip2_2415_959)">
<path id="Vector_2" d="M29 23L35 29M29 29L35 23M34.3333 17C33.8383 17 33.3635 17.1967 33.0134 17.5467C32.6633 17.8968 32.4667 18.3716 32.4667 18.8667V21H26.8667C26.3716 21 25.8968 21.1967 25.5467 21.5467C25.1967 21.8968 25 22.3716 25 22.8667V29.1333C25 29.6284 25.1967 30.1032 25.5467 30.4533C25.8968 30.8033 26.3716 31 26.8667 31H37.1333C37.6284 31 38.1032 30.8033 38.4533 30.4533C38.8033 30.1032 39 29.6284 39 29.1333V18.8667C39 18.3716 38.8033 17.8968 38.4533 17.5467C38.1032 17.1967 37.6284 17 37.1333 17H34.3333ZM37 20C37 19.7348 36.8946 19.4804 36.7071 19.2929C36.5196 19.1054 36.2652 19 36 19H35C34.7348 19 34.4804 19.1054 34.2929 19.2929C34.1054 19.4804 34 19.7348 34 20C34 20.2652 34.1054 20.5196 34.2929 20.7071C34.4804 20.8946 34.7348 21 35 21H36C36.2652 21 36.5196 20.8946 36.7071 20.7071C36.8946 20.5196 37 20.2652 37 20ZM27.6667 19H30.3333C30.5101 19 30.6797 19.0702 30.8047 19.1953C30.9298 19.3203 31 19.4899 31 19.6667V21H27V19.6667C27 19.4899 27.0702 19.3203 27.1953 19.1953C27.3203 19.0702 27.4899 19 27.6667 19Z" stroke="#111111" stroke-linecap="round" stroke-linejoin="round"/>
</g>
<g id="Size=20px, Filled=false" clip-path="url(#clip3_2415_959)">
<path id="Vector_3" d="M58.25 22.75L65.75 30.25M58.25 30.25L65.75 22.75M64.9167 15.25C64.2978 15.25 63.7043 15.4958 63.2668 15.9334C62.8292 16.371 62.5833 16.9645 62.5833 17.5833V20.25H55.5833C54.9645 20.25 54.371 20.4958 53.9334 20.9334C53.4958 21.371 53.25 21.9645 53.25 22.5833V30.4167C53.25 31.0355 53.4958 31.629 53.9334 32.0666C54.371 32.5042 54.9645 32.75 55.5833 32.75H68.4167C69.0355 32.75 69.629 32.5042 70.0666 32.0666C70.5042 31.629 70.75 31.0355 70.75 30.4167V17.5833C70.75 16.9645 70.5042 16.371 70.0666 15.9334C69.629 15.4958 69.0355 15.25 68.4167 15.25H64.9167ZM68.25 19C68.25 18.6685 68.1183 18.3505 67.8839 18.1161C67.6495 17.8817 67.3315 17.75 67 17.75H65.75C65.4185 17.75 65.1005 17.8817 64.8661 18.1161C64.6317 18.3505 64.5 18.6685 64.5 19C64.5 19.3315 64.6317 19.6495 64.8661 19.8839C65.1005 20.1183 65.4185 20.25 65.75 20.25H67C67.3315 20.25 67.6495 20.1183 67.8839 19.8839C68.1183 19.6495 68.25 19.3315 68.25 19ZM56.5833 17.75H59.9167C60.1377 17.75 60.3496 17.8378 60.5059 17.9941C60.6622 18.1504 60.75 18.3623 60.75 18.5833V20.25H55.75V18.5833C55.75 18.3623 55.8378 18.1504 55.9941 17.9941C56.1504 17.8378 56.3623 17.75 56.5833 17.75Z" stroke="#111111" stroke-width="1.25" stroke-linecap="round" stroke-linejoin="round"/>
</g>
<g id="Size=24px, Filled=false" clip-path="url(#clip4_2415_959)">
<path id="Vector_4" d="M91 22L101 32M91 32L101 22M99.6667 13C98.8887 13 98.1426 13.309 97.5925 13.8592C97.0424 14.4093 96.7333 15.1554 96.7333 15.9333V19H87.9333C87.1554 19 86.4093 19.309 85.8592 19.8592C85.309 20.4093 85 21.1554 85 21.9333V32.0667C85 32.8446 85.309 33.5907 85.8592 34.1408C86.4093 34.691 87.1554 35 87.9333 35H104.067C104.845 35 105.591 34.691 106.141 34.1408C106.691 33.5907 107 32.8446 107 32.0667V15.9333C107 15.1554 106.691 14.4093 106.141 13.8592C105.591 13.309 104.845 13 104.067 13H99.6667ZM104 17.5C104 17.1022 103.86 16.7206 103.609 16.4393C103.359 16.158 103.02 16 102.667 16H101.333C100.98 16 100.641 16.158 100.391 16.4393C100.14 16.7206 100 17.1022 100 17.5C100 17.8978 100.14 18.2794 100.391 18.5607C100.641 18.842 100.98 19 101.333 19H102.667C103.02 19 103.359 18.842 103.609 18.5607C103.86 18.2794 104 17.8978 104 17.5ZM89 17H93C93.2652 17 93.5196 17.0702 93.7071 17.1953C93.8946 17.3203 94 17.4899 94 17.6667V19H88V17.6667C88 17.4899 88.1054 17.3203 88.2929 17.1953C88.4804 17.0702 88.7348 17 89 17Z" stroke="#111111" stroke-width="1.5" stroke-linecap="round" stroke-linejoin="round"/>
</g>
<g id="Size=32px, Filled=false">
<path id="Vector_5" d="M130 22L142 34M130 34L142 22M140.667 10C139.677 10 138.727 10.3933 138.027 11.0935C137.327 11.7936 136.933 12.7432 136.933 13.7333V18H125.733C124.743 18 123.794 18.3933 123.093 19.0935C122.393 19.7936 122 20.7432 122 21.7333V34.2667C122 35.2568 122.393 36.2064 123.093 36.9065C123.794 37.6067 124.743 38 125.733 38H146.267C147.257 38 148.206 37.6067 148.907 36.9065C149.607 36.2064 150 35.2568 150 34.2667V13.7333C150 12.7432 149.607 11.7936 148.907 11.0935C148.206 10.3933 147.257 10 146.267 10H140.667ZM146 16C146 15.4696 145.789 14.9609 145.414 14.5858C145.039 14.2107 144.53 14 144 14H142C141.47 14 140.961 14.2107 140.586 14.5858C140.211 14.9609 140 15.4696 140 16C140 16.5304 140.211 17.0391 140.586 17.4142C140.961 17.7893 141.47 18 142 18H144C144.53 18 145.039 17.7893 145.414 17.4142C145.789 17.0391 146 16.5304 146 16ZM127.333 14H132.667C133.02 14 133.359 14.1405 133.609 14.3905C133.86 14.6406 134 14.9797 134 15.3333V18H126V15.3333C126 14.9797 126.14 14.6406 126.391 14.3905C126.641 14.1405 126.98 14 127.333 14Z" stroke="#111111" stroke-width="2" stroke-linecap="round" stroke-linejoin="round"/>
</g>
<g id="Size=40px, Filled=false">
<path id="Vector_6" d="M176.5 21.5L191.5 36.5M176.5 36.5L191.5 21.5M189.833 6.5C188.596 6.5 187.409 6.99167 186.534 7.86683C185.658 8.742 185.167 9.92899 185.167 11.1667V16.5H171.167C169.929 16.5 168.742 16.9917 167.867 17.8668C166.992 18.742 166.5 19.929 166.5 21.1667V36.8333C166.5 38.071 166.992 39.258 167.867 40.1332C168.742 41.0083 169.929 41.5 171.167 41.5H196.833C198.071 41.5 199.258 41.0083 200.133 40.1332C201.008 39.258 201.5 38.071 201.5 36.8333V11.1667C201.5 9.92899 201.008 8.742 200.133 7.86683C199.258 6.99167 198.071 6.5 196.833 6.5H189.833ZM196.5 14C196.5 13.337 196.237 12.7011 195.768 12.2322C195.299 11.7634 194.663 11.5 194 11.5H191.5C190.837 11.5 190.201 11.7634 189.732 12.2322C189.263 12.7011 189 13.337 189 14C189 14.663 189.263 15.2989 189.732 15.7678C190.201 16.2366 190.837 16.5 191.5 16.5H194C194.663 16.5 195.299 16.2366 195.768 15.7678C196.237 15.2989 196.5 14.663 196.5 14ZM173.167 11.5H179.833C180.275 11.5 180.699 11.6756 181.012 11.9882C181.324 12.3007 181.5 12.7246 181.5 13.1667V16.5H171.5V13.1667C171.5 12.7246 171.676 12.3007 171.988 11.9882C172.301 11.6756 172.725 11.5 173.167 11.5Z" stroke="#111111" stroke-width="2.5" stroke-linecap="round" stroke-linejoin="round"/>
</g>
<g id="Size=48px, Filled=false">
<path id="Vector_7" d="M231 21L249 39M231 39L249 21M247 3C245.515 3 244.09 3.59 243.04 4.6402C241.99 5.69041 241.4 7.11479 241.4 8.6V15H224.6C223.115 15 221.69 15.59 220.64 16.6402C219.59 17.6904 219 19.1148 219 20.6V39.4C219 40.8852 219.59 42.3096 220.64 43.3598C221.69 44.41 223.115 45 224.6 45H255.4C256.885 45 258.31 44.41 259.36 43.3598C260.41 42.3096 261 40.8852 261 39.4V8.6C261 7.11479 260.41 5.69041 259.36 4.6402C258.31 3.59 256.885 3 255.4 3H247ZM255 12C255 11.2044 254.684 10.4413 254.121 9.87868C253.559 9.31607 252.796 9 252 9H249C248.204 9 247.441 9.31607 246.879 9.87868C246.316 10.4413 246 11.2044 246 12C246 12.7956 246.316 13.5587 246.879 14.1213C247.441 14.6839 248.204 15 249 15H252C252.796 15 253.559 14.6839 254.121 14.1213C254.684 13.5587 255 12.7956 255 12ZM227 9H235C235.53 9 236.039 9.21071 236.414 9.58579C236.789 9.96086 237 10.4696 237 11V15H225V11C225 10.4696 225.211 9.96086 225.586 9.58579C225.961 9.21071 226.47 9 227 9Z" stroke="#111111" stroke-width="3" stroke-linecap="round" stroke-linejoin="round"/>
</g>
<g id="Size=12px, Filled=true">
<path id="Vector_8" d="M9.72093 78.0001H6.23256C6.02995 78.0072 5.83259 78.0682 5.65976 78.1771C5.48693 78.2861 5.34455 78.4393 5.24652 78.6218L4.26513 80.6401C4.22543 80.703 4.17278 80.7561 4.11089 80.7958C4.049 80.8355 3.97939 80.8607 3.90699 80.8696H1.58141C1.42801 80.8696 1.28084 80.9319 1.17194 81.043C1.06304 81.1541 1.00124 81.3049 1.00001 81.4627V88.1583C0.9994 88.2686 1.02 88.378 1.06063 88.4801C1.10126 88.5822 1.16112 88.675 1.23676 88.7532C1.31241 88.8315 1.40234 88.8935 1.5014 88.9359C1.60046 88.9783 1.70668 89.0001 1.81397 89.0001H10.186C10.4023 88.9988 10.6094 88.9096 10.7619 88.7518C10.9144 88.5941 11 88.3807 11 88.1583V79.3105C10.9988 78.9625 10.8635 78.6292 10.6237 78.3836C10.384 78.138 10.0594 78.0001 9.72093 78.0001ZM6.7628 85.174L8.41861 86.867C8.50524 86.9566 8.55386 87.0778 8.55386 87.2042C8.55386 87.3305 8.50524 87.4518 8.41861 87.5414C8.33146 87.6304 8.21358 87.6804 8.0907 87.6804C7.96782 87.6804 7.84994 87.6304 7.76279 87.5414L6.09303 85.8388C6.08321 85.827 6.07109 85.8175 6.05747 85.8109C6.04384 85.8044 6.02902 85.8008 6.01396 85.8005C5.99821 85.8007 5.98267 85.8042 5.96828 85.8108C5.95389 85.8174 5.94095 85.8269 5.93024 85.8388L4.27908 87.5414C4.19245 87.6297 4.07552 87.6795 3.9535 87.6801C3.89229 87.6804 3.83161 87.6684 3.77494 87.6446C3.71827 87.6208 3.66673 87.5857 3.62327 87.5414C3.53664 87.4518 3.48801 87.3305 3.48801 87.2042C3.48801 87.0778 3.53664 86.9566 3.62327 86.867L5.28373 85.1596C5.30399 85.1367 5.31522 85.1069 5.31522 85.0759C5.31522 85.045 5.30399 85.0151 5.28373 84.9922L3.62327 83.2848C3.57458 83.242 3.53503 83.1892 3.50711 83.1299C3.4792 83.0705 3.46351 83.0059 3.46103 82.94C3.45856 82.8742 3.46935 82.8085 3.49274 82.7471C3.51612 82.6858 3.55159 82.63 3.59692 82.5834C3.64224 82.5368 3.69645 82.5003 3.75614 82.4763C3.81582 82.4522 3.8797 82.4411 3.94375 82.4437C4.00781 82.4462 4.07066 82.4624 4.12837 82.4911C4.18607 82.5198 4.23738 82.5604 4.27908 82.6105L5.93954 84.3131C5.95025 84.325 5.96319 84.3345 5.97758 84.3411C5.99197 84.3476 6.00752 84.3512 6.02326 84.3514C6.03832 84.3511 6.05314 84.3475 6.06677 84.3409C6.0804 84.3343 6.09251 84.3248 6.10233 84.3131L7.76279 82.6105C7.80449 82.5604 7.8558 82.5198 7.91351 82.4911C7.97121 82.4624 8.03406 82.4462 8.09812 82.4437C8.16217 82.4411 8.22605 82.4522 8.28574 82.4763C8.34542 82.5003 8.39963 82.5368 8.44496 82.5834C8.49028 82.63 8.52575 82.6858 8.54914 82.7471C8.57252 82.8085 8.58331 82.8742 8.58084 82.94C8.57837 83.0059 8.56268 83.0705 8.53476 83.1299C8.50684 83.1892 8.4673 83.242 8.41861 83.2848L6.7628 84.9922C6.75167 85.003 6.74281 85.0159 6.73675 85.0303C6.73069 85.0447 6.72756 85.0602 6.72756 85.0759C6.72756 85.0916 6.73069 85.1071 6.73675 85.1215C6.74281 85.1359 6.75167 85.1489 6.7628 85.1596V85.174ZM9.72093 80.7453C9.72093 80.8721 9.67193 80.9938 9.5847 81.0835C9.49748 81.1732 9.37917 81.2235 9.25582 81.2235H6.23256L6.09303 81.0848C6.00319 80.9829 5.94397 80.8564 5.92251 80.7206C5.90105 80.5848 5.91827 80.4456 5.9721 80.3196L6.25582 79.7409C6.32417 79.6168 6.42175 79.5124 6.53959 79.4372C6.65743 79.362 6.79176 79.3184 6.93024 79.3105H9.25582C9.37917 79.3105 9.49748 79.3609 9.5847 79.4506C9.67193 79.5403 9.72093 79.6619 9.72093 79.7888V80.7453Z" fill="#111111"/>
</g>
<g id="Size=16px, Filled=true">
<path id="Vector_9" d="M36.9614 76.0001H32.3102C32.0401 76.0095 31.7769 76.0909 31.5465 76.2362C31.3161 76.3815 31.1262 76.5858 30.9955 76.829L29.687 79.5201C29.6341 79.6039 29.5639 79.6748 29.4814 79.7277C29.3988 79.7806 29.306 79.8142 29.2095 79.8261H26.1087C25.9042 79.8261 25.7079 79.9092 25.5627 80.0574C25.4175 80.2055 25.3352 80.4066 25.3335 80.6169V89.5444C25.3327 89.6915 25.3602 89.8373 25.4143 89.9734C25.4685 90.1095 25.5483 90.2333 25.6492 90.3376C25.75 90.4419 25.87 90.5247 26.002 90.5812C26.1341 90.6377 26.2757 90.6667 26.4188 90.6667H37.5816C37.87 90.665 38.146 90.5461 38.3493 90.3358C38.5527 90.1255 38.6668 89.841 38.6668 89.5444V77.7473C38.6652 77.2833 38.4848 76.8389 38.1651 76.5114C37.8455 76.1839 37.4126 76.0001 36.9614 76.0001ZM33.0172 85.5653L35.225 87.8227C35.3405 87.9421 35.4053 88.1038 35.4053 88.2722C35.4053 88.4407 35.3405 88.6023 35.225 88.7218C35.1088 88.8406 34.9516 88.9072 34.7878 88.9072C34.6239 88.9072 34.4667 88.8406 34.3506 88.7218L32.1242 86.4517C32.1111 86.436 32.095 86.4234 32.0768 86.4146C32.0586 86.4058 32.0389 86.401 32.0188 86.4006C31.9978 86.4009 31.9771 86.4056 31.9579 86.4144C31.9387 86.4231 31.9214 86.4358 31.9071 86.4517L29.7056 88.7218C29.5901 88.8396 29.4342 88.906 29.2715 88.9067C29.1899 88.9072 29.109 88.8911 29.0334 88.8594C28.9579 88.8277 28.8891 88.7809 28.8312 88.7218C28.7157 88.6023 28.6508 88.4407 28.6508 88.2722C28.6508 88.1038 28.7157 87.9421 28.8312 87.8227L31.0451 85.5461C31.0722 85.5156 31.0871 85.4758 31.0871 85.4346C31.0871 85.3933 31.0722 85.3535 31.0451 85.323L28.8312 83.0464C28.7663 82.9893 28.7135 82.9189 28.6763 82.8398C28.6391 82.7607 28.6182 82.6745 28.6149 82.5867C28.6116 82.4989 28.626 82.4113 28.6571 82.3295C28.6883 82.2476 28.7356 82.1733 28.7961 82.1112C28.8565 82.049 28.9288 82.0004 29.0083 81.9684C29.0879 81.9363 29.1731 81.9215 29.2585 81.9249C29.3439 81.9283 29.4277 81.9498 29.5047 81.9881C29.5816 82.0263 29.65 82.0806 29.7056 82.1473L31.9196 84.4175C31.9338 84.4333 31.9511 84.446 31.9703 84.4547C31.9895 84.4635 32.0102 84.4682 32.0312 84.4685C32.0513 84.4681 32.071 84.4633 32.0892 84.4545C32.1074 84.4457 32.1235 84.4331 32.1366 84.4175L34.3506 82.1473C34.4062 82.0806 34.4746 82.0263 34.5515 81.9881C34.6284 81.9498 34.7122 81.9283 34.7977 81.9249C34.8831 81.9215 34.9682 81.9363 35.0478 81.9684C35.1274 82.0004 35.1997 82.049 35.2601 82.1112C35.3205 82.1733 35.3678 82.2476 35.399 82.3295C35.4302 82.4113 35.4446 82.4989 35.4413 82.5867C35.438 82.6745 35.4171 82.7607 35.3798 82.8398C35.3426 82.9189 35.2899 82.9893 35.225 83.0464L33.0172 85.323C33.0024 85.3373 32.9906 85.3546 32.9825 85.3738C32.9744 85.3929 32.9702 85.4136 32.9702 85.4346C32.9702 85.4555 32.9744 85.4762 32.9825 85.4954C32.9906 85.5145 33.0024 85.5318 33.0172 85.5461V85.5653ZM36.9614 79.6604C36.9614 79.8295 36.8961 79.9917 36.7798 80.1113C36.6635 80.2308 36.5057 80.298 36.3413 80.298H32.3102L32.1242 80.1131C32.0044 79.9772 31.9255 79.8085 31.8968 79.6275C31.8682 79.4464 31.8912 79.2607 31.963 79.0928L32.3413 78.3212C32.4324 78.1558 32.5625 78.0165 32.7196 77.9162C32.8767 77.8159 33.0558 77.7579 33.2405 77.7473H36.3413C36.5057 77.7473 36.6635 77.8145 36.7798 77.9341C36.8961 78.0537 36.9614 78.2159 36.9614 78.385V79.6604Z" fill="#111111"/>
</g>
<g id="Size=20px, Filled=true">
<path id="Vector_10" d="M68.2014 74.0001H62.3874C62.0498 74.0119 61.7208 74.1136 61.4328 74.2952C61.1447 74.4768 60.9074 74.7322 60.744 75.0363L59.1084 78.4001C59.0422 78.5049 58.9545 78.5935 58.8513 78.6596C58.7482 78.7258 58.6322 78.7678 58.5115 78.7827H54.6355C54.3799 78.7827 54.1346 78.8865 53.9531 79.0717C53.7716 79.2568 53.6686 79.5082 53.6665 79.7711V90.9305C53.6655 91.1144 53.6998 91.2966 53.7676 91.4668C53.8353 91.6369 53.935 91.7916 54.0611 91.922C54.1872 92.0524 54.3371 92.1559 54.5022 92.2265C54.6673 92.2971 54.8443 92.3334 55.0231 92.3334H68.9766C69.3371 92.3313 69.6821 92.1826 69.9363 91.9197C70.1905 91.6568 70.3332 91.3012 70.3332 90.9305V76.1841C70.3311 75.6041 70.1056 75.0486 69.7061 74.6393C69.3065 74.2299 68.7654 74.0001 68.2014 74.0001ZM63.2712 85.9566L66.0309 88.7783C66.1752 88.9277 66.2563 89.1297 66.2563 89.3403C66.2563 89.5509 66.1752 89.7529 66.0309 89.9022C65.8856 90.0507 65.6891 90.134 65.4843 90.134C65.2795 90.134 65.0831 90.0507 64.9378 89.9022L62.1549 87.0646C62.1385 87.045 62.1183 87.0292 62.0956 87.0182C62.0729 87.0072 62.0482 87.0013 62.0231 87.0008C61.9969 87.0011 61.971 87.007 61.947 87.0179C61.923 87.0289 61.9014 87.0448 61.8836 87.0646L59.1316 89.9022C58.9872 90.0495 58.7924 90.1325 58.589 90.1334C58.487 90.134 58.3858 90.1139 58.2914 90.0742C58.197 90.0346 58.111 89.9761 58.0386 89.9022C57.8942 89.7529 57.8132 89.5509 57.8132 89.3403C57.8132 89.1297 57.8942 88.9277 58.0386 88.7783L60.8061 85.9327C60.8398 85.8945 60.8585 85.8448 60.8585 85.7932C60.8585 85.7416 60.8398 85.6918 60.8061 85.6537L58.0386 82.808C57.9575 82.7366 57.8916 82.6486 57.845 82.5497C57.7985 82.4509 57.7724 82.3431 57.7682 82.2334C57.7641 82.1236 57.7821 82.0141 57.8211 81.9118C57.86 81.8095 57.9192 81.7166 57.9947 81.639C58.0702 81.5613 58.1606 81.5005 58.2601 81.4604C58.3595 81.4203 58.466 81.4019 58.5728 81.4061C58.6795 81.4103 58.7843 81.4372 58.8804 81.4851C58.9766 81.5329 59.0621 81.6007 59.1316 81.6841L61.8991 84.5218C61.9169 84.5416 61.9385 84.5575 61.9625 84.5684C61.9865 84.5794 62.0124 84.5852 62.0386 84.5856C62.0637 84.5851 62.0884 84.5791 62.1111 84.5682C62.1338 84.5572 62.154 84.5414 62.1704 84.5218L64.9378 81.6841C65.0073 81.6007 65.0928 81.5329 65.189 81.4851C65.2852 81.4372 65.3899 81.4103 65.4967 81.4061C65.6035 81.4019 65.7099 81.4203 65.8094 81.4604C65.9089 81.5005 65.9992 81.5613 66.0748 81.639C66.1503 81.7166 66.2094 81.8095 66.2484 81.9118C66.2874 82.0141 66.3054 82.1236 66.3012 82.2334C66.2971 82.3431 66.271 82.4509 66.2244 82.5497C66.1779 82.6486 66.112 82.7366 66.0309 82.808L63.2712 85.6537C63.2526 85.6716 63.2378 85.6932 63.2277 85.7172C63.2176 85.7412 63.2124 85.767 63.2124 85.7932C63.2124 85.8193 63.2176 85.8452 63.2277 85.8692C63.2378 85.8932 63.2526 85.9148 63.2712 85.9327V85.9566ZM68.2014 78.5754C68.2014 78.7868 68.1197 78.9896 67.9743 79.1391C67.829 79.2885 67.6318 79.3725 67.4262 79.3725H62.3874L62.1549 79.1414C62.0052 78.9715 61.9065 78.7606 61.8707 78.5343C61.8349 78.308 61.8636 78.0759 61.9533 77.866L62.4262 76.9015C62.5401 76.6947 62.7028 76.5206 62.8992 76.3953C63.0956 76.2699 63.3194 76.1973 63.5502 76.1841H67.4262C67.6318 76.1841 67.829 76.2681 67.9743 76.4176C68.1197 76.5671 68.2014 76.7698 68.2014 76.9812V78.5754Z" fill="#111111"/>
</g>
<g id="Size=24px, Filled=true">
<path id="Vector_11" d="M103.442 72.0001H96.4651C96.0599 72.0143 95.6652 72.1363 95.3195 72.3542C94.9739 72.5722 94.6891 72.8786 94.493 73.2435L92.5303 77.2801C92.4509 77.4059 92.3456 77.5122 92.2218 77.5916C92.098 77.6709 91.9588 77.7213 91.814 77.7392H87.1628C86.856 77.7392 86.5617 77.8638 86.3439 78.086C86.1261 78.3082 86.0025 78.6098 86 78.9253V92.3166C85.9988 92.5372 86.04 92.7559 86.1213 92.9601C86.2025 93.1643 86.3222 93.35 86.4735 93.5064C86.6248 93.6629 86.8047 93.787 87.0028 93.8717C87.2009 93.9565 87.4134 94.0001 87.6279 94.0001H104.372C104.805 93.9975 105.219 93.8191 105.524 93.5036C105.829 93.1882 106 92.7614 106 92.3166V74.6209C105.998 73.925 105.727 73.2583 105.247 72.7671C104.768 72.2759 104.119 72.0001 103.442 72.0001ZM97.5256 86.3479L100.837 89.734C101.01 89.9132 101.108 90.1556 101.108 90.4083C101.108 90.661 101.01 90.9035 100.837 91.0827C100.663 91.2608 100.427 91.3608 100.181 91.3608C99.9356 91.3608 99.6999 91.2608 99.5256 91.0827L96.1861 87.6775C96.1664 87.654 96.1422 87.635 96.1149 87.6218C96.0877 87.6086 96.058 87.6015 96.0279 87.6009C95.9964 87.6014 95.9653 87.6084 95.9366 87.6215C95.9078 87.6347 95.8819 87.6537 95.8605 87.6775L92.5582 91.0827C92.3849 91.2594 92.151 91.359 91.907 91.3601C91.7846 91.3608 91.6632 91.3367 91.5499 91.2891C91.4365 91.2415 91.3335 91.1713 91.2465 91.0827C91.0733 90.9035 90.976 90.661 90.976 90.4083C90.976 90.1556 91.0733 89.9132 91.2465 89.734L94.5675 86.3192C94.608 86.2734 94.6304 86.2137 94.6304 86.1518C94.6304 86.0899 94.608 86.0302 94.5675 85.9844L91.2465 82.5696C91.1492 82.4839 91.0701 82.3784 91.0142 82.2597C90.9584 82.141 90.927 82.0118 90.9221 81.88C90.9171 81.7483 90.9387 81.6169 90.9855 81.4942C91.0322 81.3714 91.1032 81.26 91.1938 81.1667C91.2845 81.0735 91.3929 81.0006 91.5123 80.9525C91.6316 80.9044 91.7594 80.8822 91.8875 80.8873C92.0156 80.8924 92.1413 80.9246 92.2567 80.9821C92.3721 81.0395 92.4748 81.1208 92.5582 81.2209L95.8791 84.6261C95.9005 84.6499 95.9264 84.6689 95.9552 84.6821C95.9839 84.6952 96.015 84.7022 96.0465 84.7027C96.0766 84.7021 96.1063 84.695 96.1335 84.6818C96.1608 84.6686 96.185 84.6496 96.2047 84.6261L99.5256 81.2209C99.609 81.1208 99.7116 81.0395 99.827 80.9821C99.9424 80.9246 100.068 80.8924 100.196 80.8873C100.324 80.8822 100.452 80.9044 100.571 80.9525C100.691 81.0006 100.799 81.0735 100.89 81.1667C100.981 81.26 101.052 81.3714 101.098 81.4942C101.145 81.6169 101.167 81.7483 101.162 81.88C101.157 82.0118 101.125 82.141 101.07 82.2597C101.014 82.3784 100.935 82.4839 100.837 82.5696L97.5256 85.9844C97.5033 86.0059 97.4856 86.0318 97.4735 86.0606C97.4614 86.0894 97.4551 86.1204 97.4551 86.1518C97.4551 86.1832 97.4614 86.2142 97.4735 86.243C97.4856 86.2718 97.5033 86.2977 97.5256 86.3192V86.3479ZM103.442 77.4905C103.442 77.7442 103.344 77.9875 103.169 78.1669C102.995 78.3462 102.758 78.447 102.512 78.447H96.4651L96.1861 78.1696C96.0064 77.9658 95.8879 77.7128 95.845 77.4412C95.8021 77.1696 95.8365 76.8911 95.9442 76.6392L96.5116 75.4818C96.6483 75.2336 96.8435 75.0247 97.0792 74.8743C97.3149 74.7239 97.5835 74.6368 97.8605 74.6209H102.512C102.758 74.6209 102.995 74.7217 103.169 74.9011C103.344 75.0805 103.442 75.3238 103.442 75.5775V77.4905Z" fill="#111111"/>
</g>
<g id="Size=32px, Filled=true">
<path id="Vector_12" d="M145.922 68.0001H136.62C136.08 68.019 135.553 68.1817 135.093 68.4723C134.632 68.7629 134.252 69.1714 133.991 69.658L131.374 75.0401C131.268 75.2078 131.127 75.3496 130.962 75.4554C130.797 75.5612 130.612 75.6284 130.418 75.6522H124.217C123.808 75.6522 123.415 75.8184 123.125 76.1146C122.835 76.4109 122.67 76.8131 122.667 77.2337V95.0888C122.665 95.3829 122.72 95.6745 122.828 95.9468C122.937 96.219 123.096 96.4666 123.298 96.6752C123.5 96.8838 123.739 97.0493 124.004 97.1623C124.268 97.2753 124.551 97.3334 124.837 97.3334H147.163C147.739 97.33 148.291 97.0921 148.698 96.6715C149.105 96.2509 149.333 95.6819 149.333 95.0888V71.4946C149.33 70.5666 148.969 69.6778 148.33 69.0228C147.69 68.3678 146.825 68.0001 145.922 68.0001ZM138.034 87.1305L142.449 91.6453C142.68 91.8842 142.81 92.2075 142.81 92.5444C142.81 92.8813 142.68 93.2046 142.449 93.4435C142.217 93.6811 141.903 93.8144 141.575 93.8144C141.247 93.8144 140.933 93.6811 140.701 93.4435L136.248 88.9033C136.222 88.8719 136.189 88.8467 136.153 88.8291C136.117 88.8115 136.077 88.802 136.037 88.8012C135.995 88.8018 135.954 88.8111 135.915 88.8287C135.877 88.8462 135.842 88.8716 135.814 88.9033L131.411 93.4435C131.18 93.6792 130.868 93.812 130.542 93.8134C130.379 93.8144 130.217 93.7822 130.066 93.7187C129.915 93.6553 129.778 93.5617 129.662 93.4435C129.431 93.2046 129.301 92.8813 129.301 92.5444C129.301 92.2075 129.431 91.8842 129.662 91.6453L134.09 87.0922C134.144 87.0312 134.174 86.9516 134.174 86.869C134.174 86.7865 134.144 86.7069 134.09 86.6459L129.662 82.0928C129.532 81.9785 129.427 81.8378 129.352 81.6796C129.278 81.5213 129.236 81.349 129.229 81.1733C129.223 80.9977 129.251 80.8226 129.314 80.6589C129.376 80.4952 129.471 80.3466 129.592 80.2223C129.712 80.098 129.857 80.0008 130.016 79.9366C130.175 79.8725 130.346 79.8429 130.517 79.8497C130.687 79.8565 130.855 79.8995 131.009 79.9761C131.163 80.0526 131.3 80.161 131.411 80.2946L135.839 84.8348C135.867 84.8665 135.902 84.8919 135.94 84.9094C135.978 84.927 136.02 84.9363 136.062 84.9369C136.102 84.9361 136.142 84.9266 136.178 84.909C136.214 84.8914 136.247 84.8662 136.273 84.8348L140.701 80.2946C140.812 80.161 140.949 80.0526 141.103 79.9761C141.256 79.8995 141.424 79.8565 141.595 79.8497C141.766 79.8429 141.936 79.8725 142.095 79.9366C142.254 80.0008 142.399 80.098 142.52 80.2223C142.641 80.3466 142.735 80.4952 142.798 80.6589C142.86 80.8226 142.889 80.9977 142.882 81.1733C142.875 81.349 142.834 81.5213 142.759 81.6796C142.685 81.8378 142.579 81.9785 142.449 82.0928L138.034 86.6459C138.004 86.6745 137.981 86.7091 137.964 86.7474C137.948 86.7858 137.94 86.8272 137.94 86.869C137.94 86.9109 137.948 86.9523 137.964 86.9907C137.981 87.029 138.004 87.0636 138.034 87.0922V87.1305ZM145.922 75.3206C145.922 75.6589 145.792 75.9833 145.559 76.2225C145.326 76.4616 145.011 76.596 144.682 76.596H136.62L136.248 76.2261C136.008 75.9543 135.85 75.617 135.793 75.2549C135.736 74.8928 135.782 74.5214 135.925 74.1856L136.682 72.6424C136.864 72.3115 137.125 72.0329 137.439 71.8324C137.753 71.6318 138.111 71.5157 138.48 71.4946H144.682C145.011 71.4946 145.326 71.6289 145.559 71.8681C145.792 72.1073 145.922 72.4317 145.922 72.7699V75.3206Z" fill="#111111"/>
</g>
<g id="Size=40px, Filled=true">
<path id="Vector_13" d="M196.403 64.0001H184.775C184.1 64.0237 183.442 64.2271 182.866 64.5904C182.29 64.9536 181.815 65.4643 181.489 66.0725L178.217 72.8001C178.085 73.0098 177.909 73.187 177.703 73.3192C177.497 73.4515 177.265 73.5355 177.023 73.5653H169.272C168.76 73.5653 168.27 73.773 167.907 74.1433C167.544 74.5136 167.338 75.0163 167.334 75.5421V97.8609C167.331 98.2286 167.4 98.5931 167.536 98.9335C167.671 99.2738 167.871 99.5832 168.123 99.844C168.375 100.105 168.675 100.312 169.005 100.453C169.335 100.594 169.689 100.667 170.047 100.667H197.954C198.675 100.663 199.365 100.365 199.873 99.8393C200.381 99.3136 200.667 98.6023 200.667 97.8609V68.3682C200.663 67.2082 200.212 66.0972 199.413 65.2785C198.613 64.4598 197.531 64.0001 196.403 64.0001ZM186.543 87.9131L192.062 93.5566C192.351 93.8553 192.513 94.2593 192.513 94.6805C192.513 95.1017 192.351 95.5057 192.062 95.8044C191.772 96.1013 191.379 96.268 190.969 96.268C190.56 96.268 190.167 96.1013 189.876 95.8044L184.31 90.129C184.278 90.0899 184.237 90.0583 184.192 90.0363C184.146 90.0144 184.097 90.0025 184.047 90.0015C183.994 90.0022 183.942 90.0139 183.894 90.0358C183.846 90.0578 183.803 90.0895 183.768 90.129L178.264 95.8044C177.975 96.0989 177.585 96.265 177.178 96.2667C176.974 96.2679 176.772 96.2277 176.583 96.1484C176.394 96.0691 176.223 95.9522 176.078 95.8044C175.789 95.5057 175.627 95.1017 175.627 94.6805C175.627 94.2593 175.789 93.8553 176.078 93.5566L181.613 87.8653C181.68 87.789 181.718 87.6895 181.718 87.5863C181.718 87.4831 181.68 87.3836 181.613 87.3073L176.078 81.616C175.915 81.4731 175.784 81.2972 175.691 81.0994C175.597 80.9017 175.545 80.6862 175.537 80.4667C175.529 80.2471 175.565 80.0282 175.643 79.8236C175.721 79.619 175.839 79.4332 175.99 79.2779C176.141 79.1225 176.322 79.0009 176.521 78.9208C176.72 78.8406 176.932 78.8036 177.146 78.8121C177.36 78.8206 177.569 78.8744 177.761 78.9701C177.954 79.0658 178.125 79.2013 178.264 79.3682L183.799 85.0435C183.834 85.0831 183.877 85.1148 183.925 85.1368C183.973 85.1587 184.025 85.1704 184.078 85.1711C184.128 85.1701 184.177 85.1582 184.223 85.1362C184.268 85.1143 184.309 85.0827 184.341 85.0435L189.876 79.3682C190.015 79.2013 190.186 79.0658 190.379 78.9701C190.571 78.8744 190.78 78.8206 190.994 78.8121C191.207 78.8036 191.42 78.8406 191.619 78.9208C191.818 79.0009 191.999 79.1225 192.15 79.2779C192.301 79.4332 192.419 79.619 192.497 79.8236C192.575 80.0282 192.611 80.2471 192.603 80.4667C192.595 80.6862 192.542 80.9017 192.449 81.0994C192.356 81.2972 192.224 81.4731 192.062 81.616L186.543 87.3073C186.506 87.3431 186.476 87.3863 186.456 87.4343C186.436 87.4823 186.425 87.534 186.425 87.5863C186.425 87.6386 186.436 87.6903 186.456 87.7383C186.476 87.7863 186.506 87.8295 186.543 87.8653V87.9131ZM196.403 73.1508C196.403 73.5736 196.24 73.9791 195.949 74.2781C195.658 74.577 195.264 74.745 194.853 74.745H184.775L184.31 74.2827C184.011 73.9429 183.813 73.5212 183.742 73.0686C183.67 72.616 183.728 72.1518 183.907 71.7319L184.853 69.803C185.081 69.3893 185.406 69.0412 185.799 68.7905C186.192 68.5398 186.639 68.3946 187.101 68.3682H194.853C195.264 68.3682 195.658 68.5361 195.949 68.8351C196.24 69.1341 196.403 69.5396 196.403 69.9624V73.1508Z" fill="#111111"/>
</g>
<g id="Size=48px, Filled=true">
<path id="Vector_14" d="M254.884 60.0001H240.93C240.12 60.0285 239.33 60.2725 238.639 60.7084C237.948 61.1443 237.378 61.7571 236.986 62.487L233.061 70.5601C232.902 70.8117 232.691 71.0244 232.444 71.1831C232.196 71.3417 231.918 71.4425 231.628 71.4783H222.326C221.712 71.4783 221.123 71.7276 220.688 72.1719C220.252 72.6163 220.005 73.2196 220 73.8505V100.633C219.998 101.074 220.08 101.512 220.243 101.92C220.405 102.329 220.644 102.7 220.947 103.013C221.25 103.326 221.609 103.574 222.006 103.743C222.402 103.913 222.827 104 223.256 104H256.744C257.609 103.995 258.437 103.638 259.048 103.007C259.658 102.376 260 101.523 260 100.633V65.2418C259.995 63.8498 259.454 62.5166 258.495 61.5342C257.536 60.5517 256.237 60.0001 254.884 60.0001ZM243.051 88.6957L249.674 95.4679C250.021 95.8263 250.215 96.3112 250.215 96.8166C250.215 97.322 250.021 97.8068 249.674 98.1653C249.326 98.5216 248.854 98.7216 248.363 98.7216C247.871 98.7216 247.4 98.5216 247.051 98.1653L240.372 91.3548C240.333 91.3079 240.284 91.27 240.23 91.2436C240.175 91.2172 240.116 91.203 240.056 91.2018C239.993 91.2027 239.931 91.2167 239.873 91.243C239.816 91.2693 239.764 91.3073 239.721 91.3548L233.116 98.1653C232.77 98.5187 232.302 98.718 231.814 98.7201C231.569 98.7215 231.326 98.6733 231.1 98.5781C230.873 98.4829 230.667 98.3426 230.493 98.1653C230.147 97.8068 229.952 97.322 229.952 96.8166C229.952 96.3112 230.147 95.8263 230.493 95.4679L237.135 88.6383C237.216 88.5467 237.261 88.4274 237.261 88.3035C237.261 88.1797 237.216 88.0603 237.135 87.9688L230.493 81.1392C230.298 80.9677 230.14 80.7567 230.028 80.5193C229.917 80.282 229.854 80.0235 229.844 79.76C229.834 79.4965 229.877 79.2338 229.971 78.9883C230.064 78.7428 230.206 78.5199 230.388 78.3334C230.569 78.147 230.786 78.0011 231.025 77.9049C231.263 77.8088 231.519 77.7644 231.775 77.7745C232.031 77.7847 232.283 77.8492 232.513 77.9641C232.744 78.0789 232.95 78.2415 233.116 78.4418L239.758 85.2522C239.801 85.2997 239.853 85.3378 239.91 85.3641C239.968 85.3904 240.03 85.4044 240.093 85.4053C240.153 85.4041 240.213 85.3899 240.267 85.3635C240.322 85.3371 240.37 85.2992 240.409 85.2522L247.051 78.4418C247.218 78.2415 247.423 78.0789 247.654 77.9641C247.885 77.8492 248.136 77.7847 248.392 77.7745C248.649 77.7644 248.904 77.8088 249.143 77.9049C249.382 78.0011 249.599 78.147 249.78 78.3334C249.961 78.5199 250.103 78.7428 250.197 78.9883C250.29 79.2338 250.333 79.4965 250.323 79.76C250.313 80.0235 250.251 80.282 250.139 80.5193C250.027 80.7567 249.869 80.9677 249.674 81.1392L243.051 87.9688C243.007 88.0117 242.971 88.0636 242.947 88.1211C242.923 88.1787 242.91 88.2408 242.91 88.3035C242.91 88.3663 242.923 88.4284 242.947 88.4859C242.971 88.5435 243.007 88.5954 243.051 88.6383V88.6957ZM254.884 70.9809C254.884 71.4883 254.688 71.9749 254.339 72.3337C253.99 72.6924 253.517 72.894 253.023 72.894H240.93L240.372 72.3392C240.013 71.9314 239.776 71.4255 239.69 70.8823C239.604 70.3392 239.673 69.7821 239.888 69.2783L241.023 66.9635C241.297 66.4672 241.687 66.0494 242.158 65.7486C242.63 65.4477 243.167 65.2735 243.721 65.2418H253.023C253.517 65.2418 253.99 65.4434 254.339 65.8021C254.688 66.1609 254.884 66.6475 254.884 67.1548V70.9809Z" fill="#111111"/>
</g>
</g>
</g>
<defs>
<clipPath id="clip0_2415_959">
<rect width="264" height="108" rx="5" fill="white"/>
</clipPath>
<clipPath id="clip1_2415_959">
<rect width="12" height="12" fill="white" transform="translate(0 18)"/>
</clipPath>
<clipPath id="clip2_2415_959">
<rect width="16" height="16" fill="white" transform="translate(24 16)"/>
</clipPath>
<clipPath id="clip3_2415_959">
<rect width="20" height="20" fill="white" transform="translate(52 14)"/>
</clipPath>
<clipPath id="clip4_2415_959">
<rect width="24" height="24" fill="white" transform="translate(84 12)"/>
</clipPath>
</defs>
</svg>
