<svg width="264" height="108" viewBox="0 0 264 108" fill="none" xmlns="http://www.w3.org/2000/svg">
<g id="Location target">
<g clip-path="url(#clip0_8960_393)">
<g id="Size=12px, Filled=false" clip-path="url(#clip1_8960_393)">
<path id="Vector" d="M1.5 24C1.5 25.1935 1.97411 26.3381 2.81802 27.182C3.66193 28.0259 4.80653 28.5 6 28.5M1.5 24C1.5 22.8065 1.97411 21.6619 2.81802 20.818C3.66193 19.9741 4.80653 19.5 6 19.5M1.5 24H0.375M6 28.5C7.19347 28.5 8.33807 28.0259 9.18198 27.182C10.0259 26.3381 10.5 25.1935 10.5 24M6 28.5V29.625M10.5 24C10.5 22.8065 10.0259 21.6619 9.18198 20.818C8.33807 19.9741 7.19347 19.5 6 19.5M10.5 24H11.625M6 19.5V18.375M4.5 24C4.5 24.3978 4.65804 24.7794 4.93934 25.0607C5.22064 25.342 5.60218 25.5 6 25.5C6.39782 25.5 6.77936 25.342 7.06066 25.0607C7.34196 24.7794 7.5 24.3978 7.5 24C7.5 23.6022 7.34196 23.2206 7.06066 22.9393C6.77936 22.658 6.39782 22.5 6 22.5C5.60218 22.5 5.22064 22.658 4.93934 22.9393C4.65804 23.2206 4.5 23.6022 4.5 24Z" stroke="#111111" stroke-width="0.75" stroke-linecap="round" stroke-linejoin="round"/>
</g>
<g id="Size=16px, Filled=false" clip-path="url(#clip2_8960_393)">
<path id="Vector_2" d="M26 24C26 25.5913 26.6321 27.1174 27.7574 28.2426C28.8826 29.3679 30.4087 30 32 30M26 24C26 22.4087 26.6321 20.8826 27.7574 19.7574C28.8826 18.6321 30.4087 18 32 18M26 24H24.5M32 30C33.5913 30 35.1174 29.3679 36.2426 28.2426C37.3679 27.1174 38 25.5913 38 24M32 30V31.5M38 24C38 22.4087 37.3679 20.8826 36.2426 19.7574C35.1174 18.6321 33.5913 18 32 18M38 24H39.5M32 18V16.5M30 24C30 24.5304 30.2107 25.0391 30.5858 25.4142C30.9609 25.7893 31.4696 26 32 26C32.5304 26 33.0391 25.7893 33.4142 25.4142C33.7893 25.0391 34 24.5304 34 24C34 23.4696 33.7893 22.9609 33.4142 22.5858C33.0391 22.2107 32.5304 22 32 22C31.4696 22 30.9609 22.2107 30.5858 22.5858C30.2107 22.9609 30 23.4696 30 24Z" stroke="#111111" stroke-linecap="round" stroke-linejoin="round"/>
</g>
<g id="Size=20px, Filled=false" clip-path="url(#clip3_8960_393)">
<path id="Vector_3" d="M54.5 24C54.5 25.9891 55.2902 27.8968 56.6967 29.3033C58.1032 30.7098 60.0109 31.5 62 31.5M54.5 24C54.5 22.0109 55.2902 20.1032 56.6967 18.6967C58.1032 17.2902 60.0109 16.5 62 16.5M54.5 24H52.625M62 31.5C63.9891 31.5 65.8968 30.7098 67.3033 29.3033C68.7098 27.8968 69.5 25.9891 69.5 24M62 31.5V33.375M69.5 24C69.5 22.0109 68.7098 20.1032 67.3033 18.6967C65.8968 17.2902 63.9891 16.5 62 16.5M69.5 24H71.375M62 16.5V14.625M59.5 24C59.5 24.663 59.7634 25.2989 60.2322 25.7678C60.7011 26.2366 61.337 26.5 62 26.5C62.663 26.5 63.2989 26.2366 63.7678 25.7678C64.2366 25.2989 64.5 24.663 64.5 24C64.5 23.337 64.2366 22.7011 63.7678 22.2322C63.2989 21.7634 62.663 21.5 62 21.5C61.337 21.5 60.7011 21.7634 60.2322 22.2322C59.7634 22.7011 59.5 23.337 59.5 24Z" stroke="#111111" stroke-width="1.25" stroke-linecap="round" stroke-linejoin="round"/>
</g>
<g id="Size=24px, Filled=false" clip-path="url(#clip4_8960_393)">
<path id="Vector_4" d="M87 24C87 26.3869 87.9482 28.6761 89.636 30.364C91.3239 32.0518 93.6131 33 96 33M87 24C87 21.6131 87.9482 19.3239 89.636 17.636C91.3239 15.9482 93.6131 15 96 15M87 24H84.75M96 33C98.3869 33 100.676 32.0518 102.364 30.364C104.052 28.6761 105 26.3869 105 24M96 33V35.25M105 24C105 21.6131 104.052 19.3239 102.364 17.636C100.676 15.9482 98.3869 15 96 15M105 24H107.25M96 15V12.75M93 24C93 24.7956 93.3161 25.5587 93.8787 26.1213C94.4413 26.6839 95.2044 27 96 27C96.7956 27 97.5587 26.6839 98.1213 26.1213C98.6839 25.5587 99 24.7956 99 24C99 23.2044 98.6839 22.4413 98.1213 21.8787C97.5587 21.3161 96.7956 21 96 21C95.2044 21 94.4413 21.3161 93.8787 21.8787C93.3161 22.4413 93 23.2044 93 24Z" stroke="#111111" stroke-width="1.5" stroke-linecap="round" stroke-linejoin="round"/>
</g>
<g id="Size=32px, Filled=false" clip-path="url(#clip5_8960_393)">
<path id="Vector_5" d="M124 24C124 27.1826 125.264 30.2348 127.515 32.4853C129.765 34.7357 132.817 36 136 36M124 24C124 20.8174 125.264 17.7652 127.515 15.5147C129.765 13.2643 132.817 12 136 12M124 24H121M136 36C139.183 36 142.235 34.7357 144.485 32.4853C146.736 30.2348 148 27.1826 148 24M136 36V39M148 24C148 20.8174 146.736 17.7652 144.485 15.5147C142.235 13.2643 139.183 12 136 12M148 24H151M136 12V9M132 24C132 25.0609 132.421 26.0783 133.172 26.8284C133.922 27.5786 134.939 28 136 28C137.061 28 138.078 27.5786 138.828 26.8284C139.579 26.0783 140 25.0609 140 24C140 22.9391 139.579 21.9217 138.828 21.1716C138.078 20.4214 137.061 20 136 20C134.939 20 133.922 20.4214 133.172 21.1716C132.421 21.9217 132 22.9391 132 24Z" stroke="#111111" stroke-width="2" stroke-linecap="round" stroke-linejoin="round"/>
</g>
<g id="Size=40px, Filled=false" clip-path="url(#clip6_8960_393)">
<path id="Vector_6" d="M169 24C169 27.9782 170.58 31.7936 173.393 34.6066C176.206 37.4196 180.022 39 184 39M169 24C169 20.0218 170.58 16.2064 173.393 13.3934C176.206 10.5804 180.022 9 184 9M169 24H165.25M184 39C187.978 39 191.794 37.4196 194.607 34.6066C197.42 31.7936 199 27.9782 199 24M184 39V42.75M199 24C199 20.0218 197.42 16.2064 194.607 13.3934C191.794 10.5804 187.978 9 184 9M199 24H202.75M184 9V5.25M179 24C179 25.3261 179.527 26.5979 180.464 27.5355C181.402 28.4732 182.674 29 184 29C185.326 29 186.598 28.4732 187.536 27.5355C188.473 26.5979 189 25.3261 189 24C189 22.6739 188.473 21.4021 187.536 20.4645C186.598 19.5268 185.326 19 184 19C182.674 19 181.402 19.5268 180.464 20.4645C179.527 21.4021 179 22.6739 179 24Z" stroke="#111111" stroke-width="2.5" stroke-linecap="round" stroke-linejoin="round"/>
</g>
<g id="Size=48px, Filled=false" clip-path="url(#clip7_8960_393)">
<path id="Vector_7" d="M222 24C222 28.7739 223.896 33.3523 227.272 36.7279C230.648 40.1036 235.226 42 240 42M222 24C222 19.2261 223.896 14.6477 227.272 11.2721C230.648 7.89642 235.226 6 240 6M222 24H217.5M240 42C244.774 42 249.352 40.1036 252.728 36.7279C256.104 33.3523 258 28.7739 258 24M240 42V46.5M258 24C258 19.2261 256.104 14.6477 252.728 11.2721C249.352 7.89642 244.774 6 240 6M258 24H262.5M240 6V1.5M234 24C234 25.5913 234.632 27.1174 235.757 28.2426C236.883 29.3679 238.409 30 240 30C241.591 30 243.117 29.3679 244.243 28.2426C245.368 27.1174 246 25.5913 246 24C246 22.4087 245.368 20.8826 244.243 19.7574C243.117 18.6321 241.591 18 240 18C238.409 18 236.883 18.6321 235.757 19.7574C234.632 20.8826 234 22.4087 234 24Z" stroke="#111111" stroke-width="3" stroke-linecap="round" stroke-linejoin="round"/>
</g>
<g id="Size=12px, Filled=true" clip-path="url(#clip8_8960_393)">
<g id="Vector_8">
<path d="M4.93934 85.0607C4.65804 84.7794 4.5 84.3978 4.5 84C4.5 83.6022 4.65804 83.2206 4.93934 82.9393C5.22064 82.658 5.60218 82.5 6 82.5C6.39782 82.5 6.77936 82.658 7.06066 82.9393C7.34196 83.2206 7.5 83.6022 7.5 84C7.5 84.3978 7.34196 84.7794 7.06066 85.0607C6.77936 85.342 6.39782 85.5 6 85.5C5.60218 85.5 5.22064 85.342 4.93934 85.0607Z" fill="#111111"/>
<path fill-rule="evenodd" clip-rule="evenodd" d="M6.375 78.375C6.375 78.1679 6.20711 78 6 78C5.79289 78 5.625 78.1679 5.625 78.375V79.5156C4.56887 79.6039 3.57309 80.0629 2.81802 80.818C2.06295 81.5731 1.60392 82.5689 1.51564 83.625H0.375C0.167893 83.625 0 83.7929 0 84C0 84.2071 0.167893 84.375 0.375 84.375H1.51564C1.60392 85.4311 2.06295 86.4269 2.81802 87.182C3.57309 87.9371 4.56887 88.3961 5.625 88.4844V89.625C5.625 89.8321 5.79289 90 6 90C6.20711 90 6.375 89.8321 6.375 89.625V88.4844C7.43113 88.3961 8.42691 87.9371 9.18198 87.182C9.93705 86.4269 10.3961 85.4311 10.4844 84.375H11.625C11.8321 84.375 12 84.2071 12 84C12 83.7929 11.8321 83.625 11.625 83.625H10.4844C10.3961 82.5689 9.93705 81.5731 9.18198 80.818C8.42691 80.0629 7.43113 79.6039 6.375 79.5156V78.375ZM3.5 84C3.5 84.663 3.76339 85.2989 4.23223 85.7678C4.70107 86.2366 5.33696 86.5 6 86.5C6.66304 86.5 7.29893 86.2366 7.76777 85.7678C8.23661 85.2989 8.5 84.663 8.5 84C8.5 83.337 8.23661 82.7011 7.76777 82.2322C7.29893 81.7634 6.66304 81.5 6 81.5C5.33696 81.5 4.70107 81.7634 4.23223 82.2322C3.76339 82.7011 3.5 83.337 3.5 84Z" fill="#111111"/>
</g>
</g>
<g id="Size=16px, Filled=true" clip-path="url(#clip9_8960_393)">
<g id="Vector_9">
<path d="M30.5858 85.4142C30.2107 85.0391 30 84.5304 30 84C30 83.4696 30.2107 82.9609 30.5858 82.5858C30.9609 82.2107 31.4696 82 32 82C32.5304 82 33.0391 82.2107 33.4142 82.5858C33.7893 82.9609 34 83.4696 34 84C34 84.5304 33.7893 85.0391 33.4142 85.4142C33.0391 85.7893 32.5304 86 32 86C31.4696 86 30.9609 85.7893 30.5858 85.4142Z" fill="#111111"/>
<path fill-rule="evenodd" clip-rule="evenodd" d="M32.5 76.5C32.5 76.2239 32.2761 76 32 76C31.7239 76 31.5 76.2239 31.5 76.5V78.0209C30.0918 78.1386 28.7641 78.7506 27.7574 79.7574C26.7506 80.7641 26.1386 82.0918 26.0209 83.5H24.5C24.2239 83.5 24 83.7239 24 84C24 84.2761 24.2239 84.5 24.5 84.5H26.0209C26.1386 85.9082 26.7506 87.2359 27.7574 88.2426C28.7641 89.2494 30.0918 89.8614 31.5 89.9791V91.5C31.5 91.7761 31.7239 92 32 92C32.2761 92 32.5 91.7761 32.5 91.5V89.9791C33.9082 89.8614 35.2359 89.2494 36.2426 88.2426C37.2494 87.2359 37.8614 85.9082 37.9791 84.5H39.5C39.7761 84.5 40 84.2761 40 84C40 83.7239 39.7761 83.5 39.5 83.5H37.9791C37.8614 82.0918 37.2494 80.7641 36.2426 79.7574C35.2359 78.7506 33.9082 78.1386 32.5 78.0209V76.5ZM28.6667 84C28.6667 84.8841 29.0179 85.7319 29.643 86.357C30.2681 86.9821 31.1159 87.3333 32 87.3333C32.8841 87.3333 33.7319 86.9821 34.357 86.357C34.9821 85.7319 35.3333 84.8841 35.3333 84C35.3333 83.1159 34.9821 82.2681 34.357 81.643C33.7319 81.0179 32.8841 80.6667 32 80.6667C31.1159 80.6667 30.2681 81.0179 29.643 81.643C29.0179 82.2681 28.6667 83.1159 28.6667 84Z" fill="#111111"/>
</g>
</g>
<g id="Size=20px, Filled=true" clip-path="url(#clip10_8960_393)">
<g id="Vector_10">
<path d="M60.2322 85.7678C59.7634 85.2989 59.5 84.663 59.5 84C59.5 83.337 59.7634 82.7011 60.2322 82.2322C60.7011 81.7634 61.337 81.5 62 81.5C62.663 81.5 63.2989 81.7634 63.7678 82.2322C64.2366 82.7011 64.5 83.337 64.5 84C64.5 84.663 64.2366 85.2989 63.7678 85.7678C63.2989 86.2366 62.663 86.5 62 86.5C61.337 86.5 60.7011 86.2366 60.2322 85.7678Z" fill="#111111"/>
<path fill-rule="evenodd" clip-rule="evenodd" d="M62.625 74.625C62.625 74.2798 62.3452 74 62 74C61.6548 74 61.375 74.2798 61.375 74.625V76.5261C59.6148 76.6732 57.9552 77.4382 56.6967 78.6967C55.4382 79.9552 54.6732 81.6148 54.5261 83.375H52.625C52.2798 83.375 52 83.6548 52 84C52 84.3452 52.2798 84.625 52.625 84.625H54.5261C54.6732 86.3852 55.4382 88.0448 56.6967 89.3033C57.9552 90.5618 59.6148 91.3268 61.375 91.4739V93.375C61.375 93.7202 61.6548 94 62 94C62.3452 94 62.625 93.7202 62.625 93.375V91.4739C64.3852 91.3268 66.0448 90.5618 67.3033 89.3033C68.5618 88.0448 69.3268 86.3852 69.4739 84.625H71.375C71.7202 84.625 72 84.3452 72 84C72 83.6548 71.7202 83.375 71.375 83.375H69.4739C69.3268 81.6148 68.5618 79.9552 67.3033 78.6967C66.0448 77.4382 64.3852 76.6732 62.625 76.5261V74.625ZM57.8333 84C57.8333 85.1051 58.2723 86.1649 59.0537 86.9463C59.8351 87.7277 60.8949 88.1667 62 88.1667C63.1051 88.1667 64.1649 87.7277 64.9463 86.9463C65.7277 86.1649 66.1667 85.1051 66.1667 84C66.1667 82.8949 65.7277 81.8351 64.9463 81.0537C64.1649 80.2723 63.1051 79.8333 62 79.8333C60.8949 79.8333 59.8351 80.2723 59.0537 81.0537C58.2723 81.8351 57.8333 82.8949 57.8333 84Z" fill="#111111"/>
</g>
</g>
<g id="Size=24px, Filled=true" clip-path="url(#clip11_8960_393)">
<g id="Vector_11">
<path d="M93.8787 86.1213C93.3161 85.5587 93 84.7956 93 84C93 83.2044 93.3161 82.4413 93.8787 81.8787C94.4413 81.3161 95.2044 81 96 81C96.7956 81 97.5587 81.3161 98.1213 81.8787C98.6839 82.4413 99 83.2044 99 84C99 84.7956 98.6839 85.5587 98.1213 86.1213C97.5587 86.6839 96.7956 87 96 87C95.2044 87 94.4413 86.6839 93.8787 86.1213Z" fill="#111111"/>
<path fill-rule="evenodd" clip-rule="evenodd" d="M96.75 72.75C96.75 72.3358 96.4142 72 96 72C95.5858 72 95.25 72.3358 95.25 72.75V75.0313C93.1377 75.2078 91.1462 76.1259 89.636 77.636C88.1259 79.1462 87.2078 81.1377 87.0313 83.25H84.75C84.3358 83.25 84 83.5858 84 84C84 84.4142 84.3358 84.75 84.75 84.75H87.0313C87.2078 86.8623 88.1259 88.8538 89.636 90.364C91.1462 91.8741 93.1377 92.7922 95.25 92.9687V95.25C95.25 95.6642 95.5858 96 96 96C96.4142 96 96.75 95.6642 96.75 95.25V92.9687C98.8623 92.7922 100.854 91.8741 102.364 90.364C103.874 88.8538 104.792 86.8623 104.969 84.75H107.25C107.664 84.75 108 84.4142 108 84C108 83.5858 107.664 83.25 107.25 83.25H104.969C104.792 81.1377 103.874 79.1462 102.364 77.636C100.854 76.1259 98.8623 75.2078 96.75 75.0313V72.75ZM91 84C91 85.3261 91.5268 86.5979 92.4645 87.5355C93.4021 88.4732 94.6739 89 96 89C97.3261 89 98.5979 88.4732 99.5355 87.5355C100.473 86.5979 101 85.3261 101 84C101 82.6739 100.473 81.4021 99.5355 80.4645C98.5979 79.5268 97.3261 79 96 79C94.6739 79 93.4021 79.5268 92.4645 80.4645C91.5268 81.4021 91 82.6739 91 84Z" fill="#111111"/>
</g>
</g>
<g id="Size=32px, Filled=true" clip-path="url(#clip12_8960_393)">
<g id="Vector_12">
<path d="M133.172 86.8284C132.421 86.0783 132 85.0609 132 84C132 82.9391 132.421 81.9217 133.172 81.1716C133.922 80.4214 134.939 80 136 80C137.061 80 138.078 80.4214 138.828 81.1716C139.579 81.9217 140 82.9391 140 84C140 85.0609 139.579 86.0783 138.828 86.8284C138.078 87.5786 137.061 88 136 88C134.939 88 133.922 87.5786 133.172 86.8284Z" fill="#111111"/>
<path fill-rule="evenodd" clip-rule="evenodd" d="M137 69C137 68.4477 136.552 68 136 68C135.448 68 135 68.4477 135 69V72.0417C132.184 72.2771 129.528 73.5012 127.515 75.5147C125.501 77.5282 124.277 80.1837 124.042 83H121C120.448 83 120 83.4477 120 84C120 84.5523 120.448 85 121 85H124.042C124.277 87.8163 125.501 90.4718 127.515 92.4853C129.528 94.4988 132.184 95.7229 135 95.9583V99C135 99.5523 135.448 100 136 100C136.552 100 137 99.5523 137 99V95.9583C139.816 95.7229 142.472 94.4988 144.485 92.4853C146.499 90.4718 147.723 87.8163 147.958 85H151C151.552 85 152 84.5523 152 84C152 83.4477 151.552 83 151 83H147.958C147.723 80.1837 146.499 77.5282 144.485 75.5147C142.472 73.5012 139.816 72.2771 137 72.0417V69ZM129.333 84C129.333 85.7681 130.036 87.4638 131.286 88.714C132.536 89.9643 134.232 90.6667 136 90.6667C137.768 90.6667 139.464 89.9643 140.714 88.714C141.964 87.4638 142.667 85.7681 142.667 84C142.667 82.2319 141.964 80.5362 140.714 79.286C139.464 78.0357 137.768 77.3333 136 77.3333C134.232 77.3333 132.536 78.0357 131.286 79.286C130.036 80.5362 129.333 82.2319 129.333 84Z" fill="#111111"/>
</g>
</g>
<g id="Size=40px, Filled=true" clip-path="url(#clip13_8960_393)">
<g id="Vector_13">
<path d="M180.464 87.5355C179.527 86.5979 179 85.3261 179 84C179 82.6739 179.527 81.4021 180.464 80.4645C181.402 79.5268 182.674 79 184 79C185.326 79 186.598 79.5268 187.536 80.4645C188.473 81.4021 189 82.6739 189 84C189 85.3261 188.473 86.5979 187.536 87.5355C186.598 88.4732 185.326 89 184 89C182.674 89 181.402 88.4732 180.464 87.5355Z" fill="#111111"/>
<path fill-rule="evenodd" clip-rule="evenodd" d="M185.25 65.25C185.25 64.5596 184.69 64 184 64C183.31 64 182.75 64.5596 182.75 65.25V69.0521C179.23 69.3464 175.91 70.8765 173.393 73.3934C170.876 75.9103 169.346 79.2296 169.052 82.75H165.25C164.56 82.75 164 83.3096 164 84C164 84.6904 164.56 85.25 165.25 85.25H169.052C169.346 88.7704 170.876 92.0897 173.393 94.6066C175.91 97.1235 179.23 98.6536 182.75 98.9479V102.75C182.75 103.44 183.31 104 184 104C184.69 104 185.25 103.44 185.25 102.75V98.9479C188.77 98.6536 192.09 97.1235 194.607 94.6066C197.124 92.0897 198.654 88.7704 198.948 85.25H202.75C203.44 85.25 204 84.6904 204 84C204 83.3096 203.44 82.75 202.75 82.75H198.948C198.654 79.2296 197.124 75.9103 194.607 73.3934C192.09 70.8765 188.77 69.3464 185.25 69.0521V65.25ZM175.667 84C175.667 86.2101 176.545 88.3298 178.107 89.8926C179.67 91.4554 181.79 92.3333 184 92.3333C186.21 92.3333 188.33 91.4554 189.893 89.8926C191.455 88.3298 192.333 86.2101 192.333 84C192.333 81.7899 191.455 79.6702 189.893 78.1074C188.33 76.5446 186.21 75.6667 184 75.6667C181.79 75.6667 179.67 76.5446 178.107 78.1074C176.545 79.6702 175.667 81.7899 175.667 84Z" fill="#111111"/>
</g>
</g>
<g id="Size=48px, Filled=true" clip-path="url(#clip14_8960_393)">
<g id="Vector_14">
<path d="M235.757 88.2426C234.632 87.1174 234 85.5913 234 84C234 82.4087 234.632 80.8826 235.757 79.7574C236.883 78.6321 238.409 78 240 78C241.591 78 243.117 78.6321 244.243 79.7574C245.368 80.8826 246 82.4087 246 84C246 85.5913 245.368 87.1174 244.243 88.2426C243.117 89.3679 241.591 90 240 90C238.409 90 236.883 89.3679 235.757 88.2426Z" fill="#111111"/>
<path fill-rule="evenodd" clip-rule="evenodd" d="M241.5 61.5C241.5 60.6716 240.828 60 240 60C239.172 60 238.5 60.6716 238.5 61.5V66.0626C234.275 66.4157 230.292 68.2518 227.272 71.2721C224.252 74.2924 222.416 78.2755 222.063 82.5H217.5C216.672 82.5 216 83.1716 216 84C216 84.8284 216.672 85.5 217.5 85.5H222.063C222.416 89.7245 224.252 93.7076 227.272 96.7279C230.292 99.7482 234.275 101.584 238.5 101.937V106.5C238.5 107.328 239.172 108 240 108C240.828 108 241.5 107.328 241.5 106.5V101.937C245.725 101.584 249.708 99.7482 252.728 96.7279C255.748 93.7076 257.584 89.7245 257.937 85.5H262.5C263.328 85.5 264 84.8284 264 84C264 83.1716 263.328 82.5 262.5 82.5H257.937C257.584 78.2755 255.748 74.2924 252.728 71.2721C249.708 68.2518 245.725 66.4157 241.5 66.0626V61.5ZM230 84C230 86.6522 231.054 89.1957 232.929 91.0711C234.804 92.9464 237.348 94 240 94C242.652 94 245.196 92.9464 247.071 91.0711C248.946 89.1957 250 86.6522 250 84C250 81.3478 248.946 78.8043 247.071 76.9289C245.196 75.0536 242.652 74 240 74C237.348 74 234.804 75.0536 232.929 76.9289C231.054 78.8043 230 81.3478 230 84Z" fill="#111111"/>
</g>
</g>
</g>
</g>
<defs>
<clipPath id="clip0_8960_393">
<rect width="264" height="108" rx="5" fill="white"/>
</clipPath>
<clipPath id="clip1_8960_393">
<rect width="12" height="12" fill="white" transform="translate(0 18)"/>
</clipPath>
<clipPath id="clip2_8960_393">
<rect width="16" height="16" fill="white" transform="translate(24 16)"/>
</clipPath>
<clipPath id="clip3_8960_393">
<rect width="20" height="20" fill="white" transform="translate(52 14)"/>
</clipPath>
<clipPath id="clip4_8960_393">
<rect width="24" height="24" fill="white" transform="translate(84 12)"/>
</clipPath>
<clipPath id="clip5_8960_393">
<rect width="32" height="32" fill="white" transform="translate(120 8)"/>
</clipPath>
<clipPath id="clip6_8960_393">
<rect width="40" height="40" fill="white" transform="translate(164 4)"/>
</clipPath>
<clipPath id="clip7_8960_393">
<rect width="48" height="48" fill="white" transform="translate(216)"/>
</clipPath>
<clipPath id="clip8_8960_393">
<rect width="12" height="12" fill="white" transform="translate(0 78)"/>
</clipPath>
<clipPath id="clip9_8960_393">
<rect width="16" height="16" fill="white" transform="translate(24 76)"/>
</clipPath>
<clipPath id="clip10_8960_393">
<rect width="20" height="20" fill="white" transform="translate(52 74)"/>
</clipPath>
<clipPath id="clip11_8960_393">
<rect width="24" height="24" fill="white" transform="translate(84 72)"/>
</clipPath>
<clipPath id="clip12_8960_393">
<rect width="32" height="32" fill="white" transform="translate(120 68)"/>
</clipPath>
<clipPath id="clip13_8960_393">
<rect width="40" height="40" fill="white" transform="translate(164 64)"/>
</clipPath>
<clipPath id="clip14_8960_393">
<rect width="48" height="48" fill="white" transform="translate(216 60)"/>
</clipPath>
</defs>
</svg>
