<svg width="264" height="108" viewBox="0 0 264 108" fill="none" xmlns="http://www.w3.org/2000/svg">
<g id="Map pin">
<g clip-path="url(#clip0_1126_878)">
<g id="Size=12px, Filled=false">
<g id="Vector">
<path fill-rule="evenodd" clip-rule="evenodd" d="M5.9166 24.3666C7.1316 24.3666 8.11656 23.3816 8.11656 22.1666C8.11656 20.9516 7.1316 19.9666 5.9166 19.9666C4.70159 19.9666 3.71664 20.9516 3.71664 22.1666C3.71664 23.3816 4.70159 24.3666 5.9166 24.3666Z" stroke="#111111" stroke-width="0.75" stroke-linecap="round" stroke-linejoin="round"/>
<path fill-rule="evenodd" clip-rule="evenodd" d="M5.9166 18.5C7.9416 18.5 9.5832 20.1416 9.5832 22.1666C9.5832 23.8322 7.10262 28.0087 6.22215 29.336C6.15422 29.4384 6.03949 29.5 5.9166 29.5C5.7937 29.5 5.67898 29.4384 5.61105 29.336C4.73058 28.0087 2.25 23.8322 2.25 22.1666C2.25 20.1416 3.89159 18.5 5.9166 18.5Z" stroke="#111111" stroke-width="0.75" stroke-linecap="round" stroke-linejoin="round"/>
</g>
</g>
<g id="Size=16px, Filled=false">
<g id="Vector_2">
<path fill-rule="evenodd" clip-rule="evenodd" d="M32 24.5C33.6569 24.5 35 23.1569 35 21.5C35 19.8431 33.6569 18.5 32 18.5C30.3431 18.5 29 19.8431 29 21.5C29 23.1569 30.3431 24.5 32 24.5Z" stroke="#111111" stroke-linecap="round" stroke-linejoin="round"/>
<path fill-rule="evenodd" clip-rule="evenodd" d="M32 16.5C34.7614 16.5 37 18.7386 37 21.5C37 23.7713 33.6173 29.4667 32.4167 31.2767C32.324 31.4163 32.1676 31.5003 32 31.5003C31.8324 31.5003 31.676 31.4163 31.5833 31.2767C30.3827 29.4667 27 23.7713 27 21.5C27 18.7386 29.2386 16.5 32 16.5Z" stroke="#111111" stroke-linecap="round" stroke-linejoin="round"/>
</g>
</g>
<g id="Size=20px, Filled=false">
<g id="Vector_3">
<path fill-rule="evenodd" clip-rule="evenodd" d="M61.9966 24.5665C64.04 24.5665 65.6966 22.91 65.6966 20.8666C65.6966 18.8231 64.04 17.1666 61.9966 17.1666C59.9532 17.1666 58.2967 18.8231 58.2967 20.8666C58.2967 22.91 59.9532 24.5665 61.9966 24.5665Z" stroke="#111111" stroke-width="1.25" stroke-linecap="round" stroke-linejoin="round"/>
<path fill-rule="evenodd" clip-rule="evenodd" d="M61.9966 14.7C65.4023 14.7 68.1632 17.4609 68.1632 20.8666C68.1632 23.6678 63.9913 30.6919 62.5105 32.9242C62.3963 33.0965 62.2033 33.2 61.9966 33.2C61.7899 33.2 61.597 33.0965 61.4828 32.9242C60.002 30.6919 55.8301 23.6678 55.8301 20.8666C55.8301 17.4609 58.5909 14.7 61.9966 14.7Z" stroke="#111111" stroke-width="1.25" stroke-linecap="round" stroke-linejoin="round"/>
</g>
</g>
<g id="Size=24px, Filled=false">
<g id="Vector_4">
<path fill-rule="evenodd" clip-rule="evenodd" d="M96 24C98.2091 24 100 22.2091 100 20C100 17.7909 98.2091 16 96 16C93.7909 16 92 17.7909 92 20C92 22.2091 93.7909 24 96 24Z" stroke="#111111" stroke-width="1.5" stroke-linecap="round" stroke-linejoin="round"/>
<path fill-rule="evenodd" clip-rule="evenodd" d="M96 13C99.866 13 103 16.2832 103 20.3332C103 23.6644 98.2643 32.0174 96.5833 34.672C96.4536 34.8769 96.2346 35 96 35C95.7654 35 95.5464 34.8769 95.4167 34.672C93.7357 32.0174 89 23.6644 89 20.3332C89 16.2832 92.134 13 96 13Z" stroke="#111111" stroke-width="1.5" stroke-linecap="round" stroke-linejoin="round"/>
</g>
</g>
<g id="Size=32px, Filled=false">
<g id="Vector_5">
<path fill-rule="evenodd" clip-rule="evenodd" d="M136 25C139.314 25 142 22.3137 142 19C142 15.6863 139.314 13 136 13C132.686 13 130 15.6863 130 19C130 22.3137 132.686 25 136 25Z" stroke="#111111" stroke-width="2" stroke-linecap="round" stroke-linejoin="round"/>
<path fill-rule="evenodd" clip-rule="evenodd" d="M136 9C141.523 9 146 13.4772 146 19C146 23.5427 139.235 34.9333 136.833 38.5533C136.648 38.8326 136.335 39.0006 136 39.0006C135.665 39.0006 135.352 38.8326 135.167 38.5533C132.765 34.9333 126 23.5427 126 19C126 13.4772 130.477 9 136 9Z" stroke="#111111" stroke-width="2" stroke-linecap="round" stroke-linejoin="round"/>
</g>
</g>
<g id="Size=40px, Filled=false">
<g id="Vector_6">
<path fill-rule="evenodd" clip-rule="evenodd" d="M184 25.25C188.142 25.25 191.5 21.8921 191.5 17.75C191.5 13.6079 188.142 10.25 184 10.25C179.858 10.25 176.5 13.6079 176.5 17.75C176.5 21.8921 179.858 25.25 184 25.25Z" stroke="#111111" stroke-width="2.5" stroke-linecap="round" stroke-linejoin="round"/>
<path fill-rule="evenodd" clip-rule="evenodd" d="M184 5.25C190.904 5.25 196.5 10.8464 196.5 17.75C196.5 23.4283 188.043 37.6667 185.042 42.1917C184.81 42.5408 184.419 42.7507 184 42.7507C183.581 42.7507 183.19 42.5408 182.958 42.1917C179.957 37.6667 171.5 23.4283 171.5 17.75C171.5 10.8464 177.096 5.25 184 5.25Z" stroke="#111111" stroke-width="2.5" stroke-linecap="round" stroke-linejoin="round"/>
</g>
</g>
<g id="Size=48px, Filled=false">
<g id="Vector_7">
<path fill-rule="evenodd" clip-rule="evenodd" d="M240 25.5C244.971 25.5 249 21.4706 249 16.5C249 11.5294 244.971 7.5 240 7.5C235.029 7.5 231 11.5294 231 16.5C231 21.4706 235.029 25.5 240 25.5Z" stroke="#111111" stroke-width="3" stroke-linecap="round" stroke-linejoin="round"/>
<path fill-rule="evenodd" clip-rule="evenodd" d="M240 1.5C248.284 1.5 255 8.21573 255 16.5C255 23.314 244.852 40.4 241.25 45.83C240.972 46.249 240.503 46.5008 240 46.5008C239.497 46.5008 239.028 46.249 238.75 45.83C235.148 40.4 225 23.314 225 16.5C225 8.21573 231.716 1.5 240 1.5Z" stroke="#111111" stroke-width="3" stroke-linecap="round" stroke-linejoin="round"/>
</g>
</g>
<g id="Size=12px, Filled=true">
<path id="Vector_8" d="M6 78C4.93913 78 3.92172 78.4215 3.17157 79.1719C2.42143 79.9223 2 80.94 2 82.0011C2 83.7566 4.5 88.0028 5.575 89.7633C5.61984 89.8357 5.68241 89.8954 5.75679 89.9368C5.83116 89.9783 5.91488 90 6 90C6.08512 90 6.16884 89.9783 6.24321 89.9368C6.31759 89.8954 6.38016 89.8357 6.425 89.7633C7.5 88.0028 10 83.7566 10 82.0011C10 80.94 9.57857 79.9223 8.82843 79.1719C8.07828 78.4215 7.06087 78 6 78ZM6 83.7516C5.65388 83.7516 5.31554 83.649 5.02775 83.4566C4.73997 83.2643 4.51566 82.9909 4.38321 82.671C4.25076 82.3512 4.2161 81.9992 4.28363 81.6596C4.35115 81.3201 4.51782 81.0082 4.76256 80.7633C5.00731 80.5185 5.31912 80.3518 5.65859 80.2843C5.99806 80.2167 6.34993 80.2514 6.6697 80.3839C6.98947 80.5164 7.26278 80.7407 7.45507 81.0286C7.64736 81.3165 7.75 81.6549 7.75 82.0011C7.75 82.4654 7.56563 82.9106 7.23744 83.2389C6.90925 83.5672 6.46413 83.7516 6 83.7516Z" fill="#111111"/>
</g>
<g id="Size=16px, Filled=true">
<path id="Vector_9" d="M31.9998 76C30.5853 76 29.2288 76.5621 28.2286 77.5625C27.2284 78.563 26.6665 79.92 26.6665 81.3348C26.6665 83.6755 29.9998 89.3371 31.4332 91.6844C31.493 91.7809 31.5764 91.8606 31.6756 91.9158C31.7747 91.971 31.8863 92 31.9998 92C32.1133 92 32.225 91.971 32.3241 91.9158C32.4233 91.8606 32.5067 91.7809 32.5665 91.6844C33.9998 89.3371 37.3332 83.6755 37.3332 81.3348C37.3332 79.92 36.7713 78.563 35.7711 77.5625C34.7709 76.5621 33.4143 76 31.9998 76ZM31.9998 83.6688C31.5383 83.6688 31.0872 83.5319 30.7035 83.2755C30.3198 83.019 30.0207 82.6545 29.8441 82.228C29.6675 81.8015 29.6213 81.3323 29.7113 80.8795C29.8014 80.4268 30.0236 80.0109 30.3499 79.6845C30.6762 79.358 31.092 79.1358 31.5446 79.0457C31.9972 78.9556 32.4664 79.0019 32.8928 79.1785C33.3191 79.3552 33.6835 79.6543 33.9399 80.0381C34.1963 80.422 34.3332 80.8732 34.3332 81.3348C34.3332 81.9539 34.0873 82.5475 33.6498 82.9852C33.2122 83.4229 32.6187 83.6688 31.9998 83.6688Z" fill="#111111"/>
</g>
<g id="Size=20px, Filled=true">
<path id="Vector_10" d="M62.0002 74C60.2321 74 58.5364 74.7026 57.2861 75.9532C56.0359 77.2038 55.3335 78.8999 55.3335 80.6686C55.3335 83.5944 59.5002 90.6714 61.2918 93.6055C61.3666 93.7262 61.4709 93.8257 61.5948 93.8947C61.7188 93.9638 61.8583 94 62.0002 94C62.142 94 62.2816 93.9638 62.4055 93.8947C62.5295 93.8257 62.6338 93.7262 62.7085 93.6055C64.5002 90.6714 68.6668 83.5944 68.6668 80.6686C68.6668 78.8999 67.9645 77.2038 66.7142 75.9532C65.464 74.7026 63.7683 74 62.0002 74ZM62.0002 83.586C61.4233 83.586 60.8594 83.4149 60.3797 83.0944C59.9001 82.7738 59.5263 82.3181 59.3055 81.785C59.0848 81.2519 59.027 80.6653 59.1395 80.0994C59.2521 79.5334 59.5299 79.0136 59.9378 78.6056C60.3457 78.1976 60.8654 77.9197 61.4311 77.8071C61.9969 77.6945 62.5834 77.7523 63.1163 77.9731C63.6493 78.194 64.1048 78.5679 64.4253 79.0477C64.7458 79.5275 64.9168 80.0915 64.9168 80.6686C64.9168 81.4423 64.6095 82.1844 64.0626 82.7315C63.5156 83.2787 62.7737 83.586 62.0002 83.586Z" fill="#111111"/>
</g>
<g id="Size=24px, Filled=true">
<path id="Vector_11" d="M96 72C93.8783 72 91.8434 72.8431 90.3431 74.3438C88.8429 75.8445 88 77.8799 88 80.0023C88 83.5133 93 92.0057 95.15 95.5266C95.2397 95.6714 95.3648 95.7908 95.5136 95.8737C95.6623 95.9565 95.8298 96 96 96C96.1702 96 96.3377 95.9565 96.4864 95.8737C96.6352 95.7908 96.7603 95.6714 96.85 95.5266C99 92.0057 104 83.5133 104 80.0023C104 77.8799 103.157 75.8445 101.657 74.3438C100.157 72.8431 98.1217 72 96 72ZM96 83.5033C95.3078 83.5033 94.6311 83.2979 94.0555 82.9132C93.4799 82.5285 93.0313 81.9818 92.7664 81.342C92.5015 80.7023 92.4322 79.9984 92.5673 79.3193C92.7023 78.6401 93.0356 78.0163 93.5251 77.5267C94.0146 77.0371 94.6382 76.7036 95.3172 76.5685C95.9961 76.4335 96.6999 76.5028 97.3394 76.7678C97.9789 77.0328 98.5256 77.4815 98.9101 78.0572C99.2947 78.633 99.5 79.3098 99.5 80.0023C99.5 80.9308 99.1313 81.8213 98.4749 82.4778C97.8185 83.1344 96.9283 83.5033 96 83.5033Z" fill="#111111"/>
</g>
<g id="Size=32px, Filled=true">
<path id="Vector_12" d="M136 68C133.171 68 130.458 69.1241 128.458 71.1251C126.457 73.126 125.333 75.8399 125.333 78.6697C125.333 83.351 132 94.6742 134.867 99.3689C134.986 99.5619 135.153 99.7211 135.352 99.8316C135.55 99.942 135.773 100 136 100C136.227 100 136.45 99.942 136.649 99.8316C136.847 99.7211 137.014 99.5619 137.133 99.3689C140 94.6742 146.667 83.351 146.667 78.6697C146.667 75.8399 145.543 73.126 143.543 71.1251C141.542 69.1241 138.829 68 136 68ZM136 83.3377C135.077 83.3377 134.175 83.0639 133.408 82.551C132.64 82.038 132.042 81.309 131.689 80.456C131.336 79.6031 131.243 78.6645 131.423 77.759C131.603 76.8535 132.048 76.0217 132.7 75.3689C133.353 74.7161 134.184 74.2715 135.09 74.0914C135.995 73.9113 136.933 74.0037 137.786 74.357C138.639 74.7103 139.368 75.3086 139.88 76.0763C140.393 76.8439 140.667 77.7464 140.667 78.6697C140.667 79.9077 140.175 81.095 139.3 81.9704C138.425 82.8459 137.238 83.3377 136 83.3377Z" fill="#111111"/>
</g>
<g id="Size=40px, Filled=true">
<path id="Vector_13" d="M184 64C180.464 64 177.072 65.4052 174.572 67.9063C172.071 70.4075 170.667 73.7999 170.667 77.3371C170.667 83.1888 179 97.3428 182.583 103.211C182.733 103.452 182.941 103.651 183.189 103.789C183.437 103.928 183.716 104 184 104C184.284 104 184.563 103.928 184.811 103.789C185.058 103.651 185.267 103.452 185.417 103.211C189 97.3428 197.333 83.1888 197.333 77.3371C197.333 73.7999 195.928 70.4075 193.428 67.9063C190.927 65.4052 187.536 64 184 64ZM184 83.1721C182.846 83.1721 181.718 82.8299 180.759 82.1887C179.8 81.5476 179.052 80.6363 178.611 79.5701C178.169 78.5038 178.054 77.3306 178.279 76.1988C178.504 75.0669 179.059 74.0272 179.875 73.2111C180.691 72.3951 181.73 71.8394 182.862 71.6142C183.993 71.3891 185.166 71.5046 186.232 71.9463C187.298 72.3879 188.209 73.1358 188.85 74.0954C189.491 75.0549 189.833 76.1831 189.833 77.3371C189.833 78.8846 189.219 80.3688 188.125 81.4631C187.031 82.5573 185.547 83.1721 184 83.1721Z" fill="#111111"/>
</g>
<g id="Size=48px, Filled=true">
<path id="Vector_14" d="M240 60C235.757 60 231.687 61.6862 228.686 64.6876C225.686 67.689 224 71.7599 224 76.0045C224 83.0265 234 100.011 238.3 107.053C238.479 107.343 238.73 107.582 239.027 107.747C239.325 107.913 239.66 108 240 108C240.34 108 240.675 107.913 240.973 107.747C241.27 107.582 241.521 107.343 241.7 107.053C246 100.011 256 83.0265 256 76.0045C256 71.7599 254.314 67.689 251.314 64.6876C248.313 61.6862 244.243 60 240 60ZM240 83.0065C238.616 83.0065 237.262 82.5958 236.111 81.8265C234.96 81.0571 234.063 79.9635 233.533 78.6841C233.003 77.4046 232.864 75.9968 233.135 74.6385C233.405 73.2803 234.071 72.0326 235.05 71.0534C236.029 70.0741 237.276 69.4073 238.634 69.1371C239.992 68.8669 241.4 69.0056 242.679 69.5355C243.958 70.0655 245.051 70.963 245.82 72.1144C246.589 73.2659 247 74.6197 247 76.0045C247 77.8616 246.263 79.6425 244.95 80.9557C243.637 82.2688 241.857 83.0065 240 83.0065Z" fill="#111111"/>
</g>
</g>
</g>
<defs>
<clipPath id="clip0_1126_878">
<rect width="264" height="108" rx="5" fill="white"/>
</clipPath>
</defs>
</svg>
