<svg width="264" height="108" viewBox="0 0 264 108" fill="none" xmlns="http://www.w3.org/2000/svg">
<g id="Oil change">
<g clip-path="url(#clip0_7887_207)">
<g id="Size=12px, Filled=false">
<path id="Vector" d="M9.07768 22.3699L6.90476 22.9913C6.79365 23.023 6.67655 23.0277 6.56325 23.0049C6.44995 22.9822 6.34375 22.9326 6.25351 22.8604L4.93122 21.8046C4.80285 21.7019 4.64332 21.6458 4.47887 21.6458H1.47415C1.28209 21.6458 1.0979 21.7221 0.962098 21.8579C0.826294 21.9937 0.75 22.1779 0.75 22.3699V24.9045C0.75 25.0965 0.826294 25.2807 0.962098 25.4165C1.0979 25.5523 1.28209 25.6286 1.47415 25.6286H5.12578C5.56685 25.6286 6.0021 25.5279 6.39834 25.3341C6.79458 25.1404 7.14133 24.8587 7.41215 24.5105L9.07768 22.3699ZM9.07768 22.3699L10.1639 22.732M3.64659 20.1975V21.6458M2.19829 20.1975H5.09488M11.25 26.7611C11.25 27.0372 11.1403 27.3019 10.9451 27.4971C10.7499 27.6923 10.4852 27.802 10.2092 27.802C9.93311 27.802 9.66837 27.6923 9.47318 27.4971C9.27798 27.3019 9.16832 27.0372 9.16832 26.7611C9.16832 26.1847 9.86205 25.0261 10.2092 25.0261C10.5563 25.0261 11.25 26.1847 11.25 26.7611Z" stroke="#111111" stroke-width="0.75" stroke-linecap="round" stroke-linejoin="round"/>
</g>
<g id="Size=16px, Filled=false">
<path id="Vector_2" d="M36.1036 21.8266L33.2063 22.655C33.0582 22.6973 32.9021 22.7036 32.751 22.6732C32.5999 22.6429 32.4583 22.5768 32.338 22.4806L30.575 21.0728C30.4038 20.9358 30.1911 20.8611 29.9718 20.861H25.9655C25.7095 20.861 25.4639 20.9628 25.2828 21.1438C25.1017 21.3249 25 21.5705 25 21.8266V25.2059C25 25.462 25.1017 25.7076 25.2828 25.8887C25.4639 26.0697 25.7095 26.1715 25.9655 26.1715H30.8344C31.4225 26.1715 32.0028 26.0372 32.5311 25.7788C33.0594 25.5205 33.5218 25.1449 33.8829 24.6807L36.1036 21.8266ZM36.1036 21.8266L37.5519 22.3093M28.8621 18.93V20.861M26.9311 18.93H30.7932M39 27.6815C39 28.0496 38.8538 28.4026 38.5935 28.6628C38.3333 28.9231 37.9803 29.0693 37.6122 29.0693C37.2441 29.0693 36.8912 28.9231 36.6309 28.6628C36.3706 28.4026 36.2244 28.0496 36.2244 27.6815C36.2244 26.913 37.1494 25.3681 37.6122 25.3681C38.075 25.3681 39 26.913 39 27.6815Z" stroke="#111111" stroke-linecap="round" stroke-linejoin="round"/>
</g>
<g id="Size=20px, Filled=false">
<path id="Vector_3" d="M67.1295 21.2832L63.5079 22.3187C63.3227 22.3716 63.1276 22.3794 62.9388 22.3415C62.7499 22.3036 62.5729 22.221 62.4225 22.1007L60.2187 20.341C60.0047 20.1697 59.7389 20.0764 59.4648 20.0763H54.4569C54.1368 20.0763 53.8298 20.2035 53.6035 20.4298C53.3772 20.6561 53.25 20.9631 53.25 21.2832V25.5074C53.25 25.8275 53.3772 26.1345 53.6035 26.3608C53.8298 26.5871 54.1368 26.7143 54.4569 26.7143H60.543C61.2781 26.7143 62.0035 26.5465 62.6639 26.2235C63.3243 25.9006 63.9022 25.4311 64.3536 24.8508L67.1295 21.2832ZM67.1295 21.2832L68.9398 21.8867M58.0776 17.6625V20.0763M55.6638 17.6625H60.4915M70.75 28.6019C70.75 29.062 70.5672 29.5032 70.2419 29.8285C69.9166 30.1538 69.4753 30.3366 69.0153 30.3366C68.5552 30.3366 68.114 30.1538 67.7886 29.8285C67.4633 29.5032 67.2805 29.062 67.2805 28.6019C67.2805 27.6412 68.4368 25.7101 69.0153 25.7101C69.5938 25.7101 70.75 27.6412 70.75 28.6019Z" stroke="#111111" stroke-width="1.25" stroke-linecap="round" stroke-linejoin="round"/>
</g>
<g id="Size=24px, Filled=false">
<path id="Vector_4" d="M102.155 20.7399L97.8095 21.9825C97.5873 22.046 97.3531 22.0554 97.1265 22.0099C96.8999 21.9643 96.6875 21.8653 96.507 21.7209L93.8624 19.6093C93.6057 19.4037 93.2866 19.2917 92.9577 19.2916H86.9483C86.5642 19.2916 86.1958 19.4442 85.9242 19.7158C85.6526 19.9874 85.5 20.3558 85.5 20.7399V25.8089C85.5 26.193 85.6526 26.5614 85.9242 26.833C86.1958 27.1046 86.5642 27.2572 86.9483 27.2572H94.2516C95.1337 27.2572 96.0042 27.0558 96.7967 26.6683C97.5892 26.2807 98.2827 25.7173 98.8243 25.0211L102.155 20.7399ZM102.155 20.7399L104.328 21.464M91.2932 16.395V19.2916M88.3966 16.395H94.1898M106.5 29.5223C106.5 30.0744 106.281 30.6039 105.89 30.9943C105.5 31.3847 104.97 31.604 104.418 31.604C103.866 31.604 103.337 31.3847 102.946 30.9943C102.556 30.6039 102.337 30.0744 102.337 29.5223C102.337 28.3695 103.724 26.0522 104.418 26.0522C105.113 26.0522 106.5 28.3695 106.5 29.5223Z" stroke="#111111" stroke-width="1.5" stroke-linecap="round" stroke-linejoin="round"/>
</g>
<g id="Size=32px, Filled=false">
<path id="Vector_5" d="M144.207 19.6532L138.413 21.31C138.116 21.3946 137.804 21.4071 137.502 21.3464C137.2 21.2857 136.917 21.1536 136.676 20.9611L133.15 18.1456C132.808 17.8716 132.382 17.7222 131.944 17.7221H123.931C123.419 17.7221 122.928 17.9255 122.566 18.2877C122.203 18.6498 122 19.141 122 19.6532V26.4119C122 26.924 122.203 27.4152 122.566 27.7773C122.928 28.1395 123.419 28.3429 123.931 28.3429H133.669C134.845 28.3429 136.006 28.0744 137.062 27.5577C138.119 27.0409 139.044 26.2897 139.766 25.3614L144.207 19.6532ZM144.207 19.6532L147.104 20.6187M129.724 13.86V17.7221M125.862 13.86H133.586M150 31.363C150 32.0992 149.708 32.8051 149.187 33.3257C148.667 33.8462 147.961 34.1386 147.224 34.1386C146.488 34.1386 145.782 33.8462 145.262 33.3257C144.741 32.8051 144.449 32.0992 144.449 31.363C144.449 29.8259 146.299 26.7362 147.224 26.7362C148.15 26.7362 150 29.8259 150 31.363Z" stroke="#111111" stroke-width="2" stroke-linecap="round" stroke-linejoin="round"/>
</g>
<g id="Size=40px, Filled=false">
<path id="Vector_6" d="M194.259 18.5665L187.016 20.6375C186.645 20.7433 186.255 20.7589 185.878 20.6831C185.5 20.6072 185.146 20.4421 184.845 20.2014L180.437 16.6821C180.009 16.3395 179.478 16.1528 178.93 16.1527H168.914C168.274 16.1527 167.66 16.407 167.207 16.8596C166.754 17.3123 166.5 17.9263 166.5 18.5665V27.0149C166.5 27.655 166.754 28.269 167.207 28.7217C167.66 29.1744 168.274 29.4287 168.914 29.4287H181.086C182.556 29.4287 184.007 29.093 185.328 28.4471C186.649 27.8012 187.804 26.8622 188.707 25.7017L194.259 18.5665ZM194.259 18.5665L197.88 19.7734M176.155 11.325V16.1527M171.328 11.325H180.983M201.5 33.2038C201.5 34.124 201.134 35.0064 200.484 35.6571C199.833 36.3077 198.951 36.6733 198.031 36.6733C197.11 36.6733 196.228 36.3077 195.577 35.6571C194.927 35.0064 194.561 34.124 194.561 33.2038C194.561 31.2824 196.874 27.4203 198.031 27.4203C199.188 27.4203 201.5 31.2824 201.5 33.2038Z" stroke="#111111" stroke-width="2.5" stroke-linecap="round" stroke-linejoin="round"/>
</g>
<g id="Size=48px, Filled=false">
<path id="Vector_7" d="M252.311 17.4797L243.619 19.965C243.175 20.092 242.706 20.1107 242.253 20.0197C241.8 19.9286 241.375 19.7304 241.014 19.4417L235.725 15.2185C235.211 14.8074 234.573 14.5833 233.915 14.5831H221.897C221.128 14.5831 220.392 14.8883 219.848 15.4315C219.305 15.9748 219 16.7115 219 17.4797V27.6178C219 28.386 219.305 29.1228 219.848 29.666C220.392 30.2092 221.128 30.5144 221.897 30.5144H236.503C238.267 30.5144 240.008 30.1115 241.593 29.3365C243.178 28.5614 244.565 27.4346 245.649 26.042L252.311 17.4797ZM252.311 17.4797L256.656 18.928M230.586 8.78998V14.5831M224.793 8.78998H236.38M261 35.0445C261 36.1487 260.561 37.2077 259.781 37.9885C259 38.7693 257.941 39.2079 256.837 39.2079C255.732 39.2079 254.673 38.7693 253.893 37.9885C253.112 37.2077 252.673 36.1487 252.673 35.0445C252.673 32.7389 255.448 28.1043 256.837 28.1043C258.225 28.1043 261 32.7389 261 35.0445Z" stroke="#111111" stroke-width="3" stroke-linecap="round" stroke-linejoin="round"/>
</g>
<g id="Size=12px, Filled=true">
<g id="Vector_8">
<path d="M11.2574 84.504C11.3284 84.4329 11.3682 84.3366 11.3682 84.2363C11.3682 84.1359 11.3284 84.0396 11.2574 83.9685L10.4997 83.2159C10.4561 83.1691 10.4009 83.1347 10.3397 83.116C10.2785 83.0974 10.2135 83.0953 10.1512 83.1098L8.0195 83.5442C7.9908 83.5499 7.961 83.5455 7.9352 83.5317C7.9094 83.5179 7.8892 83.4955 7.87806 83.4684L7.71137 83.0492C7.63095 82.8464 7.49185 82.6722 7.31187 82.5489C7.1319 82.4256 6.91923 82.3589 6.70109 82.3571H5.80699C5.77438 82.3558 5.74354 82.3419 5.72094 82.3184C5.69834 82.2949 5.68573 82.2635 5.68576 82.2308V81.852C5.68573 81.8194 5.69834 81.788 5.72094 81.7644C5.74354 81.7409 5.77438 81.727 5.80699 81.7257H6.1909C6.32487 81.7257 6.45335 81.6725 6.54808 81.5778C6.64281 81.483 6.69603 81.3545 6.69603 81.2206C6.69603 81.0866 6.64281 80.9581 6.54808 80.8634C6.45335 80.7686 6.32487 80.7154 6.1909 80.7154H4.17034C4.03636 80.7154 3.90788 80.7686 3.81315 80.8634C3.71842 80.9581 3.6652 81.0866 3.6652 81.2206C3.6652 81.3545 3.71842 81.483 3.81315 81.5778C3.90788 81.6725 4.03636 81.7257 4.17034 81.7257H4.54414C4.57811 81.7257 4.61078 81.7388 4.63527 81.7624C4.65976 81.7859 4.67417 81.818 4.67548 81.852V82.2308C4.67417 82.2648 4.65976 82.2969 4.63527 82.3205C4.61078 82.344 4.57811 82.3572 4.54414 82.3571H2.48822C2.29705 82.3585 2.11409 82.435 1.9789 82.5702C1.84372 82.7053 1.76719 82.8883 1.76587 83.0795V84.9333C1.76717 85.2527 1.89394 85.5588 2.11883 85.7856C2.34373 86.0124 2.64874 86.1417 2.9681 86.1457H7.03953C7.55088 86.1476 8.04451 85.9584 8.42361 85.6153L10.1108 84.0999C10.135 84.0779 10.1665 84.0657 10.1992 84.0657C10.2319 84.0657 10.2634 84.0779 10.2876 84.0999L10.7018 84.5191C10.739 84.5551 10.783 84.5833 10.8313 84.6021C10.8795 84.6208 10.9311 84.6298 10.9828 84.6284C11.0346 84.6269 11.0855 84.6152 11.1327 84.5939C11.1798 84.5725 11.2222 84.5419 11.2574 84.504Z" fill="#111111"/>
<path d="M1.74567 80.8619C1.65102 80.7678 1.52299 80.715 1.38954 80.715C1.25609 80.715 1.12806 80.7678 1.03342 80.8619L0.149424 81.7459C0.0784916 81.8163 0.0300128 81.9061 0.0101178 82.004C-0.0097772 82.1019 -0.000194926 82.2035 0.037653 82.2959C0.0755008 82.3884 0.139915 82.4675 0.222749 82.5234C0.305584 82.5792 0.403119 82.6093 0.503022 82.6097C0.634457 82.6159 0.763132 82.5706 0.861671 82.4834L1.74567 81.5792C1.79301 81.5323 1.83059 81.4764 1.85624 81.4148C1.88188 81.3533 1.89508 81.2873 1.89508 81.2206C1.89508 81.1539 1.88188 81.0879 1.85624 81.0263C1.83059 80.9647 1.79301 80.9089 1.74567 80.8619Z" fill="#111111"/>
<path d="M11.4241 85.3425C11.3765 85.2928 11.3112 85.2637 11.2423 85.2617C11.2061 85.258 11.1695 85.2635 11.136 85.2776C11.1025 85.2917 11.073 85.314 11.0503 85.3425C10.7459 85.6698 10.5486 86.0822 10.4846 86.5245C10.4911 86.726 10.575 86.9173 10.719 87.0584C10.863 87.1996 11.0558 87.2797 11.2574 87.2822C11.4549 87.2758 11.6423 87.1934 11.7806 87.0523C11.9189 86.9111 11.9975 86.7221 12 86.5245C11.9422 86.0782 11.74 85.6631 11.4241 85.3425Z" fill="#111111"/>
</g>
</g>
<g id="Size=16px, Filled=true">
<g id="Vector_9">
<path d="M39.0099 84.6719C39.1045 84.5772 39.1577 84.4488 39.1577 84.315C39.1577 84.1811 39.1045 84.0527 39.0099 83.958L37.9996 82.9545C37.9415 82.8921 37.8679 82.8462 37.7863 82.8213C37.7047 82.7965 37.618 82.7936 37.5349 82.813L34.6927 83.3922C34.6544 83.3999 34.6147 83.394 34.5803 83.3755C34.5459 83.3571 34.5189 83.3273 34.5041 83.2912L34.2818 82.7322C34.1746 82.4618 33.9891 82.2296 33.7492 82.0652C33.5092 81.9008 33.2256 81.8118 32.9348 81.8095H31.7427C31.6992 81.8077 31.6581 81.7892 31.6279 81.7578C31.5978 81.7264 31.581 81.6846 31.581 81.6411V81.1359C31.581 81.0924 31.5978 81.0506 31.6279 81.0192C31.6581 80.9878 31.6992 80.9693 31.7427 80.9676H32.2545C32.4332 80.9676 32.6045 80.8966 32.7308 80.7703C32.8571 80.644 32.928 80.4727 32.928 80.294C32.928 80.1154 32.8571 79.9441 32.7308 79.8178C32.6045 79.6915 32.4332 79.6205 32.2545 79.6205H29.5604C29.3818 79.6205 29.2105 79.6915 29.0842 79.8178C28.9579 79.9441 28.8869 80.1154 28.8869 80.294C28.8869 80.4727 28.9579 80.644 29.0842 80.7703C29.2105 80.8966 29.3818 80.9676 29.5604 80.9676H30.0589C30.1042 80.9675 30.1477 80.9851 30.1804 81.0165C30.213 81.0479 30.2322 81.0907 30.234 81.1359V81.6411C30.2322 81.6864 30.213 81.7292 30.1804 81.7606C30.1477 81.792 30.1042 81.8095 30.0589 81.8095H27.3176C27.0627 81.8112 26.8188 81.9133 26.6385 82.0935C26.4583 82.2738 26.3563 82.5177 26.3545 82.7726V85.2444C26.3562 85.6703 26.5252 86.0784 26.8251 86.3808C27.125 86.6831 27.5317 86.8556 27.9575 86.8609H33.386C34.0678 86.8634 34.726 86.6112 35.2315 86.1537L37.481 84.1331C37.5133 84.1038 37.5553 84.0875 37.5989 84.0875C37.6425 84.0875 37.6845 84.1038 37.7168 84.1331L38.2691 84.6921C38.3187 84.7401 38.3774 84.7777 38.4417 84.8027C38.5061 84.8277 38.5747 84.8397 38.6437 84.8378C38.7127 84.8359 38.7807 84.8202 38.8436 84.7918C38.9064 84.7633 38.963 84.7225 39.0099 84.6719Z" fill="#111111"/>
<path d="M26.3276 79.8158C26.2014 79.6904 26.0307 79.62 25.8527 79.62C25.6748 79.62 25.5041 79.6904 25.3779 79.8158L24.1992 80.9945C24.1047 81.0883 24.04 81.2081 24.0135 81.3386C23.987 81.4691 23.9997 81.6046 24.0502 81.7279C24.1007 81.8511 24.1866 81.9567 24.297 82.0312C24.4074 82.1056 24.5375 82.1457 24.6707 82.1462C24.8459 82.1545 25.0175 82.0941 25.1489 81.9778L26.3276 80.7722C26.3907 80.7096 26.4408 80.6351 26.475 80.5531C26.5092 80.471 26.5268 80.383 26.5268 80.294C26.5268 80.2051 26.5092 80.1171 26.475 80.035C26.4408 79.953 26.3907 79.8785 26.3276 79.8158Z" fill="#111111"/>
<path d="M39.2322 85.79C39.1686 85.7236 39.0815 85.6849 38.9897 85.6822C38.9414 85.6773 38.8927 85.6846 38.848 85.7034C38.8033 85.7222 38.764 85.752 38.7338 85.79C38.3279 86.2264 38.0647 86.7762 37.9794 87.366C37.9881 87.6347 38.1001 87.8897 38.292 88.0779C38.484 88.2661 38.7411 88.373 39.0099 88.3763C39.2732 88.3676 39.5231 88.2578 39.7075 88.0696C39.8919 87.8815 39.9967 87.6294 40 87.366C39.923 86.7709 39.6533 86.2174 39.2322 85.79Z" fill="#111111"/>
</g>
</g>
<g id="Size=20px, Filled=true">
<g id="Vector_10">
<path d="M70.7624 84.8399C70.8807 84.7215 70.9471 84.5611 70.9471 84.3937C70.9471 84.2264 70.8807 84.0659 70.7624 83.9475L69.4996 82.6931C69.4268 82.6151 69.3348 82.5578 69.2328 82.5267C69.1308 82.4957 69.0225 82.4921 68.9186 82.5163L65.3658 83.2403C65.318 83.2499 65.2683 83.2425 65.2253 83.2194C65.1823 83.1964 65.1487 83.1591 65.1301 83.114L64.8523 82.4153C64.7182 82.0773 64.4864 81.787 64.1865 81.5815C63.8865 81.376 63.5321 81.2647 63.1685 81.2619H61.6783C61.624 81.2597 61.5726 81.2366 61.5349 81.1973C61.4972 81.1581 61.4762 81.1058 61.4763 81.0514V80.42C61.4762 80.3656 61.4972 80.3133 61.5349 80.274C61.5726 80.2348 61.624 80.2117 61.6783 80.2095H62.3182C62.5414 80.2095 62.7556 80.1208 62.9135 79.9629C63.0714 79.805 63.1601 79.5909 63.1601 79.3676C63.1601 79.1443 63.0714 78.9302 62.9135 78.7723C62.7556 78.6144 62.5414 78.5257 62.3182 78.5257H58.9506C58.7273 78.5257 58.5131 78.6144 58.3552 78.7723C58.1974 78.9302 58.1087 79.1443 58.1087 79.3676C58.1087 79.5909 58.1974 79.805 58.3552 79.9629C58.5131 80.1208 58.7273 80.2095 58.9506 80.2095H59.5736C59.6302 80.2094 59.6846 80.2314 59.7254 80.2706C59.7663 80.3098 59.7903 80.3634 59.7925 80.42V81.0514C59.7903 81.108 59.7663 81.1615 59.7254 81.2008C59.6846 81.24 59.6302 81.2619 59.5736 81.2619H56.147C55.8284 81.2641 55.5235 81.3916 55.2982 81.6169C55.0729 81.8422 54.9453 82.1472 54.9431 82.4658V85.5556C54.9453 86.0879 55.1566 86.598 55.5314 86.976C55.9062 87.354 56.4146 87.5695 56.9468 87.5761H63.7325C64.5848 87.5793 65.4075 87.2641 66.0394 86.6921L68.8513 84.1664C68.8916 84.1297 68.9441 84.1094 68.9986 84.1094C69.0531 84.1094 69.1057 84.1297 69.146 84.1664L69.8363 84.8652C69.8983 84.9252 69.9717 84.9722 70.0521 85.0034C70.1326 85.0347 70.2184 85.0496 70.3047 85.0472C70.3909 85.0449 70.4758 85.0253 70.5544 84.9897C70.633 84.9541 70.7038 84.9032 70.7624 84.8399Z" fill="#111111"/>
<path d="M54.9094 78.7698C54.7517 78.613 54.5383 78.525 54.3159 78.525C54.0935 78.525 53.8801 78.613 53.7224 78.7698L52.249 80.2432C52.1308 80.3604 52.05 80.5101 52.0169 80.6733C51.9837 80.8364 51.9997 81.0058 52.0628 81.1599C52.1258 81.314 52.2332 81.4459 52.3712 81.539C52.5093 81.6321 52.6719 81.6821 52.8384 81.6828C53.0574 81.6932 53.2719 81.6177 53.4361 81.4723L54.9094 79.9653C54.9884 79.8871 55.051 79.794 55.0937 79.6914C55.1365 79.5888 55.1585 79.4787 55.1585 79.3676C55.1585 79.2565 55.1365 79.1464 55.0937 79.0438C55.051 78.9412 54.9884 78.8481 54.9094 78.7698Z" fill="#111111"/>
<path d="M71.0402 86.2375C70.9608 86.1546 70.8519 86.1062 70.7372 86.1028C70.6768 86.0966 70.6159 86.1058 70.56 86.1293C70.5041 86.1528 70.455 86.19 70.4172 86.2375C69.9099 86.783 69.5809 87.4702 69.4743 88.2075C69.4851 88.5434 69.6251 88.8621 69.865 89.0974C70.105 89.3326 70.4264 89.4662 70.7624 89.4704C71.0916 89.4596 71.4039 89.3223 71.6344 89.0871C71.8649 88.8519 71.9958 88.5368 72 88.2075C71.9037 87.4637 71.5667 86.7718 71.0402 86.2375Z" fill="#111111"/>
</g>
</g>
<g id="Size=24px, Filled=true">
<g id="Vector_11">
<path d="M106.515 85.0079C106.657 84.8658 106.736 84.6732 106.736 84.4724C106.736 84.2716 106.657 84.0791 106.515 83.937L104.999 82.4317C104.912 82.3381 104.802 82.2693 104.679 82.232C104.557 82.1948 104.427 82.1905 104.302 82.2195L100.039 83.0884C99.9816 83.0998 99.922 83.0909 99.8704 83.0633C99.8188 83.0356 99.7784 82.9909 99.7561 82.9368L99.4227 82.0983C99.2619 81.6927 98.9837 81.3443 98.6237 81.0978C98.2638 80.8512 97.8385 80.7177 97.4022 80.7142H95.614C95.5488 80.7116 95.4871 80.6838 95.4419 80.6367C95.3967 80.5897 95.3715 80.5269 95.3715 80.4616V79.7039C95.3715 79.6387 95.3967 79.5759 95.4419 79.5288C95.4871 79.4817 95.5488 79.454 95.614 79.4514H96.3818C96.6497 79.4514 96.9067 79.3449 97.0962 79.1554C97.2856 78.966 97.3921 78.709 97.3921 78.4411C97.3921 78.1731 97.2856 77.9162 97.0962 77.7267C96.9067 77.5372 96.6497 77.4308 96.3818 77.4308H92.3407C92.0727 77.4308 91.8158 77.5372 91.6263 77.7267C91.4368 77.9162 91.3304 78.1731 91.3304 78.4411C91.3304 78.709 91.4368 78.966 91.6263 79.1554C91.8158 79.3449 92.0727 79.4514 92.3407 79.4514H93.0883C93.1562 79.4513 93.2216 79.4776 93.2705 79.5247C93.3195 79.5718 93.3483 79.636 93.351 79.7039V80.4616C93.3483 80.5295 93.3195 80.5938 93.2705 80.6409C93.2216 80.688 93.1562 80.7143 93.0883 80.7142H88.9764C88.5941 80.7168 88.2282 80.8699 87.9578 81.1403C87.6874 81.4106 87.5344 81.7766 87.5317 82.1589V85.8666C87.5343 86.5054 87.7879 87.1176 88.2377 87.5711C88.6875 88.0247 89.2975 88.2833 89.9362 88.2913H98.0791C99.1018 88.2952 100.089 87.9168 100.847 87.2305L104.222 84.1997C104.27 84.1556 104.333 84.1313 104.398 84.1313C104.464 84.1313 104.527 84.1556 104.575 84.1997L105.404 85.0382C105.478 85.1102 105.566 85.1666 105.663 85.2041C105.759 85.2416 105.862 85.2595 105.966 85.2567C106.069 85.2538 106.171 85.2304 106.265 85.1877C106.36 85.1449 106.444 85.0838 106.515 85.0079Z" fill="#111111"/>
<path d="M87.4913 77.7238C87.302 77.5356 87.046 77.43 86.7791 77.43C86.5122 77.43 86.2561 77.5356 86.0668 77.7238L84.2988 79.4918C84.157 79.6325 84.06 79.8121 84.0202 80.0079C83.9804 80.2037 83.9996 80.4069 84.0753 80.5918C84.151 80.7767 84.2798 80.935 84.4455 81.0467C84.6112 81.1584 84.8062 81.2185 85.006 81.2193C85.2689 81.2318 85.5263 81.1412 85.7233 80.9668L87.4913 79.1584C87.586 79.0645 87.6612 78.9527 87.7125 78.8296C87.7638 78.7065 87.7902 78.5744 87.7902 78.4411C87.7902 78.3077 87.7638 78.1757 87.7125 78.0525C87.6612 77.9294 87.586 77.8177 87.4913 77.7238Z" fill="#111111"/>
<path d="M106.848 86.685C106.753 86.5855 106.622 86.5274 106.485 86.5233C106.412 86.5159 106.339 86.5269 106.272 86.5551C106.205 86.5834 106.146 86.628 106.101 86.685C105.492 87.3395 105.097 88.1642 104.969 89.049C104.982 89.452 105.15 89.8345 105.438 90.1168C105.726 90.3991 106.112 90.5594 106.515 90.5644C106.91 90.5515 107.285 90.3867 107.561 90.1045C107.838 89.8222 107.995 89.4442 108 89.049C107.884 88.1564 107.48 87.3261 106.848 86.685Z" fill="#111111"/>
</g>
</g>
<g id="Size=32px, Filled=true">
<g id="Vector_12">
<path d="M150.02 85.3439C150.209 85.1544 150.315 84.8976 150.315 84.6299C150.315 84.3622 150.209 84.1054 150.02 83.916L147.999 81.9089C147.883 81.7842 147.736 81.6924 147.573 81.6427C147.409 81.593 147.236 81.5873 147.07 81.626L141.385 82.7845C141.309 82.7997 141.229 82.7879 141.161 82.751C141.092 82.7142 141.038 82.6546 141.008 82.5824L140.564 81.4644C140.349 80.9236 139.978 80.4591 139.498 80.1304C139.018 79.8016 138.451 79.6235 137.87 79.6189H135.485C135.398 79.6155 135.316 79.5784 135.256 79.5157C135.196 79.4529 135.162 79.3692 135.162 79.2822V78.2719C135.162 78.1849 135.196 78.1012 135.256 78.0384C135.316 77.9756 135.398 77.9386 135.485 77.9351H136.509C136.866 77.9351 137.209 77.7932 137.462 77.5406C137.714 77.288 137.856 76.9454 137.856 76.5881C137.856 76.2308 137.714 75.8882 137.462 75.6356C137.209 75.383 136.866 75.2411 136.509 75.2411H131.121C130.764 75.2411 130.421 75.383 130.168 75.6356C129.916 75.8882 129.774 76.2308 129.774 76.5881C129.774 76.9454 129.916 77.288 130.168 77.5406C130.421 77.7932 130.764 77.9351 131.121 77.9351H132.118C132.208 77.9351 132.295 77.9701 132.361 78.0329C132.426 78.0957 132.464 78.1814 132.468 78.2719V79.2822C132.464 79.3727 132.426 79.4584 132.361 79.5212C132.295 79.584 132.208 79.619 132.118 79.6189H126.635C126.125 79.6225 125.638 79.8265 125.277 80.187C124.917 80.5475 124.713 81.0354 124.709 81.5452V86.4888C124.712 87.3405 125.05 88.1568 125.65 88.7615C126.25 89.3663 127.063 89.7111 127.915 89.7217H138.772C140.136 89.7269 141.452 89.2224 142.463 88.3073L146.962 84.2662C147.027 84.2075 147.111 84.175 147.198 84.175C147.285 84.175 147.369 84.2075 147.434 84.2662L148.538 85.3843C148.637 85.4802 148.755 85.5554 148.883 85.6055C149.012 85.6555 149.149 85.6793 149.287 85.6755C149.425 85.6718 149.561 85.6405 149.687 85.5835C149.813 85.5266 149.926 85.4451 150.02 85.3439Z" fill="#111111"/>
<path d="M124.655 75.6317C124.403 75.3808 124.061 75.24 123.705 75.24C123.35 75.24 123.008 75.3808 122.756 75.6317L120.398 77.989C120.209 78.1766 120.08 78.4161 120.027 78.6772C119.974 78.9382 119.999 79.2092 120.1 79.4557C120.201 79.7023 120.373 79.9134 120.594 80.0623C120.815 80.2113 121.075 80.2913 121.341 80.2925C121.692 80.3091 122.035 80.1882 122.298 79.9557L124.655 77.5445C124.781 77.4193 124.882 77.2703 124.95 77.1061C125.018 76.942 125.054 76.7659 125.054 76.5881C125.054 76.4103 125.018 76.2342 124.95 76.0701C124.882 75.9059 124.781 75.7569 124.655 75.6317Z" fill="#111111"/>
<path d="M150.464 87.5799C150.337 87.4473 150.163 87.3699 149.979 87.3644C149.883 87.3546 149.785 87.3692 149.696 87.4068C149.607 87.4445 149.528 87.504 149.468 87.5799C148.656 88.4527 148.129 89.5523 147.959 90.732C147.976 91.2694 148.2 91.7794 148.584 92.1557C148.968 92.5321 149.482 92.7459 150.02 92.7526C150.546 92.7353 151.046 92.5156 151.415 92.1393C151.784 91.7629 151.993 91.2589 152 90.732C151.846 89.5418 151.307 88.4348 150.464 87.5799Z" fill="#111111"/>
</g>
</g>
<g id="Size=40px, Filled=true">
<g id="Vector_13">
<path d="M201.525 85.6798C201.761 85.443 201.894 85.1221 201.894 84.7874C201.894 84.4527 201.761 84.1318 201.525 83.895L198.999 81.3861C198.854 81.2302 198.67 81.1154 198.466 81.0534C198.262 80.9913 198.045 80.9841 197.837 81.0325L190.732 82.4806C190.636 82.4997 190.537 82.4849 190.451 82.4388C190.365 82.3927 190.297 82.3182 190.26 82.228L189.705 80.8305C189.436 80.1545 188.973 79.5739 188.373 79.163C187.773 78.752 187.064 78.5294 186.337 78.5237H183.357C183.248 78.5193 183.145 78.4731 183.07 78.3946C182.994 78.3161 182.952 78.2115 182.953 78.1027V76.8399C182.952 76.7311 182.994 76.6265 183.07 76.548C183.145 76.4695 183.248 76.4233 183.357 76.4189H184.636C185.083 76.4189 185.511 76.2415 185.827 75.9257C186.143 75.61 186.32 75.1817 186.32 74.7351C186.32 74.2885 186.143 73.8603 185.827 73.5445C185.511 73.2287 185.083 73.0513 184.636 73.0513H177.901C177.455 73.0513 177.026 73.2287 176.71 73.5445C176.395 73.8603 176.217 74.2885 176.217 74.7351C176.217 75.1817 176.395 75.61 176.71 75.9257C177.026 76.2415 177.455 76.4189 177.901 76.4189H179.147C179.26 76.4188 179.369 76.4626 179.451 76.5411C179.533 76.6196 179.581 76.7267 179.585 76.8399V78.1027C179.581 78.2159 179.533 78.323 179.451 78.4015C179.369 78.4799 179.26 78.5238 179.147 78.5237H172.294C171.657 78.5281 171.047 78.7832 170.596 79.2338C170.146 79.6844 169.891 80.2943 169.886 80.9315V87.111C169.891 88.1757 170.313 89.1959 171.063 89.9519C171.812 90.7078 172.829 91.1389 173.894 91.1522H187.465C189.17 91.1586 190.815 90.5281 192.079 89.3842L197.703 84.3328C197.783 84.2594 197.888 84.2188 197.997 84.2188C198.106 84.2188 198.211 84.2594 198.292 84.3328L199.673 85.7303C199.797 85.8503 199.943 85.9443 200.104 86.0068C200.265 86.0693 200.437 86.0991 200.609 86.0944C200.782 86.0897 200.952 86.0506 201.109 85.9794C201.266 85.9082 201.408 85.8064 201.525 85.6798Z" fill="#111111"/>
<path d="M169.819 73.5396C169.503 73.226 169.077 73.05 168.632 73.05C168.187 73.05 167.76 73.226 167.445 73.5396L164.498 76.4863C164.262 76.7208 164.1 77.0201 164.034 77.3465C163.967 77.6728 163.999 78.0115 164.126 78.3197C164.252 78.6279 164.466 78.8917 164.742 79.0779C165.019 79.2641 165.344 79.3642 165.677 79.3656C166.115 79.3863 166.544 79.2353 166.872 78.9446L169.819 75.9306C169.977 75.7741 170.102 75.5879 170.187 75.3827C170.273 75.1775 170.317 74.9574 170.317 74.7351C170.317 74.5128 170.273 74.2928 170.187 74.0876C170.102 73.8824 169.977 73.6962 169.819 73.5396Z" fill="#111111"/>
<path d="M202.08 88.4749C201.922 88.3091 201.704 88.2123 201.474 88.2055C201.354 88.1932 201.232 88.2115 201.12 88.2585C201.008 88.3056 200.91 88.38 200.834 88.4749C199.82 89.5659 199.162 90.9404 198.949 92.415C198.97 93.0867 199.25 93.7242 199.73 94.1947C200.21 94.6652 200.853 94.9324 201.525 94.9407C202.183 94.9191 202.808 94.6445 203.269 94.1741C203.73 93.7037 203.992 93.0736 204 92.415C203.807 90.9273 203.133 89.5435 202.08 88.4749Z" fill="#111111"/>
</g>
</g>
<g id="Size=48px, Filled=true">
<g id="Vector_14">
<path d="M261.03 86.0158C261.314 85.7316 261.473 85.3465 261.473 84.9449C261.473 84.5433 261.314 84.1581 261.03 83.874L257.999 80.8634C257.824 80.6763 257.604 80.5385 257.359 80.464C257.114 80.3895 256.854 80.3809 256.605 80.439L248.078 82.1767C247.963 82.1996 247.844 82.1819 247.741 82.1266C247.638 82.0713 247.557 81.9819 247.512 81.8736L246.845 80.1966C246.524 79.3854 245.967 78.6887 245.247 78.1956C244.528 77.7024 243.677 77.4353 242.804 77.4284H239.228C239.098 77.4232 238.974 77.3677 238.884 77.2735C238.793 77.1793 238.743 77.0538 238.743 76.9233V75.4078C238.743 75.2773 238.793 75.1518 238.884 75.0576C238.974 74.9634 239.098 74.9079 239.228 74.9027H240.764C241.299 74.9027 241.813 74.6898 242.192 74.3109C242.571 73.932 242.784 73.418 242.784 72.8821C242.784 72.3463 242.571 71.8323 242.192 71.4534C241.813 71.0745 241.299 70.8616 240.764 70.8616H232.681C232.145 70.8616 231.632 71.0745 231.253 71.4534C230.874 71.8323 230.661 72.3463 230.661 72.8821C230.661 73.418 230.874 73.932 231.253 74.3109C231.632 74.6898 232.145 74.9027 232.681 74.9027H234.177C234.312 74.9026 234.443 74.9552 234.541 75.0494C234.639 75.1436 234.697 75.272 234.702 75.4078V76.9233C234.697 77.0591 234.639 77.1876 234.541 77.2817C234.443 77.3759 234.312 77.4285 234.177 77.4284H225.953C225.188 77.4337 224.456 77.7398 223.916 78.2805C223.375 78.8213 223.069 79.5531 223.063 80.3178V87.7333C223.069 89.0108 223.576 90.2351 224.475 91.1423C225.375 92.0494 226.595 92.5667 227.872 92.5826H244.158C246.204 92.5903 248.178 91.8337 249.694 90.461L256.443 84.3993C256.54 84.3113 256.666 84.2625 256.797 84.2625C256.928 84.2625 257.054 84.3113 257.15 84.3993L258.807 86.0764C258.956 86.2204 259.132 86.3332 259.325 86.4082C259.518 86.4832 259.724 86.519 259.931 86.5133C260.138 86.5077 260.342 86.4607 260.531 86.3753C260.719 86.2899 260.889 86.1676 261.03 86.0158Z" fill="#111111"/>
<path d="M222.983 71.4475C222.604 71.0712 222.092 70.86 221.558 70.86C221.024 70.86 220.512 71.0712 220.134 71.4475L216.598 74.9835C216.314 75.2649 216.12 75.6242 216.04 76.0158C215.961 76.4074 215.999 76.8138 216.151 77.1836C216.302 77.5534 216.56 77.8701 216.891 78.0935C217.222 78.3169 217.612 78.437 218.012 78.4387C218.538 78.4636 219.053 78.2823 219.447 77.9335L222.983 74.3167C223.172 74.1289 223.322 73.9054 223.425 73.6592C223.528 73.413 223.58 73.1489 223.58 72.8821C223.58 72.6154 223.528 72.3513 223.425 72.1051C223.322 71.8589 223.172 71.6354 222.983 71.4475Z" fill="#111111"/>
<path d="M261.697 89.3699C261.506 89.1709 261.245 89.0548 260.969 89.0466C260.824 89.0319 260.678 89.0537 260.544 89.1102C260.41 89.1667 260.292 89.256 260.201 89.3699C258.984 90.6791 258.194 92.3285 257.938 94.098C257.964 94.9041 258.3 95.669 258.876 96.2336C259.452 96.7982 260.223 97.1189 261.03 97.1288C261.82 97.1029 262.569 96.7734 263.123 96.2089C263.676 95.6444 263.99 94.8883 264 94.098C263.769 92.3128 262.96 90.6522 261.697 89.3699Z" fill="#111111"/>
</g>
</g>
</g>
</g>
<defs>
<clipPath id="clip0_7887_207">
<rect width="264" height="108" rx="5" fill="white"/>
</clipPath>
</defs>
</svg>
