<svg width="264" height="108" viewBox="0 0 264 108" fill="none" xmlns="http://www.w3.org/2000/svg">
<g id="Parking">
<g clip-path="url(#clip0_7887_116)">
<g id="Size=12px, Filled=false">
<path id="Vector" d="M2.31235 21.9096H3.54995V20.6784M7.05 24H7.75C7.93565 24 8.1137 24.0734 8.24497 24.204C8.37625 24.3346 8.45 24.5117 8.45 24.6964M8.45 24.6964V27.1516M8.45 24.6964H9.85C10.2213 24.6964 10.5774 24.8432 10.8399 25.1044C11.1025 25.3656 11.25 25.7199 11.25 26.0893M3.9 28.1786H3.55C3.36435 28.1786 3.1863 28.1052 3.05503 27.9746C2.92375 27.844 2.85 27.6668 2.85 27.4821V26.0893M11.25 26.0893V27.4821C11.25 27.6668 11.1763 27.844 11.045 27.9746C10.9137 28.1052 10.7357 28.1786 10.55 28.1786H9.48227M11.25 26.0893H9.85M7.76773 28.1786H5.65M0.75 21.9107C0.75 22.6495 1.045 23.3581 1.5701 23.8805C2.0952 24.4029 2.80739 24.6964 3.55 24.6964C4.29261 24.6964 5.0048 24.4029 5.5299 23.8805C6.055 23.3581 6.35 22.6495 6.35 21.9107C6.35 21.1719 6.055 20.4633 5.5299 19.9409C5.0048 19.4185 4.29261 19.125 3.55 19.125C2.80739 19.125 2.0952 19.4185 1.5701 19.9409C1.045 20.4633 0.75 21.1719 0.75 21.9107ZM7.75 28.0045C7.75 28.2353 7.84219 28.4568 8.00628 28.62C8.17038 28.7833 8.39294 28.875 8.625 28.875C8.85706 28.875 9.07962 28.7833 9.24372 28.62C9.40781 28.4568 9.5 28.2353 9.5 28.0045C9.5 27.7736 9.40781 27.5522 9.24372 27.3889C9.07962 27.2256 8.85706 27.1339 8.625 27.1339C8.39294 27.1339 8.17038 27.2256 8.00628 27.3889C7.84219 27.5522 7.75 27.7736 7.75 28.0045ZM3.9 28.0045C3.9 28.2353 3.99219 28.4568 4.15628 28.62C4.32038 28.7833 4.54294 28.875 4.775 28.875C5.00706 28.875 5.22962 28.7833 5.39372 28.62C5.55781 28.4568 5.65 28.2353 5.65 28.0045C5.65 27.7736 5.55781 27.5522 5.39372 27.3889C5.22962 27.2256 5.00706 27.1339 4.775 27.1339C4.54294 27.1339 4.32038 27.2256 4.15628 27.3889C3.99219 27.5522 3.9 27.7736 3.9 28.0045Z" stroke="#111111" stroke-width="0.75" stroke-linecap="round" stroke-linejoin="round"/>
</g>
<g id="Size=16px, Filled=false">
<path id="Vector_2" d="M27.0831 21.2129H28.7333V19.5711M33.4 24H34.3333C34.5809 24 34.8183 24.0978 34.9933 24.272C35.1683 24.4461 35.2667 24.6823 35.2667 24.9286M35.2667 24.9286V28.2021M35.2667 24.9286H37.1333C37.6284 24.9286 38.1032 25.1242 38.4533 25.4725C38.8033 25.8208 39 26.2932 39 26.7857M29.2 29.5714H28.7333C28.4858 29.5714 28.2484 29.4736 28.0734 29.2995C27.8983 29.1253 27.8 28.8891 27.8 28.6429V26.7857M39 26.7857V28.6429C39 28.8891 38.9017 29.1253 38.7266 29.2995C38.5516 29.4736 38.3142 29.5714 38.0667 29.5714H36.643M39 26.7857H37.1333M34.357 29.5714H31.5333M25 21.2143C25 22.1994 25.3933 23.1441 26.0935 23.8407C26.7936 24.5372 27.7432 24.9286 28.7333 24.9286C29.7235 24.9286 30.6731 24.5372 31.3732 23.8407C32.0733 23.1441 32.4667 22.1994 32.4667 21.2143C32.4667 20.2292 32.0733 19.2845 31.3732 18.5879C30.6731 17.8913 29.7235 17.5 28.7333 17.5C27.7432 17.5 26.7936 17.8913 26.0935 18.5879C25.3933 19.2845 25 20.2292 25 21.2143ZM34.3333 29.3393C34.3333 29.6471 34.4562 29.9424 34.675 30.16C34.8938 30.3777 35.1906 30.5 35.5 30.5C35.8094 30.5 36.1062 30.3777 36.325 30.16C36.5438 29.9424 36.6667 29.6471 36.6667 29.3393C36.6667 29.0314 36.5438 28.7362 36.325 28.5185C36.1062 28.3009 35.8094 28.1786 35.5 28.1786C35.1906 28.1786 34.8938 28.3009 34.675 28.5185C34.4562 28.7362 34.3333 29.0314 34.3333 29.3393ZM29.2 29.3393C29.2 29.6471 29.3229 29.9424 29.5417 30.16C29.7605 30.3777 30.0572 30.5 30.3667 30.5C30.6761 30.5 30.9728 30.3777 31.1916 30.16C31.4104 29.9424 31.5333 29.6471 31.5333 29.3393C31.5333 29.0314 31.4104 28.7362 31.1916 28.5185C30.9728 28.3009 30.6761 28.1786 30.3667 28.1786C30.0572 28.1786 29.7605 28.3009 29.5417 28.5185C29.3229 28.7362 29.2 29.0314 29.2 29.3393Z" stroke="#111111" stroke-linecap="round" stroke-linejoin="round"/>
</g>
<g id="Size=20px, Filled=false">
<path id="Vector_3" d="M55.8539 20.5161H57.9166V18.4639M63.75 24H64.9167C65.2261 24 65.5228 24.1223 65.7416 24.34C65.9604 24.5576 66.0833 24.8529 66.0833 25.1607M66.0833 25.1607V29.2526M66.0833 25.1607H68.4167C69.0355 25.1607 69.629 25.4053 70.0666 25.8406C70.5042 26.276 70.75 26.8665 70.75 27.4821M58.5 30.9643H57.9167C57.6072 30.9643 57.3105 30.842 57.0917 30.6243C56.8729 30.4066 56.75 30.1114 56.75 29.8036V27.4821M70.75 27.4821V29.8036C70.75 30.1114 70.6271 30.4066 70.4083 30.6243C70.1895 30.842 69.8928 30.9643 69.5833 30.9643H67.8038M70.75 27.4821H68.4167M64.9462 30.9643H61.4167M53.25 20.5179C53.25 21.7492 53.7417 22.9301 54.6168 23.8009C55.492 24.6716 56.679 25.1607 57.9167 25.1607C59.1543 25.1607 60.3413 24.6716 61.2165 23.8009C62.0917 22.9301 62.5833 21.7492 62.5833 20.5179C62.5833 19.2865 62.0917 18.1056 61.2165 17.2349C60.3413 16.3642 59.1543 15.875 57.9167 15.875C56.679 15.875 55.492 16.3642 54.6168 17.2349C53.7417 18.1056 53.25 19.2865 53.25 20.5179ZM64.9167 30.6741C64.9167 31.0589 65.0703 31.4279 65.3438 31.7C65.6173 31.9721 65.9882 32.125 66.375 32.125C66.7618 32.125 67.1327 31.9721 67.4062 31.7C67.6797 31.4279 67.8333 31.0589 67.8333 30.6741C67.8333 30.2893 67.6797 29.9203 67.4062 29.6482C67.1327 29.3761 66.7618 29.2232 66.375 29.2232C65.9882 29.2232 65.6173 29.3761 65.3438 29.6482C65.0703 29.9203 64.9167 30.2893 64.9167 30.6741ZM58.5 30.6741C58.5 31.0589 58.6536 31.4279 58.9271 31.7C59.2006 31.9721 59.5716 32.125 59.9583 32.125C60.3451 32.125 60.716 31.9721 60.9895 31.7C61.263 31.4279 61.4167 31.0589 61.4167 30.6741C61.4167 30.2893 61.263 29.9203 60.9895 29.6482C60.716 29.3761 60.3451 29.2232 59.9583 29.2232C59.5716 29.2232 59.2006 29.3761 58.9271 29.6482C58.6536 29.9203 58.5 30.2893 58.5 30.6741Z" stroke="#111111" stroke-width="1.25" stroke-linecap="round" stroke-linejoin="round"/>
</g>
<g id="Size=24px, Filled=false">
<path id="Vector_4" d="M88.6247 19.8193H91.0999V17.3567M98.1 24H99.5C99.8713 24 100.227 24.1467 100.49 24.408C100.753 24.6692 100.9 25.0234 100.9 25.3929M100.9 25.3929V30.3031M100.9 25.3929H103.7C104.443 25.3929 105.155 25.6864 105.68 26.2088C106.205 26.7312 106.5 27.4398 106.5 28.1786M91.8 32.3571H91.1C90.7287 32.3571 90.3726 32.2104 90.1101 31.9492C89.8475 31.688 89.7 31.3337 89.7 30.9643V28.1786M106.5 28.1786V30.9643C106.5 31.3337 106.353 31.688 106.09 31.9492C105.827 32.2104 105.471 32.3571 105.1 32.3571H102.965M106.5 28.1786H103.7M99.5355 32.3571H95.3M85.5 19.8214C85.5 21.2991 86.09 22.7162 87.1402 23.761C88.1904 24.8059 89.6148 25.3929 91.1 25.3929C92.5852 25.3929 94.0096 24.8059 95.0598 23.761C96.11 22.7162 96.7 21.2991 96.7 19.8214C96.7 18.3438 96.11 16.9267 95.0598 15.8818C94.0096 14.837 92.5852 14.25 91.1 14.25C89.6148 14.25 88.1904 14.837 87.1402 15.8818C86.09 16.9267 85.5 18.3438 85.5 19.8214ZM99.5 32.0089C99.5 32.4707 99.6844 32.9135 100.013 33.2401C100.341 33.5666 100.786 33.75 101.25 33.75C101.714 33.75 102.159 33.5666 102.487 33.2401C102.816 32.9135 103 32.4707 103 32.0089C103 31.5472 102.816 31.1043 102.487 30.7778C102.159 30.4513 101.714 30.2679 101.25 30.2679C100.786 30.2679 100.341 30.4513 100.013 30.7778C99.6844 31.1043 99.5 31.5472 99.5 32.0089ZM91.8 32.0089C91.8 32.4707 91.9844 32.9135 92.3126 33.2401C92.6408 33.5666 93.0859 33.75 93.55 33.75C94.0141 33.75 94.4592 33.5666 94.7874 33.2401C95.1156 32.9135 95.3 32.4707 95.3 32.0089C95.3 31.5472 95.1156 31.1043 94.7874 30.7778C94.4592 30.4513 94.0141 30.2679 93.55 30.2679C93.0859 30.2679 92.6408 30.4513 92.3126 30.7778C91.9844 31.1043 91.8 31.5472 91.8 32.0089Z" stroke="#111111" stroke-width="1.5" stroke-linecap="round" stroke-linejoin="round"/>
</g>
<g id="Size=32px, Filled=false">
<path id="Vector_5" d="M126.166 18.4257H129.467V15.1423M138.8 24H140.667C141.162 24 141.637 24.1957 141.987 24.5439C142.337 24.8922 142.533 25.3646 142.533 25.8571M142.533 25.8571V32.4042M142.533 25.8571H146.267C147.257 25.8571 148.206 26.2485 148.907 26.945C149.607 27.6416 150 28.5863 150 29.5714M130.4 35.1429H129.467C128.972 35.1429 128.497 34.9472 128.147 34.5989C127.797 34.2506 127.6 33.7783 127.6 33.2857V29.5714M150 29.5714V33.2857C150 33.7783 149.803 34.2506 149.453 34.5989C149.103 34.9472 148.628 35.1429 148.133 35.1429H145.286M150 29.5714H146.267M140.714 35.1429H135.067M122 18.4286C122 20.3988 122.787 22.2882 124.187 23.6814C125.587 25.0745 127.486 25.8571 129.467 25.8571C131.447 25.8571 133.346 25.0745 134.746 23.6814C136.147 22.2882 136.933 20.3988 136.933 18.4286C136.933 16.4584 136.147 14.5689 134.746 13.1758C133.346 11.7827 131.447 11 129.467 11C127.486 11 125.587 11.7827 124.187 13.1758C122.787 14.5689 122 16.4584 122 18.4286ZM140.667 34.6786C140.667 35.2943 140.912 35.8847 141.35 36.3201C141.788 36.7554 142.381 37 143 37C143.619 37 144.212 36.7554 144.65 36.3201C145.088 35.8847 145.333 35.2943 145.333 34.6786C145.333 34.0629 145.088 33.4724 144.65 33.0371C144.212 32.6017 143.619 32.3571 143 32.3571C142.381 32.3571 141.788 32.6017 141.35 33.0371C140.912 33.4724 140.667 34.0629 140.667 34.6786ZM130.4 34.6786C130.4 35.2943 130.646 35.8847 131.083 36.3201C131.521 36.7554 132.114 37 132.733 37C133.352 37 133.946 36.7554 134.383 36.3201C134.821 35.8847 135.067 35.2943 135.067 34.6786C135.067 34.0629 134.821 33.4724 134.383 33.0371C133.946 32.6017 133.352 32.3571 132.733 32.3571C132.114 32.3571 131.521 32.6017 131.083 33.0371C130.646 33.4724 130.4 34.0629 130.4 34.6786Z" stroke="#111111" stroke-width="2" stroke-linecap="round" stroke-linejoin="round"/>
</g>
<g id="Size=40px, Filled=false">
<path id="Vector_6" d="M171.708 17.0322H175.833V12.9279M187.5 24H189.833C190.452 24 191.046 24.2446 191.483 24.6799C191.921 25.1153 192.167 25.7057 192.167 26.3214M192.167 26.3214V34.5052M192.167 26.3214H196.833C198.071 26.3214 199.258 26.8106 200.133 27.6813C201.008 28.552 201.5 29.7329 201.5 30.9643M177 37.9286H175.833C175.214 37.9286 174.621 37.684 174.183 37.2486C173.746 36.8133 173.5 36.2228 173.5 35.6071V30.9643M201.5 30.9643V35.6071C201.5 36.2228 201.254 36.8133 200.817 37.2486C200.379 37.684 199.786 37.9286 199.167 37.9286H195.608M201.5 30.9643H196.833M189.892 37.9286H182.833M166.5 17.0357C166.5 19.4984 167.483 21.8603 169.234 23.6017C170.984 25.3431 173.358 26.3214 175.833 26.3214C178.309 26.3214 180.683 25.3431 182.433 23.6017C184.183 21.8603 185.167 19.4984 185.167 17.0357C185.167 14.573 184.183 12.2111 182.433 10.4697C180.683 8.72831 178.309 7.75 175.833 7.75C173.358 7.75 170.984 8.72831 169.234 10.4697C167.483 12.2111 166.5 14.573 166.5 17.0357ZM189.833 37.3482C189.833 38.1178 190.141 38.8559 190.688 39.4001C191.235 39.9443 191.976 40.25 192.75 40.25C193.524 40.25 194.265 39.9443 194.812 39.4001C195.359 38.8559 195.667 38.1178 195.667 37.3482C195.667 36.5786 195.359 35.8405 194.812 35.2963C194.265 34.7522 193.524 34.4464 192.75 34.4464C191.976 34.4464 191.235 34.7522 190.688 35.2963C190.141 35.8405 189.833 36.5786 189.833 37.3482ZM177 37.3482C177 38.1178 177.307 38.8559 177.854 39.4001C178.401 39.9443 179.143 40.25 179.917 40.25C180.69 40.25 181.432 39.9443 181.979 39.4001C182.526 38.8559 182.833 38.1178 182.833 37.3482C182.833 36.5786 182.526 35.8405 181.979 35.2963C181.432 34.7522 180.69 34.4464 179.917 34.4464C179.143 34.4464 178.401 34.7522 177.854 35.2963C177.307 35.8405 177 36.5786 177 37.3482Z" stroke="#111111" stroke-width="2.5" stroke-linecap="round" stroke-linejoin="round"/>
</g>
<g id="Size=48px, Filled=false">
<path id="Vector_7" d="M225.249 15.6386H230.2V10.7134M244.2 24H247C247.743 24 248.455 24.2935 248.98 24.8159C249.505 25.3383 249.8 26.0469 249.8 26.7857M249.8 26.7857V36.6063M249.8 26.7857H255.4C256.885 26.7857 258.31 27.3727 259.36 28.4175C260.41 29.4624 261 30.8795 261 32.3571M231.6 40.7143H230.2C229.457 40.7143 228.745 40.4208 228.22 39.8984C227.695 39.3759 227.4 38.6674 227.4 37.9286V32.3571M261 32.3571V37.9286C261 38.6674 260.705 39.3759 260.18 39.8984C259.655 40.4208 258.943 40.7143 258.2 40.7143H253.929M261 32.3571H255.4M247.071 40.7143H238.6M219 15.6429C219 18.5981 220.18 21.4324 222.28 23.522C224.381 25.6117 227.23 26.7857 230.2 26.7857C233.17 26.7857 236.019 25.6117 238.12 23.522C240.22 21.4324 241.4 18.5981 241.4 15.6429C241.4 12.6876 240.22 9.85336 238.12 7.76367C236.019 5.67398 233.17 4.5 230.2 4.5C227.23 4.5 224.381 5.67398 222.28 7.76367C220.18 9.85336 219 12.6876 219 15.6429ZM247 40.0179C247 40.9414 247.369 41.8271 248.025 42.4801C248.682 43.1331 249.572 43.5 250.5 43.5C251.428 43.5 252.318 43.1331 252.975 42.4801C253.631 41.8271 254 40.9414 254 40.0179C254 39.0943 253.631 38.2086 252.975 37.5556C252.318 36.9026 251.428 36.5357 250.5 36.5357C249.572 36.5357 248.682 36.9026 248.025 37.5556C247.369 38.2086 247 39.0943 247 40.0179ZM231.6 40.0179C231.6 40.9414 231.969 41.8271 232.625 42.4801C233.282 43.1331 234.172 43.5 235.1 43.5C236.028 43.5 236.918 43.1331 237.575 42.4801C238.231 41.8271 238.6 40.9414 238.6 40.0179C238.6 39.0943 238.231 38.2086 237.575 37.5556C236.918 36.9026 236.028 36.5357 235.1 36.5357C234.172 36.5357 233.282 36.9026 232.625 37.5556C231.969 38.2086 231.6 39.0943 231.6 40.0179Z" stroke="#111111" stroke-width="3" stroke-linecap="round" stroke-linejoin="round"/>
</g>
<g id="Size=12px, Filled=true" clip-path="url(#clip1_7887_116)">
<g id="Vector_8">
<path d="M4.42996 88.6382C4.42996 88.8245 4.50395 89.0031 4.63567 89.1348C4.76739 89.2666 4.94604 89.3405 5.13232 89.3405C5.31859 89.3405 5.49724 89.2666 5.62896 89.1348C5.76068 89.0031 5.83468 88.8245 5.83468 88.6382C5.83468 88.4519 5.76068 88.2733 5.62896 88.1415C5.49724 88.0098 5.31859 87.9358 5.13232 87.9358C4.94604 87.9358 4.76739 88.0098 4.63567 88.1415C4.50395 88.2733 4.42996 88.4519 4.42996 88.6382Z" fill="#111111"/>
<path d="M10.7231 84.6394C10.6687 84.4454 10.5533 84.2742 10.3939 84.151C10.2344 84.0279 10.0395 83.9594 9.83812 83.9558H8.67221C8.64302 83.9549 8.61515 83.9435 8.59366 83.9237C8.57217 83.9039 8.5585 83.8771 8.55515 83.8481C8.51995 83.6488 8.41574 83.4683 8.26078 83.3382C8.10582 83.208 7.90999 83.1366 7.70763 83.1364H6.58386C6.56244 83.1373 6.54163 83.1438 6.52354 83.1553C6.50545 83.1668 6.49072 83.1829 6.48085 83.2019C6.18774 83.7854 5.73836 84.2761 5.18278 84.6192C4.6272 84.9623 3.98726 85.1444 3.33428 85.1451H3.03928C3.00519 85.1447 2.97203 85.1563 2.94564 85.1779C2.93354 85.1883 2.92391 85.2013 2.91743 85.2158C2.91095 85.2304 2.90779 85.2462 2.90818 85.2622V87.7017C2.90818 87.919 2.99451 88.1275 3.14818 88.2811C3.30185 88.4348 3.51027 88.5211 3.7276 88.5211H3.87275C3.90014 88.5217 3.92685 88.5126 3.94824 88.4955C3.96963 88.4784 3.98434 88.4543 3.98981 88.4275C4.03573 88.1571 4.17587 87.9117 4.38542 87.7347C4.59496 87.5577 4.86038 87.4607 5.13466 87.4607C5.40893 87.4607 5.67435 87.5577 5.8839 87.7347C6.09344 87.9117 6.23359 88.1571 6.2795 88.4275C6.28385 88.4544 6.29746 88.4789 6.31798 88.4969C6.33849 88.5148 6.36463 88.5251 6.39188 88.5258H8.33508C8.36288 88.5253 8.38967 88.5152 8.41096 88.4973C8.43226 88.4794 8.44679 88.4548 8.45214 88.4275C8.49805 88.1571 8.6382 87.9117 8.84774 87.7347C9.05729 87.5577 9.32271 87.4607 9.59698 87.4607C9.87125 87.4607 10.1367 87.5577 10.3462 87.7347C10.5558 87.9117 10.6959 88.1571 10.7418 88.4275C10.7462 88.449 10.758 88.4682 10.7751 88.4819C10.7922 88.4956 10.8136 88.5028 10.8355 88.5024C10.968 88.4955 11.0967 88.456 11.2102 88.3874C11.3238 88.3188 11.4186 88.2232 11.4863 88.1091C11.5571 87.9939 11.6021 87.8649 11.6183 87.7307C11.6344 87.5965 11.6214 87.4604 11.58 87.3318L10.7231 84.6394ZM9.73979 84.8876C9.76453 84.8873 9.78874 84.8948 9.80893 84.9091C9.82912 84.9234 9.84426 84.9437 9.85217 84.9672C9.88495 85.0608 9.9505 85.2622 10.0816 85.6789C10.0895 85.6949 10.0935 85.7126 10.0935 85.7304C10.0935 85.7483 10.0895 85.7659 10.0816 85.7819C10.0716 85.7974 10.0576 85.8099 10.0412 85.8181C10.0247 85.8264 10.0063 85.83 9.98796 85.8288H8.6488C8.61775 85.8288 8.58798 85.8164 8.56602 85.7945C8.54407 85.7725 8.53174 85.7427 8.53174 85.7117V85.0093C8.53171 84.9791 8.5434 84.95 8.56435 84.9282C8.5853 84.9063 8.61389 84.8935 8.64411 84.8923L9.73979 84.8876Z" fill="#111111"/>
<path d="M8.87823 88.6382C8.87823 88.8245 8.95223 89.0031 9.08395 89.1348C9.21567 89.2666 9.39432 89.3405 9.58059 89.3405C9.76687 89.3405 9.94552 89.2666 10.0772 89.1348C10.209 89.0031 10.283 88.8245 10.283 88.6382C10.283 88.4519 10.209 88.2733 10.0772 88.1415C9.94552 88.0098 9.76687 87.9358 9.58059 87.9358C9.39432 87.9358 9.21567 88.0098 9.08395 88.1415C8.95223 88.2733 8.87823 88.4519 8.87823 88.6382Z" fill="#111111"/>
<path d="M3.33428 84.5692C3.91844 84.5683 4.48922 84.3942 4.97448 84.069C5.45974 83.7438 5.83771 83.282 6.06062 82.742C6.28353 82.2021 6.34137 81.6081 6.22684 81.0353C6.11231 80.4625 5.83054 79.9365 5.41715 79.5237C5.00376 79.111 4.47729 78.8301 3.90429 78.7164C3.33128 78.6028 2.73745 78.6616 2.19784 78.8854C1.65823 79.1091 1.19706 79.4878 0.872615 79.9736C0.548167 80.4594 0.375001 81.0304 0.375 81.6146C0.375 82.003 0.451577 82.3876 0.600352 82.7464C0.749127 83.1051 0.967179 83.431 1.24203 83.7055C1.51689 83.9799 1.84315 84.1974 2.20216 84.3456C2.56117 84.4938 2.94588 84.5698 3.33428 84.5692ZM5.34771 81.6146C5.34863 82.0141 5.23094 82.405 5.00954 82.7376C4.78815 83.0701 4.47301 83.3295 4.10406 83.4829C3.7351 83.6362 3.32894 83.6766 2.93703 83.5988C2.54512 83.5211 2.1851 83.3288 1.90258 83.0463C1.62006 82.7638 1.42775 82.4037 1.35003 82.0118C1.27231 81.6199 1.31267 81.2138 1.466 80.8448C1.61933 80.4759 1.87872 80.1607 2.21131 79.9393C2.54391 79.7179 2.93473 79.6002 3.33428 79.6012C3.86789 79.6024 4.3793 79.8149 4.75662 80.1922C5.13394 80.5696 5.34647 81.081 5.34771 81.6146Z" fill="#111111"/>
<path d="M3.33428 82.0828H4.19584C4.32002 82.0828 4.43912 82.0335 4.52693 81.9457C4.61474 81.8579 4.66408 81.7388 4.66408 81.6146C4.66408 81.4904 4.61474 81.3713 4.52693 81.2835C4.43912 81.1957 4.32002 81.1464 4.19584 81.1464H3.91957C3.88853 81.1464 3.85875 81.134 3.8368 81.1121C3.81485 81.0901 3.80252 81.0603 3.80252 81.0293V80.5376C3.80252 80.4135 3.75318 80.2944 3.66537 80.2065C3.57756 80.1187 3.45846 80.0694 3.33428 80.0694C3.21009 80.0694 3.09099 80.1187 3.00318 80.2065C2.91537 80.2944 2.86604 80.4135 2.86604 80.5376V81.6146C2.86604 81.7388 2.91537 81.8579 3.00318 81.9457C3.09099 82.0335 3.21009 82.0828 3.33428 82.0828Z" fill="#111111"/>
</g>
</g>
<g id="Size=16px, Filled=true" clip-path="url(#clip2_7887_116)">
<g id="Vector_9">
<path d="M29.9066 90.1843C29.9066 90.4326 30.0053 90.6708 30.1809 90.8464C30.3565 91.0221 30.5947 91.1207 30.8431 91.1207C31.0915 91.1207 31.3297 91.0221 31.5053 90.8464C31.6809 90.6708 31.7796 90.4326 31.7796 90.1843C31.7796 89.9359 31.6809 89.6977 31.5053 89.5221C31.3297 89.3464 31.0915 89.2478 30.8431 89.2478C30.5947 89.2478 30.3565 89.3464 30.1809 89.5221C30.0053 89.6977 29.9066 89.9359 29.9066 90.1843Z" fill="#111111"/>
<path d="M38.2975 84.8526C38.225 84.5939 38.071 84.3656 37.8585 84.2014C37.6459 84.0371 37.3861 83.9459 37.1175 83.9411H35.5629C35.524 83.9398 35.4869 83.9246 35.4582 83.8983C35.4296 83.8719 35.4113 83.8361 35.4069 83.7975C35.3599 83.5318 35.221 83.2911 35.0144 83.1175C34.8078 82.944 34.5467 82.8488 34.2768 82.8485H32.7785C32.7499 82.8497 32.7222 82.8584 32.6981 82.8737C32.6739 82.8891 32.6543 82.9105 32.6411 82.9359C32.2503 83.7139 31.6511 84.3681 30.9104 84.8256C30.1696 85.283 29.3163 85.5258 28.4457 85.5268H28.0524C28.0069 85.5263 27.9627 85.5417 27.9275 85.5705C27.9114 85.5844 27.8985 85.6017 27.8899 85.6211C27.8813 85.6405 27.8771 85.6616 27.8776 85.6829V88.9356C27.8776 89.2254 27.9927 89.5033 28.1976 89.7082C28.4025 89.9131 28.6804 90.0282 28.9701 90.0282H29.1637C29.2002 90.0289 29.2358 90.0168 29.2643 89.994C29.2928 89.9712 29.3125 89.9391 29.3197 89.9033C29.381 89.5428 29.5678 89.2155 29.8472 88.9796C30.1266 88.7436 30.4805 88.6142 30.8462 88.6142C31.2119 88.6142 31.5658 88.7436 31.8452 88.9796C32.1246 89.2155 32.3114 89.5428 32.3727 89.9033C32.3785 89.9392 32.3966 89.9719 32.424 89.9959C32.4513 90.0198 32.4862 90.0334 32.5225 90.0344H35.1134C35.1505 90.0337 35.1862 90.0203 35.2146 89.9964C35.243 89.9726 35.2624 89.9397 35.2695 89.9033C35.3307 89.5428 35.5176 89.2155 35.797 88.9796C36.0764 88.7436 36.4303 88.6142 36.796 88.6142C37.1617 88.6142 37.5156 88.7436 37.795 88.9796C38.0744 89.2155 38.2612 89.5428 38.3224 89.9033C38.3283 89.9319 38.344 89.9576 38.3668 89.9759C38.3896 89.9941 38.4181 90.0038 38.4473 90.0032C38.624 89.994 38.7956 89.9414 38.947 89.8499C39.0984 89.7584 39.2248 89.6309 39.3151 89.4788C39.4095 89.3253 39.4695 89.1532 39.491 88.9743C39.5126 88.7954 39.4952 88.6139 39.44 88.4424L38.2975 84.8526ZM36.9864 85.1835C37.0194 85.183 37.0516 85.1931 37.0786 85.2122C37.1055 85.2312 37.1257 85.2583 37.1362 85.2896C37.1799 85.4145 37.2673 85.6829 37.4421 86.2386C37.4526 86.2599 37.4581 86.2834 37.4581 86.3072C37.4581 86.331 37.4526 86.3545 37.4421 86.3759C37.4288 86.3965 37.4102 86.4132 37.3882 86.4242C37.3663 86.4351 37.3418 86.44 37.3173 86.4383H35.5317C35.4903 86.4383 35.4506 86.4219 35.4214 86.3926C35.3921 86.3633 35.3756 86.3237 35.3756 86.2823V85.3458C35.3756 85.3054 35.3912 85.2667 35.4191 85.2376C35.4471 85.2085 35.4852 85.1913 35.5255 85.1897L36.9864 85.1835Z" fill="#111111"/>
<path d="M35.8376 90.1843C35.8376 90.4326 35.9363 90.6708 36.1119 90.8464C36.2876 91.0221 36.5258 91.1207 36.7741 91.1207C37.0225 91.1207 37.2607 91.0221 37.4363 90.8464C37.6119 90.6708 37.7106 90.4326 37.7106 90.1843C37.7106 89.9359 37.6119 89.6977 37.4363 89.5221C37.2607 89.3464 37.0225 89.2478 36.7741 89.2478C36.5258 89.2478 36.2876 89.3464 36.1119 89.5221C35.9363 89.6977 35.8376 89.9359 35.8376 90.1843Z" fill="#111111"/>
<path d="M28.4457 84.7589C29.2246 84.7577 29.9856 84.5256 30.6326 84.092C31.2797 83.6583 31.7836 83.0427 32.0808 82.3227C32.378 81.6028 32.4552 80.8109 32.3025 80.0471C32.1497 79.2833 31.7741 78.582 31.2229 78.0316C30.6717 77.4813 29.9697 77.1067 29.2057 76.9552C28.4417 76.8037 27.6499 76.8821 26.9305 77.1805C26.211 77.4788 25.5961 77.9838 25.1635 78.6315C24.7309 79.2792 24.5 80.0406 24.5 80.8195C24.5 81.3373 24.6021 81.8501 24.8005 82.3285C24.9988 82.8068 25.2896 83.2414 25.656 83.6073C26.0225 83.9732 26.4575 84.2632 26.9362 84.4608C27.4149 84.6584 27.9278 84.7597 28.4457 84.7589ZM31.1303 80.8195C31.1315 81.3522 30.9746 81.8733 30.6794 82.3167C30.3842 82.7602 29.964 83.1061 29.4721 83.3105C28.9801 83.5149 28.4386 83.5687 27.916 83.4651C27.3935 83.3615 26.9135 83.1051 26.5368 82.7284C26.1601 82.3517 25.9037 81.8717 25.8 81.3491C25.6964 80.8266 25.7502 80.285 25.9547 79.7931C26.1591 79.3011 26.505 78.881 26.9484 78.5858C27.3919 78.2906 27.913 78.1336 28.4457 78.1349C29.1572 78.1365 29.8391 78.4199 30.3422 78.923C30.8453 79.4261 31.1286 80.108 31.1303 80.8195Z" fill="#111111"/>
<path d="M28.4457 81.4438H29.5944C29.76 81.4438 29.9188 81.378 30.0359 81.2609C30.153 81.1438 30.2188 80.985 30.2188 80.8195C30.2188 80.6539 30.153 80.4951 30.0359 80.378C29.9188 80.2609 29.76 80.1951 29.5944 80.1951H29.2261C29.1847 80.1951 29.145 80.1787 29.1157 80.1494C29.0865 80.1202 29.07 80.0805 29.07 80.0391V79.3835C29.07 79.2179 29.0042 79.0591 28.8872 78.9421C28.7701 78.825 28.6113 78.7592 28.4457 78.7592C28.2801 78.7592 28.1213 78.825 28.0042 78.9421C27.8872 79.0591 27.8214 79.2179 27.8214 79.3835V80.8195C27.8214 80.985 27.8872 81.1438 28.0042 81.2609C28.1213 81.378 28.2801 81.4438 28.4457 81.4438Z" fill="#111111"/>
</g>
</g>
<g id="Size=20px, Filled=true">
<g id="Vector_10">
<path d="M59.3833 91.7303C59.3833 92.0408 59.5066 92.3385 59.7261 92.5581C59.9457 92.7776 60.2434 92.9009 60.5539 92.9009C60.8643 92.9009 61.1621 92.7776 61.3816 92.5581C61.6011 92.3385 61.7245 92.0408 61.7245 91.7303C61.7245 91.4199 61.6011 91.1221 61.3816 90.9026C61.1621 90.683 60.8643 90.5597 60.5539 90.5597C60.2434 90.5597 59.9457 90.683 59.7261 90.9026C59.5066 91.1221 59.3833 91.4199 59.3833 91.7303Z" fill="#111111"/>
<path d="M69.8718 85.0657C69.7812 84.7424 69.5888 84.4569 69.3231 84.2517C69.0574 84.0464 68.7326 83.9323 68.3969 83.9263H66.4537C66.405 83.9248 66.3586 83.9058 66.3228 83.8728C66.287 83.8399 66.2642 83.7952 66.2586 83.7468C66.1999 83.4147 66.0262 83.1138 65.768 82.8969C65.5097 82.68 65.1833 82.561 64.8461 82.5606H62.9731C62.9374 82.5621 62.9027 82.573 62.8726 82.5922C62.8424 82.6114 62.8179 82.6382 62.8014 82.6699C62.3129 83.6424 61.5639 84.4601 60.638 85.032C59.712 85.6038 58.6454 85.9073 57.5571 85.9085H57.0655C57.0086 85.9078 56.9534 85.9272 56.9094 85.9632C56.8892 85.9805 56.8732 86.0021 56.8624 86.0264C56.8516 86.0507 56.8463 86.0771 56.847 86.1036V90.1695C56.847 90.5317 56.9908 90.8791 57.247 91.1352C57.5031 91.3913 57.8505 91.5352 58.2127 91.5352H58.4546C58.5002 91.5361 58.5447 91.521 58.5804 91.4925C58.616 91.464 58.6406 91.4239 58.6497 91.3791C58.7262 90.9285 58.9598 90.5194 59.309 90.2245C59.6583 89.9296 60.1006 89.7678 60.5578 89.7678C61.0149 89.7678 61.4572 89.9296 61.8065 90.2245C62.1557 90.5194 62.3893 90.9285 62.4658 91.3791C62.4731 91.424 62.4958 91.4649 62.53 91.4948C62.5642 91.5247 62.6077 91.5418 62.6531 91.543H65.8918C65.9381 91.5421 65.9828 91.5253 66.0183 91.4955C66.0538 91.4657 66.078 91.4246 66.0869 91.3791C66.1634 90.9285 66.397 90.5194 66.7462 90.2245C67.0955 89.9296 67.5378 89.7678 67.995 89.7678C68.4521 89.7678 68.8945 89.9296 69.2437 90.2245C69.5929 90.5194 69.8265 90.9285 69.903 91.3791C69.9103 91.4149 69.93 91.447 69.9585 91.4698C69.987 91.4926 70.0226 91.5047 70.0591 91.504C70.2799 91.4925 70.4945 91.4267 70.6838 91.3123C70.873 91.198 71.0311 91.0386 71.1439 90.8485C71.2618 90.6566 71.3369 90.4414 71.3638 90.2178C71.3907 89.9942 71.369 89.7674 71.3 89.553L69.8718 85.0657ZM68.233 85.4793C68.2742 85.4788 68.3146 85.4914 68.3482 85.5152C68.3819 85.539 68.4071 85.5729 68.4203 85.612C68.4749 85.7681 68.5842 86.1036 68.8027 86.7982C68.8158 86.8249 68.8226 86.8543 68.8226 86.884C68.8226 86.9138 68.8158 86.9432 68.8027 86.9699C68.786 86.9957 68.7627 87.0165 68.7353 87.0302C68.7078 87.0439 68.6772 87.05 68.6466 87.0479H66.4147C66.3629 87.0479 66.3133 87.0274 66.2767 86.9908C66.2401 86.9542 66.2196 86.9046 66.2196 86.8528V85.6822C66.2195 85.6318 66.239 85.5833 66.2739 85.547C66.3088 85.5106 66.3565 85.4891 66.4069 85.4871L68.233 85.4793Z" fill="#111111"/>
<path d="M66.7971 91.7303C66.7971 92.0408 66.9204 92.3385 67.1399 92.5581C67.3594 92.7776 67.6572 92.9009 67.9677 92.9009C68.2781 92.9009 68.5759 92.7776 68.7954 92.5581C69.0149 92.3385 69.1383 92.0408 69.1383 91.7303C69.1383 91.4199 69.0149 91.1221 68.7954 90.9026C68.5759 90.683 68.2781 90.5597 67.9677 90.5597C67.6572 90.5597 67.3594 90.683 67.1399 90.9026C66.9204 91.1221 66.7971 91.4199 66.7971 91.7303Z" fill="#111111"/>
<path d="M57.5571 84.9486C58.5307 84.9471 59.482 84.657 60.2908 84.115C61.0996 83.5729 61.7295 82.8033 62.101 81.9034C62.4726 81.0034 62.569 80.0136 62.3781 79.0589C62.1872 78.1042 61.7176 77.2275 61.0286 76.5396C60.3396 75.8517 59.4622 75.3834 58.5071 75.1941C57.5521 75.0047 56.5624 75.1027 55.6631 75.4756C54.7637 75.8485 53.9951 76.4797 53.4544 77.2893C52.9136 78.099 52.625 79.0507 52.625 80.0243C52.625 80.6717 52.7526 81.3126 53.0006 81.9106C53.2485 82.5085 53.612 83.0517 54.0701 83.5091C54.5282 83.9665 55.0719 84.329 55.6703 84.576C56.2686 84.8231 56.9098 84.9497 57.5571 84.9486ZM60.9128 80.0243C60.9144 80.6902 60.7182 81.3416 60.3492 81.8959C59.9802 82.4502 59.455 82.8826 58.8401 83.1381C58.2252 83.3937 57.5482 83.4609 56.8951 83.3314C56.2419 83.2019 55.6418 82.8814 55.171 82.4105C54.7001 81.9396 54.3796 81.3396 54.2501 80.6864C54.1205 80.0332 54.1878 79.3563 54.4433 78.7414C54.6989 78.1264 55.1312 77.6012 55.6855 77.2322C56.2398 76.8632 56.8912 76.6671 57.5571 76.6686C58.4465 76.6707 59.2988 77.0249 59.9277 77.6537C60.5566 78.2826 60.9108 79.135 60.9128 80.0243Z" fill="#111111"/>
<path d="M57.5571 80.8047H58.9931C59.2 80.8047 59.3985 80.7225 59.5449 80.5761C59.6912 80.4298 59.7735 80.2313 59.7735 80.0243C59.7735 79.8173 59.6912 79.6189 59.5449 79.4725C59.3985 79.3261 59.2 79.2439 58.9931 79.2439H58.5326C58.4809 79.2439 58.4313 79.2234 58.3947 79.1868C58.3581 79.1502 58.3375 79.1006 58.3375 79.0488V78.2294C58.3375 78.0224 58.2553 77.8239 58.109 77.6776C57.9626 77.5312 57.7641 77.449 57.5571 77.449C57.3502 77.449 57.1517 77.5312 57.0053 77.6776C56.8589 77.8239 56.7767 78.0224 56.7767 78.2294V80.0243C56.7767 80.2313 56.8589 80.4298 57.0053 80.5761C57.1517 80.7225 57.3502 80.8047 57.5571 80.8047Z" fill="#111111"/>
</g>
</g>
<g id="Size=24px, Filled=true">
<g id="Vector_11">
<path d="M92.8599 93.2764C92.8599 93.6489 93.0079 94.0062 93.2713 94.2697C93.5348 94.5331 93.8921 94.6811 94.2646 94.6811C94.6372 94.6811 94.9945 94.5331 95.2579 94.2697C95.5214 94.0062 95.6694 93.6489 95.6694 93.2764C95.6694 92.9038 95.5214 92.5465 95.2579 92.2831C94.9945 92.0197 94.6372 91.8717 94.2646 91.8717C93.8921 91.8717 93.5348 92.0197 93.2713 92.2831C93.0079 92.5465 92.8599 92.9038 92.8599 93.2764Z" fill="#111111"/>
<path d="M105.446 85.2788C105.337 84.8909 105.107 84.5483 104.788 84.302C104.469 84.0557 104.079 83.9188 103.676 83.9116H101.344C101.286 83.9097 101.23 83.887 101.187 83.8474C101.144 83.8079 101.117 83.7542 101.11 83.6962C101.04 83.2976 100.831 82.9366 100.522 82.6763C100.212 82.4161 99.82 82.2732 99.4153 82.2727H97.1677C97.1249 82.2745 97.0833 82.2876 97.0471 82.3106C97.0109 82.3336 96.9814 82.3658 96.9617 82.4039C96.3755 83.5709 95.4767 84.5522 94.3656 85.2384C93.2544 85.9246 91.9745 86.2887 90.6686 86.2902H90.0786C90.0104 86.2894 89.9441 86.3126 89.8913 86.3558C89.8671 86.3766 89.8478 86.4025 89.8349 86.4317C89.8219 86.4608 89.8156 86.4925 89.8164 86.5244V91.4034C89.8164 91.8381 89.989 92.2549 90.2964 92.5623C90.6037 92.8696 91.0205 93.0423 91.4552 93.0423H91.7455C91.8003 93.0434 91.8537 93.0252 91.8965 92.991C91.9393 92.9568 91.9687 92.9086 91.9796 92.855C92.0715 92.3142 92.3517 91.8233 92.7708 91.4694C93.1899 91.1155 93.7208 90.9213 94.2693 90.9213C94.8179 90.9213 95.3487 91.1155 95.7678 91.4694C96.1869 91.8233 96.4672 92.3142 96.559 92.855C96.5677 92.9088 96.5949 92.9579 96.636 92.9938C96.677 93.0297 96.7293 93.0501 96.7838 93.0516H100.67C100.726 93.0505 100.779 93.0304 100.822 92.9946C100.865 92.9588 100.894 92.9096 100.904 92.855C100.996 92.3142 101.276 91.8233 101.695 91.4694C102.115 91.1155 102.645 90.9213 103.194 90.9213C103.743 90.9213 104.273 91.1155 104.692 91.4694C105.112 91.8233 105.392 92.3142 105.484 92.855C105.492 92.8979 105.516 92.9364 105.55 92.9638C105.584 92.9912 105.627 93.0057 105.671 93.0048C105.936 92.991 106.193 92.912 106.42 92.7748C106.648 92.6376 106.837 92.4464 106.973 92.2182C107.114 91.9879 107.204 91.7297 107.237 91.4614C107.269 91.1931 107.243 90.9209 107.16 90.6636L105.446 85.2788ZM103.48 85.7752C103.529 85.7746 103.577 85.7896 103.618 85.8182C103.658 85.8468 103.689 85.8875 103.704 85.9344C103.77 86.1217 103.901 86.5244 104.163 87.3578C104.179 87.3899 104.187 87.4251 104.187 87.4608C104.187 87.4966 104.179 87.5318 104.163 87.5639C104.143 87.5948 104.115 87.6198 104.082 87.6362C104.049 87.6527 104.013 87.6601 103.976 87.6575H101.298C101.236 87.6575 101.176 87.6328 101.132 87.5889C101.088 87.545 101.063 87.4855 101.063 87.4234V86.0187C101.063 85.9582 101.087 85.9 101.129 85.8563C101.171 85.8127 101.228 85.787 101.288 85.7845L103.48 85.7752Z" fill="#111111"/>
<path d="M101.756 93.2764C101.756 93.6489 101.904 94.0062 102.168 94.2697C102.431 94.5331 102.789 94.6811 103.161 94.6811C103.534 94.6811 103.891 94.5331 104.154 94.2697C104.418 94.0062 104.566 93.6489 104.566 93.2764C104.566 92.9038 104.418 92.5465 104.154 92.2831C103.891 92.0197 103.534 91.8717 103.161 91.8717C102.789 91.8717 102.431 92.0197 102.168 92.2831C101.904 92.5465 101.756 92.9038 101.756 93.2764Z" fill="#111111"/>
<path d="M90.6686 85.1384C91.8369 85.1365 92.9784 84.7884 93.949 84.1379C94.9195 83.4875 95.6754 82.564 96.1212 81.4841C96.5671 80.4041 96.6827 79.2163 96.4537 78.0706C96.2246 76.925 95.6611 75.8729 94.8343 75.0475C94.0075 74.222 92.9546 73.6601 91.8086 73.4329C90.6626 73.2056 89.4749 73.3232 88.3957 73.7707C87.3165 74.2182 86.3941 74.9756 85.7452 75.9472C85.0963 76.9188 84.75 78.0609 84.75 79.2292C84.75 80.006 84.9032 80.7752 85.2007 81.4927C85.4983 82.2102 85.9344 82.8621 86.4841 83.4109C87.0338 83.9598 87.6863 84.3948 88.4043 84.6913C89.1223 84.9877 89.8918 85.1396 90.6686 85.1384ZM94.6954 79.2292C94.6973 80.0283 94.4619 80.8099 94.0191 81.4751C93.5763 82.1403 92.946 82.6591 92.2081 82.9657C91.4702 83.2724 90.6579 83.3531 89.8741 83.1977C89.0902 83.0422 88.3702 82.6576 87.8052 82.0926C87.2401 81.5275 86.8555 80.8075 86.7001 80.0237C86.5446 79.2399 86.6253 78.4275 86.932 77.6896C87.2387 76.9517 87.7574 76.3214 88.4226 75.8786C89.0878 75.4359 89.8695 75.2005 90.6686 75.2023C91.7358 75.2048 92.7586 75.6299 93.5132 76.3845C94.2679 77.1391 94.6929 78.162 94.6954 79.2292Z" fill="#111111"/>
<path d="M90.6686 80.1657H92.3917C92.64 80.1657 92.8782 80.067 93.0539 79.8914C93.2295 79.7158 93.3282 79.4776 93.3282 79.2292C93.3282 78.9808 93.2295 78.7426 93.0539 78.567C92.8782 78.3914 92.64 78.2927 92.3917 78.2927H91.8391C91.7771 78.2927 91.7175 78.268 91.6736 78.2241C91.6297 78.1802 91.605 78.1207 91.605 78.0586V77.0753C91.605 76.8269 91.5064 76.5887 91.3307 76.4131C91.1551 76.2375 90.9169 76.1388 90.6686 76.1388C90.4202 76.1388 90.182 76.2375 90.0064 76.4131C89.8307 76.5887 89.7321 76.8269 89.7321 77.0753V79.2292C89.7321 79.4776 89.8307 79.7158 90.0064 79.8914C90.182 80.067 90.4202 80.1657 90.6686 80.1657Z" fill="#111111"/>
</g>
</g>
<g id="Size=32px, Filled=true">
<g id="Vector_12">
<path d="M131.813 96.3685C131.813 96.8652 132.011 97.3416 132.362 97.6929C132.713 98.0441 133.189 98.2415 133.686 98.2415C134.183 98.2415 134.659 98.0441 135.011 97.6929C135.362 97.3416 135.559 96.8652 135.559 96.3685C135.559 95.8718 135.362 95.3954 135.011 95.0441C134.659 94.6929 134.183 94.4955 133.686 94.4955C133.189 94.4955 132.713 94.6929 132.362 95.0441C132.011 95.3954 131.813 95.8718 131.813 96.3685Z" fill="#111111"/>
<path d="M148.595 85.7051C148.45 85.1879 148.142 84.7311 147.717 84.4027C147.292 84.0743 146.772 83.8917 146.235 83.8821H143.126C143.048 83.8796 142.974 83.8493 142.916 83.7966C142.859 83.7438 142.823 83.6723 142.814 83.5949C142.72 83.0635 142.442 82.5821 142.029 82.2351C141.616 81.8881 141.093 81.6976 140.554 81.697H137.557C137.5 81.6994 137.444 81.7168 137.396 81.7475C137.348 81.7782 137.309 81.8211 137.282 81.8718C136.501 83.4278 135.302 84.7362 133.821 85.6511C132.339 86.5661 130.633 87.0516 128.891 87.0537H128.105C128.014 87.0526 127.925 87.0835 127.855 87.1411C127.823 87.1688 127.797 87.2033 127.78 87.2422C127.763 87.2811 127.754 87.3233 127.755 87.3658V93.8712C127.755 94.4508 127.985 95.0066 128.395 95.4163C128.805 95.8261 129.361 96.0563 129.94 96.0563H130.327C130.4 96.0578 130.472 96.0336 130.529 95.988C130.586 95.9424 130.625 95.8782 130.639 95.8066C130.762 95.0856 131.136 94.4311 131.694 93.9592C132.253 93.4873 132.961 93.2284 133.692 93.2284C134.424 93.2284 135.132 93.4873 135.69 93.9592C136.249 94.4311 136.623 95.0856 136.745 95.8066C136.757 95.8784 136.793 95.9438 136.848 95.9917C136.903 96.0396 136.972 96.0669 137.045 96.0688H142.227C142.301 96.0674 142.372 96.0405 142.429 95.9928C142.486 95.9451 142.525 95.8794 142.539 95.8066C142.661 95.0856 143.035 94.4311 143.594 93.9592C144.153 93.4873 144.861 93.2284 145.592 93.2284C146.323 93.2284 147.031 93.4873 147.59 93.9592C148.149 94.4311 148.522 95.0856 148.645 95.8066C148.657 95.8639 148.688 95.9152 148.734 95.9517C148.779 95.9882 148.836 96.0076 148.895 96.0064C149.248 95.9881 149.591 95.8827 149.894 95.6997C150.197 95.5167 150.45 95.2618 150.63 94.9575C150.819 94.6505 150.939 94.3063 150.982 93.9485C151.025 93.5907 150.99 93.2279 150.88 92.8848L148.595 85.7051ZM145.973 86.3669C146.039 86.3661 146.103 86.3862 146.157 86.4243C146.211 86.4625 146.251 86.5167 146.272 86.5792C146.36 86.8289 146.535 87.3658 146.884 88.4771C146.905 88.5199 146.916 88.5668 146.916 88.6145C146.916 88.6621 146.905 88.7091 146.884 88.7518C146.858 88.793 146.82 88.8264 146.776 88.8483C146.733 88.8703 146.684 88.8801 146.635 88.8767H143.063C142.981 88.8767 142.901 88.8438 142.843 88.7852C142.784 88.7267 142.751 88.6473 142.751 88.5645V86.6916C142.751 86.6109 142.782 86.5333 142.838 86.4751C142.894 86.4169 142.97 86.3826 143.051 86.3794L145.973 86.3669Z" fill="#111111"/>
<path d="M143.675 96.3685C143.675 96.8652 143.873 97.3416 144.224 97.6929C144.575 98.0441 145.052 98.2415 145.548 98.2415C146.045 98.2415 146.521 98.0441 146.873 97.6929C147.224 97.3416 147.421 96.8652 147.421 96.3685C147.421 95.8718 147.224 95.3954 146.873 95.0441C146.521 94.6929 146.045 94.4955 145.548 94.4955C145.052 94.4955 144.575 94.6929 144.224 95.0441C143.873 95.3954 143.675 95.8718 143.675 96.3685Z" fill="#111111"/>
<path d="M128.891 85.5178C130.449 85.5154 131.971 85.0512 133.265 84.1839C134.559 83.3167 135.567 82.0853 136.162 80.6454C136.756 79.2055 136.91 77.6217 136.605 76.0942C136.299 74.5666 135.548 73.1639 134.446 72.0633C133.343 70.9626 131.939 70.2135 130.411 69.9105C128.883 69.6075 127.3 69.7643 125.861 70.361C124.422 70.9577 123.192 71.9675 122.327 73.2629C121.462 74.5583 121 76.0811 121 77.6389C121 78.6746 121.204 79.7002 121.601 80.6569C121.998 81.6137 122.579 82.4828 123.312 83.2146C124.045 83.9464 124.915 84.5265 125.872 84.9217C126.83 85.3169 127.856 85.5195 128.891 85.5178ZM134.261 77.6389C134.263 78.7044 133.949 79.7466 133.359 80.6335C132.768 81.5204 131.928 82.2121 130.944 82.621C129.96 83.0299 128.877 83.1375 127.832 82.9302C126.787 82.723 125.827 82.2102 125.074 81.4568C124.32 80.7034 123.807 79.7433 123.6 78.6982C123.393 77.6531 123.5 76.57 123.909 75.5862C124.318 74.6023 125.01 73.7619 125.897 73.1715C126.784 72.5811 127.826 72.2673 128.891 72.2698C130.314 72.2731 131.678 72.8398 132.684 73.846C133.691 74.8522 134.257 76.2159 134.261 77.6389Z" fill="#111111"/>
<path d="M128.891 78.8876H131.189C131.52 78.8876 131.838 78.756 132.072 78.5218C132.306 78.2877 132.438 77.9701 132.438 77.6389C132.438 77.3078 132.306 76.9902 132.072 76.756C131.838 76.5218 131.52 76.3903 131.189 76.3903H130.452C130.369 76.3903 130.29 76.3574 130.231 76.2988C130.173 76.2403 130.14 76.1609 130.14 76.0781V74.767C130.14 74.4359 130.008 74.1183 129.774 73.8841C129.54 73.65 129.223 73.5184 128.891 73.5184C128.56 73.5184 128.243 73.65 128.008 73.8841C127.774 74.1183 127.643 74.4359 127.643 74.767V77.6389C127.643 77.9701 127.774 78.2877 128.008 78.5218C128.243 78.756 128.56 78.8876 128.891 78.8876Z" fill="#111111"/>
</g>
</g>
<g id="Size=40px, Filled=true">
<g id="Vector_13">
<path d="M178.767 99.4606C178.767 100.082 179.013 100.677 179.452 101.116C179.891 101.555 180.487 101.802 181.108 101.802C181.729 101.802 182.324 101.555 182.763 101.116C183.202 100.677 183.449 100.082 183.449 99.4606C183.449 98.8397 183.202 98.2442 182.763 97.8052C182.324 97.3661 181.729 97.1194 181.108 97.1194C180.487 97.1194 179.891 97.3661 179.452 97.8052C179.013 98.2442 178.767 98.8397 178.767 99.4606Z" fill="#111111"/>
<path d="M199.744 86.1314C199.562 85.4848 199.178 84.9139 198.646 84.5034C198.115 84.0929 197.465 83.8647 196.794 83.8526H192.907C192.81 83.8495 192.717 83.8116 192.646 83.7457C192.574 83.6798 192.528 83.5903 192.517 83.4937C192.4 82.8294 192.052 82.2277 191.536 81.7939C191.019 81.3601 190.367 81.122 189.692 81.1212H185.946C185.875 81.1242 185.805 81.146 185.745 81.1843C185.685 81.2227 185.636 81.2763 185.603 81.3398C184.626 83.2848 183.128 84.9203 181.276 86.0639C179.424 87.2076 177.291 87.8145 175.114 87.8171H174.131C174.017 87.8157 173.907 87.8544 173.819 87.9263C173.778 87.961 173.746 88.0042 173.725 88.0528C173.703 88.1013 173.693 88.1541 173.694 88.2073V96.339C173.694 97.0634 173.982 97.7582 174.494 98.2704C175.006 98.7827 175.701 99.0704 176.425 99.0704H176.909C177 99.0723 177.089 99.042 177.161 98.985C177.232 98.928 177.281 98.8477 177.299 98.7583C177.452 97.8569 177.92 97.0389 178.618 96.449C179.317 95.8591 180.201 95.5355 181.116 95.5355C182.03 95.5355 182.914 95.8591 183.613 96.449C184.311 97.0389 184.779 97.8569 184.932 98.7583C184.946 98.848 184.992 98.9298 185.06 98.9896C185.128 99.0495 185.215 99.0836 185.306 99.086H191.784C191.876 99.0842 191.966 99.0507 192.037 98.991C192.108 98.9314 192.156 98.8493 192.174 98.7583C192.327 97.8569 192.794 97.0389 193.492 96.449C194.191 95.8591 195.076 95.5355 195.99 95.5355C196.904 95.5355 197.789 95.8591 198.487 96.449C199.186 97.0389 199.653 97.8569 199.806 98.7583C199.821 98.8298 199.86 98.894 199.917 98.9397C199.974 98.9853 200.045 99.0095 200.118 99.008C200.56 98.9851 200.989 98.8534 201.368 98.6247C201.746 98.3959 202.062 98.0772 202.288 97.6969C202.524 97.3132 202.674 96.8829 202.728 96.4357C202.781 95.9884 202.738 95.5348 202.6 95.106L199.744 86.1314ZM196.466 86.9586C196.548 86.9576 196.629 86.9827 196.696 87.0304C196.764 87.0781 196.814 87.1458 196.841 87.224C196.95 87.5361 197.168 88.2073 197.605 89.5964C197.632 89.6498 197.645 89.7086 197.645 89.7681C197.645 89.8276 197.632 89.8863 197.605 89.9398C197.572 89.9913 197.525 90.033 197.471 90.0604C197.416 90.0879 197.354 90.1001 197.293 90.0958H192.829C192.726 90.0958 192.627 90.0547 192.553 89.9816C192.48 89.9084 192.439 89.8091 192.439 89.7056V87.3644C192.439 87.2636 192.478 87.1666 192.548 87.0939C192.618 87.0212 192.713 86.9783 192.814 86.9742L196.466 86.9586Z" fill="#111111"/>
<path d="M193.594 99.4606C193.594 100.082 193.841 100.677 194.28 101.116C194.719 101.555 195.314 101.802 195.935 101.802C196.556 101.802 197.152 101.555 197.591 101.116C198.03 100.677 198.277 100.082 198.277 99.4606C198.277 98.8397 198.03 98.2442 197.591 97.8052C197.152 97.3661 196.556 97.1194 195.935 97.1194C195.314 97.1194 194.719 97.3661 194.28 97.8052C193.841 98.2442 193.594 98.8397 193.594 99.4606Z" fill="#111111"/>
<path d="M175.114 85.8973C177.061 85.8942 178.964 85.314 180.582 84.2299C182.199 83.1459 183.459 81.6066 184.202 79.8068C184.945 78.0069 185.138 76.0271 184.756 74.1177C184.374 72.2083 183.435 70.4549 182.057 69.0791C180.679 67.7033 178.924 66.7669 177.014 66.3881C175.104 66.0094 173.125 66.2053 171.326 66.9512C169.527 67.6971 167.99 68.9594 166.909 70.5787C165.827 72.1979 165.25 74.1014 165.25 76.0486C165.25 77.3433 165.505 78.6253 166.001 79.8212C166.497 81.0171 167.224 82.1035 168.14 83.0182C169.056 83.9329 170.144 84.6581 171.341 85.1521C172.537 85.6461 173.82 85.8993 175.114 85.8973ZM181.826 76.0486C181.829 77.3805 181.436 78.6832 180.698 79.7919C179.96 80.9005 178.91 81.7651 177.68 82.2762C176.45 82.7873 175.096 82.9218 173.79 82.6628C172.484 82.4037 171.284 81.7627 170.342 80.821C169.4 79.8792 168.759 78.6792 168.5 77.3728C168.241 76.0664 168.376 74.7126 168.887 73.4827C169.398 72.2529 170.262 71.2024 171.371 70.4644C172.48 69.7264 173.782 69.3341 175.114 69.3372C176.893 69.3413 178.598 70.0498 179.855 71.3075C181.113 72.5652 181.822 74.2699 181.826 76.0486Z" fill="#111111"/>
<path d="M175.114 77.6094H177.986C178.4 77.6094 178.797 77.445 179.09 77.1523C179.382 76.8596 179.547 76.4626 179.547 76.0486C179.547 75.6347 179.382 75.2377 179.09 74.945C178.797 74.6523 178.4 74.4878 177.986 74.4878H177.065C176.962 74.4878 176.863 74.4467 176.789 74.3736C176.716 74.3004 176.675 74.2011 176.675 74.0976V72.4588C176.675 72.0449 176.511 71.6479 176.218 71.3552C175.925 71.0625 175.528 70.898 175.114 70.898C174.7 70.898 174.303 71.0625 174.011 71.3552C173.718 71.6479 173.553 72.0449 173.553 72.4588V76.0486C173.553 76.4626 173.718 76.8596 174.011 77.1523C174.303 77.445 174.7 77.6094 175.114 77.6094Z" fill="#111111"/>
</g>
</g>
<g id="Size=48px, Filled=true">
<g id="Vector_14">
<path d="M233.72 102.553C233.72 103.298 234.016 104.012 234.543 104.539C235.07 105.066 235.784 105.362 236.529 105.362C237.274 105.362 237.989 105.066 238.516 104.539C239.043 104.012 239.339 103.298 239.339 102.553C239.339 101.808 239.043 101.093 238.516 100.566C237.989 100.039 237.274 99.7433 236.529 99.7433C235.784 99.7433 235.07 100.039 234.543 100.566C234.016 101.093 233.72 101.808 233.72 102.553Z" fill="#111111"/>
<path d="M258.892 86.5577C258.675 85.7818 258.213 85.0967 257.575 84.6041C256.938 84.1114 256.158 83.8376 255.352 83.8232H250.689C250.572 83.8195 250.461 83.7739 250.375 83.6948C250.289 83.6157 250.234 83.5084 250.221 83.3924C250.08 82.5953 249.663 81.8732 249.043 81.3526C248.423 80.8321 247.64 80.5464 246.831 80.5455H242.335C242.25 80.549 242.167 80.5752 242.094 80.6212C242.022 80.6673 241.963 80.7316 241.923 80.8077C240.751 83.1417 238.953 85.1043 236.731 86.4767C234.509 87.8491 231.949 88.5774 229.337 88.5805H228.157C228.021 88.5788 227.888 88.6252 227.783 88.7116C227.734 88.7532 227.696 88.805 227.67 88.8633C227.644 88.9216 227.631 88.9849 227.633 89.0487V98.8068C227.633 99.6761 227.978 100.51 228.593 101.125C229.207 101.739 230.041 102.085 230.91 102.085H231.491C231.601 102.087 231.707 102.05 231.793 101.982C231.879 101.914 231.937 101.817 231.959 101.71C232.143 100.628 232.703 99.6466 233.542 98.9388C234.38 98.2309 235.442 97.8426 236.539 97.8426C237.636 97.8426 238.697 98.2309 239.536 98.9388C240.374 99.6466 240.934 100.628 241.118 101.71C241.135 101.818 241.19 101.916 241.272 101.988C241.354 102.059 241.459 102.1 241.568 102.103H249.34C249.452 102.101 249.559 102.061 249.644 101.989C249.729 101.918 249.787 101.819 249.809 101.71C249.992 100.628 250.553 99.6466 251.391 98.9388C252.229 98.2309 253.291 97.8426 254.388 97.8426C255.485 97.8426 256.547 98.2309 257.385 98.9388C258.223 99.6466 258.784 100.628 258.967 101.71C258.985 101.796 259.032 101.873 259.1 101.928C259.169 101.982 259.254 102.011 259.342 102.01C259.872 101.982 260.387 101.824 260.841 101.55C261.295 101.275 261.675 100.893 261.945 100.436C262.228 99.9758 262.408 99.4595 262.473 98.9228C262.538 98.3861 262.486 97.8418 262.32 97.3272L258.892 86.5577ZM254.959 87.5504C255.058 87.5491 255.155 87.5793 255.236 87.6365C255.316 87.6937 255.377 87.775 255.409 87.8688C255.54 88.2434 255.802 89.0487 256.326 90.7157C256.358 90.7798 256.374 90.8503 256.374 90.9217C256.374 90.9931 256.358 91.0636 256.326 91.1277C256.286 91.1896 256.231 91.2396 256.165 91.2725C256.099 91.3054 256.025 91.3201 255.952 91.315H250.595C250.471 91.315 250.352 91.2657 250.264 91.1779C250.176 91.09 250.127 90.971 250.127 90.8468V88.0373C250.127 87.9163 250.174 87.8 250.257 87.7127C250.341 87.6254 250.456 87.5739 250.576 87.5691L254.959 87.5504Z" fill="#111111"/>
<path d="M251.513 102.553C251.513 103.298 251.809 104.012 252.336 104.539C252.863 105.066 253.577 105.362 254.322 105.362C255.067 105.362 255.782 105.066 256.309 104.539C256.836 104.012 257.132 103.298 257.132 102.553C257.132 101.808 256.836 101.093 256.309 100.566C255.782 100.039 255.067 99.7433 254.322 99.7433C253.577 99.7433 252.863 100.039 252.336 100.566C251.809 101.093 251.513 101.808 251.513 102.553Z" fill="#111111"/>
<path d="M229.337 86.2767C231.674 86.273 233.957 85.5768 235.898 84.2759C237.839 82.975 239.351 81.128 240.242 78.9681C241.134 76.8083 241.365 74.4326 240.907 72.1413C240.449 69.85 239.322 67.7459 237.669 66.0949C236.015 64.444 233.909 63.3202 231.617 62.8657C229.325 62.4112 226.95 62.6464 224.791 63.5414C222.633 64.4365 220.788 65.9513 219.49 67.8944C218.193 69.8375 217.5 72.1217 217.5 74.4584C217.5 76.012 217.806 77.5503 218.401 78.9854C218.997 80.4205 219.869 81.7242 220.968 82.8219C222.068 83.9195 223.373 84.7897 224.809 85.3825C226.245 85.9753 227.784 86.2792 229.337 86.2767ZM237.391 74.4584C237.395 76.0565 236.924 77.6199 236.038 78.9502C235.153 80.2806 233.892 81.3182 232.416 81.9315C230.94 82.5448 229.316 82.7062 227.748 82.3953C226.18 82.0845 224.74 81.3153 223.61 80.1852C222.48 79.0551 221.711 77.615 221.4 76.0474C221.089 74.4797 221.251 72.8551 221.864 71.3793C222.477 69.9034 223.515 68.6429 224.845 67.7573C226.176 66.8717 227.739 66.4009 229.337 66.4047C231.472 66.4096 233.517 67.2597 235.026 68.769C236.536 70.2783 237.386 72.3239 237.391 74.4584Z" fill="#111111"/>
<path d="M229.337 76.3313H232.783C233.28 76.3313 233.756 76.134 234.108 75.7828C234.459 75.4315 234.656 74.9551 234.656 74.4584C234.656 73.9616 234.459 73.4852 234.108 73.134C233.756 72.7827 233.28 72.5854 232.783 72.5854H231.678C231.554 72.5854 231.435 72.5361 231.347 72.4483C231.259 72.3605 231.21 72.2414 231.21 72.1172V70.1506C231.21 69.6538 231.013 69.1774 230.661 68.8262C230.31 68.4749 229.834 68.2776 229.337 68.2776C228.84 68.2776 228.364 68.4749 228.013 68.8262C227.661 69.1774 227.464 69.6538 227.464 70.1506V74.4584C227.464 74.9551 227.661 75.4315 228.013 75.7828C228.364 76.134 228.84 76.3313 229.337 76.3313Z" fill="#111111"/>
</g>
</g>
</g>
</g>
<defs>
<clipPath id="clip0_7887_116">
<rect width="264" height="108" rx="5" fill="white"/>
</clipPath>
<clipPath id="clip1_7887_116">
<rect width="12" height="12" fill="white" transform="translate(0 78)"/>
</clipPath>
<clipPath id="clip2_7887_116">
<rect width="16" height="16" fill="white" transform="translate(24 76)"/>
</clipPath>
</defs>
</svg>
