<svg width="264" height="108" viewBox="0 0 264 108" fill="none" xmlns="http://www.w3.org/2000/svg">
<g id="Shipment tax">
<g clip-path="url(#clip0_2170_503)">
<g id="Size=12px, Filled=false" clip-path="url(#clip1_2170_503)">
<path id="Vector" d="M9.06509 25.156H8.20817C7.93669 25.1551 7.70293 25.3474 7.65141 25.6139C7.59989 25.8805 7.74517 26.146 7.99742 26.2464L8.86698 26.5945C9.11827 26.6957 9.26261 26.9607 9.21121 27.2267C9.15981 27.4926 8.92709 27.6848 8.65623 27.685H7.80058M8.43265 25.0875V24.525M8.43267 28.2475V27.685M4.24996 27.15H1.44999C1.26434 27.15 1.0863 27.0762 0.955023 26.945C0.823749 26.8137 0.75 26.6356 0.75 26.45V21.5501C0.75 21.3644 0.823749 21.1864 0.955023 21.0551C1.0863 20.9238 1.26434 20.8501 1.44999 20.8501H8.44991C8.63556 20.8501 8.8136 20.9238 8.94488 21.0551C9.07615 21.1864 9.1499 21.3644 9.1499 21.5501V22.25M8.92404 21.0352L7.60759 19.0617C7.54381 18.966 7.45743 18.8875 7.3561 18.8332C7.25476 18.7788 7.14159 18.7502 7.0266 18.75H2.87331C2.75808 18.75 2.64463 18.7785 2.54303 18.8328C2.44144 18.8872 2.35484 18.9658 2.29092 19.0617L0.975869 21.0352M4.94985 18.75V20.85M5.64997 26.45C5.64997 27.1926 5.94497 27.9048 6.47006 28.4298C6.99516 28.9549 7.70734 29.2499 8.44994 29.2499C9.19254 29.2499 9.90472 28.9549 10.4298 28.4298C10.9549 27.9048 11.2499 27.1926 11.2499 26.45C11.2499 25.7074 10.9549 24.9952 10.4298 24.4701C9.90472 23.945 9.19254 23.65 8.44994 23.65C7.70734 23.65 6.99516 23.945 6.47006 24.4701C5.94497 24.9952 5.64997 25.7074 5.64997 26.45Z" stroke="#111111" stroke-width="0.75" stroke-linecap="round" stroke-linejoin="round"/>
</g>
<g id="Size=16px, Filled=false" clip-path="url(#clip2_2170_503)">
<path id="Vector_2" d="M36.0868 25.5413H34.9442C34.5822 25.5401 34.2706 25.7965 34.2019 26.1519C34.1332 26.5073 34.3269 26.8614 34.6632 26.9952L35.8226 27.4594C36.1577 27.5942 36.3501 27.9476 36.2816 28.3022C36.2131 28.6568 35.9028 28.913 35.5416 28.9133H34.4008M35.2435 25.45V24.7M35.2436 29.6633V28.9133M29.6666 28.2H25.9333C25.6858 28.2 25.4484 28.1017 25.2734 27.9266C25.0983 27.7516 25 27.5142 25 27.2667V20.7334C25 20.4859 25.0983 20.2485 25.2734 20.0734C25.4484 19.8984 25.6858 19.8001 25.9333 19.8001H35.2665C35.5141 19.8001 35.7515 19.8984 35.9265 20.0734C36.1015 20.2485 36.1999 20.4859 36.1999 20.7334V21.6667M35.8987 20.047L34.1435 17.4156C34.0584 17.2881 33.9432 17.1834 33.8081 17.1109C33.673 17.0384 33.5221 17.0003 33.3688 17H27.8311C27.6774 17 27.5262 17.038 27.3907 17.1105C27.2552 17.183 27.1398 17.2878 27.0546 17.4156L25.3012 20.047M30.5998 17V19.8M31.5333 27.2666C31.5333 28.2568 31.9266 29.2063 32.6267 29.9065C33.3269 30.6066 34.2765 30.9999 35.2666 30.9999C36.2567 30.9999 37.2063 30.6066 37.9064 29.9065C38.6065 29.2063 38.9999 28.2568 38.9999 27.2666C38.9999 26.2765 38.6065 25.3269 37.9064 24.6268C37.2063 23.9267 36.2567 23.5333 35.2666 23.5333C34.2765 23.5333 33.3269 23.9267 32.6267 24.6268C31.9266 25.3269 31.5333 26.2765 31.5333 27.2666Z" stroke="#111111" stroke-linecap="round" stroke-linejoin="round"/>
</g>
<g id="Size=20px, Filled=false" clip-path="url(#clip3_2170_503)">
<path id="Vector_3" d="M67.1085 25.9266H65.6803C65.2278 25.9252 64.8382 26.2456 64.7524 26.6899C64.6665 27.1341 64.9086 27.5767 65.329 27.744L66.7783 28.3242C67.1971 28.4928 67.4377 28.9345 67.352 29.3778C67.2664 29.821 66.8785 30.1413 66.427 30.1416H65.001M66.0544 25.8125V24.875M66.0544 31.0791V30.1416M59.0833 29.25H54.4167C54.1072 29.25 53.8105 29.1271 53.5917 28.9083C53.3729 28.6895 53.25 28.3927 53.25 28.0833V19.9168C53.25 19.6073 53.3729 19.3106 53.5917 19.0918C53.8105 18.873 54.1072 18.7501 54.4167 18.7501H66.0832C66.3926 18.7501 66.6893 18.873 66.9081 19.0918C67.1269 19.3106 67.2498 19.6073 67.2498 19.9168V21.0834M66.8734 19.0587L64.6793 15.7695C64.573 15.6101 64.429 15.4792 64.2602 15.3886C64.0913 15.298 63.9027 15.2504 63.711 15.25H56.7889C56.5968 15.25 56.4077 15.2974 56.2384 15.3881C56.0691 15.4787 55.9247 15.6097 55.8182 15.7695L53.6264 19.0587M60.2498 15.25V18.75M61.4166 28.0833C61.4166 29.3209 61.9083 30.5079 62.7834 31.3831C63.6586 32.2582 64.8456 32.7499 66.0832 32.7499C67.3209 32.7499 68.5079 32.2582 69.383 31.3831C70.2582 30.5079 70.7498 29.3209 70.7498 28.0833C70.7498 26.8456 70.2582 25.6587 69.383 24.7835C68.5079 23.9083 67.3209 23.4167 66.0832 23.4167C64.8456 23.4167 63.6586 23.9083 62.7834 24.7835C61.9083 25.6587 61.4166 26.8456 61.4166 28.0833Z" stroke="#111111" stroke-width="1.25" stroke-linecap="round" stroke-linejoin="round"/>
</g>
<g id="Size=24px, Filled=false" clip-path="url(#clip4_2170_503)">
<path id="Vector_4" d="M102.422 26.422H100.627C100.058 26.4202 99.568 26.8231 99.4601 27.3816C99.3521 27.9401 99.6565 28.4964 100.185 28.7067L102.007 29.4362C102.534 29.648 102.836 30.2034 102.728 30.7606C102.621 31.3179 102.133 31.7205 101.565 31.7209H99.7726M101.097 26.4222V25.7598M101.097 32.3834V31.721M92.3333 30.6H86.4667C86.0777 30.6 85.7046 30.4455 85.4296 30.1704C85.1545 29.8954 85 29.5223 85 29.1333V18.8667C85 18.4777 85.1545 18.1046 85.4296 17.8296C85.7046 17.5545 86.0777 17.4 86.4667 17.4H101.133C101.522 17.4 101.895 17.5545 102.17 17.8296C102.445 18.1046 102.6 18.4777 102.6 18.8667V20.3333M102.127 17.7882L99.3688 13.6532C99.2352 13.4527 99.0542 13.2882 98.8419 13.1743C98.6295 13.0604 98.3924 13.0005 98.1515 13H89.4493C89.2078 13 88.9701 13.0596 88.7572 13.1736C88.5444 13.2875 88.3629 13.4523 88.229 13.6532L85.4736 17.7882M93.8 13V17.4M95.2667 29.1333C95.2667 30.6893 95.8848 32.1815 96.985 33.2817C98.0852 34.3819 99.5774 35 101.133 35C102.689 35 104.181 34.3819 105.282 33.2817C106.382 32.1815 107 30.6893 107 29.1333C107 27.5774 106.382 26.0852 105.282 24.985C104.181 23.8848 102.689 23.2667 101.133 23.2667C99.5774 23.2667 98.0852 23.8848 96.985 24.985C95.8848 26.0852 95.2667 27.5774 95.2667 29.1333Z" stroke="#111111" stroke-width="1.5" stroke-linecap="round" stroke-linejoin="round"/>
</g>
<g id="Size=32px, Filled=false">
<path id="Vector_5" d="M144.174 27.0826H141.889C141.165 27.0803 140.542 27.593 140.404 28.3038C140.267 29.0146 140.654 29.7227 141.327 29.9904L143.646 30.9188C144.316 31.1884 144.701 31.8952 144.564 32.6044C144.427 33.3136 143.806 33.8261 143.084 33.8266H140.802M142.488 26.9V25.4M142.488 35.3266V33.8266M131.334 32.4H123.867C123.372 32.4 122.897 32.2033 122.547 31.8532C122.197 31.5032 122 31.0284 122 30.5333V17.4668C122 16.9717 122.197 16.497 122.547 16.1469C122.897 15.7968 123.372 15.6002 123.867 15.6002H142.534C143.029 15.6002 143.503 15.7968 143.853 16.1469C144.204 16.497 144.4 16.9717 144.4 17.4668V19.3335M143.798 16.094L140.287 10.8313C140.117 10.5761 139.887 10.3668 139.617 10.2218C139.347 10.0768 139.045 10.0006 138.738 10H127.663C127.355 10 127.053 10.0759 126.782 10.2209C126.511 10.3659 126.28 10.5756 126.11 10.8313L122.603 16.094M133.2 10V15.5999M135.067 30.5333C135.067 32.5135 135.854 34.4127 137.254 35.8129C138.654 37.2132 140.553 37.9998 142.534 37.9998C144.514 37.9998 146.413 37.2132 147.813 35.8129C149.214 34.4127 150 32.5135 150 30.5333C150 28.553 149.214 26.6538 147.813 25.2536C146.413 23.8533 144.514 23.0667 142.534 23.0667C140.553 23.0667 138.654 23.8533 137.254 25.2536C135.854 26.6538 135.067 28.553 135.067 30.5333Z" stroke="#111111" stroke-width="2" stroke-linecap="round" stroke-linejoin="round"/>
</g>
<g id="Size=40px, Filled=false">
<path id="Vector_6" d="M194.217 27.8532H191.361C190.456 27.8503 189.677 28.4912 189.505 29.3798C189.333 30.2683 189.818 31.1534 190.659 31.4879L193.557 32.6485C194.395 32.9855 194.876 33.869 194.705 34.7555C194.533 35.642 193.757 36.2826 192.855 36.2832H190.002M192.109 27.625V25.75M192.109 38.1583V36.2833M178.167 34.5H168.834C168.215 34.5 167.621 34.2541 167.184 33.8166C166.746 33.379 166.5 32.7855 166.5 32.1667V15.8335C166.5 15.2147 166.746 14.6212 167.184 14.1836C167.621 13.746 168.215 13.5002 168.834 13.5002H192.167C192.786 13.5002 193.379 13.746 193.817 14.1836C194.254 14.6212 194.5 15.2147 194.5 15.8335V18.1668M193.747 14.1175L189.359 7.5391C189.147 7.22014 188.859 6.95848 188.521 6.77725C188.183 6.59602 187.806 6.5008 187.422 6.5H173.578C173.194 6.50003 172.816 6.59488 172.477 6.77615C172.139 6.95742 171.85 7.21949 171.637 7.5391L167.253 14.1175M180.5 6.5V13.4999M182.834 32.1666C182.834 34.6419 183.817 37.0158 185.567 38.7662C187.318 40.5165 189.692 41.4998 192.167 41.4998C194.642 41.4998 197.016 40.5165 198.767 38.7662C200.517 37.0158 201.5 34.6419 201.5 32.1666C201.5 29.6912 200.517 27.3173 198.767 25.567C197.016 23.8167 194.642 22.8333 192.167 22.8333C189.692 22.8333 187.318 23.8167 185.567 25.567C183.817 27.3173 182.834 29.6912 182.834 32.1666Z" stroke="#111111" stroke-width="2.5" stroke-linecap="round" stroke-linejoin="round"/>
</g>
<g id="Size=48px, Filled=false">
<path id="Vector_7" d="M252.261 28.6238H248.833C247.747 28.6204 246.812 29.3895 246.606 30.4557C246.4 31.522 246.981 32.5841 247.99 32.9855L251.468 34.3782C252.474 34.7826 253.051 35.8428 252.845 36.9066C252.64 37.9704 251.709 38.7391 250.625 38.7399H247.203M249.731 28.35V26.1M249.731 40.99V38.74M233 36.6H221.8C221.058 36.6 220.346 36.305 219.821 35.7799C219.295 35.2548 219 34.5426 219 33.8V14.2002C219 13.4576 219.295 12.7454 219.821 12.2203C220.346 11.6952 221.058 11.4003 221.8 11.4003H249.8C250.543 11.4003 251.255 11.6952 251.78 12.2203C252.305 12.7454 252.6 13.4576 252.6 14.2002V17.0002M251.697 12.141L246.431 4.24692C246.176 3.86417 245.83 3.55018 245.425 3.3327C245.02 3.11522 244.567 3.00095 244.107 3H227.494C227.033 3.00003 226.579 3.11386 226.173 3.33138C225.766 3.5489 225.42 3.86339 225.164 4.24692L219.904 12.141M235.8 3V11.3999M238.6 33.7999C238.6 36.7703 239.78 39.619 241.881 41.7194C243.981 43.8198 246.83 44.9998 249.8 44.9998C252.771 44.9998 255.619 43.8198 257.72 41.7194C259.82 39.619 261 36.7703 261 33.7999C261 30.8295 259.82 27.9808 257.72 25.8804C255.619 23.78 252.771 22.6 249.8 22.6C246.83 22.6 243.981 23.78 241.881 25.8804C239.78 27.9808 238.6 30.8295 238.6 33.7999Z" stroke="#111111" stroke-width="3" stroke-linecap="round" stroke-linejoin="round"/>
</g>
<g id="Size=12px, Filled=true">
<g id="Vector_8">
<path d="M4.58696 80.5217C4.58696 80.5506 4.59841 80.5782 4.61879 80.5986C4.63918 80.619 4.66682 80.6304 4.69565 80.6304H7.02174C7.04308 80.6311 7.06411 80.6252 7.08199 80.6135C7.09987 80.6019 7.11374 80.585 7.12174 80.5652C7.13033 80.545 7.13285 80.5227 7.12899 80.5011C7.12513 80.4795 7.11506 80.4595 7.1 80.4435L5.84783 79.1913C5.7251 79.0698 5.55968 79.0011 5.38696 79H4.69565C4.66682 79 4.63918 79.0115 4.61879 79.0318C4.59841 79.0522 4.58696 79.0799 4.58696 79.1087V80.5217Z" fill="#111111"/>
<path d="M7.43478 82.7783C7.45933 82.7724 7.48122 82.7586 7.49697 82.7389C7.51273 82.7192 7.52145 82.6948 7.52174 82.6696V81.3913C7.52174 81.3625 7.51029 81.3348 7.4899 81.3144C7.46952 81.2941 7.44187 81.2826 7.41304 81.2826H1.1087C1.07987 81.2826 1.05222 81.2941 1.03184 81.3144C1.01145 81.3348 1 81.3625 1 81.3913V85.3043C1 85.4773 1.06871 85.6432 1.19102 85.7655C1.31332 85.8878 1.47921 85.9565 1.65217 85.9565H4.60435C4.62864 85.9526 4.65089 85.9406 4.66747 85.9225C4.68406 85.9043 4.69399 85.8811 4.69565 85.8565C4.76466 85.1185 5.06761 84.4219 5.56034 83.8681C6.05307 83.3144 6.7098 82.9326 7.43478 82.7783Z" fill="#111111"/>
<path d="M3.82615 80.6304C3.85498 80.6304 3.88263 80.619 3.90301 80.5986C3.92339 80.5782 3.93485 80.5506 3.93485 80.5217V79.1087C3.93485 79.0799 3.92339 79.0522 3.90301 79.0318C3.88263 79.0115 3.85498 79 3.82615 79H3.13485C2.96213 79.0011 2.7967 79.0698 2.67398 79.1913L1.4218 80.4435C1.40675 80.4595 1.39667 80.4795 1.39281 80.5011C1.38895 80.5227 1.39147 80.545 1.40006 80.5652C1.4075 80.5854 1.42125 80.6026 1.43926 80.6144C1.45728 80.6261 1.4786 80.6318 1.50006 80.6304H3.82615Z" fill="#111111"/>
<path d="M8.17391 83.3478C7.61497 83.3478 7.06857 83.5136 6.60382 83.8241C6.13908 84.1346 5.77685 84.576 5.56295 85.0924C5.34905 85.6088 5.29308 86.177 5.40213 86.7253C5.51117 87.2735 5.78033 87.777 6.17557 88.1723C6.5708 88.5675 7.07436 88.8367 7.62257 88.9457C8.17078 89.0547 8.73901 88.9988 9.25541 88.7849C9.77181 88.571 10.2132 88.2087 10.5237 87.744C10.8343 87.2793 11 86.7329 11 86.1739C10.9989 85.4247 10.7007 84.7066 10.171 84.1768C9.64124 83.6471 8.92309 83.349 8.17391 83.3478ZM7.84783 87.913C7.84783 87.8842 7.83638 87.8566 7.81599 87.8362C7.79561 87.8158 7.76796 87.8043 7.73913 87.8043H7.52174C7.43526 87.8043 7.35231 87.77 7.29116 87.7088C7.23001 87.6477 7.19565 87.5647 7.19565 87.4783C7.19565 87.3918 7.23001 87.3088 7.29116 87.2477C7.35231 87.1865 7.43526 87.1522 7.52174 87.1522H8.3913C8.45139 87.1528 8.5098 87.1324 8.55635 87.0944C8.60291 87.0564 8.63464 87.0033 8.64603 86.9443C8.65741 86.8853 8.64773 86.8242 8.61866 86.7716C8.58959 86.719 8.54298 86.6783 8.48696 86.6565L7.59131 86.2957C7.40762 86.2243 7.25213 86.0951 7.14825 85.9276C7.04438 85.7602 6.99776 85.5635 7.01543 85.3672C7.03309 85.1709 7.11408 84.9857 7.24619 84.8395C7.37829 84.6933 7.55435 84.594 7.74783 84.5565C7.77239 84.5524 7.79466 84.5396 7.81061 84.5204C7.82656 84.5013 7.83513 84.4771 7.83478 84.4522V84.3174C7.83478 84.2309 7.86914 84.148 7.93029 84.0868C7.99145 84.0257 8.07439 83.9913 8.16087 83.9913C8.24735 83.9913 8.3303 84.0257 8.39145 84.0868C8.4526 84.148 8.48696 84.2309 8.48696 84.3174V84.4348C8.48696 84.4636 8.49841 84.4913 8.51879 84.5116C8.53918 84.532 8.56682 84.5435 8.59565 84.5435H8.81304C8.89953 84.5435 8.98247 84.5778 9.04362 84.639C9.10478 84.7001 9.13913 84.7831 9.13913 84.8696C9.13913 84.956 9.10478 85.039 9.04362 85.1001C8.98247 85.1613 8.89953 85.1957 8.81304 85.1957H7.94348C7.87544 85.1957 7.8102 85.2227 7.76209 85.2708C7.71398 85.3189 7.68696 85.3841 7.68696 85.4522C7.68613 85.5037 7.7011 85.5542 7.72986 85.597C7.75863 85.6397 7.79979 85.6727 7.84783 85.6913L8.74348 86.0522C8.92997 86.121 9.08859 86.2493 9.19481 86.4173C9.30104 86.5854 9.34895 86.7837 9.33113 86.9817C9.31331 87.1796 9.23076 87.3662 9.09624 87.5126C8.96172 87.6589 8.78274 87.7569 8.58696 87.7913C8.56239 87.7955 8.54012 87.8083 8.52418 87.8274C8.50823 87.8465 8.49965 87.8707 8.5 87.8957V88.0304C8.5 88.1169 8.46565 88.1999 8.40449 88.261C8.34334 88.3222 8.2604 88.3565 8.17391 88.3565C8.08743 88.3565 8.00449 88.3222 7.94334 88.261C7.88218 88.1999 7.84783 88.1169 7.84783 88.0304V87.913Z" fill="#111111"/>
</g>
</g>
<g id="Size=16px, Filled=true">
<g id="Vector_9">
<path d="M30.1161 79.3623C30.1161 79.4008 30.1314 79.4376 30.1586 79.4648C30.1857 79.492 30.2226 79.5072 30.261 79.5072H33.3625C33.3909 79.5081 33.419 79.5003 33.4428 79.4847C33.4667 79.4692 33.4852 79.4467 33.4958 79.4203C33.5073 79.3933 33.5106 79.3636 33.5055 79.3348C33.5003 79.306 33.4869 79.2793 33.4668 79.258L31.7973 77.5884C31.6336 77.4263 31.4131 77.3348 31.1828 77.3333H30.261C30.2226 77.3333 30.1857 77.3486 30.1586 77.3758C30.1314 77.403 30.1161 77.4398 30.1161 77.4783V79.3623Z" fill="#111111"/>
<path d="M33.9132 82.371C33.9459 82.3633 33.9751 82.3448 33.9961 82.3185C34.0171 82.2923 34.0288 82.2597 34.0291 82.2261V80.5217C34.0291 80.4833 34.0139 80.4464 33.9867 80.4193C33.9595 80.3921 33.9227 80.3768 33.8842 80.3768H25.4784C25.44 80.3768 25.4031 80.3921 25.3759 80.4193C25.3488 80.4464 25.3335 80.4833 25.3335 80.5217V85.7391C25.3335 85.9698 25.4251 86.1909 25.5882 86.354C25.7513 86.5171 25.9724 86.6087 26.2031 86.6087H30.1393C30.1717 86.6035 30.2013 86.5875 30.2235 86.5633C30.2456 86.5391 30.2588 86.5081 30.261 86.4754C30.353 85.4914 30.757 84.5625 31.4139 83.8242C32.0709 83.0859 32.9466 82.5767 33.9132 82.371Z" fill="#111111"/>
<path d="M29.1017 79.5072C29.1401 79.5072 29.177 79.492 29.2042 79.4648C29.2314 79.4376 29.2466 79.4008 29.2466 79.3623V77.4783C29.2466 77.4398 29.2314 77.403 29.2042 77.3758C29.177 77.3486 29.1401 77.3333 29.1017 77.3333H28.18C27.9497 77.3348 27.7291 77.4263 27.5655 77.5884L25.8959 79.258C25.8758 79.2793 25.8624 79.306 25.8572 79.3348C25.8521 79.3636 25.8555 79.3933 25.8669 79.4203C25.8768 79.4472 25.8952 79.4702 25.9192 79.4859C25.9432 79.5015 25.9716 79.509 26.0002 79.5072H29.1017Z" fill="#111111"/>
<path d="M34.8987 83.1304C34.1535 83.1304 33.4249 83.3514 32.8053 83.7655C32.1856 84.1795 31.7026 84.768 31.4174 85.4566C31.1322 86.1451 31.0576 86.9027 31.203 87.6337C31.3484 88.3646 31.7073 89.036 32.2343 89.563C32.7612 90.09 33.4326 90.4489 34.1636 90.5943C34.8945 90.7397 35.6522 90.665 36.3407 90.3798C37.0292 90.0946 37.6177 89.6117 38.0318 88.992C38.4458 88.3723 38.6668 87.6438 38.6668 86.8986C38.6653 85.8997 38.2678 84.9421 37.5615 84.2358C36.8552 83.5295 35.8976 83.132 34.8987 83.1304ZM34.4639 89.2174C34.4639 89.179 34.4487 89.1421 34.4215 89.1149C34.3943 89.0877 34.3574 89.0725 34.319 89.0725H34.0292C33.9138 89.0725 33.8032 89.0267 33.7217 88.9451C33.6402 88.8636 33.5944 88.753 33.5944 88.6377C33.5944 88.5224 33.6402 88.4118 33.7217 88.3302C33.8032 88.2487 33.9138 88.2029 34.0292 88.2029H35.1886C35.2687 88.2038 35.3466 88.1765 35.4086 88.1259C35.4707 88.0752 35.513 88.0044 35.5282 87.9257C35.5434 87.847 35.5305 87.7655 35.4917 87.6954C35.4529 87.6253 35.3908 87.571 35.3161 87.542L34.1219 87.0609C33.877 86.9657 33.6697 86.7935 33.5312 86.5702C33.3927 86.3469 33.3305 86.0847 33.3541 85.823C33.3776 85.5613 33.4856 85.3143 33.6617 85.1193C33.8379 84.9244 34.0726 84.7919 34.3306 84.742C34.3634 84.7365 34.393 84.7194 34.4143 84.6939C34.4356 84.6684 34.447 84.6361 34.4465 84.6029V84.4232C34.4465 84.3079 34.4923 84.1973 34.5739 84.1158C34.6554 84.0342 34.766 83.9884 34.8813 83.9884C34.9966 83.9884 35.1072 84.0342 35.1888 84.1158C35.2703 84.1973 35.3161 84.3079 35.3161 84.4232V84.5797C35.3161 84.6181 35.3314 84.655 35.3586 84.6822C35.3857 84.7094 35.4226 84.7246 35.461 84.7246H35.7509C35.8662 84.7246 35.9768 84.7704 36.0583 84.852C36.1399 84.9335 36.1857 85.0441 36.1857 85.1594C36.1857 85.2747 36.1399 85.3853 36.0583 85.4669C35.9768 85.5484 35.8662 85.5942 35.7509 85.5942H34.5915C34.5008 85.5942 34.4138 85.6302 34.3496 85.6944C34.2855 85.7585 34.2494 85.8455 34.2494 85.9362C34.2483 86.0049 34.2683 86.0723 34.3066 86.1293C34.345 86.1863 34.3999 86.2302 34.4639 86.2551L35.6581 86.7362C35.9068 86.828 36.1183 86.9991 36.2599 87.2231C36.4015 87.4471 36.4654 87.7116 36.4417 87.9756C36.4179 88.2395 36.3078 88.4883 36.1285 88.6835C35.9491 88.8786 35.7105 89.0092 35.4494 89.0551C35.4167 89.0606 35.387 89.0777 35.3657 89.1032C35.3445 89.1287 35.333 89.161 35.3335 89.1942V89.3739C35.3335 89.4892 35.2877 89.5998 35.2062 89.6814C35.1246 89.7629 35.014 89.8087 34.8987 89.8087C34.7834 89.8087 34.6728 89.7629 34.5913 89.6814C34.5097 89.5998 34.4639 89.4892 34.4639 89.3739V89.2174Z" fill="#111111"/>
</g>
</g>
<g id="Size=20px, Filled=true">
<g id="Vector_10">
<path d="M59.6448 78.2029C59.6448 78.2509 59.6639 78.297 59.6978 78.331C59.7318 78.365 59.7779 78.3841 59.8259 78.3841H63.7027C63.7383 78.3852 63.7733 78.3753 63.8031 78.3559C63.833 78.3365 63.8561 78.3084 63.8694 78.2754C63.8837 78.2417 63.8879 78.2045 63.8815 78.1685C63.8751 78.1325 63.8583 78.0991 63.8332 78.0725L61.7462 75.9855C61.5417 75.7829 61.266 75.6685 60.9781 75.6667H59.8259C59.7779 75.6667 59.7318 75.6858 59.6978 75.7197C59.6639 75.7537 59.6448 75.7998 59.6448 75.8478V78.2029Z" fill="#111111"/>
<path d="M64.3911 81.9638C64.432 81.9541 64.4685 81.931 64.4948 81.8981C64.5211 81.8653 64.5356 81.8246 64.5361 81.7826V79.6522C64.5361 79.6041 64.517 79.558 64.483 79.5241C64.449 79.4901 64.403 79.471 64.3549 79.471H53.8477C53.7996 79.471 53.7535 79.4901 53.7196 79.5241C53.6856 79.558 53.6665 79.6041 53.6665 79.6522V86.1739C53.6665 86.4622 53.781 86.7387 53.9849 86.9425C54.1887 87.1463 54.4652 87.2609 54.7535 87.2609H59.6737C59.7142 87.2544 59.7513 87.2344 59.779 87.2041C59.8066 87.1739 59.8232 87.1351 59.8259 87.0942C59.9409 85.8642 60.4459 84.7031 61.2671 83.7802C62.0883 82.8573 63.1828 82.2209 64.3911 81.9638Z" fill="#111111"/>
<path d="M58.3768 78.3841C58.4248 78.3841 58.4709 78.365 58.5049 78.331C58.5388 78.297 58.5579 78.2509 58.5579 78.2029V75.8478C58.5579 75.7998 58.5388 75.7537 58.5049 75.7197C58.4709 75.6858 58.4248 75.6667 58.3768 75.6667H57.2246C56.9367 75.6685 56.661 75.7829 56.4565 75.9855L54.3695 78.0725C54.3444 78.0991 54.3276 78.1325 54.3212 78.1685C54.3148 78.2045 54.319 78.2417 54.3333 78.2754C54.3457 78.309 54.3686 78.3377 54.3986 78.3573C54.4286 78.3769 54.4642 78.3863 54.4999 78.3841H58.3768Z" fill="#111111"/>
<path d="M65.623 82.913C64.6914 82.913 63.7808 83.1893 63.0062 83.7068C62.2316 84.2244 61.6279 84.96 61.2714 85.8207C60.9149 86.6814 60.8216 87.6284 61.0034 88.5421C61.1851 89.4558 61.6337 90.295 62.2925 90.9538C62.9512 91.6125 63.7904 92.0611 64.7041 92.2428C65.6178 92.4246 66.5649 92.3313 67.4255 91.9748C68.2862 91.6183 69.0218 91.0146 69.5394 90.24C70.0569 89.4654 70.3332 88.5548 70.3332 87.6232C70.3313 86.3746 69.8344 85.1776 68.9515 84.2947C68.0686 83.4118 66.8716 82.915 65.623 82.913ZM65.0795 90.5217C65.0795 90.4737 65.0605 90.4276 65.0265 90.3936C64.9925 90.3597 64.9464 90.3406 64.8984 90.3406H64.5361C64.3919 90.3406 64.2537 90.2833 64.1518 90.1814C64.0499 90.0795 63.9926 89.9412 63.9926 89.7971C63.9926 89.653 64.0499 89.5147 64.1518 89.4128C64.2537 89.3109 64.3919 89.2536 64.5361 89.2536H65.9853C66.0855 89.2547 66.1828 89.2207 66.2604 89.1573C66.338 89.094 66.3909 89.0055 66.4099 88.9071C66.4289 88.8088 66.4127 88.7069 66.3643 88.6193C66.3158 88.5316 66.2381 88.4638 66.1448 88.4275L64.652 87.8261C64.3459 87.7071 64.0867 87.4918 63.9136 87.2127C63.7405 86.9336 63.6628 86.6058 63.6922 86.2787C63.7217 85.9516 63.8566 85.6429 64.0768 85.3992C64.297 85.1555 64.5904 84.9899 64.9129 84.9275C64.9538 84.9206 64.9909 84.8993 65.0175 84.8674C65.0441 84.8355 65.0584 84.7951 65.0578 84.7536V84.529C65.0578 84.3848 65.1151 84.2466 65.217 84.1447C65.3189 84.0428 65.4571 83.9855 65.6013 83.9855C65.7454 83.9855 65.8837 84.0428 65.9856 84.1447C66.0875 84.2466 66.1448 84.3848 66.1448 84.529V84.7246C66.1448 84.7727 66.1639 84.8188 66.1978 84.8527C66.2318 84.8867 66.2779 84.9058 66.3259 84.9058H66.6882C66.8324 84.9058 66.9706 84.9631 67.0725 85.065C67.1745 85.1669 67.2317 85.3051 67.2317 85.4493C67.2317 85.5934 67.1745 85.7316 67.0725 85.8336C66.9706 85.9355 66.8324 85.9928 66.6882 85.9928H65.239C65.1256 85.9928 65.0168 86.0378 64.9367 86.118C64.8565 86.1982 64.8114 86.3069 64.8114 86.4203C64.8101 86.5062 64.835 86.5904 64.8829 86.6616C64.9309 86.7329 64.9995 86.7878 65.0795 86.8188L66.5723 87.4203C66.8831 87.535 67.1475 87.7489 67.3245 88.0289C67.5016 88.3089 67.5814 88.6395 67.5517 88.9694C67.522 89.2994 67.3844 89.6104 67.1602 89.8543C66.936 90.0982 66.6377 90.2615 66.3114 90.3188C66.2705 90.3258 66.2334 90.3471 66.2068 90.379C66.1802 90.4109 66.1659 90.4512 66.1665 90.4927V90.7174C66.1665 90.8615 66.1092 90.9998 66.0073 91.1017C65.9054 91.2036 65.7672 91.2609 65.623 91.2609C65.4789 91.2609 65.3407 91.2036 65.2387 91.1017C65.1368 90.9998 65.0795 90.8615 65.0795 90.7174V90.5217Z" fill="#111111"/>
</g>
</g>
<g id="Size=24px, Filled=true">
<g id="Vector_11">
<path d="M93.1739 77.0435C93.1739 77.1011 93.1968 77.1564 93.2376 77.1972C93.2784 77.238 93.3336 77.2609 93.3913 77.2609H98.0435C98.0862 77.2622 98.1282 77.2504 98.164 77.2271C98.1997 77.2038 98.2275 77.17 98.2435 77.1304C98.2607 77.09 98.2657 77.0455 98.258 77.0022C98.2503 76.959 98.2301 76.9189 98.2 76.887L95.6957 74.3826C95.4502 74.1395 95.1194 74.0022 94.7739 74H93.3913C93.3336 74 93.2784 74.0229 93.2376 74.0637C93.1968 74.1044 93.1739 74.1597 93.1739 74.2174V77.0435Z" fill="#111111"/>
<path d="M98.8696 81.5565C98.9187 81.5449 98.9624 81.5172 98.9939 81.4778C99.0255 81.4384 99.0429 81.3896 99.0435 81.3391V78.7826C99.0435 78.725 99.0206 78.6697 98.9798 78.6289C98.939 78.5881 98.8837 78.5652 98.8261 78.5652H86.2174C86.1597 78.5652 86.1044 78.5881 86.0637 78.6289C86.0229 78.6697 86 78.725 86 78.7826V86.6087C86 86.9546 86.1374 87.2864 86.382 87.531C86.6266 87.7756 86.9584 87.913 87.3043 87.913H93.2087C93.2573 87.9053 93.3018 87.8813 93.3349 87.845C93.3681 87.8086 93.388 87.7621 93.3913 87.713C93.5293 86.237 94.1352 84.8437 95.1207 83.7363C96.1061 82.6288 97.4196 81.8651 98.8696 81.5565Z" fill="#111111"/>
<path d="M91.6523 77.2609C91.71 77.2609 91.7653 77.238 91.806 77.1972C91.8468 77.1564 91.8697 77.1011 91.8697 77.0435V74.2174C91.8697 74.1597 91.8468 74.1044 91.806 74.0637C91.7653 74.0229 91.71 74 91.6523 74H90.2697C89.9243 74.0022 89.5934 74.1395 89.348 74.3826L86.8436 76.887C86.8135 76.9189 86.7933 76.959 86.7856 77.0022C86.7779 77.0455 86.7829 77.09 86.8001 77.1304C86.815 77.1708 86.8425 77.2053 86.8785 77.2288C86.9146 77.2523 86.9572 77.2635 87.0001 77.2609H91.6523Z" fill="#111111"/>
<path d="M100.348 82.6957C99.2299 82.6957 98.1371 83.0271 97.2076 83.6482C96.2782 84.2693 95.5537 85.152 95.1259 86.1848C94.6981 87.2176 94.5862 88.3541 94.8043 89.4505C95.0223 90.5469 95.5607 91.554 96.3511 92.3445C97.1416 93.135 98.1487 93.6733 99.2451 93.8914C100.342 94.1095 101.478 93.9976 102.511 93.5698C103.544 93.142 104.426 92.4175 105.047 91.488C105.669 90.5585 106 89.4657 106 88.3478C105.998 86.8495 105.401 85.4132 104.342 84.3537C103.282 83.2942 101.846 82.698 100.348 82.6957ZM99.6957 91.8261C99.6957 91.7684 99.6728 91.7131 99.632 91.6724C99.5912 91.6316 99.5359 91.6087 99.4783 91.6087H99.0435C98.8705 91.6087 98.7046 91.54 98.5823 91.4177C98.46 91.2954 98.3913 91.1295 98.3913 90.9565C98.3913 90.7836 98.46 90.6177 98.5823 90.4954C98.7046 90.3731 98.8705 90.3043 99.0435 90.3043H100.783C100.903 90.3057 101.02 90.2648 101.113 90.1888C101.206 90.1128 101.269 90.0065 101.292 89.8885C101.315 89.7705 101.295 89.6483 101.237 89.5431C101.179 89.4379 101.086 89.3565 100.974 89.313L99.1826 88.5913C98.8152 88.4485 98.5043 88.1902 98.2965 87.8553C98.0888 87.5204 97.9955 87.127 98.0309 86.7344C98.0662 86.3419 98.2282 85.9715 98.4924 85.679C98.7566 85.3866 99.1087 85.1879 99.4957 85.113C99.5448 85.1047 99.5893 85.0791 99.6212 85.0409C99.6531 85.0026 99.6703 84.9542 99.6696 84.9043V84.6348C99.6696 84.4618 99.7383 84.2959 99.8606 84.1736C99.9829 84.0513 100.149 83.9826 100.322 83.9826C100.495 83.9826 100.661 84.0513 100.783 84.1736C100.905 84.2959 100.974 84.4618 100.974 84.6348V84.8696C100.974 84.9272 100.997 84.9825 101.038 85.0233C101.078 85.0641 101.134 85.087 101.191 85.087H101.626C101.799 85.087 101.965 85.1557 102.087 85.278C102.21 85.4003 102.278 85.5662 102.278 85.7391C102.278 85.9121 102.21 86.078 102.087 86.2003C101.965 86.3226 101.799 86.3913 101.626 86.3913H99.887C99.7509 86.3913 99.6204 86.4454 99.5242 86.5416C99.428 86.6378 99.3739 86.7683 99.3739 86.9043C99.3723 87.0074 99.4022 87.1085 99.4597 87.194C99.5173 87.2795 99.5996 87.3453 99.6957 87.3826L101.487 88.1043C101.86 88.242 102.177 88.4986 102.39 88.8347C102.602 89.1707 102.698 89.5674 102.662 89.9633C102.627 90.3593 102.462 90.7325 102.192 91.0252C101.923 91.3179 101.565 91.5138 101.174 91.5826C101.125 91.5909 101.08 91.6165 101.048 91.6548C101.016 91.6931 100.999 91.7415 101 91.7913V92.0609C101 92.2338 100.931 92.3997 100.809 92.522C100.687 92.6443 100.521 92.713 100.348 92.713C100.175 92.713 100.009 92.6443 99.8867 92.522C99.7644 92.3997 99.6957 92.2338 99.6957 92.0609V91.8261Z" fill="#111111"/>
</g>
</g>
<g id="Size=32px, Filled=true">
<g id="Vector_12">
<path d="M132.232 74.7246C132.232 74.8015 132.262 74.8752 132.317 74.9296C132.371 74.984 132.445 75.0145 132.522 75.0145H138.724C138.781 75.0163 138.837 75.0005 138.885 74.9694C138.933 74.9383 138.97 74.8934 138.991 74.8406C139.014 74.7867 139.021 74.7273 139.01 74.6696C139 74.612 138.973 74.5586 138.933 74.5159L135.594 71.1768C135.267 70.8527 134.826 70.6696 134.365 70.6667H132.522C132.445 70.6667 132.371 70.6972 132.317 70.7516C132.262 70.8059 132.232 70.8796 132.232 70.9565V74.7246Z" fill="#111111"/>
<path d="M139.826 80.742C139.891 80.7265 139.95 80.6895 139.992 80.637C140.034 80.5845 140.057 80.5194 140.058 80.4522V77.0435C140.058 76.9666 140.027 76.8929 139.973 76.8385C139.919 76.7842 139.845 76.7536 139.768 76.7536H122.956C122.879 76.7536 122.806 76.7842 122.751 76.8385C122.697 76.8929 122.667 76.9666 122.667 77.0435V87.4783C122.667 87.9395 122.85 88.3819 123.176 88.708C123.502 89.0342 123.944 89.2174 124.406 89.2174H132.278C132.343 89.207 132.402 89.175 132.446 89.1266C132.491 89.0782 132.517 89.0162 132.522 88.9507C132.706 86.9827 133.513 85.125 134.827 83.6484C136.141 82.1717 137.893 81.1535 139.826 80.742Z" fill="#111111"/>
<path d="M130.203 75.0145C130.28 75.0145 130.354 74.984 130.408 74.9296C130.462 74.8752 130.493 74.8015 130.493 74.7246V70.9565C130.493 70.8796 130.462 70.8059 130.408 70.7516C130.354 70.6972 130.28 70.6667 130.203 70.6667H128.359C127.899 70.6696 127.458 70.8527 127.13 71.1768L123.791 74.5159C123.751 74.5586 123.724 74.612 123.714 74.6696C123.704 74.7273 123.71 74.7867 123.733 74.8406C123.753 74.8944 123.79 74.9404 123.838 74.9717C123.886 75.003 123.943 75.018 124 75.0145H130.203Z" fill="#111111"/>
<path d="M141.797 82.2609C140.306 82.2609 138.849 82.7029 137.61 83.531C136.371 84.359 135.405 85.536 134.834 86.9131C134.264 88.2902 134.115 89.8055 134.406 91.2673C134.696 92.7292 135.414 94.0721 136.468 95.126C137.522 96.18 138.865 96.8977 140.327 97.1885C141.789 97.4793 143.304 97.3301 144.681 96.7597C146.058 96.1893 147.235 95.2233 148.063 93.984C148.891 92.7447 149.333 91.2876 149.333 89.7971C149.33 87.7993 148.535 85.8842 147.122 84.4716C145.71 83.0589 143.795 82.2639 141.797 82.2609ZM140.927 94.4348C140.927 94.3579 140.897 94.2842 140.842 94.2298C140.788 94.1755 140.714 94.1449 140.638 94.1449H140.058C139.827 94.1449 139.606 94.0533 139.443 93.8902C139.28 93.7272 139.188 93.506 139.188 93.2754C139.188 93.0447 139.28 92.8236 139.443 92.6605C139.606 92.4974 139.827 92.4058 140.058 92.4058H142.377C142.537 92.4076 142.693 92.3531 142.817 92.2517C142.941 92.1504 143.026 92.0087 143.056 91.8514C143.086 91.6941 143.06 91.5311 142.983 91.3908C142.905 91.2506 142.781 91.142 142.632 91.0841L140.243 90.1217C139.754 89.9314 139.339 89.587 139.062 89.1404C138.785 88.6938 138.661 88.1693 138.708 87.6459C138.755 87.1225 138.971 86.6286 139.323 86.2387C139.675 85.8487 140.145 85.5839 140.661 85.4841C140.726 85.473 140.786 85.4389 140.828 85.3878C140.871 85.3368 140.894 85.2722 140.893 85.2058V84.8464C140.893 84.6158 140.984 84.3946 141.147 84.2315C141.31 84.0684 141.532 83.9768 141.762 83.9768C141.993 83.9768 142.214 84.0684 142.377 84.2315C142.54 84.3946 142.632 84.6158 142.632 84.8464V85.1594C142.632 85.2363 142.662 85.31 142.717 85.3644C142.771 85.4187 142.845 85.4493 142.922 85.4493H143.501C143.732 85.4493 143.953 85.5409 144.116 85.704C144.279 85.867 144.371 86.0882 144.371 86.3188C144.371 86.5495 144.279 86.7706 144.116 86.9337C143.953 87.0968 143.732 87.1884 143.501 87.1884H141.182C141.001 87.1884 140.827 87.2605 140.699 87.3888C140.57 87.517 140.498 87.691 140.498 87.8725C140.496 88.0098 140.536 88.1446 140.613 88.2586C140.69 88.3726 140.799 88.4604 140.927 88.5101L143.316 89.4725C143.813 89.656 144.236 89.9982 144.519 90.4462C144.803 90.8943 144.93 91.4232 144.883 91.9511C144.835 92.4791 144.615 92.9766 144.256 93.3669C143.898 93.7572 143.42 94.0184 142.898 94.1101C142.833 94.1212 142.774 94.1553 142.731 94.2064C142.688 94.2574 142.666 94.322 142.667 94.3884V94.7478C142.667 94.9784 142.575 95.1996 142.412 95.3627C142.249 95.5258 142.028 95.6174 141.797 95.6174C141.566 95.6174 141.345 95.5258 141.182 95.3627C141.019 95.1996 140.927 94.9784 140.927 94.7478V94.4348Z" fill="#111111"/>
</g>
</g>
<g id="Size=40px, Filled=true">
<g id="Vector_13">
<path d="M179.29 72.4058C179.29 72.5019 179.328 72.594 179.396 72.662C179.464 72.7299 179.556 72.7681 179.652 72.7681H187.406C187.477 72.7703 187.547 72.7507 187.607 72.7118C187.666 72.6729 187.713 72.6167 187.739 72.5507C187.768 72.4834 187.776 72.4091 187.763 72.337C187.751 72.265 187.717 72.1982 187.667 72.1449L183.493 67.971C183.084 67.5659 182.532 67.337 181.957 67.3333H179.652C179.556 67.3333 179.464 67.3715 179.396 67.4395C179.328 67.5074 179.29 67.5996 179.29 67.6957V72.4058Z" fill="#111111"/>
<path d="M188.783 79.9275C188.865 79.9081 188.938 79.8619 188.99 79.7963C189.043 79.7306 189.072 79.6493 189.073 79.5652V75.3043C189.073 75.2083 189.034 75.1161 188.967 75.0482C188.899 74.9802 188.806 74.942 188.71 74.942H167.696C167.6 74.942 167.508 74.9802 167.44 75.0482C167.372 75.1161 167.333 75.2083 167.333 75.3043V88.3478C167.333 88.9244 167.563 89.4773 167.97 89.885C168.378 90.2927 168.931 90.5217 169.507 90.5217H179.348C179.429 90.5088 179.503 90.4688 179.558 90.4083C179.614 90.3477 179.647 90.2702 179.652 90.1884C179.882 87.7284 180.892 85.4062 182.535 83.5604C184.177 81.7147 186.366 80.4418 188.783 79.9275Z" fill="#111111"/>
<path d="M176.754 72.7681C176.85 72.7681 176.942 72.7299 177.01 72.662C177.078 72.594 177.116 72.5019 177.116 72.4058V67.6957C177.116 67.5996 177.078 67.5074 177.01 67.4395C176.942 67.3715 176.85 67.3333 176.754 67.3333H174.45C173.874 67.337 173.322 67.5659 172.913 67.971L168.74 72.1449C168.689 72.1982 168.656 72.265 168.643 72.337C168.63 72.4091 168.638 72.4834 168.667 72.5507C168.692 72.618 168.738 72.6755 168.798 72.7146C168.858 72.7538 168.929 72.7725 169 72.7681H176.754Z" fill="#111111"/>
<path d="M191.247 81.8261C189.383 81.8261 187.562 82.3786 186.013 83.4137C184.464 84.4488 183.256 85.9201 182.543 87.6414C181.83 89.3627 181.644 91.2568 182.007 93.0842C182.371 94.9115 183.268 96.5901 184.585 97.9075C185.903 99.225 187.581 100.122 189.409 100.486C191.236 100.849 193.13 100.663 194.852 99.9496C196.573 99.2366 198.044 98.0292 199.079 96.48C200.114 94.9309 200.667 93.1095 200.667 91.2464C200.663 88.7491 199.669 86.3553 197.903 84.5895C196.138 82.8236 193.744 81.8299 191.247 81.8261ZM190.16 97.0435C190.16 96.9474 190.121 96.8552 190.053 96.7873C189.986 96.7193 189.893 96.6812 189.797 96.6812H189.073C188.784 96.6812 188.508 96.5666 188.304 96.3628C188.1 96.159 187.986 95.8825 187.986 95.5942C187.986 95.3059 188.1 95.0295 188.304 94.8256C188.508 94.6218 188.784 94.5072 189.073 94.5072H191.971C192.171 94.5095 192.366 94.4413 192.521 94.3147C192.677 94.188 192.782 94.0109 192.82 93.8143C192.858 93.6176 192.826 93.4138 192.729 93.2385C192.632 93.0632 192.477 92.9275 192.29 92.8551L189.305 91.6522C188.692 91.4142 188.174 90.9837 187.828 90.4255C187.481 89.8673 187.326 89.2116 187.385 88.5574C187.444 87.9031 187.714 87.2858 188.154 86.7984C188.594 86.3109 189.181 85.9799 189.826 85.8551C189.908 85.8412 189.982 85.7986 190.036 85.7348C190.089 85.671 190.117 85.5903 190.116 85.5072V85.058C190.116 84.7697 190.231 84.4932 190.434 84.2894C190.638 84.0855 190.915 83.971 191.203 83.971C191.491 83.971 191.768 84.0855 191.972 84.2894C192.176 84.4932 192.29 84.7697 192.29 85.058V85.4493C192.29 85.5454 192.328 85.6375 192.396 85.7055C192.464 85.7734 192.556 85.8116 192.652 85.8116H193.377C193.665 85.8116 193.942 85.9261 194.146 86.13C194.349 86.3338 194.464 86.6103 194.464 86.8986C194.464 87.1868 194.349 87.4633 194.146 87.6671C193.942 87.871 193.665 87.9855 193.377 87.9855H190.478C190.252 87.9855 190.034 88.0756 189.874 88.236C189.713 88.3963 189.623 88.6138 189.623 88.8406C189.621 89.0123 189.671 89.1808 189.766 89.3233C189.862 89.4658 189.999 89.5755 190.16 89.6377L193.145 90.8406C193.767 91.07 194.295 91.4977 194.65 92.0578C195.004 92.6179 195.163 93.279 195.104 93.9389C195.045 94.5988 194.769 95.2208 194.321 95.7086C193.873 96.1965 193.276 96.523 192.623 96.6377C192.541 96.6515 192.467 96.6942 192.414 96.758C192.361 96.8218 192.332 96.9025 192.333 96.9855V97.4348C192.333 97.7231 192.219 97.9995 192.015 98.2034C191.811 98.4072 191.535 98.5217 191.247 98.5217C190.958 98.5217 190.682 98.4072 190.478 98.2034C190.274 97.9995 190.16 97.7231 190.16 97.4348V97.0435Z" fill="#111111"/>
</g>
</g>
<g id="Size=48px, Filled=true">
<g id="Vector_14">
<path d="M234.348 70.087C234.348 70.2023 234.394 70.3129 234.475 70.3944C234.557 70.4759 234.667 70.5217 234.783 70.5217H244.087C244.172 70.5244 244.256 70.5008 244.328 70.4542C244.399 70.4075 244.455 70.34 244.487 70.2609C244.521 70.18 244.531 70.0909 244.516 70.0044C244.501 69.918 244.46 69.8379 244.4 69.7739L239.391 64.7652C238.9 64.279 238.239 64.0044 237.548 64H234.783C234.667 64 234.557 64.0458 234.475 64.1273C234.394 64.2089 234.348 64.3195 234.348 64.4348V70.087Z" fill="#111111"/>
<path d="M245.739 79.113C245.837 79.0898 245.925 79.0343 245.988 78.9555C246.051 78.8768 246.086 78.7791 246.087 78.6783V73.5652C246.087 73.4499 246.041 73.3393 245.96 73.2578C245.878 73.1762 245.767 73.1304 245.652 73.1304H220.435C220.319 73.1304 220.209 73.1762 220.127 73.2578C220.046 73.3393 220 73.4499 220 73.5652V89.2174C220 89.9093 220.275 90.5728 220.764 91.062C221.253 91.5512 221.917 91.8261 222.609 91.8261H234.417C234.515 91.8106 234.604 91.7626 234.67 91.6899C234.736 91.6172 234.776 91.5242 234.783 91.4261C235.059 88.4741 236.27 85.6875 238.241 83.4725C240.212 81.2576 242.839 79.7302 245.739 79.113Z" fill="#111111"/>
<path d="M231.305 70.5217C231.42 70.5217 231.531 70.4759 231.612 70.3944C231.694 70.3129 231.739 70.2023 231.739 70.087V64.4348C231.739 64.3195 231.694 64.2089 231.612 64.1273C231.531 64.0458 231.42 64 231.305 64H228.539C227.849 64.0044 227.187 64.279 226.696 64.7652L221.687 69.7739C221.627 69.8379 221.587 69.918 221.571 70.0044C221.556 70.0909 221.566 70.18 221.6 70.2609C221.63 70.3416 221.685 70.4106 221.757 70.4575C221.829 70.5045 221.914 70.527 222 70.5217H231.305Z" fill="#111111"/>
<path d="M248.696 81.3913C246.46 81.3913 244.274 82.0543 242.415 83.2964C240.556 84.5386 239.107 86.3041 238.252 88.3697C237.396 90.4353 237.172 92.7082 237.609 94.901C238.045 97.0938 239.121 99.1081 240.702 100.689C242.283 102.27 244.297 103.347 246.49 103.783C248.683 104.219 250.956 103.995 253.022 103.14C255.087 102.284 256.853 100.835 258.095 98.976C259.337 97.117 260 94.9314 260 92.6957C259.995 89.699 258.803 86.8263 256.684 84.7073C254.565 82.5884 251.692 81.3959 248.696 81.3913ZM247.391 99.6522C247.391 99.5369 247.346 99.4263 247.264 99.3447C247.182 99.2632 247.072 99.2174 246.957 99.2174H246.087C245.741 99.2174 245.409 99.08 245.165 98.8354C244.92 98.5907 244.783 98.259 244.783 97.913C244.783 97.5671 244.92 97.2353 245.165 96.9907C245.409 96.7461 245.741 96.6087 246.087 96.6087H249.565C249.806 96.6114 250.039 96.5296 250.225 96.3776C250.412 96.2256 250.539 96.0131 250.584 95.7771C250.63 95.5411 250.591 95.2966 250.475 95.0862C250.358 94.8759 250.172 94.713 249.948 94.6261L246.365 93.1826C245.63 92.8971 245.009 92.3804 244.593 91.7106C244.178 91.0407 243.991 90.2539 244.062 89.4689C244.132 88.6838 244.456 87.9429 244.985 87.358C245.513 86.7731 246.217 86.3758 246.991 86.2261C247.09 86.2095 247.179 86.1583 247.242 86.0817C247.306 86.0052 247.341 85.9083 247.339 85.8087V85.2696C247.339 84.9236 247.477 84.5919 247.721 84.3473C247.966 84.1026 248.298 83.9652 248.643 83.9652C248.989 83.9652 249.321 84.1026 249.566 84.3473C249.81 84.5919 249.948 84.9236 249.948 85.2696V85.7391C249.948 85.8544 249.994 85.965 250.075 86.0466C250.157 86.1281 250.267 86.1739 250.383 86.1739H251.252C251.598 86.1739 251.93 86.3113 252.174 86.5559C252.419 86.8006 252.557 87.1323 252.557 87.4783C252.557 87.8242 252.419 88.156 252.174 88.4006C251.93 88.6452 251.598 88.7826 251.252 88.7826H247.774C247.502 88.7826 247.241 88.8907 247.048 89.0831C246.856 89.2756 246.748 89.5366 246.748 89.8087C246.745 90.0148 246.804 90.2169 246.919 90.3879C247.035 90.559 247.199 90.6906 247.391 90.7652L250.974 92.2087C251.72 92.4839 252.354 92.9973 252.779 93.6694C253.204 94.3414 253.396 95.1348 253.325 95.9267C253.253 96.7186 252.923 97.465 252.385 98.0504C251.847 98.6358 251.131 99.0276 250.348 99.1652C250.25 99.1818 250.16 99.233 250.097 99.3096C250.033 99.3861 249.999 99.483 250 99.5826V100.122C250 100.468 249.863 100.799 249.618 101.044C249.373 101.289 249.042 101.426 248.696 101.426C248.35 101.426 248.018 101.289 247.773 101.044C247.529 100.799 247.391 100.468 247.391 100.122V99.6522Z" fill="#111111"/>
</g>
</g>
</g>
</g>
<defs>
<clipPath id="clip0_2170_503">
<rect width="264" height="108" rx="5" fill="white"/>
</clipPath>
<clipPath id="clip1_2170_503">
<rect width="12" height="12" fill="white" transform="translate(0 18)"/>
</clipPath>
<clipPath id="clip2_2170_503">
<rect width="16" height="16" fill="white" transform="translate(24 16)"/>
</clipPath>
<clipPath id="clip3_2170_503">
<rect width="20" height="20" fill="white" transform="translate(52 14)"/>
</clipPath>
<clipPath id="clip4_2170_503">
<rect width="24" height="24" fill="white" transform="translate(84 12)"/>
</clipPath>
</defs>
</svg>
