<svg width="264" height="108" viewBox="0 0 264 108" fill="none" xmlns="http://www.w3.org/2000/svg">
<g id="Speedometer">
<g clip-path="url(#clip0_2415_962)">
<g id="Size=12px, Filled=false" clip-path="url(#clip1_2415_962)">
<path id="Vector" d="M4.5 25.5V25.3699C4.5 24.6133 5.17157 24 6 24M6 24C6.82843 24 7.5 24.6133 7.5 25.3699V25.5M6 24L7.5 20.25M9.37704 21.75C9.22518 21.7492 9.08787 21.8401 9.0291 21.9801C8.97048 22.1202 9.00205 22.2818 9.10911 22.3895C9.21616 22.4971 9.37762 22.5296 9.51799 22.4716C9.65851 22.4137 9.75 22.2769 9.75 22.125C9.75 21.9179 9.58214 21.75 9.37501 21.75M10.5 27C7.83149 25 4.16851 25 1.5 27M2.625 21.75C2.41789 21.75 2.25 21.9179 2.25 22.125C2.25 22.3321 2.41789 22.5 2.625 22.5C2.83211 22.5 3 22.3321 3 22.125C3 21.9179 2.83211 21.75 2.625 21.75ZM10.125 24C9.91786 24 9.75 24.1679 9.75 24.375C9.75 24.5821 9.91786 24.75 10.125 24.75C10.3321 24.75 10.5 24.5821 10.5 24.375C10.5 24.1679 10.3321 24 10.125 24ZM4.125 20.25C3.91789 20.25 3.75 20.4179 3.75 20.625C3.75 20.8321 3.91789 21 4.125 21C4.33211 21 4.5 20.8321 4.5 20.625C4.5 20.4179 4.33211 20.25 4.125 20.25ZM5.99999 29.5C9.03757 29.5 11.5 27.0376 11.5 24C11.5 20.9624 9.03757 18.5 5.99999 18.5C2.96243 18.5 0.5 20.9624 0.5 24C0.5 27.0376 2.96243 29.5 5.99999 29.5ZM1.875 24C1.66789 24 1.5 24.1679 1.5 24.375C1.5 24.5821 1.66789 24.75 1.875 24.75C2.08211 24.75 2.25 24.5821 2.25 24.375C2.25 24.1679 2.08211 24 1.875 24Z" stroke="#111111" stroke-width="0.75" stroke-linecap="round" stroke-linejoin="round"/>
</g>
<g id="Size=16px, Filled=false" clip-path="url(#clip2_2415_962)">
<path id="Vector_2" d="M29.9998 26V25.8265C29.9998 24.8178 30.8953 24 31.9998 24M31.9998 24C33.1044 24 33.9998 24.8178 33.9998 25.8265V26M31.9998 24L33.9998 19M36.5026 21C36.3001 20.999 36.117 21.1201 36.0386 21.3068C35.9605 21.4936 36.0026 21.7091 36.1453 21.8526C36.2881 21.9962 36.5033 22.0394 36.6905 21.9622C36.8778 21.885 36.9998 21.7025 36.9998 21.5C36.9998 21.2239 36.776 21 36.4998 21M37.9998 28C34.4418 25.3334 29.5578 25.3334 25.9998 28M27.4998 21C27.2237 21 26.9998 21.2239 26.9998 21.5C26.9998 21.7762 27.2237 22 27.4998 22C27.776 22 27.9998 21.7762 27.9998 21.5C27.9998 21.2239 27.776 21 27.4998 21ZM37.4998 24C37.2237 24 36.9998 24.2239 36.9998 24.5C36.9998 24.7762 37.2237 25 37.4998 25C37.776 25 37.9998 24.7762 37.9998 24.5C37.9998 24.2239 37.776 24 37.4998 24ZM29.4998 19C29.2237 19 28.9998 19.2239 28.9998 19.5C28.9998 19.7762 29.2237 20 29.4998 20C29.776 20 29.9998 19.7762 29.9998 19.5C29.9998 19.2239 29.776 19 29.4998 19ZM31.9998 31.3334C36.0499 31.3334 39.3332 28.0501 39.3332 24C39.3332 19.9499 36.0499 16.6667 31.9998 16.6667C27.9497 16.6667 24.6665 19.9499 24.6665 24C24.6665 28.0501 27.9497 31.3334 31.9998 31.3334ZM26.4998 24C26.2237 24 25.9998 24.2239 25.9998 24.5C25.9998 24.7762 26.2237 25 26.4998 25C26.776 25 26.9998 24.7762 26.9998 24.5C26.9998 24.2239 26.776 24 26.4998 24Z" stroke="#111111" stroke-linecap="round" stroke-linejoin="round"/>
</g>
<g id="Size=20px, Filled=false" clip-path="url(#clip3_2415_962)">
<path id="Vector_3" d="M59.5002 26.5V26.2831C59.5002 25.0222 60.6195 24 62.0002 24M62.0002 24C63.3809 24 64.5002 25.0222 64.5002 26.2831V26.5M62.0002 24L64.5002 17.75M67.6286 20.25C67.3755 20.2487 67.1466 20.4001 67.0487 20.6335C66.951 20.8669 67.0036 21.1363 67.182 21.3157C67.3604 21.4951 67.6295 21.5493 67.8635 21.4527C68.0977 21.3562 68.2502 21.1281 68.2502 20.875C68.2502 20.5298 67.9704 20.25 67.6252 20.25M69.5002 29C65.0527 25.6666 58.9477 25.6666 54.5002 29M56.3752 20.25C56.03 20.25 55.7502 20.5298 55.7502 20.875C55.7502 21.2202 56.03 21.5 56.3752 21.5C56.7204 21.5 57.0002 21.2202 57.0002 20.875C57.0002 20.5298 56.7204 20.25 56.3752 20.25ZM68.8752 24C68.5299 24 68.2502 24.2798 68.2502 24.625C68.2502 24.9701 68.5299 25.25 68.8752 25.25C69.2204 25.25 69.5002 24.9701 69.5002 24.625C69.5002 24.2798 69.2204 24 68.8752 24ZM58.8752 17.75C58.53 17.75 58.2502 18.0298 58.2502 18.375C58.2502 18.7202 58.53 19 58.8752 19C59.2204 19 59.5002 18.7202 59.5002 18.375C59.5002 18.0298 59.2204 17.75 58.8752 17.75ZM62.0002 33.1666C67.0628 33.1666 71.1668 29.0626 71.1668 24C71.1668 18.9374 67.0628 14.8333 62.0002 14.8333C56.9375 14.8333 52.8335 18.9374 52.8335 24C52.8335 29.0626 56.9375 33.1666 62.0002 33.1666ZM55.1252 24C54.78 24 54.5002 24.2798 54.5002 24.625C54.5002 24.9701 54.78 25.25 55.1252 25.25C55.4704 25.25 55.7502 24.9701 55.7502 24.625C55.7502 24.2798 55.4704 24 55.1252 24Z" stroke="#111111" stroke-width="1.25" stroke-linecap="round" stroke-linejoin="round"/>
</g>
<g id="Size=24px, Filled=false" clip-path="url(#clip4_2415_962)">
<path id="Vector_4" d="M93 27V26.7398C93 25.2266 94.3431 24 96 24M96 24C97.6569 24 99 25.2266 99 26.7398V27M96 24L99 16.5M102.754 19.5C102.45 19.4984 102.176 19.6801 102.058 19.9602C101.941 20.2403 102.004 20.5636 102.218 20.7789C102.432 20.9942 102.755 21.0591 103.036 20.9433C103.317 20.8274 103.5 20.5537 103.5 20.25C103.5 19.8358 103.164 19.5 102.75 19.5M105 30C99.663 26 92.337 26 87 30M89.25 19.5C88.8358 19.5 88.5 19.8358 88.5 20.25C88.5 20.6642 88.8358 21 89.25 21C89.6642 21 90 20.6642 90 20.25C90 19.8358 89.6642 19.5 89.25 19.5ZM104.25 24C103.836 24 103.5 24.3358 103.5 24.75C103.5 25.1642 103.836 25.5 104.25 25.5C104.664 25.5 105 25.1642 105 24.75C105 24.3358 104.664 24 104.25 24ZM92.25 16.5C91.8358 16.5 91.5 16.8358 91.5 17.25C91.5 17.6642 91.8358 18 92.25 18C92.6642 18 93 17.6642 93 17.25C93 16.8358 92.6642 16.5 92.25 16.5ZM96 35C102.075 35 107 30.0751 107 24C107 17.9249 102.075 13 96 13C89.9249 13 85 17.9249 85 24C85 30.0751 89.9249 35 96 35ZM87.75 24C87.3358 24 87 24.3358 87 24.75C87 25.1642 87.3358 25.5 87.75 25.5C88.1642 25.5 88.5 25.1642 88.5 24.75C88.5 24.3358 88.1642 24 87.75 24Z" stroke="#111111" stroke-width="1.5" stroke-linecap="round" stroke-linejoin="round"/>
</g>
<g id="Size=32px, Filled=false" clip-path="url(#clip5_2415_962)">
<path id="Vector_5" d="M132 28V27.653C132 25.6355 133.791 24 136 24M136 24C138.209 24 140 25.6355 140 27.653V28M136 24L140 14M145.006 18C144.601 17.9979 144.234 18.2401 144.078 18.6136C143.921 18.9871 144.006 19.4181 144.291 19.7052C144.577 19.9922 145.007 20.0788 145.381 19.9243C145.756 19.7699 146 19.4049 146 19C146 18.4477 145.553 18 145 18M148 32C140.884 26.6666 131.116 26.6666 124 32M127 18C126.448 18 126 18.4477 126 19C126 19.5523 126.448 20 127 20C127.552 20 128 19.5523 128 19C128 18.4477 127.552 18 127 18ZM147 24C146.448 24 146 24.4477 146 25C146 25.5522 146.448 26 147 26C147.553 26 148 25.5522 148 25C148 24.4477 147.553 24 147 24ZM131 14C130.448 14 130 14.4477 130 15C130 15.5523 130.448 16 131 16C131.552 16 132 15.5523 132 15C132 14.4477 131.552 14 131 14ZM136 38.6666C144.1 38.6666 150.667 32.1001 150.667 24C150.667 15.8998 144.1 9.33331 136 9.33331C127.9 9.33331 121.333 15.8998 121.333 24C121.333 32.1001 127.9 38.6666 136 38.6666ZM125 24C124.448 24 124 24.4477 124 25C124 25.5522 124.448 26 125 26C125.552 26 126 25.5522 126 25C126 24.4477 125.552 24 125 24Z" stroke="#111111" stroke-width="2" stroke-linecap="round" stroke-linejoin="round"/>
</g>
<g id="Size=40px, Filled=false" clip-path="url(#clip6_2415_962)">
<path id="Vector_6" d="M179 29V28.5663C179 26.0444 181.238 24 184 24M184 24C186.761 24 189 26.0444 189 28.5663V29M184 24L189 11.5M195.257 16.5C194.75 16.4974 194.293 16.8002 194.097 17.2671C193.901 17.7339 194.007 18.2727 194.364 18.6315C194.72 18.9904 195.259 19.0986 195.726 18.9055C196.195 18.7124 196.5 18.2562 196.5 17.75C196.5 17.0597 195.94 16.5 195.25 16.5M199 34C190.105 27.3334 177.895 27.3334 169 34M172.75 16.5C172.059 16.5 171.5 17.0597 171.5 17.75C171.5 18.4404 172.059 19 172.75 19C173.44 19 174 18.4404 174 17.75C174 17.0597 173.44 16.5 172.75 16.5ZM197.75 24C197.059 24 196.5 24.5596 196.5 25.25C196.5 25.9404 197.059 26.5 197.75 26.5C198.44 26.5 199 25.9404 199 25.25C199 24.5596 198.44 24 197.75 24ZM177.75 11.5C177.059 11.5 176.5 12.0597 176.5 12.75C176.5 13.4404 177.059 14 177.75 14C178.44 14 179 13.4404 179 12.75C179 12.0597 178.44 11.5 177.75 11.5ZM184 42.3334C194.125 42.3334 202.333 34.1252 202.333 24.0001C202.333 13.8748 194.125 5.66669 184 5.66669C173.875 5.66669 165.667 13.8748 165.667 24.0001C165.667 34.1252 173.875 42.3334 184 42.3334ZM170.25 24C169.559 24 169 24.5596 169 25.25C169 25.9404 169.559 26.5 170.25 26.5C170.94 26.5 171.5 25.9404 171.5 25.25C171.5 24.5596 170.94 24 170.25 24Z" stroke="#111111" stroke-width="2.5" stroke-linecap="round" stroke-linejoin="round"/>
</g>
<g id="Size=48px, Filled=false" clip-path="url(#clip7_2415_962)">
<path id="Vector_7" d="M234 30V29.4796C234 26.4532 236.686 24 240 24M240 24C243.314 24 246 26.4532 246 29.4796V30M240 24L246 9M253.508 15C252.901 14.9968 252.351 15.3602 252.116 15.9204C251.882 16.4807 252.008 17.1272 252.436 17.5578C252.865 17.9884 253.51 18.1183 254.072 17.8865C254.634 17.6549 255 17.1074 255 16.5C255 15.6716 254.329 15 253.5 15M258 36C247.326 28 232.674 28 222 36M226.5 15C225.672 15 225 15.6716 225 16.5C225 17.3284 225.672 18 226.5 18C227.328 18 228 17.3284 228 16.5C228 15.6716 227.328 15 226.5 15ZM256.5 24C255.671 24 255 24.6715 255 25.5C255 26.3284 255.671 27 256.5 27C257.329 27 258 26.3284 258 25.5C258 24.6715 257.329 24 256.5 24ZM232.5 9C231.672 9 231 9.67159 231 10.5C231 11.3284 231.672 12 232.5 12C233.328 12 234 11.3284 234 10.5C234 9.67159 233.328 9 232.5 9ZM240 46C252.15 46 262 36.1502 262 24C262 11.8497 252.15 2 240 2C227.85 2 218 11.8497 218 24C218 36.1502 227.85 46 240 46ZM223.5 24C222.672 24 222 24.6715 222 25.5C222 26.3284 222.672 27 223.5 27C224.328 27 225 26.3284 225 25.5C225 24.6715 224.328 24 223.5 24Z" stroke="#111111" stroke-width="3" stroke-linecap="round" stroke-linejoin="round"/>
</g>
<g id="Size=12px, Filled=true" clip-path="url(#clip8_2415_962)">
<g id="Vector_8">
<path d="M5.9998 86.0473C7.55812 86.0515 9.08149 86.5083 10.384 87.3619C10.4352 87.396 10.4977 87.409 10.5584 87.3984C10.6191 87.3877 10.6733 87.3541 10.7098 87.3046C11.4012 86.3263 11.7651 85.1551 11.7495 83.9581C11.7419 82.4366 11.1288 80.9805 10.0451 79.91C8.96146 78.8396 7.49597 78.2425 5.97105 78.2501C4.44613 78.2577 2.98669 78.8694 1.9138 79.9506C0.840908 81.0318 0.242447 82.494 0.250072 84.0155C0.248514 85.1911 0.611716 86.3384 1.28981 87.2998C1.32631 87.3493 1.38053 87.3829 1.4412 87.3936C1.50188 87.4043 1.56435 87.3912 1.61563 87.3571C2.91863 86.5052 4.44196 86.0501 5.9998 86.0473ZM5.64044 79.952C5.64044 79.8569 5.6783 79.7657 5.74569 79.6984C5.81309 79.6312 5.90449 79.5934 5.9998 79.5934C6.0951 79.5934 6.18651 79.6312 6.2539 79.6984C6.32129 79.7657 6.35915 79.8569 6.35915 79.952V80.6691C6.35915 80.7642 6.32129 80.8554 6.2539 80.9226C6.18651 80.9898 6.0951 81.0276 5.9998 81.0276C5.90449 81.0276 5.81309 80.9898 5.74569 80.9226C5.6783 80.8554 5.64044 80.7642 5.64044 80.6691V79.952ZM2.64579 84.374H1.92708C1.83177 84.374 1.74036 84.3363 1.67297 84.269C1.60558 84.2018 1.56772 84.1106 1.56772 84.0155C1.56772 83.9204 1.60558 83.8292 1.67297 83.762C1.74036 83.6947 1.83177 83.6569 1.92708 83.6569H2.64579C2.7411 83.6569 2.8325 83.6947 2.89989 83.762C2.96729 83.8292 3.00515 83.9204 3.00515 84.0155C3.00515 84.1106 2.96729 84.2018 2.89989 84.269C2.8325 84.3363 2.7411 84.374 2.64579 84.374ZM3.88198 81.9025C3.8146 81.9696 3.72327 82.0073 3.62804 82.0073C3.53281 82.0073 3.44147 81.9696 3.37409 81.9025L2.8662 81.3957C2.80272 81.3277 2.76816 81.2378 2.7698 81.145C2.77145 81.0521 2.80916 80.9634 2.875 80.8978C2.94084 80.8321 3.02967 80.7944 3.12277 80.7928C3.21587 80.7912 3.30597 80.8256 3.37409 80.889L3.88198 81.3957C3.94928 81.4629 3.98708 81.5541 3.98708 81.6491C3.98708 81.7441 3.94928 81.8352 3.88198 81.9025ZM5.96147 85.1867C5.73489 85.1895 5.51268 85.1245 5.3234 85.0002C5.13413 84.8759 4.98646 84.6979 4.89939 84.4892C4.81231 84.2805 4.7898 84.0506 4.83477 83.829C4.87974 83.6074 4.99012 83.4043 5.15171 83.2458C5.51586 82.8873 8.50572 81.0324 8.86987 80.822C8.91584 80.793 8.97038 80.7804 9.02448 80.7863C9.07859 80.7923 9.12905 80.8165 9.16754 80.8549C9.20603 80.8933 9.23027 80.9437 9.23625 80.9976C9.24224 81.0516 9.22962 81.106 9.20048 81.1519C8.98965 81.4961 7.13058 84.4983 6.77122 84.8617C6.55432 85.0715 6.26362 85.1883 5.96147 85.1867ZM9.3538 84.374C9.2585 84.374 9.16709 84.3363 9.0997 84.269C9.03231 84.2018 8.99445 84.1106 8.99445 84.0155C8.99445 83.9204 9.03231 83.8292 9.0997 83.762C9.16709 83.6947 9.2585 83.6569 9.3538 83.6569H10.0725C10.1678 83.6569 10.2592 83.6947 10.3266 83.762C10.394 83.8292 10.4319 83.9204 10.4319 84.0155C10.4319 84.1106 10.394 84.2018 10.3266 84.269C10.2592 84.3363 10.1678 84.374 10.0725 84.374H9.3538Z" fill="#111111"/>
<path d="M5.9998 86.7643C4.6437 86.7627 3.31481 87.1439 2.16665 87.8639C2.13533 87.8831 2.10888 87.9094 2.08934 87.9405C2.06981 87.9716 2.05772 88.0068 2.05401 88.0433C2.05031 88.0798 2.05508 88.1167 2.06797 88.1511C2.08085 88.1855 2.1015 88.2164 2.12832 88.2416C3.18881 89.2118 4.57535 89.75 6.01417 89.75C7.453 89.75 8.83953 89.2118 9.90003 88.2416C9.92684 88.2164 9.94749 88.1855 9.96037 88.1511C9.97326 88.1167 9.97803 88.0798 9.97433 88.0433C9.97062 88.0068 9.95853 87.9716 9.939 87.9405C9.91947 87.9094 9.89301 87.8831 9.8617 87.8639C8.70527 87.1387 7.36566 86.7573 5.9998 86.7643Z" fill="#111111"/>
</g>
</g>
<g id="Size=16px, Filled=true" clip-path="url(#clip9_2415_962)">
<g id="Vector_9">
<path d="M31.9999 86.7297C34.0777 86.7354 36.1088 87.3444 37.8454 88.4826C37.9138 88.528 37.9971 88.5454 38.078 88.5312C38.1589 88.5169 38.2312 88.4721 38.2799 88.4061C39.2017 87.1017 39.6869 85.5401 39.6662 83.9442C39.656 81.9155 38.8386 79.974 37.3937 78.5467C35.9488 77.1194 33.9948 76.3233 31.9616 76.3334C29.9283 76.3436 27.9824 77.1592 26.5519 78.6008C25.1214 80.0425 24.3234 81.992 24.3336 84.0207C24.3315 85.5881 24.8158 87.1178 25.7199 88.3997C25.7686 88.4657 25.8409 88.5105 25.9218 88.5248C26.0027 88.539 26.086 88.5216 26.1543 88.4762C27.8917 87.3403 29.9228 86.7335 31.9999 86.7297ZM31.5207 78.6026C31.5207 78.4758 31.5712 78.3542 31.6611 78.2646C31.7509 78.1749 31.8728 78.1246 31.9999 78.1246C32.127 78.1246 32.2488 78.1749 32.3387 78.2646C32.4286 78.3542 32.479 78.4758 32.479 78.6026V79.5588C32.479 79.6855 32.4286 79.8071 32.3387 79.8968C32.2488 79.9865 32.127 80.0368 31.9999 80.0368C31.8728 80.0368 31.7509 79.9865 31.6611 79.8968C31.5712 79.8071 31.5207 79.6855 31.5207 79.5588V78.6026ZM27.5279 84.4987H26.5696C26.4425 84.4987 26.3206 84.4484 26.2308 84.3587C26.1409 84.269 26.0905 84.1475 26.0905 84.0207C26.0905 83.8939 26.1409 83.7723 26.2308 83.6826C26.3206 83.593 26.4425 83.5426 26.5696 83.5426H27.5279C27.655 83.5426 27.7768 83.593 27.8667 83.6826C27.9565 83.7723 28.007 83.8939 28.007 84.0207C28.007 84.1475 27.9565 84.269 27.8667 84.3587C27.7768 84.4484 27.655 84.4987 27.5279 84.4987ZM29.1761 81.2033C29.0863 81.2928 28.9645 81.3431 28.8375 81.3431C28.7106 81.3431 28.5888 81.2928 28.4989 81.2033L27.8218 80.5276C27.7371 80.437 27.691 80.3171 27.6932 80.1933C27.6954 80.0694 27.7457 79.9513 27.8335 79.8637C27.9213 79.7761 28.0397 79.7259 28.1639 79.7237C28.288 79.7216 28.4081 79.7675 28.4989 79.852L29.1761 80.5276C29.2659 80.6173 29.3163 80.7388 29.3163 80.8655C29.3163 80.9921 29.2659 81.1137 29.1761 81.2033ZM31.9488 85.5823C31.6467 85.586 31.3504 85.4993 31.098 85.3336C30.8457 85.1679 30.6488 84.9306 30.5327 84.6523C30.4166 84.374 30.3866 84.0674 30.4465 83.772C30.5065 83.4765 30.6537 83.2057 30.8691 82.9944C31.3546 82.5164 35.3411 80.0432 35.8267 79.7627C35.888 79.724 35.9607 79.7072 36.0328 79.7151C36.105 79.7231 36.1722 79.7553 36.2235 79.8066C36.2749 79.8578 36.3072 79.9249 36.3152 79.9969C36.3232 80.0688 36.3063 80.1414 36.2675 80.2025C35.9864 80.6615 33.5076 84.6645 33.0285 85.1489C32.7393 85.4287 32.3517 85.5843 31.9488 85.5823ZM36.4719 84.4987C36.3448 84.4987 36.223 84.4484 36.1331 84.3587C36.0432 84.269 35.9928 84.1475 35.9928 84.0207C35.9928 83.8939 36.0432 83.7723 36.1331 83.6826C36.223 83.593 36.3448 83.5426 36.4719 83.5426H37.4302C37.5573 83.5426 37.6791 83.593 37.769 83.6826C37.8589 83.7723 37.9093 83.8939 37.9093 84.0207C37.9093 84.1475 37.8589 84.269 37.769 84.3587C37.6791 84.4484 37.5573 84.4987 37.4302 84.4987H36.4719Z" fill="#111111"/>
<path d="M31.9999 87.6858C30.1918 87.6836 28.4199 88.1919 26.889 89.1519C26.8473 89.1775 26.812 89.2125 26.786 89.254C26.7599 89.2954 26.7438 89.3423 26.7388 89.391C26.7339 89.4397 26.7403 89.4889 26.7575 89.5348C26.7746 89.5806 26.8022 89.6219 26.8379 89.6554C28.2519 90.949 30.1006 91.6667 32.0191 91.6667C33.9375 91.6667 35.7862 90.949 37.2002 89.6554C37.2359 89.6219 37.2635 89.5806 37.2807 89.5348C37.2978 89.4889 37.3042 89.4397 37.2993 89.391C37.2943 89.3423 37.2782 89.2954 37.2522 89.254C37.2261 89.2125 37.1908 89.1775 37.1491 89.1519C35.6072 88.1849 33.821 87.6764 31.9999 87.6858Z" fill="#111111"/>
</g>
</g>
<g id="Size=20px, Filled=true" clip-path="url(#clip10_2415_962)">
<g id="Vector_10">
<path d="M61.9995 87.4121C64.5967 87.4192 67.1356 88.1805 69.3064 89.6032C69.3919 89.66 69.496 89.6817 69.5972 89.6639C69.6983 89.6461 69.7886 89.5901 69.8495 89.5076C71.0018 87.8771 71.6083 85.9251 71.5824 83.9302C71.5697 81.3944 70.5479 78.9675 68.7417 77.1834C66.9356 75.3993 64.4931 74.4041 61.9516 74.4168C59.41 74.4295 56.9777 75.449 55.1895 77.251C53.4014 79.053 52.4039 81.49 52.4166 84.0258C52.414 85.9851 53.0194 87.8973 54.1495 89.4996C54.2104 89.5822 54.3007 89.6382 54.4018 89.656C54.503 89.6738 54.6071 89.652 54.6926 89.5952C56.8642 88.1754 59.4031 87.4168 61.9995 87.4121ZM61.4006 77.2533C61.4006 77.0948 61.4637 76.9428 61.576 76.8307C61.6883 76.7187 61.8407 76.6557 61.9995 76.6557C62.1583 76.6557 62.3107 76.7187 62.423 76.8307C62.5353 76.9428 62.5984 77.0948 62.5984 77.2533V78.4484C62.5984 78.6069 62.5353 78.7589 62.423 78.871C62.3107 78.983 62.1583 79.046 61.9995 79.046C61.8407 79.046 61.6883 78.983 61.576 78.871C61.4637 78.7589 61.4006 78.6069 61.4006 78.4484V77.2533ZM56.4095 84.6234H55.2116C55.0528 84.6234 54.9004 84.5604 54.7881 84.4484C54.6758 84.3363 54.6127 84.1843 54.6127 84.0258C54.6127 83.8673 54.6758 83.7153 54.7881 83.6033C54.9004 83.4912 55.0528 83.4282 55.2116 83.4282H56.4095C56.5683 83.4282 56.7207 83.4912 56.833 83.6033C56.9453 83.7153 57.0084 83.8673 57.0084 84.0258C57.0084 84.1843 56.9453 84.3363 56.833 84.4484C56.7207 84.5604 56.5683 84.6234 56.4095 84.6234ZM58.4698 80.5041C58.3575 80.616 58.2053 80.6789 58.0466 80.6789C57.8878 80.6789 57.7356 80.616 57.6233 80.5041L56.7768 79.6595C56.671 79.5462 56.6134 79.3964 56.6162 79.2416C56.6189 79.0868 56.6818 78.9391 56.7915 78.8296C56.9012 78.7201 57.0493 78.6574 57.2044 78.6546C57.3596 78.6519 57.5098 78.7094 57.6233 78.8149L58.4698 79.6595C58.582 79.7716 58.645 79.9234 58.645 80.0818C58.645 80.2402 58.582 80.392 58.4698 80.5041ZM61.9356 85.9779C61.558 85.9824 61.1876 85.8742 60.8722 85.667C60.5567 85.4598 60.3106 85.1632 60.1655 84.8154C60.0203 84.4675 59.9828 84.0843 60.0578 83.715C60.1327 83.3456 60.3167 83.0072 60.586 82.743C61.1929 82.1454 66.176 79.054 66.783 78.7034C66.8596 78.6549 66.9505 78.6339 67.0406 78.6439C67.1308 78.6539 67.2149 78.6942 67.2791 78.7582C67.3432 78.8222 67.3836 78.9061 67.3936 78.996C67.4036 79.086 67.3825 79.1767 67.334 79.2532C66.9826 79.8268 63.8841 84.8305 63.2852 85.4361C62.9237 85.7859 62.4392 85.9804 61.9356 85.9779ZM67.5895 84.6234C67.4307 84.6234 67.2783 84.5604 67.166 84.4484C67.0537 84.3363 66.9906 84.1843 66.9906 84.0258C66.9906 83.8673 67.0537 83.7153 67.166 83.6033C67.2783 83.4912 67.4307 83.4282 67.5895 83.4282H68.7874C68.9462 83.4282 69.0986 83.4912 69.2109 83.6033C69.3232 83.7153 69.3863 83.8673 69.3863 84.0258C69.3863 84.1843 69.3232 84.3363 69.2109 84.4484C69.0986 84.5604 68.9462 84.6234 68.7874 84.6234H67.5895Z" fill="#111111"/>
<path d="M61.9995 88.6072C59.7393 88.6045 57.5245 89.2398 55.6109 90.4398C55.5587 90.4719 55.5146 90.5156 55.4821 90.5674C55.4495 90.6193 55.4294 90.6779 55.4232 90.7388C55.417 90.7997 55.425 90.8611 55.4464 90.9184C55.4679 90.9757 55.5023 91.0273 55.547 91.0692C57.3145 92.6863 59.6254 93.5833 62.0235 93.5833C64.4215 93.5833 66.7324 92.6863 68.4999 91.0692C68.5446 91.0273 68.579 90.9757 68.6005 90.9184C68.6219 90.8611 68.6299 90.7997 68.6237 90.7388C68.6175 90.6779 68.5974 90.6193 68.5648 90.5674C68.5323 90.5156 68.4882 90.4719 68.436 90.4398C66.5086 89.2311 64.2759 88.5954 61.9995 88.6072Z" fill="#111111"/>
</g>
</g>
<g id="Size=24px, Filled=true" clip-path="url(#clip11_2415_962)">
<g id="Vector_11">
<path d="M95.9996 88.0945C99.1162 88.103 102.163 89.0166 104.768 90.7238C104.87 90.792 104.995 90.8181 105.117 90.7967C105.238 90.7754 105.347 90.7082 105.42 90.6091C106.802 88.6525 107.53 86.3101 107.499 83.9162C107.484 80.8733 106.258 77.961 104.09 75.8201C101.923 73.6791 98.9919 72.4849 95.9421 72.5001C92.8923 72.5154 89.9734 73.7388 87.8276 75.9012C85.6818 78.0637 84.4849 80.988 84.5001 84.031C84.497 86.3822 85.2234 88.6767 86.5796 90.5995C86.6526 90.6986 86.7611 90.7658 86.8824 90.7872C87.0038 90.8085 87.1287 90.7824 87.2313 90.7143C89.8373 89.0105 92.8839 88.1002 95.9996 88.0945ZM95.2809 75.9039C95.2809 75.7138 95.3566 75.5314 95.4914 75.3969C95.6262 75.2624 95.809 75.1868 95.9996 75.1868C96.1902 75.1868 96.373 75.2624 96.5078 75.3969C96.6426 75.5314 96.7183 75.7138 96.7183 75.9039V77.3381C96.7183 77.5283 96.6426 77.7107 96.5078 77.8452C96.373 77.9797 96.1902 78.0552 95.9996 78.0552C95.809 78.0552 95.6262 77.9797 95.4914 77.8452C95.3566 77.7107 95.2809 77.5283 95.2809 77.3381V75.9039ZM89.2916 84.7481H87.8542C87.6635 84.7481 87.4807 84.6725 87.3459 84.538C87.2112 84.4036 87.1354 84.2212 87.1354 84.031C87.1354 83.8408 87.2112 83.6584 87.3459 83.5239C87.4807 83.3894 87.6635 83.3139 87.8542 83.3139H89.2916C89.4822 83.3139 89.665 83.3894 89.7998 83.5239C89.9346 83.6584 90.0103 83.8408 90.0103 84.031C90.0103 84.2212 89.9346 84.4036 89.7998 84.538C89.665 84.6725 89.4822 84.7481 89.2916 84.7481ZM91.764 79.8049C91.6292 79.9392 91.4465 80.0146 91.2561 80.0146C91.0656 80.0146 90.8829 79.9392 90.7482 79.8049L89.7324 78.7914C89.6054 78.6555 89.5363 78.4757 89.5396 78.2899C89.5429 78.1041 89.6183 77.9269 89.75 77.7955C89.8817 77.6641 90.0593 77.5889 90.2455 77.5856C90.4317 77.5823 90.6119 77.6513 90.7482 77.7779L91.764 78.7914C91.8986 78.9259 91.9742 79.1081 91.9742 79.2982C91.9742 79.4882 91.8986 79.6705 91.764 79.8049ZM95.9229 86.3735C95.4698 86.3789 95.0254 86.249 94.6468 86.0004C94.2683 85.7518 93.9729 85.3959 93.7988 84.9784C93.6246 84.561 93.5796 84.1011 93.6695 83.658C93.7595 83.2148 93.9802 82.8086 94.3034 82.4916C95.0317 81.7745 101.011 78.0648 101.74 77.6441C101.832 77.5859 101.941 77.5607 102.049 77.5727C102.157 77.5846 102.258 77.633 102.335 77.7098C102.412 77.7866 102.461 77.8873 102.473 77.9953C102.484 78.1032 102.459 78.2121 102.401 78.3038C101.979 78.9922 98.2612 84.9967 97.5424 85.7233C97.1086 86.1431 96.5272 86.3765 95.9229 86.3735ZM102.708 84.7481C102.517 84.7481 102.334 84.6725 102.199 84.538C102.065 84.4036 101.989 84.2212 101.989 84.031C101.989 83.8408 102.065 83.6584 102.199 83.5239C102.334 83.3894 102.517 83.3139 102.708 83.3139H104.145C104.336 83.3139 104.518 83.3894 104.653 83.5239C104.788 83.6584 104.864 83.8408 104.864 84.031C104.864 84.2212 104.788 84.4036 104.653 84.538C104.518 84.6725 104.336 84.7481 104.145 84.7481H102.708Z" fill="#111111"/>
<path d="M95.9996 89.5287C93.2874 89.5254 90.6296 90.2878 88.3333 91.7278C88.2707 91.7663 88.2178 91.8187 88.1787 91.8809C88.1396 91.9431 88.1154 92.0135 88.108 92.0865C88.1006 92.1596 88.1102 92.2334 88.1359 92.3021C88.1617 92.3709 88.203 92.4328 88.2566 92.4831C90.3776 94.4235 93.1507 95.5 96.0283 95.5C98.906 95.5 101.679 94.4235 103.8 92.4831C103.854 92.4328 103.895 92.3709 103.921 92.3021C103.947 92.2334 103.956 92.1596 103.949 92.0865C103.941 92.0135 103.917 91.9431 103.878 91.8809C103.839 91.8187 103.786 91.7663 103.723 91.7278C101.411 90.2774 98.7313 89.5145 95.9996 89.5287Z" fill="#111111"/>
</g>
</g>
<g id="Size=32px, Filled=true" clip-path="url(#clip12_2415_962)">
<g id="Vector_12">
<path d="M135.999 89.4593C140.155 89.4707 144.217 90.6888 147.69 92.9651C147.827 93.056 147.994 93.0908 148.156 93.0623C148.317 93.0338 148.462 92.9442 148.559 92.8121C150.403 90.2034 151.373 87.0801 151.332 83.8883C151.312 79.831 149.677 75.948 146.787 73.0934C143.897 70.2389 139.989 68.6466 135.923 68.6668C131.856 68.6871 127.964 70.3183 125.103 73.2016C122.242 76.0849 120.646 79.984 120.667 84.0413C120.663 87.1762 121.631 90.2356 123.439 92.7994C123.537 92.9315 123.681 93.0211 123.843 93.0495C124.005 93.078 124.171 93.0432 124.308 92.9524C127.783 90.6806 131.845 89.4669 135.999 89.4593ZM135.041 73.2052C135.041 72.9517 135.142 72.7085 135.322 72.5292C135.501 72.3499 135.745 72.2491 135.999 72.2491C136.253 72.2491 136.497 72.3499 136.677 72.5292C136.857 72.7085 136.958 72.9517 136.958 73.2052V75.1175C136.958 75.3711 136.857 75.6143 136.677 75.7936C136.497 75.9729 136.253 76.0736 135.999 76.0736C135.745 76.0736 135.501 75.9729 135.322 75.7936C135.142 75.6143 135.041 75.3711 135.041 75.1175V73.2052ZM127.055 84.9974H125.139C124.885 84.9974 124.641 84.8967 124.461 84.7174C124.281 84.5381 124.18 84.2949 124.18 84.0413C124.18 83.7877 124.281 83.5445 124.461 83.3652C124.641 83.1859 124.885 83.0852 125.139 83.0852H127.055C127.309 83.0852 127.553 83.1859 127.733 83.3652C127.913 83.5445 128.014 83.7877 128.014 84.0413C128.014 84.2949 127.913 84.5381 127.733 84.7174C127.553 84.8967 127.309 84.9974 127.055 84.9974ZM130.352 78.4065C130.172 78.5856 129.929 78.6862 129.675 78.6862C129.421 78.6862 129.177 78.5856 128.997 78.4065L127.643 77.0552C127.474 76.874 127.382 76.6343 127.386 76.3866C127.39 76.1389 127.491 75.9025 127.667 75.7273C127.842 75.5522 128.079 75.4518 128.327 75.4474C128.575 75.4431 128.816 75.535 128.997 75.7039L130.352 77.0552C130.531 77.2345 130.632 77.4775 130.632 77.7309C130.632 77.9843 130.531 78.2273 130.352 78.4065ZM135.897 87.1646C135.293 87.1719 134.7 86.9987 134.196 86.6672C133.691 86.3357 133.297 85.8612 133.065 85.3046C132.833 84.748 132.773 84.1348 132.893 83.5439C133.012 82.953 133.307 82.4114 133.738 81.9888C134.709 81.0327 142.682 76.0864 143.653 75.5254C143.775 75.4479 143.921 75.4143 144.065 75.4302C144.209 75.4462 144.344 75.5107 144.447 75.6131C144.549 75.7155 144.614 75.8497 144.63 75.9937C144.646 76.1376 144.612 76.2827 144.534 76.4051C143.972 77.3229 139.015 85.3289 138.056 86.2977C137.478 86.8575 136.703 87.1687 135.897 87.1646ZM144.943 84.9974C144.689 84.9974 144.445 84.8967 144.266 84.7174C144.086 84.5381 143.985 84.2949 143.985 84.0413C143.985 83.7877 144.086 83.5445 144.266 83.3652C144.445 83.1859 144.689 83.0852 144.943 83.0852H146.86C147.114 83.0852 147.358 83.1859 147.538 83.3652C147.717 83.5445 147.818 83.7877 147.818 84.0413C147.818 84.2949 147.717 84.5381 147.538 84.7174C147.358 84.8967 147.114 84.9974 146.86 84.9974H144.943Z" fill="#111111"/>
<path d="M135.999 91.3716C132.383 91.3672 128.839 92.3837 125.778 94.3037C125.694 94.355 125.624 94.4249 125.571 94.5079C125.519 94.5908 125.487 94.6847 125.477 94.7821C125.467 94.8794 125.48 94.9778 125.514 95.0695C125.549 95.1612 125.604 95.2438 125.675 95.3108C128.503 97.898 132.201 99.3333 136.038 99.3333C139.874 99.3333 143.572 97.898 146.4 95.3108C146.471 95.2438 146.526 95.1612 146.561 95.0695C146.595 94.9778 146.608 94.8794 146.598 94.7821C146.588 94.6847 146.556 94.5908 146.504 94.5079C146.452 94.4249 146.381 94.355 146.298 94.3037C143.214 92.3698 139.642 91.3527 135.999 91.3716Z" fill="#111111"/>
</g>
</g>
<g id="Size=40px, Filled=true" clip-path="url(#clip13_2415_962)">
<g id="Vector_13">
<path d="M183.999 90.8242C189.194 90.8384 194.272 92.3611 198.613 95.2064C198.784 95.32 198.993 95.3635 199.195 95.3279C199.397 95.2923 199.578 95.1803 199.699 95.0152C202.004 91.7543 203.217 87.8502 203.165 83.8604C203.14 78.7888 201.096 73.935 197.484 70.3668C193.872 66.7986 188.987 64.8082 183.904 64.8336C178.821 64.8589 173.956 66.8979 170.379 70.502C166.803 74.1061 164.808 78.9801 164.834 84.0516C164.829 87.9703 166.039 91.7945 168.3 94.9992C168.421 95.1643 168.602 95.2763 168.804 95.3119C169.006 95.3476 169.215 95.3041 169.386 95.1905C173.729 92.3508 178.807 90.8336 183.999 90.8242ZM182.802 70.5066C182.802 70.1896 182.928 69.8856 183.152 69.6615C183.377 69.4373 183.682 69.3114 183.999 69.3114C184.317 69.3114 184.622 69.4373 184.847 69.6615C185.071 69.8856 185.197 70.1896 185.197 70.5066V72.8969C185.197 73.2139 185.071 73.5178 184.847 73.742C184.622 73.9661 184.317 74.092 183.999 74.092C183.682 74.092 183.377 73.9661 183.152 73.742C182.928 73.5178 182.802 73.2139 182.802 72.8969V70.5066ZM172.819 85.2468H170.424C170.106 85.2468 169.801 85.1209 169.577 84.8967C169.352 84.6726 169.226 84.3686 169.226 84.0516C169.226 83.7347 169.352 83.4307 169.577 83.2065C169.801 82.9824 170.106 82.8565 170.424 82.8565H172.819C173.137 82.8565 173.442 82.9824 173.666 83.2065C173.891 83.4307 174.017 83.7347 174.017 84.0516C174.017 84.3686 173.891 84.6726 173.666 84.8967C173.442 85.1209 173.137 85.2468 172.819 85.2468ZM176.94 77.0082C176.716 77.232 176.411 77.3577 176.094 77.3577C175.776 77.3577 175.472 77.232 175.247 77.0082L173.554 75.3191C173.343 75.0925 173.227 74.7928 173.233 74.4832C173.238 74.1736 173.364 73.8782 173.584 73.6592C173.803 73.4402 174.099 73.3148 174.409 73.3093C174.72 73.3039 175.02 73.4188 175.247 73.6299L176.94 75.3191C177.164 75.5431 177.29 75.8469 177.29 76.1636C177.29 76.4804 177.164 76.7841 176.94 77.0082ZM183.872 87.9558C183.116 87.9649 182.376 87.7484 181.745 87.334C181.114 86.9197 180.622 86.3265 180.331 85.6308C180.041 84.935 179.966 84.1685 180.116 83.4299C180.266 82.6913 180.634 82.0143 181.173 81.486C182.386 80.2909 192.353 74.108 193.566 73.4068C193.72 73.3099 193.901 73.2679 194.082 73.2878C194.262 73.3077 194.43 73.3883 194.559 73.5164C194.687 73.6444 194.768 73.8122 194.788 73.9921C194.808 74.1721 194.766 74.3534 194.668 74.5064C193.966 75.6537 187.769 85.6611 186.571 86.8722C185.848 87.5718 184.879 87.9609 183.872 87.9558ZM195.18 85.2468C194.862 85.2468 194.557 85.1209 194.332 84.8967C194.108 84.6726 193.982 84.3686 193.982 84.0516C193.982 83.7347 194.108 83.4307 194.332 83.2065C194.557 82.9824 194.862 82.8565 195.18 82.8565H197.575C197.893 82.8565 198.198 82.9824 198.422 83.2065C198.647 83.4307 198.773 83.7347 198.773 84.0516C198.773 84.3686 198.647 84.6726 198.422 84.8967C198.198 85.1209 197.893 85.2468 197.575 85.2468H195.18Z" fill="#111111"/>
<path d="M183.999 93.2145C179.479 93.209 175.05 94.4797 171.222 96.8796C171.118 96.9438 171.03 97.0312 170.965 97.1349C170.9 97.2386 170.859 97.3558 170.847 97.4776C170.835 97.5993 170.85 97.7223 170.893 97.8369C170.936 97.9515 171.005 98.0547 171.095 98.1385C174.63 101.373 179.251 103.167 184.047 103.167C188.843 103.167 193.465 101.373 197 98.1385C197.09 98.0547 197.158 97.9515 197.201 97.8369C197.244 97.7223 197.26 97.5993 197.248 97.4776C197.236 97.3558 197.195 97.2386 197.13 97.1349C197.065 97.0312 196.977 96.9438 196.872 96.8796C193.018 94.4623 188.552 93.1909 183.999 93.2145Z" fill="#111111"/>
</g>
</g>
<g id="Size=48px, Filled=true">
<g id="Vector_14">
<path d="M239.999 92.189C246.232 92.206 252.326 94.0333 257.536 97.4477C257.741 97.584 257.991 97.6362 258.234 97.5935C258.476 97.5507 258.693 97.4163 258.839 97.2182C261.605 93.3051 263.06 88.6202 262.998 83.8325C262.968 77.7466 260.515 71.922 256.181 67.6402C251.846 63.3583 245.984 60.9699 239.884 61.0003C233.785 61.0307 227.947 63.4775 223.655 67.8024C219.364 72.1273 216.97 77.9761 217 84.062C216.994 88.7644 218.447 93.3534 221.159 97.1991C221.305 97.3972 221.522 97.5316 221.765 97.5743C222.008 97.6171 222.257 97.5649 222.463 97.4286C227.675 94.0209 233.768 92.2004 239.999 92.189ZM238.562 67.8079C238.562 67.4275 238.713 67.0627 238.983 66.7938C239.252 66.5248 239.618 66.3737 239.999 66.3737C240.38 66.3737 240.746 66.5248 241.016 66.7938C241.285 67.0627 241.437 67.4275 241.437 67.8079V70.6762C241.437 71.0566 241.285 71.4214 241.016 71.6904C240.746 71.9593 240.38 72.1104 239.999 72.1104C239.618 72.1104 239.252 71.9593 238.983 71.6904C238.713 71.4214 238.562 71.0566 238.562 70.6762V67.8079ZM226.583 85.4961H223.708C223.327 85.4961 222.961 85.345 222.692 85.0761C222.422 84.8071 222.271 84.4423 222.271 84.062C222.271 83.6816 222.422 83.3168 222.692 83.0478C222.961 82.7789 223.327 82.6278 223.708 82.6278H226.583C226.964 82.6278 227.33 82.7789 227.6 83.0478C227.869 83.3168 228.021 83.6816 228.021 84.062C228.021 84.4423 227.869 84.8071 227.6 85.0761C227.33 85.345 226.964 85.4961 226.583 85.4961ZM231.528 75.6098C231.258 75.8784 230.893 76.0293 230.512 76.0293C230.131 76.0293 229.766 75.8784 229.496 75.6098L227.465 73.5829C227.211 73.311 227.073 72.9514 227.079 72.5798C227.086 72.2083 227.237 71.8538 227.5 71.591C227.763 71.3283 228.119 71.1777 228.491 71.1712C228.863 71.1646 229.224 71.3025 229.496 71.5559L231.528 73.5829C231.797 73.8518 231.948 74.2163 231.948 74.5963C231.948 74.9764 231.797 75.3409 231.528 75.6098ZM239.846 88.747C238.94 88.7579 238.051 88.498 237.294 88.0008C236.537 87.5036 235.946 86.7918 235.598 85.9569C235.249 85.122 235.159 84.2022 235.339 83.3159C235.519 82.4296 235.96 81.6172 236.607 80.9832C238.063 79.5491 250.023 72.1296 251.479 71.2882C251.663 71.1718 251.882 71.1215 252.098 71.1454C252.314 71.1693 252.516 71.266 252.67 71.4196C252.824 71.5732 252.921 71.7746 252.945 71.9905C252.969 72.2065 252.918 72.4241 252.802 72.6076C251.959 73.9844 244.522 85.9933 243.085 87.4466C242.217 88.2862 241.054 88.753 239.846 88.747ZM253.415 85.4961C253.034 85.4961 252.668 85.345 252.399 85.0761C252.129 84.8071 251.978 84.4423 251.978 84.062C251.978 83.6816 252.129 83.3168 252.399 83.0478C252.668 82.7789 253.034 82.6278 253.415 82.6278H256.29C256.671 82.6278 257.037 82.7789 257.306 83.0478C257.576 83.3168 257.728 83.6816 257.728 84.062C257.728 84.4423 257.576 84.8071 257.306 85.0761C257.037 85.345 256.671 85.4961 256.29 85.4961H253.415Z" fill="#111111"/>
<path d="M239.999 95.0574C234.575 95.0508 229.259 96.5756 224.667 99.4555C224.541 99.5326 224.436 99.6374 224.357 99.7618C224.279 99.8863 224.231 100.027 224.216 100.173C224.201 100.319 224.22 100.467 224.272 100.604C224.323 100.742 224.406 100.866 224.513 100.966C228.755 104.847 234.301 107 240.057 107C245.812 107 251.358 104.847 255.6 100.966C255.707 100.866 255.79 100.742 255.841 100.604C255.893 100.467 255.912 100.319 255.897 100.173C255.882 100.027 255.834 99.8863 255.756 99.7618C255.678 99.6374 255.572 99.5326 255.447 99.4555C250.821 96.5547 245.463 95.0291 239.999 95.0574Z" fill="#111111"/>
</g>
</g>
</g>
</g>
<defs>
<clipPath id="clip0_2415_962">
<rect width="264" height="108" rx="5" fill="white"/>
</clipPath>
<clipPath id="clip1_2415_962">
<rect width="12" height="12" fill="white" transform="translate(0 18)"/>
</clipPath>
<clipPath id="clip2_2415_962">
<rect width="16" height="16" fill="white" transform="translate(24 16)"/>
</clipPath>
<clipPath id="clip3_2415_962">
<rect width="20" height="20" fill="white" transform="translate(52 14)"/>
</clipPath>
<clipPath id="clip4_2415_962">
<rect width="24" height="24" fill="white" transform="translate(84 12)"/>
</clipPath>
<clipPath id="clip5_2415_962">
<rect width="32" height="32" fill="white" transform="translate(120 8)"/>
</clipPath>
<clipPath id="clip6_2415_962">
<rect width="40" height="40" fill="white" transform="translate(164 4)"/>
</clipPath>
<clipPath id="clip7_2415_962">
<rect width="48" height="48" fill="white" transform="translate(216)"/>
</clipPath>
<clipPath id="clip8_2415_962">
<rect width="12" height="12" fill="white" transform="translate(0 78)"/>
</clipPath>
<clipPath id="clip9_2415_962">
<rect width="16" height="16" fill="white" transform="translate(24 76)"/>
</clipPath>
<clipPath id="clip10_2415_962">
<rect width="20" height="20" fill="white" transform="translate(52 74)"/>
</clipPath>
<clipPath id="clip11_2415_962">
<rect width="24" height="24" fill="white" transform="translate(84 72)"/>
</clipPath>
<clipPath id="clip12_2415_962">
<rect width="32" height="32" fill="white" transform="translate(120 68)"/>
</clipPath>
<clipPath id="clip13_2415_962">
<rect width="40" height="40" fill="white" transform="translate(164 64)"/>
</clipPath>
</defs>
</svg>
