<svg width="264" height="108" viewBox="0 0 264 108" fill="none" xmlns="http://www.w3.org/2000/svg">
<g id="Tire shop">
<g clip-path="url(#clip0_7887_205)">
<g id="Size=12px, Filled=false">
<path id="Vector" d="M6 20.85C7.7397 20.85 9.15 22.2603 9.15 24C9.15 25.7397 7.7397 27.15 6 27.15C4.2603 27.15 2.85 25.7397 2.85 24C2.85 22.2603 4.2603 20.85 6 20.85ZM6 20.85L6 22.95M6 22.95C6.5799 22.95 7.05 23.4201 7.05 24C7.05 24.5799 6.5799 25.05 6 25.05C5.4201 25.05 4.95 24.5799 4.95 24C4.95 23.4201 5.4201 22.95 6 22.95ZM5.00137 23.6757L3.00403 23.0266M5.3826 24.8504L4.1478 26.5495M6.61694 24.8504L7.85128 26.5495M6.99851 23.6757L8.99584 23.0266M6 29.25C8.8995 29.25 11.25 26.8995 11.25 24C11.25 21.1005 8.8995 18.75 6 18.75C3.10051 18.75 0.75 21.1005 0.75 24C0.75 26.8995 3.10051 29.25 6 29.25Z" stroke="#111111" stroke-width="0.75" stroke-linecap="round" stroke-linejoin="round"/>
</g>
<g id="Size=16px, Filled=false">
<path id="Vector_2" d="M32 19.8C34.3196 19.8 36.2 21.6804 36.2 24C36.2 26.3196 34.3196 28.2 32 28.2C29.6804 28.2 27.8 26.3196 27.8 24C27.8 21.6804 29.6804 19.8 32 19.8ZM32 19.8L32 22.6M32 22.6C32.7732 22.6 33.4 23.2268 33.4 24C33.4 24.7732 32.7732 25.4 32 25.4C31.2268 25.4 30.6 24.7732 30.6 24C30.6 23.2268 31.2268 22.6 32 22.6ZM30.6685 23.5676L28.0054 22.7021M31.1768 25.1339L29.5304 27.3994M32.8226 25.1339L34.4684 27.3994M33.3313 23.5676L35.9945 22.7021M32 31C35.866 31 39 27.866 39 24C39 20.134 35.866 17 32 17C28.134 17 25 20.134 25 24C25 27.866 28.134 31 32 31Z" stroke="#111111" stroke-linecap="round" stroke-linejoin="round"/>
</g>
<g id="Size=20px, Filled=false">
<path id="Vector_3" d="M62 18.75C64.8995 18.75 67.25 21.1005 67.25 24C67.25 26.8995 64.8995 29.25 62 29.25C59.1005 29.25 56.75 26.8995 56.75 24C56.75 21.1005 59.1005 18.75 62 18.75ZM62 18.75L62 22.25M62 22.25C62.9665 22.25 63.75 23.0335 63.75 24C63.75 24.9665 62.9665 25.75 62 25.75C61.0335 25.75 60.25 24.9665 60.25 24C60.25 23.0335 61.0335 22.25 62 22.25ZM60.3356 23.4595L57.0067 22.3776M60.971 25.4173L58.913 28.2492M63.0282 25.4173L65.0855 28.2492M63.6642 23.4595L66.9931 22.3776M62 32.75C66.8325 32.75 70.75 28.8325 70.75 24C70.75 19.1675 66.8325 15.25 62 15.25C57.1675 15.25 53.25 19.1675 53.25 24C53.25 28.8325 57.1675 32.75 62 32.75Z" stroke="#111111" stroke-width="1.25" stroke-linecap="round" stroke-linejoin="round"/>
</g>
<g id="Size=24px, Filled=false">
<path id="Vector_4" d="M96 17.7C99.4794 17.7 102.3 20.5206 102.3 24C102.3 27.4794 99.4794 30.3 96 30.3C92.5206 30.3 89.7 27.4794 89.7 24C89.7 20.5206 92.5206 17.7 96 17.7ZM96 17.7L96 21.9M96 21.9C97.1598 21.9 98.1 22.8402 98.1 24C98.1 25.1598 97.1598 26.1 96 26.1C94.8402 26.1 93.9 25.1598 93.9 24C93.9 22.8402 94.8402 21.9 96 21.9ZM94.0027 23.3514L90.0081 22.0531M94.7652 25.7008L92.2956 29.099M97.2339 25.7008L99.7026 29.099M97.997 23.3514L101.992 22.0531M96 34.5C101.799 34.5 106.5 29.799 106.5 24C106.5 18.201 101.799 13.5 96 13.5C90.201 13.5 85.5 18.201 85.5 24C85.5 29.799 90.201 34.5 96 34.5Z" stroke="#111111" stroke-width="1.5" stroke-linecap="round" stroke-linejoin="round"/>
</g>
<g id="Size=32px, Filled=false">
<path id="Vector_5" d="M136 15.6C140.639 15.6 144.4 19.3608 144.4 24C144.4 28.6392 140.639 32.4 136 32.4C131.361 32.4 127.6 28.6392 127.6 24C127.6 19.3608 131.361 15.6 136 15.6ZM136 15.6L136 21.2M136 21.2C137.546 21.2 138.8 22.4536 138.8 24C138.8 25.5464 137.546 26.8 136 26.8C134.454 26.8 133.2 25.5464 133.2 24C133.2 22.4536 134.454 21.2 136 21.2ZM133.337 23.1352L128.011 21.4042M134.354 26.2677L131.061 30.7987M137.645 26.2677L140.937 30.7987M138.663 23.1352L143.989 21.4042M136 38C143.732 38 150 31.732 150 24C150 16.268 143.732 10 136 10C128.268 10 122 16.268 122 24C122 31.732 128.268 38 136 38Z" stroke="#111111" stroke-width="2" stroke-linecap="round" stroke-linejoin="round"/>
</g>
<g id="Size=40px, Filled=false">
<path id="Vector_6" d="M184 13.5C189.799 13.5 194.5 18.201 194.5 24C194.5 29.799 189.799 34.5 184 34.5C178.201 34.5 173.5 29.799 173.5 24C173.5 18.201 178.201 13.5 184 13.5ZM184 13.5L184 20.5M184 20.5C185.933 20.5 187.5 22.067 187.5 24C187.5 25.933 185.933 27.5 184 27.5C182.067 27.5 180.5 25.933 180.5 24C180.5 22.067 182.067 20.5 184 20.5ZM180.671 22.919L174.013 20.7552M181.942 26.8346L177.826 32.4984M186.056 26.8346L190.171 32.4984M187.328 22.919L193.986 20.7552M184 41.5C193.665 41.5 201.5 33.665 201.5 24C201.5 14.335 193.665 6.5 184 6.5C174.335 6.5 166.5 14.335 166.5 24C166.5 33.665 174.335 41.5 184 41.5Z" stroke="#111111" stroke-width="2.5" stroke-linecap="round" stroke-linejoin="round"/>
</g>
<g id="Size=48px, Filled=false">
<path id="Vector_7" d="M240 11.4C246.959 11.4 252.6 17.0412 252.6 24C252.6 30.9588 246.959 36.6 240 36.6C233.041 36.6 227.4 30.9588 227.4 24C227.4 17.0412 233.041 11.4 240 11.4ZM240 11.4L240 19.8M240 19.8C242.32 19.8 244.2 21.6804 244.2 24C244.2 26.3196 242.32 28.2 240 28.2C237.68 28.2 235.8 26.3196 235.8 24C235.8 21.6804 237.68 19.8 240 19.8ZM236.005 22.7028L228.016 20.1062M237.53 27.4016L232.591 34.1981M242.468 27.4016L247.405 34.1981M243.994 22.7028L251.983 20.1062M240 45C251.598 45 261 35.598 261 24C261 12.402 251.598 3 240 3C228.402 3 219 12.402 219 24C219 35.598 228.402 45 240 45Z" stroke="#111111" stroke-width="3" stroke-linecap="round" stroke-linejoin="round"/>
</g>
<g id="Size=12px, Filled=true" clip-path="url(#clip1_7887_205)">
<path id="Vector_8" d="M6 78.375C4.88748 78.375 3.79995 78.7049 2.87492 79.323C1.94989 79.9411 1.22892 80.8196 0.80318 81.8474C0.377437 82.8752 0.266043 84.0062 0.483085 85.0974C0.700127 86.1885 1.23586 87.1908 2.02253 87.9775C2.8092 88.7641 3.81148 89.2999 4.90262 89.5169C5.99376 89.734 7.12476 89.6226 8.1526 89.1968C9.18043 88.7711 10.0589 88.0501 10.677 87.1251C11.2951 86.2001 11.625 85.1125 11.625 84C11.625 82.5082 11.0324 81.0774 9.97748 80.0225C8.92259 78.9676 7.49184 78.375 6 78.375ZM9.16406 84.0562C9.16455 84.8565 8.86132 85.6271 8.31563 86.2125C8.30325 86.2246 8.28859 86.2342 8.2725 86.2406C8.25641 86.2471 8.23921 86.2502 8.22188 86.25C8.18689 86.2443 8.15522 86.2259 8.13281 86.1984L7.19532 84.9187C7.18279 84.8992 7.17614 84.8764 7.17614 84.8531C7.17614 84.8299 7.18279 84.8071 7.19532 84.7875C7.3142 84.6029 7.38657 84.3922 7.40625 84.1734C7.40879 84.1499 7.41812 84.1276 7.4331 84.1093C7.44808 84.091 7.46807 84.0775 7.49063 84.0703L8.99531 83.6016C9.01042 83.5934 9.02734 83.5891 9.04453 83.5891C9.06173 83.5891 9.07864 83.5934 9.09375 83.6016C9.10845 83.6105 9.12081 83.6228 9.12978 83.6375C9.13875 83.6522 9.14407 83.6688 9.14531 83.6859C9.16041 83.8088 9.16668 83.9325 9.16406 84.0562ZM2.83594 84.0562C2.82895 83.9298 2.82895 83.803 2.83594 83.6766C2.83925 83.6595 2.84593 83.6432 2.85559 83.6287C2.86524 83.6142 2.87769 83.6018 2.89219 83.5922C2.9073 83.584 2.92422 83.5797 2.94141 83.5797C2.9586 83.5797 2.97552 83.584 2.99063 83.5922L4.49532 84.0609C4.51787 84.0681 4.53786 84.0816 4.55284 84.0999C4.56783 84.1183 4.57715 84.1405 4.57969 84.1641C4.59283 84.382 4.66053 84.5932 4.77657 84.7781C4.78909 84.7977 4.79574 84.8205 4.79574 84.8437C4.79574 84.867 4.78909 84.8898 4.77657 84.9094L3.83906 86.1891C3.82918 86.2029 3.81662 86.2146 3.80212 86.2234C3.78763 86.2323 3.77149 86.2381 3.75469 86.2406C3.73736 86.2409 3.72016 86.2377 3.70406 86.2312C3.68797 86.2248 3.67332 86.2153 3.66094 86.2031C3.12598 85.6166 2.83144 84.8501 2.83594 84.0562ZM5.53125 82.65C5.53133 82.6729 5.52472 82.6953 5.51222 82.7144C5.49973 82.7336 5.4819 82.7487 5.46094 82.7578C5.25877 82.8418 5.079 82.9718 4.93594 83.1375C4.92087 83.154 4.90139 83.1659 4.8798 83.1717C4.8582 83.1775 4.83539 83.177 4.81406 83.1703L3.30469 82.7016C3.27145 82.6888 3.24452 82.6636 3.22969 82.6312C3.22284 82.6157 3.21931 82.599 3.21931 82.582C3.21931 82.5651 3.22284 82.5483 3.22969 82.5328C3.45307 82.1285 3.76228 81.7779 4.1356 81.5058C4.50892 81.2337 4.9373 81.0467 5.39063 80.9578C5.40586 80.95 5.42273 80.9459 5.43985 80.9459C5.45696 80.9459 5.47383 80.95 5.48906 80.9578C5.50214 80.9687 5.51269 80.9823 5.51998 80.9977C5.52726 81.0131 5.53111 81.0299 5.53125 81.0469V82.65ZM5.55469 85.4625C5.56956 85.444 5.58919 85.4298 5.61148 85.4215C5.63377 85.4133 5.65789 85.4112 5.68125 85.4156C5.89002 85.472 6.10999 85.472 6.31875 85.4156C6.34212 85.4112 6.36623 85.4133 6.38852 85.4215C6.41081 85.4298 6.43044 85.444 6.44531 85.4625L7.38281 86.7469C7.38966 86.7624 7.3932 86.7791 7.3932 86.7961C7.3932 86.813 7.38966 86.8298 7.38281 86.8453C7.37806 86.8619 7.36971 86.8772 7.35837 86.8901C7.34703 86.9031 7.33297 86.9134 7.31719 86.9203C6.90031 87.1147 6.44592 87.2154 5.98594 87.2154C5.52596 87.2154 5.07157 87.1147 4.65469 86.9203C4.64027 86.9134 4.62742 86.9036 4.61694 86.8915C4.60646 86.8794 4.59857 86.8653 4.59375 86.85C4.58691 86.8345 4.58337 86.8177 4.58337 86.8008C4.58337 86.7838 4.58691 86.7671 4.59375 86.7516L5.55469 85.4625ZM7.17657 83.1797C7.15732 83.1847 7.13706 83.1843 7.11803 83.1785C7.099 83.1727 7.08195 83.1618 7.06875 83.1469C6.92407 82.9766 6.74088 82.8432 6.53438 82.7578C6.51462 82.7516 6.49747 82.7391 6.4856 82.7221C6.47373 82.7052 6.46781 82.6847 6.46875 82.6641V81.0703C6.4689 81.0533 6.47274 81.0365 6.48003 81.0211C6.48731 81.0058 6.49786 80.9921 6.51094 80.9812C6.52617 80.9734 6.54304 80.9694 6.56016 80.9694C6.57728 80.9694 6.59415 80.9734 6.60938 80.9812C7.06018 81.0703 7.48618 81.2565 7.85774 81.5269C8.2293 81.7973 8.53751 82.1453 8.76094 82.5469C8.76914 82.562 8.77344 82.5789 8.77344 82.5961C8.77344 82.6133 8.76914 82.6302 8.76094 82.6453C8.75509 82.6615 8.74576 82.6761 8.73361 82.6883C8.72146 82.7004 8.70679 82.7098 8.69063 82.7156L7.17657 83.1797Z" fill="#111111"/>
</g>
<g id="Size=16px, Filled=true" clip-path="url(#clip2_7887_205)">
<path id="Vector_9" d="M32 76.5C30.5166 76.5 29.0666 76.9399 27.8332 77.764C26.5999 78.5881 25.6386 79.7594 25.0709 81.1299C24.5032 82.5003 24.3547 84.0083 24.6441 85.4632C24.9335 86.918 25.6478 88.2544 26.6967 89.3033C27.7456 90.3522 29.082 91.0665 30.5368 91.3559C31.9917 91.6453 33.4997 91.4968 34.8701 90.9291C36.2406 90.3614 37.4119 89.4001 38.236 88.1668C39.0601 86.9334 39.5 85.4834 39.5 84C39.5 82.0109 38.7098 80.1032 37.3033 78.6967C35.8968 77.2902 33.9891 76.5 32 76.5ZM36.2188 84.075C36.2194 85.142 35.8151 86.1695 35.0875 86.95C35.071 86.9662 35.0515 86.9789 35.03 86.9875C35.0085 86.9961 34.9856 87.0003 34.9625 87C34.9159 86.9923 34.8736 86.9679 34.8438 86.9312L33.5938 85.225C33.5771 85.1989 33.5682 85.1685 33.5682 85.1375C33.5682 85.1065 33.5771 85.0761 33.5938 85.05C33.7523 84.8038 33.8488 84.5229 33.875 84.2312C33.8784 84.1999 33.8908 84.1702 33.9108 84.1458C33.9308 84.1213 33.9574 84.1033 33.9875 84.0937L35.9938 83.4687C36.0139 83.4578 36.0365 83.4521 36.0594 83.4521C36.0823 83.4521 36.1049 83.4578 36.125 83.4687C36.1446 83.4807 36.1611 83.4971 36.173 83.5167C36.185 83.5362 36.1921 83.5584 36.1938 83.5812C36.2139 83.745 36.2222 83.91 36.2188 84.075ZM27.7813 84.075C27.7719 83.9064 27.7719 83.7374 27.7813 83.5687C27.7857 83.546 27.7946 83.5243 27.8074 83.505C27.8203 83.4856 27.8369 83.4691 27.8563 83.4562C27.8764 83.4453 27.899 83.4396 27.9219 83.4396C27.9448 83.4396 27.9674 83.4453 27.9875 83.4562L29.9938 84.0812C30.0238 84.0908 30.0505 84.1088 30.0705 84.1333C30.0904 84.1577 30.1029 84.1874 30.1063 84.2187C30.1238 84.5093 30.214 84.7909 30.3688 85.0375C30.3855 85.0636 30.3943 85.094 30.3943 85.125C30.3943 85.156 30.3855 85.1864 30.3688 85.2125L29.1188 86.9187C29.1056 86.9372 29.0888 86.9528 29.0695 86.9646C29.0502 86.9764 29.0287 86.9842 29.0063 86.9875C28.9831 86.9878 28.9602 86.9836 28.9388 86.975C28.9173 86.9664 28.8978 86.9537 28.8813 86.9375C28.168 86.1554 27.7753 85.1335 27.7813 84.075ZM31.375 82.2C31.3751 82.2305 31.3663 82.2604 31.3496 82.2859C31.333 82.3114 31.3092 82.3316 31.2813 82.3437C31.0117 82.4557 30.772 82.6291 30.5813 82.85C30.5612 82.872 30.5352 82.8879 30.5064 82.8956C30.4776 82.9034 30.4472 82.9027 30.4188 82.8937L28.4063 82.2687C28.3619 82.2518 28.326 82.2181 28.3063 82.175C28.2971 82.1543 28.2924 82.132 28.2924 82.1094C28.2924 82.0868 28.2971 82.0644 28.3063 82.0437C28.6041 81.5046 29.0164 81.0372 29.5141 80.6744C30.0119 80.3116 30.5831 80.0622 31.1875 79.9437C31.2078 79.9333 31.2303 79.9279 31.2531 79.9279C31.276 79.9279 31.2984 79.9333 31.3188 79.9437C31.3362 79.9583 31.3503 79.9764 31.36 79.9969C31.3697 80.0174 31.3748 80.0398 31.375 80.0625V82.2ZM31.4063 85.95C31.4261 85.9253 31.4523 85.9064 31.482 85.8954C31.5117 85.8844 31.5439 85.8817 31.575 85.8875C31.8534 85.9626 32.1466 85.9626 32.425 85.8875C32.4562 85.8817 32.4883 85.8844 32.518 85.8954C32.5477 85.9064 32.5739 85.9253 32.5938 85.95L33.8438 87.6625C33.8529 87.6832 33.8576 87.7055 33.8576 87.7281C33.8576 87.7507 33.8529 87.7731 33.8438 87.7937C33.8374 87.8158 33.8263 87.8362 33.8112 87.8535C33.796 87.8708 33.7773 87.8845 33.7563 87.8937C33.2004 88.1529 32.5946 88.2873 31.9813 88.2873C31.368 88.2873 30.7621 88.1529 30.2063 87.8937C30.187 87.8845 30.1699 87.8714 30.1559 87.8553C30.142 87.8392 30.1314 87.8203 30.125 87.8C30.1159 87.7793 30.1112 87.757 30.1112 87.7344C30.1112 87.7118 30.1159 87.6894 30.125 87.6687L31.4063 85.95ZM33.5688 82.9062C33.5431 82.9129 33.5161 82.9124 33.4907 82.9047C33.4653 82.8969 33.4426 82.8823 33.425 82.8625C33.2321 82.6354 32.9878 82.4576 32.7125 82.3437C32.6862 82.3355 32.6633 82.3188 32.6475 82.2961C32.6316 82.2735 32.6237 82.2463 32.625 82.2187V80.0937C32.6252 80.0711 32.6303 80.0487 32.64 80.0282C32.6498 80.0077 32.6638 79.9895 32.6813 79.975C32.7016 79.9646 32.7241 79.9591 32.7469 79.9591C32.7697 79.9591 32.7922 79.9646 32.8125 79.975C33.4136 80.0938 33.9816 80.342 34.477 80.7025C34.9724 81.063 35.3833 81.5271 35.6813 82.0625C35.6922 82.0826 35.6979 82.1052 35.6979 82.1281C35.6979 82.151 35.6922 82.1736 35.6813 82.1937C35.6735 82.2153 35.661 82.2349 35.6448 82.2511C35.6286 82.2673 35.609 82.2797 35.5875 82.2875L33.5688 82.9062Z" fill="#111111"/>
</g>
<g id="Size=20px, Filled=true" clip-path="url(#clip3_7887_205)">
<path id="Vector_10" d="M62 74.625C60.1458 74.625 58.3332 75.1748 56.7915 76.205C55.2498 77.2351 54.0482 78.6993 53.3386 80.4123C52.6291 82.1254 52.4434 84.0104 52.8051 85.829C53.1669 87.6475 54.0598 89.318 55.3709 90.6291C56.682 91.9402 58.3525 92.8331 60.171 93.1949C61.9896 93.5566 63.8746 93.3709 65.5877 92.6614C67.3007 91.9518 68.7649 90.7502 69.795 89.2085C70.8252 87.6668 71.375 85.8542 71.375 84C71.375 81.5136 70.3873 79.129 68.6291 77.3709C66.871 75.6127 64.4864 74.625 62 74.625ZM67.2734 84.0937C67.2742 85.4275 66.7689 86.7119 65.8594 87.6875C65.8388 87.7077 65.8143 87.7236 65.7875 87.7344C65.7607 87.7451 65.732 87.7504 65.7031 87.75C65.6448 87.7404 65.592 87.7099 65.5547 87.6641L63.9922 85.5312C63.9713 85.4986 63.9602 85.4606 63.9602 85.4219C63.9602 85.3831 63.9713 85.3452 63.9922 85.3125C64.1903 85.0048 64.311 84.6536 64.3438 84.2891C64.348 84.2499 64.3635 84.2127 64.3885 84.1822C64.4135 84.1517 64.4468 84.1291 64.4844 84.1172L66.9922 83.3359C67.0174 83.3223 67.0456 83.3151 67.0742 83.3151C67.1029 83.3151 67.1311 83.3223 67.1563 83.3359C67.1808 83.3508 67.2013 83.3714 67.2163 83.3958C67.2312 83.4203 67.2401 83.448 67.2422 83.4766C67.2674 83.6813 67.2778 83.8875 67.2734 84.0937ZM56.7266 84.0937C56.7149 83.883 56.7149 83.6717 56.7266 83.4609C56.7321 83.4325 56.7432 83.4053 56.7593 83.3812C56.7754 83.3571 56.7961 83.3364 56.8203 83.3203C56.8455 83.3066 56.8737 83.2995 56.9023 83.2995C56.931 83.2995 56.9592 83.3066 56.9844 83.3203L59.4922 84.1016C59.5298 84.1135 59.5631 84.1361 59.5881 84.1666C59.613 84.1971 59.6286 84.2342 59.6328 84.2734C59.6547 84.6367 59.7676 84.9886 59.9609 85.2969C59.9818 85.3295 59.9929 85.3675 59.9929 85.4062C59.9929 85.445 59.9818 85.483 59.9609 85.5156L58.3984 87.6484C58.382 87.6715 58.361 87.6909 58.3369 87.7057C58.3127 87.7205 58.2858 87.7302 58.2578 87.7344C58.2289 87.7348 58.2003 87.7295 58.1734 87.7188C58.1466 87.708 58.1222 87.6921 58.1016 87.6719C57.21 86.6943 56.7191 85.4168 56.7266 84.0937ZM61.2188 81.75C61.2189 81.7881 61.2079 81.8254 61.187 81.8574C61.1662 81.8893 61.1365 81.9144 61.1016 81.9297C60.7646 82.0696 60.465 82.2863 60.2266 82.5625C60.2015 82.59 60.169 82.6098 60.133 82.6195C60.097 82.6292 60.059 82.6284 60.0234 82.6172L57.5078 81.8359C57.4524 81.8147 57.4075 81.7727 57.3828 81.7187C57.3714 81.6929 57.3655 81.665 57.3655 81.6367C57.3655 81.6085 57.3714 81.5805 57.3828 81.5547C57.7551 80.8808 58.2705 80.2965 58.8927 79.843C59.5149 79.3895 60.2288 79.0778 60.9844 78.9297C61.0098 78.9167 61.0379 78.9099 61.0664 78.9099C61.0949 78.9099 61.1231 78.9167 61.1484 78.9297C61.1702 78.9478 61.1878 78.9705 61.2 78.9962C61.2121 79.0218 61.2185 79.0498 61.2188 79.0781V81.75ZM61.2578 86.4375C61.2826 86.4066 61.3153 86.383 61.3525 86.3692C61.3896 86.3555 61.4298 86.3521 61.4688 86.3594C61.8167 86.4533 62.1833 86.4533 62.5313 86.3594C62.5702 86.3521 62.6104 86.3555 62.6475 86.3692C62.6847 86.383 62.7174 86.4066 62.7422 86.4375L64.3047 88.5781C64.3161 88.604 64.322 88.6319 64.322 88.6602C64.322 88.6884 64.3161 88.7163 64.3047 88.7422C64.2968 88.7698 64.2829 88.7953 64.264 88.8169C64.245 88.8385 64.2216 88.8557 64.1953 88.8672C63.5005 89.1912 62.7432 89.3591 61.9766 89.3591C61.2099 89.3591 60.4526 89.1912 59.7578 88.8672C59.7338 88.8556 59.7124 88.8393 59.6949 88.8191C59.6774 88.7989 59.6643 88.7754 59.6563 88.75C59.6448 88.7242 59.639 88.6962 59.639 88.668C59.639 88.6397 59.6448 88.6118 59.6563 88.5859L61.2578 86.4375ZM63.9609 82.6328C63.9289 82.6412 63.8951 82.6405 63.8634 82.6308C63.8317 82.6212 63.8032 82.6029 63.7813 82.5781C63.5401 82.2943 63.2348 82.072 62.8906 81.9297C62.8577 81.9194 62.8291 81.8985 62.8093 81.8702C62.7895 81.8419 62.7797 81.8079 62.7813 81.7734V79.1172C62.7815 79.0888 62.7879 79.0609 62.8 79.0352C62.8122 79.0096 62.8298 78.9869 62.8516 78.9687C62.8769 78.9557 62.9051 78.9489 62.9336 78.9489C62.9621 78.9489 62.9902 78.9557 63.0156 78.9687C63.767 79.1172 64.477 79.4275 65.0962 79.8782C65.7155 80.3288 66.2292 80.9089 66.6016 81.5781C66.6152 81.6033 66.6224 81.6315 66.6224 81.6602C66.6224 81.6888 66.6152 81.717 66.6016 81.7422C66.5918 81.7691 66.5763 81.7936 66.556 81.8138C66.5358 81.8341 66.5113 81.8496 66.4844 81.8594L63.9609 82.6328Z" fill="#111111"/>
</g>
<g id="Size=24px, Filled=true" clip-path="url(#clip4_7887_205)">
<path id="Vector_11" d="M96 72.75C93.775 72.75 91.5999 73.4098 89.7498 74.646C87.8998 75.8821 86.4578 77.6391 85.6064 79.6948C84.7549 81.7505 84.5321 84.0125 84.9662 86.1948C85.4003 88.377 86.4717 90.3816 88.0451 91.9549C89.6184 93.5283 91.623 94.5997 93.8052 95.0338C95.9875 95.4679 98.2495 95.2451 100.305 94.3936C102.361 93.5422 104.118 92.1002 105.354 90.2502C106.59 88.4001 107.25 86.225 107.25 84C107.25 81.0163 106.065 78.1548 103.955 76.045C101.845 73.9353 98.9837 72.75 96 72.75ZM102.328 84.1125C102.329 85.713 101.723 87.2543 100.631 88.425C100.607 88.4493 100.577 88.4684 100.545 88.4812C100.513 88.4941 100.478 88.5005 100.444 88.5C100.374 88.4885 100.31 88.4518 100.266 88.3969L98.3906 85.8375C98.3656 85.7983 98.3523 85.7528 98.3523 85.7062C98.3523 85.6597 98.3656 85.6142 98.3906 85.575C98.6284 85.2057 98.7731 84.7843 98.8125 84.3469C98.8176 84.2998 98.8362 84.2553 98.8662 84.2186C98.8962 84.182 98.9361 84.1549 98.9813 84.1406L101.991 83.2031C102.021 83.1867 102.055 83.1781 102.089 83.1781C102.123 83.1781 102.157 83.1867 102.188 83.2031C102.217 83.221 102.242 83.2456 102.26 83.275C102.277 83.3043 102.288 83.3376 102.291 83.3719C102.321 83.6175 102.333 83.865 102.328 84.1125ZM89.6719 84.1125C89.6579 83.8596 89.6579 83.6061 89.6719 83.3531C89.6785 83.3189 89.6919 83.2864 89.7112 83.2574C89.7305 83.2285 89.7554 83.2036 89.7844 83.1844C89.8146 83.168 89.8484 83.1594 89.8828 83.1594C89.9172 83.1594 89.951 83.168 89.9813 83.1844L92.9906 84.1219C93.0357 84.1362 93.0757 84.1633 93.1057 84.1999C93.1357 84.2365 93.1543 84.2811 93.1594 84.3281C93.1857 84.764 93.3211 85.1863 93.5531 85.5562C93.5782 85.5954 93.5915 85.641 93.5915 85.6875C93.5915 85.734 93.5782 85.7796 93.5531 85.8187L91.6781 88.3781C91.6584 88.4058 91.6332 88.4291 91.6042 88.4468C91.5753 88.4646 91.543 88.4763 91.5094 88.4812C91.4747 88.4817 91.4403 88.4754 91.4081 88.4625C91.3759 88.4496 91.3466 88.4305 91.3219 88.4062C90.252 87.2331 89.6629 85.7002 89.6719 84.1125ZM95.0625 81.3C95.0627 81.3457 95.0494 81.3905 95.0244 81.4288C94.9995 81.4672 94.9638 81.4973 94.9219 81.5156C94.5175 81.6836 94.158 81.9436 93.8719 82.275C93.8417 82.3081 93.8028 82.3318 93.7596 82.3434C93.7164 82.3551 93.6708 82.3541 93.6281 82.3406L90.6094 81.4031C90.5429 81.3777 90.489 81.3272 90.4594 81.2625C90.4457 81.2315 90.4386 81.198 90.4386 81.1641C90.4386 81.1302 90.4457 81.0966 90.4594 81.0656C90.9061 80.2569 91.5246 79.5558 92.2712 79.0116C93.0178 78.4674 93.8746 78.0933 94.7813 77.9156C94.8117 77.9 94.8455 77.8918 94.8797 77.8918C94.9139 77.8918 94.9477 77.9 94.9781 77.9156C95.0043 77.9374 95.0254 77.9646 95.04 77.9954C95.0545 78.0261 95.0622 78.0597 95.0625 78.0937V81.3ZM95.1094 86.925C95.1391 86.8879 95.1784 86.8596 95.223 86.8431C95.2675 86.8266 95.3158 86.8225 95.3625 86.8312C95.78 86.9439 96.22 86.9439 96.6375 86.8312C96.6842 86.8225 96.7325 86.8266 96.777 86.8431C96.8216 86.8596 96.8609 86.8879 96.8906 86.925L98.7656 89.4937C98.7793 89.5248 98.7864 89.5583 98.7864 89.5922C98.7864 89.6261 98.7793 89.6596 98.7656 89.6906C98.7561 89.7237 98.7394 89.7543 98.7167 89.7803C98.6941 89.8062 98.6659 89.8268 98.6344 89.8406C97.8006 90.2294 96.8918 90.4309 95.9719 90.4309C95.0519 90.4309 94.1431 90.2294 93.3094 89.8406C93.2805 89.8267 93.2548 89.8071 93.2339 89.7829C93.2129 89.7587 93.1971 89.7305 93.1875 89.7C93.1738 89.669 93.1667 89.6355 93.1667 89.6016C93.1667 89.5677 93.1738 89.5341 93.1875 89.5031L95.1094 86.925ZM98.3531 82.3594C98.3146 82.3694 98.2741 82.3686 98.2361 82.357C98.198 82.3454 98.1639 82.3235 98.1375 82.2937C97.8481 81.9531 97.4818 81.6864 97.0688 81.5156C97.0292 81.5032 96.9949 81.4781 96.9712 81.4442C96.9475 81.4103 96.9356 81.3695 96.9375 81.3281V78.1406C96.9378 78.1066 96.9455 78.073 96.9601 78.0423C96.9746 78.0115 96.9957 77.9843 97.0219 77.9625C97.0523 77.9469 97.0861 77.9387 97.1203 77.9387C97.1546 77.9387 97.1883 77.9469 97.2188 77.9625C98.1204 78.1406 98.9724 78.513 99.7155 79.0538C100.459 79.5945 101.075 80.2907 101.522 81.0937C101.538 81.124 101.547 81.1578 101.547 81.1922C101.547 81.2266 101.538 81.2604 101.522 81.2906C101.51 81.3229 101.492 81.3523 101.467 81.3766C101.443 81.4009 101.414 81.4196 101.381 81.4312L98.3531 82.3594Z" fill="#111111"/>
</g>
<g id="Size=32px, Filled=true">
<path id="Vector_12" d="M136 69C133.033 69 130.133 69.8797 127.666 71.528C125.2 73.1762 123.277 75.5189 122.142 78.2597C121.006 81.0006 120.709 84.0166 121.288 86.9263C121.867 89.8361 123.296 92.5088 125.393 94.6066C127.491 96.7044 130.164 98.133 133.074 98.7118C135.983 99.2906 138.999 98.9935 141.74 97.8582C144.481 96.7229 146.824 94.8003 148.472 92.3336C150.12 89.8668 151 86.9667 151 84C151 80.0218 149.42 76.2064 146.607 73.3934C143.794 70.5804 139.978 69 136 69ZM144.438 84.15C144.439 86.284 143.63 88.339 142.175 89.9C142.142 89.9323 142.103 89.9578 142.06 89.975C142.017 89.9922 141.971 90.0007 141.925 90C141.832 89.9847 141.747 89.9358 141.688 89.8625L139.188 86.45C139.154 86.3977 139.136 86.337 139.136 86.275C139.136 86.213 139.154 86.1523 139.188 86.1C139.505 85.6076 139.698 85.0458 139.75 84.4625C139.757 84.3998 139.782 84.3404 139.822 84.2915C139.862 84.2427 139.915 84.2065 139.975 84.1875L143.988 82.9375C144.028 82.9156 144.073 82.9042 144.119 82.9042C144.165 82.9042 144.21 82.9156 144.25 82.9375C144.289 82.9613 144.322 82.9942 144.346 83.0333C144.37 83.0724 144.384 83.1167 144.388 83.1625C144.428 83.49 144.444 83.8201 144.438 84.15ZM127.563 84.15C127.544 83.8128 127.544 83.4747 127.563 83.1375C127.571 83.0919 127.589 83.0486 127.615 83.0099C127.641 82.9713 127.674 82.9382 127.713 82.9125C127.753 82.8906 127.798 82.8792 127.844 82.8792C127.89 82.8792 127.935 82.8906 127.975 82.9125L131.988 84.1625C132.048 84.1815 132.101 84.2177 132.141 84.2665C132.181 84.3154 132.206 84.3748 132.213 84.4375C132.248 85.0187 132.428 85.5818 132.738 86.075C132.771 86.1273 132.789 86.188 132.789 86.25C132.789 86.312 132.771 86.3727 132.738 86.425L130.238 89.8375C130.211 89.8743 130.178 89.9055 130.139 89.9291C130.1 89.9528 130.057 89.9684 130.013 89.975C129.966 89.9757 129.92 89.9672 129.878 89.95C129.835 89.9328 129.796 89.9073 129.763 89.875C128.336 88.3108 127.551 86.267 127.563 84.15ZM134.75 80.4C134.75 80.461 134.733 80.5207 134.699 80.5718C134.666 80.6229 134.618 80.6631 134.563 80.6875C134.023 80.9114 133.544 81.2581 133.163 81.7C133.122 81.7441 133.07 81.7757 133.013 81.7912C132.955 81.8067 132.894 81.8054 132.838 81.7875L128.813 80.5375C128.724 80.5036 128.652 80.4363 128.613 80.35C128.594 80.3086 128.585 80.2639 128.585 80.2187C128.585 80.1735 128.594 80.1288 128.613 80.0875C129.208 79.0092 130.033 78.0744 131.028 77.3488C132.024 76.6233 133.166 76.1245 134.375 75.8875C134.416 75.8667 134.461 75.8558 134.506 75.8558C134.552 75.8558 134.597 75.8667 134.638 75.8875C134.672 75.9165 134.701 75.9528 134.72 75.9938C134.739 76.0349 134.75 76.0796 134.75 76.125V80.4ZM134.813 87.9C134.852 87.8506 134.905 87.8128 134.964 87.7908C135.023 87.7688 135.088 87.7633 135.15 87.775C135.707 87.9252 136.293 87.9252 136.85 87.775C136.912 87.7633 136.977 87.7688 137.036 87.7908C137.095 87.8128 137.148 87.8506 137.188 87.9L139.688 91.325C139.706 91.3663 139.715 91.411 139.715 91.4562C139.715 91.5014 139.706 91.5461 139.688 91.5875C139.675 91.6316 139.653 91.6725 139.622 91.707C139.592 91.7416 139.555 91.7691 139.513 91.7875C138.401 92.3059 137.189 92.5745 135.963 92.5745C134.736 92.5745 133.524 92.3059 132.413 91.7875C132.374 91.769 132.34 91.7428 132.312 91.7106C132.284 91.6783 132.263 91.6407 132.25 91.6C132.232 91.5586 132.222 91.5139 132.222 91.4687C132.222 91.4235 132.232 91.3788 132.25 91.3375L134.813 87.9ZM139.138 81.8125C139.086 81.8259 139.032 81.8247 138.981 81.8093C138.931 81.7939 138.885 81.7647 138.85 81.725C138.464 81.2709 137.976 80.9152 137.425 80.6875C137.372 80.671 137.327 80.6375 137.295 80.5923C137.263 80.5471 137.247 80.4926 137.25 80.4375V76.1875C137.25 76.1421 137.261 76.0974 137.28 76.0563C137.3 76.0153 137.328 75.979 137.363 75.95C137.403 75.9292 137.448 75.9183 137.494 75.9183C137.539 75.9183 137.584 75.9292 137.625 75.95C138.827 76.1875 139.963 76.684 140.954 77.405C141.945 78.126 142.767 79.0542 143.363 80.125C143.384 80.1653 143.396 80.2104 143.396 80.2562C143.396 80.3021 143.384 80.3472 143.363 80.3875C143.347 80.4306 143.322 80.4697 143.29 80.5021C143.257 80.5345 143.218 80.5594 143.175 80.575L139.138 81.8125Z" fill="#111111"/>
</g>
<g id="Size=40px, Filled=true">
<path id="Vector_13" d="M184 65.25C180.292 65.25 176.666 66.3497 173.583 68.4099C170.5 70.4702 168.096 73.3986 166.677 76.8247C165.258 80.2508 164.887 84.0208 165.61 87.6579C166.334 91.2951 168.12 94.636 170.742 97.2582C173.364 99.8805 176.705 101.666 180.342 102.39C183.979 103.113 187.749 102.742 191.175 101.323C194.601 99.9036 197.53 97.5004 199.59 94.4169C201.65 91.3335 202.75 87.7084 202.75 84C202.75 79.0272 200.775 74.2581 197.258 70.7417C193.742 67.2254 188.973 65.25 184 65.25ZM194.547 84.1875C194.548 86.855 193.538 89.4238 191.719 91.375C191.678 91.4154 191.629 91.4473 191.575 91.4688C191.521 91.4902 191.464 91.5008 191.406 91.5C191.29 91.4808 191.184 91.4197 191.109 91.3281L187.984 87.0625C187.943 86.9972 187.92 86.9213 187.92 86.8437C187.92 86.7662 187.943 86.6903 187.984 86.625C188.381 86.0095 188.622 85.3072 188.688 84.5781C188.696 84.4997 188.727 84.4255 188.777 84.3644C188.827 84.3034 188.894 84.2582 188.969 84.2344L193.984 82.6719C194.035 82.6445 194.091 82.6302 194.148 82.6302C194.206 82.6302 194.262 82.6445 194.313 82.6719C194.362 82.7016 194.403 82.7427 194.433 82.7916C194.462 82.8406 194.48 82.8959 194.484 82.9531C194.535 83.3626 194.556 83.7751 194.547 84.1875ZM173.453 84.1875C173.43 83.7659 173.43 83.3434 173.453 82.9219C173.464 82.8649 173.486 82.8107 173.519 82.7624C173.551 82.7141 173.592 82.6727 173.641 82.6406C173.691 82.6133 173.747 82.5989 173.805 82.5989C173.862 82.5989 173.918 82.6133 173.969 82.6406L178.984 84.2031C179.06 84.2269 179.126 84.2721 179.176 84.3332C179.226 84.3942 179.257 84.4685 179.266 84.5469C179.309 85.2734 179.535 85.9772 179.922 86.5937C179.964 86.6591 179.986 86.735 179.986 86.8125C179.986 86.89 179.964 86.9659 179.922 87.0312L176.797 91.2969C176.764 91.3429 176.722 91.3819 176.674 91.4114C176.625 91.4409 176.572 91.4604 176.516 91.4687C176.458 91.4696 176.401 91.459 176.347 91.4375C176.293 91.416 176.244 91.3842 176.203 91.3437C174.42 89.3886 173.438 86.8337 173.453 84.1875ZM182.438 79.5C182.438 79.5762 182.416 79.6509 182.374 79.7147C182.332 79.7786 182.273 79.8289 182.203 79.8594C181.529 80.1393 180.93 80.5727 180.453 81.125C180.403 81.1801 180.338 81.2197 180.266 81.239C180.194 81.2584 180.118 81.2568 180.047 81.2344L175.016 79.6719C174.905 79.6295 174.815 79.5453 174.766 79.4375C174.743 79.3858 174.731 79.3299 174.731 79.2734C174.731 79.2169 174.743 79.1611 174.766 79.1094C175.51 77.7615 176.541 76.593 177.785 75.6861C179.03 74.7791 180.458 74.1556 181.969 73.8594C182.02 73.8333 182.076 73.8197 182.133 73.8197C182.19 73.8197 182.246 73.8333 182.297 73.8594C182.34 73.8957 182.376 73.941 182.4 73.9923C182.424 74.0436 182.437 74.0995 182.438 74.1562V79.5ZM182.516 88.875C182.565 88.8132 182.631 88.766 182.705 88.7385C182.779 88.711 182.86 88.7041 182.938 88.7187C183.633 88.9065 184.367 88.9065 185.063 88.7187C185.14 88.7041 185.221 88.711 185.295 88.7385C185.369 88.766 185.435 88.8132 185.484 88.875L188.609 93.1562C188.632 93.2079 188.644 93.2638 188.644 93.3203C188.644 93.3768 188.632 93.4327 188.609 93.4844C188.594 93.5396 188.566 93.5906 188.528 93.6338C188.49 93.677 188.443 93.7113 188.391 93.7344C187.001 94.3824 185.486 94.7181 183.953 94.7181C182.42 94.7181 180.905 94.3824 179.516 93.7344C179.468 93.7112 179.425 93.6785 179.39 93.6382C179.355 93.5979 179.329 93.5509 179.313 93.5C179.29 93.4483 179.278 93.3924 179.278 93.3359C179.278 93.2794 179.29 93.2236 179.313 93.1719L182.516 88.875ZM187.922 81.2656C187.858 81.2823 187.79 81.2809 187.727 81.2616C187.663 81.2423 187.606 81.2059 187.563 81.1562C187.08 80.5886 186.47 80.144 185.781 79.8594C185.715 79.8387 185.658 79.7969 185.619 79.7404C185.579 79.6838 185.559 79.6158 185.563 79.5469V74.2344C185.563 74.1776 185.576 74.1217 185.6 74.0704C185.624 74.0192 185.66 73.9738 185.703 73.9375C185.754 73.9115 185.81 73.8979 185.867 73.8979C185.924 73.8979 185.98 73.9115 186.031 73.9375C187.534 74.2344 188.954 74.8551 190.192 75.7563C191.431 76.6576 192.458 77.8178 193.203 79.1562C193.23 79.2066 193.245 79.263 193.245 79.3203C193.245 79.3776 193.23 79.434 193.203 79.4844C193.184 79.5382 193.153 79.5871 193.112 79.6277C193.072 79.6682 193.023 79.6993 192.969 79.7187L187.922 81.2656Z" fill="#111111"/>
</g>
<g id="Size=48px, Filled=true">
<path id="Vector_14" d="M240 61.5C235.55 61.5 231.2 62.8196 227.5 65.2919C223.8 67.7643 220.916 71.2783 219.213 75.3896C217.51 79.501 217.064 84.025 217.932 88.3895C218.801 92.7541 220.943 96.7632 224.09 99.9099C227.237 103.057 231.246 105.199 235.61 106.068C239.975 106.936 244.499 106.49 248.61 104.787C252.722 103.084 256.236 100.2 258.708 96.5003C261.18 92.8002 262.5 88.4501 262.5 84C262.5 78.0326 260.129 72.3097 255.91 68.0901C251.69 63.8705 245.967 61.5 240 61.5ZM252.656 84.225C252.658 87.4261 251.445 90.5086 249.263 92.85C249.213 92.8985 249.154 92.9368 249.09 92.9625C249.026 92.9882 248.957 93.001 248.888 93C248.748 92.977 248.621 92.9037 248.531 92.7937L244.781 87.675C244.731 87.5966 244.705 87.5055 244.705 87.4125C244.705 87.3195 244.731 87.2284 244.781 87.15C245.257 86.4114 245.546 85.5686 245.625 84.6937C245.635 84.5996 245.672 84.5105 245.732 84.4373C245.792 84.364 245.872 84.3098 245.963 84.2812L251.981 82.4062C252.042 82.3734 252.109 82.3562 252.178 82.3562C252.247 82.3562 252.315 82.3734 252.375 82.4062C252.434 82.442 252.483 82.4912 252.519 82.55C252.555 82.6087 252.576 82.6751 252.581 82.7437C252.642 83.2351 252.667 83.7301 252.656 84.225ZM227.344 84.225C227.316 83.7191 227.316 83.2121 227.344 82.7062C227.357 82.6379 227.384 82.5728 227.422 82.5149C227.461 82.4569 227.511 82.4073 227.569 82.3687C227.629 82.3359 227.697 82.3187 227.766 82.3187C227.834 82.3187 227.902 82.3359 227.963 82.3687L233.981 84.2437C234.071 84.2723 234.151 84.3265 234.211 84.3998C234.271 84.473 234.309 84.5621 234.319 84.6562C234.371 85.528 234.642 86.3727 235.106 87.1125C235.156 87.1909 235.183 87.282 235.183 87.375C235.183 87.468 235.156 87.5591 235.106 87.6375L231.356 92.7562C231.317 92.8115 231.266 92.8583 231.208 92.8937C231.151 92.9291 231.086 92.9525 231.019 92.9625C230.949 92.9635 230.881 92.9507 230.816 92.925C230.752 92.8993 230.693 92.861 230.644 92.8125C228.504 90.4663 227.326 87.4004 227.344 84.225ZM238.125 78.6C238.125 78.6915 238.099 78.7811 238.049 78.8577C237.999 78.9343 237.928 78.9947 237.844 79.0312C237.035 79.3671 236.316 79.8872 235.744 80.55C235.683 80.6161 235.606 80.6636 235.519 80.6869C235.433 80.7101 235.342 80.7082 235.256 80.6812L229.219 78.8062C229.086 78.7554 228.978 78.6544 228.919 78.525C228.891 78.463 228.877 78.3959 228.877 78.3281C228.877 78.2603 228.891 78.1933 228.919 78.1312C229.812 76.5138 231.049 75.1116 232.542 74.0233C234.036 72.9349 235.749 72.1867 237.563 71.8312C237.623 71.8 237.691 71.7837 237.759 71.7837C237.828 71.7837 237.895 71.8 237.956 71.8312C238.009 71.8748 238.051 71.9293 238.08 71.9908C238.109 72.0523 238.124 72.1194 238.125 72.1875V78.6ZM238.219 89.85C238.278 89.7758 238.357 89.7192 238.446 89.6862C238.535 89.6532 238.632 89.645 238.725 89.6625C239.56 89.8878 240.44 89.8878 241.275 89.6625C241.368 89.645 241.465 89.6532 241.554 89.6862C241.643 89.7192 241.722 89.7758 241.781 89.85L245.531 94.9875C245.559 95.0495 245.573 95.1166 245.573 95.1844C245.573 95.2522 245.559 95.3192 245.531 95.3812C245.512 95.4475 245.479 95.5087 245.433 95.5605C245.388 95.6124 245.332 95.6536 245.269 95.6812C243.601 96.4588 241.784 96.8618 239.944 96.8618C238.104 96.8618 236.286 96.4588 234.619 95.6812C234.561 95.6535 234.51 95.6142 234.468 95.5658C234.426 95.5175 234.394 95.461 234.375 95.4C234.348 95.338 234.333 95.2709 234.333 95.2031C234.333 95.1353 234.348 95.0683 234.375 95.0062L238.219 89.85ZM244.706 80.7187C244.629 80.7388 244.548 80.7371 244.472 80.714C244.396 80.6908 244.328 80.647 244.275 80.5875C243.696 79.9063 242.964 79.3728 242.138 79.0312C242.058 79.0065 241.99 78.9563 241.942 78.8884C241.895 78.8206 241.871 78.739 241.875 78.6562V72.2812C241.876 72.2132 241.891 72.146 241.92 72.0845C241.949 72.023 241.991 71.9686 242.044 71.925C242.105 71.8937 242.172 71.8774 242.241 71.8774C242.309 71.8774 242.377 71.8937 242.438 71.925C244.241 72.2813 245.945 73.0261 247.431 74.1076C248.917 75.1891 250.15 76.5813 251.044 78.1875C251.077 78.2479 251.094 78.3156 251.094 78.3844C251.094 78.4531 251.077 78.5208 251.044 78.5812C251.02 78.6459 250.983 78.7046 250.934 78.7532C250.886 78.8018 250.827 78.8391 250.763 78.8625L244.706 80.7187Z" fill="#111111"/>
</g>
</g>
</g>
<defs>
<clipPath id="clip0_7887_205">
<rect width="264" height="108" rx="5" fill="white"/>
</clipPath>
<clipPath id="clip1_7887_205">
<rect width="12" height="12" fill="white" transform="translate(0 78)"/>
</clipPath>
<clipPath id="clip2_7887_205">
<rect width="16" height="16" fill="white" transform="translate(24 76)"/>
</clipPath>
<clipPath id="clip3_7887_205">
<rect width="20" height="20" fill="white" transform="translate(52 74)"/>
</clipPath>
<clipPath id="clip4_7887_205">
<rect width="24" height="24" fill="white" transform="translate(84 72)"/>
</clipPath>
</defs>
</svg>
