<svg width="264" height="108" viewBox="0 0 264 108" fill="none" xmlns="http://www.w3.org/2000/svg">
<g id="Toll" clip-path="url(#clip0_1126_885)">
<g id="Size=12px, Filled=false">
<path id="Vector" d="M8.45 22.95H10.7833C11.0411 22.95 11.25 23.1589 11.25 23.4167V28.7833C11.25 29.0411 11.0411 29.25 10.7833 29.25H8.91667C8.65893 29.25 8.45 29.0411 8.45 28.7833V22.95ZM8.45 22.95L2.15 18.75M8.45 28.55L11.25 25.75M8.45 26.45L11.25 23.65M6.35 24.35L5.48316 22.8222C5.31969 22.4778 4.90311 22.2497 4.4379 22.25H0.75M6.35 27.85V28.5937C6.35 28.9562 6.0366 29.25 5.65 29.25C5.2634 29.25 4.95 28.9562 4.95 28.5937V27.85M6.35 27.85C6.7366 27.85 7.05 27.5018 7.05 27.0722V25.9056C7.05 25.0464 6.4232 24.35 5.65 24.35H0.75M6.35 27.85H0.75M5.3 26.45C5.4933 26.45 5.65 26.2933 5.65 26.1C5.65 25.9067 5.4933 25.75 5.3 25.75C5.1067 25.75 4.95 25.9067 4.95 26.1C4.95 26.2933 5.1067 26.45 5.3 26.45Z" stroke="#111111" stroke-width="0.75" stroke-linecap="round" stroke-linejoin="round"/>
</g>
<g id="Size=16px, Filled=false">
<path id="Vector_2" d="M35.2667 22.6H38.3778C38.7214 22.6 39 22.8786 39 23.2222V30.3778C39 30.7214 38.7214 31 38.3778 31H35.8889C35.5452 31 35.2667 30.7214 35.2667 30.3778V22.6ZM35.2667 22.6L26.8667 17M35.2667 30.0667L39 26.3333M35.2667 27.2667L39 23.5333M32.4667 24.4667L31.3109 22.4296C31.0929 21.9704 30.5375 21.6663 29.9172 21.6667H25M32.4667 29.1333V30.125C32.4667 30.6082 32.0488 31 31.5333 31C31.0179 31 30.6 30.6082 30.6 30.125V29.1333M32.4667 29.1333C32.9821 29.1333 33.4 28.669 33.4 28.0963V26.5407C33.4 25.3953 32.5643 24.4667 31.5333 24.4667H25M32.4667 29.1333H25M31.0667 27.2667C31.3244 27.2667 31.5333 27.0577 31.5333 26.8C31.5333 26.5423 31.3244 26.3333 31.0667 26.3333C30.8089 26.3333 30.6 26.5423 30.6 26.8C30.6 27.0577 30.8089 27.2667 31.0667 27.2667Z" stroke="#111111" stroke-linecap="round" stroke-linejoin="round"/>
</g>
<g id="Size=20px, Filled=false">
<path id="Vector_3" d="M66.0833 22.25H69.9722C70.4018 22.25 70.75 22.5982 70.75 23.0278V31.9722C70.75 32.4018 70.4018 32.75 69.9722 32.75H66.8611C66.4316 32.75 66.0833 32.4018 66.0833 31.9722V22.25ZM66.0833 22.25L55.5833 15.25M66.0833 31.5833L70.75 26.9167M66.0833 28.0833L70.75 23.4167M62.5833 24.5833L61.1386 22.037C60.8661 21.463 60.1719 21.0829 59.3965 21.0833H53.25M62.5833 30.4167V31.6562C62.5833 32.2603 62.061 32.75 61.4167 32.75C60.7723 32.75 60.25 32.2603 60.25 31.6562V30.4167M62.5833 30.4167C63.2277 30.4167 63.75 29.8363 63.75 29.1204V27.1759C63.75 25.7441 62.7053 24.5833 61.4167 24.5833H53.25M62.5833 30.4167H53.25M60.8333 28.0833C61.1555 28.0833 61.4167 27.8222 61.4167 27.5C61.4167 27.1778 61.1555 26.9167 60.8333 26.9167C60.5112 26.9167 60.25 27.1778 60.25 27.5C60.25 27.8222 60.5112 28.0833 60.8333 28.0833Z" stroke="#111111" stroke-width="1.25" stroke-linecap="round" stroke-linejoin="round"/>
</g>
<g id="Size=24px, Filled=false">
<path id="Vector_4" d="M101 33.087L107 27.3478M101 28.3043L107 22.5652M102 21.6087L89 13M96.5 25.5L94.2973 20.9989C93.9762 20.2145 93.1579 19.6951 92.2441 19.6957H85M98 32.1304V33.6549C98 34.3978 97.3284 35 96.5 35C95.6716 35 95 34.3978 95 33.6549V32.3098M85 25.4348H95.8889C97.6071 25.4348 99 26.7671 99 28.4106V30.6425C99 31.4643 98.3036 32.1304 97.4444 32.1304H85M101 21.6087H106C106.552 21.6087 107 22.0528 107 22.6006V34.0081C107 34.5559 106.552 35 106 35H102C101.448 35 101 34.5559 101 34.0081V21.6087ZM94.5 30.2174C95.3284 30.2174 96 29.575 96 28.7826C96 27.9902 95.3284 27.3478 94.5 27.3478C93.6716 27.3478 93 27.9902 93 28.7826C93 29.575 93.6716 30.2174 94.5 30.2174Z" stroke="#111111" stroke-width="1.5" stroke-linecap="round" stroke-linejoin="round"/>
</g>
<g id="Size=32px, Filled=false">
<path id="Vector_5" d="M142.667 36.1159L150.667 28.4638M142.667 29.7391L150.667 22.087M144 20.8116L126.667 9.33333M136.667 26L133.73 19.9985C133.301 18.9526 132.21 18.2601 130.992 18.2609H121.333M138.667 34.8406V36.8732C138.667 37.8637 137.771 38.6667 136.667 38.6667C135.562 38.6667 134.667 37.8637 134.667 36.8732V35.0797M121.333 25.913H135.852C138.143 25.913 140 27.6895 140 29.8808V32.8567C140 33.9524 139.071 34.8406 137.926 34.8406H121.333M142.667 20.8116H149.333C150.07 20.8116 150.667 21.4037 150.667 22.1342V37.3441C150.667 38.0745 150.07 38.6667 149.333 38.6667H144C143.264 38.6667 142.667 38.0745 142.667 37.3441V20.8116ZM134 32.2899C135.104 32.2899 136 31.4334 136 30.3768C136 29.3203 135.104 28.4638 134 28.4638C132.895 28.4638 132 29.3203 132 30.3768C132 31.4334 132.895 32.2899 134 32.2899Z" stroke="#111111" stroke-width="2" stroke-linecap="round" stroke-linejoin="round"/>
</g>
<g id="Size=40px, Filled=false">
<path id="Vector_6" d="M192.333 39.1449L202.333 29.5797M192.333 31.1739L202.333 21.6087M194 20.0145L172.333 5.66667M184.833 26.5L181.162 18.9981C180.627 17.6908 179.263 16.8251 177.74 16.8261H165.667M187.333 37.5507V40.0915C187.333 41.3296 186.214 42.3333 184.833 42.3333C183.453 42.3333 182.333 41.3296 182.333 40.0915V37.8496M165.667 26.3913H183.815C186.679 26.3913 189 28.6119 189 31.3511V35.0709C189 36.4405 187.839 37.5507 186.407 37.5507H165.667M192.333 20.0145H200.667C201.587 20.0145 202.333 20.7547 202.333 21.6677V40.6801C202.333 41.5932 201.587 42.3333 200.667 42.3333H194C193.08 42.3333 192.333 41.5932 192.333 40.6801V20.0145ZM181.5 34.3623C182.881 34.3623 184 33.2917 184 31.971C184 30.6503 182.881 29.5797 181.5 29.5797C180.119 29.5797 179 30.6503 179 31.971C179 33.2917 180.119 34.3623 181.5 34.3623Z" stroke="#111111" stroke-width="2.5" stroke-linecap="round" stroke-linejoin="round"/>
</g>
<g id="Size=48px, Filled=false">
<path id="Vector_7" d="M250 42.1739L262 30.6957M250 32.6087L262 21.1304M252 19.2174L226 2M241 27L236.595 17.9977C235.952 16.4289 234.316 15.3901 232.488 15.3913H218M244 40.2609V43.3098C244 44.7955 242.657 46 241 46C239.343 46 238 44.7955 238 43.3098V40.6196M218 26.8696H239.778C243.214 26.8696 246 29.5342 246 32.8213V37.285C246 38.9285 244.607 40.2609 242.889 40.2609H218M250 19.2174H260C261.105 19.2174 262 20.1056 262 21.2013V44.0161C262 45.1118 261.105 46 260 46H252C250.895 46 250 45.1118 250 44.0161V19.2174ZM237 36.4348C238.657 36.4348 240 35.15 240 33.5652C240 31.9804 238.657 30.6957 237 30.6957C235.343 30.6957 234 31.9804 234 33.5652C234 35.15 235.343 36.4348 237 36.4348Z" stroke="#111111" stroke-width="3" stroke-linecap="round" stroke-linejoin="round"/>
</g>
<g id="Size=12px, Filled=true">
<g id="Vector_8">
<path d="M7.8896 85.0345L8.31058 84.6986C8.40668 84.6207 8.46842 84.5082 8.48256 84.3853C8.49671 84.2624 8.46214 84.1389 8.38627 84.0411C8.30822 83.9437 8.1948 83.881 8.07075 83.8668C7.94669 83.8527 7.82206 83.8881 7.72404 83.9654L7.39293 84.2303C7.37495 84.2407 7.35456 84.2462 7.3338 84.2462C7.31304 84.2462 7.29265 84.2407 7.27467 84.2303C7.25549 84.221 7.23895 84.207 7.22656 84.1897C7.21417 84.1723 7.20631 84.1522 7.20372 84.131L7.15169 83.6107C7.1186 83.2577 6.95461 82.9299 6.69199 82.6918C6.42936 82.4537 6.08713 82.3225 5.73263 82.3241H3.02223C2.66922 82.3223 2.32822 82.4522 2.06582 82.6883C1.80342 82.9245 1.63847 83.25 1.60317 83.6012L1.55114 84.1263C1.54915 84.147 1.54147 84.1669 1.52895 84.1835C1.51644 84.2002 1.49956 84.2131 1.48019 84.2209C1.46221 84.2313 1.44182 84.2367 1.42106 84.2367C1.4003 84.2367 1.37991 84.2313 1.36193 84.2209L1.04028 83.9607C0.941786 83.9098 0.828543 83.8951 0.720324 83.9192C0.612106 83.9433 0.515788 84.0047 0.448191 84.0925C0.380593 84.1804 0.346011 84.2892 0.350483 84.4C0.354955 84.5108 0.398196 84.6165 0.472657 84.6986L0.888914 85.0297C0.90211 85.0407 0.912754 85.0545 0.920106 85.07C0.927458 85.0855 0.931341 85.1024 0.931486 85.1196C0.932454 85.137 0.929066 85.1543 0.92163 85.17C0.914194 85.1857 0.902947 85.1992 0.888914 85.2095C0.740915 85.3303 0.621677 85.4825 0.539858 85.6552C0.45804 85.8278 0.415693 86.0165 0.415895 86.2076V87.2624C0.416514 87.3705 0.438417 87.4774 0.480353 87.577C0.522288 87.6766 0.583435 87.767 0.660302 87.843C0.73717 87.919 0.828251 87.9791 0.928347 88.0199C1.02844 88.0607 1.13559 88.0813 1.24368 88.0807H1.59371C1.62508 88.0807 1.65515 88.0932 1.67733 88.1153C1.69951 88.1375 1.71197 88.1676 1.71197 88.199V88.7855C1.71197 88.9737 1.78672 89.1542 1.91978 89.2872C2.05285 89.4203 2.23332 89.495 2.4215 89.495C2.60967 89.495 2.79015 89.4203 2.92321 89.2872C3.05627 89.1542 3.13102 88.9737 3.13102 88.7855V88.199C3.13102 88.1676 3.14348 88.1375 3.16566 88.1153C3.18784 88.0932 3.21792 88.0807 3.24928 88.0807H5.61437C5.64574 88.0807 5.67582 88.0932 5.69799 88.1153C5.72017 88.1375 5.73263 88.1676 5.73263 88.199V88.7855C5.73263 88.9737 5.80738 89.1542 5.94045 89.2872C6.07351 89.4203 6.25398 89.495 6.44216 89.495C6.63034 89.495 6.81081 89.4203 6.94387 89.2872C7.07693 89.1542 7.15169 88.9737 7.15169 88.7855V88.199C7.15169 88.1676 7.16415 88.1375 7.18632 88.1153C7.2085 88.0932 7.23858 88.0807 7.26994 88.0807H7.60105C7.80386 88.0607 7.9919 87.9657 8.12838 87.8144C8.26486 87.663 8.33995 87.4662 8.33896 87.2624V86.2076C8.33947 86.0171 8.29723 85.829 8.21537 85.6571C8.1335 85.4852 8.01409 85.3338 7.86595 85.2142C7.85296 85.2031 7.84254 85.1893 7.83539 85.1738C7.82825 85.1583 7.82455 85.1414 7.82455 85.1243C7.82455 85.1073 7.82825 85.0904 7.83539 85.0749C7.84254 85.0594 7.85296 85.0456 7.86595 85.0345H7.8896ZM2.18972 87.2624C2.05032 87.2624 1.91405 87.2211 1.79815 87.1436C1.68225 87.0662 1.59191 86.9561 1.53857 86.8273C1.48522 86.6985 1.47127 86.5568 1.49846 86.4201C1.52566 86.2834 1.59278 86.1578 1.69135 86.0592C1.78992 85.9607 1.9155 85.8935 2.05222 85.8663C2.18893 85.8391 2.33065 85.8531 2.45943 85.9064C2.58822 85.9598 2.69829 86.0501 2.77573 86.166C2.85318 86.2819 2.89451 86.4182 2.89451 86.5576C2.89451 86.7445 2.82026 86.9238 2.68808 87.056C2.55591 87.1881 2.37664 87.2624 2.18972 87.2624ZM2.59651 84.8027C2.57934 84.8025 2.5624 84.7987 2.54688 84.7913C2.53136 84.784 2.51763 84.7733 2.50664 84.7601C2.49517 84.7484 2.48662 84.7342 2.48169 84.7186C2.47676 84.703 2.47558 84.6864 2.47826 84.6702L2.57759 83.7242C2.58936 83.6071 2.64434 83.4986 2.73181 83.4199C2.81927 83.3412 2.93294 83.2979 3.05061 83.2985H5.77993C5.89909 83.2981 6.01401 83.3427 6.10171 83.4234C6.1894 83.5041 6.24342 83.6149 6.25295 83.7337L6.34755 84.6797C6.35023 84.6959 6.34905 84.7124 6.34412 84.728C6.33919 84.7437 6.33064 84.7579 6.31917 84.7696C6.30914 84.7827 6.29626 84.7933 6.2815 84.8007C6.26675 84.808 6.25052 84.812 6.23403 84.8122L2.59651 84.8027ZM6.64083 87.2624C6.50143 87.2624 6.36516 87.2211 6.24926 87.1436C6.13336 87.0662 6.04302 86.9561 5.98968 86.8273C5.93633 86.6985 5.92238 86.5568 5.94957 86.4201C5.97677 86.2834 6.04389 86.1578 6.14246 86.0592C6.24103 85.9607 6.36661 85.8935 6.50333 85.8663C6.64004 85.8391 6.78176 85.8531 6.91054 85.9064C7.03933 85.9598 7.1494 86.0501 7.22684 86.166C7.30429 86.2819 7.34562 86.4182 7.34562 86.5576C7.34566 86.6518 7.32682 86.745 7.29022 86.8317C7.25363 86.9185 7.20001 86.9971 7.13255 87.0628C7.06509 87.1285 6.98514 87.18 6.89743 87.2143C6.80973 87.2486 6.71604 87.2649 6.62191 87.2624H6.64083Z" fill="#111111"/>
<path d="M11.5791 84.4858C11.558 84.4762 11.5344 84.4733 11.5116 84.4775C11.4887 84.4818 11.4677 84.4929 11.4514 84.5094L9.08633 86.8509C9.0669 86.8715 9.0552 86.8983 9.05322 86.9265V88.3456C9.05314 88.3687 9.05982 88.3913 9.07243 88.4106C9.08503 88.4299 9.10302 88.4452 9.12418 88.4544C9.14533 88.464 9.16891 88.4669 9.19175 88.4626C9.21459 88.4584 9.23558 88.4473 9.25189 88.4307L11.617 86.0657C11.6374 86.0438 11.6492 86.0152 11.6501 85.9852V84.5662C11.6462 84.5478 11.6377 84.5307 11.6252 84.5166C11.6128 84.5025 11.5969 84.4919 11.5791 84.4858Z" fill="#111111"/>
<path d="M9.07214 85.6068C9.07206 85.6299 9.07874 85.6525 9.09135 85.6718C9.10395 85.6912 9.12194 85.7064 9.1431 85.7156C9.16193 85.7284 9.18418 85.7353 9.20695 85.7353C9.22973 85.7353 9.25198 85.7284 9.27081 85.7156L11.4325 83.5397C11.4444 83.5292 11.4537 83.516 11.4594 83.5012C11.4652 83.4864 11.4673 83.4704 11.4656 83.4546C11.466 83.4385 11.4628 83.4225 11.4563 83.4078C11.4497 83.393 11.44 83.3799 11.4278 83.3694C11.3272 83.2807 11.1976 83.232 11.0636 83.2323H9.75802C9.73024 83.232 9.70345 83.2219 9.68234 83.2039L4.39872 78.6534C4.35423 78.602 4.29919 78.5608 4.23734 78.5326C4.17549 78.5044 4.10829 78.4899 4.04031 78.49C3.97233 78.4901 3.90518 78.5049 3.84342 78.5333C3.78166 78.5617 3.72675 78.603 3.68243 78.6546C3.6381 78.7061 3.60541 78.7666 3.58657 78.8319C3.56773 78.8972 3.56319 78.9658 3.57326 79.0331C3.58333 79.1003 3.60777 79.1646 3.64492 79.2215C3.68206 79.2784 3.73104 79.3267 3.78852 79.363L9.02957 83.8567C9.04277 83.8676 9.05341 83.8814 9.06077 83.8969C9.06812 83.9124 9.072 83.9294 9.07214 83.9465V85.6068Z" fill="#111111"/>
<path d="M11.5791 87.2293C11.558 87.2197 11.5344 87.2168 11.5116 87.221C11.4887 87.2253 11.4677 87.2364 11.4514 87.2529L9.4411 89.2633C9.42733 89.2774 9.41747 89.2948 9.41249 89.3139C9.40752 89.333 9.40759 89.353 9.41272 89.3721C9.41583 89.3913 9.42406 89.4094 9.43654 89.4243C9.44902 89.4393 9.4653 89.4507 9.48367 89.4572C9.54006 89.4762 9.59919 89.4858 9.65869 89.4856H11.0777C11.2308 89.4819 11.3764 89.4184 11.4833 89.3088C11.5903 89.1992 11.6501 89.0522 11.6501 88.899V87.3239C11.6476 87.3033 11.6398 87.2837 11.6273 87.2671C11.6148 87.2505 11.5982 87.2374 11.5791 87.2293Z" fill="#111111"/>
</g>
</g>
<g id="Size=16px, Filled=true">
<g id="Vector_9">
<path d="M34.5195 85.3793L35.0808 84.9315C35.2089 84.8276 35.2912 84.6776 35.3101 84.5138C35.3289 84.3499 35.2829 84.1851 35.1817 84.0548C35.0776 83.9249 34.9264 83.8413 34.761 83.8224C34.5956 83.8035 34.4294 83.8508 34.2987 83.9539L33.8572 84.3071C33.8333 84.321 33.8061 84.3282 33.7784 84.3282C33.7507 84.3282 33.7235 84.321 33.6996 84.3071C33.674 84.2947 33.6519 84.2761 33.6354 84.2529C33.6189 84.2298 33.6084 84.2029 33.605 84.1747L33.5356 83.4809C33.4915 83.0103 33.2728 82.5733 32.9226 82.2558C32.5725 81.9383 32.1162 81.7634 31.6435 81.7654H28.0296C27.559 81.7631 27.1043 81.9362 26.7544 82.2511C26.4046 82.566 26.1846 83 26.1376 83.4683L26.0682 84.1684C26.0655 84.1961 26.0553 84.2225 26.0386 84.2447C26.0219 84.267 25.9994 84.2842 25.9736 84.2945C25.9496 84.3083 25.9224 84.3156 25.8947 84.3156C25.8671 84.3156 25.8399 84.3083 25.8159 84.2945L25.387 83.9476C25.2557 83.8798 25.1047 83.8602 24.9604 83.8923C24.8161 83.9244 24.6877 84.0062 24.5976 84.1234C24.5075 84.2405 24.4613 84.3857 24.4673 84.5334C24.4733 84.6811 24.5309 84.822 24.6302 84.9315L25.1852 85.373C25.2028 85.3876 25.217 85.406 25.2268 85.4266C25.2366 85.4473 25.2418 85.4699 25.242 85.4928C25.2433 85.5159 25.2388 85.539 25.2288 85.56C25.2189 85.5809 25.2039 85.599 25.1852 85.6126C24.9879 85.7737 24.8289 85.9767 24.7198 86.2069C24.6107 86.4371 24.5543 86.6887 24.5545 86.9434V88.3499C24.5554 88.494 24.5846 88.6365 24.6405 88.7693C24.6964 88.9022 24.7779 89.0227 24.8804 89.124C24.9829 89.2253 25.1043 89.3055 25.2378 89.3598C25.3713 89.4142 25.5141 89.4418 25.6582 89.441H26.1249C26.1668 89.441 26.2069 89.4576 26.2364 89.4871C26.266 89.5167 26.2826 89.5568 26.2826 89.5986V90.3807C26.2826 90.6316 26.3823 90.8722 26.5597 91.0496C26.7371 91.227 26.9778 91.3267 27.2287 91.3267C27.4796 91.3267 27.7202 91.227 27.8976 91.0496C28.075 90.8722 28.1747 90.6316 28.1747 90.3807V89.5986C28.1747 89.5568 28.1913 89.5167 28.2209 89.4871C28.2504 89.4576 28.2906 89.441 28.3324 89.441H31.4858C31.5276 89.441 31.5678 89.4576 31.5973 89.4871C31.6269 89.5167 31.6435 89.5568 31.6435 89.5986V90.3807C31.6435 90.6316 31.7432 90.8722 31.9206 91.0496C32.098 91.227 32.3386 91.3267 32.5895 91.3267C32.8404 91.3267 33.0811 91.227 33.2585 91.0496C33.4359 90.8722 33.5356 90.6316 33.5356 90.3807V89.5986C33.5356 89.5568 33.5522 89.5167 33.5818 89.4871C33.6113 89.4576 33.6514 89.441 33.6933 89.441H34.1347C34.4052 89.4143 34.6559 89.2876 34.8378 89.0858C35.0198 88.884 35.1199 88.6216 35.1186 88.3499V86.9434C35.1193 86.6895 35.063 86.4387 34.9538 86.2095C34.8447 85.9803 34.6855 85.7785 34.4879 85.619C34.4706 85.6042 34.4567 85.5858 34.4472 85.5651C34.4377 85.5444 34.4327 85.5219 34.4327 85.4991C34.4327 85.4763 34.4377 85.4538 34.4472 85.4332C34.4567 85.4125 34.4706 85.3941 34.4879 85.3793H34.5195ZM26.9196 88.3499C26.7338 88.3499 26.5521 88.2947 26.3975 88.1915C26.243 88.0882 26.1225 87.9415 26.0514 87.7697C25.9803 87.598 25.9617 87.4091 25.9979 87.2268C26.0342 87.0445 26.1237 86.8771 26.2551 86.7456C26.3866 86.6142 26.554 86.5247 26.7363 86.4884C26.9186 86.4522 27.1075 86.4708 27.2792 86.5419C27.451 86.6131 27.5977 86.7335 27.701 86.888C27.8042 87.0426 27.8594 87.2243 27.8594 87.4101C27.8594 87.6594 27.7603 87.8984 27.5841 88.0746C27.4079 88.2508 27.1689 88.3499 26.9196 88.3499ZM27.462 85.0703C27.4391 85.0701 27.4165 85.0649 27.3958 85.0551C27.3752 85.0453 27.3568 85.0311 27.3422 85.0135C27.3269 84.9979 27.3155 84.9789 27.3089 84.9581C27.3023 84.9373 27.3008 84.9152 27.3043 84.8937L27.4368 83.6323C27.4525 83.4762 27.5258 83.3315 27.6424 83.2265C27.759 83.1216 27.9106 83.0639 28.0675 83.0647H31.7066C31.8655 83.0641 32.0187 83.1236 32.1356 83.2312C32.2525 83.3388 32.3246 83.4865 32.3373 83.6449L32.4634 84.9063C32.467 84.9278 32.4654 84.9499 32.4588 84.9707C32.4523 84.9915 32.4409 85.0105 32.4256 85.0261C32.4122 85.0436 32.395 85.0577 32.3753 85.0676C32.3557 85.0774 32.334 85.0826 32.312 85.0829L27.462 85.0703ZM32.8544 88.3499C32.6686 88.3499 32.4869 88.2947 32.3323 88.1915C32.1778 88.0882 32.0574 87.9415 31.9862 87.7697C31.9151 87.598 31.8965 87.4091 31.9328 87.2268C31.969 87.0445 32.0585 86.8771 32.1899 86.7456C32.3214 86.6142 32.4888 86.5247 32.6711 86.4884C32.8534 86.4522 33.0423 86.4708 33.2141 86.5419C33.3858 86.6131 33.5325 86.7335 33.6358 86.888C33.7391 87.0426 33.7942 87.2243 33.7942 87.4101C33.7942 87.5357 33.7691 87.66 33.7203 87.7757C33.6715 87.8914 33.6 87.9961 33.5101 88.0837C33.4201 88.1713 33.3135 88.24 33.1966 88.2857C33.0796 88.3314 32.9547 88.3532 32.8292 88.3499H32.8544Z" fill="#111111"/>
<path d="M39.4389 84.6477C39.4107 84.6349 39.3792 84.6311 39.3488 84.6367C39.3183 84.6423 39.2903 84.6572 39.2686 84.6792L36.1151 87.8012C36.0892 87.8287 36.0736 87.8643 36.071 87.9021V89.7941C36.0709 89.8249 36.0798 89.855 36.0966 89.8808C36.1134 89.9066 36.1374 89.9269 36.1656 89.9392C36.1938 89.952 36.2252 89.9558 36.2557 89.9502C36.2861 89.9446 36.3141 89.9297 36.3359 89.9077L39.4893 86.7542C39.5166 86.725 39.5323 86.6869 39.5335 86.647V84.7549C39.5283 84.7304 39.5169 84.7076 39.5003 84.6888C39.4837 84.67 39.4625 84.6559 39.4389 84.6477Z" fill="#111111"/>
<path d="M36.0962 86.1424C36.0961 86.1732 36.105 86.2033 36.1218 86.2291C36.1386 86.2549 36.1626 86.2752 36.1908 86.2875C36.2159 86.3046 36.2456 86.3137 36.2759 86.3137C36.3063 86.3137 36.336 86.3046 36.3611 86.2875L39.2433 83.3863C39.2593 83.3723 39.2716 83.3547 39.2792 83.3349C39.2869 83.3152 39.2898 83.2939 39.2875 83.2728C39.288 83.2513 39.2838 83.23 39.275 83.2103C39.2663 83.1907 39.2533 83.1733 39.237 83.1593C39.1029 83.041 38.9302 82.9759 38.7514 82.9764H37.0107C36.9737 82.976 36.9379 82.9626 36.9098 82.9385L29.865 76.8713C29.8056 76.8027 29.7322 76.7478 29.6498 76.7102C29.5673 76.6726 29.4777 76.6532 29.3871 76.6533C29.2964 76.6535 29.2069 76.6731 29.1246 76.711C29.0422 76.7489 28.969 76.8041 28.9099 76.8728C28.8508 76.9415 28.8072 77.0221 28.7821 77.1092C28.757 77.1963 28.7509 77.2878 28.7643 77.3774C28.7778 77.4671 28.8104 77.5528 28.8599 77.6287C28.9094 77.7046 28.9747 77.7689 29.0514 77.8173L36.0394 83.8089C36.057 83.8235 36.0712 83.8418 36.081 83.8625C36.0908 83.8832 36.096 83.9058 36.0962 83.9287V86.1424Z" fill="#111111"/>
<path d="M39.4389 88.3057C39.4107 88.2929 39.3792 88.2891 39.3488 88.2947C39.3183 88.3004 39.2903 88.3152 39.2686 88.3372L36.5881 91.0177C36.5698 91.0365 36.5566 91.0598 36.55 91.0852C36.5434 91.1106 36.5435 91.1374 36.5503 91.1627C36.5544 91.1884 36.5654 91.2125 36.5821 91.2325C36.5987 91.2524 36.6204 91.2676 36.6449 91.2763C36.7201 91.3016 36.7989 91.3143 36.8783 91.3141H38.7703C38.9744 91.3092 39.1685 91.2246 39.3111 91.0785C39.4537 90.9323 39.5335 90.7362 39.5335 90.532V88.4318C39.5302 88.4044 39.5197 88.3782 39.5031 88.3561C39.4865 88.334 39.4643 88.3166 39.4389 88.3057Z" fill="#111111"/>
</g>
</g>
<g id="Size=20px, Filled=true">
<g id="Vector_10">
<path d="M65.1493 85.7241L65.851 85.1644C66.0111 85.0345 66.114 84.8471 66.1376 84.6422C66.1612 84.4374 66.1036 84.2315 65.9771 84.0686C65.847 83.9061 65.658 83.8017 65.4512 83.7781C65.2445 83.7545 65.0368 83.8135 64.8734 83.9424L64.3215 84.3839C64.2916 84.4012 64.2576 84.4103 64.223 84.4103C64.1884 84.4103 64.1544 84.4012 64.1245 84.3839C64.0925 84.3684 64.0649 84.3451 64.0443 84.3162C64.0236 84.2873 64.0105 84.2536 64.0062 84.2184L63.9195 83.3512C63.8643 82.7629 63.591 82.2166 63.1533 81.8197C62.7156 81.4229 62.1452 81.2042 61.5544 81.2068H57.0371C56.4487 81.2039 55.8804 81.4203 55.443 81.8139C55.0057 82.2075 54.7308 82.75 54.672 83.3354L54.5852 84.2105C54.5819 84.2451 54.5691 84.2781 54.5483 84.3059C54.5274 84.3338 54.4993 84.3553 54.467 84.3682C54.437 84.3855 54.403 84.3946 54.3684 84.3946C54.3338 84.3946 54.2998 84.3855 54.2699 84.3682L53.7338 83.9346C53.5696 83.8497 53.3809 83.8253 53.2005 83.8654C53.0202 83.9056 52.8596 84.0078 52.747 84.1543C52.6343 84.3007 52.5767 84.4821 52.5841 84.6667C52.5916 84.8514 52.6637 85.0275 52.7878 85.1644L53.4815 85.7163C53.5035 85.7346 53.5213 85.7575 53.5335 85.7833C53.5458 85.8092 53.5522 85.8374 53.5525 85.8661C53.5541 85.895 53.5484 85.9238 53.5361 85.95C53.5237 85.9761 53.5049 85.9988 53.4815 86.0158C53.2349 86.2172 53.0361 86.4709 52.8998 86.7587C52.7634 87.0464 52.6928 87.3609 52.6932 87.6793V89.4373C52.6942 89.6175 52.7307 89.7957 52.8006 89.9617C52.8705 90.1277 52.9724 90.2784 53.1005 90.405C53.2286 90.5317 53.3804 90.6318 53.5472 90.6998C53.7141 90.7678 53.8927 90.8023 54.0728 90.8012H54.6562C54.7085 90.8012 54.7586 90.822 54.7956 90.8589C54.8325 90.8959 54.8533 90.946 54.8533 90.9983V91.9759C54.8533 92.2895 54.9779 92.5903 55.1996 92.8121C55.4214 93.0338 55.7222 93.1584 56.0358 93.1584C56.3495 93.1584 56.6502 93.0338 56.872 92.8121C57.0938 92.5903 57.2184 92.2895 57.2184 91.9759V90.9983C57.2184 90.946 57.2391 90.8959 57.2761 90.8589C57.3131 90.822 57.3632 90.8012 57.4155 90.8012H61.3573C61.4096 90.8012 61.4597 90.822 61.4967 90.8589C61.5336 90.8959 61.5544 90.946 61.5544 90.9983V91.9759C61.5544 92.2895 61.679 92.5903 61.9007 92.8121C62.1225 93.0338 62.4233 93.1584 62.7369 93.1584C63.0506 93.1584 63.3513 93.0338 63.5731 92.8121C63.7949 92.5903 63.9195 92.2895 63.9195 91.9759V90.9983C63.9195 90.946 63.9402 90.8959 63.9772 90.8589C64.0142 90.822 64.0643 90.8012 64.1166 90.8012H64.6684C65.0064 90.7678 65.3198 90.6096 65.5473 90.3573C65.7748 90.1051 65.8999 89.777 65.8983 89.4373V87.6793C65.8991 87.3619 65.8287 87.0484 65.6923 86.7619C65.5558 86.4754 65.3568 86.2231 65.1099 86.0237C65.0883 86.0052 65.0709 85.9823 65.059 85.9564C65.0471 85.9305 65.0409 85.9024 65.0409 85.8739C65.0409 85.8455 65.0471 85.8173 65.059 85.7915C65.0709 85.7656 65.0883 85.7427 65.1099 85.7241H65.1493ZM55.6495 89.4373C55.4172 89.4373 55.1901 89.3685 54.9969 89.2394C54.8037 89.1103 54.6532 88.9269 54.5643 88.7122C54.4754 88.4976 54.4521 88.2614 54.4974 88.0335C54.5428 87.8057 54.6546 87.5964 54.8189 87.4321C54.9832 87.2678 55.1925 87.1559 55.4204 87.1106C55.6482 87.0653 55.8844 87.0885 56.0991 87.1774C56.3137 87.2663 56.4972 87.4169 56.6262 87.6101C56.7553 87.8032 56.8242 88.0304 56.8242 88.2627C56.8242 88.5742 56.7004 88.873 56.4801 89.0933C56.2598 89.3136 55.9611 89.4373 55.6495 89.4373ZM56.3275 85.3378C56.2989 85.3376 56.2707 85.3311 56.2448 85.3189C56.2189 85.3066 56.196 85.2889 56.1777 85.2669C56.1586 85.2474 56.1444 85.2237 56.1362 85.1977C56.1279 85.1716 56.126 85.144 56.1304 85.1171L56.296 83.5404C56.3156 83.3452 56.4072 83.1644 56.553 83.0332C56.6988 82.902 56.8882 82.8299 57.0844 82.8308H61.6332C61.8318 82.8302 62.0234 82.9046 62.1695 83.039C62.3157 83.1735 62.4057 83.3582 62.4216 83.5561L62.5793 85.1329C62.5837 85.1598 62.5818 85.1874 62.5735 85.2134C62.5653 85.2395 62.5511 85.2632 62.532 85.2827C62.5152 85.3045 62.4938 85.3222 62.4692 85.3345C62.4446 85.3468 62.4175 85.3533 62.39 85.3536L56.3275 85.3378ZM63.068 89.4373C62.8357 89.4373 62.6086 89.3685 62.4154 89.2394C62.2223 89.1103 62.0717 88.9269 61.9828 88.7122C61.8939 88.4976 61.8706 88.2614 61.916 88.0335C61.9613 87.8057 62.0732 87.5964 62.2374 87.4321C62.4017 87.2678 62.611 87.1559 62.8389 87.1106C63.0667 87.0653 63.3029 87.0885 63.5176 87.1774C63.7322 87.2663 63.9157 87.4169 64.0447 87.6101C64.1738 87.8032 64.2427 88.0304 64.2427 88.2627C64.2428 88.4196 64.2114 88.575 64.1504 88.7196C64.0894 88.8642 64 88.9951 63.8876 89.1046C63.7751 89.2141 63.6419 89.3 63.4957 89.3571C63.3495 89.4143 63.1934 89.4416 63.0365 89.4373H63.068Z" fill="#111111"/>
<path d="M71.2986 84.8096C71.2633 84.7937 71.224 84.7889 71.186 84.7959C71.1479 84.803 71.1129 84.8215 71.0857 84.8491L67.1439 88.7515C67.1115 88.7859 67.092 88.8305 67.0887 88.8776V91.2427C67.0886 91.2812 67.0997 91.3188 67.1207 91.3511C67.1417 91.3833 67.1717 91.4086 67.207 91.424C67.2422 91.44 67.2815 91.4448 67.3196 91.4378C67.3576 91.4307 67.3926 91.4122 67.4198 91.3846L71.3616 87.4428C71.3957 87.4063 71.4154 87.3587 71.4168 87.3088V84.9437C71.4104 84.913 71.3961 84.8846 71.3754 84.8611C71.3546 84.8376 71.3282 84.8199 71.2986 84.8096Z" fill="#111111"/>
<path d="M67.1202 86.6781C67.1201 86.7165 67.1312 86.7542 67.1522 86.7864C67.1733 86.8186 67.2032 86.844 67.2385 86.8594C67.2699 86.8807 67.307 86.8922 67.3449 86.8922C67.3829 86.8922 67.42 86.8807 67.4514 86.8594L71.0542 83.2329C71.0741 83.2154 71.0895 83.1934 71.0991 83.1687C71.1087 83.144 71.1122 83.1174 71.1094 83.091C71.11 83.0642 71.1047 83.0375 71.0938 83.013C71.0829 82.9884 71.0667 82.9666 71.0463 82.9491C70.8787 82.8013 70.6627 82.72 70.4393 82.7205H68.2634C68.2171 82.72 68.1724 82.7033 68.1372 82.6732L59.3312 75.0891C59.257 75.0034 59.1653 74.9348 59.0622 74.8878C58.9591 74.8407 58.8471 74.8165 58.7339 74.8167C58.6206 74.8169 58.5086 74.8415 58.4057 74.8888C58.3028 74.9361 58.2112 75.0051 58.1374 75.091C58.0635 75.1769 58.009 75.2777 57.9776 75.3866C57.9462 75.4954 57.9387 75.6098 57.9554 75.7218C57.9722 75.8339 58.0129 75.941 58.0749 76.0359C58.1368 76.1307 58.2184 76.2112 58.3142 76.2716L67.0493 83.7611C67.0713 83.7794 67.089 83.8023 67.1013 83.8282C67.1135 83.8541 67.12 83.8823 67.1202 83.9109V86.6781Z" fill="#111111"/>
<path d="M71.2986 89.3822C71.2633 89.3662 71.224 89.3614 71.186 89.3684C71.1479 89.3755 71.1129 89.394 71.0857 89.4216L67.7352 92.7721C67.7122 92.7956 67.6958 92.8247 67.6875 92.8565C67.6792 92.8883 67.6793 92.9217 67.6879 92.9535C67.6931 92.9855 67.7068 93.0156 67.7276 93.0406C67.7484 93.0656 67.7755 93.0845 67.8061 93.0954C67.9001 93.127 67.9986 93.143 68.0978 93.1427H70.4629C70.7181 93.1365 70.9607 93.0308 71.1389 92.8481C71.3172 92.6654 71.4169 92.4203 71.4168 92.1651V89.5398C71.4127 89.5055 71.3996 89.4728 71.3788 89.4452C71.3581 89.4175 71.3304 89.3958 71.2986 89.3822Z" fill="#111111"/>
</g>
</g>
<g id="Size=24px, Filled=true">
<g id="Vector_11">
<path d="M99.7792 86.069L100.621 85.3973C100.813 85.2414 100.937 85.0165 100.965 84.7707C100.993 84.5249 100.924 84.2777 100.773 84.0823C100.616 83.8874 100.39 83.7621 100.141 83.7337C99.8934 83.7053 99.6441 83.7762 99.4481 83.9309L98.7859 84.4607C98.7499 84.4815 98.7091 84.4924 98.6676 84.4924C98.6261 84.4924 98.5853 84.4815 98.5493 84.4607C98.511 84.4421 98.4779 84.4141 98.4531 84.3794C98.4283 84.3447 98.4126 84.3044 98.4074 84.262L98.3034 83.2214C98.2372 82.5155 97.9092 81.8599 97.384 81.3837C96.8587 80.9075 96.1743 80.6451 95.4653 80.6482H90.0445C89.3384 80.6446 88.6564 80.9044 88.1316 81.3767C87.6068 81.849 87.2769 82.5 87.2063 83.2025L87.1023 84.2526C87.0983 84.2941 87.0829 84.3337 87.0579 84.3671C87.0329 84.4005 86.9991 84.4263 86.9604 84.4418C86.9244 84.4625 86.8836 84.4735 86.8421 84.4735C86.8006 84.4735 86.7598 84.4625 86.7239 84.4418L86.0806 83.9215C85.8836 83.8197 85.6571 83.7903 85.4406 83.8385C85.2242 83.8867 85.0316 84.0093 84.8964 84.1851C84.7612 84.3609 84.692 84.5785 84.701 84.8001C84.7099 85.0216 84.7964 85.233 84.9453 85.3973L85.7778 86.0595C85.8042 86.0815 85.8255 86.109 85.8402 86.14C85.8549 86.171 85.8627 86.2049 85.863 86.2393C85.8649 86.2739 85.8581 86.3086 85.8433 86.34C85.8284 86.3714 85.8059 86.3985 85.7778 86.419C85.4818 86.6606 85.2434 86.9651 85.0797 87.3104C84.9161 87.6557 84.8314 88.0331 84.8318 88.4151V90.5248C84.833 90.741 84.8768 90.9548 84.9607 91.154C85.0446 91.3533 85.1669 91.534 85.3206 91.686C85.4743 91.838 85.6565 91.9582 85.8567 92.0398C86.0569 92.1214 86.2712 92.1627 86.4874 92.1615H87.1874C87.2502 92.1615 87.3103 92.1864 87.3547 92.2307C87.399 92.2751 87.4239 92.3352 87.4239 92.398V93.5711C87.4239 93.9474 87.5734 94.3084 87.8396 94.5745C88.1057 94.8406 88.4666 94.9901 88.843 94.9901C89.2193 94.9901 89.5803 94.8406 89.8464 94.5745C90.1125 94.3084 90.262 93.9474 90.262 93.5711V92.398C90.262 92.3352 90.287 92.2751 90.3313 92.2307C90.3757 92.1864 90.4358 92.1615 90.4986 92.1615H95.2287C95.2915 92.1615 95.3516 92.1864 95.396 92.2307C95.4403 92.2751 95.4653 92.3352 95.4653 92.398V93.5711C95.4653 93.9474 95.6148 94.3084 95.8809 94.5745C96.147 94.8406 96.508 94.9901 96.8843 94.9901C97.2607 94.9901 97.6216 94.8406 97.8877 94.5745C98.1539 94.3084 98.3034 93.9474 98.3034 93.5711V92.398C98.3034 92.3352 98.3283 92.2751 98.3726 92.2307C98.417 92.1864 98.4772 92.1615 98.5399 92.1615H99.2021C99.6077 92.1214 99.9838 91.9315 100.257 91.6288C100.53 91.3261 100.68 90.9324 100.678 90.5248V88.4151C100.679 88.0343 100.594 87.6581 100.431 87.3143C100.267 86.9704 100.028 86.6677 99.7319 86.4285C99.7059 86.4063 99.6851 86.3787 99.6708 86.3477C99.6565 86.3166 99.6491 86.2829 99.6491 86.2487C99.6491 86.2146 99.6565 86.1808 99.6708 86.1498C99.6851 86.1187 99.7059 86.0912 99.7319 86.069H99.7792ZM88.3794 90.5248C88.1006 90.5248 87.8281 90.4421 87.5963 90.2873C87.3645 90.1324 87.1838 89.9122 87.0771 89.6546C86.9704 89.3971 86.9425 89.1137 86.9969 88.8402C87.0513 88.5668 87.1856 88.3156 87.3827 88.1185C87.5798 87.9213 87.831 87.7871 88.1044 87.7327C88.3779 87.6783 88.6613 87.7062 88.9189 87.8129C89.1764 87.9196 89.3966 88.1003 89.5515 88.3321C89.7064 88.5639 89.789 88.8364 89.789 89.1152C89.789 89.4891 89.6405 89.8476 89.3762 90.112C89.1118 90.3763 88.7533 90.5248 88.3794 90.5248ZM89.193 85.6054C89.1587 85.6051 89.1248 85.5974 89.0938 85.5827C89.0627 85.568 89.0353 85.5467 89.0133 85.5203C88.9903 85.4969 88.9732 85.4684 88.9634 85.4372C88.9535 85.406 88.9512 85.3728 88.9565 85.3405L89.1552 83.4484C89.1787 83.2143 89.2887 82.9973 89.4636 82.8399C89.6385 82.6824 89.8659 82.5958 90.1012 82.597H95.5599C95.7982 82.5962 96.028 82.6855 96.2034 82.8468C96.3788 83.0082 96.4868 83.2298 96.5059 83.4674L96.6951 85.3594C96.7005 85.3918 96.6981 85.4249 96.6882 85.4561C96.6784 85.4873 96.6613 85.5158 96.6383 85.5392C96.6183 85.5654 96.5925 85.5866 96.563 85.6014C96.5335 85.6161 96.501 85.624 96.4681 85.6243L89.193 85.6054ZM97.2817 90.5248C97.0029 90.5248 96.7303 90.4421 96.4985 90.2873C96.2667 90.1324 96.086 89.9122 95.9794 89.6546C95.8727 89.3971 95.8448 89.1137 95.8991 88.8402C95.9535 88.5668 96.0878 88.3156 96.2849 88.1185C96.4821 87.9213 96.7332 87.7871 97.0067 87.7327C97.2801 87.6783 97.5635 87.7062 97.8211 87.8129C98.0787 87.9196 98.2988 88.1003 98.4537 88.3321C98.6086 88.5639 98.6912 88.8364 98.6912 89.1152C98.6913 89.3036 98.6536 89.49 98.5804 89.6635C98.5073 89.8371 98.4 89.9942 98.2651 90.1256C98.1302 90.257 97.9703 90.36 97.7949 90.4286C97.6195 90.4971 97.4321 90.5299 97.2438 90.5248H97.2817Z" fill="#111111"/>
<path d="M107.158 84.9716C107.116 84.9524 107.069 84.9466 107.023 84.9551C106.977 84.9635 106.935 84.9858 106.903 85.0189L102.173 89.7018C102.134 89.7431 102.11 89.7965 102.106 89.8531V92.6912C102.106 92.7374 102.12 92.7826 102.145 92.8213C102.17 92.8599 102.206 92.8904 102.248 92.9088C102.291 92.928 102.338 92.9338 102.383 92.9253C102.429 92.9169 102.471 92.8946 102.504 92.8615L107.234 88.1313C107.275 88.0876 107.298 88.0304 107.3 87.9705V85.1324C107.292 85.0956 107.275 85.0615 107.25 85.0333C107.226 85.0051 107.194 84.9838 107.158 84.9716Z" fill="#111111"/>
<path d="M102.144 87.2137C102.144 87.2598 102.157 87.305 102.183 87.3437C102.208 87.3824 102.244 87.4128 102.286 87.4313C102.324 87.4569 102.368 87.4706 102.414 87.4706C102.459 87.4706 102.504 87.4569 102.542 87.4313L106.865 83.0795C106.889 83.0585 106.907 83.032 106.919 83.0024C106.93 82.9728 106.935 82.9408 106.931 82.9092C106.932 82.877 106.926 82.845 106.913 82.8155C106.899 82.7861 106.88 82.7599 106.856 82.7389C106.654 82.5615 106.395 82.4639 106.127 82.4646H103.516C103.46 82.464 103.407 82.4439 103.365 82.4078L92.7974 73.3069C92.7085 73.2041 92.5984 73.1217 92.4747 73.0653C92.351 73.0089 92.2166 72.9798 92.0806 72.98C91.9447 72.9802 91.8104 73.0097 91.6868 73.0666C91.5633 73.1234 91.4535 73.2061 91.3649 73.3092C91.2762 73.4123 91.2108 73.5332 91.1731 73.6639C91.1355 73.7945 91.1264 73.9317 91.1465 74.0662C91.1667 74.2006 91.2155 74.3292 91.2898 74.443C91.3641 74.5569 91.4621 74.6534 91.577 74.726L102.059 83.7133C102.086 83.7353 102.107 83.7628 102.122 83.7938C102.136 83.8249 102.144 83.8587 102.144 83.8931V87.2137Z" fill="#111111"/>
<path d="M107.158 90.4586C107.116 90.4394 107.069 90.4336 107.023 90.4421C106.977 90.4506 106.935 90.4728 106.903 90.5059L102.882 94.5266C102.855 94.5548 102.835 94.5897 102.825 94.6278C102.815 94.666 102.815 94.7061 102.825 94.7441C102.832 94.7826 102.848 94.8188 102.873 94.8487C102.898 94.8787 102.931 94.9014 102.967 94.9144C103.08 94.9524 103.198 94.9715 103.317 94.9712H106.155C106.462 94.9638 106.753 94.8369 106.967 94.6177C107.181 94.3985 107.3 94.1044 107.3 93.7981V90.6478C107.295 90.6066 107.28 90.5674 107.255 90.5342C107.23 90.501 107.196 90.4749 107.158 90.4586Z" fill="#111111"/>
</g>
</g>
<g id="Size=32px, Filled=true">
<g id="Vector_12">
<path d="M141.039 86.7586L142.162 85.863C142.418 85.6552 142.582 85.3553 142.62 85.0275C142.658 84.6998 142.566 84.3703 142.363 84.1097C142.155 83.8498 141.853 83.6827 141.522 83.6449C141.191 83.6071 140.859 83.7016 140.597 83.9079L139.714 84.6143C139.667 84.6419 139.612 84.6565 139.557 84.6565C139.501 84.6565 139.447 84.6419 139.399 84.6143C139.348 84.5894 139.304 84.5522 139.271 84.5059C139.238 84.4596 139.217 84.4058 139.21 84.3494L139.071 82.9619C138.983 82.0206 138.546 81.1465 137.845 80.5116C137.145 79.8766 136.232 79.5268 135.287 79.5309H128.059C127.118 79.5262 126.209 79.8725 125.509 80.5023C124.809 81.132 124.369 82 124.275 82.9366L124.136 84.3368C124.131 84.3921 124.111 84.445 124.077 84.4895C124.044 84.534 123.999 84.5684 123.947 84.589C123.899 84.6167 123.845 84.6313 123.789 84.6313C123.734 84.6313 123.68 84.6167 123.632 84.589L122.774 83.8953C122.511 83.7595 122.209 83.7204 121.921 83.7846C121.632 83.8489 121.375 84.0125 121.195 84.2468C121.015 84.4811 120.923 84.7713 120.935 85.0667C120.947 85.3622 121.062 85.644 121.26 85.863L122.37 86.746C122.406 86.7753 122.434 86.8119 122.454 86.8533C122.473 86.8947 122.484 86.9399 122.484 86.9857C122.487 87.0319 122.478 87.0781 122.458 87.1199C122.438 87.1618 122.408 87.198 122.37 87.2253C121.976 87.5475 121.658 87.9535 121.44 88.4139C121.221 88.8742 121.109 89.3774 121.109 89.8869V92.6997C121.111 92.988 121.169 93.273 121.281 93.5387C121.393 93.8044 121.556 94.0454 121.761 94.248C121.966 94.4507 122.209 94.6109 122.476 94.7197C122.743 94.8285 123.028 94.8836 123.316 94.8819H124.25C124.334 94.8819 124.414 94.9152 124.473 94.9743C124.532 95.0334 124.565 95.1136 124.565 95.1973V96.7614C124.565 97.2632 124.765 97.7445 125.119 98.0993C125.474 98.4541 125.956 98.6535 126.457 98.6535C126.959 98.6535 127.44 98.4541 127.795 98.0993C128.15 97.7445 128.349 97.2632 128.349 96.7614V95.1973C128.349 95.1136 128.383 95.0334 128.442 94.9743C128.501 94.9152 128.581 94.8819 128.665 94.8819H134.972C135.055 94.8819 135.136 94.9152 135.195 94.9743C135.254 95.0334 135.287 95.1136 135.287 95.1973V96.7614C135.287 97.2632 135.486 97.7445 135.841 98.0993C136.196 98.4541 136.677 98.6535 137.179 98.6535C137.681 98.6535 138.162 98.4541 138.517 98.0993C138.872 97.7445 139.071 97.2632 139.071 96.7614V95.1973C139.071 95.1136 139.104 95.0334 139.164 94.9743C139.223 94.9152 139.303 94.8819 139.387 94.8819H140.269C140.81 94.8285 141.312 94.5753 141.676 94.1717C142.04 93.7681 142.24 93.2432 142.237 92.6997V89.8869C142.239 89.3791 142.126 88.8775 141.908 88.419C141.689 87.9606 141.371 87.557 140.976 87.2379C140.941 87.2083 140.913 87.1716 140.894 87.1302C140.875 87.0888 140.865 87.0438 140.865 86.9983C140.865 86.9527 140.875 86.9077 140.894 86.8663C140.913 86.825 140.941 86.7882 140.976 86.7586H141.039ZM125.839 92.6997C125.468 92.6997 125.104 92.5895 124.795 92.383C124.486 92.1765 124.245 91.8829 124.103 91.5395C123.961 91.1961 123.923 90.8182 123.996 90.4536C124.068 90.089 124.247 89.7541 124.51 89.4913C124.773 89.2284 125.108 89.0494 125.473 88.9769C125.837 88.9044 126.215 88.9416 126.558 89.0839C126.902 89.2261 127.195 89.467 127.402 89.7761C127.608 90.0852 127.719 90.4486 127.719 90.8203C127.719 91.3187 127.521 91.7968 127.168 92.1493C126.816 92.5017 126.338 92.6997 125.839 92.6997ZM126.924 86.1405C126.878 86.1402 126.833 86.1298 126.792 86.1102C126.75 86.0906 126.714 86.0622 126.684 86.027C126.654 85.9958 126.631 85.9579 126.618 85.9162C126.605 85.8746 126.602 85.8304 126.609 85.7874L126.874 83.2646C126.905 82.9524 127.052 82.663 127.285 82.4531C127.518 82.2432 127.821 82.1278 128.135 82.1293H135.413C135.731 82.1283 136.037 82.2473 136.271 82.4624C136.505 82.6776 136.649 82.9731 136.675 83.2898L136.927 85.8126C136.934 85.8557 136.931 85.8998 136.918 85.9415C136.905 85.9831 136.882 86.0211 136.851 86.0522C136.824 86.0871 136.79 86.1155 136.751 86.1352C136.711 86.1548 136.668 86.1653 136.624 86.1658L126.924 86.1405ZM137.709 92.6997C137.337 92.6997 136.974 92.5895 136.665 92.383C136.356 92.1765 136.115 91.8829 135.972 91.5395C135.83 91.1961 135.793 90.8182 135.866 90.4536C135.938 90.089 136.117 89.7541 136.38 89.4913C136.643 89.2284 136.978 89.0494 137.342 88.9769C137.707 88.9044 138.085 88.9416 138.428 89.0839C138.772 89.2261 139.065 89.467 139.272 89.7761C139.478 90.0852 139.588 90.4486 139.588 90.8203C139.588 91.0714 139.538 91.32 139.441 91.5514C139.343 91.7827 139.2 91.9922 139.02 92.1674C138.84 92.3426 138.627 92.48 138.393 92.5714C138.159 92.6628 137.909 92.7065 137.658 92.6997H137.709Z" fill="#111111"/>
<path d="M150.878 85.2954C150.821 85.2698 150.758 85.2622 150.698 85.2734C150.637 85.2847 150.581 85.3144 150.537 85.3585L144.23 91.6023C144.178 91.6574 144.147 91.7287 144.142 91.8042V95.5883C144.142 95.6499 144.16 95.7101 144.193 95.7617C144.227 95.8132 144.275 95.8538 144.331 95.8784C144.388 95.904 144.45 95.9117 144.511 95.9004C144.572 95.8891 144.628 95.8594 144.672 95.8154L150.979 89.5084C151.033 89.4501 151.065 89.3738 151.067 89.294V85.5098C151.057 85.4608 151.034 85.4153 151.001 85.3777C150.967 85.3401 150.925 85.3118 150.878 85.2954Z" fill="#111111"/>
<path d="M144.192 88.2849C144.192 88.3464 144.21 88.4067 144.244 88.4583C144.277 88.5098 144.325 88.5504 144.382 88.575C144.432 88.6092 144.491 88.6274 144.552 88.6274C144.613 88.6274 144.672 88.6092 144.722 88.575L150.487 82.7726C150.519 82.7446 150.543 82.7094 150.558 82.6699C150.574 82.6304 150.58 82.5877 150.575 82.5456C150.576 82.5026 150.568 82.46 150.55 82.4207C150.533 82.3815 150.507 82.3466 150.474 82.3185C150.206 82.082 149.86 81.9519 149.503 81.9527H146.021C145.947 81.952 145.876 81.9252 145.82 81.8771L131.73 69.7425C131.611 69.6055 131.464 69.4956 131.3 69.4204C131.135 69.3452 130.955 69.3064 130.774 69.3067C130.593 69.307 130.414 69.3463 130.249 69.4221C130.084 69.4978 129.938 69.6081 129.82 69.7456C129.702 69.883 129.614 70.0443 129.564 70.2185C129.514 70.3927 129.502 70.5756 129.529 70.7549C129.556 70.9342 129.621 71.1055 129.72 71.2574C129.819 71.4092 129.949 71.5378 130.103 71.6346L144.079 83.6178C144.114 83.6471 144.142 83.6837 144.162 83.7251C144.182 83.7665 144.192 83.8116 144.192 83.8574V88.2849Z" fill="#111111"/>
<path d="M150.878 92.6114C150.821 92.5859 150.758 92.5782 150.698 92.5895C150.637 92.6007 150.581 92.6304 150.537 92.6745L145.176 98.0354C145.14 98.073 145.113 98.1196 145.1 98.1704C145.087 98.2213 145.087 98.2747 145.101 98.3255C145.109 98.3768 145.131 98.425 145.164 98.4649C145.197 98.5049 145.241 98.5351 145.29 98.5526C145.44 98.6031 145.598 98.6287 145.757 98.6282H149.541C149.949 98.6184 150.337 98.4492 150.622 98.157C150.907 97.8647 151.067 97.4725 151.067 97.0641V92.8637C151.06 92.8088 151.039 92.7565 151.006 92.7122C150.973 92.6679 150.929 92.6332 150.878 92.6114Z" fill="#111111"/>
</g>
</g>
<g id="Size=40px, Filled=true">
<g id="Vector_13">
<path d="M190.299 87.4483L191.702 86.3288C192.022 86.069 192.228 85.6941 192.275 85.2844C192.322 84.8747 192.207 84.4629 191.954 84.1371C191.694 83.8123 191.316 83.6034 190.902 83.5561C190.489 83.5089 190.074 83.627 189.747 83.8849L188.643 84.7678C188.583 84.8024 188.515 84.8206 188.446 84.8206C188.377 84.8206 188.309 84.8024 188.249 84.7678C188.185 84.7368 188.13 84.6902 188.089 84.6324C188.047 84.5745 188.021 84.5073 188.012 84.4367L187.839 82.7023C187.729 81.5258 187.182 80.4332 186.307 79.6395C185.431 78.8458 184.29 78.4084 183.109 78.4136H174.074C172.897 78.4077 171.761 78.8406 170.886 79.6278C170.011 80.415 169.462 81.4999 169.344 82.6708L169.17 84.4209C169.164 84.4902 169.138 84.5562 169.097 84.6118C169.055 84.6675 168.999 84.7105 168.934 84.7363C168.874 84.7709 168.806 84.7891 168.737 84.7891C168.668 84.7891 168.6 84.7709 168.54 84.7363L167.468 83.8691C167.139 83.6994 166.762 83.6505 166.401 83.7308C166.04 83.8111 165.719 84.0156 165.494 84.3085C165.269 84.6014 165.153 84.9642 165.168 85.3334C165.183 85.7027 165.327 86.055 165.576 86.3288L166.963 87.4325C167.007 87.4691 167.043 87.5149 167.067 87.5666C167.092 87.6184 167.104 87.6748 167.105 87.7321C167.108 87.7899 167.097 87.8476 167.072 87.8999C167.047 87.9522 167.01 87.9975 166.963 88.0317C166.47 88.4343 166.072 88.9418 165.8 89.5173C165.527 90.0928 165.386 90.7217 165.386 91.3586V94.8747C165.388 95.235 165.461 95.5913 165.601 95.9234C165.741 96.2554 165.945 96.5567 166.201 96.81C166.457 97.0633 166.761 97.2637 167.094 97.3996C167.428 97.5356 167.785 97.6045 168.146 97.6024H169.312C169.417 97.6024 169.517 97.6439 169.591 97.7179C169.665 97.7918 169.707 97.8921 169.707 97.9966V99.9517C169.707 100.579 169.956 101.181 170.399 101.624C170.843 102.068 171.444 102.317 172.072 102.317C172.699 102.317 173.3 102.068 173.744 101.624C174.188 101.181 174.437 100.579 174.437 99.9517V97.9966C174.437 97.8921 174.478 97.7918 174.552 97.7179C174.626 97.6439 174.726 97.6024 174.831 97.6024H182.715C182.819 97.6024 182.919 97.6439 182.993 97.7179C183.067 97.7918 183.109 97.8921 183.109 97.9966V99.9517C183.109 100.579 183.358 101.181 183.801 101.624C184.245 102.068 184.847 102.317 185.474 102.317C186.101 102.317 186.703 102.068 187.146 101.624C187.59 101.181 187.839 100.579 187.839 99.9517V97.9966C187.839 97.8921 187.88 97.7918 187.954 97.7179C188.028 97.6439 188.129 97.6024 188.233 97.6024H189.337C190.013 97.5357 190.64 97.2191 191.095 96.7146C191.55 96.2101 191.8 95.554 191.797 94.8747V91.3586C191.798 90.7238 191.657 90.0968 191.385 89.5238C191.112 88.9507 190.714 88.4462 190.22 88.0474C190.177 88.0104 190.142 87.9645 190.118 87.9128C190.094 87.861 190.082 87.8048 190.082 87.7478C190.082 87.6909 190.094 87.6346 190.118 87.5829C190.142 87.5312 190.177 87.4853 190.22 87.4483H190.299ZM171.299 94.8747C170.834 94.8747 170.38 94.7369 169.994 94.4787C169.607 94.2206 169.306 93.8537 169.129 93.4244C168.951 92.9951 168.904 92.5227 168.995 92.067C169.086 91.6113 169.309 91.1927 169.638 90.8641C169.966 90.5356 170.385 90.3118 170.841 90.2211C171.296 90.1305 171.769 90.177 172.198 90.3548C172.627 90.5327 172.994 90.8338 173.252 91.2201C173.511 91.6065 173.648 92.0607 173.648 92.5253C173.648 93.1484 173.401 93.746 172.96 94.1866C172.52 94.6271 171.922 94.8747 171.299 94.8747ZM172.655 86.6757C172.598 86.6752 172.541 86.6622 172.49 86.6377C172.438 86.6132 172.392 86.5777 172.355 86.5338C172.317 86.4948 172.289 86.4474 172.272 86.3953C172.256 86.3432 172.252 86.288 172.261 86.2342L172.592 83.0807C172.631 82.6904 172.814 82.3288 173.106 82.0664C173.398 81.804 173.776 81.6597 174.169 81.6617H183.266C183.664 81.6604 184.047 81.8091 184.339 82.078C184.631 82.347 184.811 82.7163 184.843 83.1123L185.159 86.2657C185.167 86.3196 185.164 86.3748 185.147 86.4268C185.131 86.4789 185.102 86.5263 185.064 86.5653C185.03 86.6089 184.988 86.6444 184.938 86.6689C184.889 86.6935 184.835 86.7066 184.78 86.7072L172.655 86.6757ZM186.136 94.8747C185.671 94.8747 185.217 94.7369 184.831 94.4787C184.445 94.2206 184.143 93.8537 183.966 93.4244C183.788 92.9951 183.741 92.5227 183.832 92.067C183.923 91.6113 184.146 91.1927 184.475 90.8641C184.803 90.5356 185.222 90.3118 185.678 90.2211C186.133 90.1305 186.606 90.177 187.035 90.3548C187.464 90.5327 187.831 90.8338 188.089 91.2201C188.348 91.6065 188.485 92.0607 188.485 92.5253C188.486 92.8392 188.423 93.15 188.301 93.4392C188.179 93.7284 188 93.9903 187.775 94.2093C187.55 94.4283 187.284 94.6 186.991 94.7143C186.699 94.8286 186.387 94.8831 186.073 94.8747H186.136Z" fill="#111111"/>
<path d="M202.597 85.6193C202.527 85.5873 202.448 85.5777 202.372 85.5918C202.296 85.6059 202.226 85.643 202.171 85.6981L194.288 93.5029C194.223 93.5718 194.184 93.6609 194.177 93.7552V98.4854C194.177 98.5623 194.199 98.6376 194.241 98.7021C194.283 98.7665 194.343 98.8173 194.414 98.848C194.484 98.88 194.563 98.8896 194.639 98.8755C194.715 98.8614 194.785 98.8243 194.84 98.7692L202.723 90.8855C202.791 90.8126 202.831 90.7173 202.834 90.6175V85.8873C202.821 85.826 202.792 85.7691 202.751 85.7221C202.709 85.6751 202.656 85.6397 202.597 85.6193Z" fill="#111111"/>
<path d="M194.24 89.3561C194.24 89.433 194.262 89.5084 194.304 89.5728C194.347 89.6373 194.406 89.688 194.477 89.7188C194.54 89.7615 194.614 89.7843 194.69 89.7843C194.766 89.7843 194.84 89.7615 194.903 89.7188L202.108 82.4658C202.148 82.4308 202.179 82.3867 202.198 82.3373C202.217 82.2879 202.224 82.2347 202.219 82.182C202.22 82.1283 202.209 82.075 202.188 82.0259C202.166 81.9768 202.133 81.9332 202.093 81.8982C201.757 81.6025 201.325 81.4399 200.879 81.4409H196.527C196.434 81.44 196.345 81.4065 196.274 81.3463L178.662 66.1782C178.514 66.0068 178.331 65.8695 178.124 65.7755C177.918 65.6815 177.694 65.633 177.468 65.6333C177.241 65.6337 177.017 65.6829 176.811 65.7776C176.606 65.8722 176.422 66.0102 176.275 66.182C176.127 66.3538 176.018 66.5554 175.955 66.7731C175.892 66.9908 175.877 67.2195 175.911 67.4436C175.944 67.6677 176.026 67.8819 176.15 68.0717C176.274 68.2614 176.437 68.4223 176.628 68.5433L194.099 83.5222C194.143 83.5588 194.178 83.6046 194.203 83.6564C194.227 83.7081 194.24 83.7645 194.24 83.8218V89.3561Z" fill="#111111"/>
<path d="M202.597 94.7643C202.527 94.7323 202.448 94.7227 202.372 94.7368C202.296 94.7509 202.226 94.788 202.171 94.8431L195.47 101.544C195.424 101.591 195.392 101.649 195.375 101.713C195.358 101.777 195.359 101.843 195.376 101.907C195.386 101.971 195.414 102.031 195.455 102.081C195.497 102.131 195.551 102.169 195.612 102.191C195.8 102.254 195.997 102.286 196.196 102.285H200.926C201.436 102.273 201.921 102.062 202.278 101.696C202.634 101.331 202.834 100.841 202.834 100.33V95.0796C202.825 95.0109 202.799 94.9456 202.758 94.8903C202.716 94.8349 202.661 94.7915 202.597 94.7643Z" fill="#111111"/>
</g>
</g>
<g id="Size=48px, Filled=true">
<g id="Vector_14">
<path d="M247.558 88.1379L249.242 86.7945C249.627 86.4828 249.874 86.0329 249.93 85.5413C249.987 85.0497 249.849 84.5554 249.545 84.1646C249.233 83.7747 248.779 83.5241 248.283 83.4674C247.787 83.4107 247.288 83.5524 246.896 83.8618L245.572 84.9214C245.5 84.9629 245.418 84.9848 245.335 84.9848C245.252 84.9848 245.171 84.9629 245.099 84.9214C245.022 84.8841 244.956 84.8282 244.906 84.7588C244.857 84.6894 244.825 84.6087 244.815 84.524L244.607 82.4428C244.474 81.031 243.818 79.7198 242.768 78.7674C241.717 77.8149 240.349 77.2901 238.931 77.2963H228.089C226.677 77.2892 225.313 77.8087 224.263 78.7534C223.214 79.698 222.554 80.9999 222.413 82.4049L222.205 84.5051C222.197 84.5882 222.166 84.6674 222.116 84.7342C222.066 84.801 221.998 84.8526 221.921 84.8835C221.849 84.9251 221.767 84.9469 221.684 84.9469C221.601 84.9469 221.52 84.9251 221.448 84.8835L220.161 83.8429C219.767 83.6393 219.314 83.5806 218.881 83.6769C218.448 83.7733 218.063 84.0187 217.793 84.3702C217.522 84.7217 217.384 85.157 217.402 85.6001C217.42 86.0432 217.593 86.466 217.891 86.7945L219.556 88.119C219.608 88.163 219.651 88.2179 219.68 88.28C219.71 88.3421 219.725 88.4098 219.726 88.4785C219.73 88.5479 219.716 88.6171 219.687 88.6799C219.657 88.7427 219.612 88.797 219.556 88.838C218.964 89.3212 218.487 89.9302 218.159 90.6208C217.832 91.3113 217.663 92.0661 217.664 92.8303V97.0496C217.666 97.4819 217.754 97.9096 217.921 98.308C218.089 98.7065 218.334 99.0681 218.641 99.372C218.949 99.676 219.313 99.9164 219.713 100.08C220.114 100.243 220.542 100.325 220.975 100.323H222.375C222.5 100.323 222.621 100.373 222.709 100.461C222.798 100.55 222.848 100.67 222.848 100.796V103.142C222.848 103.895 223.147 104.617 223.679 105.149C224.211 105.681 224.933 105.98 225.686 105.98C226.439 105.98 227.161 105.681 227.693 105.149C228.225 104.617 228.524 103.895 228.524 103.142V100.796C228.524 100.67 228.574 100.55 228.663 100.461C228.751 100.373 228.872 100.323 228.997 100.323H238.457C238.583 100.323 238.703 100.373 238.792 100.461C238.881 100.55 238.931 100.67 238.931 100.796V103.142C238.931 103.895 239.23 104.617 239.762 105.149C240.294 105.681 241.016 105.98 241.769 105.98C242.521 105.98 243.243 105.681 243.775 105.149C244.308 104.617 244.607 103.895 244.607 103.142V100.796C244.607 100.67 244.657 100.55 244.745 100.461C244.834 100.373 244.954 100.323 245.08 100.323H246.404C247.215 100.243 247.968 99.8629 248.514 99.2575C249.059 98.6521 249.36 97.8648 249.356 97.0496V92.8303C249.358 92.0686 249.189 91.3162 248.861 90.6285C248.534 89.9408 248.056 89.3354 247.464 88.8569C247.412 88.8125 247.37 88.7574 247.342 88.6953C247.313 88.6332 247.298 88.5657 247.298 88.4974C247.298 88.4291 247.313 88.3616 247.342 88.2995C247.37 88.2374 247.412 88.1823 247.464 88.1379H247.558ZM224.759 97.0496C224.201 97.0496 223.656 96.8842 223.193 96.5745C222.729 96.2647 222.368 95.8244 222.154 95.3093C221.941 94.7941 221.885 94.2273 221.994 93.6804C222.103 93.1335 222.371 92.6312 222.765 92.2369C223.16 91.8427 223.662 91.5742 224.209 91.4654C224.756 91.3566 225.323 91.4124 225.838 91.6258C226.353 91.8392 226.793 92.2005 227.103 92.6641C227.413 93.1278 227.578 93.6728 227.578 94.2304C227.578 94.9781 227.281 95.6952 226.752 96.2239C226.224 96.7526 225.507 97.0496 224.759 97.0496ZM226.386 87.2108C226.317 87.2102 226.25 87.1947 226.188 87.1653C226.125 87.1359 226.071 87.0933 226.027 87.0405C225.981 86.9937 225.946 86.9368 225.927 86.8743C225.907 86.8119 225.902 86.7456 225.913 86.681L226.31 82.8969C226.357 82.4285 226.577 81.9946 226.927 81.6797C227.277 81.3648 227.732 81.1916 228.202 81.194H239.12C239.596 81.1925 240.056 81.3709 240.407 81.6936C240.758 82.0163 240.974 82.4596 241.012 82.9347L241.39 86.7189C241.401 86.7835 241.396 86.8497 241.376 86.9122C241.357 86.9747 241.323 87.0316 241.277 87.0784C241.237 87.1307 241.185 87.1732 241.126 87.2027C241.067 87.2322 241.002 87.2479 240.936 87.2486L226.386 87.2108ZM242.563 97.0496C242.006 97.0496 241.461 96.8842 240.997 96.5745C240.533 96.2647 240.172 95.8244 239.959 95.3093C239.745 94.7941 239.69 94.2273 239.798 93.6804C239.907 93.1335 240.176 92.6312 240.57 92.2369C240.964 91.8427 241.466 91.5742 242.013 91.4654C242.56 91.3566 243.127 91.4124 243.642 91.6258C244.157 91.8392 244.598 92.2005 244.907 92.6641C245.217 93.1278 245.382 93.6728 245.382 94.2304C245.383 94.6071 245.307 94.98 245.161 95.327C245.015 95.6741 244.8 95.9883 244.53 96.2511C244.26 96.5139 243.941 96.72 243.59 96.8571C243.239 96.9943 242.864 97.0597 242.488 97.0496H242.563Z" fill="#111111"/>
<path d="M262.317 85.9431C262.232 85.9047 262.138 85.8932 262.046 85.9101C261.955 85.927 261.871 85.9716 261.806 86.0377L252.345 95.4035C252.268 95.4861 252.221 95.5931 252.213 95.7062V101.382C252.213 101.475 252.239 101.565 252.29 101.642C252.34 101.72 252.412 101.781 252.497 101.818C252.581 101.856 252.676 101.868 252.767 101.851C252.858 101.834 252.942 101.789 253.008 101.723L262.468 92.2626C262.55 92.1751 262.597 92.0608 262.6 91.941V86.2648C262.585 86.1912 262.551 86.1229 262.501 86.0665C262.451 86.0102 262.388 85.9676 262.317 85.9431Z" fill="#111111"/>
<path d="M252.289 90.4273C252.288 90.5196 252.315 90.61 252.365 90.6874C252.416 90.7647 252.488 90.8256 252.572 90.8625C252.648 90.9138 252.737 90.9412 252.828 90.9412C252.919 90.9412 253.008 90.9138 253.083 90.8625L261.73 82.159C261.778 82.1169 261.815 82.0641 261.838 82.0048C261.861 81.9455 261.869 81.8816 261.862 81.8184C261.864 81.7539 261.851 81.69 261.825 81.6311C261.799 81.5722 261.76 81.5198 261.711 81.4778C261.309 81.123 260.791 80.9278 260.254 80.9291H255.032C254.921 80.928 254.814 80.8878 254.729 80.8156L233.595 62.6138C233.417 62.4082 233.197 62.2434 232.949 62.1306C232.702 62.0177 232.433 61.9596 232.161 61.96C231.889 61.9604 231.621 62.0195 231.374 62.1331C231.127 62.2467 230.907 62.4122 230.73 62.6184C230.552 62.8245 230.422 63.0665 230.346 63.3277C230.271 63.589 230.253 63.8634 230.293 64.1323C230.333 64.4012 230.431 64.6583 230.58 64.886C230.728 65.1137 230.924 65.3067 231.154 65.4519L252.118 83.4266C252.171 83.4706 252.214 83.5255 252.243 83.5876C252.272 83.6497 252.288 83.7174 252.289 83.7861V90.4273Z" fill="#111111"/>
<path d="M262.317 96.9171C262.232 96.8788 262.138 96.8673 262.046 96.8842C261.955 96.9011 261.871 96.9456 261.806 97.0118L253.764 105.053C253.709 105.11 253.67 105.179 253.65 105.256C253.63 105.332 253.63 105.412 253.651 105.488C253.663 105.565 253.696 105.637 253.746 105.697C253.796 105.757 253.861 105.803 253.935 105.829C254.16 105.905 254.397 105.943 254.635 105.942H260.311C260.923 105.928 261.506 105.674 261.933 105.235C262.361 104.797 262.601 104.209 262.6 103.596V97.2956C262.59 97.2131 262.559 97.1348 262.509 97.0683C262.459 97.0019 262.393 96.9498 262.317 96.9171Z" fill="#111111"/>
</g>
</g>
</g>
<defs>
<clipPath id="clip0_1126_885">
<rect width="264" height="108" fill="white"/>
</clipPath>
</defs>
</svg>
