<svg width="264" height="108" viewBox="0 0 264 108" fill="none" xmlns="http://www.w3.org/2000/svg">
<g id="Travel map">
<g clip-path="url(#clip0_1126_879)">
<g id="Size=12px, Filled=false">
<path id="Vector" d="M10.8125 22.3266V20.309C10.8125 20.0245 10.6414 19.7686 10.3803 19.6629L7.63029 18.5497C7.46641 18.4834 7.28359 18.4834 7.11971 18.5497L4.19279 19.7348C4.02891 19.8011 3.8461 19.8011 3.68221 19.7348L0.971629 18.6374C0.865425 18.5943 0.745005 18.6076 0.650403 18.6727C0.555801 18.7378 0.49942 18.8463 0.500004 18.9621V25.6285C0.499958 25.913 0.671138 26.1689 0.932213 26.2746L3.68221 27.3878C3.8461 27.4541 4.02891 27.4541 4.19279 27.3878L5.51325 26.853M3.9375 19.875V27.4375M7.375 18.5V22.625M9.4375 24C10.5766 24 11.5 24.9291 11.5 26.0753C11.5 26.9612 10.268 28.6467 9.70838 29.3671C9.64323 29.451 9.54331 29.5 9.4375 29.5C9.33169 29.5 9.23177 29.451 9.16662 29.3671C8.607 28.6472 7.375 26.9612 7.375 26.0753C7.375 24.9291 8.29841 24 9.4375 24ZM9.4375 26.75C9.8172 26.75 10.125 26.4422 10.125 26.0625C10.125 25.6828 9.8172 25.375 9.4375 25.375C9.0578 25.375 8.75 25.6828 8.75 26.0625C8.75 26.4422 9.0578 26.75 9.4375 26.75Z" stroke="#111111" stroke-width="0.75" stroke-linecap="round" stroke-linejoin="round"/>
</g>
<g id="Size=16px, Filled=false">
<path id="Vector_2" d="M38.125 21.8702V19.3024C38.1251 18.9402 37.9072 18.6145 37.5749 18.4801L34.0749 17.0633C33.8663 16.9789 33.6337 16.9789 33.4251 17.0633L29.6999 18.5716C29.4913 18.656 29.2587 18.656 29.0501 18.5716L25.6003 17.1749C25.4651 17.1201 25.3118 17.1369 25.1914 17.2198C25.071 17.3027 24.9993 17.4407 25 17.5881V26.0726C24.9999 26.4348 25.2178 26.7605 25.5501 26.8949L29.0501 28.3117C29.2587 28.3961 29.4913 28.3961 29.6999 28.3117L31.3805 27.6311M29.375 18.75V28.375M33.75 17V22.25M36.375 24C37.8247 24 39 25.1825 39 26.6412C39 27.7687 37.432 29.914 36.7198 30.8308C36.6368 30.9376 36.5097 31 36.375 31C36.2403 31 36.1132 30.9376 36.0302 30.8308C35.318 29.9146 33.75 27.7687 33.75 26.6412C33.75 25.1825 34.9253 24 36.375 24ZM36.375 27.5C36.8582 27.5 37.25 27.1082 37.25 26.625C37.25 26.1418 36.8582 25.75 36.375 25.75C35.8918 25.75 35.5 26.1418 35.5 26.625C35.5 27.1082 35.8918 27.5 36.375 27.5Z" stroke="#111111" stroke-linecap="round" stroke-linejoin="round"/>
</g>
<g id="Size=20px, Filled=false">
<path id="Vector_3" d="M69.875 21.2617V17.9602C69.8751 17.4946 69.595 17.0758 69.1678 16.9029L64.6678 15.0814C64.3996 14.9729 64.1004 14.9729 63.8323 15.0814L59.0428 17.0206C58.7746 17.1291 58.4754 17.1291 58.2073 17.0206L53.7718 15.2248C53.598 15.1544 53.4009 15.176 53.2461 15.2826C53.0913 15.3891 52.9991 15.5667 53 15.7561V26.6648C52.9999 27.1304 53.28 27.5492 53.7073 27.7221L58.2073 29.5436C58.4754 29.6521 58.7746 29.6521 59.0428 29.5436L61.2035 28.6685M58.625 17.25V29.625M64.25 15V21.75M67.625 24C69.489 24 71 25.5204 71 27.3959C71 28.8455 68.984 31.6037 68.0683 32.7825C67.9616 32.9198 67.7981 33 67.625 33C67.4519 33 67.2884 32.9198 67.1817 32.7825C66.266 31.6045 64.25 28.8455 64.25 27.3959C64.25 25.5204 65.761 24 67.625 24ZM67.625 28.5C68.2463 28.5 68.75 27.9963 68.75 27.375C68.75 26.7537 68.2463 26.25 67.625 26.25C67.0037 26.25 66.5 26.7537 66.5 27.375C66.5 27.9963 67.0037 28.5 67.625 28.5Z" stroke="#111111" stroke-width="1.25" stroke-linecap="round" stroke-linejoin="round"/>
</g>
<g id="Size=24px, Filled=false">
<path id="Vector_4" d="M106.5 21.2651V17.1709C106.5 16.5935 106.152 16.0742 105.62 15.8598L100.02 13.6009C99.6861 13.4664 99.3139 13.4664 98.9801 13.6009L93.0199 16.0057C92.6861 16.1403 92.3139 16.1403 91.9801 16.0057L86.4604 13.7788C86.2441 13.6914 85.9989 13.7183 85.8063 13.8504C85.6136 13.9826 85.4988 14.2027 85.5 14.4377V27.9655C85.4999 28.5429 85.8485 29.0621 86.3801 29.2766L91.9801 31.5354C92.3139 31.67 92.6861 31.67 93.0199 31.5354L95.7088 30.4502M92.1818 16.3636V30.6818M99.8182 13.5V21.1364M102.205 23.0455C104.577 23.0455 106.5 24.9805 106.5 27.3675C106.5 29.2125 103.934 32.7229 102.769 34.2232C102.633 34.3979 102.425 34.5 102.205 34.5C101.984 34.5 101.776 34.3979 101.64 34.2232C100.475 32.7239 97.9091 29.2125 97.9091 27.3675C97.9091 24.9805 99.8322 23.0455 102.205 23.0455ZM102.205 28.7727C102.995 28.7727 103.636 28.1317 103.636 27.3409C103.636 26.5501 102.995 25.9091 102.205 25.9091C101.414 25.9091 100.773 26.5501 100.773 27.3409C100.773 28.1317 101.414 28.7727 102.205 28.7727Z" stroke="#111111" stroke-width="1.5" stroke-linecap="round" stroke-linejoin="round"/>
</g>
<g id="Size=32px, Filled=false">
<path id="Vector_5" d="M148.25 19.7404V14.6047C148.25 13.8804 147.814 13.2291 147.15 12.9601L140.15 10.1266C139.733 9.95779 139.267 9.95779 138.85 10.1266L131.4 13.1431C130.983 13.3119 130.517 13.3119 130.1 13.1431L123.201 10.3498C122.93 10.2401 122.624 10.2738 122.383 10.4396C122.142 10.6053 121.999 10.8815 122 11.1762V28.1453C122 28.8696 122.436 29.5209 123.1 29.7899L130.1 32.6234C130.517 32.7922 130.983 32.7922 131.4 32.6234L134.761 31.2621M130.75 13.5V32.75M139.5 10V20.5M144.75 24C147.649 24 150 26.365 150 29.2825C150 31.5375 146.864 35.828 145.44 37.6616C145.274 37.8752 145.019 38 144.75 38C144.481 38 144.226 37.8752 144.06 37.6616C142.636 35.8292 139.5 31.5375 139.5 29.2825C139.5 26.365 141.851 24 144.75 24ZM144.75 31C145.716 31 146.5 30.2165 146.5 29.25C146.5 28.2835 145.716 27.5 144.75 27.5C143.784 27.5 143 28.2835 143 29.25C143 30.2165 143.784 31 144.75 31Z" stroke="#111111" stroke-width="2" stroke-linecap="round" stroke-linejoin="round"/>
</g>
<g id="Size=40px, Filled=false">
<path id="Vector_6" d="M199.312 18.6755V12.2559C199.313 11.3505 198.768 10.5363 197.937 10.2001L189.187 6.65828C188.666 6.44724 188.084 6.44724 187.563 6.65828L178.25 10.4289C177.728 10.6399 177.147 10.6399 176.625 10.4289L168.001 6.9372C167.663 6.80015 167.28 6.84222 166.979 7.04944C166.678 7.25665 166.498 7.60184 166.5 7.97024V29.1816C166.5 30.087 167.045 30.9012 167.875 31.2374L176.625 34.7792C177.147 34.9903 177.728 34.9903 178.25 34.7792L182.451 33.0777M177.438 10.875V34.9375M188.375 6.5V19.625M194.938 24C198.562 24 201.5 26.9563 201.5 30.6031C201.5 33.4219 197.58 38.785 195.799 41.077C195.592 41.344 195.274 41.5 194.938 41.5C194.601 41.5 194.283 41.344 194.076 41.077C192.295 38.7865 188.375 33.4219 188.375 30.6031C188.375 26.9563 191.313 24 194.938 24ZM194.938 32.75C196.146 32.75 197.125 31.7706 197.125 30.5625C197.125 29.3544 196.146 28.375 194.938 28.375C193.729 28.375 192.75 29.3544 192.75 30.5625C192.75 31.7706 193.729 32.75 194.938 32.75Z" stroke="#111111" stroke-width="2.5" stroke-linecap="round" stroke-linejoin="round"/>
</g>
<g id="Size=48px, Filled=false">
<path id="Vector_7" d="M258.375 17.6106V9.90708C258.375 8.82065 257.722 7.8436 256.725 7.44017L246.225 3.18993C245.599 2.93669 244.901 2.93669 244.275 3.18993L233.1 7.71467C232.474 7.96791 231.776 7.96791 231.15 7.71467L220.801 3.52464C220.395 3.36018 219.935 3.41067 219.574 3.65933C219.213 3.90798 218.998 4.32221 219 4.76429V30.2179C219 31.3044 219.653 32.2814 220.65 32.6848L231.15 36.9351C231.776 37.1883 232.474 37.1883 233.1 36.9351L238.142 34.8932M232.125 8.25V37.125M245.25 3V18.75M253.125 24C257.474 24 261 27.5476 261 31.9237C261 35.3062 256.296 41.742 254.159 44.4925C253.911 44.8128 253.529 45 253.125 45C252.721 45 252.339 44.8128 252.091 44.4925C249.954 41.7438 245.25 35.3062 245.25 31.9237C245.25 27.5476 248.776 24 253.125 24ZM253.125 34.5C254.575 34.5 255.75 33.3247 255.75 31.875C255.75 30.4253 254.575 29.25 253.125 29.25C251.675 29.25 250.5 30.4253 250.5 31.875C250.5 33.3247 251.675 34.5 253.125 34.5Z" stroke="#111111" stroke-width="3" stroke-linecap="round" stroke-linejoin="round"/>
</g>
<g id="Size=12px, Filled=true" clip-path="url(#clip1_1126_879)">
<path id="Vector_8" fill-rule="evenodd" clip-rule="evenodd" d="M7.05091 82.9487C6.96496 82.8628 6.91667 82.7462 6.91667 82.6246V80.026C6.91629 80.0049 6.91009 79.9843 6.89877 79.9666C6.88745 79.9488 6.87144 79.9344 6.8525 79.9252C6.83424 79.9151 6.81375 79.9099 6.79292 79.9099C6.77209 79.9099 6.75159 79.9151 6.73333 79.9252L4.72125 81.3643C4.69159 81.3858 4.66742 81.4141 4.6507 81.4467C4.63398 81.4794 4.62518 81.5155 4.625 81.5522V87.4186C4.62652 87.4382 4.63327 87.4571 4.64456 87.4732C4.65584 87.4893 4.67125 87.5021 4.68917 87.5103C4.70742 87.5203 4.72792 87.5256 4.74875 87.5256C4.76958 87.5256 4.79008 87.5203 4.80833 87.5103L6.04125 86.6395C6.09051 86.6043 6.14625 86.5792 6.20525 86.5657C6.26426 86.5522 6.32535 86.5505 6.38501 86.5607C6.44467 86.571 6.50171 86.5929 6.55284 86.6253C6.60397 86.6577 6.64818 86.6999 6.68292 86.7495C6.74825 86.8476 6.77328 86.9671 6.7528 87.0832C6.73231 87.1992 6.66789 87.303 6.57292 87.3728L4.57 88.8073C4.453 88.8892 4.31404 88.9339 4.17125 88.9356C4.0225 88.9356 3.87775 88.8874 3.75875 88.7981L0.775 86.5616C0.689877 86.4973 0.620765 86.4142 0.573061 86.3188C0.525358 86.2234 0.500353 86.1182 0.5 86.0116V79.1873C0.500275 79.0586 0.536451 78.9324 0.604464 78.8231C0.672476 78.7138 0.769629 78.6257 0.885 78.5686C1.00172 78.5126 1.13173 78.4902 1.26045 78.5039C1.38917 78.5177 1.51151 78.5671 1.61375 78.6465L4.04292 80.5256C4.08156 80.5557 4.12914 80.572 4.17812 80.572C4.22711 80.572 4.27469 80.5557 4.31333 80.5256L6.97625 78.6281C7.09269 78.5452 7.23207 78.5007 7.375 78.5007C7.51793 78.5007 7.65731 78.5452 7.77375 78.6281L10.7529 80.7547C10.8421 80.8182 10.9148 80.9021 10.965 80.9993C11.0153 81.0966 11.0415 81.2044 11.0417 81.3139V82.6246C11.0417 82.7462 10.9934 82.8628 10.9074 82.9487C10.8215 83.0347 10.7049 83.083 10.5833 83.083C10.4618 83.083 10.3452 83.0347 10.2592 82.9487C10.1733 82.8628 10.125 82.7462 10.125 82.6246V81.543C10.1248 81.5063 10.116 81.4702 10.0993 81.4376C10.0826 81.4049 10.0584 81.3767 10.0288 81.3551L8.01667 79.916C7.99841 79.906 7.97792 79.9007 7.95708 79.9007C7.93625 79.9007 7.91576 79.906 7.8975 79.916C7.87856 79.9253 7.86255 79.9396 7.85123 79.9574C7.83991 79.9752 7.83371 79.9958 7.83333 80.0168V82.6246C7.83333 82.7462 7.78504 82.8628 7.69909 82.9487C7.61314 83.0347 7.49656 83.083 7.375 83.083C7.25344 83.083 7.13686 83.0347 7.05091 82.9487ZM3.69114 87.4464C3.70252 87.4285 3.70849 87.4077 3.70833 87.3865V81.5339C3.71072 81.4971 3.70403 81.4603 3.68884 81.4267C3.67366 81.3932 3.65044 81.3638 3.62125 81.3414L1.6 79.7831C1.58298 79.7703 1.56273 79.7626 1.54154 79.7606C1.52035 79.7587 1.49904 79.7628 1.48001 79.7723C1.46097 79.7818 1.44497 79.7964 1.43378 79.8145C1.42259 79.8326 1.41667 79.8535 1.41667 79.8748V85.7916C1.41701 85.8271 1.42545 85.8621 1.44133 85.8938C1.45722 85.9256 1.48013 85.9533 1.50833 85.9749L3.525 87.4873C3.54326 87.4974 3.56375 87.5026 3.58458 87.5026C3.60541 87.5026 3.62591 87.4974 3.64417 87.4873C3.66344 87.4785 3.67976 87.4643 3.69114 87.4464ZM7.58788 84.2124C8.01765 83.7827 8.60055 83.5412 9.20833 83.5412C9.50928 83.5412 9.80728 83.6005 10.0853 83.7157C10.3634 83.8308 10.616 83.9996 10.8288 84.2124C11.0416 84.4252 11.2104 84.6778 11.3256 84.9558C11.4407 85.2339 11.5 85.5319 11.5 85.8328C11.5 87.2856 9.45583 89.3435 9.36875 89.4306C9.34818 89.4525 9.32333 89.47 9.29574 89.4819C9.26814 89.4938 9.2384 89.5 9.20833 89.5C9.17827 89.5 9.14852 89.4938 9.12093 89.4819C9.09334 89.47 9.06849 89.4525 9.04792 89.4306C8.96083 89.3435 6.91667 87.2856 6.91667 85.8328C6.91667 85.225 7.15811 84.6422 7.58788 84.2124ZM8.76272 86.4997C8.89462 86.5878 9.0497 86.6348 9.20833 86.6348C9.42106 86.6348 9.62507 86.5503 9.77549 86.3999C9.92591 86.2495 10.0104 86.0455 10.0104 85.8328C10.0104 85.6742 9.96338 85.5191 9.87524 85.3872C9.78711 85.2553 9.66184 85.1525 9.51528 85.0918C9.36872 85.0311 9.20744 85.0152 9.05186 85.0462C8.89627 85.0771 8.75335 85.1535 8.64118 85.2657C8.529 85.3778 8.45261 85.5207 8.42166 85.6763C8.39071 85.8319 8.4066 85.9932 8.46731 86.1397C8.52801 86.2863 8.63082 86.4115 8.76272 86.4997Z" fill="#111111"/>
</g>
<g id="Size=16px, Filled=true" clip-path="url(#clip2_1126_879)">
<path id="Vector_9" fill-rule="evenodd" clip-rule="evenodd" d="M33.3853 82.6142C33.272 82.5009 33.2083 82.3473 33.2083 82.187V78.7615C33.2078 78.7338 33.1997 78.7066 33.1847 78.6832C33.1698 78.6597 33.1487 78.6409 33.1237 78.6286C33.0997 78.6154 33.0727 78.6085 33.0452 78.6085C33.0177 78.6085 32.9907 78.6154 32.9667 78.6286L30.3144 80.5256C30.2753 80.5541 30.2434 80.5913 30.2214 80.6343C30.1993 80.6774 30.1877 80.725 30.1875 80.7733V88.5063C30.1895 88.5322 30.1984 88.5571 30.2133 88.5783C30.2282 88.5996 30.2485 88.6164 30.2721 88.6272C30.2962 88.6404 30.3232 88.6473 30.3506 88.6473C30.3781 88.6473 30.4051 88.6404 30.4292 88.6272L32.0544 87.4793C32.1193 87.4329 32.1928 87.3999 32.2706 87.3821C32.3483 87.3643 32.4289 87.3621 32.5075 87.3755C32.5861 87.389 32.6613 87.4179 32.7287 87.4606C32.7961 87.5033 32.8544 87.559 32.9002 87.6243C32.9863 87.7536 33.0193 87.9111 32.9923 88.0642C32.9653 88.2172 32.8804 88.3539 32.7552 88.4459L30.115 90.3369C29.9608 90.4448 29.7776 90.5038 29.5894 90.506C29.3933 90.506 29.2025 90.4424 29.0456 90.3248L25.1125 87.3766C25.0003 87.2919 24.9092 87.1823 24.8463 87.0566C24.7834 86.9308 24.7505 86.7922 24.75 86.6516V77.656C24.7504 77.4863 24.798 77.32 24.8877 77.176C24.9774 77.0319 25.1054 76.9157 25.2575 76.8404C25.4114 76.7666 25.5827 76.7371 25.7524 76.7552C25.9221 76.7733 26.0834 76.8384 26.2181 76.9431L29.4202 79.4201C29.4711 79.4597 29.5339 79.4813 29.5984 79.4813C29.663 79.4813 29.7257 79.4597 29.7767 79.4201L33.2869 76.9189C33.4404 76.8096 33.6241 76.7509 33.8125 76.7509C34.0009 76.7509 34.1846 76.8096 34.3381 76.9189L38.2652 79.7221C38.3827 79.8058 38.4786 79.9164 38.5448 80.0445C38.611 80.1727 38.6456 80.3149 38.6458 80.4592V82.187C38.6458 82.3473 38.5822 82.5009 38.4689 82.6142C38.3556 82.7275 38.2019 82.7912 38.0417 82.7912C37.8814 82.7912 37.7278 82.7275 37.6145 82.6142C37.5012 82.5009 37.4375 82.3473 37.4375 82.187V80.7613C37.4373 80.7129 37.4257 80.6653 37.4036 80.6223C37.3816 80.5792 37.3497 80.542 37.3106 80.5136L34.6583 78.6166C34.6343 78.6033 34.6073 78.5964 34.5798 78.5964C34.5523 78.5964 34.5253 78.6033 34.5013 78.6166C34.4763 78.6288 34.4552 78.6477 34.4403 78.6711C34.4253 78.6946 34.4172 78.7217 34.4167 78.7495V82.187C34.4167 82.3473 34.353 82.5009 34.2397 82.6142C34.1264 82.7275 33.9727 82.7912 33.8125 82.7912C33.6523 82.7912 33.4986 82.7275 33.3853 82.6142ZM28.9565 88.543C28.9715 88.5194 28.9794 88.492 28.9792 88.464V80.7492C28.9823 80.7007 28.9735 80.6522 28.9535 80.608C28.9335 80.5637 28.9029 80.5251 28.8644 80.4954L26.2 78.4414C26.1776 78.4245 26.1509 78.4143 26.1229 78.4118C26.095 78.4092 26.0669 78.4145 26.0418 78.4271C26.0167 78.4396 25.9956 78.4589 25.9809 78.4828C25.9661 78.5066 25.9583 78.5341 25.9583 78.5622V86.3616C25.9588 86.4084 25.9699 86.4545 25.9908 86.4964C26.0118 86.5383 26.042 86.5748 26.0792 86.6033L28.7375 88.597C28.7616 88.6102 28.7886 88.6171 28.816 88.6171C28.8435 88.6171 28.8705 88.6102 28.8946 88.597C28.92 88.5853 28.9415 88.5666 28.9565 88.543ZM34.0931 84.28C34.6596 83.7135 35.428 83.3953 36.2292 83.3953C36.6259 83.3953 37.0187 83.4734 37.3852 83.6252C37.7517 83.777 38.0847 83.9995 38.3652 84.28C38.6457 84.5605 38.8682 84.8935 39.0201 85.26C39.1719 85.6265 39.25 86.0193 39.25 86.416C39.25 88.3311 36.5554 91.0437 36.4406 91.1585C36.4135 91.1874 36.3807 91.2104 36.3444 91.2261C36.308 91.2419 36.2688 91.25 36.2292 91.25C36.1895 91.25 36.1503 91.2419 36.114 91.2261C36.0776 91.2104 36.0448 91.1874 36.0177 91.1585C35.9029 91.0437 33.2083 88.3311 33.2083 86.416C33.2083 85.6148 33.5266 84.8465 34.0931 84.28ZM35.6418 87.295C35.8156 87.4112 36.0201 87.4732 36.2292 87.4732C36.5096 87.4732 36.7785 87.3618 36.9768 87.1635C37.1751 86.9653 37.2865 86.6964 37.2865 86.416C37.2865 86.2069 37.2245 86.0024 37.1083 85.8286C36.9921 85.6547 36.827 85.5192 36.6338 85.4392C36.4406 85.3592 36.228 85.3382 36.0229 85.379C35.8178 85.4198 35.6294 85.5205 35.4815 85.6684C35.3337 85.8162 35.233 86.0046 35.1922 86.2097C35.1514 86.4148 35.1723 86.6274 35.2524 86.8205C35.3324 87.0137 35.4679 87.1789 35.6418 87.295Z" fill="#111111"/>
</g>
<g id="Size=20px, Filled=true">
<path id="Vector_10" fill-rule="evenodd" clip-rule="evenodd" d="M63.7197 82.2797C63.579 82.1391 63.5 81.9483 63.5 81.7494V77.4971C63.4994 77.4626 63.4892 77.4289 63.4707 77.3998C63.4522 77.3707 63.426 77.3473 63.395 77.3321C63.3651 77.3157 63.3316 77.3071 63.2975 77.3071C63.2634 77.3071 63.2299 77.3157 63.2 77.3321L59.9075 79.687C59.859 79.7223 59.8194 79.7685 59.7921 79.8219C59.7647 79.8754 59.7503 79.9345 59.75 79.9945V89.5941C59.7525 89.6262 59.7635 89.657 59.782 89.6834C59.8005 89.7098 59.8257 89.7307 59.855 89.7441C59.8849 89.7605 59.9184 89.7691 59.9525 89.7691C59.9866 89.7691 60.0201 89.7605 60.05 89.7441L62.0675 88.3191C62.1481 88.2616 62.2393 88.2206 62.3359 88.1985C62.4324 88.1763 62.5324 88.1736 62.63 88.1903C62.7276 88.2071 62.821 88.243 62.9046 88.296C62.9883 88.349 63.0607 88.418 63.1175 88.4991C63.2244 88.6597 63.2654 88.8552 63.2318 89.0452C63.1983 89.2351 63.0929 89.4048 62.9375 89.5191L59.66 91.8665C59.4686 92.0005 59.2412 92.0736 59.0075 92.0765C58.7641 92.0765 58.5272 91.9975 58.3325 91.8515L53.45 88.1916C53.3107 88.0864 53.1976 87.9505 53.1196 87.7944C53.0415 87.6383 53.0006 87.4662 53 87.2917V76.1246C53.0004 75.914 53.0596 75.7076 53.1709 75.5288C53.2822 75.3499 53.4412 75.2057 53.63 75.1122C53.821 75.0206 54.0337 74.9839 54.2444 75.0065C54.455 75.029 54.6552 75.1097 54.8225 75.2397L58.7975 78.3146C58.8607 78.3638 58.9386 78.3906 59.0187 78.3906C59.0989 78.3906 59.1768 78.3638 59.24 78.3146L63.5975 75.2097C63.788 75.074 64.0161 75.0011 64.25 75.0011C64.4839 75.0011 64.712 75.074 64.9025 75.2097L69.7775 78.6895C69.9234 78.7934 70.0424 78.9306 70.1246 79.0898C70.2068 79.2489 70.2498 79.4254 70.25 79.6045V81.7494C70.25 81.9483 70.171 82.1391 70.0303 82.2797C69.8897 82.4204 69.6989 82.4994 69.5 82.4994C69.3011 82.4994 69.1103 82.4204 68.9697 82.2797C68.829 82.1391 68.75 81.9483 68.75 81.7494V79.9795C68.7497 79.9195 68.7353 79.8604 68.7079 79.8069C68.6806 79.7535 68.641 79.7073 68.5925 79.672L65.3 77.3171C65.2701 77.3007 65.2366 77.2921 65.2025 77.2921C65.1684 77.2921 65.1349 77.3007 65.105 77.3171C65.074 77.3323 65.0478 77.3557 65.0293 77.3848C65.0108 77.4139 65.0006 77.4476 65 77.4821V81.7494C65 81.9483 64.921 82.1391 64.7803 82.2797C64.6397 82.4204 64.4489 82.4994 64.25 82.4994C64.0511 82.4994 63.8603 82.4204 63.7197 82.2797ZM58.2219 89.6396C58.2405 89.6103 58.2503 89.5763 58.25 89.5416V79.9645C58.2539 79.9043 58.243 79.8441 58.2181 79.7892C58.1933 79.7343 58.1553 79.6863 58.1075 79.6495L54.8 77.0996C54.7721 77.0787 54.739 77.066 54.7043 77.0629C54.6697 77.0597 54.6348 77.0663 54.6036 77.0819C54.5725 77.0975 54.5463 77.1214 54.528 77.151C54.5097 77.1807 54.5 77.2148 54.5 77.2496V86.9317C54.5006 86.9898 54.5144 87.047 54.5404 87.099C54.5664 87.151 54.6038 87.1964 54.65 87.2317L57.95 89.7066C57.9799 89.723 58.0134 89.7316 58.0475 89.7316C58.0816 89.7316 58.1151 89.723 58.145 89.7066C58.1765 89.6921 58.2032 89.6688 58.2219 89.6396ZM64.5983 84.3476C65.3016 83.6444 66.2554 83.2493 67.25 83.2493C67.7425 83.2493 68.2301 83.3463 68.6851 83.5347C69.14 83.7232 69.5534 83.9994 69.9016 84.3476C70.2499 84.6958 70.5261 85.1092 70.7145 85.5641C70.903 86.0191 71 86.5067 71 86.9991C71 89.3765 67.655 92.7439 67.5125 92.8864C67.4788 92.9222 67.4382 92.9508 67.393 92.9704C67.3479 92.9899 67.2992 93 67.25 93C67.2008 93 67.1521 92.9899 67.107 92.9704C67.0618 92.9508 67.0212 92.9222 66.9875 92.8864C66.845 92.7439 63.5 89.3765 63.5 86.9991C63.5 86.0046 63.8951 85.0508 64.5983 84.3476ZM66.5208 88.0904C66.7367 88.2346 66.9904 88.3116 67.25 88.3116C67.5981 88.3116 67.9319 88.1733 68.1781 87.9272C68.4242 87.681 68.5625 87.3472 68.5625 86.9991C68.5625 86.7395 68.4855 86.4858 68.3413 86.27C68.1971 86.0541 67.9921 85.8859 67.7523 85.7866C67.5124 85.6872 67.2485 85.6613 66.9939 85.7119C66.7393 85.7625 66.5055 85.8875 66.3219 86.0711C66.1384 86.2546 66.0134 86.4885 65.9627 86.7431C65.9121 86.9977 65.9381 87.2616 66.0374 87.5014C66.1367 87.7412 66.305 87.9462 66.5208 88.0904Z" fill="#111111"/>
</g>
<g id="Size=24px, Filled=true">
<path id="Vector_11" fill-rule="evenodd" clip-rule="evenodd" d="M98.0063 81.993C97.8422 81.8289 97.75 81.6064 97.75 81.3743V76.4133C97.7493 76.373 97.7375 76.3338 97.7158 76.2998C97.6942 76.2658 97.6637 76.2385 97.6275 76.2208C97.5926 76.2016 97.5535 76.1916 97.5138 76.1916C97.474 76.1916 97.4349 76.2016 97.4 76.2208L93.5588 78.9682C93.5021 79.0093 93.456 79.0633 93.4241 79.1256C93.3921 79.1879 93.3753 79.2569 93.375 79.3269V90.5264C93.3779 90.5639 93.3908 90.5999 93.4123 90.6307C93.4339 90.6614 93.4633 90.6859 93.4975 90.7014C93.5324 90.7206 93.5715 90.7306 93.6112 90.7306C93.651 90.7306 93.6901 90.7206 93.725 90.7014L96.0788 89.039C96.1728 88.9718 96.2792 88.924 96.3918 88.8982C96.5045 88.8724 96.6211 88.8692 96.735 88.8887C96.8489 88.9082 96.9578 88.9501 97.0554 89.0119C97.153 89.0738 97.2374 89.1543 97.3038 89.249C97.4285 89.4363 97.4763 89.6644 97.4372 89.886C97.398 90.1076 97.2751 90.3056 97.0938 90.4389L93.27 93.1776C93.0466 93.3339 92.7814 93.4192 92.5087 93.4225C92.2248 93.4225 91.9484 93.3304 91.7213 93.1601L86.025 88.8902C85.8625 88.7675 85.7306 88.6089 85.6395 88.4268C85.5484 88.2446 85.5007 88.0439 85.5 87.8403V74.8121C85.5005 74.5663 85.5696 74.3256 85.6994 74.1169C85.8293 73.9083 86.0147 73.7399 86.235 73.6309C86.4578 73.524 86.706 73.4813 86.9518 73.5075C87.1975 73.5338 87.4311 73.628 87.6263 73.7796L92.2638 77.367C92.3375 77.4245 92.4284 77.4557 92.5219 77.4557C92.6154 77.4557 92.7062 77.4245 92.78 77.367L97.8638 73.7446C98.086 73.5864 98.3521 73.5013 98.625 73.5013C98.8979 73.5013 99.164 73.5864 99.3862 73.7446L105.074 77.8045C105.244 77.9257 105.383 78.0857 105.479 78.2714C105.575 78.4571 105.625 78.663 105.625 78.8719V81.3743C105.625 81.6064 105.533 81.8289 105.369 81.993C105.205 82.1571 104.982 82.2493 104.75 82.2493C104.518 82.2493 104.295 82.1571 104.131 81.993C103.967 81.8289 103.875 81.6064 103.875 81.3743V79.3094C103.875 79.2394 103.858 79.1704 103.826 79.1081C103.794 79.0458 103.748 78.9918 103.691 78.9507L99.85 76.2033C99.8151 76.1841 99.776 76.1741 99.7362 76.1741C99.6965 76.1741 99.6574 76.1841 99.6225 76.2033C99.5863 76.221 99.5558 76.2483 99.5342 76.2823C99.5125 76.3163 99.5007 76.3555 99.5 76.3958V81.3743C99.5 81.6064 99.4078 81.8289 99.2437 81.993C99.0796 82.1571 98.8571 82.2493 98.625 82.2493C98.3929 82.2493 98.1704 82.1571 98.0063 81.993ZM91.5922 90.5795C91.6139 90.5454 91.6253 90.5056 91.625 90.4652V79.2919C91.6296 79.2217 91.6168 79.1515 91.5878 79.0874C91.5588 79.0233 91.5145 78.9673 91.4587 78.9244L87.6 75.9495C87.5675 75.9252 87.5289 75.9103 87.4884 75.9067C87.4479 75.903 87.4073 75.9107 87.3709 75.9289C87.3346 75.9471 87.304 75.975 87.2827 76.0095C87.2613 76.0441 87.25 76.0839 87.25 76.1245V87.4203C87.2507 87.4881 87.2668 87.5549 87.2971 87.6155C87.3274 87.6761 87.3712 87.7291 87.425 87.7703L91.275 90.6577C91.3099 90.6768 91.349 90.6868 91.3888 90.6868C91.4285 90.6868 91.4676 90.6768 91.5025 90.6577C91.5393 90.6408 91.5704 90.6137 91.5922 90.5795ZM99.0314 84.4055C99.8519 83.5851 100.965 83.1242 102.125 83.1242C102.7 83.1242 103.268 83.2373 103.799 83.4572C104.33 83.677 104.812 83.9993 105.219 84.4055C105.625 84.8118 105.947 85.294 106.167 85.8248C106.387 86.3556 106.5 86.9245 106.5 87.499C106.5 90.2726 102.597 94.2012 102.431 94.3674C102.392 94.4093 102.345 94.4426 102.292 94.4654C102.239 94.4882 102.182 94.5 102.125 94.5C102.068 94.5 102.011 94.4882 101.958 94.4654C101.905 94.4426 101.858 94.4093 101.819 94.3674C101.653 94.2012 97.75 90.2726 97.75 87.499C97.75 86.3387 98.2109 85.2259 99.0314 84.4055ZM101.274 88.7721C101.526 88.9404 101.822 89.0302 102.125 89.0302C102.531 89.0302 102.921 88.8688 103.208 88.5817C103.495 88.2945 103.656 87.9051 103.656 87.499C103.656 87.1961 103.566 86.9001 103.398 86.6483C103.23 86.3965 102.991 86.2002 102.711 86.0843C102.431 85.9685 102.123 85.9381 101.826 85.9972C101.529 86.0563 101.256 86.2021 101.042 86.4163C100.828 86.6304 100.682 86.9032 100.623 87.2003C100.564 87.4973 100.594 87.8051 100.71 88.0849C100.826 88.3647 101.022 88.6039 101.274 88.7721Z" fill="#111111"/>
</g>
<g id="Size=32px, Filled=true">
<path id="Vector_12" fill-rule="evenodd" clip-rule="evenodd" d="M138.675 81.324C138.456 81.1052 138.333 80.8085 138.333 80.4991V73.8844C138.332 73.8307 138.317 73.7783 138.288 73.7331C138.259 73.6878 138.218 73.6513 138.17 73.6277C138.124 73.6022 138.071 73.5888 138.018 73.5888C137.965 73.5888 137.913 73.6022 137.867 73.6277L132.745 77.2909C132.669 77.3458 132.608 77.4177 132.565 77.5008C132.523 77.5839 132.5 77.6758 132.5 77.7692V92.7019C132.504 92.7518 132.521 92.7998 132.55 92.8409C132.579 92.8819 132.618 92.9145 132.663 92.9352C132.71 92.9607 132.762 92.9741 132.815 92.9741C132.868 92.9741 132.92 92.9607 132.967 92.9352L136.105 90.7186C136.23 90.6291 136.372 90.5653 136.522 90.5309C136.673 90.4965 136.828 90.4922 136.98 90.5183C137.132 90.5443 137.277 90.6001 137.407 90.6826C137.537 90.765 137.65 90.8725 137.738 90.9986C137.905 91.2484 137.968 91.5526 137.916 91.848C137.864 92.1435 137.7 92.4075 137.458 92.5852L132.36 96.2367C132.062 96.4452 131.708 96.559 131.345 96.5634C130.966 96.5634 130.598 96.4406 130.295 96.2134L122.7 90.5203C122.483 90.3567 122.307 90.1452 122.186 89.9024C122.065 89.6595 122.001 89.3919 122 89.1204V71.7495C122.001 71.4218 122.093 71.1008 122.266 70.8226C122.439 70.5443 122.686 70.3199 122.98 70.1745C123.277 70.032 123.608 69.975 123.936 70.0101C124.263 70.0451 124.575 70.1707 124.835 70.3728L131.018 75.156C131.117 75.2326 131.238 75.2742 131.362 75.2742C131.487 75.2742 131.608 75.2326 131.707 75.156L138.485 70.3262C138.781 70.1152 139.136 70.0018 139.5 70.0018C139.864 70.0018 140.219 70.1152 140.515 70.3262L148.098 75.7393C148.325 75.9009 148.51 76.1143 148.638 76.3619C148.766 76.6094 148.833 76.8839 148.833 77.1626V80.4991C148.833 80.8085 148.71 81.1052 148.492 81.324C148.273 81.5428 147.976 81.6657 147.667 81.6657C147.357 81.6657 147.06 81.5428 146.842 81.324C146.623 81.1052 146.5 80.8085 146.5 80.4991V77.7459C146.5 77.6525 146.477 77.5606 146.435 77.4775C146.392 77.3944 146.331 77.3225 146.255 77.2676L141.133 73.6044C141.087 73.5788 141.035 73.5655 140.982 73.5655C140.929 73.5655 140.876 73.5788 140.83 73.6044C140.782 73.628 140.741 73.6644 140.712 73.7097C140.683 73.755 140.668 73.8074 140.667 73.861V80.4991C140.667 80.8085 140.544 81.1052 140.325 81.324C140.106 81.5428 139.809 81.6657 139.5 81.6657C139.191 81.6657 138.894 81.5428 138.675 81.324ZM130.123 92.7727C130.152 92.7271 130.167 92.6742 130.167 92.6202V77.7225C130.173 77.6289 130.156 77.5353 130.117 77.4498C130.078 77.3644 130.019 77.2898 129.945 77.2326L124.8 73.2661C124.757 73.2336 124.705 73.2138 124.651 73.2089C124.597 73.204 124.543 73.2143 124.495 73.2385C124.446 73.2627 124.405 73.3 124.377 73.346C124.348 73.3921 124.333 73.4452 124.333 73.4994V88.5604C124.334 88.6508 124.356 88.7398 124.396 88.8207C124.437 88.9015 124.495 88.9721 124.567 89.027L129.7 92.8769C129.746 92.9024 129.799 92.9158 129.852 92.9158C129.905 92.9158 129.957 92.9024 130.003 92.8769C130.052 92.8544 130.094 92.8182 130.123 92.7727ZM140.042 84.5407C141.136 83.4468 142.62 82.8322 144.167 82.8322C144.933 82.8322 145.691 82.9831 146.399 83.2762C147.107 83.5694 147.75 83.999 148.291 84.5407C148.833 85.0823 149.263 85.7254 149.556 86.4331C149.849 87.1408 150 87.8993 150 88.6653C150 92.3635 144.797 97.6016 144.575 97.8232C144.523 97.879 144.459 97.9235 144.389 97.9539C144.319 97.9843 144.243 98 144.167 98C144.09 98 144.014 97.9843 143.944 97.9539C143.874 97.9235 143.811 97.879 143.758 97.8232C143.537 97.6016 138.333 92.3635 138.333 88.6653C138.333 87.1183 138.948 85.6346 140.042 84.5407ZM143.032 90.3628C143.368 90.5871 143.763 90.7069 144.167 90.7069C144.708 90.7069 145.227 90.4918 145.61 90.1089C145.993 89.726 146.208 89.2068 146.208 88.6653C146.208 88.2615 146.089 87.8668 145.864 87.5311C145.64 87.1953 145.321 86.9336 144.948 86.7791C144.575 86.6246 144.164 86.5842 143.768 86.6629C143.372 86.7417 143.009 86.9362 142.723 87.2217C142.437 87.5072 142.243 87.871 142.164 88.267C142.085 88.663 142.126 89.0735 142.28 89.4466C142.435 89.8196 142.697 90.1385 143.032 90.3628Z" fill="#111111"/>
</g>
<g id="Size=40px, Filled=true">
<path id="Vector_13" fill-rule="evenodd" clip-rule="evenodd" d="M187.344 80.655C187.07 80.3815 186.917 80.0106 186.917 79.6238V71.3555C186.915 71.2884 186.896 71.2229 186.86 71.1663C186.824 71.1097 186.773 71.0641 186.712 71.0346C186.654 71.0027 186.589 70.986 186.523 70.986C186.457 70.986 186.391 71.0027 186.333 71.0346L179.931 75.6136C179.837 75.6822 179.76 75.7721 179.707 75.876C179.654 75.9799 179.626 76.0948 179.625 76.2115V94.8774C179.63 94.9398 179.651 94.9998 179.687 95.0511C179.723 95.1024 179.772 95.1431 179.829 95.169C179.887 95.2009 179.952 95.2177 180.019 95.2177C180.085 95.2177 180.15 95.2009 180.208 95.169L184.131 92.3983C184.288 92.2864 184.465 92.2067 184.653 92.1637C184.841 92.1207 185.035 92.1153 185.225 92.1478C185.415 92.1804 185.596 92.2502 185.759 92.3532C185.922 92.4563 186.062 92.5906 186.173 92.7483C186.381 93.0604 186.46 93.4407 186.395 93.81C186.33 94.1794 186.125 94.5094 185.823 94.7315L179.45 99.2959C179.078 99.5564 178.636 99.6987 178.181 99.7042C177.708 99.7042 177.247 99.5507 176.869 99.2668L167.375 92.1504C167.104 91.9459 166.884 91.6815 166.732 91.3779C166.581 91.0744 166.501 90.7399 166.5 90.4005V68.6868C166.501 68.2772 166.616 67.876 166.832 67.5282C167.049 67.1804 167.358 66.8999 167.725 66.7182C168.096 66.54 168.51 66.4688 168.92 66.5126C169.329 66.5564 169.718 66.7134 170.044 66.9661L177.773 72.945C177.896 73.0408 178.047 73.0928 178.203 73.0928C178.359 73.0928 178.51 73.0408 178.633 72.945L187.106 66.9077C187.477 66.644 187.92 66.5022 188.375 66.5022C188.83 66.5022 189.273 66.644 189.644 66.9077L199.123 73.6741C199.407 73.8761 199.638 74.1429 199.798 74.4524C199.958 74.7618 200.041 75.1049 200.042 75.4532V79.6238C200.042 80.0106 199.888 80.3815 199.615 80.655C199.341 80.9285 198.97 81.0821 198.583 81.0821C198.197 81.0821 197.826 80.9285 197.552 80.655C197.279 80.3815 197.125 80.0106 197.125 79.6238V76.1823C197.124 76.0656 197.096 75.9507 197.043 75.8468C196.99 75.743 196.913 75.6531 196.819 75.5844L190.417 71.0055C190.359 70.9736 190.293 70.9568 190.227 70.9568C190.161 70.9568 190.096 70.9736 190.038 71.0055C189.977 71.035 189.926 71.0805 189.89 71.1372C189.854 71.1938 189.835 71.2592 189.833 71.3263V79.6238C189.833 80.0106 189.68 80.3815 189.406 80.655C189.133 80.9285 188.762 81.0821 188.375 81.0821C187.988 81.0821 187.617 80.9285 187.344 80.655ZM176.654 94.9658C176.69 94.9089 176.709 94.8427 176.708 94.7753V76.1532C176.716 76.0362 176.695 75.9191 176.646 75.8123C176.598 75.7055 176.524 75.6122 176.431 75.5407L170 70.5826C169.946 70.5419 169.881 70.5172 169.814 70.5111C169.747 70.5051 169.679 70.5179 169.618 70.5481C169.558 70.5784 169.507 70.625 169.471 70.6826C169.436 70.7402 169.417 70.8065 169.417 70.8742V89.7005C169.418 89.8135 169.445 89.9248 169.495 90.0258C169.546 90.1269 169.619 90.2151 169.708 90.2838L176.125 95.0961C176.183 95.128 176.248 95.1447 176.315 95.1447C176.381 95.1447 176.446 95.128 176.504 95.0961C176.566 95.068 176.617 95.0228 176.654 94.9658ZM189.052 84.6759C190.42 83.3085 192.274 82.5403 194.208 82.5403C195.166 82.5403 196.114 82.7289 196.999 83.0953C197.883 83.4617 198.687 83.9988 199.364 84.6759C200.041 85.3529 200.579 86.1567 200.945 87.0413C201.311 87.926 201.5 88.8741 201.5 89.8316C201.5 94.4543 194.996 101.002 194.719 101.279C194.653 101.349 194.574 101.404 194.486 101.442C194.399 101.48 194.304 101.5 194.208 101.5C194.113 101.5 194.018 101.48 193.93 101.442C193.842 101.404 193.763 101.349 193.698 101.279C193.421 101.002 186.917 94.4543 186.917 89.8316C186.917 87.8978 187.685 86.0432 189.052 84.6759ZM192.79 91.9535C193.21 92.2339 193.704 92.3836 194.208 92.3836C194.885 92.3836 195.534 92.1147 196.013 91.6361C196.492 91.1576 196.76 90.5084 196.76 89.8316C196.76 89.3269 196.611 88.8335 196.33 88.4138C196.05 87.9941 195.651 87.6671 195.185 87.4739C194.719 87.2808 194.206 87.2302 193.71 87.3287C193.215 87.4272 192.761 87.6702 192.404 88.0271C192.047 88.384 191.804 88.8387 191.705 89.3338C191.607 89.8288 191.657 90.3419 191.851 90.8082C192.044 91.2745 192.371 91.6731 192.79 91.9535Z" fill="#111111"/>
</g>
<g id="Size=48px, Filled=true">
<path id="Vector_14" fill-rule="evenodd" clip-rule="evenodd" d="M244.013 79.986C243.684 79.6578 243.5 79.2127 243.5 78.7486V68.8265C243.499 68.746 243.475 68.6675 243.432 68.5996C243.388 68.5317 243.327 68.477 243.255 68.4416C243.185 68.4033 243.107 68.3832 243.028 68.3832C242.948 68.3832 242.87 68.4033 242.8 68.4416L235.118 73.9363C235.004 74.0187 234.912 74.1266 234.848 74.2512C234.784 74.3758 234.751 74.5138 234.75 74.6538V97.0528C234.756 97.1278 234.782 97.1997 234.825 97.2613C234.868 97.3229 234.927 97.3717 234.995 97.4028C235.065 97.4411 235.143 97.4612 235.222 97.4612C235.302 97.4612 235.38 97.4411 235.45 97.4028L240.158 94.078C240.346 93.9437 240.558 93.848 240.784 93.7964C241.009 93.7448 241.242 93.7384 241.47 93.7774C241.698 93.8165 241.916 93.9002 242.111 94.0239C242.306 94.1476 242.475 94.3087 242.608 94.4979C242.857 94.8725 242.953 95.3288 242.874 95.772C242.796 96.2152 242.55 96.6113 242.188 96.8778L234.54 102.355C234.093 102.668 233.563 102.838 233.017 102.845C232.45 102.845 231.897 102.661 231.443 102.32L220.05 93.7805C219.725 93.535 219.461 93.2178 219.279 92.8535C219.097 92.4893 219.001 92.0878 219 91.6806V65.6242C219.001 65.1327 219.139 64.6512 219.399 64.2338C219.659 63.8165 220.029 63.4799 220.47 63.2618C220.916 63.048 221.412 62.9625 221.904 63.0151C222.395 63.0676 222.862 63.2561 223.253 63.5593L232.528 70.734C232.675 70.8489 232.857 70.9113 233.044 70.9113C233.231 70.9113 233.412 70.8489 233.56 70.734L243.728 63.4893C244.172 63.1728 244.704 63.0027 245.25 63.0027C245.796 63.0027 246.328 63.1728 246.772 63.4893L258.148 71.6089C258.488 71.8513 258.766 72.1715 258.957 72.5428C259.149 72.9142 259.249 73.3259 259.25 73.7438V78.7486C259.25 79.2127 259.066 79.6578 258.737 79.986C258.409 80.3142 257.964 80.4985 257.5 80.4985C257.036 80.4985 256.591 80.3142 256.263 79.986C255.934 79.6578 255.75 79.2127 255.75 78.7486V74.6188C255.749 74.4788 255.716 74.3408 255.652 74.2162C255.588 74.0916 255.496 73.9837 255.382 73.9013L247.7 68.4066C247.63 68.3683 247.552 68.3482 247.472 68.3482C247.393 68.3482 247.315 68.3683 247.245 68.4066C247.173 68.442 247.112 68.4967 247.068 68.5646C247.025 68.6325 247.001 68.711 247 68.7915V78.7486C247 79.2127 246.816 79.6578 246.487 79.986C246.159 80.3142 245.714 80.4985 245.25 80.4985C244.786 80.4985 244.341 80.3142 244.013 79.986ZM231.184 97.159C231.228 97.0907 231.251 97.0113 231.25 96.9303V74.5838C231.259 74.4434 231.234 74.3029 231.176 74.1748C231.118 74.0466 231.029 73.9347 230.917 73.8488L223.2 67.8991C223.135 67.8503 223.058 67.8207 222.977 67.8134C222.896 67.8061 222.815 67.8214 222.742 67.8578C222.669 67.8941 222.608 67.95 222.565 68.0191C222.523 68.0882 222.5 68.1678 222.5 68.2491V90.8406C222.501 90.9762 222.534 91.1097 222.594 91.231C222.655 91.3523 222.742 91.4582 222.85 91.5406L230.55 97.3153C230.62 97.3536 230.698 97.3737 230.778 97.3737C230.857 97.3737 230.935 97.3536 231.005 97.3153C231.079 97.2816 231.141 97.2273 231.184 97.159ZM246.063 84.811C247.704 83.1702 249.929 82.2483 252.25 82.2483C253.399 82.2483 254.537 82.4746 255.598 82.9143C256.66 83.3541 257.625 83.9985 258.437 84.811C259.25 85.6235 259.894 86.5881 260.334 87.6496C260.774 88.7112 261 89.8489 261 90.9979C261 96.5452 253.195 104.402 252.862 104.735C252.784 104.819 252.689 104.885 252.584 104.931C252.478 104.976 252.365 105 252.25 105C252.135 105 252.022 104.976 251.916 104.931C251.811 104.885 251.716 104.819 251.638 104.735C251.305 104.402 243.5 96.5452 243.5 90.9979C243.5 88.6774 244.422 86.4519 246.063 84.811ZM250.549 93.5442C251.052 93.8807 251.644 94.0603 252.25 94.0603C253.062 94.0603 253.841 93.7377 254.416 93.1634C254.99 92.5891 255.312 91.8101 255.312 90.9979C255.312 90.3923 255.133 89.8002 254.796 89.2966C254.46 88.793 253.982 88.4005 253.422 88.1687C252.862 87.9369 252.247 87.8763 251.653 87.9944C251.058 88.1126 250.513 88.4042 250.084 88.8325C249.656 89.2608 249.365 89.8065 249.246 90.4005C249.128 90.9945 249.189 91.6103 249.421 92.1699C249.652 92.7294 250.045 93.2077 250.549 93.5442Z" fill="#111111"/>
</g>
</g>
</g>
<defs>
<clipPath id="clip0_1126_879">
<rect width="264" height="108" rx="5" fill="white"/>
</clipPath>
<clipPath id="clip1_1126_879">
<rect width="12" height="12" fill="white" transform="translate(0 78)"/>
</clipPath>
<clipPath id="clip2_1126_879">
<rect width="16" height="16" fill="white" transform="translate(24 76)"/>
</clipPath>
</defs>
</svg>
