<svg width="264" height="108" viewBox="0 0 264 108" fill="none" xmlns="http://www.w3.org/2000/svg">
<g id="Trip">
<g clip-path="url(#clip0_1126_883)">
<g id="Size=12px, Filled=false">
<path id="Vector" d="M3.25 29C2.83579 29 2.5 28.6642 2.5 28.25V25.25C2.5 24.8358 2.83579 24.5 3.25 24.5H7.75C8.16421 24.5 8.5 24.8358 8.5 25.25M8.5 25.25V27.5M8.5 25.25H10C10.8284 25.25 11.5 25.9216 11.5 26.75M11.5 26.75V28.25C11.5 28.6642 11.1642 29 10.75 29H10M11.5 26.75H10M7.75 29H5.5M1.00356 25.25C0.145785 23.5468 0.400066 21.4762 1.64273 20.0453C2.8854 18.6145 4.85853 18.1204 6.60245 18.8033C8.34636 19.4862 9.4991 21.2045 9.5 23.1223M2.75299 23C2.69391 21.3005 3.51224 19.6617 5 18.5C6.48776 19.6617 7.30609 21.3005 7.24701 23M1.25 21.5H5H8.75M8.875 29.75C9.49632 29.75 10 29.2463 10 28.625C10 28.0037 9.49632 27.5 8.875 27.5C8.25368 27.5 7.75 28.0037 7.75 28.625C7.75 29.2463 8.25368 29.75 8.875 29.75ZM4.375 29.75C4.99632 29.75 5.5 29.2463 5.5 28.625C5.5 28.0037 4.99632 27.5 4.375 27.5C3.75368 27.5 3.25 28.0037 3.25 28.625C3.25 29.2463 3.75368 29.75 4.375 29.75Z" stroke="#111111" stroke-width="0.75" stroke-linecap="round" stroke-linejoin="round"/>
</g>
<g id="Size=16px, Filled=false">
<path id="Vector_2" d="M28.5 30.5C27.9477 30.5 27.5 30.0523 27.5 29.5V25.5C27.5 24.9477 27.9477 24.5 28.5 24.5H34.5C35.0523 24.5 35.5 24.9477 35.5 25.5M35.5 25.5V28.5M35.5 25.5H37.5C38.6046 25.5 39.5 26.3954 39.5 27.5M39.5 27.5V29.5C39.5 30.0523 39.0523 30.5 38.5 30.5H37.5M39.5 27.5H37.5M34.5 30.5H31.5M25.1714 25.5C24.0277 23.229 24.3668 20.4682 26.0236 18.5605C27.6805 16.6527 30.3114 15.9939 32.6366 16.9044C34.9618 17.815 36.4988 20.106 36.5 22.6631M27.504 22.5C27.4252 20.234 28.5163 18.0489 30.5 16.5C32.4837 18.0489 33.5748 20.234 33.496 22.5M25.5 20.5H35.5M36 31.5C36.8284 31.5 37.5 30.8284 37.5 30C37.5 29.1716 36.8284 28.5 36 28.5C35.1716 28.5 34.5 29.1716 34.5 30C34.5 30.8284 35.1716 31.5 36 31.5ZM30 31.5C30.8284 31.5 31.5 30.8284 31.5 30C31.5 29.1716 30.8284 28.5 30 28.5C29.1716 28.5 28.5 29.1716 28.5 30C28.5 30.8284 29.1716 31.5 30 31.5Z" stroke="#111111" stroke-linecap="round" stroke-linejoin="round"/>
</g>
<g id="Size=20px, Filled=false">
<path id="Vector_3" d="M57.75 32.15C57.0596 32.15 56.5 31.5904 56.5 30.9V25.9C56.5 25.2096 57.0596 24.65 57.75 24.65H65.25C65.9404 24.65 66.5 25.2096 66.5 25.9M66.5 25.9V29.65M66.5 25.9H69C70.3807 25.9 71.5 27.0193 71.5 28.4M71.5 28.4V30.9C71.5 31.5904 70.9404 32.15 70.25 32.15H69M71.5 28.4H69M65.25 32.15H61.5M53.3393 25.9C51.9096 23.0613 52.3334 19.6103 54.4046 17.2256C56.4757 14.8409 59.7642 14.0173 62.6707 15.1555C65.5773 16.2937 67.4985 19.1575 67.5 22.3538M56.255 22.15C56.1565 19.3175 57.5204 16.5861 60 14.65C62.4796 16.5861 63.8435 19.3175 63.745 22.15M53.3 19.65H66.7M67.125 33.4C68.1605 33.4 69 32.5605 69 31.525C69 30.4895 68.1605 29.65 67.125 29.65C66.0895 29.65 65.25 30.4895 65.25 31.525C65.25 32.5605 66.0895 33.4 67.125 33.4ZM59.625 33.4C60.6605 33.4 61.5 32.5605 61.5 31.525C61.5 30.4895 60.6605 29.65 59.625 29.65C58.5895 29.65 57.75 30.4895 57.75 31.525C57.75 32.5605 58.5895 33.4 59.625 33.4Z" stroke="#111111" stroke-width="1.25" stroke-linecap="round" stroke-linejoin="round"/>
</g>
<g id="Size=24px, Filled=false">
<path id="Vector_4" d="M91.288 34H90.5C89.6716 34 89 33.3284 89 32.5V26.5C89 25.6716 89.6716 25 90.5 25H99.5C100.328 25 101 25.6716 101 26.5V31.788M101 26H104C105.657 26 107 27.4327 107 29.2V32.4C107 33.2837 106.328 34 105.5 34H104M104 34C104 35.1046 103.105 36 102 36C100.895 36 100 35.1046 100 34M104 34C104 32.8954 103.105 32 102 32C100.895 32 100 32.8954 100 34M100 34H96M96 34C96 35.1046 95.1046 36 94 36C92.8954 36 92 35.1046 92 34C92 32.8954 92.8954 32 94 32C95.1046 32 96 32.8954 96 34ZM107 29H104M86.0071 26C84.2916 22.7197 84.8001 18.7319 87.2855 15.9762C89.7708 13.2205 93.7171 12.2689 97.2049 13.5842C100.693 14.8994 102.998 18.2086 103 21.9022M90.0053 22C89.9003 18.601 91.3551 15.3234 94 13C96.6449 15.3234 98.0997 18.601 97.9947 22M85.5001 19H102" stroke="#111111" stroke-width="1.5" stroke-linecap="round" stroke-linejoin="round"/>
</g>
<g id="Size=32px, Filled=false">
<path id="Vector_5" d="M129.25 37C128.145 37 127.25 36.1046 127.25 35V27C127.25 25.8954 128.145 25 129.25 25H141.25C142.355 25 143.25 25.8954 143.25 27M143.25 27V33M143.25 27H147.25C149.459 27 151.25 28.7909 151.25 31M151.25 31V35C151.25 36.1046 150.355 37 149.25 37H147.25M151.25 31H147.25M141.25 37H135.25M122.093 27C119.805 22.458 120.484 16.9365 123.797 13.1209C127.111 9.30537 132.373 7.98772 137.023 9.80886C141.674 11.63 144.748 16.2119 144.75 21.3261M126.758 21C126.6 16.468 128.783 12.0978 132.75 9C136.717 12.0978 138.9 16.468 138.742 21M121.8 17H143.7M144.25 39C145.907 39 147.25 37.6569 147.25 36C147.25 34.3431 145.907 33 144.25 33C142.593 33 141.25 34.3431 141.25 36C141.25 37.6569 142.593 39 144.25 39ZM132.25 39C133.907 39 135.25 37.6569 135.25 36C135.25 34.3431 133.907 33 132.25 33C130.593 33 129.25 34.3431 129.25 36C129.25 37.6569 130.593 39 132.25 39Z" stroke="#111111" stroke-width="2" stroke-linecap="round" stroke-linejoin="round"/>
</g>
<g id="Size=40px, Filled=false">
<path id="Vector_6" d="M175.5 40.25C174.119 40.25 173 39.1307 173 37.75V27.75C173 26.3693 174.119 25.25 175.5 25.25H190.5C191.881 25.25 193 26.3693 193 27.75M193 27.75V35.25M193 27.75H198C200.761 27.75 203 29.9886 203 32.75M203 32.75V37.75C203 39.1307 201.881 40.25 200.5 40.25H198M203 32.75H198M190.5 40.25H183M166.679 27.75C163.819 22.0725 164.667 15.1706 168.809 10.4012C172.951 5.63172 179.528 3.98465 185.341 6.26107C191.155 8.53749 194.997 14.2649 195 20.6576M172.51 20.25C172.313 14.585 175.041 9.12225 180 5.25C184.959 9.12225 187.687 14.585 187.49 20.25M166 15.25H194M194.25 42.75C196.321 42.75 198 41.0711 198 39C198 36.9289 196.321 35.25 194.25 35.25C192.179 35.25 190.5 36.9289 190.5 39C190.5 41.0711 192.179 42.75 194.25 42.75ZM179.25 42.75C181.321 42.75 183 41.0711 183 39C183 36.9289 181.321 35.25 179.25 35.25C177.179 35.25 175.5 36.9289 175.5 39C175.5 41.0711 177.179 42.75 179.25 42.75Z" stroke="#111111" stroke-width="2.5" stroke-linecap="round" stroke-linejoin="round"/>
</g>
<g id="Size=48px, Filled=false">
<path id="Vector_7" d="M230 43.5C228.343 43.5 227 42.1569 227 40.5V28.5C227 26.8431 228.343 25.5 230 25.5H248C249.657 25.5 251 26.8431 251 28.5M251 28.5V37.5M251 28.5H257C260.314 28.5 263 31.1863 263 34.5M263 34.5V40.5C263 42.1569 261.657 43.5 260 43.5H257M263 34.5H257M248 43.5H239M219.014 28.5C215.583 21.687 216.6 13.4047 221.571 7.6814C226.542 1.95806 234.434 -0.0184144 241.41 2.71329C248.385 5.44499 252.996 12.3179 253 19.9892M226.012 19.5C225.776 12.702 229.049 6.1467 235 1.5C240.951 6.1467 244.224 12.702 243.988 19.5M218.5 13.5C230.802 13.5 251.5 13.5 251.5 13.5M252.5 46.5C254.985 46.5 257 44.4853 257 42C257 39.5147 254.985 37.5 252.5 37.5C250.015 37.5 248 39.5147 248 42C248 44.4853 250.015 46.5 252.5 46.5ZM234.5 46.5C236.985 46.5 239 44.4853 239 42C239 39.5147 236.985 37.5 234.5 37.5C232.015 37.5 230 39.5147 230 42C230 44.4853 232.015 46.5 234.5 46.5Z" stroke="#111111" stroke-width="3" stroke-linecap="round" stroke-linejoin="round"/>
</g>
<g id="Size=12px, Filled=true" clip-path="url(#clip1_1126_883)">
<g id="Vector_8">
<path d="M10.375 83.75C10.474 83.7487 10.5686 83.7088 10.6387 83.6387C10.7087 83.5687 10.7487 83.4741 10.75 83.375C10.75 79.5 7.30995 78 5.37495 78C4.17879 78.0007 3.01703 78.4003 2.0736 79.1357C1.13017 79.871 0.458988 80.9 0.166312 82.0598C-0.126364 83.2196 -0.0238073 84.4439 0.457746 85.5389C0.939299 86.6338 1.77233 87.5369 2.82495 88.105C2.91168 88.1486 3.01181 88.1573 3.10478 88.1294C3.19776 88.1015 3.27654 88.0391 3.32495 87.955C3.36941 87.8679 3.37808 87.7669 3.34913 87.6735C3.32017 87.5801 3.25588 87.5017 3.16995 87.455C2.69826 87.1948 2.27394 86.8567 1.91495 86.455C1.9031 86.4345 1.89686 86.4112 1.89686 86.3875C1.89686 86.3638 1.9031 86.3405 1.91495 86.32C1.92283 86.3026 1.93459 86.2873 1.94933 86.2751C1.96406 86.263 1.98138 86.2544 1.99995 86.25H2.81495C2.91441 86.25 3.00979 86.2105 3.08012 86.1402C3.15044 86.0698 3.18995 85.9745 3.18995 85.875C3.18995 85.7755 3.15044 85.6802 3.08012 85.6098C3.00979 85.5395 2.91441 85.5 2.81495 85.5H1.34495C1.32098 85.5012 1.29721 85.4951 1.27671 85.4826C1.25621 85.4702 1.23992 85.4518 1.22995 85.43C0.992422 84.9464 0.840186 84.4254 0.779951 83.89C0.777448 83.8722 0.778833 83.854 0.784011 83.8367C0.789189 83.8195 0.798038 83.8035 0.809951 83.79C0.822222 83.7772 0.83698 83.7671 0.853317 83.7602C0.869654 83.7533 0.887225 83.7498 0.904951 83.75H10.375ZM1.23495 81.32C1.24405 81.2986 1.25943 81.2804 1.27907 81.2679C1.29871 81.2554 1.32169 81.2492 1.34495 81.25H3.05995C3.0781 81.2502 3.09601 81.2543 3.11241 81.262C3.12882 81.2698 3.14333 81.2811 3.15495 81.295C3.16739 81.3091 3.17618 81.3261 3.18053 81.3444C3.18489 81.3627 3.18469 81.3818 3.17995 81.4C3.07749 81.8939 3.01893 82.3958 3.00495 82.9C3.00251 82.9319 2.98842 82.9617 2.96536 82.9839C2.9423 83.006 2.91189 83.0189 2.87995 83.02H0.904951C0.887225 83.0202 0.869654 83.0167 0.853317 83.0098C0.83698 83.0029 0.822222 82.9928 0.809951 82.98C0.798038 82.9665 0.789189 82.9505 0.784011 82.9333C0.778833 82.916 0.777448 82.8978 0.779951 82.88C0.835694 82.3367 0.989874 81.8081 1.23495 81.32ZM9.96995 82.86C9.97245 82.8778 9.97107 82.896 9.96589 82.9133C9.96071 82.9305 9.95186 82.9465 9.93995 82.96C9.92768 82.9728 9.91292 82.9829 9.89658 82.9898C9.88025 82.9967 9.86268 83.0002 9.84495 83H7.84495C7.81301 82.9989 7.7826 82.986 7.75954 82.9639C7.73648 82.9417 7.72239 82.9119 7.71995 82.88C7.70598 82.3758 7.64741 81.8739 7.54495 81.38C7.53662 81.3638 7.53227 81.3458 7.53227 81.3275C7.53227 81.3092 7.53662 81.2912 7.54495 81.275C7.55657 81.2611 7.57108 81.2498 7.58749 81.242C7.6039 81.2343 7.6218 81.2302 7.63995 81.23H9.35495C9.37822 81.2292 9.40119 81.2354 9.42083 81.2479C9.44047 81.2604 9.45586 81.2786 9.46495 81.3C9.7274 81.7847 9.89858 82.3135 9.96995 82.86ZM6.96995 82.86C6.97099 82.8766 6.9684 82.8933 6.96236 82.9089C6.95631 82.9244 6.94696 82.9384 6.93495 82.95C6.92344 82.9624 6.90953 82.9724 6.89406 82.9792C6.87859 82.9861 6.86188 82.9898 6.84495 82.99H3.84495C3.82802 82.9898 3.81132 82.9861 3.79585 82.9792C3.78037 82.9724 3.76646 82.9624 3.75495 82.95C3.74294 82.9384 3.73359 82.9244 3.72755 82.9089C3.7215 82.8933 3.71891 82.8766 3.71995 82.86C3.74065 82.3543 3.81098 81.8519 3.92995 81.36C3.93577 81.3327 3.95093 81.3082 3.97284 81.2909C3.99475 81.2735 4.02202 81.2644 4.04995 81.265H6.62995C6.65788 81.2644 6.68516 81.2735 6.70706 81.2909C6.72897 81.3082 6.74414 81.3327 6.74995 81.36C6.88784 81.8528 6.97166 82.3591 6.99995 82.87L6.96995 82.86ZM8.79495 80.28C8.8068 80.3005 8.81304 80.3238 8.81304 80.3475C8.81304 80.3712 8.8068 80.3945 8.79495 80.415C8.78519 80.4374 8.7691 80.4564 8.74867 80.4697C8.72824 80.483 8.70435 80.4901 8.67995 80.49H7.41495C7.38871 80.4896 7.3632 80.4813 7.34178 80.4661C7.32036 80.4509 7.30403 80.4296 7.29495 80.405C7.14904 79.9849 6.96668 79.5783 6.74995 79.19C6.73769 79.1678 6.73127 79.1429 6.73127 79.1175C6.73127 79.0921 6.73769 79.0672 6.74995 79.045C6.76694 79.0211 6.79149 79.0037 6.81962 78.9955C6.84776 78.9874 6.87782 78.9889 6.90495 79C7.64169 79.262 8.30037 79.7057 8.81995 80.29L8.79495 80.28ZM5.53995 78.755C5.55858 78.7554 5.57686 78.7601 5.59335 78.7688C5.60984 78.7775 5.62409 78.7899 5.63495 78.805C5.97122 79.2865 6.25137 79.8049 6.46995 80.35C6.47873 80.3652 6.48335 80.3824 6.48335 80.4C6.48335 80.4176 6.47873 80.4348 6.46995 80.45C6.46017 80.465 6.44685 80.4775 6.43116 80.4862C6.41547 80.4949 6.39789 80.4996 6.37995 80.5H4.40495C4.38434 80.4998 4.36407 80.4947 4.34582 80.4852C4.32756 80.4756 4.31184 80.4618 4.29995 80.445C4.29148 80.427 4.28709 80.4074 4.28709 80.3875C4.28709 80.3676 4.29148 80.348 4.29995 80.33C4.51785 79.8007 4.79459 79.2975 5.12495 78.83C5.13659 78.8145 5.15169 78.8019 5.16905 78.7932C5.18641 78.7845 5.20554 78.78 5.22495 78.78H5.54995L5.53995 78.755ZM3.84495 79C3.87208 78.9889 3.90215 78.9874 3.93028 78.9955C3.95841 79.0037 3.98296 79.0211 3.99995 79.045C4.01331 79.0659 4.02041 79.0902 4.02041 79.115C4.02041 79.1398 4.01331 79.1641 3.99995 79.185C3.78561 79.5797 3.60336 79.9911 3.45495 80.415C3.4465 80.44 3.43033 80.4617 3.40877 80.477C3.38721 80.4923 3.36137 80.5003 3.33495 80.5H2.02495C2.00055 80.5001 1.97667 80.493 1.95623 80.4797C1.9358 80.4664 1.91971 80.4474 1.90995 80.425C1.8981 80.4045 1.89186 80.3812 1.89186 80.3575C1.89186 80.3338 1.8981 80.3105 1.90995 80.29C2.43513 79.7029 3.101 79.259 3.84495 79Z" fill="#111111"/>
<path d="M10.15 85.125H9.64995C9.62823 85.1245 9.60715 85.1176 9.58935 85.1051C9.57155 85.0927 9.55784 85.0752 9.54995 85.055C9.48602 84.894 9.37601 84.7555 9.2337 84.6568C9.09139 84.5581 8.92312 84.5035 8.74995 84.5H4.74995C4.51829 84.5013 4.29649 84.5939 4.13268 84.7577C3.96887 84.9215 3.87626 85.1433 3.87495 85.375V88.375C3.87681 88.5401 3.92456 88.7014 4.01286 88.8409C4.10116 88.9805 4.22653 89.0927 4.37495 89.165C4.40503 89.1788 4.42841 89.204 4.43995 89.235C4.51298 89.4496 4.64913 89.6371 4.83055 89.773C5.01198 89.9089 5.23021 89.9868 5.45667 89.9965C5.68313 90.0062 5.90724 89.9473 6.09965 89.8275C6.29206 89.7077 6.44379 89.5325 6.53495 89.325C6.54471 89.3026 6.5608 89.2836 6.58123 89.2703C6.60167 89.257 6.62556 89.2499 6.64995 89.25H8.10995C8.13435 89.2499 8.15823 89.257 8.17867 89.2703C8.1991 89.2836 8.21519 89.3026 8.22495 89.325C8.30904 89.5143 8.44376 89.6767 8.61428 89.7944C8.78479 89.912 8.98447 89.9803 9.19131 89.9916C9.39815 90.003 9.60411 89.9571 9.7865 89.8588C9.96888 89.7606 10.1206 89.614 10.225 89.435C10.2356 89.4166 10.2509 89.4013 10.2693 89.3908C10.2878 89.3803 10.3087 89.3748 10.33 89.375H11.05C11.3064 89.3622 11.5481 89.2512 11.725 89.065C11.9018 88.8788 12.0003 88.6318 12 88.375V87.125C12.0189 86.6147 11.8348 86.1177 11.4881 85.7428C11.1413 85.368 10.6602 85.1458 10.15 85.125ZM8.87495 88.875C8.87495 88.8008 8.89694 88.7283 8.93815 88.6667C8.97935 88.605 9.03792 88.5569 9.10644 88.5285C9.17497 88.5002 9.25037 88.4927 9.32311 88.5072C9.39585 88.5217 9.46267 88.5574 9.51512 88.6098C9.56756 88.6623 9.60328 88.7291 9.61774 88.8018C9.63221 88.8746 9.62479 88.95 9.59641 89.0185C9.56802 89.087 9.51996 89.1456 9.45829 89.1868C9.39662 89.228 9.32412 89.25 9.24995 89.25C9.1509 89.2487 9.05626 89.2088 8.98622 89.1387C8.91617 89.0687 8.87625 88.9741 8.87495 88.875ZM5.49995 89.25C5.42578 89.25 5.35328 89.228 5.29161 89.1868C5.22994 89.1456 5.18188 89.087 5.1535 89.0185C5.12511 88.95 5.11769 88.8746 5.13216 88.8018C5.14663 88.7291 5.18234 88.6623 5.23479 88.6098C5.28723 88.5574 5.35405 88.5217 5.42679 88.5072C5.49954 88.4927 5.57493 88.5002 5.64346 88.5285C5.71198 88.5569 5.77055 88.605 5.81175 88.6667C5.85296 88.7283 5.87495 88.8008 5.87495 88.875C5.87366 88.9741 5.83373 89.0687 5.76368 89.1387C5.69364 89.2088 5.599 89.2487 5.49995 89.25ZM11 87C11.0032 87.0179 11.0022 87.0362 10.997 87.0536C10.9917 87.071 10.9825 87.0869 10.97 87.1C10.9583 87.1139 10.9438 87.1252 10.9274 87.133C10.911 87.1407 10.8931 87.1448 10.875 87.145H10.125C10.1067 87.1452 10.0886 87.1415 10.072 87.134C10.0554 87.1265 10.0406 87.1154 10.0287 87.1016C10.0167 87.0878 10.008 87.0716 10.003 87.054C9.99809 87.0364 9.99703 87.018 9.99995 87V86.26C10.0001 86.2418 10.0042 86.2239 10.012 86.2075C10.0198 86.1911 10.031 86.1766 10.045 86.165C10.0581 86.1525 10.074 86.1432 10.0913 86.138C10.1087 86.1328 10.1271 86.1318 10.145 86.135C10.3627 86.1651 10.5645 86.2662 10.7191 86.4226C10.8736 86.5789 10.9723 86.7819 11 87Z" fill="#111111"/>
</g>
</g>
<g id="Size=16px, Filled=true" clip-path="url(#clip2_1126_883)">
<g id="Vector_9">
<path d="M37.8333 83.6667C37.9653 83.6649 38.0915 83.6117 38.1849 83.5183C38.2783 83.4249 38.3315 83.2987 38.3333 83.1667C38.3333 78 33.7466 76 31.1666 76C29.5717 76.0009 28.0227 76.5337 26.7648 77.5142C25.5069 78.4947 24.612 79.8667 24.2217 81.4131C23.8315 82.9595 23.9683 84.5919 24.6103 86.0518C25.2524 87.5118 26.3631 88.7158 27.7666 89.4733C27.8822 89.5315 28.0157 89.5431 28.1397 89.5059C28.2637 89.4687 28.3687 89.3855 28.4333 89.2733C28.4925 89.1572 28.5041 89.0225 28.4655 88.898C28.4269 88.7734 28.3412 88.6689 28.2266 88.6067C27.5977 88.2597 27.0319 87.8089 26.5533 87.2733C26.5375 87.246 26.5292 87.2149 26.5292 87.1833C26.5292 87.1517 26.5375 87.1207 26.5533 87.0933C26.5638 87.0702 26.5795 87.0497 26.5991 87.0335C26.6187 87.0173 26.6418 87.0059 26.6666 87H27.7533C27.8859 87 28.0131 86.9473 28.1068 86.8536C28.2006 86.7598 28.2533 86.6326 28.2533 86.5C28.2533 86.3674 28.2006 86.2402 28.1068 86.1464C28.0131 86.0527 27.8859 86 27.7533 86H25.7933C25.7613 86.0016 25.7296 85.9935 25.7023 85.9769C25.6749 85.9602 25.6532 85.9358 25.6399 85.9067C25.3232 85.2619 25.1202 84.5672 25.0399 83.8533C25.0366 83.8295 25.0384 83.8053 25.0453 83.7823C25.0523 83.7593 25.0641 83.738 25.0799 83.72C25.0963 83.7029 25.116 83.6894 25.1378 83.6802C25.1595 83.6711 25.183 83.6665 25.2066 83.6667H37.8333ZM25.6466 80.4267C25.6587 80.3981 25.6792 80.3739 25.7054 80.3572C25.7316 80.3405 25.7622 80.3322 25.7933 80.3333H28.0799C28.1041 80.3335 28.128 80.339 28.1499 80.3494C28.1718 80.3597 28.1911 80.3747 28.2066 80.3933C28.2232 80.4122 28.2349 80.4348 28.2407 80.4592C28.2465 80.4836 28.2463 80.5091 28.2399 80.5333C28.1033 81.1918 28.0252 81.8611 28.0066 82.5333C28.0034 82.5758 27.9846 82.6156 27.9538 82.6451C27.9231 82.6747 27.8825 82.6918 27.8399 82.6933H25.2066C25.183 82.6935 25.1595 82.6889 25.1378 82.6798C25.116 82.6706 25.0963 82.6571 25.0799 82.64C25.0641 82.622 25.0523 82.6007 25.0453 82.5777C25.0384 82.5547 25.0366 82.5305 25.0399 82.5067C25.1143 81.7823 25.3198 81.0774 25.6466 80.4267ZM37.2933 82.48C37.2966 82.5038 37.2948 82.528 37.2879 82.551C37.281 82.5741 37.2692 82.5953 37.2533 82.6133C37.2369 82.6304 37.2172 82.6439 37.1954 82.6531C37.1737 82.6623 37.1502 82.6669 37.1266 82.6667H34.4599C34.4173 82.6652 34.3768 82.648 34.3461 82.6185C34.3153 82.589 34.2965 82.5492 34.2933 82.5067C34.2746 81.8344 34.1966 81.1651 34.0599 80.5067C34.0488 80.485 34.043 80.461 34.043 80.4367C34.043 80.4123 34.0488 80.3883 34.0599 80.3667C34.0754 80.3481 34.0948 80.3331 34.1167 80.3227C34.1385 80.3123 34.1624 80.3069 34.1866 80.3067H36.4733C36.5043 80.3055 36.5349 80.3139 36.5611 80.3305C36.5873 80.3472 36.6078 80.3714 36.6199 80.4C36.9699 81.0462 37.1981 81.7513 37.2933 82.48ZM33.2933 82.48C33.2947 82.5022 33.2912 82.5244 33.2831 82.5451C33.2751 82.5659 33.2626 82.5846 33.2466 82.6C33.2313 82.6166 33.2127 82.6298 33.1921 82.639C33.1714 82.6482 33.1492 82.653 33.1266 82.6533H29.1266C29.104 82.653 29.0818 82.6482 29.0611 82.639C29.0405 82.6298 29.0219 82.6166 29.0066 82.6C28.9906 82.5846 28.9781 82.5659 28.9701 82.5451C28.962 82.5244 28.9585 82.5022 28.9599 82.48C28.9875 81.8058 29.0813 81.1359 29.2399 80.48C29.2477 80.4436 29.2679 80.411 29.2971 80.3878C29.3263 80.3647 29.3627 80.3525 29.3999 80.3533H32.8399C32.8772 80.3525 32.9135 80.3647 32.9427 80.3878C32.972 80.411 32.9922 80.4436 32.9999 80.48C33.1838 81.137 33.2956 81.8121 33.3333 82.4933L33.2933 82.48ZM35.7266 79.04C35.7424 79.0674 35.7507 79.0984 35.7507 79.13C35.7507 79.1616 35.7424 79.1926 35.7266 79.22C35.7136 79.2498 35.6921 79.2752 35.6649 79.2929C35.6376 79.3107 35.6058 79.3201 35.5733 79.32H33.8866C33.8516 79.3195 33.8176 79.3084 33.789 79.2881C33.7605 79.2679 33.7387 79.2395 33.7266 79.2067C33.5321 78.6465 33.2889 78.1045 32.9999 77.5867C32.9836 77.5571 32.975 77.5238 32.975 77.49C32.975 77.4562 32.9836 77.4229 32.9999 77.3933C33.0226 77.3615 33.0553 77.3383 33.0928 77.3274C33.1303 77.3165 33.1704 77.3186 33.2066 77.3333C34.1889 77.6826 35.0672 78.2742 35.7599 79.0533L35.7266 79.04ZM31.3866 77.0067C31.4114 77.0072 31.4358 77.0135 31.4578 77.025C31.4798 77.0366 31.4988 77.0531 31.5133 77.0733C31.9616 77.7154 32.3352 78.4065 32.6266 79.1333C32.6383 79.1536 32.6445 79.1766 32.6445 79.2C32.6445 79.2234 32.6383 79.2464 32.6266 79.2667C32.6136 79.2867 32.5958 79.3033 32.5749 79.3149C32.554 79.3265 32.5305 79.3329 32.5066 79.3333H29.8733C29.8458 79.3331 29.8188 79.3263 29.7944 79.3136C29.7701 79.3008 29.7491 79.2824 29.7333 79.26C29.722 79.236 29.7161 79.2098 29.7161 79.1833C29.7161 79.1568 29.722 79.1306 29.7333 79.1067C30.0238 78.4009 30.3928 77.73 30.8333 77.1067C30.8488 77.086 30.8689 77.0692 30.8921 77.0576C30.9152 77.046 30.9407 77.04 30.9666 77.04H31.3999L31.3866 77.0067ZM29.1266 77.3333C29.1628 77.3186 29.2029 77.3165 29.2404 77.3274C29.2779 77.3383 29.3106 77.3615 29.3333 77.3933C29.3511 77.4212 29.3605 77.4536 29.3605 77.4867C29.3605 77.5197 29.3511 77.5521 29.3333 77.58C29.0475 78.1063 28.8045 78.6547 28.6066 79.22C28.5953 79.2534 28.5738 79.2823 28.545 79.3027C28.5163 79.323 28.4818 79.3338 28.4466 79.3333H26.6999C26.6674 79.3334 26.6356 79.324 26.6083 79.3063C26.5811 79.2885 26.5596 79.2631 26.5466 79.2333C26.5308 79.206 26.5225 79.1749 26.5225 79.1433C26.5225 79.1117 26.5308 79.0807 26.5466 79.0533C27.2468 78.2705 28.1347 77.6786 29.1266 77.3333Z" fill="#111111"/>
<path d="M37.5333 85.5H36.8666C36.8376 85.4993 36.8095 85.4901 36.7858 85.4735C36.7621 85.4569 36.7438 85.4337 36.7333 85.4067C36.648 85.192 36.5013 85.0073 36.3116 84.8757C36.1219 84.7441 35.8975 84.6714 35.6666 84.6667H30.3333C30.0244 84.6684 29.7287 84.7919 29.5102 85.0103C29.2918 85.2287 29.1684 85.5245 29.1666 85.8333V89.8333C29.1691 90.0535 29.2327 90.2686 29.3505 90.4546C29.4682 90.6406 29.6354 90.7902 29.8333 90.8867C29.8734 90.9051 29.9045 90.9386 29.9199 90.98C30.0173 91.2661 30.1988 91.5161 30.4407 91.6973C30.6826 91.8785 30.9736 91.9823 31.2756 91.9953C31.5775 92.0083 31.8763 91.9297 32.1329 91.77C32.3894 91.6102 32.5917 91.3767 32.7133 91.1C32.7263 91.0702 32.7477 91.0448 32.775 91.0271C32.8022 91.0093 32.8341 90.9999 32.8666 91H34.8133C34.8458 90.9999 34.8776 91.0093 34.9049 91.0271C34.9321 91.0448 34.9536 91.0702 34.9666 91.1C35.0787 91.3524 35.2584 91.569 35.4857 91.7258C35.7131 91.8827 35.9793 91.9737 36.2551 91.9888C36.5309 92.004 36.8055 91.9427 37.0487 91.8118C37.2918 91.6808 37.4941 91.4853 37.6333 91.2467C37.6474 91.2221 37.6679 91.2018 37.6925 91.1877C37.7171 91.1737 37.7449 91.1664 37.7733 91.1667H38.7333C39.0752 91.1495 39.3975 91.0016 39.6333 90.7533C39.8691 90.5051 40.0004 90.1757 39.9999 89.8333V88.1667C40.0252 87.4863 39.7798 86.8236 39.3175 86.3238C38.8551 85.824 38.2136 85.5278 37.5333 85.5ZM35.8333 90.5C35.8333 90.4011 35.8626 90.3044 35.9175 90.2222C35.9725 90.14 36.0506 90.0759 36.1419 90.0381C36.2333 90.0002 36.3338 89.9903 36.4308 90.0096C36.5278 90.0289 36.6169 90.0765 36.6868 90.1464C36.7567 90.2164 36.8044 90.3055 36.8237 90.4025C36.843 90.4994 36.8331 90.6 36.7952 90.6913C36.7574 90.7827 36.6933 90.8608 36.6111 90.9157C36.5288 90.9707 36.4322 91 36.3333 91C36.2012 90.9983 36.075 90.945 35.9816 90.8516C35.8882 90.7582 35.835 90.6321 35.8333 90.5ZM31.3333 91C31.2344 91 31.1377 90.9707 31.0555 90.9157C30.9733 90.8608 30.9092 90.7827 30.8713 90.6913C30.8335 90.6 30.8236 90.4994 30.8429 90.4025C30.8622 90.3055 30.9098 90.2164 30.9797 90.1464C31.0496 90.0765 31.1387 90.0289 31.2357 90.0096C31.3327 89.9903 31.4332 90.0002 31.5246 90.0381C31.616 90.0759 31.6941 90.14 31.749 90.2222C31.8039 90.3044 31.8333 90.4011 31.8333 90.5C31.8315 90.6321 31.7783 90.7582 31.6849 90.8516C31.5915 90.945 31.4653 90.9983 31.3333 91ZM38.6666 88C38.6709 88.0238 38.6696 88.0483 38.6626 88.0715C38.6557 88.0946 38.6433 88.1158 38.6266 88.1333C38.6111 88.1519 38.5918 88.1669 38.5699 88.1773C38.548 88.1877 38.5241 88.1931 38.4999 88.1933H37.4999C37.4756 88.1936 37.4515 88.1886 37.4293 88.1786C37.4072 88.1687 37.3874 88.1539 37.3715 88.1355C37.3557 88.1171 37.344 88.0954 37.3374 88.072C37.3308 88.0486 37.3294 88.024 37.3333 88V87.0133C37.3335 86.9891 37.3389 86.9653 37.3493 86.9434C37.3597 86.9215 37.3747 86.9022 37.3933 86.8867C37.4108 86.87 37.432 86.8576 37.4551 86.8507C37.4783 86.8437 37.5028 86.8423 37.5266 86.8467C37.817 86.8869 38.086 87.0216 38.2921 87.2301C38.4982 87.4386 38.6298 87.7092 38.6666 88Z" fill="#111111"/>
</g>
</g>
<g id="Size=20px, Filled=true" clip-path="url(#clip3_1126_883)">
<g id="Vector_10">
<path d="M69.2916 83.5833C69.4567 83.5812 69.6144 83.5146 69.7311 83.3979C69.8479 83.2811 69.9144 83.1234 69.9166 82.9583C69.9166 76.5 64.1833 74 60.9583 74C58.9647 74.0011 57.0284 74.6672 55.456 75.8928C53.8836 77.1183 52.765 78.8334 52.2772 80.7664C51.7894 82.6994 51.9603 84.7399 52.7629 86.5648C53.5655 88.3897 54.9539 89.8948 56.7083 90.8417C56.8528 90.9143 57.0197 90.9289 57.1746 90.8824C57.3296 90.8359 57.4609 90.7319 57.5416 90.5917C57.6157 90.4465 57.6301 90.2781 57.5819 90.1225C57.5336 89.9668 57.4265 89.8361 57.2833 89.7583C56.4971 89.3246 55.7899 88.7611 55.1916 88.0917C55.1718 88.0575 55.1614 88.0187 55.1614 87.9792C55.1614 87.9397 55.1718 87.9009 55.1916 87.8667C55.2047 87.8377 55.2243 87.8121 55.2489 87.7919C55.2734 87.7717 55.3023 87.7573 55.3333 87.75H56.6916C56.8573 87.75 57.0163 87.6842 57.1335 87.5669C57.2507 87.4497 57.3166 87.2908 57.3166 87.125C57.3166 86.9592 57.2507 86.8003 57.1335 86.6831C57.0163 86.5658 56.8573 86.5 56.6916 86.5H54.2416C54.2016 86.502 54.162 86.4919 54.1278 86.4711C54.0937 86.4503 54.0665 86.4197 54.0499 86.3833C53.654 85.5773 53.4003 84.709 53.2999 83.8167C53.2957 83.7869 53.2981 83.7566 53.3067 83.7279C53.3153 83.6991 53.3301 83.6725 53.3499 83.65C53.3704 83.6287 53.395 83.6118 53.4222 83.6003C53.4494 83.5888 53.4787 83.5831 53.5083 83.5833H69.2916ZM54.0583 79.5333C54.0734 79.4976 54.0991 79.4673 54.1318 79.4465C54.1645 79.4257 54.2028 79.4153 54.2416 79.4167H57.0999C57.1302 79.4169 57.16 79.4238 57.1874 79.4367C57.2147 79.4497 57.2389 79.4684 57.2583 79.4917C57.279 79.5152 57.2936 79.5435 57.3009 79.574C57.3082 79.6045 57.3078 79.6363 57.2999 79.6667C57.1291 80.4898 57.0315 81.3264 57.0083 82.1667C57.0042 82.2198 56.9807 82.2695 56.9423 82.3064C56.9038 82.3433 56.8532 82.3648 56.7999 82.3667H53.5083C53.4787 82.3669 53.4494 82.3612 53.4222 82.3497C53.395 82.3382 53.3704 82.3213 53.3499 82.3C53.3301 82.2775 53.3153 82.2509 53.3067 82.2221C53.2981 82.1934 53.2957 82.1631 53.2999 82.1333C53.3928 81.2278 53.6498 80.3468 54.0583 79.5333ZM68.6166 82.1C68.6208 82.1297 68.6184 82.16 68.6098 82.1888C68.6012 82.2176 68.5864 82.2441 68.5666 82.2667C68.5461 82.288 68.5215 82.3049 68.4943 82.3164C68.4671 82.3278 68.4378 82.3336 68.4083 82.3333H65.0749C65.0217 82.3314 64.971 82.31 64.9326 82.2731C64.8941 82.2362 64.8706 82.1865 64.8666 82.1333C64.8433 81.293 64.7457 80.4564 64.5749 79.6333C64.561 79.6063 64.5538 79.5763 64.5538 79.5458C64.5538 79.5154 64.561 79.4854 64.5749 79.4583C64.5943 79.4351 64.6185 79.4163 64.6458 79.4034C64.6732 79.3904 64.703 79.3836 64.7333 79.3833H67.5916C67.6304 79.3819 67.6686 79.3923 67.7014 79.4132C67.7341 79.434 67.7598 79.4643 67.7749 79.5C68.2123 80.3078 68.4976 81.1891 68.6166 82.1ZM63.6166 82.1C63.6183 82.1277 63.614 82.1555 63.6039 82.1814C63.5939 82.2073 63.5783 82.2307 63.5583 82.25C63.5391 82.2707 63.5159 82.2873 63.4901 82.2987C63.4643 82.3102 63.4365 82.3163 63.4083 82.3167H58.4083C58.38 82.3163 58.3522 82.3102 58.3264 82.2987C58.3006 82.2873 58.2774 82.2707 58.2583 82.25C58.2382 82.2307 58.2227 82.2073 58.2126 82.1814C58.2025 82.1555 58.1982 82.1277 58.1999 82.1C58.2344 81.2572 58.3516 80.4199 58.5499 79.6C58.5596 79.5545 58.5849 79.5137 58.6214 79.4848C58.6579 79.4559 58.7034 79.4406 58.7499 79.4417H63.0499C63.0965 79.4406 63.1419 79.4559 63.1784 79.4848C63.2149 79.5137 63.2402 79.5545 63.2499 79.6C63.4797 80.4213 63.6194 81.2651 63.6666 82.1167L63.6166 82.1ZM66.6583 77.8C66.678 77.8342 66.6884 77.873 66.6884 77.9125C66.6884 77.952 66.678 77.9908 66.6583 78.025C66.642 78.0623 66.6152 78.094 66.5811 78.1162C66.5471 78.1384 66.5072 78.1501 66.4666 78.15H64.3583C64.3145 78.1493 64.272 78.1354 64.2363 78.1102C64.2006 78.0849 64.1734 78.0494 64.1583 78.0083C63.9151 77.3082 63.6111 76.6306 63.2499 75.9833C63.2295 75.9463 63.2188 75.9048 63.2188 75.8625C63.2188 75.8202 63.2295 75.7787 63.2499 75.7417C63.2782 75.7019 63.3191 75.6728 63.366 75.6592C63.4129 75.6456 63.463 75.6482 63.5083 75.6667C64.7361 76.1033 65.8339 76.8428 66.6999 77.8167L66.6583 77.8ZM61.2333 75.2583C61.2643 75.259 61.2948 75.2668 61.3223 75.2813C61.3497 75.2958 61.3735 75.3164 61.3916 75.3417C61.952 76.1442 62.419 77.0081 62.7833 77.9167C62.7979 77.942 62.8056 77.9707 62.8056 78C62.8056 78.0293 62.7979 78.058 62.7833 78.0833C62.7669 78.1084 62.7447 78.1291 62.7186 78.1436C62.6925 78.1582 62.6632 78.1661 62.6333 78.1667H59.3416C59.3072 78.1664 59.2735 78.1579 59.243 78.1419C59.2126 78.126 59.1864 78.1031 59.1666 78.075C59.1525 78.045 59.1452 78.0123 59.1452 77.9792C59.1452 77.946 59.1525 77.9133 59.1666 77.8833C59.5297 77.0011 59.991 76.1625 60.5416 75.3833C60.561 75.3575 60.5862 75.3365 60.6151 75.322C60.644 75.3075 60.6759 75.3 60.7083 75.3H61.2499L61.2333 75.2583ZM58.4083 75.6667C58.4535 75.6482 58.5036 75.6456 58.5505 75.6592C58.5974 75.6728 58.6383 75.7019 58.6666 75.7417C58.6888 75.7765 58.7007 75.817 58.7007 75.8583C58.7007 75.8997 58.6888 75.9402 58.6666 75.975C58.3094 76.6329 58.0056 77.3184 57.7583 78.025C57.7442 78.0667 57.7172 78.1029 57.6813 78.1284C57.6454 78.1538 57.6023 78.1672 57.5583 78.1667H55.3749C55.3343 78.1668 55.2944 78.155 55.2604 78.1328C55.2263 78.1106 55.1995 78.0789 55.1833 78.0417C55.1635 78.0075 55.1531 77.9687 55.1531 77.9292C55.1531 77.8897 55.1635 77.8509 55.1833 77.8167C56.0586 76.8381 57.1683 76.0983 58.4083 75.6667Z" fill="#111111"/>
<path d="M68.9166 85.875H68.0833C68.0471 85.8742 68.0119 85.8627 67.9822 85.8419C67.9526 85.8211 67.9297 85.7921 67.9166 85.7583C67.81 85.4901 67.6267 85.2592 67.3895 85.0946C67.1523 84.9301 66.8719 84.8392 66.5833 84.8333H59.9166C59.5305 84.8355 59.1608 84.9899 58.8878 85.2629C58.6148 85.5359 58.4604 85.9056 58.4583 86.2917V91.2917C58.4614 91.5668 58.5409 91.8357 58.6881 92.0682C58.8353 92.3008 59.0442 92.4878 59.2916 92.6083C59.3417 92.6313 59.3807 92.6733 59.3999 92.725C59.5216 93.0826 59.7485 93.3952 60.0509 93.6216C60.3533 93.8481 60.717 93.9779 61.0945 93.9941C61.4719 94.0104 61.8454 93.9122 62.1661 93.7125C62.4868 93.5128 62.7396 93.2209 62.8916 92.875C62.9078 92.8377 62.9347 92.806 62.9687 92.7838C63.0028 92.7616 63.0426 92.7499 63.0833 92.75H65.5166C65.5572 92.7499 65.5971 92.7616 65.6311 92.7838C65.6652 92.806 65.692 92.8377 65.7083 92.875C65.8484 93.1905 66.0729 93.4612 66.3571 93.6573C66.6413 93.8533 66.9741 93.9671 67.3189 93.9861C67.6636 94.005 68.0069 93.9284 68.3108 93.7647C68.6148 93.601 68.8677 93.3566 69.0416 93.0583C69.0593 93.0277 69.0848 93.0022 69.1156 92.9847C69.1463 92.9671 69.1812 92.958 69.2166 92.9583H70.4166C70.844 92.9369 71.2468 92.7519 71.5416 92.4417C71.8363 92.1314 72.0005 91.7196 71.9999 91.2917V89.2083C72.0315 88.3578 71.7247 87.5295 71.1468 86.9047C70.5689 86.28 69.7669 85.9097 68.9166 85.875ZM66.7916 92.125C66.7916 92.0014 66.8282 91.8806 66.8969 91.7778C66.9656 91.675 67.0632 91.5949 67.1774 91.5476C67.2916 91.5003 67.4173 91.4879 67.5385 91.512C67.6598 91.5361 67.7711 91.5957 67.8585 91.6831C67.9459 91.7705 68.0055 91.8818 68.0296 92.0031C68.0537 92.1243 68.0413 92.25 67.994 92.3642C67.9467 92.4784 67.8666 92.576 67.7638 92.6447C67.661 92.7133 67.5402 92.75 67.4166 92.75C67.2515 92.7478 67.0938 92.6813 66.977 92.5646C66.8603 92.4478 66.7937 92.2901 66.7916 92.125ZM61.1666 92.75C61.043 92.75 60.9221 92.7133 60.8194 92.6447C60.7166 92.576 60.6365 92.4784 60.5892 92.3642C60.5419 92.25 60.5295 92.1243 60.5536 92.0031C60.5777 91.8818 60.6372 91.7705 60.7246 91.6831C60.8121 91.5957 60.9234 91.5361 61.0447 91.512C61.1659 91.4879 61.2916 91.5003 61.4058 91.5476C61.52 91.5949 61.6176 91.675 61.6863 91.7778C61.7549 91.8806 61.7916 92.0014 61.7916 92.125C61.7894 92.2901 61.7229 92.4478 61.6061 92.5646C61.4894 92.6813 61.3317 92.7478 61.1666 92.75ZM70.3333 89C70.3387 89.0298 70.3369 89.0604 70.3283 89.0893C70.3196 89.1183 70.3041 89.1448 70.2833 89.1667C70.2639 89.1899 70.2397 89.2087 70.2124 89.2216C70.185 89.2346 70.1552 89.2414 70.1249 89.2417H68.8749C68.8445 89.2421 68.8144 89.2358 68.7867 89.2233C68.7589 89.2108 68.7343 89.1924 68.7144 89.1694C68.6946 89.1464 68.68 89.1193 68.6717 89.09C68.6635 89.0607 68.6617 89.03 68.6666 89V87.7667C68.6668 87.7364 68.6737 87.7066 68.6866 87.6792C68.6996 87.6519 68.7183 87.6277 68.7416 87.6083C68.7635 87.5874 68.7899 87.572 68.8189 87.5633C68.8479 87.5546 68.8785 87.5529 68.9083 87.5583C69.2712 87.6086 69.6075 87.777 69.8651 88.0376C70.1227 88.2982 70.2872 88.6365 70.3333 89Z" fill="#111111"/>
</g>
</g>
<g id="Size=24px, Filled=true" clip-path="url(#clip4_1126_883)">
<g id="Vector_11">
<path d="M104.75 83.5C104.948 83.4974 105.137 83.4176 105.277 83.2775C105.417 83.1374 105.497 82.9481 105.5 82.75C105.5 75 98.6199 72 94.7499 72C92.3576 72.0013 90.0341 72.8006 88.1472 74.2713C86.2603 75.742 84.918 77.8001 84.3326 80.1197C83.7473 82.4393 83.9524 84.8879 84.9155 87.0778C85.8786 89.2677 87.5447 91.0737 89.6499 92.21C89.8234 92.2972 90.0236 92.3147 90.2096 92.2589C90.3955 92.2031 90.5531 92.0783 90.6499 91.91C90.7388 91.7358 90.7562 91.5338 90.6983 91.347C90.6403 91.1602 90.5118 91.0034 90.3399 90.91C89.3965 90.3895 88.5479 89.7133 87.8299 88.91C87.8062 88.869 87.7937 88.8224 87.7937 88.775C87.7937 88.7276 87.8062 88.681 87.8299 88.64C87.8457 88.6052 87.8692 88.5745 87.8987 88.5503C87.9281 88.526 87.9628 88.5088 87.9999 88.5H89.6299C89.8288 88.5 90.0196 88.421 90.1602 88.2803C90.3009 88.1397 90.3799 87.9489 90.3799 87.75C90.3799 87.5511 90.3009 87.3603 90.1602 87.2197C90.0196 87.079 89.8288 87 89.6299 87H86.6899C86.642 87.0023 86.5944 86.9902 86.5534 86.9653C86.5124 86.9403 86.4798 86.9037 86.4599 86.86C85.9848 85.8928 85.6804 84.8508 85.5599 83.78C85.5549 83.7443 85.5577 83.708 85.568 83.6734C85.5784 83.6389 85.5961 83.607 85.6199 83.58C85.6444 83.5544 85.674 83.5341 85.7066 83.5204C85.7393 83.5066 85.7745 83.4997 85.8099 83.5H104.75ZM86.4699 78.64C86.4881 78.5971 86.5189 78.5608 86.5581 78.5358C86.5974 78.5108 86.6434 78.4983 86.6899 78.5H90.1199C90.1562 78.5003 90.192 78.5085 90.2248 78.5241C90.2576 78.5396 90.2867 78.5621 90.3099 78.59C90.3348 78.6182 90.3524 78.6522 90.3611 78.6888C90.3698 78.7254 90.3694 78.7636 90.3599 78.8C90.155 79.7877 90.0379 80.7916 90.0099 81.8C90.005 81.8637 89.9768 81.9235 89.9307 81.9677C89.8846 82.012 89.8238 82.0377 89.7599 82.04H85.8099C85.7745 82.0403 85.7393 82.0334 85.7066 82.0196C85.674 82.0059 85.6444 81.9856 85.6199 81.96C85.5961 81.933 85.5784 81.9011 85.568 81.8666C85.5577 81.832 85.5549 81.7957 85.5599 81.76C85.6714 80.6734 85.9797 79.6162 86.4699 78.64ZM103.94 81.72C103.945 81.7557 103.942 81.792 103.932 81.8266C103.921 81.8611 103.904 81.893 103.88 81.92C103.855 81.9456 103.826 81.9659 103.793 81.9796C103.76 81.9934 103.725 82.0003 103.69 82H99.6899C99.626 81.9977 99.5652 81.972 99.5191 81.9277C99.473 81.8835 99.4448 81.8237 99.4399 81.76C99.412 80.7516 99.2948 79.7477 99.0899 78.76C99.0732 78.7275 99.0645 78.6915 99.0645 78.655C99.0645 78.6185 99.0732 78.5825 99.0899 78.55C99.1131 78.5221 99.1422 78.4996 99.175 78.4841C99.2078 78.4685 99.2436 78.4603 99.2799 78.46H102.71C102.756 78.4583 102.802 78.4708 102.842 78.4958C102.881 78.5208 102.912 78.5571 102.93 78.6C103.455 79.5694 103.797 80.6269 103.94 81.72ZM97.9399 81.72C97.942 81.7533 97.9368 81.7866 97.9247 81.8177C97.9126 81.8488 97.8939 81.8769 97.8699 81.9C97.8469 81.9248 97.8191 81.9447 97.7881 81.9585C97.7572 81.9722 97.7238 81.9795 97.6899 81.98H91.6899C91.656 81.9795 91.6226 81.9722 91.5917 81.9585C91.5607 81.9447 91.5329 81.9248 91.5099 81.9C91.4859 81.8769 91.4672 81.8488 91.4551 81.8177C91.443 81.7866 91.4378 81.7533 91.4399 81.72C91.4813 80.7087 91.622 79.7038 91.8599 78.72C91.8715 78.6653 91.9019 78.6165 91.9457 78.5818C91.9895 78.5471 92.044 78.5288 92.0999 78.53H97.2599C97.3158 78.5288 97.3703 78.5471 97.4141 78.5818C97.4579 78.6165 97.4883 78.6653 97.4999 78.72C97.7757 79.7055 97.9433 80.7182 97.9999 81.74L97.9399 81.72ZM101.59 76.56C101.614 76.601 101.626 76.6476 101.626 76.695C101.626 76.7424 101.614 76.789 101.59 76.83C101.57 76.8747 101.538 76.9128 101.497 76.9394C101.456 76.9661 101.409 76.9802 101.36 76.98H98.8299C98.7774 76.9792 98.7264 76.9625 98.6836 76.9322C98.6407 76.9019 98.6081 76.8593 98.5899 76.81C98.2981 75.9698 97.9334 75.1567 97.4999 74.38C97.4754 74.3356 97.4625 74.2857 97.4625 74.235C97.4625 74.1843 97.4754 74.1344 97.4999 74.09C97.5339 74.0423 97.583 74.0074 97.6392 73.9911C97.6955 73.9747 97.7556 73.9779 97.8099 74C99.2834 74.5239 100.601 75.4113 101.64 76.58L101.59 76.56ZM95.0799 73.51C95.1172 73.5108 95.1537 73.5202 95.1867 73.5376C95.2197 73.5549 95.2482 73.5797 95.2699 73.61C95.9424 74.573 96.5027 75.6098 96.9399 76.7C96.9575 76.7304 96.9667 76.7649 96.9667 76.8C96.9667 76.8351 96.9575 76.8696 96.9399 76.9C96.9203 76.9301 96.8937 76.9549 96.8623 76.9724C96.8309 76.9898 96.7958 76.9993 96.7599 77H92.8099C92.7687 76.9996 92.7281 76.9895 92.6916 76.9703C92.6551 76.9512 92.6237 76.9237 92.5999 76.89C92.583 76.854 92.5742 76.8148 92.5742 76.775C92.5742 76.7352 92.583 76.696 92.5999 76.66C93.0357 75.6013 93.5892 74.595 94.2499 73.66C94.2732 73.629 94.3034 73.6038 94.3381 73.5864C94.3728 73.569 94.4111 73.56 94.4499 73.56H95.0999L95.0799 73.51ZM91.6899 74C91.7442 73.9779 91.8043 73.9747 91.8606 73.9911C91.9168 74.0074 91.9659 74.0423 91.9999 74.09C92.0266 74.1318 92.0408 74.1804 92.0408 74.23C92.0408 74.2796 92.0266 74.3282 91.9999 74.37C91.5712 75.1595 91.2067 75.9821 90.9099 76.83C90.893 76.8801 90.8607 76.9235 90.8175 76.954C90.7744 76.9846 90.7227 77.0007 90.6699 77H88.0499C88.0011 77.0002 87.9533 76.9861 87.9125 76.9594C87.8716 76.9328 87.8394 76.8947 87.8199 76.85C87.7962 76.809 87.7837 76.7624 87.7837 76.715C87.7837 76.6676 87.7962 76.621 87.8199 76.58C88.8703 75.4058 90.202 74.5179 91.6899 74Z" fill="#111111"/>
<path d="M104.3 86.25H103.3C103.256 86.249 103.214 86.2352 103.179 86.2103C103.143 86.1854 103.116 86.1505 103.1 86.11C102.972 85.7881 102.752 85.511 102.467 85.3136C102.183 85.1161 101.846 85.007 101.5 85H93.4999C93.0366 85.0026 92.593 85.1878 92.2654 85.5155C91.9377 85.8431 91.7525 86.2867 91.7499 86.75V92.75C91.7536 93.0802 91.8491 93.4029 92.0257 93.6819C92.2023 93.9609 92.4531 94.1853 92.7499 94.33C92.8101 94.3576 92.8568 94.408 92.8799 94.47C93.026 94.8992 93.2983 95.2742 93.6611 95.5459C94.024 95.8177 94.4604 95.9735 94.9133 95.993C95.3663 96.0124 95.8145 95.8946 96.1993 95.655C96.5841 95.4153 96.8876 95.065 97.0699 94.65C97.0894 94.6053 97.1216 94.5672 97.1625 94.5406C97.2033 94.5139 97.2511 94.4998 97.2999 94.5H100.22C100.269 94.4998 100.316 94.5139 100.357 94.5406C100.398 94.5672 100.43 94.6053 100.45 94.65C100.618 95.0286 100.888 95.3535 101.229 95.5887C101.57 95.824 101.969 95.9605 102.383 95.9833C102.796 96.006 103.208 95.9141 103.573 95.7177C103.938 95.5212 104.241 95.2279 104.45 94.87C104.471 94.8332 104.502 94.8027 104.539 94.7816C104.576 94.7605 104.617 94.7496 104.66 94.75H106.1C106.613 94.7243 107.096 94.5023 107.45 94.13C107.804 93.7577 108.001 93.2636 108 92.75V90.25C108.038 89.2294 107.67 88.2354 106.976 87.4857C106.283 86.736 105.32 86.2916 104.3 86.25ZM101.75 93.75C101.75 93.6017 101.794 93.4567 101.876 93.3333C101.959 93.21 102.076 93.1139 102.213 93.0571C102.35 93.0003 102.501 92.9855 102.646 93.0144C102.792 93.0434 102.925 93.1148 103.03 93.2197C103.135 93.3246 103.207 93.4582 103.235 93.6037C103.264 93.7492 103.25 93.9 103.193 94.037C103.136 94.1741 103.04 94.2912 102.917 94.3736C102.793 94.456 102.648 94.5 102.5 94.5C102.302 94.4974 102.113 94.4176 101.972 94.2775C101.832 94.1374 101.752 93.9481 101.75 93.75ZM94.9999 94.5C94.8516 94.5 94.7066 94.456 94.5832 94.3736C94.4599 94.2912 94.3638 94.1741 94.307 94.037C94.2502 93.9 94.2354 93.7492 94.2643 93.6037C94.2933 93.4582 94.3647 93.3246 94.4696 93.2197C94.5745 93.1148 94.7081 93.0434 94.8536 93.0144C94.9991 92.9855 95.1499 93.0003 95.2869 93.0571C95.424 93.1139 95.5411 93.21 95.6235 93.3333C95.7059 93.4567 95.7499 93.6017 95.7499 93.75C95.7473 93.9481 95.6675 94.1374 95.5274 94.2775C95.3873 94.4176 95.198 94.4974 94.9999 94.5ZM106 90C106.006 90.0357 106.004 90.0724 105.994 90.1072C105.983 90.142 105.965 90.1738 105.94 90.2C105.917 90.2279 105.888 90.2504 105.855 90.2659C105.822 90.2815 105.786 90.2897 105.75 90.29H104.25C104.213 90.2905 104.177 90.2829 104.144 90.268C104.111 90.253 104.081 90.2309 104.057 90.2033C104.033 90.1756 104.016 90.1431 104.006 90.108C103.996 90.0729 103.994 90.036 104 90V88.52C104 88.4837 104.008 88.4479 104.024 88.4151C104.04 88.3823 104.062 88.3532 104.09 88.33C104.116 88.3049 104.148 88.2864 104.183 88.276C104.217 88.2656 104.254 88.2635 104.29 88.27C104.725 88.3303 105.129 88.5324 105.438 88.8451C105.747 89.1579 105.945 89.5638 106 90Z" fill="#111111"/>
</g>
</g>
<g id="Size=32px, Filled=true" clip-path="url(#clip5_1126_883)">
<g id="Vector_12">
<path d="M147.667 83.3333C147.931 83.3299 148.183 83.2234 148.37 83.0366C148.557 82.8498 148.663 82.5975 148.667 82.3333C148.667 72 139.493 68 134.333 68C131.144 68.0018 128.046 69.0675 125.53 71.0284C123.014 72.9894 121.224 75.7334 120.444 78.8263C119.663 81.9191 119.937 85.1838 121.221 88.1037C122.505 91.0235 124.726 93.4316 127.533 94.9467C127.765 95.0629 128.032 95.0862 128.28 95.0118C128.528 94.9375 128.738 94.771 128.867 94.5467C128.985 94.3144 129.008 94.045 128.931 93.7959C128.854 93.5469 128.683 93.3378 128.453 93.2133C127.196 92.5194 126.064 91.6178 125.107 90.5467C125.075 90.4919 125.059 90.4299 125.059 90.3667C125.059 90.3035 125.075 90.2414 125.107 90.1867C125.128 90.1403 125.159 90.0994 125.198 90.067C125.238 90.0347 125.284 90.0117 125.333 90H127.507C127.772 90 128.026 89.8946 128.214 89.7071C128.401 89.5196 128.507 89.2652 128.507 89C128.507 88.7348 128.401 88.4804 128.214 88.2929C128.026 88.1054 127.772 88 127.507 88H123.587C123.523 88.0031 123.459 87.987 123.405 87.9537C123.35 87.9204 123.307 87.8715 123.28 87.8133C122.647 86.5237 122.241 85.1344 122.08 83.7067C122.073 83.6591 122.077 83.6106 122.091 83.5646C122.105 83.5186 122.128 83.4761 122.16 83.44C122.193 83.4059 122.232 83.3788 122.276 83.3605C122.319 83.3421 122.366 83.3329 122.413 83.3333H147.667ZM123.293 76.8533C123.318 76.7962 123.359 76.7477 123.411 76.7144C123.463 76.6811 123.525 76.6644 123.587 76.6667H128.16C128.209 76.6671 128.256 76.678 128.3 76.6987C128.344 76.7195 128.382 76.7495 128.413 76.7867C128.447 76.8243 128.47 76.8695 128.482 76.9184C128.493 76.9672 128.493 77.0181 128.48 77.0667C128.207 78.3836 128.051 79.7222 128.013 81.0667C128.007 81.1517 127.969 81.2313 127.908 81.2903C127.846 81.3493 127.765 81.3836 127.68 81.3867H122.413C122.366 81.3871 122.319 81.3779 122.276 81.3595C122.232 81.3412 122.193 81.3141 122.16 81.28C122.128 81.2439 122.105 81.2014 122.091 81.1554C122.077 81.1094 122.073 81.0609 122.08 81.0133C122.229 79.5645 122.64 78.1549 123.293 76.8533ZM146.587 80.96C146.593 81.0076 146.59 81.0561 146.576 81.1021C146.562 81.1481 146.539 81.1906 146.507 81.2267C146.474 81.2608 146.435 81.2878 146.391 81.3062C146.348 81.3245 146.301 81.3338 146.253 81.3333H140.92C140.835 81.3303 140.754 81.296 140.692 81.237C140.631 81.1779 140.593 81.0983 140.587 81.0133C140.55 79.6688 140.393 78.3303 140.12 77.0133C140.098 76.97 140.086 76.922 140.086 76.8733C140.086 76.8246 140.098 76.7767 140.12 76.7333C140.151 76.6961 140.19 76.6661 140.234 76.6454C140.277 76.6247 140.325 76.6137 140.373 76.6133H144.947C145.009 76.6111 145.07 76.6277 145.122 76.6611C145.175 76.6944 145.216 76.7429 145.24 76.8C145.94 78.0925 146.396 79.5026 146.587 80.96ZM138.587 80.96C138.59 81.0044 138.583 81.0488 138.567 81.0903C138.55 81.1317 138.525 81.1692 138.493 81.2C138.463 81.2331 138.426 81.2596 138.384 81.278C138.343 81.2963 138.299 81.3061 138.253 81.3067H130.253C130.208 81.3061 130.164 81.2963 130.122 81.278C130.081 81.2596 130.044 81.2331 130.013 81.2C129.981 81.1692 129.956 81.1317 129.94 81.0903C129.924 81.0488 129.917 81.0044 129.92 80.96C129.975 79.6115 130.163 78.2718 130.48 76.96C130.496 76.8871 130.536 76.8219 130.594 76.7757C130.653 76.7294 130.726 76.705 130.8 76.7067H137.68C137.755 76.705 137.827 76.7294 137.886 76.7757C137.944 76.8219 137.985 76.8871 138 76.96C138.368 78.2741 138.591 79.6242 138.667 80.9867L138.587 80.96ZM143.453 74.08C143.485 74.1347 143.502 74.1968 143.502 74.26C143.502 74.3232 143.485 74.3853 143.453 74.44C143.427 74.4996 143.385 74.5503 143.33 74.5859C143.276 74.6214 143.212 74.6402 143.147 74.64H139.773C139.703 74.6389 139.635 74.6167 139.578 74.5763C139.521 74.5358 139.478 74.479 139.453 74.4133C139.064 73.293 138.578 72.2089 138 71.1733C137.967 71.1141 137.95 71.0476 137.95 70.98C137.95 70.9124 137.967 70.8459 138 70.7867C138.045 70.723 138.111 70.6765 138.186 70.6548C138.261 70.633 138.341 70.6372 138.413 70.6667C140.378 71.3652 142.135 72.5485 143.52 74.1067L143.453 74.08ZM134.773 70.0133C134.823 70.0144 134.872 70.0269 134.916 70.0501C134.96 70.0732 134.998 70.1063 135.027 70.1467C135.924 71.4307 136.671 72.813 137.253 74.2667C137.277 74.3072 137.289 74.3532 137.289 74.4C137.289 74.4468 137.277 74.4928 137.253 74.5333C137.227 74.5734 137.192 74.6066 137.15 74.6298C137.108 74.6531 137.061 74.6657 137.013 74.6667H131.747C131.692 74.6662 131.638 74.6526 131.589 74.6271C131.54 74.6016 131.498 74.5649 131.467 74.52C131.444 74.472 131.432 74.4197 131.432 74.3667C131.432 74.3137 131.444 74.2613 131.467 74.2133C132.048 72.8017 132.786 71.46 133.667 70.2133C133.698 70.1719 133.738 70.1383 133.784 70.1152C133.831 70.092 133.882 70.08 133.933 70.08H134.8L134.773 70.0133ZM130.253 70.6667C130.326 70.6372 130.406 70.633 130.481 70.6548C130.556 70.6765 130.621 70.723 130.667 70.7867C130.702 70.8424 130.721 70.9072 130.721 70.9733C130.721 71.0395 130.702 71.1043 130.667 71.16C130.095 72.2126 129.609 73.3095 129.213 74.44C129.191 74.5068 129.148 74.5646 129.09 74.6054C129.033 74.6461 128.964 74.6676 128.893 74.6667H125.4C125.335 74.6669 125.271 74.6481 125.217 74.6125C125.162 74.577 125.119 74.5263 125.093 74.4667C125.062 74.4119 125.045 74.3499 125.045 74.2867C125.045 74.2235 125.062 74.1614 125.093 74.1067C126.494 72.541 128.27 71.3572 130.253 70.6667Z" fill="#111111"/>
<path d="M147.067 87H145.733C145.676 86.9987 145.619 86.9803 145.572 86.947C145.524 86.9138 145.488 86.8673 145.467 86.8133C145.296 86.3841 145.003 86.0147 144.623 85.7514C144.244 85.4881 143.795 85.3427 143.333 85.3333H132.667C132.049 85.3368 131.458 85.5838 131.021 86.0206C130.584 86.4574 130.337 87.0489 130.333 87.6667V95.6667C130.338 96.1069 130.466 96.5371 130.701 96.9092C130.937 97.2812 131.271 97.5804 131.667 97.7733C131.747 97.8102 131.809 97.8773 131.84 97.96C132.035 98.5322 132.398 99.0322 132.882 99.3946C133.366 99.7569 133.947 99.9647 134.551 99.9906C135.155 100.017 135.753 99.8595 136.266 99.54C136.779 99.2205 137.184 98.7534 137.427 98.2C137.453 98.1404 137.496 98.0897 137.55 98.0541C137.605 98.0186 137.668 97.9998 137.733 98H141.627C141.692 97.9998 141.756 98.0186 141.81 98.0541C141.865 98.0897 141.907 98.1404 141.933 98.2C142.158 98.7048 142.517 99.138 142.972 99.4516C143.426 99.7653 143.959 99.9473 144.51 99.9777C145.062 100.008 145.611 99.8855 146.098 99.6236C146.584 99.3616 146.989 98.9705 147.267 98.4933C147.295 98.4443 147.336 98.4036 147.385 98.3755C147.434 98.3474 147.49 98.3328 147.547 98.3333H149.467C150.151 98.2991 150.795 98.0031 151.267 97.5067C151.738 97.0102 152.001 96.3514 152 95.6667V92.3333C152.051 90.9726 151.56 89.6472 150.635 88.6476C149.71 87.648 148.427 87.0555 147.067 87ZM143.667 97C143.667 96.8022 143.725 96.6089 143.835 96.4444C143.945 96.28 144.101 96.1518 144.284 96.0761C144.467 96.0004 144.668 95.9806 144.862 96.0192C145.056 96.0578 145.234 96.153 145.374 96.2929C145.514 96.4327 145.609 96.6109 145.648 96.8049C145.686 96.9989 145.666 97.2 145.591 97.3827C145.515 97.5654 145.387 97.7216 145.222 97.8315C145.058 97.9413 144.865 98 144.667 98C144.403 97.9965 144.15 97.8901 143.963 97.7033C143.777 97.5165 143.67 97.2641 143.667 97ZM134.667 98C134.469 98 134.276 97.9413 134.111 97.8315C133.947 97.7216 133.819 97.5654 133.743 97.3827C133.667 97.2 133.647 96.9989 133.686 96.8049C133.725 96.6109 133.82 96.4327 133.96 96.2929C134.1 96.153 134.278 96.0578 134.472 96.0192C134.666 95.9806 134.867 96.0004 135.049 96.0761C135.232 96.1518 135.388 96.28 135.498 96.4444C135.608 96.6089 135.667 96.8022 135.667 97C135.663 97.2641 135.557 97.5165 135.37 97.7033C135.183 97.8901 134.931 97.9965 134.667 98ZM149.333 92C149.342 92.0476 149.339 92.0966 149.325 92.1429C149.312 92.1893 149.287 92.2317 149.253 92.2667C149.222 92.3039 149.184 92.3339 149.14 92.3546C149.096 92.3753 149.049 92.3863 149 92.3867H147C146.951 92.3873 146.903 92.3773 146.859 92.3573C146.815 92.3373 146.775 92.3079 146.743 92.271C146.712 92.2342 146.688 92.1908 146.675 92.144C146.662 92.0972 146.659 92.048 146.667 92V90.0267C146.667 89.9783 146.678 89.9305 146.699 89.8868C146.72 89.843 146.75 89.8043 146.787 89.7733C146.822 89.7399 146.864 89.7152 146.911 89.7013C146.957 89.6874 147.006 89.6847 147.053 89.6933C147.634 89.7737 148.172 90.0432 148.584 90.4602C148.997 90.8772 149.26 91.4184 149.333 92Z" fill="#111111"/>
</g>
</g>
<g id="Size=40px, Filled=true" clip-path="url(#clip6_1126_883)">
<g id="Vector_13">
<path d="M198.583 83.1667C198.914 83.1623 199.229 83.0293 199.463 82.7958C199.696 82.5623 199.829 82.2468 199.833 81.9167C199.833 69 188.367 64 181.917 64C177.93 64.0022 174.057 65.3344 170.912 67.7855C167.767 70.2367 165.53 73.6668 164.555 77.5328C163.579 81.3988 163.921 85.4798 165.526 89.1296C167.131 92.7794 169.908 95.7895 173.417 97.6833C173.706 97.8286 174.04 97.8578 174.35 97.7648C174.659 97.6718 174.922 97.4638 175.083 97.1833C175.232 96.893 175.261 96.5563 175.164 96.2449C175.067 95.9336 174.853 95.6723 174.567 95.5167C172.994 94.6492 171.58 93.5222 170.383 92.1833C170.344 92.1149 170.323 92.0373 170.323 91.9583C170.323 91.8793 170.344 91.8017 170.383 91.7333C170.41 91.6754 170.449 91.6242 170.498 91.5838C170.547 91.5433 170.605 91.5147 170.667 91.5H173.383C173.715 91.5 174.033 91.3683 174.267 91.1339C174.502 90.8995 174.633 90.5815 174.633 90.25C174.633 89.9185 174.502 89.6005 174.267 89.3661C174.033 89.1317 173.715 89 173.383 89H168.483C168.404 89.0039 168.324 88.9838 168.256 88.9422C168.188 88.9006 168.133 88.8394 168.1 88.7667C167.308 87.1547 166.801 85.418 166.6 83.6333C166.592 83.5738 166.596 83.5133 166.614 83.4557C166.631 83.3982 166.66 83.3451 166.7 83.3C166.741 83.2574 166.79 83.2235 166.845 83.2006C166.899 83.1777 166.958 83.1661 167.017 83.1667H198.583ZM168.117 75.0667C168.147 74.9952 168.198 74.9347 168.264 74.893C168.329 74.8514 168.406 74.8305 168.483 74.8333H174.2C174.261 74.8338 174.32 74.8475 174.375 74.8734C174.43 74.8993 174.478 74.9368 174.517 74.9833C174.558 75.0304 174.587 75.0869 174.602 75.148C174.617 75.209 174.616 75.2726 174.6 75.3333C174.259 76.9795 174.063 78.6527 174.017 80.3333C174.009 80.4396 173.962 80.5391 173.885 80.6129C173.808 80.6867 173.707 80.7295 173.6 80.7333H167.017C166.958 80.7339 166.899 80.7223 166.845 80.6994C166.79 80.6765 166.741 80.6426 166.7 80.6C166.66 80.5549 166.631 80.5018 166.614 80.4443C166.596 80.3867 166.592 80.3262 166.6 80.2667C166.786 78.4557 167.3 76.6936 168.117 75.0667ZM197.233 80.2C197.242 80.2595 197.237 80.3201 197.22 80.3776C197.203 80.4351 197.173 80.4883 197.133 80.5333C197.093 80.576 197.043 80.6098 196.989 80.6327C196.934 80.6557 196.876 80.6672 196.817 80.6667H190.15C190.044 80.6629 189.942 80.62 189.865 80.5462C189.789 80.4724 189.742 80.3729 189.733 80.2667C189.687 78.5861 189.492 76.9129 189.15 75.2667C189.122 75.2125 189.108 75.1525 189.108 75.0917C189.108 75.0308 189.122 74.9708 189.15 74.9167C189.189 74.8702 189.237 74.8327 189.292 74.8068C189.347 74.7809 189.406 74.7672 189.467 74.7667H195.183C195.261 74.7639 195.338 74.7847 195.403 74.8263C195.468 74.868 195.52 74.9286 195.55 75C196.425 76.6156 196.995 78.3782 197.233 80.2ZM187.233 80.2C187.237 80.2555 187.228 80.311 187.208 80.3628C187.188 80.4146 187.157 80.4614 187.117 80.5C187.078 80.5414 187.032 80.5745 186.98 80.5975C186.929 80.6204 186.873 80.6326 186.817 80.6333H176.817C176.76 80.6326 176.705 80.6204 176.653 80.5975C176.601 80.5745 176.555 80.5414 176.517 80.5C176.477 80.4614 176.446 80.4146 176.425 80.3628C176.405 80.311 176.397 80.2555 176.4 80.2C176.469 78.5144 176.704 76.8397 177.1 75.2C177.119 75.1089 177.17 75.0274 177.243 74.9696C177.316 74.9118 177.407 74.8813 177.5 74.8833H186.1C186.193 74.8813 186.284 74.9118 186.357 74.9696C186.43 75.0274 186.481 75.1089 186.5 75.2C186.96 76.8426 187.239 78.5303 187.333 80.2333L187.233 80.2ZM193.317 71.6C193.356 71.6684 193.377 71.746 193.377 71.825C193.377 71.904 193.356 71.9816 193.317 72.05C193.284 72.1245 193.231 72.1879 193.162 72.2323C193.094 72.2768 193.015 72.3003 192.933 72.3H188.717C188.629 72.2987 188.544 72.2709 188.473 72.2203C188.401 72.1698 188.347 72.0988 188.317 72.0167C187.83 70.6163 187.223 69.2611 186.5 67.9667C186.459 67.8927 186.438 67.8095 186.438 67.725C186.438 67.6405 186.459 67.5573 186.5 67.4833C186.557 67.4038 186.639 67.3457 186.732 67.3184C186.826 67.2912 186.926 67.2965 187.017 67.3333C189.473 68.2065 191.668 69.6856 193.4 71.6333L193.317 71.6ZM182.467 66.5167C182.529 66.518 182.59 66.5337 182.645 66.5626C182.7 66.5915 182.747 66.6329 182.783 66.6833C183.904 68.2884 184.838 70.0163 185.567 71.8333C185.596 71.884 185.611 71.9415 185.611 72C185.611 72.0585 185.596 72.116 185.567 72.1667C185.534 72.2168 185.49 72.2582 185.437 72.2873C185.385 72.3163 185.327 72.3321 185.267 72.3333H178.683C178.615 72.3327 178.547 72.3158 178.486 72.2839C178.425 72.252 178.373 72.2061 178.333 72.15C178.305 72.09 178.291 72.0246 178.291 71.9583C178.291 71.8921 178.305 71.8266 178.333 71.7667C179.06 70.0022 179.982 68.325 181.083 66.7667C181.122 66.7149 181.173 66.6729 181.23 66.644C181.288 66.6151 181.352 66.6 181.417 66.6H182.5L182.467 66.5167ZM176.817 67.3333C176.907 67.2965 177.007 67.2912 177.101 67.3184C177.195 67.3457 177.277 67.4038 177.333 67.4833C177.378 67.553 177.402 67.634 177.402 67.7167C177.402 67.7994 177.378 67.8803 177.333 67.95C176.619 69.2658 176.011 70.6369 175.517 72.05C175.489 72.1334 175.435 72.2058 175.363 72.2567C175.291 72.3076 175.205 72.3344 175.117 72.3333H170.75C170.669 72.3336 170.589 72.3101 170.521 72.2657C170.453 72.2213 170.399 72.1579 170.367 72.0833C170.327 72.0149 170.306 71.9373 170.306 71.8583C170.306 71.7793 170.327 71.7017 170.367 71.6333C172.117 69.6763 174.337 68.1966 176.817 67.3333Z" fill="#111111"/>
<path d="M197.833 87.75H196.167C196.094 87.7484 196.024 87.7253 195.965 87.6838C195.905 87.6423 195.86 87.5841 195.833 87.5167C195.62 86.9801 195.254 86.5183 194.779 86.1893C194.305 85.8602 193.744 85.6784 193.167 85.6667H179.833C179.061 85.671 178.322 85.9797 177.776 86.5258C177.23 87.0718 176.921 87.8111 176.917 88.5833V98.5833C176.923 99.1337 177.082 99.6714 177.376 100.136C177.671 100.602 178.089 100.976 178.583 101.217C178.684 101.263 178.762 101.347 178.8 101.45C179.044 102.165 179.497 102.79 180.102 103.243C180.707 103.696 181.434 103.956 182.189 103.988C182.944 104.021 183.691 103.824 184.332 103.425C184.974 103.026 185.48 102.442 185.783 101.75C185.816 101.675 185.87 101.612 185.938 101.568C186.006 101.523 186.085 101.5 186.167 101.5H191.033C191.115 101.5 191.194 101.523 191.262 101.568C191.331 101.612 191.384 101.675 191.417 101.75C191.697 102.381 192.146 102.922 192.715 103.315C193.283 103.707 193.948 103.934 194.638 103.972C195.327 104.01 196.014 103.857 196.622 103.529C197.23 103.202 197.736 102.713 198.083 102.117C198.119 102.055 198.17 102.004 198.231 101.969C198.293 101.934 198.363 101.916 198.433 101.917H200.833C201.688 101.874 202.494 101.504 203.083 100.883C203.673 100.263 204.001 99.4393 204 98.5833V94.4167C204.063 92.7157 203.45 91.059 202.294 89.8095C201.138 88.5599 199.534 87.8194 197.833 87.75ZM193.583 100.25C193.583 100.003 193.657 99.7611 193.794 99.5555C193.931 99.35 194.127 99.1898 194.355 99.0952C194.583 99.0005 194.835 98.9758 195.077 99.024C195.32 99.0723 195.542 99.1913 195.717 99.3661C195.892 99.5409 196.011 99.7637 196.059 100.006C196.108 100.249 196.083 100.5 195.988 100.728C195.894 100.957 195.733 101.152 195.528 101.289C195.322 101.427 195.081 101.5 194.833 101.5C194.503 101.496 194.188 101.363 193.954 101.129C193.721 100.896 193.588 100.58 193.583 100.25ZM182.333 101.5C182.086 101.5 181.845 101.427 181.639 101.289C181.433 101.152 181.273 100.957 181.179 100.728C181.084 100.5 181.059 100.249 181.107 100.006C181.156 99.7637 181.275 99.5409 181.45 99.3661C181.624 99.1913 181.847 99.0723 182.09 99.024C182.332 98.9758 182.583 99.0005 182.812 99.0952C183.04 99.1898 183.235 99.35 183.373 99.5555C183.51 99.7611 183.583 100.003 183.583 100.25C183.579 100.58 183.446 100.896 183.213 101.129C182.979 101.363 182.664 101.496 182.333 101.5ZM200.667 94C200.678 94.0595 200.674 94.1207 200.657 94.1787C200.639 94.2366 200.609 94.2896 200.567 94.3333C200.528 94.3798 200.48 94.4173 200.425 94.4432C200.37 94.4691 200.311 94.4828 200.25 94.4833H197.75C197.689 94.4841 197.629 94.4716 197.574 94.4466C197.518 94.4216 197.469 94.3848 197.429 94.3388C197.389 94.2927 197.36 94.2385 197.344 94.18C197.327 94.1215 197.324 94.06 197.333 94V91.5333C197.334 91.4728 197.348 91.4132 197.374 91.3585C197.399 91.3038 197.437 91.2554 197.483 91.2167C197.527 91.1749 197.58 91.144 197.638 91.1267C197.696 91.1093 197.757 91.1059 197.817 91.1167C198.543 91.2171 199.215 91.554 199.73 92.0753C200.246 92.5965 200.575 93.2729 200.667 94Z" fill="#111111"/>
</g>
</g>
<g id="Size=48px, Filled=true" clip-path="url(#clip7_1126_883)">
<g id="Vector_14">
<path d="M257.5 83C257.896 82.9948 258.275 82.8351 258.555 82.5549C258.835 82.2747 258.995 81.8962 259 81.5C259 66 245.24 60 237.5 60C232.715 60.0027 228.068 61.6012 224.295 64.5426C220.521 67.484 217.836 71.6002 216.665 76.2394C215.495 80.8786 215.905 85.7757 217.831 90.1555C219.757 94.5353 223.09 98.1474 227.3 100.42C227.647 100.594 228.047 100.629 228.419 100.518C228.791 100.406 229.106 100.157 229.3 99.82C229.478 99.4716 229.513 99.0675 229.397 98.6939C229.281 98.3203 229.024 98.0067 228.68 97.82C226.793 96.7791 225.096 95.4267 223.66 93.82C223.613 93.7379 223.588 93.6448 223.588 93.55C223.588 93.4552 223.613 93.3621 223.66 93.28C223.692 93.2105 223.739 93.1491 223.798 93.1005C223.856 93.052 223.926 93.0176 224 93H227.26C227.658 93 228.039 92.842 228.321 92.5607C228.602 92.2794 228.76 91.8978 228.76 91.5C228.76 91.1022 228.602 90.7206 228.321 90.4393C228.039 90.158 227.658 90 227.26 90H221.38C221.284 90.0047 221.189 89.9805 221.107 89.9306C221.025 89.8807 220.96 89.8073 220.92 89.72C219.97 87.7856 219.361 85.7016 219.12 83.56C219.11 83.4886 219.116 83.4159 219.136 83.3469C219.157 83.2778 219.192 83.2141 219.24 83.16C219.289 83.1088 219.348 83.0682 219.414 83.0407C219.479 83.0132 219.549 82.9994 219.62 83H257.5ZM220.94 73.28C220.976 73.1943 221.038 73.1216 221.117 73.0716C221.195 73.0216 221.287 72.9966 221.38 73H228.24C228.313 73.0006 228.384 73.017 228.45 73.0481C228.516 73.0792 228.574 73.1242 228.62 73.18C228.67 73.2365 228.705 73.3043 228.722 73.3775C228.74 73.4508 228.739 73.5272 228.72 73.6C228.31 75.5754 228.076 77.5833 228.02 79.6C228.01 79.7275 227.954 79.8469 227.862 79.9354C227.769 80.024 227.648 80.0755 227.52 80.08H219.62C219.549 80.0806 219.479 80.0668 219.414 80.0393C219.348 80.0118 219.289 79.9712 219.24 79.92C219.192 79.8659 219.157 79.8022 219.136 79.7331C219.116 79.6641 219.11 79.5914 219.12 79.52C219.343 77.3468 219.96 75.2323 220.94 73.28ZM255.88 79.44C255.89 79.5114 255.885 79.5841 255.864 79.6531C255.843 79.7222 255.808 79.7859 255.76 79.84C255.711 79.8912 255.652 79.9318 255.587 79.9593C255.521 79.9868 255.451 80.0006 255.38 80H247.38C247.252 79.9955 247.131 79.944 247.038 79.8554C246.946 79.7669 246.89 79.6475 246.88 79.52C246.824 77.5033 246.59 75.4954 246.18 73.52C246.147 73.455 246.129 73.383 246.129 73.31C246.129 73.237 246.147 73.165 246.18 73.1C246.227 73.0442 246.285 72.9992 246.35 72.9681C246.416 72.937 246.487 72.9206 246.56 72.92H253.42C253.513 72.9166 253.605 72.9416 253.684 72.9916C253.762 73.0416 253.824 73.1143 253.86 73.2C254.91 75.1387 255.595 77.2538 255.88 79.44ZM243.88 79.44C243.884 79.5066 243.874 79.5732 243.85 79.6354C243.825 79.6976 243.788 79.7537 243.74 79.8C243.694 79.8497 243.638 79.8894 243.576 79.917C243.515 79.9445 243.448 79.9591 243.38 79.96H231.38C231.312 79.9591 231.246 79.9445 231.184 79.917C231.122 79.8894 231.066 79.8497 231.02 79.8C230.972 79.7537 230.935 79.6976 230.91 79.6354C230.886 79.5732 230.876 79.5066 230.88 79.44C230.963 77.4173 231.244 75.4077 231.72 73.44C231.743 73.3307 231.804 73.2329 231.892 73.1635C231.979 73.0942 232.088 73.0576 232.2 73.06H242.52C242.632 73.0576 242.741 73.0942 242.828 73.1635C242.916 73.2329 242.977 73.3307 243 73.44C243.552 75.4111 243.887 77.4363 244 79.48L243.88 79.44ZM251.18 69.12C251.227 69.2021 251.252 69.2952 251.252 69.39C251.252 69.4848 251.227 69.5779 251.18 69.66C251.141 69.7494 251.077 69.8255 250.995 69.8788C250.913 69.9321 250.818 69.9603 250.72 69.96H245.66C245.555 69.9584 245.453 69.9251 245.367 69.8644C245.282 69.8037 245.216 69.7185 245.18 69.62C244.596 67.9396 243.867 66.3134 243 64.76C242.951 64.6712 242.925 64.5714 242.925 64.47C242.925 64.3686 242.951 64.2688 243 64.18C243.068 64.0845 243.166 64.0148 243.279 63.9821C243.391 63.9495 243.512 63.9558 243.62 64C246.567 65.0479 249.202 66.8227 251.28 69.16L251.18 69.12ZM238.16 63.02C238.235 63.0215 238.308 63.0404 238.374 63.0751C238.44 63.1099 238.497 63.1594 238.54 63.22C239.885 65.1461 241.006 67.2195 241.88 69.4C241.915 69.4608 241.934 69.5298 241.934 69.6C241.934 69.6702 241.915 69.7392 241.88 69.8C241.841 69.8602 241.788 69.9099 241.725 69.9447C241.662 69.9796 241.592 69.9986 241.52 70H233.62C233.538 69.9992 233.457 69.9789 233.384 69.9407C233.31 69.9024 233.248 69.8473 233.2 69.78C233.166 69.7081 233.149 69.6295 233.149 69.55C233.149 69.4705 233.166 69.3919 233.2 69.32C234.072 67.2026 235.179 65.19 236.5 63.32C236.547 63.2579 236.607 63.2075 236.676 63.1728C236.746 63.1381 236.822 63.12 236.9 63.12H238.2L238.16 63.02ZM231.38 64C231.489 63.9558 231.609 63.9495 231.721 63.9821C231.834 64.0148 231.932 64.0845 232 64.18C232.053 64.2636 232.082 64.3608 232.082 64.46C232.082 64.5592 232.053 64.6564 232 64.74C231.143 66.3189 230.414 67.9642 229.82 69.66C229.786 69.7601 229.722 69.847 229.635 69.9081C229.549 69.9691 229.446 70.0013 229.34 70H224.1C224.002 70.0003 223.907 69.9721 223.825 69.9188C223.743 69.8655 223.679 69.7894 223.64 69.7C223.593 69.6179 223.568 69.5248 223.568 69.43C223.568 69.3352 223.593 69.2421 223.64 69.16C225.741 66.8115 228.404 65.0359 231.38 64Z" fill="#111111"/>
<path d="M256.6 88.5H254.6C254.513 88.498 254.429 88.4704 254.358 88.4206C254.286 88.3707 254.232 88.301 254.2 88.22C253.944 87.5761 253.504 87.022 252.935 86.6271C252.366 86.2322 251.693 86.0141 251 86H235C234.073 86.0053 233.186 86.3757 232.531 87.0309C231.876 87.6862 231.505 88.5734 231.5 89.5V101.5C231.507 102.16 231.698 102.806 232.052 103.364C232.405 103.922 232.906 104.371 233.5 104.66C233.62 104.715 233.714 104.816 233.76 104.94C234.052 105.798 234.597 106.548 235.322 107.092C236.048 107.635 236.921 107.947 237.827 107.986C238.733 108.025 239.629 107.789 240.399 107.31C241.168 106.831 241.775 106.13 242.14 105.3C242.179 105.211 242.243 105.134 242.325 105.081C242.407 105.028 242.502 105 242.6 105H248.44C248.538 105 248.633 105.028 248.715 105.081C248.797 105.134 248.861 105.211 248.9 105.3C249.236 106.057 249.775 106.707 250.457 107.177C251.139 107.648 251.938 107.921 252.765 107.967C253.593 108.012 254.417 107.828 255.146 107.435C255.876 107.042 256.483 106.456 256.9 105.74C256.943 105.666 257.004 105.605 257.078 105.563C257.151 105.521 257.235 105.499 257.32 105.5H260.2C261.226 105.449 262.193 105.005 262.9 104.26C263.607 103.515 264.001 102.527 264 101.5V96.5C264.076 94.4588 263.34 92.4708 261.953 90.9714C260.566 89.4719 258.641 88.5833 256.6 88.5ZM251.5 103.5C251.5 103.203 251.588 102.913 251.753 102.667C251.918 102.42 252.152 102.228 252.426 102.114C252.7 102.001 253.002 101.971 253.293 102.029C253.584 102.087 253.851 102.23 254.061 102.439C254.27 102.649 254.413 102.916 254.471 103.207C254.529 103.498 254.499 103.8 254.386 104.074C254.272 104.348 254.08 104.582 253.833 104.747C253.587 104.912 253.297 105 253 105C252.604 104.995 252.225 104.835 251.945 104.555C251.665 104.275 251.505 103.896 251.5 103.5ZM238 105C237.703 105 237.413 104.912 237.167 104.747C236.92 104.582 236.728 104.348 236.614 104.074C236.501 103.8 236.471 103.498 236.529 103.207C236.587 102.916 236.73 102.649 236.939 102.439C237.149 102.23 237.416 102.087 237.707 102.029C237.998 101.971 238.3 102.001 238.574 102.114C238.848 102.228 239.082 102.42 239.247 102.667C239.412 102.913 239.5 103.203 239.5 103.5C239.495 103.896 239.335 104.275 239.055 104.555C238.775 104.835 238.396 104.995 238 105ZM260 96C260.013 96.0714 260.009 96.1449 259.988 96.2144C259.967 96.2839 259.93 96.3475 259.88 96.4C259.834 96.4558 259.776 96.5008 259.71 96.5319C259.644 96.563 259.573 96.5794 259.5 96.58H256.5C256.427 96.5809 256.355 96.5659 256.288 96.5359C256.222 96.506 256.163 96.4618 256.115 96.4065C256.067 96.3512 256.032 96.2862 256.012 96.216C255.993 96.1458 255.988 96.072 256 96V93.04C256.001 92.9674 256.017 92.8958 256.048 92.8302C256.079 92.7645 256.124 92.7065 256.18 92.66C256.233 92.6099 256.296 92.5728 256.366 92.552C256.435 92.5311 256.509 92.527 256.58 92.54C257.451 92.6606 258.258 93.0648 258.877 93.6903C259.495 94.3158 259.89 95.1275 260 96Z" fill="#111111"/>
</g>
</g>
</g>
</g>
<defs>
<clipPath id="clip0_1126_883">
<rect width="264" height="108" rx="5" fill="white"/>
</clipPath>
<clipPath id="clip1_1126_883">
<rect width="12" height="12" fill="white" transform="translate(0 78)"/>
</clipPath>
<clipPath id="clip2_1126_883">
<rect width="16" height="16" fill="white" transform="translate(24 76)"/>
</clipPath>
<clipPath id="clip3_1126_883">
<rect width="20" height="20" fill="white" transform="translate(52 74)"/>
</clipPath>
<clipPath id="clip4_1126_883">
<rect width="24" height="24" fill="white" transform="translate(84 72)"/>
</clipPath>
<clipPath id="clip5_1126_883">
<rect width="32" height="32" fill="white" transform="translate(120 68)"/>
</clipPath>
<clipPath id="clip6_1126_883">
<rect width="40" height="40" fill="white" transform="translate(164 64)"/>
</clipPath>
<clipPath id="clip7_1126_883">
<rect width="48" height="48" fill="white" transform="translate(216 60)"/>
</clipPath>
</defs>
</svg>
