<svg width="264" height="108" viewBox="0 0 264 108" fill="none" xmlns="http://www.w3.org/2000/svg">
<g id="Truck (Tow)">
<g clip-path="url(#clip0_3570_415)">
<g id="Size=12px, Filled=false" clip-path="url(#clip1_3570_415)">
<path id="Vector" d="M1.25073 28.5001H0.500732C0.434428 28.5001 0.37084 28.4738 0.323956 28.4269C0.277072 28.38 0.250732 28.3164 0.250732 28.2501V26.2501C0.250732 26.1838 0.277072 26.1202 0.323956 26.0733C0.37084 26.0264 0.434428 26.0001 0.500732 26.0001H6.25073V22.0001C6.25073 21.8675 6.30341 21.7403 6.39718 21.6465C6.49095 21.5528 6.61812 21.5001 6.75073 21.5001H8.45073C8.67822 21.5001 8.89889 21.5777 9.07633 21.7201C9.25377 21.8624 9.37737 22.061 9.42673 22.2831L10.2507 24.4361M10.2507 24.4361L11.5557 25.4861C11.6719 25.5905 11.742 25.7366 11.7507 25.8926V28.2501C11.7507 28.3164 11.7244 28.38 11.6775 28.4269C11.6306 28.4738 11.567 28.5001 11.5007 28.5001H10.7507M10.2507 24.4361L6.25073 24.3929M8.75073 28.5H3.25073M2.99995 21L1.35345 19.3535M1.35345 19.3535C1.25968 19.4473 1.13178 19.5001 0.99917 19.5001C0.866562 19.5001 0.739385 19.4474 0.645616 19.3536C0.551848 19.2599 0.49917 19.1327 0.49917 19.0001C0.49917 18.8675 0.551848 18.7403 0.645616 18.6465C0.739385 18.5528 0.866562 18.5001 0.99917 18.5001C1.13178 18.5001 1.25896 18.5528 1.35272 18.6465C1.44649 18.7403 1.49917 18.8675 1.49917 19.0001C1.49917 19.1327 1.44722 19.2597 1.35345 19.3535ZM1.00073 19.5V21.5M0.250732 24.25C0.250732 24.3983 0.294719 24.5433 0.37713 24.6667C0.459541 24.79 0.576675 24.8861 0.71372 24.9429C0.850765 24.9997 1.00156 25.0145 1.14705 24.9856C1.29254 24.9566 1.42617 24.8852 1.53106 24.7803C1.63595 24.6754 1.70738 24.5418 1.73632 24.3963C1.76526 24.2508 1.75041 24.1 1.69364 23.963C1.63688 23.8259 1.54075 23.7088 1.41741 23.6264C1.29407 23.544 1.14907 23.5 1.00073 23.5V22.5M6.24968 25.83L2.99968 21.707C2.9086 21.6127 2.85821 21.4864 2.85935 21.3553C2.86048 21.2242 2.91307 21.0988 3.00577 21.0061C3.09848 20.9134 3.22388 20.8608 3.35498 20.8597C3.48608 20.8585 3.61238 20.9089 3.70668 21L6.24968 23.543M8.74917 28.5001C8.74917 28.7653 8.85453 29.0197 9.04206 29.2072C9.2296 29.3947 9.48395 29.5001 9.74917 29.5001C10.0144 29.5001 10.2687 29.3947 10.4563 29.2072C10.6438 29.0197 10.7492 28.7653 10.7492 28.5001C10.7492 28.2349 10.6438 27.9805 10.4563 27.793C10.2687 27.6054 10.0144 27.5001 9.74917 27.5001C9.48395 27.5001 9.2296 27.6054 9.04206 27.793C8.85453 27.9805 8.74917 28.2349 8.74917 28.5001ZM1.24917 28.5001C1.24917 28.7653 1.35453 29.0197 1.54206 29.2072C1.7296 29.3947 1.98395 29.5001 2.24917 29.5001C2.51439 29.5001 2.76874 29.3947 2.95628 29.2072C3.14381 29.0197 3.24917 28.7653 3.24917 28.5001C3.24917 28.2349 3.14381 27.9805 2.95628 27.793C2.76874 27.6054 2.51439 27.5001 2.24917 27.5001C1.98395 27.5001 1.7296 27.6054 1.54206 27.793C1.35453 27.9805 1.24917 28.2349 1.24917 28.5001ZM1.49995 22.5H0.499951V21.5H1.49995V22.5Z" stroke="#111111" stroke-width="0.75" stroke-linecap="round" stroke-linejoin="round"/>
</g>
<g id="Size=16px, Filled=false" clip-path="url(#clip2_3570_415)">
<path id="Vector_2" d="M25.6678 30.0001H24.6678C24.5794 30.0001 24.4946 29.965 24.4321 29.9025C24.3696 29.84 24.3345 29.7552 24.3345 29.6668V27.0001C24.3345 26.9117 24.3696 26.8269 24.4321 26.7644C24.4946 26.7019 24.5794 26.6668 24.6678 26.6668H32.3345V21.3335C32.3345 21.1566 32.4047 20.9871 32.5297 20.8621C32.6548 20.737 32.8243 20.6668 33.0011 20.6668H35.2678C35.5711 20.6668 35.8653 20.7703 36.1019 20.9601C36.3385 21.1499 36.5033 21.4147 36.5691 21.7108L37.6678 24.5815M37.6678 24.5815L39.4078 25.9815C39.5627 26.1207 39.6562 26.3155 39.6678 26.5235V29.6668C39.6678 29.7552 39.6327 29.84 39.5702 29.9025C39.5077 29.965 39.4229 30.0001 39.3345 30.0001H38.3345M37.6678 24.5815L32.3345 24.5238M35.6678 30H28.3345M28.0001 20L25.8048 17.8047M25.8048 17.8047C25.6797 17.9297 25.5092 18.0001 25.3324 18.0001C25.1556 18.0001 24.986 17.9299 24.861 17.8049C24.736 17.6798 24.6657 17.5103 24.6657 17.3335C24.6657 17.1566 24.736 16.9871 24.861 16.8621C24.986 16.737 25.1556 16.6668 25.3324 16.6668C25.5092 16.6668 25.6788 16.737 25.8038 16.8621C25.9288 16.9871 25.9991 17.1566 25.9991 17.3335C25.9991 17.5103 25.9298 17.6796 25.8048 17.8047ZM25.3345 18V20.6667M24.3345 24.3333C24.3345 24.5311 24.3931 24.7245 24.503 24.8889C24.6129 25.0533 24.7691 25.1815 24.9518 25.2572C25.1345 25.3329 25.3356 25.3527 25.5296 25.3141C25.7235 25.2755 25.9017 25.1803 26.0416 25.0404C26.1814 24.9006 26.2767 24.7224 26.3153 24.5284C26.3538 24.3344 26.334 24.1334 26.2584 23.9506C26.1827 23.7679 26.0545 23.6117 25.89 23.5019C25.7256 23.392 25.5323 23.3333 25.3345 23.3333V22M32.3331 26.44L27.9997 20.9427C27.8783 20.817 27.8111 20.6486 27.8126 20.4738C27.8141 20.299 27.8843 20.1318 28.0079 20.0081C28.1315 19.8845 28.2987 19.8144 28.4735 19.8129C28.6483 19.8114 28.8167 19.8786 28.9424 20L32.3331 23.3907M35.6657 30.0001C35.6657 30.3537 35.8062 30.6929 36.0562 30.9429C36.3063 31.193 36.6454 31.3335 36.9991 31.3335C37.3527 31.3335 37.6918 31.193 37.9419 30.9429C38.1919 30.6929 38.3324 30.3537 38.3324 30.0001C38.3324 29.6465 38.1919 29.3074 37.9419 29.0573C37.6918 28.8073 37.3527 28.6668 36.9991 28.6668C36.6454 28.6668 36.3063 28.8073 36.0562 29.0573C35.8062 29.3074 35.6657 29.6465 35.6657 30.0001ZM25.6657 30.0001C25.6657 30.3537 25.8062 30.6929 26.0562 30.9429C26.3063 31.193 26.6454 31.3335 26.9991 31.3335C27.3527 31.3335 27.6918 31.193 27.9419 30.9429C28.1919 30.6929 28.3324 30.3537 28.3324 30.0001C28.3324 29.6465 28.1919 29.3074 27.9419 29.0573C27.6918 28.8073 27.3527 28.6668 26.9991 28.6668C26.6454 28.6668 26.3063 28.8073 26.0562 29.0573C25.8062 29.3074 25.6657 29.6465 25.6657 30.0001ZM26.0001 22H24.6668V20.6667H26.0001V22Z" stroke="#111111" stroke-linecap="round" stroke-linejoin="round"/>
</g>
<g id="Size=20px, Filled=false" clip-path="url(#clip3_3570_415)">
<path id="Vector_3" d="M54.0846 31.5002H52.8346C52.7241 31.5002 52.6181 31.4563 52.54 31.3781C52.4619 31.3 52.418 31.194 52.418 31.0835V27.7502C52.418 27.6397 52.4619 27.5337 52.54 27.4555C52.6181 27.3774 52.7241 27.3335 52.8346 27.3335H62.418V20.6668C62.418 20.4458 62.5058 20.2339 62.662 20.0776C62.8183 19.9213 63.0303 19.8335 63.2513 19.8335H66.0846C66.4638 19.8336 66.8316 19.9629 67.1273 20.2001C67.423 20.4374 67.629 20.7684 67.7113 21.1385L69.0846 24.7268M69.0846 24.7268L71.2596 26.4768C71.4532 26.6508 71.5701 26.8944 71.5846 27.1543V31.0835C71.5846 31.194 71.5407 31.3 71.4626 31.3781C71.3845 31.4563 71.2785 31.5002 71.168 31.5002H69.918M69.0846 24.7268L62.418 24.6548M66.5846 31.5H57.418M57 19L54.2558 16.2558M54.2558 16.2558C54.0996 16.4121 53.8864 16.5002 53.6654 16.5002C53.4444 16.5002 53.2324 16.4124 53.0761 16.2561C52.9198 16.0998 52.832 15.8878 52.832 15.6668C52.832 15.4458 52.9198 15.2339 53.0761 15.0776C53.2324 14.9213 53.4444 14.8335 53.6654 14.8335C53.8864 14.8335 54.0983 14.9213 54.2546 15.0776C54.4109 15.2339 54.4987 15.4458 54.4987 15.6668C54.4987 15.8878 54.4121 16.0996 54.2558 16.2558ZM53.668 16.5V19.8333M52.418 24.4167C52.418 24.6639 52.4913 24.9056 52.6286 25.1111C52.766 25.3167 52.9612 25.4769 53.1896 25.5715C53.418 25.6661 53.6694 25.6909 53.9118 25.6426C54.1543 25.5944 54.377 25.4754 54.5519 25.3006C54.7267 25.1257 54.8457 24.903 54.894 24.6605C54.9422 24.4181 54.9174 24.1667 54.8228 23.9383C54.7282 23.7099 54.568 23.5147 54.3624 23.3773C54.1569 23.24 53.9152 23.1667 53.668 23.1667V21.5M62.4162 27.05L56.9996 20.1784C56.8478 20.0212 56.7638 19.8107 56.7657 19.5922C56.7676 19.3737 56.8552 19.1647 57.0097 19.0102C57.1642 18.8557 57.3732 18.768 57.5917 18.7661C57.8102 18.7642 58.0207 18.8482 58.1779 19L62.4162 23.2384M66.582 31.5002C66.582 31.9422 66.7576 32.3661 67.0702 32.6787C67.3827 32.9912 67.8067 33.1668 68.2487 33.1668C68.6907 33.1668 69.1146 32.9912 69.4272 32.6787C69.7398 32.3661 69.9154 31.9422 69.9154 31.5002C69.9154 31.0581 69.7398 30.6342 69.4272 30.3217C69.1146 30.0091 68.6907 29.8335 68.2487 29.8335C67.8067 29.8335 67.3827 30.0091 67.0702 30.3217C66.7576 30.6342 66.582 31.0581 66.582 31.5002ZM54.082 31.5002C54.082 31.9422 54.2576 32.3661 54.5702 32.6787C54.8827 32.9912 55.3067 33.1668 55.7487 33.1668C56.1907 33.1668 56.6146 32.9912 56.9272 32.6787C57.2398 32.3661 57.4154 31.9422 57.4154 31.5002C57.4154 31.0581 57.2398 30.6342 56.9272 30.3217C56.6146 30.0091 56.1907 29.8335 55.7487 29.8335C55.3067 29.8335 54.8827 30.0091 54.5702 30.3217C54.2576 30.6342 54.082 31.0581 54.082 31.5002ZM54.5 21.5H52.8333V19.8333H54.5V21.5Z" stroke="#111111" stroke-width="1.25" stroke-linecap="round" stroke-linejoin="round"/>
</g>
<g id="Size=24px, Filled=false" clip-path="url(#clip4_3570_415)">
<path id="Vector_4" d="M86.5015 33.0002H85.0015C84.8689 33.0002 84.7417 32.9475 84.6479 32.8538C84.5541 32.76 84.5015 32.6328 84.5015 32.5002V28.5002C84.5015 28.3676 84.5541 28.2404 84.6479 28.1466C84.7417 28.0529 84.8689 28.0002 85.0015 28.0002H96.5015V20.0002C96.5015 19.735 96.6068 19.4806 96.7944 19.2931C96.9819 19.1056 97.2362 19.0002 97.5015 19.0002H100.901C101.356 19.0003 101.798 19.1555 102.153 19.4402C102.508 19.7249 102.755 20.1221 102.853 20.5662L104.501 24.8722M104.501 24.8722L107.111 26.9722C107.344 27.181 107.484 27.4733 107.501 27.7852V32.5002C107.501 32.6328 107.449 32.76 107.355 32.8538C107.261 32.9475 107.134 33.0002 107.001 33.0002H105.501M104.501 24.8722L96.5015 24.7857M101.501 33H90.5015M89.9999 18L86.7069 14.707M86.0015 15V19M84.5015 24.5C84.5015 24.7967 84.5894 25.0867 84.7543 25.3334C84.9191 25.58 85.1534 25.7723 85.4274 25.8858C85.7015 25.9994 86.0031 26.0291 86.2941 25.9712C86.5851 25.9133 86.8523 25.7704 87.0621 25.5607C87.2719 25.3509 87.4148 25.0836 87.4726 24.7926C87.5305 24.5017 87.5008 24.2001 87.3873 23.926C87.2738 23.6519 87.0815 23.4176 86.8348 23.2528C86.5881 23.088 86.2981 23 86.0015 23V21M96.4994 27.6601L89.9994 19.4141C89.8172 19.2254 89.7164 18.9728 89.7187 18.7106C89.721 18.4485 89.8261 18.1976 90.0115 18.0122C90.197 17.8268 90.4478 17.7217 90.71 17.7194C90.9722 17.7171 91.2248 17.8179 91.4134 18.0001L96.4994 23.0861M101.498 33.0002C101.498 33.5306 101.709 34.0393 102.084 34.4144C102.459 34.7895 102.968 35.0002 103.498 35.0002C104.029 35.0002 104.537 34.7895 104.913 34.4144C105.288 34.0393 105.498 33.5306 105.498 33.0002C105.498 32.4698 105.288 31.9611 104.913 31.586C104.537 31.2109 104.029 31.0002 103.498 31.0002C102.968 31.0002 102.459 31.2109 102.084 31.586C101.709 31.9611 101.498 32.4698 101.498 33.0002ZM86.4983 33.0002C86.4983 33.5306 86.7091 34.0393 87.0841 34.4144C87.4592 34.7895 87.9679 35.0002 88.4983 35.0002C89.0288 35.0002 89.5375 34.7895 89.9126 34.4144C90.2876 34.0393 90.4983 33.5306 90.4983 33.0002C90.4983 32.4698 90.2876 31.9611 89.9126 31.586C89.5375 31.2109 89.0288 31.0002 88.4983 31.0002C87.9679 31.0002 87.4592 31.2109 87.0841 31.586C86.7091 31.9611 86.4983 32.4698 86.4983 33.0002ZM84.9983 14.0002C84.9983 14.2654 85.1037 14.5198 85.2912 14.7073C85.4788 14.8948 85.7331 15.0002 85.9983 15.0002C86.2636 15.0002 86.5179 14.8948 86.7054 14.7073C86.893 14.5198 86.9983 14.2654 86.9983 14.0002C86.9983 13.735 86.893 13.4806 86.7054 13.2931C86.5179 13.1056 86.2636 13.0002 85.9983 13.0002C85.7331 13.0002 85.4788 13.1056 85.2912 13.2931C85.1037 13.4806 84.9983 13.735 84.9983 14.0002ZM86.9999 21H84.9999V19H86.9999V21Z" stroke="#111111" stroke-width="1.5" stroke-linecap="round" stroke-linejoin="round"/>
</g>
<g id="Size=32px, Filled=false" clip-path="url(#clip5_3570_415)">
<path id="Vector_5" d="M123.335 36.0003H121.335C121.159 36.0003 120.989 35.93 120.864 35.805C120.739 35.68 120.669 35.5104 120.669 35.3336V30.0003C120.669 29.8234 120.739 29.6539 120.864 29.5288C120.989 29.4038 121.159 29.3336 121.335 29.3336H136.669V18.6669C136.669 18.3133 136.809 17.9742 137.059 17.7241C137.309 17.4741 137.648 17.3336 138.002 17.3336H142.535C143.142 17.3337 143.73 17.5406 144.204 17.9202C144.677 18.2998 145.006 18.8294 145.138 19.4216L147.335 25.1629M147.335 25.1629L150.815 27.9629C151.125 28.2413 151.312 28.6311 151.335 29.0469V35.3336C151.335 35.5104 151.265 35.68 151.14 35.805C151.015 35.93 150.846 36.0003 150.669 36.0003H148.669M147.335 25.1629L136.669 25.0477M143.335 36H128.669M128 16L123.609 11.6093M123.609 11.6093C123.359 11.8594 123.018 12.0003 122.665 12.0003C122.311 12.0003 121.972 11.8598 121.722 11.6097C121.472 11.3597 121.331 11.0205 121.331 10.6669C121.331 10.3133 121.472 9.97416 121.722 9.72411C121.972 9.47406 122.311 9.33359 122.665 9.33359C123.018 9.33359 123.357 9.47406 123.607 9.72411C123.857 9.97416 123.998 10.3133 123.998 10.6669C123.998 11.0205 123.859 11.3593 123.609 11.6093ZM122.669 12V17.3333M120.669 24.6667C120.669 25.0622 120.786 25.4489 121.006 25.7778C121.226 26.1067 121.538 26.363 121.903 26.5144C122.269 26.6658 122.671 26.7054 123.059 26.6282C123.447 26.5511 123.803 26.3606 124.083 26.0809C124.363 25.8012 124.553 25.4448 124.63 25.0568C124.707 24.6689 124.668 24.2667 124.516 23.9013C124.365 23.5358 124.109 23.2235 123.78 23.0037C123.451 22.784 123.064 22.6667 122.669 22.6667V20M136.666 28.8801L127.999 17.8854C127.756 17.6339 127.622 17.2971 127.625 16.9475C127.628 16.5979 127.768 16.2635 128.015 16.0163C128.263 15.7691 128.597 15.6289 128.947 15.6258C129.296 15.6228 129.633 15.7572 129.885 16.0001L136.666 22.7814M143.331 36.0003C143.331 36.7075 143.612 37.3858 144.112 37.8859C144.612 38.386 145.291 38.6669 145.998 38.6669C146.705 38.6669 147.383 38.386 147.883 37.8859C148.384 37.3858 148.665 36.7075 148.665 36.0003C148.665 35.293 148.384 34.6147 147.883 34.1146C147.383 33.6145 146.705 33.3336 145.998 33.3336C145.291 33.3336 144.612 33.6145 144.112 34.1146C143.612 34.6147 143.331 35.293 143.331 36.0003ZM123.331 36.0003C123.331 36.7075 123.612 37.3858 124.112 37.8859C124.612 38.386 125.291 38.6669 125.998 38.6669C126.705 38.6669 127.383 38.386 127.883 37.8859C128.384 37.3858 128.665 36.7075 128.665 36.0003C128.665 35.293 128.384 34.6147 127.883 34.1146C127.383 33.6145 126.705 33.3336 125.998 33.3336C125.291 33.3336 124.612 33.6145 124.112 34.1146C123.612 34.6147 123.331 35.293 123.331 36.0003ZM124 20H121.333V17.3333H124V20Z" stroke="#111111" stroke-width="2" stroke-linecap="round" stroke-linejoin="round"/>
</g>
<g id="Size=40px, Filled=false" clip-path="url(#clip6_3570_415)">
<path id="Vector_6" d="M168.169 39.0003H165.669C165.448 39.0003 165.236 38.9125 165.08 38.7562C164.924 38.6 164.836 38.388 164.836 38.167V31.5003C164.836 31.2793 164.924 31.0673 165.08 30.9111C165.236 30.7548 165.448 30.667 165.669 30.667H184.836V17.3337C184.836 16.8916 185.012 16.4677 185.324 16.1551C185.637 15.8426 186.061 15.667 186.503 15.667H192.169C192.928 15.6671 193.663 15.9258 194.255 16.4003C194.846 16.8748 195.258 17.5368 195.423 18.277L198.169 25.4537M198.169 25.4537L202.519 28.9537C202.906 29.3017 203.14 29.7888 203.169 30.3087V38.167C203.169 38.388 203.081 38.6 202.925 38.7562C202.769 38.9125 202.557 39.0003 202.336 39.0003H199.836M198.169 25.4537L184.836 25.3096M193.169 39H174.836M174 14L168.512 8.51167M168.512 8.51167C168.199 8.82423 167.773 9.00033 167.331 9.00033C166.889 9.00033 166.465 8.82473 166.152 8.51217C165.84 8.19961 165.664 7.77569 165.664 7.33366C165.664 6.89163 165.84 6.46771 166.152 6.15515C166.465 5.84259 166.889 5.66699 167.331 5.66699C167.773 5.66699 168.197 5.84259 168.509 6.15515C168.822 6.46771 168.997 6.89163 168.997 7.33366C168.997 7.77569 168.824 8.19911 168.512 8.51167ZM167.336 9V15.6667M164.836 24.8333C164.836 25.3278 164.983 25.8111 165.257 26.2223C165.532 26.6334 165.922 26.9538 166.379 27.143C166.836 27.3323 167.339 27.3818 167.824 27.2853C168.309 27.1888 168.754 26.9507 169.104 26.6011C169.453 26.2515 169.691 25.806 169.788 25.3211C169.884 24.8361 169.835 24.3334 169.646 23.8766C169.456 23.4198 169.136 23.0294 168.725 22.7547C168.314 22.48 167.83 22.3333 167.336 22.3333V19M184.832 30.1001L173.999 16.3567C173.696 16.0424 173.528 15.6214 173.531 15.1844C173.535 14.7474 173.71 14.3294 174.019 14.0204C174.328 13.7114 174.746 13.5361 175.183 13.5323C175.62 13.5285 176.041 13.6965 176.356 14.0001L184.832 22.4767M193.164 39.0003C193.164 39.8844 193.515 40.7322 194.14 41.3573C194.765 41.9825 195.613 42.3337 196.497 42.3337C197.381 42.3337 198.229 41.9825 198.854 41.3573C199.48 40.7322 199.831 39.8844 199.831 39.0003C199.831 38.1163 199.48 37.2684 198.854 36.6433C198.229 36.0182 197.381 35.667 196.497 35.667C195.613 35.667 194.765 36.0182 194.14 36.6433C193.515 37.2684 193.164 38.1163 193.164 39.0003ZM168.164 39.0003C168.164 39.8844 168.515 40.7322 169.14 41.3573C169.765 41.9825 170.613 42.3337 171.497 42.3337C172.381 42.3337 173.229 41.9825 173.854 41.3573C174.48 40.7322 174.831 39.8844 174.831 39.0003C174.831 38.1163 174.48 37.2684 173.854 36.6433C173.229 36.0182 172.381 35.667 171.497 35.667C170.613 35.667 169.765 36.0182 169.14 36.6433C168.515 37.2684 168.164 38.1163 168.164 39.0003ZM169 19H165.667V15.6667H169V19Z" stroke="#111111" stroke-width="2.5" stroke-linecap="round" stroke-linejoin="round"/>
</g>
<g id="Size=48px, Filled=false" clip-path="url(#clip7_3570_415)">
<path id="Vector_7" d="M221.003 42.0004H218.003C217.738 42.0004 217.484 41.895 217.296 41.7075C217.109 41.52 217.003 41.2656 217.003 41.0004V33.0004C217.003 32.7352 217.109 32.4808 217.296 32.2933C217.484 32.1058 217.738 32.0004 218.003 32.0004H241.003V16.0004C241.003 15.47 241.214 14.9613 241.589 14.5862C241.964 14.2111 242.473 14.0004 243.003 14.0004H249.803C250.713 14.0006 251.596 14.3109 252.306 14.8804C253.015 15.4498 253.51 16.2441 253.707 17.1324L257.003 25.7444M257.003 25.7444L262.223 29.9444C262.688 30.362 262.968 30.9466 263.003 31.5704V41.0004C263.003 41.2656 262.898 41.52 262.71 41.7075C262.523 41.895 262.268 42.0004 262.003 42.0004H259.003M257.003 25.7444L241.003 25.5715M251.003 42H229.003M228 12L221.414 5.41401M221.414 5.41401C221.039 5.78908 220.527 6.0004 219.997 6.0004C219.466 6.0004 218.958 5.78968 218.583 5.41461C218.208 5.03954 217.997 4.53083 217.997 4.0004C217.997 3.46996 218.208 2.96126 218.583 2.58618C218.958 2.21111 219.466 2.0004 219.997 2.0004C220.527 2.0004 221.036 2.21111 221.411 2.58618C221.786 2.96126 221.997 3.46996 221.997 4.0004C221.997 4.53083 221.789 5.03893 221.414 5.41401ZM220.003 6.00001V14M217.003 25C217.003 25.5934 217.179 26.1734 217.509 26.6667C217.838 27.1601 218.307 27.5446 218.855 27.7716C219.403 27.9987 220.007 28.0581 220.588 27.9424C221.17 27.8266 221.705 27.5409 222.124 27.1213C222.544 26.7018 222.83 26.1672 222.946 25.5853C223.061 25.0033 223.002 24.4001 222.775 23.852C222.548 23.3038 222.163 22.8352 221.67 22.5056C221.177 22.176 220.597 22 220.003 22V18M240.999 31.3201L227.999 14.8281C227.635 14.4509 227.433 13.9457 227.438 13.4213C227.442 12.8969 227.653 12.3953 228.023 12.0245C228.394 11.6536 228.896 11.4433 229.42 11.4388C229.945 11.4342 230.45 11.6358 230.827 12.0001L240.999 22.1721M250.997 42.0004C250.997 43.0613 251.418 44.0787 252.168 44.8288C252.919 45.579 253.936 46.0004 254.997 46.0004C256.058 46.0004 257.075 45.579 257.825 44.8288C258.575 44.0787 258.997 43.0613 258.997 42.0004C258.997 40.9395 258.575 39.9221 257.825 39.172C257.075 38.4218 256.058 38.0004 254.997 38.0004C253.936 38.0004 252.919 38.4218 252.168 39.172C251.418 39.9221 250.997 40.9395 250.997 42.0004ZM220.997 42.0004C220.997 43.0613 221.418 44.0787 222.168 44.8288C222.919 45.579 223.936 46.0004 224.997 46.0004C226.058 46.0004 227.075 45.579 227.825 44.8288C228.575 44.0787 228.997 43.0613 228.997 42.0004C228.997 40.9395 228.575 39.9221 227.825 39.172C227.075 38.4218 226.058 38.0004 224.997 38.0004C223.936 38.0004 222.919 38.4218 222.168 39.172C221.418 39.9221 220.997 40.9395 220.997 42.0004ZM222 18H218V14H222V18Z" stroke="#111111" stroke-width="3" stroke-linecap="round" stroke-linejoin="round"/>
</g>
<g id="Size=12px, Filled=true" clip-path="url(#clip8_3570_415)">
<g id="Vector_8">
<path d="M0.78997 85.89H6.78997C6.84154 85.8922 6.89299 85.8835 6.94101 85.8646C6.98904 85.8457 7.03258 85.817 7.06884 85.7803C7.1051 85.7435 7.13327 85.6996 7.15155 85.6514C7.16983 85.6031 7.17781 85.5515 7.17497 85.5V82.305C7.17497 82.1083 7.25277 81.9195 7.39141 81.78C7.53004 81.6404 7.71825 81.5613 7.91497 81.56H9.25997C9.39556 81.562 9.52808 81.6007 9.64342 81.672C9.75876 81.7433 9.85261 81.8446 9.91497 81.965L11.125 84.41L11.165 84.455L11.775 84.9C11.8463 84.9567 11.9038 85.029 11.9428 85.1113C11.9818 85.1937 12.0013 85.2839 12 85.375V87.745C12.0006 87.8266 11.9851 87.9075 11.9541 87.9831C11.9232 88.0586 11.8776 88.1272 11.8199 88.1849C11.7622 88.2426 11.6935 88.2882 11.618 88.3192C11.5425 88.3501 11.4616 88.3657 11.38 88.365H11.25C11.233 88.3648 11.2163 88.3611 11.2009 88.3542C11.1854 88.3474 11.1715 88.3374 11.16 88.325C11.1478 88.3126 11.1388 88.2976 11.1336 88.2811C11.1284 88.2646 11.1271 88.2471 11.13 88.23V88.12C11.079 87.7624 10.9008 87.4353 10.628 87.1986C10.3552 86.9619 10.0061 86.8316 9.64497 86.8316C9.2838 86.8316 8.93477 86.9619 8.66197 87.1986C8.38916 87.4353 8.21092 87.7624 8.15997 88.12C8.1576 88.1566 8.1576 88.1934 8.15997 88.23C8.1628 88.2471 8.16155 88.2646 8.15634 88.2811C8.15113 88.2976 8.14209 88.3126 8.12997 88.325C8.10608 88.3492 8.07394 88.3635 8.03997 88.365H4.31497C4.27926 88.3648 4.2451 88.3504 4.21997 88.325C4.20897 88.3119 4.20066 88.2968 4.19551 88.2805C4.19036 88.2642 4.18848 88.247 4.18997 88.23C4.19235 88.1934 4.19235 88.1566 4.18997 88.12C4.13902 87.7624 3.96078 87.4353 3.68798 87.1986C3.41517 86.9619 3.06614 86.8316 2.70497 86.8316C2.34381 86.8316 1.99477 86.9619 1.72196 87.1986C1.44916 87.4353 1.27092 87.7624 1.21997 88.12C1.21773 88.1566 1.21773 88.1934 1.21997 88.23C1.22079 88.2474 1.21811 88.2647 1.2121 88.281C1.20609 88.2974 1.19686 88.3123 1.18497 88.325C1.17387 88.3379 1.16003 88.3482 1.14447 88.3551C1.1289 88.362 1.112 88.3654 1.09497 88.365H0.49997C0.40184 88.365 0.30773 88.326 0.238341 88.2566C0.168953 88.1872 0.129971 88.0931 0.129971 87.995V86.5C0.139025 86.3325 0.213016 86.175 0.336242 86.0611C0.459467 85.9472 0.622226 85.8859 0.78997 85.89ZM8.16497 83.84C8.16497 83.8732 8.17814 83.9049 8.20158 83.9284C8.22502 83.9518 8.25682 83.965 8.28997 83.965H9.60497C9.62612 83.9647 9.64684 83.959 9.66521 83.9485C9.68357 83.9381 9.69897 83.9231 9.70997 83.905C9.72004 83.8866 9.72531 83.866 9.72531 83.845C9.72531 83.824 9.72004 83.8034 9.70997 83.785L9.13497 82.62C9.12402 82.5945 9.10458 82.5736 9.07997 82.5609C9.05536 82.5481 9.02709 82.5443 8.99997 82.55H8.28997C8.25682 82.55 8.22502 82.5632 8.20158 82.5866C8.17814 82.6101 8.16497 82.6419 8.16497 82.675V83.84Z" fill="#111111"/>
<path d="M6.30997 85.15H5.57497C5.53866 85.1479 5.50459 85.1318 5.47997 85.105L2.19997 81.05C2.18506 81.0278 2.16341 81.0109 2.13821 81.0019C2.11301 80.9929 2.08558 80.9923 2.05997 81C2.03583 81.0077 2.0149 81.0231 2.00044 81.0439C1.98597 81.0647 1.97878 81.0897 1.97997 81.115V81.75C1.98084 81.7735 1.98834 81.7964 2.00161 81.8158C2.01488 81.8353 2.03338 81.8506 2.05497 81.86C2.32699 81.9862 2.55748 82.1872 2.71951 82.4396C2.88153 82.6919 2.96841 82.9851 2.96997 83.285C2.9727 83.6878 2.81695 84.0756 2.53633 84.3647C2.25572 84.6537 1.87272 84.8208 1.46997 84.83C1.28059 84.8465 1.08983 84.8238 0.909662 84.7631C0.729492 84.7025 0.563795 84.6053 0.422961 84.4776C0.282127 84.3499 0.169193 84.1945 0.0912418 84.0211C0.013291 83.8477 -0.0279952 83.6601 -0.0300293 83.47C-0.0300293 83.3374 0.0226487 83.2102 0.116417 83.1164C0.210185 83.0227 0.337362 82.97 0.469971 82.97C0.602579 82.97 0.729755 83.0227 0.823524 83.1164C0.917292 83.2102 0.969971 83.3374 0.969971 83.47C0.969971 83.815 1.34997 83.84 1.46997 83.84C1.60435 83.8219 1.7276 83.7557 1.81686 83.6536C1.90611 83.5516 1.9553 83.4206 1.9553 83.285C1.9553 83.1494 1.90611 83.0184 1.81686 82.9164C1.7276 82.8143 1.60435 82.7481 1.46997 82.73C1.33736 82.73 1.21019 82.6773 1.11642 82.5836C1.02265 82.4898 0.969971 82.3626 0.969971 82.23V79.5C0.969971 78.795 1.52997 78.805 1.77997 79L6.38997 82.955C6.40354 82.9659 6.41459 82.9795 6.42236 82.9951C6.43013 83.0106 6.43443 83.0276 6.43497 83.045V85.045C6.43018 85.0746 6.41492 85.1015 6.39198 85.1207C6.36903 85.14 6.33993 85.1504 6.30997 85.15Z" fill="#111111"/>
<path d="M10.64 88.5C10.64 88.6313 10.6141 88.7613 10.5639 88.8827C10.5136 89.004 10.44 89.1142 10.3471 89.2071C10.2542 89.2999 10.144 89.3736 10.0227 89.4239C9.90135 89.4741 9.77131 89.5 9.63999 89.5C9.50867 89.5 9.37863 89.4741 9.25731 89.4239C9.13598 89.3736 9.02574 89.2999 8.93289 89.2071C8.84003 89.1142 8.76637 89.004 8.71611 88.8827C8.66586 88.7613 8.63999 88.6313 8.63999 88.5C8.63999 88.2348 8.74535 87.9804 8.93289 87.7929C9.12042 87.6053 9.37477 87.5 9.63999 87.5C9.90521 87.5 10.1596 87.6053 10.3471 87.7929C10.5346 87.9804 10.64 88.2348 10.64 88.5Z" fill="#111111"/>
<path d="M3.71 88.5C3.71 88.7652 3.60464 89.0195 3.41711 89.2071C3.22957 89.3946 2.97522 89.5 2.71 89.5C2.44478 89.5 2.19043 89.3946 2.00289 89.2071C1.81536 89.0195 1.71 88.7652 1.71 88.5C1.71 88.2348 1.81536 87.9804 2.00289 87.7929C2.19043 87.6053 2.44478 87.5 2.71 87.5C2.97522 87.5 3.22957 87.6053 3.41711 87.7929C3.60464 87.9804 3.71 88.2348 3.71 88.5Z" fill="#111111"/>
</g>
</g>
<g id="Size=16px, Filled=true" clip-path="url(#clip9_3570_415)">
<g id="Vector_9">
<path d="M25.0533 86.52H33.0533C33.122 86.5229 33.1906 86.5114 33.2547 86.4862C33.3187 86.461 33.3768 86.4227 33.4251 86.3737C33.4735 86.3247 33.511 86.2662 33.5354 86.2018C33.5598 86.1375 33.5704 86.0687 33.5666 86V81.74C33.5666 81.4777 33.6704 81.2261 33.8552 81.04C34.0401 80.8539 34.291 80.7484 34.5533 80.7467H36.3466C36.5274 80.7493 36.7041 80.8009 36.8579 80.896C37.0117 80.9911 37.1368 81.1261 37.22 81.2867L38.8333 84.5467L38.8866 84.6067L39.7 85.2C39.7951 85.2755 39.8717 85.3719 39.9237 85.4817C39.9757 85.5916 40.0018 85.7118 40 85.8333V88.9933C40.0008 89.1021 39.9801 89.21 39.9388 89.3107C39.8976 89.4114 39.8368 89.5029 39.7598 89.5799C39.6829 89.6568 39.5914 89.7177 39.4907 89.7589C39.39 89.8001 39.2821 89.8209 39.1733 89.82H39C38.9774 89.8197 38.9551 89.8148 38.9345 89.8057C38.9139 89.7965 38.8953 89.7832 38.88 89.7667C38.8638 89.7502 38.8518 89.7301 38.8448 89.7081C38.8378 89.6861 38.8362 89.6628 38.84 89.64V89.4933C38.772 89.0166 38.5344 88.5804 38.1706 88.2648C37.8069 87.9492 37.3415 87.7755 36.86 87.7755C36.3784 87.7755 35.913 87.9492 35.5493 88.2648C35.1856 88.5804 34.9479 89.0166 34.88 89.4933C34.8768 89.5422 34.8768 89.5912 34.88 89.64C34.8837 89.6628 34.8821 89.6861 34.8751 89.7081C34.8682 89.7301 34.8561 89.7502 34.84 89.7667C34.8081 89.7989 34.7653 89.818 34.72 89.82H29.7533C29.7057 89.8197 29.6601 89.8005 29.6266 89.7667C29.612 89.7492 29.6009 89.7291 29.594 89.7073C29.5871 89.6856 29.5846 89.6627 29.5866 89.64C29.5898 89.5912 29.5898 89.5422 29.5866 89.4933C29.5187 89.0166 29.281 88.5804 28.9173 88.2648C28.5536 87.9492 28.0882 87.7755 27.6066 87.7755C27.1251 87.7755 26.6597 87.9492 26.296 88.2648C25.9322 88.5804 25.6946 89.0166 25.6266 89.4933C25.6236 89.5422 25.6236 89.5912 25.6266 89.64C25.6277 89.6632 25.6241 89.6863 25.6161 89.7081C25.6081 89.7298 25.5958 89.7497 25.58 89.7667C25.5652 89.7839 25.5467 89.7976 25.526 89.8068C25.5052 89.8161 25.4827 89.8206 25.46 89.82H24.6666C24.5358 89.82 24.4103 89.768 24.3178 89.6755C24.2253 89.583 24.1733 89.4575 24.1733 89.3267V87.3333C24.1854 87.1099 24.284 86.9 24.4483 86.7482C24.6126 86.5963 24.8296 86.5145 25.0533 86.52ZM34.8866 83.7867C34.8866 83.8309 34.9042 83.8733 34.9354 83.9045C34.9667 83.9358 35.0091 83.9533 35.0533 83.9533H36.8066C36.8348 83.9529 36.8625 83.9454 36.8869 83.9314C36.9114 83.9174 36.932 83.8974 36.9466 83.8733C36.96 83.8488 36.9671 83.8213 36.9671 83.7933C36.9671 83.7654 36.96 83.7379 36.9466 83.7133L36.18 82.16C36.1654 82.126 36.1394 82.0982 36.1066 82.0812C36.0738 82.0642 36.0361 82.059 36 82.0667H35.0533C35.0091 82.0667 34.9667 82.0842 34.9354 82.1155C34.9042 82.1467 34.8866 82.1891 34.8866 82.2333V83.7867Z" fill="#111111"/>
<path d="M32.4133 85.5333H31.4333C31.3849 85.5305 31.3395 85.509 31.3066 85.4733L26.9333 80.0667C26.9134 80.037 26.8846 80.0146 26.8509 80.0026C26.8173 79.9906 26.7808 79.9897 26.7466 80C26.7144 80.0102 26.6865 80.0308 26.6673 80.0586C26.648 80.0863 26.6384 80.1196 26.64 80.1533V81C26.6411 81.0314 26.6511 81.0618 26.6688 81.0878C26.6865 81.1137 26.7112 81.1341 26.74 81.1467C27.1027 81.3149 27.41 81.583 27.626 81.9194C27.842 82.2559 27.9579 82.6468 27.96 83.0467C27.9636 83.5838 27.7559 84.1008 27.3818 84.4862C27.0076 84.8716 26.497 85.0944 25.96 85.1067C25.7075 85.1287 25.4531 85.0984 25.2129 85.0175C24.9727 84.9367 24.7517 84.807 24.5639 84.6368C24.3762 84.4665 24.2256 84.2593 24.1217 84.0281C24.0177 83.797 23.9627 83.5468 23.96 83.2933C23.96 83.1165 24.0302 82.947 24.1552 82.8219C24.2802 82.6969 24.4498 82.6267 24.6266 82.6267C24.8034 82.6267 24.973 82.6969 25.098 82.8219C25.2231 82.947 25.2933 83.1165 25.2933 83.2933C25.2933 83.7533 25.8 83.7867 25.96 83.7867C26.1391 83.7626 26.3035 83.6743 26.4225 83.5382C26.5415 83.4021 26.6071 83.2275 26.6071 83.0467C26.6071 82.8659 26.5415 82.6912 26.4225 82.5552C26.3035 82.4191 26.1391 82.3308 25.96 82.3067C25.7831 82.3067 25.6136 82.2364 25.4886 82.1114C25.3635 81.9864 25.2933 81.8168 25.2933 81.64V78C25.2933 77.06 26.04 77.0733 26.3733 77.3333L32.52 82.6067C32.5381 82.6211 32.5528 82.6394 32.5631 82.6601C32.5735 82.6808 32.5792 82.7035 32.58 82.7267V85.3933C32.5736 85.4328 32.5532 85.4686 32.5226 85.4943C32.492 85.52 32.4532 85.5338 32.4133 85.5333Z" fill="#111111"/>
<path d="M38.1867 90C38.1867 90.1751 38.1522 90.3484 38.0852 90.5102C38.0182 90.672 37.9199 90.819 37.7961 90.9428C37.6723 91.0666 37.5253 91.1648 37.3636 91.2318C37.2018 91.2988 37.0284 91.3333 36.8533 91.3333C36.6782 91.3333 36.5048 91.2988 36.3431 91.2318C36.1813 91.1648 36.0343 91.0666 35.9105 90.9428C35.7867 90.819 35.6885 90.672 35.6215 90.5102C35.5545 90.3484 35.52 90.1751 35.52 90C35.52 89.6463 35.6605 89.3072 35.9105 89.0572C36.1606 88.8071 36.4997 88.6666 36.8533 88.6666C37.2069 88.6666 37.5461 88.8071 37.7961 89.0572C38.0462 89.3072 38.1867 89.6463 38.1867 90Z" fill="#111111"/>
<path d="M28.9467 90C28.9467 90.3536 28.8062 90.6927 28.5561 90.9428C28.3061 91.1928 27.967 91.3333 27.6133 91.3333C27.2597 91.3333 26.9206 91.1928 26.6705 90.9428C26.4205 90.6927 26.28 90.3536 26.28 90C26.28 89.6463 26.4205 89.3072 26.6705 89.0572C26.9206 88.8071 27.2597 88.6666 27.6133 88.6666C27.967 88.6666 28.3061 88.8071 28.5561 89.0572C28.8062 89.3072 28.9467 89.6463 28.9467 90Z" fill="#111111"/>
</g>
</g>
<g id="Size=20px, Filled=true" clip-path="url(#clip10_3570_415)">
<g id="Vector_10">
<path d="M53.3166 87.15H63.3166C63.4026 87.1536 63.4883 87.1392 63.5684 87.1077C63.6484 87.0762 63.721 87.0283 63.7814 86.9671C63.8418 86.9059 63.8888 86.8327 63.9193 86.7523C63.9497 86.6718 63.963 86.5859 63.9583 86.5V81.175C63.9583 80.8471 64.0879 80.5326 64.319 80.2999C64.5501 80.0673 64.8638 79.9355 65.1916 79.9333H67.4333C67.6593 79.9366 67.8801 80.0012 68.0724 80.12C68.2646 80.2389 68.421 80.4076 68.525 80.6083L70.5416 84.6833L70.6083 84.7583L71.625 85.5C71.7439 85.5944 71.8396 85.7149 71.9046 85.8522C71.9696 85.9894 72.0022 86.1398 72 86.2917V90.2417C72.0011 90.3777 71.9751 90.5125 71.9236 90.6384C71.872 90.7643 71.7959 90.8786 71.6998 90.9748C71.6036 91.071 71.4892 91.1471 71.3634 91.1986C71.2375 91.2501 71.1026 91.2761 70.9666 91.275H70.75C70.7217 91.2746 70.6939 91.2685 70.6681 91.2571C70.6423 91.2456 70.6191 91.229 70.6 91.2083C70.5797 91.1877 70.5647 91.1627 70.556 91.1352C70.5473 91.1076 70.5452 91.0785 70.5499 91.05V90.8667C70.465 90.2707 70.168 89.7255 69.7133 89.331C69.2586 88.9365 68.6769 88.7193 68.0749 88.7193C67.473 88.7193 66.8913 88.9365 66.4366 89.331C65.9819 89.7255 65.6849 90.2707 65.5999 90.8667C65.596 90.9277 65.596 90.989 65.5999 91.05C65.6047 91.0785 65.6026 91.1076 65.5939 91.1352C65.5852 91.1627 65.5702 91.1877 65.55 91.2083C65.5101 91.2487 65.4566 91.2725 65.4 91.275H59.1916C59.1321 91.2746 59.0752 91.2506 59.0333 91.2083C59.0149 91.1865 59.0011 91.1613 58.9925 91.1341C58.9839 91.107 58.9808 91.0784 58.9833 91.05C58.9872 90.989 58.9872 90.9277 58.9833 90.8667C58.8984 90.2707 58.6013 89.7255 58.1466 89.331C57.692 88.9365 57.1102 88.7193 56.5083 88.7193C55.9063 88.7193 55.3246 88.9365 54.8699 89.331C54.4153 89.7255 54.1182 90.2707 54.0333 90.8667C54.0295 90.9277 54.0295 90.9889 54.0333 91.05C54.0346 91.079 54.0302 91.1079 54.0202 91.1351C54.0101 91.1623 53.9948 91.1872 53.975 91.2083C53.9564 91.2299 53.9334 91.247 53.9074 91.2585C53.8815 91.2701 53.8533 91.2757 53.825 91.275H52.8333C52.6697 91.275 52.5129 91.21 52.3972 91.0944C52.2816 90.9787 52.2166 90.8219 52.2166 90.6583V88.1667C52.2317 87.8874 52.355 87.625 52.5604 87.4352C52.7658 87.2454 53.037 87.1431 53.3166 87.15ZM65.6083 83.7333C65.6083 83.7886 65.6302 83.8416 65.6693 83.8806C65.7084 83.9197 65.7614 83.9417 65.8166 83.9417H68.0083C68.0435 83.9412 68.0781 83.9317 68.1087 83.9142C68.1393 83.8967 68.165 83.8718 68.1833 83.8417C68.2001 83.811 68.2089 83.7766 68.2089 83.7417C68.2089 83.7067 68.2001 83.6723 68.1833 83.6417L67.225 81.7C67.2067 81.6576 67.1743 81.6227 67.1333 81.6015C67.0923 81.5802 67.0452 81.5738 67 81.5833H65.8166C65.7614 81.5833 65.7084 81.6053 65.6693 81.6444C65.6302 81.6834 65.6083 81.7364 65.6083 81.7917V83.7333Z" fill="#111111"/>
<path d="M62.5166 85.9167H61.2916C61.2311 85.9132 61.1743 85.8863 61.1333 85.8417L55.6666 79.0833C55.6418 79.0463 55.6057 79.0182 55.5637 79.0032C55.5217 78.9882 55.476 78.9871 55.4333 79C55.3931 79.0128 55.3582 79.0385 55.3341 79.0732C55.31 79.1078 55.298 79.1495 55.2999 79.1917V80.25C55.3014 80.2892 55.3139 80.3273 55.336 80.3597C55.3581 80.3921 55.389 80.4177 55.425 80.4333C55.8783 80.6437 56.2625 80.9787 56.5325 81.3993C56.8026 81.8198 56.9473 82.3085 56.95 82.8083C56.9545 83.4797 56.6949 84.126 56.2272 84.6077C55.7595 85.0895 55.1212 85.368 54.45 85.3833C54.1343 85.4109 53.8164 85.373 53.5161 85.2719C53.2158 85.1708 52.9397 85.0088 52.7049 84.796C52.4702 84.5832 52.282 84.3241 52.1521 84.0352C52.0222 83.7462 51.9533 83.4335 51.95 83.1167C51.95 82.8957 52.0377 82.6837 52.194 82.5274C52.3503 82.3711 52.5623 82.2833 52.7833 82.2833C53.0043 82.2833 53.2163 82.3711 53.3725 82.5274C53.5288 82.6837 53.6166 82.8957 53.6166 83.1167C53.6166 83.6917 54.25 83.7333 54.45 83.7333C54.6739 83.7032 54.8793 83.5928 55.0281 83.4227C55.1769 83.2526 55.2588 83.0343 55.2588 82.8083C55.2588 82.5824 55.1769 82.364 55.0281 82.1939C54.8793 82.0238 54.6739 81.9135 54.45 81.8833C54.2289 81.8833 54.017 81.7955 53.8607 81.6393C53.7044 81.483 53.6166 81.271 53.6166 81.05V76.5C53.6166 75.325 54.55 75.3417 54.9666 75.6667L62.65 82.2583C62.6726 82.2764 62.691 82.2992 62.7039 82.3251C62.7169 82.351 62.7241 82.3794 62.725 82.4083V85.7417C62.717 85.791 62.6915 85.8358 62.6533 85.8679C62.6151 85.9 62.5666 85.9173 62.5166 85.9167Z" fill="#111111"/>
<path d="M69.7333 91.5C69.7333 91.7188 69.6902 91.9356 69.6065 92.1378C69.5227 92.34 69.3999 92.5237 69.2452 92.6785C69.0904 92.8332 68.9067 92.956 68.7045 93.0398C68.5022 93.1235 68.2855 93.1666 68.0667 93.1666C67.8478 93.1666 67.6311 93.1235 67.4288 93.0398C67.2266 92.956 67.0429 92.8332 66.8881 92.6785C66.7334 92.5237 66.6106 92.34 66.5269 92.1378C66.4431 91.9356 66.4 91.7188 66.4 91.5C66.4 91.0579 66.5756 90.634 66.8881 90.3214C67.2007 90.0089 67.6246 89.8333 68.0667 89.8333C68.5087 89.8333 68.9326 90.0089 69.2452 90.3214C69.5577 90.634 69.7333 91.0579 69.7333 91.5Z" fill="#111111"/>
<path d="M58.1833 91.5C58.1833 91.942 58.0077 92.3659 57.6952 92.6785C57.3826 92.991 56.9587 93.1666 56.5167 93.1666C56.0746 93.1666 55.6507 92.991 55.3382 92.6785C55.0256 92.3659 54.85 91.942 54.85 91.5C54.85 91.0579 55.0256 90.634 55.3382 90.3214C55.6507 90.0089 56.0746 89.8333 56.5167 89.8333C56.9587 89.8333 57.3826 90.0089 57.6952 90.3214C58.0077 90.634 58.1833 91.0579 58.1833 91.5Z" fill="#111111"/>
</g>
</g>
<g id="Size=24px, Filled=true" clip-path="url(#clip11_3570_415)">
<g id="Vector_11">
<path d="M85.5799 87.78H97.5799C97.6831 87.7843 97.786 87.7671 97.882 87.7293C97.9781 87.6915 98.0652 87.634 98.1377 87.5605C98.2102 87.4871 98.2665 87.3992 98.3031 87.3027C98.3397 87.2062 98.3556 87.1031 98.3499 87V80.61C98.3499 80.2166 98.5055 79.8391 98.7828 79.5599C99.0601 79.2808 99.4365 79.1226 99.8299 79.12H102.52C102.791 79.124 103.056 79.2014 103.287 79.344C103.518 79.4867 103.705 79.6892 103.83 79.93L106.25 84.82L106.33 84.91L107.55 85.8C107.693 85.9133 107.808 86.0579 107.886 86.2226C107.964 86.3873 108.003 86.5678 108 86.75V91.49C108.001 91.6532 107.97 91.8151 107.908 91.9661C107.846 92.1171 107.755 92.2544 107.64 92.3698C107.524 92.4852 107.387 92.5765 107.236 92.6383C107.085 92.7002 106.923 92.7313 106.76 92.73H106.5C106.466 92.7295 106.433 92.7222 106.402 92.7085C106.371 92.6947 106.343 92.6748 106.32 92.65C106.296 92.6253 106.278 92.5952 106.267 92.5622C106.257 92.5292 106.254 92.4942 106.26 92.46V92.24C106.158 91.5249 105.802 90.8706 105.256 90.3972C104.71 89.9238 104.012 89.6632 103.29 89.6632C102.568 89.6632 101.87 89.9238 101.324 90.3972C100.778 90.8706 100.422 91.5249 100.32 92.24C100.315 92.3133 100.315 92.3867 100.32 92.46C100.326 92.4942 100.323 92.5292 100.313 92.5622C100.302 92.5952 100.284 92.6253 100.26 92.65C100.212 92.6984 100.148 92.7269 100.08 92.73H92.6299C92.5585 92.7295 92.4902 92.7007 92.4399 92.65C92.4179 92.6238 92.4013 92.5936 92.391 92.561C92.3807 92.5284 92.377 92.4941 92.3799 92.46C92.3847 92.3867 92.3847 92.3133 92.3799 92.24C92.278 91.5249 91.9216 90.8706 91.376 90.3972C90.8303 89.9238 90.1323 89.6632 89.4099 89.6632C88.6876 89.6632 87.9895 89.9238 87.4439 90.3972C86.8983 90.8706 86.5418 91.5249 86.4399 92.24C86.4355 92.3133 86.4355 92.3867 86.4399 92.46C86.4416 92.4947 86.4362 92.5295 86.4242 92.5621C86.4122 92.5947 86.3937 92.6246 86.3699 92.65C86.3477 92.6758 86.3201 92.6964 86.2889 92.7102C86.2578 92.7241 86.224 92.7308 86.1899 92.73H84.9999C84.8037 92.73 84.6155 92.652 84.4767 92.5133C84.3379 92.3745 84.2599 92.1863 84.2599 91.99V89C84.278 88.6649 84.426 88.35 84.6725 88.1223C84.9189 87.8945 85.2445 87.7717 85.5799 87.78ZM100.33 83.68C100.33 83.7463 100.356 83.8099 100.403 83.8568C100.45 83.9037 100.514 83.93 100.58 83.93H103.21C103.252 83.9294 103.294 83.9181 103.33 83.8971C103.367 83.8761 103.398 83.8461 103.42 83.81C103.44 83.7732 103.451 83.7319 103.451 83.69C103.451 83.6481 103.44 83.6068 103.42 83.57L102.27 81.24C102.248 81.1891 102.209 81.1473 102.16 81.1218C102.111 81.0962 102.054 81.0886 102 81.1H100.58C100.514 81.1 100.45 81.1263 100.403 81.1732C100.356 81.2201 100.33 81.2837 100.33 81.35V83.68Z" fill="#111111"/>
<path d="M96.6199 86.3H95.1499C95.0773 86.2958 95.0092 86.2635 94.9599 86.21L88.3999 78.1C88.3701 78.0556 88.3268 78.0219 88.2764 78.0039C88.226 77.9858 88.1712 77.9845 88.1199 78C88.0717 78.0154 88.0298 78.0462 88.0009 78.0878C87.9719 78.1294 87.9576 78.1794 87.9599 78.23V79.5C87.9617 79.5471 87.9767 79.5927 88.0032 79.6316C88.0298 79.6706 88.0668 79.7012 88.1099 79.72C88.654 79.9724 89.115 80.3744 89.439 80.8791C89.7631 81.3838 89.9368 81.9703 89.9399 82.57C89.9454 83.3757 89.6339 84.1512 89.0727 84.7293C88.5114 85.3074 87.7454 85.6416 86.9399 85.66C86.5612 85.6931 86.1797 85.6476 85.8193 85.5263C85.459 85.405 85.1276 85.2105 84.8459 84.9552C84.5643 84.6998 84.3384 84.389 84.1825 84.0422C84.0266 83.6954 83.944 83.3202 83.9399 82.94C83.9399 82.6748 84.0453 82.4204 84.2328 82.2329C84.4204 82.0454 84.6747 81.94 84.9399 81.94C85.2052 81.94 85.4595 82.0454 85.647 82.2329C85.8346 82.4204 85.9399 82.6748 85.9399 82.94C85.9399 83.63 86.6999 83.68 86.9399 83.68C87.2087 83.6438 87.4552 83.5114 87.6337 83.3073C87.8122 83.1031 87.9106 82.8412 87.9106 82.57C87.9106 82.2988 87.8122 82.0369 87.6337 81.8327C87.4552 81.6286 87.2087 81.4962 86.9399 81.46C86.6747 81.46 86.4204 81.3546 86.2328 81.1671C86.0453 80.9796 85.9399 80.7252 85.9399 80.46V75C85.9399 73.59 87.0599 73.61 87.5599 74L96.7799 81.91C96.8071 81.9317 96.8292 81.959 96.8447 81.9901C96.8603 82.0212 96.8689 82.0553 96.8699 82.09V86.09C96.8604 86.1492 96.8298 86.2029 96.784 86.2414C96.7381 86.28 96.6799 86.3008 96.6199 86.3Z" fill="#111111"/>
<path d="M105.28 92.9999C105.28 93.2626 105.228 93.5227 105.128 93.7653C105.027 94.008 104.88 94.2284 104.694 94.4142C104.508 94.5999 104.288 94.7472 104.045 94.8477C103.803 94.9482 103.543 94.9999 103.28 94.9999C103.017 94.9999 102.757 94.9482 102.515 94.8477C102.272 94.7472 102.051 94.5999 101.866 94.4142C101.68 94.2284 101.533 94.008 101.432 93.7653C101.332 93.5227 101.28 93.2626 101.28 92.9999C101.28 92.4695 101.491 91.9608 101.866 91.5857C102.241 91.2107 102.75 90.9999 103.28 90.9999C103.81 90.9999 104.319 91.2107 104.694 91.5857C105.069 91.9608 105.28 92.4695 105.28 92.9999Z" fill="#111111"/>
<path d="M91.42 92.9999C91.42 93.5304 91.2093 94.0391 90.8342 94.4142C90.4591 94.7892 89.9504 94.9999 89.42 94.9999C88.8896 94.9999 88.3809 94.7892 88.0058 94.4142C87.6307 94.0391 87.42 93.5304 87.42 92.9999C87.42 92.4695 87.6307 91.9608 88.0058 91.5857C88.3809 91.2107 88.8896 90.9999 89.42 90.9999C89.9504 90.9999 90.4591 91.2107 90.8342 91.5857C91.2093 91.9608 91.42 92.4695 91.42 92.9999Z" fill="#111111"/>
</g>
</g>
<g id="Size=32px, Filled=true" clip-path="url(#clip12_3570_415)">
<g id="Vector_12">
<path d="M122.107 89.04H138.107C138.244 89.0458 138.381 89.0227 138.509 88.9723C138.637 88.922 138.754 88.8453 138.85 88.7474C138.947 88.6494 139.022 88.5323 139.071 88.4036C139.12 88.2749 139.141 88.1374 139.133 88V79.48C139.133 78.9554 139.341 78.4521 139.71 78.0799C140.08 77.7077 140.582 77.4969 141.107 77.4933H144.693C145.055 77.4986 145.408 77.6019 145.716 77.792C146.023 77.9822 146.274 78.2522 146.44 78.5733L149.667 85.0933L149.773 85.2133L151.4 86.4C151.59 86.5511 151.743 86.7439 151.847 86.9635C151.951 87.1831 152.004 87.4237 152 87.6667V93.9867C152.002 94.2043 151.96 94.4201 151.878 94.6215C151.795 94.8229 151.674 95.0058 151.52 95.1597C151.366 95.3136 151.183 95.4353 150.981 95.5178C150.78 95.6002 150.564 95.6418 150.347 95.64H150C149.955 95.6394 149.91 95.6296 149.869 95.6113C149.828 95.593 149.791 95.5664 149.76 95.5333C149.728 95.5004 149.704 95.4603 149.69 95.4162C149.676 95.3722 149.672 95.3255 149.68 95.28V94.9867C149.544 94.0332 149.069 93.1608 148.341 92.5296C147.614 91.8984 146.683 91.5509 145.72 91.5509C144.757 91.5509 143.826 91.8984 143.099 92.5296C142.371 93.1608 141.896 94.0332 141.76 94.9867C141.754 95.0843 141.754 95.1823 141.76 95.28C141.767 95.3255 141.764 95.3722 141.75 95.4162C141.736 95.4603 141.712 95.5004 141.68 95.5333C141.616 95.5978 141.531 95.6359 141.44 95.64H131.507C131.411 95.6394 131.32 95.601 131.253 95.5333C131.224 95.4984 131.202 95.4581 131.188 95.4146C131.174 95.3712 131.169 95.3254 131.173 95.28C131.18 95.1823 131.18 95.0843 131.173 94.9867C131.037 94.0332 130.562 93.1608 129.835 92.5296C129.107 91.8984 128.176 91.5509 127.213 91.5509C126.25 91.5509 125.319 91.8984 124.592 92.5296C123.864 93.1608 123.389 94.0332 123.253 94.9867C123.247 95.0844 123.247 95.1823 123.253 95.28C123.255 95.3263 123.248 95.3726 123.232 95.4161C123.216 95.4596 123.192 95.4995 123.16 95.5333C123.13 95.5678 123.093 95.5952 123.052 95.6137C123.01 95.6321 122.965 95.6411 122.92 95.64H121.333C121.072 95.64 120.821 95.5361 120.636 95.351C120.451 95.166 120.347 94.915 120.347 94.6533V90.6667C120.371 90.2199 120.568 89.8001 120.897 89.4963C121.225 89.1926 121.659 89.0289 122.107 89.04ZM141.773 83.5733C141.773 83.6617 141.808 83.7465 141.871 83.809C141.933 83.8715 142.018 83.9067 142.107 83.9067H145.613C145.67 83.9059 145.725 83.8908 145.774 83.8628C145.823 83.8348 145.864 83.7949 145.893 83.7467C145.92 83.6976 145.934 83.6426 145.934 83.5867C145.934 83.5307 145.92 83.4757 145.893 83.4267L144.36 80.32C144.331 80.2521 144.279 80.1964 144.213 80.1624C144.148 80.1283 144.072 80.1181 144 80.1333H142.107C142.018 80.1333 141.933 80.1685 141.871 80.231C141.808 80.2935 141.773 80.3783 141.773 80.4667V83.5733Z" fill="#111111"/>
<path d="M136.827 87.0667H134.867C134.77 87.0611 134.679 87.0181 134.613 86.9467L125.867 76.1333C125.827 76.0741 125.769 76.0291 125.702 76.0051C125.635 75.9811 125.562 75.9793 125.493 76C125.429 76.0205 125.373 76.0617 125.335 76.1171C125.296 76.1726 125.277 76.2392 125.28 76.3067V78C125.282 78.0628 125.302 78.1236 125.338 78.1755C125.373 78.2274 125.422 78.2683 125.48 78.2933C126.205 78.6299 126.82 79.1659 127.252 79.8388C127.684 80.5117 127.916 81.2937 127.92 82.0933C127.927 83.1676 127.512 84.2016 126.764 84.9724C126.015 85.7432 124.994 86.1889 123.92 86.2133C123.415 86.2574 122.906 86.1967 122.426 86.035C121.945 85.8733 121.503 85.6141 121.128 85.2736C120.752 84.9331 120.451 84.5186 120.243 84.0563C120.035 83.5939 119.925 83.0936 119.92 82.5867C119.92 82.233 120.06 81.8939 120.31 81.6439C120.56 81.3938 120.9 81.2533 121.253 81.2533C121.607 81.2533 121.946 81.3938 122.196 81.6439C122.446 81.8939 122.587 82.233 122.587 82.5867C122.587 83.5067 123.6 83.5733 123.92 83.5733C124.278 83.5251 124.607 83.3485 124.845 83.0764C125.083 82.8042 125.214 82.4549 125.214 82.0933C125.214 81.7318 125.083 81.3825 124.845 81.1103C124.607 80.8381 124.278 80.6615 123.92 80.6133C123.566 80.6133 123.227 80.4729 122.977 80.2228C122.727 79.9728 122.587 79.6336 122.587 79.28V72C122.587 70.12 124.08 70.1467 124.747 70.6667L137.04 81.2133C137.076 81.2423 137.106 81.2787 137.126 81.3202C137.147 81.3616 137.158 81.407 137.16 81.4533V86.7867C137.147 86.8655 137.106 86.9372 137.045 86.9886C136.984 87.04 136.906 87.0677 136.827 87.0667Z" fill="#111111"/>
<path d="M148.373 95.9999C148.373 96.3501 148.304 96.6969 148.17 97.0204C148.036 97.344 147.84 97.6379 147.592 97.8856C147.345 98.1332 147.051 98.3296 146.727 98.4636C146.404 98.5976 146.057 98.6666 145.707 98.6666C145.356 98.6666 145.01 98.5976 144.686 98.4636C144.363 98.3296 144.069 98.1332 143.821 97.8856C143.573 97.6379 143.377 97.344 143.243 97.0204C143.109 96.6969 143.04 96.3501 143.04 95.9999C143.04 95.2927 143.321 94.6144 143.821 94.1143C144.321 93.6142 144.999 93.3333 145.707 93.3333C146.414 93.3333 147.092 93.6142 147.592 94.1143C148.092 94.6144 148.373 95.2927 148.373 95.9999Z" fill="#111111"/>
<path d="M129.893 95.9999C129.893 96.7072 129.612 97.3855 129.112 97.8856C128.612 98.3857 127.934 98.6666 127.227 98.6666C126.519 98.6666 125.841 98.3857 125.341 97.8856C124.841 97.3855 124.56 96.7072 124.56 95.9999C124.56 95.2927 124.841 94.6144 125.341 94.1143C125.841 93.6142 126.519 93.3333 127.227 93.3333C127.934 93.3333 128.612 93.6142 129.112 94.1143C129.612 94.6144 129.893 95.2927 129.893 95.9999Z" fill="#111111"/>
</g>
</g>
<g id="Size=40px, Filled=true" clip-path="url(#clip13_3570_415)">
<g id="Vector_13">
<path d="M166.633 90.3H186.633C186.805 90.3072 186.977 90.2784 187.137 90.2154C187.297 90.1524 187.442 90.0566 187.563 89.9342C187.684 89.8118 187.778 89.6654 187.839 89.5045C187.899 89.3436 187.926 89.1718 187.917 89V78.35C187.917 77.6943 188.176 77.0651 188.638 76.5999C189.1 76.1346 189.728 75.8711 190.383 75.8667H194.867C195.319 75.8733 195.76 76.0023 196.145 76.24C196.529 76.4778 196.842 76.8153 197.05 77.2167L201.083 85.3667L201.217 85.5167L203.25 87C203.488 87.1889 203.679 87.4298 203.809 87.7044C203.939 87.9789 204.004 88.2796 204 88.5833V96.4833C204.002 96.7554 203.95 97.0251 203.847 97.2768C203.744 97.5286 203.592 97.7573 203.4 97.9496C203.207 98.142 202.978 98.2941 202.727 98.3972C202.475 98.5003 202.205 98.5522 201.933 98.55H201.5C201.443 98.5492 201.388 98.537 201.336 98.5141C201.285 98.4912 201.238 98.458 201.2 98.4167C201.159 98.3755 201.129 98.3253 201.112 98.2703C201.095 98.2153 201.09 98.1569 201.1 98.1V97.7333C200.93 96.5415 200.336 95.4509 199.427 94.662C198.517 93.873 197.354 93.4387 196.15 93.4387C194.946 93.4387 193.783 93.873 192.873 94.662C191.964 95.4509 191.37 96.5415 191.2 97.7333C191.192 97.8554 191.192 97.9779 191.2 98.1C191.209 98.1569 191.205 98.2153 191.188 98.2703C191.17 98.3253 191.14 98.3755 191.1 98.4167C191.02 98.4973 190.913 98.5449 190.8 98.55H178.383C178.264 98.5492 178.15 98.5012 178.067 98.4167C178.03 98.3731 178.002 98.3226 177.985 98.2683C177.968 98.214 177.962 98.1568 177.967 98.1C177.974 97.9779 177.974 97.8554 177.967 97.7333C177.797 96.5415 177.203 95.4509 176.293 94.662C175.384 93.873 174.22 93.4387 173.017 93.4387C171.813 93.4387 170.649 93.873 169.74 94.662C168.831 95.4509 168.236 96.5415 168.067 97.7333C168.059 97.8554 168.059 97.9779 168.067 98.1C168.069 98.1579 168.06 98.2158 168.04 98.2702C168.02 98.3246 167.99 98.3744 167.95 98.4167C167.913 98.4597 167.867 98.494 167.815 98.5171C167.763 98.5401 167.707 98.5514 167.65 98.55H165.667C165.339 98.55 165.026 98.4201 164.794 98.1888C164.563 97.9575 164.433 97.6438 164.433 97.3167V92.3333C164.463 91.7748 164.71 91.2501 165.121 90.8704C165.532 90.4908 166.074 90.2862 166.633 90.3ZM191.217 83.4667C191.217 83.5772 191.26 83.6832 191.339 83.7613C191.417 83.8394 191.523 83.8833 191.633 83.8833H196.017C196.087 83.8823 196.156 83.8635 196.217 83.8285C196.279 83.7935 196.33 83.7436 196.367 83.6833C196.4 83.622 196.418 83.5532 196.418 83.4833C196.418 83.4134 196.4 83.3447 196.367 83.2833L194.45 79.4C194.413 79.3151 194.349 79.2455 194.267 79.203C194.185 79.1604 194.09 79.1476 194 79.1667H191.633C191.523 79.1667 191.417 79.2106 191.339 79.2887C191.26 79.3668 191.217 79.4728 191.217 79.5833V83.4667Z" fill="#111111"/>
<path d="M185.033 87.8333H182.583C182.462 87.8264 182.349 87.7726 182.267 87.6833L171.333 74.1667C171.284 74.0926 171.211 74.0364 171.127 74.0064C171.043 73.9764 170.952 73.9742 170.867 74C170.786 74.0256 170.716 74.0771 170.668 74.1464C170.62 74.2157 170.596 74.299 170.6 74.3833V76.5C170.603 76.5785 170.628 76.6545 170.672 76.7194C170.716 76.7843 170.778 76.8353 170.85 76.8667C171.757 77.2874 172.525 77.9574 173.065 78.7985C173.605 79.6397 173.895 80.6171 173.9 81.6167C173.909 82.9595 173.39 84.252 172.454 85.2155C171.519 86.179 170.242 86.7361 168.9 86.7667C168.269 86.8218 167.633 86.7459 167.032 86.5438C166.432 86.3416 165.879 86.0176 165.41 85.5919C164.94 85.1663 164.564 84.6483 164.304 84.0703C164.044 83.4924 163.907 82.867 163.9 82.2333C163.9 81.7913 164.075 81.3674 164.388 81.0548C164.701 80.7423 165.125 80.5667 165.567 80.5667C166.009 80.5667 166.433 80.7423 166.745 81.0548C167.058 81.3674 167.233 81.7913 167.233 82.2333C167.233 83.3833 168.5 83.4667 168.9 83.4667C169.348 83.4064 169.759 83.1857 170.056 82.8455C170.354 82.5052 170.518 82.0686 170.518 81.6167C170.518 81.1647 170.354 80.7281 170.056 80.3879C169.759 80.0477 169.348 79.8269 168.9 79.7667C168.458 79.7667 168.034 79.5911 167.721 79.2785C167.409 78.966 167.233 78.542 167.233 78.1V69C167.233 66.65 169.1 66.6833 169.933 67.3333L185.3 80.5167C185.345 80.5528 185.382 80.5984 185.408 80.6502C185.434 80.702 185.448 80.7588 185.45 80.8167V87.4833C185.434 87.5819 185.383 87.6715 185.307 87.7357C185.23 87.8 185.133 87.8346 185.033 87.8333Z" fill="#111111"/>
<path d="M199.467 98.9999C199.467 99.4377 199.38 99.8711 199.213 100.276C199.045 100.68 198.8 101.047 198.49 101.357C198.181 101.666 197.813 101.912 197.409 102.08C197.004 102.247 196.571 102.333 196.133 102.333C195.696 102.333 195.262 102.247 194.858 102.08C194.453 101.912 194.086 101.666 193.776 101.357C193.467 101.047 193.221 100.68 193.054 100.276C192.886 99.8711 192.8 99.4377 192.8 98.9999C192.8 98.1159 193.151 97.268 193.776 96.6429C194.401 96.0178 195.249 95.6666 196.133 95.6666C197.017 95.6666 197.865 96.0178 198.49 96.6429C199.115 97.268 199.467 98.1159 199.467 98.9999Z" fill="#111111"/>
<path d="M176.367 98.9999C176.367 99.884 176.015 100.732 175.39 101.357C174.765 101.982 173.917 102.333 173.033 102.333C172.149 102.333 171.301 101.982 170.676 101.357C170.051 100.732 169.7 99.884 169.7 98.9999C169.7 98.1159 170.051 97.268 170.676 96.6429C171.301 96.0178 172.149 95.6666 173.033 95.6666C173.917 95.6666 174.765 96.0178 175.39 96.6429C176.015 97.268 176.367 98.1159 176.367 98.9999Z" fill="#111111"/>
</g>
</g>
<g id="Size=48px, Filled=true" clip-path="url(#clip14_3570_415)">
<g id="Vector_14">
<path d="M219.16 91.56H243.16C243.366 91.5687 243.572 91.5341 243.764 91.4585C243.956 91.3829 244.13 91.268 244.275 91.121C244.42 90.9741 244.533 90.7985 244.606 90.6054C244.679 90.4124 244.711 90.2061 244.7 90V77.22C244.7 76.4331 245.011 75.6781 245.566 75.1199C246.12 74.5616 246.873 74.2453 247.66 74.24H253.04C253.582 74.2479 254.112 74.4028 254.574 74.688C255.035 74.9733 255.41 75.3783 255.66 75.86L260.5 85.64L260.66 85.82L263.1 87.6C263.385 87.8266 263.615 88.1158 263.771 88.4452C263.927 88.7747 264.005 89.1355 264 89.5V98.98C264.003 99.3064 263.94 99.6301 263.817 99.9322C263.693 100.234 263.51 100.509 263.279 100.74C263.049 100.97 262.774 101.153 262.472 101.277C262.17 101.4 261.846 101.463 261.52 101.46H261C260.932 101.459 260.865 101.444 260.803 101.417C260.742 101.389 260.686 101.35 260.64 101.3C260.591 101.251 260.555 101.19 260.534 101.124C260.514 101.058 260.509 100.988 260.52 100.92V100.48C260.316 99.0498 259.603 97.7411 258.512 96.7944C257.421 95.8476 256.025 95.3264 254.58 95.3264C253.135 95.3264 251.739 95.8476 250.648 96.7944C249.557 97.7411 248.844 99.0498 248.64 100.48C248.63 100.627 248.63 100.773 248.64 100.92C248.651 100.988 248.646 101.058 248.625 101.124C248.605 101.19 248.568 101.251 248.52 101.3C248.424 101.397 248.296 101.454 248.16 101.46H233.26C233.117 101.459 232.98 101.401 232.88 101.3C232.836 101.248 232.803 101.187 232.782 101.122C232.761 101.057 232.754 100.988 232.76 100.92C232.769 100.773 232.769 100.627 232.76 100.48C232.556 99.0498 231.843 97.7411 230.752 96.7944C229.661 95.8476 228.265 95.3264 226.82 95.3264C225.375 95.3264 223.979 95.8476 222.888 96.7944C221.797 97.7411 221.084 99.0498 220.88 100.48C220.871 100.627 220.871 100.773 220.88 100.92C220.883 100.989 220.872 101.059 220.848 101.124C220.824 101.189 220.787 101.249 220.74 101.3C220.695 101.352 220.64 101.393 220.578 101.42C220.516 101.448 220.448 101.462 220.38 101.46H218C217.607 101.46 217.231 101.304 216.953 101.027C216.676 100.749 216.52 100.373 216.52 99.98V94C216.556 93.3298 216.852 92.7001 217.345 92.2445C217.838 91.789 218.489 91.5434 219.16 91.56ZM248.66 83.36C248.66 83.4926 248.713 83.6198 248.806 83.7135C248.9 83.8073 249.027 83.86 249.16 83.86H254.42C254.504 83.8588 254.587 83.8361 254.661 83.7942C254.734 83.7522 254.796 83.6923 254.84 83.62C254.88 83.5464 254.901 83.4639 254.901 83.38C254.901 83.2961 254.88 83.2136 254.84 83.14L252.54 78.48C252.496 78.3781 252.418 78.2946 252.32 78.2435C252.221 78.1925 252.108 78.1771 252 78.2H249.16C249.027 78.2 248.9 78.2527 248.806 78.3464C248.713 78.4402 248.66 78.5674 248.66 78.7V83.36Z" fill="#111111"/>
<path d="M241.24 88.6H238.3C238.155 88.5916 238.018 88.5271 237.92 88.42L224.8 72.2C224.74 72.1111 224.654 72.0437 224.553 72.0077C224.452 71.9717 224.342 71.969 224.24 72C224.143 72.0307 224.06 72.0925 224.002 72.1756C223.944 72.2588 223.915 72.3588 223.92 72.46V75C223.923 75.0942 223.953 75.1854 224.006 75.2633C224.06 75.3411 224.134 75.4024 224.22 75.44C225.308 75.9448 226.23 76.7489 226.878 77.7582C227.526 78.7676 227.874 79.9405 227.88 81.14C227.891 82.7514 227.268 84.3024 226.145 85.4586C225.023 86.6147 223.491 87.2833 221.88 87.32C221.122 87.3862 220.359 87.2951 219.639 87.0525C218.918 86.8099 218.255 86.4211 217.692 85.9103C217.129 85.3996 216.677 84.7779 216.365 84.0844C216.053 83.3908 215.888 82.6404 215.88 81.88C215.88 81.3496 216.091 80.8409 216.466 80.4658C216.841 80.0907 217.349 79.88 217.88 79.88C218.41 79.88 218.919 80.0907 219.294 80.4658C219.669 80.8409 219.88 81.3496 219.88 81.88C219.88 83.26 221.4 83.36 221.88 83.36C222.417 83.2877 222.91 83.0228 223.267 82.6145C223.624 82.2063 223.821 81.6823 223.821 81.14C223.821 80.5976 223.624 80.0737 223.267 79.6654C222.91 79.2572 222.417 78.9923 221.88 78.92C221.349 78.92 220.841 78.7093 220.466 78.3342C220.091 77.9591 219.88 77.4504 219.88 76.92V66C219.88 63.18 222.12 63.22 223.12 64L241.56 79.82C241.614 79.8634 241.658 79.9181 241.689 79.9802C241.721 80.0424 241.738 80.1105 241.74 80.18V88.18C241.721 88.2983 241.66 88.4058 241.568 88.4829C241.476 88.56 241.36 88.6015 241.24 88.6Z" fill="#111111"/>
<path d="M258.56 102C258.56 102.525 258.457 103.045 258.255 103.531C258.054 104.016 257.76 104.457 257.388 104.828C257.017 105.2 256.576 105.494 256.091 105.695C255.605 105.896 255.085 106 254.56 106C254.035 106 253.515 105.896 253.029 105.695C252.544 105.494 252.103 105.2 251.732 104.828C251.36 104.457 251.065 104.016 250.864 103.531C250.663 103.045 250.56 102.525 250.56 102C250.56 100.939 250.981 99.9216 251.732 99.1715C252.482 98.4213 253.499 97.9999 254.56 97.9999C255.621 97.9999 256.638 98.4213 257.388 99.1715C258.139 99.9216 258.56 100.939 258.56 102Z" fill="#111111"/>
<path d="M230.84 102C230.84 103.061 230.419 104.078 229.668 104.828C228.918 105.578 227.901 106 226.84 106C225.779 106 224.762 105.578 224.012 104.828C223.261 104.078 222.84 103.061 222.84 102C222.84 100.939 223.261 99.9216 224.012 99.1715C224.762 98.4213 225.779 97.9999 226.84 97.9999C227.901 97.9999 228.918 98.4213 229.668 99.1715C230.419 99.9216 230.84 100.939 230.84 102Z" fill="#111111"/>
</g>
</g>
</g>
</g>
<defs>
<clipPath id="clip0_3570_415">
<rect width="264" height="108" rx="5" fill="white"/>
</clipPath>
<clipPath id="clip1_3570_415">
<rect width="12" height="12" fill="white" transform="translate(0 18)"/>
</clipPath>
<clipPath id="clip2_3570_415">
<rect width="16" height="16" fill="white" transform="translate(24 16)"/>
</clipPath>
<clipPath id="clip3_3570_415">
<rect width="20" height="20" fill="white" transform="translate(52 14)"/>
</clipPath>
<clipPath id="clip4_3570_415">
<rect width="24" height="24" fill="white" transform="translate(84 12)"/>
</clipPath>
<clipPath id="clip5_3570_415">
<rect width="32" height="32" fill="white" transform="translate(120 8)"/>
</clipPath>
<clipPath id="clip6_3570_415">
<rect width="40" height="40" fill="white" transform="translate(164 4)"/>
</clipPath>
<clipPath id="clip7_3570_415">
<rect width="48" height="48" fill="white" transform="translate(216)"/>
</clipPath>
<clipPath id="clip8_3570_415">
<rect width="12" height="12" fill="white" transform="translate(0 78)"/>
</clipPath>
<clipPath id="clip9_3570_415">
<rect width="16" height="16" fill="white" transform="translate(24 76)"/>
</clipPath>
<clipPath id="clip10_3570_415">
<rect width="20" height="20" fill="white" transform="translate(52 74)"/>
</clipPath>
<clipPath id="clip11_3570_415">
<rect width="24" height="24" fill="white" transform="translate(84 72)"/>
</clipPath>
<clipPath id="clip12_3570_415">
<rect width="32" height="32" fill="white" transform="translate(120 68)"/>
</clipPath>
<clipPath id="clip13_3570_415">
<rect width="40" height="40" fill="white" transform="translate(164 64)"/>
</clipPath>
<clipPath id="clip14_3570_415">
<rect width="48" height="48" fill="white" transform="translate(216 60)"/>
</clipPath>
</defs>
</svg>
