<svg width="264" height="108" viewBox="0 0 264 108" fill="none" xmlns="http://www.w3.org/2000/svg">
<g id="Truck (Cargo)">
<g clip-path="url(#clip0_1126_874)">
<g id="Size=12px, Filled=false">
<path id="Vector" d="M10.5 28.13C10.5 28.5442 10.1642 28.88 9.75 28.88C9.33579 28.88 9 28.5442 9 28.13M10.5 28.13C10.5 27.7158 10.1642 27.38 9.75 27.38C9.33579 27.38 9 27.7158 9 28.13M10.5 28.13H10.55C10.9366 28.13 11.25 27.7942 11.25 27.38M9 28.13H4.5M4.5 28.13C4.5 28.5442 4.16421 28.88 3.75 28.88C3.33579 28.88 3 28.5442 3 28.13C3 27.7158 3.33579 27.38 3.75 27.38C4.16421 27.38 4.5 27.7158 4.5 28.13ZM6 28.13V26.63M6 26.63H10.55C10.9366 26.63 11.25 26.9658 11.25 27.38M6 26.63V21.38H9C10.2426 21.38 11.25 22.3685 11.25 23.5879V27.38M6 21.3517V19.8047C5.99987 19.5997 6.11496 19.4058 6.31275 19.2778C6.51055 19.1497 6.76957 19.1014 7.01667 19.1465C7.90111 19.307 9.08 19.5925 9.33333 20.003C9.57137 20.4286 9.71252 20.8855 9.75 21.3517V21.38M0.75 25.88H4.5V19.7729C4.5 19.4178 4.19474 19.13 3.81818 19.13H0.75M11.25 25.13H6M8.25 21.38V25.13M1.5 28.88C1.91421 28.88 2.25 28.5442 2.25 28.13C2.25 27.7158 1.91421 27.38 1.5 27.38C1.08579 27.38 0.75 27.7158 0.75 28.13C0.75 28.5442 1.08579 28.88 1.5 28.88Z" stroke="#111111" stroke-width="0.75" stroke-linecap="round" stroke-linejoin="round"/>
</g>
<g id="Size=16px, Filled=false">
<path id="Vector_2" d="M38 29.5C38 30.0523 37.5523 30.5 37 30.5C36.4477 30.5 36 30.0523 36 29.5M38 29.5C38 28.9477 37.5523 28.5 37 28.5C36.4477 28.5 36 28.9477 36 29.5M38 29.5H38.0667C38.5821 29.5 39 29.0523 39 28.5M36 29.5H30M30 29.5C30 30.0523 29.5523 30.5 29 30.5C28.4477 30.5 28 30.0523 28 29.5C28 28.9477 28.4477 28.5 29 28.5C29.5523 28.5 30 28.9477 30 29.5ZM32 29.5V27.5M32 27.5H38.0667C38.5821 27.5 39 27.9477 39 28.5M32 27.5V20.5H36C37.6569 20.5 39 21.818 39 23.4439V28.5M32 20.4622V18.3996C31.9998 18.1263 32.1533 17.8678 32.417 17.697C32.6807 17.5263 33.0261 17.4619 33.3556 17.522C34.5348 17.736 36.1067 18.1167 36.4444 18.6639C36.7618 19.2314 36.95 19.8406 37 20.4622V20.5M25 26.5H30V18.3571C30 17.8838 29.593 17.5 29.0909 17.5H25M39 25.5H32M35 20.5V25.5M26 30.5C26.5523 30.5 27 30.0523 27 29.5C27 28.9477 26.5523 28.5 26 28.5C25.4477 28.5 25 28.9477 25 29.5C25 30.0523 25.4477 30.5 26 30.5Z" stroke="#111111" stroke-linecap="round" stroke-linejoin="round"/>
</g>
<g id="Size=20px, Filled=false">
<path id="Vector_3" d="M69.5 30.87C69.5 31.5604 68.9404 32.12 68.25 32.12C67.5596 32.12 67 31.5604 67 30.87M69.5 30.87C69.5 30.1796 68.9404 29.62 68.25 29.62C67.5596 29.62 67 30.1796 67 30.87M69.5 30.87H69.5833C70.2277 30.87 70.75 30.3104 70.75 29.62C70.75 28.9296 70.2277 28.37 69.5833 28.37H62M67 30.87H59.5M59.5 30.87C59.5 31.5604 58.9404 32.12 58.25 32.12C57.5596 32.12 57 31.5604 57 30.87C57 30.1796 57.5596 29.62 58.25 29.62C58.9404 29.62 59.5 30.1796 59.5 30.87ZM62 30.87V28.37M62 28.37V19.62H67C69.0711 19.62 70.75 21.2675 70.75 23.2999V29.5M62 19.5728V16.9945C61.9998 16.6529 62.1916 16.3297 62.5213 16.1163C62.8509 15.9029 63.2826 15.8224 63.6944 15.8975C65.1685 16.165 67.1333 16.6408 67.5556 17.3249C67.9523 18.0343 68.1875 18.7958 68.25 19.5728V19.62M53.25 27.12H59.5V16.9414C59.5 16.3497 58.9912 15.87 58.3636 15.87H53.25M70.75 25.87H62M65.75 19.62V25.87M54.5 32.12C55.1904 32.12 55.75 31.5604 55.75 30.87C55.75 30.1796 55.1904 29.62 54.5 29.62C53.8096 29.62 53.25 30.1796 53.25 30.87C53.25 31.5604 53.8096 32.12 54.5 32.12Z" stroke="#111111" stroke-width="1.25" stroke-linecap="round" stroke-linejoin="round"/>
</g>
<g id="Size=24px, Filled=false">
<path id="Vector_4" d="M89 33C89 34.1046 88.1046 35 87 35C85.8954 35 85 34.1046 85 33C85 31.8954 85.8954 31 87 31C88.1046 31 89 31.8954 89 33ZM89 33C89 31.8954 89.8954 31 91 31C92.1046 31 93 31.8954 93 33C93 34.1046 92.1046 35 91 35C89.8954 35 89 34.1046 89 33ZM96 32V29H105.533C106.343 29 107 29.6716 107 30.5C107 31.3284 106.343 32 105.533 32H105M107 30V23.6262C107 21.0712 104.889 19 102.286 19H96V29.7944M96 18.9371V15.4993C95.9998 15.0438 96.2146 14.6129 96.5838 14.3284C96.953 14.0438 97.4365 13.9365 97.8978 14.0367C99.5487 14.3934 101.749 15.0278 102.222 15.9399C102.667 16.8857 102.93 17.9011 103 18.9371V19M85 28H93V14.4286C93 13.6396 92.3488 13 91.5455 13H85M107 25H96M101 19V25M101 32H93M103 35C104.105 35 105 34.1046 105 33C105 31.8954 104.105 31 103 31C101.895 31 101 31.8954 101 33C101 34.1046 101.895 35 103 35Z" stroke="#111111" stroke-width="1.5" stroke-linecap="round" stroke-linejoin="round"/>
</g>
<g id="Size=32px, Filled=false">
<path id="Vector_5" d="M148 35C148 36.1046 147.105 37 146 37C144.895 37 144 36.1046 144 35M148 35C148 33.8954 147.105 33 146 33C144.895 33 144 33.8954 144 35M148 35H148.133C149.164 35 150 34.1046 150 33M144 35H132M132 35C132 36.1046 131.105 37 130 37C128.895 37 128 36.1046 128 35C128 33.8954 128.895 33 130 33C131.105 33 132 33.8954 132 35ZM136 35V31H148.133C149.164 31 150 31.8954 150 33M150 33V22.8879C150 19.6361 147.314 17 144 17H136V30.7383M136 16.9245V12.7992C136 12.2526 136.307 11.7355 136.834 11.3941C137.361 11.0526 138.052 10.9238 138.711 11.0441C141.07 11.4721 144.213 12.2333 144.889 13.3279C145.524 14.4629 145.9 15.6813 146 16.9245V17M122 29H132V12.7143C132 11.7675 131.186 11 130.182 11H122M150 27H136M142 17V27M124 37C125.105 37 126 36.1046 126 35C126 33.8954 125.105 33 124 33C122.895 33 122 33.8954 122 35C122 36.1046 122.895 37 124 37Z" stroke="#111111" stroke-width="2" stroke-linecap="round" stroke-linejoin="round"/>
</g>
<g id="Size=40px, Filled=false">
<path id="Vector_6" d="M199 37.75C199 39.1307 197.881 40.25 196.5 40.25C195.119 40.25 194 39.1307 194 37.75M199 37.75C199 36.3693 197.881 35.25 196.5 35.25C195.119 35.25 194 36.3693 194 37.75M199 37.75H199.167C200.455 37.75 201.5 36.6307 201.5 35.25C201.5 33.8693 200.455 32.75 199.167 32.75H184V37.75M194 37.75H179M179 37.75C179 39.1307 177.881 40.25 176.5 40.25C175.119 40.25 174 39.1307 174 37.75C174 36.3693 175.119 35.25 176.5 35.25C177.881 35.25 179 36.3693 179 37.75ZM201.5 35V22.6098C201.5 18.5451 198.142 15.25 194 15.25H184V32.4229M184 15.1556V9.999C184 9.31575 184.383 8.66942 185.043 8.2426C185.702 7.81577 186.565 7.65478 187.389 7.80509C190.337 8.34008 194.267 9.29168 195.111 10.6599C195.905 12.0786 196.375 13.6016 196.5 15.1556V15.25M166.5 30.25H179V9.89286C179 8.70939 177.982 7.75 176.727 7.75H166.5M201.5 27.75H184M191.5 15.25V27.75M169 40.25C170.381 40.25 171.5 39.1307 171.5 37.75C171.5 36.3693 170.381 35.25 169 35.25C167.619 35.25 166.5 36.3693 166.5 37.75C166.5 39.1307 167.619 40.25 169 40.25Z" stroke="#111111" stroke-width="2.5" stroke-linecap="round" stroke-linejoin="round"/>
</g>
<g id="Size=48px, Filled=false">
<path id="Vector_7" d="M258 40.5C258 42.1569 256.657 43.5 255 43.5C253.343 43.5 252 42.1569 252 40.5M258 40.5C258 38.8431 256.657 37.5 255 37.5C253.343 37.5 252 38.8431 252 40.5M258 40.5H258.2C259.746 40.5 261 39.1569 261 37.5M252 40.5H234M234 40.5C234 42.1569 232.657 43.5 231 43.5C229.343 43.5 228 42.1569 228 40.5C228 38.8431 229.343 37.5 231 37.5C232.657 37.5 234 38.8431 234 40.5ZM240 40.5V34.5H258.2C259.746 34.5 261 35.8431 261 37.5M261 37.5V22.3318C261 17.4541 256.971 13.5 252 13.5H240V34.1075M240 13.3867V7.1988C239.999 6.3789 240.46 5.60331 241.251 5.09112C242.042 4.57892 243.078 4.38573 244.067 4.56611C247.604 5.2081 252.32 6.35001 253.333 7.99185C254.285 9.69434 254.85 11.5219 255 13.3867V13.5M219 31.5H234V7.07143C234 5.65127 232.779 4.5 231.273 4.5H219M261 28.5H240M249 13.5V28.5M222 43.5C223.657 43.5 225 42.1569 225 40.5C225 38.8431 223.657 37.5 222 37.5C220.343 37.5 219 38.8431 219 40.5C219 42.1569 220.343 43.5 222 43.5Z" stroke="#111111" stroke-width="3" stroke-linecap="round" stroke-linejoin="round"/>
</g>
<g id="Size=12px, Filled=true">
<g id="Vector_8">
<path d="M11.5 86.1879C11.4998 86.0101 11.4409 85.8374 11.3323 85.6965C11.2237 85.5557 11.0716 85.4546 10.8996 85.4092L9.31376 84.9969C9.2504 84.9797 9.19449 84.9421 9.15471 84.8899C9.11492 84.8378 9.0935 84.7739 9.09377 84.7083C9.09456 84.2984 8.99056 83.8952 8.79163 83.5368C8.5927 83.1784 8.30543 82.8768 7.95711 82.6606L6.9167 82.0101C6.87911 81.9886 6.83911 81.9717 6.79753 81.9597C6.78121 81.9569 6.76589 81.95 6.75305 81.9395C6.7402 81.9291 6.73027 81.9155 6.7242 81.9001C6.56689 81.5703 6.31947 81.2916 6.01049 81.0962C5.70151 80.9009 5.34356 80.7969 4.97796 80.7961H3.93755C3.87677 80.7961 3.81848 80.8203 3.7755 80.8632C3.73253 80.9062 3.70838 80.9644 3.70838 81.0252V87.324C3.70838 87.3544 3.69631 87.3835 3.67482 87.405C3.65333 87.4265 3.62419 87.4386 3.5938 87.4386H3.13547C3.10508 87.4386 3.07594 87.4265 3.05445 87.405C3.03296 87.3835 3.02089 87.3544 3.02089 87.324V80.338C3.03505 79.9793 2.92658 79.6264 2.71331 79.3374C2.50005 79.0485 2.19471 78.8408 1.84756 78.7484L0.779651 78.5056C0.745648 78.498 0.710342 78.4981 0.676419 78.5061C0.642496 78.5142 0.610851 78.5298 0.583891 78.5519C0.556931 78.574 0.535368 78.6019 0.520843 78.6336C0.506318 78.6653 0.499213 78.6998 0.500069 78.7347V87.3332C0.499495 87.3539 0.504784 87.3743 0.515325 87.3922C0.525866 87.41 0.541232 87.4245 0.559652 87.434C0.577416 87.4454 0.598102 87.4515 0.619235 87.4515C0.640368 87.4515 0.661054 87.4454 0.678818 87.434C0.897535 87.2886 1.15409 87.2106 1.41673 87.2095C1.7814 87.2095 2.13113 87.3543 2.389 87.612C2.64686 87.8698 2.79172 88.2193 2.79172 88.5838C2.79215 88.6905 2.77828 88.7968 2.75047 88.8999C2.74283 88.9148 2.73885 88.9313 2.73885 88.948C2.73885 88.9647 2.74283 88.9812 2.75047 88.9961C2.76043 89.01 2.77349 89.0213 2.7886 89.0293C2.80372 89.0372 2.82048 89.0415 2.83755 89.0419C6.45836 89.0419 7.28336 89.0419 7.51711 89.0419C7.55131 89.0363 7.58229 89.0184 7.60419 88.9915C7.61078 88.9771 7.61419 88.9615 7.61419 88.9457C7.61419 88.9299 7.61078 88.9143 7.60419 88.8999C7.59009 88.795 7.59009 88.6887 7.60419 88.5838C7.60419 88.2193 7.74906 87.8698 8.00692 87.612C8.26478 87.3543 8.61451 87.2095 8.97918 87.2095C9.34385 87.2095 9.69359 87.3543 9.95145 87.612C10.2093 87.8698 10.3542 88.2193 10.3542 88.5838C10.3539 88.6144 10.3654 88.6439 10.3863 88.6663C10.4093 88.6861 10.4384 88.6974 10.4688 88.6983H11.1608C11.2508 88.696 11.3364 88.6589 11.3997 88.5948C11.4629 88.5308 11.4988 88.4447 11.5 88.3548V86.1879ZM5.5417 83.3157C5.60248 83.3157 5.66077 83.3398 5.70375 83.3828C5.74673 83.4257 5.77087 83.484 5.77087 83.5447V84.919C5.77087 84.9798 5.74673 85.038 5.70375 85.081C5.66077 85.1239 5.60248 85.1481 5.5417 85.1481H5.08337C5.02259 85.1481 4.96431 85.1239 4.92133 85.081C4.87835 85.038 4.85421 84.9798 4.85421 84.919V83.5447C4.85421 83.484 4.87835 83.4257 4.92133 83.3828C4.96431 83.3398 5.02259 83.3157 5.08337 83.3157H5.5417ZM8.17252 84.69C8.1738 84.7052 8.17158 84.7206 8.16602 84.7349C8.16046 84.7492 8.15171 84.762 8.14044 84.7724C8.13026 84.7843 8.11758 84.7937 8.10331 84.8C8.08904 84.8064 8.07355 84.8094 8.05794 84.8091H7.24669C7.2163 84.8091 7.18716 84.797 7.16567 84.7755C7.14418 84.754 7.13211 84.7249 7.13211 84.6945V83.421C7.13239 83.4011 7.13808 83.3816 7.14857 83.3647C7.15907 83.3477 7.17397 83.334 7.19169 83.3248C7.20876 83.3138 7.22866 83.3079 7.24899 83.3079C7.26932 83.3079 7.28921 83.3138 7.30628 83.3248C7.55988 83.4526 7.77424 83.6465 7.92672 83.886C8.07919 84.1254 8.16412 84.4016 8.17252 84.6854V84.69Z" fill="#111111"/>
<path d="M8.97918 89.5C9.48544 89.5 9.89584 89.0898 9.89584 88.5838C9.89584 88.0778 9.48544 87.6676 8.97918 87.6676C8.47292 87.6676 8.06252 88.0778 8.06252 88.5838C8.06252 89.0898 8.47292 89.5 8.97918 89.5Z" fill="#111111"/>
<path d="M1.41673 89.5C1.92299 89.5 2.33339 89.0898 2.33339 88.5838C2.33339 88.0778 1.92299 87.6676 1.41673 87.6676C0.910472 87.6676 0.500069 88.0778 0.500069 88.5838C0.500069 89.0898 0.910472 89.5 1.41673 89.5Z" fill="#111111"/>
</g>
</g>
<g id="Size=16px, Filled=true">
<g id="Vector_9">
<path d="M39.25 86.8841C39.2498 86.6497 39.1721 86.422 39.0289 86.2363C38.8858 86.0506 38.6853 85.9175 38.4585 85.8576L36.3681 85.3141C36.2846 85.2915 36.2109 85.2419 36.1585 85.1731C36.106 85.1043 36.0778 85.0201 36.0781 84.9337C36.0792 84.3934 35.9421 83.8619 35.6799 83.3894C35.4176 82.917 35.039 82.5194 34.5798 82.2344L33.2084 81.3769C33.1588 81.3486 33.1061 81.3263 33.0513 81.3105C33.0298 81.3068 33.0096 81.2977 32.9927 81.2839C32.9757 81.2702 32.9626 81.2523 32.9546 81.232C32.7473 80.7972 32.4211 80.4298 32.0138 80.1723C31.6065 79.9148 31.1347 79.7777 30.6528 79.7767H29.2813C29.2012 79.7767 29.1244 79.8085 29.0677 79.8651C29.0111 79.9218 28.9792 79.9986 28.9792 80.0786V88.3817C28.9792 88.4217 28.9633 88.4601 28.935 88.4884C28.9067 88.5167 28.8682 88.5326 28.8282 88.5326H28.224C28.184 88.5326 28.1456 88.5167 28.1172 88.4884C28.0889 88.4601 28.073 88.4217 28.073 88.3817V79.1728C28.0917 78.6999 27.9487 78.2347 27.6675 77.8539C27.3864 77.473 26.9839 77.1992 26.5263 77.0775L25.1186 76.7574C25.0738 76.7473 25.0273 76.7475 24.9826 76.7581C24.9378 76.7687 24.8961 76.7893 24.8606 76.8184C24.825 76.8475 24.7966 76.8844 24.7775 76.9261C24.7583 76.9679 24.749 77.0134 24.7501 77.0593V88.3938C24.7493 88.421 24.7563 88.448 24.7702 88.4715C24.7841 88.495 24.8044 88.5141 24.8286 88.5266C24.852 88.5417 24.8793 88.5497 24.9072 88.5497C24.935 88.5497 24.9623 88.5417 24.9857 88.5266C25.274 88.335 25.6122 88.2322 25.9584 88.2307C26.4391 88.2307 26.9001 88.4216 27.24 88.7613C27.5799 89.101 27.7709 89.5618 27.7709 90.0423C27.7715 90.183 27.7532 90.3231 27.7165 90.4589C27.7065 90.4786 27.7012 90.5003 27.7012 90.5224C27.7012 90.5444 27.7065 90.5661 27.7165 90.5858C27.7297 90.604 27.7469 90.619 27.7668 90.6295C27.7867 90.64 27.8088 90.6457 27.8313 90.6461C32.6042 90.6461 33.6917 90.6461 33.9998 90.6461C34.0449 90.6387 34.0857 90.6151 34.1146 90.5797C34.1233 90.5608 34.1278 90.5402 34.1278 90.5193C34.1278 90.4985 34.1233 90.4779 34.1146 90.4589C34.096 90.3207 34.096 90.1806 34.1146 90.0423C34.1146 89.5618 34.3056 89.101 34.6455 88.7613C34.9854 88.4216 35.4464 88.2307 35.9271 88.2307C36.4078 88.2307 36.8688 88.4216 37.2087 88.7613C37.5486 89.101 37.7396 89.5618 37.7396 90.0423C37.7392 90.0826 37.7543 90.1215 37.7819 90.151C37.8122 90.1771 37.8506 90.192 37.8906 90.1932H38.8029C38.9216 90.1901 39.0344 90.1412 39.1177 90.0568C39.2011 89.9724 39.2485 89.859 39.25 89.7404V86.8841ZM31.3959 83.0979C31.476 83.0979 31.5528 83.1297 31.6095 83.1864C31.6661 83.243 31.698 83.3198 31.698 83.3999V85.2114C31.698 85.2915 31.6661 85.3683 31.6095 85.4249C31.5528 85.4815 31.476 85.5134 31.3959 85.5134H30.7917C30.7116 85.5134 30.6348 85.4815 30.5781 85.4249C30.5215 85.3683 30.4896 85.2915 30.4896 85.2114V83.3999C30.4896 83.3198 30.5215 83.243 30.5781 83.1864C30.6348 83.1297 30.7116 83.0979 30.7917 83.0979H31.3959ZM34.8638 84.9095C34.8655 84.9296 34.8625 84.9499 34.8552 84.9687C34.8479 84.9876 34.8363 85.0045 34.8215 85.0182C34.8081 85.0338 34.7914 85.0462 34.7725 85.0546C34.7537 85.0629 34.7333 85.067 34.7127 85.0665H33.6434C33.6033 85.0665 33.5649 85.0506 33.5366 85.0223C33.5082 84.994 33.4923 84.9556 33.4923 84.9155V83.2368C33.4927 83.2105 33.5002 83.1849 33.514 83.1625C33.5279 83.1402 33.5475 83.122 33.5709 83.11C33.5934 83.0954 33.6196 83.0877 33.6464 83.0877C33.6732 83.0877 33.6994 83.0954 33.7219 83.11C34.0562 83.2784 34.3388 83.534 34.5398 83.8497C34.7408 84.1654 34.8527 84.5294 34.8638 84.9035V84.9095Z" fill="#111111"/>
<path d="M35.9271 91.25C36.5944 91.25 37.1354 90.7093 37.1354 90.0423C37.1354 89.3753 36.5944 88.8346 35.9271 88.8346C35.2598 88.8346 34.7188 89.3753 34.7188 90.0423C34.7188 90.7093 35.2598 91.25 35.9271 91.25Z" fill="#111111"/>
<path d="M25.9584 91.25C26.6258 91.25 27.1667 90.7093 27.1667 90.0423C27.1667 89.3753 26.6258 88.8346 25.9584 88.8346C25.2911 88.8346 24.7501 89.3753 24.7501 90.0423C24.7501 90.7093 25.2911 91.25 25.9584 91.25Z" fill="#111111"/>
</g>
</g>
<g id="Size=20px, Filled=true">
<g id="Vector_10">
<path d="M71 87.5803C70.9998 87.2893 70.9033 87.0066 70.7256 86.7761C70.5479 86.5456 70.2989 86.3803 70.0175 86.3059L67.4225 85.6313C67.3188 85.6032 67.2273 85.5417 67.1622 85.4563C67.0971 85.3709 67.0621 85.2664 67.0625 85.159C67.0638 84.4884 66.8936 83.8285 66.5681 83.2421C66.2426 82.6556 65.7725 82.1621 65.2025 81.8082L63.5 80.7438C63.4386 80.7087 63.3731 80.681 63.305 80.6613C63.2784 80.6568 63.2533 80.6454 63.2323 80.6283C63.2112 80.6113 63.195 80.5891 63.185 80.5639C62.9276 80.0241 62.5228 79.568 62.0172 79.2484C61.5116 78.9287 60.9258 78.7585 60.3276 78.7573H58.6251C58.5256 78.7573 58.4302 78.7968 58.3599 78.8671C58.2896 78.9374 58.2501 79.0327 58.2501 79.1321V89.4393C58.2501 89.489 58.2303 89.5367 58.1952 89.5718C58.16 89.607 58.1123 89.6267 58.0626 89.6267H57.3126C57.2629 89.6267 57.2152 89.607 57.18 89.5718C57.1448 89.5367 57.1251 89.489 57.1251 89.4393V78.0077C57.1483 77.4206 56.9708 76.8431 56.6218 76.3703C56.2728 75.8975 55.7732 75.5576 55.2051 75.4065L53.4576 75.0092C53.402 74.9966 53.3442 74.9969 53.2887 75.0101C53.2332 75.0232 53.1814 75.0488 53.1373 75.0849C53.0932 75.1211 53.0579 75.1668 53.0341 75.2186C53.0103 75.2705 52.9987 75.327 53.0001 75.384V89.4543C52.9992 89.4882 53.0078 89.5216 53.0251 89.5508C53.0423 89.58 53.0675 89.6037 53.0976 89.6192C53.1267 89.638 53.1605 89.6479 53.1951 89.6479C53.2297 89.6479 53.2635 89.638 53.2926 89.6192C53.6505 89.3814 54.0703 89.2537 54.5001 89.2519C55.0968 89.2519 55.6691 89.4888 56.0911 89.9106C56.513 90.3323 56.7501 90.9043 56.7501 91.5008C56.7508 91.6754 56.7281 91.8494 56.6826 92.018C56.6701 92.0424 56.6636 92.0693 56.6636 92.0967C56.6636 92.1241 56.6701 92.1511 56.6826 92.1754C56.6989 92.1981 56.7203 92.2167 56.745 92.2297C56.7697 92.2427 56.7971 92.2498 56.8251 92.2504C62.7501 92.2504 64.1 92.2504 64.4825 92.2504C64.5385 92.2412 64.5892 92.2119 64.625 92.1679C64.6358 92.1444 64.6414 92.1188 64.6414 92.093C64.6414 92.0671 64.6358 92.0415 64.625 92.018C64.602 91.8464 64.602 91.6724 64.625 91.5008C64.625 90.9043 64.8621 90.3323 65.284 89.9106C65.706 89.4888 66.2783 89.2519 66.875 89.2519C67.4718 89.2519 68.0441 89.4888 68.466 89.9106C68.888 90.3323 69.125 90.9043 69.125 91.5008C69.1245 91.5508 69.1433 91.5991 69.1775 91.6357C69.2152 91.6681 69.2628 91.6866 69.3125 91.6882H70.445C70.5923 91.6843 70.7323 91.6236 70.8358 91.5188C70.9393 91.414 70.9981 91.2732 71 91.126V87.5803ZM61.2501 82.8802C61.3495 82.8802 61.4449 82.9197 61.5152 82.99C61.5856 83.0602 61.6251 83.1556 61.6251 83.255V85.5038C61.6251 85.6032 61.5856 85.6986 61.5152 85.7689C61.4449 85.8392 61.3495 85.8786 61.2501 85.8786H60.5001C60.4006 85.8786 60.3052 85.8392 60.2349 85.7689C60.1646 85.6986 60.1251 85.6032 60.1251 85.5038V83.255C60.1251 83.1556 60.1646 83.0602 60.2349 82.99C60.3052 82.9197 60.4006 82.8802 60.5001 82.8802H61.2501ZM65.555 85.129C65.5571 85.154 65.5535 85.1792 65.5444 85.2026C65.5353 85.2259 65.521 85.2469 65.5025 85.264C65.4859 85.2833 65.4651 85.2987 65.4418 85.3091C65.4184 85.3195 65.3931 85.3245 65.3675 85.3239H64.04C63.9903 85.3239 63.9426 85.3042 63.9075 85.269C63.8723 85.2339 63.8525 85.1862 63.8525 85.1365V83.0526C63.853 83.02 63.8623 82.9881 63.8795 82.9604C63.8967 82.9327 63.921 82.9101 63.95 82.8952C63.978 82.8771 64.0105 82.8675 64.0438 82.8675C64.0771 82.8675 64.1096 82.8771 64.1375 82.8952C64.5525 83.1043 64.9033 83.4215 65.1528 83.8134C65.4023 84.2053 65.5413 84.6572 65.555 85.1215V85.129Z" fill="#111111"/>
<path d="M66.875 93C67.7034 93 68.375 92.3288 68.375 91.5008C68.375 90.6728 67.7034 90.0015 66.875 90.0015C66.0466 90.0015 65.375 90.6728 65.375 91.5008C65.375 92.3288 66.0466 93 66.875 93Z" fill="#111111"/>
<path d="M54.5001 93C55.3285 93 56.0001 92.3288 56.0001 91.5008C56.0001 90.6728 55.3285 90.0015 54.5001 90.0015C53.6717 90.0015 53.0001 90.6728 53.0001 91.5008C53.0001 92.3288 53.6717 93 54.5001 93Z" fill="#111111"/>
</g>
</g>
<g id="Size=24px, Filled=true">
<g id="Vector_11">
<path d="M106.5 88.177C106.5 87.8375 106.387 87.5077 106.18 87.2388C105.973 86.9699 105.682 86.777 105.354 86.6902L102.326 85.9032C102.205 85.8704 102.099 85.7986 102.023 85.699C101.947 85.5994 101.906 85.4774 101.906 85.3522C101.908 84.5698 101.709 83.7999 101.329 83.1158C100.95 82.4316 100.401 81.8558 99.7363 81.4429L97.7501 80.2011C97.6783 80.1601 97.6019 80.1278 97.5226 80.1049C97.4914 80.0995 97.4622 80.0863 97.4376 80.0664C97.4131 80.0465 97.3941 80.0206 97.3826 79.9912C97.0822 79.3614 96.6099 78.8294 96.02 78.4565C95.4302 78.0835 94.7468 77.8849 94.0488 77.8835H92.0626C91.9466 77.8835 91.8353 77.9296 91.7532 78.0116C91.6712 78.0936 91.6251 78.2048 91.6251 78.3208V90.3459C91.6251 90.4039 91.602 90.4595 91.561 90.5005C91.52 90.5415 91.4644 90.5645 91.4063 90.5645H90.5314C90.4733 90.5645 90.4177 90.5415 90.3767 90.5005C90.3356 90.4595 90.3126 90.4039 90.3126 90.3459V77.009C90.3396 76.324 90.1326 75.6503 89.7254 75.0987C89.3183 74.5471 88.7353 74.1506 88.0726 73.9743L86.0339 73.5107C85.969 73.4961 85.9016 73.4964 85.8368 73.5117C85.772 73.527 85.7116 73.5569 85.6602 73.5991C85.6087 73.6413 85.5675 73.6946 85.5398 73.7551C85.5121 73.8155 85.4985 73.8815 85.5001 73.948V90.3634C85.499 90.4029 85.5091 90.4419 85.5293 90.476C85.5494 90.51 85.5787 90.5377 85.6139 90.5558C85.6478 90.5776 85.6873 90.5892 85.7276 90.5892C85.768 90.5892 85.8075 90.5776 85.8414 90.5558C86.2589 90.2783 86.7487 90.1293 87.2501 90.1272C87.9463 90.1272 88.614 90.4037 89.1063 90.8957C89.5985 91.3877 89.8751 92.0551 89.8751 92.7509C89.8759 92.9547 89.8494 93.1576 89.7964 93.3543C89.7818 93.3828 89.7742 93.4142 89.7742 93.4462C89.7742 93.4781 89.7818 93.5096 89.7964 93.538C89.8154 93.5645 89.8403 93.5862 89.8691 93.6013C89.898 93.6165 89.93 93.6248 89.9626 93.6254C96.8751 93.6254 98.4501 93.6254 98.8963 93.6254C98.9616 93.6147 99.0207 93.5805 99.0625 93.5292C99.0751 93.5018 99.0816 93.472 99.0816 93.4418C99.0816 93.4116 99.0751 93.3818 99.0625 93.3543C99.0356 93.1541 99.0356 92.9511 99.0625 92.7509C99.0625 92.0551 99.3391 91.3877 99.8314 90.8957C100.324 90.4037 100.991 90.1272 101.688 90.1272C102.384 90.1272 103.051 90.4037 103.544 90.8957C104.036 91.3877 104.313 92.0551 104.313 92.7509C104.312 92.8093 104.334 92.8657 104.374 92.9083C104.418 92.9461 104.473 92.9677 104.531 92.9695H105.853C106.024 92.965 106.188 92.8942 106.308 92.7719C106.429 92.6496 106.498 92.4854 106.5 92.3136V88.177ZM95.1251 82.6935C95.2411 82.6935 95.3524 82.7396 95.4344 82.8216C95.5165 82.9036 95.5626 83.0148 95.5626 83.1308V85.7545C95.5626 85.8705 95.5165 85.9817 95.4344 86.0637C95.3524 86.1457 95.2411 86.1918 95.1251 86.1918H94.2501C94.134 86.1918 94.0228 86.1457 93.9407 86.0637C93.8587 85.9817 93.8126 85.8705 93.8126 85.7545V83.1308C93.8126 83.0148 93.8587 82.9036 93.9407 82.8216C94.0228 82.7396 94.134 82.6935 94.2501 82.6935H95.1251ZM100.148 85.3172C100.15 85.3464 100.146 85.3757 100.135 85.403C100.125 85.4303 100.108 85.4548 100.086 85.4746C100.067 85.4972 100.043 85.5152 100.015 85.5273C99.9882 85.5394 99.9586 85.5453 99.9288 85.5446H98.3801C98.322 85.5446 98.2664 85.5216 98.2254 85.4805C98.1843 85.4395 98.1613 85.3839 98.1613 85.3259V82.8947C98.1618 82.8566 98.1727 82.8195 98.1927 82.7871C98.2128 82.7548 98.2412 82.7285 98.2751 82.711C98.3076 82.69 98.3456 82.6787 98.3844 82.6787C98.4232 82.6787 98.4612 82.69 98.4938 82.711C98.978 82.955 99.3872 83.3251 99.6783 83.7823C99.9694 84.2395 100.132 84.7668 100.148 85.3085V85.3172Z" fill="#111111"/>
<path d="M101.688 94.5C102.654 94.5 103.438 93.7169 103.438 92.7509C103.438 91.7849 102.654 91.0018 101.688 91.0018C100.721 91.0018 99.9375 91.7849 99.9375 92.7509C99.9375 93.7169 100.721 94.5 101.688 94.5Z" fill="#111111"/>
<path d="M87.2501 94.5C88.2166 94.5 89.0001 93.7169 89.0001 92.7509C89.0001 91.7849 88.2166 91.0018 87.2501 91.0018C86.2836 91.0018 85.5001 91.7849 85.5001 92.7509C85.5001 93.7169 86.2836 94.5 87.2501 94.5Z" fill="#111111"/>
</g>
</g>
<g id="Size=32px, Filled=true">
<g id="Vector_12">
<path d="M150 89.5693C150 89.1167 149.85 88.6769 149.573 88.3184C149.297 87.9599 148.909 87.7027 148.472 87.587L144.435 86.5375C144.274 86.4939 144.131 86.3982 144.03 86.2653C143.929 86.1325 143.874 85.9699 143.875 85.8029C143.877 84.7597 143.612 83.7332 143.106 82.821C142.6 81.9088 141.868 81.141 140.982 80.5906L138.333 78.9348C138.238 78.8801 138.136 78.8371 138.03 78.8065C137.989 78.7994 137.95 78.7817 137.917 78.7552C137.884 78.7286 137.859 78.6941 137.843 78.6549C137.443 77.8152 136.813 77.1059 136.027 76.6086C135.24 76.1114 134.329 75.8465 133.398 75.8447H130.75C130.595 75.8447 130.447 75.9061 130.338 76.0154C130.228 76.1248 130.167 76.2731 130.167 76.4277V92.4612C130.167 92.5385 130.136 92.6126 130.081 92.6673C130.027 92.722 129.952 92.7527 129.875 92.7527H128.708C128.631 92.7527 128.557 92.722 128.502 92.6673C128.448 92.6126 128.417 92.5385 128.417 92.4612V74.6786C128.453 73.7654 128.177 72.8671 127.634 72.1316C127.091 71.3962 126.314 70.8674 125.43 70.6323L122.712 70.0143C122.625 69.9948 122.535 69.9952 122.449 70.0157C122.363 70.0361 122.282 70.0759 122.214 70.1321C122.145 70.1883 122.09 70.2595 122.053 70.3401C122.016 70.4207 121.998 70.5087 122 70.5974V92.4845C121.999 92.5372 122.012 92.5892 122.039 92.6346C122.066 92.68 122.105 92.7169 122.152 92.741C122.197 92.7701 122.25 92.7856 122.304 92.7856C122.357 92.7856 122.41 92.7701 122.455 92.741C123.012 92.3711 123.665 92.1724 124.333 92.1697C125.262 92.1697 126.152 92.5382 126.808 93.1943C127.465 93.8503 127.833 94.7401 127.833 95.6679C127.835 95.9395 127.799 96.2101 127.728 96.4724C127.709 96.5103 127.699 96.5523 127.699 96.5949C127.699 96.6375 127.709 96.6794 127.728 96.7173C127.754 96.7526 127.787 96.7815 127.826 96.8018C127.864 96.822 127.907 96.833 127.95 96.8339C137.167 96.8339 139.267 96.8339 139.862 96.8339C139.949 96.8196 140.028 96.774 140.083 96.7057C140.1 96.6691 140.109 96.6293 140.109 96.5891C140.109 96.5488 140.1 96.509 140.083 96.4724C140.047 96.2055 140.047 95.9349 140.083 95.6679C140.083 94.7401 140.452 93.8503 141.109 93.1943C141.765 92.5382 142.655 92.1697 143.583 92.1697C144.512 92.1697 145.402 92.5382 146.058 93.1943C146.715 93.8503 147.083 94.7401 147.083 95.6679C147.083 95.7457 147.112 95.8209 147.165 95.8778C147.224 95.9281 147.298 95.9569 147.375 95.9594H149.137C149.366 95.9534 149.584 95.8589 149.745 95.6959C149.906 95.5329 149.997 95.3139 150 95.0848V89.5693ZM134.833 82.2581C134.988 82.2581 135.137 82.3195 135.246 82.4288C135.355 82.5382 135.417 82.6865 135.417 82.8411V86.3393C135.417 86.4939 135.355 86.6422 135.246 86.7516C135.137 86.8609 134.988 86.9223 134.833 86.9223H133.667C133.512 86.9223 133.364 86.8609 133.254 86.7516C133.145 86.6422 133.083 86.4939 133.083 86.3393V82.8411C133.083 82.6865 133.145 82.5382 133.254 82.4288C133.364 82.3195 133.512 82.2581 133.667 82.2581H134.833ZM141.53 85.7563C141.533 85.7952 141.528 85.8343 141.513 85.8706C141.499 85.907 141.477 85.9397 141.448 85.9662C141.422 85.9963 141.39 86.0203 141.354 86.0364C141.318 86.0525 141.278 86.0604 141.238 86.0594H139.173C139.096 86.0594 139.022 86.0287 138.967 85.9741C138.912 85.9194 138.882 85.8452 138.882 85.7679V82.5263C138.882 82.4755 138.897 82.426 138.924 82.3828C138.95 82.3397 138.988 82.3046 139.033 82.2814C139.077 82.2533 139.127 82.2383 139.179 82.2383C139.231 82.2383 139.282 82.2533 139.325 82.2814C139.971 82.6066 140.516 83.1001 140.904 83.7097C141.292 84.3193 141.509 85.0224 141.53 85.7446V85.7563Z" fill="#111111"/>
<path d="M143.583 98C144.872 98 145.917 96.9559 145.917 95.6679C145.917 94.3799 144.872 93.3357 143.583 93.3357C142.295 93.3357 141.25 94.3799 141.25 95.6679C141.25 96.9559 142.295 98 143.583 98Z" fill="#111111"/>
<path d="M124.333 98C125.622 98 126.667 96.9559 126.667 95.6679C126.667 94.3799 125.622 93.3357 124.333 93.3357C123.045 93.3357 122 94.3799 122 95.6679C122 96.9559 123.045 98 124.333 98Z" fill="#111111"/>
</g>
</g>
<g id="Size=40px, Filled=true">
<g id="Vector_13">
<path d="M201.5 90.9616C201.5 90.3959 201.312 89.8461 200.966 89.398C200.621 88.9498 200.137 88.6284 199.59 88.4837L194.544 87.1719C194.342 87.1173 194.164 86.9977 194.038 86.8316C193.911 86.6656 193.843 86.4624 193.844 86.2536C193.846 84.9496 193.515 83.6666 192.882 82.5263C192.249 81.386 191.335 80.4263 190.227 79.7382L186.917 77.6684C186.797 77.6002 186.67 77.5463 186.538 77.5081C186.486 77.4992 186.437 77.4771 186.396 77.444C186.355 77.4108 186.324 77.3676 186.304 77.3186C185.804 76.269 185.017 75.3823 184.033 74.7608C183.05 74.1392 181.911 73.8082 180.748 73.8058H177.438C177.244 73.8058 177.059 73.8826 176.922 74.0193C176.785 74.156 176.708 74.3413 176.708 74.5346V94.5765C176.708 94.6731 176.67 94.7658 176.602 94.8341C176.533 94.9025 176.441 94.9409 176.344 94.9409H174.886C174.789 94.9409 174.696 94.9025 174.628 94.8341C174.559 94.7658 174.521 94.6731 174.521 94.5765V72.3483C174.566 71.2067 174.221 70.0839 173.542 69.1645C172.864 68.2452 171.892 67.5843 170.788 67.2904L167.39 66.5179C167.282 66.4935 167.169 66.4941 167.061 66.5196C166.953 66.5451 166.853 66.5949 166.767 66.6652C166.681 66.7354 166.613 66.8243 166.566 66.9251C166.52 67.0259 166.497 67.1359 166.5 67.2467V94.6056C166.498 94.6715 166.515 94.7365 166.549 94.7933C166.582 94.85 166.631 94.8961 166.69 94.9263C166.746 94.9627 166.812 94.982 166.879 94.982C166.947 94.982 167.012 94.9627 167.069 94.9263C167.765 94.4638 168.581 94.2155 169.417 94.2121C170.577 94.2121 171.69 94.6728 172.51 95.4928C173.331 96.3129 173.792 97.4251 173.792 98.5848C173.793 98.9244 173.749 99.2627 173.661 99.5906C173.636 99.6379 173.624 99.6904 173.624 99.7436C173.624 99.7968 173.636 99.8493 173.661 99.8967C173.692 99.9408 173.734 99.9769 173.782 100.002C173.83 100.028 173.883 100.041 173.938 100.042C185.458 100.042 188.083 100.042 188.827 100.042C188.936 100.025 189.035 99.9675 189.104 99.8821C189.125 99.8363 189.136 99.7866 189.136 99.7363C189.136 99.686 189.125 99.6363 189.104 99.5906C189.059 99.2568 189.059 98.9186 189.104 98.5848C189.104 97.4251 189.565 96.3129 190.386 95.4928C191.206 94.6728 192.319 94.2121 193.479 94.2121C194.64 94.2121 195.752 94.6728 196.573 95.4928C197.393 96.3129 197.854 97.4251 197.854 98.5848C197.853 98.6821 197.89 98.7761 197.956 98.8472C198.03 98.9102 198.122 98.9462 198.219 98.9492H200.421C200.707 98.9417 200.98 98.8237 201.181 98.6199C201.382 98.4161 201.496 98.1423 201.5 97.856V90.9616ZM182.542 81.8226C182.735 81.8226 182.921 81.8994 183.057 82.036C183.194 82.1727 183.271 82.3581 183.271 82.5514V86.9241C183.271 87.1174 183.194 87.3028 183.057 87.4395C182.921 87.5761 182.735 87.6529 182.542 87.6529H181.083C180.89 87.6529 180.705 87.5761 180.568 87.4395C180.431 87.3028 180.354 87.1174 180.354 86.9241V82.5514C180.354 82.3581 180.431 82.1727 180.568 82.036C180.705 81.8994 180.89 81.8226 181.083 81.8226H182.542ZM190.913 86.1953C190.917 86.2439 190.91 86.2928 190.892 86.3383C190.874 86.3838 190.846 86.4246 190.81 86.4577C190.778 86.4954 190.738 86.5253 190.692 86.5455C190.647 86.5657 190.598 86.5755 190.548 86.5743H187.967C187.87 86.5743 187.777 86.5359 187.709 86.4676C187.641 86.3992 187.602 86.3066 187.602 86.2099V82.1578C187.603 82.0944 187.621 82.0324 187.655 81.9785C187.688 81.9246 187.735 81.8808 187.792 81.8517C187.846 81.8166 187.909 81.7979 187.974 81.7979C188.039 81.7979 188.102 81.8166 188.156 81.8517C188.963 82.2583 189.645 82.8752 190.13 83.6371C190.616 84.3991 190.886 85.278 190.913 86.1808V86.1953Z" fill="#111111"/>
<path d="M193.479 101.5C195.09 101.5 196.396 100.195 196.396 98.5848C196.396 96.9748 195.09 95.6697 193.479 95.6697C191.868 95.6697 190.563 96.9748 190.563 98.5848C190.563 100.195 191.868 101.5 193.479 101.5Z" fill="#111111"/>
<path d="M169.417 101.5C171.028 101.5 172.334 100.195 172.334 98.5848C172.334 96.9748 171.028 95.6697 169.417 95.6697C167.806 95.6697 166.5 96.9748 166.5 98.5848C166.5 100.195 167.806 101.5 169.417 101.5Z" fill="#111111"/>
</g>
</g>
<g id="Size=48px, Filled=true">
<g id="Vector_14">
<path d="M261 92.354C260.999 91.675 260.774 91.0154 260.36 90.4776C259.945 89.9398 259.364 89.5541 258.708 89.3805L252.653 87.8063C252.411 87.7408 252.197 87.5972 252.045 87.398C251.893 87.1987 251.812 86.9549 251.813 86.7044C251.816 85.1395 251.419 83.5999 250.659 82.2315C249.899 80.8632 248.803 79.7115 247.473 78.8859L243.5 76.4021C243.357 76.3202 243.204 76.2556 243.045 76.2097C242.983 76.1991 242.924 76.1726 242.875 76.1327C242.826 76.0929 242.788 76.0411 242.765 75.9824C242.164 74.7229 241.22 73.6588 240.04 72.9129C238.86 72.167 237.494 71.7698 236.098 71.767H232.125C231.893 71.767 231.671 71.8592 231.506 72.0232C231.342 72.1872 231.25 72.4096 231.25 72.6416V96.6918C231.25 96.8077 231.204 96.9189 231.122 97.001C231.04 97.083 230.929 97.129 230.813 97.129H229.063C228.947 97.129 228.835 97.083 228.753 97.001C228.671 96.9189 228.625 96.8077 228.625 96.6918V70.0179C228.679 68.6481 228.265 67.3006 227.451 66.1975C226.637 65.0943 225.471 64.3011 224.145 63.9485L220.068 63.0215C219.938 62.9922 219.803 62.9929 219.674 63.0235C219.544 63.0541 219.423 63.1138 219.32 63.1982C219.217 63.2825 219.135 63.3892 219.08 63.5101C219.024 63.6311 218.997 63.763 219 63.896V96.7267C218.998 96.8058 219.018 96.8838 219.059 96.9519C219.099 97.02 219.157 97.0753 219.228 97.1115C219.296 97.1552 219.375 97.1785 219.455 97.1785C219.536 97.1785 219.615 97.1552 219.683 97.1115C220.518 96.5566 221.497 96.2586 222.5 96.2545C223.893 96.2545 225.228 96.8073 226.213 97.7914C227.197 98.7754 227.75 100.11 227.75 101.502C227.752 101.909 227.699 102.315 227.593 102.709C227.564 102.766 227.548 102.828 227.548 102.892C227.548 102.956 227.564 103.019 227.593 103.076C227.631 103.129 227.681 103.172 227.738 103.203C227.796 103.233 227.86 103.25 227.925 103.251C241.75 103.251 244.9 103.251 245.793 103.251C245.923 103.229 246.041 103.161 246.125 103.058C246.15 103.004 246.163 102.944 246.163 102.884C246.163 102.823 246.15 102.764 246.125 102.709C246.071 102.308 246.071 101.902 246.125 101.502C246.125 100.11 246.678 98.7754 247.663 97.7914C248.647 96.8073 249.983 96.2545 251.375 96.2545C252.767 96.2545 254.103 96.8073 255.087 97.7914C256.072 98.7754 256.625 100.11 256.625 101.502C256.624 101.619 256.668 101.731 256.748 101.817C256.835 101.892 256.947 101.935 257.063 101.939H259.705C260.049 101.93 260.375 101.788 260.617 101.544C260.858 101.299 260.996 100.971 261 100.627V92.354ZM238.25 81.3871C238.482 81.3871 238.705 81.4792 238.869 81.6432C239.033 81.8072 239.125 82.0297 239.125 82.2616V87.509C239.125 87.7409 239.033 87.9633 238.869 88.1274C238.705 88.2914 238.482 88.3835 238.25 88.3835H236.5C236.268 88.3835 236.046 88.2914 235.881 88.1274C235.717 87.9633 235.625 87.7409 235.625 87.509V82.2616C235.625 82.0297 235.717 81.8072 235.881 81.6432C236.046 81.4792 236.268 81.3871 236.5 81.3871H238.25ZM248.295 86.6344C248.3 86.6927 248.291 86.7514 248.27 86.806C248.249 86.8605 248.216 86.9095 248.173 86.9492C248.134 86.9944 248.085 87.0304 248.031 87.0546C247.976 87.0788 247.917 87.0906 247.858 87.0892H244.76C244.644 87.0892 244.533 87.0431 244.451 86.9611C244.369 86.8791 244.323 86.7679 244.323 86.6519V81.7894C244.324 81.7133 244.345 81.6389 244.385 81.5742C244.426 81.5095 244.482 81.4569 244.55 81.4221C244.615 81.3799 244.691 81.3575 244.769 81.3575C244.846 81.3575 244.922 81.3799 244.988 81.4221C245.956 81.91 246.774 82.6502 247.357 83.5646C247.939 84.479 248.263 85.5336 248.295 86.6169V86.6344Z" fill="#111111"/>
<path d="M251.375 105C253.308 105 254.875 103.434 254.875 101.502C254.875 99.5698 253.308 98.0036 251.375 98.0036C249.442 98.0036 247.875 99.5698 247.875 101.502C247.875 103.434 249.442 105 251.375 105Z" fill="#111111"/>
<path d="M222.5 105C224.433 105 226 103.434 226 101.502C226 99.5698 224.433 98.0036 222.5 98.0036C220.567 98.0036 219 99.5698 219 101.502C219 103.434 220.567 105 222.5 105Z" fill="#111111"/>
</g>
</g>
</g>
</g>
<defs>
<clipPath id="clip0_1126_874">
<rect width="264" height="108" rx="5" fill="white"/>
</clipPath>
</defs>
</svg>
