<svg width="264" height="108" viewBox="0 0 264 108" fill="none" xmlns="http://www.w3.org/2000/svg">
<g id="Truck washing">
<g clip-path="url(#clip0_7887_244)">
<g id="Size=12px, Filled=false">
<path id="Vector" d="M2.75002 28.25V28.75C2.75002 28.8826 2.80269 29.0098 2.89646 29.1035C2.99023 29.1973 3.11741 29.25 3.25002 29.25C3.38262 29.25 3.5098 29.1973 3.60357 29.1035C3.69734 29.0098 3.75002 28.8826 3.75002 28.75V28.25M2.75002 28.25C2.61741 28.25 2.49021 28.1973 2.39645 28.1036C2.30268 28.0098 2.25 27.8826 2.25 27.75V26.75C2.25 26.4848 2.35536 26.2304 2.54289 26.0429C2.73043 25.8554 2.98478 25.75 3.25 25.75H3.75V22.75M2.75002 28.25H9.25M2.25 27.2499H3.75M9.25 28.25V28.75C9.25 28.8826 9.19732 29.0098 9.10355 29.1035C9.00979 29.1973 8.88261 29.25 8.75 29.25C8.61739 29.25 8.49022 29.1973 8.39645 29.1035C8.30268 29.0098 8.25 28.8826 8.25 28.75V28.25M9.25 28.25C9.38261 28.25 9.50979 28.1973 9.60355 28.1036C9.69732 28.0098 9.75 27.8826 9.75 27.75V26.75C9.75 26.4848 9.64464 26.2304 9.45711 26.0429C9.26957 25.8554 9.01522 25.75 8.75 25.75H8.25V22.75M8.25 22.75C8.25 22.4848 8.14464 22.2304 7.95711 22.0429C7.76957 21.8554 7.51522 21.75 7.25 21.75H4.75C4.48478 21.75 4.23043 21.8554 4.04289 22.0429C3.85536 22.2304 3.75 22.4848 3.75 22.75M8.25 22.75H3.75M8.25 22.75V24.7499H3.75V22.75M9.75 27.2499H8.25M2.25 23.25C2.38261 23.25 2.50979 23.3 2.60355 23.389C2.69732 23.4781 2.75 23.5988 2.75 23.7247V25.75M9.75003 23.25C9.61742 23.25 9.49025 23.3 9.39648 23.389C9.30271 23.4781 9.25003 23.5988 9.25003 23.7247V25.75M6.87471 27.0789C6.85668 27.1287 6.82215 27.172 6.77598 27.2027C6.72982 27.2334 6.67437 27.2499 6.61748 27.2499H5.38259C5.32569 27.2499 5.27024 27.2334 5.22408 27.2027C5.17792 27.172 5.14338 27.1287 5.12535 27.0789L4.76406 26.0789C4.7504 26.0413 4.74665 26.0013 4.7531 25.9621C4.75956 25.9229 4.77603 25.8857 4.80117 25.8535C4.82631 25.8214 4.85939 25.7952 4.89767 25.7772C4.93595 25.7592 4.97832 25.7498 5.02129 25.7499H6.97877C7.02174 25.7498 7.06411 25.7592 7.10239 25.7772C7.14067 25.7952 7.17375 25.8214 7.19889 25.8535C7.22403 25.8857 7.24051 25.9229 7.24696 25.9621C7.25341 26.0013 7.24966 26.0413 7.23601 26.0789L6.87471 27.0789ZM3.375 18.9375C3.375 19.0411 3.29105 19.125 3.1875 19.125C3.08395 19.125 3 19.0411 3 18.9375C3 18.8339 3.08395 18.75 3.1875 18.75C3.29105 18.75 3.375 18.8339 3.375 18.9375ZM5.21251 18.9375C5.21251 19.0411 5.12856 19.125 5.02501 19.125C4.92146 19.125 4.83751 19.0411 4.83751 18.9375C4.83751 18.8339 4.92146 18.75 5.02501 18.75C5.12856 18.75 5.21251 18.8339 5.21251 18.9375ZM4.3125 20.25C4.3125 20.3536 4.22855 20.4375 4.125 20.4375C4.02145 20.4375 3.9375 20.3536 3.9375 20.25C3.9375 20.1464 4.02145 20.0625 4.125 20.0625C4.22855 20.0625 4.3125 20.1464 4.3125 20.25ZM2.625 21.1875C2.625 21.2911 2.54105 21.375 2.4375 21.375C2.33395 21.375 2.25 21.2911 2.25 21.1875C2.25 21.0839 2.33395 21 2.4375 21C2.54105 21 2.625 21.0839 2.625 21.1875ZM9.75 21.1875C9.75 21.2911 9.66605 21.375 9.5625 21.375C9.45895 21.375 9.375 21.2911 9.375 21.1875C9.375 21.0839 9.45895 21 9.5625 21C9.66605 21 9.75 21.0839 9.75 21.1875ZM7.1625 18.9375C7.1625 19.0411 7.07855 19.125 6.975 19.125C6.87145 19.125 6.7875 19.0411 6.7875 18.9375C6.7875 18.8339 6.87145 18.75 6.975 18.75C7.07855 18.75 7.1625 18.8339 7.1625 18.9375ZM6.1875 20.25C6.1875 20.3536 6.10355 20.4375 6 20.4375C5.89645 20.4375 5.8125 20.3536 5.8125 20.25C5.8125 20.1464 5.89645 20.0625 6 20.0625C6.10355 20.0625 6.1875 20.1464 6.1875 20.25ZM9 18.9375C9 19.0411 8.91605 19.125 8.8125 19.125C8.70895 19.125 8.625 19.0411 8.625 18.9375C8.625 18.8339 8.70895 18.75 8.8125 18.75C8.91605 18.75 9 18.8339 9 18.9375ZM8.0625 20.25C8.0625 20.3536 7.97855 20.4375 7.875 20.4375C7.77145 20.4375 7.6875 20.3536 7.6875 20.25C7.6875 20.1464 7.77145 20.0625 7.875 20.0625C7.97855 20.0625 8.0625 20.1464 8.0625 20.25Z" stroke="#111111" stroke-width="0.75" stroke-linecap="round" stroke-linejoin="round"/>
</g>
<g id="Size=16px, Filled=false">
<path id="Vector_2" d="M27.6667 29.6666V30.3333C27.6667 30.5101 27.7369 30.6797 27.8619 30.8047C27.987 30.9297 28.1565 31 28.3334 31C28.5102 31 28.6797 30.9297 28.8048 30.8047C28.9298 30.6797 29 30.5101 29 30.3333V29.6666M27.6667 29.6666C27.4899 29.6666 27.3203 29.5964 27.1953 29.4714C27.0702 29.3464 27 29.1768 27 29V27.6667C27 27.313 27.1405 26.9739 27.3905 26.7239C27.6406 26.4738 27.9797 26.3333 28.3333 26.3333H29V22.3333M27.6667 29.6666H36.3333M27 28.3333H29M36.3333 29.6666V30.3333C36.3333 30.5101 36.2631 30.6797 36.1381 30.8047C36.013 30.9297 35.8435 31 35.6667 31C35.4899 31 35.3203 30.9297 35.1953 30.8047C35.0702 30.6797 35 30.5101 35 30.3333V29.6666M36.3333 29.6666C36.5101 29.6666 36.6797 29.5964 36.8047 29.4714C36.9298 29.3464 37 29.1768 37 29V27.6667C37 27.313 36.8595 26.9739 36.6095 26.7239C36.3594 26.4738 36.0203 26.3333 35.6667 26.3333H35V22.3333M35 22.3333C35 21.9797 34.8595 21.6406 34.6095 21.3905C34.3594 21.1405 34.0203 21 33.6667 21H30.3333C29.9797 21 29.6406 21.1405 29.3905 21.3905C29.1405 21.6406 29 21.9797 29 22.3333M35 22.3333H29M35 22.3333V24.9999H29V22.3333M37 28.3333H35M27 23C27.1768 23 27.3464 23.0667 27.4714 23.1854C27.5964 23.3041 27.6667 23.4651 27.6667 23.6329V26.3333M37 23C36.8232 23 36.6537 23.0667 36.5286 23.1854C36.4036 23.3041 36.3334 23.4651 36.3334 23.6329V26.3333M33.1663 28.1053C33.1422 28.1716 33.0962 28.2294 33.0346 28.2703C32.9731 28.3112 32.8992 28.3332 32.8233 28.3333H31.1768C31.1009 28.3332 31.027 28.3112 30.9654 28.2703C30.9039 28.2294 30.8578 28.1716 30.8338 28.1053L30.3521 26.7719C30.3339 26.7218 30.3289 26.6684 30.3375 26.6161C30.3461 26.5639 30.368 26.5143 30.4016 26.4714C30.4351 26.4285 30.4792 26.3936 30.5302 26.3696C30.5813 26.3456 30.6378 26.3331 30.6951 26.3333H33.305C33.3623 26.3331 33.4188 26.3456 33.4699 26.3696C33.5209 26.3936 33.565 26.4285 33.5985 26.4714C33.632 26.5143 33.654 26.5639 33.6626 26.6161C33.6712 26.6684 33.6662 26.7218 33.648 26.7719L33.1663 28.1053ZM28.5 17.25C28.5 17.3881 28.3881 17.5 28.25 17.5C28.1119 17.5 28 17.3881 28 17.25C28 17.1119 28.1119 17 28.25 17C28.3881 17 28.5 17.1119 28.5 17.25ZM30.95 17.25C30.95 17.3881 30.8381 17.5 30.7 17.5C30.5619 17.5 30.45 17.3881 30.45 17.25C30.45 17.1119 30.5619 17 30.7 17C30.8381 17 30.95 17.1119 30.95 17.25ZM29.75 19C29.75 19.1381 29.6381 19.25 29.5 19.25C29.3619 19.25 29.25 19.1381 29.25 19C29.25 18.8619 29.3619 18.75 29.5 18.75C29.6381 18.75 29.75 18.8619 29.75 19ZM27.5 20.25C27.5 20.3881 27.3881 20.5 27.25 20.5C27.1119 20.5 27 20.3881 27 20.25C27 20.1119 27.1119 20 27.25 20C27.3881 20 27.5 20.1119 27.5 20.25ZM37 20.25C37 20.3881 36.8881 20.5 36.75 20.5C36.6119 20.5 36.5 20.3881 36.5 20.25C36.5 20.1119 36.6119 20 36.75 20C36.8881 20 37 20.1119 37 20.25ZM33.55 17.25C33.55 17.3881 33.4381 17.5 33.3 17.5C33.1619 17.5 33.05 17.3881 33.05 17.25C33.05 17.1119 33.1619 17 33.3 17C33.4381 17 33.55 17.1119 33.55 17.25ZM32.25 19C32.25 19.1381 32.1381 19.25 32 19.25C31.8619 19.25 31.75 19.1381 31.75 19C31.75 18.8619 31.8619 18.75 32 18.75C32.1381 18.75 32.25 18.8619 32.25 19ZM36 17.25C36 17.3881 35.8881 17.5 35.75 17.5C35.6119 17.5 35.5 17.3881 35.5 17.25C35.5 17.1119 35.6119 17 35.75 17C35.8881 17 36 17.1119 36 17.25ZM34.75 19C34.75 19.1381 34.6381 19.25 34.5 19.25C34.3619 19.25 34.25 19.1381 34.25 19C34.25 18.8619 34.3619 18.75 34.5 18.75C34.6381 18.75 34.75 18.8619 34.75 19Z" stroke="#111111" stroke-linecap="round" stroke-linejoin="round"/>
</g>
<g id="Size=20px, Filled=false">
<path id="Vector_3" d="M56.5834 31.0833V31.9166C56.5834 32.1376 56.6712 32.3496 56.8274 32.5059C56.9837 32.6622 57.1957 32.7499 57.4167 32.7499C57.6377 32.7499 57.8497 32.6622 58.0059 32.5059C58.1622 32.3496 58.25 32.1376 58.25 31.9166V31.0833M56.5834 31.0833C56.3623 31.0833 56.1504 30.9955 55.9941 30.8393C55.8378 30.683 55.75 30.471 55.75 30.25V28.5833C55.75 28.1413 55.9256 27.7174 56.2382 27.4048C56.5507 27.0923 56.9746 26.9167 57.4167 26.9167H58.25V21.9167M56.5834 31.0833H67.4167M55.75 29.4166H58.25M67.4167 31.0833V31.9166C67.4167 32.1376 67.3289 32.3496 67.1726 32.5059C67.0163 32.6622 66.8043 32.7499 66.5833 32.7499C66.3623 32.7499 66.1504 32.6622 65.9941 32.5059C65.8378 32.3496 65.75 32.1376 65.75 31.9166V31.0833M67.4167 31.0833C67.6377 31.0833 67.8496 30.9955 68.0059 30.8393C68.1622 30.683 68.25 30.471 68.25 30.25V28.5833C68.25 28.1413 68.0744 27.7174 67.7618 27.4048C67.4493 27.0923 67.0254 26.9167 66.5833 26.9167H65.75V21.9167M65.75 21.9167C65.75 21.4746 65.5744 21.0507 65.2618 20.7382C64.9493 20.4256 64.5254 20.25 64.0833 20.25H59.9167C59.4746 20.25 59.0507 20.4256 58.7382 20.7382C58.4256 21.0507 58.25 21.4746 58.25 21.9167M65.75 21.9167H58.25M65.75 21.9167V25.2499H58.25V21.9167M68.25 29.4166H65.75M55.75 22.75C55.971 22.75 56.183 22.8334 56.3393 22.9817C56.4955 23.1301 56.5833 23.3313 56.5833 23.5411V26.9167M68.2501 22.75C68.029 22.75 67.8171 22.8334 67.6608 22.9817C67.5045 23.1301 67.4167 23.3313 67.4167 23.5411V26.9167M63.4579 29.1316C63.4278 29.2145 63.3702 29.2867 63.2933 29.3379C63.2164 29.389 63.124 29.4165 63.0291 29.4166H60.971C60.8761 29.4165 60.7837 29.389 60.7068 29.3379C60.6299 29.2867 60.5723 29.2145 60.5422 29.1316L59.9401 27.4649C59.9173 27.4022 59.9111 27.3355 59.9218 27.2702C59.9326 27.2048 59.9601 27.1428 60.002 27.0892C60.0439 27.0356 60.099 26.992 60.1628 26.962C60.2266 26.932 60.2972 26.9164 60.3688 26.9166H63.6313C63.7029 26.9164 63.7735 26.932 63.8373 26.962C63.9011 26.992 63.9562 27.0356 63.9981 27.0892C64.04 27.1428 64.0675 27.2048 64.0783 27.2702C64.089 27.3355 64.0828 27.4022 64.06 27.4649L63.4579 29.1316ZM57.625 15.5625C57.625 15.7351 57.4851 15.875 57.3125 15.875C57.1399 15.875 57 15.7351 57 15.5625C57 15.3899 57.1399 15.25 57.3125 15.25C57.4851 15.25 57.625 15.3899 57.625 15.5625ZM60.6875 15.5625C60.6875 15.7351 60.5476 15.875 60.375 15.875C60.2024 15.875 60.0625 15.7351 60.0625 15.5625C60.0625 15.3899 60.2024 15.25 60.375 15.25C60.5476 15.25 60.6875 15.3899 60.6875 15.5625ZM59.1875 17.75C59.1875 17.9226 59.0476 18.0625 58.875 18.0625C58.7024 18.0625 58.5625 17.9226 58.5625 17.75C58.5625 17.5774 58.7024 17.4375 58.875 17.4375C59.0476 17.4375 59.1875 17.5774 59.1875 17.75ZM56.375 19.3125C56.375 19.4851 56.2351 19.625 56.0625 19.625C55.8899 19.625 55.75 19.4851 55.75 19.3125C55.75 19.1399 55.8899 19 56.0625 19C56.2351 19 56.375 19.1399 56.375 19.3125ZM68.25 19.3125C68.25 19.4851 68.1101 19.625 67.9375 19.625C67.7649 19.625 67.625 19.4851 67.625 19.3125C67.625 19.1399 67.7649 19 67.9375 19C68.1101 19 68.25 19.1399 68.25 19.3125ZM63.9375 15.5625C63.9375 15.7351 63.7976 15.875 63.625 15.875C63.4524 15.875 63.3125 15.7351 63.3125 15.5625C63.3125 15.3899 63.4524 15.25 63.625 15.25C63.7976 15.25 63.9375 15.3899 63.9375 15.5625ZM62.3125 17.75C62.3125 17.9226 62.1726 18.0625 62 18.0625C61.8274 18.0625 61.6875 17.9226 61.6875 17.75C61.6875 17.5774 61.8274 17.4375 62 17.4375C62.1726 17.4375 62.3125 17.5774 62.3125 17.75ZM67 15.5625C67 15.7351 66.8601 15.875 66.6875 15.875C66.5149 15.875 66.375 15.7351 66.375 15.5625C66.375 15.3899 66.5149 15.25 66.6875 15.25C66.8601 15.25 67 15.3899 67 15.5625ZM65.4375 17.75C65.4375 17.9226 65.2976 18.0625 65.125 18.0625C64.9524 18.0625 64.8125 17.9226 64.8125 17.75C64.8125 17.5774 64.9524 17.4375 65.125 17.4375C65.2976 17.4375 65.4375 17.5774 65.4375 17.75Z" stroke="#111111" stroke-width="1.25" stroke-linecap="round" stroke-linejoin="round"/>
</g>
<g id="Size=24px, Filled=false">
<path id="Vector_4" d="M89.5 32.4999V33.4999C89.5 33.7652 89.6054 34.0195 89.7929 34.207C89.9805 34.3946 90.2348 34.4999 90.5 34.4999C90.7652 34.4999 91.0196 34.3946 91.2071 34.207C91.3947 34.0195 91.5 33.7652 91.5 33.4999V32.4999M89.5 32.4999C89.2348 32.4999 88.9804 32.3946 88.7929 32.2071C88.6054 32.0196 88.5 31.7652 88.5 31.5V29.5C88.5 28.9696 88.7107 28.4609 89.0858 28.0858C89.4609 27.7107 89.9696 27.5 90.5 27.5H91.5V21.5M89.5 32.4999H102.5M88.5 30.4999H91.5M102.5 32.4999V33.4999C102.5 33.7652 102.395 34.0195 102.207 34.207C102.02 34.3946 101.765 34.4999 101.5 34.4999C101.235 34.4999 100.98 34.3946 100.793 34.207C100.605 34.0195 100.5 33.7652 100.5 33.4999V32.4999M102.5 32.4999C102.765 32.4999 103.02 32.3946 103.207 32.2071C103.395 32.0196 103.5 31.7652 103.5 31.5V29.5C103.5 28.9696 103.289 28.4609 102.914 28.0858C102.539 27.7107 102.03 27.5 101.5 27.5H100.5V21.5M100.5 21.5C100.5 20.9696 100.289 20.4609 99.9142 20.0858C99.5391 19.7107 99.0304 19.5 98.5 19.5H93.5C92.9696 19.5 92.4609 19.7107 92.0858 20.0858C91.7107 20.4609 91.5 20.9696 91.5 21.5M100.5 21.5H91.5M100.5 21.5V25.4999H91.5V21.5M103.5 30.4999H100.5M88.5 22.5C88.7652 22.5 89.0196 22.6 89.2071 22.7781C89.3946 22.9561 89.5 23.1976 89.5 23.4494V27.5M103.5 22.5C103.235 22.5 102.98 22.6 102.793 22.7781C102.605 22.9561 102.5 23.1976 102.5 23.4494V27.5M97.7494 30.1579C97.7134 30.2575 97.6443 30.344 97.552 30.4054C97.4596 30.4668 97.3487 30.4998 97.235 30.4999H94.7652C94.6514 30.4998 94.5405 30.4668 94.4482 30.4054C94.3558 30.344 94.2868 30.2575 94.2507 30.1579L93.5281 28.1579C93.5008 28.0827 93.4933 28.0026 93.5062 27.9242C93.5191 27.8458 93.5521 27.7714 93.6023 27.7071C93.6526 27.6428 93.7188 27.5904 93.7953 27.5544C93.8719 27.5184 93.9566 27.4997 94.0426 27.4999H97.9575C98.0435 27.4997 98.1282 27.5184 98.2048 27.5544C98.2813 27.5904 98.3475 27.6428 98.3978 27.7071C98.4481 27.7714 98.481 27.8458 98.4939 27.9242C98.5068 28.0026 98.4993 28.0827 98.472 28.1579L97.7494 30.1579ZM90.75 13.875C90.75 14.0821 90.5821 14.25 90.375 14.25C90.1679 14.25 90 14.0821 90 13.875C90 13.6679 90.1679 13.5 90.375 13.5C90.5821 13.5 90.75 13.6679 90.75 13.875ZM94.425 13.875C94.425 14.0821 94.2571 14.25 94.05 14.25C93.8429 14.25 93.675 14.0821 93.675 13.875C93.675 13.6679 93.8429 13.5 94.05 13.5C94.2571 13.5 94.425 13.6679 94.425 13.875ZM92.625 16.5C92.625 16.7071 92.4571 16.875 92.25 16.875C92.0429 16.875 91.875 16.7071 91.875 16.5C91.875 16.2929 92.0429 16.125 92.25 16.125C92.4571 16.125 92.625 16.2929 92.625 16.5ZM89.25 18.375C89.25 18.5821 89.0821 18.75 88.875 18.75C88.6679 18.75 88.5 18.5821 88.5 18.375C88.5 18.1679 88.6679 18 88.875 18C89.0821 18 89.25 18.1679 89.25 18.375ZM103.5 18.375C103.5 18.5821 103.332 18.75 103.125 18.75C102.918 18.75 102.75 18.5821 102.75 18.375C102.75 18.1679 102.918 18 103.125 18C103.332 18 103.5 18.1679 103.5 18.375ZM98.325 13.875C98.325 14.0821 98.1571 14.25 97.95 14.25C97.7429 14.25 97.575 14.0821 97.575 13.875C97.575 13.6679 97.7429 13.5 97.95 13.5C98.1571 13.5 98.325 13.6679 98.325 13.875ZM96.375 16.5C96.375 16.7071 96.2071 16.875 96 16.875C95.7929 16.875 95.625 16.7071 95.625 16.5C95.625 16.2929 95.7929 16.125 96 16.125C96.2071 16.125 96.375 16.2929 96.375 16.5ZM102 13.875C102 14.0821 101.832 14.25 101.625 14.25C101.418 14.25 101.25 14.0821 101.25 13.875C101.25 13.6679 101.418 13.5 101.625 13.5C101.832 13.5 102 13.6679 102 13.875ZM100.125 16.5C100.125 16.7071 99.9571 16.875 99.75 16.875C99.5429 16.875 99.375 16.7071 99.375 16.5C99.375 16.2929 99.5429 16.125 99.75 16.125C99.9571 16.125 100.125 16.2929 100.125 16.5Z" stroke="#111111" stroke-width="1.5" stroke-linecap="round" stroke-linejoin="round"/>
</g>
<g id="Size=32px, Filled=false">
<path id="Vector_5" d="M127.333 35.3333V36.6666C127.333 37.0202 127.474 37.3593 127.724 37.6094C127.974 37.8594 128.313 37.9999 128.667 37.9999C129.02 37.9999 129.359 37.8594 129.61 37.6094C129.86 37.3593 130 37.0202 130 36.6666V35.3333M127.333 35.3333C126.98 35.3333 126.641 35.1929 126.391 34.9428C126.14 34.6928 126 34.3536 126 34V31.3333C126 30.6261 126.281 29.9478 126.781 29.4477C127.281 28.9476 127.959 28.6667 128.667 28.6667H130V20.6667M127.333 35.3333H144.667M126 32.6665H130M144.667 35.3333V36.6666C144.667 37.0202 144.526 37.3593 144.276 37.6094C144.026 37.8594 143.687 37.9999 143.333 37.9999C142.98 37.9999 142.641 37.8594 142.391 37.6094C142.14 37.3593 142 37.0202 142 36.6666V35.3333M144.667 35.3333C145.02 35.3333 145.359 35.1929 145.609 34.9428C145.86 34.6928 146 34.3536 146 34V31.3333C146 30.6261 145.719 29.9478 145.219 29.4477C144.719 28.9476 144.041 28.6667 143.333 28.6667H142V20.6667M142 20.6667C142 19.9594 141.719 19.2811 141.219 18.781C140.719 18.281 140.041 18 139.333 18H132.667C131.959 18 131.281 18.281 130.781 18.781C130.281 19.2811 130 19.9594 130 20.6667M142 20.6667H130M142 20.6667V25.9998H130V20.6667M146 32.6665H142M126 22C126.354 22 126.693 22.1334 126.943 22.3708C127.193 22.6081 127.333 22.9301 127.333 23.2658V28.6667M146 22C145.646 22 145.307 22.1334 145.057 22.3708C144.807 22.6081 144.667 22.9301 144.667 23.2658V28.6667M138.333 32.2105C138.284 32.3433 138.192 32.4587 138.069 32.5406C137.946 32.6224 137.798 32.6664 137.647 32.6665H134.354C134.202 32.6664 134.054 32.6224 133.931 32.5406C133.808 32.4587 133.716 32.3433 133.668 32.2105L132.704 29.5438C132.668 29.4436 132.658 29.3368 132.675 29.2323C132.692 29.1278 132.736 29.0285 132.803 28.9428C132.87 28.857 132.958 28.7873 133.06 28.7392C133.163 28.6912 133.276 28.6662 133.39 28.6665H138.61C138.725 28.6662 138.838 28.6912 138.94 28.7392C139.042 28.7873 139.13 28.857 139.197 28.9428C139.264 29.0285 139.308 29.1278 139.325 29.2323C139.342 29.3368 139.332 29.4436 139.296 29.5438L138.333 32.2105ZM129 10.5C129 10.7761 128.776 11 128.5 11C128.224 11 128 10.7761 128 10.5C128 10.2239 128.224 10 128.5 10C128.776 10 129 10.2239 129 10.5ZM133.9 10.5C133.9 10.7761 133.676 11 133.4 11C133.124 11 132.9 10.7761 132.9 10.5C132.9 10.2239 133.124 10 133.4 10C133.676 10 133.9 10.2239 133.9 10.5ZM131.5 14C131.5 14.2761 131.276 14.5 131 14.5C130.724 14.5 130.5 14.2761 130.5 14C130.5 13.7239 130.724 13.5 131 13.5C131.276 13.5 131.5 13.7239 131.5 14ZM127 16.5C127 16.7761 126.776 17 126.5 17C126.224 17 126 16.7761 126 16.5C126 16.2239 126.224 16 126.5 16C126.776 16 127 16.2239 127 16.5ZM146 16.5C146 16.7761 145.776 17 145.5 17C145.224 17 145 16.7761 145 16.5C145 16.2239 145.224 16 145.5 16C145.776 16 146 16.2239 146 16.5ZM139.1 10.5C139.1 10.7761 138.876 11 138.6 11C138.324 11 138.1 10.7761 138.1 10.5C138.1 10.2239 138.324 10 138.6 10C138.876 10 139.1 10.2239 139.1 10.5ZM136.5 14C136.5 14.2761 136.276 14.5 136 14.5C135.724 14.5 135.5 14.2761 135.5 14C135.5 13.7239 135.724 13.5 136 13.5C136.276 13.5 136.5 13.7239 136.5 14ZM144 10.5C144 10.7761 143.776 11 143.5 11C143.224 11 143 10.7761 143 10.5C143 10.2239 143.224 10 143.5 10C143.776 10 144 10.2239 144 10.5ZM141.5 14C141.5 14.2761 141.276 14.5 141 14.5C140.724 14.5 140.5 14.2761 140.5 14C140.5 13.7239 140.724 13.5 141 13.5C141.276 13.5 141.5 13.7239 141.5 14Z" stroke="#111111" stroke-width="2" stroke-linecap="round" stroke-linejoin="round"/>
</g>
<g id="Size=40px, Filled=false">
<path id="Vector_6" d="M173.167 38.1666V39.8332C173.167 40.2753 173.342 40.6992 173.655 41.0117C173.967 41.3243 174.391 41.4999 174.833 41.4999C175.275 41.4999 175.699 41.3243 176.012 41.0117C176.324 40.6992 176.5 40.2753 176.5 39.8332V38.1666M173.167 38.1666C172.725 38.1666 172.301 37.9911 171.988 37.6785C171.676 37.3659 171.5 36.942 171.5 36.5V33.1667C171.5 32.2826 171.851 31.4348 172.476 30.8096C173.101 30.1845 173.949 29.8333 174.833 29.8333H176.5V19.8333M173.167 38.1666H194.833M171.5 34.8331H176.5M194.833 38.1666V39.8332C194.833 40.2753 194.658 40.6992 194.345 41.0117C194.033 41.3243 193.609 41.4999 193.167 41.4999C192.725 41.4999 192.301 41.3243 191.988 41.0117C191.676 40.6992 191.5 40.2753 191.5 39.8332V38.1666M194.833 38.1666C195.275 38.1666 195.699 37.9911 196.012 37.6785C196.324 37.3659 196.5 36.942 196.5 36.5V33.1667C196.5 32.2826 196.149 31.4348 195.524 30.8096C194.899 30.1845 194.051 29.8333 193.167 29.8333H191.5V19.8333M191.5 19.8333C191.5 18.9493 191.149 18.1014 190.524 17.4763C189.899 16.8512 189.051 16.5 188.167 16.5H179.833C178.949 16.5 178.101 16.8512 177.476 17.4763C176.851 18.1014 176.5 18.9493 176.5 19.8333M191.5 19.8333H176.5M191.5 19.8333V26.4998H176.5V19.8333M196.5 34.8331H191.5M171.5 21.5C171.942 21.5 172.366 21.6667 172.679 21.9634C172.991 22.2602 173.167 22.6626 173.167 23.0823V29.8333M196.5 21.5C196.058 21.5 195.634 21.6667 195.322 21.9634C195.009 22.2602 194.833 22.6626 194.833 23.0823V29.8333M186.916 34.2631C186.856 34.4291 186.74 34.5734 186.587 34.6757C186.433 34.778 186.248 34.8331 186.058 34.8331H181.942C181.752 34.8331 181.567 34.778 181.414 34.6757C181.26 34.5734 181.145 34.4291 181.084 34.2631L179.88 30.9298C179.835 30.8045 179.822 30.671 179.844 30.5403C179.865 30.4097 179.92 30.2856 180.004 30.1785C180.088 30.0713 180.198 29.9841 180.326 29.924C180.453 29.864 180.594 29.8328 180.738 29.8331H187.263C187.406 29.8328 187.547 29.864 187.675 29.924C187.802 29.9841 187.912 30.0713 187.996 30.1785C188.08 30.2856 188.135 30.4097 188.157 30.5403C188.178 30.671 188.166 30.8045 188.12 30.9298L186.916 34.2631ZM175.25 7.125C175.25 7.47018 174.97 7.75 174.625 7.75C174.28 7.75 174 7.47018 174 7.125C174 6.77982 174.28 6.5 174.625 6.5C174.97 6.5 175.25 6.77982 175.25 7.125ZM181.375 7.125C181.375 7.47018 181.095 7.75 180.75 7.75C180.405 7.75 180.125 7.47018 180.125 7.125C180.125 6.77982 180.405 6.5 180.75 6.5C181.095 6.5 181.375 6.77982 181.375 7.125ZM178.375 11.5C178.375 11.8452 178.095 12.125 177.75 12.125C177.405 12.125 177.125 11.8452 177.125 11.5C177.125 11.1548 177.405 10.875 177.75 10.875C178.095 10.875 178.375 11.1548 178.375 11.5ZM172.75 14.625C172.75 14.9702 172.47 15.25 172.125 15.25C171.78 15.25 171.5 14.9702 171.5 14.625C171.5 14.2798 171.78 14 172.125 14C172.47 14 172.75 14.2798 172.75 14.625ZM196.5 14.625C196.5 14.9702 196.22 15.25 195.875 15.25C195.53 15.25 195.25 14.9702 195.25 14.625C195.25 14.2798 195.53 14 195.875 14C196.22 14 196.5 14.2798 196.5 14.625ZM187.875 7.125C187.875 7.47018 187.595 7.75 187.25 7.75C186.905 7.75 186.625 7.47018 186.625 7.125C186.625 6.77982 186.905 6.5 187.25 6.5C187.595 6.5 187.875 6.77982 187.875 7.125ZM184.625 11.5C184.625 11.8452 184.345 12.125 184 12.125C183.655 12.125 183.375 11.8452 183.375 11.5C183.375 11.1548 183.655 10.875 184 10.875C184.345 10.875 184.625 11.1548 184.625 11.5ZM194 7.125C194 7.47018 193.72 7.75 193.375 7.75C193.03 7.75 192.75 7.47018 192.75 7.125C192.75 6.77982 193.03 6.5 193.375 6.5C193.72 6.5 194 6.77982 194 7.125ZM190.875 11.5C190.875 11.8452 190.595 12.125 190.25 12.125C189.905 12.125 189.625 11.8452 189.625 11.5C189.625 11.1548 189.905 10.875 190.25 10.875C190.595 10.875 190.875 11.1548 190.875 11.5Z" stroke="#111111" stroke-width="2.5" stroke-linecap="round" stroke-linejoin="round"/>
</g>
<g id="Size=48px, Filled=false">
<path id="Vector_7" d="M227 40.9999V42.9999C227 43.5303 227.211 44.039 227.586 44.4141C227.961 44.7892 228.47 44.9999 229 44.9999C229.53 44.9999 230.039 44.7892 230.414 44.4141C230.789 44.039 231 43.5303 231 42.9999V40.9999M227 40.9999C226.47 40.9999 225.961 40.7893 225.586 40.4142C225.211 40.0391 225 39.5304 225 39V35C225 33.9391 225.421 32.9217 226.172 32.1716C226.922 31.4214 227.939 31 229 31H231V19M227 40.9999H253M225 36.9998H231M253 40.9999V42.9999C253 43.5303 252.789 44.039 252.414 44.4141C252.039 44.7892 251.53 44.9999 251 44.9999C250.47 44.9999 249.961 44.7892 249.586 44.4141C249.211 44.039 249 43.5303 249 42.9999V40.9999M253 40.9999C253.53 40.9999 254.039 40.7893 254.414 40.4142C254.789 40.0391 255 39.5304 255 39V35C255 33.9391 254.579 32.9217 253.828 32.1716C253.078 31.4214 252.061 31 251 31H249V19M249 19C249 17.9391 248.579 16.9217 247.828 16.1716C247.078 15.4214 246.061 15 245 15H235C233.939 15 232.922 15.4214 232.172 16.1716C231.421 16.9217 231 17.9391 231 19M249 19H231M249 19V26.9998H231V19M255 36.9998H249M225 21C225.53 21 226.039 21.2 226.414 21.5561C226.789 21.9122 227 22.3952 227 22.8987V31M255 21C254.47 21 253.961 21.2 253.586 21.5561C253.211 21.9122 253 22.3952 253 22.8987V31M243.499 36.3158C243.427 36.5149 243.289 36.6881 243.104 36.8108C242.919 36.9336 242.697 36.9997 242.47 36.9998H237.53C237.303 36.9997 237.081 36.9336 236.896 36.8108C236.712 36.6881 236.574 36.5149 236.501 36.3158L235.056 32.3158C235.002 32.1654 234.987 32.0052 235.012 31.8484C235.038 31.6916 235.104 31.5428 235.205 31.4142C235.305 31.2856 235.438 31.1809 235.591 31.1088C235.744 31.0368 235.913 30.9994 236.085 30.9998H243.915C244.087 30.9994 244.256 31.0368 244.41 31.1088C244.563 31.1809 244.695 31.2856 244.796 31.4142C244.896 31.5428 244.962 31.6916 244.988 31.8484C245.014 32.0052 244.999 32.1654 244.944 32.3158L243.499 36.3158ZM229.5 3.75C229.5 4.16421 229.164 4.5 228.75 4.5C228.336 4.5 228 4.16421 228 3.75C228 3.33579 228.336 3 228.75 3C229.164 3 229.5 3.33579 229.5 3.75ZM236.85 3.75C236.85 4.16421 236.514 4.5 236.1 4.5C235.686 4.5 235.35 4.16421 235.35 3.75C235.35 3.33579 235.686 3 236.1 3C236.514 3 236.85 3.33579 236.85 3.75ZM233.25 9C233.25 9.41421 232.914 9.75 232.5 9.75C232.086 9.75 231.75 9.41421 231.75 9C231.75 8.58579 232.086 8.25 232.5 8.25C232.914 8.25 233.25 8.58579 233.25 9ZM226.5 12.75C226.5 13.1642 226.164 13.5 225.75 13.5C225.336 13.5 225 13.1642 225 12.75C225 12.3358 225.336 12 225.75 12C226.164 12 226.5 12.3358 226.5 12.75ZM255 12.75C255 13.1642 254.664 13.5 254.25 13.5C253.836 13.5 253.5 13.1642 253.5 12.75C253.5 12.3358 253.836 12 254.25 12C254.664 12 255 12.3358 255 12.75ZM244.65 3.75C244.65 4.16421 244.314 4.5 243.9 4.5C243.486 4.5 243.15 4.16421 243.15 3.75C243.15 3.33579 243.486 3 243.9 3C244.314 3 244.65 3.33579 244.65 3.75ZM240.75 9C240.75 9.41421 240.414 9.75 240 9.75C239.586 9.75 239.25 9.41421 239.25 9C239.25 8.58579 239.586 8.25 240 8.25C240.414 8.25 240.75 8.58579 240.75 9ZM252 3.75C252 4.16421 251.664 4.5 251.25 4.5C250.836 4.5 250.5 4.16421 250.5 3.75C250.5 3.33579 250.836 3 251.25 3C251.664 3 252 3.33579 252 3.75ZM248.25 9C248.25 9.41421 247.914 9.75 247.5 9.75C247.086 9.75 246.75 9.41421 246.75 9C246.75 8.58579 247.086 8.25 247.5 8.25C247.914 8.25 248.25 8.58579 248.25 9Z" stroke="#111111" stroke-width="3" stroke-linecap="round" stroke-linejoin="round"/>
</g>
<g id="Size=12px, Filled=true">
<g id="Vector_8">
<path d="M3.31104 78.375C3.41275 78.375 3.5103 78.4154 3.58223 78.4873C3.65415 78.5593 3.69456 78.6568 3.69456 78.7585C3.69456 78.8602 3.65415 78.9578 3.58223 79.0297C3.5103 79.1016 3.41275 79.142 3.31104 79.142C3.20932 79.142 3.11177 79.1016 3.03984 79.0297C2.96792 78.9578 2.92751 78.8602 2.92751 78.7585C2.92751 78.6568 2.96792 78.5593 3.03984 78.4873C3.11177 78.4154 3.20932 78.375 3.31104 78.375Z" fill="#111111"/>
<path d="M5.10081 78.375C5.20252 78.375 5.30007 78.4154 5.372 78.4873C5.44392 78.5593 5.48433 78.6568 5.48433 78.7585C5.48433 78.8602 5.44392 78.9578 5.372 79.0297C5.30008 79.1016 5.20252 79.142 5.10081 79.142C4.99909 79.142 4.90154 79.1016 4.82962 79.0297C4.75769 78.9578 4.71728 78.8602 4.71728 78.7585C4.71728 78.6568 4.75769 78.5593 4.82962 78.4873C4.90154 78.4154 4.99909 78.375 5.10081 78.375Z" fill="#111111"/>
<path d="M6.6349 78.375C6.73662 78.375 6.83417 78.4154 6.90609 78.4873C6.97801 78.5593 7.01842 78.6568 7.01842 78.7585C7.01842 78.8602 6.97801 78.9578 6.90609 79.0297C6.83417 79.1016 6.73662 79.142 6.6349 79.142C6.53318 79.142 6.43563 79.1016 6.36371 79.0297C6.29178 78.9578 6.25138 78.8602 6.25138 78.7585C6.25138 78.6568 6.29178 78.5593 6.36371 78.4873C6.43563 78.4154 6.53318 78.375 6.6349 78.375Z" fill="#111111"/>
<path d="M8.42467 78.375C8.52639 78.375 8.62394 78.4154 8.69586 78.4873C8.76779 78.5593 8.80819 78.6568 8.80819 78.7585C8.80819 78.8602 8.76779 78.9578 8.69586 79.0297C8.62394 79.1016 8.52639 79.142 8.42467 79.142C8.32295 79.142 8.2254 79.1016 8.15348 79.0297C8.08155 78.9578 8.04115 78.8602 8.04115 78.7585C8.04115 78.6568 8.08155 78.5593 8.15348 78.4873C8.2254 78.4154 8.32295 78.375 8.42467 78.375Z" fill="#111111"/>
<path d="M2.28831 80.9318C2.39002 80.9318 2.48757 80.9722 2.5595 81.0441C2.63142 81.1161 2.67183 81.2136 2.67183 81.3153C2.67183 81.4171 2.63142 81.5146 2.5595 81.5865C2.48758 81.6585 2.39003 81.6989 2.28831 81.6989C2.18659 81.6989 2.08904 81.6585 2.01712 81.5865C1.94519 81.5146 1.90479 81.4171 1.90479 81.3153C1.90479 81.2136 1.94519 81.1161 2.01712 81.0441C2.08904 80.9722 2.18659 80.9318 2.28831 80.9318Z" fill="#111111"/>
<path d="M3.8224 79.9091C3.92411 79.9091 4.02167 79.9495 4.09359 80.0214C4.16552 80.0933 4.20592 80.1909 4.20592 80.2926C4.20592 80.3943 4.16551 80.4919 4.09359 80.5638C4.02167 80.6357 3.92412 80.6761 3.8224 80.6761C3.72068 80.6761 3.62313 80.6357 3.55121 80.5638C3.47928 80.4919 3.43888 80.3943 3.43888 80.2926C3.43888 80.1909 3.47928 80.0933 3.55121 80.0214C3.62313 79.9495 3.72068 79.9091 3.8224 79.9091Z" fill="#111111"/>
<path d="M5.86785 79.9091C5.96957 79.9091 6.06712 79.9495 6.13904 80.0214C6.21097 80.0933 6.25138 80.1909 6.25138 80.2926C6.25138 80.3943 6.21097 80.4919 6.13904 80.5638C6.06712 80.6357 5.96957 80.6761 5.86785 80.6761C5.76614 80.6761 5.66859 80.6357 5.59666 80.5638C5.52474 80.4919 5.48433 80.3943 5.48433 80.2926C5.48433 80.1909 5.52474 80.0933 5.59666 80.0214C5.66859 79.9495 5.76614 79.9091 5.86785 79.9091Z" fill="#111111"/>
<path d="M7.91331 79.9091C8.01502 79.9091 8.11257 79.9495 8.1845 80.0214C8.25642 80.0933 8.29683 80.1909 8.29683 80.2926C8.29683 80.3943 8.25642 80.4919 8.1845 80.5638C8.11258 80.6357 8.01502 80.6761 7.91331 80.6761C7.81159 80.6761 7.71404 80.6357 7.64212 80.5638C7.57019 80.4919 7.52978 80.3943 7.52978 80.2926C7.52978 80.1909 7.57019 80.0933 7.64212 80.0214C7.71404 79.9495 7.81159 79.9091 7.91331 79.9091Z" fill="#111111"/>
<path d="M9.4474 80.9318C9.54911 80.9318 9.64667 80.9722 9.71859 81.0441C9.79052 81.1161 9.83092 81.2136 9.83092 81.3153C9.83092 81.4171 9.79051 81.5146 9.71859 81.5865C9.64667 81.6585 9.54912 81.6989 9.4474 81.6989C9.34568 81.6989 9.24813 81.6585 9.17621 81.5865C9.10428 81.5146 9.06388 81.4171 9.06388 81.3153C9.06388 81.2136 9.10428 81.1161 9.17621 81.0441C9.24813 80.9722 9.34568 80.9318 9.4474 80.9318Z" fill="#111111"/>
<path fill-rule="evenodd" clip-rule="evenodd" d="M3.81331 81.8176C4.05306 81.5779 4.37823 81.4432 4.71729 81.4432H7.2741C7.61316 81.4432 7.93833 81.5779 8.17808 81.8176C8.41782 82.0574 8.55251 82.3825 8.55251 82.7216V85.5341H8.80819C8.89472 85.5341 8.98035 85.5429 9.06388 85.5599V83.7184C9.06388 83.5174 9.1481 83.3276 9.29329 83.1897C9.43804 83.0523 9.63165 82.9773 9.83092 82.9773C9.97213 82.9773 10.0866 83.0917 10.0866 83.233C10.0866 83.3742 9.97213 83.4886 9.83092 83.4886C9.75895 83.4886 9.69242 83.5159 9.64537 83.5606C9.59877 83.6048 9.57524 83.6619 9.57524 83.7184V85.7898C9.62336 85.8259 9.66914 85.8655 9.71217 85.9085C9.95191 86.1483 10.0866 86.4734 10.0866 86.8125V87.8352C10.0866 88.0387 10.0058 88.2338 9.86194 88.3776C9.78027 88.4593 9.68209 88.5206 9.57524 88.5584V88.858C9.57524 89.0614 9.49443 89.2565 9.35058 89.4003C9.20673 89.5442 9.01163 89.625 8.80819 89.625C8.60476 89.625 8.40966 89.5442 8.26581 89.4003C8.12196 89.2565 8.04115 89.0614 8.04115 88.858V88.6023H3.95024V88.858C3.95024 89.0614 3.86943 89.2565 3.72558 89.4003C3.58173 89.5442 3.38663 89.625 3.18319 89.625C2.97976 89.625 2.78466 89.5442 2.64081 89.4003C2.49696 89.2565 2.41615 89.0614 2.41615 88.858V88.5584C2.3093 88.5206 2.21111 88.4593 2.12945 88.3776C1.9856 88.2338 1.90479 88.0387 1.90479 87.8352V86.8125C1.90479 86.4734 2.03947 86.1483 2.27922 85.9085C2.32225 85.8655 2.36803 85.8259 2.41615 85.7898V83.7184C2.41615 83.6619 2.39262 83.6048 2.34602 83.5606C2.29897 83.5159 2.23244 83.4886 2.16047 83.4886C2.01926 83.4886 1.90479 83.3742 1.90479 83.233C1.90479 83.0917 2.01926 82.9773 2.16047 82.9773C2.35974 82.9773 2.55335 83.0523 2.69809 83.1897C2.84329 83.3276 2.92751 83.5174 2.92751 83.7184V85.5599C3.01104 85.5429 3.09667 85.5341 3.18319 85.5341H3.43888V82.7216C3.43888 82.3825 3.57357 82.0574 3.81331 81.8176ZM8.55251 88.6023V88.858C8.55251 88.9258 8.57945 88.9908 8.6274 89.0387C8.67535 89.0867 8.74038 89.1136 8.80819 89.1136C8.87601 89.1136 8.94104 89.0867 8.98899 89.0387C9.03694 88.9908 9.06388 88.9258 9.06388 88.858V88.6023H8.55251ZM2.92751 88.858V88.6023H3.43888V88.858C3.43888 88.9258 3.41194 88.9908 3.36399 89.0387C3.31604 89.0867 3.25101 89.1136 3.18319 89.1136C3.11538 89.1136 3.05035 89.0867 3.0024 89.0387C2.95445 88.9908 2.92751 88.9258 2.92751 88.858ZM4.20592 82.7216H7.78547V84.767H4.20592V82.7216ZM6.78928 87.7708C6.83649 87.729 6.87182 87.6699 6.89026 87.602L7.25976 86.2384C7.27372 86.1871 7.27756 86.1325 7.27096 86.0791C7.26436 86.0256 7.24751 85.9749 7.2218 85.931C7.19609 85.8872 7.16226 85.8515 7.12311 85.827C7.08396 85.8024 7.04062 85.7896 6.99667 85.7898H4.99471C4.95077 85.7896 4.90743 85.8024 4.86828 85.827C4.82913 85.8515 4.7953 85.8872 4.76959 85.931C4.74388 85.9749 4.72703 86.0256 4.72043 86.0791C4.71382 86.1325 4.71766 86.1871 4.73163 86.2384L5.10113 87.602C5.11957 87.6699 5.15489 87.729 5.20211 87.7708C5.24932 87.8127 5.30603 87.8352 5.36422 87.8352H6.62717C6.68536 87.8352 6.74207 87.8127 6.78928 87.7708ZM2.41615 87.3239C2.41615 87.1827 2.53062 87.0682 2.67183 87.0682H3.69456C3.83577 87.0682 3.95024 87.1827 3.95024 87.3239C3.95024 87.4651 3.83577 87.5795 3.69456 87.5795H2.67183C2.53062 87.5795 2.41615 87.4651 2.41615 87.3239ZM8.04115 87.3239C8.04115 87.1827 8.15562 87.0682 8.29683 87.0682H9.31956C9.46077 87.0682 9.57524 87.1827 9.57524 87.3239C9.57524 87.4651 9.46077 87.5795 9.31956 87.5795H8.29683C8.15562 87.5795 8.04115 87.4651 8.04115 87.3239Z" fill="#111111"/>
</g>
</g>
<g id="Size=16px, Filled=true">
<g id="Vector_9">
<path d="M28.415 76.5C28.5507 76.5 28.6807 76.5539 28.7766 76.6498C28.8725 76.7457 28.9264 76.8757 28.9264 77.0114C28.9264 77.147 28.8725 77.2771 28.7766 77.373C28.6807 77.4689 28.5507 77.5227 28.415 77.5227C28.2794 77.5227 28.1493 77.4689 28.0535 77.373C27.9576 77.2771 27.9037 77.147 27.9037 77.0114C27.9037 76.8757 27.9576 76.7457 28.0535 76.6498C28.1493 76.5539 28.2794 76.5 28.415 76.5Z" fill="#111111"/>
<path d="M30.8014 76.5C30.937 76.5 31.0671 76.5539 31.163 76.6498C31.2589 76.7457 31.3128 76.8757 31.3128 77.0114C31.3128 77.147 31.2589 77.2771 31.163 77.373C31.0671 77.4689 30.937 77.5227 30.8014 77.5227C30.6658 77.5227 30.5357 77.4689 30.4398 77.373C30.3439 77.2771 30.29 77.147 30.29 77.0114C30.29 76.8757 30.3439 76.7457 30.4398 76.6498C30.5357 76.5539 30.6658 76.5 30.8014 76.5Z" fill="#111111"/>
<path d="M32.8469 76.5C32.9825 76.5 33.1125 76.5539 33.2084 76.6498C33.3043 76.7457 33.3582 76.8757 33.3582 77.0114C33.3582 77.147 33.3043 77.2771 33.2084 77.373C33.1125 77.4689 32.9825 77.5227 32.8469 77.5227C32.7112 77.5227 32.5812 77.4689 32.4853 77.373C32.3894 77.2771 32.3355 77.147 32.3355 77.0114C32.3355 76.8757 32.3894 76.7457 32.4853 76.6498C32.5812 76.5539 32.7112 76.5 32.8469 76.5Z" fill="#111111"/>
<path d="M35.2332 76.5C35.3688 76.5 35.4989 76.5539 35.5948 76.6498C35.6907 76.7457 35.7446 76.8757 35.7446 77.0114C35.7446 77.147 35.6907 77.2771 35.5948 77.373C35.4989 77.4689 35.3688 77.5227 35.2332 77.5227C35.0976 77.5227 34.9675 77.4689 34.8716 77.373C34.7757 77.2771 34.7219 77.147 34.7219 77.0114C34.7219 76.8757 34.7757 76.7457 34.8716 76.6498C34.9675 76.5539 35.0976 76.5 35.2332 76.5Z" fill="#111111"/>
<path d="M27.0514 79.9091C27.187 79.9091 27.3171 79.963 27.413 80.0589C27.5089 80.1548 27.5628 80.2848 27.5628 80.4205C27.5628 80.5561 27.5089 80.6861 27.413 80.782C27.3171 80.8779 27.187 80.9318 27.0514 80.9318C26.9158 80.9318 26.7857 80.8779 26.6898 80.782C26.5939 80.6861 26.54 80.5561 26.54 80.4205C26.54 80.2848 26.5939 80.1548 26.6898 80.0589C26.7857 79.963 26.9158 79.9091 27.0514 79.9091Z" fill="#111111"/>
<path d="M29.0969 78.5455C29.2325 78.5455 29.3625 78.5993 29.4584 78.6952C29.5543 78.7911 29.6082 78.9212 29.6082 79.0568C29.6082 79.1924 29.5543 79.3225 29.4584 79.4184C29.3625 79.5143 29.2325 79.5682 29.0969 79.5682C28.9612 79.5682 28.8312 79.5143 28.7353 79.4184C28.6394 79.3225 28.5855 79.1924 28.5855 79.0568C28.5855 78.9212 28.6394 78.7911 28.7353 78.6952C28.8312 78.5993 28.9612 78.5455 29.0969 78.5455Z" fill="#111111"/>
<path d="M31.8241 78.5455C31.9598 78.5455 32.0898 78.5993 32.1857 78.6952C32.2816 78.7911 32.3355 78.9212 32.3355 79.0568C32.3355 79.1924 32.2816 79.3225 32.1857 79.4184C32.0898 79.5143 31.9598 79.5682 31.8241 79.5682C31.6885 79.5682 31.5584 79.5143 31.4625 79.4184C31.3666 79.3225 31.3128 79.1924 31.3128 79.0568C31.3128 78.9212 31.3666 78.7911 31.4625 78.6952C31.5584 78.5993 31.6885 78.5455 31.8241 78.5455Z" fill="#111111"/>
<path d="M34.5514 78.5455C34.687 78.5455 34.8171 78.5993 34.913 78.6952C35.0089 78.7911 35.0628 78.9212 35.0628 79.0568C35.0628 79.1924 35.0089 79.3225 34.913 79.4184C34.8171 79.5143 34.687 79.5682 34.5514 79.5682C34.4158 79.5682 34.2857 79.5143 34.1898 79.4184C34.0939 79.3225 34.04 79.1924 34.04 79.0568C34.04 78.9212 34.0939 78.7911 34.1898 78.6952C34.2857 78.5993 34.4158 78.5455 34.5514 78.5455Z" fill="#111111"/>
<path d="M36.5969 79.9091C36.7325 79.9091 36.8625 79.963 36.9584 80.0589C37.0543 80.1548 37.1082 80.2848 37.1082 80.4205C37.1082 80.5561 37.0543 80.6861 36.9584 80.782C36.8625 80.8779 36.7325 80.9318 36.5969 80.9318C36.4612 80.9318 36.3312 80.8779 36.2353 80.782C36.1394 80.6861 36.0855 80.5561 36.0855 80.4205C36.0855 80.2848 36.1394 80.1548 36.2353 80.0589C36.3312 79.963 36.4612 79.9091 36.5969 79.9091Z" fill="#111111"/>
<path fill-rule="evenodd" clip-rule="evenodd" d="M29.0847 81.0902C29.4044 80.7705 29.838 80.5909 30.29 80.5909H33.6991C34.1512 80.5909 34.5848 80.7705 34.9044 81.0902C35.2241 81.4098 35.4037 81.8434 35.4037 82.2955V86.0455H35.7446C35.86 86.0455 35.9741 86.0572 36.0855 86.0799V83.6246C36.0855 83.3566 36.1978 83.1034 36.3914 82.9196C36.5844 82.7364 36.8425 82.6364 37.1082 82.6364C37.2965 82.6364 37.4491 82.789 37.4491 82.9773C37.4491 83.1656 37.2965 83.3182 37.1082 83.3182C37.0123 83.3182 36.9236 83.3545 36.8608 83.4141C36.7987 83.4731 36.7673 83.5492 36.7673 83.6246V86.3864C36.8315 86.4345 36.8925 86.4873 36.9499 86.5447C37.2695 86.8644 37.4491 87.2979 37.4491 87.75V89.1136C37.4491 89.3849 37.3414 89.645 37.1496 89.8368C37.0407 89.9457 36.9098 90.0275 36.7673 90.0779V90.4773C36.7673 90.7485 36.6596 91.0087 36.4678 91.2004C36.276 91.3922 36.0158 91.5 35.7446 91.5C35.4733 91.5 35.2132 91.3922 35.0214 91.2004C34.8296 91.0087 34.7219 90.7485 34.7219 90.4773V90.1364H29.2673V90.4773C29.2673 90.7485 29.1596 91.0087 28.9678 91.2004C28.776 91.3922 28.5158 91.5 28.2446 91.5C27.9733 91.5 27.7132 91.3922 27.5214 91.2004C27.3296 91.0087 27.2219 90.7485 27.2219 90.4773V90.0779C27.0794 90.0275 26.9485 89.9457 26.8396 89.8368C26.6478 89.645 26.54 89.3849 26.54 89.1136V87.75C26.54 87.2979 26.7196 86.8644 27.0393 86.5447C27.0967 86.4873 27.1577 86.4345 27.2219 86.3864V83.6246C27.2219 83.5492 27.1905 83.4731 27.1283 83.4141C27.0656 83.3545 26.9769 83.3182 26.8809 83.3182C26.6927 83.3182 26.54 83.1656 26.54 82.9773C26.54 82.789 26.6927 82.6364 26.8809 82.6364C27.1466 82.6364 27.4048 82.7364 27.5978 82.9196C27.7914 83.1034 27.9037 83.3566 27.9037 83.6246V86.0799C28.015 86.0572 28.1292 86.0455 28.2446 86.0455H28.5855V82.2955C28.5855 81.8434 28.7651 81.4098 29.0847 81.0902ZM35.4037 90.1364V90.4773C35.4037 90.5677 35.4396 90.6544 35.5035 90.7183C35.5675 90.7823 35.6542 90.8182 35.7446 90.8182C35.835 90.8182 35.9217 90.7823 35.9856 90.7183C36.0496 90.6544 36.0855 90.5677 36.0855 90.4773V90.1364H35.4037ZM27.9037 90.4773V90.1364H28.5855V90.4773C28.5855 90.5677 28.5496 90.6544 28.4856 90.7183C28.4217 90.7823 28.335 90.8182 28.2446 90.8182C28.1542 90.8182 28.0675 90.7823 28.0035 90.7183C27.9396 90.6544 27.9037 90.5677 27.9037 90.4773ZM29.6082 82.2955H34.3809V85.0227H29.6082V82.2955ZM33.0527 89.0278C33.1157 88.972 33.1627 88.8932 33.1873 88.8027L33.68 86.9845C33.6986 86.9162 33.7037 86.8434 33.6949 86.7721C33.6861 86.7009 33.6637 86.6332 33.6294 86.5747C33.5951 86.5163 33.55 86.4687 33.4978 86.4359C33.4456 86.4032 33.3878 86.3862 33.3292 86.3864H30.6599C30.6013 86.3862 30.5436 86.4032 30.4914 86.4359C30.4392 86.4687 30.3941 86.5163 30.3598 86.5747C30.3255 86.6332 30.303 86.7009 30.2942 86.7721C30.2854 86.8434 30.2905 86.9162 30.3092 86.9845L30.8018 88.8027C30.8264 88.8932 30.8735 88.972 30.9365 89.0278C30.9994 89.0836 31.075 89.1136 31.1526 89.1136H32.8366C32.9141 89.1136 32.9898 89.0836 33.0527 89.0278ZM27.2219 88.4318C27.2219 88.2435 27.3745 88.0909 27.5628 88.0909H28.9264C29.1147 88.0909 29.2673 88.2435 29.2673 88.4318C29.2673 88.6201 29.1147 88.7727 28.9264 88.7727H27.5628C27.3745 88.7727 27.2219 88.6201 27.2219 88.4318ZM34.7219 88.4318C34.7219 88.2435 34.8745 88.0909 35.0628 88.0909H36.4264C36.6147 88.0909 36.7673 88.2435 36.7673 88.4318C36.7673 88.6201 36.6147 88.7727 36.4264 88.7727H35.0628C34.8745 88.7727 34.7219 88.6201 34.7219 88.4318Z" fill="#111111"/>
</g>
</g>
<g id="Size=20px, Filled=true">
<g id="Vector_10">
<path d="M57.5186 74.625C57.6881 74.625 57.8507 74.6923 57.9705 74.8122C58.0904 74.9321 58.1578 75.0947 58.1578 75.2642C58.1578 75.4337 58.0904 75.5963 57.9705 75.7162C57.8507 75.8361 57.6881 75.9034 57.5186 75.9034C57.349 75.9034 57.1864 75.8361 57.0666 75.7162C56.9467 75.5963 56.8794 75.4337 56.8794 75.2642C56.8794 75.0947 56.9467 74.9321 57.0666 74.8122C57.1864 74.6923 57.349 74.625 57.5186 74.625Z" fill="#111111"/>
<path d="M60.5015 74.625C60.671 74.625 60.8336 74.6923 60.9535 74.8122C61.0734 74.9321 61.1407 75.0947 61.1407 75.2642C61.1407 75.4337 61.0734 75.5963 60.9535 75.7162C60.8336 75.8361 60.671 75.9034 60.5015 75.9034C60.332 75.9034 60.1694 75.8361 60.0495 75.7162C59.9296 75.5963 59.8623 75.4337 59.8623 75.2642C59.8623 75.0947 59.9296 74.9321 60.0495 74.8122C60.1694 74.6923 60.332 74.625 60.5015 74.625Z" fill="#111111"/>
<path d="M63.0583 74.625C63.2279 74.625 63.3904 74.6923 63.5103 74.8122C63.6302 74.9321 63.6975 75.0947 63.6975 75.2642C63.6975 75.4337 63.6302 75.5963 63.5103 75.7162C63.3904 75.8361 63.2279 75.9034 63.0583 75.9034C62.8888 75.9034 62.7262 75.8361 62.6063 75.7162C62.4865 75.5963 62.4191 75.4337 62.4191 75.2642C62.4191 75.0947 62.4865 74.9321 62.6063 74.8122C62.7262 74.6923 62.8888 74.625 63.0583 74.625Z" fill="#111111"/>
<path d="M66.0413 74.625C66.2108 74.625 66.3734 74.6923 66.4933 74.8122C66.6131 74.9321 66.6805 75.0947 66.6805 75.2642C66.6805 75.4337 66.6131 75.5963 66.4933 75.7162C66.3734 75.8361 66.2108 75.9034 66.0413 75.9034C65.8718 75.9034 65.7092 75.8361 65.5893 75.7162C65.4694 75.5963 65.4021 75.4337 65.4021 75.2642C65.4021 75.0947 65.4694 74.9321 65.5893 74.8122C65.7092 74.6923 65.8718 74.625 66.0413 74.625Z" fill="#111111"/>
<path d="M55.814 78.8864C55.9835 78.8864 56.1461 78.9537 56.266 79.0736C56.3859 79.1935 56.4532 79.356 56.4532 79.5256C56.4532 79.6951 56.3859 79.8577 56.266 79.9776C56.1461 80.0974 55.9835 80.1648 55.814 80.1648C55.6445 80.1648 55.4819 80.0974 55.362 79.9776C55.2421 79.8577 55.1748 79.6951 55.1748 79.5256C55.1748 79.356 55.2421 79.1935 55.362 79.0736C55.4819 78.9537 55.6445 78.8864 55.814 78.8864Z" fill="#111111"/>
<path d="M58.3708 77.1818C58.5404 77.1818 58.7029 77.2492 58.8228 77.369C58.9427 77.4889 59.01 77.6515 59.01 77.821C59.01 77.9906 58.9427 78.1531 58.8228 78.273C58.7029 78.3929 58.5404 78.4602 58.3708 78.4602C58.2013 78.4602 58.0387 78.3929 57.9188 78.273C57.799 78.1531 57.7316 77.9906 57.7316 77.821C57.7316 77.6515 57.799 77.4889 57.9188 77.369C58.0387 77.2492 58.2013 77.1818 58.3708 77.1818Z" fill="#111111"/>
<path d="M61.7799 77.1818C61.9494 77.1818 62.112 77.2492 62.2319 77.369C62.3518 77.4889 62.4191 77.6515 62.4191 77.821C62.4191 77.9906 62.3518 78.1531 62.2319 78.273C62.112 78.3929 61.9494 78.4602 61.7799 78.4602C61.6104 78.4602 61.4478 78.3929 61.3279 78.273C61.2081 78.1531 61.1407 77.9906 61.1407 77.821C61.1407 77.6515 61.2081 77.4889 61.3279 77.369C61.4478 77.2492 61.6104 77.1818 61.7799 77.1818Z" fill="#111111"/>
<path d="M65.189 77.1818C65.3585 77.1818 65.5211 77.2492 65.641 77.369C65.7609 77.4889 65.8282 77.6515 65.8282 77.821C65.8282 77.9906 65.7609 78.1531 65.641 78.273C65.5211 78.3929 65.3585 78.4602 65.189 78.4602C65.0195 78.4602 64.8569 78.3929 64.737 78.273C64.6171 78.1531 64.5498 77.9906 64.5498 77.821C64.5498 77.6515 64.6171 77.4889 64.737 77.369C64.8569 77.2492 65.0195 77.1818 65.189 77.1818Z" fill="#111111"/>
<path d="M67.7458 78.8864C67.9154 78.8864 68.0779 78.9537 68.1978 79.0736C68.3177 79.1935 68.385 79.356 68.385 79.5256C68.385 79.6951 68.3177 79.8577 68.1978 79.9776C68.0779 80.0974 67.9154 80.1648 67.7458 80.1648C67.5763 80.1648 67.4137 80.0974 67.2938 79.9776C67.174 79.8577 67.1066 79.6951 67.1066 79.5256C67.1066 79.356 67.174 79.1935 67.2938 79.0736C67.4137 78.9537 67.5763 78.8864 67.7458 78.8864Z" fill="#111111"/>
<path fill-rule="evenodd" clip-rule="evenodd" d="M58.3557 80.3627C58.7553 79.9631 59.2972 79.7386 59.8623 79.7386H64.1237C64.6888 79.7386 65.2307 79.9631 65.6303 80.3627C66.0299 80.7623 66.2544 81.3042 66.2544 81.8693V86.5568H66.6805C66.8247 86.5568 66.9674 86.5714 67.1066 86.5999V83.5307C67.1066 83.1957 67.247 82.8793 67.489 82.6495C67.7302 82.4205 68.0529 82.2955 68.385 82.2955C68.6204 82.2955 68.8112 82.4862 68.8112 82.7216C68.8112 82.9569 68.6204 83.1477 68.385 83.1477C68.2651 83.1477 68.1542 83.1932 68.0758 83.2676C67.9981 83.3414 67.9589 83.4365 67.9589 83.5307V86.9829C68.0391 87.0431 68.1154 87.1092 68.1871 87.1809C68.5867 87.5805 68.8112 88.1224 68.8112 88.6875V90.392C68.8112 90.7311 68.6765 91.0563 68.4367 91.296C68.3006 91.4321 68.137 91.5344 67.9589 91.5973V92.0966C67.9589 92.4356 67.8242 92.7608 67.5845 93.0006C67.3447 93.2403 67.0195 93.375 66.6805 93.375C66.3414 93.375 66.0163 93.2403 65.7765 93.0006C65.5368 92.7608 65.4021 92.4356 65.4021 92.0966V91.6705H58.5839V92.0966C58.5839 92.4356 58.4492 92.7608 58.2095 93.0006C57.9697 93.2403 57.6445 93.375 57.3055 93.375C56.9664 93.375 56.6413 93.2403 56.4015 93.0006C56.1618 92.7608 56.0271 92.4356 56.0271 92.0966V91.5973C55.849 91.5344 55.6854 91.4321 55.5492 91.296C55.3095 91.0563 55.1748 90.7311 55.1748 90.392V88.6875C55.1748 88.1224 55.3993 87.5805 55.7989 87.1809C55.8706 87.1092 55.9469 87.0431 56.0271 86.9829V83.5307C56.0271 83.4365 55.9879 83.3414 55.9102 83.2676C55.8318 83.1932 55.7209 83.1477 55.6009 83.1477C55.3656 83.1477 55.1748 82.9569 55.1748 82.7216C55.1748 82.4862 55.3656 82.2955 55.6009 82.2955C55.9331 82.2955 56.2557 82.4205 56.497 82.6495C56.739 82.8793 56.8794 83.1957 56.8794 83.5307V86.5999C57.0186 86.5714 57.1613 86.5568 57.3055 86.5568H57.7316V81.8693C57.7316 81.3042 57.9561 80.7623 58.3557 80.3627ZM66.2544 91.6705V92.0966C66.2544 92.2096 66.2992 92.318 66.3792 92.3979C66.4591 92.4778 66.5675 92.5227 66.6805 92.5227C66.7935 92.5227 66.9019 92.4778 66.9818 92.3979C67.0617 92.318 67.1066 92.2096 67.1066 92.0966V91.6705H66.2544ZM56.8794 92.0966V91.6705H57.7316V92.0966C57.7316 92.2096 57.6867 92.318 57.6068 92.3979C57.5269 92.4778 57.4185 92.5227 57.3055 92.5227C57.1925 92.5227 57.0841 92.4778 57.0042 92.3979C56.9242 92.318 56.8794 92.2096 56.8794 92.0966ZM59.01 81.8693H64.9759V85.2784H59.01V81.8693ZM63.3156 90.2847C63.3943 90.215 63.4532 90.1166 63.4839 90.0034L64.0998 87.7307C64.123 87.6452 64.1294 87.5542 64.1184 87.4651C64.1074 87.3761 64.0793 87.2915 64.0365 87.2184C63.9936 87.1453 63.9373 87.0859 63.872 87.0449C63.8068 87.004 63.7345 86.9827 63.6613 86.983H60.3247C60.2514 86.9827 60.1792 87.004 60.114 87.0449C60.0487 87.0859 59.9923 87.1453 59.9495 87.2184C59.9066 87.2915 59.8785 87.3761 59.8675 87.4651C59.8565 87.5542 59.8629 87.6452 59.8862 87.7307L60.502 90.0034C60.5328 90.1166 60.5917 90.215 60.6703 90.2847C60.749 90.3545 60.8435 90.392 60.9405 90.392H63.0454C63.1424 90.392 63.2369 90.3545 63.3156 90.2847ZM56.0271 89.5398C56.0271 89.3044 56.2179 89.1136 56.4532 89.1136H58.1578C58.3931 89.1136 58.5839 89.3044 58.5839 89.5398C58.5839 89.7751 58.3931 89.9659 58.1578 89.9659H56.4532C56.2179 89.9659 56.0271 89.7751 56.0271 89.5398ZM65.4021 89.5398C65.4021 89.3044 65.5929 89.1136 65.8282 89.1136H67.5328C67.7681 89.1136 67.9589 89.3044 67.9589 89.5398C67.9589 89.7751 67.7681 89.9659 67.5328 89.9659H65.8282C65.5929 89.9659 65.4021 89.7751 65.4021 89.5398Z" fill="#111111"/>
</g>
</g>
<g id="Size=24px, Filled=true">
<g id="Vector_11">
<path d="M90.6226 72.75C90.826 72.75 91.0211 72.8308 91.1649 72.9747C91.3088 73.1185 91.3896 73.3136 91.3896 73.517C91.3896 73.7205 91.3088 73.9156 91.1649 74.0594C91.0211 74.2033 90.826 74.2841 90.6226 74.2841C90.4191 74.2841 90.224 74.2033 90.0802 74.0594C89.9363 73.9156 89.8555 73.7205 89.8555 73.517C89.8555 73.3136 89.9363 73.1185 90.0802 72.9747C90.224 72.8308 90.4191 72.75 90.6226 72.75Z" fill="#111111"/>
<path d="M94.2021 72.75C94.4055 72.75 94.6006 72.8308 94.7445 72.9747C94.8883 73.1185 94.9691 73.3136 94.9691 73.517C94.9691 73.7205 94.8883 73.9156 94.7445 74.0594C94.6006 74.2033 94.4055 74.2841 94.2021 74.2841C93.9987 74.2841 93.8036 74.2033 93.6597 74.0594C93.5159 73.9156 93.4351 73.7205 93.4351 73.517C93.4351 73.3136 93.5159 73.1185 93.6597 72.9747C93.8036 72.8308 93.9987 72.75 94.2021 72.75Z" fill="#111111"/>
<path d="M97.2703 72.75C97.4737 72.75 97.6688 72.8308 97.8127 72.9747C97.9565 73.1185 98.0373 73.3136 98.0373 73.517C98.0373 73.7205 97.9565 73.9156 97.8127 74.0594C97.6688 74.2033 97.4737 74.2841 97.2703 74.2841C97.0669 74.2841 96.8717 74.2033 96.7279 74.0594C96.5841 73.9156 96.5032 73.7205 96.5032 73.517C96.5032 73.3136 96.5841 73.1185 96.7279 72.9747C96.8718 72.8308 97.0669 72.75 97.2703 72.75Z" fill="#111111"/>
<path d="M100.85 72.75C101.053 72.75 101.248 72.8308 101.392 72.9747C101.536 73.1185 101.617 73.3136 101.617 73.517C101.617 73.7205 101.536 73.9156 101.392 74.0594C101.248 74.2033 101.053 74.2841 100.85 74.2841C100.646 74.2841 100.451 74.2033 100.307 74.0594C100.164 73.9156 100.083 73.7205 100.083 73.517C100.083 73.3136 100.164 73.1185 100.307 72.9747C100.451 72.8308 100.646 72.75 100.85 72.75Z" fill="#111111"/>
<path d="M88.5771 77.8636C88.7805 77.8636 88.9756 77.9444 89.1195 78.0883C89.2633 78.2321 89.3441 78.4272 89.3441 78.6307C89.3441 78.8341 89.2633 79.0292 89.1195 79.1731C88.9756 79.3169 88.7805 79.3977 88.5771 79.3977C88.3737 79.3977 88.1786 79.3169 88.0347 79.1731C87.8909 79.0292 87.8101 78.8341 87.8101 78.6307C87.8101 78.4272 87.8909 78.2321 88.0347 78.0883C88.1786 77.9444 88.3737 77.8636 88.5771 77.8636Z" fill="#111111"/>
<path d="M91.6453 75.8182C91.8487 75.8182 92.0438 75.899 92.1877 76.0428C92.3315 76.1867 92.4123 76.3818 92.4123 76.5852C92.4123 76.7887 92.3315 76.9838 92.1877 77.1276C92.0438 77.2715 91.8487 77.3523 91.6453 77.3523C91.4419 77.3523 91.2468 77.2715 91.1029 77.1276C90.9591 76.9838 90.8782 76.7887 90.8782 76.5852C90.8782 76.3818 90.9591 76.1867 91.1029 76.0428C91.2468 75.899 91.4419 75.8182 91.6453 75.8182Z" fill="#111111"/>
<path d="M95.7362 75.8182C95.9396 75.8182 96.1347 75.899 96.2786 76.0428C96.4224 76.1867 96.5032 76.3818 96.5032 76.5852C96.5032 76.7887 96.4224 76.9838 96.2786 77.1276C96.1347 77.2715 95.9396 77.3523 95.7362 77.3523C95.5328 77.3523 95.3377 77.2715 95.1938 77.1276C95.05 76.9838 94.9691 76.7887 94.9691 76.5852C94.9691 76.3818 95.05 76.1867 95.1938 76.0428C95.3377 75.899 95.5328 75.8182 95.7362 75.8182Z" fill="#111111"/>
<path d="M99.8271 75.8182C100.031 75.8182 100.226 75.899 100.369 76.0428C100.513 76.1867 100.594 76.3818 100.594 76.5852C100.594 76.7887 100.513 76.9838 100.369 77.1276C100.226 77.2715 100.031 77.3523 99.8271 77.3523C99.6237 77.3523 99.4286 77.2715 99.2847 77.1276C99.1409 76.9838 99.0601 76.7887 99.0601 76.5852C99.0601 76.3818 99.1409 76.1867 99.2847 76.0428C99.4286 75.899 99.6237 75.8182 99.8271 75.8182Z" fill="#111111"/>
<path d="M102.895 77.8636C103.099 77.8636 103.294 77.9444 103.438 78.0883C103.582 78.2321 103.662 78.4272 103.662 78.6307C103.662 78.8341 103.582 79.0292 103.438 79.1731C103.294 79.3169 103.099 79.3977 102.895 79.3977C102.692 79.3977 102.497 79.3169 102.353 79.1731C102.209 79.0292 102.128 78.8341 102.128 78.6307C102.128 78.4272 102.209 78.2321 102.353 78.0883C102.497 77.9444 102.692 77.8636 102.895 77.8636Z" fill="#111111"/>
<path fill-rule="evenodd" clip-rule="evenodd" d="M91.6271 79.6352C92.1066 79.1557 92.7569 78.8864 93.4351 78.8864H98.5487C99.2268 78.8864 99.8771 79.1557 100.357 79.6352C100.836 80.1147 101.106 80.7651 101.106 81.4432V87.0682H101.617C101.79 87.0682 101.961 87.0857 102.128 87.1198V83.4369C102.128 83.0349 102.297 82.6551 102.587 82.3794C102.877 82.1046 103.264 81.9545 103.662 81.9545C103.945 81.9545 104.174 82.1835 104.174 82.4659C104.174 82.7483 103.945 82.9773 103.662 82.9773C103.518 82.9773 103.385 83.0318 103.291 83.1211C103.198 83.2096 103.151 83.3238 103.151 83.4369V87.5795C103.247 87.6517 103.339 87.731 103.425 87.8171C103.904 88.2966 104.174 88.9469 104.174 89.625V91.6705C104.174 92.0773 104.012 92.4675 103.724 92.7552C103.561 92.9186 103.365 93.0413 103.151 93.1168V93.7159C103.151 94.1228 102.989 94.513 102.702 94.8007C102.414 95.0884 102.024 95.25 101.617 95.25C101.21 95.25 100.82 95.0884 100.532 94.8007C100.244 94.513 100.083 94.1228 100.083 93.7159V93.2045H91.901V93.7159C91.901 94.1228 91.7393 94.513 91.4516 94.8007C91.1639 95.0884 90.7737 95.25 90.3669 95.25C89.96 95.25 89.5698 95.0884 89.2821 94.8007C88.9944 94.513 88.8328 94.1228 88.8328 93.7159V93.1168C88.6191 93.0413 88.4227 92.9186 88.2594 92.7552C87.9717 92.4675 87.8101 92.0773 87.8101 91.6705V89.625C87.8101 88.9469 88.0794 88.2966 88.5589 87.8171C88.645 87.731 88.7366 87.6517 88.8328 87.5795V83.4369C88.8328 83.3238 88.7857 83.2096 88.6925 83.1211C88.5984 83.0318 88.4654 82.9773 88.3214 82.9773C88.039 82.9773 87.8101 82.7483 87.8101 82.4659C87.8101 82.1835 88.039 81.9545 88.3214 81.9545C88.72 81.9545 89.1072 82.1046 89.3967 82.3794C89.6871 82.6551 89.8555 83.0349 89.8555 83.4369V87.1198C90.0226 87.0857 90.1938 87.0682 90.3669 87.0682H90.8782V81.4432C90.8782 80.7651 91.1476 80.1147 91.6271 79.6352ZM101.106 93.2045V93.7159C101.106 93.8515 101.159 93.9816 101.255 94.0775C101.351 94.1734 101.481 94.2273 101.617 94.2273C101.752 94.2273 101.883 94.1734 101.978 94.0775C102.074 93.9816 102.128 93.8515 102.128 93.7159V93.2045H101.106ZM89.8555 93.7159V93.2045H90.8782V93.7159C90.8782 93.8515 90.8244 93.9816 90.7285 94.0775C90.6326 94.1734 90.5025 94.2273 90.3669 94.2273C90.2313 94.2273 90.1012 94.1734 90.0053 94.0775C89.9094 93.9816 89.8555 93.8515 89.8555 93.7159ZM92.4123 81.4432H99.5714V85.5341H92.4123V81.4432ZM97.5791 91.5417C97.6735 91.458 97.7441 91.3399 97.781 91.2041L98.52 88.4768C98.5479 88.3743 98.5556 88.2651 98.5424 88.1582C98.5292 88.0513 98.4955 87.9498 98.4441 87.8621C98.3927 87.7744 98.325 87.703 98.2467 87.6539C98.1684 87.6048 98.0817 87.5793 97.9938 87.5795H93.9899C93.902 87.5793 93.8153 87.6048 93.737 87.6539C93.6587 87.703 93.5911 87.7744 93.5397 87.8621C93.4882 87.9498 93.4545 88.0513 93.4413 88.1582C93.4281 88.2651 93.4358 88.3743 93.4637 88.4768L94.2027 91.2041C94.2396 91.3399 94.3103 91.458 94.4047 91.5417C94.4991 91.6253 94.6125 91.6704 94.7289 91.6705H97.2548C97.3712 91.6704 97.4846 91.6253 97.5791 91.5417ZM88.8328 90.6477C88.8328 90.3653 89.0617 90.1364 89.3441 90.1364H91.3896C91.672 90.1364 91.901 90.3653 91.901 90.6477C91.901 90.9301 91.672 91.1591 91.3896 91.1591H89.3441C89.0617 91.1591 88.8328 90.9301 88.8328 90.6477ZM100.083 90.6477C100.083 90.3653 100.312 90.1364 100.594 90.1364H102.64C102.922 90.1364 103.151 90.3653 103.151 90.6477C103.151 90.9301 102.922 91.1591 102.64 91.1591H100.594C100.312 91.1591 100.083 90.9301 100.083 90.6477Z" fill="#111111"/>
</g>
</g>
<g id="Size=32px, Filled=true">
<g id="Vector_12">
<path d="M128.83 69C129.101 69 129.361 69.1078 129.553 69.2996C129.745 69.4913 129.853 69.7515 129.853 70.0227C129.853 70.294 129.745 70.5541 129.553 70.7459C129.361 70.9377 129.101 71.0455 128.83 71.0455C128.559 71.0455 128.299 70.9377 128.107 70.7459C127.915 70.5541 127.807 70.294 127.807 70.0227C127.807 69.7515 127.915 69.4913 128.107 69.2996C128.299 69.1078 128.559 69 128.83 69Z" fill="#111111"/>
<path d="M133.603 69C133.874 69 134.134 69.1078 134.326 69.2996C134.518 69.4913 134.626 69.7515 134.626 70.0227C134.626 70.294 134.518 70.5541 134.326 70.7459C134.134 70.9377 133.874 71.0455 133.603 71.0455C133.332 71.0455 133.071 70.9377 132.88 70.7459C132.688 70.5541 132.58 70.294 132.58 70.0227C132.58 69.7515 132.688 69.4913 132.88 69.2996C133.071 69.1078 133.332 69 133.603 69Z" fill="#111111"/>
<path d="M137.694 69C137.965 69 138.225 69.1078 138.417 69.2996C138.609 69.4913 138.716 69.7515 138.716 70.0227C138.716 70.294 138.609 70.5541 138.417 70.7459C138.225 70.9377 137.965 71.0455 137.694 71.0455C137.422 71.0455 137.162 70.9377 136.971 70.7459C136.779 70.5541 136.671 70.294 136.671 70.0227C136.671 69.7515 136.779 69.4913 136.971 69.2996C137.162 69.1078 137.422 69 137.694 69Z" fill="#111111"/>
<path d="M142.466 69C142.738 69 142.998 69.1078 143.19 69.2996C143.381 69.4913 143.489 69.7515 143.489 70.0227C143.489 70.294 143.381 70.5541 143.19 70.7459C142.998 70.9377 142.738 71.0455 142.466 71.0455C142.195 71.0455 141.935 70.9377 141.743 70.7459C141.551 70.5541 141.444 70.294 141.444 70.0227C141.444 69.7515 141.551 69.4913 141.743 69.2996C141.935 69.1078 142.195 69 142.466 69Z" fill="#111111"/>
<path d="M126.103 75.8182C126.374 75.8182 126.634 75.9259 126.826 76.1177C127.018 76.3095 127.126 76.5697 127.126 76.8409C127.126 77.1122 127.018 77.3723 126.826 77.5641C126.634 77.7559 126.374 77.8636 126.103 77.8636C125.832 77.8636 125.571 77.7559 125.38 77.5641C125.188 77.3723 125.08 77.1122 125.08 76.8409C125.08 76.5697 125.188 76.3095 125.38 76.1177C125.571 75.9259 125.832 75.8182 126.103 75.8182Z" fill="#111111"/>
<path d="M130.194 73.0909C130.465 73.0909 130.725 73.1987 130.917 73.3905C131.109 73.5823 131.216 73.8424 131.216 74.1136C131.216 74.3849 131.109 74.645 130.917 74.8368C130.725 75.0286 130.465 75.1364 130.194 75.1364C129.922 75.1364 129.662 75.0286 129.471 74.8368C129.279 74.645 129.171 74.3849 129.171 74.1136C129.171 73.8424 129.279 73.5823 129.471 73.3905C129.662 73.1987 129.922 73.0909 130.194 73.0909Z" fill="#111111"/>
<path d="M135.648 73.0909C135.92 73.0909 136.18 73.1987 136.371 73.3905C136.563 73.5823 136.671 73.8424 136.671 74.1136C136.671 74.3849 136.563 74.645 136.371 74.8368C136.18 75.0286 135.92 75.1364 135.648 75.1364C135.377 75.1364 135.117 75.0286 134.925 74.8368C134.733 74.645 134.626 74.3849 134.626 74.1136C134.626 73.8424 134.733 73.5823 134.925 73.3905C135.117 73.1987 135.377 73.0909 135.648 73.0909Z" fill="#111111"/>
<path d="M141.103 73.0909C141.374 73.0909 141.634 73.1987 141.826 73.3905C142.018 73.5823 142.126 73.8424 142.126 74.1136C142.126 74.3849 142.018 74.645 141.826 74.8368C141.634 75.0286 141.374 75.1364 141.103 75.1364C140.832 75.1364 140.571 75.0286 140.38 74.8368C140.188 74.645 140.08 74.3849 140.08 74.1136C140.08 73.8424 140.188 73.5823 140.38 73.3905C140.571 73.1987 140.832 73.0909 141.103 73.0909Z" fill="#111111"/>
<path d="M145.194 75.8182C145.465 75.8182 145.725 75.9259 145.917 76.1177C146.109 76.3095 146.216 76.5697 146.216 76.8409C146.216 77.1122 146.109 77.3723 145.917 77.5641C145.725 77.7559 145.465 77.8636 145.194 77.8636C144.922 77.8636 144.662 77.7559 144.471 77.5641C144.279 77.3723 144.171 77.1122 144.171 76.8409C144.171 76.5697 144.279 76.3095 144.471 76.1177C144.662 75.9259 144.922 75.8182 145.194 75.8182Z" fill="#111111"/>
<path fill-rule="evenodd" clip-rule="evenodd" d="M130.169 78.1803C130.809 77.541 131.676 77.1818 132.58 77.1818H139.398C140.302 77.1818 141.17 77.541 141.809 78.1803C142.448 78.8196 142.807 79.6868 142.807 80.5909V88.0909H143.489C143.72 88.0909 143.948 88.1143 144.171 88.1598V83.2491C144.171 82.7132 144.396 82.2068 144.783 81.8392C145.169 81.4728 145.685 81.2727 146.216 81.2727C146.593 81.2727 146.898 81.578 146.898 81.9545C146.898 82.3311 146.593 82.6364 146.216 82.6364C146.025 82.6364 145.847 82.7091 145.722 82.8282C145.597 82.9462 145.535 83.0984 145.535 83.2491V88.7727C145.663 88.8689 145.785 88.9747 145.9 89.0894C146.539 89.7287 146.898 90.5959 146.898 91.5V94.2273C146.898 94.7698 146.683 95.29 146.299 95.6736C146.081 95.8914 145.82 96.055 145.535 96.1557V96.9545C145.535 97.497 145.319 98.0173 144.936 98.4009C144.552 98.7845 144.032 99 143.489 99C142.947 99 142.426 98.7845 142.043 98.4009C141.659 98.0173 141.444 97.497 141.444 96.9545V96.2727H130.535V96.9545C130.535 97.497 130.319 98.0173 129.936 98.4009C129.552 98.7845 129.032 99 128.489 99C127.947 99 127.426 98.7845 127.043 98.4009C126.659 98.0173 126.444 97.497 126.444 96.9545V96.1557C126.159 96.055 125.897 95.8914 125.679 95.6736C125.296 95.29 125.08 94.7698 125.08 94.2273V91.5C125.08 90.5959 125.439 89.7287 126.079 89.0894C126.193 88.9747 126.315 88.8689 126.444 88.7727V83.2491C126.444 83.0984 126.381 82.9462 126.257 82.8282C126.131 82.7091 125.954 82.6364 125.762 82.6364C125.385 82.6364 125.08 82.3311 125.08 81.9545C125.08 81.578 125.385 81.2727 125.762 81.2727C126.293 81.2727 126.81 81.4728 127.196 81.8392C127.583 82.2068 127.807 82.7132 127.807 83.2491V88.1598C128.03 88.1143 128.258 88.0909 128.489 88.0909H129.171V80.5909C129.171 79.6868 129.53 78.8196 130.169 78.1803ZM142.807 96.2727V96.9545C142.807 97.1354 142.879 97.3088 143.007 97.4367C143.135 97.5645 143.308 97.6364 143.489 97.6364C143.67 97.6364 143.843 97.5645 143.971 97.4367C144.099 97.3088 144.171 97.1354 144.171 96.9545V96.2727H142.807ZM127.807 96.9545V96.2727H129.171V96.9545C129.171 97.1354 129.099 97.3088 128.971 97.4367C128.843 97.5645 128.67 97.6364 128.489 97.6364C128.308 97.6364 128.135 97.5645 128.007 97.4367C127.879 97.3088 127.807 97.1354 127.807 96.9545ZM131.216 80.5909H140.762V86.0455H131.216V80.5909ZM138.105 94.0555C138.231 93.9439 138.325 93.7865 138.375 93.6055L139.36 89.9691C139.397 89.8324 139.407 89.6868 139.39 89.5442C139.372 89.4017 139.327 89.2664 139.259 89.1495C139.19 89.0325 139.1 88.9374 138.996 88.8719C138.891 88.8064 138.776 88.7724 138.658 88.7727H133.32C133.203 88.7724 133.087 88.8064 132.983 88.8719C132.878 88.9374 132.788 89.0325 132.72 89.1495C132.651 89.2664 132.606 89.4017 132.588 89.5442C132.571 89.6868 132.581 89.8324 132.618 89.9691L133.604 93.6055C133.653 93.7865 133.747 93.9439 133.873 94.0555C133.999 94.1671 134.15 94.2272 134.305 94.2273H137.673C137.828 94.2272 137.98 94.1671 138.105 94.0555ZM126.444 92.8636C126.444 92.4871 126.749 92.1818 127.126 92.1818H129.853C130.229 92.1818 130.535 92.4871 130.535 92.8636C130.535 93.2402 130.229 93.5455 129.853 93.5455H127.126C126.749 93.5455 126.444 93.2402 126.444 92.8636ZM141.444 92.8636C141.444 92.4871 141.749 92.1818 142.126 92.1818H144.853C145.229 92.1818 145.535 92.4871 145.535 92.8636C145.535 93.2402 145.229 93.5455 144.853 93.5455H142.126C141.749 93.5455 141.444 93.2402 141.444 92.8636Z" fill="#111111"/>
</g>
</g>
<g id="Size=40px, Filled=true">
<g id="Vector_13">
<path d="M175.038 65.25C175.377 65.25 175.702 65.3847 175.942 65.6244C176.181 65.8642 176.316 66.1894 176.316 66.5284C176.316 66.8675 176.181 67.1926 175.942 67.4324C175.702 67.6721 175.377 67.8068 175.038 67.8068C174.699 67.8068 174.373 67.6721 174.134 67.4324C173.894 67.1926 173.759 66.8675 173.759 66.5284C173.759 66.1894 173.894 65.8642 174.134 65.6244C174.373 65.3847 174.699 65.25 175.038 65.25Z" fill="#111111"/>
<path d="M181.004 65.25C181.343 65.25 181.668 65.3847 181.907 65.6244C182.147 65.8642 182.282 66.1894 182.282 66.5284C182.282 66.8675 182.147 67.1926 181.907 67.4324C181.668 67.6721 181.343 67.8068 181.004 67.8068C180.664 67.8068 180.339 67.6721 180.1 67.4324C179.86 67.1926 179.725 66.8675 179.725 66.5284C179.725 66.1894 179.86 65.8642 180.1 65.6244C180.339 65.3847 180.664 65.25 181.004 65.25Z" fill="#111111"/>
<path d="M186.117 65.25C186.456 65.25 186.781 65.3847 187.021 65.6244C187.261 65.8642 187.396 66.1894 187.396 66.5284C187.396 66.8675 187.261 67.1926 187.021 67.4324C186.781 67.6721 186.456 67.8068 186.117 67.8068C185.778 67.8068 185.453 67.6721 185.213 67.4324C184.973 67.1926 184.839 66.8675 184.839 66.5284C184.839 66.1894 184.973 65.8642 185.213 65.6244C185.453 65.3847 185.778 65.25 186.117 65.25Z" fill="#111111"/>
<path d="M192.083 65.25C192.422 65.25 192.747 65.3847 192.987 65.6244C193.227 65.8642 193.361 66.1894 193.361 66.5284C193.361 66.8675 193.227 67.1926 192.987 67.4324C192.747 67.6721 192.422 67.8068 192.083 67.8068C191.744 67.8068 191.419 67.6721 191.179 67.4324C190.939 67.1926 190.805 66.8675 190.805 66.5284C190.805 66.1894 190.939 65.8642 191.179 65.6244C191.419 65.3847 191.744 65.25 192.083 65.25Z" fill="#111111"/>
<path d="M171.629 73.7727C171.968 73.7727 172.293 73.9074 172.532 74.1472C172.772 74.3869 172.907 74.7121 172.907 75.0511C172.907 75.3902 172.772 75.7154 172.532 75.9551C172.293 76.1949 171.968 76.3295 171.629 76.3295C171.289 76.3295 170.964 76.1949 170.725 75.9551C170.485 75.7154 170.35 75.3902 170.35 75.0511C170.35 74.7121 170.485 74.3869 170.725 74.1472C170.964 73.9074 171.289 73.7727 171.629 73.7727Z" fill="#111111"/>
<path d="M176.742 70.3636C177.081 70.3636 177.406 70.4983 177.646 70.7381C177.886 70.9778 178.021 71.303 178.021 71.642C178.021 71.9811 177.886 72.3063 177.646 72.546C177.406 72.7858 177.081 72.9205 176.742 72.9205C176.403 72.9205 176.078 72.7858 175.838 72.546C175.598 72.3063 175.464 71.9811 175.464 71.642C175.464 71.303 175.598 70.9778 175.838 70.7381C176.078 70.4983 176.403 70.3636 176.742 70.3636Z" fill="#111111"/>
<path d="M183.56 70.3636C183.899 70.3636 184.225 70.4983 184.464 70.7381C184.704 70.9778 184.839 71.303 184.839 71.642C184.839 71.9811 184.704 72.3063 184.464 72.546C184.225 72.7858 183.899 72.9205 183.56 72.9205C183.221 72.9205 182.896 72.7858 182.656 72.546C182.417 72.3063 182.282 71.9811 182.282 71.642C182.282 71.303 182.417 70.9778 182.656 70.7381C182.896 70.4983 183.221 70.3636 183.56 70.3636Z" fill="#111111"/>
<path d="M190.379 70.3636C190.718 70.3636 191.043 70.4983 191.282 70.7381C191.522 70.9778 191.657 71.303 191.657 71.642C191.657 71.9811 191.522 72.3063 191.282 72.546C191.043 72.7858 190.718 72.9205 190.379 72.9205C190.039 72.9205 189.714 72.7858 189.475 72.546C189.235 72.3063 189.1 71.9811 189.1 71.642C189.1 71.303 189.235 70.9778 189.475 70.7381C189.714 70.4983 190.039 70.3636 190.379 70.3636Z" fill="#111111"/>
<path d="M195.492 73.7727C195.831 73.7727 196.156 73.9074 196.396 74.1472C196.636 74.3869 196.771 74.7121 196.771 75.0511C196.771 75.3902 196.636 75.7154 196.396 75.9551C196.156 76.1949 195.831 76.3295 195.492 76.3295C195.153 76.3295 194.828 76.1949 194.588 75.9551C194.348 75.7154 194.214 75.3902 194.214 75.0511C194.214 74.7121 194.348 74.3869 194.588 74.1472C194.828 73.9074 195.153 73.7727 195.492 73.7727Z" fill="#111111"/>
<path fill-rule="evenodd" clip-rule="evenodd" d="M176.712 76.7254C177.511 75.9262 178.595 75.4773 179.725 75.4773H188.248C189.378 75.4773 190.462 75.9262 191.261 76.7254C192.06 77.5246 192.509 78.6085 192.509 79.7386V89.1136H193.361C193.65 89.1136 193.935 89.1429 194.214 89.1997V83.0614C194.214 82.3915 194.494 81.7585 194.978 81.2991C195.461 80.841 196.106 80.5909 196.771 80.5909C197.241 80.5909 197.623 80.9725 197.623 81.4432C197.623 81.9139 197.241 82.2955 196.771 82.2955C196.531 82.2955 196.309 82.3863 196.152 82.5352C195.997 82.6827 195.918 82.873 195.918 83.0614V89.9659C196.079 90.0862 196.231 90.2183 196.375 90.3618C197.174 91.1609 197.623 92.2448 197.623 93.375V96.7841C197.623 97.4622 197.353 98.1125 196.874 98.592C196.602 98.8643 196.274 99.0688 195.918 99.1947V100.193C195.918 100.871 195.649 101.522 195.169 102.001C194.69 102.481 194.04 102.75 193.361 102.75C192.683 102.75 192.033 102.481 191.554 102.001C191.074 101.522 190.805 100.871 190.805 100.193V99.3409H177.168V100.193C177.168 100.871 176.899 101.522 176.419 102.001C175.94 102.481 175.29 102.75 174.611 102.75C173.933 102.75 173.283 102.481 172.804 102.001C172.324 101.522 172.055 100.871 172.055 100.193V99.1947C171.698 99.0687 171.371 98.8643 171.099 98.592C170.619 98.1125 170.35 97.4622 170.35 96.7841V93.375C170.35 92.2448 170.799 91.1609 171.598 90.3618C171.742 90.2183 171.894 90.0862 172.055 89.9659V83.0614C172.055 82.873 171.976 82.6827 171.821 82.5352C171.664 82.3863 171.442 82.2955 171.202 82.2955C170.732 82.2955 170.35 81.9139 170.35 81.4432C170.35 80.9725 170.732 80.5909 171.202 80.5909C171.867 80.5909 172.512 80.841 172.994 81.2991C173.478 81.7585 173.759 82.3915 173.759 83.0614V89.1997C174.038 89.1429 174.323 89.1136 174.611 89.1136H175.464V79.7386C175.464 78.6085 175.913 77.5246 176.712 76.7254ZM192.509 99.3409V100.193C192.509 100.419 192.599 100.636 192.759 100.796C192.919 100.956 193.135 101.045 193.361 101.045C193.587 101.045 193.804 100.956 193.964 100.796C194.124 100.636 194.214 100.419 194.214 100.193V99.3409H192.509ZM173.759 100.193V99.3409H175.464V100.193C175.464 100.419 175.374 100.636 175.214 100.796C175.054 100.956 174.837 101.045 174.611 101.045C174.385 101.045 174.169 100.956 174.009 100.796C173.849 100.636 173.759 100.419 173.759 100.193ZM178.021 79.7386H189.952V86.5568H178.021V79.7386ZM186.632 96.5694C186.789 96.4299 186.907 96.2331 186.968 96.0068L188.2 91.4614C188.247 91.2905 188.259 91.1085 188.237 90.9303C188.215 90.7521 188.159 90.583 188.073 90.4368C187.988 90.2907 187.875 90.1717 187.745 90.0898C187.614 90.008 187.47 89.9655 187.323 89.9659H180.65C180.503 89.9655 180.359 90.008 180.228 90.0898C180.098 90.1717 179.985 90.2907 179.899 90.4368C179.814 90.583 179.758 90.7521 179.736 90.9303C179.714 91.1085 179.726 91.2905 179.773 91.4614L181.005 96.0068C181.066 96.2331 181.184 96.4299 181.341 96.5694C181.499 96.7089 181.688 96.784 181.882 96.7841H186.091C186.285 96.784 186.474 96.7089 186.632 96.5694ZM172.055 95.0795C172.055 94.6088 172.436 94.2273 172.907 94.2273H176.316C176.787 94.2273 177.168 94.6088 177.168 95.0795C177.168 95.5502 176.787 95.9318 176.316 95.9318H172.907C172.436 95.9318 172.055 95.5502 172.055 95.0795ZM190.805 95.0795C190.805 94.6088 191.186 94.2273 191.657 94.2273H195.066C195.537 94.2273 195.918 94.6088 195.918 95.0795C195.918 95.5502 195.537 95.9318 195.066 95.9318H191.657C191.186 95.9318 190.805 95.5502 190.805 95.0795Z" fill="#111111"/>
</g>
</g>
<g id="Size=48px, Filled=true">
<g id="Vector_14">
<path d="M229.245 61.5C229.652 61.5 230.042 61.6616 230.33 61.9493C230.618 62.237 230.779 62.6272 230.779 63.0341C230.779 63.441 230.618 63.8312 230.33 64.1189C230.042 64.4066 229.652 64.5682 229.245 64.5682C228.838 64.5682 228.448 64.4066 228.16 64.1189C227.873 63.8312 227.711 63.441 227.711 63.0341C227.711 62.6272 227.873 62.237 228.16 61.9493C228.448 61.6616 228.838 61.5 229.245 61.5Z" fill="#111111"/>
<path d="M236.404 61.5C236.811 61.5 237.201 61.6616 237.489 61.9493C237.777 62.237 237.938 62.6272 237.938 63.0341C237.938 63.441 237.777 63.8312 237.489 64.1189C237.201 64.4066 236.811 64.5682 236.404 64.5682C235.997 64.5682 235.607 64.4066 235.319 64.1189C235.032 63.8312 234.87 63.441 234.87 63.0341C234.87 62.6272 235.032 62.237 235.319 61.9493C235.607 61.6616 235.997 61.5 236.404 61.5Z" fill="#111111"/>
<path d="M242.541 61.5C242.947 61.5 243.338 61.6616 243.625 61.9493C243.913 62.237 244.075 62.6272 244.075 63.0341C244.075 63.441 243.913 63.8312 243.625 64.1189C243.338 64.4066 242.947 64.5682 242.541 64.5682C242.134 64.5682 241.743 64.4066 241.456 64.1189C241.168 63.8312 241.006 63.441 241.006 63.0341C241.006 62.6272 241.168 62.237 241.456 61.9493C241.744 61.6616 242.134 61.5 242.541 61.5Z" fill="#111111"/>
<path d="M249.7 61.5C250.107 61.5 250.497 61.6616 250.784 61.9493C251.072 62.237 251.234 62.6272 251.234 63.0341C251.234 63.441 251.072 63.8312 250.784 64.1189C250.497 64.4066 250.107 64.5682 249.7 64.5682C249.293 64.5682 248.903 64.4066 248.615 64.1189C248.327 63.8312 248.166 63.441 248.166 63.0341C248.166 62.6272 248.327 62.237 248.615 61.9493C248.903 61.6616 249.293 61.5 249.7 61.5Z" fill="#111111"/>
<path d="M225.154 71.7273C225.561 71.7273 225.951 71.8889 226.239 72.1766C226.527 72.4643 226.688 72.8545 226.688 73.2614C226.688 73.6682 226.527 74.0584 226.239 74.3461C225.951 74.6338 225.561 74.7955 225.154 74.7955C224.747 74.7955 224.357 74.6338 224.069 74.3461C223.782 74.0584 223.62 73.6682 223.62 73.2614C223.62 72.8545 223.782 72.4643 224.069 72.1766C224.357 71.8889 224.747 71.7273 225.154 71.7273Z" fill="#111111"/>
<path d="M231.291 67.6364C231.697 67.6364 232.088 67.798 232.375 68.0857C232.663 68.3734 232.825 68.7636 232.825 69.1705C232.825 69.5773 232.663 69.9675 232.375 70.2552C232.088 70.5429 231.697 70.7045 231.291 70.7045C230.884 70.7045 230.494 70.5429 230.206 70.2552C229.918 69.9675 229.756 69.5773 229.756 69.1705C229.756 68.7636 229.918 68.3734 230.206 68.0857C230.494 67.798 230.884 67.6364 231.291 67.6364Z" fill="#111111"/>
<path d="M239.472 67.6364C239.879 67.6364 240.269 67.798 240.557 68.0857C240.845 68.3734 241.006 68.7636 241.006 69.1705C241.006 69.5773 240.845 69.9675 240.557 70.2552C240.269 70.5429 239.879 70.7045 239.472 70.7045C239.066 70.7045 238.675 70.5429 238.388 70.2552C238.1 69.9675 237.938 69.5773 237.938 69.1705C237.938 68.7636 238.1 68.3734 238.388 68.0857C238.675 67.798 239.066 67.6364 239.472 67.6364Z" fill="#111111"/>
<path d="M247.654 67.6364C248.061 67.6364 248.451 67.798 248.739 68.0857C249.027 68.3734 249.188 68.7636 249.188 69.1705C249.188 69.5773 249.027 69.9675 248.739 70.2552C248.451 70.5429 248.061 70.7045 247.654 70.7045C247.247 70.7045 246.857 70.5429 246.569 70.2552C246.282 69.9675 246.12 69.5773 246.12 69.1705C246.12 68.7636 246.282 68.3734 246.569 68.0857C246.857 67.798 247.247 67.6364 247.654 67.6364Z" fill="#111111"/>
<path d="M253.791 71.7273C254.197 71.7273 254.588 71.8889 254.875 72.1766C255.163 72.4643 255.325 72.8545 255.325 73.2614C255.325 73.6682 255.163 74.0584 254.875 74.3461C254.588 74.6338 254.197 74.7955 253.791 74.7955C253.384 74.7955 252.993 74.6338 252.706 74.3461C252.418 74.0584 252.256 73.6682 252.256 73.2614C252.256 72.8545 252.418 72.4643 252.706 72.1766C252.994 71.8889 253.384 71.7273 253.791 71.7273Z" fill="#111111"/>
<path fill-rule="evenodd" clip-rule="evenodd" d="M231.254 75.2705C232.213 74.3115 233.514 73.7727 234.87 73.7727H245.097C246.454 73.7727 247.754 74.3115 248.713 75.2705C249.672 76.2295 250.211 77.5301 250.211 78.8864V90.1364H251.234C251.58 90.1364 251.922 90.1715 252.256 90.2397V82.8737C252.256 82.0698 252.593 81.3103 253.174 80.7589C253.753 80.2092 254.528 79.9091 255.325 79.9091C255.889 79.9091 256.347 80.367 256.347 80.9318C256.347 81.4967 255.889 81.9545 255.325 81.9545C255.037 81.9545 254.771 82.0636 254.582 82.2423C254.396 82.4193 254.302 82.6476 254.302 82.8737V91.1591C254.494 91.3034 254.678 91.462 254.85 91.6341C255.809 92.5931 256.347 93.8938 256.347 95.25V99.3409C256.347 100.155 256.024 100.935 255.449 101.51C255.122 101.837 254.729 102.083 254.302 102.234V103.432C254.302 104.246 253.979 105.026 253.403 105.601C252.828 106.177 252.047 106.5 251.234 106.5C250.42 106.5 249.64 106.177 249.064 105.601C248.489 105.026 248.166 104.246 248.166 103.432V102.409H231.802V103.432C231.802 104.246 231.479 105.026 230.903 105.601C230.328 106.177 229.547 106.5 228.734 106.5C227.92 106.5 227.14 106.177 226.564 105.601C225.989 105.026 225.666 104.246 225.666 103.432V102.234C225.238 102.083 224.845 101.837 224.519 101.51C223.943 100.935 223.62 100.155 223.62 99.3409V95.25C223.62 93.8938 224.159 92.5931 225.118 91.6341C225.29 91.462 225.473 91.3034 225.666 91.1591V82.8737C225.666 82.6476 225.571 82.4193 225.385 82.2423C225.197 82.0636 224.931 81.9545 224.643 81.9545C224.078 81.9545 223.62 81.4967 223.62 80.9318C223.62 80.367 224.078 79.9091 224.643 79.9091C225.44 79.9091 226.214 80.2092 226.793 80.7589C227.374 81.3103 227.711 82.0698 227.711 82.8737V90.2397C228.045 90.1715 228.388 90.1364 228.734 90.1364H229.756V78.8864C229.756 77.5301 230.295 76.2295 231.254 75.2705ZM250.211 102.409V103.432C250.211 103.703 250.319 103.963 250.511 104.155C250.702 104.347 250.963 104.455 251.234 104.455C251.505 104.455 251.765 104.347 251.957 104.155C252.149 103.963 252.256 103.703 252.256 103.432V102.409H250.211ZM227.711 103.432V102.409H229.756V103.432C229.756 103.703 229.649 103.963 229.457 104.155C229.265 104.347 229.005 104.455 228.734 104.455C228.463 104.455 228.202 104.347 228.011 104.155C227.819 103.963 227.711 103.703 227.711 103.432ZM232.825 78.8864H247.143V87.0682H232.825V78.8864ZM243.158 99.0833C243.347 98.9159 243.488 98.6797 243.562 98.4082L245.04 92.9536C245.096 92.7486 245.111 92.5301 245.085 92.3163C245.058 92.1026 244.991 91.8996 244.888 91.7242C244.785 91.5488 244.65 91.4061 244.493 91.3078C244.337 91.2096 244.163 91.1586 243.988 91.1591H235.98C235.804 91.1586 235.631 91.2096 235.474 91.3078C235.317 91.4061 235.182 91.5488 235.079 91.7242C234.976 91.8996 234.909 92.1026 234.883 92.3163C234.856 92.5301 234.872 92.7486 234.927 92.9536L236.405 98.4082C236.479 98.6797 236.621 98.9159 236.809 99.0833C236.998 99.2507 237.225 99.3408 237.458 99.3409H242.51C242.742 99.3408 242.969 99.2507 243.158 99.0833ZM225.666 97.2955C225.666 96.7306 226.123 96.2727 226.688 96.2727H230.779C231.344 96.2727 231.802 96.7306 231.802 97.2955C231.802 97.8603 231.344 98.3182 230.779 98.3182H226.688C226.123 98.3182 225.666 97.8603 225.666 97.2955ZM248.166 97.2955C248.166 96.7306 248.623 96.2727 249.188 96.2727H253.279C253.844 96.2727 254.302 96.7306 254.302 97.2955C254.302 97.8603 253.844 98.3182 253.279 98.3182H249.188C248.623 98.3182 248.166 97.8603 248.166 97.2955Z" fill="#111111"/>
</g>
</g>
</g>
</g>
<defs>
<clipPath id="clip0_7887_244">
<rect width="264" height="108" rx="5" fill="white"/>
</clipPath>
</defs>
</svg>
