<svg width="264" height="108" viewBox="0 0 264 108" fill="none" xmlns="http://www.w3.org/2000/svg">
<g id="Truck">
<g clip-path="url(#clip0_1126_875)">
<g id="Size=12px, Filled=false">
<path id="Vector" d="M2.02867 28.2857C2.02867 28.6802 1.70887 29 1.31438 29C0.919894 29 0.600098 28.6802 0.600098 28.2857C0.600098 27.8912 0.919894 27.5714 1.31438 27.5714C1.70887 27.5714 2.02867 27.8912 2.02867 28.2857ZM2.02867 28.2857H3.45724M3.45724 28.2857C3.45724 27.8912 3.77704 27.5714 4.17153 27.5714C4.56602 27.5714 4.88581 27.8912 4.88581 28.2857C4.88581 28.6802 4.56602 29 4.17153 29C3.77704 29 3.45724 28.6802 3.45724 28.2857ZM4.88581 27.5714V19.9762C4.88581 19.4362 4.57629 19 4.19819 19H0.600098M11.3144 24.7135H9.605C8.99556 24.7353 8.48259 24.2743 8.45724 23.682V21.1429M0.600098 25.4286H4.88581M2.02867 24V20.4286M3.45724 24V20.4286M8.81438 28.2857H10.5452C10.97 28.2857 11.3144 27.9659 11.3144 27.5714V23.2857C11.3144 22.1022 10.2812 21.1429 9.00669 21.1429H6.31438M6.31438 21.1429V26.8571M6.31438 21.1429V19.0046C7.76472 18.9299 8.63003 19.78 9.17153 21.1429M7.74295 29C8.13744 29 8.45724 28.6802 8.45724 28.2857C8.45724 27.8912 8.13744 27.5714 7.74295 27.5714C7.34847 27.5714 7.02867 27.8912 7.02867 28.2857C7.02867 28.6802 7.34847 29 7.74295 29Z" stroke="#111111" stroke-width="0.75" stroke-linecap="round" stroke-linejoin="round"/>
</g>
<g id="Size=16px, Filled=false">
<path id="Vector_2" d="M26.5 30C26.5 30.5523 26.0523 31 25.5 31C24.9477 31 24.5 30.5523 24.5 30C24.5 29.4477 24.9477 29 25.5 29C26.0523 29 26.5 29.4477 26.5 30ZM26.5 30H28.5M28.5 30C28.5 29.4477 28.9477 29 29.5 29C30.0523 29 30.5 29.4477 30.5 30C30.5 30.5523 30.0523 31 29.5 31C28.9477 31 28.5 30.5523 28.5 30ZM30.5 29V18.3667C30.5 17.6107 30.0667 17 29.5373 17H24.5M39.5 24.999H37.1069C36.2536 25.0294 35.5355 24.384 35.5 23.5548V20M24.5 26H30.5M26.5 24V19M28.5 24V19M36 30H38.4231C39.0178 30 39.5 29.5523 39.5 29V23C39.5 21.3431 38.0535 20 36.2692 20H32.5M32.5 20V28M32.5 20V17.0064C34.5305 16.9018 35.7419 18.0921 36.5 20M34.5 31C35.0523 31 35.5 30.5523 35.5 30C35.5 29.4477 35.0523 29 34.5 29C33.9477 29 33.5 29.4477 33.5 30C33.5 30.5523 33.9477 31 34.5 31Z" stroke="#111111" stroke-linecap="round" stroke-linejoin="round"/>
</g>
<g id="Size=20px, Filled=false">
<path id="Vector_3" d="M55.1499 31.5C55.1499 32.1904 54.5903 32.75 53.8999 32.75C53.2095 32.75 52.6499 32.1904 52.6499 31.5C52.6499 30.8096 53.2095 30.25 53.8999 30.25C54.5903 30.25 55.1499 30.8096 55.1499 31.5ZM55.1499 31.5H57.6499M57.6499 31.5C57.6499 30.8096 58.2095 30.25 58.8999 30.25C59.5903 30.25 60.1499 30.8096 60.1499 31.5C60.1499 32.1904 59.5903 32.75 58.8999 32.75C58.2095 32.75 57.6499 32.1904 57.6499 31.5ZM60.1499 30.25V16.9583C60.1499 16.0133 59.6082 15.25 58.9466 15.25H52.6499M71.3999 25.2487H68.4085C67.342 25.2868 66.4443 24.48 66.3999 23.4435V19M52.6499 26.5H60.1499M55.1499 24V17.75M57.6499 24V17.75M67.0249 31.5H70.0537C70.7972 31.5 71.3999 30.9404 71.3999 30.25V22.75C71.3999 20.6789 69.5918 19 67.3614 19H62.6499M62.6499 19V29M62.6499 19V15.258C65.188 15.1272 66.7023 16.6151 67.6499 19M65.1499 32.75C65.8403 32.75 66.3999 32.1904 66.3999 31.5C66.3999 30.8096 65.8403 30.25 65.1499 30.25C64.4595 30.25 63.8999 30.8096 63.8999 31.5C63.8999 32.1904 64.4595 32.75 65.1499 32.75Z" stroke="#111111" stroke-width="1.25" stroke-linecap="round" stroke-linejoin="round"/>
</g>
<g id="Size=24px, Filled=false">
<path id="Vector_4" d="M88.5 33C88.5 34.1046 87.6046 35 86.5 35C85.3954 35 84.5 34.1046 84.5 33C84.5 31.8954 85.3954 31 86.5 31C87.6046 31 88.5 31.8954 88.5 33ZM88.5 33H91.5M93.5 31C94.6046 31 95.5 31.8954 95.5 33C95.5 34.1046 94.6046 35 93.5 35C92.3954 35 91.5 34.1046 91.5 33M93.5 31C92.3954 31 91.5 31.8954 91.5 33M93.5 31V15.05C93.5 13.916 92.85 13 92.056 13H84.5M106.5 24.9985H103.509C102.442 25.0412 101.544 24.1376 101.5 22.9767V18M84.5 27H93.5M85.5 24V16M89.5 24V16M103.654 33H103H105.962C106.811 33 107.5 32.3284 107.5 31.5V22.5C107.5 20.0147 105.434 18 102.885 18H97.5M97.5 18V30M97.5 18V14.0085C100.038 13.8691 101.552 15.4561 102.5 18M100.5 35C101.605 35 102.5 34.1046 102.5 33C102.5 31.8954 101.605 31 100.5 31C99.3954 31 98.5 31.8954 98.5 33C98.5 34.1046 99.3954 35 100.5 35Z" stroke="#111111" stroke-width="1.5" stroke-linecap="round" stroke-linejoin="round"/>
</g>
<g id="Size=32px, Filled=false">
<path id="Vector_5" d="M125 36C125 37.1046 124.105 38 123 38C121.895 38 121 37.1046 121 36C121 34.8954 121.895 34 123 34C124.105 34 125 34.8954 125 36ZM125 36H129M129 36C129 34.8954 129.895 34 131 34C132.105 34 133 34.8954 133 36C133 37.1046 132.105 38 131 38C129.895 38 129 37.1046 129 36ZM133 34V12.7333C133 11.2213 132.133 10 131.075 10H121M151 25.9979H146.214C144.507 26.0589 143.071 24.768 143 23.1096V16M121 28H133M125 24V14M129 24V14M144 36H148.846C150.036 36 151 35.1046 151 34V22C151 18.6863 148.107 16 144.538 16H137M137 16V32M137 16V10.0127C141.061 9.80359 143.484 12.1841 145 16M141 38C142.105 38 143 37.1046 143 36C143 34.8954 142.105 34 141 34C139.895 34 139 34.8954 139 36C139 37.1046 139.895 38 141 38Z" stroke="#111111" stroke-width="2" stroke-linecap="round" stroke-linejoin="round"/>
</g>
<g id="Size=40px, Filled=false">
<path id="Vector_6" d="M170.25 39C170.25 40.3807 169.131 41.5 167.75 41.5C166.369 41.5 165.25 40.3807 165.25 39C165.25 37.6193 166.369 36.5 167.75 36.5C169.131 36.5 170.25 37.6193 170.25 39ZM170.25 39H175.25M175.25 39C175.25 37.6193 176.369 36.5 177.75 36.5C179.131 36.5 180.25 37.6193 180.25 39C180.25 40.3807 179.131 41.5 177.75 41.5C176.369 41.5 175.25 40.3807 175.25 39ZM180.25 36.5V9.91667C180.25 8.02667 179.167 6.5 177.843 6.5H165.25M202.75 26.4974H196.767C194.634 26.5736 192.839 24.96 192.75 22.887V14M165.25 29H180.25M170.25 24V11.5M175.25 24V11.5M194 39H200.058C201.545 39 202.75 37.8807 202.75 36.5V21.5C202.75 17.3579 199.134 14 194.673 14H185.25M185.25 14V34M185.25 14V6.51593C190.326 6.25449 193.355 9.23015 195.25 14M190.25 41.5C191.631 41.5 192.75 40.3807 192.75 39C192.75 37.6193 191.631 36.5 190.25 36.5C188.869 36.5 187.75 37.6193 187.75 39C187.75 40.3807 188.869 41.5 190.25 41.5Z" stroke="#111111" stroke-width="2.5" stroke-linecap="round" stroke-linejoin="round"/>
</g>
<g id="Size=48px, Filled=false">
<path id="Vector_7" d="M223.5 42C223.5 43.6569 222.157 45 220.5 45C218.843 45 217.5 43.6569 217.5 42C217.5 40.3431 218.843 39 220.5 39C222.157 39 223.5 40.3431 223.5 42ZM223.5 42H229.5M229.5 42C229.5 40.3431 230.843 39 232.5 39C234.157 39 235.5 40.3431 235.5 42C235.5 43.6569 234.157 45 232.5 45C230.843 45 229.5 43.6569 229.5 42ZM235.5 39V7.1C235.5 4.832 234.2 3 232.612 3H217.5M262.5 26.9969H255.321C252.761 27.0883 250.606 25.152 250.5 22.6645V12M217.5 30H235.5M223.5 24V9M229.5 24V9M252 42H259.269C261.054 42 262.5 40.6569 262.5 39V21C262.5 16.0294 258.161 12 252.808 12H241.5M241.5 12V36M241.5 12V3.01912C247.591 2.70539 251.226 6.27619 253.5 12M247.5 45C249.157 45 250.5 43.6569 250.5 42C250.5 40.3431 249.157 39 247.5 39C245.843 39 244.5 40.3431 244.5 42C244.5 43.6569 245.843 45 247.5 45Z" stroke="#111111" stroke-width="3" stroke-linecap="round" stroke-linejoin="round"/>
</g>
<g id="Size=12px, Filled=true">
<g id="Vector_8">
<path fill-rule="evenodd" clip-rule="evenodd" d="M10.11 80.08C10.0797 80.0732 10.053 80.0554 10.035 80.03L9.66505 79.5C9.00005 78.5 7.32005 78.5 7.25005 78.5C7.11744 78.5 6.99026 78.5527 6.89649 78.6464C6.80272 78.7402 6.75005 78.8674 6.75005 79V85.5C6.75005 85.569 6.72265 85.6351 6.67389 85.6838C6.62513 85.7326 6.559 85.76 6.49005 85.76H0.250046C0.185439 85.7599 0.12332 85.7849 0.076713 85.8297C0.030106 85.8744 0.0026303 85.9354 4.60216e-05 86V87.135C-0.000579871 87.1576 0.00518919 87.1799 0.0166888 87.1994C0.0281885 87.2188 0.044951 87.2346 0.065046 87.245C0.0844253 87.2575 0.106992 87.2641 0.130046 87.2641C0.1531 87.2641 0.175667 87.2575 0.195046 87.245C0.433648 87.0864 0.713528 87.0012 1.00005 87C1.33706 87.0011 1.6639 87.1156 1.92786 87.3252C2.19183 87.5347 2.37753 87.827 2.45505 88.155C2.46243 88.1815 2.47802 88.205 2.49958 88.222C2.52115 88.2391 2.54757 88.2489 2.57505 88.25H2.92505C2.95253 88.2489 2.97895 88.2391 3.00051 88.222C3.02207 88.205 3.03766 88.1815 3.04505 88.155C3.12256 87.827 3.30827 87.5347 3.57223 87.3252C3.83619 87.1156 4.16303 87.0011 4.50005 87C4.75506 87.0014 5.0055 87.0678 5.22772 87.1929C5.44994 87.318 5.63659 87.4977 5.77005 87.715C5.80005 87.76 5.82505 87.765 5.91005 87.765H6.50005C6.56065 87.7663 6.61841 87.7909 6.66127 87.8338C6.70413 87.8766 6.72877 87.9344 6.73005 87.995C6.73005 88.1276 6.78272 88.2548 6.87649 88.3486C6.97026 88.4423 7.09744 88.495 7.23005 88.495H7.36005C7.39154 88.4951 7.4219 88.4833 7.44508 88.462C7.46825 88.4407 7.48253 88.4114 7.48505 88.38C7.48505 87.9822 7.64308 87.6006 7.92439 87.3193C8.20569 87.038 8.58722 86.88 8.98505 86.88C9.38287 86.88 9.7644 87.038 10.0457 87.3193C10.327 87.6006 10.485 87.9822 10.485 88.38C10.4876 88.4114 10.5018 88.4407 10.525 88.462C10.5482 88.4833 10.5786 88.4951 10.61 88.495H11C11.2653 88.495 11.5196 88.3896 11.7072 88.2021C11.8947 88.0146 12 87.7602 12 87.495V82.5C11.9991 81.9439 11.8127 81.4039 11.4704 80.9656C11.128 80.5273 10.6494 80.2157 10.11 80.08ZM11.11 83.865C11.1121 83.8812 11.1109 83.8976 11.1064 83.9132C11.102 83.9289 11.0944 83.9435 11.0841 83.9561C11.0738 83.9688 11.061 83.9792 11.0466 83.9867C11.0321 83.9943 11.0163 83.9988 11 84H9.62505C9.6063 84.0004 9.58771 83.9965 9.57064 83.9888C9.55358 83.981 9.53849 83.9695 9.52649 83.955C9.51448 83.9406 9.50587 83.9237 9.5013 83.9055C9.49672 83.8874 9.49629 83.8684 9.50005 83.85V81.13C9.49963 81.113 9.50301 81.0961 9.50992 81.0805C9.51684 81.0649 9.52713 81.0511 9.54005 81.04C9.55232 81.0272 9.56707 81.0171 9.58341 81.0102C9.59975 81.0033 9.61732 80.9998 9.63505 81C10.0237 81.0279 10.3892 81.1948 10.6647 81.4703C10.9402 81.7458 11.1072 82.1114 11.135 82.5L11.11 83.865Z" fill="#111111"/>
<path fill-rule="evenodd" clip-rule="evenodd" d="M5.25 78.75H0.25C0.183696 78.75 0.120107 78.7763 0.0732233 78.8232C0.0263392 78.8701 0 78.9337 0 79V84.75C0 84.8163 0.0263392 84.8799 0.0732233 84.9268C0.120107 84.9736 0.183696 85 0.25 85H5.75C5.8163 85 5.87989 84.9736 5.92678 84.9268C5.97366 84.8799 6 84.8163 6 84.75V79.345C5.97868 79.167 5.88791 79.0046 5.74745 78.8931C5.60699 78.7817 5.4282 78.7303 5.25 78.75ZM4.5 80.5V83.25C4.5 83.3494 4.46049 83.4448 4.39016 83.5151C4.31984 83.5855 4.22446 83.625 4.125 83.625C4.02554 83.625 3.93016 83.5855 3.85983 83.5151C3.78951 83.4448 3.75 83.3494 3.75 83.25V80.5C3.75 80.4005 3.78951 80.3051 3.85983 80.2348C3.93016 80.1645 4.02554 80.125 4.125 80.125C4.22446 80.125 4.31984 80.1645 4.39016 80.2348C4.46049 80.3051 4.5 80.4005 4.5 80.5ZM2.25 80.5V83.25C2.25 83.3494 2.21049 83.4448 2.14017 83.5151C2.06984 83.5855 1.97446 83.625 1.875 83.625C1.77554 83.625 1.68016 83.5855 1.60983 83.5151C1.53951 83.4448 1.5 83.3494 1.5 83.25V80.5C1.5 80.4005 1.53951 80.3051 1.60983 80.2348C1.68016 80.1645 1.77554 80.125 1.875 80.125C1.97446 80.125 2.06984 80.1645 2.14017 80.2348C2.21049 80.3051 2.25 80.4005 2.25 80.5Z" fill="#111111"/>
<path d="M2 88.5C2 89.0523 1.55228 89.5 1 89.5C0.447715 89.5 0 89.0523 0 88.5C0 87.9477 0.447715 87.5 1 87.5C1.55228 87.5 2 87.9477 2 88.5Z" fill="#111111"/>
<path d="M4.5 89.5C5.05228 89.5 5.5 89.0523 5.5 88.5C5.5 87.9477 5.05228 87.5 4.5 87.5C3.94772 87.5 3.5 87.9477 3.5 88.5C3.5 89.0523 3.94772 89.5 4.5 89.5Z" fill="#111111"/>
<path d="M10 88.5C10 89.0523 9.55228 89.5 9 89.5C8.44771 89.5 8 89.0523 8 88.5C8 87.9477 8.44771 87.5 9 87.5C9.55228 87.5 10 87.9477 10 88.5Z" fill="#111111"/>
</g>
</g>
<g id="Size=16px, Filled=true">
<g id="Vector_9">
<path fill-rule="evenodd" clip-rule="evenodd" d="M37.4801 78.7733C37.4396 78.7643 37.4039 78.7405 37.3801 78.7067L36.8867 78C36.0001 76.6667 33.7601 76.6667 33.6667 76.6667C33.4899 76.6667 33.3203 76.7369 33.1953 76.8619C33.0703 76.9869 33.0001 77.1565 33.0001 77.3333V86C33.0001 86.0919 32.9635 86.1801 32.8985 86.2451C32.8335 86.3101 32.7453 86.3467 32.6534 86.3467H24.3334C24.2473 86.3466 24.1644 86.3799 24.1023 86.4395C24.0401 86.4992 24.0035 86.5806 24.0001 86.6667V88.18C23.9992 88.2101 24.0069 88.2399 24.0223 88.2658C24.0376 88.2918 24.0599 88.3129 24.0867 88.3267C24.1126 88.3433 24.1427 88.3522 24.1734 88.3522C24.2041 88.3522 24.2342 88.3433 24.2601 88.3267C24.5782 88.1152 24.9514 88.0016 25.3334 88C25.7828 88.0014 26.2185 88.1541 26.5705 88.4335C26.9224 88.7129 27.17 89.1027 27.2734 89.54C27.2832 89.5753 27.304 89.6066 27.3328 89.6294C27.3615 89.6521 27.3968 89.6652 27.4334 89.6667H27.9001C27.9367 89.6652 27.9719 89.6521 28.0007 89.6294C28.0294 89.6066 28.0502 89.5753 28.0601 89.54C28.1634 89.1027 28.411 88.7129 28.763 88.4335C29.1149 88.1541 29.5507 88.0014 30.0001 88C30.3401 88.0019 30.674 88.0904 30.9703 88.2572C31.2666 88.424 31.5155 88.6636 31.6934 88.9533C31.7334 89.0133 31.7667 89.02 31.8801 89.02H32.6667C32.7475 89.0217 32.8245 89.0545 32.8817 89.1117C32.9388 89.1688 32.9717 89.2459 32.9734 89.3267C32.9734 89.5035 33.0436 89.673 33.1687 89.7981C33.2937 89.9231 33.4633 89.9933 33.6401 89.9933H33.8134C33.8554 89.9935 33.8959 89.9777 33.9268 89.9493C33.9577 89.9209 33.9767 89.8818 33.9801 89.84C33.9801 89.3096 34.1908 88.8008 34.5658 88.4258C34.9409 88.0507 35.4496 87.84 35.9801 87.84C36.5105 87.84 37.0192 88.0507 37.3943 88.4258C37.7693 88.8008 37.9801 89.3096 37.9801 89.84C37.9834 89.8818 38.0025 89.9209 38.0334 89.9493C38.0642 89.9777 38.1047 89.9935 38.1467 89.9933H38.6667C39.0204 89.9933 39.3595 89.8528 39.6095 89.6028C39.8596 89.3528 40.0001 89.0136 40.0001 88.66V82C39.9987 81.2585 39.7502 80.5386 39.2938 79.9542C38.8374 79.3698 38.1992 78.9543 37.4801 78.7733ZM38.8134 83.82C38.8162 83.8415 38.8145 83.8634 38.8086 83.8843C38.8026 83.9052 38.7925 83.9247 38.7787 83.9415C38.765 83.9584 38.748 83.9722 38.7288 83.9823C38.7095 83.9923 38.6884 83.9984 38.6667 84H36.8334C36.8084 84.0005 36.7836 83.9954 36.7609 83.985C36.7381 83.9746 36.718 83.9593 36.702 83.9401C36.686 83.9208 36.6745 83.8983 36.6684 83.874C36.6623 83.8498 36.6617 83.8245 36.6667 83.8V80.1733C36.6662 80.1506 36.6707 80.1281 36.6799 80.1073C36.6891 80.0866 36.7028 80.0681 36.7201 80.0533C36.7364 80.0363 36.7561 80.0227 36.7779 80.0136C36.7997 80.0044 36.8231 79.9998 36.8467 80C37.3649 80.0371 37.8523 80.2598 38.2196 80.6271C38.5869 80.9944 38.8096 81.4818 38.8467 82L38.8134 83.82Z" fill="#111111"/>
<path fill-rule="evenodd" clip-rule="evenodd" d="M31 77H24.3333C24.2449 77 24.1601 77.0351 24.0976 77.0976C24.0351 77.1601 24 77.2449 24 77.3333V85C24 85.0884 24.0351 85.1732 24.0976 85.2357C24.1601 85.2982 24.2449 85.3333 24.3333 85.3333H31.6667C31.7551 85.3333 31.8399 85.2982 31.9024 85.2357C31.9649 85.1732 32 85.0884 32 85V77.7933C31.9716 77.5559 31.8505 77.3394 31.6633 77.1908C31.476 77.0423 31.2376 76.9737 31 77ZM30 79.3333V83C30 83.1326 29.9473 83.2597 29.8536 83.3535C29.7598 83.4473 29.6326 83.5 29.5 83.5C29.3674 83.5 29.2402 83.4473 29.1464 83.3535C29.0527 83.2597 29 83.1326 29 83V79.3333C29 79.2007 29.0527 79.0735 29.1464 78.9797C29.2402 78.886 29.3674 78.8333 29.5 78.8333C29.6326 78.8333 29.7598 78.886 29.8536 78.9797C29.9473 79.0735 30 79.2007 30 79.3333ZM27 79.3333V83C27 83.1326 26.9473 83.2597 26.8536 83.3535C26.7598 83.4473 26.6326 83.5 26.5 83.5C26.3674 83.5 26.2402 83.4473 26.1464 83.3535C26.0527 83.2597 26 83.1326 26 83V79.3333C26 79.2007 26.0527 79.0735 26.1464 78.9797C26.2402 78.886 26.3674 78.8333 26.5 78.8333C26.6326 78.8333 26.7598 78.886 26.8536 78.9797C26.9473 79.0735 27 79.2007 27 79.3333Z" fill="#111111"/>
<path d="M26.6667 90C26.6667 90.7364 26.0697 91.3333 25.3333 91.3333C24.597 91.3333 24 90.7364 24 90C24 89.2636 24.597 88.6667 25.3333 88.6667C26.0697 88.6667 26.6667 89.2636 26.6667 90Z" fill="#111111"/>
<path d="M30 91.3333C30.7364 91.3333 31.3333 90.7364 31.3333 90C31.3333 89.2636 30.7364 88.6667 30 88.6667C29.2636 88.6667 28.6667 89.2636 28.6667 90C28.6667 90.7364 29.2636 91.3333 30 91.3333Z" fill="#111111"/>
<path d="M37.3333 90C37.3333 90.7364 36.7364 91.3333 36 91.3333C35.2636 91.3333 34.6667 90.7364 34.6667 90C34.6667 89.2636 35.2636 88.6667 36 88.6667C36.7364 88.6667 37.3333 89.2636 37.3333 90Z" fill="#111111"/>
</g>
</g>
<g id="Size=20px, Filled=true">
<g id="Vector_10">
<path fill-rule="evenodd" clip-rule="evenodd" d="M68.8501 77.4667C68.7995 77.4554 68.7549 77.4257 68.7251 77.3833L68.1084 76.5C67.0001 74.8333 64.2001 74.8333 64.0834 74.8333C63.8624 74.8333 63.6504 74.9211 63.4942 75.0774C63.3379 75.2337 63.2501 75.4457 63.2501 75.6667V86.5C63.2501 86.6149 63.2044 86.7252 63.1232 86.8064C63.0419 86.8877 62.9317 86.9333 62.8167 86.9333H52.4167C52.3091 86.9333 52.2055 86.9749 52.1279 87.0494C52.0502 87.124 52.0044 87.2258 52.0001 87.3333V89.225C51.999 89.2627 52.0086 89.2999 52.0278 89.3323C52.047 89.3647 52.0749 89.3911 52.1084 89.4083C52.1407 89.4292 52.1783 89.4402 52.2167 89.4402C52.2552 89.4402 52.2928 89.4292 52.3251 89.4083C52.7227 89.144 53.1892 89.002 53.6667 89C54.2284 89.0018 54.7732 89.1927 55.2131 89.5419C55.653 89.8912 55.9626 90.3784 56.0917 90.925C56.104 90.9692 56.13 91.0083 56.166 91.0367C56.2019 91.0652 56.2459 91.0815 56.2917 91.0833H56.8751C56.9209 91.0815 56.9649 91.0652 57.0008 91.0367C57.0368 91.0083 57.0628 90.9692 57.0751 90.925C57.2043 90.3784 57.5138 89.8912 57.9537 89.5419C58.3937 89.1927 58.9384 89.0018 59.5001 89C59.9251 89.0023 60.3425 89.113 60.7129 89.3215C61.0832 89.53 61.3943 89.8295 61.6167 90.1917C61.6667 90.2667 61.7084 90.275 61.8501 90.275H62.8334C62.9344 90.2771 63.0307 90.3182 63.1021 90.3896C63.1735 90.4611 63.2146 90.5573 63.2167 90.6583C63.2167 90.8794 63.3045 91.0913 63.4608 91.2476C63.6171 91.4039 63.8291 91.4917 64.0501 91.4917H64.2667C64.3192 91.4918 64.3698 91.4722 64.4085 91.4367C64.4471 91.4011 64.4709 91.3523 64.4751 91.3C64.4751 90.637 64.7385 90.0011 65.2073 89.5322C65.6762 89.0634 66.312 88.8 66.9751 88.8C67.6381 88.8 68.274 89.0634 68.7428 89.5322C69.2117 90.0011 69.4751 90.637 69.4751 91.3C69.4793 91.3523 69.5031 91.4011 69.5417 91.4367C69.5803 91.4722 69.6309 91.4918 69.6834 91.4917H70.3334C70.7754 91.4917 71.1994 91.3161 71.5119 91.0035C71.8245 90.691 72.0001 90.267 72.0001 89.825V81.5C71.9984 80.5731 71.6878 79.6733 71.1173 78.9428C70.5467 78.2123 69.7489 77.6928 68.8501 77.4667ZM70.5167 83.775C70.5202 83.8019 70.5182 83.8293 70.5107 83.8554C70.5033 83.8815 70.4906 83.9059 70.4734 83.9269C70.4563 83.948 70.435 83.9653 70.4109 83.9779C70.3869 83.9904 70.3605 83.998 70.3334 84H68.0417C68.0105 84.0006 67.9795 83.9942 67.9511 83.9813C67.9226 83.9683 67.8975 83.9491 67.8775 83.9251C67.8575 83.9011 67.8431 83.8729 67.8355 83.8426C67.8279 83.8123 67.8272 83.7806 67.8334 83.75V79.2167C67.8327 79.1883 67.8383 79.1601 67.8499 79.1342C67.8614 79.1082 67.8785 79.0852 67.9001 79.0667C67.9205 79.0454 67.9451 79.0284 67.9724 79.017C67.9996 79.0055 68.0289 78.9997 68.0584 79C68.7061 79.0464 69.3154 79.3247 69.7745 79.7839C70.2337 80.2431 70.512 80.8523 70.5584 81.5L70.5167 83.775Z" fill="#111111"/>
<path fill-rule="evenodd" clip-rule="evenodd" d="M60.75 75.25H52.4167C52.3062 75.25 52.2002 75.2939 52.122 75.372C52.0439 75.4502 52 75.5561 52 75.6666V85.25C52 85.3605 52.0439 85.4665 52.122 85.5446C52.2002 85.6227 52.3062 85.6666 52.4167 85.6666H61.5833C61.6938 85.6666 61.7998 85.6227 61.878 85.5446C61.9561 85.4665 62 85.3605 62 85.25V76.2416C61.9645 75.9449 61.8132 75.6743 61.5791 75.4886C61.345 75.3028 61.047 75.2171 60.75 75.25ZM59.5 78.1666V82.75C59.5 82.9157 59.4342 83.0747 59.3169 83.1919C59.1997 83.3091 59.0408 83.375 58.875 83.375C58.7092 83.375 58.5503 83.3091 58.4331 83.1919C58.3158 83.0747 58.25 82.9157 58.25 82.75V78.1666C58.25 78.0009 58.3158 77.8419 58.4331 77.7247C58.5503 77.6075 58.7092 77.5416 58.875 77.5416C59.0408 77.5416 59.1997 77.6075 59.3169 77.7247C59.4342 77.8419 59.5 78.0009 59.5 78.1666ZM55.75 78.1666V82.75C55.75 82.9157 55.6842 83.0747 55.5669 83.1919C55.4497 83.3091 55.2908 83.375 55.125 83.375C54.9592 83.375 54.8003 83.3091 54.6831 83.1919C54.5658 83.0747 54.5 82.9157 54.5 82.75V78.1666C54.5 78.0009 54.5658 77.8419 54.6831 77.7247C54.8003 77.6075 54.9592 77.5416 55.125 77.5416C55.2908 77.5416 55.4497 77.6075 55.5669 77.7247C55.6842 77.8419 55.75 78.0009 55.75 78.1666Z" fill="#111111"/>
<path d="M55.3333 91.5C55.3333 92.4205 54.5871 93.1667 53.6667 93.1667C52.7462 93.1667 52 92.4205 52 91.5C52 90.5795 52.7462 89.8333 53.6667 89.8333C54.5871 89.8333 55.3333 90.5795 55.3333 91.5Z" fill="#111111"/>
<path d="M59.5 93.1667C60.4205 93.1667 61.1667 92.4205 61.1667 91.5C61.1667 90.5795 60.4205 89.8333 59.5 89.8333C58.5795 89.8333 57.8333 90.5795 57.8333 91.5C57.8333 92.4205 58.5795 93.1667 59.5 93.1667Z" fill="#111111"/>
<path d="M68.6667 91.5C68.6667 92.4205 67.9205 93.1667 67 93.1667C66.0795 93.1667 65.3333 92.4205 65.3333 91.5C65.3333 90.5795 66.0795 89.8333 67 89.8333C67.9205 89.8333 68.6667 90.5795 68.6667 91.5Z" fill="#111111"/>
</g>
</g>
<g id="Size=24px, Filled=true">
<g id="Vector_11">
<path fill-rule="evenodd" clip-rule="evenodd" d="M104.22 76.16C104.159 76.1465 104.106 76.1108 104.07 76.06L103.33 75C102 73 98.6401 73 98.5001 73C98.2349 73 97.9805 73.1054 97.793 73.2929C97.6054 73.4804 97.5001 73.7348 97.5001 74V87C97.5001 87.1379 97.4453 87.2702 97.3478 87.3677C97.2503 87.4652 97.118 87.52 96.9801 87.52H84.5001C84.3709 87.5199 84.2466 87.5698 84.1534 87.6593C84.0602 87.7488 84.0053 87.8709 84.0001 88V90.27C83.9988 90.3152 84.0104 90.3598 84.0334 90.3987C84.0564 90.4377 84.0899 90.4693 84.1301 90.49C84.1689 90.515 84.214 90.5283 84.2601 90.5283C84.3062 90.5283 84.3513 90.515 84.3901 90.49C84.8673 90.1727 85.4271 90.0024 86.0001 90C86.6741 90.0022 87.3278 90.2312 87.8557 90.6503C88.3837 91.0694 88.7551 91.654 88.9101 92.31C88.9249 92.363 88.956 92.4099 88.9992 92.4441C89.0423 92.4782 89.0951 92.4978 89.1501 92.5H89.8501C89.9051 92.4978 89.9579 92.4782 90.001 92.4441C90.0441 92.4099 90.0753 92.363 90.0901 92.31C90.2451 91.654 90.6165 91.0694 91.1445 90.6503C91.6724 90.2312 92.3261 90.0022 93.0001 90C93.5101 90.0028 94.011 90.1356 94.4554 90.3858C94.8999 90.636 95.2732 90.9954 95.5401 91.43C95.6001 91.52 95.6501 91.53 95.8201 91.53H97.0001C97.1213 91.5326 97.2368 91.5818 97.3225 91.6676C97.4083 91.7533 97.4575 91.8688 97.4601 91.99C97.4601 92.2552 97.5654 92.5096 97.753 92.6971C97.9405 92.8846 98.1949 92.99 98.4601 92.99H98.7201C98.7831 92.9902 98.8438 92.9666 98.8902 92.924C98.9365 92.8813 98.9651 92.8228 98.9701 92.76C98.9701 91.9644 99.2862 91.2013 99.8488 90.6387C100.411 90.0761 101.174 89.76 101.97 89.76C102.766 89.76 103.529 90.0761 104.091 90.6387C104.654 91.2013 104.97 91.9644 104.97 92.76C104.975 92.8228 105.004 92.8813 105.05 92.924C105.096 92.9666 105.157 92.9902 105.22 92.99H106C106.531 92.99 107.039 92.7793 107.414 92.4042C107.789 92.0291 108 91.5204 108 90.99V81C107.998 79.8877 107.625 78.8079 106.941 77.9313C106.256 77.0547 105.299 76.4314 104.22 76.16ZM106.22 83.73C106.224 83.7623 106.222 83.7951 106.213 83.8265C106.204 83.8578 106.189 83.887 106.168 83.9123C106.148 83.9375 106.122 83.9583 106.093 83.9734C106.064 83.9885 106.033 83.9976 106 84H103.25C103.213 84.0008 103.175 83.9931 103.141 83.9775C103.107 83.9619 103.077 83.9389 103.053 83.9101C103.029 83.8813 103.012 83.8474 103.003 83.8111C102.993 83.7747 102.993 83.7367 103 83.7V78.26C102.999 78.2259 103.006 78.1921 103.02 78.161C103.034 78.1299 103.054 78.1022 103.08 78.08C103.105 78.0544 103.134 78.0341 103.167 78.0204C103.199 78.0066 103.235 77.9997 103.27 78C104.047 78.0557 104.778 78.3897 105.329 78.9407C105.88 79.4917 106.214 80.2228 106.27 81L106.22 83.73Z" fill="#111111"/>
<path fill-rule="evenodd" clip-rule="evenodd" d="M94.5 73.5H84.5C84.3674 73.5 84.2402 73.5526 84.1464 73.6464C84.0527 73.7402 84 73.8674 84 74V85.5C84 85.6326 84.0527 85.7597 84.1464 85.8535C84.2402 85.9473 84.3674 86 84.5 86H95.5C95.6326 86 95.7598 85.9473 95.8536 85.8535C95.9473 85.7597 96 85.6326 96 85.5V74.69C95.9574 74.3339 95.7758 74.0091 95.4949 73.7863C95.214 73.5634 94.8564 73.4605 94.5 73.5ZM93 77V82.5C93 82.6989 92.921 82.8896 92.7803 83.0303C92.6397 83.1709 92.4489 83.25 92.25 83.25C92.0511 83.25 91.8603 83.1709 91.7197 83.0303C91.579 82.8896 91.5 82.6989 91.5 82.5V77C91.5 76.8011 91.579 76.6103 91.7197 76.4696C91.8603 76.329 92.0511 76.25 92.25 76.25C92.4489 76.25 92.6397 76.329 92.7803 76.4696C92.921 76.6103 93 76.8011 93 77ZM88.5 77V82.5C88.5 82.6989 88.421 82.8896 88.2803 83.0303C88.1397 83.1709 87.9489 83.25 87.75 83.25C87.5511 83.25 87.3603 83.1709 87.2197 83.0303C87.079 82.8896 87 82.6989 87 82.5V77C87 76.8011 87.079 76.6103 87.2197 76.4696C87.3603 76.329 87.5511 76.25 87.75 76.25C87.9489 76.25 88.1397 76.329 88.2803 76.4696C88.421 76.6103 88.5 76.8011 88.5 77Z" fill="#111111"/>
<path d="M88 93C88 94.1046 87.1046 95 86 95C84.8954 95 84 94.1046 84 93C84 91.8954 84.8954 91 86 91C87.1046 91 88 91.8954 88 93Z" fill="#111111"/>
<path d="M93 95C94.1046 95 95 94.1046 95 93C95 91.8954 94.1046 91 93 91C91.8954 91 91 91.8954 91 93C91 94.1046 91.8954 95 93 95Z" fill="#111111"/>
<path d="M104 93C104 94.1046 103.105 95 102 95C100.895 95 100 94.1046 100 93C100 91.8954 100.895 91 102 91C103.105 91 104 91.8954 104 93Z" fill="#111111"/>
</g>
</g>
<g id="Size=32px, Filled=true">
<g id="Vector_12">
<path fill-rule="evenodd" clip-rule="evenodd" d="M146.96 73.5467C146.879 73.5287 146.808 73.4811 146.76 73.4133L145.773 72C144 69.3333 139.52 69.3333 139.333 69.3333C138.98 69.3333 138.641 69.4738 138.391 69.7239C138.141 69.9739 138 70.3131 138 70.6667V88C138 88.1839 137.927 88.3602 137.797 88.4903C137.667 88.6203 137.491 88.6933 137.307 88.6933H120.667C120.495 88.6932 120.329 88.7598 120.205 88.8791C120.08 88.9984 120.007 89.1612 120 89.3333V92.36C119.998 92.4203 120.014 92.4798 120.045 92.5317C120.075 92.5836 120.12 92.6257 120.173 92.6533C120.225 92.6866 120.285 92.7044 120.347 92.7044C120.408 92.7044 120.468 92.6866 120.52 92.6533C121.156 92.2303 121.903 92.0032 122.667 92C123.566 92.0029 124.437 92.3083 125.141 92.8671C125.845 93.4258 126.34 94.2054 126.547 95.08C126.566 95.1507 126.608 95.2132 126.666 95.2588C126.723 95.3043 126.794 95.3304 126.867 95.3333H127.8C127.873 95.3304 127.944 95.3043 128.001 95.2588C128.059 95.2132 128.1 95.1507 128.12 95.08C128.327 94.2054 128.822 93.4258 129.526 92.8671C130.23 92.3083 131.101 92.0029 132 92C132.68 92.0037 133.348 92.1808 133.941 92.5144C134.533 92.848 135.031 93.3272 135.387 93.9067C135.467 94.0267 135.533 94.04 135.76 94.04H137.333C137.495 94.0434 137.649 94.1091 137.763 94.2234C137.878 94.3377 137.943 94.4917 137.947 94.6533C137.947 95.007 138.087 95.3461 138.337 95.5962C138.587 95.8462 138.927 95.9867 139.28 95.9867H139.627C139.711 95.9869 139.792 95.9555 139.854 95.8987C139.915 95.8418 139.953 95.7637 139.96 95.68C139.96 94.6191 140.382 93.6017 141.132 92.8516C141.882 92.1014 142.899 91.68 143.96 91.68C145.021 91.68 146.038 92.1014 146.789 92.8516C147.539 93.6017 147.96 94.6191 147.96 95.68C147.967 95.7637 148.005 95.8418 148.067 95.8987C148.128 95.9555 148.209 95.9869 148.293 95.9867H149.333C150.041 95.9867 150.719 95.7057 151.219 95.2056C151.719 94.7055 152 94.0273 152 93.32V80C151.997 78.517 151.5 77.0772 150.588 75.9084C149.675 74.7396 148.398 73.9085 146.96 73.5467ZM149.627 83.64C149.632 83.6831 149.629 83.7269 149.617 83.7687C149.605 83.8104 149.585 83.8494 149.557 83.8831C149.53 83.9167 149.496 83.9445 149.458 83.9646C149.419 83.9847 149.377 83.9967 149.333 84H145.667C145.617 84.001 145.567 83.9908 145.522 83.97C145.476 83.9493 145.436 83.9186 145.404 83.8801C145.372 83.8417 145.349 83.7966 145.337 83.7481C145.325 83.6996 145.323 83.649 145.333 83.6V76.3467C145.332 76.3013 145.341 76.2562 145.36 76.2147C145.378 76.1732 145.406 76.1363 145.44 76.1067C145.473 76.0726 145.512 76.0455 145.556 76.0272C145.599 76.0088 145.646 75.9996 145.693 76C146.73 76.0743 147.705 76.5196 148.439 77.2542C149.174 77.9889 149.619 78.9637 149.693 80L149.627 83.64Z" fill="#111111"/>
<path fill-rule="evenodd" clip-rule="evenodd" d="M134 70H120.667C120.49 70 120.32 70.0702 120.195 70.1952C120.07 70.3202 120 70.4898 120 70.6666V86C120 86.1768 120.07 86.3463 120.195 86.4714C120.32 86.5964 120.49 86.6666 120.667 86.6666H135.333C135.51 86.6666 135.68 86.5964 135.805 86.4714C135.93 86.3463 136 86.1768 136 86V71.5866C135.943 71.1119 135.701 70.6788 135.327 70.3817C134.952 70.0845 134.475 69.9473 134 70ZM132 74.6666V82C132 82.2652 131.895 82.5195 131.707 82.7071C131.52 82.8946 131.265 83 131 83C130.735 83 130.48 82.8946 130.293 82.7071C130.105 82.5195 130 82.2652 130 82V74.6666C130 74.4014 130.105 74.1471 130.293 73.9595C130.48 73.772 130.735 73.6666 131 73.6666C131.265 73.6666 131.52 73.772 131.707 73.9595C131.895 74.1471 132 74.4014 132 74.6666ZM126 74.6666V82C126 82.2652 125.895 82.5195 125.707 82.7071C125.52 82.8946 125.265 83 125 83C124.735 83 124.48 82.8946 124.293 82.7071C124.105 82.5195 124 82.2652 124 82V74.6666C124 74.4014 124.105 74.1471 124.293 73.9595C124.48 73.772 124.735 73.6666 125 73.6666C125.265 73.6666 125.52 73.772 125.707 73.9595C125.895 74.1471 126 74.4014 126 74.6666Z" fill="#111111"/>
<path d="M125.333 96C125.333 97.4728 124.139 98.6667 122.667 98.6667C121.194 98.6667 120 97.4728 120 96C120 94.5273 121.194 93.3333 122.667 93.3333C124.139 93.3333 125.333 94.5273 125.333 96Z" fill="#111111"/>
<path d="M132 98.6667C133.473 98.6667 134.667 97.4728 134.667 96C134.667 94.5273 133.473 93.3333 132 93.3333C130.527 93.3333 129.333 94.5273 129.333 96C129.333 97.4728 130.527 98.6667 132 98.6667Z" fill="#111111"/>
<path d="M146.667 96C146.667 97.4728 145.473 98.6667 144 98.6667C142.527 98.6667 141.333 97.4728 141.333 96C141.333 94.5273 142.527 93.3333 144 93.3333C145.473 93.3333 146.667 94.5273 146.667 96Z" fill="#111111"/>
</g>
</g>
<g id="Size=40px, Filled=true">
<g id="Vector_13">
<path fill-rule="evenodd" clip-rule="evenodd" d="M197.7 70.9333C197.599 70.9108 197.51 70.8514 197.45 70.7667L196.217 69C194 65.6667 188.4 65.6667 188.167 65.6667C187.725 65.6667 187.301 65.8423 186.988 66.1548C186.676 66.4674 186.5 66.8913 186.5 67.3333V89C186.5 89.2298 186.409 89.4503 186.246 89.6128C186.084 89.7753 185.863 89.8667 185.633 89.8667H164.833C164.618 89.8665 164.411 89.9497 164.256 90.0988C164.1 90.248 164.009 90.4515 164 90.6667V94.45C163.998 94.5253 164.017 94.5997 164.056 94.6646C164.094 94.7294 164.15 94.7822 164.217 94.8167C164.281 94.8583 164.357 94.8804 164.433 94.8804C164.51 94.8804 164.586 94.8583 164.65 94.8167C165.445 94.2879 166.378 94.004 167.333 94C168.457 94.0036 169.546 94.3854 170.426 95.0838C171.306 95.7823 171.925 96.7567 172.183 97.85C172.208 97.9383 172.26 98.0165 172.332 98.0734C172.404 98.1303 172.492 98.163 172.583 98.1667H173.75C173.842 98.163 173.93 98.1303 174.002 98.0734C174.074 98.0165 174.126 97.9383 174.15 97.85C174.409 96.7567 175.028 95.7823 175.907 95.0838C176.787 94.3854 177.877 94.0036 179 94C179.85 94.0046 180.685 94.2259 181.426 94.643C182.166 95.06 182.789 95.659 183.233 96.3833C183.333 96.5333 183.417 96.55 183.7 96.55H185.667C185.869 96.5542 186.061 96.6364 186.204 96.7792C186.347 96.9221 186.429 97.1147 186.433 97.3167C186.433 97.7587 186.609 98.1826 186.922 98.4952C187.234 98.8077 187.658 98.9833 188.1 98.9833H188.533C188.638 98.9837 188.74 98.9444 188.817 98.8733C188.894 98.8022 188.942 98.7046 188.95 98.6C188.95 97.2739 189.477 96.0021 190.415 95.0645C191.352 94.1268 192.624 93.6 193.95 93.6C195.276 93.6 196.548 94.1268 197.486 95.0645C198.423 96.0021 198.95 97.2739 198.95 98.6C198.959 98.7046 199.006 98.8022 199.083 98.8733C199.161 98.9444 199.262 98.9837 199.367 98.9833H200.667C201.551 98.9833 202.399 98.6321 203.024 98.007C203.649 97.3819 204 96.534 204 95.65V79C203.997 77.1462 203.376 75.3465 202.235 73.8855C201.093 72.4245 199.498 71.3856 197.7 70.9333ZM201.033 83.55C201.04 83.6039 201.036 83.6586 201.021 83.7108C201.007 83.763 200.981 83.8117 200.947 83.8538C200.913 83.8959 200.87 83.9306 200.822 83.9557C200.774 83.9808 200.721 83.9959 200.667 84H196.083C196.021 84.0013 195.959 83.9884 195.902 83.9625C195.845 83.9366 195.795 83.8982 195.755 83.8502C195.715 83.8021 195.686 83.7457 195.671 83.6851C195.656 83.6245 195.654 83.5612 195.667 83.5V74.4333C195.665 74.3766 195.677 74.3202 195.7 74.2683C195.723 74.2164 195.757 74.1703 195.8 74.1333C195.841 74.0907 195.89 74.0569 195.945 74.0339C195.999 74.011 196.058 73.9995 196.117 74C197.412 74.0929 198.631 74.6495 199.549 75.5678C200.467 76.4861 201.024 77.7046 201.117 79L201.033 83.55Z" fill="#111111"/>
<path fill-rule="evenodd" clip-rule="evenodd" d="M181.5 66.4999H164.833C164.612 66.4999 164.4 66.5877 164.244 66.744C164.088 66.9003 164 67.1122 164 67.3333V86.4999C164 86.7209 164.088 86.9329 164.244 87.0892C164.4 87.2455 164.612 87.3333 164.833 87.3333H183.167C183.388 87.3333 183.6 87.2455 183.756 87.0892C183.912 86.9329 184 86.7209 184 86.4999V68.4833C183.929 67.8899 183.626 67.3485 183.158 66.9771C182.69 66.6057 182.094 66.4342 181.5 66.4999ZM179 72.3333V81.4999C179 81.8314 178.868 82.1494 178.634 82.3838C178.399 82.6182 178.082 82.7499 177.75 82.7499C177.418 82.7499 177.101 82.6182 176.866 82.3838C176.632 82.1494 176.5 81.8314 176.5 81.4999V72.3333C176.5 72.0017 176.632 71.6838 176.866 71.4494C177.101 71.215 177.418 71.0833 177.75 71.0833C178.082 71.0833 178.399 71.215 178.634 71.4494C178.868 71.6838 179 72.0017 179 72.3333ZM171.5 72.3333V81.4999C171.5 81.8314 171.368 82.1494 171.134 82.3838C170.899 82.6182 170.582 82.7499 170.25 82.7499C169.918 82.7499 169.601 82.6182 169.366 82.3838C169.132 82.1494 169 81.8314 169 81.4999V72.3333C169 72.0017 169.132 71.6838 169.366 71.4494C169.601 71.215 169.918 71.0833 170.25 71.0833C170.582 71.0833 170.899 71.215 171.134 71.4494C171.368 71.6838 171.5 72.0017 171.5 72.3333Z" fill="#111111"/>
<path d="M170.667 99C170.667 100.841 169.174 102.333 167.333 102.333C165.492 102.333 164 100.841 164 99C164 97.159 165.492 95.6667 167.333 95.6667C169.174 95.6667 170.667 97.159 170.667 99Z" fill="#111111"/>
<path d="M179 102.333C180.841 102.333 182.333 100.841 182.333 99C182.333 97.159 180.841 95.6667 179 95.6667C177.159 95.6667 175.667 97.159 175.667 99C175.667 100.841 177.159 102.333 179 102.333Z" fill="#111111"/>
<path d="M197.333 99C197.333 100.841 195.841 102.333 194 102.333C192.159 102.333 190.667 100.841 190.667 99C190.667 97.159 192.159 95.6667 194 95.6667C195.841 95.6667 197.333 97.159 197.333 99Z" fill="#111111"/>
</g>
</g>
<g id="Size=48px, Filled=true">
<g id="Vector_14">
<path fill-rule="evenodd" clip-rule="evenodd" d="M256.44 68.32C256.319 68.293 256.212 68.2217 256.14 68.12L254.66 66C252 62 245.28 62 245 62C244.47 62 243.961 62.2107 243.586 62.5858C243.211 62.9609 243 63.4696 243 64V90C243 90.2758 242.891 90.5404 242.696 90.7354C242.501 90.9304 242.236 91.04 241.96 91.04H217C216.742 91.0398 216.493 91.1396 216.307 91.3186C216.12 91.4976 216.011 91.7418 216 92V96.54C215.998 96.6304 216.021 96.7196 216.067 96.7975C216.113 96.8753 216.18 96.9386 216.26 96.98C216.338 97.0299 216.428 97.0565 216.52 97.0565C216.612 97.0565 216.703 97.0299 216.78 96.98C217.735 96.3455 218.854 96.0048 220 96C221.348 96.0043 222.656 96.4625 223.711 97.3006C224.767 98.1388 225.51 99.3081 225.82 100.62C225.85 100.726 225.912 100.82 225.998 100.888C226.085 100.956 226.19 100.996 226.3 101H227.7C227.81 100.996 227.916 100.956 228.002 100.888C228.088 100.82 228.151 100.726 228.18 100.62C228.49 99.3081 229.233 98.1388 230.289 97.3006C231.345 96.4625 232.652 96.0043 234 96C235.02 96.0056 236.022 96.2711 236.911 96.7716C237.8 97.272 238.546 97.9908 239.08 98.86C239.2 99.04 239.3 99.06 239.64 99.06H242C242.243 99.0651 242.474 99.1637 242.645 99.3351C242.817 99.5065 242.915 99.7376 242.92 99.98C242.92 100.51 243.131 101.019 243.506 101.394C243.881 101.769 244.39 101.98 244.92 101.98H245.44C245.566 101.98 245.688 101.933 245.78 101.848C245.873 101.763 245.93 101.646 245.94 101.52C245.94 99.9287 246.572 98.4026 247.698 97.2774C248.823 96.1521 250.349 95.52 251.94 95.52C253.531 95.52 255.058 96.1521 256.183 97.2774C257.308 98.4026 257.94 99.9287 257.94 101.52C257.95 101.646 258.007 101.763 258.1 101.848C258.193 101.933 258.314 101.98 258.44 101.98H260C261.061 101.98 262.078 101.559 262.829 100.808C263.579 100.058 264 99.0409 264 97.98V78C263.996 75.7755 263.251 73.6158 261.881 71.8626C260.512 70.1094 258.597 68.8628 256.44 68.32ZM260.44 83.46C260.449 83.5246 260.444 83.5903 260.426 83.653C260.408 83.7157 260.377 83.774 260.336 83.8246C260.295 83.8751 260.244 83.9167 260.186 83.9469C260.128 83.977 260.065 83.9951 260 84H254.5C254.425 84.0015 254.351 83.9861 254.283 83.955C254.214 83.9239 254.154 83.8778 254.106 83.8202C254.058 83.7626 254.023 83.6949 254.005 83.6222C253.987 83.5494 253.985 83.4735 254 83.4V72.52C253.999 72.4519 254.012 72.3843 254.04 72.322C254.067 72.2597 254.109 72.2044 254.16 72.16C254.209 72.1088 254.268 72.0682 254.334 72.0407C254.399 72.0132 254.469 71.9994 254.54 72C256.095 72.1114 257.557 72.7794 258.659 73.8814C259.761 74.9833 260.429 76.4456 260.54 78L260.44 83.46Z" fill="#111111"/>
<path fill-rule="evenodd" clip-rule="evenodd" d="M237 62.9999H217C216.735 62.9999 216.48 63.1053 216.293 63.2928C216.105 63.4804 216 63.7347 216 63.9999V86.9999C216 87.2651 216.105 87.5195 216.293 87.707C216.48 87.8946 216.735 87.9999 217 87.9999H239C239.265 87.9999 239.52 87.8946 239.707 87.707C239.895 87.5195 240 87.2651 240 86.9999V65.3799C239.915 64.6678 239.552 64.0183 238.99 63.5725C238.428 63.1268 237.713 62.921 237 62.9999ZM234 69.9999V80.9999C234 81.3978 233.842 81.7793 233.561 82.0606C233.279 82.3419 232.898 82.4999 232.5 82.4999C232.102 82.4999 231.721 82.3419 231.439 82.0606C231.158 81.7793 231 81.3978 231 80.9999V69.9999C231 69.6021 231.158 69.2206 231.439 68.9393C231.721 68.658 232.102 68.4999 232.5 68.4999C232.898 68.4999 233.279 68.658 233.561 68.9393C233.842 69.2206 234 69.6021 234 69.9999ZM225 69.9999V80.9999C225 81.3978 224.842 81.7793 224.561 82.0606C224.279 82.3419 223.898 82.4999 223.5 82.4999C223.102 82.4999 222.721 82.3419 222.439 82.0606C222.158 81.7793 222 81.3978 222 80.9999V69.9999C222 69.6021 222.158 69.2206 222.439 68.9393C222.721 68.658 223.102 68.4999 223.5 68.4999C223.898 68.4999 224.279 68.658 224.561 68.9393C224.842 69.2206 225 69.6021 225 69.9999Z" fill="#111111"/>
<path d="M224 102C224 104.209 222.209 106 220 106C217.791 106 216 104.209 216 102C216 99.7909 217.791 98 220 98C222.209 98 224 99.7909 224 102Z" fill="#111111"/>
<path d="M234 106C236.209 106 238 104.209 238 102C238 99.7909 236.209 98 234 98C231.791 98 230 99.7909 230 102C230 104.209 231.791 106 234 106Z" fill="#111111"/>
<path d="M256 102C256 104.209 254.209 106 252 106C249.791 106 248 104.209 248 102C248 99.7909 249.791 98 252 98C254.209 98 256 99.7909 256 102Z" fill="#111111"/>
</g>
</g>
</g>
</g>
<defs>
<clipPath id="clip0_1126_875">
<rect width="264" height="108" rx="5" fill="white"/>
</clipPath>
</defs>
</svg>
