<svg width="264" height="108" viewBox="0 0 264 108" fill="none" xmlns="http://www.w3.org/2000/svg">
<g id="Truck (Low grade)">
<g clip-path="url(#clip0_1126_876)">
<g id="Size=12px, Filled=false">
<path id="Vector" d="M0.75 25.175V24.825C0.75 24.4384 1.0634 24.125 1.45 24.125M1.45 24.125H7.75V21.675C7.75 21.4817 7.9067 21.325 8.1 21.325H9.15M1.45 24.125V20.625M9.15 21.325C10.3098 21.325 11.25 22.2652 11.25 23.425V26.225C11.25 26.6116 10.9366 26.925 10.55 26.925H10.2M9.15 21.325V23.425C9.15 23.8116 9.4634 24.125 9.85 24.125H11.25M6.35 26.925H4.25M5.65 24.125V20.625M0.75 21.325H6.35M0.75 22.725H6.35M8.1 27.625C8.6799 27.625 9.15 27.1549 9.15 26.575C9.15 25.9951 8.6799 25.525 8.1 25.525C7.5201 25.525 7.05 25.9951 7.05 26.575C7.05 27.1549 7.5201 27.625 8.1 27.625ZM2.5 27.625C3.0799 27.625 3.55 27.1549 3.55 26.575C3.55 25.9951 3.0799 25.525 2.5 25.525C1.9201 25.525 1.45 25.9951 1.45 26.575C1.45 27.1549 1.9201 27.625 2.5 27.625Z" stroke="#111111" stroke-width="0.75" stroke-linecap="round" stroke-linejoin="round"/>
</g>
<g id="Size=16px, Filled=false">
<path id="Vector_2" d="M25 25.5667V25.1C25 24.5845 25.4179 24.1667 25.9333 24.1667M25.9333 24.1667H34.3333V20.9C34.3333 20.6423 34.5423 20.4333 34.8 20.4333H36.2M25.9333 24.1667V19.5M36.2 20.4333C37.7464 20.4333 39 21.6869 39 23.2333V26.9667C39 27.4821 38.5821 27.9 38.0667 27.9H37.6M36.2 20.4333V23.2333C36.2 23.7488 36.6179 24.1667 37.1333 24.1667H39M32.4667 27.9H29.6667M31.5333 24.1667V19.5M25 20.4333H32.4667M25 22.3H32.4667M34.8 28.8333C35.5732 28.8333 36.2 28.2065 36.2 27.4333C36.2 26.6601 35.5732 26.0333 34.8 26.0333C34.0268 26.0333 33.4 26.6601 33.4 27.4333C33.4 28.2065 34.0268 28.8333 34.8 28.8333ZM27.3333 28.8333C28.1065 28.8333 28.7333 28.2065 28.7333 27.4333C28.7333 26.6601 28.1065 26.0333 27.3333 26.0333C26.5601 26.0333 25.9333 26.6601 25.9333 27.4333C25.9333 28.2065 26.5601 28.8333 27.3333 28.8333Z" stroke="#111111" stroke-linecap="round" stroke-linejoin="round"/>
</g>
<g id="Size=20px, Filled=false">
<path id="Vector_3" d="M53.25 25.9583V25.375C53.25 24.7307 53.7723 24.2083 54.4167 24.2083M54.4167 24.2083H64.9167V20.125C64.9167 19.8028 65.1778 19.5417 65.5 19.5417H67.25M54.4167 24.2083V18.375M67.25 19.5417C69.183 19.5417 70.75 21.1087 70.75 23.0417V27.7083C70.75 28.3527 70.2277 28.875 69.5833 28.875H69M67.25 19.5417V23.0417C67.25 23.686 67.7723 24.2083 68.4167 24.2083H70.75M62.5833 28.875H59.0833M61.4167 24.2083V18.375M53.25 19.5417H62.5833M53.25 21.875H62.5833M65.5 30.0417C66.4665 30.0417 67.25 29.2582 67.25 28.2917C67.25 27.3252 66.4665 26.5417 65.5 26.5417C64.5335 26.5417 63.75 27.3252 63.75 28.2917C63.75 29.2582 64.5335 30.0417 65.5 30.0417ZM56.1667 30.0417C57.1332 30.0417 57.9167 29.2582 57.9167 28.2917C57.9167 27.3252 57.1332 26.5417 56.1667 26.5417C55.2002 26.5417 54.4167 27.3252 54.4167 28.2917C54.4167 29.2582 55.2002 30.0417 56.1667 30.0417Z" stroke="#111111" stroke-width="1.25" stroke-linecap="round" stroke-linejoin="round"/>
</g>
<g id="Size=24px, Filled=false">
<path id="Vector_4" d="M85 25.6902V25.0326C85 24.3062 85.6566 23.7174 86.4667 23.7174H99.6667V19.1141C99.6667 18.7509 99.995 18.4565 100.4 18.4565H102.6C105.03 18.4565 107 20.2231 107 22.4022V27.663C107 28.3894 106.343 28.9783 105.533 28.9783H104.8M107 24.1957H103.812C102.931 24.1957 102.217 23.5533 102.217 22.7609V18.4565M95.5217 28.9783H91.6957M86.913 23.2391V17.5M96.4783 23.2391V17.5M85.9565 18.4565H97.4348M85.9565 21.3261H97.4348M99.3478 30.8913C100.404 30.8913 101.261 30.0348 101.261 28.9783C101.261 27.9217 100.404 27.0652 99.3478 27.0652C98.2913 27.0652 97.4348 27.9217 97.4348 28.9783C97.4348 30.0348 98.2913 30.8913 99.3478 30.8913ZM87.8696 30.8913C88.9261 30.8913 89.7826 30.0348 89.7826 28.9783C89.7826 27.9217 88.9261 27.0652 87.8696 27.0652C86.813 27.0652 85.9565 27.9217 85.9565 28.9783C85.9565 30.0348 86.813 30.8913 87.8696 30.8913Z" stroke="#111111" stroke-width="1.5" stroke-linecap="round" stroke-linejoin="round"/>
</g>
<g id="Size=32px, Filled=false">
<path id="Vector_5" d="M122 27.1333V26.2C122 25.1691 122.836 24.3333 123.867 24.3333M123.867 24.3333H140.667V17.8C140.667 17.2845 141.085 16.8667 141.6 16.8667H144.4M123.867 24.3333V15M144.4 16.8667C147.493 16.8667 150 19.3739 150 22.4667V29.9333C150 30.9643 149.164 31.8 148.133 31.8H147.2M144.4 16.8667V22.4667C144.4 23.4976 145.236 24.3333 146.267 24.3333H150M136.933 31.8H131.333M135.067 24.3333V15M122 16.8667H136.933M122 20.6H136.933M141.6 33.6667C143.146 33.6667 144.4 32.4131 144.4 30.8667C144.4 29.3203 143.146 28.0667 141.6 28.0667C140.054 28.0667 138.8 29.3203 138.8 30.8667C138.8 32.4131 140.054 33.6667 141.6 33.6667ZM126.667 33.6667C128.213 33.6667 129.467 32.4131 129.467 30.8667C129.467 29.3203 128.213 28.0667 126.667 28.0667C125.12 28.0667 123.867 29.3203 123.867 30.8667C123.867 32.4131 125.12 33.6667 126.667 33.6667Z" stroke="#111111" stroke-width="2" stroke-linecap="round" stroke-linejoin="round"/>
</g>
<g id="Size=40px, Filled=false">
<path id="Vector_6" d="M166.5 27.9167V26.75C166.5 25.4613 167.545 24.4167 168.833 24.4167M168.833 24.4167H189.833V16.25C189.833 15.6057 190.356 15.0833 191 15.0833H194.5M168.833 24.4167V12.75M194.5 15.0833C198.366 15.0833 201.5 18.2173 201.5 22.0833V31.4167C201.5 32.7053 200.455 33.75 199.167 33.75H198M194.5 15.0833V22.0833C194.5 23.372 195.545 24.4167 196.833 24.4167H201.5M185.167 33.75H178.167M182.833 24.4167V12.75M166.5 15.0833H185.167M166.5 19.75H185.167M191 36.0833C192.933 36.0833 194.5 34.5163 194.5 32.5833C194.5 30.6503 192.933 29.0833 191 29.0833C189.067 29.0833 187.5 30.6503 187.5 32.5833C187.5 34.5163 189.067 36.0833 191 36.0833ZM172.333 36.0833C174.266 36.0833 175.833 34.5163 175.833 32.5833C175.833 30.6503 174.266 29.0833 172.333 29.0833C170.4 29.0833 168.833 30.6503 168.833 32.5833C168.833 34.5163 170.4 36.0833 172.333 36.0833Z" stroke="#111111" stroke-width="2.5" stroke-linecap="round" stroke-linejoin="round"/>
</g>
<g id="Size=48px, Filled=false">
<path id="Vector_7" d="M219 28.7V27.3C219 25.7536 220.254 24.5 221.8 24.5M221.8 24.5H247V14.7C247 13.9268 247.627 13.3 248.4 13.3H252.6M221.8 24.5V10.5M252.6 13.3C257.239 13.3 261 17.0608 261 21.7V32.9C261 34.4464 259.746 35.7 258.2 35.7H256.8M252.6 13.3V21.7C252.6 23.2464 253.854 24.5 255.4 24.5H261M241.4 35.7H233M238.6 24.5V10.5M219 13.3H241.4M219 18.9H241.4M248.4 38.5C250.72 38.5 252.6 36.6196 252.6 34.3C252.6 31.9804 250.72 30.1 248.4 30.1C246.08 30.1 244.2 31.9804 244.2 34.3C244.2 36.6196 246.08 38.5 248.4 38.5ZM226 38.5C228.32 38.5 230.2 36.6196 230.2 34.3C230.2 31.9804 228.32 30.1 226 30.1C223.68 30.1 221.8 31.9804 221.8 34.3C221.8 36.6196 223.68 38.5 226 38.5Z" stroke="#111111" stroke-width="3" stroke-linecap="round" stroke-linejoin="round"/>
</g>
<g id="Size=12px, Filled=true">
<g id="Vector_8">
<path d="M9.60404 80.75H8.34035C8.24069 80.7513 8.14555 80.7919 8.07555 80.8628C8.00554 80.9338 7.96629 81.0294 7.9663 81.1291V84.0356C7.96499 84.0696 7.95057 84.1017 7.92607 84.1253C7.90156 84.1488 7.86888 84.162 7.83488 84.162H7.07666C7.04403 84.1607 7.01317 84.1468 6.99056 84.1232C6.96794 84.0997 6.95532 84.0683 6.95535 84.0356V83.7677C6.95592 83.739 6.96624 83.7113 6.98461 83.6893C7.00299 83.6672 7.02832 83.6521 7.05645 83.6464C7.19051 83.6464 7.31908 83.5931 7.41387 83.4983C7.50867 83.4035 7.56192 83.275 7.56192 83.1409C7.56192 83.0068 7.50867 82.8783 7.41387 82.7835C7.31908 82.6887 7.19051 82.6354 7.05645 82.6354C7.02832 82.6297 7.00299 82.6146 6.98461 82.5925C6.96624 82.5705 6.95592 82.5428 6.95535 82.5141V82.1401C6.95592 82.1114 6.96624 82.0837 6.98461 82.0617C7.00299 82.0396 7.02832 82.0245 7.05645 82.0187C7.19051 82.0053 7.31375 81.9392 7.39907 81.835C7.48438 81.7307 7.52478 81.5968 7.51137 81.4627C7.49797 81.3287 7.43185 81.2054 7.32758 81.1201C7.22331 81.0348 7.08941 80.9944 6.95535 81.0078C6.93652 81.0074 6.91803 81.0026 6.90136 80.9939C6.88469 80.9851 6.87029 80.9725 6.85931 80.9572C6.812 80.8973 6.75171 80.8488 6.68299 80.8155C6.61426 80.7822 6.53888 80.7649 6.46251 80.7649C6.38614 80.7649 6.31076 80.7822 6.24203 80.8155C6.17331 80.8488 6.11302 80.8973 6.06571 80.9572C6.05473 80.9725 6.04033 80.9851 6.02366 80.9939C6.00699 81.0026 5.98851 81.0074 5.96967 81.0078H1.75906C1.74022 81.0074 1.72174 81.0026 1.70507 80.9939C1.6884 80.9851 1.674 80.9725 1.66302 80.9572C1.6157 80.8973 1.55542 80.8488 1.4867 80.8155C1.41797 80.7822 1.34259 80.7649 1.26622 80.7649C1.18984 80.7649 1.11446 80.7822 1.04574 80.8155C0.977014 80.8488 0.916731 80.8973 0.869419 80.9572C0.858434 80.9725 0.844036 80.9851 0.827366 80.9939C0.810696 81.0026 0.792212 81.0074 0.773378 81.0078C0.639318 80.9944 0.505422 81.0348 0.401148 81.1201C0.296873 81.2054 0.230761 81.3287 0.217355 81.4627C0.203949 81.5968 0.244347 81.7307 0.329663 81.835C0.414978 81.9392 0.538223 82.0053 0.672283 82.0187C0.700406 82.0245 0.725739 82.0396 0.744114 82.0617C0.762488 82.0837 0.772809 82.1114 0.773378 82.1401V82.5495C0.772809 82.5782 0.762488 82.6058 0.744114 82.6279C0.725739 82.6499 0.700406 82.6651 0.672283 82.6708C0.538223 82.6708 0.409653 82.7241 0.314858 82.8189C0.220062 82.9137 0.166807 83.0422 0.166807 83.1763C0.166807 83.3103 0.220062 83.4389 0.314858 83.5337C0.409653 83.6285 0.538223 83.6818 0.672283 83.6818C0.700406 83.6875 0.725739 83.7026 0.744114 83.7247C0.762488 83.7467 0.772809 83.7744 0.773378 83.8031V84.071C0.773404 84.1036 0.760787 84.135 0.73817 84.1586C0.715554 84.1822 0.684695 84.196 0.652064 84.1973H0.384162C0.283145 84.1973 0.186191 84.2371 0.11429 84.3081C0.0423892 84.379 0.00132916 84.4754 0 84.5765V85.3852C0.00912977 85.6002 0.101015 85.8034 0.256449 85.9522C0.411882 86.1011 0.618832 86.1841 0.834035 86.1839C0.859971 86.1871 0.886173 86.1806 0.907624 86.1657C0.929076 86.1507 0.944269 86.1284 0.950295 86.103C1.04963 85.763 1.25653 85.4643 1.53997 85.2518C1.8234 85.0394 2.16809 84.9245 2.52233 84.9245C2.87656 84.9245 3.22125 85.0394 3.50468 85.2518C3.78812 85.4643 3.99502 85.763 4.09436 86.103C4.10201 86.1292 4.11797 86.1523 4.13985 86.1687C4.16172 86.1851 4.18833 86.194 4.21567 86.194H7.27885C7.3062 86.194 7.3328 86.1851 7.35468 86.1687C7.37655 86.1523 7.39251 86.1292 7.40017 86.103C7.50092 85.765 7.7081 85.4685 7.99089 85.2577C8.27368 85.0469 8.61696 84.9331 8.96967 84.9331C9.32238 84.9331 9.66566 85.0469 9.94845 85.2577C10.2312 85.4685 10.4384 85.765 10.5392 86.103C10.5468 86.1292 10.5628 86.1523 10.5847 86.1687C10.6065 86.1851 10.6331 86.194 10.6605 86.194H11.166C11.3872 86.194 11.5993 86.1061 11.7557 85.9497C11.9121 85.7933 12 85.5811 12 85.3599V83.151C11.9987 82.5155 11.746 81.9063 11.2971 81.4565C10.8482 81.0066 10.2395 80.7527 9.60404 80.75ZM5.9444 84.0356C5.94309 84.0696 5.92867 84.1017 5.90416 84.1253C5.87966 84.1488 5.84697 84.162 5.81297 84.162H1.90059C1.86659 84.162 1.83391 84.1488 1.8094 84.1253C1.7849 84.1017 1.77047 84.0696 1.76917 84.0356V83.7829C1.77047 83.7489 1.7849 83.7167 1.8094 83.6932C1.83391 83.6696 1.86659 83.6565 1.90059 83.6565H5.81297C5.84697 83.6565 5.87966 83.6696 5.90416 83.6932C5.92867 83.7167 5.94309 83.7489 5.9444 83.7829V84.0356ZM5.9444 82.5192C5.94309 82.5531 5.92867 82.5853 5.90416 82.6088C5.87966 82.6324 5.84697 82.6456 5.81297 82.6455H1.90059C1.86659 82.6456 1.83391 82.6324 1.8094 82.6088C1.7849 82.5853 1.77047 82.5531 1.76917 82.5192V82.1401C1.77047 82.1061 1.7849 82.0739 1.8094 82.0504C1.83391 82.0268 1.86659 82.0137 1.90059 82.0137H5.81297C5.84697 82.0137 5.87966 82.0268 5.90416 82.0504C5.92867 82.0739 5.94309 82.1061 5.9444 82.1401V82.5192ZM10.9992 83.4037H9.73547C9.66844 83.4037 9.60415 83.3771 9.55676 83.3297C9.50936 83.2823 9.48273 83.218 9.48273 83.151V81.8873C9.48273 81.8203 9.50936 81.756 9.55676 81.7086C9.60415 81.6612 9.66844 81.6346 9.73547 81.6346C10.1376 81.6346 10.5234 81.7943 10.8077 82.0787C11.0921 82.3631 11.2519 82.7488 11.2519 83.151C11.2519 83.218 11.2253 83.2823 11.1779 83.3297C11.1305 83.3771 11.0662 83.4037 10.9992 83.4037Z" fill="#111111"/>
<path d="M1.39511 86.563C1.39511 86.8646 1.51494 87.1539 1.72823 87.3672C1.94152 87.5805 2.2308 87.7003 2.53243 87.7003C2.83407 87.7003 3.12335 87.5805 3.33664 87.3672C3.54993 87.1539 3.66976 86.8646 3.66976 86.563C3.66976 86.2613 3.54993 85.9721 3.33664 85.7588C3.12335 85.5455 2.83407 85.4257 2.53243 85.4257C2.2308 85.4257 1.94152 85.5455 1.72823 85.7588C1.51494 85.9721 1.39511 86.2613 1.39511 86.563Z" fill="#111111"/>
<path d="M7.83993 86.563C7.83993 86.8646 7.95976 87.1539 8.17305 87.3672C8.38634 87.5805 8.67562 87.7003 8.97725 87.7003C9.27889 87.7003 9.56817 87.5805 9.78146 87.3672C9.99475 87.1539 10.1146 86.8646 10.1146 86.563C10.1146 86.2613 9.99475 85.9721 9.78146 85.7588C9.56817 85.5455 9.27889 85.4257 8.97725 85.4257C8.67562 85.4257 8.38634 85.5455 8.17305 85.7588C7.95976 85.9721 7.83993 86.2613 7.83993 86.563Z" fill="#111111"/>
</g>
</g>
<g id="Size=16px, Filled=true">
<g id="Vector_9">
<path d="M36.8054 79.6667H35.1205C34.9876 79.6685 34.8607 79.7225 34.7674 79.8171C34.6741 79.9117 34.6217 80.0393 34.6217 80.1722V84.0475C34.62 84.0928 34.6008 84.1356 34.5681 84.1671C34.5354 84.1985 34.4918 84.216 34.4465 84.216H33.4356C33.392 84.2142 33.3509 84.1957 33.3207 84.1643C33.2906 84.1329 33.2738 84.091 33.2738 84.0475V83.6903C33.2746 83.652 33.2883 83.6152 33.3128 83.5858C33.3373 83.5564 33.3711 83.5362 33.4086 83.5285C33.5873 83.5285 33.7588 83.4575 33.8852 83.3311C34.0116 83.2047 34.0826 83.0333 34.0826 82.8546C34.0826 82.6758 34.0116 82.5044 33.8852 82.378C33.7588 82.2516 33.5873 82.1806 33.4086 82.1806C33.3711 82.1729 33.3373 82.1528 33.3128 82.1234C33.2883 82.094 33.2746 82.0571 33.2738 82.0188V81.5201C33.2746 81.4818 33.2883 81.445 33.3128 81.4156C33.3373 81.3862 33.3711 81.366 33.4086 81.3583C33.5873 81.3405 33.7517 81.2523 33.8654 81.1133C33.9792 80.9743 34.033 80.7957 34.0152 80.617C33.9973 80.4382 33.9091 80.2739 33.7701 80.1602C33.6311 80.0464 33.4525 79.9925 33.2738 80.0104C33.2487 80.0099 33.224 80.0035 33.2018 79.9918C33.1796 79.9801 33.1604 79.9634 33.1457 79.943C33.0827 79.8631 33.0023 79.7985 32.9107 79.7541C32.819 79.7096 32.7185 79.6866 32.6167 79.6866C32.5149 79.6866 32.4143 79.7096 32.3227 79.7541C32.2311 79.7985 32.1507 79.8631 32.0876 79.943C32.073 79.9634 32.0538 79.9801 32.0315 79.9918C32.0093 80.0035 31.9847 80.0099 31.9596 80.0104H26.3454C26.3203 80.0099 26.2957 80.0035 26.2734 79.9918C26.2512 79.9801 26.232 79.9634 26.2174 79.943C26.1543 79.8631 26.0739 79.7985 25.9823 79.7541C25.8906 79.7096 25.7901 79.6866 25.6883 79.6866C25.5865 79.6866 25.486 79.7096 25.3943 79.7541C25.3027 79.7985 25.2223 79.8631 25.1592 79.943C25.1446 79.9634 25.1254 79.9801 25.1032 79.9918C25.0809 80.0035 25.0563 80.0099 25.0312 80.0104C24.8524 79.9925 24.6739 80.0464 24.5349 80.1602C24.3958 80.2739 24.3077 80.4382 24.2898 80.617C24.2719 80.7957 24.3258 80.9743 24.4396 81.1133C24.5533 81.2523 24.7176 81.3405 24.8964 81.3583C24.9339 81.366 24.9677 81.3862 24.9922 81.4156C25.0167 81.445 25.0304 81.4818 25.0312 81.5201V82.066C25.0304 82.1043 25.0167 82.1411 24.9922 82.1705C24.9677 82.1999 24.9339 82.2201 24.8964 82.2278C24.7176 82.2278 24.5462 82.2988 24.4198 82.4252C24.2934 82.5516 24.2224 82.723 24.2224 82.9017C24.2224 83.0805 24.2934 83.2519 24.4198 83.3783C24.5462 83.5047 24.7176 83.5757 24.8964 83.5757C24.9339 83.5833 24.9677 83.6035 24.9922 83.6329C25.0167 83.6623 25.0304 83.6992 25.0312 83.7375V84.0947C25.0312 84.1382 25.0144 84.1801 24.9842 84.2115C24.9541 84.2429 24.9129 84.2614 24.8694 84.2631H24.5122C24.3775 84.2631 24.2483 84.3162 24.1524 84.4108C24.0565 84.5054 24.0018 84.6339 24 84.7686V85.847C24.0122 86.1337 24.1347 86.4045 24.3419 86.603C24.5492 86.8014 24.8251 86.9121 25.112 86.9118C25.1466 86.9161 25.1816 86.9075 25.2102 86.8876C25.2388 86.8677 25.259 86.8379 25.2671 86.804C25.3995 86.3506 25.6754 85.9524 26.0533 85.6691C26.4312 85.3858 26.8908 85.2327 27.3631 85.2327C27.8354 85.2327 28.295 85.3858 28.6729 85.6691C29.0508 85.9524 29.3267 86.3506 29.4591 86.804C29.4693 86.839 29.4906 86.8697 29.5198 86.8916C29.549 86.9135 29.5844 86.9253 29.6209 86.9253H33.7051C33.7416 86.9253 33.7771 86.9135 33.8062 86.8916C33.8354 86.8697 33.8567 86.839 33.8669 86.804C34.0012 86.3533 34.2775 85.9581 34.6545 85.677C35.0316 85.3959 35.4893 85.2441 35.9596 85.2441C36.4298 85.2441 36.8876 85.3959 37.2646 85.677C37.6417 85.9581 37.9179 86.3533 38.0522 86.804C38.0624 86.839 38.0837 86.8697 38.1129 86.8916C38.1421 86.9135 38.1775 86.9253 38.214 86.9253H38.888C39.1829 86.9253 39.4657 86.8082 39.6743 86.5996C39.8828 86.3911 40 86.1082 40 85.8133V82.868C39.9982 82.0207 39.6613 81.2085 39.0628 80.6087C38.4642 80.0089 37.6527 79.6702 36.8054 79.6667ZM31.9259 84.0475C31.9241 84.0928 31.9049 84.1356 31.8722 84.1671C31.8395 84.1985 31.796 84.216 31.7506 84.216H26.5341C26.4888 84.216 26.4452 84.1985 26.4125 84.1671C26.3799 84.1356 26.3606 84.0928 26.3589 84.0475V83.7105C26.3606 83.6652 26.3799 83.6223 26.4125 83.5909C26.4452 83.5595 26.4888 83.542 26.5341 83.542H31.7506C31.796 83.542 31.8395 83.5595 31.8722 83.5909C31.9049 83.6223 31.9241 83.6652 31.9259 83.7105V84.0475ZM31.9259 82.0256C31.9241 82.0709 31.9049 82.1137 31.8722 82.1451C31.8395 82.1766 31.796 82.1941 31.7506 82.1941H26.5341C26.4888 82.1941 26.4452 82.1766 26.4125 82.1451C26.3799 82.1137 26.3606 82.0709 26.3589 82.0256V81.5201C26.3606 81.4748 26.3799 81.4319 26.4125 81.4005C26.4452 81.3691 26.4888 81.3516 26.5341 81.3516H31.7506C31.796 81.3516 31.8395 81.3691 31.8722 81.4005C31.9049 81.4319 31.9241 81.4748 31.9259 81.5201V82.0256ZM38.6655 83.205H36.9806C36.8912 83.205 36.8055 83.1695 36.7423 83.1063C36.6791 83.0431 36.6436 82.9574 36.6436 82.868V81.1831C36.6436 81.0937 36.6791 81.008 36.7423 80.9448C36.8055 80.8816 36.8912 80.8461 36.9806 80.8461C37.5169 80.8461 38.0311 81.0592 38.4103 81.4383C38.7895 81.8175 39.0025 82.3318 39.0025 82.868C39.0025 82.9574 38.967 83.0431 38.9038 83.1063C38.8406 83.1695 38.7549 83.205 38.6655 83.205Z" fill="#111111"/>
<path d="M25.8602 87.4173C25.8602 87.8195 26.0199 88.2052 26.3043 88.4896C26.5887 88.774 26.9744 88.9337 27.3766 88.9337C27.7788 88.9337 28.1645 88.774 28.4489 88.4896C28.7332 88.2052 28.893 87.8195 28.893 87.4173C28.893 87.0151 28.7332 86.6294 28.4489 86.345C28.1645 86.0607 27.7788 85.9009 27.3766 85.9009C26.9744 85.9009 26.5887 86.0607 26.3043 86.345C26.0199 86.6294 25.8602 87.0151 25.8602 87.4173Z" fill="#111111"/>
<path d="M34.4532 87.4173C34.4532 87.8195 34.613 88.2052 34.8974 88.4896C35.1818 88.774 35.5675 88.9337 35.9697 88.9337C36.3719 88.9337 36.7576 88.774 37.0419 88.4896C37.3263 88.2052 37.4861 87.8195 37.4861 87.4173C37.4861 87.0151 37.3263 86.6294 37.0419 86.345C36.7576 86.0607 36.3719 85.9009 35.9697 85.9009C35.5675 85.9009 35.1818 86.0607 34.8974 86.345C34.613 86.6294 34.4532 87.0151 34.4532 87.4173Z" fill="#111111"/>
</g>
</g>
<g id="Size=20px, Filled=true">
<g id="Vector_10">
<path d="M68.0067 78.5833H65.9006C65.7345 78.5855 65.5759 78.6531 65.4592 78.7713C65.3426 78.8896 65.2772 79.049 65.2772 79.2152V84.0593C65.275 84.1159 65.251 84.1695 65.2101 84.2088C65.1693 84.248 65.1148 84.27 65.0581 84.2699H63.7944C63.7401 84.2677 63.6886 84.2446 63.6509 84.2053C63.6132 84.1661 63.5922 84.1137 63.5922 84.0593V83.6128C63.5932 83.565 63.6104 83.5189 63.641 83.4821C63.6716 83.4454 63.7139 83.4202 63.7607 83.4106C63.9842 83.4106 64.1985 83.3218 64.3565 83.1639C64.5144 83.0059 64.6032 82.7916 64.6032 82.5681C64.6032 82.3447 64.5144 82.1304 64.3565 81.9724C64.1985 81.8144 63.9842 81.7257 63.7607 81.7257C63.7139 81.7161 63.6716 81.6909 63.641 81.6542C63.6104 81.6174 63.5932 81.5713 63.5922 81.5235V80.9001C63.5932 80.8523 63.6104 80.8062 63.641 80.7694C63.6716 80.7327 63.7139 80.7074 63.7607 80.6979C63.9842 80.6755 64.1896 80.5654 64.3318 80.3916C64.474 80.2178 64.5413 79.9946 64.519 79.7712C64.4966 79.5477 64.3864 79.3423 64.2126 79.2001C64.0388 79.058 63.8157 78.9906 63.5922 79.013C63.5609 79.0123 63.5301 79.0044 63.5023 78.9897C63.4745 78.9751 63.4505 78.9542 63.4322 78.9287C63.3533 78.8288 63.2529 78.748 63.1383 78.6925C63.0238 78.637 62.8981 78.6082 62.7709 78.6082C62.6436 78.6082 62.5179 78.637 62.4034 78.6925C62.2888 78.748 62.1884 78.8288 62.1095 78.9287C62.0912 78.9542 62.0672 78.9751 62.0394 78.9897C62.0116 79.0044 61.9808 79.0123 61.9495 79.013H54.9318C54.9004 79.0123 54.8696 79.0044 54.8418 78.9897C54.814 78.9751 54.79 78.9542 54.7717 78.9287C54.6928 78.8288 54.5924 78.748 54.4778 78.6925C54.3633 78.637 54.2377 78.6082 54.1104 78.6082C53.9831 78.6082 53.8574 78.637 53.7429 78.6925C53.6284 78.748 53.5279 78.8288 53.449 78.9287C53.4307 78.9542 53.4067 78.9751 53.3789 78.9897C53.3512 79.0044 53.3204 79.0123 53.289 79.013C53.0655 78.9906 52.8424 79.058 52.6686 79.2001C52.4948 79.3423 52.3846 79.5477 52.3623 79.7712C52.3399 79.9946 52.4072 80.2178 52.5494 80.3916C52.6916 80.5654 52.897 80.6755 53.1205 80.6979C53.1673 80.7074 53.2096 80.7327 53.2402 80.7694C53.2708 80.8062 53.288 80.8523 53.289 80.9001V81.5825C53.288 81.6303 53.2708 81.6764 53.2402 81.7131C53.2096 81.7499 53.1673 81.7751 53.1205 81.7847C52.897 81.7847 52.6828 81.8734 52.5248 82.0314C52.3668 82.1894 52.278 82.4037 52.278 82.6271C52.278 82.8506 52.3668 83.0648 52.5248 83.2228C52.6828 83.3808 52.897 83.4696 53.1205 83.4696C53.1673 83.4791 53.2096 83.5044 53.2402 83.5411C53.2708 83.5779 53.288 83.6239 53.289 83.6718V84.1183C53.289 84.1727 53.268 84.225 53.2303 84.2643C53.1926 84.3036 53.1412 84.3267 53.0868 84.3289H52.6403C52.4719 84.3289 52.3103 84.3952 52.1905 84.5134C52.0706 84.6317 52.0022 84.7924 52 84.9607V86.3087C52.0152 86.667 52.1684 87.0056 52.4274 87.2537C52.6865 87.5018 53.0314 87.6401 53.3901 87.6398C53.4333 87.6451 53.477 87.6343 53.5127 87.6094C53.5485 87.5845 53.5738 87.5473 53.5838 87.505C53.7494 86.9383 54.0942 86.4405 54.5666 86.0864C55.039 85.7322 55.6135 85.5408 56.2039 85.5408C56.7943 85.5408 57.3687 85.7322 57.8411 86.0864C58.3135 86.4405 58.6584 86.9383 58.8239 87.505C58.8367 87.5487 58.8633 87.5871 58.8997 87.6145C58.9362 87.6418 58.9805 87.6566 59.0261 87.6566H64.1314C64.177 87.6566 64.2213 87.6418 64.2578 87.6145C64.2942 87.5871 64.3209 87.5487 64.3336 87.505C64.5015 86.9416 64.8468 86.4475 65.3182 86.0962C65.7895 85.7449 66.3616 85.5551 66.9495 85.5551C67.5373 85.5551 68.1094 85.7449 68.5808 86.0962C69.0521 86.4475 69.3974 86.9416 69.5653 87.505C69.578 87.5487 69.6047 87.5871 69.6411 87.6145C69.6776 87.6418 69.7219 87.6566 69.7675 87.6566H70.6099C70.9786 87.6566 71.3322 87.5102 71.5929 87.2495C71.8535 86.9888 72 86.6352 72 86.2665V82.585C71.9978 81.5258 71.5766 80.5105 70.8285 79.7608C70.0803 79.0111 69.0659 78.5878 68.0067 78.5833ZM61.9073 84.0593C61.9052 84.1159 61.8811 84.1695 61.8403 84.2088C61.7994 84.248 61.745 84.27 61.6883 84.2699H55.1676C55.111 84.27 55.0565 84.248 55.0157 84.2088C54.9748 84.1695 54.9508 84.1159 54.9486 84.0593V83.6381C54.9508 83.5815 54.9748 83.5279 55.0157 83.4886C55.0565 83.4493 55.111 83.4274 55.1676 83.4275H61.6883C61.745 83.4274 61.7994 83.4493 61.8403 83.4886C61.8811 83.5279 61.9052 83.5815 61.9073 83.6381V84.0593ZM61.9073 81.5319C61.9052 81.5885 61.8811 81.6421 61.8403 81.6814C61.7994 81.7207 61.745 81.7426 61.6883 81.7425H55.1676C55.111 81.7426 55.0565 81.7207 55.0157 81.6814C54.9748 81.6421 54.9508 81.5885 54.9486 81.5319V80.9001C54.9508 80.8435 54.9748 80.7899 55.0157 80.7506C55.0565 80.7113 55.111 80.6894 55.1676 80.6895H61.6883C61.745 80.6894 61.7994 80.7113 61.8403 80.7506C61.8811 80.7899 61.9052 80.8435 61.9073 80.9001V81.5319ZM70.3319 83.0062H68.2258C68.1141 83.0062 68.0069 82.9618 67.9279 82.8829C67.8489 82.8039 67.8045 82.6967 67.8045 82.585V80.4788C67.8045 80.3671 67.8489 80.26 67.9279 80.181C68.0069 80.102 68.1141 80.0576 68.2258 80.0576C68.8961 80.0576 69.5389 80.3239 70.0129 80.7979C70.4869 81.2718 70.7532 81.9147 70.7532 82.585C70.7532 82.6967 70.7088 82.8039 70.6298 82.8829C70.5508 82.9618 70.4436 83.0062 70.3319 83.0062Z" fill="#111111"/>
<path d="M54.3252 88.2716C54.3252 88.7743 54.5249 89.2565 54.8804 89.6119C55.2359 89.9674 55.718 90.1671 56.2207 90.1671C56.7235 90.1671 57.2056 89.9674 57.5611 89.6119C57.9166 89.2565 58.1163 88.7743 58.1163 88.2716C58.1163 87.7689 57.9166 87.2867 57.5611 86.9313C57.2056 86.5758 56.7235 86.3761 56.2207 86.3761C55.718 86.3761 55.2359 86.5758 54.8804 86.9313C54.5249 87.2867 54.3252 87.7689 54.3252 88.2716Z" fill="#111111"/>
<path d="M65.0666 88.2716C65.0666 88.7743 65.2663 89.2565 65.6217 89.6119C65.9772 89.9674 66.4594 90.1671 66.9621 90.1671C67.4648 90.1671 67.947 89.9674 68.3024 89.6119C68.6579 89.2565 68.8576 88.7743 68.8576 88.2716C68.8576 87.7689 68.6579 87.2867 68.3024 86.9313C67.947 86.5758 67.4648 86.3761 66.9621 86.3761C66.4594 86.3761 65.9772 86.5758 65.6217 86.9313C65.2663 87.2867 65.0666 87.7689 65.0666 88.2716Z" fill="#111111"/>
</g>
</g>
<g id="Size=24px, Filled=true">
<g id="Vector_11">
<path d="M103.208 77.5H100.681C100.481 77.5027 100.291 77.5837 100.151 77.7256C100.011 77.8675 99.9326 78.0589 99.9326 78.2582V84.0712C99.93 84.1391 99.9011 84.2034 99.8521 84.2505C99.8031 84.2977 99.7378 84.324 99.6698 84.3239H98.1533C98.0881 84.3213 98.0263 84.2935 97.9811 84.2464C97.9359 84.1993 97.9106 84.1365 97.9107 84.0712V83.5354C97.9118 83.478 97.9325 83.4227 97.9692 83.3786C98.006 83.3345 98.0566 83.3042 98.1129 83.2928C98.381 83.2928 98.6382 83.1862 98.8277 82.9967C99.0173 82.8071 99.1238 82.5499 99.1238 82.2818C99.1238 82.0137 99.0173 81.7565 98.8277 81.567C98.6382 81.3774 98.381 81.2708 98.1129 81.2708C98.0566 81.2594 98.006 81.2291 97.9692 81.185C97.9325 81.1409 97.9118 81.0856 97.9107 81.0282V80.2801C97.9118 80.2227 97.9325 80.1674 97.9692 80.1233C98.006 80.0792 98.0566 80.049 98.1129 80.0375C98.381 80.0107 98.6275 79.8785 98.7981 79.6699C98.9688 79.4614 99.0496 79.1936 99.0227 78.9254C98.9959 78.6573 98.8637 78.4108 98.6552 78.2402C98.4466 78.0696 98.1788 77.9888 97.9107 78.0156C97.873 78.0148 97.8361 78.0053 97.8027 77.9877C97.7694 77.9702 97.7406 77.9451 97.7186 77.9145C97.624 77.7946 97.5034 77.6977 97.366 77.6311C97.2285 77.5644 97.0778 77.5298 96.925 77.5298C96.7723 77.5298 96.6215 77.5644 96.4841 77.6311C96.3466 77.6977 96.226 77.7946 96.1314 77.9145C96.1095 77.9451 96.0807 77.9702 96.0473 77.9877C96.014 78.0053 95.977 78.0148 95.9393 78.0156H87.5181C87.4804 78.0148 87.4435 78.0053 87.4101 77.9877C87.3768 77.9702 87.348 77.9451 87.326 77.9145C87.2314 77.7946 87.1108 77.6977 86.9734 77.6311C86.8359 77.5644 86.6852 77.5298 86.5324 77.5298C86.3797 77.5298 86.2289 77.5644 86.0915 77.6311C85.954 77.6977 85.8335 77.7946 85.7388 77.9145C85.7169 77.9451 85.6881 77.9702 85.6547 77.9877C85.6214 78.0053 85.5844 78.0148 85.5468 78.0156C85.2786 77.9888 85.0108 78.0696 84.8023 78.2402C84.5937 78.4108 84.4615 78.6573 84.4347 78.9254C84.4079 79.1936 84.4887 79.4614 84.6593 79.6699C84.83 79.8785 85.0764 80.0107 85.3446 80.0375C85.4008 80.049 85.4515 80.0792 85.4882 80.1233C85.525 80.1674 85.5456 80.2227 85.5468 80.2801V81.099C85.5456 81.1564 85.525 81.2117 85.4882 81.2558C85.4515 81.2999 85.4008 81.3301 85.3446 81.3416C85.0764 81.3416 84.8193 81.4481 84.6297 81.6377C84.4401 81.8273 84.3336 82.0844 84.3336 82.3526C84.3336 82.6207 84.4401 82.8778 84.6297 83.0674C84.8193 83.257 85.0764 83.3635 85.3446 83.3635C85.4008 83.375 85.4515 83.4053 85.4882 83.4494C85.525 83.4935 85.5456 83.5488 85.5468 83.6062V84.142C85.5468 84.2073 85.5216 84.2701 85.4763 84.3172C85.4311 84.3643 85.3694 84.3921 85.3041 84.3947H84.7683C84.5663 84.3947 84.3724 84.4742 84.2286 84.6161C84.0848 84.7581 84.0027 84.9509 84 85.1529V86.7704C84.0183 87.2004 84.202 87.6068 84.5129 87.9044C84.8238 88.2021 85.2377 88.3681 85.6681 88.3677C85.7199 88.3741 85.7723 88.3611 85.8152 88.3313C85.8582 88.3015 85.8885 88.2568 85.9006 88.206C86.0993 87.5259 86.5131 86.9286 87.0799 86.5037C87.6468 86.0787 88.3362 85.849 89.0447 85.849C89.7531 85.849 90.4425 86.0787 91.0094 86.5037C91.5762 86.9286 91.99 87.5259 92.1887 88.206C92.204 88.2585 92.2359 88.3046 92.2797 88.3374C92.3234 88.3702 92.3767 88.388 92.4313 88.388H98.5577C98.6124 88.388 98.6656 88.3702 98.7094 88.3374C98.7531 88.3046 98.785 88.2585 98.8003 88.206C99.0018 87.53 99.4162 86.937 99.9818 86.5155C100.547 86.0939 101.234 85.8661 101.939 85.8661C102.645 85.8661 103.331 86.0939 103.897 86.5155C104.462 86.937 104.877 87.53 105.078 88.206C105.094 88.2585 105.126 88.3046 105.169 88.3374C105.213 88.3702 105.266 88.388 105.321 88.388H106.332C106.774 88.388 107.199 88.2122 107.511 87.8994C107.824 87.5866 108 87.1623 108 86.7199V82.302C107.997 81.031 107.492 79.8127 106.594 78.913C105.696 78.0133 104.479 77.5053 103.208 77.5ZM95.8888 84.0712C95.8862 84.1391 95.8573 84.2034 95.8083 84.2505C95.7593 84.2977 95.6939 84.324 95.6259 84.3239H87.8012C87.7332 84.324 87.6678 84.2977 87.6188 84.2505C87.5698 84.2034 87.5409 84.1391 87.5383 84.0712V83.5657C87.5409 83.4978 87.5698 83.4335 87.6188 83.3864C87.6678 83.3392 87.7332 83.3129 87.8012 83.313H95.6259C95.6939 83.3129 95.7593 83.3392 95.8083 83.3864C95.8573 83.4335 95.8862 83.4978 95.8888 83.5657V84.0712ZM95.8888 81.0383C95.8862 81.1063 95.8573 81.1706 95.8083 81.2177C95.7593 81.2648 95.6939 81.2911 95.6259 81.2911H87.8012C87.7332 81.2911 87.6678 81.2648 87.6188 81.2177C87.5698 81.1706 87.5409 81.1063 87.5383 81.0383V80.2801C87.5409 80.2122 87.5698 80.1479 87.6188 80.1008C87.6678 80.0536 87.7332 80.0273 87.8012 80.0274H95.6259C95.6939 80.0273 95.7593 80.0536 95.8083 80.1008C95.8573 80.1479 95.8862 80.2122 95.8888 80.2801V81.0383ZM105.998 82.8075H103.471C103.337 82.8075 103.208 82.7542 103.114 82.6594C103.019 82.5647 102.965 82.4361 102.965 82.302V79.7746C102.965 79.6406 103.019 79.512 103.114 79.4172C103.208 79.3224 103.337 79.2692 103.471 79.2692C104.275 79.2692 105.047 79.5887 105.615 80.1575C106.184 80.7262 106.504 81.4977 106.504 82.302C106.504 82.4361 106.451 82.5647 106.356 82.6594C106.261 82.7542 106.132 82.8075 105.998 82.8075Z" fill="#111111"/>
<path d="M86.7902 89.1259C86.7902 89.7292 87.0299 90.3078 87.4565 90.7344C87.883 91.1609 88.4616 91.4006 89.0649 91.4006C89.6681 91.4006 90.2467 91.1609 90.6733 90.7344C91.0999 90.3078 91.3395 89.7292 91.3395 89.1259C91.3395 88.5227 91.0999 87.9441 90.6733 87.5175C90.2467 87.091 89.6681 86.8513 89.0649 86.8513C88.4616 86.8513 87.883 87.091 87.4565 87.5175C87.0299 87.9441 86.7902 88.5227 86.7902 89.1259Z" fill="#111111"/>
<path d="M99.6799 89.1259C99.6799 89.7292 99.9195 90.3078 100.346 90.7344C100.773 91.1609 101.351 91.4006 101.955 91.4006C102.558 91.4006 103.136 91.1609 103.563 90.7344C103.99 90.3078 104.229 89.7292 104.229 89.1259C104.229 88.5227 103.99 87.9441 103.563 87.5175C103.136 87.091 102.558 86.8513 101.955 86.8513C101.351 86.8513 100.773 87.091 100.346 87.5175C99.9195 87.9441 99.6799 88.5227 99.6799 89.1259Z" fill="#111111"/>
</g>
</g>
<g id="Size=32px, Filled=true">
<g id="Vector_12">
<path d="M145.611 75.3333H142.241C141.975 75.3369 141.721 75.4449 141.535 75.6341C141.348 75.8233 141.243 76.0785 141.243 76.3443V84.0949C141.24 84.1855 141.202 84.2712 141.136 84.334C141.071 84.3969 140.984 84.4319 140.893 84.4319H138.871C138.784 84.4284 138.702 84.3914 138.641 84.3285C138.581 84.2657 138.548 84.182 138.548 84.0949V83.3805C138.549 83.304 138.577 83.2302 138.626 83.1714C138.675 83.1126 138.742 83.0723 138.817 83.057C139.175 83.057 139.518 82.915 139.77 82.6622C140.023 82.4094 140.165 82.0665 140.165 81.709C140.165 81.3516 140.023 81.0087 139.77 80.7559C139.518 80.5031 139.175 80.3611 138.817 80.3611C138.742 80.3458 138.675 80.3055 138.626 80.2467C138.577 80.1879 138.549 80.1141 138.548 80.0376V79.0401C138.549 78.9636 138.577 78.8899 138.626 78.8311C138.675 78.7723 138.742 78.7319 138.817 78.7166C139.175 78.6809 139.503 78.5046 139.731 78.2265C139.958 77.9485 140.066 77.5914 140.03 77.2339C139.995 76.8764 139.818 76.5478 139.54 76.3202C139.262 76.0927 138.905 75.985 138.548 76.0208C138.497 76.0197 138.448 76.007 138.404 75.9836C138.359 75.9602 138.321 75.9268 138.291 75.886C138.165 75.7261 138.005 75.5969 137.821 75.5081C137.638 75.4192 137.437 75.3731 137.233 75.3731C137.03 75.3731 136.829 75.4192 136.645 75.5081C136.462 75.5969 136.301 75.7261 136.175 75.886C136.146 75.9268 136.108 75.9602 136.063 75.9836C136.019 76.007 135.969 76.0197 135.919 76.0208H124.691C124.641 76.0197 124.591 76.007 124.547 75.9836C124.502 75.9602 124.464 75.9268 124.435 75.886C124.309 75.7261 124.148 75.5969 123.965 75.5081C123.781 75.4192 123.58 75.3731 123.377 75.3731C123.173 75.3731 122.972 75.4192 122.789 75.5081C122.605 75.5969 122.445 75.7261 122.318 75.886C122.289 75.9268 122.251 75.9602 122.206 75.9836C122.162 76.007 122.113 76.0197 122.062 76.0208C121.705 75.985 121.348 76.0927 121.07 76.3202C120.792 76.5478 120.615 76.8764 120.58 77.2339C120.544 77.5914 120.652 77.9485 120.879 78.2265C121.107 78.5046 121.435 78.6809 121.793 78.7166C121.868 78.7319 121.935 78.7723 121.984 78.8311C122.033 78.8899 122.061 78.9636 122.062 79.0401V80.132C122.061 80.2085 122.033 80.2822 121.984 80.341C121.935 80.3998 121.868 80.4402 121.793 80.4555C121.435 80.4555 121.092 80.5975 120.84 80.8503C120.587 81.1031 120.445 81.4459 120.445 81.8034C120.445 82.1609 120.587 82.5038 120.84 82.7565C121.092 83.0093 121.435 83.1513 121.793 83.1513C121.868 83.1666 121.935 83.207 121.984 83.2658C122.033 83.3246 122.061 83.3983 122.062 83.4748V84.1893C122.062 84.2763 122.029 84.3601 121.968 84.4229C121.908 84.4857 121.826 84.5228 121.739 84.5262H121.024C120.755 84.5262 120.497 84.6323 120.305 84.8215C120.113 85.0107 120.004 85.2678 120 85.5372V87.6939C120.024 88.2672 120.269 88.809 120.684 89.2059C121.098 89.6028 121.65 89.8241 122.224 89.8236C122.293 89.8321 122.363 89.8148 122.42 89.7751C122.478 89.7353 122.518 89.6758 122.534 89.608C122.799 88.7012 123.351 87.9048 124.107 87.3382C124.862 86.7716 125.782 86.4653 126.726 86.4653C127.671 86.4653 128.59 86.7716 129.346 87.3382C130.102 87.9048 130.653 88.7012 130.918 89.608C130.939 89.678 130.981 89.7394 131.04 89.7832C131.098 89.8269 131.169 89.8506 131.242 89.8506H139.41C139.483 89.8506 139.554 89.8269 139.612 89.7832C139.671 89.7394 139.713 89.678 139.734 89.608C140.002 88.7066 140.555 87.916 141.309 87.3539C142.063 86.7918 142.979 86.4882 143.919 86.4882C144.86 86.4882 145.775 86.7918 146.529 87.3539C147.283 87.916 147.836 88.7066 148.104 89.608C148.125 89.678 148.167 89.7394 148.226 89.7832C148.284 89.8269 148.355 89.8506 148.428 89.8506H149.776C150.366 89.8506 150.931 89.6163 151.349 89.1992C151.766 88.7821 152 88.2164 152 87.6265V81.736C151.996 80.0413 151.323 78.4169 150.126 77.2173C148.928 76.0177 147.305 75.3404 145.611 75.3333ZM135.852 84.0949C135.848 84.1855 135.81 84.2712 135.744 84.334C135.679 84.3969 135.592 84.4319 135.501 84.4319H125.068C124.978 84.4319 124.89 84.3969 124.825 84.334C124.76 84.2712 124.721 84.1855 124.718 84.0949V83.4209C124.721 83.3303 124.76 83.2446 124.825 83.1818C124.89 83.1189 124.978 83.0839 125.068 83.0839H135.501C135.592 83.0839 135.679 83.1189 135.744 83.1818C135.81 83.2446 135.848 83.3303 135.852 83.4209V84.0949ZM135.852 80.0511C135.848 80.1417 135.81 80.2274 135.744 80.2902C135.679 80.3531 135.592 80.3881 135.501 80.3881H125.068C124.978 80.3881 124.89 80.3531 124.825 80.2902C124.76 80.2274 124.721 80.1417 124.718 80.0511V79.0401C124.721 78.9495 124.76 78.8638 124.825 78.801C124.89 78.7382 124.978 78.7031 125.068 78.7032H135.501C135.592 78.7031 135.679 78.7382 135.744 78.801C135.81 78.8638 135.848 78.9495 135.852 79.0401V80.0511ZM149.331 82.41H145.961C145.782 82.41 145.611 82.339 145.485 82.2126C145.358 82.0862 145.287 81.9148 145.287 81.736V78.3662C145.287 78.1874 145.358 78.016 145.485 77.8896C145.611 77.7632 145.782 77.6922 145.961 77.6922C147.034 77.6922 148.062 78.1182 148.821 78.8766C149.579 79.635 150.005 80.6635 150.005 81.736C150.005 81.9148 149.934 82.0862 149.808 82.2126C149.681 82.339 149.51 82.41 149.331 82.41Z" fill="#111111"/>
<path d="M123.72 90.8346C123.72 91.6389 124.04 92.4104 124.609 92.9791C125.177 93.5479 125.949 93.8674 126.753 93.8674C127.558 93.8674 128.329 93.5479 128.898 92.9791C129.466 92.4104 129.786 91.6389 129.786 90.8346C129.786 90.0302 129.466 89.2588 128.898 88.69C128.329 88.1213 127.558 87.8017 126.753 87.8017C125.949 87.8017 125.177 88.1213 124.609 88.69C124.04 89.2588 123.72 90.0302 123.72 90.8346Z" fill="#111111"/>
<path d="M140.906 90.8346C140.906 91.6389 141.226 92.4104 141.795 92.9791C142.364 93.5479 143.135 93.8674 143.939 93.8674C144.744 93.8674 145.515 93.5479 146.084 92.9791C146.653 92.4104 146.972 91.6389 146.972 90.8346C146.972 90.0302 146.653 89.2588 146.084 88.69C145.515 88.1213 144.744 87.8017 143.939 87.8017C143.135 87.8017 142.364 88.1213 141.795 88.69C141.226 89.2588 140.906 90.0302 140.906 90.8346Z" fill="#111111"/>
</g>
</g>
<g id="Size=40px, Filled=true">
<g id="Vector_13">
<path d="M196.013 73.1667H191.801C191.469 73.1711 191.152 73.3062 190.918 73.5427C190.685 73.7792 190.554 74.0981 190.554 74.4304V84.1187C190.55 84.2319 190.502 84.3391 190.42 84.4176C190.339 84.4961 190.23 84.54 190.116 84.5399H187.589C187.48 84.5355 187.377 84.4892 187.302 84.4107C187.226 84.3322 187.184 84.2275 187.184 84.1187V83.2257C187.186 83.13 187.221 83.0378 187.282 82.9643C187.343 82.8909 187.428 82.8404 187.521 82.8213C187.968 82.8213 188.397 82.6438 188.713 82.3278C189.029 82.0118 189.206 81.5832 189.206 81.1364C189.206 80.6895 189.029 80.2609 188.713 79.9449C188.397 79.629 187.968 79.4514 187.521 79.4514C187.428 79.4323 187.343 79.3819 187.282 79.3084C187.221 79.2349 187.186 79.1427 187.184 79.0471V77.8002C187.186 77.7046 187.221 77.6124 187.282 77.5389C187.343 77.4654 187.428 77.415 187.521 77.3958C187.968 77.3511 188.379 77.1308 188.664 76.7832C188.948 76.4356 189.083 75.9893 189.038 75.5424C188.993 75.0956 188.773 74.6847 188.425 74.4004C188.078 74.116 187.631 73.9813 187.184 74.026C187.122 74.0247 187.06 74.0088 187.005 73.9795C186.949 73.9503 186.901 73.9085 186.864 73.8575C186.707 73.6577 186.506 73.4962 186.277 73.3851C186.048 73.2741 185.796 73.2164 185.542 73.2164C185.287 73.2164 185.036 73.2741 184.807 73.3851C184.578 73.4962 184.377 73.6577 184.219 73.8575C184.182 73.9085 184.134 73.9503 184.079 73.9795C184.023 74.0088 183.962 74.0247 183.899 74.026H169.864C169.801 74.0247 169.739 74.0088 169.684 73.9795C169.628 73.9503 169.58 73.9085 169.543 73.8575C169.386 73.6577 169.185 73.4962 168.956 73.3851C168.727 73.2741 168.475 73.2164 168.221 73.2164C167.966 73.2164 167.715 73.2741 167.486 73.3851C167.257 73.4962 167.056 73.6577 166.898 73.8575C166.861 73.9085 166.813 73.9503 166.758 73.9795C166.702 74.0088 166.641 74.0247 166.578 74.026C166.131 73.9813 165.685 74.116 165.337 74.4004C164.99 74.6847 164.769 75.0956 164.725 75.5424C164.68 75.9893 164.814 76.4356 165.099 76.7832C165.383 77.1308 165.794 77.3511 166.241 77.3958C166.335 77.415 166.419 77.4654 166.48 77.5389C166.542 77.6124 166.576 77.7046 166.578 77.8002V79.165C166.576 79.2607 166.542 79.3528 166.48 79.4263C166.419 79.4998 166.335 79.5503 166.241 79.5694C165.794 79.5694 165.366 79.7469 165.05 80.0629C164.734 80.3789 164.556 80.8074 164.556 81.2543C164.556 81.7012 164.734 82.1297 165.05 82.4457C165.366 82.7617 165.794 82.9392 166.241 82.9392C166.335 82.9583 166.419 83.0088 166.48 83.0823C166.542 83.1558 166.576 83.248 166.578 83.3436V84.2366C166.578 84.3455 166.536 84.4501 166.461 84.5287C166.385 84.6072 166.282 84.6535 166.174 84.6578H165.281C164.944 84.6578 164.621 84.7904 164.381 85.0269C164.141 85.2634 164.004 85.5848 164 85.9215V88.6174C164.03 89.3341 164.337 90.0113 164.855 90.5074C165.373 91.0036 166.063 91.2802 166.78 91.2796C166.867 91.2902 166.954 91.2686 167.025 91.2189C167.097 91.1691 167.148 91.0947 167.168 91.01C167.499 89.8766 168.188 88.8811 169.133 88.1728C170.078 87.4646 171.227 87.0817 172.408 87.0817C173.589 87.0817 174.737 87.4646 175.682 88.1728C176.627 88.8811 177.317 89.8766 177.648 91.01C177.673 91.0975 177.727 91.1743 177.799 91.229C177.872 91.2837 177.961 91.3133 178.052 91.3133H188.263C188.354 91.3133 188.443 91.2837 188.516 91.229C188.588 91.1743 188.642 91.0975 188.667 91.01C189.003 89.8833 189.694 88.8951 190.636 88.1925C191.579 87.4898 192.723 87.1103 193.899 87.1103C195.075 87.1103 196.219 87.4898 197.162 88.1925C198.104 88.8951 198.795 89.8833 199.131 91.01C199.156 91.0975 199.209 91.1743 199.282 91.229C199.355 91.2837 199.444 91.3133 199.535 91.3133H201.22C201.957 91.3133 202.664 91.0204 203.186 90.499C203.707 89.9776 204 89.2705 204 88.5332V81.1701C203.996 79.0517 203.153 77.0211 201.657 75.5217C200.161 74.0222 198.132 73.1756 196.013 73.1667ZM183.815 84.1187C183.81 84.2319 183.762 84.3391 183.681 84.4176C183.599 84.4961 183.49 84.54 183.377 84.5399H170.335C170.222 84.54 170.113 84.4961 170.031 84.4176C169.95 84.3391 169.902 84.2319 169.897 84.1187V83.2762C169.902 83.163 169.95 83.0558 170.031 82.9773C170.113 82.8987 170.222 82.8549 170.335 82.855H183.377C183.49 82.8549 183.599 82.8987 183.681 82.9773C183.762 83.0558 183.81 83.163 183.815 83.2762V84.1187ZM183.815 79.0639C183.81 79.1771 183.762 79.2843 183.681 79.3628C183.599 79.4414 183.49 79.4852 183.377 79.4851H170.335C170.222 79.4852 170.113 79.4414 170.031 79.3628C169.95 79.2843 169.902 79.1771 169.897 79.0639V77.8002C169.902 77.687 169.95 77.5798 170.031 77.5013C170.113 77.4227 170.222 77.3789 170.335 77.379H183.377C183.49 77.3789 183.599 77.4227 183.681 77.5013C183.762 77.5798 183.81 77.687 183.815 77.8002V79.0639ZM200.664 82.0125H196.452C196.228 82.0125 196.014 81.9238 195.856 81.7658C195.698 81.6078 195.609 81.3935 195.609 81.1701V76.9578C195.609 76.7343 195.698 76.52 195.856 76.362C196.014 76.2041 196.228 76.1153 196.452 76.1153C197.792 76.1153 199.078 76.6478 200.026 77.5958C200.974 78.5438 201.506 79.8295 201.506 81.1701C201.506 81.3935 201.418 81.6078 201.26 81.7658C201.102 81.9238 200.887 82.0125 200.664 82.0125Z" fill="#111111"/>
<path d="M168.65 92.5433C168.65 93.5487 169.05 94.513 169.761 95.224C170.472 95.9349 171.436 96.3343 172.441 96.3343C173.447 96.3343 174.411 95.9349 175.122 95.224C175.833 94.513 176.233 93.5487 176.233 92.5433C176.233 91.5378 175.833 90.5735 175.122 89.8626C174.411 89.1516 173.447 88.7522 172.441 88.7522C171.436 88.7522 170.472 89.1516 169.761 89.8626C169.05 90.5735 168.65 91.5378 168.65 92.5433Z" fill="#111111"/>
<path d="M190.133 92.5433C190.133 93.5487 190.533 94.513 191.243 95.224C191.954 95.9349 192.919 96.3343 193.924 96.3343C194.93 96.3343 195.894 95.9349 196.605 95.224C197.316 94.513 197.715 93.5487 197.715 92.5433C197.715 91.5378 197.316 90.5735 196.605 89.8626C195.894 89.1516 194.93 88.7522 193.924 88.7522C192.919 88.7522 191.954 89.1516 191.243 89.8626C190.533 90.5735 190.133 91.5378 190.133 92.5433Z" fill="#111111"/>
</g>
</g>
<g id="Size=48px, Filled=true">
<g id="Vector_14">
<path d="M254.416 71H249.361C248.963 71.0053 248.582 71.1674 248.302 71.4512C248.022 71.735 247.865 72.1177 247.865 72.5164V84.1424C247.86 84.2783 247.802 84.4068 247.704 84.5011C247.606 84.5953 247.476 84.648 247.34 84.6479H244.307C244.176 84.6426 244.053 84.5871 243.962 84.4928C243.872 84.3986 243.821 84.273 243.821 84.1424V83.0708C243.824 82.956 243.865 82.8454 243.938 82.7572C244.012 82.669 244.113 82.6084 244.226 82.5855C244.762 82.5855 245.276 82.3725 245.655 81.9933C246.035 81.6141 246.248 81.0998 246.248 80.5636C246.248 80.0274 246.035 79.5131 245.655 79.1339C245.276 78.7547 244.762 78.5417 244.226 78.5417C244.113 78.5188 244.012 78.4582 243.938 78.37C243.865 78.2818 243.824 78.1712 243.821 78.0564V76.5602C243.824 76.4455 243.865 76.3349 243.938 76.2467C244.012 76.1585 244.113 76.0979 244.226 76.075C244.762 76.0214 245.255 75.7569 245.596 75.3398C245.938 74.9227 246.099 74.3871 246.045 73.8509C245.992 73.3146 245.727 72.8217 245.31 72.4804C244.893 72.1391 244.358 71.9775 243.821 72.0312C243.746 72.0296 243.672 72.0105 243.605 71.9754C243.539 71.9403 243.481 71.8902 243.437 71.829C243.248 71.5892 243.007 71.3954 242.732 71.2621C242.457 71.1289 242.156 71.0596 241.85 71.0596C241.545 71.0596 241.243 71.1289 240.968 71.2621C240.693 71.3954 240.452 71.5892 240.263 71.829C240.219 71.8902 240.161 71.9403 240.095 71.9754C240.028 72.0105 239.954 72.0296 239.879 72.0312H223.036C222.961 72.0296 222.887 72.0105 222.82 71.9754C222.754 71.9403 222.696 71.8902 222.652 71.829C222.463 71.5892 222.222 71.3954 221.947 71.2621C221.672 71.1289 221.37 71.0596 221.065 71.0596C220.759 71.0596 220.458 71.1289 220.183 71.2621C219.908 71.3954 219.667 71.5892 219.478 71.829C219.434 71.8902 219.376 71.9403 219.309 71.9754C219.243 72.0105 219.169 72.0296 219.094 72.0312C218.557 71.9775 218.022 72.1391 217.605 72.4804C217.187 72.8217 216.923 73.3146 216.869 73.8509C216.816 74.3871 216.977 74.9227 217.319 75.3398C217.66 75.7569 218.153 76.0214 218.689 76.075C218.802 76.0979 218.903 76.1585 218.976 76.2467C219.05 76.3349 219.091 76.4455 219.094 76.5602V78.198C219.091 78.3128 219.05 78.4234 218.976 78.5115C218.903 78.5997 218.802 78.6603 218.689 78.6832C218.153 78.6832 217.639 78.8963 217.259 79.2754C216.88 79.6546 216.667 80.1689 216.667 80.7051C216.667 81.2414 216.88 81.7557 217.259 82.1348C217.639 82.514 218.153 82.727 218.689 82.727C218.802 82.75 218.903 82.8105 218.976 82.8987C219.05 82.9869 219.091 83.0975 219.094 83.2123V84.2839C219.094 84.4145 219.043 84.5401 218.953 84.6344C218.862 84.7286 218.739 84.7842 218.608 84.7894H217.537C217.133 84.7893 216.745 84.9485 216.457 85.2323C216.17 85.5161 216.005 85.9018 216 86.3058V89.5409C216.037 90.4009 216.404 91.2135 217.026 91.8089C217.648 92.4043 218.475 92.7362 219.336 92.7355C219.44 92.7482 219.545 92.7223 219.63 92.6626C219.716 92.6029 219.777 92.5137 219.801 92.412C220.199 91.0519 221.026 89.8573 222.16 89.0074C223.294 88.1574 224.672 87.698 226.089 87.698C227.506 87.698 228.885 88.1574 230.019 89.0074C231.152 89.8573 231.98 91.0519 232.377 92.412C232.408 92.517 232.472 92.6092 232.559 92.6748C232.647 92.7404 232.753 92.7759 232.863 92.7759H245.115C245.225 92.7759 245.331 92.7404 245.419 92.6748C245.506 92.6092 245.57 92.517 245.601 92.412C246.004 91.0599 246.832 89.8741 247.964 89.0309C249.095 88.1878 250.468 87.7323 251.879 87.7323C253.29 87.7323 254.663 88.1878 255.794 89.0309C256.925 89.8741 257.754 91.0599 258.157 92.412C258.187 92.517 258.251 92.6092 258.339 92.6748C258.426 92.7404 258.533 92.7759 258.642 92.7759H260.664C261.549 92.7759 262.397 92.4244 263.023 91.7988C263.649 91.1731 264 90.3246 264 89.4398V80.604C263.995 78.062 262.984 75.6253 261.188 73.826C259.393 72.0266 256.958 71.0107 254.416 71ZM239.778 84.1424C239.772 84.2783 239.715 84.4068 239.617 84.5011C239.519 84.5953 239.388 84.648 239.252 84.6479H223.602C223.466 84.648 223.336 84.5953 223.238 84.5011C223.14 84.4068 223.082 84.2783 223.077 84.1424V83.1314C223.082 82.9955 223.14 82.867 223.238 82.7727C223.336 82.6784 223.466 82.6258 223.602 82.6259H239.252C239.388 82.6258 239.519 82.6784 239.617 82.7727C239.715 82.867 239.772 82.9955 239.778 83.1314V84.1424ZM239.778 78.0767C239.772 78.2126 239.715 78.3411 239.617 78.4354C239.519 78.5296 239.388 78.5822 239.252 78.5821H223.602C223.466 78.5822 223.336 78.5296 223.238 78.4354C223.14 78.3411 223.082 78.2126 223.077 78.0767V76.5602C223.082 76.4243 223.14 76.2958 223.238 76.2015C223.336 76.1073 223.466 76.0547 223.602 76.0548H239.252C239.388 76.0547 239.519 76.1073 239.617 76.2015C239.715 76.2958 239.772 76.4243 239.778 76.5602V78.0767ZM259.997 81.615H254.942C254.674 81.615 254.417 81.5085 254.227 81.3189C254.037 81.1293 253.931 80.8722 253.931 80.604V75.5493C253.931 75.2812 254.037 75.024 254.227 74.8344C254.417 74.6448 254.674 74.5383 254.942 74.5383C256.551 74.5383 258.093 75.1774 259.231 76.3149C260.369 77.4525 261.008 78.9953 261.008 80.604C261.008 80.8722 260.901 81.1293 260.711 81.3189C260.522 81.5085 260.265 81.615 259.997 81.615Z" fill="#111111"/>
<path d="M221.58 94.2519C221.58 95.4584 222.06 96.6156 222.913 97.4687C223.766 98.3219 224.923 98.8012 226.13 98.8012C227.336 98.8012 228.493 98.3219 229.347 97.4687C230.2 96.6156 230.679 95.4584 230.679 94.2519C230.679 93.0453 230.2 91.8882 229.347 91.0351C228.493 90.1819 227.336 89.7026 226.13 89.7026C224.923 89.7026 223.766 90.1819 222.913 91.0351C222.06 91.8882 221.58 93.0453 221.58 94.2519Z" fill="#111111"/>
<path d="M247.36 94.2519C247.36 95.4584 247.839 96.6156 248.692 97.4687C249.545 98.3219 250.702 98.8012 251.909 98.8012C253.116 98.8012 254.273 98.3219 255.126 97.4687C255.979 96.6156 256.458 95.4584 256.458 94.2519C256.458 93.0453 255.979 91.8882 255.126 91.0351C254.273 90.1819 253.116 89.7026 251.909 89.7026C250.702 89.7026 249.545 90.1819 248.692 91.0351C247.839 91.8882 247.36 93.0453 247.36 94.2519Z" fill="#111111"/>
</g>
</g>
</g>
</g>
<defs>
<clipPath id="clip0_1126_876">
<rect width="264" height="108" rx="5" fill="white"/>
</clipPath>
</defs>
</svg>
