<svg width="264" height="108" viewBox="0 0 264 108" fill="none" xmlns="http://www.w3.org/2000/svg">
<g clip-path="url(#clip0_2170_496)">
<g clip-path="url(#clip1_2170_496)">
<path d="M0.75 21C0.75 21.5967 1.30312 22.169 2.28769 22.591C3.27226 23.0129 4.60761 23.25 6 23.25C7.39239 23.25 8.72774 23.0129 9.71231 22.591C10.6969 22.169 11.25 21.5967 11.25 21M0.75 21C0.75 20.4033 1.30312 19.831 2.28769 19.409C3.27226 18.9871 4.60761 18.75 6 18.75C7.39239 18.75 8.72774 18.9871 9.71231 19.409C10.6969 19.831 11.25 20.4033 11.25 21M0.75 21V24.1498C0.75 25.3096 3.1006 26.25 6 26.25C8.8994 26.25 11.25 25.31 11.25 24.1498V21M0.75 24V27.15C0.75 28.3097 3.1006 29.25 6 29.25C8.8994 29.25 11.25 28.3097 11.25 27.15V24" stroke="#111111" stroke-width="0.75" stroke-linecap="round" stroke-linejoin="round"/>
</g>
<g clip-path="url(#clip2_2170_496)">
<path d="M25 20C25 20.7956 25.7375 21.5587 27.0503 22.1213C28.363 22.6839 30.1435 23 32 23C33.8565 23 35.637 22.6839 36.9497 22.1213C38.2625 21.5587 39 20.7956 39 20M25 20C25 19.2044 25.7375 18.4413 27.0503 17.8787C28.363 17.3161 30.1435 17 32 17C33.8565 17 35.637 17.3161 36.9497 17.8787C38.2625 18.4413 39 19.2044 39 20M25 20V24.1998C25 25.7461 28.1341 27 32 27C35.8659 27 39 25.7467 39 24.1998V20M25 24V28.2C25 29.7462 28.1341 31 32 31C35.8659 31 39 29.7462 39 28.2V24" stroke="#111111" stroke-linecap="round" stroke-linejoin="round"/>
</g>
<g clip-path="url(#clip3_2170_496)">
<path d="M53.25 19C53.25 19.9946 54.1719 20.9484 55.8128 21.6517C57.4538 22.3549 59.6794 22.75 62 22.75C64.3206 22.75 66.5462 22.3549 68.1872 21.6517C69.8281 20.9484 70.75 19.9946 70.75 19M53.25 19C53.25 18.0054 54.1719 17.0516 55.8128 16.3483C57.4538 15.6451 59.6794 15.25 62 15.25C64.3206 15.25 66.5462 15.6451 68.1872 16.3483C69.8281 17.0516 70.75 18.0054 70.75 19M53.25 19V24.2497C53.25 26.1826 57.1677 27.75 62 27.75C66.8323 27.75 70.75 26.1834 70.75 24.2497V19M53.25 24V29.25C53.25 31.1828 57.1677 32.75 62 32.75C66.8323 32.75 70.75 31.1828 70.75 29.25V24" stroke="#111111" stroke-width="1.25" stroke-linecap="round" stroke-linejoin="round"/>
</g>
<g clip-path="url(#clip4_2170_496)">
<path d="M85 17V23.5996C85 26.0296 89.9251 28 96 28C102.075 28 107 26.0306 107 23.5996V17M85 24V30.6C85 33.0298 89.9251 35 96 35C102.075 35 107 33.0298 107 30.6V24M85 17.5C85 18.6935 86.1589 19.8381 88.2218 20.682C90.2847 21.5259 93.0826 22 96 22C98.9174 22 101.715 21.5259 103.778 20.682C105.841 19.8381 107 18.6935 107 17.5C107 16.3065 105.841 15.1619 103.778 14.318C101.715 13.4741 98.9174 13 96 13C93.0826 13 90.2847 13.4741 88.2218 14.318C86.1589 15.1619 85 16.3065 85 17.5Z" stroke="#111111" stroke-width="1.5" stroke-linecap="round" stroke-linejoin="round"/>
</g>
<path d="M122 16C122 17.5913 123.475 19.1174 126.101 20.2426C128.726 21.3679 132.287 22 136 22C139.713 22 143.274 21.3679 145.899 20.2426C148.525 19.1174 150 17.5913 150 16M122 16C122 14.4087 123.475 12.8826 126.101 11.7574C128.726 10.6321 132.287 10 136 10C139.713 10 143.274 10.6321 145.899 11.7574C148.525 12.8826 150 14.4087 150 16M122 16V24.3995C122 27.4922 128.268 30 136 30C143.732 30 150 27.4935 150 24.3995V16M122 24V32.4C122 35.4924 128.268 38 136 38C143.732 38 150 35.4924 150 32.4V24" stroke="#111111" stroke-width="2" stroke-linecap="round" stroke-linejoin="round"/>
<path d="M166.5 14C166.5 15.9891 168.344 17.8968 171.626 19.3033C174.908 20.7098 179.359 21.5 184 21.5C188.641 21.5 193.092 20.7098 196.374 19.3033C199.656 17.8968 201.5 15.9891 201.5 14M166.5 14C166.5 12.0109 168.344 10.1032 171.626 8.6967C174.908 7.29018 179.359 6.5 184 6.5C188.641 6.5 193.092 7.29018 196.374 8.6967C199.656 10.1032 201.5 12.0109 201.5 14M166.5 14V24.4994C166.5 28.3653 174.335 31.5 184 31.5C193.665 31.5 201.5 28.3668 201.5 24.4994V14M166.5 24V34.5C166.5 38.3656 174.335 41.5 184 41.5C193.665 41.5 201.5 38.3656 201.5 34.5V24" stroke="#111111" stroke-width="2.5" stroke-linecap="round" stroke-linejoin="round"/>
<path d="M219 12C219 14.3869 221.212 16.6761 225.151 18.364C229.089 20.0518 234.43 21 240 21C245.57 21 250.911 20.0518 254.849 18.364C258.788 16.6761 261 14.3869 261 12M219 12C219 9.61305 221.212 7.32387 225.151 5.63604C229.089 3.94821 234.43 3 240 3C245.57 3 250.911 3.94821 254.849 5.63604C258.788 7.32387 261 9.61305 261 12M219 12V24.5993C219 29.2383 228.402 33 240 33C251.598 33 261 29.2402 261 24.5993V12M219 24V36.6C219 41.2387 228.402 45 240 45C251.598 45 261 41.2387 261 36.6V24" stroke="#111111" stroke-width="3" stroke-linecap="round" stroke-linejoin="round"/>
<path fill-rule="evenodd" clip-rule="evenodd" d="M6 82.75C8.20912 82.75 10 81.9105 10 80.875C10 79.8395 8.20912 79 6 79C3.79086 79 2 79.8395 2 80.875C2 81.9105 3.79086 82.75 6 82.75ZM6 86.9167C3.8 86.9167 2 86.0833 2 85.0417V87.125C2 88.1667 3.8 89 6 89C8.2 89 10 88.1667 10 87.125V85.0417C10 86.0833 8.2 86.9167 6 86.9167ZM2 81.9167C2 82.9583 3.8 83.7917 6 83.7917C8.2 83.7917 10 82.9583 10 81.9167V84C10 85.0417 8.2 85.875 6 85.875C3.8 85.875 2 85.0417 2 84V81.9167Z" fill="#111111"/>
<path fill-rule="evenodd" clip-rule="evenodd" d="M31.9998 82.3333C34.9453 82.3333 37.3332 81.2141 37.3332 79.8333C37.3332 78.4526 34.9453 77.3333 31.9998 77.3333C29.0543 77.3333 26.6665 78.4526 26.6665 79.8333C26.6665 81.2141 29.0543 82.3333 31.9998 82.3333ZM31.9998 87.8889C29.0665 87.8889 26.6665 86.7778 26.6665 85.3889V88.1667C26.6665 89.5556 29.0665 90.6667 31.9998 90.6667C34.9332 90.6667 37.3332 89.5556 37.3332 88.1667V85.3889C37.3332 86.7778 34.9332 87.8889 31.9998 87.8889ZM26.6665 81.2222C26.6665 82.6111 29.0665 83.7222 31.9998 83.7222C34.9332 83.7222 37.3332 82.6111 37.3332 81.2222V84C37.3332 85.3889 34.9332 86.5 31.9998 86.5C29.0665 86.5 26.6665 85.3889 26.6665 84V81.2222Z" fill="#111111"/>
<path fill-rule="evenodd" clip-rule="evenodd" d="M62.0002 81.9167C65.682 81.9167 68.6668 80.5175 68.6668 78.7917C68.6668 77.0658 65.682 75.6667 62.0002 75.6667C58.3183 75.6667 55.3335 77.0658 55.3335 78.7917C55.3335 80.5175 58.3183 81.9167 62.0002 81.9167ZM62.0002 88.8611C58.3335 88.8611 55.3335 87.4722 55.3335 85.7361V89.2083C55.3335 90.9444 58.3335 92.3333 62.0002 92.3333C65.6668 92.3333 68.6668 90.9444 68.6668 89.2083V85.7361C68.6668 87.4722 65.6668 88.8611 62.0002 88.8611ZM55.3335 80.5278C55.3335 82.2639 58.3335 83.6528 62.0002 83.6528C65.6668 83.6528 68.6668 82.2639 68.6668 80.5278V84C68.6668 85.7361 65.6668 87.125 62.0002 87.125C58.3335 87.125 55.3335 85.7361 55.3335 84V80.5278Z" fill="#111111"/>
<path fill-rule="evenodd" clip-rule="evenodd" d="M96 81.5C100.418 81.5 104 79.8211 104 77.75C104 75.6789 100.418 74 96 74C91.5817 74 88 75.6789 88 77.75C88 79.8211 91.5817 81.5 96 81.5ZM96 89.8333C91.6 89.8333 88 88.1667 88 86.0833V90.25C88 92.3333 91.6 94 96 94C100.4 94 104 92.3333 104 90.25V86.0833C104 88.1667 100.4 89.8333 96 89.8333ZM88 79.8333C88 81.9167 91.6 83.5833 96 83.5833C100.4 83.5833 104 81.9167 104 79.8333V84C104 86.0833 100.4 87.75 96 87.75C91.6 87.75 88 86.0833 88 84V79.8333Z" fill="#111111"/>
<path fill-rule="evenodd" clip-rule="evenodd" d="M136 80.6667C141.891 80.6667 146.667 78.4281 146.667 75.6667C146.667 72.9052 141.891 70.6667 136 70.6667C130.109 70.6667 125.333 72.9052 125.333 75.6667C125.333 78.4281 130.109 80.6667 136 80.6667ZM136 91.7778C130.133 91.7778 125.333 89.5555 125.333 86.7778V92.3333C125.333 95.1111 130.133 97.3333 136 97.3333C141.867 97.3333 146.667 95.1111 146.667 92.3333V86.7778C146.667 89.5555 141.867 91.7778 136 91.7778ZM125.333 78.4444C125.333 81.2222 130.133 83.4444 136 83.4444C141.867 83.4444 146.667 81.2222 146.667 78.4444V84C146.667 86.7778 141.867 89 136 89C130.133 89 125.333 86.7778 125.333 84V78.4444Z" fill="#111111"/>
<path fill-rule="evenodd" clip-rule="evenodd" d="M184 79.8333C191.364 79.8333 197.333 77.0351 197.333 73.5833C197.333 70.1316 191.364 67.3333 184 67.3333C176.636 67.3333 170.667 70.1316 170.667 73.5833C170.667 77.0351 176.636 79.8333 184 79.8333ZM184 93.7222C176.667 93.7222 170.667 90.9445 170.667 87.4722V94.4167C170.667 97.8889 176.667 100.667 184 100.667C191.333 100.667 197.333 97.8889 197.333 94.4167V87.4722C197.333 90.9445 191.333 93.7222 184 93.7222ZM170.667 77.0556C170.667 80.5278 176.667 83.3056 184 83.3056C191.333 83.3056 197.333 80.5278 197.333 77.0556V84C197.333 87.4722 191.333 90.25 184 90.25C176.667 90.25 170.667 87.4722 170.667 84V77.0556Z" fill="#111111"/>
<path fill-rule="evenodd" clip-rule="evenodd" d="M240 79C248.836 79 256 75.6421 256 71.5C256 67.3579 248.836 64 240 64C231.163 64 224 67.3579 224 71.5C224 75.6421 231.163 79 240 79ZM240 95.6667C231.2 95.6667 224 92.3333 224 88.1667V96.5C224 100.667 231.2 104 240 104C248.8 104 256 100.667 256 96.5V88.1667C256 92.3333 248.8 95.6667 240 95.6667ZM224 75.6667C224 79.8333 231.2 83.1667 240 83.1667C248.8 83.1667 256 79.8333 256 75.6667V84C256 88.1667 248.8 91.5 240 91.5C231.2 91.5 224 88.1667 224 84V75.6667Z" fill="#111111"/>
</g>
<defs>
<clipPath id="clip0_2170_496">
<rect width="264" height="108" rx="5" fill="white"/>
</clipPath>
<clipPath id="clip1_2170_496">
<rect width="12" height="12" fill="white" transform="translate(0 18)"/>
</clipPath>
<clipPath id="clip2_2170_496">
<rect width="16" height="16" fill="white" transform="translate(24 16)"/>
</clipPath>
<clipPath id="clip3_2170_496">
<rect width="20" height="20" fill="white" transform="translate(52 14)"/>
</clipPath>
<clipPath id="clip4_2170_496">
<rect width="24" height="24" fill="white" transform="translate(84 12)"/>
</clipPath>
</defs>
</svg>
