<svg width="264" height="108" viewBox="0 0 264 108" fill="none" xmlns="http://www.w3.org/2000/svg">
<g clip-path="url(#clip0_2170_499)">
<g clip-path="url(#clip1_2170_499)">
<path d="M3.75 29.25H8.25M0.75 23.25L2.24626 21.26C2.29886 21.1901 2.37017 21.1508 2.44451 21.1508C2.51886 21.1508 2.59017 21.1901 2.64277 21.26L3.35723 22.24C3.40983 22.3099 3.48114 22.3492 3.55549 22.3492C3.62983 22.3492 3.70114 22.3099 3.75374 22.24L5.25 20.25M0.75 24.75H11.25M6.75 21.75V23.25M9.75 21.75V23.25M8.25 21V23.25M7.5 29.25H4.5L4.875 27H7.125L7.5 29.25ZM2.15 18.75H9.85C10.6232 18.75 11.25 19.3656 11.25 20.125V25.625C11.25 26.3844 10.6232 27 9.85 27H2.15C1.3768 27 0.75 26.3844 0.75 25.625V20.125C0.75 19.3656 1.3768 18.75 2.15 18.75Z" stroke="#111111" stroke-width="0.75" stroke-linecap="round" stroke-linejoin="round"/>
</g>
<g clip-path="url(#clip2_2170_499)">
<path d="M29 31H35M25 23L26.995 20.3466C27.0651 20.2534 27.1602 20.2011 27.2594 20.2011C27.3585 20.2011 27.4536 20.2534 27.5237 20.3466L28.4763 21.6534C28.5464 21.7466 28.6415 21.7989 28.7406 21.7989C28.8398 21.7989 28.9349 21.7466 29.005 21.6534L31 19M25 25H39M33 21V23M37 21V23M35 20V23M34 31H30L30.5 28H33.5L34 31ZM26.8667 17H37.1333C38.1643 17 39 17.8208 39 18.8333V26.1667C39 27.1792 38.1643 28 37.1333 28H26.8667C25.8357 28 25 27.1792 25 26.1667V18.8333C25 17.8208 25.8357 17 26.8667 17Z" stroke="#111111" stroke-linecap="round" stroke-linejoin="round"/>
</g>
<g clip-path="url(#clip3_2170_499)">
<path d="M58.25 32.75H65.75M53.25 22.75L55.7438 19.4333C55.8314 19.3168 55.9503 19.2514 56.0742 19.2514C56.1981 19.2514 56.3169 19.3168 56.4046 19.4333L57.5954 21.0667C57.6831 21.1832 57.8019 21.2486 57.9258 21.2486C58.0497 21.2486 58.1686 21.1832 58.2562 21.0667L60.75 17.75M53.25 25.25H70.75M63.25 20.25V22.75M68.25 20.25V22.75M65.75 19V22.75M64.5 32.75H59.5L60.125 29H63.875L64.5 32.75ZM55.5833 15.25H68.4167C69.7053 15.25 70.75 16.276 70.75 17.5417V26.7083C70.75 27.974 69.7053 29 68.4167 29H55.5833C54.2947 29 53.25 27.974 53.25 26.7083V17.5417C53.25 16.276 54.2947 15.25 55.5833 15.25Z" stroke="#111111" stroke-width="1.25" stroke-linecap="round" stroke-linejoin="round"/>
</g>
<g clip-path="url(#clip4_2170_499)">
<path d="M91.5 34.5H100.5M85.5 22.5L88.4925 18.5199C88.5977 18.3801 88.7403 18.3017 88.889 18.3017C89.0377 18.3017 89.1803 18.3801 89.2855 18.5199L90.7145 20.4801C90.8197 20.6199 90.9623 20.6983 91.111 20.6983C91.2597 20.6983 91.4023 20.6199 91.5075 20.4801L94.5 16.5M85.5 25.5H106.5M97.5 19.5V22.5M103.5 19.5V22.5M100.5 18V22.5M99 34.5H93L93.75 30H98.25L99 34.5ZM88.3 13.5H103.7C105.246 13.5 106.5 14.7312 106.5 16.25V27.25C106.5 28.7688 105.246 30 103.7 30H88.3C86.7536 30 85.5 28.7688 85.5 27.25V16.25C85.5 14.7312 86.7536 13.5 88.3 13.5Z" stroke="#111111" stroke-width="1.5" stroke-linecap="round" stroke-linejoin="round"/>
</g>
<path d="M130 38H142M122 22L125.99 16.6932C126.13 16.5069 126.32 16.4022 126.519 16.4022C126.717 16.4022 126.907 16.5069 127.047 16.6932L128.953 19.3068C129.093 19.4931 129.283 19.5978 129.481 19.5978C129.68 19.5978 129.87 19.4931 130.01 19.3068L134 14M122 26H150M138 18V22M146 18V22M142 16V22M140 38H132L133 32H139L140 38ZM125.733 10H146.267C148.329 10 150 11.6416 150 13.6667V28.3333C150 30.3584 148.329 32 146.267 32H125.733C123.671 32 122 30.3584 122 28.3333V13.6667C122 11.6416 123.671 10 125.733 10Z" stroke="#111111" stroke-width="2" stroke-linecap="round" stroke-linejoin="round"/>
<path d="M176.5 41.5H191.5M166.5 21.5L171.488 14.8665C171.663 14.6336 171.901 14.5028 172.148 14.5028C172.396 14.5028 172.634 14.6336 172.809 14.8665L175.191 18.1335C175.366 18.3664 175.604 18.4972 175.852 18.4972C176.099 18.4972 176.337 18.3664 176.512 18.1335L181.5 11.5M166.5 26.5H201.5M186.5 16.5V21.5M196.5 16.5V21.5M191.5 14V21.5M189 41.5H179L180.25 34H187.75L189 41.5ZM171.167 6.5H196.833C199.411 6.5 201.5 8.55203 201.5 11.0833V29.4167C201.5 31.948 199.411 34 196.833 34H171.167C168.589 34 166.5 31.948 166.5 29.4167V11.0833C166.5 8.55203 168.589 6.5 171.167 6.5Z" stroke="#111111" stroke-width="2.5" stroke-linecap="round" stroke-linejoin="round"/>
<path d="M231 45H249M219 21L224.985 13.0398C225.195 12.7603 225.481 12.6033 225.778 12.6033C226.075 12.6033 226.361 12.7603 226.571 13.0398L229.429 16.9602C229.639 17.2397 229.925 17.3967 230.222 17.3967C230.519 17.3967 230.805 17.2397 231.015 16.9602L237 9M219 27H261M243 15V21M255 15V21M249 12V21M246 45H234L235.5 36H244.5L246 45ZM224.6 3H255.4C258.493 3 261 5.46243 261 8.5V30.5C261 33.5376 258.493 36 255.4 36H224.6C221.507 36 219 33.5376 219 30.5V8.5C219 5.46243 221.507 3 224.6 3Z" stroke="#111111" stroke-width="3" stroke-linecap="round" stroke-linejoin="round"/>
<g clip-path="url(#clip5_2170_499)">
<path d="M7.09603 88.0628C7.07563 88.0386 7.05063 88.0186 7.02247 88.0042C6.99431 87.9897 6.96355 87.9809 6.93198 87.9784H5.05716C5.02329 87.9796 4.99001 87.9877 4.95938 88.0022C4.92875 88.0167 4.90142 88.0373 4.87905 88.0628L3.89477 89.2486C3.87191 89.2852 3.85978 89.3274 3.85978 89.3705C3.85978 89.4136 3.87191 89.4558 3.89477 89.4924C3.91475 89.534 3.94706 89.5685 3.98731 89.5911C4.02756 89.6137 4.0738 89.6234 4.11975 89.6189H7.86939C7.91187 89.6176 7.95322 89.6049 7.98919 89.5823C8.02515 89.5596 8.05443 89.5278 8.07401 89.4901C8.09359 89.4524 8.10276 89.4101 8.10057 89.3677C8.09838 89.3252 8.08491 89.2841 8.06156 89.2486L7.09603 88.0628Z" fill="#111111"/>
<path d="M10.916 78.37H1.07317C0.886712 78.37 0.707886 78.4441 0.576038 78.5759C0.444189 78.7078 0.370117 78.8866 0.370117 79.0731V86.5723C0.370117 86.7588 0.444189 86.9376 0.576038 87.0695C0.707886 87.2013 0.886712 87.2754 1.07317 87.2754H10.916C11.1024 87.2754 11.2813 87.2013 11.4131 87.0695C11.545 86.9376 11.619 86.7588 11.619 86.5723V79.0731C11.619 78.8866 11.545 78.7078 11.4131 78.5759C11.2813 78.4441 11.1024 78.37 10.916 78.37ZM10.6816 85.1662C10.6816 85.2284 10.6569 85.288 10.613 85.3319C10.569 85.3759 10.5094 85.4006 10.4473 85.4006H1.54188C1.47972 85.4006 1.42012 85.3759 1.37617 85.3319C1.33222 85.288 1.30753 85.2284 1.30753 85.1662V79.5418C1.30753 79.4796 1.33222 79.42 1.37617 79.376C1.42012 79.3321 1.47972 79.3074 1.54188 79.3074H10.4473C10.5094 79.3074 10.569 79.3321 10.613 79.376C10.6569 79.42 10.6816 79.4796 10.6816 79.5418V85.1662Z" fill="#111111"/>
<path d="M5.05716 83.2633C5.07525 83.2467 5.09102 83.2278 5.10403 83.207L6.36485 81.4588C6.40129 81.4089 6.42753 81.3524 6.44208 81.2925C6.45662 81.2325 6.45918 81.1702 6.44959 81.1092C6.44001 81.0483 6.41849 80.9898 6.38625 80.9372C6.35401 80.8845 6.31169 80.8388 6.26173 80.8026C6.21164 80.7664 6.15488 80.7404 6.09472 80.7263C6.03457 80.7121 5.9722 80.7099 5.91121 80.72C5.85022 80.73 5.79182 80.752 5.73936 80.7846C5.6869 80.8173 5.64142 80.86 5.60555 80.9104L4.66814 82.2227C4.65047 82.2457 4.62519 82.2616 4.59684 82.2676C4.5685 82.2737 4.53894 82.2694 4.51346 82.2556L3.80572 81.829C3.7044 81.7683 3.58389 81.7481 3.46831 81.7725C3.35273 81.7968 3.2506 81.8639 3.18234 81.9603L2.09495 83.4882C2.02285 83.5902 1.9942 83.7166 2.01529 83.8396C2.03639 83.9627 2.10551 84.0723 2.20744 84.1444C2.30937 84.2165 2.43577 84.2452 2.55883 84.2241C2.68189 84.203 2.79153 84.1339 2.86363 84.0319L3.65105 82.9446C3.66733 82.9198 3.6927 82.9025 3.72165 82.8964C3.7506 82.8902 3.78081 82.8958 3.80572 82.9117L4.51346 83.3336C4.6 83.3804 4.69908 83.3988 4.79666 83.3862C4.89425 83.3736 4.98539 83.3306 5.05716 83.2633Z" fill="#111111"/>
<path d="M7.40068 80.2448H7.86939C7.86939 80.2448 8.10374 80.2448 8.10374 80.4792V83.7601C8.10374 83.7601 8.10374 83.9944 7.86939 83.9944H7.40068C7.40068 83.9944 7.16633 83.9944 7.16633 83.7601V80.4792C7.16633 80.4792 7.16633 80.2448 7.40068 80.2448Z" fill="#111111"/>
<path d="M9.04115 81.1822H9.50985C9.50985 81.1822 9.74421 81.1822 9.74421 81.4166V83.7601C9.74421 83.7601 9.74421 83.9944 9.50985 83.9944H9.04115C9.04115 83.9944 8.8068 83.9944 8.8068 83.7601V81.4166C8.8068 81.4166 8.8068 81.1822 9.04115 81.1822Z" fill="#111111"/>
</g>
<g clip-path="url(#clip6_2170_499)">
<path d="M33.461 89.4171C33.4339 89.3848 33.4005 89.3582 33.363 89.3389C33.3254 89.3196 33.2844 89.3079 33.2423 89.3046H30.7426C30.6974 89.3062 30.653 89.3169 30.6122 89.3363C30.5713 89.3556 30.5349 89.3831 30.5051 89.4171L29.1927 90.9982C29.1622 91.0469 29.146 91.1032 29.146 91.1607C29.146 91.2181 29.1622 91.2744 29.1927 91.3232C29.2193 91.3787 29.2624 91.4246 29.3161 91.4548C29.3698 91.485 29.4314 91.498 29.4927 91.4919H34.4922C34.5488 91.4901 34.604 91.4732 34.6519 91.4431C34.6999 91.4129 34.7389 91.3704 34.765 91.3201C34.7911 91.2699 34.8033 91.2135 34.8004 91.1569C34.7975 91.1003 34.7796 91.0455 34.7484 90.9982L33.461 89.4171Z" fill="#111111"/>
<path d="M38.5543 76.4933H25.4306C25.182 76.4933 24.9435 76.5921 24.7677 76.7679C24.5919 76.9437 24.4932 77.1821 24.4932 77.4308V87.4298C24.4932 87.6784 24.5919 87.9168 24.7677 88.0926C24.9435 88.2684 25.182 88.3672 25.4306 88.3672H38.5543C38.8029 88.3672 39.0413 88.2684 39.2171 88.0926C39.3929 87.9168 39.4917 87.6784 39.4917 87.4298V77.4308C39.4917 77.1821 39.3929 76.9437 39.2171 76.7679C39.0413 76.5921 38.8029 76.4933 38.5543 76.4933ZM38.2418 85.555C38.2418 85.6378 38.2089 85.7173 38.1503 85.7759C38.0917 85.8345 38.0122 85.8674 37.9294 85.8674H26.0555C25.9726 85.8674 25.8932 85.8345 25.8346 85.7759C25.776 85.7173 25.743 85.6378 25.743 85.555V78.0557C25.743 77.9728 25.776 77.8933 25.8346 77.8347C25.8932 77.7761 25.9726 77.7432 26.0555 77.7432H37.9294C38.0122 77.7432 38.0917 77.7761 38.1503 77.8347C38.2089 77.8933 38.2418 77.9728 38.2418 78.0557V85.555Z" fill="#111111"/>
<path d="M30.7426 83.0177C30.7667 82.9956 30.7877 82.9704 30.8051 82.9427L32.4861 80.6117C32.5347 80.5453 32.5697 80.4699 32.5891 80.39C32.6085 80.31 32.6119 80.227 32.5991 80.1457C32.5864 80.0644 32.5577 79.9864 32.5147 79.9163C32.4717 79.8461 32.4153 79.7851 32.3487 79.7368C32.2819 79.6885 32.2062 79.6539 32.126 79.635C32.0458 79.6161 31.9626 79.6133 31.8813 79.6266C31.8 79.64 31.7221 79.6693 31.6522 79.7129C31.5822 79.7564 31.5216 79.8134 31.4737 79.8805L30.2239 81.6303C30.2003 81.661 30.1666 81.6822 30.1288 81.6902C30.091 81.6982 30.0516 81.6925 30.0176 81.6741L29.074 81.1054C28.9389 81.0245 28.7782 80.9975 28.6241 81.03C28.47 81.0624 28.3338 81.1519 28.2428 81.2804L26.7929 83.3177C26.6968 83.4536 26.6586 83.6221 26.6867 83.7862C26.7149 83.9503 26.807 84.0965 26.9429 84.1926C27.0788 84.2887 27.2474 84.3269 27.4114 84.2988C27.5755 84.2707 27.7217 84.1785 27.8178 84.0426L28.8677 82.5928C28.8894 82.5598 28.9233 82.5367 28.9619 82.5285C29.0005 82.5203 29.0408 82.5277 29.074 82.549L30.0176 83.1115C30.133 83.1739 30.2651 83.1985 30.3952 83.1816C30.5253 83.1648 30.6469 83.1075 30.7426 83.0177Z" fill="#111111"/>
<path d="M33.8673 78.9931H34.4922C34.4922 78.9931 34.8047 78.9931 34.8047 79.3056V83.6801C34.8047 83.6801 34.8047 83.9926 34.4922 83.9926H33.8673C33.8673 83.9926 33.5548 83.9926 33.5548 83.6801V79.3056C33.5548 79.3056 33.5548 78.9931 33.8673 78.9931Z" fill="#111111"/>
<path d="M36.0545 80.243H36.6795C36.6795 80.243 36.9919 80.243 36.9919 80.5555V83.6801C36.9919 83.6801 36.9919 83.9926 36.6795 83.9926H36.0545C36.0545 83.9926 35.7421 83.9926 35.7421 83.6801V80.5555C35.7421 80.5555 35.7421 80.243 36.0545 80.243Z" fill="#111111"/>
</g>
<g clip-path="url(#clip7_2170_499)">
<path d="M63.8265 90.7713C63.7926 90.7309 63.7509 90.6977 63.704 90.6736C63.657 90.6494 63.6058 90.6349 63.5531 90.6307H60.4284C60.372 90.6327 60.3165 90.6461 60.2655 90.6703C60.2144 90.6945 60.1689 90.7289 60.1316 90.7713L58.4911 92.7477C58.453 92.8086 58.4328 92.879 58.4328 92.9508C58.4328 93.0226 58.453 93.093 58.4911 93.1539C58.5244 93.2233 58.5783 93.2808 58.6454 93.3185C58.7124 93.3562 58.7895 93.3724 58.8661 93.3648H65.1155C65.1863 93.3626 65.2552 93.3415 65.3151 93.3038C65.3751 93.266 65.4239 93.213 65.4565 93.1501C65.4892 93.0873 65.5044 93.0168 65.5008 92.9461C65.4971 92.8754 65.4747 92.8069 65.4358 92.7477L63.8265 90.7713Z" fill="#111111"/>
<path d="M70.1931 74.6166H53.7885C53.4777 74.6166 53.1796 74.7401 52.9599 74.9598C52.7402 75.1796 52.6167 75.4776 52.6167 75.7884V88.2872C52.6167 88.598 52.7402 88.896 52.9599 89.1157C53.1796 89.3355 53.4777 89.4589 53.7885 89.4589H70.1931C70.5039 89.4589 70.8019 89.3355 71.0217 89.1157C71.2414 88.896 71.3649 88.598 71.3649 88.2872V75.7884C71.3649 75.4776 71.2414 75.1796 71.0217 74.9598C70.8019 74.7401 70.5039 74.6166 70.1931 74.6166ZM69.8025 85.9437C69.8025 86.0473 69.7614 86.1466 69.6881 86.2198C69.6149 86.2931 69.5155 86.3343 69.4119 86.3343H54.5696C54.466 86.3343 54.3667 86.2931 54.2934 86.2198C54.2202 86.1466 54.179 86.0473 54.179 85.9437V76.5696C54.179 76.466 54.2202 76.3666 54.2934 76.2934C54.3667 76.2201 54.466 76.179 54.5696 76.179H69.4119C69.5155 76.179 69.6149 76.2201 69.6881 76.2934C69.7614 76.3666 69.8025 76.466 69.8025 76.5696V85.9437Z" fill="#111111"/>
<path d="M60.4284 82.7721C60.4586 82.7445 60.4849 82.713 60.5066 82.6784L62.6079 79.7646C62.6687 79.6816 62.7124 79.5874 62.7366 79.4874C62.7609 79.3874 62.7651 79.2837 62.7492 79.1821C62.7332 79.0804 62.6973 78.983 62.6436 78.8953C62.5899 78.8076 62.5193 78.7313 62.4361 78.6709C62.3526 78.6106 62.258 78.5674 62.1577 78.5437C62.0574 78.5201 61.9535 78.5165 61.8519 78.5332C61.7502 78.5499 61.6529 78.5866 61.5654 78.641C61.478 78.6955 61.4022 78.7667 61.3424 78.8506L59.7801 81.0379C59.7506 81.0762 59.7085 81.1027 59.6612 81.1127C59.614 81.1227 59.5647 81.1156 59.5223 81.0926L58.3427 80.3817C58.1738 80.2805 57.973 80.2469 57.7804 80.2874C57.5877 80.328 57.4175 80.4398 57.3037 80.6004L55.4914 83.1471C55.3713 83.3169 55.3235 83.5276 55.3587 83.7327C55.3938 83.9378 55.509 84.1205 55.6789 84.2407C55.8488 84.3609 56.0595 84.4086 56.2646 84.3735C56.4697 84.3383 56.6524 84.2231 56.7725 84.0532L58.0849 82.2409C58.1121 82.1997 58.1543 82.1709 58.2026 82.1606C58.2508 82.1504 58.3012 82.1596 58.3427 82.1862L59.5223 82.8893C59.6665 82.9673 59.8316 82.998 59.9943 82.977C60.1569 82.956 60.3088 82.8843 60.4284 82.7721Z" fill="#111111"/>
<path d="M64.3343 77.7413H65.1155C65.1155 77.7413 65.5061 77.7413 65.5061 78.1319V83.6001C65.5061 83.6001 65.5061 83.9907 65.1155 83.9907H64.3343C64.3343 83.9907 63.9437 83.9907 63.9437 83.6001V78.1319C63.9437 78.1319 63.9437 77.7413 64.3343 77.7413Z" fill="#111111"/>
<path d="M67.0684 79.3037H67.8496C67.8496 79.3037 68.2402 79.3037 68.2402 79.6943V83.6001C68.2402 83.6001 68.2402 83.9907 67.8496 83.9907H67.0684C67.0684 83.9907 66.6778 83.9907 66.6778 83.6001V79.6943C66.6778 79.6943 66.6778 79.3037 67.0684 79.3037Z" fill="#111111"/>
</g>
<g clip-path="url(#clip8_2170_499)">
<path d="M98.1921 92.1256C98.1513 92.0772 98.1013 92.0373 98.0449 92.0083C97.9886 91.9794 97.9271 91.9619 97.864 91.9569H94.1143C94.0466 91.9592 93.98 91.9754 93.9188 92.0044C93.8575 92.0334 93.8028 92.0747 93.7581 92.1256L91.7895 94.4973C91.7438 94.5703 91.7196 94.6548 91.7196 94.741C91.7196 94.8272 91.7438 94.9116 91.7895 94.9847C91.8295 95.068 91.8941 95.1369 91.9746 95.1822C92.0551 95.2275 92.1476 95.2469 92.2395 95.2378H99.7388C99.8237 95.2351 99.9064 95.2098 99.9784 95.1646C100.05 95.1193 100.109 95.0556 100.148 94.9802C100.187 94.9047 100.206 94.8202 100.201 94.7353C100.197 94.6505 100.17 94.5683 100.123 94.4973L98.1921 92.1256Z" fill="#111111"/>
<path d="M105.832 72.74H86.1463C85.7734 72.74 85.4158 72.8881 85.1521 73.1518C84.8884 73.4155 84.7402 73.7732 84.7402 74.1461V89.1446C84.7402 89.5176 84.8884 89.8752 85.1521 90.1389C85.4158 90.4026 85.7734 90.5508 86.1463 90.5508H105.832C106.205 90.5508 106.563 90.4026 106.826 90.1389C107.09 89.8752 107.238 89.5176 107.238 89.1446V74.1461C107.238 73.7732 107.09 73.4155 106.826 73.1518C106.563 72.8881 106.205 72.74 105.832 72.74ZM105.363 86.3324C105.363 86.4567 105.314 86.5759 105.226 86.6638C105.138 86.7517 105.019 86.8011 104.895 86.8011H87.0838C86.9594 86.8011 86.8402 86.7517 86.7523 86.6638C86.6644 86.5759 86.6151 86.4567 86.6151 86.3324V75.0835C86.6151 74.9592 86.6644 74.84 86.7523 74.7521C86.8402 74.6642 86.9594 74.6148 87.0838 74.6148H104.895C105.019 74.6148 105.138 74.6642 105.226 74.7521C105.314 74.84 105.363 74.9592 105.363 75.0835V86.3324Z" fill="#111111"/>
<path d="M94.1143 82.5265C94.1505 82.4934 94.182 82.4556 94.2081 82.4141L96.7297 78.9175C96.8026 78.8179 96.8551 78.7049 96.8842 78.5849C96.9132 78.4649 96.9184 78.3404 96.8992 78.2185C96.88 78.0966 96.837 77.9796 96.7725 77.8743C96.708 77.7691 96.6234 77.6776 96.5235 77.6051C96.4233 77.5327 96.3098 77.4809 96.1894 77.4525C96.0691 77.4241 95.9444 77.4199 95.8224 77.4399C95.7004 77.4599 95.5836 77.5039 95.4787 77.5693C95.3738 77.6346 95.2828 77.7201 95.2111 77.8207L93.3363 80.4455C93.3009 80.4914 93.2504 80.5233 93.1937 80.5353C93.137 80.5473 93.0779 80.5387 93.0269 80.5111L91.6114 79.6581C91.4088 79.5367 91.1678 79.4963 90.9366 79.5449C90.7055 79.5936 90.5012 79.7278 90.3647 79.9205L88.1899 82.9765C88.0457 83.1804 87.9884 83.4332 88.0306 83.6793C88.0728 83.9254 88.211 84.1447 88.4149 84.2889C88.6187 84.4331 88.8715 84.4904 89.1177 84.4482C89.3638 84.406 89.5831 84.2678 89.7273 84.0639L91.3021 81.8891C91.3347 81.8397 91.3854 81.8051 91.4433 81.7928C91.5012 81.7805 91.5616 81.7915 91.6114 81.8235L93.0269 82.6672C93.2 82.7608 93.3982 82.7976 93.5933 82.7724C93.7885 82.7472 93.9708 82.6612 94.1143 82.5265Z" fill="#111111"/>
<path d="M98.8014 76.4896H99.7388C99.7388 76.4896 100.207 76.4896 100.207 76.9583V83.5202C100.207 83.5202 100.207 83.9889 99.7388 83.9889H98.8014C98.8014 83.9889 98.3327 83.9889 98.3327 83.5202V76.9583C98.3327 76.9583 98.3327 76.4896 98.8014 76.4896Z" fill="#111111"/>
<path d="M102.082 78.3644H103.02C103.02 78.3644 103.488 78.3644 103.488 78.8331V83.5202C103.488 83.5202 103.488 83.9889 103.02 83.9889H102.082C102.082 83.9889 101.614 83.9889 101.614 83.5202V78.8331C101.614 78.8331 101.614 78.3644 102.082 78.3644Z" fill="#111111"/>
</g>
<path d="M138.923 94.8342C138.868 94.7696 138.802 94.7164 138.726 94.6778C138.651 94.6392 138.569 94.6159 138.485 94.6092H133.486C133.395 94.6123 133.307 94.6339 133.225 94.6726C133.143 94.7113 133.07 94.7663 133.011 94.8342L130.386 97.9964C130.325 98.0938 130.293 98.2064 130.293 98.3213C130.293 98.4363 130.325 98.5489 130.386 98.6463C130.439 98.7573 130.525 98.8493 130.633 98.9096C130.74 98.97 130.863 98.9959 130.986 98.9838H140.985C141.098 98.9802 141.208 98.9465 141.304 98.8861C141.4 98.8257 141.478 98.7409 141.531 98.6403C141.583 98.5397 141.607 98.427 141.601 98.3138C141.596 98.2006 141.56 98.0911 141.497 97.9964L138.923 94.8342Z" fill="#111111"/>
<path d="M149.109 68.9867H122.862C122.364 68.9867 121.888 69.1842 121.536 69.5358C121.184 69.8874 120.987 70.3643 120.987 70.8615V90.8596C120.987 91.3568 121.184 91.8337 121.536 92.1853C121.888 92.5369 122.364 92.7344 122.862 92.7344H149.109C149.606 92.7344 150.083 92.5369 150.435 92.1853C150.786 91.8337 150.984 91.3568 150.984 90.8596V70.8615C150.984 70.3643 150.786 69.8874 150.435 69.5358C150.083 69.1842 149.606 68.9867 149.109 68.9867ZM148.484 87.1099C148.484 87.2757 148.418 87.4346 148.301 87.5518C148.184 87.669 148.025 87.7349 147.859 87.7349H124.112C123.946 87.7349 123.787 87.669 123.67 87.5518C123.552 87.4346 123.487 87.2757 123.487 87.1099V72.1114C123.487 71.9456 123.552 71.7867 123.67 71.6695C123.787 71.5523 123.946 71.4865 124.112 71.4865H147.859C148.025 71.4865 148.184 71.5523 148.301 71.6695C148.418 71.7867 148.484 71.9456 148.484 72.1114V87.1099Z" fill="#111111"/>
<path d="M133.486 82.0354C133.534 81.9913 133.576 81.9408 133.611 81.8854L136.973 77.2234C137.07 77.0906 137.14 76.9399 137.179 76.7799C137.217 76.62 137.224 76.4539 137.199 76.2914C137.173 76.1288 137.116 75.9728 137.03 75.8325C136.944 75.6922 136.831 75.5702 136.698 75.4736C136.564 75.377 136.413 75.3079 136.252 75.27C136.092 75.2322 135.926 75.2265 135.763 75.2532C135.6 75.28 135.445 75.3386 135.305 75.4257C135.165 75.5129 135.044 75.6268 134.948 75.761L132.448 79.2607C132.401 79.3219 132.334 79.3644 132.258 79.3804C132.182 79.3964 132.104 79.385 132.036 79.3482L130.148 78.2108C129.878 78.0489 129.557 77.9951 129.249 78.06C128.94 78.1248 128.668 78.3037 128.486 78.5608L125.586 82.6354C125.394 82.9072 125.318 83.2443 125.374 83.5724C125.43 83.9006 125.615 84.1929 125.886 84.3852C126.158 84.5775 126.495 84.6539 126.823 84.5976C127.152 84.5414 127.444 84.357 127.636 84.0852L129.736 81.1855C129.779 81.1196 129.847 81.0735 129.924 81.0571C130.001 81.0407 130.082 81.0554 130.148 81.098L132.036 82.2229C132.267 82.3478 132.531 82.3969 132.791 82.3633C133.051 82.3296 133.294 82.2149 133.486 82.0354Z" fill="#111111"/>
<path d="M139.735 73.9862H140.985C140.985 73.9862 141.61 73.9862 141.61 74.6111V83.3603C141.61 83.3603 141.61 83.9852 140.985 83.9852H139.735C139.735 83.9852 139.11 83.9852 139.11 83.3603V74.6111C139.11 74.6111 139.11 73.9862 139.735 73.9862Z" fill="#111111"/>
<path d="M144.11 76.486H145.359C145.359 76.486 145.984 76.486 145.984 77.1109V83.3603C145.984 83.3603 145.984 83.9852 145.359 83.9852H144.11C144.11 83.9852 143.485 83.9852 143.485 83.3603V77.1109C143.485 77.1109 143.485 76.486 144.11 76.486Z" fill="#111111"/>
<path d="M187.653 97.5427C187.585 97.4619 187.502 97.3955 187.408 97.3472C187.314 97.2989 187.212 97.2698 187.106 97.2615H180.857C180.744 97.2654 180.633 97.2923 180.531 97.3407C180.429 97.3891 180.338 97.4578 180.263 97.5427L176.982 101.495C176.906 101.617 176.866 101.758 176.866 101.902C176.866 102.045 176.906 102.186 176.982 102.308C177.049 102.447 177.157 102.562 177.291 102.637C177.425 102.712 177.579 102.745 177.732 102.73H190.231C190.373 102.725 190.51 102.683 190.63 102.608C190.75 102.532 190.848 102.426 190.913 102.3C190.978 102.175 191.009 102.034 191.002 101.892C190.994 101.751 190.949 101.614 190.872 101.495L187.653 97.5427Z" fill="#111111"/>
<path d="M200.386 65.2333H167.577C166.955 65.2333 166.359 65.4802 165.92 65.9197C165.48 66.3592 165.233 66.9553 165.233 67.5769V92.5744C165.233 93.196 165.48 93.7921 165.92 94.2316C166.359 94.671 166.955 94.918 167.577 94.918H200.386C201.008 94.918 201.604 94.671 202.043 94.2316C202.483 93.7921 202.73 93.196 202.73 92.5744V67.5769C202.73 66.9553 202.483 66.3592 202.043 65.9197C201.604 65.4802 201.008 65.2333 200.386 65.2333ZM199.605 87.8874C199.605 88.0946 199.523 88.2933 199.376 88.4398C199.23 88.5863 199.031 88.6686 198.824 88.6686H169.139C168.932 88.6686 168.733 88.5863 168.587 88.4398C168.44 88.2933 168.358 88.0946 168.358 87.8874V69.1392C168.358 68.932 168.44 68.7333 168.587 68.5868C168.733 68.4403 168.932 68.358 169.139 68.358H198.824C199.031 68.358 199.23 68.4403 199.376 68.5868C199.523 68.7333 199.605 68.932 199.605 69.1392V87.8874Z" fill="#111111"/>
<path d="M180.857 81.5443C180.917 81.4891 180.97 81.426 181.013 81.3568L185.216 75.5292C185.337 75.3632 185.425 75.1748 185.473 74.9749C185.522 74.7749 185.53 74.5674 185.498 74.3642C185.466 74.1609 185.395 73.966 185.287 73.7906C185.18 73.6152 185.039 73.4627 184.872 73.3419C184.705 73.2213 184.516 73.1348 184.315 73.0875C184.115 73.0403 183.907 73.0331 183.704 73.0665C183.5 73.0999 183.306 73.1732 183.131 73.2821C182.956 73.3911 182.804 73.5335 182.685 73.7013L179.56 78.0758C179.501 78.1524 179.417 78.2054 179.322 78.2255C179.228 78.2455 179.129 78.2312 179.045 78.1852L176.685 76.7635C176.348 76.5612 175.946 76.4938 175.561 76.5749C175.175 76.656 174.835 76.8796 174.607 77.2009L170.983 82.2942C170.743 82.634 170.647 83.0553 170.717 83.4655C170.788 83.8757 171.018 84.2411 171.358 84.4815C171.698 84.7218 172.119 84.8173 172.529 84.747C172.939 84.6767 173.305 84.4463 173.545 84.1065L176.17 80.4819C176.224 80.3995 176.309 80.3418 176.405 80.3213C176.502 80.3008 176.602 80.3192 176.685 80.3725L179.045 81.7786C179.333 81.9347 179.663 81.9961 179.989 81.954C180.314 81.912 180.618 81.7686 180.857 81.5443Z" fill="#111111"/>
<path d="M188.669 71.4827H190.231C190.231 71.4827 191.012 71.4827 191.012 72.2639V83.2003C191.012 83.2003 191.012 83.9815 190.231 83.9815H188.669C188.669 83.9815 187.887 83.9815 187.887 83.2003V72.2639C187.887 72.2639 187.887 71.4827 188.669 71.4827Z" fill="#111111"/>
<path d="M194.137 74.6074H195.699C195.699 74.6074 196.48 74.6074 196.48 75.3886V83.2003C196.48 83.2003 196.48 83.9815 195.699 83.9815H194.137C194.137 83.9815 193.356 83.9815 193.356 83.2003V75.3886C193.356 75.3886 193.356 74.6074 194.137 74.6074Z" fill="#111111"/>
<path d="M244.384 100.251C244.302 100.154 244.202 100.075 244.089 100.017C243.977 99.9587 243.854 99.9237 243.727 99.9137H236.228C236.093 99.9184 235.96 99.9508 235.837 100.009C235.715 100.067 235.605 100.149 235.516 100.251L231.579 104.995C231.487 105.141 231.439 105.31 231.439 105.482C231.439 105.654 231.487 105.823 231.579 105.969C231.659 106.136 231.788 106.274 231.949 106.364C232.11 106.455 232.295 106.494 232.479 106.476H247.477C247.647 106.47 247.812 106.42 247.956 106.329C248.1 106.239 248.217 106.111 248.296 105.96C248.374 105.809 248.411 105.64 248.402 105.471C248.393 105.301 248.339 105.137 248.246 104.995L244.384 100.251Z" fill="#111111"/>
<path d="M259.663 61.48H220.292C219.546 61.48 218.831 61.7763 218.304 62.3037C217.776 62.8311 217.48 63.5464 217.48 64.2922V94.2893C217.48 95.0351 217.776 95.7504 218.304 96.2778C218.831 96.8052 219.546 97.1015 220.292 97.1015H259.663C260.409 97.1015 261.125 96.8052 261.652 96.2778C262.179 95.7504 262.476 95.0351 262.476 94.2893V64.2922C262.476 63.5464 262.179 62.8311 261.652 62.3037C261.125 61.7763 260.409 61.48 259.663 61.48ZM258.726 88.6648C258.726 88.9135 258.627 89.1519 258.451 89.3277C258.276 89.5035 258.037 89.6022 257.789 89.6022H222.167C221.918 89.6022 221.68 89.5035 221.504 89.3277C221.328 89.1519 221.23 88.9135 221.23 88.6648V66.167C221.23 65.9184 221.328 65.68 221.504 65.5042C221.68 65.3284 221.918 65.2296 222.167 65.2296H257.789C258.037 65.2296 258.276 65.3284 258.451 65.5042C258.627 65.68 258.726 65.9184 258.726 66.167V88.6648Z" fill="#111111"/>
<path d="M236.228 81.0531C236.301 80.9869 236.364 80.9112 236.416 80.8281L241.459 73.835C241.605 73.6358 241.71 73.4097 241.768 73.1698C241.826 72.9299 241.836 72.6809 241.798 72.437C241.76 72.1931 241.673 71.9592 241.545 71.7487C241.416 71.5382 241.246 71.3552 241.046 71.2103C240.846 71.0655 240.619 70.9617 240.378 70.905C240.138 70.8483 239.888 70.8397 239.644 70.8798C239.4 70.9199 239.167 71.0078 238.957 71.1385C238.747 71.2693 238.565 71.4402 238.422 71.6415L234.672 76.891C234.601 76.9828 234.5 77.0465 234.387 77.0706C234.274 77.0946 234.155 77.0775 234.053 77.0222L231.222 75.3161C230.817 75.0734 230.335 74.9926 229.873 75.0899C229.41 75.1872 229.002 75.4555 228.729 75.8411L224.379 81.953C224.091 82.3607 223.976 82.8663 224.061 83.3586C224.145 83.8508 224.422 84.2893 224.829 84.5777C225.237 84.8661 225.743 84.9807 226.235 84.8964C226.727 84.812 227.166 84.5355 227.454 84.1278L230.604 79.7782C230.669 79.6793 230.77 79.6101 230.886 79.5856C231.002 79.561 231.123 79.583 231.222 79.647L234.053 81.3343C234.4 81.5216 234.796 81.5953 235.186 81.5448C235.577 81.4943 235.941 81.3223 236.228 81.0531Z" fill="#111111"/>
<path d="M245.602 68.9793H247.477C247.477 68.9793 248.414 68.9793 248.414 69.9167V83.0404C248.414 83.0404 248.414 83.9778 247.477 83.9778H245.602C245.602 83.9778 244.665 83.9778 244.665 83.0404V69.9167C244.665 69.9167 244.665 68.9793 245.602 68.9793Z" fill="#111111"/>
<path d="M252.164 72.7289H254.039C254.039 72.7289 254.976 72.7289 254.976 73.6663V83.0404C254.976 83.0404 254.976 83.9778 254.039 83.9778H252.164C252.164 83.9778 251.227 83.9778 251.227 83.0404V73.6663C251.227 73.6663 251.227 72.7289 252.164 72.7289Z" fill="#111111"/>
</g>
<defs>
<clipPath id="clip0_2170_499">
<rect width="264" height="108" rx="5" fill="white"/>
</clipPath>
<clipPath id="clip1_2170_499">
<rect width="12" height="12" fill="white" transform="translate(0 18)"/>
</clipPath>
<clipPath id="clip2_2170_499">
<rect width="16" height="16" fill="white" transform="translate(24 16)"/>
</clipPath>
<clipPath id="clip3_2170_499">
<rect width="20" height="20" fill="white" transform="translate(52 14)"/>
</clipPath>
<clipPath id="clip4_2170_499">
<rect width="24" height="24" fill="white" transform="translate(84 12)"/>
</clipPath>
<clipPath id="clip5_2170_499">
<rect width="12" height="12" fill="white" transform="translate(0 78)"/>
</clipPath>
<clipPath id="clip6_2170_499">
<rect width="16" height="16" fill="white" transform="translate(24 76)"/>
</clipPath>
<clipPath id="clip7_2170_499">
<rect width="20" height="20" fill="white" transform="translate(52 74)"/>
</clipPath>
<clipPath id="clip8_2170_499">
<rect width="24" height="24" fill="white" transform="translate(84 72)"/>
</clipPath>
</defs>
</svg>
