<svg width="264" height="108" viewBox="0 0 264 108" fill="none" xmlns="http://www.w3.org/2000/svg">
<g id="Lock code">
<g clip-path="url(#clip0_2091_228)">
<g id="Size=12px, Filled=false" clip-path="url(#clip1_2091_228)">
<path id="Vector" d="M7.39956 23.325C7.60666 23.325 7.77456 23.1571 7.77456 22.95C7.77456 22.7429 7.60666 22.575 7.39956 22.575V23.325ZM1.36508 22.3349L1.63025 22.0698L1.63024 22.0698L1.36508 22.3349ZM1.36508 19.3651L1.63024 19.6302L1.36508 19.3651ZM9.7771 22.0383C9.66018 22.2093 9.70398 22.4426 9.87493 22.5595C10.0459 22.6765 10.2792 22.6327 10.3962 22.4617L9.7771 22.0383ZM5.65002 27.525C5.85713 27.525 6.02502 27.3571 6.02502 27.15C6.02502 26.9429 5.85713 26.775 5.65002 26.775V27.525ZM1.36508 26.5349L1.63024 26.2697L1.63024 26.2697L1.36508 26.5349ZM1.36508 23.5651L1.63024 23.8302L1.63024 23.8302L1.36508 23.5651ZM5.29998 20.475C5.09288 20.475 4.92498 20.6429 4.92498 20.85C4.92498 21.0571 5.09288 21.225 5.29998 21.225V20.475ZM8.44999 21.225C8.65709 21.225 8.82499 21.0571 8.82499 20.85C8.82499 20.6429 8.65709 20.475 8.44999 20.475V21.225ZM5.29998 24.675C5.09288 24.675 4.92498 24.8429 4.92498 25.05C4.92498 25.2571 5.09288 25.425 5.29998 25.425V24.675ZM5.99998 25.425C6.20709 25.425 6.37498 25.2571 6.37498 25.05C6.37498 24.8429 6.20709 24.675 5.99998 24.675V25.425ZM8.16005 24.0601L8.42519 24.3252L8.42521 24.3252L8.16005 24.0601ZM7.74999 25.05H7.37499V25.05L7.74999 25.05ZM10.55 25.05H10.175L10.175 25.05L10.55 25.05ZM7.39956 22.95V22.575H2.85V22.95V23.325H7.39956V22.95ZM2.85 22.95V22.575C2.3925 22.575 1.95374 22.3933 1.63025 22.0698L1.36508 22.3349L1.09991 22.6001C1.56406 23.0643 2.19359 23.325 2.85 23.325V22.95ZM1.36508 22.3349L1.63024 22.0698C1.30674 21.7463 1.125 21.3075 1.125 20.85H0.75H0.375C0.375 21.5064 0.635757 22.136 1.09991 22.6001L1.36508 22.3349ZM0.75 20.85H1.125C1.125 20.3925 1.30674 19.9537 1.63024 19.6302L1.36508 19.3651L1.09991 19.0999C0.635757 19.5641 0.375 20.1936 0.375 20.85H0.75ZM1.36508 19.3651L1.63024 19.6302C1.95374 19.3067 2.3925 19.125 2.85 19.125V18.75V18.375C2.19359 18.375 1.56406 18.6358 1.09991 19.0999L1.36508 19.3651ZM2.85 18.75V19.125H8.45002V18.75V18.375H2.85V18.75ZM8.45002 18.75V19.125C9.76012 19.125 10.7622 20.5979 9.7771 22.0383L10.0866 22.25L10.3962 22.4617C11.7257 20.5178 10.3562 18.375 8.45002 18.375V18.75ZM5.65002 27.15V26.775H2.85V27.15V27.525H5.65002V27.15ZM2.85 27.15V26.775C2.3925 26.775 1.95374 26.5932 1.63024 26.2697L1.36508 26.5349L1.09991 26.8001C1.56407 27.2642 2.19359 27.525 2.85 27.525V27.15ZM1.36508 26.5349L1.63024 26.2697C1.30674 25.9462 1.125 25.5075 1.125 25.05H0.75H0.375C0.375 25.7064 0.635755 26.3359 1.09992 26.8001L1.36508 26.5349ZM0.75 25.05H1.125C1.125 24.5925 1.30674 24.1537 1.63024 23.8302L1.36508 23.5651L1.09992 23.2999C0.635758 23.7641 0.375 24.3936 0.375 25.05H0.75ZM1.36508 23.5651L1.63024 23.8302C1.95374 23.5067 2.39249 23.325 2.85 23.325V22.95V22.575C2.1936 22.575 1.56407 22.8358 1.09991 23.2999L1.36508 23.5651ZM5.29998 20.85V21.225H8.44999V20.85V20.475H5.29998V20.85ZM5.29998 25.05V25.425H5.99998V25.05V24.675H5.29998V25.05ZM10.55 25.75V25.375H7.75003V25.75V26.125H10.55V25.75ZM7.75003 25.75V25.375C7.15627 25.375 6.67503 25.8563 6.67503 26.45H7.05003H7.42503C7.42503 26.2705 7.57052 26.125 7.75003 26.125V25.75ZM7.05003 26.45H6.67503V28.55H7.05003H7.42503V26.45H7.05003ZM7.05003 28.55H6.67503C6.67503 29.1437 7.15629 29.625 7.75003 29.625V29.25V28.875C7.5705 28.875 7.42503 28.7295 7.42503 28.55H7.05003ZM7.75003 29.25V29.625H10.55V29.25V28.875H7.75003V29.25ZM10.55 29.25V29.625C11.1437 29.625 11.625 29.1438 11.625 28.55H11.25H10.875C10.875 28.7295 10.7295 28.875 10.55 28.875V29.25ZM11.25 28.55H11.625V26.45H11.25H10.875V28.55H11.25ZM11.25 26.45H11.625C11.625 25.8563 11.1437 25.375 10.55 25.375V25.75V26.125C10.7295 26.125 10.875 26.2705 10.875 26.45H11.25ZM9.14999 23.65V23.275C8.67919 23.275 8.22775 23.462 7.89488 23.7949L8.16005 24.0601L8.42521 24.3252C8.61744 24.133 8.87813 24.025 9.14999 24.025V23.65ZM8.16005 24.0601L7.89491 23.7949C7.56195 24.1278 7.37499 24.5793 7.37499 25.05H7.74999H8.12499C8.12499 24.7782 8.23296 24.5174 8.42519 24.3252L8.16005 24.0601ZM7.74999 25.05L7.37499 25.05L7.37503 25.75L7.75003 25.75L8.12503 25.75L8.12499 25.05L7.74999 25.05ZM10.55 25.75L10.925 25.75L10.925 25.05L10.55 25.05L10.175 25.05L10.175 25.75L10.55 25.75ZM10.55 25.05H10.925C10.925 24.5793 10.738 24.1278 10.4051 23.7949L10.1399 24.0601L9.87477 24.3252C10.067 24.5174 10.175 24.7782 10.175 25.05H10.55ZM10.1399 24.0601L10.4051 23.7949C10.0722 23.462 9.62073 23.275 9.14999 23.275V23.65V24.025C9.42181 24.025 9.68254 24.133 9.87477 24.3252L10.1399 24.0601ZM2.84996 21.025V20.65C2.96042 20.65 3.04996 20.7395 3.04996 20.85H2.67496H2.29996C2.29996 21.1537 2.54621 21.4 2.84996 21.4V21.025ZM2.67496 20.85H3.04996C3.04996 20.9604 2.96043 21.05 2.84996 21.05V20.675V20.3C2.5462 20.3 2.29996 20.5462 2.29996 20.85H2.67496ZM2.84996 21.025V21.4C3.15341 21.4 3.40007 21.1541 3.40007 20.85H3.02507H2.65007C2.65007 20.7392 2.73981 20.65 2.84996 20.65V21.025ZM3.02507 20.85H3.40007C3.40007 20.5459 3.15342 20.3 2.84996 20.3V20.675V21.05C2.7398 21.05 2.65007 20.9607 2.65007 20.85H3.02507ZM2.84996 25.225V24.85C2.96036 24.85 3.04996 24.9395 3.04996 25.05H2.67496H2.29996C2.29996 25.3539 2.54626 25.6 2.84996 25.6V25.225ZM2.67496 25.05H3.04996C3.04996 25.1605 2.96043 25.25 2.84996 25.25V24.875V24.5C2.5462 24.5 2.29996 24.7463 2.29996 25.05H2.67496ZM2.84996 25.225V25.6C3.15335 25.6 3.40007 25.3542 3.40007 25.05H3.02507H2.65007C2.65007 24.9392 2.73987 24.85 2.84996 24.85V25.225ZM3.02507 25.05H3.40007C3.40007 24.746 3.15342 24.5 2.84996 24.5V24.875V25.25C2.7398 25.25 2.65007 25.1608 2.65007 25.05H3.02507ZM9.14999 27.6886V27.3136C9.26045 27.3136 9.34999 27.4032 9.34999 27.5136H8.97499H8.59999C8.59999 27.8174 8.84624 28.0636 9.14999 28.0636V27.6886ZM8.97499 27.5136H9.34999C9.34999 27.6241 9.26045 27.7136 9.14999 27.7136V27.3386V26.9636C8.84624 26.9636 8.59999 27.2099 8.59999 27.5136H8.97499ZM9.14999 27.6886V28.0636C9.45401 28.0636 9.69989 27.8171 9.69989 27.5136H9.32489H8.94989C8.94989 27.4034 9.03926 27.3136 9.14999 27.3136V27.6886ZM9.32489 27.5136H9.69989C9.69989 27.2101 9.45401 26.9636 9.14999 26.9636V27.3386V27.7136C9.03926 27.7136 8.94989 27.6238 8.94989 27.5136H9.32489Z" fill="#111111"/>
</g>
<g id="Size=16px, Filled=false" clip-path="url(#clip2_2091_228)">
<path id="Vector_2" d="M33.8661 23.1C34.1422 23.1 34.3661 22.8762 34.3661 22.6C34.3661 22.3239 34.1422 22.1 33.8661 22.1V23.1ZM25.8201 21.7799L26.1737 21.4264L26.1737 21.4264L25.8201 21.7799ZM25.8201 17.8201L26.1737 18.1737H26.1737L25.8201 17.8201ZM37.0361 21.3844C36.8802 21.6123 36.9386 21.9235 37.1666 22.0794C37.3945 22.2353 37.7056 22.1769 37.8615 21.949L37.0361 21.3844ZM31.5334 28.7C31.8095 28.7 32.0334 28.4761 32.0334 28.2C32.0334 27.9238 31.8095 27.7 31.5334 27.7V28.7ZM25.8201 27.3799L26.1737 27.0263L26.1737 27.0263L25.8201 27.3799ZM25.8201 23.4201L26.1737 23.7737L26.1737 23.7736L25.8201 23.4201ZM31.0666 19.3C30.7905 19.3 30.5666 19.5238 30.5666 19.8C30.5666 20.0761 30.7905 20.3 31.0666 20.3V19.3ZM35.2666 20.3C35.5428 20.3 35.7666 20.0761 35.7666 19.8C35.7666 19.5238 35.5428 19.3 35.2666 19.3V20.3ZM31.0666 24.9C30.7905 24.9 30.5666 25.1239 30.5666 25.4C30.5666 25.6762 30.7905 25.9 31.0666 25.9V24.9ZM32 25.9C32.2761 25.9 32.5 25.6762 32.5 25.4C32.5 25.1239 32.2761 24.9 32 24.9V25.9ZM34.8801 24.0801L35.2336 24.4337L35.2336 24.4336L34.8801 24.0801ZM34.3333 25.4H33.8333V25.4L34.3333 25.4ZM38.0667 25.4H37.5667V25.4L38.0667 25.4ZM33.8661 22.6V22.1H27.8V22.6V23.1H33.8661V22.6ZM27.8 22.6V22.1C27.19 22.1 26.605 21.8577 26.1737 21.4264L25.8201 21.7799L25.4665 22.1335C26.0854 22.7523 26.9248 23.1 27.8 23.1V22.6ZM25.8201 21.7799L26.1737 21.4264C25.7423 20.995 25.5 20.41 25.5 19.8H25H24.5C24.5 20.6752 24.8477 21.5146 25.4666 22.1335L25.8201 21.7799ZM25 19.8H25.5C25.5 19.19 25.7423 18.605 26.1737 18.1737L25.8201 17.8201L25.4666 17.4665C24.8477 18.0854 24.5 18.9248 24.5 19.8H25ZM25.8201 17.8201L26.1737 18.1737C26.605 17.7423 27.19 17.5 27.8 17.5V17V16.5C26.9248 16.5 26.0854 16.8477 25.4666 17.4665L25.8201 17.8201ZM27.8 17V17.5H35.2667V17V16.5H27.8V17ZM35.2667 17V17.5C37.0135 17.5 38.3497 19.4639 37.0361 21.3844L37.4488 21.6667L37.8615 21.949C39.6342 19.3571 37.8083 16.5 35.2667 16.5V17ZM31.5334 28.2V27.7H27.8V28.2V28.7H31.5334V28.2ZM27.8 28.2V27.7C27.19 27.7 26.605 27.4576 26.1737 27.0263L25.8201 27.3799L25.4666 27.7334C26.0854 28.3523 26.9248 28.7 27.8 28.7V28.2ZM25.8201 27.3799L26.1737 27.0263C25.7423 26.595 25.5 26.01 25.5 25.4H25H24.5C24.5 26.2752 24.8477 27.1146 25.4666 27.7334L25.8201 27.3799ZM25 25.4H25.5C25.5 24.79 25.7423 24.205 26.1737 23.7737L25.8201 23.4201L25.4666 23.0665C24.8477 23.6854 24.5 24.5248 24.5 25.4H25ZM25.8201 23.4201L26.1737 23.7736C26.605 23.3423 27.19 23.1 27.8 23.1V22.6V22.1C26.9248 22.1 26.0854 22.4477 25.4666 23.0665L25.8201 23.4201ZM31.0666 19.8V20.3H35.2666V19.8V19.3H31.0666V19.8ZM31.0666 25.4V25.9H32V25.4V24.9H31.0666V25.4ZM38.0667 26.3333V25.8333H34.3334V26.3333V26.8333H38.0667V26.3333ZM34.3334 26.3333V25.8333C33.5417 25.8333 32.9 26.4751 32.9 27.2667H33.4H33.9C33.9 27.0273 34.094 26.8333 34.3334 26.8333V26.3333ZM33.4 27.2667H32.9V30.0667H33.4H33.9V27.2667H33.4ZM33.4 30.0667H32.9C32.9 30.8583 33.5417 31.5 34.3334 31.5V31V30.5C34.094 30.5 33.9 30.306 33.9 30.0667H33.4ZM34.3334 31V31.5H38.0667V31V30.5H34.3334V31ZM38.0667 31V31.5C38.8583 31.5 39.5 30.8583 39.5 30.0667H39H38.5C38.5 30.306 38.306 30.5 38.0667 30.5V31ZM39 30.0667H39.5V27.2667H39H38.5V30.0667H39ZM39 27.2667H39.5C39.5 26.4751 38.8583 25.8333 38.0667 25.8333V26.3333V26.8333C38.306 26.8333 38.5 27.0273 38.5 27.2667H39ZM36.2 23.5333V23.0333C35.5723 23.0333 34.9703 23.2827 34.5265 23.7265L34.8801 24.0801L35.2336 24.4336C35.4899 24.1773 35.8375 24.0333 36.2 24.0333V23.5333ZM34.8801 24.0801L34.5265 23.7265C34.0826 24.1704 33.8333 24.7724 33.8333 25.4H34.3333H34.8333C34.8333 25.0375 34.9773 24.6899 35.2336 24.4337L34.8801 24.0801ZM34.3333 25.4L33.8333 25.4L33.8334 26.3333L34.3334 26.3333L34.8334 26.3333L34.8333 25.4L34.3333 25.4ZM38.0667 26.3333L38.5667 26.3333L38.5667 25.4L38.0667 25.4L37.5667 25.4L37.5667 26.3333L38.0667 26.3333ZM38.0667 25.4H38.5667C38.5667 24.7723 38.3173 24.1703 37.8735 23.7265L37.5199 24.0801L37.1664 24.4336C37.4227 24.6899 37.5667 25.0376 37.5667 25.4H38.0667ZM37.5199 24.0801L37.8735 23.7265C37.4296 23.2827 36.8276 23.0333 36.2 23.0333V23.5333V24.0333C36.5624 24.0333 36.9101 24.1773 37.1664 24.4336L37.5199 24.0801ZM27.8 20.0333V19.5333C27.9472 19.5333 28.0666 19.6527 28.0666 19.8H27.5666H27.0666C27.0666 20.205 27.3949 20.5333 27.8 20.5333V20.0333ZM27.5666 19.8H28.0666C28.0666 19.9473 27.9472 20.0667 27.8 20.0667V19.5667V19.0667C27.3949 19.0667 27.0666 19.395 27.0666 19.8H27.5666ZM27.8 20.0333V20.5333C28.2046 20.5333 28.5334 20.2054 28.5334 19.8H28.0334H27.5334C27.5334 19.6523 27.6531 19.5333 27.8 19.5333V20.0333ZM28.0334 19.8H28.5334C28.5334 19.3946 28.2046 19.0667 27.8 19.0667V19.5667V20.0667C27.6531 20.0667 27.5334 19.9477 27.5334 19.8H28.0334ZM27.8 25.6334V25.1334C27.9471 25.1334 28.0666 25.2527 28.0666 25.4H27.5666H27.0666C27.0666 25.8052 27.395 26.1334 27.8 26.1334V25.6334ZM27.5666 25.4H28.0666C28.0666 25.5473 27.9472 25.6667 27.8 25.6667V25.1667V24.6667C27.3949 24.6667 27.0666 24.995 27.0666 25.4H27.5666ZM27.8 25.6334V26.1334C28.2045 26.1334 28.5334 25.8056 28.5334 25.4H28.0334H27.5334C27.5334 25.2523 27.6532 25.1334 27.8 25.1334V25.6334ZM28.0334 25.4H28.5334C28.5334 24.9946 28.2046 24.6667 27.8 24.6667V25.1667V25.6667C27.6531 25.6667 27.5334 25.5477 27.5334 25.4H28.0334ZM36.2 28.9181V28.4181C36.3473 28.4181 36.4667 28.5375 36.4667 28.6848H35.9667H35.4667C35.4667 29.0898 35.795 29.4181 36.2 29.4181V28.9181ZM35.9667 28.6848H36.4667C36.4667 28.8321 36.3473 28.9515 36.2 28.9515V28.4515V27.9515C35.795 27.9515 35.4667 28.2798 35.4667 28.6848H35.9667ZM36.2 28.9181V29.4181C36.6054 29.4181 36.9332 29.0895 36.9332 28.6848H36.4332H35.9332C35.9332 28.5379 36.0523 28.4181 36.2 28.4181V28.9181ZM36.4332 28.6848H36.9332C36.9332 28.2802 36.6054 27.9515 36.2 27.9515V28.4515V28.9515C36.0523 28.9515 35.9332 28.8317 35.9332 28.6848H36.4332Z" fill="#111111"/>
</g>
<g id="Size=20px, Filled=false" clip-path="url(#clip3_2091_228)">
<path id="Vector_3" d="M64.3326 22.875C64.6778 22.875 64.9576 22.5952 64.9576 22.25C64.9576 21.9049 64.6778 21.625 64.3326 21.625V22.875ZM54.2751 21.2249L54.7171 20.783L54.7171 20.783L54.2751 21.2249ZM54.2751 16.2751L54.7171 16.7171H54.7171L54.2751 16.2751ZM68.2952 20.7305C68.1003 21.0154 68.1733 21.4044 68.4582 21.5992C68.7431 21.7941 69.1321 21.7211 69.3269 21.4362L68.2952 20.7305ZM61.4167 29.875C61.7619 29.875 62.0417 29.5951 62.0417 29.25C62.0417 28.9048 61.7619 28.625 61.4167 28.625V29.875ZM54.2751 28.2248L54.7171 27.7829L54.7171 27.7829L54.2751 28.2248ZM54.2751 23.2751L54.7171 23.7171L54.7171 23.7171L54.2751 23.2751ZM60.8333 18.125C60.4881 18.125 60.2083 18.4048 60.2083 18.75C60.2083 19.0952 60.4881 19.375 60.8333 19.375V18.125ZM66.0833 19.375C66.4285 19.375 66.7083 19.0952 66.7083 18.75C66.7083 18.4048 66.4285 18.125 66.0833 18.125V19.375ZM60.8333 25.125C60.4881 25.125 60.2083 25.4049 60.2083 25.75C60.2083 26.0952 60.4881 26.375 60.8333 26.375V25.125ZM62 26.375C62.3452 26.375 62.625 26.0952 62.625 25.75C62.625 25.4049 62.3452 25.125 62 25.125V26.375ZM65.6001 24.1001L66.042 24.5421L66.042 24.542L65.6001 24.1001ZM64.9166 25.75H64.2916V25.75L64.9166 25.75ZM69.5833 25.75H68.9583L68.9583 25.75L69.5833 25.75ZM64.3326 22.25V21.625H56.75V22.25V22.875H64.3326V22.25ZM56.75 22.25V21.625C55.9875 21.625 55.2562 21.3221 54.7171 20.783L54.2751 21.2249L53.8332 21.6668C54.6068 22.4404 55.656 22.875 56.75 22.875V22.25ZM54.2751 21.2249L54.7171 20.783C54.1779 20.2438 53.875 19.5125 53.875 18.75H53.25H52.625C52.625 19.844 53.0596 20.8933 53.8332 21.6668L54.2751 21.2249ZM53.25 18.75H53.875C53.875 17.9875 54.1779 17.2562 54.7171 16.7171L54.2751 16.2751L53.8332 15.8332C53.0596 16.6068 52.625 17.656 52.625 18.75H53.25ZM54.2751 16.2751L54.7171 16.7171C55.2562 16.1779 55.9875 15.875 56.75 15.875V15.25V14.625C55.656 14.625 54.6068 15.0596 53.8332 15.8332L54.2751 16.2751ZM56.75 15.25V15.875H66.0834V15.25V14.625H56.75V15.25ZM66.0834 15.25V15.875C68.2669 15.875 69.9371 18.3299 68.2952 20.7305L68.811 21.0834L69.3269 21.4362C71.5428 18.1964 69.2603 14.625 66.0834 14.625V15.25ZM61.4167 29.25V28.625H56.75V29.25V29.875H61.4167V29.25ZM56.75 29.25V28.625C55.9875 28.625 55.2562 28.3221 54.7171 27.7829L54.2751 28.2248L53.8332 28.6668C54.6068 29.4404 55.656 29.875 56.75 29.875V29.25ZM54.2751 28.2248L54.7171 27.7829C54.1779 27.2437 53.875 26.5125 53.875 25.7499H53.25H52.625C52.625 26.844 53.0596 27.8932 53.8332 28.6668L54.2751 28.2248ZM53.25 25.7499H53.875C53.875 24.9875 54.1779 24.2562 54.7171 23.7171L54.2751 23.2751L53.8332 22.8332C53.0596 23.6068 52.625 24.656 52.625 25.7499H53.25ZM54.2751 23.2751L54.7171 23.7171C55.2562 23.1779 55.9875 22.875 56.75 22.875V22.25V21.625C55.656 21.625 54.6068 22.0596 53.8332 22.8332L54.2751 23.2751ZM60.8333 18.75V19.375H66.0833V18.75V18.125H60.8333V18.75ZM60.8333 25.75V26.375H62V25.75V25.125H60.8333V25.75ZM69.5834 26.9166V26.2916H64.9167V26.9166V27.5416H69.5834V26.9166ZM64.9167 26.9166V26.2916C63.9271 26.2916 63.125 27.0938 63.125 28.0833H63.75H64.375C64.375 27.7841 64.6175 27.5416 64.9167 27.5416V26.9166ZM63.75 28.0833H63.125V31.5833H63.75H64.375V28.0833H63.75ZM63.75 31.5833H63.125C63.125 32.5729 63.9271 33.375 64.9167 33.375V32.75V32.125C64.6175 32.125 64.375 31.8825 64.375 31.5833H63.75ZM64.9167 32.75V33.375H69.5834V32.75V32.125H64.9167V32.75ZM69.5834 32.75V33.375C70.5729 33.375 71.3751 32.5729 71.3751 31.5833H70.7501H70.1251C70.1251 31.8825 69.8825 32.125 69.5834 32.125V32.75ZM70.7501 31.5833H71.3751V28.0833H70.7501H70.1251V31.5833H70.7501ZM70.7501 28.0833H71.3751C71.3751 27.0938 70.5729 26.2916 69.5834 26.2916V26.9166V27.5416C69.8825 27.5416 70.1251 27.7842 70.1251 28.0833H70.7501ZM67.25 23.4167V22.7917C66.4653 22.7917 65.7129 23.1034 65.1581 23.6582L65.6001 24.1001L66.042 24.542C66.3624 24.2216 66.7969 24.0417 67.25 24.0417V23.4167ZM65.6001 24.1001L65.1582 23.6581C64.6032 24.2129 64.2916 24.9655 64.2916 25.75H64.9166H65.5416C65.5416 25.2969 65.7216 24.8624 66.042 24.5421L65.6001 24.1001ZM64.9166 25.75L64.2916 25.75L64.2917 26.9167L64.9167 26.9166L65.5417 26.9166L65.5416 25.75L64.9166 25.75ZM69.5834 26.9166L70.2084 26.9166L70.2083 25.75L69.5833 25.75L68.9583 25.75L68.9584 26.9167L69.5834 26.9166ZM69.5833 25.75H70.2083C70.2083 24.9654 69.8966 24.2129 69.3418 23.6582L68.8999 24.1001L68.4579 24.542C68.7783 24.8624 68.9583 25.297 68.9583 25.75H69.5833ZM68.8999 24.1001L69.3418 23.6582C68.787 23.1034 68.0346 22.7917 67.25 22.7917V23.4167V24.0417C67.703 24.0417 68.1376 24.2217 68.4579 24.542L68.8999 24.1001ZM56.7499 19.0416V18.4166C56.934 18.4166 57.0833 18.5659 57.0833 18.75H56.4583H55.8333C55.8333 19.2562 56.2437 19.6666 56.7499 19.6666V19.0416ZM56.4583 18.75H57.0833C57.0833 18.9341 56.934 19.0833 56.7499 19.0833V18.4583V17.8333C56.2437 17.8333 55.8333 18.2437 55.8333 18.75H56.4583ZM56.7499 19.0416V19.6666C57.2557 19.6666 57.6668 19.2568 57.6668 18.75H57.0418H56.4168C56.4168 18.5654 56.5663 18.4166 56.7499 18.4166V19.0416ZM57.0418 18.75H57.6668C57.6668 18.2432 57.2557 17.8333 56.7499 17.8333V18.4583V19.0833C56.5663 19.0833 56.4168 18.9346 56.4168 18.75H57.0418ZM56.7499 26.0417V25.4167C56.9339 25.4167 57.0833 25.5659 57.0833 25.75H56.4583H55.8333C55.8333 26.2565 56.2438 26.6667 56.7499 26.6667V26.0417ZM56.4583 25.75H57.0833C57.0833 25.9341 56.934 26.0834 56.7499 26.0834V25.4584V24.8334C56.2437 24.8334 55.8333 25.2438 55.8333 25.75H56.4583ZM56.7499 26.0417V26.6667C57.2556 26.6667 57.6668 26.257 57.6668 25.75H57.0418H56.4168C56.4168 25.5654 56.5664 25.4167 56.7499 25.4167V26.0417ZM57.0418 25.75H57.6668C57.6668 25.2433 57.2557 24.8334 56.7499 24.8334V25.4584V26.0834C56.5663 26.0834 56.4168 25.9346 56.4168 25.75H57.0418ZM67.25 30.1477V29.5227C67.4341 29.5227 67.5833 29.6719 67.5833 29.856H66.9583H66.3333C66.3333 30.3623 66.7437 30.7727 67.25 30.7727V30.1477ZM66.9583 29.856H67.5833C67.5833 30.0401 67.4341 30.1893 67.25 30.1893V29.5643V28.9393C66.7437 28.9393 66.3333 29.3498 66.3333 29.856H66.9583ZM67.25 30.1477V30.7727C67.7567 30.7727 68.1665 30.3618 68.1665 29.856H67.5415H66.9165C66.9165 29.6724 67.0654 29.5227 67.25 29.5227V30.1477ZM67.5415 29.856H68.1665C68.1665 29.3502 67.7567 28.9393 67.25 28.9393V29.5643V30.1893C67.0654 30.1893 66.9165 30.0397 66.9165 29.856H67.5415Z" fill="#111111"/>
</g>
<g id="Size=24px, Filled=false">
<path id="Vector_4" d="M98.6658 22.75C99.08 22.75 99.4158 22.4142 99.4158 22C99.4158 21.5858 99.08 21.25 98.6658 21.25V22.75ZM87.1716 20.8284L87.7019 20.2981L87.7019 20.2981L87.1716 20.8284ZM87.1716 15.1716L86.6412 14.6412L87.1716 15.1716ZM103.165 20.2433C102.931 20.5852 103.019 21.0519 103.361 21.2857C103.703 21.5196 104.169 21.432 104.403 21.0901L103.165 20.2433ZM95.3334 30.75C95.7476 30.75 96.0834 30.4142 96.0834 30C96.0834 29.5858 95.7476 29.25 95.3334 29.25V30.75ZM87.1716 28.8284L87.7019 28.2981L87.7019 28.2981L87.1716 28.8284ZM87.1716 23.1716L87.7019 23.702L87.7019 23.702L87.1716 23.1716ZM94.6666 17.25C94.2524 17.25 93.9166 17.5858 93.9166 18C93.9166 18.4142 94.2524 18.75 94.6666 18.75V17.25ZM100.667 18.75C101.081 18.75 101.417 18.4142 101.417 18C101.417 17.5858 101.081 17.25 100.667 17.25V18.75ZM94.6666 25.25C94.2524 25.25 93.9166 25.5858 93.9166 26C93.9166 26.4142 94.2524 26.75 94.6666 26.75V25.25ZM96 26.75C96.4142 26.75 96.75 26.4142 96.75 26C96.75 25.5858 96.4142 25.25 96 25.25V26.75ZM100.114 24.1144L100.645 24.6448L100.645 24.6447L100.114 24.1144ZM99.3334 26L100.083 26V26H99.3334ZM104.667 26L105.417 26V26H104.667ZM98.6658 22V21.25H90V22V22.75H98.6658V22ZM90 22V21.25C89.138 21.25 88.3114 20.9076 87.7019 20.2981L87.1716 20.8284L86.6412 21.3588C87.532 22.2496 88.7402 22.75 90 22.75V22ZM87.1716 20.8284L87.7019 20.2981C87.0924 19.6886 86.75 18.862 86.75 18H86H85.25C85.25 19.2598 85.7504 20.468 86.6413 21.3588L87.1716 20.8284ZM86 18H86.75C86.75 17.1381 87.0924 16.3114 87.7019 15.7019L87.1716 15.1716L86.6412 14.6412C85.7504 15.532 85.25 16.7402 85.25 18H86ZM87.1716 15.1716L87.7019 15.7019C88.3114 15.0924 89.1381 14.75 90 14.75V14V13.25C88.7402 13.25 87.532 13.7504 86.6412 14.6412L87.1716 15.1716ZM90 14V14.75H100.667V14V13.25H90V14ZM100.667 14V14.75C103.134 14.75 105.025 17.5237 103.165 20.2433L103.784 20.6667L104.403 21.0901C106.952 17.3634 104.326 13.25 100.667 13.25V14ZM95.3334 30V29.25H90V30V30.75H95.3334V30ZM90 30V29.25C89.138 29.25 88.3114 28.9076 87.7019 28.2981L87.1716 28.8284L86.6413 29.3588C87.532 30.2496 88.7402 30.75 90 30.75V30ZM87.1716 28.8284L87.7019 28.2981C87.0924 27.6886 86.75 26.862 86.75 26H86H85.25C85.25 27.2598 85.7504 28.468 86.6413 29.3588L87.1716 28.8284ZM86 26H86.75C86.75 25.1381 87.0924 24.3114 87.7019 23.702L87.1716 23.1716L86.6413 22.6413C85.7504 23.5321 85.25 24.7403 85.25 26H86ZM87.1716 23.1716L87.7019 23.702C88.3114 23.0925 89.1381 22.75 90 22.75V22V21.25C88.7402 21.25 87.532 21.7505 86.6413 22.6413L87.1716 23.1716ZM94.6666 18V18.75H100.667V18V17.25H94.6666V18ZM94.6666 26V26.75H96V26V25.25H94.6666V26ZM104.667 27.3333V26.5833H99.3333V27.3333V28.0833H104.667V27.3333ZM99.3333 27.3333V26.5833C98.1826 26.5833 97.25 27.5161 97.25 28.6666H98H98.75C98.75 28.3445 99.0111 28.0833 99.3333 28.0833V27.3333ZM98 28.6666H97.25V32.6667H98H98.75V28.6666H98ZM98 32.6667H97.25C97.25 33.8173 98.1827 34.75 99.3333 34.75V34V33.25C99.0111 33.25 98.75 32.9889 98.75 32.6667H98ZM99.3333 34V34.75H104.667V34V33.25H99.3333V34ZM104.667 34V34.75C105.817 34.75 106.75 33.8173 106.75 32.6667H106H105.25C105.25 32.9889 104.989 33.25 104.667 33.25V34ZM106 32.6667H106.75V28.6666H106H105.25V32.6667H106ZM106 28.6666H106.75C106.75 27.5161 105.817 26.5833 104.667 26.5833V27.3333V28.0833C104.989 28.0833 105.25 28.3445 105.25 28.6666H106ZM102 23.3333V22.5833C101.094 22.5833 100.225 22.9433 99.5841 23.5841L100.114 24.1144L100.645 24.6447C101.004 24.2853 101.492 24.0833 102 24.0833V23.3333ZM100.114 24.1144L99.5842 23.584C98.9432 24.2248 98.5834 25.0939 98.5834 26H99.3334H100.083C100.083 25.4917 100.285 25.0042 100.645 24.6448L100.114 24.1144ZM99.3334 26L98.5834 26L98.5833 27.3333L99.3333 27.3333L100.083 27.3333L100.083 26L99.3334 26ZM104.667 27.3333L105.417 27.3333L105.417 26L104.667 26L103.917 26L103.917 27.3333L104.667 27.3333ZM104.667 26H105.417C105.417 25.0939 105.057 24.2248 104.416 23.5841L103.886 24.1144L103.355 24.6447C103.715 25.0042 103.917 25.4917 103.917 26H104.667ZM103.886 24.1144L104.416 23.5841C103.775 22.9433 102.906 22.5833 102 22.5833V23.3333V24.0833C102.508 24.0833 102.996 24.2853 103.355 24.6447L103.886 24.1144ZM90 18.3334V17.5834C90.2301 17.5834 90.4166 17.7699 90.4166 18H89.6666H88.9166C88.9166 18.5983 89.4016 19.0834 90 19.0834V18.3334ZM89.6666 18H90.4166C90.4166 18.2301 90.2301 18.4167 90 18.4167V17.6667V16.9167C89.4016 16.9167 88.9166 17.4017 88.9166 18H89.6666ZM90 18.3334V19.0834C90.598 19.0834 91.0834 18.5986 91.0834 18H90.3334H89.5834C89.5834 17.7697 89.7701 17.5834 90 17.5834V18.3334ZM90.3334 18H91.0834C91.0834 17.4015 90.598 16.9167 90 16.9167V17.6667V18.4167C89.7701 18.4167 89.5834 18.2304 89.5834 18H90.3334ZM90 26.3333V25.5833C90.23 25.5833 90.4166 25.7698 90.4166 26H89.6666H88.9166C88.9166 26.5985 89.4018 27.0833 90 27.0833V26.3333ZM89.6666 26H90.4166C90.4166 26.2301 90.2301 26.4166 90 26.4166V25.6666V24.9166C89.4016 24.9166 88.9166 25.4017 88.9166 26H89.6666ZM90 26.3333V27.0833C90.5979 27.0833 91.0834 26.5987 91.0834 26H90.3334H89.5834C89.5834 25.7696 89.7702 25.5833 90 25.5833V26.3333ZM90.3334 26H91.0834C91.0834 25.4014 90.598 24.9166 90 24.9166V25.6666V26.4166C89.7701 26.4166 89.5834 26.2303 89.5834 26H90.3334ZM102 31.0259V30.2759C102.23 30.2759 102.417 30.4624 102.417 30.6926H101.667H100.917C100.917 31.2909 101.402 31.7759 102 31.7759V31.0259ZM101.667 30.6926H102.417C102.417 30.9227 102.23 31.1092 102 31.1092V30.3592V29.6092C101.402 29.6092 100.917 30.0942 100.917 30.6926H101.667ZM102 31.0259V31.7759C102.598 31.7759 103.083 31.2908 103.083 30.6926H102.333H101.583C101.583 30.4626 101.77 30.2759 102 30.2759V31.0259ZM102.333 30.6926H103.083C103.083 30.0945 102.599 29.6092 102 29.6092V30.3592V31.1092C101.77 31.1092 101.583 30.9224 101.583 30.6926H102.333Z" fill="#111111"/>
</g>
<g id="Size=32px, Filled=false">
<path id="Vector_5" d="M139.732 22.2C140.284 22.2 140.732 21.7523 140.732 21.2C140.732 20.6478 140.284 20.2 139.732 20.2V22.2ZM123.64 19.5598L124.347 18.8527L124.347 18.8527L123.64 19.5598ZM123.64 11.6402L124.347 12.3473H124.347L123.64 11.6402ZM146.072 18.7688C145.76 19.2247 145.877 19.847 146.333 20.1588C146.789 20.4706 147.411 20.3538 147.723 19.8979L146.072 18.7688ZM135.067 33.3999C135.619 33.3999 136.067 32.9522 136.067 32.3999C136.067 31.8476 135.619 31.3999 135.067 31.3999V33.3999ZM123.64 30.7597L124.347 30.0526L124.347 30.0526L123.64 30.7597ZM123.64 22.8402L124.347 23.5473L124.347 23.5473L123.64 22.8402ZM134.133 14.6C133.581 14.6 133.133 15.0477 133.133 15.6C133.133 16.1523 133.581 16.6 134.133 16.6V14.6ZM142.533 16.6C143.086 16.6 143.533 16.1523 143.533 15.6C143.533 15.0477 143.086 14.6 142.533 14.6V16.6ZM134.133 25.8C133.581 25.8 133.133 26.2478 133.133 26.8C133.133 27.3523 133.581 27.8 134.133 27.8V25.8ZM136 27.8C136.552 27.8 137 27.3523 137 26.8C137 26.2478 136.552 25.8 136 25.8V27.8ZM141.76 24.1601L142.467 24.8673L142.467 24.8673L141.76 24.1601ZM140.667 26.8H139.667V26.8001L140.667 26.8ZM148.133 26.8H147.133V26.8001L148.133 26.8ZM139.732 21.2V20.2H127.6V21.2V22.2H139.732V21.2ZM127.6 21.2V20.2C126.38 20.2 125.21 19.7154 124.347 18.8527L123.64 19.5598L122.933 20.2669C124.171 21.5047 125.85 22.2 127.6 22.2V21.2ZM123.64 19.5598L124.347 18.8527C123.485 17.9901 123 16.82 123 15.6H122H121C121 17.3505 121.695 19.0292 122.933 20.2669L123.64 19.5598ZM122 15.6H123C123 14.38 123.485 13.21 124.347 12.3473L123.64 11.6402L122.933 10.9331C121.695 12.1709 121 13.8496 121 15.6H122ZM123.64 11.6402L124.347 12.3473C125.21 11.4846 126.38 11 127.6 11V10V9C125.85 9 124.171 9.69536 122.933 10.9331L123.64 11.6402ZM127.6 10V11H142.533V10V9H127.6V10ZM142.533 10V11C146.027 11 148.699 14.9278 146.072 18.7688L146.898 19.3334L147.723 19.8979C151.268 14.7142 147.617 9 142.533 9V10ZM135.067 32.3999V31.3999H127.6V32.3999V33.3999H135.067V32.3999ZM127.6 32.3999V31.3999C126.38 31.3999 125.21 30.9153 124.347 30.0526L123.64 30.7597L122.933 31.4668C124.171 32.7046 125.85 33.3999 127.6 33.3999V32.3999ZM123.64 30.7597L124.347 30.0526C123.485 29.19 123 28.0199 123 26.7999H122H121C121 28.5504 121.695 30.2291 122.933 31.4669L123.64 30.7597ZM122 26.7999H123C123 25.58 123.485 24.41 124.347 23.5473L123.64 22.8402L122.933 22.1331C121.695 23.3708 121 25.0496 121 26.7999H122ZM123.64 22.8402L124.347 23.5473C125.21 22.6847 126.38 22.2 127.6 22.2V21.2V20.2C125.85 20.2 124.171 20.8953 122.933 22.1331L123.64 22.8402ZM134.133 15.6V16.6H142.533V15.6V14.6H134.133V15.6ZM134.133 26.8V27.8H136V26.8V25.8H134.133V26.8ZM148.133 28.6666V27.6666H140.667V28.6666V29.6666H148.133V28.6666ZM140.667 28.6666V27.6666C139.083 27.6666 137.8 28.9502 137.8 30.5333H138.8H139.8C139.8 30.0546 140.188 29.6666 140.667 29.6666V28.6666ZM138.8 30.5333H137.8V36.1333H138.8H139.8V30.5333H138.8ZM138.8 36.1333H137.8C137.8 37.7166 139.083 39 140.667 39V38V37C140.188 37 139.8 36.6121 139.8 36.1333H138.8ZM140.667 38V39H148.133V38V37H140.667V38ZM148.133 38V39C149.717 39 151 37.7167 151 36.1333H150H149C149 36.612 148.612 37 148.133 37V38ZM150 36.1333H151V30.5333H150H149V36.1333H150ZM150 30.5333H151C151 28.9501 149.717 27.6666 148.133 27.6666V28.6666V29.6666C148.612 29.6666 149 30.0547 149 30.5333H150ZM144.4 23.0667V22.0667C143.145 22.0667 141.941 22.5654 141.053 23.453L141.76 24.1601L142.467 24.8673C142.98 24.3546 143.675 24.0667 144.4 24.0667V23.0667ZM141.76 24.1601L141.053 23.453C140.165 24.3407 139.667 25.5448 139.667 26.8H140.667H141.667C141.667 26.0751 141.955 25.3798 142.467 24.8673L141.76 24.1601ZM140.667 26.8L139.667 26.8001L139.667 28.6667L140.667 28.6666L141.667 28.6666L141.667 26.7999L140.667 26.8ZM148.133 28.6666L149.133 28.6666L149.133 26.7999L148.133 26.8L147.133 26.8001L147.133 28.6667L148.133 28.6666ZM148.133 26.8H149.133C149.133 25.5447 148.635 24.3407 147.747 23.453L147.04 24.1601L146.333 24.8673C146.845 25.3799 147.133 26.0751 147.133 26.8H148.133ZM147.04 24.1601L147.747 23.453C146.859 22.5654 145.655 22.0667 144.4 22.0667V23.0667V24.0667C145.125 24.0667 145.82 24.3546 146.333 24.8673L147.04 24.1601ZM127.6 16.0666V15.0666C127.894 15.0666 128.133 15.3054 128.133 15.6H127.133H126.133C126.133 16.41 126.79 17.0666 127.6 17.0666V16.0666ZM127.133 15.6H128.133C128.133 15.8945 127.894 16.1333 127.6 16.1333V15.1333V14.1333C126.79 14.1333 126.133 14.79 126.133 15.6H127.133ZM127.6 16.0666V17.0666C128.409 17.0666 129.067 16.4108 129.067 15.6H128.067H127.067C127.067 15.3046 127.306 15.0666 127.6 15.0666V16.0666ZM128.067 15.6H129.067C129.067 14.7892 128.409 14.1333 127.6 14.1333V15.1333V16.1333C127.306 16.1333 127.067 15.8953 127.067 15.6H128.067ZM127.6 27.2667V26.2667C127.894 26.2667 128.133 26.5055 128.133 26.8H127.133H126.133C126.133 27.6103 126.79 28.2667 127.6 28.2667V27.2667ZM127.133 26.8H128.133C128.133 27.0946 127.894 27.3334 127.6 27.3334V26.3334V25.3334C126.79 25.3334 126.133 25.9901 126.133 26.8H127.133ZM127.6 27.2667V28.2667C128.409 28.2667 129.067 27.6111 129.067 26.8H128.067H127.067C127.067 26.5046 127.306 26.2667 127.6 26.2667V27.2667ZM128.067 26.8H129.067C129.067 25.9892 128.409 25.3334 127.6 25.3334V26.3334V27.3334C127.306 27.3334 127.067 27.0954 127.067 26.8H128.067ZM144.4 33.8363V32.8363C144.695 32.8363 144.933 33.0751 144.933 33.3696H143.933H142.933C142.933 34.1796 143.59 34.8363 144.4 34.8363V33.8363ZM143.933 33.3696H144.933C144.933 33.6642 144.695 33.903 144.4 33.903V32.903V31.903C143.59 31.903 142.933 32.5596 142.933 33.3696H143.933ZM144.4 33.8363V34.8363C145.211 34.8363 145.866 34.1789 145.866 33.3696H144.866H143.866C143.866 33.0758 144.105 32.8363 144.4 32.8363V33.8363ZM144.866 33.3696H145.866C145.866 32.5603 145.211 31.903 144.4 31.903V32.903V33.903C144.105 33.903 143.866 33.6635 143.866 33.3696H144.866Z" fill="#111111"/>
</g>
<g id="Size=40px, Filled=false">
<path id="Vector_6" d="M188.665 21.7501C189.356 21.7501 189.915 21.1904 189.915 20.5001C189.915 19.8097 189.356 19.2501 188.665 19.2501V21.7501ZM168.55 18.4498L169.434 17.5659L169.434 17.5659L168.55 18.4498ZM168.55 8.55026L169.434 9.43414H169.434L168.55 8.55026ZM196.59 17.461C196.201 18.0309 196.347 18.8087 196.916 19.1985C197.486 19.5882 198.264 19.4422 198.654 18.8724L196.59 17.461ZM182.833 35.7499C183.524 35.7499 184.083 35.1903 184.083 34.4999C184.083 33.8096 183.524 33.2499 182.833 33.2499V35.7499ZM168.55 32.4497L169.434 31.5658L169.434 31.5658L168.55 32.4497ZM168.55 22.5502L169.434 23.4341L169.434 23.4341L168.55 22.5502ZM181.667 12.25C180.976 12.25 180.417 12.8096 180.417 13.5C180.417 14.1903 180.976 14.75 181.667 14.75V12.25ZM192.167 14.75C192.857 14.75 193.417 14.1903 193.417 13.5C193.417 12.8096 192.857 12.25 192.167 12.25V14.75ZM181.667 26.2501C180.976 26.2501 180.417 26.8097 180.417 27.5001C180.417 28.1904 180.976 28.7501 181.667 28.7501V26.2501ZM184 28.7501C184.69 28.7501 185.25 28.1904 185.25 27.5001C185.25 26.8097 184.69 26.2501 184 26.2501V28.7501ZM191.2 24.2002L192.084 25.0841L192.084 25.0841L191.2 24.2002ZM189.833 27.5H188.583V27.5001L189.833 27.5ZM199.167 27.5H197.917L197.917 27.5001L199.167 27.5ZM188.665 20.5001V19.2501H173.5V20.5001V21.7501H188.665V20.5001ZM173.5 20.5001V19.2501C171.975 19.2501 170.512 18.6443 169.434 17.5659L168.55 18.4498L167.666 19.3337C169.214 20.8809 171.312 21.7501 173.5 21.7501V20.5001ZM168.55 18.4498L169.434 17.5659C168.356 16.4876 167.75 15.025 167.75 13.5H166.5H165.25C165.25 15.6881 166.119 17.7865 167.666 19.3337L168.55 18.4498ZM166.5 13.5H167.75C167.75 11.975 168.356 10.5125 169.434 9.43414L168.55 8.55026L167.666 7.66637C166.119 9.21356 165.25 11.312 165.25 13.5H166.5ZM168.55 8.55026L169.434 9.43414C170.512 8.35581 171.975 7.75 173.5 7.75V6.5V5.25C171.312 5.25 169.214 6.1192 167.666 7.66637L168.55 8.55026ZM173.5 6.5V7.75H192.167V6.5V5.25H173.5V6.5ZM192.167 6.5V7.75C196.534 7.75 199.874 12.6598 196.59 17.461L197.622 18.1667L198.654 18.8724C203.086 12.3927 198.521 5.25 192.167 5.25V6.5ZM182.833 34.4999V33.2499H173.5V34.4999V35.7499H182.833V34.4999ZM173.5 34.4999V33.2499C171.975 33.2499 170.512 32.6441 169.434 31.5658L168.55 32.4497L167.666 33.3336C169.214 34.8807 171.312 35.7499 173.5 35.7499V34.4999ZM168.55 32.4497L169.434 31.5658C168.356 30.4875 167.75 29.0249 167.75 27.4999H166.5H165.25C165.25 29.6879 166.119 31.7864 167.666 33.3336L168.55 32.4497ZM166.5 27.4999H167.75C167.75 25.975 168.356 24.5124 169.434 23.4341L168.55 22.5502L167.666 21.6663C166.119 23.2135 165.25 25.3119 165.25 27.4999H166.5ZM168.55 22.5502L169.434 23.4341C170.512 22.3558 171.975 21.7501 173.5 21.7501V20.5001V19.2501C171.312 19.2501 169.214 20.1192 167.666 21.6663L168.55 22.5502ZM181.667 13.5V14.75H192.167V13.5V12.25H181.667V13.5ZM181.667 27.5001V28.7501H184V27.5001V26.2501H181.667V27.5001ZM199.167 29.8333V28.5833H189.833V29.8333V31.0833H199.167V29.8333ZM189.833 29.8333V28.5833C187.854 28.5833 186.25 30.1877 186.25 32.1666H187.5H188.75C188.75 31.5683 189.235 31.0833 189.833 31.0833V29.8333ZM187.5 32.1666H186.25V39.1667H187.5H188.75V32.1666H187.5ZM187.5 39.1667H186.25C186.25 41.1458 187.854 42.75 189.833 42.75V41.5V40.25C189.235 40.25 188.75 39.7651 188.75 39.1667H187.5ZM189.833 41.5V42.75H199.167V41.5V40.25H189.833V41.5ZM199.167 41.5V42.75C201.146 42.75 202.75 41.1458 202.75 39.1667H201.5H200.25C200.25 39.765 199.765 40.25 199.167 40.25V41.5ZM201.5 39.1667H202.75V32.1666H201.5H200.25V39.1667H201.5ZM201.5 32.1666H202.75C202.75 30.1876 201.146 28.5833 199.167 28.5833V29.8333V31.0833C199.765 31.0833 200.25 31.5684 200.25 32.1666H201.5ZM194.5 22.8333V21.5833C192.931 21.5833 191.426 22.2068 190.316 23.3163L191.2 24.2002L192.084 25.0841C192.725 24.4433 193.594 24.0833 194.5 24.0833V22.8333ZM191.2 24.2002L190.316 23.3162C189.206 24.4259 188.583 25.9309 188.583 27.5H189.833H191.083C191.083 26.5938 191.443 25.7248 192.084 25.0841L191.2 24.2002ZM189.833 27.5L188.583 27.5001L188.583 29.8334L189.833 29.8333L191.083 29.8332L191.083 27.4999L189.833 27.5ZM199.167 29.8333L200.417 29.8332L200.417 27.4999L199.167 27.5L197.917 27.5001L197.917 29.8334L199.167 29.8333ZM199.167 27.5H200.417C200.417 25.9309 199.793 24.4259 198.684 23.3163L197.8 24.2002L196.916 25.0841C197.557 25.7248 197.917 26.5939 197.917 27.5H199.167ZM197.8 24.2002L198.684 23.3163C197.574 22.2067 196.069 21.5833 194.5 21.5833V22.8333V24.0833C195.406 24.0833 196.275 24.4433 196.916 25.0841L197.8 24.2002ZM173.5 14.0833V12.8333C173.868 12.8333 174.167 13.1318 174.167 13.5H172.917H171.667C171.667 14.5125 172.487 15.3333 173.5 15.3333V14.0833ZM172.917 13.5H174.167C174.167 13.8681 173.868 14.1666 173.5 14.1666V12.9166V11.6666C172.487 11.6666 171.667 12.4875 171.667 13.5H172.917ZM173.5 14.0833V15.3333C174.511 15.3333 175.334 14.5135 175.334 13.5H174.084H172.834C172.834 13.1308 173.133 12.8333 173.5 12.8333V14.0833ZM174.084 13.5H175.334C175.334 12.4865 174.511 11.6666 173.5 11.6666V12.9166V14.1666C173.133 14.1666 172.834 13.8692 172.834 13.5H174.084ZM173.5 28.0834V26.8334C173.868 26.8334 174.167 27.1318 174.167 27.5001H172.917H171.667C171.667 28.5129 172.488 29.3334 173.5 29.3334V28.0834ZM172.917 27.5001H174.167C174.167 27.8682 173.868 28.1667 173.5 28.1667V26.9167V25.6667C172.487 25.6667 171.667 26.4876 171.667 27.5001H172.917ZM173.5 28.0834V29.3334C174.511 29.3334 175.334 28.5139 175.334 27.5001H174.084H172.834C172.834 27.1308 173.133 26.8334 173.5 26.8334V28.0834ZM174.084 27.5001H175.334C175.334 26.4865 174.511 25.6667 173.5 25.6667V26.9167V28.1667C173.133 28.1667 172.834 27.8692 172.834 27.5001H174.084ZM194.5 36.2954V35.0454C194.868 35.0454 195.167 35.3438 195.167 35.712H193.917H192.667C192.667 36.7245 193.487 37.5454 194.5 37.5454V36.2954ZM193.917 35.712H195.167C195.167 36.0802 194.868 36.3787 194.5 36.3787V35.1287V33.8787C193.487 33.8787 192.667 34.6995 192.667 35.712H193.917ZM194.5 36.2954V37.5454C195.513 37.5454 196.333 36.7236 196.333 35.712H195.083H193.833C193.833 35.3447 194.131 35.0454 194.5 35.0454V36.2954ZM195.083 35.712H196.333C196.333 34.7004 195.513 33.8787 194.5 33.8787V35.1287V36.3787C194.131 36.3787 193.833 36.0793 193.833 35.712H195.083Z" fill="#111111"/>
</g>
<g id="Size=48px, Filled=false">
<path id="Vector_7" d="M245.598 21.3001C246.427 21.3001 247.098 20.6285 247.098 19.8001C247.098 18.9716 246.427 18.3001 245.598 18.3001V21.3001ZM221.46 17.3398L222.521 16.2791L222.521 16.2791L221.46 17.3398ZM221.46 5.46031L222.521 6.52097L221.46 5.46031ZM255.108 16.1533C254.641 16.837 254.816 17.7705 255.5 18.2382C256.183 18.7058 257.117 18.5307 257.585 17.8469L255.108 16.1533ZM238.6 38.0999C239.429 38.0999 240.1 37.4283 240.1 36.5999C240.1 35.7715 239.429 35.0999 238.6 35.0999V38.0999ZM221.46 34.1396L222.521 33.0789L222.521 33.0789L221.46 34.1396ZM221.46 22.2603L222.521 23.3209L222.521 23.3209L221.46 22.2603ZM237.2 9.89996C236.372 9.89996 235.7 10.5715 235.7 11.4C235.7 12.2284 236.372 12.9 237.2 12.9V9.89996ZM249.8 12.9C250.628 12.9 251.3 12.2284 251.3 11.4C251.3 10.5715 250.628 9.89996 249.8 9.89996V12.9ZM237.2 26.7001C236.372 26.7001 235.7 27.3716 235.7 28.2001C235.7 29.0285 236.372 29.7001 237.2 29.7001V26.7001ZM240 29.7001C240.828 29.7001 241.5 29.0285 241.5 28.2001C241.5 27.3716 240.828 26.7001 240 26.7001V29.7001ZM248.64 24.2402L249.701 25.301L249.701 25.3009L248.64 24.2402ZM247 28.2H245.5V28.2001L247 28.2ZM258.2 28.2H256.7L256.7 28.2001L258.2 28.2ZM245.598 19.8001V18.3001H227.4V19.8001V21.3001H245.598V19.8001ZM227.4 19.8001V18.3001C225.57 18.3001 223.815 17.5731 222.521 16.2791L221.46 17.3398L220.4 18.4004C222.256 20.257 224.774 21.3001 227.4 21.3001V19.8001ZM221.46 17.3398L222.521 16.2791C221.227 14.9851 220.5 13.23 220.5 11.4H219H217.5C217.5 14.0257 218.543 16.5438 220.4 18.4004L221.46 17.3398ZM219 11.4H220.5C220.5 9.57003 221.227 7.81499 222.521 6.52097L221.46 5.46031L220.4 4.39965C218.543 6.25628 217.5 8.77438 217.5 11.4H219ZM221.46 5.46031L222.521 6.52097C223.815 5.22697 225.57 4.5 227.4 4.5V3V1.5C224.774 1.5 222.256 2.54304 220.4 4.39965L221.46 5.46031ZM227.4 3V4.5H249.8V3V1.5H227.4V3ZM249.8 3V4.5C255.04 4.5 259.049 10.3917 255.108 16.1533L256.347 17.0001L257.585 17.8469C262.903 10.0713 257.425 1.5 249.8 1.5V3ZM238.6 36.5999V35.0999H227.4V36.5999V38.0999H238.6V36.5999ZM227.4 36.5999V35.0999C225.57 35.0999 223.815 34.3729 222.521 33.0789L221.46 34.1396L220.4 35.2003C222.256 37.0569 224.774 38.0999 227.4 38.0999V36.5999ZM221.46 34.1396L222.521 33.0789C221.227 31.785 220.5 30.0299 220.5 28.1999H219H217.5C217.5 30.8255 218.543 33.3437 220.4 35.2003L221.46 34.1396ZM219 28.1999H220.5C220.5 26.37 221.227 24.6149 222.521 23.3209L221.46 22.2603L220.4 21.1996C218.543 23.0562 217.5 25.5743 217.5 28.1999H219ZM221.46 22.2603L222.521 23.3209C223.815 22.027 225.57 21.3001 227.4 21.3001V19.8001V18.3001C224.774 18.3001 222.256 19.343 220.4 21.1996L221.46 22.2603ZM237.2 11.4V12.9H249.8V11.4V9.89996H237.2V11.4ZM237.2 28.2001V29.7001H240V28.2001V26.7001H237.2V28.2001ZM258.2 30.9999V29.4999H247V30.9999V32.4999H258.2V30.9999ZM247 30.9999V29.4999C244.625 29.4999 242.7 31.4252 242.7 33.7999H244.2H245.7C245.7 33.082 246.282 32.4999 247 32.4999V30.9999ZM244.2 33.7999H242.7V42.2H244.2H245.7V33.7999H244.2ZM244.2 42.2H242.7C242.7 44.575 244.625 46.5 247 46.5V45V43.5C246.282 43.5 245.7 42.9181 245.7 42.2H244.2ZM247 45V46.5H258.2V45V43.5H247V45ZM258.2 45V46.5C260.575 46.5 262.5 44.575 262.5 42.2H261H259.5C259.5 42.918 258.918 43.5 258.2 43.5V45ZM261 42.2H262.5V33.7999H261H259.5V42.2H261ZM261 33.7999H262.5C262.5 31.4252 260.575 29.4999 258.2 29.4999V30.9999V32.4999C258.918 32.4999 259.5 33.082 259.5 33.7999H261ZM252.6 22.6V21.1C250.717 21.1 248.911 21.8481 247.58 23.1796L248.64 24.2402L249.701 25.3009C250.47 24.532 251.513 24.1 252.6 24.1V22.6ZM248.64 24.2402L247.58 23.1795C246.248 24.5111 245.5 26.3171 245.5 28.2H247H248.5C248.5 27.1126 248.932 26.0698 249.701 25.301L248.64 24.2402ZM247 28.2L245.5 28.2001L245.5 31L247 30.9999L248.5 30.9999L248.5 28.1999L247 28.2ZM258.2 30.9999L259.7 30.9999L259.7 28.1999L258.2 28.2L256.7 28.2001L256.7 31L258.2 30.9999ZM258.2 28.2H259.7C259.7 26.317 258.952 24.511 257.62 23.1796L256.56 24.2402L255.499 25.3009C256.268 26.0698 256.7 27.1127 256.7 28.2H258.2ZM256.56 24.2402L257.62 23.1796C256.289 21.8481 254.483 21.1 252.6 21.1V22.6V24.1C253.687 24.1 254.73 24.532 255.499 25.3009L256.56 24.2402ZM227.4 12.1V10.6C227.842 10.6 228.2 10.9581 228.2 11.4H226.7H225.2C225.2 12.615 226.185 13.6 227.4 13.6V12.1ZM226.7 11.4H228.2C228.2 11.8418 227.842 12.2 227.4 12.2V10.7V9.19995C226.185 9.19995 225.2 10.185 225.2 11.4H226.7ZM227.4 12.1V13.6C228.614 13.6 229.6 12.6162 229.6 11.4H228.1H226.6C226.6 10.9569 226.959 10.6 227.4 10.6V12.1ZM228.1 11.4H229.6C229.6 10.1837 228.614 9.19995 227.4 9.19995V10.7V12.2C226.959 12.2 226.6 11.843 226.6 11.4H228.1ZM227.4 28.9001V27.4001C227.841 27.4001 228.2 27.7582 228.2 28.2001H226.7H225.2C225.2 29.4155 226.185 30.4001 227.4 30.4001V28.9001ZM226.7 28.2001H228.2C228.2 28.6419 227.842 29.0001 227.4 29.0001V27.5001V26.0001C226.185 26.0001 225.2 26.9851 225.2 28.2001H226.7ZM227.4 28.9001V30.4001C228.613 30.4001 229.6 29.4167 229.6 28.2001H228.1H226.6C226.6 27.757 226.959 27.4001 227.4 27.4001V28.9001ZM228.1 28.2001H229.6C229.6 26.9839 228.614 26.0001 227.4 26.0001V27.5001V29.0001C226.959 29.0001 226.6 28.6431 226.6 28.2001H228.1ZM252.6 38.7544V37.2544C253.042 37.2544 253.4 37.6126 253.4 38.0544H251.9H250.4C250.4 39.2694 251.385 40.2544 252.6 40.2544V38.7544ZM251.9 38.0544H253.4C253.4 38.4963 253.042 38.8544 252.6 38.8544V37.3544V35.8544C251.385 35.8544 250.4 36.8394 250.4 38.0544H251.9ZM252.6 38.7544V40.2544C253.816 40.2544 254.8 39.2684 254.8 38.0544H253.3H251.8C251.8 37.6137 252.157 37.2544 252.6 37.2544V38.7544ZM253.3 38.0544H254.8C254.8 36.8405 253.816 35.8544 252.6 35.8544V37.3544V38.8544C252.157 38.8544 251.8 38.4952 251.8 38.0544H253.3Z" fill="#111111"/>
</g>
<g id="Size=12px, Filled=true" clip-path="url(#clip4_2091_228)">
<g id="Vector_8">
<path d="M0 79.75C0 80.0815 0.131696 80.3995 0.366117 80.6339C0.600537 80.8683 0.918479 81 1.25 81H9.75C9.91415 81 10.0767 80.9677 10.2284 80.9048C10.38 80.842 10.5178 80.75 10.6339 80.6339C10.75 80.5178 10.842 80.38 10.9048 80.2284C10.9677 80.0767 11 79.9142 11 79.75V79.25C11 78.9185 10.8683 78.6005 10.6339 78.3661C10.3995 78.1317 10.0815 78 9.75 78H1.25C0.918479 78 0.600537 78.1317 0.366117 78.3661C0.131696 78.6005 0 78.9185 0 79.25V79.75ZM1.82 79.5C1.82 79.3902 1.85255 79.2829 1.91353 79.1917C1.97452 79.1004 2.0612 79.0293 2.16261 78.9872C2.26402 78.9452 2.37562 78.9342 2.48328 78.9557C2.59093 78.9771 2.68983 79.0299 2.76744 79.1076C2.84506 79.1852 2.89792 79.2841 2.91934 79.3917C2.94075 79.4994 2.92976 79.611 2.88775 79.7124C2.84575 79.8138 2.77461 79.9005 2.68334 79.9615C2.59207 80.0224 2.48477 80.055 2.375 80.055C2.30193 80.0557 2.22946 80.0418 2.16182 80.0141C2.09419 79.9865 2.03274 79.9456 1.98107 79.8939C1.9294 79.8423 1.88854 79.7808 1.86089 79.7132C1.83323 79.6455 1.81933 79.5731 1.82 79.5ZM3.75 79.5C3.74901 79.3888 3.78114 79.2799 3.84229 79.187C3.90344 79.0942 3.99085 79.0216 4.09338 78.9786C4.19591 78.9356 4.30891 78.9241 4.41801 78.9455C4.5271 78.967 4.62734 79.0204 4.70596 79.099C4.78457 79.1777 4.83801 79.2779 4.85946 79.387C4.88091 79.4961 4.8694 79.6091 4.82639 79.7116C4.78339 79.8142 4.71084 79.9016 4.61799 79.9627C4.52513 80.0239 4.41618 80.056 4.305 80.055C4.1578 80.055 4.01664 79.9965 3.91256 79.8924C3.80847 79.7884 3.75 79.6472 3.75 79.5Z" fill="#111111"/>
<path d="M9.5 82.5C9.95387 82.5003 10.3987 82.6267 10.785 82.865C10.8059 82.8783 10.83 82.8858 10.8548 82.8867C10.8796 82.8876 10.9042 82.882 10.9261 82.8703C10.9479 82.8586 10.9663 82.8413 10.9793 82.8201C10.9923 82.799 10.9994 82.7748 11 82.75C11 82.4185 10.8683 82.1005 10.6339 81.8661C10.3995 81.6317 10.0815 81.5 9.75 81.5H1.25C0.918479 81.5 0.600537 81.6317 0.366117 81.8661C0.131696 82.1005 0 82.4185 0 82.75V83.25C0 83.5815 0.131696 83.8995 0.366117 84.1339C0.600537 84.3683 0.918479 84.5 1.25 84.5H6.855C6.9104 84.4994 6.96404 84.4804 7.00748 84.446C7.05092 84.4116 7.08171 84.3638 7.095 84.31C7.24489 83.788 7.56066 83.3291 7.99457 83.0025C8.42849 82.6759 8.95693 82.4995 9.5 82.5ZM4.865 83C4.86599 83.111 4.83399 83.2197 4.77306 83.3125C4.71213 83.4052 4.62503 83.4778 4.52279 83.5209C4.42055 83.5641 4.3078 83.5759 4.19885 83.5548C4.08989 83.5338 3.98964 83.4809 3.91082 83.4028C3.832 83.3246 3.77817 83.2249 3.75615 83.1161C3.73414 83.0073 3.74493 82.8945 3.78717 82.7919C3.8294 82.6892 3.90117 82.6015 3.99337 82.5397C4.08556 82.478 4.19403 82.445 4.305 82.445C4.3783 82.4443 4.45101 82.4582 4.51893 82.4858C4.58684 82.5134 4.64861 82.5542 4.70068 82.6058C4.75275 82.6574 4.79408 82.7188 4.82228 82.7864C4.85048 82.8541 4.865 82.9267 4.865 83ZM2.93 83C2.93 83.1098 2.89745 83.2171 2.83647 83.3083C2.77548 83.3996 2.6888 83.4707 2.58739 83.5128C2.48598 83.5548 2.37438 83.5658 2.26672 83.5443C2.15907 83.5229 2.06017 83.4701 1.98256 83.3924C1.90494 83.3148 1.85208 83.2159 1.83066 83.1083C1.80925 83.0006 1.82024 82.889 1.86225 82.7876C1.90425 82.6862 1.97539 82.5995 2.06666 82.5385C2.15793 82.4776 2.26523 82.445 2.375 82.445C2.44807 82.4443 2.52054 82.4582 2.58818 82.4859C2.65581 82.5135 2.71726 82.5544 2.76893 82.6061C2.8206 82.6577 2.86146 82.7192 2.88911 82.7868C2.91677 82.8545 2.93067 82.9269 2.93 83Z" fill="#111111"/>
<path d="M1.25 88H6C6.0663 88 6.12989 87.9737 6.17678 87.9268C6.22366 87.8799 6.25 87.8163 6.25 87.75V86C6.24412 85.85 6.27525 85.7008 6.34065 85.5656C6.40605 85.4305 6.5037 85.3135 6.625 85.225C6.64637 85.209 6.66207 85.1866 6.66979 85.1611C6.67752 85.1355 6.67686 85.1082 6.66792 85.083C6.65898 85.0579 6.64222 85.0362 6.6201 85.0213C6.59799 85.0064 6.57167 84.9989 6.545 85H1.25C0.918479 85 0.600537 85.1317 0.366117 85.3661C0.131696 85.6005 0 85.9185 0 86.25V86.75C0 87.0815 0.131696 87.3995 0.366117 87.6339C0.600537 87.8683 0.918479 88 1.25 88ZM1.82 86.5C1.82 86.3902 1.85255 86.2829 1.91353 86.1917C1.97452 86.1004 2.0612 86.0293 2.16261 85.9872C2.26402 85.9452 2.37562 85.9342 2.48328 85.9557C2.59093 85.9771 2.68983 86.0299 2.76744 86.1076C2.84506 86.1852 2.89792 86.2841 2.91934 86.3917C2.94075 86.4994 2.92976 86.611 2.88775 86.7124C2.84575 86.8138 2.77461 86.9005 2.68334 86.9615C2.59207 87.0224 2.48477 87.055 2.375 87.055C2.30193 87.0557 2.22946 87.0418 2.16182 87.0141C2.09419 86.9865 2.03274 86.9456 1.98107 86.8939C1.9294 86.8423 1.88854 86.7808 1.86089 86.7132C1.83323 86.6455 1.81933 86.5731 1.82 86.5ZM3.75 86.5C3.74901 86.3888 3.78114 86.2799 3.84229 86.187C3.90344 86.0942 3.99085 86.0216 4.09338 85.9786C4.19591 85.9356 4.30891 85.9241 4.41801 85.9455C4.5271 85.967 4.62734 86.0204 4.70596 86.099C4.78457 86.1777 4.83801 86.2779 4.85946 86.387C4.88091 86.4961 4.8694 86.6091 4.82639 86.7116C4.78339 86.8142 4.71084 86.9016 4.61799 86.9627C4.52513 87.0239 4.41618 87.056 4.305 87.055C4.1578 87.055 4.01664 86.9965 3.91256 86.8924C3.80847 86.7884 3.75 86.6472 3.75 86.5Z" fill="#111111"/>
<path d="M7.75 85.635C7.75023 85.6644 7.73967 85.6928 7.72031 85.715C7.70096 85.7371 7.67416 85.7513 7.645 85.755C7.46651 85.7823 7.30358 85.8723 7.1854 86.0088C7.06721 86.1453 7.00149 86.3194 7 86.5V89.25C7 89.4489 7.07902 89.6397 7.21967 89.7803C7.36032 89.921 7.55109 90 7.75 90H11.25C11.4489 90 11.6397 89.921 11.7803 89.7803C11.921 89.6397 12 89.4489 12 89.25V86.5C11.9985 86.3194 11.9328 86.1453 11.8146 86.0088C11.6964 85.8723 11.5335 85.7823 11.355 85.755C11.3258 85.7513 11.299 85.7371 11.2797 85.715C11.2603 85.6928 11.2498 85.6644 11.25 85.635V85.135C11.25 84.6709 11.0656 84.2258 10.7374 83.8976C10.4092 83.5694 9.96413 83.385 9.5 83.385C9.03587 83.385 8.59075 83.5694 8.26256 83.8976C7.93437 84.2258 7.75 84.6709 7.75 85.135V85.635ZM10 88.135C10 88.2339 9.97068 88.3306 9.91574 88.4128C9.86079 88.495 9.7827 88.5591 9.69134 88.5969C9.59998 88.6348 9.49944 88.6447 9.40245 88.6254C9.30546 88.6061 9.21637 88.5585 9.14645 88.4886C9.07652 88.4186 9.0289 88.3295 9.00961 88.2325C8.99031 88.1356 9.00022 88.035 9.03806 87.9437C9.0759 87.8523 9.13999 87.7742 9.22221 87.7193C9.30444 87.6643 9.40111 87.635 9.5 87.635C9.63089 87.635 9.75658 87.6863 9.85006 87.7779C9.94355 87.8695 9.99738 87.9941 10 88.125V88.135ZM9.5 84.385C9.69891 84.385 9.88968 84.464 10.0303 84.6047C10.171 84.7453 10.25 84.9361 10.25 85.135V85.635C10.25 85.6682 10.2368 85.6999 10.2134 85.7234C10.1899 85.7468 10.1582 85.76 10.125 85.76H8.875C8.84185 85.76 8.81005 85.7468 8.78661 85.7234C8.76317 85.6999 8.75 85.6682 8.75 85.635V85.135C8.74868 85.0357 8.7671 84.9371 8.80419 84.8449C8.84129 84.7528 8.89633 84.6689 8.9661 84.5982C9.03588 84.5275 9.11901 84.4713 9.21066 84.433C9.30231 84.3947 9.40066 84.375 9.5 84.375V84.385Z" fill="#111111"/>
</g>
</g>
<g id="Size=16px, Filled=true" clip-path="url(#clip5_2091_228)">
<g id="Vector_9">
<path d="M24 78.3333C24 78.7754 24.1756 79.1993 24.4882 79.5118C24.8007 79.8244 25.2246 80 25.6667 80H37C37.2189 80 37.4356 79.9569 37.6378 79.8731C37.84 79.7894 38.0237 79.6666 38.1785 79.5118C38.3333 79.3571 38.456 79.1733 38.5398 78.9711C38.6236 78.7689 38.6667 78.5522 38.6667 78.3333V77.6667C38.6667 77.2246 38.4911 76.8007 38.1785 76.4882C37.866 76.1756 37.442 76 37 76H25.6667C25.2246 76 24.8007 76.1756 24.4882 76.4882C24.1756 76.8007 24 77.2246 24 77.6667V78.3333ZM26.4267 78C26.4267 77.8536 26.4701 77.7106 26.5514 77.5889C26.6327 77.4672 26.7483 77.3723 26.8835 77.3163C27.0187 77.2603 27.1675 77.2457 27.311 77.2742C27.4546 77.3028 27.5864 77.3733 27.6899 77.4767C27.7934 77.5802 27.8639 77.7121 27.8924 77.8556C27.921 77.9992 27.9063 78.148 27.8503 78.2832C27.7943 78.4184 27.6995 78.534 27.5778 78.6153C27.4561 78.6966 27.313 78.74 27.1667 78.74C27.0692 78.7409 26.9726 78.7224 26.8824 78.6855C26.7922 78.6486 26.7103 78.5941 26.6414 78.5252C26.5725 78.4563 26.5181 78.3744 26.4812 78.2842C26.4443 78.1941 26.4258 78.0974 26.4267 78ZM29 78C28.9987 77.8518 29.0415 77.7065 29.1231 77.5827C29.2046 77.4589 29.3211 77.3621 29.4578 77.3048C29.5945 77.2475 29.7452 77.2321 29.8907 77.2607C30.0361 77.2893 30.1698 77.3606 30.2746 77.4654C30.3794 77.5702 30.4507 77.7039 30.4793 77.8493C30.5079 77.9948 30.4925 78.1455 30.4352 78.2822C30.3779 78.4189 30.2811 78.5354 30.1573 78.6169C30.0335 78.6985 29.8882 78.7413 29.74 78.74C29.5437 78.74 29.3555 78.662 29.2167 78.5233C29.078 78.3845 29 78.1963 29 78Z" fill="#111111"/>
<path d="M36.6667 82C37.2718 82.0004 37.865 82.1689 38.38 82.4867C38.4079 82.5044 38.44 82.5144 38.4731 82.5156C38.5061 82.5168 38.5389 82.5093 38.5681 82.4937C38.5973 82.4781 38.6217 82.455 38.6391 82.4268C38.6564 82.3987 38.6659 82.3664 38.6667 82.3333C38.6667 81.8913 38.4911 81.4674 38.1785 81.1548C37.866 80.8423 37.442 80.6667 37 80.6667H25.6667C25.2246 80.6667 24.8007 80.8423 24.4882 81.1548C24.1756 81.4674 24 81.8913 24 82.3333V83C24 83.442 24.1756 83.866 24.4882 84.1785C24.8007 84.4911 25.2246 84.6667 25.6667 84.6667H33.14C33.2139 84.6659 33.2854 84.6406 33.3433 84.5947C33.4012 84.5488 33.4423 84.4851 33.46 84.4133C33.6598 83.7174 34.0809 83.1054 34.6594 82.67C35.238 82.2346 35.9426 81.9994 36.6667 82ZM30.4867 82.6667C30.488 82.8146 30.4453 82.9596 30.3641 83.0833C30.2828 83.207 30.1667 83.3037 30.0304 83.3612C29.8941 83.4188 29.7437 83.4345 29.5985 83.4065C29.4532 83.3784 29.3195 83.3078 29.2144 83.2037C29.1093 83.0995 29.0376 82.9665 29.0082 82.8215C28.9789 82.6765 28.9932 82.526 29.0496 82.3892C29.1059 82.2523 29.2016 82.1353 29.3245 82.053C29.4474 81.9706 29.592 81.9267 29.74 81.9267C29.8377 81.9258 29.9347 81.9443 30.0252 81.9811C30.1158 82.0179 30.1982 82.0722 30.2676 82.141C30.337 82.2098 30.3921 82.2917 30.4297 82.3819C30.4673 82.4722 30.4867 82.5689 30.4867 82.6667ZM27.9067 82.6667C27.9067 82.813 27.8633 82.9561 27.782 83.0778C27.7006 83.1995 27.5851 83.2943 27.4499 83.3503C27.3146 83.4063 27.1658 83.421 27.0223 83.3924C26.8788 83.3639 26.7469 83.2934 26.6434 83.1899C26.5399 83.0864 26.4694 82.9546 26.4409 82.811C26.4123 82.6675 26.427 82.5187 26.483 82.3835C26.539 82.2483 26.6339 82.1327 26.7555 82.0514C26.8772 81.9701 27.0203 81.9267 27.1667 81.9267C27.2641 81.9258 27.3607 81.9443 27.4509 81.9812C27.5411 82.0181 27.623 82.0725 27.6919 82.1414C27.7608 82.2103 27.8153 82.2922 27.8521 82.3824C27.889 82.4726 27.9076 82.5692 27.9067 82.6667Z" fill="#111111"/>
<path d="M25.6667 89.3333H32C32.0884 89.3333 32.1732 89.2982 32.2357 89.2357C32.2982 89.1732 32.3333 89.0884 32.3333 89V86.6667C32.3255 86.4666 32.367 86.2677 32.4542 86.0875C32.5414 85.9073 32.6716 85.7513 32.8333 85.6333C32.8618 85.612 32.8828 85.5821 32.8931 85.5481C32.9034 85.514 32.9025 85.4776 32.8906 85.444C32.8786 85.4105 32.8563 85.3817 32.8268 85.3617C32.7973 85.3418 32.7622 85.3319 32.7267 85.3333H25.6667C25.2246 85.3333 24.8007 85.5089 24.4882 85.8215C24.1756 86.134 24 86.558 24 87V87.6667C24 88.1087 24.1756 88.5326 24.4882 88.8452C24.8007 89.1577 25.2246 89.3333 25.6667 89.3333ZM26.4267 87.3333C26.4267 87.187 26.4701 87.0439 26.5514 86.9222C26.6327 86.8005 26.7483 86.7057 26.8835 86.6497C27.0187 86.5937 27.1675 86.579 27.311 86.6076C27.4546 86.6361 27.5864 86.7066 27.6899 86.8101C27.7934 86.9136 27.8639 87.0454 27.8924 87.189C27.921 87.3325 27.9063 87.4813 27.8503 87.6165C27.7943 87.7517 27.6995 87.8673 27.5778 87.9486C27.4561 88.0299 27.313 88.0733 27.1667 88.0733C27.0692 88.0742 26.9726 88.0557 26.8824 88.0188C26.7922 87.9819 26.7103 87.9275 26.6414 87.8586C26.5725 87.7897 26.5181 87.7078 26.4812 87.6176C26.4443 87.5274 26.4258 87.4308 26.4267 87.3333ZM29 87.3333C28.9987 87.1851 29.0415 87.0398 29.1231 86.916C29.2046 86.7922 29.3211 86.6955 29.4578 86.6381C29.5945 86.5808 29.7452 86.5655 29.8907 86.5941C30.0361 86.6227 30.1698 86.6939 30.2746 86.7987C30.3794 86.9035 30.4507 87.0372 30.4793 87.1827C30.5079 87.3281 30.4925 87.4788 30.4352 87.6155C30.3779 87.7522 30.2811 87.8687 30.1573 87.9503C30.0335 88.0318 29.8882 88.0747 29.74 88.0733C29.5437 88.0733 29.3555 87.9954 29.2167 87.8566C29.078 87.7178 29 87.5296 29 87.3333Z" fill="#111111"/>
<path d="M34.3333 86.18C34.3336 86.2192 34.3196 86.2571 34.2938 86.2866C34.2679 86.3161 34.2322 86.3351 34.1933 86.34C33.9554 86.3764 33.7381 86.4964 33.5805 86.6784C33.4229 86.8604 33.3353 87.0926 33.3333 87.3333V91C33.3333 91.2652 33.4387 91.5196 33.6262 91.7071C33.8138 91.8946 34.0681 92 34.3333 92H39C39.2652 92 39.5196 91.8946 39.7071 91.7071C39.8946 91.5196 40 91.2652 40 91V87.3333C39.998 87.0926 39.9104 86.8604 39.7528 86.6784C39.5952 86.4964 39.378 86.3764 39.14 86.34C39.1011 86.3351 39.0654 86.3161 39.0396 86.2866C39.0138 86.2571 38.9997 86.2192 39 86.18V85.5133C39 84.8945 38.7542 84.301 38.3166 83.8634C37.879 83.4258 37.2855 83.18 36.6667 83.18C36.0478 83.18 35.4543 83.4258 35.0168 83.8634C34.5792 84.301 34.3333 84.8945 34.3333 85.5133V86.18ZM37.3333 89.5133C37.3333 89.6452 37.2942 89.7741 37.221 89.8837C37.1477 89.9933 37.0436 90.0788 36.9218 90.1293C36.8 90.1797 36.6659 90.1929 36.5366 90.1672C36.4073 90.1415 36.2885 90.078 36.1953 89.9847C36.102 89.8915 36.0385 89.7727 36.0128 89.6434C35.9871 89.5141 36.0003 89.38 36.0507 89.2582C36.1012 89.1364 36.1867 89.0323 36.2963 88.959C36.4059 88.8858 36.5348 88.8467 36.6667 88.8467C36.8412 88.8466 37.0088 88.915 37.1334 89.0372C37.2581 89.1593 37.3298 89.3255 37.3333 89.5V89.5133ZM36.6667 84.5133C36.9319 84.5133 37.1862 84.6187 37.3738 84.8062C37.5613 84.9938 37.6667 85.2481 37.6667 85.5133V86.18C37.6667 86.2242 37.6491 86.2666 37.6179 86.2979C37.5866 86.3291 37.5442 86.3467 37.5 86.3467H35.8333C35.7891 86.3467 35.7467 86.3291 35.7155 86.2979C35.6842 86.2666 35.6667 86.2242 35.6667 86.18V85.5133C35.6649 85.3809 35.6895 85.2494 35.7389 85.1266C35.7884 85.0037 35.8618 84.8919 35.9548 84.7976C36.0478 84.7033 36.1587 84.6285 36.2809 84.5774C36.4031 84.5263 36.5342 84.5 36.6667 84.5V84.5133Z" fill="#111111"/>
</g>
</g>
<g id="Size=20px, Filled=true" clip-path="url(#clip6_2091_228)">
<g id="Vector_10">
<path d="M52 76.9167C52 77.4692 52.2195 77.9991 52.6102 78.3898C53.0009 78.7805 53.5308 79 54.0833 79H68.25C68.5236 79 68.7945 78.9461 69.0473 78.8414C69.3 78.7367 69.5297 78.5833 69.7231 78.3898C69.9166 78.1964 70.0701 77.9667 70.1747 77.7139C70.2794 77.4612 70.3333 77.1903 70.3333 76.9167V76.0833C70.3333 75.5308 70.1138 75.0009 69.7231 74.6102C69.3324 74.2195 68.8025 74 68.25 74H54.0833C53.5308 74 53.0009 74.2195 52.6102 74.6102C52.2195 75.0009 52 75.5308 52 76.0833V76.9167ZM55.0333 76.5C55.0333 76.3171 55.0876 76.1382 55.1892 75.9861C55.2909 75.834 55.4353 75.7154 55.6044 75.6454C55.7734 75.5754 55.9594 75.5571 56.1388 75.5928C56.3182 75.6285 56.483 75.7166 56.6124 75.8459C56.7418 75.9753 56.8299 76.1401 56.8656 76.3195C56.9013 76.499 56.8829 76.685 56.8129 76.854C56.7429 77.023 56.6244 77.1675 56.4722 77.2691C56.3201 77.3707 56.1413 77.425 55.9583 77.425C55.8366 77.4261 55.7158 77.4029 55.603 77.3569C55.4903 77.3108 55.3879 77.2427 55.3018 77.1566C55.2157 77.0704 55.1476 76.968 55.1015 76.8553C55.0554 76.7426 55.0322 76.6218 55.0333 76.5ZM58.25 76.5C58.2484 76.3147 58.3019 76.1331 58.4038 75.9784C58.5057 75.8236 58.6514 75.7027 58.8223 75.631C58.9932 75.5593 59.1815 75.5402 59.3633 75.5759C59.5452 75.6116 59.7122 75.7007 59.8433 75.8317C59.9743 75.9628 60.0634 76.1298 60.0991 76.3117C60.1348 76.4935 60.1157 76.6818 60.044 76.8527C59.9723 77.0236 59.8514 77.1693 59.6966 77.2712C59.5419 77.3731 59.3603 77.4266 59.175 77.425C58.9297 77.425 58.6944 77.3275 58.5209 77.1541C58.3475 76.9806 58.25 76.7453 58.25 76.5Z" fill="#111111"/>
<path d="M67.8333 81.5C68.5898 81.5005 69.3312 81.7111 69.975 82.1083C70.0099 82.1305 70.0501 82.143 70.0914 82.1445C70.1327 82.1461 70.1737 82.1366 70.2101 82.1171C70.2466 82.0976 70.2772 82.0688 70.2988 82.0335C70.3205 81.9983 70.3324 81.958 70.3333 81.9167C70.3333 81.3641 70.1138 80.8342 69.7231 80.4435C69.3324 80.0528 68.8025 79.8333 68.25 79.8333H54.0833C53.5308 79.8333 53.0009 80.0528 52.6102 80.4435C52.2195 80.8342 52 81.3641 52 81.9167V82.75C52 83.3025 52.2195 83.8324 52.6102 84.2231C53.0009 84.6138 53.5308 84.8333 54.0833 84.8333H63.425C63.5173 84.8323 63.6067 84.8007 63.6791 84.7434C63.7515 84.6861 63.8028 84.6063 63.825 84.5167C64.0748 83.6467 64.6011 82.8818 65.3243 82.3375C66.0475 81.7932 66.9282 81.4992 67.8333 81.5ZM60.1083 82.3333C60.11 82.5183 60.0567 82.6995 59.9551 82.8541C59.8536 83.0087 59.7084 83.1296 59.538 83.2015C59.3676 83.2735 59.1797 83.2931 58.9981 83.2581C58.8165 83.223 58.6494 83.1348 58.518 83.0046C58.3867 82.8744 58.297 82.7081 58.2603 82.5268C58.2236 82.3456 58.2416 82.1575 58.3119 81.9864C58.3823 81.8154 58.502 81.6692 58.6556 81.5662C58.8093 81.4633 58.9901 81.4083 59.175 81.4083C59.2972 81.4072 59.4184 81.4303 59.5315 81.4763C59.6447 81.5223 59.7477 81.5903 59.8345 81.6763C59.9212 81.7623 59.9901 81.8646 60.0371 81.9774C60.0841 82.0902 60.1083 82.2112 60.1083 82.3333ZM56.8833 82.3333C56.8833 82.5163 56.8291 82.6951 56.7274 82.8472C56.6258 82.9994 56.4813 83.1179 56.3123 83.1879C56.1433 83.2579 55.9573 83.2763 55.7779 83.2406C55.5984 83.2049 55.4336 83.1168 55.3043 82.9874C55.1749 82.858 55.0868 82.6932 55.0511 82.5138C55.0154 82.3344 55.0337 82.1484 55.1037 81.9794C55.1738 81.8103 55.2923 81.6659 55.4444 81.5642C55.5965 81.4626 55.7754 81.4083 55.9583 81.4083C56.0801 81.4072 56.2009 81.4304 56.3136 81.4765C56.4264 81.5226 56.5288 81.5907 56.6149 81.6768C56.701 81.7629 56.7691 81.8653 56.8152 81.978C56.8613 82.0908 56.8844 82.2116 56.8833 82.3333Z" fill="#111111"/>
<path d="M54.0833 90.6667H62C62.1105 90.6667 62.2165 90.6228 62.2946 90.5446C62.3728 90.4665 62.4167 90.3605 62.4167 90.25V87.3333C62.4069 87.0833 62.4588 86.8347 62.5678 86.6094C62.6768 86.3841 62.8395 86.1892 63.0417 86.0417C63.0773 86.015 63.1035 85.9777 63.1163 85.9351C63.1292 85.8925 63.1281 85.8469 63.1132 85.805C63.0983 85.7631 63.0704 85.7271 63.0335 85.7022C62.9966 85.6773 62.9528 85.6648 62.9083 85.6667H54.0833C53.5308 85.6667 53.0009 85.8862 52.6102 86.2769C52.2195 86.6676 52 87.1975 52 87.75V88.5833C52 89.1359 52.2195 89.6658 52.6102 90.0565C53.0009 90.4472 53.5308 90.6667 54.0833 90.6667ZM55.0333 88.1667C55.0333 87.9837 55.0876 87.8049 55.1892 87.6528C55.2909 87.5006 55.4353 87.3821 55.6044 87.3121C55.7734 87.2421 55.9594 87.2237 56.1388 87.2594C56.3182 87.2951 56.483 87.3832 56.6124 87.5126C56.7418 87.642 56.8299 87.8068 56.8656 87.9862C56.9013 88.1656 56.8829 88.3516 56.8129 88.5206C56.7429 88.6897 56.6244 88.8341 56.4722 88.9358C56.3201 89.0374 56.1413 89.0917 55.9583 89.0917C55.8366 89.0928 55.7158 89.0696 55.603 89.0235C55.4903 88.9774 55.3879 88.9093 55.3018 88.8232C55.2157 88.7371 55.1476 88.6347 55.1015 88.522C55.0554 88.4092 55.0322 88.2884 55.0333 88.1667ZM58.25 88.1667C58.2484 87.9814 58.3019 87.7998 58.4038 87.645C58.5057 87.4903 58.6514 87.3694 58.8223 87.2977C58.9932 87.226 59.1815 87.2068 59.3633 87.2426C59.5452 87.2783 59.7122 87.3674 59.8433 87.4984C59.9743 87.6294 60.0634 87.7965 60.0991 87.9783C60.1348 88.1601 60.1157 88.3485 60.044 88.5194C59.9723 88.6903 59.8514 88.8359 59.6966 88.9378C59.5419 89.0398 59.3603 89.0933 59.175 89.0917C58.9297 89.0917 58.6944 88.9942 58.5209 88.8207C58.3475 88.6473 58.25 88.412 58.25 88.1667Z" fill="#111111"/>
<path d="M64.9167 86.725C64.9171 86.774 64.8994 86.8214 64.8672 86.8583C64.8349 86.8951 64.7903 86.9189 64.7417 86.925C64.4442 86.9705 64.1726 87.1205 63.9757 87.348C63.7787 87.5755 63.6691 87.8657 63.6667 88.1667V92.75C63.6667 93.0815 63.7984 93.3995 64.0328 93.6339C64.2672 93.8683 64.5851 94 64.9167 94H70.75C71.0815 94 71.3995 93.8683 71.6339 93.6339C71.8683 93.3995 72 93.0815 72 92.75V88.1667C71.9975 87.8657 71.888 87.5755 71.691 87.348C71.494 87.1205 71.2225 86.9705 70.925 86.925C70.8764 86.9189 70.8317 86.8951 70.7995 86.8583C70.7672 86.8214 70.7496 86.774 70.75 86.725V85.8917C70.75 85.1181 70.4427 84.3763 69.8957 83.8293C69.3487 83.2823 68.6069 82.975 67.8333 82.975C67.0598 82.975 66.3179 83.2823 65.7709 83.8293C65.224 84.3763 64.9167 85.1181 64.9167 85.8917V86.725ZM68.6667 90.8917C68.6667 91.0565 68.6178 91.2176 68.5262 91.3546C68.4347 91.4917 68.3045 91.5985 68.1522 91.6616C68 91.7246 67.8324 91.7411 67.6708 91.709C67.5091 91.6768 67.3606 91.5975 67.2441 91.4809C67.1275 91.3644 67.0482 91.2159 67.016 91.0542C66.9839 90.8926 67.0004 90.725 67.0634 90.5728C67.1265 90.4205 67.2333 90.2903 67.3704 90.1988C67.5074 90.1072 67.6685 90.0583 67.8333 90.0583C68.0515 90.0583 68.261 90.1438 68.4168 90.2965C68.5726 90.4492 68.6623 90.6569 68.6667 90.875V90.8917ZM67.8333 84.6417C68.1649 84.6417 68.4828 84.7734 68.7172 85.0078C68.9516 85.2422 69.0833 85.5601 69.0833 85.8917V86.725C69.0833 86.7803 69.0614 86.8332 69.0223 86.8723C68.9832 86.9114 68.9303 86.9333 68.875 86.9333H66.7917C66.7364 86.9333 66.6834 86.9114 66.6444 86.8723C66.6053 86.8332 66.5833 86.7803 66.5833 86.725V85.8917C66.5811 85.7261 66.6118 85.5618 66.6737 85.4082C66.7355 85.2546 66.8272 85.1148 66.9435 84.997C67.0598 84.8791 67.1983 84.7856 67.3511 84.7217C67.5039 84.6579 67.6678 84.625 67.8333 84.625V84.6417Z" fill="#111111"/>
</g>
</g>
<g id="Size=24px, Filled=true" clip-path="url(#clip7_2091_228)">
<g id="Vector_11">
<path d="M84 75.5C84 76.163 84.2634 76.7989 84.7322 77.2678C85.2011 77.7366 85.837 78 86.5 78H103.5C103.828 78 104.153 77.9353 104.457 77.8097C104.76 77.6841 105.036 77.4999 105.268 77.2678C105.5 77.0356 105.684 76.76 105.81 76.4567C105.935 76.1534 106 75.8283 106 75.5V74.5C106 73.837 105.737 73.2011 105.268 72.7322C104.799 72.2634 104.163 72 103.5 72H86.5C85.837 72 85.2011 72.2634 84.7322 72.7322C84.2634 73.2011 84 73.837 84 74.5V75.5ZM87.64 75C87.64 74.7805 87.7051 74.5659 87.8271 74.3833C87.949 74.2008 88.1224 74.0585 88.3252 73.9745C88.528 73.8905 88.7512 73.8685 88.9666 73.9113C89.1819 73.9542 89.3797 74.0599 89.5349 74.2151C89.6901 74.3703 89.7958 74.5681 89.8387 74.7834C89.8815 74.9988 89.8595 75.222 89.7755 75.4248C89.6915 75.6276 89.5492 75.801 89.3667 75.9229C89.1841 76.0449 88.9695 76.11 88.75 76.11C88.6039 76.1113 88.4589 76.0835 88.3236 76.0282C88.1884 75.9729 88.0655 75.8912 87.9621 75.7879C87.8588 75.6845 87.7771 75.5616 87.7218 75.4264C87.6665 75.2911 87.6387 75.1461 87.64 75ZM91.5 75C91.498 74.7776 91.5623 74.5597 91.6846 74.374C91.8069 74.1883 91.9817 74.0432 92.1868 73.9572C92.3918 73.8712 92.6178 73.8482 92.836 73.8911C93.0542 73.934 93.2547 74.0409 93.4119 74.1981C93.5691 74.3553 93.676 74.5558 93.7189 74.774C93.7618 74.9922 93.7388 75.2182 93.6528 75.4232C93.5668 75.6283 93.4217 75.8031 93.236 75.9254C93.0503 76.0477 92.8324 76.112 92.61 76.11C92.3156 76.11 92.0333 75.9931 91.8251 75.7849C91.6169 75.5767 91.5 75.2944 91.5 75Z" fill="#111111"/>
<path d="M103 81C103.908 81.0006 104.797 81.2533 105.57 81.73C105.612 81.7566 105.66 81.7716 105.71 81.7734C105.759 81.7753 105.808 81.7639 105.852 81.7405C105.896 81.7171 105.933 81.6825 105.959 81.6403C105.985 81.598 105.999 81.5496 106 81.5C106 80.837 105.737 80.2011 105.268 79.7322C104.799 79.2634 104.163 79 103.5 79H86.5C85.837 79 85.2011 79.2634 84.7322 79.7322C84.2634 80.2011 84 80.837 84 81.5V82.5C84 83.163 84.2634 83.7989 84.7322 84.2678C85.2011 84.7366 85.837 85 86.5 85H97.71C97.8208 84.9988 97.9281 84.9608 98.015 84.8921C98.1018 84.8233 98.1634 84.7276 98.19 84.62C98.4898 83.5761 99.1213 82.6581 99.9891 82.005C100.857 81.3519 101.914 80.9991 103 81ZM93.73 82C93.732 82.2219 93.668 82.4394 93.5461 82.6249C93.4243 82.8104 93.2501 82.9555 93.0456 83.0418C92.8411 83.1282 92.6156 83.1518 92.3977 83.1097C92.1798 83.0676 91.9793 82.9617 91.8216 82.8055C91.664 82.6493 91.5563 82.4497 91.5123 82.2322C91.4683 82.0147 91.4899 81.789 91.5743 81.5837C91.6588 81.3785 91.8023 81.203 91.9867 81.0795C92.1711 80.956 92.3881 80.89 92.61 80.89C92.7566 80.8887 92.902 80.9164 93.0379 80.9716C93.1737 81.0268 93.2972 81.1083 93.4014 81.2116C93.5055 81.3148 93.5882 81.4376 93.6446 81.5729C93.701 81.7082 93.73 81.8534 93.73 82ZM89.86 82C89.86 82.2195 89.7949 82.4341 89.6729 82.6167C89.551 82.7992 89.3776 82.9415 89.1748 83.0255C88.972 83.1095 88.7488 83.1315 88.5334 83.0887C88.3181 83.0458 88.1203 82.9401 87.9651 82.7849C87.8099 82.6297 87.7042 82.4319 87.6613 82.2165C87.6185 82.0012 87.6405 81.778 87.7245 81.5752C87.8085 81.3724 87.9508 81.199 88.1333 81.0771C88.3159 80.9551 88.5305 80.89 88.75 80.89C88.8961 80.8887 89.0411 80.9165 89.1764 80.9718C89.3116 81.0271 89.4345 81.1088 89.5379 81.2121C89.6412 81.3155 89.7229 81.4384 89.7782 81.5736C89.8335 81.7089 89.8613 81.8539 89.86 82Z" fill="#111111"/>
<path d="M86.5 92H96C96.1326 92 96.2598 91.9473 96.3536 91.8536C96.4473 91.7598 96.5 91.6326 96.5 91.5V88C96.4882 87.6999 96.5505 87.4016 96.6813 87.1313C96.8121 86.861 97.0074 86.627 97.25 86.45C97.2927 86.418 97.3241 86.3732 97.3396 86.3221C97.355 86.271 97.3537 86.2163 97.3358 86.166C97.318 86.1157 97.2844 86.0725 97.2402 86.0426C97.196 86.0127 97.1433 85.9978 97.09 86H86.5C85.837 86 85.2011 86.2634 84.7322 86.7322C84.2634 87.2011 84 87.837 84 88.5V89.5C84 90.163 84.2634 90.7989 84.7322 91.2678C85.2011 91.7366 85.837 92 86.5 92ZM87.64 89C87.64 88.7805 87.7051 88.5659 87.8271 88.3833C87.949 88.2008 88.1224 88.0585 88.3252 87.9745C88.528 87.8905 88.7512 87.8685 88.9666 87.9113C89.1819 87.9542 89.3797 88.0599 89.5349 88.2151C89.6901 88.3703 89.7958 88.5681 89.8387 88.7834C89.8815 88.9988 89.8595 89.222 89.7755 89.4248C89.6915 89.6276 89.5492 89.801 89.3667 89.9229C89.1841 90.0449 88.9695 90.11 88.75 90.11C88.6039 90.1113 88.4589 90.0835 88.3236 90.0282C88.1884 89.9729 88.0655 89.8912 87.9621 89.7879C87.8588 89.6845 87.7771 89.5616 87.7218 89.4264C87.6665 89.2911 87.6387 89.1461 87.64 89ZM91.5 89C91.498 88.7776 91.5623 88.5597 91.6846 88.374C91.8069 88.1883 91.9817 88.0432 92.1868 87.9572C92.3918 87.8712 92.6178 87.8482 92.836 87.8911C93.0542 87.934 93.2547 88.0408 93.4119 88.1981C93.5691 88.3553 93.676 88.5558 93.7189 88.774C93.7618 88.9922 93.7388 89.2182 93.6528 89.4232C93.5668 89.6283 93.4217 89.8031 93.236 89.9254C93.0503 90.0477 92.8324 90.112 92.61 90.11C92.3156 90.11 92.0333 89.9931 91.8251 89.7849C91.6169 89.5767 91.5 89.2944 91.5 89Z" fill="#111111"/>
<path d="M99.5 87.27C99.5005 87.3288 99.4793 87.3857 99.4406 87.4299C99.4019 87.4742 99.3483 87.5027 99.29 87.51C98.933 87.5646 98.6072 87.7446 98.3708 88.0176C98.1344 88.2906 98.003 88.6389 98 89V94.5C98 94.8978 98.158 95.2794 98.4393 95.5607C98.7206 95.842 99.1022 96 99.5 96H106.5C106.898 96 107.279 95.842 107.561 95.5607C107.842 95.2794 108 94.8978 108 94.5V89C107.997 88.6389 107.866 88.2906 107.629 88.0176C107.393 87.7446 107.067 87.5646 106.71 87.51C106.652 87.5027 106.598 87.4742 106.559 87.4299C106.521 87.3857 106.5 87.3288 106.5 87.27V86.27C106.5 85.3417 106.131 84.4515 105.475 83.7951C104.818 83.1387 103.928 82.77 103 82.77C102.072 82.77 101.182 83.1387 100.525 83.7951C99.8687 84.4515 99.5 85.3417 99.5 86.27V87.27ZM104 92.27C104 92.4678 103.941 92.6611 103.831 92.8256C103.722 92.99 103.565 93.1182 103.383 93.1939C103.2 93.2696 102.999 93.2894 102.805 93.2508C102.611 93.2122 102.433 93.117 102.293 92.9771C102.153 92.8373 102.058 92.6591 102.019 92.4651C101.981 92.2711 102 92.07 102.076 91.8873C102.152 91.7046 102.28 91.5484 102.444 91.4385C102.609 91.3286 102.802 91.27 103 91.27C103.262 91.2699 103.513 91.3726 103.7 91.5558C103.887 91.739 103.995 91.9883 104 92.25V92.27ZM103 84.77C103.398 84.77 103.779 84.928 104.061 85.2093C104.342 85.4906 104.5 85.8722 104.5 86.27V87.27C104.5 87.3363 104.474 87.3999 104.427 87.4468C104.38 87.4937 104.316 87.52 104.25 87.52H101.75C101.684 87.52 101.62 87.4937 101.573 87.4468C101.526 87.3999 101.5 87.3363 101.5 87.27V86.27C101.497 86.0713 101.534 85.8741 101.608 85.6898C101.683 85.5055 101.793 85.3378 101.932 85.1964C102.072 85.055 102.238 84.9427 102.421 84.8661C102.605 84.7894 102.801 84.75 103 84.75V84.77Z" fill="#111111"/>
</g>
</g>
<g id="Size=32px, Filled=true" clip-path="url(#clip8_2091_228)">
<g id="Vector_12">
<path d="M120 72.6667C120 73.5507 120.351 74.3986 120.976 75.0237C121.601 75.6488 122.449 76 123.333 76H146C146.438 76 146.871 75.9138 147.276 75.7463C147.68 75.5788 148.047 75.3332 148.357 75.0237C148.667 74.7142 148.912 74.3467 149.08 73.9423C149.247 73.5379 149.333 73.1044 149.333 72.6667V71.3333C149.333 70.4493 148.982 69.6014 148.357 68.9763C147.732 68.3512 146.884 68 146 68H123.333C122.449 68 121.601 68.3512 120.976 68.9763C120.351 69.6014 120 70.4493 120 71.3333V72.6667ZM124.853 72C124.853 71.7073 124.94 71.4211 125.103 71.1778C125.265 70.9344 125.497 70.7447 125.767 70.6327C126.037 70.5206 126.335 70.4913 126.622 70.5484C126.909 70.6055 127.173 70.7465 127.38 70.9535C127.587 71.1605 127.728 71.4242 127.785 71.7113C127.842 71.9984 127.813 72.2959 127.701 72.5664C127.589 72.8368 127.399 73.068 127.156 73.2306C126.912 73.3932 126.626 73.48 126.333 73.48C126.138 73.4818 125.945 73.4447 125.765 73.371C125.584 73.2972 125.421 73.1883 125.283 73.0505C125.145 72.9127 125.036 72.7488 124.962 72.5685C124.889 72.3881 124.852 72.1949 124.853 72ZM130 72C129.997 71.7035 130.083 71.413 130.246 71.1654C130.409 70.9178 130.642 70.7243 130.916 70.6096C131.189 70.4949 131.49 70.4642 131.781 70.5214C132.072 70.5786 132.34 70.7211 132.549 70.9308C132.759 71.1404 132.901 71.4077 132.959 71.6986C133.016 71.9896 132.985 72.2909 132.87 72.5643C132.756 72.8377 132.562 73.0708 132.315 73.2339C132.067 73.397 131.776 73.4826 131.48 73.48C131.087 73.48 130.711 73.3241 130.433 73.0465C130.156 72.769 130 72.3925 130 72Z" fill="#111111"/>
<path d="M145.333 80C146.544 80.0008 147.73 80.3377 148.76 80.9733C148.816 81.0088 148.88 81.0288 148.946 81.0312C149.012 81.0337 149.078 81.0185 149.136 80.9874C149.195 80.9562 149.243 80.91 149.278 80.8537C149.313 80.7973 149.332 80.7328 149.333 80.6667C149.333 79.7826 148.982 78.9348 148.357 78.3096C147.732 77.6845 146.884 77.3333 146 77.3333H123.333C122.449 77.3333 121.601 77.6845 120.976 78.3096C120.351 78.9348 120 79.7826 120 80.6667V82C120 82.8841 120.351 83.7319 120.976 84.357C121.601 84.9821 122.449 85.3333 123.333 85.3333H138.28C138.428 85.3317 138.571 85.2811 138.687 85.1894C138.802 85.0977 138.885 84.9701 138.92 84.8267C139.32 83.4347 140.162 82.2108 141.319 81.34C142.476 80.4692 143.885 79.9988 145.333 80ZM132.973 81.3333C132.976 81.6292 132.891 81.9193 132.728 82.1666C132.566 82.4139 132.333 82.6074 132.061 82.7225C131.788 82.8375 131.487 82.869 131.197 82.8129C130.906 82.7568 130.639 82.6156 130.429 82.4073C130.219 82.199 130.075 81.933 130.016 81.6429C129.958 81.3529 129.986 81.052 130.099 80.7783C130.212 80.5047 130.403 80.2706 130.649 80.106C130.895 79.9413 131.184 79.8533 131.48 79.8533C131.675 79.8516 131.869 79.8886 132.05 79.9621C132.232 80.0357 132.396 80.1445 132.535 80.2821C132.674 80.4197 132.784 80.5834 132.859 80.7639C132.935 80.9443 132.973 81.1378 132.973 81.3333ZM127.813 81.3333C127.813 81.626 127.727 81.9122 127.564 82.1556C127.401 82.399 127.17 82.5887 126.9 82.7007C126.629 82.8127 126.332 82.842 126.045 82.7849C125.758 82.7278 125.494 82.5868 125.287 82.3799C125.08 82.1729 124.939 81.9092 124.882 81.6221C124.825 81.335 124.854 81.0374 124.966 80.767C125.078 80.4965 125.268 80.2654 125.511 80.1028C125.754 79.9401 126.041 79.8533 126.333 79.8533C126.528 79.8516 126.721 79.8886 126.902 79.9624C127.082 80.0361 127.246 80.1451 127.384 80.2828C127.522 80.4206 127.631 80.5845 127.704 80.7649C127.778 80.9452 127.815 81.1385 127.813 81.3333Z" fill="#111111"/>
<path d="M123.333 94.6667H136C136.177 94.6667 136.346 94.5964 136.471 94.4714C136.596 94.3464 136.667 94.1768 136.667 94V89.3333C136.651 88.9332 136.734 88.5355 136.908 88.175C137.083 87.8146 137.343 87.5027 137.667 87.2667C137.724 87.224 137.766 87.1643 137.786 87.0962C137.807 87.028 137.805 86.9551 137.781 86.888C137.757 86.821 137.713 86.7633 137.654 86.7235C137.595 86.6837 137.524 86.6637 137.453 86.6667H123.333C122.449 86.6667 121.601 87.0179 120.976 87.643C120.351 88.2681 120 89.1159 120 90V91.3333C120 92.2174 120.351 93.0652 120.976 93.6904C121.601 94.3155 122.449 94.6667 123.333 94.6667ZM124.853 90.6667C124.853 90.374 124.94 90.0878 125.103 89.8444C125.265 89.601 125.497 89.4113 125.767 89.2993C126.037 89.1873 126.335 89.158 126.622 89.2151C126.909 89.2722 127.173 89.4132 127.38 89.6201C127.587 89.8271 127.728 90.0908 127.785 90.3779C127.842 90.665 127.813 90.9626 127.701 91.233C127.589 91.5035 127.399 91.7346 127.156 91.8972C126.912 92.0599 126.626 92.1467 126.333 92.1467C126.138 92.1484 125.945 92.1114 125.765 92.0376C125.584 91.9639 125.421 91.8549 125.283 91.7172C125.145 91.5794 125.036 91.4155 124.962 91.2351C124.889 91.0548 124.852 90.8615 124.853 90.6667ZM130 90.6667C129.997 90.3702 130.083 90.0796 130.246 89.832C130.409 89.5844 130.642 89.391 130.916 89.2763C131.189 89.1616 131.49 89.1309 131.781 89.1881C132.072 89.2453 132.34 89.3878 132.549 89.5974C132.759 89.8071 132.901 90.0744 132.959 90.3653C133.016 90.6562 132.985 90.9576 132.87 91.231C132.756 91.5044 132.562 91.7375 132.315 91.9006C132.067 92.0636 131.776 92.1493 131.48 92.1467C131.087 92.1467 130.711 91.9907 130.433 91.7132C130.156 91.4356 130 91.0592 130 90.6667Z" fill="#111111"/>
<path d="M140.667 88.36C140.667 88.4384 140.639 88.5142 140.588 88.5732C140.536 88.6322 140.464 88.6702 140.387 88.68C139.911 88.7528 139.476 88.9928 139.161 89.3568C138.846 89.7208 138.671 90.1852 138.667 90.6667V98C138.667 98.5304 138.877 99.0391 139.252 99.4142C139.628 99.7893 140.136 100 140.667 100H150C150.53 100 151.039 99.7893 151.414 99.4142C151.789 99.0391 152 98.5304 152 98V90.6667C151.996 90.1852 151.821 89.7208 151.506 89.3568C151.19 88.9928 150.756 88.7528 150.28 88.68C150.202 88.6702 150.131 88.6322 150.079 88.5732C150.028 88.5142 149.999 88.4384 150 88.36V87.0267C150 85.789 149.508 84.602 148.633 83.7268C147.758 82.8517 146.571 82.36 145.333 82.36C144.096 82.36 142.909 82.8517 142.034 83.7268C141.158 84.602 140.667 85.789 140.667 87.0267V88.36ZM146.667 95.0267C146.667 95.2904 146.588 95.5482 146.442 95.7674C146.295 95.9867 146.087 96.1576 145.844 96.2585C145.6 96.3594 145.332 96.3858 145.073 96.3344C144.815 96.2829 144.577 96.1559 144.391 95.9695C144.204 95.783 144.077 95.5454 144.026 95.2868C143.974 95.0281 144.001 94.7601 144.101 94.5164C144.202 94.2728 144.373 94.0645 144.593 93.918C144.812 93.7715 145.07 93.6933 145.333 93.6933C145.682 93.6933 146.018 93.8301 146.267 94.0744C146.516 94.3187 146.66 94.651 146.667 95V95.0267ZM145.333 85.0267C145.864 85.0267 146.372 85.2374 146.748 85.6125C147.123 85.9875 147.333 86.4962 147.333 87.0267V88.36C147.333 88.4484 147.298 88.5332 147.236 88.5957C147.173 88.6582 147.088 88.6933 147 88.6933H143.667C143.578 88.6933 143.493 88.6582 143.431 88.5957C143.368 88.5332 143.333 88.4484 143.333 88.36V87.0267C143.33 86.7618 143.379 86.4988 143.478 86.2531C143.577 86.0074 143.724 85.7837 143.91 85.5952C144.096 85.4066 144.317 85.2569 144.562 85.1548C144.806 85.0526 145.068 85 145.333 85V85.0267Z" fill="#111111"/>
</g>
</g>
<g id="Size=40px, Filled=true" clip-path="url(#clip9_2091_228)">
<g id="Vector_13">
<path d="M164 69.8333C164 70.9384 164.439 71.9982 165.22 72.7796C166.002 73.561 167.062 74 168.167 74H196.5C197.047 74 197.589 73.8922 198.095 73.6828C198.6 73.4734 199.059 73.1665 199.446 72.7796C199.833 72.3927 200.14 71.9334 200.349 71.4278C200.559 70.9223 200.667 70.3805 200.667 69.8333V68.1667C200.667 67.0616 200.228 66.0018 199.446 65.2204C198.665 64.439 197.605 64 196.5 64H168.167C167.062 64 166.002 64.439 165.22 65.2204C164.439 66.0018 164 67.0616 164 68.1667V69.8333ZM170.067 69C170.067 68.6341 170.175 68.2764 170.378 67.9722C170.582 67.668 170.871 67.4308 171.209 67.2908C171.547 67.1508 171.919 67.1142 172.278 67.1855C172.636 67.2569 172.966 67.4331 173.225 67.6919C173.484 67.9506 173.66 68.2802 173.731 68.6391C173.803 68.9979 173.766 69.3699 173.626 69.708C173.486 70.046 173.249 70.3349 172.944 70.5382C172.64 70.7415 172.283 70.85 171.917 70.85C171.673 70.8522 171.432 70.8059 171.206 70.7137C170.981 70.6215 170.776 70.4853 170.604 70.3131C170.431 70.1409 170.295 69.936 170.203 69.7106C170.111 69.4851 170.064 69.2436 170.067 69ZM176.5 69C176.497 68.6294 176.604 68.2662 176.808 67.9567C177.011 67.6472 177.303 67.4054 177.645 67.262C177.986 67.1187 178.363 67.0803 178.727 67.1518C179.09 67.2233 179.424 67.4014 179.687 67.6635C179.949 67.9255 180.127 68.2597 180.198 68.6233C180.27 68.987 180.231 69.3636 180.088 69.7054C179.945 70.0472 179.703 70.3385 179.393 70.5424C179.084 70.7462 178.721 70.8533 178.35 70.85C177.859 70.85 177.389 70.6551 177.042 70.3081C176.695 69.9612 176.5 69.4907 176.5 69Z" fill="#111111"/>
<path d="M195.667 79C197.18 79.001 198.662 79.4222 199.95 80.2167C200.02 80.261 200.1 80.286 200.183 80.289C200.265 80.2921 200.347 80.2732 200.42 80.2342C200.493 80.1952 200.554 80.1375 200.598 80.0671C200.641 79.9967 200.665 79.916 200.667 79.8333C200.667 78.7283 200.228 77.6685 199.446 76.8871C198.665 76.1057 197.605 75.6667 196.5 75.6667H168.167C167.062 75.6667 166.002 76.1057 165.22 76.8871C164.439 77.6685 164 78.7283 164 79.8333V81.5C164 82.6051 164.439 83.6649 165.22 84.4463C166.002 85.2277 167.062 85.6667 168.167 85.6667H186.85C187.035 85.6647 187.213 85.6014 187.358 85.4868C187.503 85.3721 187.606 85.2126 187.65 85.0333C188.15 83.2934 189.202 81.7635 190.649 80.675C192.095 79.5864 193.856 78.9985 195.667 79ZM180.217 80.6667C180.22 81.0366 180.113 81.3991 179.91 81.7082C179.707 82.0174 179.417 82.2592 179.076 82.4031C178.735 82.5469 178.359 82.5863 177.996 82.5161C177.633 82.446 177.299 82.2696 177.036 82.0092C176.773 81.7488 176.594 81.4162 176.521 81.0537C176.447 80.6911 176.483 80.315 176.624 79.9729C176.765 79.6308 177.004 79.3383 177.311 79.1325C177.619 78.9266 177.98 78.8167 178.35 78.8167C178.594 78.8145 178.837 78.8607 179.063 78.9527C179.289 79.0447 179.495 79.1806 179.669 79.3526C179.842 79.5246 179.98 79.7293 180.074 79.9548C180.168 80.1804 180.217 80.4223 180.217 80.6667ZM173.767 80.6667C173.767 81.0326 173.658 81.3902 173.455 81.6945C173.252 81.9987 172.963 82.2358 172.625 82.3758C172.287 82.5159 171.915 82.5525 171.556 82.4811C171.197 82.4097 170.867 82.2335 170.609 81.9748C170.35 81.7161 170.174 81.3864 170.102 81.0276C170.031 80.6687 170.067 80.2967 170.207 79.9587C170.348 79.6207 170.585 79.3317 170.889 79.1284C171.193 78.9252 171.551 78.8167 171.917 78.8167C172.16 78.8144 172.402 78.8608 172.627 78.953C172.853 79.0451 173.058 79.1813 173.23 79.3536C173.402 79.5258 173.538 79.7306 173.63 79.9561C173.723 80.1815 173.769 80.4231 173.767 80.6667Z" fill="#111111"/>
<path d="M168.167 97.3333H184C184.221 97.3333 184.433 97.2455 184.589 97.0893C184.746 96.933 184.833 96.721 184.833 96.5V90.6667C184.814 90.1666 184.918 89.6693 185.136 89.2188C185.354 88.7683 185.679 88.3783 186.083 88.0833C186.155 88.0301 186.207 87.9554 186.233 87.8702C186.258 87.785 186.256 87.6939 186.226 87.6101C186.197 87.5262 186.141 87.4541 186.067 87.4044C185.993 87.3546 185.906 87.3297 185.817 87.3333H168.167C167.062 87.3333 166.002 87.7723 165.22 88.5537C164.439 89.3351 164 90.3949 164 91.5V93.1667C164 94.2717 164.439 95.3315 165.22 96.1129C166.002 96.8943 167.062 97.3333 168.167 97.3333ZM170.067 92.3333C170.067 91.9674 170.175 91.6098 170.378 91.3055C170.582 91.0013 170.871 90.7642 171.209 90.6242C171.547 90.4841 171.919 90.4475 172.278 90.5189C172.636 90.5903 172.966 90.7665 173.225 91.0252C173.484 91.2839 173.66 91.6136 173.731 91.9724C173.803 92.3313 173.766 92.7033 173.626 93.0413C173.486 93.3793 173.249 93.6683 172.944 93.8716C172.64 94.0748 172.283 94.1833 171.917 94.1833C171.673 94.1856 171.432 94.1392 171.206 94.047C170.981 93.9549 170.776 93.8187 170.604 93.6464C170.431 93.4742 170.295 93.2694 170.203 93.0439C170.111 92.8185 170.064 92.5769 170.067 92.3333ZM176.5 92.3333C176.497 91.9627 176.604 91.5996 176.808 91.29C177.011 90.9805 177.303 90.7387 177.645 90.5954C177.986 90.452 178.363 90.4136 178.727 90.4851C179.09 90.5566 179.424 90.7347 179.687 90.9968C179.949 91.2589 180.127 91.593 180.198 91.9566C180.27 92.3203 180.231 92.697 180.088 93.0387C179.945 93.3805 179.703 93.6719 179.393 93.8757C179.084 94.0795 178.721 94.1866 178.35 94.1833C177.859 94.1833 177.389 93.9884 177.042 93.6415C176.695 93.2945 176.5 92.824 176.5 92.3333Z" fill="#111111"/>
<path d="M189.833 89.45C189.834 89.548 189.799 89.6428 189.734 89.7165C189.67 89.7903 189.581 89.8378 189.483 89.85C188.888 89.9411 188.345 90.241 187.951 90.696C187.557 91.151 187.338 91.7315 187.333 92.3333V101.5C187.333 102.163 187.597 102.799 188.066 103.268C188.534 103.737 189.17 104 189.833 104H201.5C202.163 104 202.799 103.737 203.268 103.268C203.737 102.799 204 102.163 204 101.5V92.3333C203.995 91.7315 203.776 91.151 203.382 90.696C202.988 90.241 202.445 89.9411 201.85 89.85C201.753 89.8378 201.663 89.7903 201.599 89.7165C201.534 89.6428 201.499 89.548 201.5 89.45V87.7833C201.5 86.2362 200.885 84.7525 199.791 83.6585C198.697 82.5646 197.214 81.95 195.667 81.95C194.12 81.95 192.636 82.5646 191.542 83.6585C190.448 84.7525 189.833 86.2362 189.833 87.7833V89.45ZM197.333 97.7833C197.333 98.113 197.236 98.4352 197.052 98.7093C196.869 98.9834 196.609 99.197 196.304 99.3231C196 99.4493 195.665 99.4823 195.342 99.418C195.018 99.3537 194.721 99.1949 194.488 98.9618C194.255 98.7288 194.096 98.4318 194.032 98.1085C193.968 97.7852 194.001 97.4501 194.127 97.1455C194.253 96.841 194.467 96.5807 194.741 96.3975C195.015 96.2144 195.337 96.1167 195.667 96.1167C196.103 96.1166 196.522 96.2876 196.834 96.593C197.145 96.8984 197.325 97.3138 197.333 97.75V97.7833ZM195.667 85.2833C196.33 85.2833 196.966 85.5467 197.434 86.0156C197.903 86.4844 198.167 87.1203 198.167 87.7833V89.45C198.167 89.5605 198.123 89.6665 198.045 89.7446C197.966 89.8228 197.861 89.8667 197.75 89.8667H193.583C193.473 89.8667 193.367 89.8228 193.289 89.7446C193.211 89.6665 193.167 89.5605 193.167 89.45V87.7833C193.162 87.4522 193.224 87.1236 193.347 86.8164C193.471 86.5092 193.654 86.2297 193.887 85.994C194.12 85.7583 194.397 85.5712 194.702 85.4434C195.008 85.3157 195.336 85.25 195.667 85.25V85.2833Z" fill="#111111"/>
</g>
</g>
<g id="Size=48px, Filled=true" clip-path="url(#clip10_2091_228)">
<g id="Vector_14">
<path d="M216 67C216 68.3261 216.527 69.5979 217.464 70.5355C218.402 71.4732 219.674 72 221 72H255C255.657 72 256.307 71.8707 256.913 71.6194C257.52 71.3681 258.071 70.9998 258.536 70.5355C259 70.0712 259.368 69.52 259.619 68.9134C259.871 68.3068 260 67.6566 260 67V65C260 63.6739 259.473 62.4021 258.536 61.4645C257.598 60.5268 256.326 60 255 60H221C219.674 60 218.402 60.5268 217.464 61.4645C216.527 62.4021 216 63.6739 216 65V67ZM223.28 66C223.28 65.5609 223.41 65.1317 223.654 64.7666C223.898 64.4016 224.245 64.117 224.65 63.949C225.056 63.781 225.502 63.737 225.933 63.8227C226.364 63.9083 226.759 64.1198 227.07 64.4302C227.38 64.7407 227.592 65.1363 227.677 65.5669C227.763 65.9975 227.719 66.4439 227.551 66.8496C227.383 67.2552 227.098 67.6019 226.733 67.8459C226.368 68.0898 225.939 68.22 225.5 68.22C225.208 68.2227 224.918 68.1671 224.647 68.0564C224.377 67.9458 224.131 67.7824 223.924 67.5757C223.718 67.369 223.554 67.1233 223.444 66.8527C223.333 66.5822 223.277 66.2923 223.28 66ZM231 66C230.996 65.5553 231.125 65.1195 231.369 64.7481C231.614 64.3766 231.963 64.0864 232.374 63.9144C232.784 63.7424 233.236 63.6964 233.672 63.7822C234.108 63.868 234.509 64.0817 234.824 64.3962C235.138 64.7106 235.352 65.1116 235.438 65.548C235.524 65.9843 235.478 66.4364 235.306 66.8465C235.134 67.2566 234.843 67.6062 234.472 67.8508C234.101 68.0954 233.665 68.224 233.22 68.22C232.631 68.22 232.067 67.9861 231.65 67.5698C231.234 67.1534 231 66.5888 231 66Z" fill="#111111"/>
<path d="M254 78C255.815 78.0012 257.595 78.5066 259.14 79.46C259.224 79.5132 259.32 79.5431 259.419 79.5468C259.518 79.5505 259.617 79.5278 259.704 79.481C259.792 79.4342 259.865 79.365 259.917 79.2805C259.969 79.196 259.998 79.0992 260 79C260 77.6739 259.473 76.4021 258.536 75.4645C257.598 74.5268 256.326 74 255 74H221C219.674 74 218.402 74.5268 217.464 75.4645C216.527 76.4021 216 77.6739 216 79V81C216 82.3261 216.527 83.5979 217.464 84.5355C218.402 85.4732 219.674 86 221 86H243.42C243.642 85.9976 243.856 85.9217 244.03 85.7841C244.204 85.6465 244.327 85.4552 244.38 85.24C244.98 83.1521 246.243 81.3162 247.978 80.01C249.714 78.7037 251.828 77.9982 254 78ZM235.46 80C235.464 80.4439 235.336 80.8789 235.092 81.2499C234.849 81.6209 234.5 81.9111 234.091 82.0837C233.682 82.2563 233.231 82.3035 232.795 82.2194C232.36 82.1352 231.959 81.9235 231.643 81.611C231.328 81.2985 231.113 80.8995 231.025 80.4644C230.937 80.0294 230.98 79.5779 231.149 79.1675C231.318 78.757 231.605 78.406 231.973 78.1589C232.342 77.9119 232.776 77.78 233.22 77.78C233.513 77.7774 233.804 77.8328 234.076 77.9432C234.347 78.0536 234.594 78.2167 234.803 78.4231C235.011 78.6295 235.176 78.8751 235.289 79.1458C235.402 79.4165 235.46 79.7068 235.46 80ZM227.72 80C227.72 80.4391 227.59 80.8683 227.346 81.2334C227.102 81.5984 226.755 81.883 226.35 82.051C225.944 82.219 225.498 82.263 225.067 82.1773C224.636 82.0917 224.241 81.8802 223.93 81.5698C223.62 81.2593 223.408 80.8637 223.323 80.4331C223.237 80.0025 223.281 79.5561 223.449 79.1504C223.617 78.7448 223.902 78.3981 224.267 78.1541C224.632 77.9102 225.061 77.78 225.5 77.78C225.792 77.7773 226.082 77.8329 226.353 77.9436C226.623 78.0542 226.869 78.2176 227.076 78.4243C227.282 78.631 227.446 78.8767 227.556 79.1473C227.667 79.4178 227.723 79.7077 227.72 80Z" fill="#111111"/>
<path d="M221 100H240C240.265 100 240.52 99.8946 240.707 99.7071C240.895 99.5196 241 99.2652 241 99V92C240.976 91.3999 241.101 90.8032 241.363 90.2626C241.624 89.7219 242.015 89.254 242.5 88.9C242.585 88.8361 242.648 88.7464 242.679 88.6443C242.71 88.5421 242.707 88.4327 242.672 88.3321C242.636 88.2315 242.569 88.145 242.48 88.0852C242.392 88.0255 242.287 87.9956 242.18 88H221C219.674 88 218.402 88.5268 217.464 89.4645C216.527 90.4021 216 91.6739 216 93V95C216 96.3261 216.527 97.5979 217.464 98.5355C218.402 99.4732 219.674 100 221 100ZM223.28 94C223.28 93.5609 223.41 93.1317 223.654 92.7666C223.898 92.4016 224.245 92.117 224.65 91.949C225.056 91.781 225.502 91.737 225.933 91.8227C226.364 91.9083 226.759 92.1198 227.07 92.4302C227.38 92.7407 227.592 93.1363 227.677 93.5669C227.763 93.9975 227.719 94.4439 227.551 94.8496C227.383 95.2552 227.098 95.6019 226.733 95.8459C226.368 96.0898 225.939 96.22 225.5 96.22C225.208 96.2227 224.918 96.1671 224.647 96.0564C224.377 95.9458 224.131 95.7824 223.924 95.5757C223.718 95.369 223.554 95.1233 223.444 94.8527C223.333 94.5822 223.277 94.2923 223.28 94ZM231 94C230.996 93.5553 231.125 93.1195 231.369 92.7481C231.614 92.3766 231.963 92.0864 232.374 91.9144C232.784 91.7424 233.236 91.6964 233.672 91.7822C234.108 91.868 234.509 92.0817 234.824 92.3962C235.138 92.7106 235.352 93.1116 235.438 93.548C235.524 93.9843 235.478 94.4364 235.306 94.8465C235.134 95.2566 234.843 95.6062 234.472 95.8508C234.101 96.0954 233.665 96.224 233.22 96.22C232.631 96.22 232.067 95.9861 231.65 95.5698C231.234 95.1534 231 94.5888 231 94Z" fill="#111111"/>
<path d="M247 90.54C247.001 90.6576 246.959 90.7714 246.881 90.8598C246.804 90.9483 246.697 91.0053 246.58 91.02C245.866 91.1293 245.214 91.4892 244.742 92.0352C244.269 92.5812 244.006 93.2778 244 94V105C244 105.796 244.316 106.559 244.879 107.121C245.441 107.684 246.204 108 247 108H261C261.796 108 262.559 107.684 263.121 107.121C263.684 106.559 264 105.796 264 105V94C263.994 93.2778 263.731 92.5812 263.258 92.0352C262.786 91.4892 262.134 91.1293 261.42 91.02C261.303 91.0053 261.196 90.9483 261.119 90.8598C261.041 90.7714 260.999 90.6576 261 90.54V88.54C261 86.6835 260.263 84.903 258.95 83.5903C257.637 82.2775 255.857 81.54 254 81.54C252.143 81.54 250.363 82.2775 249.05 83.5903C247.737 84.903 247 86.6835 247 88.54V90.54ZM256 100.54C256 100.936 255.883 101.322 255.663 101.651C255.443 101.98 255.131 102.236 254.765 102.388C254.4 102.539 253.998 102.579 253.61 102.502C253.222 102.424 252.865 102.234 252.586 101.954C252.306 101.675 252.116 101.318 252.038 100.93C251.961 100.542 252.001 100.14 252.152 99.7746C252.304 99.4092 252.56 99.0968 252.889 98.8771C253.218 98.6573 253.604 98.54 254 98.54C254.524 98.5399 255.026 98.7451 255.4 99.1116C255.774 99.478 255.99 99.9765 256 100.5V100.54ZM254 85.54C254.796 85.54 255.559 85.8561 256.121 86.4187C256.684 86.9813 257 87.7444 257 88.54V90.54C257 90.6726 256.947 90.7998 256.854 90.8936C256.76 90.9873 256.633 91.04 256.5 91.04H251.5C251.367 91.04 251.24 90.9873 251.146 90.8936C251.053 90.7998 251 90.6726 251 90.54V88.54C250.995 88.1427 251.068 87.7483 251.217 87.3797C251.365 87.0111 251.585 86.6756 251.864 86.3928C252.144 86.1099 252.476 85.8854 252.843 85.7321C253.209 85.5789 253.603 85.5 254 85.5V85.54Z" fill="#111111"/>
</g>
</g>
</g>
</g>
<defs>
<clipPath id="clip0_2091_228">
<rect width="264" height="108" rx="5" fill="white"/>
</clipPath>
<clipPath id="clip1_2091_228">
<rect width="12" height="12" fill="white" transform="translate(0 18)"/>
</clipPath>
<clipPath id="clip2_2091_228">
<rect width="16" height="16" fill="white" transform="translate(24 16)"/>
</clipPath>
<clipPath id="clip3_2091_228">
<rect width="20" height="20" fill="white" transform="translate(52 14)"/>
</clipPath>
<clipPath id="clip4_2091_228">
<rect width="12" height="12" fill="white" transform="translate(0 78)"/>
</clipPath>
<clipPath id="clip5_2091_228">
<rect width="16" height="16" fill="white" transform="translate(24 76)"/>
</clipPath>
<clipPath id="clip6_2091_228">
<rect width="20" height="20" fill="white" transform="translate(52 74)"/>
</clipPath>
<clipPath id="clip7_2091_228">
<rect width="24" height="24" fill="white" transform="translate(84 72)"/>
</clipPath>
<clipPath id="clip8_2091_228">
<rect width="32" height="32" fill="white" transform="translate(120 68)"/>
</clipPath>
<clipPath id="clip9_2091_228">
<rect width="40" height="40" fill="white" transform="translate(164 64)"/>
</clipPath>
<clipPath id="clip10_2091_228">
<rect width="48" height="48" fill="white" transform="translate(216 60)"/>
</clipPath>
</defs>
</svg>
