<svg width="264" height="108" viewBox="0 0 264 108" fill="none" xmlns="http://www.w3.org/2000/svg">
<g clip-path="url(#clip0_7887_210)">
<g clip-path="url(#clip1_7887_210)">
<path d="M8.56183 24.6941C7.88202 24.0144 6.96005 23.6325 5.99871 23.6325C5.03737 23.6325 4.1154 24.0144 3.4356 24.6941M10.1009 23.1561C9.01321 22.0685 7.53802 21.4575 5.99983 21.4575C4.46164 21.4575 2.98645 22.0685 1.89875 23.1561M11.4375 21.4236C9.9612 20.0476 8.01812 19.2825 6 19.2825C3.98188 19.2825 2.0388 20.0476 0.5625 21.4236M4.55 27.2575C4.55 27.6421 4.70277 28.0109 4.9747 28.2828C5.24662 28.5547 5.61544 28.7075 6 28.7075C6.38456 28.7075 6.75338 28.5547 7.02531 28.2828C7.29723 28.0109 7.45 27.6421 7.45 27.2575C7.45 26.8729 7.29723 26.5041 7.02531 26.2322C6.75338 25.9603 6.38456 25.8075 6 25.8075C5.61544 25.8075 5.24662 25.9603 4.9747 26.2322C4.70277 26.5041 4.55 26.8729 4.55 27.2575Z" stroke="#111111" stroke-width="0.75" stroke-linecap="round" stroke-linejoin="round"/>
</g>
<path d="M35.4158 24.9254C34.5094 24.0191 33.2801 23.51 31.9983 23.51C30.7165 23.51 29.4872 24.0191 28.5808 24.9254M37.4679 22.8749C36.0176 21.4247 34.0507 20.61 31.9998 20.61C29.9489 20.61 27.9819 21.4247 26.5317 22.8749M39.25 20.5648C37.2816 18.7302 34.6908 17.71 32 17.71C29.3092 17.71 26.7184 18.7302 24.75 20.5648M30.0667 28.3433C30.0667 28.8561 30.2704 29.3478 30.6329 29.7104C30.9955 30.073 31.4872 30.2767 32 30.2767C32.5128 30.2767 33.0045 30.073 33.3671 29.7104C33.7296 29.3478 33.9333 28.8561 33.9333 28.3433C33.9333 27.8306 33.7296 27.3388 33.3671 26.9763C33.0045 26.6137 32.5128 26.41 32 26.41C31.4872 26.41 30.9955 26.6137 30.6329 26.9763C30.2704 27.3388 30.0667 27.8306 30.0667 28.3433Z" stroke="#111111" stroke-linecap="round" stroke-linejoin="round"/>
<path d="M66.2697 25.1568C65.1367 24.0239 63.6001 23.3875 61.9979 23.3875C60.3956 23.3875 58.859 24.0239 57.726 25.1568M68.8349 22.5936C67.022 20.7809 64.5634 19.7625 61.9997 19.7625C59.4361 19.7625 56.9774 20.7809 55.1646 22.5936M71.0625 19.706C68.602 17.4127 65.3635 16.1375 62 16.1375C58.6365 16.1375 55.398 17.4127 52.9375 19.706M59.5833 29.4292C59.5833 30.0701 59.8379 30.6848 60.2912 31.138C60.7444 31.5912 61.3591 31.8458 62 31.8458C62.6409 31.8458 63.2556 31.5912 63.7088 31.138C64.1621 30.6848 64.4167 30.0701 64.4167 29.4292C64.4167 28.7882 64.1621 28.1735 63.7088 27.7203C63.2556 27.2671 62.6409 27.0125 62 27.0125C61.3591 27.0125 60.7444 27.2671 60.2912 27.7203C59.8379 28.1735 59.5833 28.7882 59.5833 29.4292Z" stroke="#111111" stroke-width="1.25" stroke-linecap="round" stroke-linejoin="round"/>
<path d="M101.124 25.3882C99.764 24.0287 97.9201 23.265 95.9974 23.265C94.0747 23.265 92.2308 24.0287 90.8712 25.3882M104.202 22.3123C102.026 20.137 99.076 18.915 95.9997 18.915C92.9233 18.915 89.9729 20.137 87.7975 22.3123M106.875 18.8472C103.922 16.0952 100.036 14.565 96 14.565C91.9638 14.565 88.0776 16.0952 85.125 18.8472M93.1 30.515C93.1 31.2841 93.4055 32.0218 93.9494 32.5656C94.4932 33.1095 95.2309 33.415 96 33.415C96.7691 33.415 97.5068 33.1095 98.0506 32.5656C98.5945 32.0218 98.9 31.2841 98.9 30.515C98.9 29.7459 98.5945 29.0082 98.0506 28.4644C97.5068 27.9205 96.7691 27.615 96 27.615C95.2309 27.615 94.4932 27.9205 93.9494 28.4644C93.4055 29.0082 93.1 29.7459 93.1 30.515Z" stroke="#111111" stroke-width="1.5" stroke-linecap="round" stroke-linejoin="round"/>
<path d="M142.832 25.8509C141.019 24.0383 138.56 23.02 135.997 23.02C133.433 23.02 130.974 24.0383 129.162 25.8509M146.936 21.7497C144.035 18.8494 140.101 17.22 136 17.22C131.898 17.22 127.964 18.8494 125.063 21.7497M150.5 17.1297C146.563 13.4603 141.382 11.42 136 11.42C130.618 11.42 125.437 13.4603 121.5 17.1297M132.133 32.6867C132.133 33.7122 132.541 34.6957 133.266 35.4208C133.991 36.146 134.974 36.5533 136 36.5533C137.026 36.5533 138.009 36.146 138.734 35.4208C139.459 34.6957 139.867 33.7122 139.867 32.6867C139.867 31.6612 139.459 30.6777 138.734 29.9525C138.009 29.2274 137.026 28.82 136 28.82C134.974 28.82 133.991 29.2274 133.266 29.9525C132.541 30.6777 132.133 31.6612 132.133 32.6867Z" stroke="#111111" stroke-width="2" stroke-linecap="round" stroke-linejoin="round"/>
<path d="M192.539 26.3136C190.273 24.0479 187.2 22.775 183.996 22.775C180.791 22.775 177.718 24.0479 175.452 26.3136M197.67 21.1871C194.044 17.5617 189.127 15.525 183.999 15.525C178.872 15.525 173.955 17.5617 170.329 21.1871M202.125 15.412C197.204 10.8254 190.727 8.27499 184 8.27499C177.273 8.27499 170.796 10.8254 165.875 15.412M179.167 34.8583C179.167 36.1402 179.676 37.3696 180.582 38.276C181.489 39.1824 182.718 39.6917 184 39.6917C185.282 39.6917 186.511 39.1824 187.418 38.276C188.324 37.3696 188.833 36.1402 188.833 34.8583C188.833 33.5764 188.324 32.3471 187.418 31.4406C186.511 30.5342 185.282 30.025 184 30.025C182.718 30.025 181.489 30.5342 180.582 31.4406C179.676 32.3471 179.167 33.5764 179.167 34.8583Z" stroke="#111111" stroke-width="2.5" stroke-linecap="round" stroke-linejoin="round"/>
<path d="M250.247 26.7764C247.528 24.0575 243.84 22.53 239.995 22.53C236.149 22.53 232.462 24.0575 229.742 26.7764M256.404 20.6246C252.053 16.2741 246.152 13.83 239.999 13.83C233.847 13.83 227.946 16.2741 223.595 20.6246M261.75 13.6945C255.845 8.19049 248.072 5.13 240 5.13C231.928 5.13 224.155 8.19049 218.25 13.6945M234.2 37.03C234.2 38.5683 234.811 40.0435 235.899 41.1312C236.986 42.2189 238.462 42.83 240 42.83C241.538 42.83 243.014 42.2189 244.101 41.1312C245.189 40.0435 245.8 38.5683 245.8 37.03C245.8 35.4918 245.189 34.0165 244.101 32.9288C243.014 31.8411 241.538 31.23 240 31.23C238.462 31.23 236.986 31.8411 235.899 32.9288C234.811 34.0165 234.2 35.4918 234.2 37.03Z" stroke="#111111" stroke-width="3" stroke-linecap="round" stroke-linejoin="round"/>
<g clip-path="url(#clip2_7887_210)">
<path d="M2.03994 82.96C1.98189 83.0176 1.93582 83.0862 1.90438 83.1617C1.87294 83.2372 1.85675 83.3182 1.85675 83.4C1.85675 83.4818 1.87294 83.5628 1.90438 83.6383C1.93582 83.7138 1.98189 83.7823 2.03994 83.84C2.09723 83.8986 2.16566 83.9453 2.24123 83.9771C2.31679 84.0089 2.39795 84.0253 2.47994 84.0253C2.56193 84.0253 2.6431 84.0089 2.71866 83.9771C2.79422 83.9453 2.86266 83.8986 2.91994 83.84C3.74183 83.0211 4.85474 82.5613 6.01494 82.5613C7.17515 82.5613 8.28806 83.0211 9.10994 83.84C9.168 83.8982 9.23697 83.9444 9.3129 83.9759C9.38883 84.0074 9.47023 84.0236 9.55244 84.0236C9.63465 84.0236 9.71605 84.0074 9.79199 83.9759C9.86792 83.9444 9.93689 83.8982 9.99494 83.84C10.1086 83.7217 10.1721 83.564 10.1721 83.4C10.1721 83.2359 10.1086 83.0783 9.99494 82.96C8.9394 81.9063 7.50889 81.3145 6.01744 81.3145C4.52599 81.3145 3.09549 81.9063 2.03994 82.96Z" fill="#111111"/>
<path d="M11.4049 81.045C9.97512 79.616 8.03639 78.8134 6.01494 78.8134C3.99349 78.8134 2.05477 79.616 0.624943 81.045C0.507584 81.163 0.441916 81.3228 0.442385 81.4892C0.442854 81.6557 0.509421 81.8151 0.627443 81.9325C0.745464 82.0498 0.905272 82.1155 1.07171 82.115C1.23815 82.1146 1.39758 82.048 1.51494 81.93C2.71177 80.7428 4.32921 80.0767 6.01494 80.0767C7.70067 80.0767 9.31811 80.7428 10.5149 81.93C10.6343 82.0361 10.7898 82.0925 10.9494 82.0876C11.1091 82.0827 11.2608 82.0168 11.3734 81.9035C11.486 81.7903 11.551 81.6382 11.555 81.4786C11.559 81.3189 11.5017 81.1637 11.3949 81.045H11.4049Z" fill="#111111"/>
<path d="M7.20494 84C6.56178 83.7765 5.86879 83.7382 5.20491 83.8893C4.54103 84.0405 3.93295 84.3751 3.44994 84.855C3.33479 84.9735 3.27038 85.1322 3.27038 85.2975C3.27038 85.4627 3.33479 85.6215 3.44994 85.74C3.50818 85.7987 3.57751 85.8453 3.65389 85.8771C3.73028 85.9088 3.81222 85.9251 3.89494 85.925C3.977 85.9256 4.05832 85.9095 4.13396 85.8777C4.2096 85.8459 4.27798 85.799 4.33494 85.74C4.76634 85.3123 5.3452 85.0662 5.95251 85.0522C6.55981 85.0383 7.14937 85.2576 7.59994 85.665C7.66724 85.7418 7.74925 85.8044 7.84114 85.8491C7.93302 85.8938 8.03292 85.9196 8.13494 85.925C8.25839 85.9238 8.37878 85.8864 8.48115 85.8174C8.58353 85.7485 8.66337 85.6509 8.71078 85.5369C8.75819 85.4229 8.77106 85.2975 8.7478 85.1763C8.72454 85.0551 8.66617 84.9433 8.57994 84.855C8.1927 84.469 7.7224 84.1766 7.20494 84Z" fill="#111111"/>
<path d="M4.76494 87.935C4.76494 88.2665 4.89664 88.5844 5.13106 88.8189C5.36548 89.0533 5.68342 89.185 6.01494 89.185C6.34646 89.185 6.66441 89.0533 6.89883 88.8189C7.13325 88.5844 7.26494 88.2665 7.26494 87.935C7.26494 87.6035 7.13325 87.2855 6.89883 87.0511C6.66441 86.8167 6.34646 86.685 6.01494 86.685C5.68342 86.685 5.36548 86.8167 5.13106 87.0511C4.89664 87.2855 4.76494 87.6035 4.76494 87.935Z" fill="#111111"/>
</g>
<path d="M26.7199 82.6133C26.6425 82.6901 26.5811 82.7815 26.5392 82.8822C26.4972 82.9829 26.4757 83.0909 26.4757 83.2C26.4757 83.309 26.4972 83.417 26.5392 83.5177C26.5811 83.6184 26.6425 83.7098 26.7199 83.7866C26.7963 83.8648 26.8876 83.927 26.9883 83.9694C27.0891 84.0119 27.1973 84.0337 27.3066 84.0337C27.4159 84.0337 27.5241 84.0119 27.6249 83.9694C27.7256 83.927 27.8169 83.8648 27.8933 83.7866C28.9891 82.6948 30.473 82.0817 32.0199 82.0817C33.5669 82.0817 35.0507 82.6948 36.1466 83.7866C36.224 83.8642 36.316 83.9258 36.4172 83.9678C36.5184 84.0098 36.627 84.0315 36.7366 84.0315C36.8462 84.0315 36.9547 84.0098 37.056 83.9678C37.1572 83.9258 37.2492 83.8642 37.3266 83.7866C37.4781 83.6289 37.5628 83.4187 37.5628 83.2C37.5628 82.9812 37.4781 82.771 37.3266 82.6133C35.9192 81.2084 34.0119 80.4193 32.0233 80.4193C30.0347 80.4193 28.1273 81.2084 26.7199 82.6133Z" fill="#111111"/>
<path d="M39.2066 80.06C37.3002 78.1547 34.7152 77.0845 32.0199 77.0845C29.3247 77.0845 26.7397 78.1547 24.8333 80.06C24.6768 80.2173 24.5892 80.4304 24.5898 80.6523C24.5905 80.8742 24.6792 81.0868 24.8366 81.2433C24.994 81.3998 25.207 81.4873 25.4289 81.4867C25.6509 81.4861 25.8634 81.3973 26.0199 81.24C27.6157 79.6571 29.7723 78.769 32.0199 78.769C34.2676 78.769 36.4242 79.6571 38.0199 81.24C38.1791 81.3815 38.3864 81.4566 38.5992 81.4501C38.8121 81.4435 39.0143 81.3557 39.1645 81.2047C39.3147 81.0537 39.4013 80.851 39.4067 80.6381C39.412 80.4252 39.3356 80.2183 39.1933 80.06H39.2066Z" fill="#111111"/>
<path d="M33.6066 84C32.749 83.702 31.8251 83.6509 30.9399 83.8525C30.0547 84.054 29.2439 84.5001 28.5999 85.14C28.4464 85.298 28.3605 85.5096 28.3605 85.73C28.3605 85.9503 28.4464 86.1619 28.5999 86.32C28.6776 86.3983 28.77 86.4604 28.8719 86.5028C28.9737 86.5451 29.083 86.5668 29.1933 86.5666C29.3027 86.5675 29.4111 86.546 29.5119 86.5036C29.6128 86.4612 29.704 86.3987 29.7799 86.32C30.3551 85.7497 31.1269 85.4216 31.9367 85.403C32.7464 85.3844 33.5325 85.6767 34.1333 86.22C34.223 86.3225 34.3323 86.4059 34.4549 86.4655C34.5774 86.525 34.7106 86.5594 34.8466 86.5666C35.0112 86.5651 35.1717 86.5152 35.3082 86.4233C35.4447 86.3313 35.5512 86.2012 35.6144 86.0492C35.6776 85.8973 35.6947 85.7301 35.6637 85.5684C35.6327 85.4067 35.5549 85.2578 35.4399 85.14C34.9236 84.6253 34.2965 84.2354 33.6066 84Z" fill="#111111"/>
<path d="M30.3533 89.2466C30.3533 89.6887 30.5289 90.1126 30.8414 90.4251C31.154 90.7377 31.5779 90.9133 32.0199 90.9133C32.462 90.9133 32.8859 90.7377 33.1984 90.4251C33.511 90.1126 33.6866 89.6887 33.6866 89.2466C33.6866 88.8046 33.511 88.3807 33.1984 88.0681C32.8859 87.7556 32.462 87.58 32.0199 87.58C31.5779 87.58 31.154 87.7556 30.8414 88.0681C30.5289 88.3807 30.3533 88.8046 30.3533 89.2466Z" fill="#111111"/>
<path d="M55.3999 82.2666C55.3032 82.3627 55.2264 82.4769 55.174 82.6028C55.1216 82.7286 55.0946 82.8636 55.0946 83C55.0946 83.1363 55.1216 83.2713 55.174 83.3971C55.2264 83.523 55.3032 83.6372 55.3999 83.7333C55.4954 83.8311 55.6094 83.9088 55.7354 83.9618C55.8613 84.0148 55.9966 84.0422 56.1332 84.0422C56.2699 84.0422 56.4052 84.0148 56.5311 83.9618C56.657 83.9088 56.7711 83.8311 56.8666 83.7333C58.2364 82.3685 60.0912 81.6022 62.0249 81.6022C63.9586 81.6022 65.8134 82.3685 67.1832 83.7333C67.28 83.8303 67.3949 83.9073 67.5215 83.9598C67.6481 84.0123 67.7837 84.0393 67.9207 84.0393C68.0578 84.0393 68.1934 84.0123 68.32 83.9598C68.4465 83.9073 68.5615 83.8303 68.6582 83.7333C68.8477 83.5362 68.9535 83.2734 68.9535 83C68.9535 82.7266 68.8477 82.4638 68.6582 82.2666C66.899 80.5105 64.5148 79.5242 62.0291 79.5242C59.5433 79.5242 57.1591 80.5105 55.3999 82.2666Z" fill="#111111"/>
<path d="M71.0082 79.075C68.6252 76.6934 65.394 75.3556 62.0249 75.3556C58.6558 75.3556 55.4246 76.6934 53.0416 79.075C52.846 79.2717 52.7365 79.538 52.7373 79.8154C52.7381 80.0928 52.849 80.3585 53.0457 80.5541C53.2424 80.7497 53.5088 80.8592 53.7862 80.8584C54.0636 80.8576 54.3293 80.7467 54.5249 80.55C56.5196 78.5714 59.2154 77.4612 62.0249 77.4612C64.8345 77.4612 67.5302 78.5714 69.5249 80.55C69.7239 80.7268 69.983 80.8208 70.249 80.8126C70.5151 80.8044 70.7679 80.6947 70.9556 80.5059C71.1433 80.3172 71.2516 80.0637 71.2583 79.7976C71.265 79.5315 71.1696 79.2729 70.9916 79.075H71.0082Z" fill="#111111"/>
<path d="M64.0082 84C62.9363 83.6275 61.7813 83.5636 60.6749 83.8156C59.5684 84.0675 58.5549 84.6251 57.7499 85.425C57.558 85.6225 57.4506 85.8871 57.4506 86.1625C57.4506 86.4379 57.558 86.7024 57.7499 86.9C57.847 86.9979 57.9625 87.0756 58.0898 87.1285C58.2171 87.1814 58.3537 87.2085 58.4916 87.2083C58.6283 87.2093 58.7639 87.1825 58.8899 87.1295C59.016 87.0765 59.13 86.9984 59.2249 86.9C59.9439 86.1872 60.9087 85.777 61.9208 85.7537C62.933 85.7305 63.9156 86.0959 64.6666 86.775C64.7787 86.9031 64.9154 87.0074 65.0686 87.0818C65.2217 87.1563 65.3882 87.1993 65.5582 87.2083C65.764 87.2064 65.9646 87.1441 66.1353 87.0291C66.3059 86.9141 66.439 86.7515 66.518 86.5615C66.597 86.3716 66.6184 86.1626 66.5797 85.9605C66.5409 85.7584 66.4436 85.5722 66.2999 85.425C65.6545 84.7816 64.8707 84.2943 64.0082 84Z" fill="#111111"/>
<path d="M59.9416 90.5583C59.9416 91.1108 60.1611 91.6407 60.5518 92.0314C60.9425 92.4221 61.4724 92.6416 62.0249 92.6416C62.5774 92.6416 63.1073 92.4221 63.498 92.0314C63.8887 91.6407 64.1082 91.1108 64.1082 90.5583C64.1082 90.0058 63.8887 89.4759 63.498 89.0852C63.1073 88.6945 62.5774 88.475 62.0249 88.475C61.4724 88.475 60.9425 88.6945 60.5518 89.0852C60.1611 89.4759 59.9416 90.0058 59.9416 90.5583Z" fill="#111111"/>
<path d="M88.0799 81.92C87.9638 82.0352 87.8716 82.1723 87.8088 82.3233C87.7459 82.4744 87.7135 82.6364 87.7135 82.8C87.7135 82.9636 87.7459 83.1255 87.8088 83.2766C87.8716 83.4276 87.9638 83.5647 88.0799 83.68C88.1945 83.7973 88.3313 83.8905 88.4825 83.9542C88.6336 84.0178 88.7959 84.0506 88.9599 84.0506C89.1239 84.0506 89.2862 84.0178 89.4373 83.9542C89.5884 83.8905 89.7253 83.7973 89.8399 83.68C91.4837 82.0422 93.7095 81.1226 96.0299 81.1226C98.3503 81.1226 100.576 82.0422 102.22 83.68C102.336 83.7964 102.474 83.8887 102.626 83.9517C102.778 84.0148 102.94 84.0472 103.105 84.0472C103.269 84.0472 103.432 84.0148 103.584 83.9517C103.736 83.8887 103.874 83.7964 103.99 83.68C104.217 83.4434 104.344 83.128 104.344 82.8C104.344 82.4719 104.217 82.1565 103.99 81.92C101.879 79.8126 99.0178 78.629 96.0349 78.629C93.052 78.629 90.191 79.8126 88.0799 81.92Z" fill="#111111"/>
<path d="M106.81 78.09C103.95 75.2321 100.073 73.6267 96.0299 73.6267C91.987 73.6267 88.1095 75.2321 85.2499 78.09C85.0152 78.326 84.8838 78.6456 84.8848 78.9785C84.8857 79.3114 85.0188 79.6302 85.2549 79.865C85.4909 80.0997 85.8105 80.231 86.1434 80.2301C86.4763 80.2291 86.7952 80.096 87.0299 79.86C89.4235 77.4857 92.6584 76.1535 96.0299 76.1535C99.4013 76.1535 102.636 77.4857 105.03 79.86C105.269 80.0722 105.58 80.185 105.899 80.1751C106.218 80.1653 106.522 80.0336 106.747 79.8071C106.972 79.5806 107.102 79.2764 107.11 78.9571C107.118 78.6378 107.003 78.3275 106.79 78.09H106.81Z" fill="#111111"/>
<path d="M98.4099 84C97.1236 83.553 95.7376 83.4764 94.4098 83.7787C93.0821 84.081 91.8659 84.7502 90.8999 85.71C90.6696 85.947 90.5408 86.2645 90.5408 86.595C90.5408 86.9254 90.6696 87.2429 90.8999 87.48C91.0164 87.5975 91.155 87.6907 91.3078 87.7542C91.4606 87.8177 91.6244 87.8503 91.7899 87.85C91.954 87.8512 92.1166 87.819 92.2679 87.7554C92.4192 87.6918 92.556 87.5981 92.6699 87.48C93.5327 86.6246 94.6904 86.1323 95.905 86.1044C97.1196 86.0765 98.2987 86.5151 99.1999 87.33C99.3345 87.4837 99.4985 87.6089 99.6823 87.6982C99.866 87.7875 100.066 87.8391 100.27 87.85C100.517 87.8477 100.758 87.7729 100.962 87.6349C101.167 87.4969 101.327 87.3018 101.422 87.0739C101.516 86.8459 101.542 86.5951 101.496 86.3526C101.449 86.1101 101.332 85.8866 101.16 85.71C100.385 84.938 99.4448 84.3531 98.4099 84Z" fill="#111111"/>
<path d="M93.5299 91.87C93.5299 92.533 93.7933 93.1689 94.2621 93.6377C94.731 94.1066 95.3668 94.37 96.0299 94.37C96.6929 94.37 97.3288 94.1066 97.7977 93.6377C98.2665 93.1689 98.5299 92.533 98.5299 91.87C98.5299 91.2069 98.2665 90.571 97.7977 90.1022C97.3288 89.6333 96.6929 89.37 96.0299 89.37C95.3668 89.37 94.731 89.6333 94.2621 90.1022C93.7933 90.571 93.5299 91.2069 93.5299 91.87Z" fill="#111111"/>
<path d="M125.44 81.2266C125.286 81.3803 125.163 81.5631 125.079 81.7645C124.995 81.9658 124.952 82.1818 124.952 82.3999C124.952 82.6181 124.995 82.834 125.079 83.0354C125.163 83.2368 125.286 83.4196 125.44 83.5733C125.593 83.7297 125.776 83.854 125.977 83.9389C126.179 84.0237 126.395 84.0675 126.614 84.0675C126.832 84.0675 127.049 84.0237 127.25 83.9389C127.452 83.854 127.634 83.7297 127.787 83.5733C129.979 81.3896 132.946 80.1634 136.04 80.1634C139.134 80.1634 142.102 81.3896 144.294 83.5733C144.448 83.7285 144.632 83.8516 144.835 83.9356C145.037 84.0197 145.254 84.0629 145.474 84.0629C145.693 84.0629 145.91 84.0197 146.112 83.9356C146.315 83.8516 146.499 83.7285 146.654 83.5733C146.957 83.2579 147.126 82.8374 147.126 82.3999C147.126 81.9625 146.957 81.542 146.654 81.2266C143.839 78.4168 140.024 76.8387 136.047 76.8387C132.07 76.8387 128.255 78.4168 125.44 81.2266Z" fill="#111111"/>
<path d="M150.414 76.1199C146.601 72.3095 141.431 70.1689 136.04 70.1689C130.65 70.1689 125.48 72.3095 121.667 76.1199C121.354 76.4347 121.179 76.8608 121.18 77.3047C121.181 77.7485 121.359 78.1736 121.674 78.4866C121.988 78.7996 122.415 78.9747 122.858 78.9734C123.302 78.9722 123.727 78.7947 124.04 78.4799C127.232 75.3142 131.545 73.5379 136.04 73.5379C140.536 73.5379 144.849 75.3142 148.04 78.4799C148.359 78.7629 148.773 78.9133 149.199 78.9002C149.625 78.8871 150.029 78.7115 150.329 78.4095C150.63 78.1074 150.803 77.7019 150.814 77.2761C150.824 76.8504 150.672 76.4366 150.387 76.1199H150.414Z" fill="#111111"/>
<path d="M139.214 83.9999C137.499 83.404 135.651 83.3018 133.88 83.7049C132.11 84.108 130.488 85.0002 129.2 86.2799C128.893 86.596 128.721 87.0193 128.721 87.4599C128.721 87.9006 128.893 88.3239 129.2 88.6399C129.356 88.7966 129.541 88.9209 129.744 89.0056C129.948 89.0903 130.166 89.1337 130.387 89.1333C130.606 89.1349 130.823 89.092 131.024 89.0072C131.226 88.9224 131.408 88.7974 131.56 88.6399C132.711 87.4995 134.254 86.8431 135.874 86.8059C137.493 86.7687 139.065 87.3535 140.267 88.4399C140.446 88.6449 140.665 88.8119 140.91 88.9309C141.155 89.05 141.422 89.1188 141.694 89.1333C142.023 89.1302 142.344 89.0305 142.617 88.8465C142.89 88.6626 143.103 88.4024 143.229 88.0985C143.356 87.7945 143.39 87.4601 143.328 87.1368C143.266 86.8135 143.11 86.5155 142.88 86.2799C141.848 85.2506 140.594 84.4708 139.214 83.9999Z" fill="#111111"/>
<path d="M132.707 94.4933C132.707 95.3773 133.058 96.2252 133.683 96.8503C134.308 97.4754 135.156 97.8266 136.04 97.8266C136.924 97.8266 137.772 97.4754 138.397 96.8503C139.022 96.2252 139.374 95.3773 139.374 94.4933C139.374 93.6092 139.022 92.7614 138.397 92.1362C137.772 91.5111 136.924 91.1599 136.04 91.1599C135.156 91.1599 134.308 91.5111 133.683 92.1362C133.058 92.7614 132.707 93.6092 132.707 94.4933Z" fill="#111111"/>
<path d="M170.8 80.5333C170.607 80.7254 170.453 80.9538 170.348 81.2056C170.244 81.4573 170.19 81.7273 170.19 81.9999C170.19 82.2726 170.244 82.5426 170.348 82.7943C170.453 83.046 170.607 83.2745 170.8 83.4666C170.991 83.6621 171.219 83.8175 171.471 83.9236C171.723 84.0297 171.994 84.0843 172.267 84.0843C172.54 84.0843 172.811 84.0297 173.063 83.9236C173.315 83.8175 173.543 83.6621 173.734 83.4666C176.473 80.737 180.183 79.2043 184.05 79.2043C187.918 79.2043 191.627 80.737 194.367 83.4666C194.56 83.6606 194.79 83.8145 195.043 83.9196C195.297 84.0246 195.568 84.0786 195.842 84.0786C196.116 84.0786 196.387 84.0246 196.64 83.9196C196.894 83.8145 197.123 83.6606 197.317 83.4666C197.696 83.0723 197.907 82.5467 197.907 81.9999C197.907 81.4531 197.696 80.9275 197.317 80.5333C193.798 77.021 189.03 75.0483 184.059 75.0483C179.087 75.0483 174.319 77.021 170.8 80.5333Z" fill="#111111"/>
<path d="M202.017 74.1499C197.251 69.3868 190.788 66.7112 184.05 66.7112C177.312 66.7112 170.85 69.3868 166.084 74.1499C165.692 74.5433 165.474 75.076 165.475 75.6308C165.477 76.1856 165.699 76.7171 166.092 77.1083C166.485 77.4994 167.018 77.7183 167.573 77.7168C168.128 77.7152 168.659 77.4933 169.05 77.0999C173.04 73.1428 178.431 70.9224 184.05 70.9224C189.669 70.9224 195.061 73.1428 199.05 77.0999C199.448 77.4536 199.966 77.6416 200.499 77.6252C201.031 77.6088 201.536 77.3894 201.912 77.0118C202.287 76.6343 202.504 76.1274 202.517 75.5952C202.53 75.063 202.34 74.5458 201.984 74.1499H202.017Z" fill="#111111"/>
<path d="M188.017 83.9999C185.873 83.255 183.563 83.1273 181.35 83.6311C179.137 84.135 177.11 85.2503 175.5 86.8499C175.116 87.245 174.902 87.7741 174.902 88.3249C174.902 88.8757 175.116 89.4049 175.5 89.7999C175.694 89.9958 175.926 90.1511 176.18 90.257C176.435 90.3628 176.708 90.4171 176.984 90.4166C177.257 90.4186 177.528 90.365 177.78 90.259C178.032 90.153 178.26 89.9968 178.45 89.7999C179.888 88.3743 181.818 87.5539 183.842 87.5074C185.867 87.4609 187.832 88.1919 189.334 89.5499C189.558 89.8061 189.831 90.0148 190.138 90.1637C190.444 90.3125 190.777 90.3985 191.117 90.4166C191.528 90.4128 191.93 90.2881 192.271 90.0582C192.612 89.8282 192.878 89.503 193.036 89.1231C193.194 88.7431 193.237 88.3251 193.16 87.921C193.082 87.5169 192.888 87.1444 192.6 86.8499C191.309 85.5633 189.742 84.5885 188.017 83.9999Z" fill="#111111"/>
<path d="M179.884 97.1166C179.884 98.2217 180.323 99.2815 181.104 100.063C181.885 100.844 182.945 101.283 184.05 101.283C185.155 101.283 186.215 100.844 186.997 100.063C187.778 99.2815 188.217 98.2217 188.217 97.1166C188.217 96.0115 187.778 94.9517 186.997 94.1703C186.215 93.3889 185.155 92.9499 184.05 92.9499C182.945 92.9499 181.885 93.3889 181.104 94.1703C180.323 94.9517 179.884 96.0115 179.884 97.1166Z" fill="#111111"/>
<path d="M224.16 79.8399C223.928 80.0704 223.744 80.3446 223.618 80.6467C223.492 80.9487 223.427 81.2727 223.427 81.5999C223.427 81.9271 223.492 82.2511 223.618 82.5531C223.744 82.8552 223.928 83.1294 224.16 83.3599C224.389 83.5945 224.663 83.781 224.965 83.9083C225.268 84.0356 225.592 84.1012 225.92 84.1012C226.248 84.1012 226.573 84.0356 226.875 83.9083C227.177 83.781 227.451 83.5945 227.68 83.3599C230.968 80.0844 235.419 78.2452 240.06 78.2452C244.701 78.2452 249.153 80.0844 252.44 83.3599C252.672 83.5927 252.948 83.7774 253.252 83.9035C253.556 84.0295 253.881 84.0944 254.21 84.0944C254.539 84.0944 254.865 84.0295 255.168 83.9035C255.472 83.7774 255.748 83.5927 255.98 83.3599C256.435 82.8868 256.689 82.2561 256.689 81.5999C256.689 80.9437 256.435 80.313 255.98 79.8399C251.758 75.6252 246.036 73.258 240.07 73.258C234.104 73.258 228.382 75.6252 224.16 79.8399Z" fill="#111111"/>
<path d="M261.62 72.1799C255.901 66.4642 248.146 63.2534 240.06 63.2534C231.974 63.2534 224.22 66.4642 218.5 72.1799C218.031 72.652 217.768 73.2912 217.77 73.957C217.772 74.6227 218.038 75.2605 218.51 75.7299C218.982 76.1993 219.622 76.462 220.287 76.4601C220.953 76.4583 221.591 76.192 222.06 75.7199C226.848 70.9714 233.317 68.3069 240.06 68.3069C246.803 68.3069 253.273 70.9714 258.06 75.7199C258.538 76.1444 259.16 76.3699 259.798 76.3503C260.437 76.3306 261.044 76.0672 261.494 75.6142C261.944 75.1612 262.204 74.5529 262.22 73.9142C262.236 73.2755 262.007 72.655 261.58 72.1799H261.62Z" fill="#111111"/>
<path d="M244.82 83.9999C242.248 83.1061 239.476 82.9527 236.82 83.5574C234.165 84.162 231.732 85.5004 229.8 87.4199C229.34 87.894 229.082 88.5289 229.082 89.1899C229.082 89.8509 229.34 90.4858 229.8 90.9599C230.033 91.1949 230.311 91.3813 230.616 91.5084C230.922 91.6354 231.249 91.7005 231.58 91.6999C231.908 91.7024 232.234 91.638 232.536 91.5108C232.839 91.3836 233.112 91.1962 233.34 90.9599C235.066 89.2492 237.381 88.2647 239.811 88.2089C242.24 88.1531 244.598 89.0302 246.4 90.6599C246.669 90.9674 246.997 91.2178 247.365 91.3964C247.733 91.575 248.132 91.6782 248.54 91.6999C249.034 91.6953 249.516 91.5457 249.925 91.2698C250.335 90.9938 250.654 90.6036 250.844 90.1477C251.033 89.6918 251.085 89.1902 250.992 88.7052C250.899 88.2202 250.665 87.7733 250.32 87.4199C248.771 85.876 246.89 84.7062 244.82 83.9999Z" fill="#111111"/>
<path d="M235.06 99.7399C235.06 101.066 235.587 102.338 236.525 103.275C237.462 104.213 238.734 104.74 240.06 104.74C241.386 104.74 242.658 104.213 243.596 103.275C244.533 102.338 245.06 101.066 245.06 99.7399C245.06 98.4138 244.533 97.1421 243.596 96.2044C242.658 95.2667 241.386 94.7399 240.06 94.7399C238.734 94.7399 237.462 95.2667 236.525 96.2044C235.587 97.1421 235.06 98.4138 235.06 99.7399Z" fill="#111111"/>
</g>
<defs>
<clipPath id="clip0_7887_210">
<rect width="264" height="108" rx="5" fill="white"/>
</clipPath>
<clipPath id="clip1_7887_210">
<rect width="12" height="12" fill="white" transform="translate(0 18)"/>
</clipPath>
<clipPath id="clip2_7887_210">
<rect width="12" height="12" fill="white" transform="translate(0 78)"/>
</clipPath>
</defs>
</svg>
