<svg width="264" height="108" viewBox="0 0 264 108" fill="none" xmlns="http://www.w3.org/2000/svg">
<g id="Add (square)" clip-path="url(#clip0_1110_1316)">
<g id="Size=12px, Filled=false">
<path id="Vector" d="M6 21.75V26.25M3.75 24H8.25M2.75 29.25H9.25C10.3546 29.25 11.25 28.3546 11.25 27.25V20.75C11.25 19.6454 10.3546 18.75 9.25 18.75H2.75C1.64543 18.75 0.75 19.6454 0.75 20.75V27.25C0.75 28.3546 1.64543 29.25 2.75 29.25Z" stroke="#111111" stroke-width="0.75" stroke-linecap="round" stroke-linejoin="round"/>
</g>
<g id="Size=16px, Filled=false">
<path id="Vector_2" d="M32 21V27M29 24H35M28 31H36C37.6569 31 39 29.6569 39 28V20C39 18.3431 37.6569 17 36 17H28C26.3431 17 25 18.3431 25 20V28C25 29.6569 26.3431 31 28 31Z" stroke="#111111" stroke-linecap="round" stroke-linejoin="round"/>
</g>
<g id="Size=20px, Filled=false">
<path id="Vector_3" d="M61.9999 20.6666V27.3333M58.6666 24H65.3333M55.8333 33.1667H68.1666C69.8234 33.1667 71.1666 31.8236 71.1666 30.1667V17.8334C71.1666 16.1765 69.8234 14.8334 68.1666 14.8334H55.8333C54.1764 14.8334 52.8333 16.1765 52.8333 17.8334V30.1667C52.8333 31.8236 54.1764 33.1667 55.8333 33.1667Z" stroke="#111111" stroke-width="1.25" stroke-linecap="round" stroke-linejoin="round"/>
</g>
<g id="Size=24px, Filled=false">
<path id="Vector_4" d="M96 20V28M92 24H100M88 35H104C105.657 35 107 33.6569 107 32V16C107 14.3431 105.657 13 104 13H88C86.3431 13 85 14.3431 85 16V32C85 33.6569 86.3431 35 88 35Z" stroke="#111111" stroke-width="1.5" stroke-linecap="round" stroke-linejoin="round"/>
</g>
<g id="Size=32px, Filled=false">
<path id="Vector_5" d="M136 18.6666V29.3333M130.667 24H141.333M124.333 38.6667H147.667C149.323 38.6667 150.667 37.3236 150.667 35.6667V12.3334C150.667 10.6765 149.323 9.33337 147.667 9.33337H124.333C122.676 9.33337 121.333 10.6765 121.333 12.3334V35.6667C121.333 37.3236 122.676 38.6667 124.333 38.6667Z" stroke="#111111" stroke-width="2" stroke-linecap="round" stroke-linejoin="round"/>
</g>
<g id="Size=40px, Filled=false">
<path id="Vector_6" d="M184 17.3334V30.6667M177.333 24H190.667M168.667 42.3333H199.333C200.99 42.3333 202.333 40.9901 202.333 39.3333V8.66663C202.333 7.00977 200.99 5.66663 199.333 5.66663H168.667C167.01 5.66663 165.667 7.00978 165.667 8.66663V39.3333C165.667 40.9901 167.01 42.3333 168.667 42.3333Z" stroke="#111111" stroke-width="2.5" stroke-linecap="round" stroke-linejoin="round"/>
</g>
<g id="Size=48px, Filled=false">
<path id="Vector_7" d="M240 16V32M232 24H248M221 46H259C260.657 46 262 44.6569 262 43V5C262 3.34315 260.657 2 259 2H221C219.343 2 218 3.34315 218 5V43C218 44.6569 219.343 46 221 46Z" stroke="#111111" stroke-width="3" stroke-linecap="round" stroke-linejoin="round"/>
</g>
<g id="Size=12px, Filled=true" clip-path="url(#clip1_1110_1316)">
<path id="Vector_8" d="M12 78.785C12 78.6819 11.9797 78.5798 11.9402 78.4846C11.9008 78.3894 11.843 78.3028 11.7701 78.2299C11.6972 78.157 11.6106 78.0992 11.5154 78.0598C11.4202 78.0203 11.3181 78 11.215 78H0.785C0.576805 78 0.377137 78.0827 0.229921 78.2299C0.0827051 78.3771 0 78.5768 0 78.785L0 89.215C0 89.3181 0.0203046 89.4202 0.0597546 89.5154C0.0992045 89.6106 0.157027 89.6972 0.229921 89.7701C0.302815 89.843 0.389353 89.9008 0.484594 89.9402C0.579834 89.9797 0.681912 90 0.785 90H11.215C11.3181 90 11.4202 89.9797 11.5154 89.9402C11.6106 89.9008 11.6972 89.843 11.7701 89.7701C11.843 89.6972 11.9008 89.6106 11.9402 89.5154C11.9797 89.4202 12 89.3181 12 89.215V78.785ZM3 84.5C2.86739 84.5 2.74021 84.4473 2.64645 84.3536C2.55268 84.2598 2.5 84.1326 2.5 84C2.5 83.8674 2.55268 83.7402 2.64645 83.6464C2.74021 83.5527 2.86739 83.5 3 83.5H5.375C5.40815 83.5 5.43995 83.4868 5.46339 83.4634C5.48683 83.4399 5.5 83.4082 5.5 83.375V81C5.5 80.8674 5.55268 80.7402 5.64645 80.6464C5.74021 80.5527 5.86739 80.5 6 80.5C6.13261 80.5 6.25979 80.5527 6.35355 80.6464C6.44732 80.7402 6.5 80.8674 6.5 81V83.375C6.5 83.4082 6.51317 83.4399 6.53661 83.4634C6.56005 83.4868 6.59185 83.5 6.625 83.5H9C9.13261 83.5 9.25979 83.5527 9.35355 83.6464C9.44732 83.7402 9.5 83.8674 9.5 84C9.5 84.1326 9.44732 84.2598 9.35355 84.3536C9.25979 84.4473 9.13261 84.5 9 84.5H6.625C6.59185 84.5 6.56005 84.5132 6.53661 84.5366C6.51317 84.5601 6.5 84.5918 6.5 84.625V87C6.5 87.1326 6.44732 87.2598 6.35355 87.3536C6.25979 87.4473 6.13261 87.5 6 87.5C5.86739 87.5 5.74021 87.4473 5.64645 87.3536C5.55268 87.2598 5.5 87.1326 5.5 87V84.625C5.5 84.5918 5.48683 84.5601 5.46339 84.5366C5.43995 84.5132 5.40815 84.5 5.375 84.5H3Z" fill="#111111"/>
</g>
<g id="Size=16px, Filled=true">
<g clip-path="url(#clip2_1110_1316)">
<path id="Vector_9" d="M40 77.0467C40 76.9092 39.9729 76.7731 39.9203 76.6461C39.8677 76.5191 39.7906 76.4038 39.6934 76.3066C39.5962 76.2094 39.4809 76.1323 39.3539 76.0797C39.2269 76.0271 39.0908 76 38.9533 76H25.0467C24.7691 76 24.5028 76.1103 24.3066 76.3066C24.1103 76.5028 24 76.7691 24 77.0467V90.9533C24 91.0908 24.0271 91.2269 24.0797 91.3539C24.1323 91.4809 24.2094 91.5962 24.3066 91.6934C24.4038 91.7906 24.5191 91.8677 24.6461 91.9203C24.7731 91.9729 24.9092 92 25.0467 92H38.9533C39.0908 92 39.2269 91.9729 39.3539 91.9203C39.4809 91.8677 39.5962 91.7906 39.6934 91.6934C39.7906 91.5962 39.8677 91.4809 39.9203 91.3539C39.9729 91.2269 40 91.0908 40 90.9533V77.0467ZM28 84.6667C27.8232 84.6667 27.6536 84.5964 27.5286 84.4714C27.4036 84.3464 27.3333 84.1768 27.3333 84C27.3333 83.8232 27.4036 83.6536 27.5286 83.5286C27.6536 83.4036 27.8232 83.3333 28 83.3333H31.1667C31.2109 83.3333 31.2533 83.3158 31.2845 83.2845C31.3158 83.2533 31.3333 83.2109 31.3333 83.1667V80C31.3333 79.8232 31.4036 79.6536 31.5286 79.5286C31.6536 79.4036 31.8232 79.3333 32 79.3333C32.1768 79.3333 32.3464 79.4036 32.4714 79.5286C32.5964 79.6536 32.6667 79.8232 32.6667 80V83.1667C32.6667 83.2109 32.6842 83.2533 32.7155 83.2845C32.7467 83.3158 32.7891 83.3333 32.8333 83.3333H36C36.1768 83.3333 36.3464 83.4036 36.4714 83.5286C36.5964 83.6536 36.6667 83.8232 36.6667 84C36.6667 84.1768 36.5964 84.3464 36.4714 84.4714C36.3464 84.5964 36.1768 84.6667 36 84.6667H32.8333C32.7891 84.6667 32.7467 84.6842 32.7155 84.7155C32.6842 84.7467 32.6667 84.7891 32.6667 84.8333V88C32.6667 88.1768 32.5964 88.3464 32.4714 88.4714C32.3464 88.5964 32.1768 88.6667 32 88.6667C31.8232 88.6667 31.6536 88.5964 31.5286 88.4714C31.4036 88.3464 31.3333 88.1768 31.3333 88V84.8333C31.3333 84.7891 31.3158 84.7467 31.2845 84.7155C31.2533 84.6842 31.2109 84.6667 31.1667 84.6667H28Z" fill="#111111"/>
</g>
</g>
<g id="Size=20px, Filled=true">
<g clip-path="url(#clip3_1110_1316)">
<path id="Vector_10" d="M72 75.3083C72 75.1365 71.9662 74.9664 71.9004 74.8077C71.8347 74.6489 71.7383 74.5047 71.6168 74.3832C71.4953 74.2617 71.3511 74.1653 71.1923 74.0996C71.0336 74.0338 70.8635 74 70.6917 74H53.3083C52.9613 74 52.6286 74.1378 52.3832 74.3832C52.1378 74.6286 52 74.9613 52 75.3083V92.6917C52 92.8635 52.0338 93.0336 52.0996 93.1923C52.1653 93.3511 52.2617 93.4953 52.3832 93.6168C52.5047 93.7383 52.6489 93.8347 52.8077 93.9004C52.9664 93.9662 53.1365 94 53.3083 94H70.6917C70.8635 94 71.0336 93.9662 71.1923 93.9004C71.3511 93.8347 71.4953 93.7383 71.6168 93.6168C71.7383 93.4953 71.8347 93.3511 71.9004 93.1923C71.9662 93.0336 72 92.8635 72 92.6917V75.3083ZM57 84.8333C56.779 84.8333 56.567 84.7455 56.4107 84.5893C56.2545 84.433 56.1667 84.221 56.1667 84C56.1667 83.779 56.2545 83.567 56.4107 83.4107C56.567 83.2545 56.779 83.1667 57 83.1667H60.9583C61.0136 83.1667 61.0666 83.1447 61.1056 83.1056C61.1447 83.0666 61.1667 83.0136 61.1667 82.9583V79C61.1667 78.779 61.2545 78.567 61.4107 78.4107C61.567 78.2545 61.779 78.1667 62 78.1667C62.221 78.1667 62.433 78.2545 62.5893 78.4107C62.7455 78.567 62.8333 78.779 62.8333 79V82.9583C62.8333 83.0136 62.8553 83.0666 62.8944 83.1056C62.9334 83.1447 62.9864 83.1667 63.0417 83.1667H67C67.221 83.1667 67.433 83.2545 67.5893 83.4107C67.7455 83.567 67.8333 83.779 67.8333 84C67.8333 84.221 67.7455 84.433 67.5893 84.5893C67.433 84.7455 67.221 84.8333 67 84.8333H63.0417C62.9864 84.8333 62.9334 84.8553 62.8944 84.8944C62.8553 84.9334 62.8333 84.9864 62.8333 85.0417V89C62.8333 89.221 62.7455 89.433 62.5893 89.5893C62.433 89.7455 62.221 89.8333 62 89.8333C61.779 89.8333 61.567 89.7455 61.4107 89.5893C61.2545 89.433 61.1667 89.221 61.1667 89V85.0417C61.1667 84.9864 61.1447 84.9334 61.1056 84.8944C61.0666 84.8553 61.0136 84.8333 60.9583 84.8333H57Z" fill="#111111"/>
</g>
</g>
<g id="Size=24px, Filled=true">
<g clip-path="url(#clip4_1110_1316)">
<path id="Vector_11" d="M108 73.57C108 73.3638 107.959 73.1597 107.88 72.9692C107.802 72.7787 107.686 72.6056 107.54 72.4598C107.394 72.3141 107.221 72.1984 107.031 72.1195C106.84 72.0406 106.636 72 106.43 72H85.57C85.1536 72 84.7543 72.1654 84.4598 72.4598C84.1654 72.7543 84 73.1536 84 73.57V94.43C84 94.6362 84.0406 94.8403 84.1195 95.0308C84.1984 95.2213 84.3141 95.3944 84.4598 95.5402C84.6056 95.6859 84.7787 95.8016 84.9692 95.8805C85.1597 95.9594 85.3638 96 85.57 96H106.43C106.636 96 106.84 95.9594 107.031 95.8805C107.221 95.8016 107.394 95.6859 107.54 95.5402C107.686 95.3944 107.802 95.2213 107.88 95.0308C107.959 94.8403 108 94.6362 108 94.43V73.57ZM90 85C89.7348 85 89.4804 84.8946 89.2929 84.7071C89.1054 84.5196 89 84.2652 89 84C89 83.7348 89.1054 83.4804 89.2929 83.2929C89.4804 83.1054 89.7348 83 90 83H94.75C94.8163 83 94.8799 82.9737 94.9268 82.9268C94.9737 82.8799 95 82.8163 95 82.75V78C95 77.7348 95.1054 77.4804 95.2929 77.2929C95.4804 77.1054 95.7348 77 96 77C96.2652 77 96.5196 77.1054 96.7071 77.2929C96.8946 77.4804 97 77.7348 97 78V82.75C97 82.8163 97.0263 82.8799 97.0732 82.9268C97.1201 82.9737 97.1837 83 97.25 83H102C102.265 83 102.52 83.1054 102.707 83.2929C102.895 83.4804 103 83.7348 103 84C103 84.2652 102.895 84.5196 102.707 84.7071C102.52 84.8946 102.265 85 102 85H97.25C97.1837 85 97.1201 85.0263 97.0732 85.0732C97.0263 85.1201 97 85.1837 97 85.25V90C97 90.2652 96.8946 90.5196 96.7071 90.7071C96.5196 90.8946 96.2652 91 96 91C95.7348 91 95.4804 90.8946 95.2929 90.7071C95.1054 90.5196 95 90.2652 95 90V85.25C95 85.1837 94.9737 85.1201 94.9268 85.0732C94.8799 85.0263 94.8163 85 94.75 85H90Z" fill="#111111"/>
</g>
</g>
<g id="Size=32px, Filled=true">
<g clip-path="url(#clip5_1110_1316)">
<path id="Vector_12" d="M152 70.0933C152 69.8184 151.946 69.5462 151.841 69.2922C151.735 69.0383 151.581 68.8075 151.387 68.6131C151.192 68.4187 150.962 68.2645 150.708 68.1593C150.454 68.0541 150.182 68 149.907 68H122.093C121.538 68 121.006 68.2205 120.613 68.6131C120.221 69.0057 120 69.5381 120 70.0933V97.9067C120 98.1816 120.054 98.4538 120.159 98.7078C120.265 98.9617 120.419 99.1925 120.613 99.3869C120.808 99.5813 121.038 99.7355 121.292 99.8407C121.546 99.9459 121.818 100 122.093 100H149.907C150.182 100 150.454 99.9459 150.708 99.8407C150.962 99.7355 151.192 99.5813 151.387 99.3869C151.581 99.1925 151.735 98.9617 151.841 98.7078C151.946 98.4538 152 98.1816 152 97.9067V70.0933ZM128 85.3333C127.646 85.3333 127.307 85.1929 127.057 84.9428C126.807 84.6928 126.667 84.3536 126.667 84C126.667 83.6464 126.807 83.3072 127.057 83.0572C127.307 82.8071 127.646 82.6667 128 82.6667H134.333C134.422 82.6667 134.507 82.6315 134.569 82.569C134.632 82.5065 134.667 82.4217 134.667 82.3333V76C134.667 75.6464 134.807 75.3072 135.057 75.0572C135.307 74.8071 135.646 74.6667 136 74.6667C136.354 74.6667 136.693 74.8071 136.943 75.0572C137.193 75.3072 137.333 75.6464 137.333 76V82.3333C137.333 82.4217 137.368 82.5065 137.431 82.569C137.493 82.6315 137.578 82.6667 137.667 82.6667H144C144.354 82.6667 144.693 82.8071 144.943 83.0572C145.193 83.3072 145.333 83.6464 145.333 84C145.333 84.3536 145.193 84.6928 144.943 84.9428C144.693 85.1929 144.354 85.3333 144 85.3333H137.667C137.578 85.3333 137.493 85.3685 137.431 85.431C137.368 85.4935 137.333 85.5783 137.333 85.6667V92C137.333 92.3536 137.193 92.6928 136.943 92.9428C136.693 93.1929 136.354 93.3333 136 93.3333C135.646 93.3333 135.307 93.1929 135.057 92.9428C134.807 92.6928 134.667 92.3536 134.667 92V85.6667C134.667 85.5783 134.632 85.4935 134.569 85.431C134.507 85.3685 134.422 85.3333 134.333 85.3333H128Z" fill="#111111"/>
</g>
</g>
<g id="Size=40px, Filled=true">
<g clip-path="url(#clip6_1110_1316)">
<path id="Vector_13" d="M204 66.6167C204 66.273 203.932 65.9328 203.801 65.6153C203.669 65.2978 203.477 65.0094 203.234 64.7664C202.991 64.5234 202.702 64.3307 202.385 64.1992C202.067 64.0677 201.727 64 201.383 64H166.617C165.923 64 165.257 64.2757 164.766 64.7664C164.276 65.2571 164 65.9227 164 66.6167V101.383C164 101.727 164.068 102.067 164.199 102.385C164.331 102.702 164.523 102.991 164.766 103.234C165.009 103.477 165.298 103.669 165.615 103.801C165.933 103.932 166.273 104 166.617 104H201.383C201.727 104 202.067 103.932 202.385 103.801C202.702 103.669 202.991 103.477 203.234 103.234C203.477 102.991 203.669 102.702 203.801 102.385C203.932 102.067 204 101.727 204 101.383V66.6167ZM174 85.6667C173.558 85.6667 173.134 85.4911 172.821 85.1785C172.509 84.8659 172.333 84.442 172.333 84C172.333 83.558 172.509 83.134 172.821 82.8215C173.134 82.5089 173.558 82.3333 174 82.3333H181.917C182.027 82.3333 182.133 82.2894 182.211 82.2113C182.289 82.1332 182.333 82.0272 182.333 81.9167V74C182.333 73.558 182.509 73.134 182.821 72.8215C183.134 72.5089 183.558 72.3333 184 72.3333C184.442 72.3333 184.866 72.5089 185.179 72.8215C185.491 73.134 185.667 73.558 185.667 74V81.9167C185.667 82.0272 185.711 82.1332 185.789 82.2113C185.867 82.2894 185.973 82.3333 186.083 82.3333H194C194.442 82.3333 194.866 82.5089 195.179 82.8215C195.491 83.134 195.667 83.558 195.667 84C195.667 84.442 195.491 84.8659 195.179 85.1785C194.866 85.4911 194.442 85.6667 194 85.6667H186.083C185.973 85.6667 185.867 85.7106 185.789 85.7887C185.711 85.8668 185.667 85.9728 185.667 86.0833V94C185.667 94.442 185.491 94.866 185.179 95.1785C184.866 95.4911 184.442 95.6667 184 95.6667C183.558 95.6667 183.134 95.4911 182.821 95.1785C182.509 94.866 182.333 94.442 182.333 94V86.0833C182.333 85.9728 182.289 85.8668 182.211 85.7887C182.133 85.7106 182.027 85.6667 181.917 85.6667H174Z" fill="#111111"/>
</g>
</g>
<g id="Size=48px, Filled=true">
<g clip-path="url(#clip7_1110_1316)">
<path id="Vector_14" d="M264 63.14C264 62.7276 263.919 62.3193 263.761 61.9384C263.603 61.5574 263.372 61.2113 263.08 60.9197C262.789 60.6281 262.443 60.3968 262.062 60.239C261.681 60.0812 261.272 60 260.86 60H219.14C218.307 60 217.509 60.3308 216.92 60.9197C216.331 61.5085 216 62.3072 216 63.14V104.86C216 105.272 216.081 105.681 216.239 106.062C216.397 106.443 216.628 106.789 216.92 107.08C217.211 107.372 217.557 107.603 217.938 107.761C218.319 107.919 218.728 108 219.14 108H260.86C261.272 108 261.681 107.919 262.062 107.761C262.443 107.603 262.789 107.372 263.08 107.08C263.372 106.789 263.603 106.443 263.761 106.062C263.919 105.681 264 105.272 264 104.86V63.14ZM228 86C227.47 86 226.961 85.7893 226.586 85.4142C226.211 85.0391 226 84.5304 226 84C226 83.4696 226.211 82.9609 226.586 82.5858C226.961 82.2107 227.47 82 228 82H237.5C237.633 82 237.76 81.9473 237.854 81.8536C237.947 81.7598 238 81.6326 238 81.5V72C238 71.4696 238.211 70.9609 238.586 70.5858C238.961 70.2107 239.47 70 240 70C240.53 70 241.039 70.2107 241.414 70.5858C241.789 70.9609 242 71.4696 242 72V81.5C242 81.6326 242.053 81.7598 242.146 81.8536C242.24 81.9473 242.367 82 242.5 82H252C252.53 82 253.039 82.2107 253.414 82.5858C253.789 82.9609 254 83.4696 254 84C254 84.5304 253.789 85.0391 253.414 85.4142C253.039 85.7893 252.53 86 252 86H242.5C242.367 86 242.24 86.0527 242.146 86.1464C242.053 86.2402 242 86.3674 242 86.5V96C242 96.5304 241.789 97.0391 241.414 97.4142C241.039 97.7893 240.53 98 240 98C239.47 98 238.961 97.7893 238.586 97.4142C238.211 97.0391 238 96.5304 238 96V86.5C238 86.3674 237.947 86.2402 237.854 86.1464C237.76 86.0527 237.633 86 237.5 86H228Z" fill="#111111"/>
</g>
</g>
</g>
<defs>
<clipPath id="clip0_1110_1316">
<rect width="264" height="108" fill="white"/>
</clipPath>
<clipPath id="clip1_1110_1316">
<rect width="12" height="12" fill="white" transform="translate(0 78)"/>
</clipPath>
<clipPath id="clip2_1110_1316">
<rect x="24" y="76" width="16" height="16" fill="white"/>
</clipPath>
<clipPath id="clip3_1110_1316">
<rect x="52" y="74" width="20" height="20" rx="2" fill="white"/>
</clipPath>
<clipPath id="clip4_1110_1316">
<rect x="84" y="72" width="24" height="24" rx="2" fill="white"/>
</clipPath>
<clipPath id="clip5_1110_1316">
<rect x="120" y="68" width="32" height="32" rx="4" fill="white"/>
</clipPath>
<clipPath id="clip6_1110_1316">
<rect x="164" y="64" width="40" height="40" rx="4" fill="white"/>
</clipPath>
<clipPath id="clip7_1110_1316">
<rect x="216" y="60" width="48" height="48" rx="4" fill="white"/>
</clipPath>
</defs>
</svg>
