<svg width="264" height="108" viewBox="0 0 264 108" fill="none" xmlns="http://www.w3.org/2000/svg">
<g id="Add (circle)">
<g clip-path="url(#clip0_1118_338)">
<g id="Size=12px, Filled=false">
<path id="Vector" d="M6 21.75V26.25M3.75 24H8.25M6 29.25C8.8995 29.25 11.25 26.8995 11.25 24C11.25 21.1005 8.8995 18.75 6 18.75C3.10051 18.75 0.75 21.1005 0.75 24C0.75 26.8995 3.10051 29.25 6 29.25Z" stroke="#111111" stroke-width="0.75" stroke-linecap="round" stroke-linejoin="round"/>
</g>
<g id="Size=16px, Filled=false">
<path id="Vector_2" d="M32 21V27M29 24H35M32 31C35.866 31 39 27.866 39 24C39 20.134 35.866 17 32 17C28.134 17 25 20.134 25 24C25 27.866 28.134 31 32 31Z" stroke="#111111" stroke-linecap="round" stroke-linejoin="round"/>
</g>
<g id="Size=20px, Filled=false">
<path id="Vector_3" d="M62 20.25V27.75M58.25 24H65.75M62 32.75C66.8325 32.75 70.75 28.8325 70.75 24C70.75 19.1675 66.8325 15.25 62 15.25C57.1675 15.25 53.25 19.1675 53.25 24C53.25 28.8325 57.1675 32.75 62 32.75Z" stroke="#111111" stroke-width="1.25" stroke-linecap="round" stroke-linejoin="round"/>
</g>
<g id="Size=24px, Filled=false">
<path id="Vector_4" d="M96 20V28M92 24H100M96 35C102.075 35 107 30.0751 107 24C107 17.9249 102.075 13 96 13C89.9249 13 85 17.9249 85 24C85 30.0751 89.9249 35 96 35Z" stroke="#111111" stroke-width="1.5" stroke-linecap="round" stroke-linejoin="round"/>
</g>
<g id="Size=32px, Filled=false">
<path id="Vector_5" d="M136 18V30M130 24H142M136 38C143.732 38 150 31.732 150 24C150 16.268 143.732 10 136 10C128.268 10 122 16.268 122 24C122 31.732 128.268 38 136 38Z" stroke="#111111" stroke-width="2" stroke-linecap="round" stroke-linejoin="round"/>
</g>
<g id="Size=40px, Filled=false">
<path id="Vector_6" d="M184 16.5V31.5M176.5 24H191.5M184 41.5C193.665 41.5 201.5 33.665 201.5 24C201.5 14.335 193.665 6.5 184 6.5C174.335 6.5 166.5 14.335 166.5 24C166.5 33.665 174.335 41.5 184 41.5Z" stroke="#111111" stroke-width="2.5" stroke-linecap="round" stroke-linejoin="round"/>
</g>
<g id="Size=48px, Filled=false">
<path id="Vector_7" d="M240 15V33M231 24H249M240 45C251.598 45 261 35.598 261 24C261 12.402 251.598 3 240 3C228.402 3 219 12.402 219 24C219 35.598 228.402 45 240 45Z" stroke="#111111" stroke-width="3" stroke-linecap="round" stroke-linejoin="round"/>
</g>
<g id="Size=12px, Filled=true" clip-path="url(#clip1_1118_338)">
<path id="Vector_8" d="M6 90C7.18669 90 8.34673 89.6481 9.33342 88.9888C10.3201 88.3295 11.0892 87.3925 11.5433 86.2961C11.9974 85.1997 12.1162 83.9933 11.8847 82.8295C11.6532 81.6656 11.0818 80.5965 10.2426 79.7574C9.40353 78.9182 8.33443 78.3468 7.17054 78.1153C6.00666 77.8838 4.80026 78.0026 3.7039 78.4567C2.60754 78.9108 1.67047 79.6799 1.01118 80.6666C0.351894 81.6533 0 82.8133 0 84C0 85.5913 0.632141 87.1174 1.75736 88.2426C2.88258 89.3679 4.4087 90 6 90ZM3 83.5H5.375C5.40815 83.5 5.43995 83.4868 5.46339 83.4634C5.48683 83.4399 5.5 83.4081 5.5 83.375V81C5.5 80.8674 5.55268 80.7402 5.64645 80.6464C5.74021 80.5527 5.86739 80.5 6 80.5C6.13261 80.5 6.25979 80.5527 6.35355 80.6464C6.44732 80.7402 6.5 80.8674 6.5 81V83.375C6.5 83.4081 6.51317 83.4399 6.53661 83.4634C6.56005 83.4868 6.59185 83.5 6.625 83.5H9C9.13261 83.5 9.25979 83.5527 9.35355 83.6464C9.44732 83.7402 9.5 83.8674 9.5 84C9.5 84.1326 9.44732 84.2598 9.35355 84.3535C9.25979 84.4473 9.13261 84.5 9 84.5H6.625C6.59185 84.5 6.56005 84.5132 6.53661 84.5366C6.51317 84.56 6.5 84.5918 6.5 84.625V87C6.5 87.1326 6.44732 87.2598 6.35355 87.3535C6.25979 87.4473 6.13261 87.5 6 87.5C5.86739 87.5 5.74021 87.4473 5.64645 87.3535C5.55268 87.2598 5.5 87.1326 5.5 87V84.625C5.5 84.5918 5.48683 84.56 5.46339 84.5366C5.43995 84.5132 5.40815 84.5 5.375 84.5H3C2.86739 84.5 2.74021 84.4473 2.64645 84.3535C2.55268 84.2598 2.5 84.1326 2.5 84C2.5 83.8674 2.55268 83.7402 2.64645 83.6464C2.74021 83.5527 2.86739 83.5 3 83.5Z" fill="#111111"/>
</g>
<g id="Size=16px, Filled=true" clip-path="url(#clip2_1118_338)">
<path id="Vector_9" d="M32 92C33.5822 92 35.129 91.5308 36.4446 90.6518C37.7602 89.7727 38.7855 88.5233 39.391 87.0615C39.9965 85.5997 40.155 83.9911 39.8463 82.4393C39.5376 80.8874 38.7757 79.462 37.6569 78.3431C36.538 77.2243 35.1126 76.4624 33.5607 76.1537C32.0089 75.845 30.4003 76.0035 28.9385 76.609C27.4767 77.2145 26.2273 78.2398 25.3482 79.5554C24.4692 80.871 24 82.4177 24 84C24 86.1217 24.8429 88.1566 26.3431 89.6569C27.8434 91.1571 29.8783 92 32 92ZM28 83.3333H31.1667C31.2109 83.3333 31.2533 83.3158 31.2845 83.2845C31.3158 83.2533 31.3333 83.2109 31.3333 83.1667V80C31.3333 79.8232 31.4036 79.6536 31.5286 79.5286C31.6536 79.4036 31.8232 79.3333 32 79.3333C32.1768 79.3333 32.3464 79.4036 32.4714 79.5286C32.5964 79.6536 32.6667 79.8232 32.6667 80V83.1667C32.6667 83.2109 32.6842 83.2533 32.7155 83.2845C32.7467 83.3158 32.7891 83.3333 32.8333 83.3333H36C36.1768 83.3333 36.3464 83.4036 36.4714 83.5286C36.5964 83.6536 36.6667 83.8232 36.6667 84C36.6667 84.1768 36.5964 84.3464 36.4714 84.4714C36.3464 84.5964 36.1768 84.6667 36 84.6667H32.8333C32.7891 84.6667 32.7467 84.6842 32.7155 84.7155C32.6842 84.7467 32.6667 84.7891 32.6667 84.8333V88C32.6667 88.1768 32.5964 88.3464 32.4714 88.4714C32.3464 88.5964 32.1768 88.6667 32 88.6667C31.8232 88.6667 31.6536 88.5964 31.5286 88.4714C31.4036 88.3464 31.3333 88.1768 31.3333 88V84.8333C31.3333 84.7891 31.3158 84.7467 31.2845 84.7155C31.2533 84.6842 31.2109 84.6667 31.1667 84.6667H28C27.8232 84.6667 27.6536 84.5964 27.5286 84.4714C27.4036 84.3464 27.3333 84.1768 27.3333 84C27.3333 83.8232 27.4036 83.6536 27.5286 83.5286C27.6536 83.4036 27.8232 83.3333 28 83.3333Z" fill="#111111"/>
</g>
<g id="Size=20px, Filled=true" clip-path="url(#clip3_1118_338)">
<path id="Vector_10" d="M62 94C63.9778 94 65.9112 93.4135 67.5557 92.3147C69.2002 91.2159 70.4819 89.6541 71.2388 87.8268C71.9957 85.9996 72.1937 83.9889 71.8079 82.0491C71.422 80.1093 70.4696 78.3275 69.0711 76.9289C67.6725 75.5304 65.8907 74.578 63.9509 74.1921C62.0111 73.8063 60.0004 74.0043 58.1732 74.7612C56.3459 75.5181 54.7841 76.7998 53.6853 78.4443C52.5865 80.0888 52 82.0222 52 84C52 86.6522 53.0536 89.1957 54.9289 91.0711C56.8043 92.9464 59.3478 94 62 94ZM57 83.1667H60.9583C61.0136 83.1667 61.0666 83.1447 61.1056 83.1056C61.1447 83.0666 61.1667 83.0136 61.1667 82.9583V79C61.1667 78.779 61.2545 78.567 61.4107 78.4107C61.567 78.2545 61.779 78.1667 62 78.1667C62.221 78.1667 62.433 78.2545 62.5893 78.4107C62.7455 78.567 62.8333 78.779 62.8333 79V82.9583C62.8333 83.0136 62.8553 83.0666 62.8944 83.1056C62.9334 83.1447 62.9864 83.1667 63.0417 83.1667H67C67.221 83.1667 67.433 83.2545 67.5893 83.4107C67.7455 83.567 67.8333 83.779 67.8333 84C67.8333 84.221 67.7455 84.433 67.5893 84.5893C67.433 84.7455 67.221 84.8333 67 84.8333H63.0417C62.9864 84.8333 62.9334 84.8553 62.8944 84.8943C62.8553 84.9334 62.8333 84.9864 62.8333 85.0417V89C62.8333 89.221 62.7455 89.433 62.5893 89.5893C62.433 89.7455 62.221 89.8333 62 89.8333C61.779 89.8333 61.567 89.7455 61.4107 89.5893C61.2545 89.433 61.1667 89.221 61.1667 89V85.0417C61.1667 84.9864 61.1447 84.9334 61.1056 84.8943C61.0666 84.8553 61.0136 84.8333 60.9583 84.8333H57C56.779 84.8333 56.567 84.7455 56.4107 84.5893C56.2545 84.433 56.1667 84.221 56.1667 84C56.1667 83.779 56.2545 83.567 56.4107 83.4107C56.567 83.2545 56.779 83.1667 57 83.1667Z" fill="#111111"/>
</g>
<g id="Size=24px, Filled=true" clip-path="url(#clip4_1118_338)">
<path id="Vector_11" d="M96 96C98.3734 96 100.693 95.2962 102.667 93.9776C104.64 92.6591 106.178 90.7849 107.087 88.5922C107.995 86.3995 108.232 83.9867 107.769 81.6589C107.306 79.3311 106.164 77.1929 104.485 75.5147C102.807 73.8365 100.669 72.6936 98.3411 72.2306C96.0133 71.7676 93.6005 72.0052 91.4078 72.9134C89.2151 73.8217 87.3409 75.3598 86.0224 77.3332C84.7038 79.3065 84 81.6266 84 84C84 87.1826 85.2643 90.2348 87.5147 92.4853C89.7652 94.7357 92.8174 96 96 96ZM90 83H94.75C94.8163 83 94.8799 82.9737 94.9268 82.9268C94.9737 82.8799 95 82.8163 95 82.75V78C95 77.7348 95.1054 77.4804 95.2929 77.2929C95.4804 77.1054 95.7348 77 96 77C96.2652 77 96.5196 77.1054 96.7071 77.2929C96.8946 77.4804 97 77.7348 97 78V82.75C97 82.8163 97.0263 82.8799 97.0732 82.9268C97.1201 82.9737 97.1837 83 97.25 83H102C102.265 83 102.52 83.1054 102.707 83.2929C102.895 83.4804 103 83.7348 103 84C103 84.2652 102.895 84.5196 102.707 84.7071C102.52 84.8946 102.265 85 102 85H97.25C97.1837 85 97.1201 85.0263 97.0732 85.0732C97.0263 85.1201 97 85.1837 97 85.25V90C97 90.2652 96.8946 90.5196 96.7071 90.7071C96.5196 90.8946 96.2652 91 96 91C95.7348 91 95.4804 90.8946 95.2929 90.7071C95.1054 90.5196 95 90.2652 95 90V85.25C95 85.1837 94.9737 85.1201 94.9268 85.0732C94.8799 85.0263 94.8163 85 94.75 85H90C89.7348 85 89.4804 84.8946 89.2929 84.7071C89.1054 84.5196 89 84.2652 89 84C89 83.7348 89.1054 83.4804 89.2929 83.2929C89.4804 83.1054 89.7348 83 90 83Z" fill="#111111"/>
</g>
<g id="Size=32px, Filled=true" clip-path="url(#clip5_1118_338)">
<path id="Vector_12" d="M136 100C139.164 100 142.258 99.0616 144.889 97.3035C147.52 95.5454 149.571 93.0466 150.782 90.1229C151.993 87.1993 152.31 83.9823 151.693 80.8786C151.075 77.7749 149.551 74.9239 147.314 72.6863C145.076 70.4487 142.225 68.9248 139.121 68.3074C136.018 67.6901 132.801 68.0069 129.877 69.2179C126.953 70.4289 124.455 72.4797 122.696 75.1109C120.938 77.7421 120 80.8355 120 84C120 88.2435 121.686 92.3131 124.686 95.3137C127.687 98.3143 131.757 100 136 100ZM128 82.6667H134.333C134.422 82.6667 134.507 82.6315 134.569 82.569C134.632 82.5065 134.667 82.4217 134.667 82.3333V76C134.667 75.6464 134.807 75.3072 135.057 75.0572C135.307 74.8071 135.646 74.6667 136 74.6667C136.354 74.6667 136.693 74.8071 136.943 75.0572C137.193 75.3072 137.333 75.6464 137.333 76V82.3333C137.333 82.4217 137.368 82.5065 137.431 82.569C137.493 82.6315 137.578 82.6667 137.667 82.6667H144C144.354 82.6667 144.693 82.8071 144.943 83.0572C145.193 83.3072 145.333 83.6464 145.333 84C145.333 84.3536 145.193 84.6928 144.943 84.9428C144.693 85.1929 144.354 85.3333 144 85.3333H137.667C137.578 85.3333 137.493 85.3685 137.431 85.431C137.368 85.4935 137.333 85.5783 137.333 85.6667V92C137.333 92.3536 137.193 92.6928 136.943 92.9428C136.693 93.1929 136.354 93.3333 136 93.3333C135.646 93.3333 135.307 93.1929 135.057 92.9428C134.807 92.6928 134.667 92.3536 134.667 92V85.6667C134.667 85.5783 134.632 85.4935 134.569 85.431C134.507 85.3685 134.422 85.3333 134.333 85.3333H128C127.646 85.3333 127.307 85.1929 127.057 84.9428C126.807 84.6928 126.667 84.3536 126.667 84C126.667 83.6464 126.807 83.3072 127.057 83.0572C127.307 82.8071 127.646 82.6667 128 82.6667Z" fill="#111111"/>
</g>
<g id="Size=40px, Filled=true" clip-path="url(#clip6_1118_338)">
<path id="Vector_13" d="M184 104C187.956 104 191.822 102.827 195.111 100.629C198.4 98.4318 200.964 95.3082 202.478 91.6537C203.991 87.9991 204.387 83.9778 203.616 80.0982C202.844 76.2186 200.939 72.6549 198.142 69.8579C195.345 67.0608 191.781 65.156 187.902 64.3843C184.022 63.6126 180.001 64.0087 176.346 65.5224C172.692 67.0362 169.568 69.5996 167.371 72.8886C165.173 76.1776 164 80.0444 164 84C164 89.3043 166.107 94.3914 169.858 98.1421C173.609 101.893 178.696 104 184 104ZM174 82.3333H181.917C182.027 82.3333 182.133 82.2894 182.211 82.2113C182.289 82.1332 182.333 82.0272 182.333 81.9167V74C182.333 73.558 182.509 73.1341 182.821 72.8215C183.134 72.5089 183.558 72.3333 184 72.3333C184.442 72.3333 184.866 72.5089 185.179 72.8215C185.491 73.1341 185.667 73.558 185.667 74V81.9167C185.667 82.0272 185.711 82.1332 185.789 82.2113C185.867 82.2894 185.973 82.3333 186.083 82.3333H194C194.442 82.3333 194.866 82.5089 195.179 82.8215C195.491 83.1341 195.667 83.558 195.667 84C195.667 84.442 195.491 84.866 195.179 85.1785C194.866 85.4911 194.442 85.6667 194 85.6667H186.083C185.973 85.6667 185.867 85.7106 185.789 85.7887C185.711 85.8668 185.667 85.9728 185.667 86.0833V94C185.667 94.442 185.491 94.866 185.179 95.1785C184.866 95.4911 184.442 95.6667 184 95.6667C183.558 95.6667 183.134 95.4911 182.821 95.1785C182.509 94.866 182.333 94.442 182.333 94V86.0833C182.333 85.9728 182.289 85.8668 182.211 85.7887C182.133 85.7106 182.027 85.6667 181.917 85.6667H174C173.558 85.6667 173.134 85.4911 172.821 85.1785C172.509 84.866 172.333 84.442 172.333 84C172.333 83.558 172.509 83.1341 172.821 82.8215C173.134 82.5089 173.558 82.3333 174 82.3333Z" fill="#111111"/>
</g>
<g id="Size=48px, Filled=true" clip-path="url(#clip7_1118_338)">
<path id="Vector_14" d="M240 108C244.747 108 249.387 106.592 253.334 103.955C257.28 101.318 260.357 97.5698 262.173 93.1844C263.99 88.799 264.465 83.9734 263.539 79.3178C262.613 74.6623 260.327 70.3859 256.971 67.0294C253.614 63.673 249.338 61.3872 244.682 60.4612C240.027 59.5351 235.201 60.0104 230.816 61.8269C226.43 63.6434 222.682 66.7195 220.045 70.6663C217.408 74.6131 216 79.2533 216 84C216 90.3652 218.529 96.4697 223.029 100.971C227.53 105.471 233.635 108 240 108ZM228 82H237.5C237.633 82 237.76 81.9473 237.854 81.8536C237.947 81.7598 238 81.6326 238 81.5V72C238 71.4696 238.211 70.9609 238.586 70.5858C238.961 70.2107 239.47 70 240 70C240.53 70 241.039 70.2107 241.414 70.5858C241.789 70.9609 242 71.4696 242 72V81.5C242 81.6326 242.053 81.7598 242.146 81.8536C242.24 81.9473 242.367 82 242.5 82H252C252.53 82 253.039 82.2107 253.414 82.5858C253.789 82.9609 254 83.4696 254 84C254 84.5304 253.789 85.0391 253.414 85.4142C253.039 85.7893 252.53 86 252 86H242.5C242.367 86 242.24 86.0527 242.146 86.1465C242.053 86.2402 242 86.3674 242 86.5V96C242 96.5304 241.789 97.0391 241.414 97.4142C241.039 97.7893 240.53 98 240 98C239.47 98 238.961 97.7893 238.586 97.4142C238.211 97.0391 238 96.5304 238 96V86.5C238 86.3674 237.947 86.2402 237.854 86.1465C237.76 86.0527 237.633 86 237.5 86H228C227.47 86 226.961 85.7893 226.586 85.4142C226.211 85.0391 226 84.5304 226 84C226 83.4696 226.211 82.9609 226.586 82.5858C226.961 82.2107 227.47 82 228 82Z" fill="#111111"/>
</g>
</g>
</g>
<defs>
<clipPath id="clip0_1118_338">
<rect width="264" height="108" rx="5" fill="white"/>
</clipPath>
<clipPath id="clip1_1118_338">
<rect width="12" height="12" fill="white" transform="translate(0 78)"/>
</clipPath>
<clipPath id="clip2_1118_338">
<rect width="16" height="16" fill="white" transform="translate(24 76)"/>
</clipPath>
<clipPath id="clip3_1118_338">
<rect width="20" height="20" fill="white" transform="translate(52 74)"/>
</clipPath>
<clipPath id="clip4_1118_338">
<rect width="24" height="24" fill="white" transform="translate(84 72)"/>
</clipPath>
<clipPath id="clip5_1118_338">
<rect width="32" height="32" fill="white" transform="translate(120 68)"/>
</clipPath>
<clipPath id="clip6_1118_338">
<rect width="40" height="40" fill="white" transform="translate(164 64)"/>
</clipPath>
<clipPath id="clip7_1118_338">
<rect width="48" height="48" fill="white" transform="translate(216 60)"/>
</clipPath>
</defs>
</svg>
