<svg width="264" height="108" viewBox="0 0 264 108" fill="none" xmlns="http://www.w3.org/2000/svg">
<g id="Attach">
<g clip-path="url(#clip0_1110_1315)">
<g id="Size=12px, Filled=false">
<path id="Vector" d="M9 25.7495V21.9C9 20.1603 7.65685 18.75 6 18.75C4.34315 18.75 3 20.1603 3 21.9V27.15C3 28.3098 3.89543 29.25 5 29.25C6.10457 29.25 7 28.3098 7 27.15V21.9C7 21.3201 6.55228 20.85 6 20.85C5.44772 20.85 5 21.3201 5 21.9V26.45" stroke="#111111" stroke-width="0.75" stroke-linecap="round" stroke-linejoin="round"/>
</g>
<g id="Size=16px, Filled=false">
<path id="Vector_2" d="M36 26.3327V21.2C36 18.8804 34.2091 17 32 17C29.7909 17 28 18.8804 28 21.2V28.2C28 29.7464 29.1939 31 30.6667 31C32.1394 31 33.3333 29.7464 33.3333 28.2V21.2C33.3333 20.4268 32.7364 19.8 32 19.8C31.2636 19.8 30.6667 20.4268 30.6667 21.2V27.2667" stroke="#111111" stroke-linecap="round" stroke-linejoin="round"/>
</g>
<g id="Size=20px, Filled=false">
<path id="Vector_3" d="M67 26.9159V20.5C67 17.6005 64.7614 15.25 62 15.25C59.2386 15.25 57 17.6005 57 20.5V29.25C57 31.183 58.4924 32.75 60.3333 32.75C62.1743 32.75 63.6667 31.183 63.6667 29.25V20.5C63.6667 19.5335 62.9205 18.75 62 18.75C61.0795 18.75 60.3333 19.5335 60.3333 20.5V28.0833" stroke="#111111" stroke-width="1.25" stroke-linecap="round" stroke-linejoin="round"/>
</g>
<g id="Size=24px, Filled=false">
<path id="Vector_4" d="M102 27.6657V19.6C102 15.9549 99.3137 13 96 13C92.6863 13 90 15.9549 90 19.6V30.6C90 33.0301 91.7909 35 94 35C96.2091 35 98 33.0301 98 30.6V19.6C98 18.385 97.1046 17.4 96 17.4C94.8954 17.4 94 18.385 94 19.6V29.1333" stroke="#111111" stroke-width="1.5" stroke-linecap="round" stroke-linejoin="round"/>
</g>
<g id="Size=32px, Filled=false">
<path id="Vector_5" d="M144 28.6654V18.4C144 13.7608 140.418 10 136 10C131.582 10 128 13.7608 128 18.4V32.4C128 35.4928 130.388 38 133.333 38C136.279 38 138.667 35.4928 138.667 32.4V18.4C138.667 16.8536 137.473 15.6 136 15.6C134.527 15.6 133.333 16.8536 133.333 18.4V30.5333" stroke="#111111" stroke-width="2" stroke-linecap="round" stroke-linejoin="round"/>
</g>
<g id="Size=40px, Filled=false">
<path id="Vector_6" d="M194 29.8318V17C194 11.201 189.523 6.5 184 6.5C178.477 6.5 174 11.201 174 17V34.5C174 38.366 176.985 41.5 180.667 41.5C184.349 41.5 187.333 38.366 187.333 34.5V17C187.333 15.067 185.841 13.5 184 13.5C182.159 13.5 180.667 15.067 180.667 17V32.1667" stroke="#111111" stroke-width="2.5" stroke-linecap="round" stroke-linejoin="round"/>
</g>
<g id="Size=48px, Filled=false">
<path id="Vector_7" d="M252 30.9981V15.6C252 8.64121 246.627 3 240 3C233.373 3 228 8.64121 228 15.6V36.6C228 41.2392 231.582 45 236 45C240.418 45 244 41.2392 244 36.6V15.6C244 13.2804 242.209 11.4 240 11.4C237.791 11.4 236 13.2804 236 15.6V33.8" stroke="#111111" stroke-width="3" stroke-linecap="round" stroke-linejoin="round"/>
</g>
<g id="Size=12px, Filled=true">
<g id="Vector_8">
<path fill-rule="evenodd" clip-rule="evenodd" d="M8.75 81.5C8.41848 81.5 8.10054 81.3683 7.86612 81.1339C7.6317 80.8995 7.5 80.5815 7.5 80.25V78.125C7.5 78.0918 7.48683 78.0601 7.46339 78.0366C7.43995 78.0132 7.40815 78 7.375 78H2C1.73478 78 1.48043 78.1054 1.29289 78.2929C1.10536 78.4804 1 78.7348 1 79V89C1 89.2652 1.10536 89.5196 1.29289 89.7071C1.48043 89.8946 1.73478 90 2 90H10C10.2652 90 10.5196 89.8946 10.7071 89.7071C10.8946 89.5196 11 89.2652 11 89V81.625C11 81.5918 10.9868 81.5601 10.9634 81.5366C10.9399 81.5132 10.9082 81.5 10.875 81.5H8.75ZM10.7 81H8.75C8.55109 81 8.36032 80.921 8.21967 80.7803C8.07902 80.6397 8 80.4489 8 80.25V78.3C8.00034 78.2752 8.00804 78.2511 8.02211 78.2307C8.03618 78.2103 8.05599 78.1946 8.07903 78.1855C8.10207 78.1764 8.12729 78.1743 8.1515 78.1796C8.17571 78.1848 8.19781 78.1972 8.215 78.215L10.785 80.785C10.8028 80.8022 10.8152 80.8243 10.8204 80.8485C10.8257 80.8727 10.8236 80.8979 10.8145 80.921C10.8054 80.944 10.7897 80.9638 10.7693 80.9779C10.7489 80.992 10.7248 80.9997 10.7 81Z" fill="#111111"/>
<path d="M2.5 85.9993C2.5 86.5295 2.71309 87.0381 3.0924 87.413C3.47171 87.7879 3.98616 87.9986 4.52258 87.9986H7.95231C8.15228 88.0073 8.35196 87.9759 8.53932 87.9063C8.72668 87.8367 8.89784 87.7303 9.04246 87.5935C9.18709 87.4567 9.30219 87.2924 9.38082 87.1104C9.45946 86.9285 9.5 86.7327 9.5 86.5348C9.5 86.337 9.45946 86.1411 9.38082 85.9592C9.30219 85.7772 9.18709 85.6129 9.04246 85.4761C8.89784 85.3394 8.72668 85.2329 8.53932 85.1633C8.35196 85.0937 8.15228 85.0623 7.95231 85.071H5.30561C5.05349 85.071 4.8117 85.17 4.63343 85.3463C4.45515 85.5225 4.355 85.7615 4.355 86.0107C4.355 86.2599 4.45515 86.4989 4.63343 86.6752C4.8117 86.8514 5.05349 86.9504 5.30561 86.9504H7.55646C7.63309 86.9504 7.70658 86.9203 7.76077 86.8667C7.81496 86.8132 7.8454 86.7405 7.8454 86.6648C7.8454 86.589 7.81496 86.5164 7.76077 86.4628C7.70658 86.4092 7.63309 86.3792 7.55646 86.3792H5.30561C5.20676 86.3792 5.11195 86.3403 5.04205 86.2712C4.97215 86.2021 4.93288 86.1084 4.93288 86.0107C4.93288 85.913 4.97215 85.8193 5.04205 85.7502C5.11195 85.6811 5.20676 85.6423 5.30561 85.6423L7.95231 85.6423C8.07518 85.6354 8.19818 85.6534 8.31377 85.6951C8.42937 85.7369 8.53513 85.8015 8.62457 85.8851C8.71402 85.9686 8.78527 86.0693 8.83397 86.1811C8.88267 86.2928 8.90779 86.4132 8.90779 86.5348C8.90779 86.6565 8.88267 86.7768 8.83397 86.8886C8.78527 87.0003 8.71402 87.101 8.62457 87.1846C8.53513 87.2681 8.42937 87.3327 8.31377 87.3745C8.19818 87.4162 8.07518 87.4342 7.95231 87.4273H4.52258C4.13942 87.4273 3.77196 87.2769 3.50102 87.0091C3.23009 86.7413 3.07788 86.378 3.07788 85.9993C3.07788 85.6205 3.23009 85.2573 3.50102 84.9895C3.77196 84.7217 4.13942 84.5712 4.52258 84.5712H6.68964C6.76627 84.5712 6.83976 84.5411 6.89395 84.4876C6.94814 84.434 6.97858 84.3614 6.97858 84.2856C6.97858 84.2099 6.94814 84.1372 6.89395 84.0837C6.83976 84.0301 6.76627 84 6.68964 84L4.52258 84C3.98616 84 3.47171 84.2106 3.0924 84.5856C2.71309 84.9605 2.5 85.469 2.5 85.9993Z" fill="white"/>
</g>
</g>
<g id="Size=16px, Filled=true">
<g id="Vector_9">
<path fill-rule="evenodd" clip-rule="evenodd" d="M35.6666 80.6667C35.2246 80.6667 34.8006 80.4911 34.4881 80.1785C34.1755 79.866 33.9999 79.442 33.9999 79V76.1667C33.9999 76.1225 33.9824 76.0801 33.9511 76.0488C33.9198 76.0176 33.8775 76 33.8333 76H26.6666C26.313 76 25.9738 76.1405 25.7238 76.3905C25.4737 76.6406 25.3333 76.9797 25.3333 77.3333V90.6667C25.3333 91.0203 25.4737 91.3594 25.7238 91.6095C25.9738 91.8595 26.313 92 26.6666 92H37.3333C37.6869 92 38.026 91.8595 38.2761 91.6095C38.5261 91.3594 38.6666 91.0203 38.6666 90.6667V80.8333C38.6666 80.7891 38.649 80.7467 38.6178 80.7155C38.5865 80.6842 38.5441 80.6667 38.4999 80.6667H35.6666ZM38.2666 80H35.6666C35.4014 80 35.147 79.8946 34.9595 79.7071C34.7719 79.5196 34.6666 79.2652 34.6666 79V76.4C34.667 76.367 34.6773 76.3348 34.6961 76.3076C34.7148 76.2805 34.7412 76.2595 34.772 76.2473C34.8027 76.2352 34.8363 76.2324 34.8686 76.2394C34.9009 76.2464 34.9303 76.2629 34.9533 76.2867L38.3799 79.7133C38.4037 79.7363 38.4201 79.7657 38.4271 79.798C38.4342 79.8303 38.4314 79.8639 38.4193 79.8946C38.4071 79.9253 38.3861 79.9518 38.3589 79.9705C38.3318 79.9893 38.2996 79.9995 38.2666 80Z" fill="#111111"/>
<path d="M27.3333 86.6657C27.3333 87.3727 27.6174 88.0507 28.1231 88.5507C28.6289 89.0506 29.3148 89.3314 30.03 89.3314H34.603C34.8696 89.3431 35.1359 89.3012 35.3857 89.2084C35.6355 89.1156 35.8637 88.9737 36.0565 88.7913C36.2494 88.6089 36.4028 88.3898 36.5077 88.1472C36.6125 87.9046 36.6666 87.6436 36.6666 87.3797C36.6666 87.1159 36.6125 86.8549 36.5077 86.6123C36.4028 86.3697 36.2494 86.1506 36.0565 85.9682C35.8637 85.7858 35.6355 85.6439 35.3857 85.5511C35.1359 85.4583 34.8696 85.4164 34.603 85.4281H31.0741C30.7379 85.4281 30.4155 85.5601 30.1778 85.795C29.9401 86.03 29.8066 86.3487 29.8066 86.6809C29.8066 87.0132 29.9401 87.3319 30.1778 87.5669C30.4155 87.8018 30.7379 87.9338 31.0741 87.9338H34.0752C34.1774 87.9338 34.2754 87.8937 34.3476 87.8223C34.4199 87.7509 34.4605 87.654 34.4605 87.553C34.4605 87.452 34.4199 87.3552 34.3476 87.2837C34.2754 87.2123 34.1774 87.1722 34.0752 87.1722H31.0741C30.9423 87.1722 30.8159 87.1204 30.7227 87.0283C30.6295 86.9362 30.5771 86.8112 30.5771 86.6809C30.5771 86.5507 30.6295 86.4257 30.7227 86.3336C30.8159 86.2415 30.9423 86.1897 31.0741 86.1897L34.603 86.1897C34.7668 86.1805 34.9308 86.2045 35.0849 86.2602C35.2391 86.3158 35.3801 86.402 35.4993 86.5134C35.6186 86.6248 35.7136 86.7591 35.7785 86.9081C35.8435 87.057 35.877 87.2175 35.877 87.3797C35.877 87.5419 35.8435 87.7024 35.7785 87.8514C35.7136 88.0004 35.6186 88.1347 35.4993 88.2461C35.3801 88.3575 35.2391 88.4436 35.0849 88.4993C34.9308 88.555 34.7668 88.579 34.603 88.5698H30.03C29.5192 88.5698 29.0292 88.3692 28.668 88.0121C28.3067 87.655 28.1038 87.1707 28.1038 86.6657C28.1038 86.1607 28.3067 85.6764 28.668 85.3193C29.0292 84.9622 29.5192 84.7616 30.03 84.7616H32.9194C33.0216 84.7616 33.1196 84.7215 33.1919 84.6501C33.2641 84.5787 33.3047 84.4818 33.3047 84.3808C33.3047 84.2798 33.2641 84.183 33.1919 84.1115C33.1196 84.0401 33.0216 84 32.9194 84L30.03 84C29.3148 84 28.6289 84.2809 28.1231 84.7808C27.6174 85.2807 27.3333 85.9587 27.3333 86.6657Z" fill="white"/>
</g>
</g>
<g id="Size=20px, Filled=true">
<g id="Vector_10">
<path fill-rule="evenodd" clip-rule="evenodd" d="M66.5834 79.8333C66.0309 79.8333 65.501 79.6138 65.1103 79.2231C64.7196 78.8324 64.5001 78.3025 64.5001 77.75V74.2083C64.5001 74.1531 64.4781 74.1001 64.4391 74.061C64.4 74.0219 64.347 74 64.2917 74H55.3334C54.8914 74 54.4675 74.1756 54.1549 74.4882C53.8423 74.8007 53.6667 75.2246 53.6667 75.6667V92.3333C53.6667 92.7754 53.8423 93.1993 54.1549 93.5118C54.4675 93.8244 54.8914 94 55.3334 94H68.6667C69.1088 94 69.5327 93.8244 69.8453 93.5118C70.1578 93.1993 70.3334 92.7754 70.3334 92.3333V80.0417C70.3334 79.9864 70.3115 79.9334 70.2724 79.8944C70.2333 79.8553 70.1803 79.8333 70.1251 79.8333H66.5834ZM69.8334 79H66.5834C66.2519 79 65.934 78.8683 65.6995 78.6339C65.4651 78.3995 65.3334 78.0815 65.3334 77.75V74.5C65.334 74.4587 65.3468 74.4185 65.3703 74.3846C65.3937 74.3506 65.4267 74.3243 65.4651 74.3091C65.5035 74.294 65.5456 74.2905 65.5859 74.2993C65.6263 74.3081 65.6631 74.3286 65.6917 74.3583L69.9751 78.6417C70.0048 78.6703 70.0254 78.7072 70.0341 78.7475C70.0429 78.7878 70.0394 78.8299 70.0243 78.8683C70.0091 78.9067 69.9828 78.9397 69.9489 78.9631C69.9149 78.9866 69.8747 78.9994 69.8334 79Z" fill="#111111"/>
<path d="M56.1667 87.3321C56.1667 88.2159 56.5219 89.0634 57.1541 89.6883C57.7863 90.3132 58.6437 90.6643 59.5377 90.6643H65.2539C65.5872 90.6788 65.92 90.6265 66.2323 90.5105C66.5445 90.3944 66.8298 90.2171 67.0709 89.9891C67.3119 89.7612 67.5037 89.4873 67.6348 89.184C67.7658 88.8808 67.8334 88.5544 67.8334 88.2247C67.8334 87.8949 67.7658 87.5686 67.6348 87.2653C67.5037 86.9621 67.3119 86.6882 67.0709 86.4602C66.8298 86.2323 66.5445 86.0549 66.2323 85.9389C65.92 85.8228 65.5872 85.7705 65.2539 85.7851H60.8428C60.4226 85.7851 60.0196 85.9501 59.7225 86.2438C59.4253 86.5375 59.2584 86.9358 59.2584 87.3512C59.2584 87.7665 59.4253 88.1649 59.7225 88.4586C60.0196 88.7523 60.4226 88.9173 60.8428 88.9173H64.5942C64.7219 88.9173 64.8444 88.8671 64.9347 88.7779C65.025 88.6886 65.0757 88.5675 65.0757 88.4413C65.0757 88.315 65.025 88.1939 64.9347 88.1047C64.8444 88.0154 64.7219 87.9653 64.5942 87.9653H60.8428C60.678 87.9653 60.52 87.9006 60.4035 87.7854C60.287 87.6702 60.2215 87.514 60.2215 87.3512C60.2215 87.1883 60.287 87.0321 60.4035 86.917C60.52 86.8018 60.678 86.7371 60.8428 86.7371L65.2539 86.7371C65.4587 86.7257 65.6637 86.7556 65.8564 86.8252C66.049 86.8948 66.2253 87.0025 66.3744 87.1418C66.5234 87.281 66.6422 87.4489 66.7234 87.6351C66.8045 87.8213 66.8464 88.0219 66.8464 88.2247C66.8464 88.4274 66.8045 88.6281 66.7234 88.8143C66.6422 89.0005 66.5234 89.1683 66.3744 89.3076C66.2253 89.4468 66.049 89.5546 65.8564 89.6241C65.6637 89.6937 65.4587 89.7237 65.2539 89.7122H59.5377C58.8991 89.7122 58.2867 89.4615 57.8351 89.0151C57.3836 88.5688 57.1299 87.9634 57.1299 87.3321C57.1299 86.7009 57.3836 86.0955 57.8351 85.6492C58.2867 85.2028 58.8991 84.952 59.5377 84.952H63.1495C63.2772 84.952 63.3997 84.9019 63.49 84.8126C63.5803 84.7233 63.631 84.6023 63.631 84.476C63.631 84.3498 63.5803 84.2287 63.49 84.1394C63.3997 84.0502 63.2772 84 63.1495 84L59.5377 84C58.6437 84 57.7863 84.3511 57.1541 84.976C56.5219 85.6009 56.1667 86.4484 56.1667 87.3321Z" fill="white"/>
</g>
</g>
<g id="Size=24px, Filled=true">
<g id="Vector_11">
<path fill-rule="evenodd" clip-rule="evenodd" d="M101.5 79C100.837 79 100.201 78.7366 99.7322 78.2678C99.2634 77.7989 99 77.163 99 76.5V72.25C99 72.1837 98.9737 72.1201 98.9268 72.0732C98.8799 72.0263 98.8163 72 98.75 72H88C87.4696 72 86.9609 72.2107 86.5858 72.5858C86.2107 72.9609 86 73.4696 86 74V94C86 94.5304 86.2107 95.0391 86.5858 95.4142C86.9609 95.7893 87.4696 96 88 96H104C104.53 96 105.039 95.7893 105.414 95.4142C105.789 95.0391 106 94.5304 106 94V79.25C106 79.1837 105.974 79.1201 105.927 79.0732C105.88 79.0263 105.816 79 105.75 79H101.5ZM105.4 78H101.5C101.102 78 100.721 77.842 100.439 77.5607C100.158 77.2794 100 76.8978 100 76.5V72.6C100.001 72.5505 100.016 72.5022 100.044 72.4615C100.072 72.4207 100.112 72.3892 100.158 72.371C100.204 72.3528 100.255 72.3486 100.303 72.3592C100.351 72.3697 100.396 72.3943 100.43 72.43L105.57 77.57C105.606 77.6044 105.63 77.6486 105.641 77.697C105.651 77.7454 105.647 77.7959 105.629 77.8419C105.611 77.888 105.579 77.9276 105.539 77.9558C105.498 77.9839 105.45 77.9993 105.4 78Z" fill="#111111"/>
<path d="M89 87.9986C89 89.0591 89.4262 90.0761 90.1848 90.826C90.9434 91.5759 91.9723 91.9971 93.0452 91.9971H99.9046C100.305 92.0146 100.704 91.9518 101.079 91.8126C101.453 91.6733 101.796 91.4605 102.085 91.1869C102.374 90.9134 102.604 90.5847 102.762 90.2208C102.919 89.8569 103 89.4653 103 89.0696C103 88.6739 102.919 88.2823 102.762 87.9184C102.604 87.5545 102.374 87.2259 102.085 86.9523C101.796 86.6787 101.453 86.4659 101.079 86.3267C100.704 86.1874 100.305 86.1246 99.9046 86.1421H94.6112C94.107 86.1421 93.6234 86.3401 93.2669 86.6925C92.9103 87.045 92.71 87.523 92.71 88.0214C92.71 88.5198 92.9103 88.9979 93.2669 89.3503C93.6234 89.7027 94.107 89.9007 94.6112 89.9007H99.1129C99.2662 89.9007 99.4132 89.8406 99.5215 89.7334C99.6299 89.6263 99.6908 89.481 99.6908 89.3295C99.6908 89.178 99.6299 89.0327 99.5215 88.9256C99.4132 88.8185 99.2662 88.7583 99.1129 88.7583H94.6112C94.4135 88.7583 94.2239 88.6807 94.0841 88.5425C93.9443 88.4043 93.8658 88.2169 93.8658 88.0214C93.8658 87.826 93.9443 87.6386 94.0841 87.5004C94.2239 87.3622 94.4135 87.2845 94.6112 87.2845L99.9046 87.2845C100.15 87.2708 100.396 87.3068 100.628 87.3903C100.859 87.4738 101.07 87.603 101.249 87.7701C101.428 87.9372 101.571 88.1387 101.668 88.3621C101.765 88.5856 101.816 88.8263 101.816 89.0696C101.816 89.3129 101.765 89.5537 101.668 89.7771C101.571 90.0005 101.428 90.202 101.249 90.3691C101.07 90.5362 100.859 90.6655 100.628 90.749C100.396 90.8325 100.15 90.8684 99.9046 90.8547H93.0452C92.2788 90.8547 91.5439 90.5538 91.002 90.0182C90.4602 89.4825 90.1558 88.7561 90.1558 87.9986C90.1558 87.2411 90.4602 86.5146 91.002 85.979C91.5439 85.4434 92.2788 85.1424 93.0452 85.1424H97.3793C97.5325 85.1424 97.6795 85.0823 97.7879 84.9751C97.8963 84.868 97.9572 84.7227 97.9572 84.5712C97.9572 84.4197 97.8963 84.2744 97.7879 84.1673C97.6795 84.0602 97.5325 84 97.3793 84L93.0452 84C91.9723 84 90.9434 84.4213 90.1848 85.1712C89.4262 85.921 89 86.9381 89 87.9986Z" fill="white"/>
</g>
</g>
<g id="Size=32px, Filled=true">
<g id="Vector_12">
<path fill-rule="evenodd" clip-rule="evenodd" d="M143.333 77.3333C142.449 77.3333 141.602 76.9821 140.976 76.357C140.351 75.7319 140 74.8841 140 74V68.3333C140 68.2449 139.965 68.1601 139.902 68.0976C139.84 68.0351 139.755 68 139.667 68H125.333C124.626 68 123.948 68.281 123.448 68.781C122.948 69.2811 122.667 69.9594 122.667 70.6667V97.3333C122.667 98.0406 122.948 98.7189 123.448 99.219C123.948 99.719 124.626 100 125.333 100H146.667C147.374 100 148.052 99.719 148.552 99.219C149.052 98.7189 149.333 98.0406 149.333 97.3333V77.6667C149.333 77.5783 149.298 77.4935 149.236 77.431C149.173 77.3685 149.088 77.3333 149 77.3333H143.333ZM148.533 76H143.333C142.803 76 142.294 75.7893 141.919 75.4142C141.544 75.0391 141.333 74.5304 141.333 74V68.8C141.334 68.7339 141.355 68.6697 141.392 68.6153C141.43 68.5609 141.483 68.5189 141.544 68.4946C141.606 68.4704 141.673 68.4649 141.737 68.4789C141.802 68.4929 141.861 68.5258 141.907 68.5733L148.76 75.4267C148.808 75.4725 148.841 75.5314 148.855 75.596C148.869 75.6606 148.863 75.7278 148.839 75.7893C148.814 75.8507 148.772 75.9035 148.718 75.941C148.664 75.9786 148.599 75.9991 148.533 76Z" fill="#111111"/>
<path d="M126.667 89.3314C126.667 90.7454 127.235 92.1015 128.246 93.1013C129.258 94.1012 130.63 94.6629 132.06 94.6629H141.206C141.739 94.6861 142.272 94.6024 142.772 94.4168C143.271 94.2311 143.728 93.9474 144.113 93.5826C144.499 93.2178 144.806 92.7797 145.016 92.2945C145.225 91.8093 145.333 91.2871 145.333 90.7595C145.333 90.2319 145.225 89.7097 145.016 89.2245C144.806 88.7393 144.499 88.3011 144.113 87.9364C143.728 87.5716 143.271 87.2879 142.772 87.1022C142.272 86.9165 141.739 86.8328 141.206 86.8561H134.148C133.476 86.8561 132.831 87.1201 132.356 87.59C131.88 88.06 131.613 88.6973 131.613 89.3619C131.613 90.0265 131.88 90.6638 132.356 91.1337C132.831 91.6037 133.476 91.8677 134.148 91.8677H140.151C140.355 91.8677 140.551 91.7874 140.695 91.6446C140.84 91.5018 140.921 91.308 140.921 91.106C140.921 90.904 140.84 90.7103 140.695 90.5675C140.551 90.4246 140.355 90.3444 140.151 90.3444H134.148C133.885 90.3444 133.632 90.2409 133.446 90.0566C133.259 89.8724 133.154 89.6225 133.154 89.3619C133.154 89.1013 133.259 88.8514 133.446 88.6672C133.632 88.4829 133.885 88.3794 134.148 88.3794L141.206 88.3794C141.534 88.3611 141.862 88.409 142.17 88.5204C142.478 88.6317 142.76 88.804 142.999 89.0268C143.237 89.2497 143.427 89.5182 143.557 89.8162C143.687 90.1141 143.754 90.4351 143.754 90.7595C143.754 91.0839 143.687 91.4049 143.557 91.7028C143.427 92.0007 143.237 92.2693 142.999 92.4921C142.76 92.715 142.478 92.8873 142.17 92.9986C141.862 93.11 141.534 93.1579 141.206 93.1396H132.06C131.039 93.1396 130.059 92.7384 129.336 92.0242C128.614 91.31 128.208 90.3414 128.208 89.3314C128.208 88.3214 128.614 87.3528 129.336 86.6387C130.059 85.9245 131.039 85.5233 132.06 85.5233H137.839C138.043 85.5233 138.239 85.443 138.384 85.3002C138.528 85.1574 138.61 84.9636 138.61 84.7616C138.61 84.5596 138.528 84.3659 138.384 84.2231C138.239 84.0802 138.043 84 137.839 84L132.06 84C130.63 84 129.258 84.5617 128.246 85.5615C127.235 86.5614 126.667 87.9174 126.667 89.3314Z" fill="white"/>
</g>
</g>
<g id="Size=40px, Filled=true">
<g id="Vector_13">
<path fill-rule="evenodd" clip-rule="evenodd" d="M193.167 75.6667C192.062 75.6667 191.002 75.2277 190.22 74.4463C189.439 73.6649 189 72.6051 189 71.5V64.4167C189 64.3062 188.956 64.2002 188.878 64.122C188.8 64.0439 188.694 64 188.583 64H170.667C169.783 64 168.935 64.3512 168.31 64.9763C167.684 65.6014 167.333 66.4493 167.333 67.3333V100.667C167.333 101.551 167.684 102.399 168.31 103.024C168.935 103.649 169.783 104 170.667 104H197.333C198.217 104 199.065 103.649 199.69 103.024C200.315 102.399 200.667 101.551 200.667 100.667V76.0833C200.667 75.9728 200.623 75.8668 200.545 75.7887C200.466 75.7106 200.36 75.6667 200.25 75.6667H193.167ZM199.667 74H193.167C192.504 74 191.868 73.7366 191.399 73.2678C190.93 72.7989 190.667 72.163 190.667 71.5V65C190.668 64.9174 190.693 64.8371 190.74 64.7691C190.787 64.7011 190.853 64.6487 190.93 64.6183C191.007 64.5879 191.091 64.5811 191.172 64.5986C191.252 64.6161 191.326 64.6572 191.383 64.7167L199.95 73.2833C200.009 73.3406 200.05 73.4143 200.068 73.495C200.086 73.5757 200.079 73.6598 200.048 73.7366C200.018 73.8134 199.965 73.8794 199.897 73.9263C199.83 73.9732 199.749 73.9989 199.667 74Z" fill="#111111"/>
<path d="M172.333 90.6643C172.333 92.4318 173.044 94.1269 174.308 95.3766C175.572 96.6264 177.287 97.3286 179.075 97.3286H190.508C191.174 97.3577 191.84 97.253 192.464 97.021C193.089 96.7889 193.659 96.4342 194.141 95.9782C194.624 95.5223 195.007 94.9746 195.269 94.3681C195.531 93.7616 195.667 93.1089 195.667 92.4494C195.667 91.7898 195.531 91.1371 195.269 90.5307C195.007 89.9242 194.624 89.3764 194.141 88.9205C193.659 88.4645 193.089 88.1098 192.464 87.8778C191.84 87.6457 191.174 87.541 190.508 87.5702H181.685C180.845 87.5702 180.039 87.9002 179.445 88.4876C178.85 89.075 178.517 89.8717 178.517 90.7024C178.517 91.5331 178.85 92.3298 179.445 92.9172C180.039 93.5046 180.845 93.8346 181.685 93.8346H189.188C189.444 93.8346 189.689 93.7343 189.869 93.5557C190.05 93.3772 190.151 93.135 190.151 92.8825C190.151 92.63 190.05 92.3879 189.869 92.2093C189.689 92.0308 189.444 91.9305 189.188 91.9305H181.685C181.356 91.9305 181.04 91.8011 180.807 91.5708C180.574 91.3405 180.443 91.0281 180.443 90.7024C180.443 90.3766 180.574 90.0643 180.807 89.8339C181.04 89.6036 181.356 89.4742 181.685 89.4742L190.508 89.4742C190.917 89.4513 191.327 89.5113 191.712 89.6504C192.098 89.7896 192.45 90.005 192.748 90.2836C193.047 90.5621 193.284 90.8978 193.446 91.2702C193.609 91.6426 193.693 92.0439 193.693 92.4494C193.693 92.8549 193.609 93.2561 193.446 93.6285C193.284 94.0009 193.047 94.3367 192.748 94.6152C192.45 94.8937 192.098 95.1091 191.712 95.2483C191.327 95.3874 190.917 95.4474 190.508 95.4245H179.075C177.798 95.4245 176.573 94.923 175.67 94.0303C174.767 93.1375 174.26 91.9268 174.26 90.6643C174.26 89.4018 174.767 88.191 175.67 87.2983C176.573 86.4056 177.798 85.9041 179.075 85.9041H186.299C186.554 85.9041 186.799 85.8038 186.98 85.6252C187.16 85.4467 187.262 85.2045 187.262 84.952C187.262 84.6995 187.16 84.4574 186.98 84.2788C186.799 84.1003 186.554 84 186.299 84L179.075 84C177.287 84 175.572 84.7021 174.308 85.9519C173.044 87.2017 172.333 88.8968 172.333 90.6643Z" fill="white"/>
</g>
</g>
<g id="Size=48px, Filled=true">
<g id="Vector_14">
<path fill-rule="evenodd" clip-rule="evenodd" d="M251 74C249.674 74 248.402 73.4732 247.464 72.5355C246.527 71.5979 246 70.3261 246 69V60.5C246 60.3674 245.947 60.2402 245.854 60.1464C245.76 60.0527 245.633 60 245.5 60H224C222.939 60 221.922 60.4214 221.172 61.1716C220.421 61.9217 220 62.9391 220 64V104C220 105.061 220.421 106.078 221.172 106.828C221.922 107.579 222.939 108 224 108H256C257.061 108 258.078 107.579 258.828 106.828C259.579 106.078 260 105.061 260 104V74.5C260 74.3674 259.947 74.2402 259.854 74.1464C259.76 74.0527 259.633 74 259.5 74H251ZM258.8 72H251C250.204 72 249.441 71.6839 248.879 71.1213C248.316 70.5587 248 69.7956 248 69V61.2C248.001 61.1009 248.032 61.0045 248.088 60.9229C248.145 60.8414 248.224 60.7784 248.316 60.742C248.408 60.7055 248.509 60.6973 248.606 60.7183C248.703 60.7393 248.791 60.7886 248.86 60.86L259.14 71.14C259.211 71.2088 259.261 71.2972 259.282 71.394C259.303 71.4908 259.294 71.5917 259.258 71.6839C259.222 71.776 259.159 71.8553 259.077 71.9116C258.996 71.9678 258.899 71.9986 258.8 72Z" fill="#111111"/>
<path d="M226 91.9971C226 94.1181 226.852 96.1522 228.37 97.652C229.887 99.1517 231.945 99.9943 234.09 99.9943H247.809C248.609 100.029 249.408 99.9037 250.157 99.6252C250.907 99.3467 251.591 98.921 252.17 98.3739C252.748 97.8268 253.209 97.1695 253.523 96.4417C253.838 95.7139 254 94.9307 254 94.1392C254 93.3478 253.838 92.5646 253.523 91.8368C253.209 91.109 252.748 90.4517 252.17 89.9046C251.591 89.3574 250.907 88.9318 250.157 88.6533C249.408 88.3748 248.609 88.2493 247.809 88.2842H237.222C236.214 88.2842 235.247 88.6802 234.534 89.3851C233.821 90.09 233.42 91.046 233.42 92.0428C233.42 93.0397 233.821 93.9957 234.534 94.7006C235.247 95.4055 236.214 95.8015 237.222 95.8015H246.226C246.532 95.8015 246.826 95.6811 247.043 95.4669C247.26 95.2526 247.382 94.962 247.382 94.659C247.382 94.3561 247.26 94.0655 247.043 93.8512C246.826 93.637 246.532 93.5166 246.226 93.5166H237.222C236.827 93.5166 236.448 93.3613 236.168 93.0849C235.889 92.8086 235.732 92.4337 235.732 92.0428C235.732 91.652 235.889 91.2771 236.168 91.0007C236.448 90.7244 236.827 90.5691 237.222 90.5691L247.809 90.5691C248.301 90.5416 248.793 90.6135 249.255 90.7805C249.717 90.9475 250.141 91.206 250.498 91.5403C250.856 91.8745 251.141 92.2774 251.336 92.7243C251.531 93.1711 251.631 93.6526 251.631 94.1392C251.631 94.6258 251.531 95.1073 251.336 95.5542C251.141 96.0011 250.856 96.404 250.498 96.7382C250.141 97.0724 249.717 97.3309 249.255 97.4979C248.793 97.6649 248.301 97.7369 247.809 97.7094H234.09C232.558 97.7094 231.088 97.1076 230.004 96.0363C228.92 94.9651 228.312 93.5121 228.312 91.9971C228.312 90.4822 228.92 89.0292 230.004 87.958C231.088 86.8867 232.558 86.2849 234.09 86.2849H242.759C243.065 86.2849 243.359 86.1645 243.576 85.9503C243.793 85.736 243.914 85.4454 243.914 85.1424C243.914 84.8395 243.793 84.5489 243.576 84.3346C243.359 84.1204 243.065 84 242.759 84L234.09 84C231.945 84 229.887 84.8426 228.37 86.3423C226.852 87.8421 226 89.8762 226 91.9971Z" fill="white"/>
</g>
</g>
</g>
</g>
<defs>
<clipPath id="clip0_1110_1315">
<rect width="264" height="108" rx="5" fill="white"/>
</clipPath>
</defs>
</svg>
