<svg width="264" height="108" viewBox="0 0 264 108" fill="none" xmlns="http://www.w3.org/2000/svg">
<g id="Cancel">
<g clip-path="url(#clip0_1110_1309)">
<g id="Size=12px, Filled=false">
<path id="Vector" d="M3.75 26.25L8.25 21.75M8.25 26.25L3.75 21.75M6 29.25C8.8995 29.25 11.25 26.8995 11.25 24C11.25 21.1005 8.8995 18.75 6 18.75C3.10051 18.75 0.75 21.1005 0.75 24C0.75 26.8995 3.10051 29.25 6 29.25Z" stroke="#111111" stroke-width="0.75" stroke-linecap="round" stroke-linejoin="round"/>
</g>
<g id="Size=16px, Filled=false">
<path id="Vector_2" d="M29 27L35 21M35 27L29 21M32 31C35.866 31 39 27.866 39 24C39 20.134 35.866 17 32 17C28.134 17 25 20.134 25 24C25 27.866 28.134 31 32 31Z" stroke="#111111" stroke-linecap="round" stroke-linejoin="round"/>
</g>
<g id="Size=20px, Filled=false">
<path id="Vector_3" d="M58.25 27.75L65.75 20.25M65.75 27.75L58.25 20.25M62 32.75C66.8325 32.75 70.75 28.8325 70.75 24C70.75 19.1675 66.8325 15.25 62 15.25C57.1675 15.25 53.25 19.1675 53.25 24C53.25 28.8325 57.1675 32.75 62 32.75Z" stroke="#111111" stroke-width="1.25" stroke-linecap="round" stroke-linejoin="round"/>
</g>
<g id="Size=24px, Filled=false">
<path id="Vector_4" d="M92 28L100 20M100 28L92 20M96 35C102.075 35 107 30.0751 107 24C107 17.9249 102.075 13 96 13C89.9249 13 85 17.9249 85 24C85 30.0751 89.9249 35 96 35Z" stroke="#111111" stroke-width="1.5" stroke-linecap="round" stroke-linejoin="round"/>
</g>
<g id="Size=32px, Filled=false">
<path id="Vector_5" d="M130 30L142 18M142 30L130 18M136 38C143.732 38 150 31.732 150 24C150 16.268 143.732 10 136 10C128.268 10 122 16.268 122 24C122 31.732 128.268 38 136 38Z" stroke="#111111" stroke-width="2" stroke-linecap="round" stroke-linejoin="round"/>
</g>
<g id="Size=40px, Filled=false">
<path id="Vector_6" d="M176.5 31.5L191.5 16.5M191.5 31.5L176.5 16.5M184 41.5C193.665 41.5 201.5 33.665 201.5 24C201.5 14.335 193.665 6.5 184 6.5C174.335 6.5 166.5 14.335 166.5 24C166.5 33.665 174.335 41.5 184 41.5Z" stroke="#111111" stroke-width="2.5" stroke-linecap="round" stroke-linejoin="round"/>
</g>
<g id="Size=48px, Filled=false">
<path id="Vector_7" d="M231 33L249 15M249 33L231 15M240 45C251.598 45 261 35.598 261 24C261 12.402 251.598 3 240 3C228.402 3 219 12.402 219 24C219 35.598 228.402 45 240 45Z" stroke="#111111" stroke-width="3" stroke-linecap="round" stroke-linejoin="round"/>
</g>
<g id="Size=12px, Filled=true" clip-path="url(#clip1_1110_1309)">
<path id="Vector_8" d="M12 84C12 82.8133 11.6481 81.6533 10.9888 80.6666C10.3295 79.6799 9.39246 78.9109 8.2961 78.4567C7.19975 78.0026 5.99335 77.8838 4.82946 78.1153C3.66558 78.3468 2.59648 78.9182 1.75736 79.7574C0.918247 80.5965 0.346802 81.6656 0.115291 82.8295C-0.11622 83.9933 0.00259972 85.1997 0.456726 86.2961C0.910851 87.3925 1.67989 88.3295 2.66658 88.9888C3.65328 89.6481 4.81331 90 6 90C7.5913 90 9.11742 89.3679 10.2426 88.2426C11.3679 87.1174 12 85.5913 12 84ZM8.355 85.64C8.44813 85.7337 8.5004 85.8604 8.5004 85.9925C8.5004 86.1246 8.44813 86.2513 8.355 86.345C8.30852 86.3919 8.25322 86.4291 8.19229 86.4544C8.13136 86.4798 8.06601 86.4929 8 86.4929C7.934 86.4929 7.86864 86.4798 7.80771 86.4544C7.74678 86.4291 7.69148 86.3919 7.645 86.345L6.09 84.79C6.06607 84.7682 6.03487 84.7561 6.0025 84.7561C5.97014 84.7561 5.93894 84.7682 5.915 84.79L4.36 86.345C4.26435 86.4269 4.14131 86.4697 4.01548 86.4649C3.88964 86.46 3.77027 86.4078 3.68122 86.3188C3.59217 86.2297 3.54001 86.1104 3.53515 85.9845C3.53029 85.8587 3.57309 85.7357 3.655 85.64L5.21 84.085C5.23179 84.0611 5.24386 84.0299 5.24386 83.9975C5.24386 83.9651 5.23179 83.9339 5.21 83.91L3.655 82.355C3.60814 82.3085 3.57094 82.2532 3.54556 82.1923C3.52017 82.1314 3.5071 82.066 3.5071 82C3.5071 81.934 3.52017 81.8686 3.54556 81.8077C3.57094 81.7468 3.60814 81.6915 3.655 81.645C3.74868 81.5519 3.87541 81.4996 4.0075 81.4996C4.1396 81.4996 4.26632 81.5519 4.36 81.645L5.915 83.2C5.92623 83.212 5.93978 83.2215 5.95483 83.228C5.96988 83.2345 5.9861 83.2379 6.0025 83.2379C6.0189 83.2379 6.03513 83.2345 6.05018 83.228C6.06523 83.2215 6.07878 83.212 6.09 83.2L7.645 81.645C7.69162 81.5984 7.74697 81.5614 7.80788 81.5362C7.86879 81.5109 7.93407 81.498 8 81.498C8.06593 81.498 8.13122 81.5109 8.19213 81.5362C8.25304 81.5614 8.30838 81.5984 8.355 81.645C8.40162 81.6916 8.4386 81.747 8.46383 81.8079C8.48906 81.8688 8.50205 81.9341 8.50205 82C8.50205 82.0659 8.48906 82.1312 8.46383 82.1921C8.4386 82.253 8.40162 82.3084 8.355 82.355L6.8 83.91C6.78805 83.9212 6.77851 83.9348 6.772 83.9498C6.76548 83.9649 6.76212 83.9811 6.76212 83.9975C6.76212 84.0139 6.76548 84.0301 6.772 84.0452C6.77851 84.0602 6.78805 84.0738 6.8 84.085L8.355 85.64Z" fill="#111111"/>
</g>
<g id="Size=16px, Filled=true" clip-path="url(#clip2_1110_1309)">
<path id="Vector_9" d="M40 84C40 82.4178 39.5308 80.871 38.6518 79.5554C37.7727 78.2398 36.5233 77.2145 35.0615 76.609C33.5997 76.0035 31.9911 75.845 30.4393 76.1537C28.8874 76.4624 27.462 77.2243 26.3431 78.3431C25.2243 79.462 24.4624 80.8874 24.1537 82.4393C23.845 83.9911 24.0035 85.5997 24.609 87.0615C25.2145 88.5233 26.2398 89.7727 27.5554 90.6518C28.871 91.5308 30.4178 92 32 92C34.1217 92 36.1566 91.1571 37.6569 89.6569C39.1571 88.1566 40 86.1217 40 84ZM35.14 86.1867C35.2642 86.3116 35.3339 86.4805 35.3339 86.6567C35.3339 86.8328 35.2642 87.0018 35.14 87.1267C35.078 87.1892 35.0043 87.2388 34.9231 87.2726C34.8418 87.3064 34.7547 87.3239 34.6667 87.3239C34.5787 87.3239 34.4915 87.3064 34.4103 87.2726C34.329 87.2388 34.2553 87.1892 34.1933 87.1267L32.12 85.0533C32.0881 85.0243 32.0465 85.0082 32.0033 85.0082C31.9602 85.0082 31.9186 85.0243 31.8867 85.0533L29.8133 87.1267C29.6858 87.2359 29.5218 87.293 29.354 87.2865C29.1862 87.28 29.027 87.2104 28.9083 87.0917C28.7896 86.973 28.72 86.8138 28.7135 86.646C28.707 86.4783 28.7641 86.3142 28.8733 86.1867L30.9467 84.1133C30.9757 84.0814 30.9918 84.0398 30.9918 83.9967C30.9918 83.9535 30.9757 83.9119 30.9467 83.88L28.8733 81.8067C28.8109 81.7447 28.7613 81.671 28.7274 81.5897C28.6936 81.5085 28.6761 81.4213 28.6761 81.3333C28.6761 81.2453 28.6936 81.1582 28.7274 81.077C28.7613 80.9957 28.8109 80.922 28.8733 80.86C28.9982 80.7358 29.1672 80.6661 29.3433 80.6661C29.5195 80.6661 29.6884 80.7358 29.8133 80.86L31.8867 82.9333C31.9016 82.9493 31.9197 82.962 31.9398 82.9707C31.9598 82.9794 31.9815 82.9838 32.0033 82.9838C32.0252 82.9838 32.0468 82.9794 32.0669 82.9707C32.087 82.962 32.105 82.9493 32.12 82.9333L34.1933 80.86C34.2555 80.7978 34.3293 80.7485 34.4105 80.7149C34.4917 80.6813 34.5788 80.6639 34.6667 80.6639C34.7546 80.6639 34.8416 80.6813 34.9228 80.7149C35.0041 80.7485 35.0778 80.7978 35.14 80.86C35.2022 80.9222 35.2515 80.996 35.2851 81.0772C35.3188 81.1584 35.3361 81.2454 35.3361 81.3333C35.3361 81.4212 35.3188 81.5083 35.2851 81.5895C35.2515 81.6707 35.2022 81.7445 35.14 81.8067L33.0667 83.88C33.0507 83.895 33.038 83.913 33.0293 83.9331C33.0206 83.9532 33.0162 83.9748 33.0162 83.9967C33.0162 84.0185 33.0206 84.0402 33.0293 84.0602C33.038 84.0803 33.0507 84.0984 33.0667 84.1133L35.14 86.1867Z" fill="#111111"/>
</g>
<g id="Size=20px, Filled=true" clip-path="url(#clip3_1110_1309)">
<path id="Vector_10" d="M72 84C72 82.0222 71.4135 80.0888 70.3147 78.4443C69.2159 76.7998 67.6541 75.5181 65.8268 74.7612C63.9996 74.0043 61.9889 73.8063 60.0491 74.1922C58.1093 74.578 56.3275 75.5304 54.9289 76.9289C53.5304 78.3275 52.578 80.1093 52.1922 82.0491C51.8063 83.9889 52.0043 85.9996 52.7612 87.8268C53.5181 89.6541 54.7998 91.2159 56.4443 92.3147C58.0888 93.4135 60.0222 94 62 94C64.6522 94 67.1957 92.9464 69.0711 91.0711C70.9464 89.1957 72 86.6522 72 84ZM65.925 86.7333C66.0802 86.8895 66.1673 87.1007 66.1673 87.3208C66.1673 87.541 66.0802 87.7522 65.925 87.9083C65.8475 87.9864 65.7554 88.0484 65.6538 88.0907C65.5523 88.1331 65.4433 88.1548 65.3333 88.1548C65.2233 88.1548 65.1144 88.1331 65.0129 88.0907C64.9113 88.0484 64.8191 87.9864 64.7417 87.9083L62.15 85.3167C62.1101 85.2804 62.0581 85.2602 62.0042 85.2602C61.9502 85.2602 61.8982 85.2804 61.8583 85.3167L59.2667 87.9083C59.1073 88.0449 58.9022 88.1162 58.6925 88.1081C58.4827 88.1 58.2838 88.0131 58.1354 87.8646C57.987 87.7162 57.9 87.5173 57.8919 87.3075C57.8838 87.0978 57.9551 86.8928 58.0917 86.7333L60.6833 84.1417C60.7196 84.1018 60.7398 84.0498 60.7398 83.9958C60.7398 83.9419 60.7196 83.8899 60.6833 83.85L58.0917 81.2583C58.0136 81.1809 57.9516 81.0887 57.9093 80.9872C57.867 80.8856 57.8452 80.7767 57.8452 80.6667C57.8452 80.5567 57.867 80.4477 57.9093 80.3462C57.9516 80.2446 58.0136 80.1525 58.0917 80.075C58.2478 79.9198 58.459 79.8327 58.6792 79.8327C58.8993 79.8327 59.1105 79.9198 59.2667 80.075L61.8583 82.6667C61.877 82.6866 61.8996 82.7025 61.9247 82.7133C61.9498 82.7242 61.9768 82.7298 62.0042 82.7298C62.0315 82.7298 62.0585 82.7242 62.0836 82.7133C62.1087 82.7025 62.1313 82.6866 62.15 82.6667L64.7417 80.075C64.8194 79.9973 64.9116 79.9357 65.0131 79.8936C65.1146 79.8516 65.2235 79.8299 65.3333 79.8299C65.4432 79.8299 65.552 79.8516 65.6535 79.8936C65.7551 79.9357 65.8473 79.9973 65.925 80.075C66.0027 80.1527 66.0643 80.2449 66.1064 80.3465C66.1484 80.448 66.1701 80.5568 66.1701 80.6667C66.1701 80.7766 66.1484 80.8854 66.1064 80.9869C66.0643 81.0884 66.0027 81.1806 65.925 81.2583L63.3333 83.85C63.3134 83.8687 63.2975 83.8913 63.2867 83.9164C63.2758 83.9415 63.2702 83.9685 63.2702 83.9958C63.2702 84.0232 63.2758 84.0502 63.2867 84.0753C63.2975 84.1004 63.3134 84.123 63.3333 84.1417L65.925 86.7333Z" fill="#111111"/>
</g>
<g id="Size=24px, Filled=true" clip-path="url(#clip4_1110_1309)">
<path id="Vector_11" d="M108 84C108 81.6266 107.296 79.3066 105.978 77.3332C104.659 75.3598 102.785 73.8217 100.592 72.9135C98.3995 72.0052 95.9867 71.7676 93.6589 72.2306C91.3312 72.6936 89.193 73.8365 87.5147 75.5147C85.8365 77.193 84.6936 79.3312 84.2306 81.6589C83.7676 83.9867 84.0052 86.3995 84.9135 88.5922C85.8217 90.7849 87.3598 92.6591 89.3332 93.9776C91.3066 95.2962 93.6266 96 96 96C99.1826 96 102.235 94.7357 104.485 92.4853C106.736 90.2348 108 87.1826 108 84ZM100.71 87.28C100.896 87.4674 101.001 87.7208 101.001 87.985C101.001 88.2492 100.896 88.5026 100.71 88.69C100.617 88.7837 100.506 88.8581 100.385 88.9089C100.263 88.9597 100.132 88.9858 100 88.9858C99.868 88.9858 99.7373 88.9597 99.6154 88.9089C99.4936 88.8581 99.383 88.7837 99.29 88.69L96.18 85.58C96.1321 85.5364 96.0697 85.5123 96.005 85.5123C95.9403 85.5123 95.8779 85.5364 95.83 85.58L92.72 88.69C92.5287 88.8538 92.2826 88.9394 92.031 88.9297C91.7793 88.92 91.5405 88.8157 91.3624 88.6376C91.1843 88.4595 91.08 88.2207 91.0703 87.9691C91.0606 87.7174 91.1462 87.4713 91.31 87.28L94.42 84.17C94.4636 84.1221 94.4877 84.0597 94.4877 83.995C94.4877 83.9303 94.4636 83.8679 94.42 83.82L91.31 80.71C91.2163 80.617 91.1419 80.5064 91.0911 80.3846C91.0403 80.2627 91.0142 80.132 91.0142 80C91.0142 79.868 91.0403 79.7373 91.0911 79.6154C91.1419 79.4936 91.2163 79.383 91.31 79.29C91.4974 79.1038 91.7508 78.9992 92.015 78.9992C92.2792 78.9992 92.5326 79.1038 92.72 79.29L95.83 82.4C95.8525 82.4239 95.8796 82.443 95.9097 82.456C95.9398 82.469 95.9722 82.4758 96.005 82.4758C96.0378 82.4758 96.0703 82.469 96.1004 82.456C96.1305 82.443 96.1576 82.4239 96.18 82.4L99.29 79.29C99.3832 79.1968 99.4939 79.1228 99.6158 79.0723C99.7376 79.0219 99.8681 78.9959 100 78.9959C100.132 78.9959 100.262 79.0219 100.384 79.0723C100.506 79.1228 100.617 79.1968 100.71 79.29C100.803 79.3832 100.877 79.4939 100.928 79.6158C100.978 79.7376 101.004 79.8681 101.004 80C101.004 80.1319 100.978 80.2624 100.928 80.3843C100.877 80.5061 100.803 80.6168 100.71 80.71L97.6 83.82C97.5761 83.8425 97.557 83.8696 97.544 83.8997C97.531 83.9298 97.5242 83.9622 97.5242 83.995C97.5242 84.0278 97.531 84.0603 97.544 84.0904C97.557 84.1205 97.5761 84.1476 97.6 84.17L100.71 87.28Z" fill="#111111"/>
</g>
<g id="Size=32px, Filled=true" clip-path="url(#clip5_1110_1309)">
<path id="Vector_12" d="M152 84C152 80.8355 151.062 77.7421 149.304 75.1109C147.545 72.4797 145.047 70.4289 142.123 69.2179C139.199 68.0069 135.982 67.6901 132.879 68.3074C129.775 68.9248 126.924 70.4487 124.686 72.6863C122.449 74.9239 120.925 77.7749 120.307 80.8786C119.69 83.9823 120.007 87.1993 121.218 90.1229C122.429 93.0466 124.48 95.5454 127.111 97.3035C129.742 99.0616 132.836 100 136 100C140.243 100 144.313 98.3143 147.314 95.3137C150.314 92.3131 152 88.2435 152 84ZM142.28 88.3733C142.528 88.6232 142.668 88.9611 142.668 89.3133C142.668 89.6656 142.528 90.0035 142.28 90.2533C142.156 90.3783 142.009 90.4775 141.846 90.5452C141.684 90.6129 141.509 90.6477 141.333 90.6477C141.157 90.6477 140.983 90.6129 140.821 90.5452C140.658 90.4775 140.511 90.3783 140.387 90.2533L136.24 86.1067C136.176 86.0486 136.093 86.0164 136.007 86.0164C135.92 86.0164 135.837 86.0486 135.773 86.1067L131.627 90.2533C131.372 90.4718 131.044 90.5859 130.708 90.573C130.372 90.56 130.054 90.4209 129.817 90.1834C129.579 89.946 129.44 89.6276 129.427 89.2921C129.414 88.9565 129.528 88.6284 129.747 88.3733L133.893 84.2267C133.951 84.1628 133.984 84.0796 133.984 83.9933C133.984 83.907 133.951 83.8238 133.893 83.76L129.747 79.6133C129.622 79.4894 129.523 79.3419 129.455 79.1794C129.387 79.017 129.352 78.8427 129.352 78.6667C129.352 78.4907 129.387 78.3164 129.455 78.1539C129.523 77.9914 129.622 77.844 129.747 77.72C129.996 77.4717 130.334 77.3323 130.687 77.3323C131.039 77.3323 131.377 77.4717 131.627 77.72L135.773 81.8667C135.803 81.8986 135.839 81.924 135.88 81.9414C135.92 81.9587 135.963 81.9677 136.007 81.9677C136.05 81.9677 136.094 81.9587 136.134 81.9414C136.174 81.924 136.21 81.8986 136.24 81.8667L140.387 77.72C140.511 77.5957 140.659 77.4971 140.821 77.4298C140.983 77.3625 141.158 77.3279 141.333 77.3279C141.509 77.3279 141.683 77.3625 141.846 77.4298C142.008 77.4971 142.156 77.5957 142.28 77.72C142.404 77.8443 142.503 77.9919 142.57 78.1543C142.638 78.3168 142.672 78.4909 142.672 78.6667C142.672 78.8425 142.638 79.0166 142.57 79.179C142.503 79.3414 142.404 79.489 142.28 79.6133L138.133 83.76C138.101 83.7899 138.076 83.8261 138.059 83.8662C138.041 83.9063 138.032 83.9496 138.032 83.9933C138.032 84.0371 138.041 84.0803 138.059 84.1205C138.076 84.1606 138.101 84.1967 138.133 84.2267L142.28 88.3733Z" fill="#111111"/>
</g>
<g id="Size=40px, Filled=true" clip-path="url(#clip6_1110_1309)">
<path id="Vector_13" d="M204 84C204 80.0444 202.827 76.1776 200.629 72.8886C198.432 69.5996 195.308 67.0362 191.654 65.5224C187.999 64.0087 183.978 63.6126 180.098 64.3843C176.219 65.156 172.655 67.0608 169.858 69.8579C167.061 72.6549 165.156 76.2186 164.384 80.0982C163.613 83.9778 164.009 87.9992 165.522 91.6537C167.036 95.3082 169.6 98.4318 172.889 100.629C176.178 102.827 180.044 104 184 104C189.304 104 194.391 101.893 198.142 98.1421C201.893 94.3914 204 89.3043 204 84ZM191.85 89.4667C192.16 89.7789 192.335 90.2014 192.335 90.6417C192.335 91.082 192.16 91.5044 191.85 91.8167C191.695 91.9729 191.511 92.0969 191.308 92.1815C191.105 92.2661 190.887 92.3097 190.667 92.3097C190.447 92.3097 190.229 92.2661 190.026 92.1815C189.823 92.0969 189.638 91.9729 189.483 91.8167L184.3 86.6333C184.22 86.5607 184.116 86.5205 184.008 86.5205C183.9 86.5205 183.796 86.5607 183.717 86.6333L178.533 91.8167C178.215 92.0897 177.804 92.2324 177.385 92.2162C176.965 92.2 176.568 92.0261 176.271 91.7293C175.974 91.4325 175.8 91.0346 175.784 90.6151C175.768 90.1956 175.91 89.7855 176.183 89.4667L181.367 84.2833C181.439 84.2036 181.48 84.0996 181.48 83.9917C181.48 83.8838 181.439 83.7798 181.367 83.7L176.183 78.5167C176.027 78.3617 175.903 78.1774 175.819 77.9743C175.734 77.7712 175.69 77.5534 175.69 77.3333C175.69 77.1133 175.734 76.8955 175.819 76.6924C175.903 76.4893 176.027 76.3049 176.183 76.15C176.496 75.8396 176.918 75.6654 177.358 75.6654C177.799 75.6654 178.221 75.8396 178.533 76.15L183.717 81.3333C183.754 81.3732 183.799 81.405 183.849 81.4267C183.9 81.4484 183.954 81.4596 184.008 81.4596C184.063 81.4596 184.117 81.4484 184.167 81.4267C184.217 81.405 184.263 81.3732 184.3 81.3333L189.483 76.15C189.639 75.9946 189.823 75.8713 190.026 75.7872C190.229 75.7031 190.447 75.6599 190.667 75.6599C190.886 75.6599 191.104 75.7031 191.307 75.7872C191.51 75.8713 191.695 75.9946 191.85 76.15C192.005 76.3054 192.129 76.4899 192.213 76.6929C192.297 76.896 192.34 77.1136 192.34 77.3333C192.34 77.5531 192.297 77.7707 192.213 77.9738C192.129 78.1768 192.005 78.3613 191.85 78.5167L186.667 83.7C186.627 83.7374 186.595 83.7826 186.573 83.8328C186.552 83.8829 186.54 83.937 186.54 83.9917C186.54 84.0463 186.552 84.1004 186.573 84.1506C186.595 84.2008 186.627 84.2459 186.667 84.2833L191.85 89.4667Z" fill="#111111"/>
</g>
<g id="Size=48px, Filled=true" clip-path="url(#clip7_1110_1309)">
<path id="Vector_14" d="M264 84C264 79.2533 262.592 74.6131 259.955 70.6663C257.318 66.7195 253.57 63.6434 249.184 61.8269C244.799 60.0104 239.973 59.5351 235.318 60.4612C230.662 61.3872 226.386 63.673 223.029 67.0294C219.673 70.3859 217.387 74.6623 216.461 79.3178C215.535 83.9734 216.01 88.799 217.827 93.1844C219.643 97.5698 222.72 101.318 226.666 103.955C230.613 106.592 235.253 108 240 108C246.365 108 252.47 105.471 256.971 100.971C261.471 96.4697 264 90.3652 264 84ZM249.42 90.56C249.793 90.9347 250.002 91.4416 250.002 91.97C250.002 92.4984 249.793 93.0053 249.42 93.38C249.234 93.5675 249.013 93.7163 248.769 93.8178C248.525 93.9193 248.264 93.9716 248 93.9716C247.736 93.9716 247.475 93.9193 247.231 93.8178C246.987 93.7163 246.766 93.5675 246.58 93.38L240.36 87.16C240.264 87.0729 240.139 87.0246 240.01 87.0246C239.881 87.0246 239.756 87.0729 239.66 87.16L233.44 93.38C233.057 93.7077 232.565 93.8789 232.062 93.8594C231.559 93.84 231.081 93.6313 230.725 93.2751C230.369 92.9189 230.16 92.4415 230.141 91.9381C230.121 91.4348 230.292 90.9426 230.62 90.56L236.84 84.34C236.927 84.2443 236.975 84.1195 236.975 83.99C236.975 83.8606 236.927 83.7358 236.84 83.64L230.62 77.42C230.433 77.2341 230.284 77.0129 230.182 76.7692C230.081 76.5254 230.028 76.264 230.028 76C230.028 75.736 230.081 75.4746 230.182 75.2309C230.284 74.9871 230.433 74.7659 230.62 74.58C230.995 74.2075 231.502 73.9984 232.03 73.9984C232.558 73.9984 233.065 74.2075 233.44 74.58L239.66 80.8C239.705 80.8478 239.759 80.886 239.819 80.912C239.88 80.9381 239.944 80.9515 240.01 80.9515C240.076 80.9515 240.141 80.9381 240.201 80.912C240.261 80.886 240.315 80.8478 240.36 80.8L246.58 74.58C246.766 74.3935 246.988 74.2456 247.232 74.1447C247.475 74.0438 247.736 73.9918 248 73.9918C248.264 73.9918 248.525 74.0438 248.769 74.1447C249.012 74.2456 249.234 74.3935 249.42 74.58C249.606 74.7665 249.754 74.9879 249.855 75.2315C249.956 75.4752 250.008 75.7363 250.008 76C250.008 76.2637 249.956 76.5249 249.855 76.7685C249.754 77.0122 249.606 77.2335 249.42 77.42L243.2 83.64C243.152 83.6849 243.114 83.7391 243.088 83.7993C243.062 83.8595 243.048 83.9244 243.048 83.99C243.048 84.0556 243.062 84.1205 243.088 84.1807C243.114 84.2409 243.152 84.2951 243.2 84.34L249.42 90.56Z" fill="#111111"/>
</g>
</g>
</g>
<defs>
<clipPath id="clip0_1110_1309">
<rect width="264" height="108" rx="5" fill="white"/>
</clipPath>
<clipPath id="clip1_1110_1309">
<rect width="12" height="12" fill="white" transform="translate(0 78)"/>
</clipPath>
<clipPath id="clip2_1110_1309">
<rect width="16" height="16" fill="white" transform="translate(24 76)"/>
</clipPath>
<clipPath id="clip3_1110_1309">
<rect width="20" height="20" fill="white" transform="translate(52 74)"/>
</clipPath>
<clipPath id="clip4_1110_1309">
<rect width="24" height="24" fill="white" transform="translate(84 72)"/>
</clipPath>
<clipPath id="clip5_1110_1309">
<rect width="32" height="32" fill="white" transform="translate(120 68)"/>
</clipPath>
<clipPath id="clip6_1110_1309">
<rect width="40" height="40" fill="white" transform="translate(164 64)"/>
</clipPath>
<clipPath id="clip7_1110_1309">
<rect width="48" height="48" fill="white" transform="translate(216 60)"/>
</clipPath>
</defs>
</svg>
