<svg width="264" height="108" viewBox="0 0 264 108" fill="none" xmlns="http://www.w3.org/2000/svg">
<g id="Copy">
<g clip-path="url(#clip0_1118_330)">
<g id="Size=12px, Filled=false">
<path id="Vector" d="M8.1 20.4727V19.2094C8.1 18.9557 7.89434 18.75 7.64062 18.75H1.20938C0.955671 18.75 0.75 18.9557 0.75 19.2094V25.6406C0.75 25.8943 0.955671 26.1 1.20938 26.1H2.47266M3.9 22.3594C3.9 22.1057 4.10567 21.9 4.35938 21.9H10.7906C11.0443 21.9 11.25 22.1057 11.25 22.3594V28.7906C11.25 29.0443 11.0443 29.25 10.7906 29.25H4.35938C4.10567 29.25 3.9 29.0443 3.9 28.7906V22.3594Z" stroke="#111111" stroke-width="0.75" stroke-linecap="round" stroke-linejoin="round"/>
</g>
<g id="Size=16px, Filled=false">
<path id="Vector_2" d="M34.8 19.2969V17.6125C34.8 17.2742 34.5258 17 34.1875 17H25.6125C25.2742 17 25 17.2742 25 17.6125V26.1875C25 26.5258 25.2742 26.8 25.6125 26.8H27.2969M29.2 21.8125C29.2 21.4742 29.4742 21.2 29.8125 21.2H38.3875C38.7258 21.2 39 21.4742 39 21.8125V30.3875C39 30.7258 38.7258 31 38.3875 31H29.8125C29.4742 31 29.2 30.7258 29.2 30.3875V21.8125Z" stroke="#111111" stroke-linecap="round" stroke-linejoin="round"/>
</g>
<g id="Size=20px, Filled=false">
<path id="Vector_3" d="M65.5 18.1211V16.0156C65.5 15.5928 65.1572 15.25 64.7344 15.25H54.0156C53.5928 15.25 53.25 15.5928 53.25 16.0156V26.7344C53.25 27.1572 53.5928 27.5 54.0156 27.5H56.1211M58.5 21.2656C58.5 20.8428 58.8428 20.5 59.2656 20.5H69.9844C70.4072 20.5 70.75 20.8428 70.75 21.2656V31.9844C70.75 32.4072 70.4072 32.75 69.9844 32.75H59.2656C58.8428 32.75 58.5 32.4072 58.5 31.9844V21.2656Z" stroke="#111111" stroke-width="1.25" stroke-linecap="round" stroke-linejoin="round"/>
</g>
<g id="Size=24px, Filled=false">
<path id="Vector_4" d="M100 17.2812V14.875C100 14.3918 99.6083 14 99.125 14H86.875C86.3918 14 86 14.3917 86 14.875V27.125C86 27.6083 86.3918 28 86.875 28H89.2812M92 20.875C92 20.3917 92.3918 20 92.875 20H105.125C105.608 20 106 20.3918 106 20.875V33.125C106 33.6083 105.608 34 105.125 34H92.875C92.3917 34 92 33.6083 92 33.125V20.875Z" stroke="#111111" stroke-width="1.5" stroke-linecap="round" stroke-linejoin="round"/>
</g>
<g id="Size=32px, Filled=false">
<path id="Vector_5" d="M141.6 14.5938V11.225C141.6 10.5485 141.052 10 140.375 10H123.225C122.548 10 122 10.5484 122 11.225V28.375C122 29.0516 122.548 29.6 123.225 29.6H126.594M130.4 19.625C130.4 18.9484 130.948 18.4 131.625 18.4H148.775C149.452 18.4 150 18.9485 150 19.625V36.775C150 37.4516 149.452 38 148.775 38H131.625C130.948 38 130.4 37.4516 130.4 36.775V19.625Z" stroke="#111111" stroke-width="2" stroke-linecap="round" stroke-linejoin="round"/>
</g>
<g id="Size=40px, Filled=false">
<path id="Vector_6" d="M191 12.2422V8.03125C191 7.18557 190.314 6.5 189.469 6.5H168.031C167.186 6.5 166.5 7.18556 166.5 8.03125V29.4688C166.5 30.3145 167.186 31 168.031 31H172.242M177 18.5312C177 17.6856 177.686 17 178.531 17H199.969C200.814 17 201.5 17.6856 201.5 18.5312V39.9687C201.5 40.8145 200.814 41.5 199.969 41.5H178.531C177.686 41.5 177 40.8145 177 39.9687V18.5312Z" stroke="#111111" stroke-width="2.5" stroke-linecap="round" stroke-linejoin="round"/>
</g>
<g id="Size=48px, Filled=false">
<path id="Vector_7" d="M248.4 9.89062V4.8375C248.4 3.82269 247.577 3 246.562 3H220.838C219.823 3 219 3.82267 219 4.8375V30.5625C219 31.5774 219.823 32.4 220.838 32.4H225.891M231.6 17.4375C231.6 16.4227 232.423 15.6 233.438 15.6H259.162C260.177 15.6 261 16.4227 261 17.4375V43.1625C261 44.1774 260.177 45 259.162 45H233.438C232.423 45 231.6 44.1774 231.6 43.1625V17.4375Z" stroke="#111111" stroke-width="3" stroke-linecap="round" stroke-linejoin="round"/>
</g>
<g id="Size=12px, Filled=true">
<g id="Vector_8">
<path fill-rule="evenodd" clip-rule="evenodd" d="M1 79.7778C1 79.3482 1.39797 79 1.88889 79H8.11111C8.60204 79 9 79.3482 9 79.7778V80.3611C9 80.5759 8.80102 80.75 8.55556 80.75C8.31009 80.75 8.11111 80.5759 8.11111 80.3611V79.7778H1.88889V86.2222H2.55556C2.80101 86.2222 3 86.3963 3 86.6111C3 86.8259 2.80101 87 2.55556 87H1.88889C1.39797 87 1 86.6518 1 86.2222V79.7778Z" fill="#111111"/>
<path fill-rule="evenodd" clip-rule="evenodd" d="M4.77778 81C4.34822 81 4 81.398 4 81.8889V88.1111C4 88.602 4.34822 89 4.77778 89H10.2222C10.6518 89 11 88.602 11 88.1111V81.8889C11 81.398 10.6518 81 10.2222 81H4.77778Z" fill="#111111"/>
</g>
</g>
<g id="Size=16px, Filled=true">
<g id="Vector_9">
<path fill-rule="evenodd" clip-rule="evenodd" d="M25.3333 78.3704C25.3333 77.7976 25.8639 77.3333 26.5184 77.3333H34.8147C35.4693 77.3333 35.9999 77.7976 35.9999 78.3704V79.1482C35.9999 79.4345 35.7346 79.6667 35.4073 79.6667C35.08 79.6667 34.8147 79.4345 34.8147 79.1482V78.3704H26.5184V86.963H27.4073C27.7346 86.963 27.9999 87.1951 27.9999 87.4815C27.9999 87.7679 27.7346 88 27.4073 88H26.5184C25.8639 88 25.3333 87.5357 25.3333 86.963V78.3704Z" fill="#111111"/>
<path fill-rule="evenodd" clip-rule="evenodd" d="M30.3703 80C29.7975 80 29.3333 80.5306 29.3333 81.1852V89.4815C29.3333 90.1361 29.7975 90.6667 30.3703 90.6667H37.6295C38.2023 90.6667 38.6666 90.1361 38.6666 89.4815V81.1852C38.6666 80.5306 38.2023 80 37.6295 80H30.3703Z" fill="#111111"/>
</g>
</g>
<g id="Size=20px, Filled=true">
<g id="Vector_10">
<path fill-rule="evenodd" clip-rule="evenodd" d="M53.6667 76.963C53.6667 76.247 54.33 75.6667 55.1482 75.6667H65.5186C66.3368 75.6667 67.0001 76.247 67.0001 76.963V77.9352C67.0001 78.2931 66.6685 78.5833 66.2593 78.5833C65.8502 78.5833 65.5186 78.2931 65.5186 77.9352V76.963H55.1482V87.7037H56.2593C56.6684 87.7037 57.0001 87.9939 57.0001 88.3518C57.0001 88.7098 56.6684 89 56.2593 89H55.1482C54.33 89 53.6667 88.4196 53.6667 87.7037V76.963Z" fill="#111111"/>
<path fill-rule="evenodd" clip-rule="evenodd" d="M59.963 79C59.2471 79 58.6667 79.6633 58.6667 80.4815V90.8518C58.6667 91.6701 59.2471 92.3333 59.963 92.3333H69.0371C69.7531 92.3333 70.3334 91.6701 70.3334 90.8518V80.4815C70.3334 79.6633 69.7531 79 69.0371 79H59.963Z" fill="#111111"/>
</g>
</g>
<g id="Size=24px, Filled=true">
<g id="Vector_11">
<path fill-rule="evenodd" clip-rule="evenodd" d="M86 75.5556C86 74.6964 86.7959 74 87.7778 74H100.222C101.204 74 102 74.6964 102 75.5556V76.7222C102 77.1518 101.602 77.5 101.111 77.5C100.62 77.5 100.222 77.1518 100.222 76.7222V75.5556H87.7778V88.4444H89.1111C89.602 88.4444 90 88.7927 90 89.2222C90 89.6518 89.602 90 89.1111 90H87.7778C86.7959 90 86 89.3036 86 88.4444V75.5556Z" fill="#111111"/>
<path fill-rule="evenodd" clip-rule="evenodd" d="M93.5556 78C92.6964 78 92 78.7959 92 79.7778V92.2222C92 93.2041 92.6964 94 93.5556 94H104.444C105.304 94 106 93.2041 106 92.2222V79.7778C106 78.7959 105.304 78 104.444 78H93.5556Z" fill="#111111"/>
</g>
</g>
<g id="Size=32px, Filled=true">
<g id="Vector_12">
<path fill-rule="evenodd" clip-rule="evenodd" d="M122.667 72.7407C122.667 71.5953 123.728 70.6667 125.037 70.6667H141.63C142.939 70.6667 144 71.5953 144 72.7407V74.2963C144 74.869 143.469 75.3333 142.815 75.3333C142.16 75.3333 141.63 74.869 141.63 74.2963V72.7407H125.037V89.9259H126.815C127.469 89.9259 128 90.3902 128 90.963C128 91.5357 127.469 92 126.815 92H125.037C123.728 92 122.667 91.0714 122.667 89.9259V72.7407Z" fill="#111111"/>
<path fill-rule="evenodd" clip-rule="evenodd" d="M132.741 76C131.595 76 130.667 77.0612 130.667 78.3704V94.963C130.667 96.2721 131.595 97.3333 132.741 97.3333H147.259C148.405 97.3333 149.333 96.2721 149.333 94.963V78.3704C149.333 77.0612 148.405 76 147.259 76H132.741Z" fill="#111111"/>
</g>
</g>
<g id="Size=40px, Filled=true">
<g id="Vector_13">
<path fill-rule="evenodd" clip-rule="evenodd" d="M167.333 69.9259C167.333 68.4941 168.66 67.3333 170.296 67.3333H191.037C192.673 67.3333 194 68.4941 194 69.9259V71.8704C194 72.5863 193.337 73.1667 192.518 73.1667C191.7 73.1667 191.037 72.5863 191.037 71.8704V69.9259H170.296V91.4074H172.518C173.337 91.4074 174 91.9878 174 92.7037C174 93.4196 173.337 94 172.518 94H170.296C168.66 94 167.333 92.8393 167.333 91.4074V69.9259Z" fill="#111111"/>
<path fill-rule="evenodd" clip-rule="evenodd" d="M179.926 74C178.494 74 177.333 75.3266 177.333 76.963V97.7037C177.333 99.3401 178.494 100.667 179.926 100.667H198.074C199.506 100.667 200.667 99.3401 200.667 97.7037V76.963C200.667 75.3266 199.506 74 198.074 74H179.926Z" fill="#111111"/>
</g>
</g>
<g id="Size=48px, Filled=true">
<g id="Vector_14">
<path fill-rule="evenodd" clip-rule="evenodd" d="M220 67.1111C220 65.3929 221.592 64 223.556 64H248.444C250.408 64 252 65.3929 252 67.1111V69.4444C252 70.3035 251.204 71 250.222 71C249.24 71 248.444 70.3035 248.444 69.4444V67.1111H223.556V92.8889H226.222C227.204 92.8889 228 93.5853 228 94.4444C228 95.3036 227.204 96 226.222 96H223.556C221.592 96 220 94.6072 220 92.8889V67.1111Z" fill="#111111"/>
<path fill-rule="evenodd" clip-rule="evenodd" d="M235.111 72C233.393 72 232 73.5919 232 75.5556V100.444C232 102.408 233.393 104 235.111 104H256.889C258.607 104 260 102.408 260 100.444V75.5556C260 73.5919 258.607 72 256.889 72H235.111Z" fill="#111111"/>
</g>
</g>
</g>
</g>
<defs>
<clipPath id="clip0_1118_330">
<rect width="264" height="108" rx="5" fill="white"/>
</clipPath>
</defs>
</svg>
