<svg width="264" height="108" viewBox="0 0 264 108" fill="none" xmlns="http://www.w3.org/2000/svg">
<g id="Download">
<g clip-path="url(#clip0_3477_534)">
<g id="Size=12px, Filled=false">
<path id="Vector" d="M6.00049 19.875V25.875M6.00049 25.875L3.75049 23.625M6.00049 25.875L8.25049 23.625M11.6255 25.875V26.625C11.6255 27.0228 11.4675 27.4044 11.1861 27.6857C10.9048 27.967 10.5233 28.125 10.1255 28.125H1.87549C1.47766 28.125 1.09613 27.967 0.814828 27.6857C0.533524 27.4044 0.375488 27.0228 0.375488 26.625V25.875" stroke="#111111" stroke-width="0.75" stroke-linecap="round" stroke-linejoin="round"/>
</g>
<g id="Size=16px, Filled=false">
<path id="Vector_2" d="M32.0007 18.5V26.5M32.0007 26.5L29.0007 23.5M32.0007 26.5L35.0007 23.5M39.5007 26.5V27.5C39.5007 28.0304 39.29 28.5391 38.9149 28.9142C38.5399 29.2893 38.0312 29.5 37.5007 29.5H26.5007C25.9703 29.5 25.4616 29.2893 25.0865 28.9142C24.7114 28.5391 24.5007 28.0304 24.5007 27.5V26.5" stroke="#111111" stroke-linecap="round" stroke-linejoin="round"/>
</g>
<g id="Size=20px, Filled=false">
<path id="Vector_3" d="M62.0007 17.125V27.125M62.0007 27.125L58.2507 23.375M62.0007 27.125L65.7507 23.375M71.3757 27.125V28.375C71.3757 29.038 71.1123 29.6739 70.6435 30.1428C70.1747 30.6116 69.5388 30.875 68.8757 30.875H55.1257C54.4627 30.875 53.8268 30.6116 53.358 30.1428C52.8891 29.6739 52.6257 29.038 52.6257 28.375V27.125" stroke="#111111" stroke-width="1.25" stroke-linecap="round" stroke-linejoin="round"/>
</g>
<g id="Size=24px, Filled=false">
<path id="Vector_4" d="M96.001 15.75V27.75M96.001 27.75L91.501 23.25M96.001 27.75L100.501 23.25M107.251 27.75V29.25C107.251 30.0456 106.935 30.8087 106.372 31.3713C105.81 31.9339 105.047 32.25 104.251 32.25H87.751C86.9553 32.25 86.1923 31.9339 85.6297 31.3713C85.067 30.8087 84.751 30.0456 84.751 29.25V27.75" stroke="#111111" stroke-width="1.5" stroke-linecap="round" stroke-linejoin="round"/>
</g>
<g id="Size=32px, Filled=false" clip-path="url(#clip1_3477_534)">
<path id="Vector_5" d="M136.001 13V29M136.001 29L130.001 23M136.001 29L142.001 23M151.001 29V31C151.001 32.0609 150.58 33.0783 149.83 33.8284C149.08 34.5786 148.062 35 147.001 35H125.001C123.94 35 122.923 34.5786 122.173 33.8284C121.423 33.0783 121.001 32.0609 121.001 31V29" stroke="#111111" stroke-width="2" stroke-linecap="round" stroke-linejoin="round"/>
</g>
<g id="Size=40px, Filled=false" clip-path="url(#clip2_3477_534)">
<path id="Vector_6" d="M184.002 10.25V30.25M184.002 30.25L176.502 22.75M184.002 30.25L191.502 22.75M202.752 30.25V32.75C202.752 34.0761 202.225 35.3479 201.287 36.2855C200.35 37.2232 199.078 37.75 197.752 37.75H170.252C168.926 37.75 167.654 37.2232 166.716 36.2855C165.778 35.3479 165.252 34.0761 165.252 32.75V30.25" stroke="#111111" stroke-width="2.5" stroke-linecap="round" stroke-linejoin="round"/>
</g>
<g id="Size=48px, Filled=false" clip-path="url(#clip3_3477_534)">
<path id="Vector_7" d="M240.002 7.5V31.5M240.002 31.5L231.002 22.5M240.002 31.5L249.002 22.5M262.502 31.5V34.5C262.502 36.0913 261.87 37.6174 260.745 38.7426C259.619 39.8679 258.093 40.5 256.502 40.5H223.502C221.911 40.5 220.385 39.8679 219.259 38.7426C218.134 37.6174 217.502 36.0913 217.502 34.5V31.5" stroke="#111111" stroke-width="3" stroke-linecap="round" stroke-linejoin="round"/>
</g>
<g id="Size=12px, Filled=true">
<path id="Vector_8" fill-rule="evenodd" clip-rule="evenodd" d="M3 79C1.89543 79 1 79.8954 1 81V87C1 88.1046 1.89543 89 3 89H9C10.1046 89 11 88.1046 11 87V81C11 79.8954 10.1046 79 9 79H3ZM6.4705 80.4817C6.4705 80.2157 6.25983 80 5.99994 80C5.74006 80 5.52938 80.2157 5.52938 80.4817V84.4974L4.92081 83.8744C4.73705 83.6863 4.43911 83.6863 4.25534 83.8744C4.07158 84.0625 4.07158 84.3676 4.25534 84.5557L5.66702 86.0008C5.75527 86.0912 5.87496 86.1419 5.99976 86.1419C6.12456 86.1419 6.24424 86.0912 6.33249 86.0008L7.74417 84.5557C7.92794 84.3676 7.92794 84.0625 7.74417 83.8744C7.56041 83.6863 7.26246 83.6863 7.0787 83.8744L6.4705 84.497V80.4817ZM2.52944 85.5C2.78932 85.5 3 85.7388 3 86.0333V86.4667L2.99986 86.5036C2.99912 86.6316 2.99842 86.7525 3.07894 86.8438C3.16719 86.9438 3.28688 87 3.41168 87H8.52944C8.65424 87 8.77393 86.9438 8.86218 86.8438C8.95042 86.7438 9 86.6081 9 86.4667V86.0333C9 85.7388 9.21068 85.5 9.47056 85.5C9.73044 85.5 9.99951 85.7388 9.99951 86.0333V86.4C9.99951 86.8243 9.85078 87.2313 9.58604 87.5314C9.3213 87.8314 8.96223 88 8.58783 88H3.41168C3.03728 88 2.67821 87.8314 2.41347 87.5314C2.14873 87.2313 2 86.8243 2 86.4V86.0333C2 85.7388 2.26956 85.5 2.52944 85.5Z" fill="#111111"/>
</g>
<g id="Size=16px, Filled=true">
<path id="Vector_9" fill-rule="evenodd" clip-rule="evenodd" d="M27.9999 77.3333C26.5272 77.3333 25.3333 78.5273 25.3333 80V88C25.3333 89.4728 26.5272 90.6667 27.9999 90.6667H35.9999C37.4727 90.6667 38.6666 89.4728 38.6666 88V80C38.6666 78.5273 37.4727 77.3333 35.9999 77.3333H27.9999ZM32.6273 79.309C32.6273 78.9542 32.3464 78.6667 31.9998 78.6667C31.6533 78.6667 31.3724 78.9542 31.3724 79.309V84.6632L30.561 83.8326C30.316 83.5817 29.9187 83.5817 29.6737 83.8326C29.4287 84.0834 29.4287 84.4901 29.6737 84.7409L31.5559 86.6678C31.6736 86.7883 31.8332 86.8559 31.9996 86.8559C32.166 86.8559 32.3256 86.7883 32.4432 86.6678L34.3255 84.7409C34.5705 84.4901 34.5705 84.0834 34.3255 83.8326C34.0805 83.5817 33.6832 83.5817 33.4382 83.8326L32.6273 84.6627V79.309ZM27.3725 86C27.719 86 27.9999 86.3184 27.9999 86.7111V87.2889L27.9997 87.3382C27.9987 87.5088 27.9978 87.67 28.1052 87.7917C28.2228 87.9251 28.3824 88 28.5488 88H35.3725C35.5389 88 35.6985 87.9251 35.8162 87.7917C35.9338 87.6584 35.9999 87.4775 35.9999 87.2889V86.7111C35.9999 86.3184 36.2808 86 36.6273 86C36.9738 86 37.3326 86.3184 37.3326 86.7111V87.2C37.3326 87.7658 37.1343 88.3084 36.7813 88.7085C36.4283 89.1086 35.9496 89.3333 35.4504 89.3333H28.5488C28.0496 89.3333 27.5709 89.1086 27.2179 88.7085C26.8649 88.3084 26.6666 87.7658 26.6666 87.2V86.7111C26.6666 86.3184 27.026 86 27.3725 86Z" fill="#111111"/>
</g>
<g id="Size=20px, Filled=true">
<path id="Vector_10" fill-rule="evenodd" clip-rule="evenodd" d="M57.0001 75.6667C55.1591 75.6667 53.6667 77.159 53.6667 79V89C53.6667 90.8409 55.1591 92.3333 57.0001 92.3333H67.0001C68.841 92.3333 70.3334 90.8409 70.3334 89V79C70.3334 77.159 68.841 75.6667 67.0001 75.6667H57.0001ZM62.7843 78.1362C62.7843 77.6928 62.4331 77.3333 62 77.3333C61.5668 77.3333 61.2157 77.6928 61.2157 78.1362V84.829L60.2014 83.7907C59.8952 83.4772 59.3986 83.4772 59.0923 83.7907C58.786 84.1042 58.786 84.6126 59.0923 84.9261L61.4451 87.3347C61.5922 87.4853 61.7917 87.5699 61.9997 87.5699C62.2077 87.5699 62.4072 87.4853 62.5542 87.3347L64.907 84.9261C65.2133 84.6126 65.2133 84.1042 64.907 83.7907C64.6008 83.4772 64.1042 83.4772 63.7979 83.7907L62.7843 84.8284V78.1362ZM56.2158 86.5C56.649 86.5 57.0001 86.898 57.0001 87.3889V88.1111L56.9998 88.1727C56.9986 88.386 56.9974 88.5875 57.1317 88.7396C57.2787 88.9063 57.4782 89 57.6862 89H66.2158C66.4238 89 66.6233 88.9063 66.7704 88.7396C66.9175 88.5729 67.0001 88.3468 67.0001 88.1111V87.3889C67.0001 86.898 67.3512 86.5 67.7843 86.5C68.2175 86.5 68.6659 86.898 68.6659 87.3889V88C68.6659 88.7072 68.4181 89.3855 67.9768 89.8856C67.5356 90.3857 66.9371 90.6667 66.3131 90.6667H57.6862C57.0622 90.6667 56.4638 90.3857 56.0225 89.8856C55.5813 89.3855 55.3334 88.7072 55.3334 88V87.3889C55.3334 86.898 55.7827 86.5 56.2158 86.5Z" fill="#111111"/>
</g>
<g id="Size=24px, Filled=true">
<path id="Vector_11" fill-rule="evenodd" clip-rule="evenodd" d="M90 74C87.7909 74 86 75.7909 86 78V90C86 92.2091 87.7909 94 90 94H102C104.209 94 106 92.2091 106 90V78C106 75.7909 104.209 74 102 74H90ZM96.941 76.9634C96.941 76.4313 96.5197 76 95.9999 76C95.4801 76 95.0588 76.4313 95.0588 76.9634V84.9949L93.8416 83.7489C93.4741 83.3726 92.8782 83.3726 92.5107 83.7489C92.1432 84.1251 92.1432 84.7351 92.5107 85.1114L95.334 88.0017C95.5105 88.1824 95.7499 88.2839 95.9995 88.2839C96.2491 88.2839 96.4885 88.1824 96.665 88.0017L99.4883 85.1114C99.8559 84.7351 99.8559 84.1251 99.4883 83.7489C99.1208 83.3726 98.5249 83.3726 98.1574 83.7489L96.941 84.9941V76.9634ZM89.0589 87C89.5786 87 90 87.4776 90 88.0667V88.9333L89.9997 89.0073C89.9982 89.2632 89.9968 89.505 90.1579 89.6876C90.3344 89.8876 90.5738 90 90.8234 90H101.059C101.308 90 101.548 89.8876 101.724 89.6876C101.901 89.4875 102 89.2162 102 88.9333V88.0667C102 87.4776 102.421 87 102.941 87C103.461 87 103.999 87.4776 103.999 88.0667V88.8C103.999 89.6487 103.702 90.4626 103.172 91.0627C102.643 91.6629 101.924 92 101.176 92H90.8234C90.0746 92 89.3564 91.6629 88.8269 91.0627C88.2975 90.4626 88 89.6487 88 88.8V88.0667C88 87.4776 88.5391 87 89.0589 87Z" fill="#111111"/>
</g>
<g id="Size=32px, Filled=true">
<path id="Vector_12" fill-rule="evenodd" clip-rule="evenodd" d="M128 70.6667C125.055 70.6667 122.667 73.0545 122.667 76V92C122.667 94.9455 125.055 97.3333 128 97.3333H144C146.946 97.3333 149.333 94.9455 149.333 92V76C149.333 73.0545 146.946 70.6667 144 70.6667H128ZM137.255 74.6179C137.255 73.9085 136.693 73.3333 136 73.3333C135.307 73.3333 134.745 73.9085 134.745 74.6179V85.3265L133.122 83.6651C132.632 83.1635 131.838 83.1635 131.348 83.6651C130.858 84.1668 130.858 84.9801 131.348 85.4818L135.112 89.3356C135.347 89.5765 135.667 89.7118 135.999 89.7118C136.332 89.7118 136.651 89.5765 136.887 89.3356L140.651 85.4818C141.141 84.9801 141.141 84.1668 140.651 83.6651C140.161 83.1635 139.367 83.1635 138.877 83.6651L137.255 85.3255V74.6179ZM126.745 88C127.438 88 128 88.6367 128 89.4222V90.5777L128 90.6764C127.998 91.0175 127.996 91.34 128.211 91.5834C128.446 91.8501 128.765 92 129.098 92H142.745C143.078 92 143.397 91.8501 143.633 91.5834C143.868 91.3167 144 90.9549 144 90.5777V89.4222C144 88.6367 144.562 88 145.255 88C145.948 88 146.665 88.6367 146.665 89.4222V90.4C146.665 91.5316 146.269 92.6168 145.563 93.417C144.857 94.2171 143.899 94.6667 142.901 94.6667H129.098C128.099 94.6667 127.142 94.2171 126.436 93.417C125.73 92.6168 125.333 91.5316 125.333 90.4V89.4222C125.333 88.6367 126.052 88 126.745 88Z" fill="#111111"/>
</g>
<g id="Size=40px, Filled=true">
<path id="Vector_13" fill-rule="evenodd" clip-rule="evenodd" d="M174 67.3333C170.318 67.3333 167.333 70.3181 167.333 74V94C167.333 97.6819 170.318 100.667 174 100.667H194C197.682 100.667 200.667 97.6819 200.667 94V74C200.667 70.3181 197.682 67.3333 194 67.3333H174ZM185.568 72.2724C185.568 71.3856 184.866 70.6667 184 70.6667C183.133 70.6667 182.431 71.3856 182.431 72.2724V85.6581L180.403 83.5814C179.79 82.9544 178.797 82.9544 178.184 83.5814C177.572 84.2085 177.572 85.2252 178.184 85.8523L182.89 90.6695C183.184 90.9706 183.583 91.1398 183.999 91.1398C184.415 91.1398 184.814 90.9706 185.108 90.6695L189.814 85.8523C190.426 85.2252 190.426 84.2085 189.814 83.5814C189.201 82.9544 188.208 82.9544 187.596 83.5814L185.568 85.6568V72.2724ZM172.431 89C173.298 89 174 89.7959 174 90.7778V92.2222L173.999 92.3455C173.997 92.7719 173.995 93.1751 174.263 93.4793C174.557 93.8127 174.956 94 175.372 94H192.431C192.847 94 193.246 93.8127 193.541 93.4793C193.835 93.1459 194 92.6937 194 92.2222V90.7778C194 89.7959 194.702 89 195.568 89C196.435 89 197.332 89.7959 197.332 90.7778V92C197.332 93.4145 196.836 94.7711 195.953 95.7712C195.071 96.7714 193.874 97.3333 192.626 97.3333H175.372C174.124 97.3333 172.927 96.7714 172.045 95.7712C171.162 94.7711 170.667 93.4145 170.667 92V90.7778C170.667 89.7959 171.565 89 172.431 89Z" fill="#111111"/>
</g>
<g id="Size=48px, Filled=true">
<path id="Vector_14" fill-rule="evenodd" clip-rule="evenodd" d="M228 64C223.582 64 220 67.5817 220 72V96C220 100.418 223.582 104 228 104H252C256.418 104 260 100.418 260 96V72C260 67.5817 256.418 64 252 64H228ZM241.882 69.9269C241.882 68.8627 241.039 68 240 68C238.96 68 238.118 68.8627 238.118 69.9269V85.9897L235.683 83.4977C234.948 82.7452 233.756 82.7452 233.021 83.4977C232.286 84.2502 232.286 85.4702 233.021 86.2227L238.668 92.0034C239.021 92.3647 239.5 92.5677 239.999 92.5677C240.498 92.5677 240.977 92.3647 241.33 92.0034L246.977 86.2227C247.712 85.4702 247.712 84.2502 246.977 83.4977C246.242 82.7452 245.05 82.7452 244.315 83.4977L241.882 85.9882V69.9269ZM226.118 90C227.157 90 228 90.9551 228 92.1333V93.8666L227.999 94.0146C227.996 94.5263 227.994 95.0101 228.316 95.3751C228.669 95.7752 229.148 96 229.647 96H250.118C250.617 96 251.096 95.7752 251.449 95.3751C251.802 94.975 252 94.4324 252 93.8666V92.1333C252 90.9551 252.843 90 253.882 90C254.922 90 255.998 90.9551 255.998 92.1333V93.6C255.998 95.2974 255.403 96.9253 254.344 98.1255C253.285 99.3257 251.849 100 250.351 100H229.647C228.149 100 226.713 99.3257 225.654 98.1255C224.595 96.9253 224 95.2974 224 93.6V92.1333C224 90.9551 225.078 90 226.118 90Z" fill="#111111"/>
</g>
</g>
</g>
<defs>
<clipPath id="clip0_3477_534">
<rect width="264" height="108" rx="5" fill="white"/>
</clipPath>
<clipPath id="clip1_3477_534">
<rect width="32" height="32" fill="white" transform="translate(120 8)"/>
</clipPath>
<clipPath id="clip2_3477_534">
<rect width="40" height="40" fill="white" transform="translate(164 4)"/>
</clipPath>
<clipPath id="clip3_3477_534">
<rect width="48" height="48" fill="white" transform="translate(216)"/>
</clipPath>
</defs>
</svg>
