<svg width="264" height="108" viewBox="0 0 264 108" fill="none" xmlns="http://www.w3.org/2000/svg">
<g id="Edit">
<g clip-path="url(#clip0_1107_690)">
<g id="Size=12px, Filled=false">
<path id="Vector" d="M7.87988 19.88L10.1299 22.13M6.37988 21.38L8.62988 23.63M1.14368 26.6522L3.36272 28.8651M11.0999 18.9101C10.7559 18.5676 10.2894 18.3768 9.80399 18.38C9.31859 18.3833 8.85465 18.5805 8.51538 18.9276L1.26538 26.1776L0.379883 29.6301L3.83238 28.7446L11.0824 21.4946C11.4295 21.1554 11.6267 20.6914 11.63 20.206C11.6333 19.7206 11.4424 19.2541 11.0999 18.9101Z" stroke="#111111" stroke-width="0.75" stroke-linecap="round" stroke-linejoin="round"/>
</g>
<g id="Size=16px, Filled=false">
<path id="Vector_2" d="M34.5 18.5L37.5 21.5M32.5 20.5L35.5 23.5M25.5206 27.5208L28.4793 30.4796M38.7933 17.2068C38.3348 16.7501 37.7127 16.4957 37.0655 16.5001C36.4183 16.5044 35.7997 16.7673 35.3473 17.2302L25.6807 26.8968L24.5 31.5002L29.1033 30.3195L38.77 20.6528C39.2329 20.2005 39.4957 19.5819 39.5001 18.9347C39.5045 18.2875 39.25 17.6654 38.7933 17.2068Z" stroke="#111111" stroke-linecap="round" stroke-linejoin="round"/>
</g>
<g id="Size=20px, Filled=false">
<path id="Vector_3" d="M65.1299 17.13L68.8799 20.88M62.6299 19.63L66.3799 23.38M53.9061 28.4043L57.5977 32.1061M70.4966 15.5136C69.9233 14.9427 69.1457 14.6246 68.3367 14.6301C67.5277 14.6356 66.7545 14.9641 66.1891 15.5427L54.1057 27.6261L52.6299 33.3802L58.3841 31.9044L70.4674 19.8211C71.046 19.2556 71.3746 18.4824 71.38 17.6734C71.3855 16.8644 71.0674 16.0868 70.4966 15.5136Z" stroke="#111111" stroke-width="1.25" stroke-linecap="round" stroke-linejoin="round"/>
</g>
<g id="Size=24px, Filled=false">
<path id="Vector_4" d="M100.402 14.7065L105.293 19.5978M98.4457 16.663L103.337 21.5543M86.7065 28.4022L91.5978 33.2935M106.19 13.8103C105.502 13.1252 104.569 12.7435 103.598 12.7501C102.627 12.7567 101.699 13.151 101.021 13.8453L86.521 28.3451L84.75 35.25L91.6549 33.479L106.155 18.9792C106.849 18.3007 107.243 17.3728 107.25 16.402C107.256 15.4312 106.875 14.4981 106.19 13.8103Z" stroke="#111111" stroke-width="1.5" stroke-linecap="round" stroke-linejoin="round"/>
</g>
<g id="Size=32px, Filled=false">
<path id="Vector_5" d="M141 13L147 19M137 17L143 23M123 31L129 37M149.587 10.4137C148.67 9.50029 147.425 8.99135 146.131 9.00011C144.837 9.00888 143.599 9.53462 142.695 10.4604L123.361 29.7937L121 39.0004L130.207 36.639L149.54 17.3057C150.466 16.401 150.991 15.1638 151 13.8694C151.009 12.575 150.5 11.3309 149.587 10.4137Z" stroke="#111111" stroke-width="2" stroke-linecap="round" stroke-linejoin="round"/>
</g>
<g id="Size=40px, Filled=false">
<path id="Vector_6" d="M190.25 10.25L197.75 17.75M185.25 15.25L192.75 22.75M167.75 32.75L175.25 40.25M200.983 7.01711C199.837 5.87536 198.282 5.23918 196.664 5.25014C195.046 5.26109 193.499 5.91827 192.368 7.07544L168.202 31.2421L165.25 42.7504L176.758 39.7988L200.925 15.6321C202.082 14.5012 202.739 12.9547 202.75 11.3368C202.761 9.7188 202.125 8.16356 200.983 7.01711Z" stroke="#111111" stroke-width="2.5" stroke-linecap="round" stroke-linejoin="round"/>
</g>
<g id="Size=48px, Filled=false">
<path id="Vector_7" d="M247.5 7.5L256.5 16.5M241.5 13.5L250.5 22.5M220.5 34.5L229.5 43.5M260.38 3.62053C259.004 2.25043 257.138 1.48702 255.196 1.50017C253.255 1.51331 251.399 2.30193 250.042 3.69053L221.042 32.6905L217.5 46.5005L231.31 42.9585L260.31 13.9585C261.699 12.6015 262.487 10.7457 262.5 8.80413C262.514 6.86256 261.75 4.99628 260.38 3.62053Z" stroke="#111111" stroke-width="3" stroke-linecap="round" stroke-linejoin="round"/>
</g>
<g id="Size=12px, Filled=true" clip-path="url(#clip1_1107_690)">
<g id="Vector_8">
<path d="M8.09503 79.755C8.04745 79.7089 7.98379 79.6831 7.91753 79.6831C7.85126 79.6831 7.7876 79.7089 7.74003 79.755L2.03503 85.46C2.0116 85.4832 1.993 85.5109 1.98031 85.5414C1.96761 85.5718 1.96108 85.6045 1.96108 85.6375C1.96108 85.6705 1.96761 85.7032 1.98031 85.7336C1.993 85.7641 2.0116 85.7918 2.03503 85.815L4.17503 87.955C4.19747 87.9789 4.22458 87.998 4.25468 88.011C4.28478 88.024 4.31723 88.0308 4.35003 88.0308C4.38283 88.0308 4.41528 88.024 4.44538 88.011C4.47547 87.998 4.50258 87.9789 4.52503 87.955L10.235 82.25C10.2812 82.2024 10.3069 82.1388 10.3069 82.0725C10.3069 82.0062 10.2812 81.9426 10.235 81.895L8.09503 79.755Z" fill="#111111"/>
<path d="M1.50003 86.355C1.4694 86.3254 1.43185 86.3039 1.3908 86.2926C1.34975 86.2812 1.30651 86.2803 1.26503 86.29C1.22301 86.2989 1.18414 86.3189 1.15248 86.3479C1.12081 86.3769 1.09752 86.4139 1.08503 86.455L2.85096e-05 89.665C-0.0151283 89.7088 -0.017536 89.756 -0.00691491 89.8012C0.00370622 89.8463 0.02692 89.8875 0.0600285 89.92C0.0917875 89.9589 0.134533 89.9874 0.182693 90.0016C0.230854 90.0159 0.282196 90.0153 0.330029 90L3.54003 88.93C3.58017 88.9158 3.6162 88.892 3.64497 88.8606C3.67374 88.8292 3.69437 88.7912 3.70503 88.75C3.71795 88.7059 3.71824 88.6592 3.70586 88.615C3.69349 88.5708 3.66894 88.5309 3.63503 88.5L1.50003 86.355Z" fill="#111111"/>
<path d="M11.5 78.5C11.1645 78.1762 10.7164 77.9952 10.25 77.9952C9.7837 77.9952 9.33557 78.1762 9.00003 78.5L8.64503 78.855C8.6216 78.8782 8.603 78.9059 8.59031 78.9364C8.57761 78.9668 8.57108 78.9995 8.57108 79.0325C8.57108 79.0655 8.57761 79.0982 8.59031 79.1286C8.603 79.1591 8.6216 79.1868 8.64503 79.21L10.785 81.35C10.8324 81.3946 10.895 81.4195 10.96 81.4195C11.0251 81.4195 11.0877 81.3946 11.135 81.35L11.5 81C11.6645 80.836 11.795 80.6412 11.8841 80.4267C11.9731 80.2122 12.0189 79.9822 12.0189 79.75C12.0189 79.5177 11.9731 79.2878 11.8841 79.0733C11.795 78.8588 11.6645 78.664 11.5 78.5Z" fill="#111111"/>
</g>
</g>
<g id="Size=16px, Filled=true" clip-path="url(#clip2_1107_690)">
<g id="Vector_9">
<path d="M34.7935 78.34C34.73 78.2785 34.6451 78.2441 34.5568 78.2441C34.4684 78.2441 34.3836 78.2785 34.3201 78.34L26.7135 85.9467C26.6822 85.9777 26.6574 86.0145 26.6405 86.0552C26.6236 86.0958 26.6149 86.1393 26.6149 86.1833C26.6149 86.2274 26.6236 86.2709 26.6405 86.3115C26.6574 86.3522 26.6822 86.389 26.7135 86.42L29.5668 89.2733C29.5967 89.3052 29.6329 89.3306 29.673 89.348C29.7131 89.3654 29.7564 89.3744 29.8001 89.3744C29.8439 89.3744 29.8871 89.3654 29.9272 89.348C29.9674 89.3306 30.0035 89.3052 30.0335 89.2733L37.6468 81.6667C37.7083 81.6032 37.7427 81.5184 37.7427 81.43C37.7427 81.3417 37.7083 81.2568 37.6468 81.1933L34.7935 78.34Z" fill="#111111"/>
<path d="M26.0001 87.14C25.9593 87.1005 25.9092 87.0719 25.8545 87.0568C25.7997 87.0417 25.7421 87.0405 25.6868 87.0533C25.6308 87.0652 25.5789 87.0918 25.5367 87.1305C25.4945 87.1692 25.4634 87.2186 25.4468 87.2733L24.0001 91.5533C23.9799 91.6118 23.9767 91.6747 23.9909 91.7349C24.005 91.7951 24.036 91.8501 24.0801 91.8933C24.1225 91.9452 24.1795 91.9832 24.2437 92.0022C24.3079 92.0212 24.3763 92.0205 24.4401 92L28.7201 90.5733C28.7736 90.5544 28.8217 90.5226 28.86 90.4808C28.8984 90.4389 28.9259 90.3883 28.9401 90.3333C28.9573 90.2746 28.9577 90.2122 28.9412 90.1533C28.9247 90.0944 28.892 90.0413 28.8468 90L26.0001 87.14Z" fill="#111111"/>
<path d="M39.3335 76.6667C38.8861 76.2349 38.2886 75.9936 37.6668 75.9936C37.045 75.9936 36.4475 76.2349 36.0001 76.6667L35.5268 77.14C35.4955 77.171 35.4707 77.2079 35.4538 77.2485C35.4369 77.2891 35.4282 77.3327 35.4282 77.3767C35.4282 77.4207 35.4369 77.4643 35.4538 77.5049C35.4707 77.5455 35.4955 77.5824 35.5268 77.6133L38.3801 80.4667C38.4432 80.5262 38.5267 80.5594 38.6135 80.5594C38.7002 80.5594 38.7837 80.5262 38.8468 80.4667L39.3335 80C39.5528 79.7814 39.7268 79.5216 39.8455 79.2356C39.9642 78.9496 40.0253 78.643 40.0253 78.3333C40.0253 78.0237 39.9642 77.7171 39.8455 77.4311C39.7268 77.1451 39.5528 76.8853 39.3335 76.6667Z" fill="#111111"/>
</g>
</g>
<g id="Size=20px, Filled=true" clip-path="url(#clip3_1107_690)">
<g id="Vector_10">
<path d="M65.4916 76.925C65.4123 76.8481 65.3062 76.8051 65.1958 76.8051C65.0854 76.8051 64.9793 76.8481 64.9 76.925L55.3916 86.4333C55.3526 86.472 55.3216 86.5181 55.3004 86.5689C55.2793 86.6197 55.2684 86.6741 55.2684 86.7291C55.2684 86.7841 55.2793 86.8386 55.3004 86.8894C55.3216 86.9402 55.3526 86.9862 55.3916 87.025L58.9583 90.5916C58.9957 90.6315 59.0409 90.6633 59.0911 90.685C59.1412 90.7067 59.1953 90.7179 59.25 90.7179C59.3046 90.7179 59.3587 90.7067 59.4089 90.685C59.459 90.6633 59.5042 90.6315 59.5416 90.5916L69.0583 81.0833C69.1352 81.004 69.1782 80.8979 69.1782 80.7875C69.1782 80.677 69.1352 80.5709 69.0583 80.4916L65.4916 76.925Z" fill="#111111"/>
<path d="M54.5 87.925C54.4489 87.8756 54.3863 87.8399 54.3179 87.821C54.2495 87.802 54.1774 87.8005 54.1083 87.8166C54.0383 87.8314 53.9735 87.8648 53.9207 87.9131C53.8679 87.9615 53.8291 88.0231 53.8083 88.0916L52 93.4416C51.9747 93.5147 51.9707 93.5934 51.9884 93.6686C52.0061 93.7439 52.0448 93.8125 52.1 93.8666C52.1529 93.9315 52.2241 93.9789 52.3044 94.0027C52.3847 94.0265 52.4702 94.0255 52.55 94L57.9 92.2166C57.9669 92.193 58.0269 92.1532 58.0749 92.1009C58.1228 92.0486 58.1572 91.9853 58.175 91.9166C58.1965 91.8432 58.197 91.7652 58.1764 91.6916C58.1557 91.6179 58.1148 91.5515 58.0583 91.5L54.5 87.925Z" fill="#111111"/>
<path d="M71.1666 74.8333C70.6074 74.2936 69.8605 73.9919 69.0833 73.9919C68.3061 73.9919 67.5592 74.2936 67 74.8333L66.4083 75.425C66.3692 75.4637 66.3382 75.5098 66.3171 75.5606C66.2959 75.6113 66.2851 75.6658 66.2851 75.7208C66.2851 75.7758 66.2959 75.8303 66.3171 75.881C66.3382 75.9318 66.3692 75.9779 66.4083 76.0166L69.975 79.5833C70.0538 79.6577 70.1582 79.6992 70.2666 79.6992C70.3751 79.6992 70.4794 79.6577 70.5583 79.5833L71.1666 79C71.4408 78.7267 71.6583 78.402 71.8067 78.0445C71.9551 77.687 72.0315 77.3037 72.0315 76.9166C72.0315 76.5296 71.9551 76.1463 71.8067 75.7888C71.6583 75.4313 71.4408 75.1066 71.1666 74.8333Z" fill="#111111"/>
</g>
</g>
<g id="Size=24px, Filled=true" clip-path="url(#clip4_1107_690)">
<g id="Vector_11">
<path d="M100.19 75.51C100.095 75.4177 99.9676 75.3662 99.8351 75.3662C99.7025 75.3662 99.5752 75.4177 99.4801 75.51L88.0701 86.92C88.0232 86.9665 87.986 87.0218 87.9606 87.0827C87.9352 87.1436 87.9222 87.209 87.9222 87.275C87.9222 87.341 87.9352 87.4063 87.9606 87.4673C87.986 87.5282 88.0232 87.5835 88.0701 87.63L92.3501 91.91C92.3949 91.9578 92.4492 91.9959 92.5094 92.022C92.5696 92.0481 92.6345 92.0615 92.7001 92.0615C92.7657 92.0615 92.8306 92.0481 92.8908 92.022C92.9509 91.9959 93.0052 91.9578 93.0501 91.91L104.47 80.5C104.562 80.4048 104.614 80.2775 104.614 80.145C104.614 80.0125 104.562 79.8851 104.47 79.79L100.19 75.51Z" fill="#111111"/>
<path d="M87.0001 88.71C86.9388 88.6508 86.8637 88.6079 86.7816 88.5852C86.6995 88.5625 86.613 88.5607 86.5301 88.58C86.446 88.5977 86.3683 88.6377 86.305 88.6958C86.2416 88.7538 86.195 88.8278 86.1701 88.91L84.0001 95.33C83.9697 95.4176 83.9649 95.5121 83.9862 95.6024C84.0074 95.6927 84.0538 95.7751 84.1201 95.84C84.1836 95.9178 84.2691 95.9747 84.3654 96.0033C84.4617 96.0318 84.5644 96.0307 84.6601 96L91.0801 93.86C91.1603 93.8316 91.2324 93.7839 91.2899 93.7211C91.3475 93.6584 91.3887 93.5824 91.4101 93.5C91.4359 93.4119 91.4365 93.3183 91.4117 93.2299C91.387 93.1415 91.3379 93.0618 91.2701 93L87.0001 88.71Z" fill="#111111"/>
<path d="M107 73C106.329 72.3523 105.433 71.9904 104.5 71.9904C103.567 71.9904 102.671 72.3523 102 73L101.29 73.71C101.243 73.7565 101.206 73.8118 101.181 73.8727C101.155 73.9336 101.142 73.999 101.142 74.065C101.142 74.131 101.155 74.1963 101.181 74.2573C101.206 74.3182 101.243 74.3735 101.29 74.42L105.57 78.7C105.665 78.7893 105.79 78.839 105.92 78.839C106.05 78.839 106.175 78.7893 106.27 78.7L107 78C107.329 77.6721 107.59 77.2824 107.768 76.8534C107.946 76.4244 108.038 75.9645 108.038 75.5C108.038 75.0355 107.946 74.5756 107.768 74.1466C107.59 73.7176 107.329 73.3279 107 73Z" fill="#111111"/>
</g>
</g>
<g id="Size=32px, Filled=true" clip-path="url(#clip5_1107_690)">
<g id="Vector_12">
<path d="M141.587 72.68C141.46 72.557 141.29 72.4882 141.113 72.4882C140.937 72.4882 140.767 72.557 140.64 72.68L125.427 87.8934C125.364 87.9553 125.315 88.0291 125.281 88.1103C125.247 88.1915 125.229 88.2787 125.229 88.3667C125.229 88.4547 125.247 88.5418 125.281 88.6231C125.315 88.7043 125.364 88.7781 125.427 88.84L131.133 94.5467C131.193 94.6105 131.265 94.6613 131.346 94.696C131.426 94.7308 131.513 94.7487 131.6 94.7487C131.687 94.7487 131.774 94.7308 131.854 94.696C131.935 94.6613 132.007 94.6105 132.067 94.5467L147.293 79.3334C147.416 79.2065 147.485 79.0367 147.485 78.86C147.485 78.6833 147.416 78.5136 147.293 78.3867L141.587 72.68Z" fill="#111111"/>
<path d="M124 90.28C123.918 90.2011 123.818 90.1439 123.709 90.1136C123.599 90.0833 123.484 90.081 123.373 90.1067C123.261 90.1304 123.158 90.1837 123.073 90.2611C122.989 90.3385 122.927 90.4371 122.893 90.5467L120 99.1067C119.96 99.2236 119.953 99.3495 119.981 99.4699C120.01 99.5902 120.072 99.7001 120.16 99.7867C120.245 99.8905 120.359 99.9663 120.487 100.004C120.616 100.042 120.752 100.041 120.88 100L129.44 97.1467C129.547 97.1088 129.643 97.0453 129.72 96.9616C129.797 96.8779 129.852 96.7766 129.88 96.6667C129.914 96.5492 129.915 96.4245 129.882 96.3066C129.849 96.1887 129.784 96.0825 129.693 96L124 90.28Z" fill="#111111"/>
<path d="M150.667 69.3334C149.772 68.4698 148.577 67.9872 147.333 67.9872C146.09 67.9872 144.895 68.4698 144 69.3334L143.053 70.28C142.991 70.342 142.941 70.4157 142.907 70.497C142.874 70.5782 142.856 70.6654 142.856 70.7534C142.856 70.8414 142.874 70.9285 142.907 71.0097C142.941 71.091 142.991 71.1647 143.053 71.2267L148.76 76.9334C148.886 77.0524 149.053 77.1188 149.227 77.1188C149.4 77.1188 149.567 77.0524 149.693 76.9334L150.667 76C151.105 75.5628 151.453 75.0433 151.691 74.4713C151.928 73.8993 152.05 73.286 152.05 72.6667C152.05 72.0474 151.928 71.4341 151.691 70.8621C151.453 70.2901 151.105 69.7706 150.667 69.3334Z" fill="#111111"/>
</g>
</g>
<g id="Size=40px, Filled=true" clip-path="url(#clip6_1107_690)">
<g id="Vector_13">
<path d="M190.983 69.85C190.825 69.6963 190.612 69.6103 190.392 69.6103C190.171 69.6103 189.959 69.6963 189.8 69.85L170.783 88.8667C170.705 88.9441 170.643 89.0363 170.601 89.1379C170.559 89.2394 170.537 89.3483 170.537 89.4583C170.537 89.5683 170.559 89.6773 170.601 89.7788C170.643 89.8804 170.705 89.9725 170.783 90.05L177.917 97.1833C177.991 97.2631 178.082 97.3266 178.182 97.37C178.282 97.4135 178.391 97.4359 178.5 97.4359C178.609 97.4359 178.717 97.4135 178.818 97.37C178.918 97.3266 179.008 97.2631 179.083 97.1833L198.117 78.1667C198.27 78.0081 198.356 77.7959 198.356 77.575C198.356 77.3541 198.27 77.1419 198.117 76.9833L190.983 69.85Z" fill="#111111"/>
<path d="M169 91.85C168.898 91.7513 168.773 91.6798 168.636 91.642C168.499 91.6041 168.355 91.6012 168.217 91.6333C168.077 91.6629 167.947 91.7296 167.841 91.8263C167.736 91.9231 167.658 92.0464 167.617 92.1833L164 102.883C163.949 103.029 163.941 103.187 163.977 103.337C164.012 103.488 164.09 103.625 164.2 103.733C164.306 103.863 164.448 103.958 164.609 104.005C164.769 104.053 164.94 104.051 165.1 104L175.8 100.433C175.934 100.386 176.054 100.307 176.15 100.202C176.246 100.097 176.314 99.9707 176.35 99.8333C176.393 99.6865 176.394 99.5306 176.353 99.3832C176.311 99.2359 176.23 99.1031 176.117 99L169 91.85Z" fill="#111111"/>
<path d="M202.333 65.6667C201.215 64.5872 199.721 63.9839 198.167 63.9839C196.612 63.9839 195.118 64.5872 194 65.6667L192.817 66.85C192.738 66.9275 192.676 67.0196 192.634 67.1212C192.592 67.2227 192.57 67.3317 192.57 67.4417C192.57 67.5517 192.592 67.6606 192.634 67.7622C192.676 67.8637 192.738 67.9559 192.817 68.0333L199.95 75.1667C200.108 75.3155 200.316 75.3984 200.533 75.3984C200.75 75.3984 200.959 75.3155 201.117 75.1667L202.333 74C202.882 73.4534 203.317 72.8041 203.613 72.0891C203.91 71.3741 204.063 70.6075 204.063 69.8333C204.063 69.0592 203.91 68.2926 203.613 67.5776C203.317 66.8626 202.882 66.2132 202.333 65.6667Z" fill="#111111"/>
</g>
</g>
<g id="Size=48px, Filled=true" clip-path="url(#clip7_1107_690)">
<g id="Vector_14">
<path d="M248.38 67.02C248.19 66.8355 247.935 66.7323 247.67 66.7323C247.405 66.7323 247.15 66.8355 246.96 67.02L224.14 89.84C224.046 89.9329 223.972 90.0435 223.921 90.1654C223.87 90.2873 223.844 90.418 223.844 90.55C223.844 90.682 223.87 90.8127 223.921 90.9346C223.972 91.0564 224.046 91.167 224.14 91.26L232.7 99.82C232.79 99.9156 232.898 99.9919 233.019 100.044C233.139 100.096 233.269 100.123 233.4 100.123C233.531 100.123 233.661 100.096 233.782 100.044C233.902 99.9919 234.01 99.9156 234.1 99.82L256.94 77C257.125 76.8097 257.228 76.555 257.228 76.29C257.228 76.0249 257.125 75.7703 256.94 75.58L248.38 67.02Z" fill="#111111"/>
<path d="M222 93.42C221.878 93.3016 221.727 93.2158 221.563 93.1703C221.399 93.1249 221.226 93.1214 221.06 93.16C220.892 93.1955 220.737 93.2755 220.61 93.3916C220.483 93.5077 220.39 93.6556 220.34 93.82L216 106.66C215.939 106.835 215.93 107.024 215.972 107.205C216.015 107.385 216.108 107.55 216.24 107.68C216.367 107.836 216.538 107.949 216.731 108.007C216.923 108.064 217.129 108.061 217.32 108L230.16 103.72C230.321 103.663 230.465 103.568 230.58 103.442C230.695 103.317 230.777 103.165 230.82 103C230.872 102.824 230.873 102.637 230.823 102.46C230.774 102.283 230.676 102.124 230.54 102L222 93.42Z" fill="#111111"/>
<path d="M262 62C260.658 60.7046 258.865 59.9807 257 59.9807C255.135 59.9807 253.342 60.7046 252 62L250.58 63.42C250.486 63.5129 250.412 63.6235 250.361 63.7454C250.31 63.8673 250.284 63.998 250.284 64.13C250.284 64.262 250.31 64.3927 250.361 64.5146C250.412 64.6364 250.486 64.747 250.58 64.84L259.14 73.4C259.329 73.5786 259.58 73.6781 259.84 73.6781C260.1 73.6781 260.351 73.5786 260.54 73.4L262 72C262.658 71.3441 263.18 70.5648 263.536 69.7068C263.892 68.8488 264.076 67.929 264.076 67C264.076 66.071 263.892 65.1511 263.536 64.2931C263.18 63.4351 262.658 62.6558 262 62Z" fill="#111111"/>
</g>
</g>
</g>
</g>
<defs>
<clipPath id="clip0_1107_690">
<rect width="264" height="108" rx="5" fill="white"/>
</clipPath>
<clipPath id="clip1_1107_690">
<rect width="12" height="12" fill="white" transform="translate(0 78)"/>
</clipPath>
<clipPath id="clip2_1107_690">
<rect width="16" height="16" fill="white" transform="translate(24 76)"/>
</clipPath>
<clipPath id="clip3_1107_690">
<rect width="20" height="20" fill="white" transform="translate(52 74)"/>
</clipPath>
<clipPath id="clip4_1107_690">
<rect width="24" height="24" fill="white" transform="translate(84 72)"/>
</clipPath>
<clipPath id="clip5_1107_690">
<rect width="32" height="32" fill="white" transform="translate(120 68)"/>
</clipPath>
<clipPath id="clip6_1107_690">
<rect width="40" height="40" fill="white" transform="translate(164 64)"/>
</clipPath>
<clipPath id="clip7_1107_690">
<rect width="48" height="48" fill="white" transform="translate(216 60)"/>
</clipPath>
</defs>
</svg>
