<svg width="264" height="108" viewBox="0 0 264 108" fill="none" xmlns="http://www.w3.org/2000/svg">
<g id="Add favorite">
<g clip-path="url(#clip0_2261_896)">
<g id="Size=12px, Filled=false">
<path id="Vector" d="M8.25 24.75V27.75M6.75 26.25H9.75M4.2362 26.25L1.52539 23.3618C0.719745 22.5396 0.519989 21.2833 1.0295 20.2431C1.40993 19.4664 2.13296 18.9238 2.97265 18.7849C3.81235 18.6459 4.66629 18.9275 5.26763 19.5417L6.00003 20.2869L6.73057 19.5417C7.33191 18.9275 8.18585 18.6459 9.02555 18.7849C9.86524 18.9238 10.5883 19.4664 10.9687 20.2431C11.3439 21.0106 11.34 21.9144 10.958 22.6784M8.25 29.25C9.90685 29.25 11.25 27.9069 11.25 26.25C11.25 24.5931 9.90685 23.25 8.25 23.25C6.59315 23.25 5.25 24.5931 5.25 26.25C5.25 27.9069 6.59315 29.25 8.25 29.25Z" stroke="#111111" stroke-width="0.75" stroke-linecap="round" stroke-linejoin="round"/>
</g>
<g id="Size=16px, Filled=false">
<path id="Vector_2" d="M35 25V29M33 27H37M29.6483 27L26.0338 23.1491C24.9597 22.0528 24.6933 20.3777 25.3727 18.9908C25.8799 17.9553 26.8439 17.2318 27.9635 17.0465C29.0831 16.8612 30.2217 17.2366 31.0235 18.0556L32 19.0493L32.9741 18.0556C33.7759 17.2366 34.9145 16.8612 36.0341 17.0465C37.1537 17.2318 38.1177 17.9553 38.6249 18.9908C39.1253 20.0142 39.1199 21.2192 38.6106 22.2379M35 31C37.2091 31 39 29.2091 39 27C39 24.7909 37.2091 23 35 23C32.7909 23 31 24.7909 31 27C31 29.2091 32.7909 31 35 31Z" stroke="#111111" stroke-linecap="round" stroke-linejoin="round"/>
</g>
<g id="Size=20px, Filled=false">
<path id="Vector_3" d="M65.75 25.25V30.25M63.25 27.75H68.25M59.0603 27.75L54.5423 22.9363C53.1996 21.5659 52.8666 19.4721 53.7158 17.7385C54.3499 16.4441 55.5549 15.5397 56.9544 15.3081C58.3539 15.0765 59.7772 15.5458 60.7794 16.5695L62.0001 17.8116L63.2176 16.5695C64.2198 15.5458 65.6431 15.0765 67.0426 15.3081C68.4421 15.5397 69.6471 16.4441 70.2812 17.7385C70.9066 19.0177 70.8999 20.524 70.2633 21.7974M65.75 32.75C68.5114 32.75 70.75 30.5114 70.75 27.75C70.75 24.9886 68.5114 22.75 65.75 22.75C62.9886 22.75 60.75 24.9886 60.75 27.75C60.75 30.5114 62.9886 32.75 65.75 32.75Z" stroke="#111111" stroke-width="1.25" stroke-linecap="round" stroke-linejoin="round"/>
</g>
<g id="Size=24px, Filled=false">
<path id="Vector_4" d="M100.668 26.0039V31.3373M98.0026 28.6706H103.334M92.6402 28.0039L87.4767 22.6126C85.9421 21.0778 85.5616 18.7328 86.5321 16.7912C87.2568 15.3414 88.634 14.3285 90.2334 14.0691C91.8328 13.8097 93.4594 14.3353 94.6048 15.4818L95.9999 16.873L97.3914 15.4818C98.5368 14.3353 100.163 13.8097 101.763 14.0691C103.362 14.3285 104.739 15.3414 105.464 16.7912C106.179 18.2238 106.171 19.9109 105.444 21.3371M100.668 34.0041C103.613 34.0041 106 31.6162 106 28.6706C106 25.725 103.613 23.3371 100.668 23.3371C97.7238 23.3371 95.3368 25.725 95.3368 28.6706C95.3368 31.6162 97.7238 34.0041 100.668 34.0041Z" stroke="#111111" stroke-width="1.5" stroke-linecap="round" stroke-linejoin="round"/>
</g>
<g id="Size=32px, Filled=false">
<path id="Vector_5" d="M142 26V34M138 30H146M131.297 30L124.068 22.2982C121.919 20.1055 121.387 16.7554 122.745 13.9817C123.76 11.9105 125.688 10.4635 127.927 10.0929C130.166 9.72233 132.443 10.4733 134.047 12.1111L136 14.0985L137.948 12.1111C139.552 10.4733 141.829 9.72233 144.068 10.0929C146.307 10.4635 148.235 11.9105 149.25 13.9817C150.251 16.0284 150.24 18.4384 149.221 20.4759M142 38C146.418 38 150 34.4183 150 30C150 25.5817 146.418 22 142 22C137.582 22 134 25.5817 134 30C134 34.4183 137.582 38 142 38Z" stroke="#111111" stroke-width="2" stroke-linecap="round" stroke-linejoin="round"/>
</g>
<g id="Size=40px, Filled=false">
<path id="Vector_6" d="M191.5 26.5V36.5M186.5 31.5H196.5M178.121 31.5L169.085 21.8727C166.399 19.1319 165.733 14.9443 167.432 11.4771C168.7 8.88814 171.11 7.07943 173.909 6.61617C176.708 6.15291 179.554 7.09161 181.559 9.13892L184 11.6231L186.435 9.13892C188.44 7.09161 191.286 6.15291 194.085 6.61617C196.884 7.07943 199.294 8.88814 200.562 11.4771C201.813 14.0355 201.8 17.0481 200.527 19.5948M191.5 41.5C197.023 41.5 201.5 37.0228 201.5 31.5C201.5 25.9772 197.023 21.5 191.5 21.5C185.977 21.5 181.5 25.9772 181.5 31.5C181.5 37.0228 185.977 41.5 191.5 41.5Z" stroke="#111111" stroke-width="2.5" stroke-linecap="round" stroke-linejoin="round"/>
</g>
<g id="Size=48px, Filled=false">
<path id="Vector_7" d="M249 27V39M243 33H255M232.945 33L222.102 21.4472C218.879 18.1583 218.08 13.1331 220.118 8.97252C221.64 5.86577 224.532 3.69531 227.891 3.1394C231.249 2.58349 234.665 3.70993 237.071 6.16671L240 9.14776L242.922 6.16671C245.328 3.70993 248.743 2.58349 252.102 3.1394C255.461 3.69531 258.353 5.86577 259.875 8.97252C261.376 12.0425 261.36 15.6577 259.832 18.7138M249 45C255.627 45 261 39.6274 261 33C261 26.3726 255.627 21 249 21C242.373 21 237 26.3726 237 33C237 39.6274 242.373 45 249 45Z" stroke="#111111" stroke-width="3" stroke-linecap="round" stroke-linejoin="round"/>
</g>
<g id="Size=12px, Filled=true" clip-path="url(#clip1_2261_896)">
<g id="Vector_8">
<path d="M4.74649 86.8646C4.7438 86.839 4.73135 86.8151 4.71151 86.7977L1.66378 83.6366C1.32529 83.3206 1.10144 82.9092 1.02502 82.4625C0.948593 82.0159 1.02362 81.5576 1.2391 81.1547C1.39957 80.8485 1.6344 80.5837 1.92389 80.3823C2.21337 80.1809 2.54908 80.049 2.90286 79.9974C3.26285 79.9387 3.63232 79.9636 3.98012 80.0701C4.32793 80.1767 4.64389 80.3617 4.90137 80.6095L5.6658 81.279C5.75791 81.3597 5.87822 81.4044 6.00305 81.4044C6.12789 81.4044 6.2482 81.3597 6.3403 81.279L7.11472 80.5808C7.37388 80.3358 7.69051 80.1537 8.03817 80.0497C8.38584 79.9458 8.75445 79.9229 9.11324 79.9831C9.46552 80.039 9.79882 80.1744 10.0855 80.3782C10.3723 80.5819 10.6041 80.8481 10.762 81.1547C10.9243 81.4563 11.0031 81.7927 10.9908 82.1318C10.9786 82.4709 10.8757 82.8013 10.6921 83.0915C10.6793 83.1222 10.6793 83.1564 10.6921 83.1871C10.6969 83.2028 10.7052 83.2173 10.7164 83.2297C10.7276 83.2421 10.7415 83.252 10.757 83.2589C10.9732 83.3624 11.1804 83.4824 11.3766 83.6175C11.3903 83.6284 11.4064 83.6361 11.4237 83.6403C11.441 83.6444 11.459 83.6448 11.4765 83.6414C11.4932 83.6376 11.5089 83.6306 11.5227 83.6207C11.5365 83.6108 11.5479 83.5984 11.5564 83.584C11.8268 83.1536 11.9783 82.6643 11.9966 82.1624C12.015 81.6604 11.8996 81.1622 11.6613 80.7147C11.4265 80.275 11.0869 79.8943 10.6698 79.6034C10.2528 79.3126 9.77012 79.1198 9.26081 79.0407C8.7515 78.9615 8.22988 78.9982 7.73814 79.1478C7.2464 79.2974 6.79835 79.5557 6.43023 79.9018L5.99556 80.2748L5.58087 79.9161C5.21358 79.5666 4.76462 79.3058 4.27114 79.1553C3.77766 79.0047 3.25383 78.9688 2.74298 79.0505C2.23414 79.1265 1.75157 79.3175 1.33535 79.6078C0.919117 79.8981 0.581238 80.2792 0.349762 80.7195C0.0406017 81.2976 -0.0684215 81.9549 0.0384613 82.5962C0.145344 83.2375 0.462592 83.8297 0.94432 84.287L4.49667 87.9598C4.51314 87.9775 4.53477 87.9902 4.55879 87.9962C4.58282 88.0021 4.60816 88.0011 4.63157 87.9932C4.65448 87.9841 4.67418 87.9689 4.68835 87.9494C4.70251 87.9299 4.71055 87.907 4.71151 87.8832L4.74649 86.8646Z" fill="#111111"/>
<path d="M8.50003 83C7.90669 83 7.32667 83.1759 6.83332 83.5056C6.33997 83.8352 5.95546 84.3038 5.72839 84.8519C5.50133 85.4001 5.44192 86.0033 5.55768 86.5853C5.67343 87.1672 5.95915 87.7018 6.37871 88.1213C6.79827 88.5409 7.33282 88.8266 7.91476 88.9424C8.4967 89.0581 9.0999 88.9987 9.64808 88.7716C10.1963 88.5446 10.6648 88.1601 10.9944 87.6667C11.3241 87.1734 11.5 86.5933 11.5 86C11.4988 85.2047 11.1823 84.4424 10.62 83.88C10.0577 83.3177 9.29531 83.0012 8.50003 83ZM9.65388 85.6354C9.74568 85.6354 9.83373 85.6719 9.89865 85.7368C9.96356 85.8017 10 85.8897 10 85.9815C10 86.0733 9.96356 86.1614 9.89865 86.2263C9.83373 86.2912 9.74568 86.3277 9.65388 86.3277H8.96157C8.93097 86.3277 8.90162 86.3398 8.87998 86.3615C8.85834 86.3831 8.84618 86.4125 8.84618 86.4431V87.1354C8.84618 87.2272 8.80972 87.3152 8.7448 87.3802C8.67988 87.4451 8.59184 87.4815 8.50003 87.4815C8.40823 87.4815 8.32018 87.4451 8.25526 87.3802C8.19035 87.3152 8.15388 87.2272 8.15388 87.1354V86.4431C8.15388 86.4125 8.14172 86.3831 8.12008 86.3615C8.09844 86.3398 8.0691 86.3277 8.03849 86.3277H7.34619C7.25438 86.3277 7.16633 86.2912 7.10142 86.2263C7.0365 86.1614 7.00003 86.0733 7.00003 85.9815C7.00003 85.8897 7.0365 85.8017 7.10142 85.7368C7.16633 85.6719 7.25438 85.6354 7.34619 85.6354H8.03849C8.0691 85.6354 8.09844 85.6232 8.12008 85.6016C8.14172 85.58 8.15388 85.5506 8.15388 85.52V84.8277C8.15388 84.7359 8.19035 84.6478 8.25526 84.5829C8.32018 84.518 8.40823 84.4815 8.50003 84.4815C8.59184 84.4815 8.67988 84.518 8.7448 84.5829C8.80972 84.6478 8.84618 84.7359 8.84618 84.8277V85.52C8.84618 85.5506 8.85834 85.58 8.87998 85.6016C8.90162 85.6232 8.93097 85.6354 8.96157 85.6354H9.65388Z" fill="#111111"/>
</g>
</g>
<g id="Size=16px, Filled=true" clip-path="url(#clip2_2261_896)">
<g id="Vector_9">
<path d="M30.3287 87.8195C30.3251 87.7853 30.3085 87.7536 30.282 87.7303L26.2184 83.5156C25.7671 83.0942 25.4686 82.5456 25.3667 81.9501C25.2648 81.3545 25.3648 80.7434 25.6521 80.2063C25.8661 79.7981 26.1792 79.4449 26.5652 79.1765C26.9512 78.908 27.3988 78.732 27.8705 78.6632C28.3505 78.5849 28.8431 78.6182 29.3068 78.7602C29.7706 78.9023 30.1919 79.1489 30.5352 79.4794L31.5544 80.3721C31.6772 80.4796 31.8376 80.5393 32.0041 80.5393C32.1705 80.5393 32.3309 80.4796 32.4537 80.3721L33.4863 79.4411C33.8318 79.1145 34.254 78.8717 34.7176 78.733C35.1811 78.5944 35.6726 78.5639 36.151 78.6441C36.6207 78.7187 37.0651 78.8993 37.4474 79.1709C37.8297 79.4426 38.1389 79.7975 38.3493 80.2063C38.5657 80.6085 38.6707 81.057 38.6544 81.5091C38.6381 81.9612 38.5009 82.4018 38.2561 82.7887C38.239 82.8296 38.239 82.8753 38.2561 82.9162C38.2626 82.9371 38.2736 82.9565 38.2886 82.973C38.3035 82.9895 38.322 83.0027 38.3427 83.0118C38.6309 83.1499 38.9071 83.3099 39.1687 83.4901C39.1871 83.5045 39.2085 83.5149 39.2316 83.5204C39.2546 83.5259 39.2787 83.5264 39.302 83.5219C39.3243 83.5169 39.3453 83.5075 39.3636 83.4943C39.3819 83.4812 39.3972 83.4645 39.4086 83.4454C39.7691 82.8715 39.9711 82.2192 39.9955 81.5499C40.02 80.8806 39.8661 80.2164 39.5485 79.6197C39.2354 79.0333 38.7825 78.5257 38.2265 78.138C37.6704 77.7502 37.0268 77.4931 36.3477 77.3876C35.6687 77.2821 34.9732 77.331 34.3175 77.5305C33.6619 77.7299 33.0645 78.0743 32.5736 78.5357L31.9941 79.0331L31.4412 78.5548C30.9514 78.0888 30.3528 77.7411 29.6949 77.5404C29.0369 77.3397 28.3384 77.2918 27.6573 77.4007C26.9789 77.502 26.3354 77.7567 25.7805 78.1438C25.2255 78.5308 24.775 79.039 24.4663 79.6261C24.0541 80.3969 23.9088 81.2732 24.0513 82.1283C24.1938 82.9834 24.6168 83.7729 25.2591 84.3827L29.9956 89.2797C30.0175 89.3034 30.0464 89.3203 30.0784 89.3283C30.1104 89.3362 30.1442 89.3349 30.1754 89.3243C30.206 89.3122 30.2322 89.2919 30.2511 89.2659C30.27 89.24 30.2807 89.2093 30.282 89.1777L30.3287 87.8195Z" fill="#111111"/>
<path d="M35.3334 82.6667C34.5423 82.6667 33.7689 82.9013 33.1111 83.3408C32.4533 83.7804 31.9406 84.4051 31.6379 85.136C31.3351 85.8669 31.2559 86.6711 31.4102 87.4471C31.5646 88.223 31.9455 88.9357 32.5049 89.4951C33.0644 90.0545 33.7771 90.4355 34.553 90.5898C35.3289 90.7442 36.1332 90.665 36.8641 90.3622C37.595 90.0595 38.2197 89.5468 38.6593 88.889C39.0988 88.2312 39.3334 87.4578 39.3334 86.6667C39.3317 85.6063 38.9098 84.5899 38.16 83.8401C37.4102 83.0903 36.3937 82.6683 35.3334 82.6667ZM36.8718 86.1806C36.9942 86.1806 37.1116 86.2292 37.1982 86.3157C37.2847 86.4023 37.3334 86.5197 37.3334 86.6421C37.3334 86.7645 37.2847 86.8819 37.1982 86.9684C37.1116 87.055 36.9942 87.1036 36.8718 87.1036H35.9488C35.908 87.1036 35.8688 87.1198 35.84 87.1487C35.8111 87.1775 35.7949 87.2167 35.7949 87.2575V88.1806C35.7949 88.303 35.7463 88.4204 35.6597 88.5069C35.5732 88.5935 35.4558 88.6421 35.3334 88.6421C35.211 88.6421 35.0936 88.5935 35.007 88.5069C34.9205 88.4204 34.8718 88.303 34.8718 88.1806V87.2575C34.8718 87.2167 34.8556 87.1775 34.8268 87.1487C34.7979 87.1198 34.7588 87.1036 34.718 87.1036H33.7949C33.6725 87.1036 33.5551 87.055 33.4686 86.9684C33.382 86.8819 33.3334 86.7645 33.3334 86.6421C33.3334 86.5197 33.382 86.4023 33.4686 86.3157C33.5551 86.2292 33.6725 86.1806 33.7949 86.1806H34.718C34.7588 86.1806 34.7979 86.1643 34.8268 86.1355C34.8556 86.1066 34.8718 86.0675 34.8718 86.0267V85.1036C34.8718 84.9812 34.9205 84.8638 35.007 84.7773C35.0936 84.6907 35.211 84.6421 35.3334 84.6421C35.4558 84.6421 35.5732 84.6907 35.6597 84.7773C35.7463 84.8638 35.7949 84.9812 35.7949 85.1036V86.0267C35.7949 86.0675 35.8111 86.1066 35.84 86.1355C35.8688 86.1643 35.908 86.1806 35.9488 86.1806H36.8718Z" fill="#111111"/>
</g>
</g>
<g id="Size=20px, Filled=true" clip-path="url(#clip3_2261_896)">
<g id="Vector_10">
<path d="M59.9108 88.7744C59.9063 88.7316 59.8856 88.6919 59.8525 88.6628L54.773 83.3944C54.2088 82.8677 53.8357 82.1819 53.7084 81.4375C53.581 80.6931 53.706 79.9293 54.0652 79.2578C54.3326 78.7476 54.724 78.3061 55.2065 77.9705C55.689 77.6349 56.2485 77.4149 56.8381 77.329C57.4381 77.2311 58.0539 77.2727 58.6335 77.4502C59.2132 77.6278 59.7398 77.9361 60.169 78.3492L61.443 79.4651C61.5965 79.5995 61.797 79.674 62.0051 79.674C62.2131 79.674 62.4137 79.5995 62.5672 79.4651L63.8579 78.3014C64.2898 77.8931 64.8175 77.5896 65.397 77.4163C65.9764 77.243 66.5908 77.2048 67.1887 77.3051C67.7759 77.3983 68.3314 77.6241 68.8092 77.9636C69.2871 78.3032 69.6736 78.7469 69.9367 79.2578C70.2071 79.7606 70.3384 80.3213 70.318 80.8864C70.2976 81.4515 70.1262 82.0022 69.8201 82.4858C69.7988 82.537 69.7988 82.594 69.8201 82.6452C69.8282 82.6714 69.842 82.6956 69.8607 82.7162C69.8794 82.7368 69.9024 82.7534 69.9284 82.7648C70.2886 82.9374 70.6339 83.1373 70.9609 83.3626C70.9838 83.3806 71.0107 83.3936 71.0395 83.4005C71.0683 83.4074 71.0984 83.408 71.1275 83.4024C71.1553 83.3961 71.1816 83.3844 71.2045 83.3679C71.2274 83.3514 71.2466 83.3306 71.2607 83.3068C71.7113 82.5893 71.9638 81.7739 71.9944 80.9373C72.025 80.1007 71.8327 79.2704 71.4356 78.5246C71.0442 77.7916 70.4781 77.1571 69.7831 76.6724C69.088 76.1877 68.2835 75.8664 67.4347 75.7345C66.5858 75.6026 65.7165 75.6637 64.8969 75.9131C64.0773 76.1624 63.3306 76.5928 62.7171 77.1696L61.9926 77.7913L61.3014 77.1935C60.6893 76.611 59.941 76.1763 59.1186 75.9254C58.2961 75.6746 57.4231 75.6148 56.5716 75.7509C55.7236 75.8775 54.9193 76.1959 54.2256 76.6797C53.5319 77.1635 52.9687 77.7987 52.5829 78.5325C52.0677 79.496 51.886 80.5915 52.0641 81.6603C52.2422 82.7292 52.771 83.7162 53.5739 84.4784L59.4945 90.5996C59.5219 90.6292 59.5579 90.6504 59.598 90.6603C59.638 90.6702 59.6803 90.6685 59.7193 90.6554C59.7575 90.6402 59.7903 90.6149 59.8139 90.5824C59.8375 90.5499 59.8509 90.5116 59.8525 90.4721L59.9108 88.7744Z" fill="#111111"/>
<path d="M66.1667 82.3334C65.1778 82.3334 64.2111 82.6266 63.3889 83.176C62.5666 83.7254 61.9258 84.5063 61.5473 85.4199C61.1689 86.3336 61.0699 87.3389 61.2628 88.3088C61.4557 89.2787 61.9319 90.1696 62.6312 90.8689C63.3304 91.5681 64.2214 92.0444 65.1913 92.2373C66.1612 92.4302 67.1665 92.3312 68.0801 91.9527C68.9938 91.5743 69.7747 90.9334 70.3241 90.1112C70.8735 89.289 71.1667 88.3223 71.1667 87.3334C71.1647 86.0079 70.6372 84.7373 69.7 83.8001C68.7628 82.8628 67.4922 82.3354 66.1667 82.3334ZM68.0898 86.7257C68.2428 86.7257 68.3895 86.7864 68.4977 86.8946C68.6059 87.0028 68.6667 87.1496 68.6667 87.3026C68.6667 87.4556 68.6059 87.6023 68.4977 87.7105C68.3895 87.8187 68.2428 87.8795 68.0898 87.8795H66.936C66.8849 87.8795 66.836 87.8998 66.8 87.9358C66.7639 87.9719 66.7436 88.0208 66.7436 88.0718V89.2257C66.7436 89.3787 66.6829 89.5254 66.5747 89.6336C66.4665 89.7418 66.3197 89.8026 66.1667 89.8026C66.0137 89.8026 65.867 89.7418 65.7588 89.6336C65.6506 89.5254 65.5898 89.3787 65.5898 89.2257V88.0718C65.5898 88.0208 65.5695 87.9719 65.5335 87.9358C65.4974 87.8998 65.4485 87.8795 65.3975 87.8795H64.2436C64.0906 87.8795 63.9439 87.8187 63.8357 87.7105C63.7275 87.6023 63.6667 87.4556 63.6667 87.3026C63.6667 87.1496 63.7275 87.0028 63.8357 86.8946C63.9439 86.7864 64.0906 86.7257 64.2436 86.7257H65.3975C65.4485 86.7257 65.4974 86.7054 65.5335 86.6693C65.5695 86.6333 65.5898 86.5844 65.5898 86.5334V85.3795C65.5898 85.2265 65.6506 85.0798 65.7588 84.9716C65.867 84.8634 66.0137 84.8026 66.1667 84.8026C66.3197 84.8026 66.4665 84.8634 66.5747 84.9716C66.6829 85.0798 66.7436 85.2265 66.7436 85.3795V86.5334C66.7436 86.5844 66.7639 86.6333 66.8 86.6693C66.836 86.7054 66.8849 86.7257 66.936 86.7257H68.0898Z" fill="#111111"/>
</g>
</g>
<g id="Size=24px, Filled=true" clip-path="url(#clip4_2261_896)">
<g id="Vector_11">
<path d="M93.493 89.7293C93.4876 89.6779 93.4627 89.6303 93.423 89.5954L87.3276 83.2733C86.6506 82.6413 86.2029 81.8183 86.05 80.925C85.8972 80.0318 86.0472 79.1151 86.4782 78.3094C86.7991 77.6971 87.2688 77.1673 87.8478 76.7646C88.4267 76.3619 89.0982 76.0979 89.8057 75.9948C90.5257 75.8773 91.2646 75.9272 91.9602 76.1403C92.6559 76.3533 93.2878 76.7233 93.8027 77.219L95.3316 78.5581C95.5158 78.7194 95.7564 78.8088 96.0061 78.8088C96.2558 78.8088 96.4964 78.7194 96.6806 78.5581L98.2294 77.1617C98.7478 76.6717 99.381 76.3075 100.076 76.0995C100.772 75.8915 101.509 75.8458 102.226 75.9661C102.931 76.078 103.598 76.3489 104.171 76.7564C104.745 77.1638 105.208 77.6962 105.524 78.3094C105.849 78.9126 106.006 79.5855 105.982 80.2636C105.957 80.9418 105.751 81.6026 105.384 82.183C105.359 82.2444 105.359 82.3128 105.384 82.3742C105.394 82.4056 105.41 82.4347 105.433 82.4594C105.455 82.4842 105.483 82.5041 105.514 82.5177C105.946 82.7248 106.361 82.9647 106.753 83.235C106.781 83.2567 106.813 83.2723 106.847 83.2805C106.882 83.2888 106.918 83.2896 106.953 83.2829C106.986 83.2753 107.018 83.2612 107.045 83.2414C107.073 83.2217 107.096 83.1967 107.113 83.1681C107.654 82.3072 107.957 81.3287 107.993 80.3248C108.03 79.3208 107.799 78.3245 107.323 77.4295C106.853 76.5499 106.174 75.7885 105.34 75.2069C104.506 74.6252 103.54 74.2397 102.522 74.0814C101.503 73.923 100.46 73.9965 99.4763 74.2956C98.4928 74.5948 97.5967 75.1114 96.8605 75.8035L95.9911 76.5495L95.1617 75.8322C94.4272 75.1332 93.5292 74.6115 92.5423 74.3105C91.5553 74.0095 90.5077 73.9377 89.486 74.101C88.4683 74.253 87.5031 74.635 86.6707 75.2156C85.8382 75.7961 85.1625 76.5584 84.6995 77.439C84.0812 78.5952 83.8632 79.9097 84.0769 81.1924C84.2907 82.475 84.9252 83.6594 85.8886 84.5741L92.9933 91.9195C93.0263 91.9551 93.0695 91.9804 93.1176 91.9923C93.1656 92.0043 93.2163 92.0022 93.2631 91.9865C93.309 91.9682 93.3484 91.9378 93.3767 91.8988C93.405 91.8599 93.4211 91.8139 93.423 91.7665L93.493 89.7293Z" fill="#111111"/>
<path d="M101 82C99.8134 82 98.6533 82.3519 97.6666 83.0112C96.6799 83.6705 95.9109 84.6075 95.4568 85.7039C95.0027 86.8003 94.8838 88.0067 95.1154 89.1705C95.3469 90.3344 95.9183 91.4035 96.7574 92.2426C97.5965 93.0818 98.6656 93.6532 99.8295 93.8847C100.993 94.1162 102.2 93.9974 103.296 93.5433C104.393 93.0891 105.33 92.3201 105.989 91.3334C106.648 90.3467 107 89.1867 107 88C106.998 86.4095 106.365 84.8847 105.24 83.7601C104.115 82.6354 102.591 82.0024 101 82ZM103.308 87.2708C103.491 87.2708 103.667 87.3437 103.797 87.4735C103.927 87.6034 104 87.7795 104 87.9631C104 88.1467 103.927 88.3228 103.797 88.4526C103.667 88.5824 103.491 88.6554 103.308 88.6554H101.923C101.862 88.6554 101.803 88.6797 101.76 88.723C101.717 88.7663 101.692 88.8249 101.692 88.8862V90.2708C101.692 90.4544 101.619 90.6305 101.49 90.7603C101.36 90.8901 101.184 90.9631 101 90.9631C100.816 90.9631 100.64 90.8901 100.511 90.7603C100.381 90.6305 100.308 90.4544 100.308 90.2708V88.8862C100.308 88.8249 100.283 88.7663 100.24 88.723C100.197 88.6797 100.138 88.6554 100.077 88.6554H98.6924C98.5088 88.6554 98.3327 88.5824 98.2028 88.4526C98.073 88.3228 98.0001 88.1467 98.0001 87.9631C98.0001 87.7795 98.073 87.6034 98.2028 87.4735C98.3327 87.3437 98.5088 87.2708 98.6924 87.2708H100.077C100.138 87.2708 100.197 87.2465 100.24 87.2032C100.283 87.1599 100.308 87.1012 100.308 87.04V85.6554C100.308 85.4718 100.381 85.2957 100.511 85.1658C100.64 85.036 100.816 84.9631 101 84.9631C101.184 84.9631 101.36 85.036 101.49 85.1658C101.619 85.2957 101.692 85.4718 101.692 85.6554V87.04C101.692 87.1012 101.717 87.1599 101.76 87.2032C101.803 87.2465 101.862 87.2708 101.923 87.2708H103.308Z" fill="#111111"/>
</g>
</g>
<g id="Size=32px, Filled=true" clip-path="url(#clip5_2261_896)">
<g id="Vector_12">
<path d="M132.657 91.639C132.65 91.5706 132.617 91.5071 132.564 91.4605L124.437 83.0311C123.534 82.1884 122.937 81.0911 122.733 79.9001C122.53 78.709 122.73 77.4868 123.304 76.4125C123.732 75.5961 124.358 74.8898 125.13 74.3528C125.902 73.8159 126.798 73.4639 127.741 73.3264C128.701 73.1698 129.686 73.2363 130.614 73.5204C131.541 73.8044 132.384 74.2978 133.07 74.9587L135.109 76.7441C135.354 76.9592 135.675 77.0784 136.008 77.0784C136.341 77.0784 136.662 76.9592 136.907 76.7441L138.973 74.8822C139.664 74.2289 140.508 73.7433 141.435 73.466C142.362 73.1887 143.345 73.1277 144.302 73.2882C145.241 73.4373 146.13 73.7985 146.895 74.3418C147.659 74.8851 148.278 75.595 148.699 76.4125C149.131 77.2169 149.341 78.114 149.309 79.0182C149.276 79.9224 149.002 80.8035 148.512 81.5773C148.478 81.6592 148.478 81.7505 148.512 81.8323C148.525 81.8742 148.547 81.9129 148.577 81.9459C148.607 81.9789 148.644 82.0054 148.685 82.0236C149.262 82.2998 149.814 82.6196 150.337 82.9801C150.374 83.009 150.417 83.0297 150.463 83.0407C150.509 83.0518 150.557 83.0528 150.604 83.0438C150.649 83.0337 150.691 83.0149 150.727 82.9886C150.764 82.9623 150.794 82.929 150.817 82.8908C151.538 81.7429 151.942 80.4383 151.991 79.0997C152.04 77.7611 151.732 76.4326 151.097 75.2393C150.471 74.0666 149.565 73.0514 148.453 72.2759C147.341 71.5003 146.054 70.9862 144.695 70.7752C143.337 70.5641 141.946 70.662 140.635 71.0609C139.324 71.4598 138.129 72.1485 137.147 73.0714L135.988 74.0661L134.882 73.1096C133.903 72.1776 132.706 71.4821 131.39 71.0807C130.074 70.6793 128.677 70.5836 127.315 70.8014C125.958 71.004 124.671 71.5134 123.561 72.2875C122.451 73.0615 121.55 74.0778 120.933 75.252C120.108 76.7937 119.818 78.5463 120.103 80.2565C120.388 81.9667 121.234 83.5458 122.518 84.7654L131.991 94.5594C132.035 94.6068 132.093 94.6406 132.157 94.6565C132.221 94.6724 132.288 94.6697 132.351 94.6486C132.412 94.6243 132.464 94.5838 132.502 94.5318C132.54 94.4798 132.561 94.4186 132.564 94.3553L132.657 91.639Z" fill="#111111"/>
<path d="M142.667 81.3334C141.085 81.3334 139.538 81.8025 138.222 82.6816C136.907 83.5606 135.881 84.8101 135.276 86.2719C134.67 87.7337 134.512 89.3422 134.82 90.8941C135.129 92.4459 135.891 93.8714 137.01 94.9902C138.129 96.109 139.554 96.871 141.106 97.1796C142.658 97.4883 144.266 97.3299 145.728 96.7244C147.19 96.1189 148.439 95.0935 149.319 93.7779C150.198 92.4623 150.667 90.9156 150.667 89.3334C150.663 87.2126 149.82 85.1797 148.32 83.6801C146.82 82.1805 144.787 81.3366 142.667 81.3334ZM145.744 88.361C145.988 88.361 146.223 88.4583 146.396 88.6314C146.569 88.8045 146.667 89.0393 146.667 89.2841C146.667 89.5289 146.569 89.7637 146.396 89.9368C146.223 90.1099 145.988 90.2072 145.744 90.2072H143.898C143.816 90.2072 143.738 90.2396 143.68 90.2973C143.622 90.355 143.59 90.4333 143.59 90.5149V92.361C143.59 92.6059 143.493 92.8406 143.319 93.0138C143.146 93.1869 142.912 93.2841 142.667 93.2841C142.422 93.2841 142.187 93.1869 142.014 93.0138C141.841 92.8406 141.744 92.6059 141.744 92.361V90.5149C141.744 90.4333 141.711 90.355 141.654 90.2973C141.596 90.2396 141.518 90.2072 141.436 90.2072H139.59C139.345 90.2072 139.11 90.1099 138.937 89.9368C138.764 89.7637 138.667 89.5289 138.667 89.2841C138.667 89.0393 138.764 88.8045 138.937 88.6314C139.11 88.4583 139.345 88.361 139.59 88.361H141.436C141.518 88.361 141.596 88.3286 141.654 88.2709C141.711 88.2132 141.744 88.135 141.744 88.0534V86.2072C141.744 85.9624 141.841 85.7276 142.014 85.5545C142.187 85.3814 142.422 85.2841 142.667 85.2841C142.912 85.2841 143.146 85.3814 143.319 85.5545C143.493 85.7276 143.59 85.9624 143.59 86.2072V88.0534C143.59 88.135 143.622 88.2132 143.68 88.2709C143.738 88.3286 143.816 88.361 143.898 88.361H145.744Z" fill="#111111"/>
</g>
</g>
<g id="Size=40px, Filled=true" clip-path="url(#clip6_2261_896)">
<g id="Vector_13">
<path d="M179.822 93.5488C179.813 93.4633 179.771 93.3838 179.705 93.3256L169.546 82.7889C168.418 81.7355 167.671 80.3639 167.417 78.8751C167.162 77.3863 167.412 75.8585 168.13 74.5157C168.665 73.4952 169.448 72.6123 170.413 71.9411C171.378 71.2699 172.497 70.8299 173.676 70.658C174.876 70.4622 176.108 70.5454 177.267 70.9005C178.426 71.2556 179.48 71.8722 180.338 72.6984L182.886 74.9301C183.193 75.199 183.594 75.3481 184.01 75.3481C184.426 75.3481 184.827 75.199 185.134 74.9301L187.716 72.6028C188.58 71.7862 189.635 71.1792 190.794 70.8325C191.953 70.4859 193.182 70.4097 194.377 70.6102C195.552 70.7967 196.663 71.2481 197.618 71.9273C198.574 72.6064 199.347 73.4937 199.873 74.5157C200.414 75.5211 200.677 76.6425 200.636 77.7727C200.595 78.903 200.252 80.0043 199.64 80.9716C199.598 81.074 199.598 81.1881 199.64 81.2905C199.656 81.3428 199.684 81.3912 199.721 81.4324C199.759 81.4737 199.805 81.5068 199.857 81.5296C200.577 81.8748 201.268 82.2746 201.922 82.7251C201.968 82.7612 202.021 82.7871 202.079 82.8009C202.137 82.8147 202.197 82.816 202.255 82.8048C202.311 82.7922 202.363 82.7687 202.409 82.7358C202.455 82.7029 202.493 82.6612 202.521 82.6135C203.423 81.1786 203.928 79.5478 203.989 77.8746C204.05 76.2014 203.665 74.5408 202.871 73.0491C202.088 71.5832 200.956 70.3142 199.566 69.3448C198.176 68.3754 196.567 67.7328 194.869 67.469C193.172 67.2051 191.433 67.3275 189.794 67.8261C188.155 68.3247 186.661 69.1857 185.434 70.3392L183.985 71.5826L182.603 70.387C181.379 69.222 179.882 68.3526 178.237 67.8509C176.592 67.3492 174.846 67.2295 173.143 67.5018C171.447 67.755 169.839 68.3918 168.451 69.3594C167.064 70.3269 165.937 71.5973 165.166 73.0651C164.135 74.9921 163.772 77.1829 164.128 79.3207C164.484 81.4584 165.542 83.4323 167.148 84.9568L178.989 97.1992C179.044 97.2585 179.116 97.3007 179.196 97.3206C179.276 97.3405 179.361 97.3371 179.439 97.3108C179.515 97.2804 179.581 97.2298 179.628 97.1648C179.675 97.0998 179.702 97.0233 179.705 96.9442L179.822 93.5488Z" fill="#111111"/>
<path d="M192.333 80.6667C190.356 80.6667 188.422 81.2532 186.778 82.352C185.133 83.4508 183.852 85.0126 183.095 86.8399C182.338 88.6671 182.14 90.6778 182.526 92.6176C182.911 94.5574 183.864 96.3392 185.262 97.7378C186.661 99.1363 188.443 100.089 190.383 100.475C192.322 100.86 194.333 100.662 196.16 99.9055C197.988 99.1486 199.549 97.8669 200.648 96.2224C201.747 94.5779 202.333 92.6445 202.333 90.6667C202.329 88.0158 201.274 85.4746 199.4 83.6001C197.526 81.7257 194.984 80.6708 192.333 80.6667ZM196.18 89.4513C196.486 89.4513 196.779 89.5729 196.995 89.7893C197.212 90.0057 197.333 90.2991 197.333 90.6052C197.333 90.9112 197.212 91.2047 196.995 91.4211C196.779 91.6374 196.486 91.759 196.18 91.759H193.872C193.77 91.759 193.672 91.7995 193.6 91.8717C193.528 91.9438 193.487 92.0416 193.487 92.1436V94.4513C193.487 94.7573 193.366 95.0508 193.149 95.2672C192.933 95.4836 192.639 95.6052 192.333 95.6052C192.027 95.6052 191.734 95.4836 191.518 95.2672C191.301 95.0508 191.18 94.7573 191.18 94.4513V92.1436C191.18 92.0416 191.139 91.9438 191.067 91.8717C190.995 91.7995 190.897 91.759 190.795 91.759H188.487C188.181 91.759 187.888 91.6374 187.671 91.4211C187.455 91.2047 187.333 90.9112 187.333 90.6052C187.333 90.2991 187.455 90.0057 187.671 89.7893C187.888 89.5729 188.181 89.4513 188.487 89.4513H190.795C190.897 89.4513 190.995 89.4108 191.067 89.3387C191.139 89.2665 191.18 89.1687 191.18 89.0667V86.759C191.18 86.453 191.301 86.1595 191.518 85.9431C191.734 85.7267 192.027 85.6052 192.333 85.6052C192.639 85.6052 192.933 85.7267 193.149 85.9431C193.366 86.1595 193.487 86.453 193.487 86.759V89.0667C193.487 89.1687 193.528 89.2665 193.6 89.3387C193.672 89.4108 193.77 89.4513 193.872 89.4513H196.18Z" fill="#111111"/>
</g>
</g>
<g id="Size=48px, Filled=true" clip-path="url(#clip7_2261_896)">
<g id="Vector_14">
<path d="M234.986 95.4586C234.975 95.3559 234.925 95.2606 234.846 95.1908L222.655 82.5467C221.301 81.2826 220.406 79.6367 220.1 77.8501C219.794 76.0636 220.094 74.2303 220.956 72.6188C221.598 71.3942 222.538 70.3348 223.696 69.5293C224.853 68.7238 226.196 68.1959 227.611 67.9897C229.051 67.7547 230.529 67.8545 231.92 68.2806C233.312 68.7067 234.576 69.4467 235.605 70.4381L238.663 73.1162C239.032 73.4388 239.513 73.6177 240.012 73.6177C240.512 73.6177 240.993 73.4388 241.361 73.1162L244.459 70.3234C245.496 69.3434 246.762 68.615 248.153 68.1991C249.543 67.7831 251.018 67.6916 252.453 67.9323C253.862 68.156 255.195 68.6978 256.342 69.5128C257.489 70.3277 258.417 71.3925 259.048 72.6188C259.697 73.8254 260.012 75.171 259.963 76.5273C259.914 77.8836 259.503 79.2052 258.768 80.366C258.717 80.4888 258.717 80.6257 258.768 80.7486C258.788 80.8113 258.821 80.8694 258.866 80.9189C258.911 80.9684 258.966 81.0082 259.028 81.0355C259.893 81.4497 260.721 81.9295 261.506 82.4701C261.561 82.5135 261.626 82.5446 261.695 82.5611C261.764 82.5777 261.836 82.5793 261.906 82.5658C261.973 82.5507 262.036 82.5225 262.091 82.483C262.146 82.4435 262.192 82.3935 262.226 82.3362C263.307 80.6144 263.913 78.6574 263.987 76.6496C264.06 74.6417 263.598 72.649 262.645 70.859C261.706 69.0999 260.348 67.5771 258.679 66.4138C257.011 65.2505 255.08 64.4794 253.043 64.1628C251.006 63.8462 248.92 63.993 246.953 64.5913C244.986 65.1897 243.193 66.2228 241.721 67.6071L239.982 69.0991L238.323 67.6645C236.854 66.2664 235.058 65.2231 233.085 64.6211C231.111 64.019 229.015 63.8754 226.972 64.2022C224.937 64.506 223.006 65.2702 221.341 66.4312C219.676 67.5923 218.325 69.1168 217.399 70.8781C216.162 73.1905 215.726 75.8195 216.154 78.3848C216.581 80.9501 217.85 83.3188 219.777 85.1482L233.987 99.8391C234.053 99.9102 234.139 99.9609 234.235 99.9848C234.331 100.009 234.433 100.005 234.526 99.973C234.618 99.9365 234.697 99.8757 234.753 99.7978C234.81 99.7198 234.842 99.6279 234.846 99.533L234.986 95.4586Z" fill="#111111"/>
<path d="M250 80.0001C247.627 80.0001 245.307 80.7038 243.333 82.0224C241.36 83.341 239.822 85.2151 238.914 87.4079C238.005 89.6006 237.768 92.0134 238.231 94.3411C238.694 96.6689 239.837 98.8071 241.515 100.485C243.193 102.164 245.331 103.306 247.659 103.769C249.987 104.233 252.4 103.995 254.592 103.087C256.785 102.178 258.659 100.64 259.978 98.6669C261.296 96.6935 262 94.3734 262 92.0001C261.995 88.819 260.729 85.7696 258.48 83.5202C256.231 81.2708 253.181 80.0049 250 80.0001ZM254.616 90.5416C254.983 90.5416 255.335 90.6875 255.595 90.9471C255.854 91.2068 256 91.559 256 91.9262C256 92.2934 255.854 92.6456 255.595 92.9053C255.335 93.165 254.983 93.3108 254.616 93.3108H251.846C251.724 93.3108 251.606 93.3595 251.52 93.446C251.433 93.5326 251.385 93.65 251.385 93.7724V96.5416C251.385 96.9088 251.239 97.261 250.979 97.5207C250.72 97.7803 250.367 97.9262 250 97.9262C249.633 97.9262 249.281 97.7803 249.021 97.5207C248.761 97.261 248.616 96.9088 248.616 96.5416V93.7724C248.616 93.65 248.567 93.5326 248.48 93.446C248.394 93.3595 248.276 93.3108 248.154 93.3108H245.385C245.018 93.3108 244.665 93.165 244.406 92.9053C244.146 92.6456 244 92.2934 244 91.9262C244 91.559 244.146 91.2068 244.406 90.9471C244.665 90.6875 245.018 90.5416 245.385 90.5416H248.154C248.276 90.5416 248.394 90.493 248.48 90.4064C248.567 90.3199 248.616 90.2025 248.616 90.0801V87.3108C248.616 86.9436 248.761 86.5914 249.021 86.3318C249.281 86.0721 249.633 85.9262 250 85.9262C250.367 85.9262 250.72 86.0721 250.979 86.3318C251.239 86.5914 251.385 86.9436 251.385 87.3108V90.0801C251.385 90.2025 251.433 90.3199 251.52 90.4064C251.606 90.493 251.724 90.5416 251.846 90.5416H254.616Z" fill="#111111"/>
</g>
</g>
</g>
</g>
<defs>
<clipPath id="clip0_2261_896">
<rect width="264" height="108" rx="5" fill="white"/>
</clipPath>
<clipPath id="clip1_2261_896">
<rect width="12" height="12" fill="white" transform="translate(0 78)"/>
</clipPath>
<clipPath id="clip2_2261_896">
<rect width="16" height="16" fill="white" transform="translate(24 76)"/>
</clipPath>
<clipPath id="clip3_2261_896">
<rect width="20" height="20" fill="white" transform="translate(52 74)"/>
</clipPath>
<clipPath id="clip4_2261_896">
<rect width="24" height="24" fill="white" transform="translate(84 72)"/>
</clipPath>
<clipPath id="clip5_2261_896">
<rect width="32" height="32" fill="white" transform="translate(120 68)"/>
</clipPath>
<clipPath id="clip6_2261_896">
<rect width="40" height="40" fill="white" transform="translate(164 64)"/>
</clipPath>
<clipPath id="clip7_2261_896">
<rect width="48" height="48" fill="white" transform="translate(216 60)"/>
</clipPath>
</defs>
</svg>
