<svg width="264" height="108" viewBox="0 0 264 108" fill="none" xmlns="http://www.w3.org/2000/svg">
<g id="Filter">
<g clip-path="url(#clip0_1107_689)">
<g id="Size=12px, Filled=false">
<path id="Vector" d="M7.25 27H11.5M7.25 27C7.25 28.2425 6.24284 29.2498 5.00033 29.25C3.75782 29.2502 2.75037 28.2425 2.75 27M7.25 27C7.25 26.4031 7.01281 25.8306 6.59064 25.4087C6.16846 24.9867 5.59591 24.7497 4.999 24.75C3.75649 24.7506 2.74963 25.7575 2.75 27M0.5 27H2.75M7 21H0.5M7 21C7.00037 19.7575 8.00782 18.7498 9.25033 18.75C10.4928 18.7502 11.5 19.7575 11.5 21C11.4994 22.2428 10.4918 23.25 9.249 23.25C8.00649 23.2494 6.99963 22.2425 7 21Z" stroke="#111111" stroke-width="0.75" stroke-linecap="round" stroke-linejoin="round"/>
</g>
<g id="Size=16px, Filled=false">
<path id="Vector_2" d="M33.5 28H39.5M33.5 28C33.5 29.6567 32.1571 30.9998 30.5004 31C28.8438 31.0002 27.5005 29.6567 27.5 28M33.5 28C33.5 27.2041 33.1837 26.4409 32.6208 25.8782C32.058 25.3156 31.2945 24.9996 30.4987 25C28.842 25.0007 27.4995 26.3433 27.5 28M24.5 28H27.5M33.5 20H24.5M33.5 20C33.5005 18.3433 34.8438 16.9998 36.5004 17C38.1571 17.0002 39.5 18.3433 39.5 20C39.4993 21.6571 38.1557 23 36.4987 23C34.842 22.9993 33.4995 21.6567 33.5 20Z" stroke="#111111" stroke-linecap="round" stroke-linejoin="round"/>
</g>
<g id="Size=20px, Filled=false">
<path id="Vector_3" d="M63.75 29H71.5M63.75 29C63.75 31.0709 62.0714 32.7497 60.0006 32.75C57.9297 32.7503 56.2506 31.0709 56.25 29M63.75 29C63.75 28.0051 63.3547 27.0511 62.6511 26.3478C61.9474 25.6445 60.9932 25.2496 59.9983 25.25C57.9275 25.2509 56.2494 26.9291 56.25 29M52.5 29H56.25M64 19H52.5M64 19C64.0006 16.9291 65.6797 15.2497 67.7506 15.25C69.8214 15.2503 71.5 16.9291 71.5 19C71.4991 21.0713 69.8197 22.75 67.7483 22.75C65.6775 22.7491 63.9994 21.0709 64 19Z" stroke="#111111" stroke-width="1.25" stroke-linecap="round" stroke-linejoin="round"/>
</g>
<g id="Size=24px, Filled=false">
<path id="Vector_4" d="M98 30H107M98 30C98 32.2089 96.2095 33.9997 94.0006 34C91.7917 34.0003 90.0007 32.2101 90 30.0012C89.9993 27.7923 91.7893 26.001 93.9982 26C95.0594 25.9995 96.0773 26.4207 96.8278 27.1709C97.5783 27.9211 98 28.9388 98 30ZM85 30H90M99 18H85M107 18C107 15.7911 105.209 14.0003 103.001 14C100.792 13.9997 99.0007 15.7899 99 17.9988C98.9993 20.2077 100.789 21.999 102.998 22C105.208 22 106.999 20.2094 107 18Z" stroke="#111111" stroke-width="1.5" stroke-linecap="round" stroke-linejoin="round"/>
</g>
<g id="Size=32px, Filled=false">
<path id="Vector_5" d="M138 32H151M138 32C138 35.3134 135.314 37.9995 132.001 38C128.688 38.0005 126.001 35.3134 126 32M138 32C138 30.4082 137.367 28.8817 136.242 27.7564C135.116 26.6311 133.589 25.9993 131.997 26C128.684 26.0015 125.999 28.6866 126 32M121 32H126M139 16H121M139 16C139.001 12.6866 141.688 9.99951 145.001 10C148.314 10.0005 151 12.6866 151 16C150.999 19.3141 148.311 22 144.997 22C141.684 21.9985 138.999 19.3134 139 16Z" stroke="#111111" stroke-width="2" stroke-linecap="round" stroke-linejoin="round"/>
</g>
<g id="Size=40px, Filled=false">
<path id="Vector_6" d="M187.5 34H203M187.5 34C187.5 38.1417 184.143 41.4994 180.001 41.5C175.859 41.5006 172.501 38.1417 172.5 34M187.5 34C187.5 32.0103 186.709 30.1021 185.302 28.6955C183.895 27.2889 181.986 26.4991 179.997 26.5C175.855 26.5018 172.499 29.8583 172.5 34M165 34H172.5M188 14H165M188 14C188.001 9.8583 191.359 6.49939 195.501 6.5C199.643 6.50061 203 9.8583 203 14C202.998 18.1427 199.639 21.5 195.497 21.5C191.355 21.4982 187.999 18.1417 188 14Z" stroke="#111111" stroke-width="2.5" stroke-linecap="round" stroke-linejoin="round"/>
</g>
<g id="Size=48px, Filled=false">
<path id="Vector_7" d="M243.5 36H262.5M243.5 36C243.5 40.97 239.471 44.9993 234.501 45C229.531 45.0007 225.501 40.97 225.5 36M243.5 36C243.5 33.6124 242.551 31.3226 240.863 29.6346C239.174 27.9467 236.884 26.9989 234.496 27C229.526 27.0022 225.499 31.03 225.5 36M217.5 36H225.5M244.5 12H217.5M244.5 12C244.501 7.02996 248.531 2.99926 253.501 3C258.471 3.00074 262.5 7.02996 262.5 12C262.498 16.9712 258.467 21 253.496 21C248.526 20.9978 244.499 16.97 244.5 12Z" stroke="#111111" stroke-width="3" stroke-linecap="round" stroke-linejoin="round"/>
</g>
<g id="Size=12px, Filled=true">
<g id="Vector_8">
<path d="M9.5003 78.75C10.6047 78.7502 11.5 79.6455 11.5 80.75C11.4995 81.8547 10.6038 82.75 9.49911 82.75C8.39466 82.7495 7.49967 81.8539 7.5 80.7494C7.50033 79.645 8.39584 78.7498 9.5003 78.75Z" fill="#111111"/>
<path d="M0 81C0 80.7239 0.223858 80.5 0.5 80.5H6.5C6.77614 80.5 7 80.7239 7 81C7 81.2761 6.77614 81.5 6.5 81.5H0.5C0.223858 81.5 0 81.2761 0 81Z" fill="#111111"/>
<path d="M4.5003 88.75C5.60475 88.7498 6.5 87.8545 6.5 86.75C6.5 86.2194 6.28916 85.7106 5.9139 85.3355C5.53863 84.9604 5.0297 84.7498 4.49911 84.75C3.39466 84.7505 2.49967 85.6461 2.5 86.7506C2.50033 87.855 3.39584 88.7502 4.5003 88.75Z" fill="#111111"/>
<path d="M0 87C0 86.7239 0.223858 86.5 0.5 86.5H1.5C1.77614 86.5 2 86.7239 2 87C2 87.2761 1.77614 87.5 1.5 87.5H0.5C0.223858 87.5 0 87.2761 0 87Z" fill="#111111"/>
<path d="M7 87C7 86.7239 7.22386 86.5 7.5 86.5H11.5C11.7761 86.5 12 86.7239 12 87C12 87.2761 11.7761 87.5 11.5 87.5H7.5C7.22386 87.5 7 87.2761 7 87Z" fill="#111111"/>
</g>
</g>
<g id="Size=16px, Filled=true">
<g id="Vector_9">
<path d="M36.6671 77C38.1397 77.0002 39.3333 78.1941 39.3333 79.6667C39.3327 81.1396 38.1384 82.3333 36.6655 82.3333C35.1929 82.3327 33.9996 81.1385 34 79.6659C34.0004 78.1933 35.1945 76.9998 36.6671 77Z" fill="#111111"/>
<path d="M24 80C24 79.6318 24.2985 79.3333 24.6667 79.3333H32.6667C33.0349 79.3333 33.3333 79.6318 33.3333 80C33.3333 80.3682 33.0349 80.6667 32.6667 80.6667H24.6667C24.2985 80.6667 24 80.3682 24 80Z" fill="#111111"/>
<path d="M30.0004 90.3333C31.473 90.3331 32.6667 89.1393 32.6667 87.6667C32.6667 86.9592 32.3856 86.2808 31.8852 85.7806C31.3848 85.2805 30.7063 84.9997 29.9988 85C28.5262 85.0007 27.3329 86.1949 27.3333 87.6675C27.3338 89.1401 28.5278 90.3336 30.0004 90.3333Z" fill="#111111"/>
<path d="M24 88C24 87.6318 24.2985 87.3333 24.6667 87.3333H26C26.3682 87.3333 26.6667 87.6318 26.6667 88C26.6667 88.3682 26.3682 88.6667 26 88.6667H24.6667C24.2985 88.6667 24 88.3682 24 88Z" fill="#111111"/>
<path d="M33.3333 88C33.3333 87.6318 33.6318 87.3333 34 87.3333H39.3333C39.7015 87.3333 40 87.6318 40 88C40 88.3682 39.7015 88.6667 39.3333 88.6667H34C33.6318 88.6667 33.3333 88.3682 33.3333 88Z" fill="#111111"/>
</g>
</g>
<g id="Size=20px, Filled=true">
<g id="Vector_10">
<path d="M67.8338 75.25C69.6746 75.2503 71.1667 76.7426 71.1667 78.5833C71.1658 80.4245 69.673 81.9167 67.8319 81.9167C65.9911 81.9158 64.4995 80.4231 64.5 78.5823C64.5005 76.7416 65.9931 75.2497 67.8338 75.25Z" fill="#111111"/>
<path d="M52 79C52 78.5398 52.3731 78.1667 52.8333 78.1667H62.8333C63.2936 78.1667 63.6667 78.5398 63.6667 79C63.6667 79.4602 63.2936 79.8333 62.8333 79.8333H52.8333C52.3731 79.8333 52 79.4602 52 79Z" fill="#111111"/>
<path d="M59.5005 91.9167C61.3412 91.9164 62.8333 90.4241 62.8333 88.5833C62.8333 87.699 62.4819 86.851 61.8565 86.2258C61.2311 85.6006 60.3828 85.2496 59.4985 85.25C57.6578 85.2508 56.1661 86.7436 56.1667 88.5843C56.1672 90.4251 57.6597 91.9169 59.5005 91.9167Z" fill="#111111"/>
<path d="M52 89C52 88.5398 52.3731 88.1667 52.8333 88.1667H54.5C54.9602 88.1667 55.3333 88.5398 55.3333 89C55.3333 89.4602 54.9602 89.8333 54.5 89.8333H52.8333C52.3731 89.8333 52 89.4602 52 89Z" fill="#111111"/>
<path d="M63.6667 89C63.6667 88.5398 64.0398 88.1667 64.5 88.1667H71.1667C71.6269 88.1667 72 88.5398 72 89C72 89.4602 71.6269 89.8333 71.1667 89.8333H64.5C64.0398 89.8333 63.6667 89.4602 63.6667 89Z" fill="#111111"/>
</g>
</g>
<g id="Size=24px, Filled=true">
<g id="Vector_11">
<path d="M103.001 73.5C105.209 73.5003 107 75.2911 107 77.5C106.999 79.7094 105.208 81.5 102.998 81.5C100.789 81.499 98.9993 79.7077 99 77.4988C99.0007 75.2899 100.792 73.4997 103.001 73.5Z" fill="#111111"/>
<path d="M84 78C84 77.4477 84.4477 77 85 77H97C97.5523 77 98 77.4477 98 78C98 78.5523 97.5523 79 97 79H85C84.4477 79 84 78.5523 84 78Z" fill="#111111"/>
<path d="M93.0006 93.5C95.2095 93.4997 97 91.7089 97 89.5C97 88.4388 96.5783 87.4211 95.8278 86.6709C95.0773 85.9207 94.0594 85.4995 92.9982 85.5C90.7893 85.501 88.9993 87.2923 89 89.5012C89.0007 91.7101 90.7917 93.5003 93.0006 93.5Z" fill="#111111"/>
<path d="M84 90C84 89.4477 84.4477 89 85 89H87C87.5523 89 88 89.4477 88 90C88 90.5523 87.5523 91 87 91H85C84.4477 91 84 90.5523 84 90Z" fill="#111111"/>
<path d="M98 90C98 89.4477 98.4477 89 99 89H107C107.552 89 108 89.4477 108 90C108 90.5523 107.552 91 107 91H99C98.4477 91 98 90.5523 98 90Z" fill="#111111"/>
</g>
</g>
<g id="Size=32px, Filled=true">
<g id="Vector_12">
<path d="M145.334 70C148.279 70.0004 150.667 72.3881 150.667 75.3333C150.665 78.2792 148.277 80.6667 145.331 80.6667C142.386 80.6654 139.999 78.277 140 75.3318C140.001 72.3865 142.389 69.9996 145.334 70Z" fill="#111111"/>
<path d="M120 76C120 75.2636 120.597 74.6667 121.333 74.6667H137.333C138.07 74.6667 138.667 75.2636 138.667 76C138.667 76.7364 138.07 77.3333 137.333 77.3333H121.333C120.597 77.3333 120 76.7364 120 76Z" fill="#111111"/>
<path d="M132.001 96.6667C134.946 96.6662 137.333 94.2785 137.333 91.3333C137.333 89.9184 136.771 88.5615 135.77 87.5613C134.77 86.561 133.413 85.9994 131.998 86C129.052 86.0013 126.666 88.3897 126.667 91.3349C126.668 94.2801 129.056 96.6671 132.001 96.6667Z" fill="#111111"/>
<path d="M120 92C120 91.2636 120.597 90.6667 121.333 90.6667H124C124.736 90.6667 125.333 91.2636 125.333 92C125.333 92.7364 124.736 93.3333 124 93.3333H121.333C120.597 93.3333 120 92.7364 120 92Z" fill="#111111"/>
<path d="M138.667 92C138.667 91.2636 139.264 90.6667 140 90.6667H150.667C151.403 90.6667 152 91.2636 152 92C152 92.7364 151.403 93.3333 150.667 93.3333H140C139.264 93.3333 138.667 92.7364 138.667 92Z" fill="#111111"/>
</g>
</g>
<g id="Size=40px, Filled=true">
<g id="Vector_13">
<path d="M195.668 66.5C199.349 66.5005 202.333 69.4852 202.333 73.1667C202.332 76.849 199.346 79.8333 195.664 79.8333C191.982 79.8317 188.999 76.8462 189 73.1647C189.001 69.4832 191.986 66.4995 195.668 66.5Z" fill="#111111"/>
<path d="M164 74C164 73.0795 164.746 72.3333 165.667 72.3333H185.667C186.587 72.3333 187.333 73.0795 187.333 74C187.333 74.9205 186.587 75.6667 185.667 75.6667H165.667C164.746 75.6667 164 74.9205 164 74Z" fill="#111111"/>
<path d="M179.001 99.8333C182.682 99.8328 185.667 96.8482 185.667 93.1667C185.667 91.398 184.964 89.7019 183.713 88.4516C182.462 87.2012 180.766 86.4992 178.997 86.5C175.316 86.5016 172.332 89.4871 172.333 93.1686C172.334 96.8502 175.319 99.8339 179.001 99.8333Z" fill="#111111"/>
<path d="M164 94C164 93.0795 164.746 92.3333 165.667 92.3333H169C169.92 92.3333 170.667 93.0795 170.667 94C170.667 94.9205 169.92 95.6667 169 95.6667H165.667C164.746 95.6667 164 94.9205 164 94Z" fill="#111111"/>
<path d="M187.333 94C187.333 93.0795 188.08 92.3333 189 92.3333H202.333C203.254 92.3333 204 93.0795 204 94C204 94.9205 203.254 95.6667 202.333 95.6667H189C188.08 95.6667 187.333 94.9205 187.333 94Z" fill="#111111"/>
</g>
</g>
<g id="Size=48px, Filled=true">
<g id="Vector_14">
<path d="M254.001 63C258.419 63.0007 262 66.5822 262 71C261.998 75.4189 258.415 79 253.996 79C249.579 78.998 245.999 75.4154 246 70.9976C246.001 66.5798 249.583 62.9993 254.001 63Z" fill="#111111"/>
<path d="M216 72C216 70.8954 216.895 70 218 70H242C243.105 70 244 70.8954 244 72C244 73.1046 243.105 74 242 74H218C216.895 74 216 73.1046 216 72Z" fill="#111111"/>
<path d="M234.001 103C238.419 102.999 242 99.4178 242 95C242 92.8777 241.157 90.8423 239.656 89.3419C238.155 87.8415 236.119 86.9991 233.996 87C229.579 87.002 225.999 90.5846 226 95.0024C226.001 99.4202 229.583 103.001 234.001 103Z" fill="#111111"/>
<path d="M216 96C216 94.8954 216.895 94 218 94H222C223.105 94 224 94.8954 224 96C224 97.1046 223.105 98 222 98H218C216.895 98 216 97.1046 216 96Z" fill="#111111"/>
<path d="M244 96C244 94.8954 244.895 94 246 94H262C263.105 94 264 94.8954 264 96C264 97.1046 263.105 98 262 98H246C244.895 98 244 97.1046 244 96Z" fill="#111111"/>
</g>
</g>
</g>
</g>
<defs>
<clipPath id="clip0_1107_689">
<rect width="264" height="108" rx="5" fill="white"/>
</clipPath>
</defs>
</svg>
