<svg width="268" height="108" viewBox="0 0 268 108" fill="none" xmlns="http://www.w3.org/2000/svg">
<g id="Information">
<g id="Size=12px, Filled=false">
<path id="Vector" d="M6.75 26.25H6.45C6.11863 26.25 5.85 25.9142 5.85 25.5V23.625C5.85 23.4179 5.71569 23.25 5.55 23.25H5.25M5.53125 21C5.37592 21 5.25 21.1259 5.25 21.2812C5.25 21.4366 5.37592 21.5625 5.53125 21.5625C5.68658 21.5625 5.8125 21.4366 5.8125 21.2812C5.8125 21.1259 5.68658 21 5.53125 21ZM6 29.25C8.8995 29.25 11.25 26.8995 11.25 24C11.25 21.1005 8.8995 18.75 6 18.75C3.10051 18.75 0.75 21.1005 0.75 24C0.75 26.8995 3.10051 29.25 6 29.25Z" stroke="#111111" stroke-width="0.75" stroke-linecap="round" stroke-linejoin="round"/>
</g>
<g id="Size=16px, Filled=false">
<path id="Vector_2" d="M33 27H32.6C32.1582 27 31.8 26.5523 31.8 26V23.5C31.8 23.2239 31.6209 23 31.4 23H31M31.375 20C31.1679 20 31 20.1679 31 20.375C31 20.5821 31.1679 20.75 31.375 20.75C31.5821 20.75 31.75 20.5821 31.75 20.375C31.75 20.1679 31.5821 20 31.375 20ZM32 31C35.866 31 39 27.866 39 24C39 20.134 35.866 17 32 17C28.134 17 25 20.134 25 24C25 27.866 28.134 31 32 31Z" stroke="#111111" stroke-linecap="round" stroke-linejoin="round"/>
</g>
<g id="Size=20px, Filled=false">
<path id="Vector_3" d="M63.25 27.75H62.75C62.1977 27.75 61.75 27.1904 61.75 26.5V23.375C61.75 23.0298 61.5261 22.75 61.25 22.75H60.75M61.2188 19C60.9599 19 60.75 19.2099 60.75 19.4688C60.75 19.7276 60.9599 19.9375 61.2188 19.9375C61.4776 19.9375 61.6875 19.7276 61.6875 19.4688C61.6875 19.2099 61.4776 19 61.2188 19ZM62 32.75C66.8325 32.75 70.75 28.8325 70.75 24C70.75 19.1675 66.8325 15.25 62 15.25C57.1675 15.25 53.25 19.1675 53.25 24C53.25 28.8325 57.1675 32.75 62 32.75Z" stroke="#111111" stroke-width="1.25" stroke-linecap="round" stroke-linejoin="round"/>
</g>
<g id="Size=24px, Filled=false">
<path id="Vector_4" d="M98.3913 28.3043H97.6261C96.7809 28.3043 96.0957 27.662 96.0957 26.8696V23.2826C96.0957 22.8864 95.7531 22.5652 95.3304 22.5652H94.5652M95.8804 18.7391C95.6823 18.7391 95.5217 18.8997 95.5217 19.0978C95.5217 19.2959 95.6823 19.4565 95.8804 19.4565C96.0785 19.4565 96.2391 19.2959 96.2391 19.0978C96.2391 18.8997 96.0785 18.7391 95.8804 18.7391ZM96 35C102.075 35 107 30.0751 107 24C107 17.9249 102.075 13 96 13C89.9249 13 85 17.9249 85 24C85 30.0751 89.9249 35 96 35Z" stroke="#111111" stroke-width="1.5" stroke-linecap="round" stroke-linejoin="round"/>
</g>
<g id="Size=32px, Filled=false">
<path id="Vector_5" d="M138 30H137.2C136.316 30 135.6 29.1046 135.6 28V23C135.6 22.4477 135.242 22 134.8 22H134M134.75 16C134.336 16 134 16.3358 134 16.75C134 17.1642 134.336 17.5 134.75 17.5C135.164 17.5 135.5 17.1642 135.5 16.75C135.5 16.3358 135.164 16 134.75 16ZM136 38C143.732 38 150 31.732 150 24C150 16.268 143.732 10 136 10C128.268 10 122 16.268 122 24C122 31.732 128.268 38 136 38Z" stroke="#111111" stroke-width="2" stroke-linecap="round" stroke-linejoin="round"/>
</g>
<g id="Size=40px, Filled=false">
<path id="Vector_6" d="M186.5 31.5H185.5C184.395 31.5 183.5 30.3807 183.5 29V22.75C183.5 22.0596 183.052 21.5 182.5 21.5H181.5M182.438 14C181.92 14 181.5 14.4197 181.5 14.9375C181.5 15.4553 181.92 15.875 182.438 15.875C182.955 15.875 183.375 15.4553 183.375 14.9375C183.375 14.4197 182.955 14 182.438 14ZM184 41.5C193.665 41.5 201.5 33.665 201.5 24C201.5 14.335 193.665 6.5 184 6.5C174.335 6.5 166.5 14.335 166.5 24C166.5 33.665 174.335 41.5 184 41.5Z" stroke="#111111" stroke-width="2.5" stroke-linecap="round" stroke-linejoin="round"/>
</g>
<g id="Size=48px, Filled=false">
<path id="Vector_7" d="M243 33H241.8C240.475 33 239.4 31.6569 239.4 30V22.5C239.4 21.6716 238.863 21 238.2 21H237M238.125 12C237.504 12 237 12.5037 237 13.125C237 13.7463 237.504 14.25 238.125 14.25C238.746 14.25 239.25 13.7463 239.25 13.125C239.25 12.5037 238.746 12 238.125 12ZM240 45C251.598 45 261 35.598 261 24C261 12.402 251.598 3 240 3C228.402 3 219 12.402 219 24C219 35.598 228.402 45 240 45Z" stroke="#111111" stroke-width="3" stroke-linecap="round" stroke-linejoin="round"/>
</g>
<g id="Size=12px, Filled=true" clip-path="url(#clip0_1110_1317)">
<path id="Vector_8" d="M6 78.5C4.9122 78.5 3.84884 78.8226 2.94437 79.4269C2.0399 80.0313 1.33495 80.8902 0.918665 81.8952C0.502383 82.9002 0.393465 84.0061 0.605683 85.073C0.817902 86.1399 1.34173 87.1199 2.11091 87.8891C2.8801 88.6583 3.86011 89.1821 4.927 89.3943C5.9939 89.6065 7.09977 89.4976 8.10476 89.0813C9.10975 88.6651 9.96873 87.9601 10.5731 87.0556C11.1774 86.1512 11.5 85.0878 11.5 84C11.5 82.5413 10.9205 81.1424 9.88909 80.1109C8.85764 79.0795 7.45869 78.5 6 78.5V78.5ZM6.11458 80.7917C6.25056 80.7917 6.38348 80.832 6.49654 80.9075C6.6096 80.9831 6.69772 81.0904 6.74975 81.2161C6.80179 81.3417 6.8154 81.4799 6.78887 81.6133C6.76235 81.7467 6.69687 81.8692 6.60072 81.9653C6.50457 82.0615 6.38207 82.1269 6.24871 82.1535C6.11535 82.18 5.97711 82.1664 5.85149 82.1143C5.72587 82.0623 5.61849 81.9742 5.54295 81.8611C5.46741 81.7481 5.42708 81.6151 5.42708 81.4792C5.42708 81.2968 5.49952 81.122 5.62845 80.993C5.75738 80.8641 5.93225 80.7917 6.11458 80.7917ZM7.14583 86.9792H5.3125C5.19094 86.9792 5.07437 86.9309 4.98841 86.8449C4.90246 86.759 4.85417 86.6424 4.85417 86.5208C4.85417 86.3993 4.90246 86.2827 4.98841 86.1967C5.07437 86.1108 5.19094 86.0625 5.3125 86.0625H5.65625C5.68664 86.0625 5.71579 86.0504 5.73727 86.0289C5.75876 86.0074 5.77083 85.9783 5.77083 85.9479V83.8854C5.77083 83.855 5.75876 83.8259 5.73727 83.8044C5.71579 83.7829 5.68664 83.7708 5.65625 83.7708H5.3125C5.19094 83.7708 5.07437 83.7225 4.98841 83.6366C4.90246 83.5506 4.85417 83.4341 4.85417 83.3125C4.85417 83.1909 4.90246 83.0744 4.98841 82.9884C5.07437 82.9025 5.19094 82.8542 5.3125 82.8542H5.77083C6.01395 82.8542 6.24711 82.9507 6.41902 83.1227C6.59092 83.2946 6.6875 83.5277 6.6875 83.7708V85.9479C6.6875 85.9783 6.69957 86.0074 6.72106 86.0289C6.74255 86.0504 6.7717 86.0625 6.80208 86.0625H7.14583C7.26739 86.0625 7.38397 86.1108 7.46992 86.1967C7.55588 86.2827 7.60417 86.3993 7.60417 86.5208C7.60417 86.6424 7.55588 86.759 7.46992 86.8449C7.38397 86.9309 7.26739 86.9792 7.14583 86.9792Z" fill="#111111"/>
</g>
<g id="Size=16px, Filled=true" clip-path="url(#clip1_1110_1317)">
<path id="Vector_9" d="M32.0001 76.6667C30.5497 76.6667 29.1319 77.0967 27.9259 77.9025C26.7199 78.7083 25.78 79.8537 25.225 81.1936C24.6699 82.5336 24.5247 84.0081 24.8077 85.4307C25.0906 86.8532 25.789 88.1599 26.8146 89.1854C27.8402 90.211 29.1469 90.9095 30.5694 91.1924C31.9919 91.4754 33.4664 91.3301 34.8064 90.7751C36.1464 90.2201 37.2917 89.2801 38.0975 88.0742C38.9033 86.8682 39.3334 85.4504 39.3334 84C39.3334 82.0551 38.5608 80.1898 37.1855 78.8145C35.8103 77.4393 33.945 76.6667 32.0001 76.6667V76.6667ZM32.1529 79.7222C32.3342 79.7222 32.5114 79.776 32.6621 79.8767C32.8129 79.9774 32.9304 80.1206 32.9998 80.2881C33.0691 80.4556 33.0873 80.6399 33.0519 80.8177C33.0165 80.9955 32.9292 81.1589 32.801 81.2871C32.6728 81.4153 32.5095 81.5026 32.3317 81.5379C32.1539 81.5733 31.9696 81.5551 31.8021 81.4858C31.6346 81.4164 31.4914 81.2989 31.3907 81.1482C31.29 80.9974 31.2362 80.8202 31.2362 80.6389C31.2362 80.3958 31.3328 80.1626 31.5047 79.9907C31.6766 79.8188 31.9097 79.7222 32.1529 79.7222ZM33.5279 87.9722H31.0834C30.9213 87.9722 30.7659 87.9078 30.6513 87.7932C30.5367 87.6786 30.4723 87.5232 30.4723 87.3611C30.4723 87.199 30.5367 87.0436 30.6513 86.929C30.7659 86.8144 30.9213 86.75 31.0834 86.75H31.5417C31.5823 86.75 31.6211 86.7339 31.6498 86.7052C31.6784 86.6766 31.6945 86.6377 31.6945 86.5972V83.8472C31.6945 83.8067 31.6784 83.7678 31.6498 83.7392C31.6211 83.7105 31.5823 83.6944 31.5417 83.6944H31.0834C30.9213 83.6944 30.7659 83.63 30.6513 83.5154C30.5367 83.4008 30.4723 83.2454 30.4723 83.0833C30.4723 82.9212 30.5367 82.7658 30.6513 82.6512C30.7659 82.5366 30.9213 82.4722 31.0834 82.4722H31.6945C32.0187 82.4722 32.3296 82.601 32.5588 82.8302C32.788 83.0594 32.9167 83.3703 32.9167 83.6944V86.5972C32.9167 86.6377 32.9328 86.6766 32.9615 86.7052C32.9901 86.7339 33.029 86.75 33.0695 86.75H33.5279C33.6899 86.75 33.8454 86.8144 33.96 86.929C34.0746 87.0436 34.139 87.199 34.139 87.3611C34.139 87.5232 34.0746 87.6786 33.96 87.7932C33.8454 87.9078 33.6899 87.9722 33.5279 87.9722Z" fill="#111111"/>
</g>
<g id="Size=20px, Filled=true" clip-path="url(#clip2_1110_1317)">
<path id="Vector_10" d="M61.9999 74.8333C60.1869 74.8333 58.4146 75.371 56.9072 76.3782C55.3997 77.3855 54.2248 78.8171 53.531 80.4921C52.8372 82.1671 52.6557 84.0102 53.0094 85.7883C53.3631 87.5665 54.2361 89.1998 55.5181 90.4818C56.8001 91.7638 58.4334 92.6368 60.2116 92.9905C61.9898 93.3442 63.8329 93.1627 65.5079 92.4689C67.1828 91.7751 68.6145 90.6002 69.6217 89.0927C70.629 87.5853 71.1666 85.813 71.1666 84C71.1666 81.5689 70.2008 79.2373 68.4817 77.5182C66.7626 75.7991 64.4311 74.8333 61.9999 74.8333V74.8333ZM62.1909 78.6528C62.4175 78.6528 62.6391 78.72 62.8275 78.8459C63.0159 78.9718 63.1628 79.1508 63.2495 79.3601C63.3362 79.5695 63.3589 79.7999 63.3147 80.0222C63.2705 80.2444 63.1614 80.4486 63.0011 80.6088C62.8409 80.7691 62.6367 80.8782 62.4144 80.9224C62.1922 80.9666 61.9618 80.944 61.7524 80.8572C61.543 80.7705 61.3641 80.6236 61.2382 80.4352C61.1123 80.2468 61.0451 80.0252 61.0451 79.7986C61.0451 79.4947 61.1658 79.2033 61.3807 78.9884C61.5956 78.7735 61.887 78.6528 62.1909 78.6528ZM63.9096 88.9653H60.8541C60.6515 88.9653 60.4572 88.8848 60.3139 88.7415C60.1707 88.5983 60.0902 88.404 60.0902 88.2014C60.0902 87.9988 60.1707 87.8045 60.3139 87.6612C60.4572 87.518 60.6515 87.4375 60.8541 87.4375H61.427C61.4777 87.4375 61.5262 87.4174 61.562 87.3816C61.5979 87.3458 61.618 87.2972 61.618 87.2465V83.809C61.618 83.7584 61.5979 83.7098 61.562 83.674C61.5262 83.6382 61.4777 83.6181 61.427 83.6181H60.8541C60.6515 83.6181 60.4572 83.5376 60.3139 83.3943C60.1707 83.2511 60.0902 83.0568 60.0902 82.8542C60.0902 82.6516 60.1707 82.4573 60.3139 82.314C60.4572 82.1708 60.6515 82.0903 60.8541 82.0903H61.618C62.0232 82.0903 62.4118 82.2512 62.6983 82.5378C62.9848 82.8243 63.1458 83.2129 63.1458 83.6181V87.2465C63.1458 87.2972 63.1659 87.3458 63.2017 87.3816C63.2375 87.4174 63.2861 87.4375 63.3367 87.4375H63.9096C64.1122 87.4375 64.3065 87.518 64.4498 87.6612C64.5931 87.8045 64.6735 87.9988 64.6735 88.2014C64.6735 88.404 64.5931 88.5983 64.4498 88.7415C64.3065 88.8848 64.1122 88.9653 63.9096 88.9653Z" fill="#111111"/>
</g>
<g id="Size=24px, Filled=true">
<path id="Vector_11" d="M96 73C93.8244 73 91.6977 73.6451 89.8887 74.8538C88.0798 76.0625 86.6699 77.7805 85.8373 79.7905C85.0048 81.8005 84.7869 84.0122 85.2114 86.146C85.6358 88.2798 86.6835 90.2398 88.2218 91.7782C89.7602 93.3165 91.7202 94.3642 93.854 94.7886C95.9878 95.2131 98.1995 94.9952 100.21 94.1627C102.22 93.3301 103.937 91.9202 105.146 90.1113C106.355 88.3023 107 86.1756 107 84C107 81.0826 105.841 78.2847 103.778 76.2218C101.715 74.1589 98.9174 73 96 73V73ZM96.2292 77.5833C96.5011 77.5833 96.767 77.664 96.9931 77.8151C97.2192 77.9661 97.3954 78.1809 97.4995 78.4321C97.6036 78.6834 97.6308 78.9599 97.5777 79.2266C97.5247 79.4933 97.3937 79.7383 97.2014 79.9306C97.0091 80.1229 96.7641 80.2539 96.4974 80.3069C96.2307 80.36 95.9542 80.3327 95.703 80.2287C95.4517 80.1246 95.237 79.9484 95.0859 79.7222C94.9348 79.4961 94.8542 79.2303 94.8542 78.9583C94.8542 78.5937 94.999 78.2439 95.2569 77.9861C95.5148 77.7282 95.8645 77.5833 96.2292 77.5833ZM98.2917 89.9583H94.625C94.3819 89.9583 94.1487 89.8618 93.9768 89.6898C93.8049 89.5179 93.7083 89.2848 93.7083 89.0417C93.7083 88.7985 93.8049 88.5654 93.9768 88.3935C94.1487 88.2216 94.3819 88.125 94.625 88.125H95.3125C95.3733 88.125 95.4316 88.1009 95.4745 88.0579C95.5175 88.0149 95.5417 87.9566 95.5417 87.8958V83.7708C95.5417 83.7101 95.5175 83.6518 95.4745 83.6088C95.4316 83.5658 95.3733 83.5417 95.3125 83.5417H94.625C94.3819 83.5417 94.1487 83.4451 93.9768 83.2732C93.8049 83.1013 93.7083 82.8681 93.7083 82.625C93.7083 82.3819 93.8049 82.1487 93.9768 81.9768C94.1487 81.8049 94.3819 81.7083 94.625 81.7083H95.5417C96.0279 81.7083 96.4942 81.9015 96.838 82.2453C97.1818 82.5891 97.375 83.0554 97.375 83.5417V87.8958C97.375 87.9566 97.3991 88.0149 97.4421 88.0579C97.4851 88.1009 97.5434 88.125 97.6042 88.125H98.2917C98.5348 88.125 98.7679 88.2216 98.9398 88.3935C99.1118 88.5654 99.2083 88.7985 99.2083 89.0417C99.2083 89.2848 99.1118 89.5179 98.9398 89.6898C98.7679 89.8618 98.5348 89.9583 98.2917 89.9583Z" fill="#111111"/>
</g>
<g id="Size=32px, Filled=true">
<path id="Vector_12" d="M136 69.3333C133.099 69.3333 130.263 70.1935 127.852 71.8051C125.44 73.4167 123.56 75.7073 122.45 78.3873C121.34 81.0673 121.049 84.0163 121.615 86.8613C122.181 89.7064 123.578 92.3197 125.629 94.3709C127.68 96.4221 130.294 97.8189 133.139 98.3849C135.984 98.9508 138.933 98.6603 141.613 97.5502C144.293 96.4402 146.583 94.5603 148.195 92.1484C149.806 89.7365 150.667 86.9008 150.667 84C150.667 80.1102 149.121 76.3796 146.371 73.6291C143.62 70.8786 139.89 69.3333 136 69.3333V69.3333ZM136.305 75.4445C136.668 75.4445 137.023 75.552 137.324 75.7534C137.626 75.9549 137.86 76.2412 137.999 76.5762C138.138 76.9112 138.174 77.2798 138.104 77.6355C138.033 77.9911 137.858 78.3178 137.602 78.5742C137.345 78.8305 137.019 79.0052 136.663 79.0759C136.308 79.1466 135.939 79.1103 135.604 78.9716C135.269 78.8328 134.983 78.5978 134.781 78.2963C134.58 77.9948 134.472 77.6404 134.472 77.2778C134.472 76.7916 134.665 76.3252 135.009 75.9814C135.353 75.6376 135.819 75.4445 136.305 75.4445ZM139.055 91.9445H134.167C133.842 91.9445 133.532 91.8157 133.302 91.5865C133.073 91.3573 132.944 91.0464 132.944 90.7222C132.944 90.3981 133.073 90.0872 133.302 89.858C133.532 89.6288 133.842 89.5 134.167 89.5H135.083C135.164 89.5 135.242 89.4678 135.299 89.4105C135.357 89.3532 135.389 89.2755 135.389 89.1945V83.6945C135.389 83.6134 135.357 83.5357 135.299 83.4784C135.242 83.4211 135.164 83.3889 135.083 83.3889H134.167C133.842 83.3889 133.532 83.2601 133.302 83.0309C133.073 82.8017 132.944 82.4908 132.944 82.1667C132.944 81.8425 133.073 81.5316 133.302 81.3024C133.532 81.0732 133.842 80.9445 134.167 80.9445H135.389C136.037 80.9445 136.659 81.202 137.117 81.6604C137.576 82.1188 137.833 82.7406 137.833 83.3889V89.1945C137.833 89.2755 137.865 89.3532 137.923 89.4105C137.98 89.4678 138.058 89.5 138.139 89.5H139.055C139.38 89.5 139.691 89.6288 139.92 89.858C140.149 90.0872 140.278 90.3981 140.278 90.7222C140.278 91.0464 140.149 91.3573 139.92 91.5865C139.691 91.8157 139.38 91.9445 139.055 91.9445Z" fill="#111111"/>
</g>
<g id="Size=40px, Filled=true">
<path id="Vector_13" d="M184 65.6667C180.374 65.6667 176.83 66.7419 173.815 68.7564C170.8 70.7709 168.45 73.6341 167.062 76.9841C165.675 80.3341 165.312 84.0203 166.019 87.5766C166.726 91.133 168.473 94.3996 171.036 96.9636C173.6 99.5276 176.867 101.274 180.423 101.981C183.98 102.688 187.666 102.325 191.016 100.938C194.366 99.5502 197.229 97.2003 199.244 94.1854C201.258 91.1705 202.333 87.626 202.333 84C202.333 79.1377 200.402 74.4745 196.964 71.0364C193.526 67.5982 188.862 65.6667 184 65.6667V65.6667ZM184.382 73.3055C184.835 73.3055 185.278 73.4399 185.655 73.6918C186.032 73.9436 186.326 74.3015 186.499 74.7202C186.673 75.139 186.718 75.5998 186.63 76.0443C186.541 76.4888 186.323 76.8972 186.002 77.2177C185.682 77.5382 185.274 77.7564 184.829 77.8448C184.385 77.9333 183.924 77.8879 183.505 77.7144C183.086 77.541 182.728 77.2473 182.477 76.8704C182.225 76.4935 182.09 76.0505 182.09 75.5972C182.09 74.9894 182.332 74.4065 182.762 73.9768C183.191 73.547 183.774 73.3055 184.382 73.3055ZM187.82 93.9305H181.708C181.303 93.9305 180.915 93.7696 180.628 93.4831C180.342 93.1966 180.181 92.808 180.181 92.4028C180.181 91.9976 180.342 91.609 180.628 91.3225C180.915 91.0359 181.303 90.875 181.708 90.875H182.854C182.956 90.875 183.053 90.8347 183.124 90.7631C183.196 90.6915 183.236 90.5943 183.236 90.493V83.618C183.236 83.5167 183.196 83.4196 183.124 83.348C183.053 83.2763 182.956 83.2361 182.854 83.2361H181.708C181.303 83.2361 180.915 83.0751 180.628 82.7886C180.342 82.5021 180.181 82.1135 180.181 81.7083C180.181 81.3031 180.342 80.9145 180.628 80.628C180.915 80.3415 181.303 80.1805 181.708 80.1805H183.236C184.047 80.1805 184.824 80.5025 185.397 81.0755C185.97 81.6485 186.292 82.4257 186.292 83.2361V90.493C186.292 90.5943 186.332 90.6915 186.404 90.7631C186.475 90.8347 186.572 90.875 186.674 90.875H187.82C188.225 90.875 188.613 91.0359 188.9 91.3225C189.186 91.609 189.347 91.9976 189.347 92.4028C189.347 92.808 189.186 93.1966 188.9 93.4831C188.613 93.7696 188.225 93.9305 187.82 93.9305Z" fill="#111111"/>
</g>
<g id="Size=48px, Filled=true">
<path id="Vector_14" d="M240 62C235.649 62 231.395 63.2903 227.777 65.7077C224.16 68.1251 221.34 71.561 219.675 75.581C218.01 79.6009 217.574 84.0244 218.423 88.292C219.272 92.5596 221.367 96.4796 224.444 99.5563C227.52 102.633 231.44 104.728 235.708 105.577C239.976 106.426 244.399 105.99 248.419 104.325C252.439 102.66 255.875 99.8404 258.292 96.2225C260.71 92.6047 262 88.3512 262 84C262 78.1652 259.682 72.5694 255.556 68.4436C251.431 64.3178 245.835 62 240 62V62ZM240.458 71.1667C241.002 71.1667 241.534 71.3279 241.986 71.6301C242.438 71.9323 242.791 72.3618 242.999 72.8643C243.207 73.3668 243.262 73.9197 243.155 74.4532C243.049 74.9866 242.787 75.4766 242.403 75.8612C242.018 76.2458 241.528 76.5077 240.995 76.6138C240.461 76.7199 239.908 76.6655 239.406 76.4573C238.903 76.2492 238.474 75.8967 238.172 75.4445C237.87 74.9922 237.708 74.4606 237.708 73.9167C237.708 73.1873 237.998 72.4878 238.514 71.9721C239.03 71.4564 239.729 71.1667 240.458 71.1667ZM244.583 95.9167H237.25C236.764 95.9167 236.297 95.7235 235.954 95.3797C235.61 95.0359 235.417 94.5696 235.417 94.0833C235.417 93.5971 235.61 93.1308 235.954 92.787C236.297 92.4431 236.764 92.25 237.25 92.25H238.625C238.747 92.25 238.863 92.2017 238.949 92.1158C239.035 92.0298 239.083 91.9132 239.083 91.7917V83.5417C239.083 83.4201 239.035 83.3035 238.949 83.2176C238.863 83.1316 238.747 83.0833 238.625 83.0833H237.25C236.764 83.0833 236.297 82.8902 235.954 82.5464C235.61 82.2025 235.417 81.7362 235.417 81.25C235.417 80.7638 235.61 80.2975 235.954 79.9536C236.297 79.6098 236.764 79.4167 237.25 79.4167H239.083C240.056 79.4167 240.988 79.803 241.676 80.4906C242.364 81.1782 242.75 82.1109 242.75 83.0833V91.7917C242.75 91.9132 242.798 92.0298 242.884 92.1158C242.97 92.2017 243.087 92.25 243.208 92.25H244.583C245.07 92.25 245.536 92.4431 245.88 92.787C246.224 93.1308 246.417 93.5971 246.417 94.0833C246.417 94.5696 246.224 95.0359 245.88 95.3797C245.536 95.7235 245.07 95.9167 244.583 95.9167Z" fill="#111111"/>
</g>
</g>
<defs>
<clipPath id="clip0_1110_1317">
<rect width="12" height="12" fill="white" transform="translate(0 78)"/>
</clipPath>
<clipPath id="clip1_1110_1317">
<rect width="16" height="16" fill="white" transform="translate(24 76)"/>
</clipPath>
<clipPath id="clip2_1110_1317">
<rect width="20" height="20" fill="white" transform="translate(52 74)"/>
</clipPath>
</defs>
</svg>
