<svg width="264" height="108" viewBox="0 0 264 108" fill="none" xmlns="http://www.w3.org/2000/svg">
<g id="Logout 2" clip-path="url(#clip0_1110_1322)">
<g id="Size=12px, Filled=false">
<path id="Vector" d="M9.75 27V27.75C9.75 28.1642 9.41421 28.5 9 28.5H6.75M6.75 19.5H9C9.41421 19.5 9.75 19.8358 9.75 20.25V21M9.61364 22.5L11.25 24M11.25 24H6.75M11.25 24L9.75 25.5M4.03124 24.003C3.91722 24.003 3.81448 24.0719 3.77113 24.1773C3.72778 24.2828 3.75239 24.404 3.83345 24.4842C3.91451 24.5644 4.03597 24.5877 4.14097 24.5432C4.24596 24.4987 4.31371 24.3953 4.31249 24.2813C4.31269 24.2066 4.28312 24.1349 4.23034 24.0822C4.17755 24.0294 4.1059 23.9998 4.03124 24M4.88314 29.2466L1.026 28.6464C0.867712 28.6218 0.750101 28.4743 0.75 28.3002V20.1368C0.749875 19.9716 0.855815 19.8288 1.00414 19.7942L4.86129 18.7578C4.95624 18.7356 5.05529 18.7614 5.13077 18.8279C5.20626 18.8944 5.25008 18.9946 5.25 19.1003V28.9003C5.24994 29.0017 5.20949 29.0981 5.13911 29.1645C5.06873 29.231 4.97535 29.2609 4.88314 29.2466Z" stroke="#111111" stroke-width="0.75" stroke-linecap="round" stroke-linejoin="round"/>
</g>
<g id="Size=16px, Filled=false">
<path id="Vector_2" d="M37 28V29C37 29.5523 36.5523 30 36 30H33M33 18H36C36.5523 18 37 18.4477 37 19V20M36.8182 22L39 24M39 24H33M39 24L37 26M29.375 24.004C29.223 24.004 29.086 24.0958 29.0282 24.2364C28.9704 24.3771 29.0032 24.5387 29.1113 24.6456C29.2194 24.7525 29.3813 24.7836 29.5213 24.7243C29.6613 24.665 29.7516 24.527 29.75 24.375C29.7503 24.2755 29.7108 24.1799 29.6404 24.1095C29.5701 24.0392 29.4745 23.9997 29.375 24M30.5109 30.9954L25.368 30.1952C25.1569 30.1624 25.0001 29.9657 25 29.7336V18.849C24.9998 18.6288 25.1411 18.4384 25.3389 18.3923L30.4817 17.0103C30.6083 16.9808 30.7404 17.0152 30.841 17.1039C30.9417 17.1926 31.0001 17.3261 31 17.4671V30.5337C30.9999 30.669 30.946 30.7975 30.8521 30.8861C30.7583 30.9746 30.6338 31.0145 30.5109 30.9954Z" stroke="#111111" stroke-linecap="round" stroke-linejoin="round"/>
</g>
<g id="Size=20px, Filled=false">
<path id="Vector_3" d="M68.6666 29V30.25C68.6666 30.9404 68.107 31.5 67.4166 31.5H63.6666M63.6666 16.5H67.4166C68.107 16.5 68.6666 17.0596 68.6666 17.75V19M68.7424 21.5L71.1666 24M71.1666 24H64.4999M71.1666 24L68.6666 26.5M58.9791 24.0033C58.8524 24.0033 58.7383 24.0798 58.6901 24.197C58.6419 24.3142 58.6693 24.4489 58.7594 24.538C58.8494 24.6271 58.9844 24.653 59.101 24.6036C59.2177 24.5542 59.293 24.4392 59.2916 24.3125C59.2918 24.2296 59.259 24.1499 59.2003 24.0913C59.1417 24.0326 59.0621 23.9998 58.9791 24M60.4872 33.1605L53.3444 32.1127C53.0512 32.0697 52.8334 31.8121 52.8333 31.5081V17.2546C52.833 16.9662 53.0292 16.7169 53.3039 16.6565L60.4467 14.8469C60.6226 14.8082 60.806 14.8532 60.9458 14.9694C61.0856 15.0855 61.1667 15.2603 61.1666 15.4449V32.5559C61.1665 32.733 61.0916 32.9013 60.9612 33.0173C60.8309 33.1333 60.658 33.1855 60.4872 33.1605Z" stroke="#111111" stroke-width="1.25" stroke-linecap="round" stroke-linejoin="round"/>
</g>
<g id="Size=24px, Filled=false">
<path id="Vector_4" d="M104 30V31.5C104 32.3284 103.328 33 102.5 33H98M98 15H102.5C103.328 15 104 15.6716 104 16.5V18M104.091 21L107 24M107 24H99M107 24L104 27M92.375 24.004C92.223 24.004 92.086 24.0958 92.0282 24.2364C91.9704 24.3771 92.0032 24.5387 92.1113 24.6456C92.2194 24.7525 92.3813 24.7836 92.5213 24.7243C92.6613 24.665 92.7516 24.527 92.75 24.375C92.7503 24.2755 92.7108 24.1799 92.6404 24.1095C92.5701 24.0392 92.4745 23.9997 92.375 24M94.1848 34.9926L85.6133 33.7352C85.2616 33.6837 85.0002 33.3745 85 33.0097V15.9056C84.9997 15.5595 85.2351 15.2603 85.5648 15.1879L94.1362 13.0163C94.3472 12.9699 94.5673 13.0239 94.7351 13.1633C94.9028 13.3027 95.0002 13.5124 95 13.7339V34.2671C94.9999 34.4796 94.91 34.6816 94.7536 34.8208C94.5972 34.96 94.3897 35.0227 94.1848 34.9926Z" stroke="#111111" stroke-width="1.5" stroke-linecap="round" stroke-linejoin="round"/>
</g>
<g id="Size=32px, Filled=false">
<path id="Vector_5" d="M146.667 32V34C146.667 35.1046 145.771 36 144.667 36H138.667M138.667 12H144.667C145.771 12 146.667 12.8954 146.667 14V16M146.788 20L150.667 24M150.667 24H140M150.667 24L146.667 28M131.167 24.0053C130.964 24.0053 130.781 24.1278 130.704 24.3152C130.627 24.5027 130.671 24.7182 130.815 24.8608C130.959 25.0033 131.175 25.0448 131.362 24.9657C131.548 24.8867 131.669 24.7027 131.667 24.5C131.667 24.3673 131.614 24.2399 131.52 24.1461C131.427 24.0522 131.299 23.9996 131.167 24M133.58 38.6568L122.151 36.9803C121.682 36.9115 121.334 36.4993 121.333 36.0129V13.2074C121.333 12.746 121.647 12.3471 122.086 12.2505L133.515 9.35498C133.796 9.29315 134.09 9.36521 134.313 9.55103C134.537 9.73685 134.667 10.0165 134.667 10.3119V37.6895C134.666 37.9728 134.547 38.2421 134.338 38.4277C134.129 38.6133 133.853 38.6969 133.58 38.6568Z" stroke="#111111" stroke-width="2" stroke-linecap="round" stroke-linejoin="round"/>
</g>
<g id="Size=40px, Filled=false">
<path id="Vector_6" d="M197.333 34V36.5C197.333 37.8807 196.214 39 194.833 39H187.333M187.333 9H194.833C196.214 9 197.333 10.1193 197.333 11.5V14M197.485 19L202.333 24M202.333 24H189M202.333 24L197.333 29M177.958 24.0067C177.705 24.0067 177.477 24.1597 177.38 24.3941C177.284 24.6284 177.339 24.8978 177.519 25.076C177.699 25.2542 177.969 25.306 178.202 25.2072C178.436 25.1083 178.586 24.8784 178.583 24.625C178.584 24.4591 178.518 24.2999 178.401 24.1826C178.284 24.0653 178.124 23.9996 177.958 24M180.975 42.3211L166.689 40.2254C166.103 40.1395 165.667 39.6242 165.667 39.0162V10.5093C165.666 9.93251 166.059 9.4339 166.608 9.31316L180.894 5.69378C181.245 5.61648 181.612 5.70656 181.892 5.93883C182.171 6.17111 182.334 6.52068 182.333 6.88992V41.1119C182.333 41.4661 182.183 41.8027 181.923 42.0347C181.662 42.2667 181.316 42.3711 180.975 42.3211Z" stroke="#111111" stroke-width="2.5" stroke-linecap="round" stroke-linejoin="round"/>
</g>
<g id="Size=48px, Filled=false">
<path id="Vector_7" d="M256 36V39C256 40.6569 254.657 42 253 42H244M244 6H253C254.657 6 256 7.34315 256 9V12M256.182 18L262 24M262 24H246M262 24L256 30M232.75 24.008C232.446 24.008 232.172 24.1916 232.056 24.4729C231.941 24.7541 232.006 25.0773 232.223 25.2912C232.439 25.505 232.763 25.5672 233.043 25.4486C233.323 25.33 233.503 25.0541 233.5 24.75C233.501 24.5509 233.422 24.3599 233.281 24.2191C233.14 24.0783 232.949 23.9995 232.75 24M236.37 45.9853L219.227 43.4704C218.523 43.3673 218 42.749 218 42.0194V7.81113C217.999 7.11899 218.47 6.52066 219.13 6.37577L236.272 2.03251C236.694 1.93976 237.135 2.04784 237.47 2.32657C237.806 2.6053 238 3.0248 238 3.46788V44.5343C238 44.9592 237.82 45.3632 237.507 45.6416C237.194 45.92 236.779 46.0453 236.37 45.9853Z" stroke="#111111" stroke-width="3" stroke-linecap="round" stroke-linejoin="round"/>
</g>
<g id="Size=12px, Filled=true" clip-path="url(#clip1_1110_1322)">
<path id="Vector_8" fill-rule="evenodd" clip-rule="evenodd" d="M8.17439 87.3941C8.26562 87.3004 8.38936 87.2477 8.51838 87.2477C8.64656 87.2491 8.76905 87.3023 8.85924 87.3959C8.94942 87.4894 9.00001 87.6158 9 87.7474V88.7468C9 88.8793 8.94875 89.0064 8.85751 89.1001C8.76628 89.1938 8.64254 89.2465 8.51352 89.2465H4.86489V89.7462C4.86475 89.7833 4.85668 89.8201 4.84126 89.8537C4.82584 89.8874 4.80343 89.9171 4.77562 89.9409C4.7478 89.9647 4.71525 89.982 4.68025 89.9915C4.64524 90.001 4.60864 90.0026 4.573 89.996L0.194643 88.9966C0.138874 88.985 0.0888578 88.9536 0.0533019 88.9079C0.0177461 88.8623 -0.00109811 88.8052 4.94849e-05 88.7468V79.2528C-0.00109811 79.1944 0.0177461 79.1374 0.0533019 79.0917C0.0888578 79.0461 0.138874 79.0147 0.194643 79.003L4.573 78.0036C4.6089 77.9975 4.64567 77.9992 4.68089 78.0086C4.71611 78.0181 4.74897 78.0351 4.77732 78.0586C4.80484 78.0826 4.82693 78.1124 4.84205 78.1461C4.85718 78.1798 4.86497 78.2164 4.86489 78.2535V78.7532H8.51352C8.64254 78.7532 8.76628 78.8058 8.85751 78.8995C8.94875 78.9932 9 79.1203 9 79.2528V80.502C9 80.6346 8.94875 80.7617 8.85751 80.8554C8.76628 80.9491 8.64254 81.0017 8.51352 81.0017C8.38449 81.0017 8.26075 80.9491 8.16952 80.8554C8.07829 80.7617 8.02703 80.6346 8.02703 80.502V80.0024C8.02703 79.9361 8.00141 79.8726 7.95579 79.8257C7.91017 79.7788 7.8483 79.7525 7.78379 79.7525H5.10813C5.04362 79.7525 4.98175 79.7788 4.93613 79.8257C4.89051 79.8726 4.86489 79.9361 4.86489 80.0024V87.9973C4.86488 88.0305 4.87133 88.0634 4.88386 88.0941C4.89639 88.1247 4.91474 88.1525 4.93784 88.1757C4.96095 88.199 4.98834 88.2173 5.01842 88.2295C5.04849 88.2418 5.08065 88.2478 5.113 88.2471H7.78866C7.85317 88.2471 7.91504 88.2208 7.96065 88.1739C8.00627 88.1271 8.0319 88.0635 8.0319 87.9973V87.7474C8.0319 87.6149 8.08315 87.4878 8.17439 87.3941ZM3.53089 84.6655C3.61086 84.5424 3.65354 84.3977 3.65354 84.2497C3.65355 84.1508 3.63451 84.0529 3.59753 83.9617C3.56056 83.8704 3.50637 83.7876 3.43809 83.7179C3.36982 83.6482 3.2888 83.5931 3.1997 83.5557C3.1106 83.5184 3.01519 83.4995 2.91895 83.5001C2.77484 83.5011 2.63423 83.5459 2.51487 83.6289C2.39551 83.7118 2.30274 83.8292 2.24825 83.9663C2.19377 84.1033 2.18001 84.2539 2.20871 84.3989C2.23741 84.544 2.3073 84.6771 2.40954 84.7814C2.51179 84.8857 2.64182 84.9566 2.78323 84.9851C2.92465 85.0136 3.07113 84.9985 3.20418 84.9416C3.33724 84.8848 3.45092 84.7887 3.53089 84.6655ZM9.44098 82.0756L11.783 83.6067H11.7878C11.8531 83.6498 11.9066 83.708 11.9436 83.7762C11.9806 83.8444 12 83.9205 12 83.9977C12 84.075 11.9806 84.1511 11.9436 84.2193C11.9066 84.2875 11.8531 84.3457 11.7878 84.3888L9.44578 85.9199C9.3677 85.9714 9.27591 85.9993 9.18183 86C9.1029 86.0008 9.02512 85.9813 8.95627 85.9434C8.87964 85.9034 8.81551 85.8437 8.77072 85.7707C8.72593 85.6977 8.70215 85.6141 8.70192 85.5289V84.7044H6.71987C6.52895 84.7044 6.34585 84.63 6.21085 84.4974C6.07584 84.3649 6 84.1852 6 83.9977C6 83.8103 6.07584 83.6306 6.21085 83.498C6.34585 83.3655 6.52895 83.2911 6.71987 83.2911H8.70672V82.4666C8.70695 82.3814 8.73073 82.2978 8.77552 82.2248C8.82031 82.1518 8.88444 82.0921 8.96107 82.052C9.03612 82.0142 9.11999 81.9965 9.20425 82.0006C9.2885 82.0047 9.37016 82.0306 9.44098 82.0756Z" fill="#111111"/>
</g>
<g id="Size=16px, Filled=true" clip-path="url(#clip2_1110_1322)">
<path id="Vector_9" fill-rule="evenodd" clip-rule="evenodd" d="M34.8992 88.5255C35.0208 88.4005 35.1858 88.3303 35.3578 88.3303C35.5287 88.3321 35.6921 88.4031 35.8123 88.5278C35.9326 88.6526 36 88.821 36 88.9966V90.3291C36 90.5058 35.9317 90.6752 35.81 90.8002C35.6884 90.9251 35.5234 90.9953 35.3514 90.9953H30.4865V91.6615C30.4863 91.7111 30.4756 91.7601 30.455 91.8049C30.4345 91.8498 30.4046 91.8895 30.3675 91.9212C30.3304 91.953 30.287 91.976 30.2403 91.9887C30.1937 92.0014 30.1448 92.0034 30.0973 91.9947L24.2595 90.6622C24.1852 90.6466 24.1185 90.6047 24.0711 90.5439C24.0237 90.483 23.9985 90.407 24.0001 90.3291V77.6705C23.9985 77.5925 24.0237 77.5165 24.0711 77.4556C24.1185 77.3948 24.1852 77.3529 24.2595 77.3373L30.0973 76.0048C30.1452 75.9966 30.1942 75.9989 30.2412 76.0115C30.2881 76.0242 30.332 76.0469 30.3698 76.0781C30.4065 76.1101 30.4359 76.1499 30.4561 76.1948C30.4762 76.2397 30.4866 76.2885 30.4865 76.338V77.0042H35.3514C35.5234 77.0042 35.6884 77.0744 35.81 77.1993C35.9317 77.3243 36 77.4938 36 77.6705V79.3361C36 79.5128 35.9317 79.6822 35.81 79.8072C35.6884 79.9321 35.5234 80.0023 35.3514 80.0023C35.1793 80.0023 35.0143 79.9321 34.8927 79.8072C34.771 79.6822 34.7027 79.5128 34.7027 79.3361V78.6698C34.7027 78.5815 34.6685 78.4967 34.6077 78.4343C34.5469 78.3718 34.4644 78.3367 34.3784 78.3367H30.8108C30.7248 78.3367 30.6423 78.3718 30.5815 78.4343C30.5207 78.4967 30.4865 78.5815 30.4865 78.6698V89.3297C30.4865 89.374 30.4951 89.4179 30.5118 89.4587C30.5285 89.4996 30.553 89.5366 30.5838 89.5676C30.6146 89.5987 30.6511 89.6231 30.6912 89.6394C30.7313 89.6557 30.7742 89.6637 30.8173 89.6628H34.3849C34.4709 89.6628 34.5534 89.6277 34.6142 89.5652C34.675 89.5028 34.7092 89.418 34.7092 89.3297V88.9966C34.7092 88.8199 34.7775 88.6504 34.8992 88.5255ZM28.7079 84.8874C28.8145 84.7232 28.8714 84.5302 28.8714 84.3329C28.8714 84.2011 28.846 84.0706 28.7967 83.9489C28.7474 83.8272 28.6752 83.7167 28.5841 83.6239C28.4931 83.531 28.3851 83.4575 28.2663 83.4077C28.1475 83.3578 28.0203 83.3326 27.8919 83.3335C27.6998 83.3348 27.5123 83.3946 27.3532 83.5052C27.194 83.6158 27.0703 83.7723 26.9977 83.955C26.925 84.1378 26.9067 84.3385 26.9449 84.5319C26.9832 84.7253 27.0764 84.9028 27.2127 85.0419C27.349 85.181 27.5224 85.2755 27.711 85.3135C27.8995 85.3515 28.0948 85.3313 28.2722 85.2555C28.4497 85.1797 28.6012 85.0516 28.7079 84.8874ZM36.588 81.4341L39.7106 83.4756H39.717C39.8041 83.533 39.8755 83.6107 39.9248 83.7016C39.9742 83.7925 40 83.8939 40 83.997C40 84.1 39.9742 84.2014 39.9248 84.2923C39.8755 84.3833 39.8041 84.4609 39.717 84.5183L36.5944 86.5598C36.4903 86.6285 36.3679 86.6656 36.2424 86.6666C36.1372 86.6677 36.0335 86.6418 35.9417 86.5912C35.8395 86.5378 35.754 86.4582 35.6943 86.3609C35.6346 86.2635 35.6029 86.1521 35.6026 86.0385V84.9392H32.9598C32.7053 84.9392 32.4611 84.8399 32.2811 84.6632C32.1011 84.4865 32 84.2468 32 83.997C32 83.7471 32.1011 83.5074 32.2811 83.3307C32.4611 83.154 32.7053 83.0547 32.9598 83.0547H35.609V81.9554C35.6093 81.8418 35.641 81.7304 35.7007 81.633C35.7604 81.5357 35.8459 81.4561 35.9481 81.4027C36.0482 81.3522 36.16 81.3286 36.2723 81.3341C36.3847 81.3396 36.4935 81.3741 36.588 81.4341Z" fill="#111111"/>
</g>
<g id="Size=20px, Filled=true" clip-path="url(#clip3_1110_1322)">
<path id="Vector_10" fill-rule="evenodd" clip-rule="evenodd" d="M65.624 89.6568C65.776 89.5007 65.9823 89.4129 66.1973 89.4129C66.4109 89.4151 66.6151 89.5038 66.7654 89.6598C66.9157 89.8157 67 90.0263 67 90.2457V91.9113C67 92.1322 66.9146 92.344 66.7625 92.5002C66.6105 92.6564 66.4042 92.7441 66.1892 92.7441H60.1081V93.5769C60.1079 93.6389 60.0945 93.7001 60.0688 93.7562C60.0431 93.8123 60.0057 93.8619 59.9594 93.9016C59.913 93.9412 59.8587 93.97 59.8004 93.9859C59.7421 94.0017 59.6811 94.0043 59.6217 93.9933L52.3244 92.3277C52.2315 92.3083 52.1481 92.2559 52.0888 92.1798C52.0296 92.1038 51.9982 92.0087 52.0001 91.9113V76.0881C51.9982 75.9906 52.0296 75.8956 52.0888 75.8195C52.1481 75.7435 52.2315 75.6911 52.3244 75.6717L59.6217 74.0061C59.6815 73.9958 59.7428 73.9986 59.8015 74.0144C59.8602 74.0302 59.915 74.0586 59.9622 74.0977C60.0081 74.1376 60.0449 74.1874 60.0701 74.2435C60.0953 74.2996 60.1083 74.3607 60.1081 74.4225V75.2553H66.1892C66.4042 75.2553 66.6105 75.343 66.7625 75.4992C66.9146 75.6554 67 75.8672 67 76.0881V78.1701C67 78.3909 66.9146 78.6028 66.7625 78.759C66.6105 78.9151 66.4042 79.0029 66.1892 79.0029C65.9742 79.0029 65.7679 78.9151 65.6159 78.759C65.4638 78.6028 65.3784 78.3909 65.3784 78.1701V77.3373C65.3784 77.2268 65.3357 77.1209 65.2596 77.0428C65.1836 76.9647 65.0805 76.9209 64.973 76.9209H60.5135C60.406 76.9209 60.3029 76.9647 60.2269 77.0428C60.1509 77.1209 60.1081 77.2268 60.1081 77.3373V90.6621C60.1081 90.7175 60.1189 90.7723 60.1398 90.8234C60.1606 90.8745 60.1912 90.9208 60.2297 90.9595C60.2682 90.9983 60.3139 91.0288 60.364 91.0492C60.4142 91.0697 60.4677 91.0796 60.5217 91.0785H64.9811C65.0886 91.0785 65.1917 91.0347 65.2678 90.9566C65.3438 90.8785 65.3865 90.7726 65.3865 90.6621V90.2457C65.3865 90.0248 65.4719 89.813 65.624 89.6568ZM57.8848 85.1092C58.0181 84.904 58.0892 84.6628 58.0892 84.4161C58.0892 84.2513 58.0575 84.0882 57.9959 83.9361C57.9343 83.784 57.844 83.6459 57.7302 83.5298C57.6164 83.4137 57.4813 83.3219 57.3328 83.2596C57.1843 83.1973 57.0253 83.1658 56.8649 83.1669C56.6247 83.1685 56.3904 83.2432 56.1915 83.3815C55.9925 83.5197 55.8379 83.7154 55.7471 83.9438C55.6563 84.1722 55.6333 84.4231 55.6812 84.6649C55.729 84.9066 55.8455 85.1284 56.0159 85.3023C56.1863 85.4762 56.403 85.5943 56.6387 85.6419C56.8744 85.6894 57.1185 85.6642 57.3403 85.5694C57.5621 85.4746 57.7515 85.3145 57.8848 85.1092ZM67.735 80.7926L71.6383 83.3445H71.6463C71.7552 83.4164 71.8444 83.5134 71.906 83.627C71.9677 83.7407 72 83.8675 72 83.9962C72 84.125 71.9677 84.2518 71.906 84.3655C71.8444 84.4791 71.7552 84.5761 71.6463 84.6479L67.743 87.1998C67.6128 87.2857 67.4598 87.3321 67.3031 87.3333C67.1715 87.3347 67.0419 87.3022 66.9271 87.2391C66.7994 87.1723 66.6925 87.0728 66.6179 86.9511C66.5432 86.8294 66.5036 86.6902 66.5032 86.5481V85.174H63.1998C62.8816 85.174 62.5764 85.0499 62.3514 84.8291C62.1264 84.6082 62 84.3086 62 83.9962C62 83.6839 62.1264 83.3843 62.3514 83.1634C62.5764 82.9425 62.8816 82.8184 63.1998 82.8184H66.5112V81.4444C66.5116 81.3023 66.5512 81.163 66.6259 81.0413C66.7005 80.9197 66.8074 80.8201 66.9351 80.7534C67.0602 80.6903 67.2 80.6608 67.3404 80.6677C67.4808 80.6746 67.6169 80.7177 67.735 80.7926Z" fill="#111111"/>
</g>
<g id="Size=24px, Filled=true" clip-path="url(#clip4_1110_1322)">
<path id="Vector_11" fill-rule="evenodd" clip-rule="evenodd" d="M100.349 90.7882C100.531 90.6008 100.779 90.4955 101.037 90.4955C101.293 90.4981 101.538 90.6046 101.718 90.7917C101.899 90.9788 102 91.2315 102 91.4949V93.4936C102 93.7586 101.897 94.0128 101.715 94.2002C101.533 94.3877 101.285 94.493 101.027 94.493H93.7298V95.4923C93.7295 95.5667 93.7134 95.6401 93.6825 95.7074C93.6517 95.7747 93.6069 95.8343 93.5512 95.8819C93.4956 95.9295 93.4305 95.964 93.3605 95.983C93.2905 96.0021 93.2173 96.0051 93.146 95.992L84.3893 93.9933C84.2777 93.9699 84.1777 93.9071 84.1066 93.8158C84.0355 93.7245 83.9978 93.6105 84.0001 93.4936V74.5057C83.9978 74.3888 84.0355 74.2748 84.1066 74.1835C84.1777 74.0922 84.2777 74.0294 84.3893 74.006L93.146 72.0073C93.2178 71.9949 93.2913 71.9983 93.3618 72.0173C93.4322 72.0362 93.4979 72.0703 93.5546 72.1172C93.6097 72.1652 93.6539 72.2249 93.6841 72.2922C93.7144 72.3595 93.7299 72.4328 93.7298 72.507V73.5063H101.027C101.285 73.5063 101.533 73.6116 101.715 73.799C101.897 73.9864 102 74.2406 102 74.5057V77.0041C102 77.2691 101.897 77.5233 101.715 77.7107C101.533 77.8982 101.285 78.0035 101.027 78.0035C100.769 78.0035 100.522 77.8982 100.339 77.7107C100.157 77.5233 100.054 77.2691 100.054 77.0041V76.0047C100.054 75.8722 100.003 75.7451 99.9116 75.6514C99.8203 75.5577 99.6966 75.505 99.5676 75.505H94.2163C94.0872 75.505 93.9635 75.5577 93.8723 75.6514C93.781 75.7451 93.7298 75.8722 93.7298 76.0047V91.9945C93.7298 92.061 93.7427 92.1268 93.7677 92.1881C93.7928 92.2494 93.8295 92.3049 93.8757 92.3515C93.9219 92.398 93.9767 92.4346 94.0368 92.4591C94.097 92.4836 94.1613 92.4956 94.226 92.4942H99.5773C99.7063 92.4942 99.8301 92.4416 99.9213 92.3479C100.013 92.2542 100.064 92.1271 100.064 91.9945V91.4949C100.064 91.2298 100.166 90.9756 100.349 90.7882ZM91.0618 85.3311C91.2217 85.0848 91.3071 84.7954 91.3071 84.4993C91.3071 84.3016 91.269 84.1059 91.1951 83.9233C91.1211 83.7408 91.0127 83.5751 90.8762 83.4358C90.7396 83.2965 90.5776 83.1862 90.3994 83.1115C90.2212 83.0368 90.0304 82.999 89.8379 83.0003C89.5497 83.0022 89.2685 83.0918 89.0297 83.2577C88.791 83.4237 88.6055 83.6585 88.4965 83.9325C88.3875 84.2066 88.36 84.5077 88.4174 84.7978C88.4748 85.088 88.6146 85.3541 88.8191 85.5628C89.0236 85.7714 89.2836 85.9132 89.5665 85.9702C89.8493 86.0273 90.1423 85.997 90.4084 85.8833C90.6745 85.7695 90.9018 85.5774 91.0618 85.3311ZM102.882 80.1511L107.566 83.2134H107.576C107.706 83.2996 107.813 83.416 107.887 83.5524C107.961 83.6888 108 83.8409 108 83.9955C108 84.15 107.961 84.3021 107.887 84.4385C107.813 84.5749 107.706 84.6913 107.576 84.7775L102.892 87.8398C102.735 87.9428 102.552 87.9985 102.364 87.9999C102.206 88.0016 102.05 87.9627 101.913 87.8869C101.759 87.8068 101.631 87.6873 101.541 87.5413C101.452 87.3953 101.404 87.2282 101.404 87.0577V85.4088H97.4397C97.0579 85.4088 96.6917 85.2599 96.4217 84.9948C96.1517 84.7298 96 84.3703 96 83.9955C96 83.6206 96.1517 83.2611 96.4217 82.9961C96.6917 82.731 97.0579 82.5821 97.4397 82.5821H101.413V80.9332C101.414 80.7627 101.461 80.5956 101.551 80.4496C101.641 80.3036 101.769 80.1842 101.922 80.104C102.072 80.0284 102.24 79.9929 102.408 80.0012C102.577 80.0094 102.74 80.0612 102.882 80.1511Z" fill="#111111"/>
</g>
<g id="Size=32px, Filled=true" clip-path="url(#clip5_1110_1322)">
<path id="Vector_12" fill-rule="evenodd" clip-rule="evenodd" d="M141.798 93.0509C142.042 92.8011 142.372 92.6607 142.716 92.6607C143.057 92.6642 143.384 92.8061 143.625 93.0556C143.865 93.3051 144 93.642 144 93.9932V96.6581C144 97.0115 143.863 97.3504 143.62 97.6003C143.377 97.8502 143.047 97.9906 142.703 97.9906H132.973V99.3231C132.973 99.4223 132.951 99.5201 132.91 99.6099C132.869 99.6996 132.809 99.779 132.735 99.8425C132.661 99.906 132.574 99.952 132.481 99.9774C132.387 100.003 132.29 100.007 132.195 99.9893L120.519 97.3244C120.37 97.2932 120.237 97.2095 120.142 97.0878C120.047 96.966 119.997 96.814 120 96.6581V71.3409C119.997 71.185 120.047 71.033 120.142 70.9113C120.237 70.7895 120.37 70.7058 120.519 70.6747L132.195 68.0097C132.29 67.9932 132.388 67.9978 132.482 68.023C132.576 68.0483 132.664 68.0937 132.74 68.1563C132.813 68.2202 132.872 68.2999 132.912 68.3896C132.952 68.4794 132.973 68.5771 132.973 68.6759V70.0084H142.703C143.047 70.0084 143.377 70.1488 143.62 70.3987C143.863 70.6486 144 70.9875 144 71.3409V74.6721C144 75.0255 143.863 75.3644 143.62 75.6143C143.377 75.8642 143.047 76.0046 142.703 76.0046C142.359 76.0046 142.029 75.8642 141.785 75.6143C141.542 75.3644 141.405 75.0255 141.405 74.6721V73.3396C141.405 73.1629 141.337 72.9935 141.215 72.8685C141.094 72.7436 140.929 72.6734 140.757 72.6734H133.622C133.45 72.6734 133.285 72.7436 133.163 72.8685C133.041 72.9935 132.973 73.1629 132.973 73.3396V94.6594C132.973 94.748 132.99 94.8358 133.024 94.9175C133.057 94.9992 133.106 95.0732 133.168 95.1353C133.229 95.1973 133.302 95.2461 133.382 95.2788C133.463 95.3115 133.548 95.3274 133.635 95.3256H140.77C140.942 95.3256 141.107 95.2554 141.228 95.1305C141.35 95.0056 141.418 94.8361 141.418 94.6594V93.9932C141.418 93.6398 141.555 93.3008 141.798 93.0509ZM129.416 85.7748C129.629 85.4464 129.743 85.0605 129.743 84.6658C129.743 84.4022 129.692 84.1412 129.593 83.8978C129.495 83.6544 129.35 83.4335 129.168 83.2477C128.986 83.0619 128.77 82.915 128.533 82.8153C128.295 82.7157 128.041 82.6653 127.784 82.667C127.4 82.6697 127.025 82.7891 126.706 83.0103C126.388 83.2315 126.141 83.5446 125.995 83.9101C125.85 84.2755 125.813 84.677 125.89 85.0638C125.966 85.4506 126.153 85.8055 126.425 86.0837C126.698 86.3619 127.045 86.5509 127.422 86.627C127.799 86.703 128.19 86.6627 128.544 86.511C128.899 86.3594 129.202 86.1032 129.416 85.7748ZM145.176 78.8682L151.421 82.9512H151.434C151.608 83.0661 151.751 83.2214 151.85 83.4032C151.948 83.585 152 83.7879 152 83.994C152 84.2 151.948 84.4029 151.85 84.5847C151.751 84.7666 151.608 84.9218 151.434 85.0367L145.189 89.1197C144.981 89.2571 144.736 89.3314 144.485 89.3333C144.274 89.3356 144.067 89.2836 143.883 89.1825C143.679 89.0757 143.508 88.9165 143.389 88.7218C143.269 88.5271 143.206 88.3042 143.205 88.077V85.8784H137.92C137.411 85.8784 136.922 85.6799 136.562 85.3265C136.202 84.9731 136 84.4938 136 83.994C136 83.4942 136.202 83.0149 136.562 82.6614C136.922 82.308 137.411 82.1095 137.92 82.1095H143.218V79.911C143.219 79.6837 143.282 79.4608 143.401 79.2661C143.521 79.0715 143.692 78.9122 143.896 78.8054C144.096 78.7045 144.32 78.6572 144.545 78.6683C144.769 78.6793 144.987 78.7483 145.176 78.8682Z" fill="#111111"/>
</g>
<g id="Size=40px, Filled=true" clip-path="url(#clip6_1110_1322)">
<path id="Vector_13" fill-rule="evenodd" clip-rule="evenodd" d="M191.248 95.3137C191.552 95.0013 191.965 94.8258 192.395 94.8258C192.822 94.8302 193.23 95.0076 193.531 95.3195C193.831 95.6314 194 96.0526 194 96.4914V99.8227C194 100.264 193.829 100.688 193.525 101C193.221 101.313 192.808 101.488 192.378 101.488H180.216V103.154C180.216 103.278 180.189 103.4 180.138 103.512C180.086 103.625 180.011 103.724 179.919 103.803C179.826 103.882 179.717 103.94 179.601 103.972C179.484 104.003 179.362 104.009 179.243 103.987L164.649 100.655C164.463 100.617 164.296 100.512 164.178 100.36C164.059 100.208 163.996 100.017 164 99.8227V68.1761C163.996 67.9813 164.059 67.7913 164.178 67.6391C164.296 67.4869 164.463 67.3823 164.649 67.3433L179.243 64.0121C179.363 63.9915 179.486 63.9972 179.603 64.0288C179.72 64.0604 179.83 64.1171 179.924 64.1953C180.016 64.2753 180.09 64.3748 180.14 64.487C180.191 64.5992 180.217 64.7214 180.216 64.8449V66.5105H192.378C192.808 66.5105 193.221 66.686 193.525 66.9984C193.829 67.3107 194 67.7344 194 68.1761V72.3401C194 72.7819 193.829 73.2055 193.525 73.5179C193.221 73.8303 192.808 74.0058 192.378 74.0058C191.948 74.0058 191.536 73.8303 191.232 73.5179C190.928 73.2055 190.757 72.7819 190.757 72.3401V70.6745C190.757 70.4537 190.671 70.2418 190.519 70.0857C190.367 69.9295 190.161 69.8417 189.946 69.8417H181.027C180.812 69.8417 180.606 69.9295 180.454 70.0857C180.302 70.2418 180.216 70.4537 180.216 70.6745V97.3242C180.216 97.435 180.238 97.5447 180.28 97.6468C180.321 97.749 180.382 97.8415 180.459 97.9191C180.536 97.9966 180.628 98.0576 180.728 98.0985C180.828 98.1394 180.935 98.1593 181.043 98.157H189.962C190.177 98.157 190.383 98.0693 190.536 97.9131C190.688 97.7569 190.773 97.5451 190.773 97.3242V96.4914C190.773 96.0497 190.944 95.626 191.248 95.3137ZM175.77 86.2185C176.036 85.808 176.178 85.3256 176.178 84.8322C176.178 84.5027 176.115 84.1764 175.992 83.8722C175.869 83.568 175.688 83.2919 175.46 83.0596C175.233 82.8274 174.963 82.6437 174.666 82.5192C174.369 82.3946 174.051 82.3316 173.73 82.3338C173.249 82.3371 172.781 82.4864 172.383 82.7629C171.985 83.0394 171.676 83.4308 171.494 83.8876C171.313 84.3444 171.267 84.8462 171.362 85.3297C171.458 85.8133 171.691 86.2569 172.032 86.6046C172.373 86.9524 172.806 87.1887 173.277 87.2837C173.749 87.3788 174.237 87.3284 174.681 87.1388C175.124 86.9492 175.503 86.629 175.77 86.2185ZM195.47 77.5852L203.277 82.689H203.293C203.51 82.8326 203.689 83.0267 203.812 83.254C203.935 83.4813 204 83.7349 204 83.9924C204 84.25 203.935 84.5036 203.812 84.7309C203.689 84.9582 203.51 85.1522 203.293 85.2958L195.486 90.3996C195.226 90.5713 194.92 90.6642 194.606 90.6666C194.343 90.6694 194.084 90.6044 193.854 90.4781C193.599 90.3446 193.385 90.1455 193.236 89.9022C193.086 89.6588 193.007 89.3803 193.006 89.0962V86.348H186.4C185.763 86.348 185.153 86.0998 184.703 85.6581C184.253 85.2163 184 84.6171 184 83.9924C184 83.3677 184.253 82.7685 184.703 82.3268C185.153 81.885 185.763 81.6368 186.4 81.6368H193.022V78.8886C193.023 78.6046 193.102 78.326 193.252 78.0826C193.401 77.8393 193.615 77.6402 193.87 77.5067C194.12 77.3806 194.4 77.3215 194.681 77.3353C194.962 77.3491 195.234 77.4353 195.47 77.5852Z" fill="#111111"/>
</g>
<g id="Size=48px, Filled=true" clip-path="url(#clip7_1110_1322)">
<path id="Vector_14" fill-rule="evenodd" clip-rule="evenodd" d="M248.698 97.5764C249.062 97.2016 249.557 96.991 250.074 96.991C250.586 96.9963 251.076 97.2092 251.437 97.5834C251.798 97.9577 252 98.4631 252 98.9897V102.987C252 103.517 251.795 104.026 251.43 104.4C251.065 104.775 250.57 104.986 250.054 104.986H235.46V106.985C235.459 107.133 235.427 107.28 235.365 107.415C235.303 107.549 235.214 107.669 235.102 107.764C234.991 107.859 234.861 107.928 234.721 107.966C234.581 108.004 234.435 108.01 234.292 107.984L216.779 103.987C216.555 103.94 216.355 103.814 216.213 103.632C216.071 103.449 215.996 103.221 216 102.987V65.0114C215.996 64.7776 216.071 64.5495 216.213 64.3669C216.355 64.1843 216.555 64.0587 216.779 64.012L234.292 60.0145C234.436 59.9898 234.583 59.9967 234.724 60.0346C234.864 60.0725 234.996 60.1406 235.109 60.2344C235.219 60.3303 235.308 60.4498 235.368 60.5844C235.429 60.7191 235.46 60.8656 235.46 61.0139V63.0126H250.054C250.57 63.0126 251.065 63.2232 251.43 63.598C251.795 63.9729 252 64.4813 252 65.0114V70.0082C252 70.5383 251.795 71.0467 251.43 71.4215C251.065 71.7963 250.57 72.0069 250.054 72.0069C249.538 72.0069 249.043 71.7963 248.678 71.4215C248.313 71.0467 248.108 70.5383 248.108 70.0082V68.0094C248.108 67.7444 248.006 67.4902 247.823 67.3028C247.641 67.1154 247.393 67.0101 247.135 67.0101H236.433C236.174 67.0101 235.927 67.1154 235.745 67.3028C235.562 67.4902 235.46 67.7444 235.46 68.0094V99.9891C235.46 100.122 235.485 100.254 235.535 100.376C235.586 100.499 235.659 100.61 235.751 100.703C235.844 100.796 235.953 100.869 236.074 100.918C236.194 100.967 236.323 100.991 236.452 100.988H247.155C247.413 100.988 247.66 100.883 247.843 100.696C248.025 100.508 248.128 100.254 248.128 99.9891V98.9897C248.128 98.4596 248.333 97.9512 248.698 97.5764ZM230.124 86.6622C230.443 86.1696 230.614 85.5907 230.614 84.9986C230.614 84.6032 230.538 84.2117 230.39 83.8467C230.242 83.4816 230.025 83.1502 229.752 82.8716C229.479 82.5929 229.155 82.3725 228.799 82.223C228.442 82.0735 228.061 81.9979 227.676 82.0005C227.099 82.0045 226.537 82.1837 226.059 82.5155C225.582 82.8473 225.211 83.3169 224.993 83.8651C224.775 84.4133 224.72 85.0154 224.835 85.5957C224.95 86.1759 225.229 86.7083 225.638 87.1256C226.047 87.5429 226.567 87.8264 227.133 87.9405C227.699 88.0546 228.285 87.994 228.817 87.7665C229.349 87.5391 229.804 87.1548 230.124 86.6622ZM253.764 76.3023L263.132 82.4268H263.151C263.412 82.5992 263.626 82.832 263.775 83.1048C263.923 83.3775 264 83.6819 264 83.9909C264 84.3 263.923 84.6043 263.775 84.8771C263.626 85.1498 263.412 85.3826 263.151 85.555L253.783 91.6795C253.471 91.8856 253.104 91.997 252.727 91.9999C252.412 92.0033 252.1 91.9253 251.825 91.7738C251.519 91.6135 251.262 91.3747 251.083 91.0826C250.904 90.7906 250.809 90.4563 250.808 90.1154V86.8176H242.879C242.116 86.8176 241.383 86.5198 240.843 85.9897C240.303 85.4596 240 84.7406 240 83.9909C240 83.2412 240.303 82.5222 240.843 81.9921C241.383 81.462 242.116 81.1642 242.879 81.1642H250.827V77.8664C250.828 77.5255 250.923 77.1912 251.102 76.8992C251.281 76.6072 251.538 76.3683 251.844 76.2081C252.144 76.0568 252.48 75.9858 252.817 76.0024C253.154 76.0189 253.481 76.1224 253.764 76.3023Z" fill="#111111"/>
</g>
</g>
<defs>
<clipPath id="clip0_1110_1322">
<rect width="264" height="108" fill="white"/>
</clipPath>
<clipPath id="clip1_1110_1322">
<rect width="12" height="12" fill="white" transform="translate(0 78)"/>
</clipPath>
<clipPath id="clip2_1110_1322">
<rect width="16" height="16" fill="white" transform="translate(24 76)"/>
</clipPath>
<clipPath id="clip3_1110_1322">
<rect width="20" height="20" fill="white" transform="translate(52 74)"/>
</clipPath>
<clipPath id="clip4_1110_1322">
<rect width="24" height="24" fill="white" transform="translate(84 72)"/>
</clipPath>
<clipPath id="clip5_1110_1322">
<rect width="32" height="32" fill="white" transform="translate(120 68)"/>
</clipPath>
<clipPath id="clip6_1110_1322">
<rect width="40" height="40" fill="white" transform="translate(164 64)"/>
</clipPath>
<clipPath id="clip7_1110_1322">
<rect width="48" height="48" fill="white" transform="translate(216 60)"/>
</clipPath>
</defs>
</svg>
