<svg width="264" height="108" viewBox="0 0 264 108" fill="none" xmlns="http://www.w3.org/2000/svg">
<g id="Logout 1">
<g clip-path="url(#clip0_1110_1321)">
<g id="Size=12px, Filled=false">
<path id="Vector" d="M3.75 24H11.25M11.25 24L9.75 25.5M11.25 24L9.75 22.5M6.74941 25.9286V27.8571C6.76367 28.1958 6.51986 28.4831 6.20392 28.5H1.2957C0.979922 28.4829 0.736349 28.1956 0.750614 27.8571V20.1429C0.736126 19.8043 0.979821 19.5169 1.2957 19.5H6.20392C6.51986 19.5169 6.76367 19.8042 6.74941 20.1429V22.0714" stroke="#111111" stroke-width="0.75" stroke-linecap="round" stroke-linejoin="round"/>
</g>
<g id="Size=16px, Filled=false">
<path id="Vector_2" d="M29 24H39M39 24L37 26M39 24L37 22M32.9992 26.5714V29.1429C33.0182 29.5944 32.6931 29.9775 32.2719 30H25.7276C25.3066 29.9772 24.9818 29.5942 25.0008 29.1429V18.8571C24.9815 18.4057 25.3064 18.0225 25.7276 18H32.2719C32.6931 18.0225 33.0182 18.4056 32.9992 18.8571V21.4286" stroke="#111111" stroke-linecap="round" stroke-linejoin="round"/>
</g>
<g id="Size=20px, Filled=false">
<path id="Vector_3" d="M58.25 24H70.75M70.75 24L68.25 26.5M70.75 24L68.25 21.5M63.249 27.2143V30.4286C63.2728 30.993 62.8664 31.4719 62.3399 31.5H54.1595C53.6332 31.4715 53.2272 30.9927 53.251 30.4286V17.5714C53.2269 17.0071 53.633 16.5281 54.1595 16.5H62.3399C62.8664 16.5281 63.2728 17.007 63.249 17.5714V20.7857" stroke="#111111" stroke-width="1.25" stroke-linecap="round" stroke-linejoin="round"/>
</g>
<g id="Size=24px, Filled=false">
<path id="Vector_4" d="M91.4545 24H106M106 24L102.364 28M106 24L102.364 20M99.3224 28.2857V32.5714C99.357 33.324 98.7659 33.9625 98 34H87.3229C86.5574 33.962 85.9669 33.3236 86.0015 32.5714V15.4286C85.9664 14.6762 86.5571 14.0375 87.3229 14H98C98.7659 14.0375 99.357 14.676 99.3224 15.4286V19.7143" stroke="#111111" stroke-width="1.5" stroke-linecap="round" stroke-linejoin="round"/>
</g>
<g id="Size=32px, Filled=false">
<path id="Vector_5" d="M130 24H150M150 24L146 28M150 24L146 20M137.998 29.1429V34.2857C138.036 35.1888 137.386 35.955 136.544 36H123.455C122.613 35.9544 121.964 35.1884 122.002 34.2857V13.7143C121.963 12.8114 122.613 12.045 123.455 12H136.544C137.386 12.045 138.036 12.8112 137.998 13.7143V18.8571" stroke="#111111" stroke-width="2" stroke-linecap="round" stroke-linejoin="round"/>
</g>
<g id="Size=40px, Filled=false">
<path id="Vector_6" d="M176.5 24H201.5M201.5 24L196.5 29M201.5 24L196.5 19M186.498 30.4286V36.8571C186.546 37.986 185.733 38.9437 184.68 39H168.319C167.266 38.943 166.454 37.9855 166.502 36.8571V11.1429C166.454 10.0143 167.266 9.05625 168.319 9H184.68C185.733 9.05625 186.546 10.014 186.498 11.1429V17.5714" stroke="#111111" stroke-width="2.5" stroke-linecap="round" stroke-linejoin="round"/>
</g>
<g id="Size=48px, Filled=false">
<path id="Vector_7" d="M231 24H261M261 24L255 30M261 24L255 18M242.998 31.7143V39.4286C243.055 40.7832 242.079 41.9325 240.816 42H221.183C219.92 41.9316 218.945 40.7825 219.002 39.4286V8.57143C218.945 7.21711 219.919 6.0675 221.183 6H240.816C242.079 6.06751 243.055 7.21682 242.998 8.57143V16.2857" stroke="#111111" stroke-width="3" stroke-linecap="round" stroke-linejoin="round"/>
</g>
<g id="Size=12px, Filled=true" clip-path="url(#clip1_1110_1321)">
<g id="Vector_8">
<path d="M6.75 86.8696C6.61739 86.8696 6.49021 86.9245 6.39645 87.0224C6.30268 87.1202 6.25 87.2529 6.25 87.3913V88.6957C6.25 88.7648 6.22366 88.8312 6.17678 88.8801C6.12989 88.929 6.0663 88.9565 6 88.9565H1.25C1.1837 88.9565 1.12011 88.929 1.07322 88.8801C1.02634 88.8312 1 88.7648 1 88.6957V79.3043C1 79.2352 1.02634 79.1688 1.07322 79.1199C1.12011 79.071 1.1837 79.0435 1.25 79.0435H6C6.0663 79.0435 6.12989 79.071 6.17678 79.1199C6.22366 79.1688 6.25 79.2352 6.25 79.3043V80.6087C6.25 80.7471 6.30268 80.8798 6.39645 80.9776C6.49021 81.0755 6.61739 81.1304 6.75 81.1304C6.88261 81.1304 7.00979 81.0755 7.10355 80.9776C7.19732 80.8798 7.25 80.7471 7.25 80.6087V79.0435C7.25 78.7667 7.14464 78.5013 6.95711 78.3056C6.76957 78.1099 6.51522 78 6.25 78H1C0.734784 78 0.48043 78.1099 0.292893 78.3056C0.105357 78.5013 0 78.7667 0 79.0435V88.9565C0 89.2333 0.105357 89.4987 0.292893 89.6944C0.48043 89.8901 0.734784 90 1 90H6.25C6.51522 90 6.76957 89.8901 6.95711 89.6944C7.14464 89.4987 7.25 89.2333 7.25 88.9565V87.3913C7.25 87.2529 7.19732 87.1202 7.10355 87.0224C7.00979 86.9245 6.88261 86.8696 6.75 86.8696Z" fill="#111111"/>
<path d="M11.775 83.8278L8.775 81.7409C8.6998 81.6892 8.61262 81.6597 8.52267 81.6554C8.43272 81.6511 8.34334 81.6723 8.26396 81.7167C8.18458 81.761 8.11816 81.8269 8.0717 81.9074C8.02523 81.9879 8.00046 82.08 8 82.1739V83.4783H3.5C3.30109 83.4783 3.11032 83.5607 2.96967 83.7075C2.82902 83.8542 2.75 84.0533 2.75 84.2609C2.75 84.4684 2.82902 84.6675 2.96967 84.8143C3.11032 84.961 3.30109 85.0435 3.5 85.0435H8V86.3478C8 86.4862 8.05268 86.6189 8.14645 86.7168C8.24021 86.8146 8.36739 86.8696 8.5 86.8696C8.59802 86.8688 8.69365 86.8379 8.775 86.7809L11.775 84.6939C11.8438 84.6467 11.9003 84.5824 11.9396 84.5068C11.9788 84.4313 11.9996 84.3468 12 84.2609C11.9996 84.1749 11.9788 84.0904 11.9396 84.0149C11.9003 83.9394 11.8438 83.8751 11.775 83.8278Z" fill="#111111"/>
</g>
</g>
<g id="Size=16px, Filled=true" clip-path="url(#clip2_1110_1321)">
<g id="Vector_9">
<path d="M33 87.8261C32.8232 87.8261 32.6536 87.8994 32.5286 88.0298C32.4036 88.1603 32.3333 88.3372 32.3333 88.5217V90.2609C32.3333 90.3531 32.2982 90.4416 32.2357 90.5068C32.1732 90.5721 32.0884 90.6087 32 90.6087H25.6667C25.5783 90.6087 25.4935 90.5721 25.431 90.5068C25.3685 90.4416 25.3333 90.3531 25.3333 90.2609V77.7391C25.3333 77.6469 25.3685 77.5584 25.431 77.4932C25.4935 77.428 25.5783 77.3913 25.6667 77.3913H32C32.0884 77.3913 32.1732 77.428 32.2357 77.4932C32.2982 77.5584 32.3333 77.6469 32.3333 77.7391V79.4783C32.3333 79.6628 32.4036 79.8397 32.5286 79.9702C32.6536 80.1006 32.8232 80.1739 33 80.1739C33.1768 80.1739 33.3464 80.1006 33.4714 79.9702C33.5964 79.8397 33.6667 79.6628 33.6667 79.4783V77.3913C33.6667 77.0223 33.5262 76.6684 33.2761 76.4075C33.0261 76.1466 32.687 76 32.3333 76H25.3333C24.9797 76 24.6406 76.1466 24.3905 76.4075C24.1405 76.6684 24 77.0223 24 77.3913V90.6087C24 90.9777 24.1405 91.3316 24.3905 91.5925C24.6406 91.8534 24.9797 92 25.3333 92H32.3333C32.687 92 33.0261 91.8534 33.2761 91.5925C33.5262 91.3316 33.6667 90.9777 33.6667 90.6087V88.5217C33.6667 88.3372 33.5964 88.1603 33.4714 88.0298C33.3464 87.8994 33.1768 87.8261 33 87.8261Z" fill="#111111"/>
<path d="M39.7 83.7704L35.7 80.9878C35.5997 80.9189 35.4835 80.8796 35.3636 80.8739C35.2436 80.8682 35.1245 80.8964 35.0186 80.9555C34.9128 81.0147 34.8242 81.1025 34.7623 81.2099C34.7003 81.3172 34.6673 81.4399 34.6667 81.5652V83.3043H28.6667C28.4015 83.3043 28.1471 83.4143 27.9596 83.61C27.772 83.8057 27.6667 84.0711 27.6667 84.3478C27.6667 84.6246 27.772 84.89 27.9596 85.0857C28.1471 85.2814 28.4015 85.3913 28.6667 85.3913H34.6667V87.1304C34.6667 87.3149 34.7369 87.4919 34.8619 87.6223C34.987 87.7528 35.1565 87.8261 35.3333 87.8261C35.464 87.825 35.5915 87.7839 35.7 87.7078L39.7 84.9252C39.7917 84.8622 39.8671 84.7765 39.9194 84.6758C39.9718 84.5751 39.9994 84.4624 40 84.3478C39.9994 84.2332 39.9718 84.1206 39.9194 84.0199C39.8671 83.9191 39.7917 83.8335 39.7 83.7704Z" fill="#111111"/>
</g>
</g>
<g id="Size=20px, Filled=true" clip-path="url(#clip3_1110_1321)">
<g id="Vector_10">
<path d="M63.25 88.7826C63.029 88.7826 62.817 88.8742 62.6607 89.0373C62.5045 89.2004 62.4167 89.4216 62.4167 89.6522V91.8261C62.4167 91.9414 62.3728 92.052 62.2946 92.1335C62.2165 92.2151 62.1105 92.2609 62 92.2609H54.0833C53.9728 92.2609 53.8668 92.2151 53.7887 92.1335C53.7106 92.052 53.6667 91.9414 53.6667 91.8261V76.1739C53.6667 76.0586 53.7106 75.948 53.7887 75.8665C53.8668 75.7849 53.9728 75.7391 54.0833 75.7391H62C62.1105 75.7391 62.2165 75.7849 62.2946 75.8665C62.3728 75.948 62.4167 76.0586 62.4167 76.1739V78.3478C62.4167 78.5784 62.5045 78.7996 62.6607 78.9627C62.817 79.1258 63.029 79.2174 63.25 79.2174C63.471 79.2174 63.683 79.1258 63.8393 78.9627C63.9955 78.7996 64.0833 78.5784 64.0833 78.3478V75.7391C64.0833 75.2779 63.9077 74.8355 63.5952 74.5094C63.2826 74.1832 62.8587 74 62.4167 74H53.6667C53.2246 74 52.8007 74.1832 52.4882 74.5094C52.1756 74.8355 52 75.2779 52 75.7391V92.2609C52 92.7221 52.1756 93.1645 52.4882 93.4906C52.8007 93.8168 53.2246 94 53.6667 94H62.4167C62.8587 94 63.2826 93.8168 63.5952 93.4906C63.9077 93.1645 64.0833 92.7221 64.0833 92.2609V89.6522C64.0833 89.4216 63.9955 89.2004 63.8393 89.0373C63.683 88.8742 63.471 88.7826 63.25 88.7826Z" fill="#111111"/>
<path d="M71.625 83.713L66.625 80.2348C66.4997 80.1487 66.3544 80.0994 66.2045 80.0923C66.0545 80.0852 65.9056 80.1205 65.7733 80.1944C65.641 80.2684 65.5303 80.3782 65.4528 80.5123C65.3754 80.6465 65.3341 80.7999 65.3333 80.9565V83.1304H57.8333C57.5018 83.1304 57.1839 83.2679 56.9494 83.5125C56.715 83.7571 56.5833 84.0889 56.5833 84.4348C56.5833 84.7807 56.715 85.1125 56.9494 85.3571C57.1839 85.6017 57.5018 85.7391 57.8333 85.7391H65.3333V87.913C65.3333 88.1437 65.4211 88.3648 65.5774 88.5279C65.7337 88.691 65.9457 88.7826 66.1667 88.7826C66.33 88.7813 66.4894 88.7299 66.625 88.6348L71.625 85.1565C71.7396 85.0778 71.8338 84.9707 71.8993 84.8447C71.9647 84.7188 71.9993 84.578 72 84.4348C71.9993 84.2916 71.9647 84.1507 71.8993 84.0248C71.8338 83.8989 71.7396 83.7918 71.625 83.713Z" fill="#111111"/>
</g>
</g>
<g id="Size=24px, Filled=true" clip-path="url(#clip4_1110_1321)">
<g id="Vector_11">
<path d="M97.5 89.7391C97.2348 89.7391 96.9804 89.8491 96.7929 90.0448C96.6054 90.2404 96.5 90.5059 96.5 90.7826V93.3913C96.5 93.5297 96.4473 93.6624 96.3536 93.7602C96.2598 93.8581 96.1326 93.913 96 93.913H86.5C86.3674 93.913 86.2402 93.8581 86.1464 93.7602C86.0527 93.6624 86 93.5297 86 93.3913V74.6087C86 74.4703 86.0527 74.3376 86.1464 74.2398C86.2402 74.1419 86.3674 74.087 86.5 74.087H96C96.1326 74.087 96.2598 74.1419 96.3536 74.2398C96.4473 74.3376 96.5 74.4703 96.5 74.6087V77.2174C96.5 77.4941 96.6054 77.7596 96.7929 77.9552C96.9804 78.1509 97.2348 78.2609 97.5 78.2609C97.7652 78.2609 98.0196 78.1509 98.2071 77.9552C98.3946 77.7596 98.5 77.4941 98.5 77.2174V74.087C98.5 73.5335 98.2893 73.0026 97.9142 72.6113C97.5391 72.2199 97.0304 72 96.5 72H86C85.4696 72 84.9609 72.2199 84.5858 72.6113C84.2107 73.0026 84 73.5335 84 74.087V93.913C84 94.4665 84.2107 94.9974 84.5858 95.3887C84.9609 95.7801 85.4696 96 86 96H96.5C97.0304 96 97.5391 95.7801 97.9142 95.3887C98.2893 94.9974 98.5 94.4665 98.5 93.913V90.7826C98.5 90.5059 98.3946 90.2404 98.2071 90.0448C98.0196 89.8491 97.7652 89.7391 97.5 89.7391Z" fill="#111111"/>
<path d="M107.55 83.6557L101.55 79.4817C101.4 79.3784 101.225 79.3193 101.045 79.3108C100.865 79.3023 100.687 79.3446 100.528 79.4333C100.369 79.522 100.236 79.6538 100.143 79.8148C100.05 79.9758 100.001 80.1599 100 80.3478V82.9565H91C90.6022 82.9565 90.2206 83.1214 89.9393 83.415C89.658 83.7085 89.5 84.1066 89.5 84.5217C89.5 84.9369 89.658 85.335 89.9393 85.6285C90.2206 85.9221 90.6022 86.087 91 86.087H100V88.6957C100 88.9724 100.105 89.2378 100.293 89.4335C100.48 89.6292 100.735 89.7391 101 89.7391C101.196 89.7375 101.387 89.6758 101.55 89.5617L107.55 85.3878C107.688 85.2933 107.801 85.1648 107.879 85.0137C107.958 84.8626 107.999 84.6936 108 84.5217C107.999 84.3499 107.958 84.1809 107.879 84.0298C107.801 83.8787 107.688 83.7502 107.55 83.6557Z" fill="#111111"/>
</g>
</g>
<g id="Size=32px, Filled=true" clip-path="url(#clip5_1110_1321)">
<g id="Vector_12">
<path d="M138 91.6522C137.646 91.6522 137.307 91.7988 137.057 92.0597C136.807 92.3206 136.667 92.6745 136.667 93.0435V96.5217C136.667 96.7062 136.596 96.8832 136.471 97.0136C136.346 97.1441 136.177 97.2174 136 97.2174H123.333C123.157 97.2174 122.987 97.1441 122.862 97.0136C122.737 96.8832 122.667 96.7062 122.667 96.5217V71.4783C122.667 71.2938 122.737 71.1168 122.862 70.9864C122.987 70.8559 123.157 70.7826 123.333 70.7826H136C136.177 70.7826 136.346 70.8559 136.471 70.9864C136.596 71.1168 136.667 71.2938 136.667 71.4783V74.9565C136.667 75.3255 136.807 75.6794 137.057 75.9403C137.307 76.2012 137.646 76.3478 138 76.3478C138.354 76.3478 138.693 76.2012 138.943 75.9403C139.193 75.6794 139.333 75.3255 139.333 74.9565V70.7826C139.333 70.0446 139.052 69.3368 138.552 68.815C138.052 68.2932 137.374 68 136.667 68H122.667C121.959 68 121.281 68.2932 120.781 68.815C120.281 69.3368 120 70.0446 120 70.7826V97.2174C120 97.9554 120.281 98.6632 120.781 99.185C121.281 99.7068 121.959 100 122.667 100H136.667C137.374 100 138.052 99.7068 138.552 99.185C139.052 98.6632 139.333 97.9554 139.333 97.2174V93.0435C139.333 92.6745 139.193 92.3206 138.943 92.0597C138.693 91.7988 138.354 91.6522 138 91.6522Z" fill="#111111"/>
<path d="M151.4 83.5409L143.4 77.9757C143.199 77.8378 142.967 77.7591 142.727 77.7477C142.487 77.7364 142.249 77.7928 142.037 77.9111C141.826 78.0294 141.648 78.2051 141.525 78.4197C141.401 78.6343 141.335 78.8799 141.333 79.1304V82.6087H129.333C128.803 82.6087 128.294 82.8286 127.919 83.22C127.544 83.6113 127.333 84.1422 127.333 84.6957C127.333 85.2492 127.544 85.78 127.919 86.1714C128.294 86.5627 128.803 86.7826 129.333 86.7826H141.333V90.2609C141.333 90.6299 141.474 90.9838 141.724 91.2447C141.974 91.5056 142.313 91.6522 142.667 91.6522C142.928 91.65 143.183 91.5678 143.4 91.4157L151.4 85.8504C151.583 85.7244 151.734 85.553 151.839 85.3516C151.944 85.1501 151.999 84.9248 152 84.6957C151.999 84.4665 151.944 84.2412 151.839 84.0397C151.734 83.8383 151.583 83.6669 151.4 83.5409Z" fill="#111111"/>
</g>
</g>
<g id="Size=40px, Filled=true" clip-path="url(#clip6_1110_1321)">
<g id="Vector_13">
<path d="M186.5 93.5652C186.058 93.5652 185.634 93.7484 185.321 94.0746C185.009 94.4007 184.833 94.8431 184.833 95.3043V99.6522C184.833 99.8828 184.746 100.104 184.589 100.267C184.433 100.43 184.221 100.522 184 100.522H168.167C167.946 100.522 167.734 100.43 167.577 100.267C167.421 100.104 167.333 99.8828 167.333 99.6522V68.3478C167.333 68.1172 167.421 67.896 167.577 67.733C167.734 67.5699 167.946 67.4783 168.167 67.4783H184C184.221 67.4783 184.433 67.5699 184.589 67.733C184.746 67.896 184.833 68.1172 184.833 68.3478V72.6957C184.833 73.1569 185.009 73.5993 185.321 73.9254C185.634 74.2516 186.058 74.4348 186.5 74.4348C186.942 74.4348 187.366 74.2516 187.679 73.9254C187.991 73.5993 188.167 73.1569 188.167 72.6957V67.4783C188.167 66.5558 187.815 65.6711 187.19 65.0188C186.565 64.3665 185.717 64 184.833 64H167.333C166.449 64 165.601 64.3665 164.976 65.0188C164.351 65.6711 164 66.5558 164 67.4783V100.522C164 101.444 164.351 102.329 164.976 102.981C165.601 103.634 166.449 104 167.333 104H184.833C185.717 104 186.565 103.634 187.19 102.981C187.815 102.329 188.167 101.444 188.167 100.522V95.3043C188.167 94.8431 187.991 94.4007 187.679 94.0746C187.366 93.7484 186.942 93.5652 186.5 93.5652Z" fill="#111111"/>
<path d="M203.25 83.4261L193.25 76.4696C192.999 76.2973 192.709 76.1989 192.409 76.1847C192.109 76.1705 191.811 76.241 191.547 76.3889C191.282 76.5367 191.061 76.7564 190.906 77.0246C190.751 77.2929 190.668 77.5999 190.667 77.913V82.2609H175.667C175.004 82.2609 174.368 82.5357 173.899 83.0249C173.43 83.5142 173.167 84.1777 173.167 84.8696C173.167 85.5614 173.43 86.225 173.899 86.7142C174.368 87.2034 175.004 87.4783 175.667 87.4783H190.667V91.8261C190.667 92.2873 190.842 92.7297 191.155 93.0558C191.467 93.382 191.891 93.5652 192.333 93.5652C192.66 93.5626 192.979 93.4597 193.25 93.2696L203.25 86.313C203.479 86.1555 203.668 85.9413 203.799 85.6895C203.929 85.4377 203.999 85.156 204 84.8696C203.999 84.5831 203.929 84.3015 203.799 84.0497C203.668 83.7978 203.479 83.5836 203.25 83.4261Z" fill="#111111"/>
</g>
</g>
<g id="Size=48px, Filled=true" clip-path="url(#clip7_1110_1321)">
<g id="Vector_14">
<path d="M243 95.4783C242.47 95.4783 241.961 95.6981 241.586 96.0895C241.211 96.4809 241 97.0117 241 97.5652V102.783C241 103.059 240.895 103.325 240.707 103.52C240.52 103.716 240.265 103.826 240 103.826H221C220.735 103.826 220.48 103.716 220.293 103.52C220.105 103.325 220 103.059 220 102.783V65.2174C220 64.9406 220.105 64.6752 220.293 64.4795C220.48 64.2839 220.735 64.1739 221 64.1739H240C240.265 64.1739 240.52 64.2839 240.707 64.4795C240.895 64.6752 241 64.9406 241 65.2174V70.4348C241 70.9883 241.211 71.5191 241.586 71.9105C241.961 72.3019 242.47 72.5217 243 72.5217C243.53 72.5217 244.039 72.3019 244.414 71.9105C244.789 71.5191 245 70.9883 245 70.4348V64.1739C245 63.0669 244.579 62.0053 243.828 61.2225C243.078 60.4398 242.061 60 241 60H220C218.939 60 217.922 60.4398 217.172 61.2225C216.421 62.0053 216 63.0669 216 64.1739V103.826C216 104.933 216.421 105.995 217.172 106.777C217.922 107.56 218.939 108 220 108H241C242.061 108 243.078 107.56 243.828 106.777C244.579 105.995 245 104.933 245 103.826V97.5652C245 97.0117 244.789 96.4809 244.414 96.0895C244.039 95.6981 243.53 95.4783 243 95.4783Z" fill="#111111"/>
<path d="M263.1 83.3113L251.1 74.9635C250.799 74.7568 250.45 74.6387 250.091 74.6216C249.731 74.6046 249.373 74.6892 249.056 74.8666C248.738 75.044 248.473 75.3076 248.287 75.6296C248.101 75.9515 248.002 76.3198 248 76.6957V81.913H230C229.204 81.913 228.441 82.2429 227.879 82.8299C227.316 83.417 227 84.2132 227 85.0435C227 85.8737 227.316 86.67 227.879 87.257C228.441 87.8441 229.204 88.1739 230 88.1739H248V93.3913C248 93.9448 248.211 94.4756 248.586 94.867C248.961 95.2584 249.47 95.4783 250 95.4783C250.392 95.4751 250.775 95.3517 251.1 95.1235L263.1 86.7757C263.375 86.5866 263.601 86.3296 263.758 86.0274C263.915 85.7252 263.998 85.3872 264 85.0435C263.998 84.6997 263.915 84.3618 263.758 84.0596C263.601 83.7574 263.375 83.5004 263.1 83.3113Z" fill="#111111"/>
</g>
</g>
</g>
</g>
<defs>
<clipPath id="clip0_1110_1321">
<rect width="264" height="108" rx="5" fill="white"/>
</clipPath>
<clipPath id="clip1_1110_1321">
<rect width="12" height="12" fill="white" transform="translate(0 78)"/>
</clipPath>
<clipPath id="clip2_1110_1321">
<rect width="16" height="16" fill="white" transform="translate(24 76)"/>
</clipPath>
<clipPath id="clip3_1110_1321">
<rect width="20" height="20" fill="white" transform="translate(52 74)"/>
</clipPath>
<clipPath id="clip4_1110_1321">
<rect width="24" height="24" fill="white" transform="translate(84 72)"/>
</clipPath>
<clipPath id="clip5_1110_1321">
<rect width="32" height="32" fill="white" transform="translate(120 68)"/>
</clipPath>
<clipPath id="clip6_1110_1321">
<rect width="40" height="40" fill="white" transform="translate(164 64)"/>
</clipPath>
<clipPath id="clip7_1110_1321">
<rect width="48" height="48" fill="white" transform="translate(216 60)"/>
</clipPath>
</defs>
</svg>
