<svg width="264" height="108" viewBox="0 0 264 108" fill="none" xmlns="http://www.w3.org/2000/svg">
<g id="Notification (off)">
<g clip-path="url(#clip0_1110_1325)">
<g id="Size=12px, Filled=false">
<path id="Vector" d="M10.5 19.5L1.5 28.5M4.98214 27.8036C5.12871 28.2482 5.5868 28.5536 6.10714 28.5536C6.62749 28.5536 7.08558 28.2482 7.23214 27.8036M6 19.5V18.75M5.25 26.25H9.75C9.75 26.25 9.10714 25.759 9.10714 22.8744C9.10215 22.7489 9.08883 22.6239 9.06729 22.5M8.25 20.0659C7.22034 19.3843 5.88886 19.3132 4.78902 19.881C3.68918 20.4488 3.00092 21.5627 3 22.7763V25.0714" stroke="#111111" stroke-width="0.75" stroke-linecap="round" stroke-linejoin="round"/>
</g>
<g id="Size=16px, Filled=false">
<path id="Vector_2" d="M38 18L26 30M30.6429 29.0714C30.8383 29.6642 31.4491 30.0714 32.1429 30.0714C32.8366 30.0714 33.4474 29.6642 33.6429 29.0714M32 18V17M31 27H37C37 27 36.1429 26.3453 36.1429 22.4992C36.1362 22.3319 36.1184 22.1652 36.0897 22M35 18.7545C33.6271 17.8457 31.8518 17.7509 30.3854 18.508C28.9189 19.2651 28.0012 20.7502 28 22.3684V25.4286" stroke="#111111" stroke-linecap="round" stroke-linejoin="round"/>
</g>
<g id="Size=20px, Filled=false">
<path id="Vector_3" d="M69.5 16.5L54.5 31.5M60.3036 30.3393C60.5478 31.0803 61.3113 31.5893 62.1786 31.5893C63.0458 31.5893 63.8093 31.0803 64.0536 30.3393M62 16.5V15.25M60.75 27.75H68.25C68.25 27.75 67.1786 26.9317 67.1786 22.124C67.1702 21.9149 67.1481 21.7064 67.1121 21.5M65.75 17.4431C64.0339 16.3072 61.8148 16.1886 59.9817 17.135C58.1486 18.0813 57.0015 19.9378 57 21.9605V25.7857" stroke="#111111" stroke-width="1.25" stroke-linecap="round" stroke-linejoin="round"/>
</g>
<g id="Size=24px, Filled=false">
<path id="Vector_4" d="M107 14L86 35M95 34C95.2606 34.5928 96.0749 35 97 35C97.9251 35 98.7394 34.5928 99 34M96 15V13M94 31H106C106 31 104.286 29.8216 104.286 22.8985C104.272 22.5974 104.237 22.2973 104.179 22M101 16.3204C98.6465 14.7301 95.6031 14.5641 93.0892 15.889C90.5753 17.2139 89.0021 19.8129 89 22.6447V28" stroke="#111111" stroke-width="1.5" stroke-linecap="round" stroke-linejoin="round"/>
</g>
<g id="Size=32px, Filled=false">
<path id="Vector_5" d="M148 12L124 36M133.286 34.1429C133.677 35.3285 134.898 36.1429 136.286 36.1429C137.673 36.1429 138.895 35.3285 139.286 34.1429M136 12V10M134 30H146C146 30 144.286 28.6907 144.286 20.9984C144.272 20.6638 144.237 20.3303 144.179 20M142 13.509C139.254 11.6915 135.704 11.5018 132.771 13.016C129.838 14.5301 128.002 17.5005 128 20.7368V26.8571" stroke="#111111" stroke-width="2" stroke-linecap="round" stroke-linejoin="round"/>
</g>
<g id="Size=40px, Filled=false">
<path id="Vector_6" d="M199 9L169 39M180.607 36.6786C181.096 38.1606 182.623 39.1786 184.357 39.1786C186.092 39.1786 187.619 38.1606 188.107 36.6786M184 9V6.5M181.5 31.5H196.5C196.5 31.5 194.357 29.8633 194.357 20.248C194.34 19.8297 194.296 19.4129 194.224 19M191.5 10.8863C188.068 8.61436 183.63 8.37725 179.963 10.27C176.297 12.1627 174.003 15.8756 174 19.921V27.5714" stroke="#111111" stroke-width="2.5" stroke-linecap="round" stroke-linejoin="round"/>
</g>
<g id="Size=48px, Filled=false">
<path id="Vector_7" d="M258 6L222 42M235.929 39.2143C236.515 40.9927 238.347 42.2143 240.429 42.2143C242.51 42.2143 244.342 40.9927 244.929 39.2143M240 6V3M237 33H255C255 33 252.429 31.036 252.429 19.4975C252.409 18.9957 252.355 18.4955 252.269 18M249 8.26355C244.881 5.53723 239.555 5.2527 235.156 7.52395C230.757 9.7952 228.004 14.2507 228 19.1052V28.2857" stroke="#111111" stroke-width="3" stroke-linecap="round" stroke-linejoin="round"/>
</g>
<g id="Size=12px, Filled=true" clip-path="url(#clip1_1110_1325)">
<g id="Vector_8">
<path d="M10.4964 87.9891C10.63 87.9891 10.7581 87.9316 10.8525 87.8293C10.9469 87.727 11 87.5883 11 87.4436C11 87.299 10.9469 87.1602 10.8525 87.0579C10.7581 86.9556 10.63 86.8982 10.4964 86.8982C10.2961 86.8982 10.1039 86.812 9.96226 86.6585C9.82059 86.5051 9.74101 86.297 9.74101 86.08V83.4291C9.74204 82.9443 9.67409 82.4623 9.53957 82L4 88L10.4964 87.9891Z" fill="#111111"/>
<path d="M6.88668 89.0007H5.09734C5.0735 89.0013 5.05073 89.0091 5.03315 89.0225C5.01557 89.036 5.00433 89.0542 5.00148 89.074C4.99951 89.105 4.99951 89.1362 5.00148 89.1672C5.00148 89.3881 5.10668 89.5999 5.29394 89.7561C5.4812 89.9123 5.73518 90 6 90C6.26482 90 6.5188 89.9123 6.70606 89.7561C6.89332 89.5999 6.99852 89.3881 6.99852 89.1672C7.00049 89.1362 7.00049 89.105 6.99852 89.074C6.99703 89.063 6.99295 89.0524 6.98651 89.0427C6.98007 89.0331 6.97139 89.0246 6.96098 89.0178C6.95058 89.011 6.93865 89.0059 6.92589 89.003C6.91314 89.0001 6.89981 88.9993 6.88668 89.0007Z" fill="#111111"/>
<path d="M0.502656 89.9999C0.634781 90.002 0.76236 89.9517 0.857485 89.8599L11.8522 78.86C11.899 78.8135 11.9362 78.7582 11.9616 78.6973C11.9869 78.6364 12 78.571 12 78.505C12 78.439 11.9869 78.3736 11.9616 78.3127C11.9362 78.2518 11.899 78.1965 11.8522 78.15C11.8057 78.1031 11.7504 78.0659 11.6895 78.0406C11.6286 78.0152 11.5633 78.0021 11.4973 78.0021C11.4314 78.0021 11.366 78.0152 11.3051 78.0406C11.2442 78.0659 11.189 78.1031 11.1425 78.15L8.64372 80.65C8.07617 80.0458 7.32014 79.6526 6.49976 79.535V78.5C6.49976 78.3674 6.44711 78.2402 6.35338 78.1464C6.25966 78.0527 6.13254 78 6 78C5.86746 78 5.74034 78.0527 5.64662 78.1464C5.55289 78.2402 5.50024 78.3674 5.50024 78.5V79.535C4.56832 79.7126 3.7299 80.216 3.13482 80.9552C2.53973 81.6944 2.22675 82.6212 2.25181 83.57V86C2.25181 86.1989 2.17283 86.3896 2.03225 86.5303C1.89166 86.6709 1.70099 86.75 1.50217 86.75C1.36963 86.75 1.24251 86.8026 1.14879 86.8964C1.05507 86.9902 1.00241 87.1173 1.00241 87.25C1.00241 87.3826 1.05507 87.5097 1.14879 87.6035C1.24251 87.6973 1.36963 87.7499 1.50217 87.7499H1.54715L0.147828 89.1449C0.100986 89.1914 0.063807 89.2467 0.0384349 89.3077C0.0130628 89.3686 0 89.4339 0 89.4999C0 89.5659 0.0130628 89.6313 0.0384349 89.6922C0.063807 89.7532 0.100986 89.8085 0.147828 89.8549C0.194525 89.9013 0.249906 89.9379 0.310796 89.9628C0.371685 89.9877 0.436885 90.0003 0.502656 89.9999Z" fill="#111111"/>
</g>
</g>
<g id="Size=16px, Filled=true" clip-path="url(#clip2_1110_1325)">
<g id="Vector_9">
<path d="M37.9952 89.3188C38.1733 89.3188 38.3441 89.2422 38.47 89.1058C38.5959 88.9694 38.6667 88.7844 38.6667 88.5915C38.6667 88.3986 38.5959 88.2136 38.47 88.0773C38.3441 87.9409 38.1733 87.8642 37.9952 87.8642C37.7281 87.8642 37.4719 87.7493 37.283 87.5447C37.0941 87.3401 36.988 87.0627 36.988 86.7733V83.2388C36.9894 82.5925 36.8988 81.9498 36.7194 81.3333L29.3333 89.3333L37.9952 89.3188Z" fill="#111111"/>
<path d="M33.1822 90.6676H30.7965C30.7647 90.6684 30.7343 90.6788 30.7109 90.6967C30.6874 90.7146 30.6724 90.7389 30.6686 90.7653C30.666 90.8067 30.666 90.8482 30.6686 90.8896C30.6686 91.1841 30.8089 91.4665 31.0586 91.6748C31.3083 91.883 31.6469 92 32 92C32.3531 92 32.6917 91.883 32.9414 91.6748C33.1911 91.4665 33.3314 91.1841 33.3314 90.8896C33.334 90.8482 33.334 90.8067 33.3314 90.7653C33.3294 90.7506 33.3239 90.7365 33.3153 90.7236C33.3068 90.7108 33.2952 90.6995 33.2813 90.6904C33.2674 90.6813 33.2515 90.6746 33.2345 90.6707C33.2175 90.6668 33.1997 90.6657 33.1822 90.6676Z" fill="#111111"/>
<path d="M24.6702 91.9999C24.8464 92.0027 25.0165 91.9356 25.1433 91.8133L39.8029 77.1467C39.8654 77.0847 39.9149 77.011 39.9488 76.9297C39.9826 76.8485 40 76.7613 40 76.6733C40 76.5853 39.9826 76.4982 39.9488 76.4169C39.9149 76.3357 39.8654 76.262 39.8029 76.2C39.741 76.1375 39.6673 76.0879 39.5861 76.0541C39.5049 76.0202 39.4178 76.0028 39.3298 76.0028C39.2418 76.0028 39.1547 76.0202 39.0735 76.0541C38.9923 76.0879 38.9186 76.1375 38.8567 76.2L35.525 79.5333C34.7682 78.7277 33.7602 78.2035 32.6663 78.0467V76.6667C32.6663 76.4899 32.5961 76.3203 32.4712 76.1953C32.3462 76.0702 32.1767 76 32 76C31.8233 76 31.6538 76.0702 31.5288 76.1953C31.4039 76.3203 31.3337 76.4899 31.3337 76.6667V78.0467C30.0911 78.2835 28.9732 78.9547 28.1798 79.9402C27.3863 80.9258 26.969 82.1616 27.0024 83.4266V86.6666C27.0024 86.9318 26.8971 87.1862 26.7097 87.3737C26.5222 87.5612 26.268 87.6666 26.0029 87.6666C25.8262 87.6666 25.6567 87.7368 25.5317 87.8619C25.4068 87.9869 25.3366 88.1565 25.3366 88.3333C25.3366 88.5101 25.4068 88.6796 25.5317 88.8047C25.6567 88.9297 25.8262 88.9999 26.0029 88.9999H26.0629L24.1971 90.8599C24.1346 90.9219 24.0851 90.9956 24.0512 91.0769C24.0174 91.1581 24 91.2452 24 91.3333C24 91.4213 24.0174 91.5084 24.0512 91.5896C24.0851 91.6709 24.1346 91.7446 24.1971 91.8066C24.2594 91.8684 24.3332 91.9173 24.4144 91.9504C24.4956 91.9836 24.5825 92.0004 24.6702 91.9999Z" fill="#111111"/>
</g>
</g>
<g id="Size=20px, Filled=true" clip-path="url(#clip3_1110_1325)">
<g id="Vector_10">
<path d="M69.494 90.6485C69.7166 90.6485 69.9301 90.5527 70.0875 90.3822C70.2449 90.2117 70.3333 89.9805 70.3333 89.7394C70.3333 89.4983 70.2449 89.2671 70.0875 89.0966C69.9301 88.9261 69.7166 88.8303 69.494 88.8303C69.1601 88.8303 68.8399 88.6866 68.6038 88.4309C68.3677 88.1752 68.235 87.8283 68.235 87.4667V83.0485C68.2367 82.2406 68.1235 81.4372 67.8993 80.6667L58.6667 90.6667L69.494 90.6485Z" fill="#111111"/>
<path d="M63.4778 92.3344H60.4956C60.4558 92.3355 60.4179 92.3484 60.3886 92.3709C60.3593 92.3933 60.3406 92.4237 60.3358 92.4566C60.3325 92.5084 60.3325 92.5603 60.3358 92.612C60.3358 92.9801 60.5111 93.3332 60.8232 93.5935C61.1353 93.8538 61.5586 94 62 94C62.4414 94 62.8647 93.8538 63.1768 93.5935C63.4889 93.3332 63.6642 92.9801 63.6642 92.612C63.6675 92.5603 63.6675 92.5084 63.6642 92.4566C63.6617 92.4383 63.6549 92.4206 63.6442 92.4046C63.6334 92.3885 63.619 92.3744 63.6016 92.363C63.5843 92.3516 63.5644 92.3433 63.5432 92.3383C63.5219 92.3334 63.4997 92.3321 63.4778 92.3344Z" fill="#111111"/>
<path d="M52.8378 93.9999C53.058 94.0034 53.2706 93.9195 53.4291 93.7666L71.7536 75.4333C71.8317 75.3559 71.8937 75.2637 71.9359 75.1621C71.9782 75.0606 72 74.9517 72 74.8417C72 74.7317 71.9782 74.6227 71.9359 74.5212C71.8937 74.4196 71.8317 74.3275 71.7536 74.25C71.6762 74.1719 71.5841 74.1099 71.4826 74.0676C71.3811 74.0253 71.2722 74.0035 71.1622 74.0035C71.0523 74.0035 70.9434 74.0253 70.8419 74.0676C70.7404 74.1099 70.6483 74.1719 70.5709 74.25L66.4062 78.4166C65.4603 77.4096 64.2002 76.7543 62.8329 76.5583V74.8333C62.8329 74.6123 62.7452 74.4004 62.589 74.2441C62.4328 74.0878 62.2209 74 62 74C61.7791 74 61.5672 74.0878 61.411 74.2441C61.2548 74.4004 61.1671 74.6123 61.1671 74.8333V76.5583C59.6139 76.8544 58.2165 77.6933 57.2247 78.9253C56.2329 80.1573 55.7112 81.7019 55.753 83.2833V87.3333C55.753 87.6648 55.6214 87.9827 55.3871 88.2171C55.1528 88.4516 54.835 88.5833 54.5036 88.5833C54.2827 88.5833 54.0709 88.6711 53.9147 88.8273C53.7584 88.9836 53.6707 89.1956 53.6707 89.4166C53.6707 89.6376 53.7584 89.8496 53.9147 90.0058C54.0709 90.1621 54.2827 90.2499 54.5036 90.2499H54.5786L52.2464 92.5749C52.1683 92.6524 52.1063 92.7445 52.0641 92.8461C52.0218 92.9476 52 93.0566 52 93.1666C52 93.2766 52.0218 93.3855 52.0641 93.487C52.1063 93.5886 52.1683 93.6808 52.2464 93.7582C52.3242 93.8355 52.4165 93.8966 52.518 93.938C52.6195 93.9795 52.7281 94.0005 52.8378 93.9999Z" fill="#111111"/>
</g>
</g>
<g id="Size=24px, Filled=true" clip-path="url(#clip4_1110_1325)">
<g id="Vector_11">
<path d="M104.993 91.9782C105.26 91.9782 105.516 91.8632 105.705 91.6587C105.894 91.4541 106 91.1766 106 90.8873C106 90.5979 105.894 90.3205 105.705 90.1159C105.516 89.9113 105.26 89.7964 104.993 89.7964C104.592 89.7964 104.208 89.624 103.925 89.3171C103.641 89.0102 103.482 88.594 103.482 88.16V82.8582C103.484 81.8887 103.348 80.9247 103.079 80L92 92L104.993 91.9782Z" fill="#111111"/>
<path d="M97.7734 94.0013H94.1947C94.147 94.0026 94.1015 94.0181 94.0663 94.045C94.0311 94.0719 94.0087 94.1084 94.003 94.1479C93.999 94.21 93.999 94.2723 94.003 94.3344C94.003 94.7762 94.2134 95.1998 94.5879 95.5122C94.9624 95.8245 95.4704 96 96 96C96.5296 96 97.0376 95.8245 97.4121 95.5122C97.7866 95.1998 97.997 94.7762 97.997 94.3344C98.001 94.2723 98.001 94.21 97.997 94.1479C97.9941 94.126 97.9859 94.1047 97.973 94.0855C97.9601 94.0662 97.9428 94.0492 97.922 94.0356C97.9012 94.022 97.8773 94.0119 97.8518 94.006C97.8263 94.0001 97.7996 93.9985 97.7734 94.0013Z" fill="#111111"/>
<path d="M85.0053 95.9999C85.2696 96.0041 85.5247 95.9034 85.715 95.7199L107.704 73.72C107.798 73.627 107.872 73.5164 107.923 73.3946C107.974 73.2727 108 73.142 108 73.01C108 72.878 107.974 72.7473 107.923 72.6254C107.872 72.5036 107.798 72.393 107.704 72.3C107.611 72.2063 107.501 72.1319 107.379 72.0811C107.257 72.0303 107.127 72.0042 106.995 72.0042C106.863 72.0042 106.732 72.0303 106.61 72.0811C106.488 72.1319 106.378 72.2063 106.285 72.3L101.287 77.3C100.152 76.0916 98.6403 75.3052 96.9995 75.07V73C96.9995 72.7348 96.8942 72.4804 96.7068 72.2929C96.5193 72.1054 96.2651 72 96 72C95.7349 72 95.4807 72.1054 95.2932 72.2929C95.1058 72.4804 95.0005 72.7348 95.0005 73V75.07C93.1366 75.4252 91.4598 76.432 90.2696 77.9104C89.0795 79.3887 88.4535 81.2423 88.5036 83.1399V87.9999C88.5036 88.3977 88.3457 88.7793 88.0645 89.0606C87.7833 89.3419 87.402 89.4999 87.0043 89.4999C86.7393 89.4999 86.485 89.6053 86.2976 89.7928C86.1101 89.9803 86.0048 90.2347 86.0048 90.4999C86.0048 90.7651 86.1101 91.0195 86.2976 91.207C86.485 91.3945 86.7393 91.4999 87.0043 91.4999H87.0943L84.2957 94.2899C84.202 94.3828 84.1276 94.4934 84.0769 94.6153C84.0261 94.7372 84 94.8679 84 94.9999C84 95.1319 84.0261 95.2626 84.0769 95.3845C84.1276 95.5063 84.202 95.6169 84.2957 95.7099C84.3891 95.8026 84.4998 95.8759 84.6216 95.9256C84.7434 95.9754 84.8738 96.0006 85.0053 95.9999Z" fill="#111111"/>
</g>
</g>
<g id="Size=32px, Filled=true" clip-path="url(#clip5_1110_1325)">
<g id="Vector_12">
<path d="M147.99 94.6376C148.347 94.6376 148.688 94.4843 148.94 94.2116C149.192 93.9388 149.333 93.5688 149.333 93.183C149.333 92.7973 149.192 92.4273 148.94 92.1545C148.688 91.8817 148.347 91.7285 147.99 91.7285C147.456 91.7285 146.944 91.4986 146.566 91.0894C146.188 90.6803 145.976 90.1253 145.976 89.5467V82.4776C145.979 81.1849 145.798 79.8995 145.439 78.6667L130.667 94.6667L147.99 94.6376Z" fill="#111111"/>
<path d="M138.364 97.3351H133.593C133.529 97.3369 133.469 97.3575 133.422 97.3934C133.375 97.4292 133.345 97.4779 133.337 97.5305C133.332 97.6134 133.332 97.6964 133.337 97.7793C133.337 98.3682 133.618 98.9331 134.117 99.3496C134.617 99.766 135.294 100 136 100C136.706 100 137.383 99.766 137.883 99.3496C138.382 98.9331 138.663 98.3682 138.663 97.7793C138.668 97.6964 138.668 97.6134 138.663 97.5305C138.659 97.5013 138.648 97.473 138.631 97.4473C138.614 97.4216 138.59 97.399 138.563 97.3808C138.535 97.3626 138.503 97.3492 138.469 97.3414C138.435 97.3335 138.399 97.3314 138.364 97.3351Z" fill="#111111"/>
<path d="M121.34 99.9998C121.693 100.005 122.033 99.8712 122.287 99.6265L151.606 70.2933C151.731 70.1694 151.83 70.0219 151.898 69.8594C151.965 69.6969 152 69.5227 152 69.3467C152 69.1706 151.965 68.9964 151.898 68.8339C151.83 68.6714 151.731 68.5239 151.606 68.4C151.482 68.275 151.335 68.1758 151.172 68.1081C151.01 68.0405 150.836 68.0056 150.66 68.0056C150.484 68.0056 150.309 68.0405 150.147 68.1081C149.985 68.1758 149.837 68.275 149.713 68.4L143.05 75.0666C141.536 73.4554 139.52 72.4069 137.333 72.0933V69.3333C137.333 68.9797 137.192 68.6406 136.942 68.3905C136.692 68.1405 136.353 68 136 68C135.647 68 135.308 68.1405 135.058 68.3905C134.808 68.6406 134.667 68.9797 134.667 69.3333V72.0933C132.182 72.567 129.946 73.9094 128.36 75.8805C126.773 77.8516 125.938 80.3231 126.005 82.8533V89.3332C126.005 89.8637 125.794 90.3724 125.419 90.7474C125.044 91.1225 124.536 91.3332 124.006 91.3332C123.652 91.3332 123.313 91.4737 123.063 91.7237C122.814 91.9738 122.673 92.3129 122.673 92.6665C122.673 93.0202 122.814 93.3593 123.063 93.6093C123.313 93.8594 123.652 93.9999 124.006 93.9999H124.126L120.394 97.7198C120.269 97.8438 120.17 97.9913 120.102 98.1537C120.035 98.3162 120 98.4905 120 98.6665C120 98.8425 120.035 99.0168 120.102 99.1793C120.17 99.3418 120.269 99.4892 120.394 99.6132C120.519 99.7367 120.666 99.8345 120.829 99.9009C120.991 99.9672 121.165 100.001 121.34 99.9998Z" fill="#111111"/>
</g>
</g>
<g id="Size=40px, Filled=true" clip-path="url(#clip6_1110_1325)">
<g id="Vector_13">
<path d="M198.988 97.297C199.433 97.297 199.86 97.1054 200.175 96.7644C200.49 96.4235 200.667 95.961 200.667 95.4788C200.667 94.9966 200.49 94.5341 200.175 94.1931C199.86 93.8522 199.433 93.6606 198.988 93.6606C198.32 93.6606 197.68 93.3733 197.208 92.8618C196.735 92.3503 196.47 91.6567 196.47 90.9333V82.097C196.473 80.4812 196.247 78.8744 195.799 77.3333L177.333 97.3333L198.988 97.297Z" fill="#111111"/>
<path d="M186.956 100.669H180.991C180.912 100.671 180.836 100.697 180.777 100.742C180.719 100.787 180.681 100.847 180.672 100.913C180.665 101.017 180.665 101.121 180.672 101.224C180.672 101.96 181.022 102.666 181.646 103.187C182.271 103.708 183.117 104 184 104C184.883 104 185.729 103.708 186.354 103.187C186.978 102.666 187.328 101.96 187.328 101.224C187.335 101.121 187.335 101.017 187.328 100.913C187.323 100.877 187.31 100.841 187.288 100.809C187.267 100.777 187.238 100.749 187.203 100.726C187.169 100.703 187.129 100.687 187.086 100.677C187.044 100.667 186.999 100.664 186.956 100.669Z" fill="#111111"/>
<path d="M165.676 104C166.116 104.007 166.541 103.839 166.858 103.533L203.507 66.8667C203.663 66.7117 203.787 66.5274 203.872 66.3243C203.956 66.1212 204 65.9033 204 65.6833C204 65.4633 203.956 65.2455 203.872 65.0424C203.787 64.8393 203.663 64.6549 203.507 64.5C203.352 64.3438 203.168 64.2198 202.965 64.1352C202.762 64.0506 202.544 64.007 202.324 64.007C202.105 64.007 201.887 64.0506 201.684 64.1352C201.481 64.2198 201.297 64.3438 201.142 64.5L192.812 72.8333C190.921 70.8193 188.4 69.5087 185.666 69.1166V65.6667C185.666 65.2246 185.49 64.8007 185.178 64.4882C184.866 64.1756 184.442 64 184 64C183.558 64 183.134 64.1756 182.822 64.4882C182.51 64.8007 182.334 65.2246 182.334 65.6667V69.1166C179.228 69.7087 176.433 71.3867 174.449 73.8506C172.466 76.3145 171.422 79.4039 171.506 82.5666V90.6665C171.506 91.3296 171.243 91.9654 170.774 92.4343C170.306 92.9031 169.67 93.1665 169.007 93.1665C168.565 93.1665 168.142 93.3421 167.829 93.6547C167.517 93.9672 167.341 94.3911 167.341 94.8332C167.341 95.2752 167.517 95.6991 167.829 96.0117C168.142 96.3242 168.565 96.4998 169.007 96.4998H169.157L164.493 101.15C164.337 101.305 164.213 101.489 164.128 101.692C164.044 101.895 164 102.113 164 102.333C164 102.553 164.044 102.771 164.128 102.974C164.213 103.177 164.337 103.362 164.493 103.516C164.648 103.671 164.833 103.793 165.036 103.876C165.239 103.959 165.456 104.001 165.676 104Z" fill="#111111"/>
</g>
</g>
<g id="Size=48px, Filled=true" clip-path="url(#clip7_1110_1325)">
<g id="Vector_14">
<path d="M257.986 99.9564C258.52 99.9564 259.032 99.7265 259.41 99.3173C259.788 98.9082 260 98.3532 260 97.7745C260 97.1959 259.788 96.6409 259.41 96.2318C259.032 95.8226 258.52 95.5927 257.986 95.5927C257.184 95.5927 256.416 95.2479 255.849 94.6342C255.282 94.0204 254.964 93.188 254.964 92.32V81.7164C254.968 79.7774 254.696 77.8493 254.158 76L232 100L257.986 99.9564Z" fill="#111111"/>
<path d="M243.547 104.003H236.389C236.294 104.005 236.203 104.036 236.133 104.09C236.062 104.144 236.017 104.217 236.006 104.296C235.998 104.42 235.998 104.545 236.006 104.669C236.006 105.552 236.427 106.4 237.176 107.024C237.925 107.649 238.941 108 240 108C241.059 108 242.075 107.649 242.824 107.024C243.573 106.4 243.994 105.552 243.994 104.669C244.002 104.545 244.002 104.42 243.994 104.296C243.988 104.252 243.972 104.209 243.946 104.171C243.92 104.132 243.886 104.098 243.844 104.071C243.802 104.044 243.755 104.024 243.704 104.012C243.653 104 243.599 103.997 243.547 104.003Z" fill="#111111"/>
<path d="M218.011 108C218.539 108.008 219.049 107.807 219.43 107.44L263.409 63.44C263.596 63.2541 263.745 63.0329 263.846 62.7891C263.948 62.5454 264 62.284 264 62.02C264 61.756 263.948 61.4946 263.846 61.2508C263.745 61.0071 263.596 60.7859 263.409 60.6C263.223 60.4125 263.002 60.2638 262.758 60.1622C262.515 60.0607 262.253 60.0084 261.989 60.0084C261.725 60.0084 261.464 60.0607 261.221 60.1622C260.977 60.2638 260.756 60.4125 260.57 60.6L250.575 70.5999C248.305 68.1831 245.281 66.6104 241.999 66.14V62C241.999 61.4696 241.788 60.9609 241.414 60.5858C241.039 60.2107 240.53 60 240 60C239.47 60 238.961 60.2107 238.586 60.5858C238.212 60.9609 238.001 61.4696 238.001 62V66.14C234.273 66.8505 230.92 68.864 228.539 71.8207C226.159 74.7775 224.907 78.4847 225.007 82.2799V91.9998C225.007 92.7955 224.691 93.5585 224.129 94.1211C223.567 94.6837 222.804 94.9998 222.009 94.9998C221.479 94.9998 220.97 95.2105 220.595 95.5856C220.22 95.9607 220.01 96.4694 220.01 96.9998C220.01 97.5302 220.22 98.0389 220.595 98.414C220.97 98.7891 221.479 98.9998 222.009 98.9998H222.189L216.591 104.58C216.404 104.766 216.255 104.987 216.154 105.231C216.052 105.474 216 105.736 216 106C216 106.264 216.052 106.525 216.154 106.769C216.255 107.013 216.404 107.234 216.591 107.42C216.778 107.605 217 107.752 217.243 107.851C217.487 107.951 217.748 108.001 218.011 108Z" fill="#111111"/>
</g>
</g>
</g>
</g>
<defs>
<clipPath id="clip0_1110_1325">
<rect width="264" height="108" rx="5" fill="white"/>
</clipPath>
<clipPath id="clip1_1110_1325">
<rect width="12" height="12" fill="white" transform="translate(0 78)"/>
</clipPath>
<clipPath id="clip2_1110_1325">
<rect width="16" height="16" fill="white" transform="translate(24 76)"/>
</clipPath>
<clipPath id="clip3_1110_1325">
<rect width="20" height="20" fill="white" transform="translate(52 74)"/>
</clipPath>
<clipPath id="clip4_1110_1325">
<rect width="24" height="24" fill="white" transform="translate(84 72)"/>
</clipPath>
<clipPath id="clip5_1110_1325">
<rect width="32" height="32" fill="white" transform="translate(120 68)"/>
</clipPath>
<clipPath id="clip6_1110_1325">
<rect width="40" height="40" fill="white" transform="translate(164 64)"/>
</clipPath>
<clipPath id="clip7_1110_1325">
<rect width="48" height="48" fill="white" transform="translate(216 60)"/>
</clipPath>
</defs>
</svg>
