<svg width="264" height="108" viewBox="0 0 264 108" fill="none" xmlns="http://www.w3.org/2000/svg">
<g id="Notification (idle)">
<g clip-path="url(#clip0_1110_1324)">
<g id="Size=12px, Filled=false">
<path id="Vector" d="M5.25 28.5C5.34771 28.9446 5.6531 29.25 6 29.25C6.3469 29.25 6.65229 28.9446 6.75 28.5M6 19.5V18.75M6 19.5C7.72589 19.5 9.125 21.099 9.125 23.0714C9.125 26.4267 9.75 27 9.75 27H2.25C2.25 27 2.875 26.0876 2.875 23.0714C2.875 21.099 4.27411 19.5 6 19.5Z" stroke="#111111" stroke-width="0.75" stroke-linecap="round" stroke-linejoin="round"/>
</g>
<g id="Size=16px, Filled=false">
<path id="Vector_2" d="M31 30C31.1303 30.5928 31.5375 31 32 31C32.4625 31 32.8697 30.5928 33 30M32 18V17M32 18C34.3012 18 36.1667 20.132 36.1667 22.7619C36.1667 27.2356 37 28 37 28H27C27 28 27.8333 26.7835 27.8333 22.7619C27.8333 20.132 29.6988 18 32 18Z" stroke="#111111" stroke-linecap="round" stroke-linejoin="round"/>
</g>
<g id="Size=20px, Filled=false">
<path id="Vector_3" d="M60.3333 32.3334C60.5505 32.8274 61.2291 33.1667 62 33.1667C62.7709 33.1667 63.4495 32.8274 63.6667 32.3334M62 16.5V14.8334M62 16.5C65.4518 16.5 68.25 19.3427 68.25 22.8492C68.25 28.8141 69.5 29.8334 69.5 29.8334H54.5C54.5 29.8334 55.75 28.2114 55.75 22.8492C55.75 19.3427 58.5482 16.5 62 16.5Z" stroke="#111111" stroke-width="1.25" stroke-linecap="round" stroke-linejoin="round"/>
</g>
<g id="Size=24px, Filled=false">
<path id="Vector_4" d="M94 34C94.2606 34.5928 95.0749 35 96 35C96.9251 35 97.7394 34.5928 98 34M96 15V14M96 15C100.142 15 103.5 18.4112 103.5 22.619C103.5 29.7769 105 31 105 31H87C87 31 88.5 29.0536 88.5 22.619C88.5 18.4112 91.8579 15 96 15Z" stroke="#111111" stroke-width="1.5" stroke-linecap="round" stroke-linejoin="round"/>
</g>
<g id="Size=32px, Filled=false">
<path id="Vector_5" d="M133.333 37.3334C133.681 38.1238 134.767 38.6667 136 38.6667C137.233 38.6667 138.319 38.1238 138.667 37.3334M136 12V10M136 12C141.523 12 146 16.5483 146 22.1588C146 31.7026 148 33.3334 148 33.3334H124C124 33.3334 126 30.7382 126 22.1588C126 16.5483 130.477 12 136 12Z" stroke="#111111" stroke-width="2" stroke-linecap="round" stroke-linejoin="round"/>
</g>
<g id="Size=40px, Filled=false">
<path id="Vector_6" d="M180.667 40.6666C181.101 41.6546 182.458 42.3333 184 42.3333C185.542 42.3333 186.899 41.6546 187.333 40.6666M184 9V7M184 9C190.904 9 196.5 14.6852 196.5 21.6984C196.5 33.6281 199 35.6666 199 35.6666H169C169 35.6666 171.5 32.4226 171.5 21.6984C171.5 14.6852 177.096 9 184 9Z" stroke="#111111" stroke-width="2.5" stroke-linecap="round" stroke-linejoin="round"/>
</g>
<g id="Size=48px, Filled=false">
<path id="Vector_7" d="M236 44C236.521 45.1856 238.15 46 240 46C241.85 46 243.479 45.1856 244 44M240 6V4M240 6C248.284 6 255 12.8223 255 21.2381C255 35.5538 258 38 258 38H222C222 38 225 34.1072 225 21.2381C225 12.8223 231.716 6 240 6Z" stroke="#111111" stroke-width="3" stroke-linecap="round" stroke-linejoin="round"/>
</g>
<g id="Size=12px, Filled=true">
<path id="Vector_8" d="M7.18066 88.5C7.19793 88.4979 7.21565 88.4995 7.23242 88.5039C7.24922 88.5083 7.26559 88.5152 7.2793 88.5254C7.29293 88.5356 7.30405 88.5491 7.3125 88.5635C7.32089 88.5779 7.32619 88.594 7.32812 88.6104C7.33071 88.6569 7.33072 88.7035 7.32812 88.75C7.32812 89.0814 7.18986 89.3994 6.94336 89.6338C6.69685 89.8681 6.36227 89.9999 6.01367 90C5.6649 90 5.32963 89.8682 5.08301 89.6338C4.83651 89.3994 4.69824 89.0814 4.69824 88.75C4.69564 88.7035 4.69566 88.6569 4.69824 88.6104C4.70199 88.5807 4.71708 88.5534 4.74023 88.5332C4.76335 88.5131 4.79289 88.501 4.82422 88.5H7.18066ZM6.00293 78C6.21204 78.0001 6.41268 78.0792 6.56055 78.2197C6.70846 78.3604 6.79199 78.5511 6.79199 78.75V79.3203C7.22821 79.3928 7.64521 79.5476 8.01758 79.7754C8.65936 80.2042 9.18029 80.7764 9.53516 81.4414C9.89008 82.1065 10.0679 82.8442 10.0527 83.5898V83.9697C10.0532 85.2446 10.3689 86.5017 10.9736 87.6396C10.9928 87.6774 11.0018 87.7199 11 87.7617C10.9981 87.8034 10.9851 87.8439 10.9629 87.8799C10.9386 87.9161 10.9047 87.9459 10.8652 87.9668C10.8258 87.9876 10.7814 87.9993 10.7363 88H1.26855C1.22174 88.001 1.17514 87.9906 1.13379 87.9697C1.09233 87.9487 1.05654 87.9175 1.03125 87.8799C1.01061 87.843 1 87.8015 1 87.7598C1.00004 87.718 1.01057 87.6765 1.03125 87.6396C1.63601 86.5017 1.95172 85.2446 1.95215 83.9697V83.5898C1.93967 82.8986 2.09144 82.2135 2.39648 81.5859C2.70159 80.9583 3.15194 80.4039 3.71387 79.9648C4.15334 79.6419 4.66795 79.4229 5.21387 79.3252V78.75C5.21387 78.5512 5.29646 78.3604 5.44434 78.2197C5.59231 78.0791 5.79366 78 6.00293 78Z" fill="#111111"/>
</g>
<g id="Size=16px, Filled=true">
<path id="Vector_9" d="M33.5745 90C33.5975 89.9972 33.6214 89.999 33.6438 90.0049C33.666 90.0108 33.6872 90.0206 33.7053 90.0342C33.7235 90.0478 33.739 90.0648 33.7502 90.084C33.7615 90.1032 33.7681 90.1246 33.7708 90.1465C33.7742 90.2086 33.7742 90.2709 33.7708 90.333C33.7708 90.775 33.5859 91.1992 33.2571 91.5117C32.9283 91.8242 32.4827 91.9999 32.0178 92C31.5528 92 31.1064 91.8243 30.7776 91.5117C30.4488 91.1992 30.2639 90.775 30.2639 90.333C30.2605 90.2709 30.2604 90.2086 30.2639 90.1465C30.2689 90.1071 30.2888 90.0708 30.3196 90.0439C30.3505 90.017 30.391 90.0013 30.4329 90H33.5745ZM32.0032 76C32.2822 76 32.55 76.1054 32.7473 76.293C32.9445 76.4805 33.0549 76.7348 33.0549 77V77.7598C33.6368 77.8563 34.193 78.0624 34.6897 78.3662C35.5456 78.938 36.2408 79.7011 36.7141 80.5879C37.1873 81.4748 37.4238 82.4589 37.4036 83.4531V83.96C37.4041 85.6599 37.8247 87.3362 38.6311 88.8535C38.6565 88.9037 38.6686 88.959 38.6663 89.0146C38.6638 89.0703 38.6471 89.1248 38.6174 89.1729C38.585 89.2211 38.5401 89.2611 38.4875 89.2891C38.435 89.317 38.3759 89.3321 38.3157 89.333H25.6907C25.6281 89.3343 25.5662 89.3209 25.511 89.293C25.4557 89.2649 25.409 89.223 25.3752 89.1729C25.3478 89.1238 25.3333 89.0692 25.3333 89.0137C25.3333 88.9579 25.3477 88.9027 25.3752 88.8535C26.1817 87.3362 26.6022 85.6599 26.6028 83.96V83.4531C26.5861 82.5314 26.7888 81.6181 27.1956 80.7812C27.6024 79.9443 28.203 79.2055 28.9524 78.6201C29.5384 78.1895 30.2235 77.8969 30.9514 77.7666V77C30.9514 76.7349 31.0619 76.4805 31.259 76.293C31.4563 76.1054 31.7242 76 32.0032 76Z" fill="#111111"/>
</g>
<g id="Size=20px, Filled=true">
<path id="Vector_10" d="M64.0544 91.5059C64.0824 91.5132 64.1088 91.5259 64.1316 91.543C64.1544 91.56 64.1731 91.5814 64.1873 91.6055C64.2014 91.6296 64.2104 91.6562 64.2136 91.6836C64.218 91.7612 64.218 91.8393 64.2136 91.917C64.2135 92.4693 63.9829 92.999 63.572 93.3896C63.161 93.7803 62.6035 94 62.0222 94C61.4409 94 60.8834 93.7803 60.4724 93.3896C60.0615 92.999 59.8299 92.4694 59.8298 91.917C59.8255 91.8394 59.8255 91.7612 59.8298 91.6836C59.8361 91.6342 59.8616 91.5883 59.9001 91.5547C59.9387 91.5212 59.9885 91.5016 60.0408 91.5H63.9685C63.9973 91.4965 64.0265 91.4985 64.0544 91.5059ZM62.0046 74C62.3533 74.0001 62.6878 74.1319 62.9343 74.3662C63.1809 74.6006 63.3191 74.9185 63.3191 75.25V76.2002C64.0464 76.3209 64.7412 76.5782 65.3621 76.958C66.432 77.6728 67.3007 78.6267 67.8923 79.7354C68.4839 80.8439 68.78 82.0736 68.7546 83.3164V83.9502C68.7554 86.0749 69.281 88.1699 70.2888 90.0664C70.3207 90.1293 70.3358 90.1989 70.3328 90.2686C70.3297 90.3383 70.3085 90.4066 70.2712 90.4668C70.2307 90.527 70.1748 90.5765 70.1091 90.6113C70.0434 90.6462 69.9695 90.6659 69.8943 90.667H54.114C54.0359 90.6687 53.9584 90.6511 53.8894 90.6162C53.8204 90.5812 53.7616 90.5295 53.7195 90.4668C53.6849 90.4052 53.6667 90.3364 53.6667 90.2666C53.6668 90.1969 53.685 90.1279 53.7195 90.0664C54.7274 88.1699 55.2529 86.075 55.2537 83.9502V83.3164C55.2329 82.1642 55.4864 81.0226 55.9949 79.9766C56.5034 78.9305 57.2537 78.0071 58.1902 77.2754C58.9226 76.7371 59.7793 76.3708 60.6892 76.208V75.25C60.6892 74.9186 60.8275 74.6006 61.074 74.3662C61.3206 74.1318 61.6559 74 62.0046 74Z" fill="#111111"/>
</g>
<g id="Size=24px, Filled=true">
<path id="Vector_11" d="M98.4648 93.0068C98.4984 93.0157 98.5302 93.0313 98.5576 93.0518C98.5849 93.0722 98.6081 93.0972 98.625 93.126C98.6419 93.1548 98.6523 93.1869 98.6562 93.2197C98.6615 93.313 98.6615 93.4067 98.6562 93.5C98.6562 94.163 98.379 94.7987 97.8857 95.2676C97.3925 95.7363 96.7239 96 96.0264 96C95.3289 96 94.6602 95.7363 94.167 95.2676C93.6737 94.7987 93.3965 94.163 93.3965 93.5C93.3913 93.4067 93.3913 93.313 93.3965 93.2197C93.4041 93.1606 93.4333 93.1057 93.4795 93.0654C93.5257 93.0251 93.5858 93.002 93.6484 93H98.3623C98.3966 92.9959 98.4315 92.9981 98.4648 93.0068ZM96.0049 72C96.4234 72 96.8251 72.1581 97.1211 72.4395C97.4169 72.7207 97.583 73.1023 97.583 73.5V74.6396C98.4557 74.7844 99.2892 75.0941 100.034 75.5498C101.318 76.4076 102.361 77.5524 103.071 78.8828C103.781 80.213 104.136 81.6885 104.105 83.1797V83.9404C104.106 86.4902 104.738 89.0044 105.947 91.2803C105.985 91.3556 106.004 91.4389 106 91.5225C105.996 91.6061 105.97 91.6876 105.926 91.7598C105.877 91.8322 105.81 91.8927 105.731 91.9346C105.653 91.9764 105.564 91.9986 105.474 92H86.5361C86.4423 92.0019 86.3494 91.9805 86.2666 91.9385C86.1838 91.8964 86.114 91.835 86.0635 91.7598C86.022 91.6859 86 91.6032 86 91.5195C86.0001 91.436 86.0221 91.354 86.0635 91.2803C87.273 89.0044 87.9034 86.4902 87.9043 83.9404V83.1797C87.8793 81.7971 88.1837 80.4272 88.7939 79.1719C89.4042 77.9165 90.3047 76.8078 91.4287 75.9297C92.3075 75.2839 93.3351 74.8458 94.4268 74.6504V73.5C94.4268 73.1023 94.5929 72.7207 94.8887 72.4395C95.1846 72.1582 95.5864 72 96.0049 72Z" fill="#111111"/>
</g>
<g id="Size=32px, Filled=true">
<path id="Vector_12" d="M139.287 96.0098C139.332 96.0215 139.373 96.0412 139.41 96.0684C139.446 96.0956 139.477 96.1295 139.5 96.168C139.522 96.2064 139.537 96.2492 139.542 96.293C139.549 96.4173 139.549 96.5426 139.542 96.667C139.542 97.5508 139.173 98.3984 138.515 99.0234C137.858 99.6486 136.965 100 136.035 100C135.105 99.9999 134.213 99.6485 133.555 99.0234C132.898 98.3984 132.528 97.5508 132.528 96.667C132.521 96.5426 132.521 96.4173 132.528 96.293C132.538 96.2142 132.578 96.1416 132.639 96.0879C132.701 96.0341 132.781 96.0026 132.865 96H139.149C139.195 95.9944 139.242 95.998 139.287 96.0098ZM136.007 68C136.565 68 137.1 68.2109 137.495 68.5859C137.889 68.961 138.111 69.4697 138.111 70V71.5195C139.275 71.7126 140.386 72.1257 141.38 72.7334C143.091 73.877 144.482 75.403 145.428 77.1768C146.375 78.9504 146.848 80.9179 146.807 82.9062V83.9199C146.809 87.3198 147.65 90.6724 149.262 93.707C149.313 93.8076 149.338 93.9187 149.333 94.0303C149.328 94.1418 149.294 94.2505 149.234 94.3467C149.169 94.4432 149.081 94.5233 148.975 94.5791C148.87 94.6349 148.752 94.6651 148.632 94.667H123.383C123.257 94.6697 123.133 94.641 123.022 94.585C122.912 94.5289 122.818 94.447 122.751 94.3467C122.695 94.2482 122.667 94.138 122.667 94.0264C122.667 93.915 122.696 93.8053 122.751 93.707C124.364 90.6724 125.205 87.3198 125.206 83.9199V82.9062C125.173 81.0628 125.578 79.2362 126.391 77.5625C127.205 75.8886 128.406 74.411 129.905 73.2402C131.077 72.379 132.447 71.7937 133.903 71.5332V70C133.903 69.4696 134.125 68.961 134.519 68.5859C134.914 68.211 135.449 68 136.007 68Z" fill="#111111"/>
</g>
<g id="Size=40px, Filled=true">
<path id="Vector_13" d="M188.109 99.0117C188.165 99.0264 188.217 99.0518 188.263 99.0859C188.308 99.12 188.346 99.1628 188.374 99.2109C188.402 99.259 188.42 99.3116 188.427 99.3662C188.436 99.5216 188.436 99.6777 188.427 99.833C188.427 100.938 187.966 101.998 187.144 102.779C186.322 103.561 185.207 104 184.044 104C182.882 104 181.767 103.561 180.945 102.779C180.123 101.998 179.66 100.938 179.66 99.833C179.652 99.6777 179.652 99.5215 179.66 99.3662C179.673 99.2676 179.722 99.1765 179.799 99.1094C179.876 99.0421 179.977 99.0033 180.081 99H187.937C187.994 98.9931 188.053 98.997 188.109 99.0117ZM184.008 64C184.706 64 185.375 64.2636 185.868 64.7324C186.361 65.2012 186.638 65.8371 186.638 66.5V68.4004C188.093 68.6417 189.482 69.1574 190.724 69.917C192.864 71.3465 194.601 73.2536 195.784 75.4707C196.968 77.688 197.561 80.1481 197.51 82.6338V83.9004C197.512 88.1501 198.562 92.3406 200.578 96.1338C200.642 96.2594 200.672 96.3979 200.666 96.5371C200.66 96.6766 200.618 96.8132 200.543 96.9336C200.462 97.0543 200.351 97.1538 200.219 97.2236C200.088 97.2934 199.94 97.3307 199.789 97.333H168.228C168.071 97.3364 167.916 97.3015 167.778 97.2314C167.64 97.1614 167.523 97.0589 167.439 96.9336C167.37 96.8105 167.333 96.6727 167.333 96.5332C167.333 96.3938 167.37 96.2568 167.439 96.1338C169.455 92.3406 170.506 88.1501 170.507 83.9004V82.6338C170.465 80.3293 170.972 78.0454 171.99 75.9531C173.007 73.8608 174.508 72.0133 176.381 70.5498C177.846 69.4733 179.559 68.7426 181.378 68.417V66.5C181.378 65.837 181.655 65.2013 182.149 64.7324C182.642 64.2636 183.311 64 184.008 64Z" fill="#111111"/>
</g>
<g id="Size=48px, Filled=true">
<path id="Vector_14" d="M244.931 102.014C244.998 102.031 245.06 102.062 245.115 102.103C245.17 102.143 245.216 102.195 245.25 102.253C245.284 102.311 245.305 102.375 245.312 102.44C245.323 102.627 245.323 102.814 245.312 103C245.312 104.326 244.759 105.597 243.772 106.535C242.786 107.473 241.448 108 240.053 108C238.658 108 237.319 107.473 236.333 106.535C235.347 105.597 234.792 104.326 234.792 103C234.782 102.814 234.782 102.627 234.792 102.44C234.807 102.322 234.866 102.212 234.959 102.131C235.052 102.05 235.172 102.004 235.298 102H244.724C244.793 101.992 244.863 101.996 244.931 102.014ZM240.01 60C240.847 60 241.65 60.3163 242.242 60.8789C242.834 61.4415 243.166 62.2045 243.166 63V65.2803C244.911 65.5699 246.578 66.1882 248.068 67.0996C250.636 68.815 252.722 71.104 254.142 73.7646C255.561 76.4254 256.273 79.3775 256.212 82.3604V83.8799C256.214 88.9795 257.474 94.0077 259.894 98.5596C259.97 98.7105 260.006 98.8775 259.999 99.0449C259.992 99.2122 259.941 99.3752 259.852 99.5195C259.754 99.6643 259.621 99.7844 259.463 99.8682C259.305 99.9519 259.128 99.9972 258.947 100H221.073C220.885 100.004 220.699 99.962 220.533 99.8779C220.367 99.7939 220.227 99.67 220.126 99.5195C220.043 99.3719 220 99.2073 220 99.04C220 98.8726 220.043 98.7073 220.126 98.5596C222.545 94.0077 223.807 88.9796 223.809 83.8799V82.3604C223.759 79.5949 224.366 76.8536 225.587 74.3428C226.807 71.8321 228.609 69.6164 230.857 67.8604C232.615 66.5685 234.67 65.6906 236.854 65.2998V63C236.854 62.2044 237.186 61.4415 237.778 60.8789C238.37 60.3163 239.173 60.0001 240.01 60Z" fill="#111111"/>
</g>
</g>
</g>
<defs>
<clipPath id="clip0_1110_1324">
<rect width="264" height="108" rx="5" fill="white"/>
</clipPath>
</defs>
</svg>
