<svg width="264" height="108" viewBox="0 0 264 108" fill="none" xmlns="http://www.w3.org/2000/svg">
<g id="Notification (on)">
<g clip-path="url(#clip0_1110_1326)">
<g id="Size=12px, Filled=false">
<path id="Vector" d="M3.55 20.15C2.96155 20.4766 2.47653 20.9617 2.15 21.55M2.85 18.75C1.83337 19.039 1.03882 19.8335 0.75 20.85M7.05 28.55C7.05 28.9366 6.5799 29.25 6 29.25C5.4201 29.25 4.95 28.9366 4.95 28.55M6 19.45V18.75M8.45 20.15C8.7423 20.3131 9.01082 20.5156 9.24806 20.7517C9.48466 20.9887 9.68724 21.2574 9.85 21.55M9.15 18.75C10.1666 19.039 10.9612 19.8335 11.25 20.85M2.15 27.15H9.85C9.85 27.15 9.08 26.5204 9.08 24.2574C9.08 22.4496 7.76484 20.85 6 20.85C4.23516 20.85 2.92 22.4496 2.92 24.2574C2.92 26.5324 2.15 27.15 2.15 27.15Z" stroke="#111111" stroke-width="0.75" stroke-linecap="round" stroke-linejoin="round"/>
</g>
<g id="Size=16px, Filled=false">
<path id="Vector_2" d="M28.7333 18.8667C27.9487 19.3022 27.302 19.9489 26.8667 20.7333M27.8 17C26.4445 17.3853 25.3851 18.4447 25 19.8M33.4 30.0667C33.4 30.5821 32.7732 31 32 31C31.2268 31 30.6 30.5821 30.6 30.0667M32 17.9333V17M35.2667 18.8667C35.6564 19.0842 36.0144 19.3541 36.3307 19.6689C36.6462 19.9849 36.9163 20.3431 37.1333 20.7333M36.2 17C37.5555 17.3853 38.6149 18.4447 39 19.8M26.8667 28.2H37.1333C37.1333 28.2 36.1067 27.3605 36.1067 24.3433C36.1067 21.9328 34.3531 19.8 32 19.8C29.6469 19.8 27.8933 21.9328 27.8933 24.3433C27.8933 27.3766 26.8667 28.2 26.8667 28.2Z" stroke="#111111" stroke-linecap="round" stroke-linejoin="round"/>
</g>
<g id="Size=20px, Filled=false">
<path id="Vector_3" d="M57.9167 17.5833C56.9359 18.1277 56.1275 18.9361 55.5833 19.9167M56.75 15.25C55.0556 15.7316 53.7314 17.0559 53.25 18.75M63.75 31.5833C63.75 32.2277 62.9665 32.75 62 32.75C61.0335 32.75 60.25 32.2277 60.25 31.5833M62 16.4167V15.25M66.0833 17.5833C66.5705 17.8552 67.018 18.1926 67.4134 18.5862C67.8078 18.9812 68.1454 19.4289 68.4167 19.9167M67.25 15.25C68.9444 15.7316 70.2686 17.0559 70.75 18.75M55.5833 29.25H68.4167C68.4167 29.25 67.1333 28.2006 67.1333 24.4291C67.1333 21.416 64.9414 18.75 62 18.75C59.0586 18.75 56.8667 21.416 56.8667 24.4291C56.8667 28.2207 55.5833 29.25 55.5833 29.25Z" stroke="#111111" stroke-width="1.25" stroke-linecap="round" stroke-linejoin="round"/>
</g>
<g id="Size=24px, Filled=false">
<path id="Vector_4" d="M90.814 16.266C89.7759 16.8425 88.9201 17.6986 88.344 18.737M89.975 13.5C87.8086 14.1159 86.1155 15.8095 85.5 17.976M96 16.932C99.438 16.932 102 20.25 102 24C102 28.694 103.5 30 103.5 30H88.5C88.5 30 90 28.719 90 24C90 20.25 92.562 16.932 96 16.932ZM96 16.932V15M97.5 33C97.5 33.8284 96.8284 34.5 96 34.5C95.1716 34.5 94.5 33.8284 94.5 33M101.186 16.266C101.702 16.5539 102.176 16.9112 102.594 17.328C103.012 17.7463 103.369 18.2205 103.656 18.737M102.025 13.5C104.191 14.1159 105.884 15.8095 106.5 17.976" stroke="#111111" stroke-width="1.5" stroke-linecap="round" stroke-linejoin="round"/>
</g>
<g id="Size=32px, Filled=false">
<path id="Vector_5" d="M129.467 13.7333C127.897 14.6044 126.604 15.8978 125.733 17.4667M127.6 10C124.889 10.7706 122.77 12.8894 122 15.6M138.8 36.1333C138.8 37.1643 137.546 38 136 38C134.454 38 133.2 37.1643 133.2 36.1333M136 11.8667V10M142.533 13.7333C143.313 14.1684 144.029 14.7082 144.661 15.3379C145.292 15.9699 145.833 16.6863 146.267 17.4667M144.4 10C147.111 10.7706 149.23 12.8894 150 15.6M125.733 32.4H146.267C146.267 32.4 144.213 30.721 144.213 24.6865C144.213 19.8656 140.706 15.6 136 15.6C131.294 15.6 127.787 19.8656 127.787 24.6865C127.787 30.7532 125.733 32.4 125.733 32.4Z" stroke="#111111" stroke-width="2" stroke-linecap="round" stroke-linejoin="round"/>
</g>
<g id="Size=40px, Filled=false">
<path id="Vector_6" d="M175.833 11.1667C173.872 12.2554 172.255 13.8722 171.167 15.8333M173.5 6.5C170.111 7.46327 167.463 10.1118 166.5 13.5M187.5 39.1667C187.5 40.4553 185.933 41.5 184 41.5C182.067 41.5 180.5 40.4553 180.5 39.1667M184 8.83333V6.5M192.167 11.1667C193.141 11.7104 194.036 12.3853 194.827 13.1723C195.616 13.9623 196.291 14.8579 196.833 15.8333M194.5 6.5C197.889 7.46327 200.537 10.1118 201.5 13.5M171.167 34.5H196.833C196.833 34.5 194.267 32.4013 194.267 24.8581C194.267 18.832 189.883 13.5 184 13.5C178.117 13.5 173.733 18.832 173.733 24.8581C173.733 32.4415 171.167 34.5 171.167 34.5Z" stroke="#111111" stroke-width="2.5" stroke-linecap="round" stroke-linejoin="round"/>
</g>
<g id="Size=48px, Filled=false">
<path id="Vector_7" d="M230.2 8.6C227.846 9.90653 225.906 11.8466 224.6 14.2M227.4 3C223.333 4.15592 220.155 7.33412 219 11.4M244.2 42.2C244.2 43.7464 242.32 45 240 45C237.68 45 235.8 43.7464 235.8 42.2M240 5.8V3M249.8 8.6C250.969 9.25253 252.043 10.0623 252.992 11.0068C253.939 11.9548 254.749 13.0294 255.4 14.2M252.6 3C256.667 4.15592 259.845 7.33412 261 11.4M224.6 36.6H255.4C255.4 36.6 252.32 34.0815 252.32 25.0298C252.32 17.7983 247.059 11.4 240 11.4C232.941 11.4 227.68 17.7983 227.68 25.0298C227.68 34.1298 224.6 36.6 224.6 36.6Z" stroke="#111111" stroke-width="3" stroke-linecap="round" stroke-linejoin="round"/>
</g>
<g id="Size=12px, Filled=true" clip-path="url(#clip1_1110_1326)">
<g id="Vector_8">
<path d="M2.2501 81.75C2.3382 81.7504 2.42484 81.7274 2.50123 81.6835C2.57761 81.6396 2.64105 81.5763 2.6851 81.5C2.80512 81.2807 2.95674 81.0802 3.1351 80.905C3.31231 80.729 3.51245 80.5776 3.7301 80.455C3.78722 80.4222 3.83732 80.3784 3.87754 80.3262C3.91775 80.274 3.94729 80.2144 3.96447 80.1508C3.98165 80.0872 3.98613 80.0209 3.97766 79.9555C3.96919 79.8902 3.94793 79.8271 3.9151 79.77C3.88227 79.7129 3.83851 79.6628 3.78632 79.6226C3.73412 79.5824 3.67452 79.5528 3.61091 79.5356C3.54731 79.5185 3.48094 79.514 3.4156 79.5225C3.35026 79.5309 3.28722 79.5522 3.2301 79.585C2.93669 79.7486 2.66744 79.9523 2.4301 80.19C2.18968 80.4312 1.98283 80.7036 1.8151 81C1.78204 81.0571 1.7606 81.1201 1.752 81.1855C1.74341 81.2509 1.74784 81.3173 1.76504 81.381C1.78223 81.4447 1.81186 81.5043 1.8522 81.5565C1.89254 81.6087 1.94281 81.6523 2.0001 81.685C2.0763 81.7282 2.16251 81.7506 2.2501 81.75Z" fill="#111111"/>
<path d="M3.2151 78.355C3.19832 78.2906 3.16885 78.2302 3.12843 78.1774C3.08801 78.1245 3.03745 78.0803 2.97971 78.0472C2.92197 78.0141 2.8582 77.9929 2.79216 77.9848C2.72612 77.9767 2.65912 77.9819 2.5951 78C1.98905 78.1966 1.44109 78.5402 1.0001 79C0.538428 79.4395 0.19457 79.988 9.86997e-05 80.595C-0.0180214 80.659 -0.0231805 80.726 -0.0150762 80.7921C-0.00697189 80.8581 0.0142328 80.9219 0.0472951 80.9796C0.0803575 81.0374 0.124613 81.0879 0.177467 81.1283C0.230321 81.1688 0.290711 81.1982 0.355099 81.215C0.401935 81.2305 0.450797 81.2389 0.500099 81.24C0.611027 81.2448 0.720377 81.2124 0.810908 81.1482C0.90144 81.0839 0.968001 80.9913 1.0001 80.885C1.12993 80.4315 1.37048 80.0174 1.7001 79.68C2.03282 79.3615 2.43767 79.1282 2.8801 79C2.94552 78.9813 3.00645 78.9495 3.05914 78.9065C3.11184 78.8634 3.15519 78.8101 3.18655 78.7497C3.21792 78.6893 3.23662 78.6232 3.24153 78.5553C3.24644 78.4874 3.23744 78.4193 3.2151 78.355Z" fill="#111111"/>
<path d="M9.5751 80.195C9.33372 79.9527 9.05935 79.7456 8.7601 79.58C8.70297 79.5472 8.63994 79.5259 8.5746 79.5175C8.50926 79.509 8.44289 79.5135 8.37928 79.5306C8.31568 79.5478 8.25607 79.5774 8.20388 79.6176C8.15169 79.6578 8.10793 79.7079 8.0751 79.765C8.04227 79.8221 8.02101 79.8852 8.01254 79.9505C8.00407 80.0159 8.00855 80.0822 8.02573 80.1458C8.04291 80.2094 8.07245 80.269 8.11266 80.3212C8.15287 80.3734 8.20297 80.4172 8.2601 80.45C8.47775 80.5726 8.67788 80.724 8.8551 80.9C9.03739 81.076 9.19243 81.2783 9.3151 81.5C9.34776 81.5573 9.39144 81.6076 9.44361 81.6479C9.49579 81.6883 9.55543 81.7179 9.6191 81.7351C9.68277 81.7523 9.74921 81.7567 9.8146 81.7481C9.87999 81.7395 9.94303 81.7181 10.0001 81.685C10.0574 81.6523 10.1077 81.6087 10.148 81.5565C10.1883 81.5043 10.218 81.4447 10.2352 81.381C10.2524 81.3173 10.2568 81.2509 10.2482 81.1855C10.2396 81.1201 10.2182 81.0571 10.1851 81C10.0187 80.7056 9.81353 80.4349 9.5751 80.195Z" fill="#111111"/>
<path d="M12.0001 80.595C11.8128 79.9905 11.4777 79.4423 11.0251 79C10.5771 78.5367 10.0201 78.1929 9.4051 78C9.27249 77.9622 9.1303 77.9787 9.00981 78.0457C8.88932 78.1127 8.80039 78.2249 8.7626 78.3575C8.72481 78.4901 8.74124 78.6323 8.80828 78.7528C8.87533 78.8733 8.98749 78.9622 9.1201 79C9.57163 79.131 9.98384 79.3714 10.3201 79.7C10.6397 80.0339 10.873 80.4406 11.0001 80.885C11.0393 81.0116 11.1271 81.1175 11.2443 81.1794C11.3615 81.2412 11.4985 81.2541 11.6251 81.215C11.6913 81.2005 11.7538 81.1726 11.8089 81.1331C11.864 81.0937 11.9105 81.0434 11.9456 80.9854C11.9806 80.9275 12.0036 80.8629 12.0129 80.7958C12.0223 80.7287 12.0179 80.6604 12.0001 80.595Z" fill="#111111"/>
<path d="M6.75024 89H5.25024C5.18394 89 5.12035 89.0211 5.07347 89.0586C5.02658 89.0961 5.00024 89.147 5.00024 89.2C5.00024 89.4122 5.1056 89.6157 5.29314 89.7657C5.48067 89.9157 5.73503 90 6.00024 90C6.26546 90 6.51981 89.9157 6.70735 89.7657C6.89489 89.6157 7.00024 89.4122 7.00024 89.2C7.00024 89.147 6.97391 89.0961 6.92702 89.0586C6.88014 89.0211 6.81655 89 6.75024 89Z" fill="#111111"/>
<path d="M9.2501 84.825V84.5C9.2501 82.755 8.2101 81.26 6.7501 80.865V80.25C6.7501 80.0511 6.67108 79.8603 6.53043 79.7197C6.38978 79.579 6.19901 79.5 6.0001 79.5C5.80119 79.5 5.61042 79.579 5.46977 79.7197C5.32912 79.8603 5.2501 80.0511 5.2501 80.25V80.865C3.7901 81.26 2.7501 82.755 2.7501 84.5V84.825C2.74832 85.889 2.50017 86.938 2.0251 87.89C2.0054 87.9269 1.9951 87.9682 1.9951 88.01C1.9951 88.0519 2.0054 88.0931 2.0251 88.13C2.04823 88.1662 2.07997 88.1961 2.11749 88.2171C2.15501 88.238 2.19714 88.2493 2.2401 88.25H9.7401C9.78306 88.2493 9.82518 88.238 9.8627 88.2171C9.90022 88.1961 9.93197 88.1662 9.9551 88.13C9.97479 88.0931 9.9851 88.0519 9.9851 88.01C9.9851 87.9682 9.97479 87.9269 9.9551 87.89C9.48695 86.9364 9.24566 85.8874 9.2501 84.825Z" fill="#111111"/>
</g>
</g>
<g id="Size=16px, Filled=true" clip-path="url(#clip2_1110_1326)">
<g id="Vector_9">
<path d="M27.0001 81.0001C27.1175 81.0005 27.233 80.9699 27.3349 80.9114C27.4367 80.8529 27.5213 80.7685 27.5801 80.6667C27.7401 80.3743 27.9422 80.107 28.1801 79.8734C28.4163 79.6387 28.6832 79.4368 28.9734 79.2734C29.0496 79.2296 29.1163 79.1713 29.17 79.1017C29.2236 79.0321 29.263 78.9526 29.2859 78.8678C29.3088 78.783 29.3148 78.6945 29.3035 78.6074C29.2922 78.5203 29.2638 78.4362 29.2201 78.3601C29.1763 78.2839 29.1179 78.2171 29.0483 78.1635C28.9787 78.1099 28.8993 78.0705 28.8145 78.0476C28.7297 78.0247 28.6412 78.0187 28.554 78.03C28.4669 78.0413 28.3829 78.0696 28.3067 78.1134C27.9155 78.3316 27.5565 78.603 27.2401 78.9201C26.9195 79.2416 26.6437 79.6049 26.4201 80.0001C26.376 80.0761 26.3474 80.1602 26.3359 80.2474C26.3245 80.3346 26.3304 80.4232 26.3533 80.5081C26.3762 80.593 26.4157 80.6725 26.4695 80.742C26.5233 80.8116 26.5903 80.8698 26.6667 80.9134C26.7683 80.971 26.8833 81.0009 27.0001 81.0001Z" fill="#111111"/>
<path d="M28.2867 76.4734C28.2643 76.3875 28.2251 76.307 28.1712 76.2365C28.1173 76.1661 28.0499 76.1071 27.9729 76.063C27.8959 76.0189 27.8109 75.9906 27.7228 75.9798C27.6347 75.969 27.5454 75.9759 27.4601 76.0001C26.652 76.2622 25.9214 76.7202 25.3334 77.3334C24.7178 77.9194 24.2593 78.6507 24.0001 79.4601C23.9759 79.5454 23.969 79.6348 23.9798 79.7228C23.9906 79.8109 24.0189 79.8959 24.063 79.9729C24.1071 80.0499 24.1661 80.1173 24.2365 80.1712C24.307 80.2251 24.3875 80.2644 24.4734 80.2867C24.5358 80.3073 24.601 80.3185 24.6667 80.3201C24.8146 80.3264 24.9604 80.2833 25.0811 80.1976C25.2018 80.1119 25.2906 79.9884 25.3334 79.8467C25.5065 79.2421 25.8272 78.69 26.2667 78.2401C26.7103 77.8153 27.2501 77.5043 27.8401 77.3334C27.9273 77.3085 28.0085 77.266 28.0788 77.2086C28.149 77.1513 28.2068 77.0801 28.2487 76.9996C28.2905 76.9191 28.3154 76.8309 28.322 76.7404C28.3285 76.6499 28.3165 76.5591 28.2867 76.4734Z" fill="#111111"/>
<path d="M36.7667 78.9267C36.4449 78.6036 36.079 78.3276 35.68 78.1067C35.6039 78.063 35.5198 78.0346 35.4327 78.0233C35.3456 78.012 35.2571 78.018 35.1723 78.0409C35.0875 78.0638 35.008 78.1032 34.9384 78.1568C34.8688 78.2104 34.8105 78.2772 34.7667 78.3534C34.7229 78.4296 34.6946 78.5136 34.6833 78.6007C34.672 78.6878 34.678 78.7763 34.7009 78.8611C34.7238 78.946 34.7632 79.0254 34.8168 79.095C34.8704 79.1646 34.9372 79.223 35.0134 79.2667C35.3036 79.4302 35.5704 79.632 35.8067 79.8667C36.0498 80.1014 36.2565 80.3711 36.42 80.6667C36.4636 80.7431 36.5218 80.8101 36.5914 80.8639C36.661 80.9177 36.7405 80.9572 36.8254 80.9801C36.9103 81.0031 36.9989 81.009 37.0861 80.9975C37.1732 80.9861 37.2573 80.9575 37.3334 80.9134C37.4098 80.8698 37.4768 80.8116 37.5306 80.742C37.5844 80.6725 37.6239 80.593 37.6468 80.5081C37.6697 80.4232 37.6756 80.3346 37.6642 80.2474C37.6527 80.1602 37.6241 80.0761 37.5801 80.0001C37.3582 79.6075 37.0846 79.2465 36.7667 78.9267Z" fill="#111111"/>
<path d="M40.0001 79.4601C39.7503 78.6541 39.3035 77.9231 38.7001 77.3334C38.1027 76.7156 37.3601 76.2572 36.5401 76.0001C36.3632 75.9497 36.1737 75.9716 36.013 76.061C35.8523 76.1504 35.7338 76.2999 35.6834 76.4767C35.633 76.6535 35.6549 76.8431 35.7443 77.0038C35.8337 77.1644 35.9832 77.283 36.1601 77.3334C36.7621 77.508 37.3117 77.8286 37.7601 78.2667C38.1861 78.7119 38.4973 79.2542 38.6667 79.8467C38.7189 80.0155 38.8361 80.1567 38.9923 80.2392C39.1486 80.3217 39.3312 80.3388 39.5001 80.2867C39.5883 80.2673 39.6717 80.2302 39.7451 80.1776C39.8186 80.1249 39.8806 80.0579 39.9274 79.9806C39.9741 79.9033 40.0047 79.8173 40.0172 79.7278C40.0297 79.6383 40.0238 79.5472 40.0001 79.4601Z" fill="#111111"/>
<path d="M33.0002 90.6667H31.0002C30.9118 90.6667 30.8271 90.6948 30.7645 90.7448C30.702 90.7948 30.6669 90.8627 30.6669 90.9334C30.6669 91.2163 30.8074 91.4876 31.0574 91.6876C31.3075 91.8877 31.6466 92.0001 32.0002 92.0001C32.3539 92.0001 32.693 91.8877 32.9431 91.6876C33.1931 91.4876 33.3336 91.2163 33.3336 90.9334C33.3336 90.8627 33.2985 90.7948 33.2359 90.7448C33.1734 90.6948 33.0886 90.6667 33.0002 90.6667Z" fill="#111111"/>
<path d="M36.3334 85.1001V84.6667C36.3334 82.3401 34.9467 80.3467 33.0001 79.8201V79.0001C33.0001 78.7348 32.8947 78.4805 32.7072 78.293C32.5196 78.1054 32.2653 78.0001 32.0001 78.0001C31.7348 78.0001 31.4805 78.1054 31.2929 78.293C31.1054 78.4805 31.0001 78.7348 31.0001 79.0001V79.8201C29.0534 80.3467 27.6667 82.3401 27.6667 84.6667V85.1001C27.6643 86.5186 27.3335 87.9174 26.7001 89.1867C26.6738 89.236 26.6601 89.2909 26.6601 89.3467C26.6601 89.4025 26.6738 89.4575 26.7001 89.5067C26.7309 89.555 26.7732 89.5949 26.8232 89.6228C26.8733 89.6507 26.9294 89.6658 26.9867 89.6667H36.9867C37.044 89.6658 37.1002 89.6507 37.1502 89.6228C37.2002 89.5949 37.2425 89.555 37.2734 89.5067C37.2996 89.4575 37.3134 89.4025 37.3134 89.3467C37.3134 89.2909 37.2996 89.236 37.2734 89.1867C36.6492 87.9152 36.3275 86.5165 36.3334 85.1001Z" fill="#111111"/>
</g>
</g>
<g id="Size=20px, Filled=true" clip-path="url(#clip3_1110_1326)">
<g id="Vector_10">
<path d="M55.75 80.25C55.8968 80.2506 56.0412 80.2123 56.1685 80.1392C56.2959 80.066 56.4016 79.9605 56.475 79.8333C56.675 79.4678 56.9277 79.1336 57.225 78.8416C57.5204 78.5482 57.8539 78.296 58.2167 78.0916C58.3119 78.0369 58.3954 77.964 58.4624 77.877C58.5294 77.79 58.5787 77.6907 58.6073 77.5847C58.6359 77.4787 58.6434 77.368 58.6293 77.2591C58.6151 77.1502 58.5797 77.0452 58.525 76.95C58.4703 76.8548 58.3973 76.7713 58.3104 76.7043C58.2234 76.6372 58.124 76.588 58.018 76.5594C57.912 76.5307 57.8014 76.5233 57.6925 76.5374C57.5836 76.5515 57.4785 76.5869 57.3833 76.6416C56.8943 76.9144 56.4456 77.2537 56.05 77.65C55.6493 78.052 55.3046 78.506 55.025 79C54.9699 79.0951 54.9342 79.2002 54.9198 79.3091C54.9055 79.4181 54.9129 79.5289 54.9416 79.635C54.9702 79.7411 55.0196 79.8405 55.0868 79.9275C55.1541 80.0144 55.2378 80.0872 55.3333 80.1416C55.4603 80.2136 55.604 80.251 55.75 80.25Z" fill="#111111"/>
<path d="M57.3583 74.5916C57.3304 74.4843 57.2813 74.3837 57.2139 74.2956C57.1465 74.2075 57.0623 74.1337 56.966 74.0786C56.8698 74.0235 56.7635 73.9882 56.6534 73.9747C56.5434 73.9612 56.4317 73.9698 56.325 74C55.3149 74.3276 54.4016 74.9002 53.6667 75.6666C52.8972 76.3992 52.3241 77.3133 52 78.325C51.9698 78.4317 51.9612 78.5433 51.9747 78.6534C51.9882 78.7635 52.0236 78.8698 52.0787 78.966C52.1338 79.0622 52.2075 79.1465 52.2956 79.2139C52.3837 79.2812 52.4844 79.3303 52.5917 79.3583C52.6697 79.384 52.7512 79.3981 52.8333 79.4C53.0182 79.4079 53.2005 79.354 53.3514 79.2469C53.5022 79.1398 53.6132 78.9855 53.6667 78.8083C53.8831 78.0525 54.284 77.3624 54.8333 76.8C55.3879 76.2691 56.0626 75.8802 56.8 75.6666C56.909 75.6355 57.0106 75.5825 57.0984 75.5107C57.1862 75.439 57.2585 75.3501 57.3108 75.2494C57.363 75.1488 57.3942 75.0386 57.4024 74.9254C57.4106 74.8123 57.3956 74.6988 57.3583 74.5916Z" fill="#111111"/>
<path d="M67.9583 77.6583C67.556 77.2544 67.0987 76.9094 66.6 76.6333C66.5048 76.5786 66.3997 76.5432 66.2908 76.5291C66.1819 76.5149 66.0713 76.5224 65.9653 76.551C65.8593 76.5797 65.76 76.6289 65.673 76.6959C65.586 76.7629 65.5131 76.8464 65.4583 76.9416C65.4036 77.0369 65.3682 77.1419 65.3541 77.2508C65.34 77.3597 65.3474 77.4703 65.3761 77.5763C65.4047 77.6824 65.4539 77.7817 65.5209 77.8687C65.588 77.9557 65.6715 78.0286 65.7667 78.0833C66.1294 78.2876 66.463 78.5399 66.7583 78.8333C67.0622 79.1267 67.3206 79.4637 67.525 79.8333C67.5794 79.9288 67.6522 80.0126 67.7392 80.0798C67.8261 80.1471 67.9255 80.1964 68.0317 80.2251C68.1378 80.2537 68.2485 80.2611 68.3575 80.2468C68.4665 80.2325 68.5716 80.1967 68.6667 80.1416C68.7622 80.0872 68.8459 80.0144 68.9132 79.9275C68.9804 79.8405 69.0298 79.7411 69.0584 79.635C69.0871 79.5289 69.0945 79.4181 69.0802 79.3091C69.0658 79.2002 69.0301 79.0951 68.975 79C68.6977 78.5093 68.3557 78.058 67.9583 77.6583Z" fill="#111111"/>
<path d="M72 78.325C71.6878 77.3175 71.1293 76.4038 70.375 75.6666C69.6283 74.8944 68.7 74.3214 67.675 74C67.454 73.937 67.217 73.9644 67.0162 74.0761C66.8154 74.1879 66.6672 74.3748 66.6042 74.5958C66.5412 74.8168 66.5686 75.0538 66.6803 75.2546C66.792 75.4555 66.979 75.6037 67.2 75.6666C67.9526 75.8849 68.6396 76.2857 69.2 76.8333C69.7326 77.3898 70.1216 78.0677 70.3333 78.8083C70.3986 79.0193 70.545 79.1958 70.7403 79.2989C70.9357 79.402 71.1639 79.4234 71.375 79.3583C71.4853 79.3341 71.5895 79.2876 71.6814 79.2219C71.7732 79.1561 71.8507 79.0723 71.9091 78.9757C71.9676 78.8791 72.0058 78.7715 72.0214 78.6597C72.037 78.5478 72.0297 78.4339 72 78.325Z" fill="#111111"/>
<path d="M63.2502 92.3333H60.7502C60.6397 92.3333 60.5338 92.3684 60.4556 92.4309C60.3775 92.4935 60.3336 92.5782 60.3336 92.6666C60.3336 93.0203 60.5092 93.3594 60.8217 93.6095C61.1343 93.8595 61.5582 94 62.0002 94C62.4423 94 62.8662 93.8595 63.1788 93.6095C63.4913 93.3594 63.6669 93.0203 63.6669 92.6666C63.6669 92.5782 63.623 92.4935 63.5449 92.4309C63.4667 92.3684 63.3608 92.3333 63.2502 92.3333Z" fill="#111111"/>
<path d="M67.4167 85.375V84.8333C67.4167 81.925 65.6833 79.4333 63.25 78.775V77.75C63.25 77.4185 63.1183 77.1005 62.8839 76.8661C62.6495 76.6317 62.3315 76.5 62 76.5C61.6685 76.5 61.3505 76.6317 61.1161 76.8661C60.8817 77.1005 60.75 77.4185 60.75 77.75V78.775C58.3167 79.4333 56.5833 81.925 56.5833 84.8333V85.375C56.5804 87.1482 56.1668 88.8967 55.375 90.4833C55.3422 90.5449 55.325 90.6136 55.325 90.6833C55.325 90.7531 55.3422 90.8218 55.375 90.8833C55.4136 90.9437 55.4665 90.9935 55.529 91.0284C55.5915 91.0633 55.6617 91.0822 55.7333 91.0833H68.2333C68.3049 91.0822 68.3751 91.0633 68.4377 91.0284C68.5002 90.9935 68.5531 90.9437 68.5917 90.8833C68.6245 90.8218 68.6417 90.7531 68.6417 90.6833C68.6417 90.6136 68.6245 90.5449 68.5917 90.4833C67.8114 88.8939 67.4093 87.1456 67.4167 85.375Z" fill="#111111"/>
</g>
</g>
<g id="Size=24px, Filled=true" clip-path="url(#clip4_1110_1326)">
<g id="Vector_11">
<path d="M88.5 79.5C88.6762 79.5007 88.8494 79.4549 89.0022 79.367C89.155 79.2792 89.2818 79.1526 89.37 79C89.61 78.5614 89.9132 78.1604 90.27 77.81C90.6244 77.4579 91.0247 77.1552 91.46 76.91C91.5742 76.8444 91.6744 76.7568 91.7548 76.6525C91.8353 76.5481 91.8943 76.4289 91.9287 76.3017C91.963 76.1744 91.972 76.0417 91.9551 75.911C91.9381 75.7803 91.8956 75.6543 91.83 75.54C91.7643 75.4258 91.6768 75.3256 91.5724 75.2452C91.468 75.1647 91.3488 75.1056 91.2216 75.0713C91.0944 75.0369 90.9616 75.028 90.8309 75.0449C90.7003 75.0619 90.5742 75.1044 90.46 75.17C89.8731 75.4973 89.3346 75.9045 88.86 76.38C88.3791 76.8624 87.9654 77.4073 87.63 78C87.5638 78.1142 87.5209 78.2402 87.5038 78.371C87.4866 78.5018 87.4954 78.6347 87.5298 78.762C87.5642 78.8894 87.6235 79.0086 87.7042 79.113C87.7848 79.2173 87.8854 79.3047 88 79.37C88.1524 79.4564 88.3248 79.5012 88.5 79.5Z" fill="#111111"/>
<path d="M90.43 72.71C90.3964 72.5813 90.3375 72.4605 90.2566 72.3548C90.1758 72.2491 90.0747 72.1605 89.9592 72.0944C89.8437 72.0283 89.7162 71.9859 89.5841 71.9697C89.452 71.9535 89.318 71.9638 89.19 72C87.9779 72.3932 86.8819 73.0803 86 74C85.0766 74.8791 84.3889 75.976 84 77.19C83.9637 77.3181 83.9534 77.4521 83.9696 77.5842C83.9858 77.7162 84.0282 77.8438 84.0943 77.9592C84.1605 78.0747 84.249 78.1759 84.3547 78.2567C84.4604 78.3375 84.5812 78.3965 84.71 78.43C84.8036 78.4609 84.9013 78.4778 85 78.48C85.2218 78.4895 85.4405 78.4249 85.6216 78.2963C85.8026 78.1678 85.9358 77.9826 86 77.77C86.2596 76.8631 86.7407 76.0349 87.4 75.36C88.0654 74.723 88.8751 74.2563 89.76 74C89.8908 73.9627 90.0127 73.899 90.118 73.8129C90.2234 73.7268 90.3101 73.6201 90.3729 73.4994C90.4356 73.3786 90.473 73.2463 90.4828 73.1106C90.4926 72.9749 90.4746 72.8386 90.43 72.71Z" fill="#111111"/>
<path d="M103.15 76.39C102.667 75.9054 102.118 75.4913 101.52 75.16C101.406 75.0944 101.28 75.0519 101.149 75.0349C101.018 75.018 100.886 75.0269 100.758 75.0613C100.631 75.0956 100.512 75.1547 100.408 75.2352C100.303 75.3156 100.216 75.4158 100.15 75.53C100.084 75.6443 100.042 75.7703 100.025 75.901C100.008 76.0317 100.017 76.1644 100.051 76.2917C100.086 76.4189 100.145 76.5381 100.225 76.6425C100.306 76.7468 100.406 76.8344 100.52 76.9C100.955 77.1452 101.356 77.4479 101.71 77.8C102.075 78.1521 102.385 78.5565 102.63 79C102.695 79.1146 102.783 79.2151 102.887 79.2958C102.991 79.3765 103.111 79.4358 103.238 79.4701C103.365 79.5045 103.498 79.5134 103.629 79.4962C103.76 79.479 103.886 79.4361 104 79.37C104.115 79.3047 104.215 79.2173 104.296 79.113C104.376 79.0086 104.436 78.8894 104.47 78.762C104.504 78.6347 104.513 78.5018 104.496 78.371C104.479 78.2402 104.436 78.1142 104.37 78C104.037 77.4112 103.627 76.8697 103.15 76.39Z" fill="#111111"/>
<path d="M108 77.19C107.625 75.9811 106.955 74.8847 106.05 74C105.154 73.0733 104.04 72.3857 102.81 72C102.545 71.9244 102.26 71.9573 102.019 72.0914C101.778 72.2255 101.601 72.4498 101.525 72.715C101.449 72.9802 101.482 73.2646 101.616 73.5056C101.75 73.7466 101.975 73.9244 102.24 74C103.143 74.262 103.967 74.7429 104.64 75.4C105.279 76.0678 105.746 76.8813 106 77.77C106.078 78.0232 106.254 78.235 106.488 78.3587C106.723 78.4825 106.997 78.5081 107.25 78.43C107.382 78.4009 107.507 78.3452 107.618 78.2663C107.728 78.1874 107.821 78.0869 107.891 77.9709C107.961 77.8549 108.007 77.7259 108.026 77.5917C108.044 77.4574 108.036 77.3208 108 77.19Z" fill="#111111"/>
<path d="M97.5002 94H94.5002C94.3676 94 94.2405 94.0422 94.1467 94.1172C94.0529 94.1922 94.0002 94.2939 94.0002 94.4C94.0002 94.8244 94.211 95.2313 94.586 95.5314C94.9611 95.8315 95.4698 96 96.0002 96C96.5307 96 97.0394 95.8315 97.4145 95.5314C97.7895 95.2313 98.0002 94.8244 98.0002 94.4C98.0002 94.2939 97.9476 94.1922 97.8538 94.1172C97.76 94.0422 97.6329 94 97.5002 94Z" fill="#111111"/>
<path d="M102.5 85.65V85C102.5 81.51 100.42 78.52 97.5 77.73V76.5C97.5 76.1022 97.3419 75.7207 97.0606 75.4394C96.7793 75.1581 96.3978 75 96 75C95.6021 75 95.2206 75.1581 94.9393 75.4394C94.658 75.7207 94.5 76.1022 94.5 76.5V77.73C91.58 78.52 89.5 81.51 89.5 85V85.65C89.4964 87.7779 89.0001 89.8761 88.05 91.78C88.0106 91.8539 87.99 91.9363 87.99 92.02C87.99 92.1037 88.0106 92.1862 88.05 92.26C88.0962 92.3324 88.1597 92.3923 88.2347 92.4342C88.3098 92.476 88.394 92.4987 88.48 92.5H103.48C103.566 92.4987 103.65 92.476 103.725 92.4342C103.8 92.3923 103.864 92.3324 103.91 92.26C103.949 92.1862 103.97 92.1037 103.97 92.02C103.97 91.9363 103.949 91.8539 103.91 91.78C102.974 89.8727 102.491 87.7747 102.5 85.65Z" fill="#111111"/>
</g>
</g>
<g id="Size=32px, Filled=true" clip-path="url(#clip5_1110_1326)">
<g id="Vector_12">
<path d="M126 78C126.235 78.0009 126.466 77.9398 126.67 77.8227C126.873 77.7056 127.043 77.5368 127.16 77.3333C127.48 76.7485 127.884 76.2139 128.36 75.7467C128.833 75.2772 129.366 74.8736 129.947 74.5467C130.099 74.4591 130.233 74.3424 130.34 74.2032C130.447 74.0641 130.526 73.9051 130.572 73.7355C130.618 73.5659 130.63 73.3889 130.607 73.2147C130.584 73.0404 130.528 72.8723 130.44 72.72C130.353 72.5677 130.236 72.4341 130.097 72.3268C129.957 72.2196 129.799 72.1408 129.629 72.095C129.459 72.0492 129.282 72.0373 129.108 72.0598C128.934 72.0824 128.766 72.1391 128.613 72.2267C127.831 72.663 127.113 73.206 126.48 73.84C125.839 74.4832 125.287 75.2097 124.84 76C124.752 76.1522 124.695 76.3203 124.672 76.4947C124.649 76.669 124.661 76.8462 124.707 77.016C124.752 77.1858 124.831 77.3448 124.939 77.484C125.047 77.6231 125.181 77.7396 125.333 77.8267C125.537 77.9418 125.767 78.0016 126 78Z" fill="#111111"/>
<path d="M128.573 68.9467C128.529 68.775 128.45 68.6139 128.342 68.473C128.235 68.332 128.1 68.214 127.946 68.1259C127.792 68.0377 127.622 67.9811 127.446 67.9595C127.269 67.9379 127.091 67.9517 126.92 68C125.304 68.5242 123.843 69.4404 122.667 70.6667C121.436 71.8387 120.519 73.3012 120 74.92C119.952 75.0907 119.938 75.2694 119.96 75.4455C119.981 75.6216 120.038 75.7916 120.126 75.9456C120.214 76.0996 120.332 76.2344 120.473 76.3422C120.614 76.45 120.775 76.5286 120.947 76.5733C121.072 76.6145 121.202 76.637 121.333 76.64C121.629 76.6526 121.921 76.5665 122.162 76.3951C122.404 76.2236 122.581 75.9768 122.667 75.6933C123.013 74.484 123.654 73.3798 124.533 72.48C125.421 71.6306 126.5 71.0084 127.68 70.6667C127.855 70.6169 128.017 70.532 128.158 70.4172C128.298 70.3024 128.414 70.1601 128.497 69.9991C128.581 69.8381 128.631 69.6617 128.644 69.4807C128.657 69.2998 128.633 69.118 128.573 68.9467Z" fill="#111111"/>
<path d="M145.533 73.8533C144.89 73.2071 144.158 72.655 143.36 72.2133C143.208 72.1258 143.04 72.0691 142.865 72.0465C142.691 72.0239 142.514 72.0359 142.345 72.0817C142.175 72.1275 142.016 72.2063 141.877 72.3135C141.738 72.4207 141.621 72.5543 141.533 72.7067C141.446 72.859 141.389 73.0271 141.367 73.2013C141.344 73.3756 141.356 73.5525 141.402 73.7222C141.448 73.8918 141.526 74.0507 141.634 74.1899C141.741 74.3291 141.874 74.4458 142.027 74.5333C142.607 74.8602 143.141 75.2639 143.613 75.7333C144.1 76.2027 144.513 76.742 144.84 77.3333C144.927 77.4861 145.044 77.6202 145.183 77.7277C145.322 77.8353 145.481 77.9143 145.651 77.9602C145.821 78.006 145.998 78.0178 146.172 77.9949C146.346 77.972 146.515 77.9148 146.667 77.8267C146.82 77.7396 146.954 77.6231 147.061 77.484C147.169 77.3448 147.248 77.1858 147.294 77.016C147.339 76.8462 147.351 76.669 147.328 76.4947C147.305 76.3203 147.248 76.1522 147.16 76C146.716 75.2149 146.169 74.4929 145.533 73.8533Z" fill="#111111"/>
<path d="M152 74.92C151.501 73.3081 150.607 71.8462 149.4 70.6667C148.205 69.431 146.72 68.5143 145.08 68C144.726 67.8992 144.347 67.943 144.026 68.1218C143.705 68.3006 143.468 68.5997 143.367 68.9533C143.266 69.307 143.31 69.6861 143.489 70.0074C143.667 70.3287 143.966 70.5659 144.32 70.6667C145.524 71.0159 146.623 71.6571 147.52 72.5333C148.372 73.4237 148.995 74.5083 149.333 75.6933C149.438 76.0309 149.672 76.3133 149.985 76.4783C150.297 76.6433 150.662 76.6775 151 76.5733C151.177 76.5345 151.343 76.4603 151.49 76.355C151.637 76.2498 151.761 76.1158 151.855 75.9611C151.948 75.8065 152.009 75.6345 152.034 75.4555C152.059 75.2765 152.048 75.0943 152 74.92Z" fill="#111111"/>
<path d="M138 97.3333H134C133.824 97.3333 133.654 97.3895 133.529 97.4895C133.404 97.5896 133.334 97.7252 133.334 97.8667C133.334 98.4325 133.615 98.9751 134.115 99.3752C134.615 99.7752 135.293 100 136 100C136.708 100 137.386 99.7752 137.886 99.3752C138.386 98.9751 138.667 98.4325 138.667 97.8667C138.667 97.7252 138.597 97.5896 138.472 97.4895C138.347 97.3895 138.177 97.3333 138 97.3333Z" fill="#111111"/>
<path d="M144.667 86.2V85.3333C144.667 80.68 141.893 76.6933 138 75.64V74C138 73.4696 137.789 72.9609 137.414 72.5858C137.039 72.2107 136.531 72 136 72C135.47 72 134.961 72.2107 134.586 72.5858C134.211 72.9609 134 73.4696 134 74V75.64C130.107 76.6933 127.333 80.68 127.333 85.3333V86.2C127.329 89.0372 126.667 91.8347 125.4 94.3733C125.348 94.4718 125.32 94.5817 125.32 94.6933C125.32 94.8049 125.348 94.9148 125.4 95.0133C125.462 95.1099 125.546 95.1897 125.646 95.2455C125.747 95.3013 125.859 95.3315 125.973 95.3333H145.973C146.088 95.3315 146.2 95.3013 146.3 95.2455C146.4 95.1897 146.485 95.1099 146.547 95.0133C146.599 94.9148 146.627 94.8049 146.627 94.6933C146.627 94.5817 146.599 94.4718 146.547 94.3733C145.298 91.8303 144.655 89.0329 144.667 86.2Z" fill="#111111"/>
</g>
</g>
<g id="Size=40px, Filled=true" clip-path="url(#clip6_1110_1326)">
<g id="Vector_13">
<path d="M171.5 76.5C171.794 76.5011 172.082 76.4247 172.337 76.2783C172.592 76.132 172.803 75.921 172.95 75.6666C173.35 74.9356 173.855 74.2673 174.45 73.6833C175.041 73.0965 175.708 72.5919 176.433 72.1833C176.624 72.0739 176.791 71.928 176.925 71.754C177.059 71.58 177.157 71.3814 177.215 71.1693C177.272 70.9573 177.287 70.7361 177.259 70.5183C177.23 70.3005 177.159 70.0904 177.05 69.9C176.941 69.7095 176.795 69.5425 176.621 69.4085C176.447 69.2745 176.248 69.176 176.036 69.1187C175.824 69.0615 175.603 69.0465 175.385 69.0748C175.167 69.103 174.957 69.1739 174.767 69.2833C173.789 69.8287 172.891 70.5074 172.1 71.3C171.299 72.1039 170.609 73.0121 170.05 74C169.94 74.1902 169.868 74.4003 169.84 74.6183C169.811 74.8363 169.826 75.0577 169.883 75.27C169.94 75.4822 170.039 75.681 170.174 75.8549C170.308 76.0288 170.476 76.1744 170.667 76.2833C170.921 76.4273 171.208 76.502 171.5 76.5Z" fill="#111111"/>
<path d="M174.717 65.1833C174.661 64.9687 174.563 64.7674 174.428 64.5912C174.293 64.415 174.125 64.2675 173.932 64.1573C173.74 64.0471 173.527 63.9764 173.307 63.9494C173.087 63.9224 172.863 63.9396 172.65 64C170.63 64.6553 168.803 65.8004 167.333 67.3333C165.794 68.7983 164.648 70.6265 164 72.65C163.94 72.8634 163.922 73.0867 163.949 73.3068C163.976 73.527 164.047 73.7395 164.157 73.932C164.268 74.1245 164.415 74.293 164.591 74.4277C164.767 74.5625 164.969 74.6607 165.183 74.7166C165.339 74.7681 165.502 74.7962 165.667 74.8C166.036 74.8158 166.401 74.708 166.703 74.4938C167.004 74.2795 167.226 73.9709 167.333 73.6166C167.766 72.105 168.568 70.7247 169.667 69.6C170.776 68.5382 172.125 67.7605 173.6 67.3333C173.818 67.271 174.021 67.1649 174.197 67.0214C174.372 66.878 174.517 66.7001 174.622 66.4989C174.726 66.2976 174.788 66.0771 174.805 65.8509C174.821 65.6247 174.791 65.3975 174.717 65.1833Z" fill="#111111"/>
<path d="M195.917 71.3166C195.112 70.5089 194.197 69.8188 193.2 69.2666C193.01 69.1572 192.799 69.0863 192.582 69.0581C192.364 69.0299 192.143 69.0448 191.931 69.1021C191.719 69.1593 191.52 69.2578 191.346 69.3918C191.172 69.5259 191.026 69.6929 190.917 69.8833C190.807 70.0737 190.736 70.2838 190.708 70.5016C190.68 70.7194 190.695 70.9407 190.752 71.1527C190.809 71.3647 190.908 71.5634 191.042 71.7374C191.176 71.9113 191.343 72.0572 191.533 72.1666C192.259 72.5753 192.926 73.0798 193.517 73.6666C194.124 74.2534 194.641 74.9275 195.05 75.6666C195.159 75.8576 195.304 76.0252 195.478 76.1596C195.652 76.2941 195.851 76.3928 196.063 76.4502C196.276 76.5075 196.497 76.5222 196.715 76.4936C196.933 76.465 197.143 76.3935 197.333 76.2833C197.524 76.1744 197.692 76.0288 197.826 75.8549C197.961 75.681 198.06 75.4822 198.117 75.27C198.174 75.0577 198.189 74.8363 198.16 74.6183C198.132 74.4003 198.06 74.1902 197.95 74C197.395 73.0186 196.711 72.1161 195.917 71.3166Z" fill="#111111"/>
<path d="M204 72.65C203.376 70.6351 202.259 68.8077 200.75 67.3333C199.257 65.7888 197.4 64.6428 195.35 64C194.908 63.874 194.434 63.9288 194.032 64.1522C193.631 64.3757 193.334 64.7496 193.208 65.1916C193.082 65.6337 193.137 66.1076 193.361 66.5093C193.584 66.9109 193.958 67.2073 194.4 67.3333C195.905 67.7699 197.279 68.5714 198.4 69.6666C199.465 70.7796 200.243 72.1354 200.667 73.6166C200.797 74.0386 201.09 74.3916 201.481 74.5978C201.871 74.8041 202.328 74.8468 202.75 74.7166C202.971 74.6681 203.179 74.5753 203.363 74.4437C203.546 74.3122 203.701 74.1447 203.818 73.9514C203.935 73.7581 204.012 73.5431 204.043 73.3193C204.074 73.0956 204.059 72.8679 204 72.65Z" fill="#111111"/>
<path d="M186.5 100.667H181.5C181.279 100.667 181.068 100.737 180.911 100.862C180.755 100.987 180.667 101.156 180.667 101.333C180.667 102.041 181.018 102.719 181.643 103.219C182.269 103.719 183.116 104 184 104C184.885 104 185.732 103.719 186.358 103.219C186.983 102.719 187.334 102.041 187.334 101.333C187.334 101.156 187.246 100.987 187.09 100.862C186.933 100.737 186.722 100.667 186.5 100.667Z" fill="#111111"/>
<path d="M194.833 86.75V85.6666C194.833 79.85 191.367 74.8666 186.5 73.55V71.5C186.5 70.8369 186.237 70.201 185.768 69.7322C185.299 69.2634 184.663 69 184 69C183.337 69 182.701 69.2634 182.232 69.7322C181.763 70.201 181.5 70.8369 181.5 71.5V73.55C176.633 74.8666 173.167 79.85 173.167 85.6666V86.75C173.161 90.2964 172.334 93.7933 170.75 96.9666C170.684 97.0897 170.65 97.2271 170.65 97.3666C170.65 97.5061 170.684 97.6435 170.75 97.7666C170.827 97.8873 170.933 97.987 171.058 98.0568C171.183 98.1266 171.323 98.1644 171.467 98.1666H196.467C196.61 98.1644 196.75 98.1266 196.875 98.0568C197 97.987 197.106 97.8873 197.183 97.7666C197.249 97.6435 197.283 97.5061 197.283 97.3666C197.283 97.2271 197.249 97.0897 197.183 96.9666C195.623 93.7878 194.819 90.2911 194.833 86.75Z" fill="#111111"/>
</g>
</g>
<g id="Size=48px, Filled=true" clip-path="url(#clip7_1110_1326)">
<g id="Vector_14">
<path d="M225 75.0001C225.352 75.0015 225.699 74.9097 226.004 74.7341C226.31 74.5585 226.564 74.3053 226.74 74.0001C227.22 73.1228 227.826 72.3209 228.54 71.6201C229.249 70.9158 230.049 70.3104 230.92 69.8201C231.148 69.6887 231.349 69.5137 231.51 69.3049C231.671 69.0962 231.789 68.8577 231.857 68.6033C231.926 68.3489 231.944 68.0834 231.91 67.822C231.876 67.5607 231.791 67.3086 231.66 67.0801C231.529 66.8516 231.354 66.6512 231.145 66.4903C230.936 66.3295 230.698 66.2113 230.443 66.1426C230.189 66.0739 229.923 66.0559 229.662 66.0898C229.401 66.1237 229.148 66.2087 228.92 66.3401C227.746 66.9945 226.669 67.809 225.72 68.7601C224.758 69.7248 223.931 70.8146 223.26 72.0001C223.128 72.2283 223.042 72.4805 223.008 72.7421C222.973 73.0036 222.991 73.2694 223.06 73.5241C223.128 73.7787 223.247 74.0173 223.408 74.226C223.57 74.4347 223.771 74.6094 224 74.7401C224.305 74.9128 224.65 75.0025 225 75.0001Z" fill="#111111"/>
<path d="M228.86 61.4201C228.793 61.1625 228.675 60.9209 228.513 60.7095C228.352 60.4981 228.149 60.3211 227.918 60.1888C227.687 60.0566 227.432 59.9718 227.168 59.9394C226.904 59.9069 226.636 59.9276 226.38 60.0001C223.956 60.7864 221.764 62.1606 220 64.0001C218.153 65.7581 216.778 67.9519 216 70.3801C215.927 70.6361 215.907 70.9041 215.939 71.1683C215.972 71.4325 216.056 71.6875 216.189 71.9185C216.321 72.1495 216.498 72.3517 216.709 72.5134C216.921 72.6751 217.162 72.7929 217.42 72.8601C217.607 72.9218 217.803 72.9555 218 72.9601C218.444 72.979 218.881 72.8498 219.243 72.5926C219.605 72.3355 219.872 71.9652 220 71.5401C220.519 69.7261 221.481 68.0698 222.8 66.7201C224.131 65.4459 225.75 64.5127 227.52 64.0001C227.782 63.9253 228.025 63.798 228.236 63.6258C228.447 63.4536 228.62 63.2403 228.746 62.9987C228.871 62.7572 228.946 62.4926 228.966 62.2212C228.985 61.9497 228.949 61.6771 228.86 61.4201Z" fill="#111111"/>
<path d="M254.3 68.7801C253.334 67.8108 252.237 66.9826 251.04 66.3201C250.811 66.1887 250.559 66.1037 250.298 66.0698C250.037 66.0359 249.771 66.0539 249.517 66.1226C249.262 66.1913 249.024 66.3095 248.815 66.4703C248.606 66.6312 248.431 66.8316 248.3 67.0601C248.169 67.2886 248.084 67.5407 248.05 67.802C248.016 68.0634 248.034 68.3289 248.102 68.5833C248.171 68.8377 248.289 69.0762 248.45 69.2849C248.611 69.4937 248.811 69.6687 249.04 69.8001C249.911 70.2904 250.711 70.8959 251.42 71.6001C252.149 72.3042 252.769 73.1131 253.26 74.0001C253.391 74.2292 253.565 74.4303 253.774 74.5917C253.983 74.753 254.221 74.8715 254.476 74.9403C254.731 75.0091 254.996 75.0268 255.258 74.9924C255.519 74.9581 255.772 74.8723 256 74.7401C256.229 74.6094 256.43 74.4347 256.592 74.226C256.753 74.0173 256.871 73.7787 256.94 73.5241C257.009 73.2694 257.027 73.0036 256.992 72.7421C256.958 72.4805 256.872 72.2283 256.74 72.0001C256.074 70.8224 255.254 69.7394 254.3 68.7801Z" fill="#111111"/>
<path d="M264 70.3801C263.251 67.9622 261.91 65.7693 260.1 64.0001C258.308 62.1466 256.08 60.7715 253.62 60.0001C253.089 59.8489 252.521 59.9146 252.039 60.1828C251.557 60.451 251.201 60.8996 251.05 61.4301C250.899 61.9605 250.964 62.5292 251.233 63.0112C251.501 63.4932 251.949 63.8489 252.48 64.0001C254.286 64.5239 255.935 65.4857 257.28 66.8001C258.558 68.1357 259.492 69.7626 260 71.5401C260.157 72.0465 260.508 72.47 260.977 72.7175C261.445 72.965 261.993 73.0163 262.5 72.8601C262.765 72.8019 263.015 72.6904 263.235 72.5326C263.456 72.3747 263.642 72.1737 263.782 71.9418C263.922 71.7098 264.014 71.4518 264.051 71.1833C264.089 70.9148 264.071 70.6416 264 70.3801Z" fill="#111111"/>
<path d="M243 104H237C236.735 104 236.481 104.084 236.293 104.234C236.106 104.384 236 104.588 236 104.8C236 105.649 236.422 106.463 237.172 107.063C237.922 107.663 238.94 108 240 108C241.061 108 242.079 107.663 242.829 107.063C243.579 106.463 244 105.649 244 104.8C244 104.588 243.895 104.384 243.708 104.234C243.52 104.084 243.266 104 243 104Z" fill="#111111"/>
<path d="M253 87.3001V86.0001C253 79.0201 248.84 73.0401 243 71.4601V69.0001C243 68.2044 242.684 67.4413 242.121 66.8787C241.559 66.3161 240.796 66.0001 240 66.0001C239.204 66.0001 238.441 66.3161 237.879 66.8787C237.316 67.4413 237 68.2044 237 69.0001V71.4601C231.16 73.0401 227 79.0201 227 86.0001V87.3001C226.993 91.5558 226 95.7521 224.1 99.5601C224.021 99.7078 223.98 99.8726 223.98 100.04C223.98 100.207 224.021 100.372 224.1 100.52C224.192 100.665 224.319 100.785 224.469 100.868C224.62 100.952 224.788 100.997 224.96 101H254.96C255.132 100.997 255.3 100.952 255.45 100.868C255.6 100.785 255.727 100.665 255.82 100.52C255.899 100.372 255.94 100.207 255.94 100.04C255.94 99.8726 255.899 99.7078 255.82 99.5601C253.947 95.7454 252.982 91.5495 253 87.3001Z" fill="#111111"/>
</g>
</g>
</g>
</g>
<defs>
<clipPath id="clip0_1110_1326">
<rect width="264" height="108" rx="5" fill="white"/>
</clipPath>
<clipPath id="clip1_1110_1326">
<rect width="12" height="12" fill="white" transform="translate(0 78)"/>
</clipPath>
<clipPath id="clip2_1110_1326">
<rect width="16" height="16" fill="white" transform="translate(24 76)"/>
</clipPath>
<clipPath id="clip3_1110_1326">
<rect width="20" height="20" fill="white" transform="translate(52 74)"/>
</clipPath>
<clipPath id="clip4_1110_1326">
<rect width="24" height="24" fill="white" transform="translate(84 72)"/>
</clipPath>
<clipPath id="clip5_1110_1326">
<rect width="32" height="32" fill="white" transform="translate(120 68)"/>
</clipPath>
<clipPath id="clip6_1110_1326">
<rect width="40" height="40" fill="white" transform="translate(164 64)"/>
</clipPath>
<clipPath id="clip7_1110_1326">
<rect width="48" height="48" fill="white" transform="translate(216 60)"/>
</clipPath>
</defs>
</svg>
