<svg width="268" height="108" viewBox="0 0 268 108" fill="none" xmlns="http://www.w3.org/2000/svg">
<g id="Paste">
<g id="Size=12px, Filled=false">
<path id="Vector" d="M9.75 21.75V20.75C9.75 20.4739 9.56684 20.25 9.34091 20.25H8.25M3.15 20.25H1.95C1.70147 20.25 1.5 20.56 1.5 20.9423V28.5577C1.5 28.94 1.70147 29.25 1.95 29.25H3.75M6.75 24.75H9.75M6.75 26.25H9.75M6.75 27.75H8.25M7.7002 20.7435C7.64603 20.8967 7.49429 20.9999 7.32337 21H3.92663C3.75571 20.9999 3.60397 20.8967 3.5498 20.7435L3.02055 19.2435C2.97997 19.1291 3.00021 19.0032 3.07492 18.9054C3.14964 18.8076 3.26967 18.7497 3.39738 18.75H7.85262C7.98033 18.7497 8.10036 18.8076 8.17508 18.9054C8.24979 19.0032 8.27003 19.1291 8.22945 19.2435L7.7002 20.7435ZM6.375 29.25H10.125C10.7463 29.25 11.25 28.7463 11.25 28.125V24.375C11.25 23.7537 10.7463 23.25 10.125 23.25H6.375C5.75368 23.25 5.25 23.7537 5.25 24.375V28.125C5.25 28.7463 5.75368 29.25 6.375 29.25Z" stroke="#111111" stroke-width="0.75" stroke-linecap="round" stroke-linejoin="round"/>
</g>
<g id="Size=16px, Filled=false">
<path id="Vector_2" d="M37 21V19.6667C37 19.2985 36.7558 19 36.4545 19H35M28.2 19H26.6C26.2686 19 26 19.4133 26 19.9231V30.0769C26 30.5867 26.2686 31 26.6 31H29M33 25H37M33 27H37M33 29H35M34.2669 19.658C34.1947 19.8622 33.9924 19.9999 33.7645 20H29.2355C29.0076 19.9999 28.8053 19.8622 28.7331 19.658L28.0274 17.658C27.9733 17.5055 28.0003 17.3377 28.0999 17.2072C28.1995 17.0767 28.3596 16.9996 28.5298 17H34.4702C34.6404 16.9996 34.8005 17.0767 34.9001 17.2072C34.9997 17.3377 35.0267 17.5055 34.9726 17.658L34.2669 19.658ZM32.5 31H37.5C38.3284 31 39 30.3284 39 29.5V24.5C39 23.6716 38.3284 23 37.5 23H32.5C31.6716 23 31 23.6716 31 24.5V29.5C31 30.3284 31.6716 31 32.5 31Z" stroke="#111111" stroke-linecap="round" stroke-linejoin="round"/>
</g>
<g id="Size=20px, Filled=false">
<path id="Vector_3" d="M68.25 20.25V18.5833C68.25 18.1231 67.9447 17.75 67.5682 17.75H65.75M57.25 17.75H55.25C54.8358 17.75 54.5 18.2666 54.5 18.9038V31.5962C54.5 32.2334 54.8358 32.75 55.25 32.75H58.25M63.25 25.25H68.25M63.25 27.75H68.25M63.25 30.25H65.75M64.8337 18.5725C64.7434 18.8278 64.4905 18.9999 64.2056 19H58.5444C58.2595 18.9999 58.0066 18.8278 57.9163 18.5725L57.0342 16.0725C56.9666 15.8818 57.0003 15.6721 57.1249 15.509C57.2494 15.3459 57.4495 15.2495 57.6623 15.25H65.0877C65.3005 15.2495 65.5006 15.3459 65.6251 15.509C65.7497 15.6721 65.7834 15.8818 65.7158 16.0725L64.8337 18.5725ZM62.625 32.75H68.875C69.9105 32.75 70.75 31.9105 70.75 30.875V24.625C70.75 23.5895 69.9105 22.75 68.875 22.75H62.625C61.5895 22.75 60.75 23.5895 60.75 24.625V30.875C60.75 31.9105 61.5895 32.75 62.625 32.75Z" stroke="#111111" stroke-width="1.25" stroke-linecap="round" stroke-linejoin="round"/>
</g>
<g id="Size=24px, Filled=false">
<path id="Vector_4" d="M104 21V17.6667C104 16.7462 103.512 16 102.909 16H100M90.4 16H87.2C86.5373 16 86 16.6544 86 17.4615V33.5385C86 34.3456 86.5373 35 87.2 35H92M98 27H103.333M98 29H103.333M98 31H100M98.9528 17.43C98.8496 17.7703 98.5606 17.9999 98.235 18H91.765C91.4394 17.9999 91.1504 17.7703 91.0472 17.43L90.0391 14.0967C89.9618 13.8425 90.0004 13.5628 90.1427 13.3453C90.285 13.1279 90.5137 12.9994 90.7569 13H99.2431C99.4863 12.9994 99.715 13.1279 99.8573 13.3453C99.9996 13.5628 100.038 13.8425 99.9609 14.0967L98.9528 17.43ZM97.5 35H104.5C105.328 35 106 34.3284 106 33.5V25.5C106 24.6716 105.328 24 104.5 24H97.5C96.6716 24 96 24.6716 96 25.5V33.5C96 34.3284 96.6716 35 97.5 35Z" stroke="#111111" stroke-width="1.5" stroke-linecap="round" stroke-linejoin="round"/>
</g>
<g id="Size=32px, Filled=false">
<path id="Vector_5" d="M146 18V15.3333C146 14.597 145.512 14 144.909 14H142M128.4 14H125.2C124.537 14 124 14.8266 124 15.8462V36.1538C124 37.1734 124.537 38 125.2 38H130M138 26H146M138 30H146M138 34H142M140.534 15.316C140.389 15.7244 139.985 15.9998 139.529 16H130.471C130.015 15.9998 129.611 15.7244 129.466 15.316L128.055 11.316C127.947 11.0109 128.001 10.6753 128.2 10.4144C128.399 10.1535 128.719 9.99922 129.06 10H140.94C141.281 9.99922 141.601 10.1535 141.8 10.4144C141.999 10.6753 142.053 11.0109 141.945 11.316L140.534 15.316ZM137 38H147C148.657 38 150 36.6569 150 35V25C150 23.3431 148.657 22 147 22H137C135.343 22 134 23.3431 134 25V35C134 36.6569 135.343 38 137 38Z" stroke="#111111" stroke-width="2" stroke-linecap="round" stroke-linejoin="round"/>
</g>
<g id="Size=40px, Filled=false">
<path id="Vector_6" d="M196.5 16.5V13.1667C196.5 12.2462 195.889 11.5 195.136 11.5H191.5M174.5 11.5H170.5C169.672 11.5 169 12.5332 169 13.8077V39.1923C169 40.4668 169.672 41.5 170.5 41.5H176.5M186.5 26.5H196.5M186.5 31.5H196.5M186.5 36.5H191.5M189.667 13.145C189.487 13.6555 188.981 13.9998 188.411 14H177.089C176.519 13.9998 176.013 13.6555 175.833 13.145L174.068 8.145C173.933 7.76369 174.001 7.34416 174.25 7.01801C174.499 6.69185 174.899 6.49903 175.325 6.5H190.175C190.601 6.49903 191.001 6.69185 191.25 7.01801C191.499 7.34416 191.567 7.76369 191.432 8.145L189.667 13.145ZM185.25 41.5H197.75C199.821 41.5 201.5 39.8211 201.5 37.75V25.25C201.5 23.1789 199.821 21.5 197.75 21.5H185.25C183.179 21.5 181.5 23.1789 181.5 25.25V37.75C181.5 39.8211 183.179 41.5 185.25 41.5Z" stroke="#111111" stroke-width="2.5" stroke-linecap="round" stroke-linejoin="round"/>
</g>
<g id="Size=48px, Filled=false">
<path id="Vector_7" d="M255 15V11C255 9.89543 254.267 9 253.364 9H249M228.6 9H223.8C222.806 9 222 10.2398 222 11.7692V42.2308C222 43.7602 222.806 45 223.8 45H231M243 27H255M243 33H255M243 39H249M246.801 10.974C246.584 11.5866 245.977 11.9998 245.293 12H231.707C231.023 11.9998 230.416 11.5866 230.199 10.974L228.082 4.974C227.92 4.51642 228.001 4.01299 228.3 3.62161C228.599 3.23023 229.079 2.99883 229.59 3H247.41C247.921 2.99883 248.401 3.23023 248.7 3.62161C248.999 4.01299 249.08 4.51642 248.918 4.974L246.801 10.974ZM241.5 45H256.5C258.985 45 261 42.9853 261 40.5V25.5C261 23.0147 258.985 21 256.5 21H241.5C239.015 21 237 23.0147 237 25.5V40.5C237 42.9853 239.015 45 241.5 45Z" stroke="#111111" stroke-width="3" stroke-linecap="round" stroke-linejoin="round"/>
</g>
<g id="Size=12px, Filled=true" clip-path="url(#clip0_1118_335)">
<g id="Vector_8">
<path d="M6.69978 80.3274C6.69684 80.3577 6.70554 80.388 6.7241 80.4121C6.74267 80.4363 6.76973 80.4524 6.79978 80.4574C6.92166 80.4884 7.02907 80.5606 7.1038 80.6617C7.17852 80.7629 7.21597 80.8868 7.20978 81.0124V81.7124C7.20978 81.7942 7.22598 81.8753 7.25745 81.9508C7.28892 82.0264 7.33503 82.0949 7.39314 82.1526C7.45124 82.2102 7.52018 82.2558 7.59598 82.2866C7.67178 82.3175 7.75294 82.333 7.83478 82.3324C7.91638 82.333 7.99731 82.3175 8.07283 82.2865C8.14835 82.2556 8.21696 82.21 8.27467 82.1523C8.33238 82.0946 8.37802 82.026 8.40894 81.9504C8.43986 81.8749 8.45545 81.794 8.45478 81.7124V79.9624C8.45478 79.7643 8.37645 79.5743 8.23688 79.4338C8.09731 79.2933 7.90782 79.2137 7.70978 79.2124H6.84478C6.81166 79.2134 6.7799 79.2258 6.75478 79.2474C6.73199 79.2718 6.71946 79.304 6.71978 79.3374C6.71978 79.5624 6.71978 80.0724 6.69978 80.3274Z" fill="#111111"/>
<path d="M4.50002 88.5924C4.50218 88.5078 4.48686 88.4236 4.45502 88.3452C4.42317 88.2668 4.37549 88.1958 4.31494 88.1367C4.2544 88.0775 4.1823 88.0315 4.10316 88.0016C4.02402 87.9716 3.93955 87.9582 3.85502 87.9624H1.74002C1.66971 87.9579 1.60097 87.9396 1.53775 87.9086C1.47453 87.8775 1.41807 87.8342 1.37161 87.7812C1.32515 87.7283 1.28961 87.6667 1.26703 87.5999C1.24445 87.5332 1.23527 87.4627 1.24002 87.3924V81.0124C1.23477 80.8853 1.27452 80.7605 1.35226 80.6599C1.43001 80.5593 1.54076 80.4894 1.66502 80.4624C1.69456 80.4564 1.72094 80.44 1.73932 80.4161C1.75769 80.3922 1.76682 80.3625 1.76502 80.3324C1.76502 79.9474 1.76502 79.5324 1.76502 79.3324C1.76502 79.2992 1.75185 79.2674 1.7284 79.244C1.70496 79.2206 1.67317 79.2074 1.64002 79.2074H0.750017C0.651103 79.2074 0.553166 79.2269 0.461845 79.2649C0.370523 79.303 0.287621 79.3586 0.217911 79.4288C0.148201 79.499 0.0930612 79.5823 0.0556655 79.6738C0.0182698 79.7654 -0.000642755 79.8635 1.66683e-05 79.9624V88.4624C1.22671e-05 88.6604 0.0783432 88.8504 0.217916 88.991C0.357489 89.1315 0.546972 89.2111 0.745017 89.2124H3.85502C3.93852 89.2158 4.02183 89.2022 4.09997 89.1726C4.1781 89.1429 4.24943 89.0978 4.30968 89.0399C4.36992 88.982 4.41784 88.9125 4.45055 88.8356C4.48326 88.7587 4.50008 88.6759 4.50002 88.5924Z" fill="#111111"/>
<path d="M5.97005 80.1974V79.1974C5.96874 79.1319 5.94183 79.0696 5.89508 79.0238C5.84834 78.978 5.7855 78.9524 5.72005 78.9524H5.34005C5.30964 78.9516 5.28047 78.9401 5.25763 78.92C5.23479 78.8999 5.21972 78.8724 5.21505 78.8424C5.17755 78.6075 5.05753 78.3936 4.87654 78.2392C4.69555 78.0848 4.46545 78 4.22755 78C3.98965 78 3.75955 78.0848 3.57856 78.2392C3.39757 78.3936 3.27755 78.6075 3.24005 78.8424C3.23876 78.8747 3.22502 78.9052 3.20172 78.9276C3.17841 78.9499 3.14735 78.9624 3.11505 78.9624H2.73505C2.67268 78.9649 2.61362 78.9912 2.56995 79.0358C2.52627 79.0804 2.50127 79.14 2.50005 79.2024V80.2024C2.49939 80.235 2.50523 80.2674 2.51725 80.2977C2.52926 80.328 2.5472 80.3556 2.57002 80.3789C2.59283 80.4021 2.62007 80.4206 2.65012 80.4333C2.68018 80.4459 2.71245 80.4524 2.74505 80.4524H5.74505C5.8078 80.4461 5.86586 80.4163 5.90759 80.369C5.94932 80.3217 5.97163 80.2604 5.97005 80.1974Z" fill="#111111"/>
<path d="M9.5 86.5974H7.5C7.40054 86.5974 7.30516 86.6369 7.23484 86.7072C7.16451 86.7775 7.125 86.8729 7.125 86.9724C7.125 87.0718 7.16451 87.1672 7.23484 87.2375C7.30516 87.3079 7.40054 87.3474 7.5 87.3474H9.5C9.59946 87.3474 9.69484 87.3079 9.76517 87.2375C9.83549 87.1672 9.875 87.0718 9.875 86.9724C9.875 86.8729 9.83549 86.7775 9.76517 86.7072C9.69484 86.6369 9.59946 86.5974 9.5 86.5974Z" fill="#111111"/>
<path d="M7.14502 85.2324C7.14631 85.3314 7.18624 85.4261 7.25629 85.4961C7.32633 85.5662 7.42097 85.6061 7.52002 85.6074H8.76502C8.86448 85.6074 8.95986 85.5679 9.03018 85.4975C9.10051 85.4272 9.14002 85.3318 9.14002 85.2324C9.14002 85.1329 9.10051 85.0375 9.03018 84.9672C8.95986 84.8969 8.86448 84.8574 8.76502 84.8574H7.50002C7.40449 84.8637 7.31485 84.9058 7.24904 84.9753C7.18322 85.0448 7.14607 85.1367 7.14502 85.2324Z" fill="#111111"/>
<path d="M11.7501 84.6924C11.7503 84.4283 11.6461 84.1749 11.4601 83.9874L10.7551 83.2874C10.5684 83.0996 10.3149 82.9935 10.0501 82.9924H6.24512C5.9799 82.9924 5.72555 83.0977 5.53801 83.2853C5.35047 83.4728 5.24512 83.7272 5.24512 83.9924V88.9624C5.24512 89.2276 5.35047 89.4819 5.53801 89.6695C5.72555 89.857 5.9799 89.9624 6.24512 89.9624H10.7451C11.0103 89.9624 11.2647 89.857 11.4522 89.6695C11.6398 89.4819 11.7451 89.2276 11.7451 88.9624L11.7501 84.6924ZM6.25012 84.4924C6.25012 84.3598 6.3028 84.2326 6.39656 84.1388C6.49033 84.0451 6.61751 83.9924 6.75012 83.9924H9.84512C9.91092 83.992 9.97615 84.0046 10.0371 84.0295C10.098 84.0544 10.1534 84.091 10.2001 84.1374L10.6101 84.5474C10.7025 84.6405 10.7546 84.7662 10.7551 84.8974V88.4624C10.7551 88.595 10.7024 88.7222 10.6087 88.8159C10.5149 88.9097 10.3877 88.9624 10.2551 88.9624H6.75512C6.62251 88.9624 6.49533 88.9097 6.40156 88.8159C6.3078 88.7222 6.25512 88.595 6.25512 88.4624L6.25012 84.4924Z" fill="#111111"/>
</g>
</g>
<g id="Size=16px, Filled=true" clip-path="url(#clip1_1118_335)">
<g id="Vector_9">
<path d="M32.933 79.1032C32.9291 79.1436 32.9407 79.184 32.9655 79.2162C32.9902 79.2484 33.0263 79.2699 33.0664 79.2765C33.2289 79.3178 33.3721 79.4141 33.4717 79.549C33.5714 79.6838 33.6213 79.849 33.613 80.0165V80.9498C33.613 81.059 33.6346 81.167 33.6766 81.2677C33.7186 81.3685 33.78 81.4599 33.8575 81.5368C33.935 81.6136 34.0269 81.6744 34.128 81.7155C34.229 81.7567 34.3373 81.7774 34.4464 81.7765C34.5552 81.7774 34.6631 81.7566 34.7638 81.7154C34.8645 81.6742 34.956 81.6133 35.0329 81.5364C35.1098 81.4594 35.1707 81.3679 35.2119 81.2672C35.2532 81.1665 35.2739 81.0586 35.273 80.9498V78.6165C35.273 78.3524 35.1686 78.0991 34.9825 77.9117C34.7964 77.7244 34.5438 77.6183 34.2797 77.6165H33.1264C33.0822 77.6179 33.0399 77.6344 33.0064 77.6632C32.976 77.6957 32.9593 77.7387 32.9597 77.7832C32.9597 78.0832 32.9597 78.7632 32.933 79.1032Z" fill="#111111"/>
<path d="M30 90.1232C30.0029 90.0104 29.9825 89.8982 29.94 89.7936C29.8976 89.6891 29.834 89.5944 29.7533 89.5156C29.6725 89.4367 29.5764 89.3754 29.4709 89.3354C29.3654 89.2954 29.2527 89.2776 29.14 89.2832H26.32C26.2263 89.2772 26.1346 89.2529 26.0503 89.2114C25.966 89.17 25.8908 89.1123 25.8288 89.0417C25.7669 88.971 25.7195 88.8889 25.6894 88.7999C25.6593 88.7109 25.647 88.6169 25.6534 88.5232V80.0165C25.6464 79.8471 25.6994 79.6807 25.803 79.5466C25.9067 79.4124 26.0543 79.3191 26.22 79.2832C26.2594 79.2752 26.2946 79.2533 26.3191 79.2214C26.3436 79.1896 26.3558 79.15 26.3534 79.1098C26.3534 78.5965 26.3534 78.0432 26.3534 77.7765C26.3534 77.7323 26.3358 77.6899 26.3045 77.6587C26.2733 77.6274 26.2309 77.6098 26.1867 77.6098H25C24.8681 77.6098 24.7376 77.6359 24.6158 77.6866C24.494 77.7373 24.3835 77.8115 24.2905 77.9051C24.1976 77.9987 24.1241 78.1097 24.0742 78.2318C24.0244 78.3539 23.9991 78.4846 24 78.6165V89.9498C24 90.2139 24.1045 90.4673 24.2906 90.6546C24.4767 90.8419 24.7293 90.9481 24.9934 90.9498H29.14C29.2514 90.9543 29.3624 90.9363 29.4666 90.8967C29.5708 90.8572 29.6659 90.797 29.7462 90.7198C29.8266 90.6426 29.8905 90.55 29.9341 90.4474C29.9777 90.3449 30.0001 90.2346 30 90.1232Z" fill="#111111"/>
<path d="M31.9601 78.9298V77.5965C31.9583 77.5093 31.9224 77.4262 31.8601 77.3651C31.7978 77.304 31.714 77.2698 31.6267 77.2698H31.1201C31.0795 77.2688 31.0406 77.2535 31.0102 77.2267C30.9797 77.1999 30.9596 77.1633 30.9534 77.1232C30.9034 76.8099 30.7434 76.5248 30.5021 76.3189C30.2607 76.1131 29.9539 76 29.6367 76C29.3195 76 29.0127 76.1131 28.7714 76.3189C28.5301 76.5248 28.3701 76.8099 28.3201 77.1232C28.3183 77.1662 28.3 77.2069 28.269 77.2367C28.2379 77.2666 28.1965 77.2832 28.1534 77.2832H27.6467C27.5636 77.2866 27.4848 77.3216 27.4266 77.381C27.3684 77.4405 27.335 77.52 27.3334 77.6032V78.9365C27.3325 78.98 27.3403 79.0232 27.3563 79.0636C27.3723 79.104 27.3963 79.1408 27.4267 79.1718C27.4571 79.2029 27.4934 79.2275 27.5335 79.2444C27.5736 79.2612 27.6166 79.2699 27.6601 79.2698H31.6601C31.7437 79.2615 31.8211 79.2218 31.8768 79.1587C31.9324 79.0957 31.9622 79.0139 31.9601 78.9298Z" fill="#111111"/>
<path d="M36.6667 87.4632H34C33.8674 87.4632 33.7402 87.5159 33.6464 87.6096C33.5527 87.7034 33.5 87.8306 33.5 87.9632C33.5 88.0958 33.5527 88.223 33.6464 88.3167C33.7402 88.4105 33.8674 88.4632 34 88.4632H36.6667C36.7993 88.4632 36.9265 88.4105 37.0202 88.3167C37.114 88.223 37.1667 88.0958 37.1667 87.9632C37.1667 87.8306 37.114 87.7034 37.0202 87.6096C36.9265 87.5159 36.7993 87.4632 36.6667 87.4632Z" fill="#111111"/>
<path d="M33.5267 85.6432C33.5284 85.7752 33.5817 85.9014 33.675 85.9948C33.7684 86.0882 33.8946 86.1415 34.0267 86.1432H35.6867C35.8193 86.1432 35.9465 86.0905 36.0402 85.9967C36.134 85.903 36.1867 85.7758 36.1867 85.6432C36.1867 85.5106 36.134 85.3834 36.0402 85.2896C35.9465 85.1959 35.8193 85.1432 35.6867 85.1432H34C33.8727 85.1516 33.7531 85.2077 33.6654 85.3004C33.5776 85.3931 33.5281 85.5155 33.5267 85.6432Z" fill="#111111"/>
<path d="M39.6668 84.9232C39.6671 84.5711 39.5281 84.2332 39.2802 83.9832L38.3402 83.0498C38.0913 82.7994 37.7532 82.658 37.4002 82.6565H32.3268C31.9732 82.6565 31.6341 82.797 31.384 83.047C31.134 83.2971 30.9935 83.6362 30.9935 83.9898V90.6165C30.9935 90.9701 31.134 91.3093 31.384 91.5593C31.6341 91.8094 31.9732 91.9498 32.3268 91.9498H38.3268C38.6804 91.9498 39.0196 91.8094 39.2696 91.5593C39.5197 91.3093 39.6602 90.9701 39.6602 90.6165L39.6668 84.9232ZM32.3335 84.6565C32.3335 84.4797 32.4037 84.3101 32.5288 84.1851C32.6538 84.0601 32.8233 83.9898 33.0002 83.9898H37.1268C37.2146 83.9893 37.3015 84.0061 37.3828 84.0393C37.464 84.0725 37.5379 84.1214 37.6002 84.1832L38.1468 84.7298C38.27 84.854 38.3394 85.0216 38.3402 85.1965V89.9498C38.3402 90.1266 38.2699 90.2962 38.1449 90.4212C38.0199 90.5463 37.8503 90.6165 37.6735 90.6165H33.0068C32.83 90.6165 32.6604 90.5463 32.5354 90.4212C32.4104 90.2962 32.3402 90.1266 32.3402 89.9498L32.3335 84.6565Z" fill="#111111"/>
</g>
</g>
<g id="Size=20px, Filled=true" clip-path="url(#clip2_1118_335)">
<g id="Vector_10">
<path d="M63.1663 77.879C63.1614 77.9295 63.1759 77.98 63.2068 78.0202C63.2378 78.0604 63.2829 78.0874 63.333 78.0956C63.5361 78.1473 63.7151 78.2676 63.8397 78.4362C63.9642 78.6048 64.0266 78.8113 64.0163 79.0206V80.1873C64.0163 80.3237 64.0433 80.4588 64.0957 80.5847C64.1482 80.7106 64.2251 80.8249 64.3219 80.9209C64.4187 81.017 64.5336 81.0929 64.66 81.1444C64.7863 81.1958 64.9216 81.2217 65.058 81.2206C65.194 81.2217 65.3288 81.1958 65.4547 81.1442C65.5806 81.0927 65.6949 81.0166 65.7911 80.9205C65.8873 80.8243 65.9634 80.7099 66.0149 80.584C66.0664 80.4582 66.0924 80.3233 66.0913 80.1873V77.2706C66.0913 76.9406 65.9608 76.6239 65.7281 76.3897C65.4955 76.1555 65.1797 76.0228 64.8496 76.0206H63.408C63.3528 76.0224 63.2998 76.043 63.258 76.079C63.22 76.1196 63.1991 76.1733 63.1996 76.229C63.1996 76.604 63.1996 77.454 63.1663 77.879Z" fill="#111111"/>
<path d="M59.5 91.654C59.5036 91.513 59.4781 91.3727 59.425 91.242C59.372 91.1114 59.2925 90.993 59.1916 90.8945C59.0907 90.7959 58.9705 90.7192 58.8386 90.6693C58.7067 90.6193 58.5659 90.597 58.425 90.604H54.9C54.7828 90.5966 54.6683 90.5661 54.5629 90.5143C54.4575 90.4625 54.3634 90.3904 54.286 90.3021C54.2086 90.2138 54.1494 90.1111 54.1117 89.9999C54.0741 89.8887 54.0588 89.7711 54.0667 89.654V79.0206C54.0579 78.8089 54.1242 78.6009 54.2538 78.4332C54.3833 78.2655 54.5679 78.1489 54.775 78.104C54.8243 78.094 54.8682 78.0666 54.8989 78.0268C54.9295 77.987 54.9447 77.9374 54.9417 77.8873C54.9417 77.2456 54.9417 76.554 54.9417 76.2206C54.9417 76.1654 54.9197 76.1124 54.8807 76.0733C54.8416 76.0343 54.7886 76.0123 54.7334 76.0123H53.25C53.0852 76.0123 52.9219 76.0449 52.7697 76.1082C52.6175 76.1716 52.4794 76.2644 52.3632 76.3814C52.247 76.4983 52.1551 76.6371 52.0928 76.7897C52.0304 76.9423 51.9989 77.1058 52 77.2706V91.4373C52 91.7674 52.1306 92.0841 52.3632 92.3183C52.5958 92.5524 52.9116 92.6851 53.2417 92.6873H58.425C58.5642 92.6929 58.7031 92.6703 58.8333 92.6209C58.9635 92.5715 59.0824 92.4963 59.1828 92.3998C59.2832 92.3033 59.3631 92.1874 59.4176 92.0593C59.4721 91.9311 59.5001 91.7932 59.5 91.654Z" fill="#111111"/>
<path d="M61.9501 77.6623V75.9956C61.9479 75.8866 61.903 75.7827 61.8251 75.7064C61.7472 75.63 61.6425 75.5873 61.5334 75.5873H60.9001C60.8494 75.586 60.8008 75.5669 60.7627 75.5334C60.7246 75.4999 60.6995 75.4541 60.6918 75.404C60.6293 75.0124 60.4292 74.656 60.1276 74.3987C59.8259 74.1414 59.4424 74 59.0459 74C58.6494 74 58.2659 74.1414 57.9643 74.3987C57.6626 74.656 57.4626 75.0124 57.4001 75.404C57.3979 75.4578 57.375 75.5086 57.3362 75.5459C57.2974 75.5832 57.2456 75.604 57.1918 75.604H56.5584C56.4545 75.6082 56.356 75.6519 56.2832 75.7263C56.2105 75.8006 56.1688 75.8999 56.1668 76.004V77.6706C56.1656 77.725 56.1754 77.779 56.1954 77.8295C56.2154 77.88 56.2453 77.926 56.2834 77.9648C56.3214 78.0036 56.3668 78.0344 56.4169 78.0554C56.467 78.0765 56.5208 78.0873 56.5751 78.0873H61.5751C61.6797 78.0768 61.7764 78.0272 61.846 77.9484C61.9155 77.8696 61.9527 77.7674 61.9501 77.6623Z" fill="#111111"/>
<path d="M67.8333 88.329H64.5C64.3342 88.329 64.1753 88.3948 64.0581 88.512C63.9408 88.6292 63.875 88.7882 63.875 88.954C63.875 89.1197 63.9408 89.2787 64.0581 89.3959C64.1753 89.5131 64.3342 89.579 64.5 89.579H67.8333C67.9991 89.579 68.1581 89.5131 68.2753 89.3959C68.3925 89.2787 68.4583 89.1197 68.4583 88.954C68.4583 88.7882 68.3925 88.6292 68.2753 88.512C68.1581 88.3948 67.9991 88.329 67.8333 88.329Z" fill="#111111"/>
<path d="M63.9084 86.054C63.9105 86.2191 63.9771 86.3768 64.0938 86.4935C64.2106 86.6103 64.3683 86.6768 64.5334 86.679H66.6084C66.7741 86.679 66.9331 86.6131 67.0503 86.4959C67.1675 86.3787 67.2334 86.2197 67.2334 86.054C67.2334 85.8882 67.1675 85.7292 67.0503 85.612C66.9331 85.4948 66.7741 85.429 66.6084 85.429H64.5C64.3408 85.4395 64.1914 85.5097 64.0817 85.6255C63.972 85.7414 63.9101 85.8944 63.9084 86.054Z" fill="#111111"/>
<path d="M71.5835 85.154C71.5839 84.7138 71.4101 84.2914 71.1002 83.979L69.9252 82.8123C69.6141 82.4993 69.1915 82.3225 68.7502 82.3206H62.4085C61.9665 82.3206 61.5426 82.4962 61.23 82.8088C60.9175 83.1213 60.7419 83.5453 60.7419 83.9873V92.2706C60.7419 92.7127 60.9175 93.1366 61.23 93.4491C61.5426 93.7617 61.9665 93.9373 62.4085 93.9373H69.9085C70.3506 93.9373 70.7745 93.7617 71.087 93.4491C71.3996 93.1366 71.5752 92.7127 71.5752 92.2706L71.5835 85.154ZM62.4169 84.8206C62.4169 84.5996 62.5047 84.3877 62.6609 84.2314C62.8172 84.0751 63.0292 83.9873 63.2502 83.9873H68.4085C68.5182 83.9867 68.6269 84.0077 68.7285 84.0492C68.83 84.0906 68.9223 84.1517 69.0002 84.229L69.6835 84.9123C69.8375 85.0675 69.9243 85.277 69.9252 85.4956V91.4373C69.9252 91.6583 69.8374 91.8703 69.6811 92.0266C69.5248 92.1828 69.3129 92.2706 69.0919 92.2706H63.2585C63.0375 92.2706 62.8256 92.1828 62.6693 92.0266C62.513 91.8703 62.4252 91.6583 62.4252 91.4373L62.4169 84.8206Z" fill="#111111"/>
</g>
</g>
<g id="Size=24px, Filled=true" clip-path="url(#clip3_1118_335)">
<g id="Vector_11">
<path d="M97.3996 76.6548C97.3937 76.7154 97.4111 76.776 97.4482 76.8243C97.4853 76.8725 97.5395 76.9049 97.5996 76.9148C97.8433 76.9768 98.0581 77.1212 98.2076 77.3235C98.357 77.5258 98.4319 77.7735 98.4196 78.0248V79.4248C98.4196 79.5884 98.452 79.7505 98.5149 79.9016C98.5778 80.0527 98.6701 80.1898 98.7863 80.3051C98.9025 80.4204 99.0404 80.5115 99.192 80.5733C99.3436 80.635 99.5059 80.6661 99.6696 80.6648C99.8328 80.6661 99.9946 80.6349 100.146 80.5731C100.297 80.5112 100.434 80.42 100.549 80.3045C100.665 80.1891 100.756 80.0519 100.818 79.9009C100.88 79.7498 100.911 79.588 100.91 79.4248V75.9248C100.91 75.5287 100.753 75.1486 100.474 74.8676C100.195 74.5866 99.8156 74.4274 99.4196 74.4248H97.6896C97.6233 74.4268 97.5598 74.4515 97.5096 74.4948C97.464 74.5435 97.4389 74.608 97.4396 74.6748C97.4396 75.1248 97.4396 76.1448 97.3996 76.6548Z" fill="#111111"/>
<path d="M93 93.1848C93.0044 93.0156 92.9737 92.8473 92.91 92.6905C92.8463 92.5336 92.751 92.3916 92.6299 92.2734C92.5088 92.1551 92.3646 92.0631 92.2063 92.0031C92.048 91.9431 91.8791 91.9165 91.71 91.9248H87.48C87.3394 91.9159 87.2019 91.8793 87.0755 91.8171C86.9491 91.7549 86.8361 91.6684 86.7432 91.5625C86.6503 91.4566 86.5792 91.3333 86.5341 91.1999C86.4889 91.0664 86.4705 90.9253 86.48 90.7848V78.0248C86.4695 77.7707 86.549 77.521 86.7045 77.3198C86.86 77.1186 87.0815 76.9787 87.33 76.9248C87.3891 76.9128 87.4419 76.8799 87.4786 76.8322C87.5154 76.7844 87.5336 76.7249 87.53 76.6648C87.53 75.8948 87.53 75.0648 87.53 74.6648C87.53 74.5985 87.5037 74.5349 87.4568 74.488C87.4099 74.4411 87.3463 74.4148 87.28 74.4148H85.5C85.3022 74.4148 85.1063 74.4539 84.9237 74.5299C84.741 74.6059 84.5752 74.7173 84.4358 74.8576C84.2964 74.998 84.1861 75.1645 84.1113 75.3477C84.0365 75.5308 83.9987 75.7269 84 75.9248V92.9248C84 93.3209 84.1567 93.7009 84.4358 93.9819C84.715 94.2629 85.0939 94.4221 85.49 94.4248H91.71C91.877 94.4315 92.0437 94.4044 92.1999 94.3451C92.3562 94.2858 92.4989 94.1956 92.6194 94.0797C92.7398 93.9639 92.8357 93.8249 92.9011 93.6711C92.9665 93.5173 93.0002 93.3519 93 93.1848Z" fill="#111111"/>
<path d="M95.9401 76.3948V74.3948C95.9375 74.2639 95.8837 74.1393 95.7902 74.0477C95.6967 73.956 95.571 73.9047 95.4401 73.9048H94.6801C94.6193 73.9031 94.5609 73.8802 94.5153 73.84C94.4696 73.7998 94.4394 73.7449 94.4301 73.6848C94.3551 73.2149 94.1151 72.7872 93.7531 72.4784C93.3911 72.1696 92.9309 72 92.4551 72C91.9793 72 91.5191 72.1696 91.1571 72.4784C90.7951 72.7872 90.5551 73.2149 90.4801 73.6848C90.4775 73.7493 90.45 73.8104 90.4034 73.8551C90.3568 73.8999 90.2947 73.9248 90.2301 73.9248H89.4701C89.3454 73.9298 89.2272 73.9823 89.1399 74.0715C89.0525 74.1607 89.0025 74.2799 89.0001 74.4048V76.4048C88.9988 76.4699 89.0105 76.5347 89.0345 76.5953C89.0585 76.656 89.0944 76.7112 89.14 76.7577C89.1857 76.8043 89.2401 76.8413 89.3002 76.8665C89.3604 76.8918 89.4249 76.9048 89.4901 76.9048H95.4901C95.6156 76.8922 95.7317 76.8326 95.8152 76.7381C95.8986 76.6435 95.9433 76.5209 95.9401 76.3948Z" fill="#111111"/>
<path d="M103 89.1948H99C98.8011 89.1948 98.6103 89.2738 98.4697 89.4144C98.329 89.5551 98.25 89.7459 98.25 89.9448C98.25 90.1437 98.329 90.3344 98.4697 90.4751C98.6103 90.6157 98.8011 90.6948 99 90.6948H103C103.199 90.6948 103.39 90.6157 103.53 90.4751C103.671 90.3344 103.75 90.1437 103.75 89.9448C103.75 89.7459 103.671 89.5551 103.53 89.4144C103.39 89.2738 103.199 89.1948 103 89.1948Z" fill="#111111"/>
<path d="M98.29 86.4648C98.2926 86.6629 98.3725 86.8521 98.5126 86.9922C98.6527 87.1323 98.8419 87.2122 99.04 87.2148H101.53C101.729 87.2148 101.92 87.1357 102.06 86.9951C102.201 86.8544 102.28 86.6637 102.28 86.4648C102.28 86.2659 102.201 86.0751 102.06 85.9344C101.92 85.7938 101.729 85.7148 101.53 85.7148H99C98.809 85.7274 98.6297 85.8116 98.4981 85.9506C98.3664 86.0897 98.2921 86.2733 98.29 86.4648Z" fill="#111111"/>
<path d="M107.5 85.3848C107.501 84.8566 107.292 84.3497 106.92 83.9748L105.51 82.5748C105.137 82.1992 104.63 81.987 104.1 81.9848H96.4902C95.9598 81.9848 95.4511 82.1955 95.076 82.5705C94.7009 82.9456 94.4902 83.4543 94.4902 83.9848V93.9248C94.4902 94.4552 94.7009 94.9639 95.076 95.339C95.4511 95.714 95.9598 95.9248 96.4902 95.9248H105.49C106.021 95.9248 106.529 95.714 106.904 95.339C107.28 94.9639 107.49 94.4552 107.49 93.9248L107.5 85.3848ZM96.5002 84.9848C96.5002 84.7195 96.6056 84.4652 96.7931 84.2776C96.9807 84.0901 97.235 83.9848 97.5002 83.9848H103.69C103.822 83.984 103.952 84.0092 104.074 84.059C104.196 84.1087 104.307 84.1821 104.4 84.2748L105.22 85.0948C105.405 85.281 105.509 85.5324 105.51 85.7948V92.9248C105.51 93.19 105.405 93.4443 105.217 93.6319C105.03 93.8194 104.775 93.9248 104.51 93.9248H97.5102C97.245 93.9248 96.9907 93.8194 96.8031 93.6319C96.6156 93.4443 96.5102 93.19 96.5102 92.9248L96.5002 84.9848Z" fill="#111111"/>
</g>
</g>
<g id="Size=32px, Filled=true" clip-path="url(#clip4_1118_335)">
<g id="Vector_12">
<path d="M137.866 74.2063C137.858 74.2872 137.881 74.368 137.931 74.4323C137.98 74.4967 138.053 74.5399 138.133 74.553C138.458 74.6357 138.744 74.8282 138.943 75.0979C139.143 75.3677 139.243 75.6981 139.226 76.033V77.8997C139.226 78.1179 139.269 78.334 139.353 78.5355C139.437 78.7369 139.56 78.9198 139.715 79.0735C139.87 79.2272 140.054 79.3487 140.256 79.431C140.458 79.5133 140.675 79.5548 140.893 79.553C141.11 79.5548 141.326 79.5132 141.528 79.4308C141.729 79.3483 141.912 79.2266 142.066 79.0727C142.22 78.9188 142.341 78.7359 142.424 78.5345C142.506 78.3331 142.548 78.1173 142.546 77.8997V73.233C142.546 72.7049 142.337 72.1982 141.965 71.8235C141.593 71.4488 141.088 71.2365 140.559 71.233H138.253C138.164 71.2358 138.08 71.2687 138.013 71.3263C137.952 71.3914 137.919 71.4773 137.919 71.5663C137.919 72.1663 137.919 73.5263 137.866 74.2063Z" fill="#111111"/>
<path d="M132 96.2464C132.006 96.0207 131.965 95.7964 131.88 95.5873C131.795 95.3782 131.668 95.1889 131.507 95.0312C131.345 94.8735 131.153 94.7508 130.942 94.6708C130.731 94.5908 130.505 94.5553 130.28 94.5664H124.64C124.453 94.5545 124.269 94.5057 124.101 94.4228C123.932 94.3399 123.782 94.2246 123.658 94.0833C123.534 93.9421 123.439 93.7778 123.379 93.5998C123.319 93.4219 123.294 93.2338 123.307 93.0464V76.033C123.293 75.6942 123.399 75.3614 123.606 75.0931C123.813 74.8248 124.109 74.6383 124.44 74.5664C124.519 74.5504 124.589 74.5066 124.638 74.4429C124.687 74.3792 124.712 74.2999 124.707 74.2197C124.707 73.193 124.707 72.0864 124.707 71.553C124.707 71.4646 124.672 71.3798 124.609 71.3173C124.547 71.2548 124.462 71.2197 124.373 71.2197H122C121.736 71.2197 121.475 71.2718 121.232 71.3732C120.988 71.4745 120.767 71.623 120.581 71.8102C120.395 71.9973 120.248 72.2194 120.148 72.4636C120.049 72.7077 119.998 72.9693 120 73.233V95.8997C120 96.4278 120.209 96.9345 120.581 97.3092C120.953 97.6839 121.459 97.8962 121.987 97.8997H130.28C130.503 97.9087 130.725 97.8726 130.933 97.7935C131.142 97.7144 131.332 97.5941 131.492 97.4396C131.653 97.2852 131.781 97.0999 131.868 96.8948C131.955 96.6898 132 96.4692 132 96.2464Z" fill="#111111"/>
<path d="M135.92 73.8597V71.193C135.917 71.0185 135.845 70.8524 135.72 70.7302C135.596 70.6081 135.428 70.5396 135.253 70.5397H134.24C134.159 70.5375 134.081 70.507 134.02 70.4534C133.959 70.3998 133.919 70.3265 133.907 70.2463C133.807 69.6199 133.487 69.0496 133.004 68.6379C132.521 68.2262 131.908 68 131.273 68C130.639 68 130.025 68.2262 129.543 68.6379C129.06 69.0496 128.74 69.6199 128.64 70.2463C128.637 70.3324 128.6 70.4138 128.538 70.4735C128.476 70.5331 128.393 70.5664 128.307 70.5663H127.293C127.127 70.5731 126.97 70.6431 126.853 70.7621C126.737 70.881 126.67 71.0399 126.667 71.2063V73.873C126.665 73.9599 126.681 74.0463 126.713 74.1271C126.745 74.2079 126.793 74.2815 126.853 74.3436C126.914 74.4057 126.987 74.455 127.067 74.4887C127.147 74.5224 127.233 74.5397 127.32 74.5397H135.32C135.487 74.5229 135.642 74.4435 135.754 74.3174C135.865 74.1913 135.924 74.0278 135.92 73.8597Z" fill="#111111"/>
<path d="M145.333 90.9263H140C139.735 90.9263 139.48 91.0317 139.293 91.2192C139.105 91.4068 139 91.6611 139 91.9263C139 92.1916 139.105 92.4459 139.293 92.6335C139.48 92.821 139.735 92.9263 140 92.9263H145.333C145.599 92.9263 145.853 92.821 146.04 92.6335C146.228 92.4459 146.333 92.1916 146.333 91.9263C146.333 91.6611 146.228 91.4068 146.04 91.2192C145.853 91.0317 145.599 90.9263 145.333 90.9263Z" fill="#111111"/>
<path d="M139.053 87.2864C139.057 87.5505 139.163 87.8029 139.35 87.9896C139.537 88.1764 139.789 88.2829 140.053 88.2864H143.373C143.639 88.2864 143.893 88.181 144.08 87.9935C144.268 87.8059 144.373 87.5516 144.373 87.2864C144.373 87.0211 144.268 86.7668 144.08 86.5792C143.893 86.3917 143.639 86.2864 143.373 86.2864H140C139.745 86.3031 139.506 86.4155 139.331 86.6009C139.155 86.7863 139.056 87.0311 139.053 87.2864Z" fill="#111111"/>
<path d="M151.334 85.8463C151.334 85.1421 151.056 84.4663 150.56 83.9663L148.68 82.0997C148.183 81.5989 147.506 81.316 146.8 81.313H136.654C135.946 81.313 135.268 81.594 134.768 82.0941C134.268 82.5942 133.987 83.2724 133.987 83.9797V97.233C133.987 97.9403 134.268 98.6185 134.768 99.1186C135.268 99.6187 135.946 99.8997 136.654 99.8997H148.654C149.361 99.8997 150.039 99.6187 150.539 99.1186C151.039 98.6185 151.32 97.9403 151.32 97.233L151.334 85.8463ZM136.667 85.313C136.667 84.9594 136.807 84.6202 137.058 84.3702C137.308 84.1201 137.647 83.9797 138 83.9797H146.254C146.429 83.9787 146.603 84.0123 146.766 84.0786C146.928 84.145 147.076 84.2428 147.2 84.3663L148.294 85.4597C148.54 85.708 148.679 86.0432 148.68 86.393V95.8997C148.68 96.2533 148.54 96.5924 148.29 96.8425C148.04 97.0925 147.701 97.233 147.347 97.233H138.014C137.66 97.233 137.321 97.0925 137.071 96.8425C136.821 96.5924 136.68 96.2533 136.68 95.8997L136.667 85.313Z" fill="#111111"/>
</g>
</g>
<g id="Size=40px, Filled=true" clip-path="url(#clip5_1118_335)">
<g id="Vector_13">
<path d="M186.333 71.7579C186.323 71.859 186.352 71.96 186.414 72.0404C186.476 72.1209 186.566 72.1748 186.666 72.1913C187.072 72.2946 187.43 72.5353 187.679 72.8724C187.928 73.2096 188.053 73.6226 188.033 74.0413V76.3746C188.033 76.6474 188.087 76.9175 188.191 77.1693C188.296 77.4212 188.45 77.6498 188.644 77.8419C188.837 78.034 189.067 78.1859 189.32 78.2888C189.573 78.3916 189.843 78.4435 190.116 78.4413C190.388 78.4435 190.658 78.3915 190.909 78.2885C191.161 78.1854 191.39 78.0333 191.582 77.8409C191.775 77.6486 191.927 77.4198 192.03 77.1681C192.133 76.9164 192.185 76.6466 192.183 76.3746V70.5413C192.183 69.8811 191.922 69.2477 191.456 68.7794C190.991 68.311 190.359 68.0457 189.699 68.0413H186.816C186.706 68.0447 186.6 68.0859 186.516 68.1579C186.44 68.2392 186.398 68.3467 186.399 68.4579C186.399 69.2079 186.399 70.9079 186.333 71.7579Z" fill="#111111"/>
<path d="M179 99.3079C179.007 99.0259 178.956 98.7455 178.85 98.4841C178.744 98.2227 178.585 97.9861 178.383 97.7889C178.181 97.5918 177.941 97.4385 177.677 97.3385C177.413 97.2385 177.132 97.1941 176.85 97.2079H169.8C169.566 97.1931 169.337 97.1321 169.126 97.0285C168.915 96.9249 168.727 96.7807 168.572 96.6042C168.417 96.4276 168.299 96.2222 168.223 95.9998C168.148 95.7774 168.118 95.5422 168.133 95.3079V74.0413C168.116 73.6178 168.248 73.2017 168.508 72.8664C168.767 72.531 169.136 72.2978 169.55 72.2079C169.649 72.188 169.736 72.1332 169.798 72.0536C169.859 71.974 169.889 71.8749 169.883 71.7746C169.883 70.4913 169.883 69.1079 169.883 68.4413C169.883 68.3308 169.839 68.2248 169.761 68.1466C169.683 68.0685 169.577 68.0246 169.467 68.0246H166.5C166.17 68.0246 165.844 68.0898 165.539 68.2165C165.235 68.3432 164.959 68.5288 164.726 68.7627C164.494 68.9966 164.31 69.2742 164.186 69.5794C164.061 69.8847 163.998 70.2116 164 70.5413V98.8746C164 99.5348 164.261 100.168 164.726 100.637C165.192 101.105 165.823 101.37 166.483 101.375H176.85C177.128 101.386 177.406 101.341 177.667 101.242C177.927 101.143 178.165 100.993 178.366 100.8C178.566 100.607 178.726 100.375 178.835 100.119C178.944 99.8622 179 99.5865 179 99.3079Z" fill="#111111"/>
<path d="M183.9 71.3246V67.9913C183.896 67.7732 183.806 67.5655 183.65 67.4128C183.494 67.2601 183.285 67.1746 183.067 67.1746H181.8C181.699 67.1719 181.602 67.1337 181.525 67.0667C181.449 66.9997 181.399 66.9082 181.384 66.8079C181.259 66.0249 180.858 65.312 180.255 64.7973C179.652 64.2827 178.885 64 178.092 64C177.299 64 176.532 64.2827 175.929 64.7973C175.325 65.312 174.925 66.0249 174.8 66.8079C174.796 66.9155 174.75 67.0173 174.672 67.0918C174.595 67.1664 174.491 67.208 174.384 67.2079H173.117C172.909 67.2164 172.712 67.3039 172.566 67.4526C172.421 67.6012 172.338 67.7999 172.334 68.0079V71.3413C172.331 71.4499 172.351 71.5579 172.391 71.6589C172.431 71.7599 172.491 71.8519 172.567 71.9295C172.643 72.0072 172.734 72.0688 172.834 72.1109C172.934 72.153 173.042 72.1746 173.15 72.1746H183.15C183.359 72.1536 183.553 72.0544 183.692 71.8968C183.831 71.7391 183.905 71.5348 183.9 71.3246Z" fill="#111111"/>
<path d="M195.667 92.6579H189C188.668 92.6579 188.351 92.7896 188.116 93.0241C187.882 93.2585 187.75 93.5764 187.75 93.9079C187.75 94.2395 187.882 94.5574 188.116 94.7918C188.351 95.0262 188.668 95.1579 189 95.1579H195.667C195.998 95.1579 196.316 95.0262 196.551 94.7918C196.785 94.5574 196.917 94.2395 196.917 93.9079C196.917 93.5764 196.785 93.2585 196.551 93.0241C196.316 92.7896 195.998 92.6579 195.667 92.6579Z" fill="#111111"/>
<path d="M187.817 88.1079C187.821 88.4381 187.954 88.7536 188.188 88.9871C188.421 89.2205 188.737 89.3536 189.067 89.3579H193.217C193.548 89.3579 193.866 89.2262 194.101 88.9918C194.335 88.7574 194.467 88.4395 194.467 88.1079C194.467 87.7764 194.335 87.4585 194.101 87.2241C193.866 86.9896 193.548 86.8579 193.217 86.8579H189C188.682 86.8789 188.383 87.0193 188.163 87.2511C187.944 87.4828 187.82 87.7888 187.817 88.1079Z" fill="#111111"/>
<path d="M203.167 86.3079C203.168 85.4277 202.82 84.5829 202.2 83.9579L199.85 81.6246C199.228 80.9986 198.383 80.645 197.5 80.6413H184.817C183.933 80.6413 183.085 80.9925 182.46 81.6176C181.835 82.2427 181.484 83.0905 181.484 83.9746V100.541C181.484 101.425 181.835 102.273 182.46 102.898C183.085 103.523 183.933 103.875 184.817 103.875H199.817C200.701 103.875 201.549 103.523 202.174 102.898C202.799 102.273 203.15 101.425 203.15 100.541L203.167 86.3079ZM184.834 85.6413C184.834 85.1992 185.009 84.7753 185.322 84.4627C185.634 84.1502 186.058 83.9746 186.5 83.9746H196.817C197.036 83.9733 197.254 84.0154 197.457 84.0983C197.66 84.1812 197.845 84.3035 198 84.4579L199.367 85.8246C199.675 86.135 199.849 86.554 199.85 86.9913V98.8746C199.85 99.3166 199.675 99.7405 199.362 100.053C199.05 100.366 198.626 100.541 198.184 100.541H186.517C186.075 100.541 185.651 100.366 185.339 100.053C185.026 99.7405 184.85 99.3166 184.85 98.8746L184.834 85.6413Z" fill="#111111"/>
</g>
</g>
<g id="Size=48px, Filled=true">
<g id="Vector_14">
<path d="M242.799 69.3095C242.787 69.4308 242.822 69.552 242.896 69.6485C242.971 69.7451 243.079 69.8098 243.199 69.8295C243.687 69.9535 244.116 70.2423 244.415 70.6469C244.714 71.0515 244.864 71.5471 244.839 72.0495V74.8495C244.839 75.1769 244.904 75.501 245.03 75.8032C245.156 76.1054 245.34 76.3797 245.573 76.6103C245.805 76.8408 246.081 77.0231 246.384 77.1465C246.687 77.27 247.012 77.3322 247.339 77.3295C247.666 77.3322 247.989 77.2699 248.291 77.1462C248.593 77.0225 248.868 76.8399 249.099 76.6091C249.33 76.3783 249.512 76.1038 249.636 75.8017C249.759 75.4996 249.822 75.1759 249.819 74.8495V67.8495C249.819 67.0573 249.506 66.2973 248.948 65.7352C248.389 65.1732 247.631 64.8548 246.839 64.8495H243.379C243.247 64.8537 243.12 64.9031 243.019 64.9895C242.928 65.0871 242.878 65.216 242.879 65.3495C242.879 66.2495 242.879 68.2895 242.799 69.3095Z" fill="#111111"/>
<path d="M234 102.37C234.009 102.031 233.947 101.695 233.82 101.381C233.693 101.067 233.502 100.783 233.26 100.547C233.018 100.31 232.729 100.126 232.413 100.006C232.096 99.8862 231.758 99.8329 231.42 99.8495H222.96C222.679 99.8317 222.404 99.7586 222.151 99.6342C221.898 99.5099 221.672 99.3368 221.486 99.125C221.301 98.9132 221.158 98.6667 221.068 98.3998C220.978 98.1328 220.941 97.8507 220.96 97.5695V72.0495C220.939 71.5414 221.098 71.0421 221.409 70.6397C221.72 70.2372 222.163 69.9574 222.66 69.8495C222.778 69.8256 222.884 69.7599 222.957 69.6643C223.031 69.5688 223.067 69.4499 223.06 69.3295C223.06 67.7895 223.06 66.1295 223.06 65.3295C223.06 65.1969 223.007 65.0697 222.914 64.976C222.82 64.8822 222.693 64.8295 222.56 64.8295H219C218.604 64.8295 218.213 64.9078 217.847 65.0598C217.482 65.2118 217.15 65.4346 216.872 65.7153C216.593 65.996 216.372 66.329 216.223 66.6953C216.073 67.0616 215.997 67.4539 216 67.8495V101.85C216 102.642 216.313 103.402 216.872 103.964C217.43 104.526 218.188 104.844 218.98 104.85H231.42C231.754 104.863 232.087 104.809 232.4 104.69C232.712 104.572 232.998 104.391 233.239 104.159C233.48 103.928 233.671 103.65 233.802 103.342C233.933 103.035 234 102.704 234 102.37Z" fill="#111111"/>
<path d="M239.88 68.7895V64.7895C239.875 64.5278 239.767 64.2785 239.58 64.0953C239.393 63.9121 239.142 63.8095 238.88 63.8095H237.36C237.239 63.8063 237.122 63.7605 237.031 63.6801C236.939 63.5997 236.879 63.4898 236.86 63.3695C236.71 62.4298 236.23 61.5744 235.506 60.9568C234.782 60.3392 233.862 60 232.91 60C231.959 60 231.038 60.3392 230.314 60.9568C229.59 61.5744 229.11 62.4298 228.96 63.3695C228.955 63.4986 228.9 63.6207 228.807 63.7102C228.714 63.7997 228.589 63.8496 228.46 63.8495H226.94C226.691 63.8597 226.454 63.9647 226.28 64.1431C226.105 64.3215 226.005 64.5599 226 64.8095V68.8095C225.998 68.9399 226.021 69.0695 226.069 69.1907C226.117 69.3119 226.189 69.4223 226.28 69.5155C226.371 69.6086 226.48 69.6826 226.6 69.7331C226.721 69.7836 226.85 69.8096 226.98 69.8095H238.98C239.231 69.7844 239.463 69.6653 239.63 69.4761C239.797 69.287 239.887 69.0417 239.88 68.7895Z" fill="#111111"/>
<path d="M254 94.3895H246C245.602 94.3895 245.221 94.5476 244.939 94.8289C244.658 95.1102 244.5 95.4917 244.5 95.8895C244.5 96.2873 244.658 96.6689 244.939 96.9502C245.221 97.2315 245.602 97.3895 246 97.3895H254C254.398 97.3895 254.779 97.2315 255.061 96.9502C255.342 96.6689 255.5 96.2873 255.5 95.8895C255.5 95.4917 255.342 95.1102 255.061 94.8289C254.779 94.5476 254.398 94.3895 254 94.3895Z" fill="#111111"/>
<path d="M244.58 88.9295C244.585 89.3257 244.745 89.7043 245.025 89.9845C245.305 90.2647 245.684 90.4244 246.08 90.4295H251.06C251.458 90.4295 251.839 90.2715 252.121 89.9902C252.402 89.7089 252.56 89.3274 252.56 88.9295C252.56 88.5317 252.402 88.1502 252.121 87.8689C251.839 87.5876 251.458 87.4295 251.06 87.4295H246C245.618 87.4547 245.259 87.6232 244.996 87.9013C244.733 88.1794 244.584 88.5466 244.58 88.9295Z" fill="#111111"/>
<path d="M263 86.7695C263.001 85.7132 262.584 84.6995 261.84 83.9495L259.02 81.1495C258.274 80.3983 257.26 79.974 256.2 79.9695H240.98C239.92 79.9695 238.902 80.3909 238.152 81.1411C237.402 81.8912 236.98 82.9086 236.98 83.9695V103.85C236.98 104.91 237.402 105.928 238.152 106.678C238.902 107.428 239.92 107.85 240.98 107.85H258.98C260.041 107.85 261.059 107.428 261.809 106.678C262.559 105.928 262.98 104.91 262.98 103.85L263 86.7695ZM241 85.9695C241 85.4391 241.211 84.9304 241.586 84.5553C241.961 84.1802 242.47 83.9695 243 83.9695H255.38C255.644 83.968 255.905 84.0184 256.148 84.118C256.392 84.2175 256.614 84.3642 256.8 84.5495L258.44 86.1895C258.81 86.562 259.018 87.0648 259.02 87.5895V101.85C259.02 102.38 258.81 102.889 258.435 103.264C258.06 103.639 257.551 103.85 257.02 103.85H243.02C242.49 103.85 241.981 103.639 241.606 103.264C241.231 102.889 241.02 102.38 241.02 101.85L241 85.9695Z" fill="#111111"/>
</g>
</g>
</g>
<defs>
<clipPath id="clip0_1118_335">
<rect width="12" height="12" fill="white" transform="translate(0 78)"/>
</clipPath>
<clipPath id="clip1_1118_335">
<rect width="16" height="16" fill="white" transform="translate(24 76)"/>
</clipPath>
<clipPath id="clip2_1118_335">
<rect width="20" height="20" fill="white" transform="translate(52 74)"/>
</clipPath>
<clipPath id="clip3_1118_335">
<rect width="24" height="24" fill="white" transform="translate(84 72)"/>
</clipPath>
<clipPath id="clip4_1118_335">
<rect width="32" height="32" fill="white" transform="translate(120 68)"/>
</clipPath>
<clipPath id="clip5_1118_335">
<rect width="40" height="40" fill="white" transform="translate(164 64)"/>
</clipPath>
</defs>
</svg>
