<svg width="264" height="108" viewBox="0 0 264 108" fill="none" xmlns="http://www.w3.org/2000/svg">
<g id="Pause">
<g clip-path="url(#clip0_4004_441)">
<g id="Size=12px, Filled=false">
<g id="Vector">
<path d="M4.125 19.875H3.375C2.96079 19.875 2.625 20.2108 2.625 20.625V27.375C2.625 27.7892 2.96079 28.125 3.375 28.125H4.125C4.53921 28.125 4.875 27.7892 4.875 27.375V20.625C4.875 20.2108 4.53921 19.875 4.125 19.875Z" stroke="#111111" stroke-width="0.75" stroke-linecap="round" stroke-linejoin="round"/>
<path d="M8.625 19.875H7.875C7.46079 19.875 7.125 20.2108 7.125 20.625V27.375C7.125 27.7892 7.46079 28.125 7.875 28.125H8.625C9.03921 28.125 9.375 27.7892 9.375 27.375V20.625C9.375 20.2108 9.03921 19.875 8.625 19.875Z" stroke="#111111" stroke-width="0.75" stroke-linecap="round" stroke-linejoin="round"/>
</g>
</g>
<g id="Size=16px, Filled=false">
<g id="Vector_2">
<path d="M29.5 18.5H28.5C27.9477 18.5 27.5 18.9477 27.5 19.5V28.5C27.5 29.0523 27.9477 29.5 28.5 29.5H29.5C30.0523 29.5 30.5 29.0523 30.5 28.5V19.5C30.5 18.9477 30.0523 18.5 29.5 18.5Z" stroke="#111111" stroke-linecap="round" stroke-linejoin="round"/>
<path d="M35.5 18.5H34.5C33.9477 18.5 33.5 18.9477 33.5 19.5V28.5C33.5 29.0523 33.9477 29.5 34.5 29.5H35.5C36.0523 29.5 36.5 29.0523 36.5 28.5V19.5C36.5 18.9477 36.0523 18.5 35.5 18.5Z" stroke="#111111" stroke-linecap="round" stroke-linejoin="round"/>
</g>
</g>
<g id="Size=20px, Filled=false">
<g id="Vector_3">
<path d="M58.875 17.125H57.625C56.9346 17.125 56.375 17.6846 56.375 18.375V29.625C56.375 30.3154 56.9346 30.875 57.625 30.875H58.875C59.5654 30.875 60.125 30.3154 60.125 29.625V18.375C60.125 17.6846 59.5654 17.125 58.875 17.125Z" stroke="#111111" stroke-width="1.25" stroke-linecap="round" stroke-linejoin="round"/>
<path d="M66.375 17.125H65.125C64.4346 17.125 63.875 17.6846 63.875 18.375V29.625C63.875 30.3154 64.4346 30.875 65.125 30.875H66.375C67.0654 30.875 67.625 30.3154 67.625 29.625V18.375C67.625 17.6846 67.0654 17.125 66.375 17.125Z" stroke="#111111" stroke-width="1.25" stroke-linecap="round" stroke-linejoin="round"/>
</g>
</g>
<g id="Size=24px, Filled=false">
<g id="Vector_4">
<path d="M92.25 15.75H90.75C89.9216 15.75 89.25 16.4216 89.25 17.25V30.75C89.25 31.5784 89.9216 32.25 90.75 32.25H92.25C93.0784 32.25 93.75 31.5784 93.75 30.75V17.25C93.75 16.4216 93.0784 15.75 92.25 15.75Z" stroke="#111111" stroke-width="1.5" stroke-linecap="round" stroke-linejoin="round"/>
<path d="M101.25 15.75H99.75C98.9216 15.75 98.25 16.4216 98.25 17.25V30.75C98.25 31.5784 98.9216 32.25 99.75 32.25H101.25C102.078 32.25 102.75 31.5784 102.75 30.75V17.25C102.75 16.4216 102.078 15.75 101.25 15.75Z" stroke="#111111" stroke-width="1.5" stroke-linecap="round" stroke-linejoin="round"/>
</g>
</g>
<g id="Size=32px, Filled=false">
<g id="Vector_5">
<path d="M131 13H129C127.895 13 127 13.8954 127 15V33C127 34.1046 127.895 35 129 35H131C132.105 35 133 34.1046 133 33V15C133 13.8954 132.105 13 131 13Z" stroke="#111111" stroke-width="2" stroke-linecap="round" stroke-linejoin="round"/>
<path d="M143 13H141C139.895 13 139 13.8954 139 15V33C139 34.1046 139.895 35 141 35H143C144.105 35 145 34.1046 145 33V15C145 13.8954 144.105 13 143 13Z" stroke="#111111" stroke-width="2" stroke-linecap="round" stroke-linejoin="round"/>
</g>
</g>
<g id="Size=40px, Filled=false">
<g id="Vector_6">
<path d="M177.75 10.25H175.25C173.869 10.25 172.75 11.3693 172.75 12.75V35.25C172.75 36.6307 173.869 37.75 175.25 37.75H177.75C179.131 37.75 180.25 36.6307 180.25 35.25V12.75C180.25 11.3693 179.131 10.25 177.75 10.25Z" stroke="#111111" stroke-width="2.5" stroke-linecap="round" stroke-linejoin="round"/>
<path d="M192.75 10.25H190.25C188.869 10.25 187.75 11.3693 187.75 12.75V35.25C187.75 36.6307 188.869 37.75 190.25 37.75H192.75C194.131 37.75 195.25 36.6307 195.25 35.25V12.75C195.25 11.3693 194.131 10.25 192.75 10.25Z" stroke="#111111" stroke-width="2.5" stroke-linecap="round" stroke-linejoin="round"/>
</g>
</g>
<g id="Size=48px, Filled=false">
<g id="Vector_7">
<path d="M232.5 7.5H229.5C227.843 7.5 226.5 8.84315 226.5 10.5V37.5C226.5 39.1569 227.843 40.5 229.5 40.5H232.5C234.157 40.5 235.5 39.1569 235.5 37.5V10.5C235.5 8.84315 234.157 7.5 232.5 7.5Z" stroke="#111111" stroke-width="3" stroke-linecap="round" stroke-linejoin="round"/>
<path d="M250.5 7.5H247.5C245.843 7.5 244.5 8.84315 244.5 10.5V37.5C244.5 39.1569 245.843 40.5 247.5 40.5H250.5C252.157 40.5 253.5 39.1569 253.5 37.5V10.5C253.5 8.84315 252.157 7.5 250.5 7.5Z" stroke="#111111" stroke-width="3" stroke-linecap="round" stroke-linejoin="round"/>
</g>
</g>
<g id="Size=12px, Filled=true">
<g id="Vector_8">
<path d="M4.125 79.875H3.375C2.96079 79.875 2.625 80.2108 2.625 80.625V87.375C2.625 87.7892 2.96079 88.125 3.375 88.125H4.125C4.53921 88.125 4.875 87.7892 4.875 87.375V80.625C4.875 80.2108 4.53921 79.875 4.125 79.875Z" fill="#111111"/>
<path d="M8.625 79.875H7.875C7.46079 79.875 7.125 80.2108 7.125 80.625V87.375C7.125 87.7892 7.46079 88.125 7.875 88.125H8.625C9.03921 88.125 9.375 87.7892 9.375 87.375V80.625C9.375 80.2108 9.03921 79.875 8.625 79.875Z" fill="#111111"/>
<path d="M4.125 79.875H3.375C2.96079 79.875 2.625 80.2108 2.625 80.625V87.375C2.625 87.7892 2.96079 88.125 3.375 88.125H4.125C4.53921 88.125 4.875 87.7892 4.875 87.375V80.625C4.875 80.2108 4.53921 79.875 4.125 79.875Z" stroke="#111111" stroke-linecap="round" stroke-linejoin="round"/>
<path d="M8.625 79.875H7.875C7.46079 79.875 7.125 80.2108 7.125 80.625V87.375C7.125 87.7892 7.46079 88.125 7.875 88.125H8.625C9.03921 88.125 9.375 87.7892 9.375 87.375V80.625C9.375 80.2108 9.03921 79.875 8.625 79.875Z" stroke="#111111" stroke-linecap="round" stroke-linejoin="round"/>
</g>
</g>
<g id="Size=16px, Filled=true">
<g id="Vector_9">
<path d="M29.5 78.5H28.5C27.9477 78.5 27.5 78.9477 27.5 79.5V88.5C27.5 89.0523 27.9477 89.5 28.5 89.5H29.5C30.0523 89.5 30.5 89.0523 30.5 88.5V79.5C30.5 78.9477 30.0523 78.5 29.5 78.5Z" fill="#111111"/>
<path d="M35.5 78.5H34.5C33.9477 78.5 33.5 78.9477 33.5 79.5V88.5C33.5 89.0523 33.9477 89.5 34.5 89.5H35.5C36.0523 89.5 36.5 89.0523 36.5 88.5V79.5C36.5 78.9477 36.0523 78.5 35.5 78.5Z" fill="#111111"/>
<path d="M29.5 78.5H28.5C27.9477 78.5 27.5 78.9477 27.5 79.5V88.5C27.5 89.0523 27.9477 89.5 28.5 89.5H29.5C30.0523 89.5 30.5 89.0523 30.5 88.5V79.5C30.5 78.9477 30.0523 78.5 29.5 78.5Z" stroke="#111111" stroke-linecap="round" stroke-linejoin="round"/>
<path d="M35.5 78.5H34.5C33.9477 78.5 33.5 78.9477 33.5 79.5V88.5C33.5 89.0523 33.9477 89.5 34.5 89.5H35.5C36.0523 89.5 36.5 89.0523 36.5 88.5V79.5C36.5 78.9477 36.0523 78.5 35.5 78.5Z" stroke="#111111" stroke-linecap="round" stroke-linejoin="round"/>
</g>
</g>
<g id="Size=20px, Filled=true">
<g id="Vector_10">
<path d="M58.875 77.125H57.625C56.9346 77.125 56.375 77.6846 56.375 78.375V89.625C56.375 90.3154 56.9346 90.875 57.625 90.875H58.875C59.5654 90.875 60.125 90.3154 60.125 89.625V78.375C60.125 77.6846 59.5654 77.125 58.875 77.125Z" fill="#111111"/>
<path d="M66.375 77.125H65.125C64.4346 77.125 63.875 77.6846 63.875 78.375V89.625C63.875 90.3154 64.4346 90.875 65.125 90.875H66.375C67.0654 90.875 67.625 90.3154 67.625 89.625V78.375C67.625 77.6846 67.0654 77.125 66.375 77.125Z" fill="#111111"/>
<path d="M58.875 77.125H57.625C56.9346 77.125 56.375 77.6846 56.375 78.375V89.625C56.375 90.3154 56.9346 90.875 57.625 90.875H58.875C59.5654 90.875 60.125 90.3154 60.125 89.625V78.375C60.125 77.6846 59.5654 77.125 58.875 77.125Z" stroke="#111111" stroke-linecap="round" stroke-linejoin="round"/>
<path d="M66.375 77.125H65.125C64.4346 77.125 63.875 77.6846 63.875 78.375V89.625C63.875 90.3154 64.4346 90.875 65.125 90.875H66.375C67.0654 90.875 67.625 90.3154 67.625 89.625V78.375C67.625 77.6846 67.0654 77.125 66.375 77.125Z" stroke="#111111" stroke-linecap="round" stroke-linejoin="round"/>
</g>
</g>
<g id="Size=24px, Filled=true">
<g id="Vector_11">
<path d="M92.25 75.75H90.75C89.9216 75.75 89.25 76.4216 89.25 77.25V90.75C89.25 91.5784 89.9216 92.25 90.75 92.25H92.25C93.0784 92.25 93.75 91.5784 93.75 90.75V77.25C93.75 76.4216 93.0784 75.75 92.25 75.75Z" fill="#111111"/>
<path d="M101.25 75.75H99.75C98.9216 75.75 98.25 76.4216 98.25 77.25V90.75C98.25 91.5784 98.9216 92.25 99.75 92.25H101.25C102.078 92.25 102.75 91.5784 102.75 90.75V77.25C102.75 76.4216 102.078 75.75 101.25 75.75Z" fill="#111111"/>
<path d="M92.25 75.75H90.75C89.9216 75.75 89.25 76.4216 89.25 77.25V90.75C89.25 91.5784 89.9216 92.25 90.75 92.25H92.25C93.0784 92.25 93.75 91.5784 93.75 90.75V77.25C93.75 76.4216 93.0784 75.75 92.25 75.75Z" stroke="#111111" stroke-linecap="round" stroke-linejoin="round"/>
<path d="M101.25 75.75H99.75C98.9216 75.75 98.25 76.4216 98.25 77.25V90.75C98.25 91.5784 98.9216 92.25 99.75 92.25H101.25C102.078 92.25 102.75 91.5784 102.75 90.75V77.25C102.75 76.4216 102.078 75.75 101.25 75.75Z" stroke="#111111" stroke-linecap="round" stroke-linejoin="round"/>
</g>
</g>
<g id="Size=32px, Filled=true">
<g id="Vector_12">
<path d="M131 73H129C127.895 73 127 73.8954 127 75V93C127 94.1046 127.895 95 129 95H131C132.105 95 133 94.1046 133 93V75C133 73.8954 132.105 73 131 73Z" fill="#111111"/>
<path d="M143 73H141C139.895 73 139 73.8954 139 75V93C139 94.1046 139.895 95 141 95H143C144.105 95 145 94.1046 145 93V75C145 73.8954 144.105 73 143 73Z" fill="#111111"/>
<path d="M131 73H129C127.895 73 127 73.8954 127 75V93C127 94.1046 127.895 95 129 95H131C132.105 95 133 94.1046 133 93V75C133 73.8954 132.105 73 131 73Z" stroke="#111111" stroke-linecap="round" stroke-linejoin="round"/>
<path d="M143 73H141C139.895 73 139 73.8954 139 75V93C139 94.1046 139.895 95 141 95H143C144.105 95 145 94.1046 145 93V75C145 73.8954 144.105 73 143 73Z" stroke="#111111" stroke-linecap="round" stroke-linejoin="round"/>
</g>
</g>
<g id="Size=40px, Filled=true">
<g id="Vector_13">
<path d="M177.75 70.25H175.25C173.869 70.25 172.75 71.3693 172.75 72.75V95.25C172.75 96.6307 173.869 97.75 175.25 97.75H177.75C179.131 97.75 180.25 96.6307 180.25 95.25V72.75C180.25 71.3693 179.131 70.25 177.75 70.25Z" fill="#111111"/>
<path d="M192.75 70.25H190.25C188.869 70.25 187.75 71.3693 187.75 72.75V95.25C187.75 96.6307 188.869 97.75 190.25 97.75H192.75C194.131 97.75 195.25 96.6307 195.25 95.25V72.75C195.25 71.3693 194.131 70.25 192.75 70.25Z" fill="#111111"/>
<path d="M177.75 70.25H175.25C173.869 70.25 172.75 71.3693 172.75 72.75V95.25C172.75 96.6307 173.869 97.75 175.25 97.75H177.75C179.131 97.75 180.25 96.6307 180.25 95.25V72.75C180.25 71.3693 179.131 70.25 177.75 70.25Z" stroke="#111111" stroke-linecap="round" stroke-linejoin="round"/>
<path d="M192.75 70.25H190.25C188.869 70.25 187.75 71.3693 187.75 72.75V95.25C187.75 96.6307 188.869 97.75 190.25 97.75H192.75C194.131 97.75 195.25 96.6307 195.25 95.25V72.75C195.25 71.3693 194.131 70.25 192.75 70.25Z" stroke="#111111" stroke-linecap="round" stroke-linejoin="round"/>
</g>
</g>
<g id="Size=48px, Filled=true">
<g id="Vector_14">
<path d="M232.5 67.5H229.5C227.843 67.5 226.5 68.8431 226.5 70.5V97.5C226.5 99.1569 227.843 100.5 229.5 100.5H232.5C234.157 100.5 235.5 99.1569 235.5 97.5V70.5C235.5 68.8431 234.157 67.5 232.5 67.5Z" fill="#111111"/>
<path d="M250.5 67.5H247.5C245.843 67.5 244.5 68.8431 244.5 70.5V97.5C244.5 99.1569 245.843 100.5 247.5 100.5H250.5C252.157 100.5 253.5 99.1569 253.5 97.5V70.5C253.5 68.8431 252.157 67.5 250.5 67.5Z" fill="#111111"/>
<path d="M232.5 67.5H229.5C227.843 67.5 226.5 68.8431 226.5 70.5V97.5C226.5 99.1569 227.843 100.5 229.5 100.5H232.5C234.157 100.5 235.5 99.1569 235.5 97.5V70.5C235.5 68.8431 234.157 67.5 232.5 67.5Z" stroke="#111111" stroke-linecap="round" stroke-linejoin="round"/>
<path d="M250.5 67.5H247.5C245.843 67.5 244.5 68.8431 244.5 70.5V97.5C244.5 99.1569 245.843 100.5 247.5 100.5H250.5C252.157 100.5 253.5 99.1569 253.5 97.5V70.5C253.5 68.8431 252.157 67.5 250.5 67.5Z" stroke="#111111" stroke-linecap="round" stroke-linejoin="round"/>
</g>
</g>
</g>
</g>
<defs>
<clipPath id="clip0_4004_441">
<rect width="264" height="108" rx="5" fill="white"/>
</clipPath>
</defs>
</svg>
