<svg width="264" height="108" viewBox="0 0 264 108" fill="none" xmlns="http://www.w3.org/2000/svg">
<g id="Play">
<g clip-path="url(#clip0_4007_472)">
<g id="Size=12px, Filled=false" clip-path="url(#clip1_4007_472)">
<path id="Vector" d="M1.16895 19.6275V28.3725C1.16893 28.5022 1.20254 28.6296 1.26649 28.7424C1.33043 28.8552 1.42254 28.9495 1.5338 29.0161C1.64507 29.0827 1.7717 29.1193 1.90133 29.1224C2.03097 29.1254 2.15917 29.0948 2.27345 29.0335L10.4349 24.661C10.5545 24.5969 10.6544 24.5016 10.7241 24.3852C10.7938 24.2688 10.8306 24.1357 10.8306 24C10.8306 23.8644 10.7938 23.7312 10.7241 23.6148C10.6544 23.4984 10.5545 23.4031 10.4349 23.339L2.27345 18.9665C2.15917 18.9052 2.03097 18.8746 1.90133 18.8776C1.7717 18.8807 1.64507 18.9173 1.5338 18.9839C1.42254 19.0505 1.33043 19.1448 1.26649 19.2576C1.20254 19.3704 1.16893 19.4978 1.16895 19.6275V19.6275Z" stroke="#111111" stroke-width="0.75" stroke-linecap="round" stroke-linejoin="round"/>
</g>
<g id="Size=16px, Filled=false">
<path id="Vector_2" d="M25.5586 18.17V29.83C25.5586 30.0029 25.6034 30.1728 25.6887 30.3233C25.7739 30.4737 25.8967 30.5994 26.0451 30.6882C26.1934 30.777 26.3623 30.8258 26.5351 30.8298C26.708 30.8339 26.8789 30.7931 27.0313 30.7113L37.9133 24.8813C38.0727 24.7959 38.2059 24.6688 38.2988 24.5136C38.3917 24.3584 38.4408 24.1809 38.4408 24C38.4408 23.8191 38.3917 23.6416 38.2988 23.4864C38.2059 23.3312 38.0727 23.2041 37.9133 23.1187L27.0313 17.2887C26.8789 17.207 26.708 17.1661 26.5351 17.1702C26.3623 17.1743 26.1934 17.2231 26.0451 17.3118C25.8967 17.4006 25.7739 17.5264 25.6887 17.6768C25.6034 17.8272 25.5586 17.9971 25.5586 18.17V18.17Z" stroke="#111111" stroke-linecap="round" stroke-linejoin="round"/>
</g>
<g id="Size=20px, Filled=false">
<path id="Vector_3" d="M53.9482 16.7125V31.2875C53.9482 31.5036 54.0042 31.7161 54.1108 31.9041C54.2174 32.0921 54.3709 32.2492 54.5563 32.3602C54.7418 32.4712 54.9528 32.5322 55.1689 32.5373C55.3849 32.5424 55.5986 32.4913 55.7891 32.3892L69.3916 25.1017C69.5908 24.9949 69.7574 24.836 69.8735 24.642C69.9896 24.448 70.051 24.2261 70.051 24C70.051 23.7739 69.9896 23.5521 69.8735 23.3581C69.7574 23.1641 69.5908 23.0052 69.3916 22.8984L55.7891 15.6109C55.5986 15.5087 55.3849 15.4577 55.1689 15.4627C54.9528 15.4678 54.7418 15.5288 54.5563 15.6398C54.3709 15.7508 54.2174 15.908 54.1108 16.096C54.0042 16.284 53.9482 16.4964 53.9482 16.7125V16.7125Z" stroke="#111111" stroke-width="1.25" stroke-linecap="round" stroke-linejoin="round"/>
</g>
<g id="Size=24px, Filled=false">
<path id="Vector_4" d="M86.3379 15.255V32.745C86.3379 33.0044 86.4051 33.2593 86.533 33.4849C86.6609 33.7105 86.8451 33.8991 87.0676 34.0323C87.2901 34.1654 87.5434 34.2387 87.8027 34.2447C88.0619 34.2508 88.3183 34.1896 88.5469 34.067L104.87 25.322C105.109 25.1938 105.309 25.0032 105.448 24.7704C105.588 24.5376 105.661 24.2713 105.661 24C105.661 23.7287 105.588 23.4625 105.448 23.2297C105.309 22.9969 105.109 22.8062 104.87 22.678L88.5469 13.933C88.3183 13.8104 88.0619 13.7492 87.8027 13.7553C87.5434 13.7614 87.2901 13.8346 87.0676 13.9678C86.8451 14.1009 86.6609 14.2895 86.533 14.5152C86.4051 14.7408 86.3379 14.9957 86.3379 15.255V15.255Z" stroke="#111111" stroke-width="1.5" stroke-linecap="round" stroke-linejoin="round"/>
</g>
<g id="Size=32px, Filled=false">
<path id="Vector_5" d="M123.117 12.34V35.66C123.117 36.0058 123.207 36.3457 123.378 36.6465C123.548 36.9473 123.794 37.1988 124.09 37.3764C124.387 37.5539 124.725 37.6515 125.07 37.6597C125.416 37.6678 125.758 37.5861 126.063 37.4227L147.827 25.7627C148.146 25.5918 148.412 25.3376 148.598 25.0272C148.784 24.7168 148.882 24.3618 148.882 24C148.882 23.6383 148.784 23.2833 148.598 22.9729C148.412 22.6625 148.146 22.4083 147.827 22.2374L126.063 10.5774C125.758 10.4139 125.416 10.3323 125.07 10.3404C124.725 10.3485 124.387 10.4461 124.09 10.6237C123.794 10.8013 123.548 11.0527 123.378 11.3535C123.207 11.6544 123.117 11.9942 123.117 12.34V12.34Z" stroke="#111111" stroke-width="2" stroke-linecap="round" stroke-linejoin="round"/>
</g>
<g id="Size=40px, Filled=false">
<path id="Vector_6" d="M167.897 9.42497V38.575C167.897 39.0072 168.009 39.4321 168.222 39.8081C168.435 40.1841 168.742 40.4984 169.113 40.7204C169.484 40.9424 169.906 41.0644 170.338 41.0745C170.77 41.0847 171.197 40.9826 171.578 40.7783L198.783 26.2033C199.182 25.9896 199.515 25.6719 199.747 25.2839C199.98 24.8959 200.102 24.4522 200.102 24C200.102 23.5478 199.98 23.1041 199.747 22.7161C199.515 22.328 199.182 22.0103 198.783 21.7966L171.578 7.22164C171.197 7.01734 170.77 6.91528 170.338 6.92543C169.906 6.93558 169.484 7.05759 169.113 7.27956C168.742 7.50152 168.435 7.81585 168.222 8.19187C168.009 8.56788 167.897 8.99274 167.897 9.42497V9.42497Z" stroke="#111111" stroke-width="2.5" stroke-linecap="round" stroke-linejoin="round"/>
</g>
<g id="Size=48px, Filled=false">
<path id="Vector_7" d="M220.676 6.50998V41.49C220.676 42.0087 220.81 42.5185 221.066 42.9697C221.322 43.4209 221.69 43.7981 222.135 44.0645C222.581 44.3308 223.087 44.4772 223.606 44.4894C224.124 44.5016 224.637 44.3791 225.094 44.134L257.74 26.644C258.218 26.3876 258.618 26.0063 258.897 25.5407C259.175 25.0751 259.323 24.5426 259.323 24C259.323 23.4574 259.175 22.9249 258.897 22.4593C258.618 21.9937 258.218 21.6124 257.74 21.356L225.094 3.86598C224.637 3.62082 224.124 3.49835 223.606 3.51053C223.087 3.52271 222.581 3.66913 222.135 3.93548C221.69 4.20183 221.322 4.57903 221.066 5.03025C220.81 5.48147 220.676 5.9913 220.676 6.50998V6.50998Z" stroke="#111111" stroke-width="3" stroke-linecap="round" stroke-linejoin="round"/>
</g>
<g id="Size=12px, Filled=true">
<path id="Vector_8" d="M1.16895 79.6275V88.3725C1.16893 88.5022 1.20254 88.6296 1.26649 88.7424C1.33043 88.8552 1.42254 88.9495 1.5338 89.0161C1.64507 89.0827 1.7717 89.1193 1.90133 89.1224C2.03097 89.1254 2.15917 89.0948 2.27345 89.0335L10.4349 84.661C10.5545 84.5969 10.6544 84.5016 10.7241 84.3852C10.7938 84.2688 10.8306 84.1357 10.8306 84C10.8306 83.8644 10.7938 83.7312 10.7241 83.6148C10.6544 83.4984 10.5545 83.4031 10.4349 83.339L2.27345 78.9665C2.15917 78.9052 2.03097 78.8746 1.90133 78.8776C1.7717 78.8807 1.64507 78.9173 1.5338 78.9839C1.42254 79.0505 1.33043 79.1448 1.26649 79.2576C1.20254 79.3704 1.16893 79.4978 1.16895 79.6275Z" fill="#111111"/>
</g>
<g id="Size=16px, Filled=true">
<path id="Vector_9" d="M25.5586 78.17V89.83C25.5586 90.0029 25.6034 90.1728 25.6887 90.3233C25.7739 90.4737 25.8967 90.5994 26.0451 90.6882C26.1934 90.777 26.3623 90.8258 26.5351 90.8298C26.708 90.8339 26.8789 90.7931 27.0313 90.7113L37.9133 84.8813C38.0727 84.7959 38.2059 84.6688 38.2988 84.5136C38.3917 84.3584 38.4408 84.1809 38.4408 84C38.4408 83.8191 38.3917 83.6416 38.2988 83.4864C38.2059 83.3312 38.0727 83.2041 37.9133 83.1187L27.0313 77.2887C26.8789 77.207 26.708 77.1661 26.5351 77.1702C26.3623 77.1743 26.1934 77.2231 26.0451 77.3118C25.8967 77.4006 25.7739 77.5264 25.6887 77.6768C25.6034 77.8272 25.5586 77.9971 25.5586 78.17Z" fill="#111111"/>
</g>
<g id="Size=20px, Filled=true">
<path id="Vector_10" d="M53.9482 76.7125V91.2875C53.9482 91.5036 54.0042 91.7161 54.1108 91.9041C54.2174 92.0921 54.3709 92.2492 54.5563 92.3602C54.7418 92.4712 54.9528 92.5322 55.1689 92.5373C55.3849 92.5424 55.5986 92.4913 55.7891 92.3892L69.3916 85.1017C69.5908 84.9949 69.7574 84.836 69.8735 84.642C69.9896 84.448 70.051 84.2261 70.051 84C70.051 83.7739 69.9896 83.5521 69.8735 83.3581C69.7574 83.1641 69.5908 83.0052 69.3916 82.8984L55.7891 75.6109C55.5986 75.5087 55.3849 75.4577 55.1689 75.4627C54.9528 75.4678 54.7418 75.5288 54.5563 75.6398C54.3709 75.7508 54.2174 75.908 54.1108 76.096C54.0042 76.284 53.9482 76.4964 53.9482 76.7125Z" fill="#111111"/>
</g>
<g id="Size=24px, Filled=true">
<path id="Vector_11" d="M86.3379 75.255V92.745C86.3379 93.0044 86.4051 93.2593 86.533 93.4849C86.6609 93.7105 86.8451 93.8991 87.0676 94.0323C87.2901 94.1654 87.5434 94.2387 87.8027 94.2447C88.0619 94.2508 88.3183 94.1896 88.5469 94.067L104.87 85.322C105.109 85.1938 105.309 85.0032 105.448 84.7704C105.588 84.5376 105.661 84.2713 105.661 84C105.661 83.7287 105.588 83.4625 105.448 83.2297C105.309 82.9969 105.109 82.8062 104.87 82.678L88.5469 73.933C88.3183 73.8104 88.0619 73.7492 87.8027 73.7553C87.5434 73.7614 87.2901 73.8346 87.0676 73.9678C86.8451 74.1009 86.6609 74.2895 86.533 74.5152C86.4051 74.7408 86.3379 74.9957 86.3379 75.255Z" fill="#111111"/>
</g>
<g id="Size=32px, Filled=true">
<path id="Vector_12" d="M123.117 72.34V95.66C123.117 96.0058 123.207 96.3457 123.378 96.6465C123.548 96.9473 123.794 97.1988 124.09 97.3764C124.387 97.5539 124.725 97.6515 125.07 97.6597C125.416 97.6678 125.758 97.5861 126.063 97.4227L147.827 85.7627C148.146 85.5918 148.412 85.3376 148.598 85.0272C148.784 84.7168 148.882 84.3618 148.882 84C148.882 83.6383 148.784 83.2833 148.598 82.9729C148.412 82.6625 148.146 82.4083 147.827 82.2374L126.063 70.5774C125.758 70.4139 125.416 70.3323 125.07 70.3404C124.725 70.3485 124.387 70.4461 124.09 70.6237C123.794 70.8013 123.548 71.0527 123.378 71.3535C123.207 71.6544 123.117 71.9942 123.117 72.34Z" fill="#111111"/>
</g>
<g id="Size=40px, Filled=true">
<path id="Vector_13" d="M167.897 69.425V98.575C167.897 99.0072 168.009 99.4321 168.222 99.8081C168.435 100.184 168.742 100.498 169.113 100.72C169.484 100.942 169.906 101.064 170.338 101.075C170.77 101.085 171.197 100.983 171.578 100.778L198.783 86.2033C199.182 85.9896 199.515 85.6719 199.747 85.2839C199.98 84.8959 200.102 84.4522 200.102 84C200.102 83.5478 199.98 83.1041 199.747 82.7161C199.515 82.328 199.182 82.0103 198.783 81.7966L171.578 67.2216C171.197 67.0173 170.77 66.9153 170.338 66.9254C169.906 66.9356 169.484 67.0576 169.113 67.2796C168.742 67.5015 168.435 67.8158 168.222 68.1919C168.009 68.5679 167.897 68.9927 167.897 69.425Z" fill="#111111"/>
</g>
<g id="Size=48px, Filled=true">
<path id="Vector_14" d="M220.676 66.51V101.49C220.676 102.009 220.81 102.518 221.066 102.97C221.322 103.421 221.69 103.798 222.135 104.064C222.581 104.331 223.087 104.477 223.606 104.489C224.124 104.502 224.637 104.379 225.094 104.134L257.74 86.644C258.218 86.3876 258.618 86.0063 258.897 85.5407C259.175 85.0751 259.323 84.5426 259.323 84C259.323 83.4573 259.175 82.9249 258.897 82.4593C258.618 81.9937 258.218 81.6124 257.74 81.356L225.094 63.866C224.637 63.6208 224.124 63.4984 223.606 63.5105C223.087 63.5227 222.581 63.6691 222.135 63.9355C221.69 64.2018 221.322 64.579 221.066 65.0303C220.81 65.4815 220.676 65.9913 220.676 66.51Z" fill="#111111"/>
</g>
</g>
</g>
<defs>
<clipPath id="clip0_4007_472">
<rect width="264" height="108" rx="5" fill="white"/>
</clipPath>
<clipPath id="clip1_4007_472">
<rect width="12" height="12" fill="white" transform="translate(0 18)"/>
</clipPath>
</defs>
</svg>
