<svg width="264" height="108" viewBox="0 0 264 108" fill="none" xmlns="http://www.w3.org/2000/svg">
<g id="Save">
<g clip-path="url(#clip0_4479_470)">
<g id="Size=12px, Filled=false">
<path id="Vector" d="M4.5 18.75V21.15C4.5 21.3091 4.57902 21.4617 4.71967 21.5743C4.86032 21.6868 5.05109 21.75 5.25 21.75H9C9.19891 21.75 9.38968 21.6868 9.53033 21.5743C9.67098 21.4617 9.75 21.3091 9.75 21.15V18.75M8.25 19.875V20.625M4.5 25.5H6.75M4.5 27H8.25M10.55 29.25H1.45C1.26435 29.25 1.0863 29.1763 0.955025 29.045C0.82375 28.9137 0.75 28.7357 0.75 28.55V21.7801C0.750079 21.4088 0.897631 21.0528 1.1602 20.7903L2.7898 19.1602C2.91983 19.0301 3.07421 18.927 3.24412 18.8566C3.41404 18.7862 3.59615 18.75 3.78007 18.75H10.55C10.7357 18.75 10.9137 18.8237 11.045 18.955C11.1763 19.0863 11.25 19.2643 11.25 19.45V28.55C11.25 28.7357 11.1763 28.9137 11.045 29.045C10.9137 29.1763 10.7357 29.25 10.55 29.25ZM9 24H3.75C3.55109 24 3.36032 24.079 3.21967 24.2197C3.07902 24.3603 3 24.5511 3 24.75V29.25H9.75V24.75C9.75 24.5511 9.67098 24.3603 9.53033 24.2197C9.38968 24.079 9.19891 24 9 24Z" stroke="#111111" stroke-width="0.75" stroke-linecap="round" stroke-linejoin="round"/>
</g>
<g id="Size=16px, Filled=false">
<path id="Vector_2" d="M30 17V20.2C30 20.4122 30.1054 20.6157 30.2929 20.7657C30.4804 20.9157 30.7348 21 31 21H36C36.2652 21 36.5196 20.9157 36.7071 20.7657C36.8946 20.6157 37 20.4122 37 20.2V17M35 18.5V19.5M30 26H33M30 28H35M38.0667 31H25.9333C25.6858 31 25.4484 30.9017 25.2734 30.7266C25.0983 30.5516 25 30.3142 25 30.0667V21.0401C25.0001 20.5451 25.1968 20.0703 25.5469 19.7204L27.7197 17.5469C27.8931 17.3735 28.0989 17.2359 28.3255 17.1421C28.552 17.0483 28.7949 17 29.0401 17H38.0667C38.3142 17 38.5516 17.0983 38.7266 17.2734C38.9017 17.4484 39 17.6858 39 17.9333V30.0667C39 30.3142 38.9017 30.5516 38.7266 30.7266C38.5516 30.9017 38.3142 31 38.0667 31ZM36 24H29C28.7348 24 28.4804 24.1054 28.2929 24.2929C28.1054 24.4804 28 24.7348 28 25V31H37V25C37 24.7348 36.8946 24.4804 36.7071 24.2929C36.5196 24.1054 36.2652 24 36 24Z" stroke="#111111" stroke-linecap="round" stroke-linejoin="round"/>
</g>
<g id="Size=20px, Filled=false">
<path id="Vector_3" d="M59.5 15.25V19.25C59.5 19.5152 59.6317 19.7696 59.8661 19.9571C60.1005 20.1446 60.4185 20.25 60.75 20.25H67C67.3315 20.25 67.6495 20.1446 67.8839 19.9571C68.1183 19.7696 68.25 19.5152 68.25 19.25V15.25M65.75 17.125V18.375M59.5 26.5H63.25M59.5 29H65.75M69.5833 32.75H54.4167C54.1072 32.75 53.8105 32.6271 53.5917 32.4083C53.3729 32.1895 53.25 31.8928 53.25 31.5833V20.3001C53.2501 19.6813 53.4961 19.0879 53.9337 18.6504L56.6497 15.9337C56.8664 15.7169 57.1237 15.5449 57.4069 15.4276C57.6901 15.3103 57.9936 15.25 58.3001 15.25H69.5833C69.8928 15.25 70.1895 15.3729 70.4083 15.5917C70.6271 15.8105 70.75 16.1072 70.75 16.4167V31.5833C70.75 31.8928 70.6271 32.1895 70.4083 32.4083C70.1895 32.6271 69.8928 32.75 69.5833 32.75ZM67 24H58.25C57.9185 24 57.6005 24.1317 57.3661 24.3661C57.1317 24.6005 57 24.9185 57 25.25V32.75H68.25V25.25C68.25 24.9185 68.1183 24.6005 67.8839 24.3661C67.6495 24.1317 67.3315 24 67 24Z" stroke="#111111" stroke-width="1.25" stroke-linecap="round" stroke-linejoin="round"/>
</g>
<g id="Size=24px, Filled=false" clip-path="url(#clip1_4479_470)">
<path id="Vector_4" d="M92 13V18.6C92 18.9713 92.1656 19.3274 92.4603 19.5899C92.755 19.8525 93.1547 20 93.5714 20H101.429C101.845 20 102.245 19.8525 102.54 19.5899C102.834 19.3274 103 18.9713 103 18.6V13M100 15V17M92 28H96M92 31H100M105.533 35H86.4667C86.0777 35 85.7046 34.8455 85.4296 34.5704C85.1545 34.2954 85 33.9223 85 33.5333V19.3487C85.0002 18.5708 85.3093 17.8248 85.8595 17.2748L89.2739 13.8595C89.5463 13.5869 89.8698 13.3708 90.2258 13.2233C90.5818 13.0758 90.9634 13 91.3487 13H105.533C105.922 13 106.295 13.1545 106.57 13.4296C106.845 13.7046 107 14.0777 107 14.4667V33.5333C107 33.9223 106.845 34.2954 106.57 34.5704C106.295 34.8455 105.922 35 105.533 35ZM101.444 25H90.5556C90.143 25 89.7473 25.1505 89.4556 25.4184C89.1639 25.6863 89 26.0497 89 26.4286V35H103V26.4286C103 26.0497 102.836 25.6863 102.544 25.4184C102.253 25.1505 101.857 25 101.444 25Z" stroke="#111111" stroke-width="1.5" stroke-linecap="round" stroke-linejoin="round"/>
</g>
<g id="Size=32px, Filled=false">
<path id="Vector_5" d="M132 10V16.4C132 16.8243 132.211 17.2313 132.586 17.5314C132.961 17.8314 133.47 18 134 18H144C144.53 18 145.039 17.8314 145.414 17.5314C145.789 17.2313 146 16.8243 146 16.4V10M142 13V15M132 28H138M132 32H142M148.133 38H123.867C123.372 38 122.897 37.8033 122.547 37.4533C122.197 37.1032 122 36.6284 122 36.1333V18.0802C122 17.0901 122.394 16.1407 123.094 15.4407L127.439 11.0939C127.786 10.747 128.198 10.4719 128.651 10.2842C129.104 10.0965 129.59 9.99994 130.08 10H148.133C148.628 10 149.103 10.1967 149.453 10.5467C149.803 10.8968 150 11.3716 150 11.8667V36.1333C150 36.6284 149.803 37.1032 149.453 37.4533C149.103 37.8033 148.628 38 148.133 38ZM144 24H130C129.47 24 128.961 24.2107 128.586 24.5858C128.211 24.9609 128 25.4696 128 26V38H146V26C146 25.4696 145.789 24.9609 145.414 24.5858C145.039 24.2107 144.53 24 144 24Z" stroke="#111111" stroke-width="2" stroke-linecap="round" stroke-linejoin="round"/>
</g>
<g id="Size=40px, Filled=false">
<path id="Vector_6" d="M179 6.5V14.5C179 15.0304 179.263 15.5391 179.732 15.9142C180.201 16.2893 180.837 16.5 181.5 16.5H194C194.663 16.5 195.299 16.2893 195.768 15.9142C196.237 15.5391 196.5 15.0304 196.5 14.5V6.5M191.5 10.25V12.75M179 29H186.5M179 34H191.5M199.167 41.5H168.833C168.214 41.5 167.621 41.2542 167.183 40.8166C166.746 40.379 166.5 39.7855 166.5 39.1667V16.6002C166.5 15.3626 166.992 14.1759 167.867 13.3009L173.299 7.86733C173.733 7.43378 174.247 7.08987 174.814 6.85526C175.38 6.62064 175.987 6.49993 176.6 6.5H199.167C199.786 6.5 200.379 6.74583 200.817 7.18342C201.254 7.621 201.5 8.2145 201.5 8.83333V39.1667C201.5 39.7855 201.254 40.379 200.817 40.8166C200.379 41.2542 199.786 41.5 199.167 41.5ZM194 24H176.5C175.837 24 175.201 24.2634 174.732 24.7322C174.263 25.2011 174 25.837 174 26.5V41.5H196.5V26.5C196.5 25.837 196.237 25.2011 195.768 24.7322C195.299 24.2634 194.663 24 194 24Z" stroke="#111111" stroke-width="2.5" stroke-linecap="round" stroke-linejoin="round"/>
</g>
<g id="Size=48px, Filled=false">
<path id="Vector_7" d="M234 3V12.6C234 13.2365 234.316 13.847 234.879 14.2971C235.441 14.7471 236.204 15 237 15H252C252.796 15 253.559 14.7471 254.121 14.2971C254.684 13.847 255 13.2365 255 12.6V3M249 7.5V10.5M234 30H243M234 36H249M258.2 45H221.8C221.057 45 220.345 44.705 219.82 44.1799C219.295 43.6548 219 42.9426 219 42.2V15.1203C219 13.6352 219.591 12.211 220.641 11.1611L227.159 4.6408C227.679 4.12053 228.297 3.70784 228.976 3.42631C229.656 3.14477 230.385 2.99991 231.12 3H258.2C258.943 3 259.655 3.295 260.18 3.8201C260.705 4.3452 261 5.05739 261 5.8V42.2C261 42.9426 260.705 43.6548 260.18 44.1799C259.655 44.705 258.943 45 258.2 45ZM252 24H231C230.204 24 229.441 24.3161 228.879 24.8787C228.316 25.4413 228 26.2044 228 27V45H255V27C255 26.2044 254.684 25.4413 254.121 24.8787C253.559 24.3161 252.796 24 252 24Z" stroke="#111111" stroke-width="3" stroke-linecap="round" stroke-linejoin="round"/>
</g>
<g id="Size=12px, Filled=true" clip-path="url(#clip2_4479_470)">
<path id="Vector_8" d="M11.2002 78C11.4123 78.0001 11.6156 78.0844 11.7656 78.2344C11.9156 78.3844 11.9999 78.5877 12 78.7998V89.2002C11.9999 89.4123 11.9156 89.6156 11.7656 89.7656C11.6156 89.9156 11.4123 89.9999 11.2002 90H10.5V85.8574C10.5 85.4917 10.3491 85.1446 10.0869 84.8916C9.82522 84.6393 9.47386 84.5001 9.11133 84.5H2.88867C2.52614 84.5001 2.17478 84.6393 1.91309 84.8916C1.65093 85.1446 1.5 85.4917 1.5 85.8574V90H0.799805C0.587702 89.9999 0.384358 89.9156 0.234375 89.7656C0.0843919 89.6156 5.15535e-05 89.4123 0 89.2002V81.4629C0.000101958 81.0387 0.16879 80.632 0.46875 80.332L2.33105 78.4688C2.47966 78.3201 2.6564 78.2025 2.85059 78.1221C3.04475 78.0416 3.25273 78 3.46289 78H3.5V81.2002C3.50006 81.5565 3.65232 81.8902 3.91016 82.1309C4.1669 82.3705 4.50819 82.5 4.85742 82.5H9.14258C9.49181 82.5 9.8331 82.3705 10.0898 82.1309C10.3477 81.8902 10.4999 81.5565 10.5 81.2002V78H11.2002ZM9.11133 85.5C9.22013 85.5001 9.32097 85.5423 9.39258 85.6113C9.4635 85.6798 9.5 85.7688 9.5 85.8574V90H2.5V85.8574C2.5 85.7688 2.5365 85.6798 2.60742 85.6113C2.67903 85.5423 2.77987 85.5001 2.88867 85.5H9.11133ZM9.5 78V81.2002C9.49995 81.2681 9.47165 81.3411 9.4082 81.4004C9.34345 81.4608 9.248 81.5 9.14258 81.5H4.85742C4.752 81.5 4.65655 81.4608 4.5918 81.4004C4.52835 81.3411 4.50005 81.2681 4.5 81.2002V78H9.5ZM8 78.5C7.72386 78.5 7.5 78.7239 7.5 79V80C7.5 80.2761 7.72386 80.5 8 80.5C8.27614 80.5 8.5 80.2761 8.5 80V79C8.5 78.7239 8.27614 78.5 8 78.5Z" fill="#111111"/>
</g>
<g id="Size=16px, Filled=true" clip-path="url(#clip3_4479_470)">
<path id="Vector_9" d="M38.9336 76C39.2164 76.0001 39.4875 76.1125 39.6875 76.3125C39.8875 76.5125 39.9999 76.7836 40 77.0664V90.9336C39.9999 91.2164 39.8875 91.4875 39.6875 91.6875C39.4875 91.8875 39.2164 91.9999 38.9336 92H38V86.4756C37.9998 85.9879 37.7989 85.5247 37.4492 85.1875C37.1003 84.8512 36.6317 84.6661 36.1484 84.666H27.8516C27.3683 84.6661 26.8997 84.8512 26.5508 85.1875C26.2011 85.5247 26.0002 85.9879 26 86.4756V92H25.0664C24.7836 91.9999 24.5125 91.8875 24.3125 91.6875C24.1125 91.4875 24.0001 91.2164 24 90.9336V80.6172C24.0001 80.0516 24.2251 79.5093 24.625 79.1094L27.1084 76.625C27.3065 76.4268 27.5419 76.2693 27.8008 76.1621C28.0596 76.0549 28.3371 76 28.6172 76H28.667V80.2666C28.6671 80.7415 28.8693 81.1869 29.2129 81.5078C29.5552 81.8273 30.0109 82 30.4766 82H36.1904C36.656 82 37.1108 81.8272 37.4531 81.5078C37.7968 81.1869 37.9999 80.7416 38 80.2666V76H38.9336ZM36.1484 86C36.2934 86.0001 36.428 86.0555 36.5234 86.1475C36.618 86.2386 36.6668 86.3575 36.667 86.4756V92H27.333V86.4756C27.3332 86.3575 27.382 86.2386 27.4766 86.1475C27.572 86.0555 27.7066 86.0001 27.8516 86H36.1484ZM36.667 76V80.2666C36.6669 80.3571 36.6284 80.4542 36.5439 80.5332C36.4576 80.6138 36.331 80.666 36.1904 80.666H30.4766C30.336 80.666 30.2094 80.6138 30.123 80.5332C30.0385 80.4542 30.0001 80.3571 30 80.2666V76H36.667ZM34.667 76.666C34.2989 76.666 34.0002 76.965 34 77.333V78.666C34 79.0342 34.2988 79.333 34.667 79.333C35.035 79.3328 35.333 79.0341 35.333 78.666V77.333C35.3328 76.9651 35.0349 76.6662 34.667 76.666Z" fill="#111111"/>
</g>
<g id="Size=20px, Filled=true" clip-path="url(#clip4_4479_470)">
<path id="Vector_10" d="M70.667 74C71.0205 74.0001 71.3594 74.1407 71.6094 74.3906C71.8593 74.6406 71.9999 74.9795 72 75.333V92.667C71.9999 93.0205 71.8593 93.3594 71.6094 93.6094C71.3594 93.8593 71.0205 93.9999 70.667 94H69.5V87.0957C69.5 86.4859 69.2487 85.907 68.8115 85.4854C68.3754 85.0648 67.7898 84.8341 67.1855 84.834H56.8145C56.2102 84.8341 55.6246 85.0648 55.1885 85.4854C54.7513 85.907 54.5 86.4859 54.5 87.0957V94H53.333C52.9795 93.9999 52.6406 93.8593 52.3906 93.6094C52.1407 93.3594 52.0001 93.0205 52 92.667V79.7715C52.0002 79.0643 52.2811 78.3857 52.7812 77.8857L55.8857 74.7812C56.1334 74.5336 56.4274 74.3371 56.751 74.2031C57.0745 74.0691 57.4213 74 57.7715 74H57.833V79.334C57.8332 79.9277 58.0869 80.4847 58.5166 80.8857C58.9445 81.285 59.5138 81.5 60.0957 81.5H67.2383C67.8201 81.5 68.3886 81.2848 68.8164 80.8857C69.2461 80.4847 69.4998 79.9277 69.5 79.334V74H70.667ZM67.1855 86.5C67.3669 86.5001 67.535 86.5705 67.6543 86.6855C67.7725 86.7997 67.833 86.9479 67.833 87.0957V94H56.167V87.0957C56.167 86.9479 56.2275 86.7997 56.3457 86.6855C56.465 86.5705 56.6331 86.5001 56.8145 86.5H67.1855ZM67.833 74V79.334C67.8328 79.4471 67.7854 79.5683 67.6797 79.667C67.5718 79.7676 67.4138 79.8339 67.2383 79.834H60.0957C59.9201 79.834 59.7612 79.7676 59.6533 79.667C59.5478 79.5683 59.5002 79.447 59.5 79.334V74H67.833ZM65.333 74.834C64.8729 74.8342 64.5 75.2069 64.5 75.667V77.334C64.5004 77.7938 64.8731 78.1668 65.333 78.167C65.793 78.167 66.1666 77.7939 66.167 77.334V75.667C66.167 75.2068 65.7932 74.834 65.333 74.834Z" fill="#111111"/>
</g>
<g id="Size=24px, Filled=true" clip-path="url(#clip5_4479_470)">
<path id="Vector_11" d="M106.4 72C106.825 72.0001 107.231 72.1688 107.531 72.4688C107.831 72.7687 108 73.1754 108 73.5996V94.4004C108 94.8246 107.831 95.2313 107.531 95.5312C107.231 95.8312 106.825 95.9999 106.4 96H105V87.7139C105 86.9823 104.698 86.2881 104.174 85.7822C103.65 85.2775 102.948 85.0001 102.223 85H89.7773C89.0523 85.0001 88.3496 85.2775 87.8262 85.7822C87.3017 86.2881 87.0001 86.9823 87 87.7139V96H85.5996C85.1754 95.9999 84.7687 95.8312 84.4688 95.5312C84.1688 95.2313 84.0001 94.8246 84 94.4004V78.9258C84.0002 78.0772 84.3374 77.263 84.9375 76.6631L88.6621 72.9375C88.9593 72.6402 89.3128 72.404 89.7012 72.2432C90.0894 72.0824 90.5056 72 90.9258 72H91V78.4004C91.0001 79.1129 91.3037 79.7814 91.8193 80.2627C92.3327 80.7418 93.0155 80.9999 93.7139 81H102.286C102.984 80.9999 103.667 80.7418 104.181 80.2627C104.696 79.7814 105 79.1129 105 78.4004V72H106.4ZM102.223 87C102.44 87.0001 102.642 87.0837 102.785 87.2217C102.927 87.3586 103 87.5365 103 87.7139V96H89V87.7139C89.0001 87.5365 89.0729 87.3586 89.2148 87.2217C89.358 87.0837 89.5598 87.0001 89.7773 87H102.223ZM103 72V78.4004C103 78.5363 102.942 78.6822 102.815 78.8008C102.686 78.9214 102.497 78.9999 102.286 79H93.7139C93.5034 78.9999 93.314 78.9214 93.1846 78.8008C93.0575 78.6822 93.0001 78.5363 93 78.4004V72H103ZM100 73C99.4477 73 99 73.4477 99 74V76C99 76.5523 99.4477 77 100 77C100.552 77 101 76.5523 101 76V74C101 73.4477 100.552 73 100 73Z" fill="#111111"/>
</g>
<g id="Size=32px, Filled=true" clip-path="url(#clip6_4479_470)">
<path id="Vector_12" d="M149.866 68C150.432 68 150.975 68.2249 151.375 68.625C151.775 69.0251 152 69.568 152 70.1338V97.8662C152 98.432 151.775 98.9749 151.375 99.375C150.975 99.7751 150.432 100 149.866 100H148V88.9531C148 87.9774 147.597 87.0516 146.897 86.377C146.199 85.7039 145.263 85.334 144.296 85.334H127.704C126.737 85.334 125.801 85.7039 125.103 86.377C124.403 87.0516 124 87.9774 124 88.9531V100H122.134C121.568 100 121.025 99.7751 120.625 99.375C120.225 98.9749 120 98.432 120 97.8662V77.2344C120 76.1029 120.45 75.0177 121.25 74.2178L126.217 69.25C126.613 68.8537 127.084 68.5397 127.602 68.3252C128.119 68.1108 128.674 67.9999 129.234 68H129.333V76.5332C129.333 77.4833 129.739 78.3748 130.427 79.0166C131.111 79.6554 132.021 79.9999 132.952 80H144.381C145.312 80 146.223 79.6555 146.907 79.0166C147.595 78.3748 148 77.4832 148 76.5332V68H149.866ZM144.296 88C144.586 88 144.856 88.1118 145.047 88.2959C145.236 88.4785 145.333 88.7166 145.333 88.9531V100H126.667V88.9531C126.667 88.7166 126.764 88.4785 126.953 88.2959C127.144 88.1118 127.414 88 127.704 88H144.296ZM145.333 68V76.5332C145.333 76.7143 145.257 76.9093 145.088 77.0674C144.915 77.2285 144.662 77.334 144.381 77.334H132.952C132.671 77.3339 132.419 77.2284 132.246 77.0674C132.077 76.9092 132 76.7144 132 76.5332V68H145.333ZM141.333 69.334C140.597 69.3342 140 69.9307 140 70.667V73.334C140 74.07 140.597 74.6668 141.333 74.667C142.069 74.667 142.667 74.0701 142.667 73.334V70.667C142.667 69.9306 142.069 69.334 141.333 69.334Z" fill="#111111"/>
</g>
<g id="Size=40px, Filled=true" clip-path="url(#clip7_4479_470)">
<path id="Vector_13" d="M201.333 64C202.04 64 202.719 64.2812 203.219 64.7812C203.719 65.2813 204 65.9597 204 66.667V101.333C204 102.04 203.719 102.719 203.219 103.219C202.719 103.719 202.04 104 201.333 104H199V90.1904C199 88.9708 198.497 87.813 197.622 86.9697C196.75 86.1287 195.579 85.666 194.37 85.666H173.63C172.421 85.666 171.25 86.1287 170.378 86.9697C169.503 87.813 169 88.9708 169 90.1904V104H166.667C165.96 104 165.281 103.719 164.781 103.219C164.281 102.719 164 102.04 164 101.333V75.543C164 74.1287 164.562 72.7724 165.562 71.7725L171.771 65.5625C172.266 65.0671 172.854 64.6744 173.501 64.4063C174.148 64.1381 174.842 63.9999 175.543 64H175.667V74.666C175.667 75.8538 176.174 76.9681 177.033 77.7705C177.889 78.5691 179.026 79 180.19 79H194.477C195.641 78.9999 196.778 78.5692 197.634 77.7705C198.493 76.9681 199 75.8538 199 74.666V64H201.333ZM194.37 89C194.733 89 195.07 89.1391 195.309 89.3691C195.545 89.5974 195.667 89.8948 195.667 90.1904V104H172.333V90.1904C172.333 89.8948 172.455 89.5974 172.691 89.3691C172.93 89.1391 173.267 89 173.63 89H194.37ZM195.667 64V74.666C195.667 74.8926 195.571 75.1362 195.359 75.334C195.144 75.5353 194.828 75.6659 194.477 75.666H180.19C179.839 75.666 179.523 75.5352 179.308 75.334C179.096 75.1362 179 74.8926 179 74.666V64H195.667ZM190.667 65.666C189.747 65.666 189 66.4127 189 67.333V70.666C189 71.5865 189.747 72.333 190.667 72.333C191.587 72.3328 192.333 71.5864 192.333 70.666V67.333C192.333 66.4128 191.587 65.6662 190.667 65.666Z" fill="#111111"/>
</g>
<g id="Size=48px, Filled=true" clip-path="url(#clip8_4479_470)">
<path id="Vector_14" d="M260.8 60C261.648 60 262.462 60.3374 263.062 60.9375C263.663 61.5376 264 62.3515 264 63.2002V104.8C264 105.648 263.663 106.462 263.062 107.062C262.462 107.663 261.648 108 260.8 108H258V91.4287C258 89.965 257.396 88.5764 256.347 87.5645C255.3 86.5549 253.895 86 252.444 86H227.556C226.105 86 224.7 86.5549 223.653 87.5645C222.604 88.5764 222 89.965 222 91.4287V108H219.2C218.352 108 217.538 107.663 216.938 107.062C216.337 106.462 216 105.648 216 104.8V73.8516C216 72.1545 216.675 70.527 217.875 69.3271L225.325 61.875C225.919 61.2806 226.625 60.809 227.401 60.4873C228.178 60.1656 229.011 59.9999 229.852 60H230V72.7998C230 74.2251 230.608 75.5616 231.64 76.5244C232.667 77.4829 234.032 78 235.429 78H252.571C253.968 78 255.333 77.4829 256.36 76.5244C257.392 75.5616 258 74.2251 258 72.7998V60H260.8ZM252.444 90C252.88 90 253.284 90.168 253.57 90.4443C253.854 90.7183 254 91.0739 254 91.4287V108H226V91.4287C226 91.0739 226.146 90.7183 226.43 90.4443C226.716 90.168 227.12 90 227.556 90H252.444ZM254 60V72.7998C254 73.0718 253.885 73.3632 253.631 73.6006C253.372 73.8422 252.993 74 252.571 74H235.429C235.007 74 234.628 73.8422 234.369 73.6006C234.115 73.3632 234 73.0718 234 72.7998V60H254ZM248 62C246.895 62 246 62.8954 246 64V68C246 69.1046 246.895 70 248 70C249.105 70 250 69.1046 250 68V64C250 62.8954 249.105 62 248 62Z" fill="#111111"/>
</g>
</g>
</g>
<defs>
<clipPath id="clip0_4479_470">
<rect width="264" height="108" rx="5" fill="white"/>
</clipPath>
<clipPath id="clip1_4479_470">
<rect width="24" height="24" fill="white" transform="translate(84 12)"/>
</clipPath>
<clipPath id="clip2_4479_470">
<rect width="12" height="12" fill="white" transform="translate(0 78)"/>
</clipPath>
<clipPath id="clip3_4479_470">
<rect width="16" height="16" fill="white" transform="translate(24 76)"/>
</clipPath>
<clipPath id="clip4_4479_470">
<rect width="20" height="20" fill="white" transform="translate(52 74)"/>
</clipPath>
<clipPath id="clip5_4479_470">
<rect width="24" height="24" fill="white" transform="translate(84 72)"/>
</clipPath>
<clipPath id="clip6_4479_470">
<rect width="32" height="32" fill="white" transform="translate(120 68)"/>
</clipPath>
<clipPath id="clip7_4479_470">
<rect width="40" height="40" fill="white" transform="translate(164 64)"/>
</clipPath>
<clipPath id="clip8_4479_470">
<rect width="48" height="48" fill="white" transform="translate(216 60)"/>
</clipPath>
</defs>
</svg>
