<svg width="264" height="108" viewBox="0 0 264 108" fill="none" xmlns="http://www.w3.org/2000/svg">
<g id="Search">
<g clip-path="url(#clip0_1107_693)">
<g id="Size=12px, Filled=false">
<path id="Vector" d="M10.7349 29.5152C10.8813 29.6616 11.1188 29.6616 11.2652 29.5152C11.4117 29.3687 11.4117 29.1313 11.2652 28.9848L10.7349 29.5152ZM5.125 27.5V27.875C7.74835 27.875 9.875 25.7484 9.875 23.125L9.5 23.125H9.125C9.125 25.3341 7.33414 27.125 5.125 27.125V27.5ZM9.5 23.125L9.875 23.125C9.875 20.5016 7.74835 18.375 5.125 18.375V18.75V19.125C7.33414 19.125 9.125 20.9159 9.125 23.125H9.5ZM5.125 18.75V18.375C2.50165 18.375 0.375 20.5016 0.375 23.125H0.75L1.125 23.125C1.125 20.9159 2.91586 19.125 5.125 19.125V18.75ZM0.75 23.125H0.375C0.375 25.7484 2.50165 27.875 5.125 27.875V27.5V27.125C2.91586 27.125 1.125 25.3341 1.125 23.125L0.75 23.125ZM8.00006 26.25L7.7349 26.5152L10.7349 29.5152L11.0001 29.25L11.2652 28.9848L8.26523 25.9848L8.00006 26.25Z" fill="#111111"/>
</g>
<g id="Size=16px, Filled=false">
<path id="Vector_2" d="M38.3132 31.3536C38.5085 31.5488 38.825 31.5488 39.0203 31.3536C39.2156 31.1583 39.2156 30.8417 39.0203 30.6464L38.3132 31.3536ZM30.8333 28.6667V29.1667C34.3311 29.1667 37.1667 26.3311 37.1667 22.8333H36.6667H36.1667C36.1667 25.7789 33.7789 28.1667 30.8333 28.1667V28.6667ZM36.6667 22.8333H37.1667C37.1667 19.3355 34.3311 16.5 30.8333 16.5V17V17.5C33.7789 17.5 36.1667 19.8878 36.1667 22.8333H36.6667ZM30.8333 17V16.5C27.3355 16.5 24.5 19.3355 24.5 22.8333H25H25.5C25.5 19.8878 27.8878 17.5 30.8333 17.5V17ZM25 22.8333H24.5C24.5 26.3311 27.3355 29.1667 30.8333 29.1667V28.6667V28.1667C27.8878 28.1667 25.5 25.7789 25.5 22.8333H25ZM34.6667 27L34.3132 27.3536L38.3132 31.3536L38.6667 31L39.0203 30.6464L35.0203 26.6464L34.6667 27Z" fill="#111111"/>
</g>
<g id="Size=20px, Filled=false">
<path id="Vector_3" d="M69.8915 33.1919C70.1356 33.436 70.5313 33.436 70.7754 33.1919C71.0195 32.9479 71.0195 32.5521 70.7754 32.3081L69.8915 33.1919ZM60.5417 29.8333V30.4583C64.9139 30.4583 68.4583 26.9139 68.4583 22.5417H67.8333L67.2083 22.5417C67.2083 26.2236 64.2236 29.2083 60.5417 29.2083V29.8333ZM67.8333 22.5417H68.4583C68.4583 18.1694 64.9139 14.625 60.5417 14.625V15.25V15.875C64.2236 15.875 67.2083 18.8598 67.2083 22.5417L67.8333 22.5417ZM60.5417 15.25V14.625C56.1694 14.625 52.625 18.1694 52.625 22.5417L53.25 22.5417H53.875C53.875 18.8598 56.8598 15.875 60.5417 15.875V15.25ZM53.25 22.5417L52.625 22.5417C52.625 26.9139 56.1694 30.4583 60.5417 30.4583V29.8333V29.2083C56.8598 29.2083 53.875 26.2236 53.875 22.5417H53.25ZM65.3334 27.75L64.8915 28.1919L69.8915 33.1919L70.3334 32.75L70.7754 32.3081L65.7754 27.3081L65.3334 27.75Z" fill="#111111"/>
</g>
<g id="Size=24px, Filled=false">
<path id="Vector_4" d="M100 28L106 34M94 30C98.4183 30 102 26.4183 102 22C102 17.5817 98.4183 14 94 14C89.5817 14 86 17.5817 86 22C86 26.4183 89.5817 30 94 30Z" stroke="#111111" stroke-width="1.5" stroke-linecap="round" stroke-linejoin="round"/>
</g>
<g id="Size=32px, Filled=false">
<path id="Vector_5" d="M148.626 38.7071C149.017 39.0976 149.65 39.0976 150.041 38.7071C150.431 38.3166 150.431 37.6834 150.041 37.2929L148.626 38.7071ZM133.667 33.3333V34.3333C140.662 34.3333 146.333 28.6623 146.333 21.6667H145.333H144.333C144.333 27.5577 139.558 32.3333 133.667 32.3333V33.3333ZM145.333 21.6667H146.333C146.333 14.6711 140.662 9 133.667 9V10V11C139.558 11 144.333 15.7756 144.333 21.6667H145.333ZM133.667 10V9C126.671 9 121 14.6711 121 21.6667H122H123C123 15.7756 127.776 11 133.667 11V10ZM122 21.6667H121C121 28.6623 126.671 34.3333 133.667 34.3333V33.3333V32.3333C127.776 32.3333 123 27.5577 123 21.6667H122ZM141.333 30L140.626 30.7071L148.626 38.7071L149.333 38L150.041 37.2929L142.041 29.2929L141.333 30Z" fill="#111111"/>
</g>
<g id="Size=40px, Filled=false">
<path id="Vector_6" d="M199.783 42.3839C200.271 42.872 201.063 42.872 201.551 42.3839C202.039 41.8957 202.039 41.1043 201.551 40.6161L199.783 42.3839ZM181.083 35.6667V36.9167C189.828 36.9167 196.917 29.8278 196.917 21.0833H195.667L194.417 21.0833C194.417 28.4471 188.447 34.4167 181.083 34.4167V35.6667ZM195.667 21.0833H196.917C196.917 12.3388 189.828 5.25 181.083 5.25V6.5V7.75C188.447 7.75 194.417 13.7195 194.417 21.0833L195.667 21.0833ZM181.083 6.5V5.25C172.339 5.25 165.25 12.3388 165.25 21.0833L166.5 21.0833H167.75C167.75 13.7195 173.72 7.75 181.083 7.75V6.5ZM166.5 21.0833L165.25 21.0833C165.25 29.8278 172.339 36.9167 181.083 36.9167V35.6667V34.4167C173.72 34.4167 167.75 28.4471 167.75 21.0833H166.5ZM190.667 31.5L189.783 32.3839L199.783 42.3839L200.667 41.5L201.551 40.6161L191.551 30.6161L190.667 31.5Z" fill="#111111"/>
</g>
<g id="Size=48px, Filled=false">
<path id="Vector_7" d="M258.94 46.0607C259.525 46.6464 260.475 46.6464 261.061 46.0607C261.647 45.4749 261.647 44.5251 261.061 43.9393L258.94 46.0607ZM236.5 38V39.5C246.993 39.5 255.5 30.9934 255.5 20.5L254 20.5H252.5C252.5 29.3366 245.337 36.5 236.5 36.5V38ZM254 20.5L255.5 20.5C255.5 10.0066 246.993 1.5 236.5 1.5V3V4.5C245.337 4.5 252.5 11.6634 252.5 20.5H254ZM236.5 3V1.5C226.007 1.5 217.5 10.0066 217.5 20.5H219L220.5 20.5C220.5 11.6634 227.663 4.5 236.5 4.5V3ZM219 20.5H217.5C217.5 30.9934 226.007 39.5 236.5 39.5V38V36.5C227.663 36.5 220.5 29.3366 220.5 20.5L219 20.5ZM248 33L246.94 34.0607L258.94 46.0607L260 45L261.061 43.9393L249.061 31.9393L248 33Z" fill="#111111"/>
</g>
<g id="Size=12px, Filled=true" clip-path="url(#clip1_1107_693)">
<path id="Vector_8" d="M11.6914 88.265L9.37407 85.97C10.0076 85.0197 10.3058 83.8846 10.2212 82.7452C10.1366 81.6058 9.67417 80.5274 8.9073 79.6812C8.14044 78.8351 7.11314 78.2697 5.9886 78.075C4.86406 77.8803 3.70677 78.0673 2.70059 78.6065C1.6944 79.1456 0.897017 80.0059 0.43511 81.0507C-0.026796 82.0955 -0.126736 83.2648 0.151167 84.373C0.42907 85.4812 1.06888 86.4646 1.96895 87.167C2.86903 87.8695 3.97774 88.2506 5.11898 88.25C6.13181 88.251 7.12167 87.948 7.9607 87.38L10.283 89.705C10.4702 89.8913 10.7233 89.9958 10.9872 89.9958C11.2511 89.9958 11.5043 89.8913 11.6914 89.705C11.7881 89.6117 11.865 89.4999 11.9175 89.3762C11.97 89.2525 11.9971 89.1194 11.9971 88.985C11.9971 88.8506 11.97 88.7175 11.9175 88.5938C11.865 88.4701 11.7881 88.3583 11.6914 88.265ZM5.11898 79.47C5.8349 79.47 6.53475 79.6825 7.13008 80.0806C7.72541 80.4787 8.18951 81.0445 8.4637 81.7066C8.7379 82.3687 8.8099 83.0973 8.67059 83.8004C8.53128 84.5034 8.18693 85.1493 7.68105 85.6565C7.17517 86.1637 6.53047 86.5093 5.82842 86.6497C5.12638 86.7902 4.39851 86.7191 3.73681 86.4455C3.0751 86.1719 2.50926 85.7081 2.1108 85.1126C1.71234 84.5171 1.49915 83.8168 1.49816 83.1C1.49816 82.1381 1.87948 81.2156 2.55837 80.535C3.23726 79.8544 4.15822 79.4713 5.11898 79.47Z" fill="#111111"/>
</g>
<g id="Size=16px, Filled=true" clip-path="url(#clip2_1107_693)">
<path id="Vector_9" d="M39.5885 89.6867L36.4988 86.6267C37.3435 85.3596 37.741 83.8462 37.6282 82.327C37.5155 80.8078 36.8989 79.3698 35.8764 78.2416C34.8539 77.1134 33.4842 76.3596 31.9848 76.1C30.4854 75.8404 28.9424 76.0898 27.6008 76.8086C26.2592 77.5275 25.196 78.6746 24.5801 80.0676C23.9643 81.4607 23.831 83.0198 24.2016 84.4973C24.5721 85.9749 25.4252 87.2861 26.6253 88.2227C27.8254 89.1593 29.3037 89.6675 30.8253 89.6667C32.1757 89.668 33.4956 89.264 34.6143 88.5067L37.7107 91.6067C37.9602 91.855 38.2978 91.9944 38.6496 91.9944C39.0015 91.9944 39.339 91.855 39.5885 91.6067C39.7174 91.4823 39.8199 91.3332 39.89 91.1682C39.96 91.0033 39.9961 90.8259 39.9961 90.6467C39.9961 90.4675 39.96 90.2901 39.89 90.1251C39.8199 89.9602 39.7174 89.8111 39.5885 89.6867ZM30.8253 77.96C31.7799 77.96 32.713 78.2433 33.5068 78.7741C34.3006 79.3049 34.9193 80.0594 35.2849 80.9422C35.6505 81.825 35.7465 82.7964 35.5608 83.7338C35.375 84.6712 34.9159 85.5324 34.2414 86.2087C33.5669 86.8849 32.7073 87.3457 31.7712 87.533C30.8352 87.7202 29.8647 87.6255 28.9824 87.2607C28.1001 86.8959 27.3457 86.2774 26.8144 85.4834C26.2831 84.6895 25.9989 83.7557 25.9975 82.8C25.9975 81.5175 26.506 80.2875 27.4112 79.38C28.3163 78.4725 29.5443 77.9618 30.8253 77.96Z" fill="#111111"/>
</g>
<g id="Size=20px, Filled=true" clip-path="url(#clip3_1107_693)">
<path id="Vector_10" d="M71.4857 91.1083L67.6235 87.2833C68.6793 85.6994 69.1763 83.8077 69.0353 81.9087C68.8944 80.0097 68.1236 78.2123 66.8455 76.802C65.5674 75.3918 63.8552 74.4495 61.981 74.125C60.1068 73.8004 58.178 74.1122 56.501 75.0108C54.824 75.9094 53.495 77.3432 52.7252 79.0845C51.9553 80.8258 51.7888 82.7747 52.2519 84.6217C52.7151 86.4686 53.7815 88.1076 55.2816 89.2784C56.7817 90.4491 58.6296 91.0844 60.5316 91.0833C62.2197 91.0851 63.8695 90.58 65.2678 89.6333L69.1384 93.5083C69.4503 93.8188 69.8722 93.993 70.312 93.993C70.7518 93.993 71.1737 93.8188 71.4857 93.5083C71.6468 93.3529 71.7749 93.1665 71.8625 92.9603C71.95 92.7541 71.9951 92.5324 71.9951 92.3083C71.9951 92.0843 71.95 91.8626 71.8625 91.6564C71.7749 91.4502 71.6468 91.2638 71.4857 91.1083ZM60.5316 76.45C61.7248 76.45 62.8912 76.8041 63.8835 77.4676C64.8757 78.1311 65.6492 79.0742 66.1062 80.1777C66.5632 81.2812 66.6832 82.4955 66.451 83.6673C66.2188 84.839 65.6449 85.9156 64.8017 86.7608C63.9586 87.6061 62.8841 88.1822 61.714 88.4162C60.544 88.6503 59.3309 88.5318 58.228 88.0758C57.1252 87.6198 56.1821 86.8468 55.518 85.8543C54.8539 84.8619 54.4986 83.6946 54.4969 82.5C54.4969 80.8969 55.1325 79.3593 56.2639 78.225C57.3954 77.0906 58.9304 76.4522 60.5316 76.45Z" fill="#111111"/>
</g>
<g id="Size=24px, Filled=true" clip-path="url(#clip4_1107_693)">
<path id="Vector_11" d="M107.383 92.53L102.748 87.94C104.015 86.0393 104.612 83.7693 104.442 81.4905C104.273 79.2116 103.348 77.0547 101.815 75.3624C100.281 73.6701 98.2263 72.5394 95.9772 72.15C93.7281 71.7605 91.4135 72.1347 89.4012 73.213C87.3888 74.2912 85.794 76.0118 84.8702 78.1014C83.9464 80.191 83.7465 82.5297 84.3023 84.746C84.8581 86.9623 86.1378 88.9291 87.9379 90.334C89.7381 91.7389 91.9555 92.5013 94.238 92.5C96.2636 92.5021 98.2433 91.896 99.9214 90.76L104.566 95.41C104.94 95.7825 105.447 95.9916 105.974 95.9916C106.502 95.9916 107.009 95.7825 107.383 95.41C107.576 95.2234 107.73 94.9998 107.835 94.7524C107.94 94.5049 107.994 94.2389 107.994 93.97C107.994 93.7012 107.94 93.4351 107.835 93.1877C107.73 92.9403 107.576 92.7166 107.383 92.53ZM94.238 74.94C95.6698 74.94 97.0695 75.365 98.2602 76.1612C99.4508 76.9574 100.379 78.0891 100.927 79.4133C101.476 80.7374 101.62 82.1947 101.341 83.6007C101.063 85.0068 100.374 86.2987 99.3621 87.313C98.3503 88.3273 97.0609 89.0186 95.6568 89.2995C94.2528 89.5804 92.797 89.4382 91.4736 88.891C90.1502 88.3438 89.0185 87.4161 88.2216 86.2252C87.4247 85.0342 86.9983 83.6335 86.9963 82.2C86.9963 80.2763 87.759 78.4312 89.1167 77.07C90.4745 75.7087 92.3164 74.9427 94.238 74.94Z" fill="#111111"/>
</g>
<g id="Size=32px, Filled=true" clip-path="url(#clip5_1107_693)">
<path id="Vector_12" d="M151.177 95.3734L144.998 89.2534C146.687 86.7191 147.482 83.6924 147.256 80.6539C147.031 77.6155 145.798 74.7397 143.753 72.4832C141.708 70.2268 138.968 68.7192 135.97 68.2C132.971 67.6807 129.885 68.1796 127.202 69.6173C124.518 71.055 122.392 73.3491 121.16 76.1352C119.929 78.9213 119.662 82.0396 120.403 84.9947C121.144 87.9498 122.85 90.5722 125.251 92.4454C127.651 94.3185 130.607 95.335 133.651 95.3334C136.351 95.3361 138.991 94.528 141.229 93.0134L147.421 99.2134C147.92 99.71 148.596 99.9888 149.299 99.9888C150.003 99.9888 150.678 99.71 151.177 99.2134C151.435 98.9646 151.64 98.6664 151.78 98.3365C151.92 98.0066 151.992 97.6518 151.992 97.2934C151.992 96.9349 151.92 96.5801 151.78 96.2502C151.64 95.9203 151.435 95.6221 151.177 95.3734ZM133.651 71.92C135.56 71.92 137.426 72.4866 139.014 73.5482C140.601 74.6098 141.839 76.1188 142.57 77.8843C143.301 79.6499 143.493 81.5929 143.122 83.4677C142.75 85.3424 141.832 87.0649 140.483 88.4173C139.134 89.7698 137.415 90.6915 135.542 91.066C133.67 91.4405 131.729 91.2509 129.965 90.5213C128.2 89.7917 126.691 88.5548 125.629 86.9669C124.566 85.379 123.998 83.5113 123.995 81.6C123.995 79.035 125.012 76.5749 126.822 74.7599C128.633 72.945 131.089 71.9236 133.651 71.92Z" fill="#111111"/>
</g>
<g id="Size=40px, Filled=true" clip-path="url(#clip6_1107_693)">
<path id="Vector_13" d="M202.971 98.2167L195.247 90.5667C197.359 87.3989 198.353 83.6155 198.071 79.8174C197.789 76.0194 196.247 72.4246 193.691 69.604C191.135 66.7835 187.71 64.899 183.962 64.2499C180.214 63.6009 176.356 64.2244 173.002 66.0216C169.648 67.8187 166.99 70.6864 165.45 74.169C163.911 77.6516 163.578 81.5495 164.504 85.2433C165.43 88.9372 167.563 92.2152 170.563 94.5567C173.563 96.8982 177.259 98.1688 181.063 98.1667C184.439 98.1701 187.739 97.1599 190.536 95.2667L198.277 103.017C198.901 103.638 199.744 103.986 200.624 103.986C201.504 103.986 202.347 103.638 202.971 103.017C203.294 102.706 203.55 102.333 203.725 101.921C203.9 101.508 203.99 101.065 203.99 100.617C203.99 100.169 203.9 99.7252 203.725 99.3128C203.55 98.9004 203.294 98.5276 202.971 98.2167ZM181.063 68.9C183.45 68.9 185.782 69.6083 187.767 70.9353C189.751 72.2623 191.298 74.1485 192.212 76.3554C193.126 78.5624 193.366 80.9911 192.902 83.3346C192.438 85.6781 191.29 87.8311 189.603 89.5217C187.917 91.2122 185.768 92.3644 183.428 92.8325C181.088 93.3006 178.662 93.0637 176.456 92.1517C174.25 91.2397 172.364 89.6935 171.036 87.7086C169.708 85.7237 168.997 83.3892 168.994 81C168.994 77.7938 170.265 74.7186 172.528 72.4499C174.791 70.1812 177.861 68.9044 181.063 68.9Z" fill="#111111"/>
</g>
<g id="Size=48px, Filled=true" clip-path="url(#clip7_1107_693)">
<path id="Vector_14" d="M262.766 101.06L253.496 91.88C256.03 88.0787 257.223 83.5385 256.885 78.9809C256.546 74.4233 254.697 70.1095 251.629 66.7248C248.562 63.3402 244.453 61.0788 239.954 60.2999C235.456 59.5211 230.827 60.2693 226.802 62.4259C222.778 64.5825 219.588 68.0237 217.74 72.2028C215.893 76.382 215.493 81.0594 216.605 85.492C217.716 89.9246 220.276 93.8583 223.876 96.668C227.476 99.4778 231.911 101.003 236.476 101C240.527 101.004 244.487 99.7919 247.843 97.52L257.132 106.82C257.881 107.565 258.893 107.983 259.949 107.983C261.004 107.983 262.017 107.565 262.766 106.82C263.152 106.447 263.46 106 263.67 105.505C263.88 105.01 263.988 104.478 263.988 103.94C263.988 103.402 263.88 102.87 263.67 102.375C263.46 101.881 263.152 101.433 262.766 101.06ZM236.476 65.88C239.34 65.88 242.139 66.7299 244.52 68.3223C246.902 69.9147 248.758 72.1781 249.855 74.8265C250.952 77.4749 251.24 80.3893 250.682 83.2015C250.125 86.0137 248.748 88.5973 246.724 90.626C244.701 92.6547 242.122 94.0372 239.314 94.599C236.506 95.1607 233.594 94.8764 230.947 93.782C228.3 92.6876 226.037 90.8322 224.443 88.4503C222.849 86.0685 221.997 83.267 221.993 80.4C221.993 76.5525 223.518 72.8624 226.233 70.1399C228.949 67.4174 232.633 65.8853 236.476 65.88Z" fill="#111111"/>
</g>
</g>
</g>
<defs>
<clipPath id="clip0_1107_693">
<rect width="264" height="108" rx="5" fill="white"/>
</clipPath>
<clipPath id="clip1_1107_693">
<rect width="12" height="12" fill="white" transform="translate(0 78)"/>
</clipPath>
<clipPath id="clip2_1107_693">
<rect width="16" height="16" fill="white" transform="translate(24 76)"/>
</clipPath>
<clipPath id="clip3_1107_693">
<rect width="20" height="20" fill="white" transform="translate(52 74)"/>
</clipPath>
<clipPath id="clip4_1107_693">
<rect width="24" height="24" fill="white" transform="translate(84 72)"/>
</clipPath>
<clipPath id="clip5_1107_693">
<rect width="32" height="32" fill="white" transform="translate(120 68)"/>
</clipPath>
<clipPath id="clip6_1107_693">
<rect width="40" height="40" fill="white" transform="translate(164 64)"/>
</clipPath>
<clipPath id="clip7_1107_693">
<rect width="48" height="48" fill="white" transform="translate(216 60)"/>
</clipPath>
</defs>
</svg>
