<svg width="264" height="108" viewBox="0 0 264 108" fill="none" xmlns="http://www.w3.org/2000/svg">
<g id="Settings">
<g clip-path="url(#clip0_1110_1312)">
<g id="Size=12px, Filled=false">
<g id="Vector">
<path fill-rule="evenodd" clip-rule="evenodd" d="M5.32079 19.5362C5.49405 19.7286 5.74077 19.8384 5.99963 19.8384C6.25849 19.8384 6.50521 19.7286 6.67847 19.5362L7.12014 19.0515C7.37951 18.7644 7.79146 18.6716 8.14888 18.8197C8.5063 18.9678 8.73186 19.3249 8.71219 19.7113L8.67904 20.365C8.66607 20.6229 8.76274 20.8743 8.94516 21.057C9.12758 21.2397 9.37874 21.3367 9.6366 21.3241L10.2902 21.291C10.6764 21.272 11.0328 21.4978 11.1805 21.8551C11.3282 22.2124 11.2353 22.624 10.9485 22.8833L10.462 23.3222C10.27 23.4957 10.1603 23.7425 10.1603 24.0014C10.1603 24.2603 10.27 24.507 10.462 24.6806L10.9485 25.1195C11.2356 25.3789 11.3284 25.7909 11.1803 26.1484C11.0322 26.5059 10.6752 26.7315 10.2888 26.7118L9.6352 26.6786C9.37677 26.6653 9.12482 26.7622 8.94184 26.9452C8.75886 27.1282 8.66201 27.3802 8.6753 27.6387L8.70845 28.2924C8.72557 28.6768 8.50034 29.0308 8.14493 29.1782C7.78952 29.3255 7.37992 29.2346 7.12014 28.9508L6.6808 28.4647C6.50739 28.2726 6.26073 28.163 6.00197 28.163C5.7432 28.163 5.49654 28.2726 5.32313 28.4647L4.88193 28.9508C4.62253 29.236 4.21221 29.3279 3.85599 29.1806C3.49976 29.0333 3.27409 28.6784 3.29174 28.2933L3.32536 27.6396C3.33865 27.3811 3.2418 27.1291 3.05882 26.9461C2.87584 26.7631 2.62389 26.6663 2.36546 26.6796L1.71183 26.7127C1.3256 26.7329 0.968475 26.5078 0.820042 26.1506C0.671609 25.7934 0.763992 25.3814 1.05073 25.1218L1.53675 24.6829C1.72884 24.5094 1.83846 24.2626 1.83846 24.0037C1.83846 23.7448 1.72884 23.4981 1.53675 23.3245L1.05073 22.8833C0.764954 22.624 0.672708 22.2132 0.820201 21.8566C0.967694 21.5 1.32316 21.2744 1.70856 21.2929L2.36219 21.326C2.62112 21.3396 2.87365 21.2426 3.0569 21.0592C3.24015 20.8757 3.33689 20.6231 3.32302 20.3641L3.29174 19.7099C3.27367 19.3246 3.49918 18.9694 3.85552 18.8219C4.21185 18.6743 4.62242 18.7662 4.88193 19.0515L5.32079 19.5362Z" stroke="#111111" stroke-width="0.75" stroke-linecap="round" stroke-linejoin="round"/>
<path fill-rule="evenodd" clip-rule="evenodd" d="M6 26.25C7.24264 26.25 8.25 25.2426 8.25 24C8.25 22.7574 7.24264 21.75 6 21.75C4.75736 21.75 3.75 22.7574 3.75 24C3.75 25.2426 4.75736 26.25 6 26.25Z" stroke="#111111" stroke-width="0.75" stroke-linecap="round" stroke-linejoin="round"/>
</g>
</g>
<g id="Size=16px, Filled=false">
<g id="Vector_2">
<path fill-rule="evenodd" clip-rule="evenodd" d="M31.0944 18.0483C31.3254 18.3048 31.6544 18.4512 31.9995 18.4512C32.3447 18.4512 32.6736 18.3048 32.9046 18.0483L33.4935 17.402C33.8394 17.0192 34.3886 16.8955 34.8652 17.093C35.3417 17.2905 35.6425 17.7665 35.6162 18.2818L35.5721 19.1534C35.5548 19.4972 35.6837 19.8323 35.9269 20.076C36.1701 20.3196 36.505 20.449 36.8488 20.4322L37.7203 20.388C38.2351 20.3626 38.7103 20.6637 38.9073 21.1401C39.1043 21.6165 38.9805 22.1654 38.598 22.511L37.9494 23.0963C37.6933 23.3277 37.5471 23.6567 37.5471 24.0019C37.5471 24.347 37.6933 24.676 37.9494 24.9074L38.598 25.4927C38.9808 25.8385 39.1045 26.3879 38.9071 26.8645C38.7096 27.3411 38.2336 27.6419 37.7184 27.6157L36.8469 27.5715C36.5024 27.5538 36.1664 27.6829 35.9225 27.9269C35.6785 28.171 35.5493 28.5069 35.5671 28.8516L35.6113 29.7232C35.6341 30.2357 35.3338 30.7078 34.8599 30.9042C34.386 31.1006 33.8399 30.9795 33.4935 30.6011L32.9077 29.9529C32.6765 29.6968 32.3476 29.5506 32.0026 29.5506C31.6576 29.5506 31.3287 29.6968 31.0975 29.9529L30.5092 30.6011C30.1634 30.9813 29.6163 31.1038 29.1413 30.9074C28.6663 30.7111 28.3655 30.2379 28.389 29.7244L28.4338 28.8528C28.4515 28.5082 28.3224 28.1722 28.0784 27.9282C27.8345 27.6842 27.4985 27.555 27.1539 27.5727L26.2824 27.617C25.7675 27.6438 25.2913 27.3437 25.0934 26.8674C24.8955 26.3912 25.0187 25.8419 25.401 25.4958L26.049 24.9105C26.3051 24.6792 26.4513 24.3501 26.4513 24.005C26.4513 23.6598 26.3051 23.3308 26.049 23.0994L25.401 22.511C25.0199 22.1653 24.8969 21.6176 25.0936 21.1421C25.2903 20.6667 25.7642 20.3659 26.2781 20.3905L27.1496 20.4347C27.4948 20.4528 27.8315 20.3235 28.0759 20.0789C28.3202 19.8343 28.4492 19.4974 28.4307 19.1521L28.389 18.2799C28.3649 17.7662 28.6656 17.2925 29.1407 17.0958C29.6158 16.8991 30.1632 17.0216 30.5092 17.402L31.0944 18.0483Z" stroke="#111111" stroke-linecap="round" stroke-linejoin="round"/>
<path fill-rule="evenodd" clip-rule="evenodd" d="M32 27C33.6569 27 35 25.6569 35 24C35 22.3431 33.6569 21 32 21C30.3431 21 29 22.3431 29 24C29 25.6569 30.3431 27 32 27Z" stroke="#111111" stroke-linecap="round" stroke-linejoin="round"/>
</g>
</g>
<g id="Size=20px, Filled=false">
<g id="Vector_3">
<path fill-rule="evenodd" clip-rule="evenodd" d="M60.814 16.2061C61.1165 16.542 61.5473 16.7337 61.9993 16.7337C62.4513 16.7337 62.882 16.542 63.1846 16.2061L63.9557 15.3598C64.4086 14.8585 65.1279 14.6965 65.7519 14.9551C66.376 15.2137 66.7698 15.8371 66.7355 16.5119L66.6776 17.6533C66.655 18.1036 66.8238 18.5424 67.1423 18.8614C67.4608 19.1805 67.8993 19.3499 68.3495 19.3279L69.4908 19.27C70.165 19.2368 70.7873 19.6311 71.0452 20.255C71.3031 20.8789 71.141 21.5975 70.6402 22.0502L69.7908 22.8166C69.4554 23.1196 69.264 23.5505 69.264 24.0025C69.264 24.4545 69.4554 24.8853 69.7908 25.1883L70.6402 25.9547C71.1414 26.4077 71.3035 27.127 71.0449 27.7512C70.7863 28.3754 70.163 28.7693 69.4884 28.7349L68.3471 28.677C67.8959 28.6538 67.456 28.8229 67.1365 29.1425C66.817 29.462 66.6479 29.902 66.6711 30.3533L66.729 31.4947C66.7589 32.1659 66.3656 32.784 65.745 33.0413C65.1245 33.2985 64.4093 33.1398 63.9557 32.6443L63.1886 31.7955C62.8858 31.4602 62.4552 31.2687 62.0034 31.2687C61.5515 31.2687 61.1209 31.4602 60.8181 31.7955L60.0477 32.6443C59.5948 33.1422 58.8784 33.3027 58.2564 33.0455C57.6344 32.7883 57.2404 32.1688 57.2712 31.4963L57.3299 30.3549C57.3531 29.9036 57.184 29.4636 56.8645 29.1441C56.545 28.8246 56.1051 28.6554 55.6539 28.6786L54.5126 28.7365C53.8383 28.7717 53.2147 28.3787 52.9555 27.755C52.6964 27.1313 52.8577 26.412 53.3583 25.9588L54.2069 25.1924C54.5423 24.8894 54.7337 24.4586 54.7337 24.0065C54.7337 23.5545 54.5423 23.1237 54.2069 22.8207L53.3583 22.0502C52.8594 21.5975 52.6983 20.8802 52.9558 20.2576C53.2134 19.635 53.834 19.2411 54.5069 19.2733L55.6482 19.3312C56.1003 19.355 56.5412 19.1856 56.8612 18.8653C57.1811 18.5449 57.35 18.1038 57.3258 17.6517L57.2712 16.5094C57.2397 15.8367 57.6334 15.2164 58.2556 14.9588C58.8777 14.7012 59.5946 14.8616 60.0477 15.3598L60.814 16.2061Z" stroke="#111111" stroke-width="1.25" stroke-linecap="round" stroke-linejoin="round"/>
<path fill-rule="evenodd" clip-rule="evenodd" d="M62 27.3333C63.8409 27.3333 65.3333 25.8409 65.3333 24C65.3333 22.159 63.8409 20.6666 62 20.6666C60.159 20.6666 58.6666 22.159 58.6666 24C58.6666 25.8409 60.159 27.3333 62 27.3333Z" stroke="#111111" stroke-width="1.25" stroke-linecap="round" stroke-linejoin="round"/>
</g>
</g>
<g id="Size=24px, Filled=false">
<g id="Vector_4">
<path fill-rule="evenodd" clip-rule="evenodd" d="M94.5769 14.6473C94.9399 15.0503 95.4568 15.2804 95.9992 15.2804C96.5416 15.2804 97.0585 15.0503 97.4216 14.6473L98.347 13.6318C98.8904 13.0302 99.7535 12.8357 100.502 13.1461C101.251 13.4564 101.724 14.2045 101.683 15.0142L101.613 16.3839C101.586 16.9242 101.789 17.4508 102.171 17.8337C102.553 18.2165 103.079 18.4198 103.62 18.3935L104.989 18.324C105.798 18.2841 106.545 18.7573 106.854 19.5059C107.164 20.2546 106.969 21.117 106.368 21.6602L105.349 22.5799C104.947 22.9435 104.717 23.4605 104.717 24.0029C104.717 24.5453 104.947 25.0624 105.349 25.4259L106.368 26.3456C106.97 26.8891 107.164 27.7524 106.854 28.5014C106.544 29.2504 105.796 29.7231 104.986 29.6818L103.617 29.6124C103.075 29.5845 102.547 29.7875 102.164 30.1709C101.78 30.5544 101.578 31.0823 101.605 31.6239L101.675 32.9936C101.711 33.799 101.239 34.5408 100.494 34.8495C99.7495 35.1581 98.8913 34.9677 98.347 34.3731L97.4264 33.3546C97.0631 32.9521 96.5463 32.7224 96.0041 32.7224C95.4619 32.7224 94.9451 32.9521 94.5818 33.3546L93.6574 34.3731C93.1139 34.9706 92.2542 35.1631 91.5078 34.8545C90.7614 34.546 90.2886 33.8025 90.3256 32.9956L90.396 31.6258C90.4238 31.0843 90.2209 30.5563 89.8375 30.1729C89.4541 29.7894 88.9262 29.5865 88.3848 29.6143L87.0153 29.6838C86.206 29.726 85.4578 29.2544 85.1468 28.5059C84.8358 27.7575 85.0293 26.8944 85.6301 26.3505L86.6484 25.4308C87.0509 25.0673 87.2806 24.5502 87.2806 24.0078C87.2806 23.4654 87.0509 22.9483 86.6484 22.5848L85.6301 21.6602C85.0313 21.117 84.8381 20.2562 85.1471 19.5091C85.4561 18.7619 86.2009 18.2893 87.0084 18.3279L88.3779 18.3974C88.9204 18.4259 89.4495 18.2227 89.8335 17.8383C90.2175 17.4539 90.4201 16.9245 90.3911 16.3819L90.3256 15.0112C90.2877 14.204 90.7602 13.4597 91.5068 13.1506C92.2534 12.8414 93.1136 13.0339 93.6574 13.6318L94.5769 14.6473Z" stroke="#111111" stroke-width="1.5" stroke-linecap="round" stroke-linejoin="round"/>
<path fill-rule="evenodd" clip-rule="evenodd" d="M96 28C98.2091 28 100 26.2091 100 24C100 21.7909 98.2091 20 96 20C93.7909 20 92 21.7909 92 24C92 26.2091 93.7909 28 96 28Z" stroke="#111111" stroke-width="1.5" stroke-linecap="round" stroke-linejoin="round"/>
</g>
</g>
<g id="Size=32px, Filled=false">
<g id="Vector_5">
<path fill-rule="evenodd" clip-rule="evenodd" d="M134.102 11.5298C134.586 12.0671 135.276 12.374 135.999 12.374C136.722 12.374 137.411 12.0671 137.895 11.5298L139.129 10.1757C139.854 9.37364 141.005 9.11433 142.003 9.52814C143.002 9.94195 143.632 10.9394 143.577 12.0189L143.484 13.8452C143.448 14.5657 143.718 15.2678 144.228 15.7783C144.737 16.2887 145.439 16.5598 146.159 16.5246L147.985 16.432C149.064 16.3788 150.06 17.0097 150.472 18.0079C150.885 19.0061 150.626 20.1561 149.824 20.8803L148.465 22.1065C147.929 22.5913 147.622 23.2807 147.622 24.0039C147.622 24.7271 147.929 25.4165 148.465 25.9013L149.824 27.1275C150.626 27.8522 150.886 29.0032 150.472 30.0019C150.058 31.0005 149.061 31.6308 147.981 31.5758L146.155 31.4832C145.433 31.446 144.73 31.7167 144.218 32.2279C143.707 32.7392 143.437 33.4432 143.474 34.1652L143.566 35.9915C143.614 37.0654 142.985 38.0544 141.992 38.466C140.999 38.8776 139.855 38.6237 139.129 37.8308L137.902 36.4729C137.417 35.9362 136.728 35.63 136.005 35.63C135.283 35.63 134.593 35.9362 134.109 36.4729L132.876 37.8308C132.152 38.6275 131.005 38.8842 130.01 38.4728C129.015 38.0613 128.385 37.07 128.434 35.9941L128.528 34.1678C128.565 33.4458 128.294 32.7418 127.783 32.2305C127.272 31.7193 126.568 31.4487 125.846 31.4858L124.02 31.5784C122.941 31.6347 121.944 31.0058 121.529 30.008C121.114 29.0101 121.372 27.8592 122.173 27.134L123.531 25.9078C124.068 25.423 124.374 24.7337 124.374 24.0104C124.374 23.2872 124.068 22.5978 123.531 22.1131L122.173 20.8803C121.375 20.156 121.117 19.0083 121.529 18.0121C121.941 17.016 122.934 16.3858 124.011 16.4372L125.837 16.5299C126.561 16.5679 127.266 16.2969 127.778 15.7844C128.29 15.2719 128.56 14.566 128.521 13.8426L128.434 12.015C128.384 10.9387 129.014 9.94628 130.009 9.53412C131.004 9.12195 132.151 9.3786 132.876 10.1757L134.102 11.5298Z" stroke="#111111" stroke-width="2" stroke-linecap="round" stroke-linejoin="round"/>
<path fill-rule="evenodd" clip-rule="evenodd" d="M136 29.3333C138.945 29.3333 141.333 26.9455 141.333 24C141.333 21.0544 138.945 18.6666 136 18.6666C133.054 18.6666 130.667 21.0544 130.667 24C130.667 26.9455 133.054 29.3333 136 29.3333Z" stroke="#111111" stroke-width="2" stroke-linecap="round" stroke-linejoin="round"/>
</g>
</g>
<g id="Size=40px, Filled=false">
<g id="Vector_6">
<path fill-rule="evenodd" clip-rule="evenodd" d="M181.628 8.41212C182.233 9.08384 183.095 9.46735 183.999 9.46735C184.903 9.46735 185.764 9.08384 186.369 8.41212L187.912 6.71955C188.817 5.71695 190.256 5.39282 191.504 5.91008C192.752 6.42734 193.54 7.6741 193.471 9.0236L193.355 11.3064C193.31 12.207 193.648 13.0847 194.285 13.7227C194.922 14.3608 195.799 14.6997 196.699 14.6557L198.982 14.5399C200.33 14.4735 201.575 15.2621 202.091 16.5098C202.606 17.7576 202.282 19.195 201.281 20.1003L199.582 21.6331C198.911 22.2391 198.528 23.1008 198.528 24.0048C198.528 24.9088 198.911 25.7706 199.582 26.3765L201.281 27.9093C202.283 28.8152 202.607 30.254 202.09 31.5023C201.573 32.7506 200.326 33.5384 198.977 33.4697L196.694 33.3539C195.792 33.3075 194.912 33.6457 194.273 34.2848C193.634 34.9239 193.296 35.8038 193.342 36.7064L193.458 38.9893C193.518 40.3316 192.731 41.5679 191.49 42.0824C190.249 42.5969 188.819 42.2795 187.912 41.2884L186.377 39.591C185.772 38.9202 184.911 38.5374 184.007 38.5374C183.103 38.5374 182.242 38.9202 181.636 39.591L180.096 41.2884C179.19 42.2843 177.757 42.6052 176.513 42.0909C175.269 41.5766 174.481 40.3374 174.543 38.9925L174.66 36.7097C174.706 35.8071 174.368 34.9271 173.729 34.2881C173.09 33.649 172.21 33.3107 171.308 33.3572L169.026 33.4729C167.677 33.5433 166.43 32.7572 165.911 31.5099C165.393 30.2625 165.716 28.8239 166.717 27.9175L168.414 26.3847C169.085 25.7787 169.468 24.917 169.468 24.013C169.468 23.1089 169.085 22.2472 168.414 21.6412L166.717 20.1003C165.719 19.1949 165.397 17.7603 165.912 16.5151C166.427 15.2699 167.668 14.4821 169.014 14.5465L171.297 14.6622C172.201 14.7098 173.083 14.3711 173.723 13.7304C174.363 13.0898 174.7 12.2075 174.652 11.3032L174.543 9.0187C174.48 7.67324 175.267 6.43275 176.511 5.91755C177.756 5.40235 179.189 5.72316 180.096 6.71955L181.628 8.41212Z" stroke="#111111" stroke-width="2.5" stroke-linecap="round" stroke-linejoin="round"/>
<path fill-rule="evenodd" clip-rule="evenodd" d="M184 30.6667C187.682 30.6667 190.667 27.6819 190.667 24C190.667 20.3181 187.682 17.3334 184 17.3334C180.318 17.3334 177.333 20.3181 177.333 24C177.333 27.6819 180.318 30.6667 184 30.6667Z" stroke="#111111" stroke-width="2.5" stroke-linecap="round" stroke-linejoin="round"/>
</g>
</g>
<g id="Size=48px, Filled=false">
<g id="Vector_7">
<path fill-rule="evenodd" clip-rule="evenodd" d="M237.154 5.29459C237.88 6.10066 238.914 6.56087 239.998 6.56087C241.083 6.56087 242.117 6.10066 242.843 5.29459L244.694 3.2635C245.781 2.06039 247.507 1.67143 249.005 2.29214C250.503 2.91286 251.448 4.40897 251.365 6.02836L251.226 8.76778C251.172 9.84843 251.577 10.9017 252.342 11.6673C253.106 12.433 254.159 12.8397 255.239 12.7869L257.978 12.648C259.596 12.5682 261.09 13.5145 261.709 15.0118C262.328 16.5091 261.939 18.234 260.737 19.3204L258.698 21.1598C257.893 21.8869 257.434 22.921 257.434 24.0058C257.434 25.0906 257.893 26.1247 258.698 26.8519L260.737 28.6912C261.94 29.7783 262.329 31.5048 261.708 33.0028C261.087 34.5007 259.591 35.4461 257.972 35.3637L255.233 35.2247C254.15 35.169 253.094 35.5749 252.328 36.3418C251.561 37.1087 251.155 38.1647 251.211 39.2478L251.35 41.9872C251.421 43.598 250.478 45.0816 248.988 45.6989C247.499 46.3163 245.783 45.9355 244.694 44.7462L242.853 42.7092C242.126 41.9043 241.093 41.4449 240.008 41.4449C238.924 41.4449 237.89 41.9043 237.164 42.7092L235.315 44.7462C234.228 45.9412 232.508 46.3263 231.016 45.7091C229.523 45.0919 228.577 43.6049 228.651 41.9911L228.792 39.2517C228.848 38.1686 228.442 37.1126 227.675 36.3457C226.908 35.5789 225.852 35.1729 224.77 35.2286L222.031 35.3676C220.412 35.4521 218.916 34.5087 218.294 33.0119C217.672 31.5151 218.059 29.7887 219.26 28.701L221.297 26.8617C222.102 26.1345 222.561 25.1004 222.561 24.0156C222.561 22.9308 222.102 21.8967 221.297 21.1695L219.26 19.3204C218.063 18.234 217.676 16.5124 218.294 15.0182C218.912 13.5239 220.402 12.5786 222.017 12.6558L224.756 12.7947C225.841 12.8518 226.899 12.4453 227.667 11.6765C228.435 10.9078 228.84 9.84901 228.782 8.76387L228.651 6.02249C228.575 4.40794 229.52 2.91935 231.014 2.30111C232.507 1.68287 234.227 2.06784 235.315 3.2635L237.154 5.29459Z" stroke="#111111" stroke-width="3" stroke-linecap="round" stroke-linejoin="round"/>
<path fill-rule="evenodd" clip-rule="evenodd" d="M240 32C244.418 32 248 28.4183 248 24C248 19.5817 244.418 16 240 16C235.582 16 232 19.5817 232 24C232 28.4183 235.582 32 240 32Z" stroke="#111111" stroke-width="3" stroke-linecap="round" stroke-linejoin="round"/>
</g>
</g>
<g id="Size=12px, Filled=true" clip-path="url(#clip1_1110_1312)">
<path id="Vector_8" d="M11.1799 82.8723L10.552 82.6482C10.4611 82.6171 10.378 82.5667 10.3083 82.5006C10.2387 82.4344 10.1841 82.354 10.1484 82.2648C10.1101 82.1777 10.0903 82.0836 10.0903 81.9885C10.0903 81.8934 10.1101 81.7993 10.1484 81.7122L10.4723 81.1047C10.5776 80.8846 10.6119 80.6372 10.5706 80.3967C10.5293 80.1562 10.4144 79.9344 10.2417 79.7618C10.069 79.5893 9.84703 79.4745 9.60633 79.4332C9.36562 79.3919 9.11804 79.4262 8.89766 79.5314L8.28972 79.8202C8.20218 79.857 8.10815 79.876 8.01316 79.876C7.91817 79.876 7.82414 79.857 7.7366 79.8202C7.64836 79.7829 7.56875 79.7278 7.50273 79.6584C7.43672 79.5891 7.38572 79.5068 7.3529 79.4169L7.12867 78.7846C7.04612 78.5549 6.89461 78.3562 6.69482 78.2158C6.49504 78.0754 6.25673 78 6.01246 78C5.76819 78 5.52988 78.0754 5.33009 78.2158C5.13031 78.3562 4.97879 78.5549 4.89625 78.7846L4.6471 79.4318C4.61429 79.5218 4.56328 79.604 4.49727 79.6734C4.43126 79.7428 4.35164 79.7978 4.2634 79.8351C4.17586 79.872 4.08183 79.8909 3.98684 79.8909C3.89185 79.8909 3.79782 79.872 3.71028 79.8351L3.10234 79.5314C2.88196 79.4262 2.63438 79.3919 2.39367 79.4332C2.15297 79.4745 1.93098 79.5893 1.75829 79.7618C1.5856 79.9344 1.4707 80.1562 1.4294 80.3967C1.3881 80.6372 1.42244 80.8846 1.52769 81.1047L1.81671 81.7122C1.855 81.7993 1.87477 81.8934 1.87477 81.9885C1.87477 82.0836 1.855 82.1777 1.81671 82.2648C1.78101 82.354 1.72647 82.4344 1.65681 82.5006C1.58715 82.5667 1.50401 82.6171 1.41308 82.6482L0.785213 82.8723C0.555314 82.9547 0.35651 83.1061 0.215967 83.3058C0.0754247 83.5054 0 83.7435 0 83.9876C0 84.2316 0.0754247 84.4697 0.215967 84.6694C0.35651 84.869 0.555314 85.0204 0.785213 85.1028L1.41308 85.3269C1.50401 85.358 1.58715 85.4084 1.65681 85.4745C1.72647 85.5407 1.78101 85.6211 1.81671 85.7103C1.855 85.7974 1.87477 85.8915 1.87477 85.9866C1.87477 86.0817 1.855 86.1758 1.81671 86.2629L1.52769 86.8704C1.41349 87.0913 1.37209 87.3427 1.4094 87.5886C1.44671 87.8345 1.56082 88.0623 1.73543 88.2396C1.91005 88.4168 2.13625 88.5344 2.38173 88.5755C2.6272 88.6166 2.87941 88.5792 3.10234 88.4686L3.71028 88.1848C3.79712 88.1453 3.89143 88.1249 3.98684 88.1249C4.08225 88.1249 4.17656 88.1453 4.2634 88.1848C4.35213 88.2213 4.43216 88.2761 4.49828 88.3456C4.56439 88.4151 4.6151 88.4977 4.6471 88.5881L4.87133 89.2154C4.95388 89.4451 5.10539 89.6438 5.30518 89.7842C5.50497 89.9246 5.74327 90 5.98754 90C6.23181 90 6.47012 89.9246 6.66991 89.7842C6.86969 89.6438 7.02121 89.4451 7.10375 89.2154L7.32799 88.5881C7.35999 88.4977 7.4107 88.4151 7.47681 88.3456C7.54292 88.2761 7.62295 88.2213 7.71169 88.1848C7.79853 88.1453 7.89283 88.1249 7.98825 88.1249C8.08366 88.1249 8.17796 88.1453 8.26481 88.1848L8.87274 88.4686C9.09635 88.5888 9.35277 88.6338 9.60399 88.5969C9.8552 88.56 10.0878 88.4432 10.2674 88.2638C10.4469 88.0844 10.5638 87.852 10.6007 87.601C10.6376 87.35 10.5926 87.0938 10.4723 86.8704L10.1833 86.2629C10.145 86.1758 10.1252 86.0817 10.1252 85.9866C10.1252 85.8915 10.145 85.7974 10.1833 85.7103C10.219 85.6211 10.2735 85.5407 10.3432 85.4745C10.4129 85.4084 10.496 85.358 10.5869 85.3269L11.2148 85.1028C11.4447 85.0204 11.6435 84.869 11.784 84.6694C11.9246 84.4697 12 84.2316 12 83.9876C12 83.7435 11.9246 83.5054 11.784 83.3058C11.6435 83.1061 11.4447 82.9547 11.2148 82.8723H11.1799ZM5.98754 86.3725C5.51765 86.3611 5.06056 86.2171 4.66906 85.9572C4.27757 85.6973 3.96763 85.3321 3.77506 84.9037C3.65423 84.6134 3.59191 84.3022 3.59165 83.9878C3.5914 83.6735 3.65321 83.3622 3.77357 83.0717C3.89392 82.7812 4.07044 82.5174 4.29301 82.2952C4.51559 82.073 4.77985 81.8969 5.07066 81.7769C5.65823 81.5425 6.31419 81.5467 6.89874 81.7885C7.48329 82.0303 7.95022 82.4906 8.20003 83.0714C8.32085 83.3617 8.38318 83.6729 8.38343 83.9873C8.38369 84.3016 8.32187 84.613 8.20152 84.9034C8.08117 85.1939 7.90465 85.4577 7.68207 85.6799C7.4595 85.9021 7.19524 86.0782 6.90443 86.1982C6.61429 86.3195 6.30198 86.3788 5.98754 86.3725Z" fill="#111111"/>
</g>
<g id="Size=16px, Filled=true" clip-path="url(#clip2_1110_1312)">
<path id="Vector_9" d="M38.9065 82.4964L38.0694 82.1976C37.9481 82.1561 37.8373 82.089 37.7444 82.0008C37.6515 81.9126 37.5788 81.8053 37.5312 81.6865C37.4802 81.5703 37.4538 81.4449 37.4538 81.318C37.4538 81.1912 37.4802 81.0657 37.5312 80.9496L37.9631 80.1397C38.1034 79.8461 38.1492 79.5162 38.0941 79.1956C38.0391 78.8749 37.8859 78.5791 37.6556 78.3491C37.4254 78.119 37.1294 77.9659 36.8084 77.9109C36.4875 77.8559 36.1574 77.9017 35.8635 78.0419L35.053 78.4269C34.9362 78.476 34.8109 78.5013 34.6842 78.5013C34.5576 78.5013 34.4322 78.476 34.3155 78.4269C34.1978 78.3772 34.0917 78.3038 34.0036 78.2113C33.9156 78.1187 33.8476 78.0091 33.8039 77.8892L33.5049 77.0461C33.3948 76.7398 33.1928 76.475 32.9264 76.2877C32.66 76.1005 32.3423 76 32.0166 76C31.6909 76 31.3732 76.1005 31.1068 76.2877C30.8404 76.475 30.6384 76.7398 30.5283 77.0461L30.1961 77.9091C30.1524 78.029 30.0844 78.1387 29.9964 78.2312C29.9083 78.3237 29.8022 78.3971 29.6845 78.4468C29.5678 78.4959 29.4424 78.5212 29.3158 78.5212C29.1891 78.5212 29.0638 78.4959 28.947 78.4468L28.1365 78.0419C27.8426 77.9017 27.5125 77.8559 27.1916 77.9109C26.8706 77.9659 26.5746 78.119 26.3444 78.3491C26.1141 78.5791 25.9609 78.8749 25.9059 79.1956C25.8508 79.5162 25.8966 79.8461 26.0369 80.1397L26.4223 80.9496C26.4733 81.0657 26.4997 81.1912 26.4997 81.318C26.4997 81.4449 26.4733 81.5703 26.4223 81.6865C26.3747 81.8053 26.302 81.9126 26.2091 82.0008C26.1162 82.089 26.0053 82.1561 25.8841 82.1976L25.047 82.4964C24.7404 82.6063 24.4753 82.8082 24.288 83.0743C24.1006 83.3405 24 83.658 24 83.9834C24 84.3088 24.1006 84.6263 24.288 84.8925C24.4753 85.1586 24.7404 85.3605 25.047 85.4704L25.8841 85.7692C26.0053 85.8107 26.1162 85.8778 26.2091 85.966C26.302 86.0543 26.3747 86.1615 26.4223 86.2804C26.4733 86.3965 26.4997 86.5219 26.4997 86.6488C26.4997 86.7756 26.4733 86.9011 26.4223 87.0172L26.0369 87.8271C25.8847 88.1218 25.8295 88.457 25.8792 88.7848C25.9289 89.1127 26.0811 89.4164 26.3139 89.6527C26.5467 89.8891 26.8483 90.0458 27.1756 90.1007C27.5029 90.1555 27.8392 90.1056 28.1365 89.9581L28.947 89.5797C29.0628 89.5271 29.1886 89.4998 29.3158 89.4998C29.443 89.4998 29.5687 89.5271 29.6845 89.5797C29.8028 89.6284 29.9095 89.7014 29.9977 89.7941C30.0859 89.8868 30.1535 89.9969 30.1961 90.1175L30.4951 90.9539C30.6052 91.2602 30.8072 91.525 31.0736 91.7123C31.34 91.8995 31.6577 92 31.9834 92C32.3091 92 32.6268 91.8995 32.8932 91.7123C33.1596 91.525 33.3616 91.2602 33.4717 90.9539L33.7707 90.1175C33.8133 89.9969 33.8809 89.8868 33.9691 89.7941C34.0572 89.7014 34.1639 89.6284 34.2822 89.5797C34.398 89.5271 34.5238 89.4998 34.651 89.4998C34.7782 89.4998 34.9039 89.5271 35.0197 89.5797L35.8303 89.9581C36.1285 90.1184 36.4704 90.1784 36.8053 90.1292C37.1403 90.08 37.4504 89.9243 37.6898 89.6851C37.9292 89.4459 38.0851 89.136 38.1343 88.8013C38.1835 88.4667 38.1235 88.125 37.9631 87.8271L37.5777 87.0172C37.5267 86.9011 37.5003 86.7756 37.5003 86.6488C37.5003 86.5219 37.5267 86.3965 37.5777 86.2804C37.6253 86.1615 37.698 86.0543 37.7909 85.966C37.8838 85.8778 37.9947 85.8107 38.1159 85.7692L38.953 85.4704C39.2596 85.3605 39.5247 85.1586 39.712 84.8925C39.8994 84.6263 40 84.3088 40 83.9834C40 83.658 39.8994 83.3405 39.712 83.0743C39.5247 82.8082 39.2596 82.6063 38.953 82.4964H38.9065ZM31.9834 87.1633C31.3569 87.1481 30.7474 86.9562 30.2254 86.6097C29.7034 86.2631 29.2902 85.7761 29.0334 85.2049C28.8723 84.8179 28.7892 84.4029 28.7889 83.9838C28.7885 83.5646 28.871 83.1495 29.0314 82.7623C29.1919 82.375 29.4272 82.0232 29.724 81.7269C30.0208 81.4307 30.3731 81.1958 30.7609 81.0359C31.5443 80.7234 32.4189 80.7289 33.1983 81.0513C33.9777 81.3737 34.6003 81.9875 34.9334 82.7619C35.0945 83.1489 35.1776 83.5639 35.1779 83.983C35.1783 84.4022 35.0958 84.8173 34.9354 85.2045C34.7749 85.5918 34.5395 85.9436 34.2428 86.2399C33.946 86.5361 33.5936 86.771 33.2059 86.9309C32.819 87.0926 32.4026 87.1718 31.9834 87.1633Z" fill="#111111"/>
</g>
<g id="Size=20px, Filled=true" clip-path="url(#clip3_1110_1312)">
<path id="Vector_10" d="M70.6332 82.1205L69.5867 81.747C69.4352 81.6952 69.2966 81.6112 69.1805 81.501C69.0644 81.3907 68.9735 81.2567 68.914 81.1081C68.8502 80.9629 68.8172 80.8061 68.8172 80.6475C68.8172 80.489 68.8502 80.3321 68.914 80.187L69.4538 79.1746C69.6293 78.8076 69.6865 78.3953 69.6177 77.9944C69.5488 77.5936 69.3573 77.2239 69.0695 76.9364C68.7817 76.6488 68.4117 76.4574 68.0105 76.3887C67.6094 76.3199 67.1967 76.3771 66.8294 76.5523L65.8162 77.0336C65.6703 77.095 65.5136 77.1267 65.3553 77.1267C65.197 77.1267 65.0402 77.095 64.8943 77.0336C64.7473 76.9715 64.6146 76.8797 64.5046 76.7641C64.3945 76.6484 64.3095 76.5114 64.2548 76.3615L63.8811 75.3076C63.7435 74.9248 63.491 74.5937 63.158 74.3596C62.8251 74.1256 62.4279 74 62.0208 74C61.6137 74 61.2165 74.1256 60.8835 74.3596C60.5505 74.5937 60.298 74.9248 60.1604 75.3076L59.7452 76.3864C59.6905 76.5363 59.6055 76.6733 59.4954 76.789C59.3854 76.9046 59.2527 76.9964 59.1057 77.0585C58.9598 77.1199 58.803 77.1515 58.6447 77.1515C58.4864 77.1515 58.3297 77.1199 58.1838 77.0585L57.1706 76.5523C56.8033 76.3771 56.3906 76.3199 55.9895 76.3887C55.5883 76.4574 55.2183 76.6488 54.9305 76.9364C54.6427 77.2239 54.4512 77.5936 54.3823 77.9944C54.3135 78.3953 54.3707 78.8076 54.5462 79.1746L55.0278 80.187C55.0917 80.3321 55.1246 80.489 55.1246 80.6475C55.1246 80.8061 55.0917 80.9629 55.0278 81.1081C54.9683 81.2567 54.8774 81.3907 54.7613 81.501C54.6452 81.6112 54.5067 81.6952 54.3551 81.747L53.3087 82.1205C52.9255 82.2579 52.5942 82.5102 52.3599 82.8429C52.1257 83.1756 52 83.5725 52 83.9793C52 84.386 52.1257 84.7829 52.3599 85.1156C52.5942 85.4483 52.9255 85.7006 53.3087 85.8381L54.3551 86.2115C54.5067 86.2633 54.6452 86.3473 54.7613 86.4575C54.8774 86.5678 54.9683 86.7018 55.0278 86.8504C55.0917 86.9956 55.1246 87.1524 55.1246 87.311C55.1246 87.4695 55.0917 87.6264 55.0278 87.7715L54.5462 88.7839C54.3558 89.1522 54.2868 89.5712 54.349 89.981C54.4112 90.3908 54.6014 90.7705 54.8924 91.0659C55.1834 91.3613 55.5604 91.5573 55.9695 91.6258C56.3787 91.6944 56.799 91.632 57.1706 91.4477L58.1838 90.9747C58.3285 90.9089 58.4857 90.8748 58.6447 90.8748C58.8038 90.8748 58.9609 90.9089 59.1057 90.9747C59.2536 91.0355 59.3869 91.1268 59.4971 91.2426C59.6073 91.3584 59.6918 91.4962 59.7452 91.6468L60.1189 92.6924C60.2565 93.0752 60.509 93.4063 60.842 93.6404C61.1749 93.8744 61.5721 94 61.9792 94C62.3864 94 62.7835 93.8744 63.1165 93.6404C63.4495 93.4063 63.702 93.0752 63.8396 92.6924L64.2133 91.6468C64.2666 91.4962 64.3512 91.3584 64.4613 91.2426C64.5715 91.1268 64.7049 91.0355 64.8528 90.9747C64.9976 90.9089 65.1547 90.8748 65.3137 90.8748C65.4728 90.8748 65.6299 90.9089 65.7747 90.9747L66.7879 91.4477C67.1606 91.648 67.588 91.723 68.0066 91.6615C68.4253 91.6 68.813 91.4054 69.1123 91.1064C69.4115 90.8074 69.6064 90.42 69.6679 90.0017C69.7294 89.5833 69.6544 89.1563 69.4538 88.7839L68.9722 87.7715C68.9083 87.6264 68.8754 87.4695 68.8754 87.311C68.8754 87.1524 68.9083 86.9956 68.9722 86.8504C69.0317 86.7018 69.1226 86.5678 69.2387 86.4575C69.3548 86.3473 69.4933 86.2633 69.6449 86.2115L70.6913 85.8381C71.0745 85.7006 71.4058 85.4483 71.6401 85.1156C71.8743 84.7829 72 84.386 72 83.9793C72 83.5725 71.8743 83.1756 71.6401 82.8429C71.4058 82.5102 71.0745 82.2579 70.6913 82.1205H70.6332ZM61.9792 87.9541C61.1961 87.9352 60.4343 87.6952 59.7818 87.2621C59.1293 86.8289 58.6127 86.2202 58.2918 85.5061C58.0904 85.0224 57.9865 84.5037 57.9861 83.9797C57.9857 83.4558 58.0887 82.9369 58.2893 82.4528C58.4899 81.9687 58.7841 81.529 59.155 81.1586C59.526 80.7883 59.9664 80.4948 60.4511 80.2948C61.4304 79.9042 62.5236 79.9111 63.4979 80.3141C64.4722 80.7172 65.2504 81.4844 65.6667 82.4524C65.8681 82.9361 65.972 83.4548 65.9724 83.9788C65.9728 84.5027 65.8698 85.0216 65.6692 85.5057C65.4686 85.9898 65.1744 86.4296 64.8035 86.7999C64.4325 87.1702 63.9921 87.4637 63.5074 87.6637C63.0238 87.8658 62.5033 87.9647 61.9792 87.9541Z" fill="#111111"/>
</g>
<g id="Size=24px, Filled=true" clip-path="url(#clip4_1110_1312)">
<path id="Vector_11" d="M106.36 81.7445L105.104 81.2964C104.922 81.2342 104.756 81.1335 104.617 81.0012C104.477 80.8688 104.368 80.708 104.297 80.5297C104.22 80.3555 104.181 80.1673 104.181 79.977C104.181 79.7868 104.22 79.5986 104.297 79.4244L104.945 78.2095C105.155 77.7691 105.224 77.2743 105.141 76.7933C105.059 76.3123 104.829 75.8687 104.483 75.5236C104.138 75.1785 103.694 74.9489 103.213 74.8664C102.731 74.7839 102.236 74.8525 101.795 75.0628L100.579 75.6404C100.404 75.714 100.216 75.752 100.026 75.752C99.8363 75.752 99.6483 75.714 99.4732 75.6404C99.2967 75.5658 99.1375 75.4557 99.0055 75.3169C98.8734 75.1781 98.7714 75.0137 98.7058 74.8338L98.2573 73.5691C98.0922 73.1097 97.7892 72.7124 97.3896 72.4316C96.9901 72.1507 96.5135 72 96.0249 72C95.5364 72 95.0598 72.1507 94.6602 72.4316C94.2606 72.7124 93.9576 73.1097 93.7925 73.5691L93.2942 74.8636C93.2286 75.0435 93.1266 75.208 92.9945 75.3468C92.8625 75.4855 92.7033 75.5957 92.5268 75.6702C92.3517 75.7439 92.1637 75.7819 91.9737 75.7819C91.7837 75.7819 91.5956 75.7439 91.4206 75.6702L90.2047 75.0628C89.7639 74.8525 89.2688 74.7839 88.7873 74.8664C88.3059 74.9489 87.862 75.1785 87.5166 75.5236C87.1712 75.8687 86.9414 76.3123 86.8588 76.7933C86.7762 77.2743 86.8449 77.7691 87.0554 78.2095L87.6334 79.4244C87.71 79.5986 87.7495 79.7868 87.7495 79.977C87.7495 80.1673 87.71 80.3555 87.6334 80.5297C87.562 80.708 87.4529 80.8688 87.3136 81.0012C87.1743 81.1335 87.008 81.2342 86.8262 81.2964L85.5704 81.7445C85.1106 81.9095 84.713 82.2123 84.4319 82.6115C84.1508 83.0108 84 83.487 84 83.9751C84 84.4632 84.1508 84.9395 84.4319 85.3387C84.713 85.7379 85.1106 86.0407 85.5704 86.2057L86.8262 86.6538C87.008 86.716 87.1743 86.8167 87.3136 86.9491C87.4529 87.0814 87.562 87.2422 87.6334 87.4205C87.71 87.5947 87.7495 87.7829 87.7495 87.9732C87.7495 88.1635 87.71 88.3517 87.6334 88.5259L87.0554 89.7407C86.827 90.1827 86.7442 90.6854 86.8188 91.1772C86.8934 91.669 87.1216 92.1247 87.4709 92.4791C87.8201 92.8336 88.2725 93.0687 88.7635 93.151C89.2544 93.2333 89.7588 93.1584 90.2047 92.9372L91.4206 92.3696C91.5942 92.2906 91.7829 92.2498 91.9737 92.2498C92.1645 92.2498 92.3531 92.2906 92.5268 92.3696C92.7043 92.4426 92.8643 92.5522 92.9966 92.6912C93.1288 92.8301 93.2302 92.9954 93.2942 93.1762L93.7427 94.4309C93.9078 94.8903 94.2108 95.2876 94.6104 95.5684C95.0099 95.8493 95.4865 96 95.9751 96C96.4636 96 96.9402 95.8493 97.3398 95.5684C97.7394 95.2876 98.0424 94.8903 98.2075 94.4309L98.656 93.1762C98.72 92.9954 98.8214 92.8301 98.9536 92.6912C99.0858 92.5522 99.2459 92.4426 99.4234 92.3696C99.5971 92.2906 99.7857 92.2498 99.9765 92.2498C100.167 92.2498 100.356 92.2906 100.53 92.3696L101.745 92.9372C102.193 93.1776 102.706 93.2676 103.208 93.1938C103.71 93.1201 104.176 92.8865 104.535 92.5277C104.894 92.1689 105.128 91.704 105.201 91.202C105.275 90.7 105.185 90.1876 104.945 89.7407L104.367 88.5259C104.29 88.3517 104.25 88.1635 104.25 87.9732C104.25 87.7829 104.29 87.5947 104.367 87.4205C104.438 87.2422 104.547 87.0814 104.686 86.9491C104.826 86.8167 104.992 86.716 105.174 86.6538L106.43 86.2057C106.889 86.0407 107.287 85.7379 107.568 85.3387C107.849 84.9395 108 84.4632 108 83.9751C108 83.487 107.849 83.0108 107.568 82.6115C107.287 82.2123 106.889 81.9095 106.43 81.7445H106.36ZM95.9751 88.7449C95.0353 88.7222 94.1211 88.4343 93.3381 87.9145C92.5551 87.3947 91.9353 86.6642 91.5501 85.8074C91.3085 85.2268 91.1838 84.6044 91.1833 83.9757C91.1828 83.347 91.3064 82.7243 91.5471 82.1434C91.7878 81.5625 92.1409 81.0347 92.586 80.5904C93.0312 80.146 93.5597 79.7938 94.1413 79.5538C95.3165 79.085 96.6284 79.0933 97.7975 79.577C98.9666 80.0606 99.9004 80.9813 100.4 82.1429C100.642 82.7234 100.766 83.3458 100.767 83.9745C100.767 84.6033 100.644 85.2259 100.403 85.8068C100.162 86.3877 99.8093 86.9155 99.3641 87.3598C98.919 87.8042 98.3905 88.1564 97.8089 88.3964C97.2286 88.639 96.604 88.7577 95.9751 88.7449Z" fill="#111111"/>
</g>
<g id="Size=32px, Filled=true" clip-path="url(#clip5_1110_1312)">
<path id="Vector_12" d="M149.813 80.9927L148.139 80.3952C147.896 80.3123 147.675 80.178 147.489 80.0015C147.303 79.8251 147.158 79.6107 147.062 79.3729C146.96 79.1406 146.908 78.8897 146.908 78.636C146.908 78.3823 146.96 78.1314 147.062 77.8991L147.926 76.2793C148.207 75.6921 148.298 75.0325 148.188 74.3911C148.078 73.7498 147.772 73.1583 147.311 72.6982C146.851 72.238 146.259 71.9319 145.617 71.8218C144.975 71.7118 144.315 71.8033 143.727 72.0837L142.106 72.8538C141.872 72.952 141.622 73.0026 141.368 73.0026C141.115 73.0026 140.864 72.952 140.631 72.8538C140.396 72.7544 140.183 72.6076 140.007 72.4225C139.831 72.2375 139.695 72.0182 139.608 71.7784L139.01 70.0922C138.79 69.4796 138.386 68.9499 137.853 68.5754C137.32 68.201 136.685 68 136.033 68C135.382 68 134.746 68.201 134.214 68.5754C133.681 68.9499 133.277 69.4796 133.057 70.0922L132.392 71.8182C132.305 72.0581 132.169 72.2773 131.993 72.4624C131.817 72.6474 131.604 72.7942 131.369 72.8936C131.136 72.9919 130.885 73.0425 130.632 73.0425C130.378 73.0425 130.128 72.9919 129.894 72.8936L128.273 72.0837C127.685 71.8033 127.025 71.7118 126.383 71.8218C125.741 71.9319 125.149 72.238 124.689 72.6982C124.228 73.1583 123.922 73.7498 123.812 74.3911C123.702 75.0325 123.793 75.6921 124.074 76.2793L124.845 77.8991C124.947 78.1314 124.999 78.3823 124.999 78.636C124.999 78.8897 124.947 79.1406 124.845 79.3729C124.749 79.6107 124.604 79.8251 124.418 80.0015C124.232 80.178 124.011 80.3123 123.768 80.3952L122.094 80.9927C121.481 81.2127 120.951 81.6164 120.576 82.1487C120.201 82.681 120 83.316 120 83.9668C120 84.6176 120.201 85.2526 120.576 85.7849C120.951 86.3173 121.481 86.721 122.094 86.9409L123.768 87.5384C124.011 87.6213 124.232 87.7556 124.418 87.9321C124.604 88.1085 124.749 88.3229 124.845 88.5607C124.947 88.793 124.999 89.0439 124.999 89.2976C124.999 89.5513 124.947 89.8022 124.845 90.0345L124.074 91.6543C123.769 92.2436 123.659 92.9139 123.758 93.5696C123.858 94.2253 124.162 94.8329 124.628 95.3055C125.093 95.7781 125.697 96.0916 126.351 96.2013C127.006 96.311 127.678 96.2112 128.273 95.9163L129.894 95.1595C130.126 95.0542 130.377 94.9997 130.632 94.9997C130.886 94.9997 131.137 95.0542 131.369 95.1595C131.606 95.2568 131.819 95.4029 131.995 95.5882C132.172 95.7735 132.307 95.9939 132.392 96.2349L132.99 97.9078C133.21 98.5204 133.614 99.0501 134.147 99.4246C134.68 99.799 135.315 100 135.967 100C136.618 100 137.254 99.799 137.786 99.4246C138.319 99.0501 138.723 98.5204 138.943 97.9078L139.541 96.2349C139.627 95.9939 139.762 95.7735 139.938 95.5882C140.114 95.4029 140.328 95.2568 140.564 95.1595C140.796 95.0542 141.048 94.9997 141.302 94.9997C141.556 94.9997 141.808 95.0542 142.039 95.1595L143.661 95.9163C144.257 96.2368 144.941 96.3568 145.611 96.2584C146.281 96.1601 146.901 95.8486 147.38 95.3702C147.858 94.8918 148.17 94.272 148.269 93.6027C148.367 92.9333 148.247 92.2501 147.926 91.6543L147.155 90.0345C147.053 89.8022 147.001 89.5513 147.001 89.2976C147.001 89.0439 147.053 88.793 147.155 88.5607C147.251 88.3229 147.396 88.1085 147.582 87.9321C147.768 87.7556 147.989 87.6213 148.232 87.5384L149.906 86.9409C150.519 86.721 151.049 86.3173 151.424 85.7849C151.799 85.2526 152 84.6176 152 83.9668C152 83.316 151.799 82.681 151.424 82.1487C151.049 81.6164 150.519 81.2127 149.906 80.9927H149.813ZM135.967 90.3266C134.714 90.2962 133.495 89.9124 132.451 89.2193C131.407 88.5262 130.58 87.5522 130.067 86.4098C129.745 85.6358 129.578 84.8059 129.578 83.9676C129.577 83.1293 129.742 82.2991 130.063 81.5245C130.384 80.75 130.854 80.0463 131.448 79.4538C132.042 78.8613 132.746 78.3917 133.522 78.0717C135.089 77.4467 136.838 77.4578 138.397 78.1026C139.955 78.7475 141.201 79.9751 141.867 81.5238C142.189 82.2978 142.355 83.1278 142.356 83.9661C142.357 84.8043 142.192 85.6345 141.871 86.4091C141.55 87.1836 141.079 87.8873 140.486 88.4798C139.892 89.0723 139.187 89.5419 138.412 89.8619C137.638 90.1853 136.805 90.3435 135.967 90.3266Z" fill="#111111"/>
</g>
<g id="Size=40px, Filled=true" clip-path="url(#clip6_1110_1312)">
<path id="Vector_13" d="M201.266 80.2409L199.173 79.4941C198.87 79.3904 198.593 79.2225 198.361 79.0019C198.129 78.7814 197.947 78.5133 197.828 78.2161C197.7 77.9258 197.634 77.6121 197.634 77.295C197.634 76.9779 197.7 76.6643 197.828 76.3739L198.908 74.3492C199.259 73.6152 199.373 72.7906 199.235 71.9889C199.098 71.1872 198.715 70.4479 198.139 69.8727C197.563 69.2976 196.823 68.9149 196.021 68.7773C195.219 68.6398 194.393 68.7541 193.659 69.1047L191.632 70.0673C191.341 70.1901 191.027 70.2533 190.711 70.2533C190.394 70.2533 190.08 70.1901 189.789 70.0673C189.495 69.943 189.229 69.7594 189.009 69.5282C188.789 69.2969 188.619 69.0228 188.51 68.723L187.762 66.6152C187.487 65.8495 186.982 65.1874 186.316 64.7193C185.65 64.2512 184.856 64 184.042 64C183.227 64 182.433 64.2512 181.767 64.7193C181.101 65.1874 180.596 65.8495 180.321 66.6152L179.49 68.7727C179.381 69.0726 179.211 69.3467 178.991 69.5779C178.771 69.8092 178.505 69.9928 178.211 70.1171C177.92 70.2398 177.606 70.3031 177.289 70.3031C176.973 70.3031 176.659 70.2398 176.368 70.1171L174.341 69.1047C173.607 68.7541 172.781 68.6398 171.979 68.7773C171.177 68.9149 170.437 69.2976 169.861 69.8727C169.285 70.4479 168.902 71.1872 168.765 71.9889C168.627 72.7906 168.741 73.6152 169.092 74.3492L170.056 76.3739C170.183 76.6643 170.249 76.9779 170.249 77.295C170.249 77.6121 170.183 77.9258 170.056 78.2161C169.937 78.5133 169.755 78.7814 169.523 79.0019C169.29 79.2225 169.013 79.3904 168.71 79.4941L166.617 80.2409C165.851 80.5158 165.188 81.0204 164.72 81.6859C164.251 82.3513 164 83.145 164 83.9585C164 84.7721 164.251 85.5658 164.72 86.2312C165.188 86.8966 165.851 87.4012 166.617 87.6761L168.71 88.423C169.013 88.5267 169.29 88.6945 169.523 88.9151C169.755 89.1356 169.937 89.4037 170.056 89.7009C170.183 89.9912 170.249 90.3049 170.249 90.622C170.249 90.9391 170.183 91.2528 170.056 91.5431L169.092 93.5679C168.712 94.3045 168.574 95.1424 168.698 95.962C168.822 96.7817 169.203 97.5411 169.785 98.1319C170.367 98.7226 171.121 99.1146 171.939 99.2517C172.757 99.3888 173.598 99.2641 174.341 98.8953L176.368 97.9493C176.657 97.8177 176.971 97.7496 177.289 97.7496C177.608 97.7496 177.922 97.8177 178.211 97.9493C178.507 98.071 178.774 98.2536 178.994 98.4852C179.215 98.7169 179.384 98.9923 179.49 99.2936L180.238 101.385C180.513 102.15 181.018 102.813 181.684 103.281C182.35 103.749 183.144 104 183.958 104C184.773 104 185.567 103.749 186.233 103.281C186.899 102.813 187.404 102.15 187.679 101.385L188.427 99.2936C188.533 98.9923 188.702 98.7169 188.923 98.4852C189.143 98.2536 189.41 98.071 189.706 97.9493C189.995 97.8177 190.309 97.7496 190.627 97.7496C190.946 97.7496 191.26 97.8177 191.549 97.9493L193.576 98.8953C194.321 99.296 195.176 99.446 196.013 99.323C196.851 99.2001 197.626 98.8108 198.225 98.2128C198.823 97.6148 199.213 96.84 199.336 96.0033C199.459 95.1666 199.309 94.3126 198.908 93.5679L197.944 91.5431C197.817 91.2528 197.751 90.9391 197.751 90.622C197.751 90.3049 197.817 89.9912 197.944 89.7009C198.063 89.4037 198.245 89.1356 198.477 88.9151C198.71 88.6945 198.987 88.5267 199.29 88.423L201.383 87.6761C202.149 87.4012 202.812 86.8966 203.28 86.2312C203.749 85.5658 204 84.7721 204 83.9585C204 83.145 203.749 82.3513 203.28 81.6859C202.812 81.0204 202.149 80.5158 201.383 80.2409H201.266ZM183.958 91.9082C182.392 91.8703 180.869 91.3905 179.564 90.5241C178.259 89.6578 177.225 88.4403 176.584 87.0123C176.181 86.0447 175.973 85.0073 175.972 83.9595C175.971 82.9116 176.177 81.8738 176.579 80.9057C176.98 79.9375 177.568 79.0579 178.31 78.3173C179.052 77.5767 179.933 76.9896 180.902 76.5897C182.861 75.8084 185.047 75.8222 186.996 76.6283C188.944 77.4343 190.501 78.9688 191.333 80.9048C191.736 81.8723 191.944 82.9097 191.945 83.9576C191.946 85.0054 191.74 86.0432 191.338 87.0114C190.937 87.9795 190.349 88.8591 189.607 89.5997C188.865 90.3403 187.984 90.9274 187.015 91.3273C186.048 91.7316 185.007 91.9294 183.958 91.9082Z" fill="#111111"/>
</g>
<g id="Size=48px, Filled=true" clip-path="url(#clip7_1110_1312)">
<path id="Vector_14" d="M260.72 79.4891L258.208 78.5929C257.844 78.4684 257.512 78.267 257.233 78.0023C256.955 77.7377 256.736 77.416 256.594 77.0594C256.44 76.711 256.361 76.3346 256.361 75.954C256.361 75.5735 256.44 75.1971 256.594 74.8487L257.889 72.419C258.31 71.5382 258.448 70.5487 258.282 69.5867C258.117 68.6246 257.658 67.7374 256.967 67.0473C256.276 66.3571 255.388 65.8978 254.425 65.7328C253.462 65.5677 252.472 65.705 251.591 66.1256L249.159 67.2807C248.809 67.4281 248.433 67.504 248.053 67.504C247.673 67.504 247.297 67.4281 246.946 67.2807C246.593 67.1316 246.275 66.9113 246.011 66.6338C245.747 66.3562 245.543 66.0273 245.412 65.6675L244.515 63.1382C244.184 62.2194 243.578 61.4249 242.779 60.8632C241.98 60.3014 241.027 60 240.05 60C239.073 60 238.12 60.3014 237.32 60.8632C236.521 61.4249 235.915 62.2194 235.585 63.1382L234.588 65.7273C234.457 66.0871 234.253 66.416 233.989 66.6935C233.725 66.9711 233.407 67.1913 233.054 67.3405C232.703 67.4878 232.327 67.5637 231.947 67.5637C231.567 67.5637 231.191 67.4878 230.841 67.3405L228.409 66.1256C227.528 65.705 226.538 65.5677 225.575 65.7328C224.612 65.8978 223.724 66.3571 223.033 67.0473C222.342 67.7374 221.883 68.6246 221.718 69.5867C221.552 70.5487 221.69 71.5382 222.111 72.419L223.267 74.8487C223.42 75.1971 223.499 75.5735 223.499 75.954C223.499 76.3346 223.42 76.711 223.267 77.0594C223.124 77.416 222.906 77.7377 222.627 78.0023C222.349 78.267 222.016 78.4684 221.652 78.5929L219.141 79.4891C218.221 79.819 217.426 80.4245 216.864 81.223C216.302 82.0215 216 82.974 216 83.9502C216 84.9265 216.302 85.8789 216.864 86.6774C217.426 87.4759 218.221 88.0814 219.141 88.4113L221.652 89.3075C222.016 89.432 222.349 89.6334 222.627 89.8981C222.906 90.1628 223.124 90.4844 223.267 90.8411C223.42 91.1895 223.499 91.5659 223.499 91.9464C223.499 92.3269 223.42 92.7033 223.267 93.0517L222.111 95.4814C221.654 96.3654 221.488 97.3709 221.638 98.3544C221.787 99.338 222.243 100.249 222.942 100.958C223.64 101.667 224.545 102.137 225.527 102.302C226.509 102.467 227.518 102.317 228.409 101.874L230.841 100.739C231.188 100.581 231.566 100.5 231.947 100.5C232.329 100.5 232.706 100.581 233.054 100.739C233.409 100.885 233.729 101.104 233.993 101.382C234.258 101.66 234.46 101.991 234.588 102.352L235.485 104.862C235.816 105.781 236.422 106.575 237.221 107.137C238.02 107.699 238.973 108 239.95 108C240.927 108 241.88 107.699 242.68 107.137C243.479 106.575 244.085 105.781 244.415 104.862L245.312 102.352C245.44 101.991 245.643 101.66 245.907 101.382C246.172 101.104 246.492 100.885 246.847 100.739C247.194 100.581 247.571 100.5 247.953 100.5C248.335 100.5 248.712 100.581 249.059 100.739L251.491 101.874C252.385 102.355 253.411 102.535 254.416 102.388C255.421 102.24 256.351 101.773 257.069 101.055C257.788 100.338 258.255 99.408 258.403 98.404C258.551 97.4 258.37 96.3751 257.889 95.4814L256.733 93.0517C256.58 92.7033 256.501 92.3269 256.501 91.9464C256.501 91.5659 256.58 91.1895 256.733 90.8411C256.876 90.4844 257.094 90.1628 257.373 89.8981C257.651 89.6334 257.984 89.432 258.348 89.3075L260.859 88.4113C261.779 88.0814 262.574 87.4759 263.136 86.6774C263.698 85.8789 264 84.9265 264 83.9502C264 82.974 263.698 82.0215 263.136 81.223C262.574 80.4245 261.779 79.819 260.859 79.4891H260.72ZM239.95 93.4899C238.071 93.4444 236.242 92.8686 234.676 91.829C233.11 90.7894 231.871 89.3284 231.1 87.6147C230.617 86.4537 230.368 85.2088 230.367 83.9513C230.366 82.6939 230.613 81.4486 231.094 80.2868C231.576 79.125 232.282 78.0695 233.172 77.1808C234.062 76.292 235.119 75.5875 236.283 75.1076C238.633 74.1701 241.257 74.1867 243.595 75.1539C245.933 76.1212 247.801 77.9626 248.8 80.2857C249.283 81.4467 249.533 82.6916 249.534 83.9491C249.535 85.2065 249.287 86.4518 248.806 87.6136C248.325 88.7754 247.619 89.8309 246.728 90.7197C245.838 91.6084 244.781 92.3129 243.618 92.7928C242.457 93.2779 241.208 93.5153 239.95 93.4899Z" fill="#111111"/>
</g>
</g>
</g>
<defs>
<clipPath id="clip0_1110_1312">
<rect width="264" height="108" rx="5" fill="white"/>
</clipPath>
<clipPath id="clip1_1110_1312">
<rect width="12" height="12" fill="white" transform="translate(0 78)"/>
</clipPath>
<clipPath id="clip2_1110_1312">
<rect width="16" height="16" fill="white" transform="translate(24 76)"/>
</clipPath>
<clipPath id="clip3_1110_1312">
<rect width="20" height="20" fill="white" transform="translate(52 74)"/>
</clipPath>
<clipPath id="clip4_1110_1312">
<rect width="24" height="24" fill="white" transform="translate(84 72)"/>
</clipPath>
<clipPath id="clip5_1110_1312">
<rect width="32" height="32" fill="white" transform="translate(120 68)"/>
</clipPath>
<clipPath id="clip6_1110_1312">
<rect width="40" height="40" fill="white" transform="translate(164 64)"/>
</clipPath>
<clipPath id="clip7_1110_1312">
<rect width="48" height="48" fill="white" transform="translate(216 60)"/>
</clipPath>
</defs>
</svg>
