<svg width="268" height="108" viewBox="0 0 268 108" fill="none" xmlns="http://www.w3.org/2000/svg">
<g id="Share">
<g id="Size=12px, Filled=false">
<path id="Vector" d="M4.5 23.25L7.5 21.75M4.5 24.75L7.5 26.25M2.625 25.5C3.66053 25.5 4.5 24.6605 4.5 23.625C4.5 22.5895 3.66053 21.75 2.625 21.75C1.58947 21.75 0.75 22.5895 0.75 23.625C0.75 24.6605 1.58947 25.5 2.625 25.5ZM9.375 23.25C10.4105 23.25 11.25 22.4105 11.25 21.375C11.25 20.3395 10.4105 19.5 9.375 19.5C8.33947 19.5 7.5 20.3395 7.5 21.375C7.5 22.4105 8.33947 23.25 9.375 23.25ZM9.375 28.5C10.4105 28.5 11.25 27.6605 11.25 26.625C11.25 25.5895 10.4105 24.75 9.375 24.75C8.33947 24.75 7.5 25.5895 7.5 26.625C7.5 27.6605 8.33947 28.5 9.375 28.5Z" stroke="#111111" stroke-width="0.75" stroke-linecap="round" stroke-linejoin="round"/>
</g>
<g id="Size=16px, Filled=false">
<path id="Vector_2" d="M30 23L34 21M30 25L34 27M27.5 26C28.8807 26 30 24.8807 30 23.5C30 22.1193 28.8807 21 27.5 21C26.1193 21 25 22.1193 25 23.5C25 24.8807 26.1193 26 27.5 26ZM36.5 23C37.8807 23 39 21.8807 39 20.5C39 19.1193 37.8807 18 36.5 18C35.1193 18 34 19.1193 34 20.5C34 21.8807 35.1193 23 36.5 23ZM36.5 30C37.8807 30 39 28.8807 39 27.5C39 26.1193 37.8807 25 36.5 25C35.1193 25 34 26.1193 34 27.5C34 28.8807 35.1193 30 36.5 30Z" stroke="#111111" stroke-linecap="round" stroke-linejoin="round"/>
</g>
<g id="Size=20px, Filled=false">
<path id="Vector_3" d="M59.5 22.75L64.5 20.25M59.5 25.25L64.5 27.75M56.375 26.5C58.1009 26.5 59.5 25.1009 59.5 23.375C59.5 21.6491 58.1009 20.25 56.375 20.25C54.6491 20.25 53.25 21.6491 53.25 23.375C53.25 25.1009 54.6491 26.5 56.375 26.5ZM67.625 22.75C69.3509 22.75 70.75 21.3509 70.75 19.625C70.75 17.8991 69.3509 16.5 67.625 16.5C65.8991 16.5 64.5 17.8991 64.5 19.625C64.5 21.3509 65.8991 22.75 67.625 22.75ZM67.625 31.5C69.3509 31.5 70.75 30.1009 70.75 28.375C70.75 26.6491 69.3509 25.25 67.625 25.25C65.8991 25.25 64.5 26.6491 64.5 28.375C64.5 30.1009 65.8991 31.5 67.625 31.5Z" stroke="#111111" stroke-width="1.25" stroke-linecap="round" stroke-linejoin="round"/>
</g>
<g id="Size=24px, Filled=false">
<path id="Vector_4" d="M94 22L99 20M94 26L99 28M90 28C92.2091 28 94 26.2091 94 24C94 21.7909 92.2091 20 90 20C87.7909 20 86 21.7909 86 24C86 26.2091 87.7909 28 90 28ZM103 22C105.209 22 107 20.2091 107 18C107 15.7909 105.209 14 103 14C100.791 14 99 15.7909 99 18C99 20.2091 100.791 22 103 22ZM103 34C105.209 34 107 32.2091 107 30C107 27.7909 105.209 26 103 26C100.791 26 99 27.7909 99 30C99 32.2091 100.791 34 103 34Z" stroke="#111111" stroke-width="1.5" stroke-linecap="round" stroke-linejoin="round"/>
</g>
<g id="Size=32px, Filled=false">
<path id="Vector_5" d="M132 22L140 18M132 26L140 30M127 28C129.761 28 132 25.7614 132 23C132 20.2386 129.761 18 127 18C124.239 18 122 20.2386 122 23C122 25.7614 124.239 28 127 28ZM145 22C147.761 22 150 19.7614 150 17C150 14.2386 147.761 12 145 12C142.239 12 140 14.2386 140 17C140 19.7614 142.239 22 145 22ZM145 36C147.761 36 150 33.7614 150 31C150 28.2386 147.761 26 145 26C142.239 26 140 28.2386 140 31C140 33.7614 142.239 36 145 36Z" stroke="#111111" stroke-width="2" stroke-linecap="round" stroke-linejoin="round"/>
</g>
<g id="Size=40px, Filled=false">
<path id="Vector_6" d="M179 21.5L189 16.5M179 26.5L189 31.5M172.75 29C176.202 29 179 26.2018 179 22.75C179 19.2982 176.202 16.5 172.75 16.5C169.298 16.5 166.5 19.2982 166.5 22.75C166.5 26.2018 169.298 29 172.75 29ZM195.25 21.5C198.702 21.5 201.5 18.7018 201.5 15.25C201.5 11.7982 198.702 9 195.25 9C191.798 9 189 11.7982 189 15.25C189 18.7018 191.798 21.5 195.25 21.5ZM195.25 39C198.702 39 201.5 36.2018 201.5 32.75C201.5 29.2982 198.702 26.5 195.25 26.5C191.798 26.5 189 29.2982 189 32.75C189 36.2018 191.798 39 195.25 39Z" stroke="#111111" stroke-width="2.5" stroke-linecap="round" stroke-linejoin="round"/>
</g>
<g id="Size=48px, Filled=false">
<path id="Vector_7" d="M234 21L246 15M234 27L246 33M226.5 30C230.642 30 234 26.6421 234 22.5C234 18.3579 230.642 15 226.5 15C222.358 15 219 18.3579 219 22.5C219 26.6421 222.358 30 226.5 30ZM253.5 21C257.642 21 261 17.6421 261 13.5C261 9.35786 257.642 6 253.5 6C249.358 6 246 9.35786 246 13.5C246 17.6421 249.358 21 253.5 21ZM253.5 42C257.642 42 261 38.6421 261 34.5C261 30.3579 257.642 27 253.5 27C249.358 27 246 30.3579 246 34.5C246 38.6421 249.358 42 253.5 42Z" stroke="#111111" stroke-width="3" stroke-linecap="round" stroke-linejoin="round"/>
</g>
<g id="Size=12px, Filled=true" clip-path="url(#clip0_1110_1311)">
<path id="Vector_8" d="M9.50005 85.0021C9.16485 85.0028 8.83321 85.0708 8.52484 85.2022C8.21647 85.3336 7.93769 85.5256 7.70505 85.7668L4.96005 84.3924C4.98376 84.2637 4.99714 84.1334 5.00005 84.0026C4.99714 83.8718 4.98376 83.7414 4.96005 83.6127L7.70505 82.2383C8.10895 82.6548 8.6452 82.9178 9.22187 82.9824C9.79854 83.0469 10.3797 82.9089 10.8658 82.5921C11.3518 82.2752 11.7124 81.7992 11.8858 81.2457C12.0592 80.6922 12.0346 80.0956 11.8161 79.5582C11.5977 79.0209 11.1991 78.5762 10.6885 78.3004C10.178 78.0247 9.58747 77.9351 9.01808 78.0469C8.44869 78.1587 7.93595 78.465 7.56776 78.9133C7.19957 79.3617 6.99887 79.924 7.00005 80.504C7.00297 80.6349 7.01635 80.7652 7.04005 80.8939L4.29505 82.2683C3.94919 81.9096 3.50398 81.6625 3.01657 81.5586C2.52917 81.4547 2.02182 81.4988 1.55966 81.6852C1.0975 81.8716 0.70162 82.1918 0.422843 82.6047C0.144066 83.0176 -0.00488281 83.5044 -0.00488281 84.0026C-0.00488281 84.5007 0.144066 84.9875 0.422843 85.4004C0.70162 85.8133 1.0975 86.1336 1.55966 86.32C2.02182 86.5064 2.52917 86.5504 3.01657 86.4465C3.50398 86.3426 3.94919 86.0955 4.29505 85.7368L7.04005 87.1112C7.01635 87.2399 7.00297 87.3703 7.00005 87.5011C7.00005 87.9953 7.14668 88.4785 7.42138 88.8894C7.69608 89.3003 8.08653 89.6206 8.54335 89.8098C9.00016 89.9989 9.50283 90.0484 9.98778 89.952C10.4727 89.8556 10.9182 89.6176 11.2678 89.2681C11.6175 88.9186 11.8556 88.4733 11.952 87.9886C12.0485 87.5038 11.999 87.0014 11.8098 86.5448C11.6205 86.0881 11.3001 85.6979 10.889 85.4233C10.4779 85.1487 9.99451 85.0021 9.50005 85.0021Z" fill="#111111"/>
</g>
<g id="Size=16px, Filled=true" clip-path="url(#clip1_1110_1311)">
<path id="Vector_9" d="M36.6667 85.3362C36.2197 85.3371 35.7775 85.4278 35.3664 85.6029C34.9552 85.7781 34.5835 86.0341 34.2733 86.3557L30.6133 84.5232C30.6449 84.3516 30.6628 84.1778 30.6667 84.0034C30.6628 83.829 30.6449 83.6552 30.6133 83.4836L34.2733 81.6511C34.8119 82.2064 35.5269 82.5571 36.2957 82.6431C37.0646 82.7292 37.8395 82.5452 38.4876 82.1227C39.1356 81.7003 39.6165 81.0656 39.8477 80.3276C40.0789 79.5895 40.046 78.7941 39.7548 78.0776C39.4635 77.3611 38.932 76.7683 38.2513 76.4006C37.5706 76.0329 36.7832 75.9134 36.024 76.0625C35.2648 76.2116 34.5812 76.62 34.0903 77.2178C33.5993 77.8155 33.3317 78.5654 33.3333 79.3387C33.3372 79.5131 33.355 79.6869 33.3867 79.8585L29.7267 81.6911C29.2655 81.2129 28.6719 80.8833 28.022 80.7448C27.3721 80.6062 26.6957 80.665 26.0795 80.9135C25.4633 81.1621 24.9354 81.589 24.5637 82.1396C24.192 82.6902 23.9934 83.3392 23.9934 84.0034C23.9934 84.6676 24.192 85.3167 24.5637 85.8672C24.9354 86.4178 25.4633 86.8447 26.0795 87.0933C26.6957 87.3418 27.3721 87.4006 28.022 87.262C28.6719 87.1235 29.2655 86.794 29.7267 86.3158L33.3867 88.1483C33.355 88.3199 33.3372 88.4937 33.3333 88.6681C33.3333 89.3271 33.5288 89.9713 33.8951 90.5192C34.2614 91.0671 34.782 91.4942 35.391 91.7464C36.0001 91.9986 36.6704 92.0645 37.317 91.936C37.9636 91.8074 38.5575 91.4901 39.0237 91.0241C39.4899 90.5581 39.8073 89.9644 39.9359 89.3181C40.0646 88.6718 39.9985 88.0018 39.7463 87.393C39.494 86.7842 39.0667 86.2638 38.5186 85.8977C37.9704 85.5316 37.3259 85.3362 36.6667 85.3362Z" fill="#111111"/>
</g>
<g id="Size=20px, Filled=true" clip-path="url(#clip2_1110_1311)">
<path id="Vector_10" d="M67.8335 85.6702C67.2748 85.6713 66.7221 85.7847 66.2081 86.0037C65.6942 86.2226 65.2296 86.5426 64.8418 86.9447L60.2668 84.654C60.3064 84.4395 60.3286 84.2223 60.3335 84.0043C60.3286 83.7863 60.3064 83.569 60.2668 83.3545L64.8418 81.0638C65.515 81.7579 66.4088 82.1964 67.3699 82.3039C68.331 82.4115 69.2996 82.1815 70.1097 81.6534C70.9197 81.1253 71.5208 80.332 71.8098 79.4095C72.0988 78.4869 72.0577 77.4926 71.6937 76.597C71.3296 75.7014 70.6652 74.9603 69.8143 74.5007C68.9635 74.0412 67.9792 73.8918 67.0302 74.0781C66.0812 74.2645 65.2267 74.775 64.613 75.5222C63.9994 76.2694 63.6649 77.2067 63.6668 78.1734C63.6717 78.3914 63.694 78.6087 63.7335 78.8231L59.1585 81.1138C58.5821 80.5161 57.84 80.1042 57.0277 79.931C56.2154 79.7578 55.3698 79.8313 54.5995 80.1419C53.8292 80.4526 53.1694 80.9863 52.7048 81.6745C52.2402 82.3627 51.9919 83.174 51.9919 84.0043C51.9919 84.8345 52.2402 85.6458 52.7048 86.334C53.1694 87.0222 53.8292 87.5559 54.5995 87.8666C55.3698 88.1773 56.2154 88.2507 57.0277 88.0775C57.84 87.9044 58.5821 87.4925 59.1585 86.8947L63.7335 89.1854C63.694 89.3998 63.6717 89.6171 63.6668 89.8351C63.6668 90.6588 63.9112 91.4641 64.3691 92.149C64.8269 92.8339 65.4776 93.3677 66.239 93.683C67.0003 93.9982 67.8381 94.0807 68.6464 93.92C69.4546 93.7593 70.1971 93.3626 70.7798 92.7801C71.3625 92.1977 71.7593 91.4555 71.9201 90.6476C72.0809 89.8397 71.9984 89.0023 71.683 88.2413C71.3676 87.4802 70.8336 86.8298 70.1484 86.3721C69.4632 85.9145 68.6576 85.6702 67.8335 85.6702Z" fill="#111111"/>
</g>
<g id="Size=24px, Filled=true" clip-path="url(#clip3_1110_1311)">
<path id="Vector_11" d="M103 86.0043C102.33 86.0056 101.666 86.1417 101.05 86.4044C100.433 86.6671 99.8754 87.0511 99.4101 87.5336L93.9201 84.7848C93.9675 84.5274 93.9943 84.2667 94.0001 84.0051C93.9943 83.7435 93.9675 83.4828 93.9201 83.2254L99.4101 80.4766C100.218 81.3095 101.29 81.8356 102.444 81.9647C103.597 82.0938 104.759 81.8178 105.732 81.1841C106.704 80.5504 107.425 79.5984 107.772 78.4914C108.118 77.3843 108.069 76.1912 107.632 75.1164C107.195 74.0417 106.398 73.1524 105.377 72.6009C104.356 72.0494 103.175 71.8701 102.036 72.0938C100.897 72.3174 99.8719 72.9301 99.1355 73.8267C98.3991 74.7233 97.9977 75.848 98.0001 77.0081C98.0059 77.2697 98.0327 77.5304 98.0801 77.7878L92.5901 80.5366C91.8984 79.8193 91.008 79.325 90.0331 79.1172C89.0583 78.9094 88.0436 78.9975 87.1193 79.3703C86.195 79.7431 85.4032 80.3835 84.8457 81.2094C84.2881 82.0352 83.9902 83.0088 83.9902 84.0051C83.9902 85.0014 84.2881 85.975 84.8457 86.8008C85.4032 87.6267 86.195 88.2671 87.1193 88.6399C88.0436 89.0127 89.0583 89.1009 90.0331 88.8931C91.008 88.6852 91.8984 88.191 92.5901 87.4736L98.0801 90.2225C98.0327 90.4798 98.0059 90.7405 98.0001 91.0021C98.0001 91.9906 98.2934 92.9569 98.8428 93.7788C99.3922 94.6007 100.173 95.2413 101.087 95.6196C102 95.9978 103.006 96.0968 103.976 95.904C104.945 95.7111 105.836 95.2351 106.536 94.5362C107.235 93.8372 107.711 92.9467 107.904 91.9772C108.097 91.0077 107.998 90.0028 107.62 89.0895C107.241 88.1763 106.6 87.3957 105.778 86.8466C104.956 86.2974 103.989 86.0043 103 86.0043Z" fill="#111111"/>
</g>
<g id="Size=32px, Filled=true" clip-path="url(#clip4_1110_1311)">
<path id="Vector_12" d="M145.334 86.6723C144.44 86.6741 143.555 86.8555 142.733 87.2059C141.911 87.5562 141.167 88.0682 140.547 88.7115L133.227 85.0464C133.29 84.7033 133.326 84.3556 133.334 84.0068C133.326 83.658 133.29 83.3104 133.227 82.9673L140.547 79.3022C141.624 80.4127 143.054 81.1142 144.592 81.2863C146.13 81.4584 147.679 81.0904 148.975 80.2455C150.272 79.4005 151.233 78.1312 151.696 76.6551C152.158 75.1791 152.092 73.5882 151.51 72.1552C150.927 70.7223 149.864 69.5365 148.503 68.8012C147.142 68.0659 145.567 67.8268 144.048 68.125C142.53 68.4232 141.163 69.2401 140.181 70.4356C139.199 71.6311 138.664 73.1307 138.667 74.6775C138.675 75.0263 138.71 75.3739 138.774 75.717L131.454 79.3821C130.531 78.4257 129.344 77.7666 128.044 77.4896C126.745 77.2125 125.392 77.33 124.159 77.8271C122.927 78.3242 121.871 79.1781 121.128 80.2792C120.384 81.3803 119.987 82.6784 119.987 84.0068C119.987 85.3352 120.384 86.6333 121.128 87.7344C121.871 88.8356 122.927 89.6895 124.159 90.1866C125.392 90.6836 126.745 90.8012 128.044 90.5241C129.344 90.247 130.531 89.5879 131.454 88.6315L138.774 92.2966C138.71 92.6397 138.675 92.9874 138.667 93.3362C138.667 94.6542 139.058 95.9425 139.79 97.0384C140.523 98.1343 141.564 98.9884 142.782 99.4927C144.001 99.9971 145.341 100.129 146.634 99.872C147.927 99.6148 149.115 98.9802 150.048 98.0482C150.98 97.1163 151.615 95.9289 151.872 94.6362C152.129 93.3436 151.997 92.0037 151.493 90.786C150.988 89.5684 150.134 88.5276 149.037 87.7954C147.941 87.0632 146.652 86.6723 145.334 86.6723Z" fill="#111111"/>
</g>
<g id="Size=40px, Filled=true" clip-path="url(#clip5_1110_1311)">
<path id="Vector_13" d="M195.667 87.3404C194.549 87.3426 193.444 87.5694 192.416 88.0073C191.388 88.4452 190.459 89.0852 189.683 89.8893L180.533 85.308C180.612 84.8791 180.657 84.4445 180.667 84.0085C180.657 83.5725 180.612 83.138 180.533 82.7091L189.683 78.1277C191.03 79.5159 192.817 80.3927 194.739 80.6078C196.662 80.823 198.599 80.363 200.219 79.3068C201.839 78.2506 203.041 76.664 203.619 74.8189C204.197 72.9738 204.115 70.9853 203.387 69.1941C202.659 67.4029 201.33 65.9206 199.628 65.0015C197.927 64.0824 195.958 63.7835 194.06 64.1563C192.162 64.529 190.453 65.5501 189.226 67.0445C187.998 68.5388 187.329 70.4134 187.333 72.3468C187.343 72.7828 187.388 73.2174 187.467 73.6463L178.317 78.2277C177.164 77.0321 175.68 76.2083 174.055 75.862C172.43 75.5156 170.739 75.6625 169.199 76.2839C167.658 76.9052 166.339 77.9726 165.409 79.349C164.48 80.7254 163.984 82.348 163.984 84.0085C163.984 85.669 164.48 87.2916 165.409 88.6681C166.339 90.0445 167.658 91.1119 169.199 91.7332C170.739 92.3545 172.43 92.5014 174.055 92.1551C175.68 91.8087 177.164 90.9849 178.317 89.7894L187.467 94.3708C187.388 94.7997 187.343 95.2342 187.333 95.6702C187.333 97.3177 187.822 98.9282 188.738 100.298C189.654 101.668 190.955 102.735 192.478 103.366C194 103.996 195.676 104.161 197.293 103.84C198.909 103.519 200.394 102.725 201.559 101.56C202.725 100.395 203.518 98.9111 203.84 97.2953C204.162 95.6795 203.996 94.0046 203.366 92.4825C202.735 90.9605 201.667 89.6595 200.297 88.7443C198.926 87.829 197.315 87.3404 195.667 87.3404Z" fill="#111111"/>
</g>
<g id="Size=48px, Filled=true" clip-path="url(#clip6_1110_1311)">
<path id="Vector_14" d="M254 88.0085C252.659 88.0112 251.333 88.2833 250.099 88.8088C248.866 89.3342 247.751 90.1023 246.82 91.0672L235.84 85.5696C235.935 85.0549 235.989 84.5334 236 84.0102C235.989 83.487 235.935 82.9656 235.84 82.4509L246.82 76.9532C248.436 78.6191 250.581 79.6713 252.887 79.9294C255.194 80.1876 257.519 79.6356 259.463 78.3682C261.407 77.1008 262.85 75.1968 263.543 72.9827C264.237 70.7686 264.138 68.3823 263.265 66.2329C262.391 64.0834 260.796 62.3048 258.754 61.2018C256.712 60.0988 254.35 59.7402 252.072 60.1875C249.795 60.6348 247.744 61.8601 246.271 63.6534C244.798 65.4466 243.995 67.6961 244 70.0162C244.012 70.5394 244.065 71.0608 244.16 71.5755L233.18 77.0732C231.797 75.6386 230.016 74.65 228.066 74.2344C226.117 73.8187 224.087 73.995 222.239 74.7406C220.39 75.4862 218.806 76.7671 217.691 78.4188C216.576 80.0705 215.98 82.0176 215.98 84.0102C215.98 86.0028 216.576 87.95 217.691 89.6017C218.806 91.2534 220.39 92.5342 222.239 93.2798C224.087 94.0254 226.117 94.2017 228.066 93.7861C230.016 93.3705 231.797 92.3819 233.18 90.9473L244.16 96.4449C244.065 96.9596 244.012 97.481 244 98.0043C244 99.9812 244.587 101.914 245.686 103.558C246.784 105.201 248.346 106.483 250.173 107.239C252.001 107.996 254.011 108.194 255.951 107.808C257.891 107.422 259.673 106.47 261.071 105.072C262.47 103.674 263.422 101.893 263.808 99.9543C264.194 98.0154 263.996 96.0055 263.239 94.1791C262.482 92.3526 261.2 90.7915 259.556 89.6931C257.911 88.5948 255.978 88.0085 254 88.0085Z" fill="#111111"/>
</g>
</g>
<defs>
<clipPath id="clip0_1110_1311">
<rect width="12" height="12" fill="white" transform="translate(0 78)"/>
</clipPath>
<clipPath id="clip1_1110_1311">
<rect width="16" height="16" fill="white" transform="translate(24 76)"/>
</clipPath>
<clipPath id="clip2_1110_1311">
<rect width="20" height="20" fill="white" transform="translate(52 74)"/>
</clipPath>
<clipPath id="clip3_1110_1311">
<rect width="24" height="24" fill="white" transform="translate(84 72)"/>
</clipPath>
<clipPath id="clip4_1110_1311">
<rect width="32" height="32" fill="white" transform="translate(120 68)"/>
</clipPath>
<clipPath id="clip5_1110_1311">
<rect width="40" height="40" fill="white" transform="translate(164 64)"/>
</clipPath>
<clipPath id="clip6_1110_1311">
<rect width="48" height="48" fill="white" transform="translate(216 60)"/>
</clipPath>
</defs>
</svg>
