<svg width="264" height="48" viewBox="0 0 264 48" fill="none" xmlns="http://www.w3.org/2000/svg">
<g id="Shrink">
<g clip-path="url(#clip0_3378_539)">
<g id="Size=12px, Filled=false" clip-path="url(#clip1_3378_539)">
<path id="Vector" d="M11.625 18.374L8.625 21.374M8.625 21.374V18.374M8.625 21.374H11.625M3.375 29.624V26.624M3.375 26.624H0.375M3.375 26.624L0.375 29.624M0.375 18.374L3.375 21.374M3.375 21.374V18.374M3.375 21.374H0.375M8.625 29.624V26.624M8.625 26.624H11.625M8.625 26.624L11.625 29.624" stroke="#111111" stroke-width="0.75" stroke-linecap="round" stroke-linejoin="round"/>
</g>
<g id="Size=16px, Filled=false" clip-path="url(#clip2_3378_539)">
<path id="Vector_2" d="M39.5 16.4987L35.5 20.4987M35.5 20.4987V16.4987M35.5 20.4987H39.5M28.5 31.4987V27.4987M28.5 27.4987H24.5M28.5 27.4987L24.5 31.4987M24.5 16.4987L28.5 20.4987M28.5 20.4987V16.4987M28.5 20.4987H24.5M35.5 31.4987V27.4987M35.5 27.4987H39.5M35.5 27.4987L39.5 31.4987" stroke="#111111" stroke-linecap="round" stroke-linejoin="round"/>
</g>
<g id="Size=20px, Filled=false" clip-path="url(#clip3_3378_539)">
<path id="Vector_3" d="M71.375 14.6234L66.375 19.6234M66.375 19.6234V14.6234M66.375 19.6234H71.375M57.625 33.3734V28.3734M57.625 28.3734H52.625M57.625 28.3734L52.625 33.3734M52.625 14.6234L57.625 19.6234M57.625 19.6234V14.6234M57.625 19.6234H52.625M66.375 33.3734V28.3734M66.375 28.3734H71.375M66.375 28.3734L71.375 33.3734" stroke="#111111" stroke-width="1.25" stroke-linecap="round" stroke-linejoin="round"/>
</g>
<g id="Size=24px, Filled=false" clip-path="url(#clip4_3378_539)">
<path id="Vector_4" d="M107.25 12.748L101.25 18.748M101.25 18.748V12.748M101.25 18.748H107.25M90.75 35.248V29.248M90.75 29.248H84.75M90.75 29.248L84.75 35.248M84.75 12.748L90.75 18.748M90.75 18.748V12.748M90.75 18.748H84.75M101.25 35.248V29.248M101.25 29.248H107.25M101.25 29.248L107.25 35.248" stroke="#111111" stroke-width="1.5" stroke-linecap="round" stroke-linejoin="round"/>
</g>
<g id="Size=32px, Filled=false" clip-path="url(#clip5_3378_539)">
<path id="Vector_5" d="M151 8.99731L143 16.9973M143 16.9973V8.99731M143 16.9973H151M129 38.9973V30.9973M129 30.9973H121M129 30.9973L121 38.9973M121 8.99731L129 16.9973M129 16.9973V8.99731M129 16.9973H121M143 38.9973V30.9973M143 30.9973H151M143 30.9973L151 38.9973" stroke="#111111" stroke-width="2" stroke-linecap="round" stroke-linejoin="round"/>
</g>
<g id="Size=40px, Filled=false" clip-path="url(#clip6_3378_539)">
<path id="Vector_6" d="M202.75 5.24664L192.75 15.2466M192.75 15.2466V5.24664M192.75 15.2466H202.75M175.25 42.7466V32.7466M175.25 32.7466H165.25M175.25 32.7466L165.25 42.7466M165.25 5.24664L175.25 15.2466M175.25 15.2466V5.24664M175.25 15.2466H165.25M192.75 42.7466V32.7466M192.75 32.7466H202.75M192.75 32.7466L202.75 42.7466" stroke="#111111" stroke-width="2.5" stroke-linecap="round" stroke-linejoin="round"/>
</g>
<g id="Size=48px, Filled=false" clip-path="url(#clip7_3378_539)">
<path id="Vector_7" d="M262.5 1.49597L250.5 13.496M250.5 13.496V1.49597M250.5 13.496H262.5M229.5 46.496V34.496M229.5 34.496H217.5M229.5 34.496L217.5 46.496M217.5 1.49597L229.5 13.496M229.5 13.496V1.49597M229.5 13.496H217.5M250.5 46.496V34.496M250.5 34.496H262.5M250.5 34.496L262.5 46.496" stroke="#111111" stroke-width="3" stroke-linecap="round" stroke-linejoin="round"/>
</g>
</g>
</g>
<defs>
<clipPath id="clip0_3378_539">
<rect width="264" height="48" rx="5" fill="white"/>
</clipPath>
<clipPath id="clip1_3378_539">
<rect width="12" height="12" fill="white" transform="translate(0 18)"/>
</clipPath>
<clipPath id="clip2_3378_539">
<rect width="16" height="16" fill="white" transform="translate(24 16)"/>
</clipPath>
<clipPath id="clip3_3378_539">
<rect width="20" height="20" fill="white" transform="translate(52 14)"/>
</clipPath>
<clipPath id="clip4_3378_539">
<rect width="24" height="24" fill="white" transform="translate(84 12)"/>
</clipPath>
<clipPath id="clip5_3378_539">
<rect width="32" height="32" fill="white" transform="translate(120 8)"/>
</clipPath>
<clipPath id="clip6_3378_539">
<rect width="40" height="40" fill="white" transform="translate(164 4)"/>
</clipPath>
<clipPath id="clip7_3378_539">
<rect width="48" height="48" fill="white" transform="translate(216)"/>
</clipPath>
</defs>
</svg>
