<svg width="268" height="108" viewBox="0 0 268 108" fill="none" xmlns="http://www.w3.org/2000/svg">
<g id="Trash">
<g id="Size=12px, Filled=false">
<path id="Vector" d="M0.75 20.25H11.25M4.87495 26.625V22.875M7.12505 26.625V22.875M7.35 18.75H4.65C4.15294 18.75 3.75 19.0858 3.75 19.5V20.25H8.25V19.5C8.25 19.0858 7.84706 18.75 7.35 18.75ZM9.43255 28.562C9.40029 28.9509 9.07525 29.25 8.68505 29.25H3.31555C2.92534 29.25 2.6003 28.9509 2.56805 28.562L1.87505 20.25H10.125L9.43255 28.562Z" stroke="#111111" stroke-width="0.75" stroke-linecap="round" stroke-linejoin="round"/>
</g>
<g id="Size=16px, Filled=false">
<path id="Vector_2" d="M25 19H39M30.4999 27.5V22.5M33.5001 27.5V22.5M33.8 17H30.2C29.5373 17 29 17.4477 29 18V19H35V18C35 17.4477 34.4627 17 33.8 17ZM36.5767 30.0827C36.5337 30.6011 36.1003 31 35.5801 31H28.4207C27.9005 31 27.4671 30.6011 27.4241 30.0827L26.5001 19H37.5001L36.5767 30.0827Z" stroke="#111111" stroke-linecap="round" stroke-linejoin="round"/>
</g>
<g id="Size=20px, Filled=false">
<path id="Vector_3" d="M53.25 17.75H70.75M60.1249 28.375V22.125M63.8751 28.375V22.125M64.25 15.25H59.75C58.9216 15.25 58.25 15.8096 58.25 16.5V17.75H65.75V16.5C65.75 15.8096 65.0784 15.25 64.25 15.25ZM67.7209 31.6033C67.6671 32.2514 67.1254 32.75 66.4751 32.75H57.5259C56.8756 32.75 56.3338 32.2514 56.2801 31.6033L55.1251 17.75H68.8751L67.7209 31.6033Z" stroke="#111111" stroke-width="1.25" stroke-linecap="round" stroke-linejoin="round"/>
</g>
<g id="Size=24px, Filled=false">
<path id="Vector_4" d="M86 17H106M94 30V22M98 30V22M98.4 14H93.6C92.7163 14 92 14.6716 92 15.5V17H100V15.5C100 14.6716 99.2837 14 98.4 14ZM102.657 33.624C102.594 34.4017 101.964 35.0001 101.207 35H90.7937C90.0369 35.0001 89.4066 34.4017 89.344 33.624L88 17H104L102.657 33.624Z" stroke="#111111" stroke-width="1.5" stroke-linecap="round" stroke-linejoin="round"/>
</g>
<g id="Size=32px, Filled=false">
<path id="Vector_5" d="M122 14H150M133 31V21M139 31V21M139.6 10H132.4C131.075 10 130 10.8954 130 12V14H142V12C142 10.8954 140.925 10 139.6 10ZM145.153 36.1653C145.067 37.2023 144.201 38.0001 143.16 38H128.841C127.801 38.0001 126.934 37.2023 126.848 36.1653L125 14H147L145.153 36.1653Z" stroke="#111111" stroke-width="2" stroke-linecap="round" stroke-linejoin="round"/>
</g>
<g id="Size=40px, Filled=false">
<path id="Vector_6" d="M166.5 11.5H201.5M180.25 32.75V20.25M187.75 32.75V20.25M188.5 6.5H179.5C177.843 6.5 176.5 7.61929 176.5 9V11.5H191.5V9C191.5 7.61929 190.157 6.5 188.5 6.5ZM195.442 39.2066C195.334 40.5029 194.251 41.5001 192.95 41.5H175.052C173.751 41.5001 172.668 40.5029 172.56 39.2066L170.25 11.5H197.75L195.442 39.2066Z" stroke="#111111" stroke-width="2.5" stroke-linecap="round" stroke-linejoin="round"/>
</g>
<g id="Size=48px, Filled=false">
<path id="Vector_7" d="M219 8.99998H261M235.5 34.5V19.5M244.5 34.5V19.5M245.4 3H234.6C232.612 3 231 4.34315 231 6V9H249V6C249 4.34315 247.388 3 245.4 3ZM253.73 42.248C253.601 43.8034 252.301 45.0001 250.74 45H229.262C227.701 45.0001 226.401 43.8034 226.272 42.248L223.5 8.99998H256.5L253.73 42.248Z" stroke="#111111" stroke-width="3" stroke-linecap="round" stroke-linejoin="round"/>
</g>
<g id="Size=12px, Filled=true" clip-path="url(#clip0_1110_1319)">
<g id="Vector_8">
<path d="M9.725 81.75H2.275C2.24042 81.7499 2.20619 81.757 2.17447 81.7708C2.14276 81.7845 2.11426 81.8048 2.09076 81.8301C2.06726 81.8555 2.04929 81.8855 2.03797 81.9182C2.02665 81.9509 2.02223 81.9855 2.025 82.02L2.665 89.09C2.68753 89.3393 2.80275 89.5711 2.9879 89.7396C3.17305 89.9081 3.41466 90.001 3.665 90H8.335C8.58534 90.001 8.82695 89.9081 9.0121 89.7396C9.19725 89.5711 9.31247 89.3393 9.335 89.09L10 82C10.0028 81.9655 9.99835 81.9309 9.98703 81.8982C9.97571 81.8655 9.95774 81.8355 9.93424 81.8101C9.91075 81.7848 9.88224 81.7645 9.85053 81.7508C9.81881 81.737 9.78458 81.7299 9.75 81.73L9.725 81.75ZM5.125 88.25C5.125 88.3495 5.08549 88.4448 5.01516 88.5152C4.94484 88.5855 4.84946 88.625 4.75 88.625C4.65054 88.625 4.55516 88.5855 4.48484 88.5152C4.41451 88.4448 4.375 88.3495 4.375 88.25V83.75C4.375 83.6505 4.41451 83.5552 4.48484 83.4848C4.55516 83.4145 4.65054 83.375 4.75 83.375C4.84946 83.375 4.94484 83.4145 5.01516 83.4848C5.08549 83.5552 5.125 83.6505 5.125 83.75V88.25ZM7.625 88.25C7.625 88.3495 7.58549 88.4448 7.51517 88.5152C7.44484 88.5855 7.34946 88.625 7.25 88.625C7.15054 88.625 7.05516 88.5855 6.98484 88.5152C6.91451 88.4448 6.875 88.3495 6.875 88.25V83.75C6.875 83.6505 6.91451 83.5552 6.98484 83.4848C7.05516 83.4145 7.15054 83.375 7.25 83.375C7.34946 83.375 7.44484 83.4145 7.51517 83.4848C7.58549 83.5552 7.625 83.6505 7.625 83.75V88.25Z" fill="#111111"/>
<path d="M11 80H8.625C8.59185 80 8.56005 79.9868 8.53661 79.9634C8.51317 79.9399 8.5 79.9082 8.5 79.875V79.25C8.5 78.9185 8.3683 78.6005 8.13388 78.3661C7.89946 78.1317 7.58152 78 7.25 78H4.75C4.41848 78 4.10054 78.1317 3.86612 78.3661C3.6317 78.6005 3.5 78.9185 3.5 79.25V79.875C3.5 79.9082 3.48683 79.9399 3.46339 79.9634C3.43995 79.9868 3.40815 80 3.375 80H1C0.867392 80 0.740215 80.0527 0.646447 80.1464C0.552678 80.2402 0.5 80.3674 0.5 80.5C0.5 80.6326 0.552678 80.7598 0.646447 80.8536C0.740215 80.9473 0.867392 81 1 81H11C11.1326 81 11.2598 80.9473 11.3536 80.8536C11.4473 80.7598 11.5 80.6326 11.5 80.5C11.5 80.3674 11.4473 80.2402 11.3536 80.1464C11.2598 80.0527 11.1326 80 11 80ZM4.5 79.875V79.25C4.5 79.1837 4.52634 79.1201 4.57322 79.0732C4.62011 79.0263 4.6837 79 4.75 79H7.25C7.3163 79 7.37989 79.0263 7.42678 79.0732C7.47366 79.1201 7.5 79.1837 7.5 79.25V79.875C7.5 79.9082 7.48683 79.9399 7.46339 79.9634C7.43995 79.9868 7.40815 80 7.375 80H4.625C4.59185 80 4.56005 79.9868 4.53661 79.9634C4.51317 79.9399 4.5 79.9082 4.5 79.875Z" fill="#111111"/>
</g>
</g>
<g id="Size=16px, Filled=true" clip-path="url(#clip1_1110_1319)">
<g id="Vector_9">
<path d="M36.9667 81H27.0334C26.9873 80.9999 26.9417 81.0093 26.8994 81.0277C26.8571 81.0461 26.8191 81.073 26.7878 81.1069C26.7564 81.1407 26.7325 81.1807 26.7174 81.2242C26.7023 81.2678 26.6964 81.314 26.7001 81.36L27.5534 90.7867C27.5835 91.1191 27.7371 91.4282 27.984 91.6528C28.2308 91.8775 28.553 92.0014 28.8867 92H35.1134C35.4472 92.0014 35.7693 91.8775 36.0162 91.6528C36.2631 91.4282 36.4167 91.1191 36.4467 90.7867L37.3334 81.3333C37.3371 81.2874 37.3312 81.2411 37.3161 81.1976C37.301 81.154 37.2771 81.114 37.2457 81.0802C37.2144 81.0464 37.1764 81.0194 37.1341 81.001C37.0918 80.9826 37.0462 80.9732 37.0001 80.9733L36.9667 81ZM30.8334 89.6667C30.8334 89.7993 30.7807 89.9265 30.687 90.0202C30.5932 90.114 30.466 90.1667 30.3334 90.1667C30.2008 90.1667 30.0736 90.114 29.9799 90.0202C29.8861 89.9265 29.8334 89.7993 29.8334 89.6667V83.6667C29.8334 83.5341 29.8861 83.4069 29.9799 83.3131C30.0736 83.2193 30.2008 83.1667 30.3334 83.1667C30.466 83.1667 30.5932 83.2193 30.687 83.3131C30.7807 83.4069 30.8334 83.5341 30.8334 83.6667V89.6667ZM34.1667 89.6667C34.1667 89.7993 34.1141 89.9265 34.0203 90.0202C33.9265 90.114 33.7994 90.1667 33.6667 90.1667C33.5341 90.1667 33.407 90.114 33.3132 90.0202C33.2194 89.9265 33.1667 89.7993 33.1667 89.6667V83.6667C33.1667 83.5341 33.2194 83.4069 33.3132 83.3131C33.407 83.2193 33.5341 83.1667 33.6667 83.1667C33.7994 83.1667 33.9265 83.2193 34.0203 83.3131C34.1141 83.4069 34.1667 83.5341 34.1667 83.6667V89.6667Z" fill="#111111"/>
<path d="M38.6667 78.6667H35.5001C35.4559 78.6667 35.4135 78.6491 35.3822 78.6179C35.351 78.5866 35.3334 78.5442 35.3334 78.5V77.6667C35.3334 77.2246 35.1578 76.8007 34.8453 76.4882C34.5327 76.1756 34.1088 76 33.6667 76H30.3334C29.8914 76 29.4675 76.1756 29.1549 76.4882C28.8423 76.8007 28.6667 77.2246 28.6667 77.6667V78.5C28.6667 78.5442 28.6492 78.5866 28.6179 78.6179C28.5867 78.6491 28.5443 78.6667 28.5001 78.6667H25.3334C25.1566 78.6667 24.987 78.7369 24.862 78.8619C24.737 78.987 24.6667 79.1565 24.6667 79.3333C24.6667 79.5101 24.737 79.6797 24.862 79.8047C24.987 79.9298 25.1566 80 25.3334 80H38.6667C38.8436 80 39.0131 79.9298 39.1382 79.8047C39.2632 79.6797 39.3334 79.5101 39.3334 79.3333C39.3334 79.1565 39.2632 78.987 39.1382 78.8619C39.0131 78.7369 38.8436 78.6667 38.6667 78.6667ZM30.0001 78.5V77.6667C30.0001 77.5783 30.0352 77.4935 30.0977 77.431C30.1602 77.3685 30.245 77.3333 30.3334 77.3333H33.6667C33.7552 77.3333 33.8399 77.3685 33.9025 77.431C33.965 77.4935 34.0001 77.5783 34.0001 77.6667V78.5C34.0001 78.5442 33.9825 78.5866 33.9513 78.6179C33.92 78.6491 33.8776 78.6667 33.8334 78.6667H30.1667C30.1225 78.6667 30.0802 78.6491 30.0489 78.6179C30.0176 78.5866 30.0001 78.5442 30.0001 78.5Z" fill="#111111"/>
</g>
</g>
<g id="Size=20px, Filled=true" clip-path="url(#clip2_1110_1319)">
<g id="Vector_10">
<path d="M68.2083 80.25H55.7916C55.7339 80.2498 55.6769 80.2616 55.624 80.2846C55.5712 80.3076 55.5237 80.3413 55.4845 80.3836C55.4454 80.4259 55.4154 80.4758 55.3965 80.5303C55.3777 80.5848 55.3703 80.6425 55.3749 80.7L56.4416 92.4833C56.4791 92.8989 56.6712 93.2852 56.9798 93.566C57.2883 93.8468 57.691 94.0017 58.1083 94H65.8916C66.3088 94.0017 66.7115 93.8468 67.0201 93.566C67.3287 93.2852 67.5207 92.8989 67.5583 92.4833L68.6666 80.6667C68.6712 80.6092 68.6638 80.5514 68.645 80.497C68.6261 80.4425 68.5961 80.3925 68.557 80.3502C68.5178 80.308 68.4703 80.2742 68.4175 80.2513C68.3646 80.2283 68.3076 80.2165 68.2499 80.2167L68.2083 80.25ZM60.5416 91.0833C60.5416 91.2491 60.4757 91.4081 60.3585 91.5253C60.2413 91.6425 60.0823 91.7083 59.9166 91.7083C59.7508 91.7083 59.5919 91.6425 59.4746 91.5253C59.3574 91.4081 59.2916 91.2491 59.2916 91.0833V83.5833C59.2916 83.4176 59.3574 83.2586 59.4746 83.1414C59.5919 83.0242 59.7508 82.9583 59.9166 82.9583C60.0823 82.9583 60.2413 83.0242 60.3585 83.1414C60.4757 83.2586 60.5416 83.4176 60.5416 83.5833V91.0833ZM64.7083 91.0833C64.7083 91.2491 64.6424 91.4081 64.5252 91.5253C64.408 91.6425 64.249 91.7083 64.0833 91.7083C63.9175 91.7083 63.7585 91.6425 63.6413 91.5253C63.5241 91.4081 63.4583 91.2491 63.4583 91.0833V83.5833C63.4583 83.4176 63.5241 83.2586 63.6413 83.1414C63.7585 83.0242 63.9175 82.9583 64.0833 82.9583C64.249 82.9583 64.408 83.0242 64.5252 83.1414C64.6424 83.2586 64.7083 83.4176 64.7083 83.5833V91.0833Z" fill="#111111"/>
<path d="M70.3333 77.3333H66.3749C66.3197 77.3333 66.2667 77.3114 66.2276 77.2723C66.1885 77.2332 66.1666 77.1803 66.1666 77.125V76.0833C66.1666 75.5308 65.9471 75.0009 65.5564 74.6102C65.1657 74.2195 64.6358 74 64.0833 74H59.9166C59.3641 74 58.8341 74.2195 58.4434 74.6102C58.0527 75.0009 57.8333 75.5308 57.8333 76.0833V77.125C57.8333 77.1803 57.8113 77.2332 57.7722 77.2723C57.7332 77.3114 57.6802 77.3333 57.6249 77.3333H53.6666C53.4456 77.3333 53.2336 77.4211 53.0773 77.5774C52.921 77.7337 52.8333 77.9457 52.8333 78.1667C52.8333 78.3877 52.921 78.5996 53.0773 78.7559C53.2336 78.9122 53.4456 79 53.6666 79H70.3333C70.5543 79 70.7662 78.9122 70.9225 78.7559C71.0788 78.5996 71.1666 78.3877 71.1666 78.1667C71.1666 77.9457 71.0788 77.7337 70.9225 77.5774C70.7662 77.4211 70.5543 77.3333 70.3333 77.3333ZM59.4999 77.125V76.0833C59.4999 75.9728 59.5438 75.8668 59.622 75.7887C59.7001 75.7106 59.8061 75.6667 59.9166 75.6667H64.0833C64.1938 75.6667 64.2997 75.7106 64.3779 75.7887C64.456 75.8668 64.4999 75.9728 64.4999 76.0833V77.125C64.4999 77.1803 64.478 77.2332 64.4389 77.2723C64.3998 77.3114 64.3468 77.3333 64.2916 77.3333H59.7083C59.653 77.3333 59.6 77.3114 59.5609 77.2723C59.5219 77.2332 59.4999 77.1803 59.4999 77.125Z" fill="#111111"/>
</g>
</g>
<g id="Size=24px, Filled=true" clip-path="url(#clip3_1110_1319)">
<g id="Vector_11">
<path d="M103.45 79.5H88.55C88.4808 79.4998 88.4124 79.5139 88.3489 79.5415C88.2855 79.5691 88.2285 79.6095 88.1815 79.6603C88.1345 79.711 88.0986 79.771 88.0759 79.8364C88.0533 79.9017 88.0445 79.9711 88.05 80.04L89.33 94.18C89.3751 94.6786 89.6055 95.1423 89.9758 95.4792C90.3461 95.8162 90.8293 96.002 91.33 96H100.67C101.171 96.002 101.654 95.8162 102.024 95.4792C102.394 95.1423 102.625 94.6786 102.67 94.18L104 80C104.006 79.9311 103.997 79.8617 103.974 79.7964C103.951 79.731 103.915 79.671 103.868 79.6203C103.821 79.5695 103.764 79.5291 103.701 79.5015C103.638 79.4739 103.569 79.4598 103.5 79.46L103.45 79.5ZM94.25 92.5C94.25 92.6989 94.171 92.8897 94.0303 93.0303C93.8897 93.171 93.6989 93.25 93.5 93.25C93.3011 93.25 93.1103 93.171 92.9697 93.0303C92.829 92.8897 92.75 92.6989 92.75 92.5V83.5C92.75 83.3011 92.829 83.1103 92.9697 82.9697C93.1103 82.829 93.3011 82.75 93.5 82.75C93.6989 82.75 93.8897 82.829 94.0303 82.9697C94.171 83.1103 94.25 83.3011 94.25 83.5V92.5ZM99.25 92.5C99.25 92.6989 99.171 92.8897 99.0303 93.0303C98.8897 93.171 98.6989 93.25 98.5 93.25C98.3011 93.25 98.1103 93.171 97.9697 93.0303C97.829 92.8897 97.75 92.6989 97.75 92.5V83.5C97.75 83.3011 97.829 83.1103 97.9697 82.9697C98.1103 82.829 98.3011 82.75 98.5 82.75C98.6989 82.75 98.8897 82.829 99.0303 82.9697C99.171 83.1103 99.25 83.3011 99.25 83.5V92.5Z" fill="#111111"/>
<path d="M106 76H101.25C101.184 76 101.12 75.9737 101.073 75.9268C101.026 75.8799 101 75.8163 101 75.75V74.5C101 73.837 100.737 73.2011 100.268 72.7322C99.7989 72.2634 99.163 72 98.5 72H93.5C92.837 72 92.2011 72.2634 91.7322 72.7322C91.2634 73.2011 91 73.837 91 74.5V75.75C91 75.8163 90.9737 75.8799 90.9268 75.9268C90.8799 75.9737 90.8163 76 90.75 76H86C85.7348 76 85.4804 76.1054 85.2929 76.2929C85.1054 76.4804 85 76.7348 85 77C85 77.2652 85.1054 77.5196 85.2929 77.7071C85.4804 77.8946 85.7348 78 86 78H106C106.265 78 106.52 77.8946 106.707 77.7071C106.895 77.5196 107 77.2652 107 77C107 76.7348 106.895 76.4804 106.707 76.2929C106.52 76.1054 106.265 76 106 76ZM93 75.75V74.5C93 74.3674 93.0527 74.2402 93.1464 74.1464C93.2402 74.0527 93.3674 74 93.5 74H98.5C98.6326 74 98.7598 74.0527 98.8536 74.1464C98.9473 74.2402 99 74.3674 99 74.5V75.75C99 75.8163 98.9737 75.8799 98.9268 75.9268C98.8799 75.9737 98.8163 76 98.75 76H93.25C93.1837 76 93.1201 75.9737 93.0732 75.9268C93.0263 75.8799 93 75.8163 93 75.75Z" fill="#111111"/>
</g>
</g>
<g id="Size=32px, Filled=true" clip-path="url(#clip4_1110_1319)">
<g id="Vector_12">
<path d="M145.933 78H126.067C125.974 77.9997 125.883 78.0185 125.799 78.0553C125.714 78.0921 125.638 78.1461 125.575 78.2137C125.513 78.2814 125.465 78.3613 125.434 78.4485C125.404 78.5356 125.393 78.6281 125.4 78.72L127.107 97.5733C127.167 98.2382 127.474 98.8563 127.968 99.3056C128.461 99.7549 129.106 100.003 129.773 100H142.227C142.894 100.003 143.538 99.7549 144.032 99.3056C144.526 98.8563 144.833 98.2382 144.893 97.5733L146.667 78.6667C146.674 78.5747 146.662 78.4823 146.632 78.3951C146.602 78.308 146.554 78.2281 146.491 78.1604C146.429 78.0927 146.353 78.0388 146.268 78.002C146.183 77.9652 146.092 77.9464 146 77.9467L145.933 78ZM133.667 95.3333C133.667 95.5986 133.561 95.8529 133.374 96.0404C133.186 96.228 132.932 96.3333 132.667 96.3333C132.401 96.3333 132.147 96.228 131.959 96.0404C131.772 95.8529 131.667 95.5986 131.667 95.3333V83.3333C131.667 83.0681 131.772 82.8138 131.959 82.6262C132.147 82.4387 132.401 82.3333 132.667 82.3333C132.932 82.3333 133.186 82.4387 133.374 82.6262C133.561 82.8138 133.667 83.0681 133.667 83.3333V95.3333ZM140.333 95.3333C140.333 95.5986 140.228 95.8529 140.04 96.0404C139.853 96.228 139.598 96.3333 139.333 96.3333C139.068 96.3333 138.814 96.228 138.626 96.0404C138.439 95.8529 138.333 95.5986 138.333 95.3333V83.3333C138.333 83.0681 138.439 82.8138 138.626 82.6262C138.814 82.4387 139.068 82.3333 139.333 82.3333C139.598 82.3333 139.853 82.4387 140.04 82.6262C140.228 82.8138 140.333 83.0681 140.333 83.3333V95.3333Z" fill="#111111"/>
<path d="M149.333 73.3333H143C142.912 73.3333 142.827 73.2982 142.764 73.2357C142.702 73.1732 142.667 73.0884 142.667 73V71.3333C142.667 70.4493 142.315 69.6014 141.69 68.9763C141.065 68.3512 140.217 68 139.333 68H132.667C131.783 68 130.935 68.3512 130.31 68.9763C129.684 69.6014 129.333 70.4493 129.333 71.3333V73C129.333 73.0884 129.298 73.1732 129.236 73.2357C129.173 73.2982 129.088 73.3333 129 73.3333H122.667C122.313 73.3333 121.974 73.4738 121.724 73.7239C121.474 73.9739 121.333 74.313 121.333 74.6667C121.333 75.0203 121.474 75.3594 121.724 75.6095C121.974 75.8595 122.313 76 122.667 76H149.333C149.687 76 150.026 75.8595 150.276 75.6095C150.526 75.3594 150.667 75.0203 150.667 74.6667C150.667 74.313 150.526 73.9739 150.276 73.7239C150.026 73.4738 149.687 73.3333 149.333 73.3333ZM132 73V71.3333C132 71.1565 132.07 70.987 132.195 70.8619C132.32 70.7369 132.49 70.6667 132.667 70.6667H139.333C139.51 70.6667 139.68 70.7369 139.805 70.8619C139.93 70.987 140 71.1565 140 71.3333V73C140 73.0884 139.965 73.1732 139.902 73.2357C139.84 73.2982 139.755 73.3333 139.667 73.3333H132.333C132.245 73.3333 132.16 73.2982 132.098 73.2357C132.035 73.1732 132 73.0884 132 73Z" fill="#111111"/>
</g>
</g>
<g id="Size=40px, Filled=true" clip-path="url(#clip5_1110_1319)">
<g id="Vector_13">
<path d="M196.417 76.5H171.583C171.468 76.4996 171.354 76.5232 171.248 76.5692C171.143 76.6152 171.048 76.6826 170.969 76.7672C170.891 76.8517 170.831 76.9517 170.793 77.0606C170.756 77.1695 170.741 77.2851 170.75 77.4L172.883 100.967C172.959 101.798 173.343 102.57 173.96 103.132C174.577 103.694 175.382 104.003 176.217 104H191.783C192.618 104.003 193.423 103.694 194.04 103.132C194.658 102.57 195.042 101.798 195.117 100.967L197.333 77.3333C197.343 77.2184 197.328 77.1029 197.29 76.9939C197.252 76.885 197.193 76.7851 197.114 76.7005C197.036 76.6159 196.941 76.5485 196.835 76.5025C196.729 76.4565 196.615 76.433 196.5 76.4333L196.417 76.5ZM181.083 98.1667C181.083 98.4982 180.952 98.8161 180.717 99.0506C180.483 99.285 180.165 99.4167 179.833 99.4167C179.502 99.4167 179.184 99.285 178.95 99.0506C178.715 98.8161 178.583 98.4982 178.583 98.1667V83.1667C178.583 82.8351 178.715 82.5172 178.95 82.2828C179.184 82.0484 179.502 81.9167 179.833 81.9167C180.165 81.9167 180.483 82.0484 180.717 82.2828C180.952 82.5172 181.083 82.8351 181.083 83.1667V98.1667ZM189.417 98.1667C189.417 98.4982 189.285 98.8161 189.051 99.0506C188.816 99.285 188.498 99.4167 188.167 99.4167C187.835 99.4167 187.517 99.285 187.283 99.0506C187.048 98.8161 186.917 98.4982 186.917 98.1667V83.1667C186.917 82.8351 187.048 82.5172 187.283 82.2828C187.517 82.0484 187.835 81.9167 188.167 81.9167C188.498 81.9167 188.816 82.0484 189.051 82.2828C189.285 82.5172 189.417 82.8351 189.417 83.1667V98.1667Z" fill="#111111"/>
<path d="M200.667 70.6667H192.75C192.64 70.6667 192.534 70.6228 192.455 70.5446C192.377 70.4665 192.333 70.3605 192.333 70.25V68.1667C192.333 67.0616 191.894 66.0018 191.113 65.2204C190.332 64.439 189.272 64 188.167 64H179.833C178.728 64 177.669 64.439 176.887 65.2204C176.106 66.0018 175.667 67.0616 175.667 68.1667V70.25C175.667 70.3605 175.623 70.4665 175.545 70.5446C175.467 70.6228 175.361 70.6667 175.25 70.6667H167.333C166.891 70.6667 166.467 70.8423 166.155 71.1548C165.842 71.4674 165.667 71.8913 165.667 72.3333C165.667 72.7754 165.842 73.1993 166.155 73.5118C166.467 73.8244 166.891 74 167.333 74H200.667C201.109 74 201.533 73.8244 201.845 73.5118C202.158 73.1993 202.333 72.7754 202.333 72.3333C202.333 71.8913 202.158 71.4674 201.845 71.1548C201.533 70.8423 201.109 70.6667 200.667 70.6667ZM179 70.25V68.1667C179 67.9457 179.088 67.7337 179.244 67.5774C179.4 67.4211 179.612 67.3333 179.833 67.3333H188.167C188.388 67.3333 188.6 67.4211 188.756 67.5774C188.912 67.7337 189 67.9457 189 68.1667V70.25C189 70.3605 188.956 70.4665 188.878 70.5446C188.8 70.6228 188.694 70.6667 188.583 70.6667H179.417C179.306 70.6667 179.2 70.6228 179.122 70.5446C179.044 70.4665 179 70.3605 179 70.25Z" fill="#111111"/>
</g>
</g>
<g id="Size=48px, Filled=true" clip-path="url(#clip6_1110_1319)">
<g id="Vector_14">
<path d="M254.9 75H225.1C224.962 74.9996 224.825 75.0278 224.698 75.083C224.571 75.1382 224.457 75.2191 224.363 75.3206C224.269 75.4221 224.197 75.542 224.152 75.6727C224.107 75.8034 224.089 75.9421 224.1 76.08L226.66 104.36C226.75 105.357 227.211 106.285 227.952 106.958C228.692 107.632 229.659 108.004 230.66 108H249.34C250.341 108.004 251.308 107.632 252.048 106.958C252.789 106.285 253.25 105.357 253.34 104.36L256 76C256.011 75.8621 255.993 75.7234 255.948 75.5927C255.903 75.462 255.831 75.3421 255.737 75.2406C255.643 75.1391 255.529 75.0582 255.402 75.003C255.275 74.9478 255.138 74.9196 255 74.92L254.9 75ZM236.5 101C236.5 101.398 236.342 101.779 236.061 102.061C235.779 102.342 235.398 102.5 235 102.5C234.602 102.5 234.221 102.342 233.939 102.061C233.658 101.779 233.5 101.398 233.5 101V83C233.5 82.6022 233.658 82.2206 233.939 81.9393C234.221 81.658 234.602 81.5 235 81.5C235.398 81.5 235.779 81.658 236.061 81.9393C236.342 82.2206 236.5 82.6022 236.5 83V101ZM246.5 101C246.5 101.398 246.342 101.779 246.061 102.061C245.779 102.342 245.398 102.5 245 102.5C244.602 102.5 244.221 102.342 243.939 102.061C243.658 101.779 243.5 101.398 243.5 101V83C243.5 82.6022 243.658 82.2206 243.939 81.9393C244.221 81.658 244.602 81.5 245 81.5C245.398 81.5 245.779 81.658 246.061 81.9393C246.342 82.2206 246.5 82.6022 246.5 83V101Z" fill="#111111"/>
<path d="M260 68H250.5C250.367 68 250.24 67.9473 250.146 67.8536C250.053 67.7598 250 67.6326 250 67.5V65C250 63.6739 249.473 62.4021 248.536 61.4645C247.598 60.5268 246.326 60 245 60H235C233.674 60 232.402 60.5268 231.464 61.4645C230.527 62.4021 230 63.6739 230 65V67.5C230 67.6326 229.947 67.7598 229.854 67.8536C229.76 67.9473 229.633 68 229.5 68H220C219.47 68 218.961 68.2107 218.586 68.5858C218.211 68.9609 218 69.4696 218 70C218 70.5304 218.211 71.0391 218.586 71.4142C218.961 71.7893 219.47 72 220 72H260C260.53 72 261.039 71.7893 261.414 71.4142C261.789 71.0391 262 70.5304 262 70C262 69.4696 261.789 68.9609 261.414 68.5858C261.039 68.2107 260.53 68 260 68ZM234 67.5V65C234 64.7348 234.105 64.4804 234.293 64.2929C234.48 64.1054 234.735 64 235 64H245C245.265 64 245.52 64.1054 245.707 64.2929C245.895 64.4804 246 64.7348 246 65V67.5C246 67.6326 245.947 67.7598 245.854 67.8536C245.76 67.9473 245.633 68 245.5 68H234.5C234.367 68 234.24 67.9473 234.146 67.8536C234.053 67.7598 234 67.6326 234 67.5Z" fill="#111111"/>
</g>
</g>
</g>
<defs>
<clipPath id="clip0_1110_1319">
<rect width="12" height="12" fill="white" transform="translate(0 78)"/>
</clipPath>
<clipPath id="clip1_1110_1319">
<rect width="16" height="16" fill="white" transform="translate(24 76)"/>
</clipPath>
<clipPath id="clip2_1110_1319">
<rect width="20" height="20" fill="white" transform="translate(52 74)"/>
</clipPath>
<clipPath id="clip3_1110_1319">
<rect width="24" height="24" fill="white" transform="translate(84 72)"/>
</clipPath>
<clipPath id="clip4_1110_1319">
<rect width="32" height="32" fill="white" transform="translate(120 68)"/>
</clipPath>
<clipPath id="clip5_1110_1319">
<rect width="40" height="40" fill="white" transform="translate(164 64)"/>
</clipPath>
<clipPath id="clip6_1110_1319">
<rect width="48" height="48" fill="white" transform="translate(216 60)"/>
</clipPath>
</defs>
</svg>
