<svg width="264" height="108" viewBox="0 0 264 108" fill="none" xmlns="http://www.w3.org/2000/svg">
<g id="Upload">
<g clip-path="url(#clip0_3477_535)">
<g id="Size=12px, Filled=false">
<path id="Vector" d="M6.00049 25.875V19.875M6.00049 19.875L8.25049 22.125M6.00049 19.875L3.75049 22.125M11.6255 25.875V26.625C11.6255 27.0228 11.4675 27.4044 11.1861 27.6857C10.9048 27.967 10.5233 28.125 10.1255 28.125H1.87549C1.47766 28.125 1.09613 27.967 0.814828 27.6857C0.533524 27.4044 0.375488 27.0228 0.375488 26.625V25.875" stroke="#111111" stroke-width="0.75" stroke-linecap="round" stroke-linejoin="round"/>
</g>
<g id="Size=16px, Filled=false">
<path id="Vector_2" d="M32.0007 26.5V18.5M32.0007 18.5L35.0007 21.5M32.0007 18.5L29.0007 21.5M39.5007 26.5V27.5C39.5007 28.0304 39.29 28.5391 38.9149 28.9142C38.5399 29.2893 38.0312 29.5 37.5007 29.5H26.5007C25.9703 29.5 25.4616 29.2893 25.0865 28.9142C24.7114 28.5391 24.5007 28.0304 24.5007 27.5V26.5" stroke="#111111" stroke-linecap="round" stroke-linejoin="round"/>
</g>
<g id="Size=20px, Filled=false">
<path id="Vector_3" d="M62.0007 27.125V17.125M62.0007 17.125L65.7507 20.875M62.0007 17.125L58.2507 20.875M71.3757 27.125V28.375C71.3757 29.038 71.1123 29.6739 70.6435 30.1428C70.1747 30.6116 69.5388 30.875 68.8757 30.875H55.1257C54.4627 30.875 53.8268 30.6116 53.358 30.1428C52.8891 29.6739 52.6257 29.038 52.6257 28.375V27.125" stroke="#111111" stroke-width="1.25" stroke-linecap="round" stroke-linejoin="round"/>
</g>
<g id="Size=24px, Filled=false">
<path id="Vector_4" d="M96.001 27.75V15.75M96.001 15.75L100.501 20.25M96.001 15.75L91.501 20.25M107.251 27.75V29.25C107.251 30.0456 106.935 30.8087 106.372 31.3713C105.81 31.9339 105.047 32.25 104.251 32.25H87.751C86.9553 32.25 86.1923 31.9339 85.6297 31.3713C85.067 30.8087 84.751 30.0456 84.751 29.25V27.75" stroke="#111111" stroke-width="1.5" stroke-linecap="round" stroke-linejoin="round"/>
</g>
<g id="Size=32px, Filled=false" clip-path="url(#clip1_3477_535)">
<path id="Vector_5" d="M136.001 29V13M136.001 13L142.001 19M136.001 13L130.001 19M151.001 29V31C151.001 32.0609 150.58 33.0783 149.83 33.8284C149.08 34.5786 148.062 35 147.001 35H125.001C123.94 35 122.923 34.5786 122.173 33.8284C121.423 33.0783 121.001 32.0609 121.001 31V29" stroke="#111111" stroke-width="2" stroke-linecap="round" stroke-linejoin="round"/>
</g>
<g id="Size=40px, Filled=false" clip-path="url(#clip2_3477_535)">
<path id="Vector_6" d="M184.002 30.25V10.25M184.002 10.25L191.502 17.75M184.002 10.25L176.502 17.75M202.752 30.25V32.75C202.752 34.0761 202.225 35.3479 201.287 36.2855C200.35 37.2232 199.078 37.75 197.752 37.75H170.252C168.926 37.75 167.654 37.2232 166.716 36.2855C165.778 35.3479 165.252 34.0761 165.252 32.75V30.25" stroke="#111111" stroke-width="2.5" stroke-linecap="round" stroke-linejoin="round"/>
</g>
<g id="Size=48px, Filled=false" clip-path="url(#clip3_3477_535)">
<path id="Vector_7" d="M240.002 31.5V7.5M240.002 7.5L249.002 16.5M240.002 7.5L231.002 16.5M262.502 31.5V34.5C262.502 36.0913 261.87 37.6174 260.745 38.7426C259.619 39.8679 258.093 40.5 256.502 40.5H223.502C221.911 40.5 220.385 39.8679 219.259 38.7426C218.134 37.6174 217.502 36.0913 217.502 34.5V31.5" stroke="#111111" stroke-width="3" stroke-linecap="round" stroke-linejoin="round"/>
</g>
<g id="Size=12px, Filled=true">
<path id="Vector_8" fill-rule="evenodd" clip-rule="evenodd" d="M1 81C1 79.8954 1.89543 79 3 79H9C10.1046 79 11 79.8954 11 81V87C11 88.1046 10.1046 89 9 89H3C1.89543 89 1 88.1046 1 87V81ZM3 86.0333C3 85.7388 2.78932 85.5 2.52944 85.5C2.26956 85.5 2 85.7388 2 86.0333V86.4C2 86.8243 2.14873 87.2313 2.41347 87.5314C2.67821 87.8314 3.03728 88 3.41168 88H8.58783C8.96223 88 9.3213 87.8314 9.58604 87.5314C9.85078 87.2313 9.99951 86.8243 9.99951 86.4V86.0333C9.99951 85.7388 9.73044 85.5 9.47056 85.5C9.21068 85.5 9 85.7388 9 86.0333V86.4667C9 86.6081 8.95042 86.7438 8.86218 86.8438C8.77393 86.9438 8.65424 87 8.52944 87H3.41168C3.28688 87 3.16719 86.9438 3.07894 86.8438C2.99842 86.7525 2.99912 86.6316 2.99986 86.5036L3 86.4667V86.0333ZM6.30717 80.1054C6.22287 80.0397 6.11695 80.0004 6.00187 80L6.00003 80C5.8337 80 5.6863 80.0812 5.59541 80.2062L4.10003 82.2C3.93434 82.4209 3.97912 82.7343 4.20003 82.9C4.42094 83.0657 4.73434 83.0209 4.90003 82.8L5.5 82V85.5C5.5 85.7761 5.72386 86 6 86C6.27614 86 6.5 85.7761 6.5 85.5V82L7.10003 82.8C7.26572 83.0209 7.57912 83.0657 7.80003 82.9C8.02094 82.7343 8.06571 82.4209 7.90003 82.2L6.40169 80.2022L6.39446 80.1927C6.36882 80.1598 6.33944 80.1306 6.30717 80.1054Z" fill="#111111"/>
</g>
<g id="Size=16px, Filled=true">
<path id="Vector_9" fill-rule="evenodd" clip-rule="evenodd" d="M25.3333 80C25.3333 78.5272 26.5272 77.3333 27.9999 77.3333H35.9999C37.4727 77.3333 38.6666 78.5272 38.6666 80V88C38.6666 89.4728 37.4727 90.6667 35.9999 90.6667H27.9999C26.5272 90.6667 25.3333 89.4728 25.3333 88V80ZM27.9999 86.7111C27.9999 86.3184 27.719 86 27.3725 86C27.026 86 26.6666 86.3184 26.6666 86.7111V87.2C26.6666 87.7658 26.8649 88.3084 27.2179 88.7085C27.5709 89.1086 28.0496 89.3333 28.5488 89.3333H35.4504C35.9496 89.3333 36.4283 89.1086 36.7813 88.7085C37.1343 88.3084 37.3326 87.7658 37.3326 87.2V86.7111C37.3326 86.3184 36.9738 86 36.6273 86C36.2808 86 35.9999 86.3184 35.9999 86.7111V87.2889C35.9999 87.4775 35.9338 87.6583 35.8162 87.7917C35.6985 87.9251 35.5389 88 35.3725 88H28.5488C28.3824 88 28.2228 87.9251 28.1052 87.7917C27.9978 87.67 27.9987 87.5088 27.9997 87.3382L27.9999 87.2889V86.7111ZM32.4131 78.8101C32.2995 78.7203 32.156 78.6667 32 78.6667C31.7783 78.6667 31.5818 78.7749 31.4606 78.9414L29.4666 81.6C29.2457 81.8946 29.3054 82.3124 29.6 82.5333C29.8945 82.7542 30.3124 82.6946 30.5333 82.4L31.3333 81.3334V86C31.3333 86.3682 31.6317 86.6667 31.9999 86.6667C32.3681 86.6667 32.6666 86.3682 32.6666 86V81.3333L33.4666 82.4C33.6875 82.6946 34.1054 82.7542 34.4 82.5333C34.6945 82.3124 34.7542 81.8946 34.5333 81.6L32.5359 78.9368C32.5317 78.9312 32.5275 78.9256 32.5231 78.9201C32.4906 78.8789 32.4536 78.8421 32.4131 78.8101Z" fill="#111111"/>
</g>
<g id="Size=20px, Filled=true">
<path id="Vector_10" fill-rule="evenodd" clip-rule="evenodd" d="M53.6667 79C53.6667 77.159 55.1591 75.6667 57.0001 75.6667H67.0001C68.841 75.6667 70.3334 77.159 70.3334 79V89C70.3334 90.8409 68.841 92.3333 67.0001 92.3333H57.0001C55.1591 92.3333 53.6667 90.8409 53.6667 89V79ZM57.0001 87.3889C57.0001 86.898 56.649 86.5 56.2158 86.5C55.7827 86.5 55.3334 86.898 55.3334 87.3889V88C55.3334 88.7072 55.5813 89.3855 56.0225 89.8856C56.4638 90.3857 57.0622 90.6667 57.6862 90.6667H66.3131C66.9371 90.6667 67.5356 90.3857 67.9768 89.8856C68.4181 89.3855 68.6659 88.7072 68.6659 88V87.3889C68.6659 86.898 68.2175 86.5 67.7843 86.5C67.3512 86.5 67.0001 86.898 67.0001 87.3889V88.1111C67.0001 88.3468 66.9175 88.5729 66.7704 88.7396C66.6233 88.9063 66.4238 89 66.2158 89H57.6862C57.4782 89 57.2787 88.9063 57.1317 88.7396C56.9974 88.5875 56.9986 88.386 56.9998 88.1727L57.0001 88.1111V87.3889ZM62.5165 77.5126C62.3746 77.4004 62.1952 77.3333 62.0001 77.3333C61.7231 77.3333 61.4776 77.4685 61.326 77.6766L58.8335 81C58.5573 81.3682 58.6319 81.8905 59.0001 82.1667C59.3683 82.4428 59.8907 82.3682 60.1668 82L61.1668 80.6667V86.5C61.1668 86.9602 61.5399 87.3333 62.0001 87.3333C62.4603 87.3333 62.8334 86.9602 62.8334 86.5V80.6666L63.8335 82C64.1096 82.3682 64.6319 82.4428 65.0001 82.1667C65.3683 81.8905 65.4429 81.3682 65.1668 81L62.6703 77.6714C62.665 77.6642 62.6596 77.6571 62.6541 77.6501C62.6134 77.5986 62.5671 77.5526 62.5165 77.5126Z" fill="#111111"/>
</g>
<g id="Size=24px, Filled=true">
<path id="Vector_11" fill-rule="evenodd" clip-rule="evenodd" d="M86 78C86 75.7909 87.7909 74 90 74H102C104.209 74 106 75.7909 106 78V90C106 92.2091 104.209 94 102 94H90C87.7909 94 86 92.2091 86 90V78ZM90 88.0667C90 87.4776 89.5786 87 89.0589 87C88.5391 87 88 87.4776 88 88.0667V88.8C88 89.6487 88.2975 90.4626 88.8269 91.0627C89.3564 91.6629 90.0746 92 90.8234 92H101.176C101.924 92 102.643 91.6629 103.172 91.0627C103.702 90.4626 103.999 89.6487 103.999 88.8V88.0667C103.999 87.4776 103.461 87 102.941 87C102.421 87 102 87.4776 102 88.0667V88.9333C102 89.2162 101.901 89.4875 101.724 89.6876C101.548 89.8876 101.308 90 101.059 90H90.8234C90.5738 90 90.3344 89.8876 90.1579 89.6876C89.9968 89.505 89.9982 89.2632 89.9997 89.0073L90 88.9333V88.0667ZM96.6198 76.2151C96.4494 76.0804 96.2341 76 96.0001 76C95.6677 76 95.3731 76.1622 95.1912 76.4117L92.2001 80.4C91.8687 80.8418 91.9582 81.4686 92.4001 81.8C92.8419 82.1314 93.4687 82.0418 93.8001 81.6L95 80.0001V87C95 87.5523 95.4477 88 96 88C96.5523 88 97 87.5523 97 87V79.9999L98.2001 81.6C98.5314 82.0418 99.1582 82.1314 99.6001 81.8C100.042 81.4686 100.131 80.8418 99.8001 80.4L96.8045 76.4059C96.7967 76.3954 96.7888 76.3851 96.7806 76.375C96.7328 76.3152 96.6788 76.2617 96.6198 76.2151Z" fill="#111111"/>
</g>
<g id="Size=32px, Filled=true">
<path id="Vector_12" fill-rule="evenodd" clip-rule="evenodd" d="M122.667 76C122.667 73.0545 125.055 70.6667 128 70.6667H144C146.946 70.6667 149.333 73.0545 149.333 76V92C149.333 94.9455 146.946 97.3333 144 97.3333H128C125.055 97.3333 122.667 94.9455 122.667 92V76ZM128 89.4222C128 88.6367 127.438 88 126.745 88C126.052 88 125.333 88.6367 125.333 89.4222V90.4C125.333 91.5316 125.73 92.6168 126.436 93.417C127.142 94.2171 128.099 94.6667 129.098 94.6667H142.901C143.899 94.6667 144.857 94.2171 145.563 93.417C146.269 92.6168 146.665 91.5316 146.665 90.4V89.4222C146.665 88.6367 145.948 88 145.255 88C144.562 88 144 88.6367 144 89.4222V90.5777C144 90.9549 143.868 91.3167 143.633 91.5834C143.397 91.8501 143.078 92 142.745 92H129.098C128.765 92 128.446 91.8501 128.211 91.5834C127.996 91.34 127.998 91.0175 128 90.6764L128 90.5777V89.4222ZM136.833 73.6256C136.605 73.4427 136.315 73.3333 136 73.3333C135.557 73.3333 135.164 73.5495 134.922 73.8821L130.933 79.2C130.492 79.7891 130.611 80.6248 131.2 81.0667C131.789 81.5085 132.625 81.3891 133.067 80.8L134.667 78.6667V88C134.667 88.7364 135.264 89.3333 136 89.3333C136.736 89.3333 137.333 88.7364 137.333 88V78.6666L138.933 80.8C139.375 81.3891 140.211 81.5085 140.8 81.0667C141.389 80.6248 141.509 79.7891 141.067 79.2L137.073 73.8749C137.062 73.8595 137.05 73.8443 137.038 73.8295C136.977 73.7536 136.908 73.6854 136.833 73.6256Z" fill="#111111"/>
</g>
<g id="Size=40px, Filled=true">
<path id="Vector_13" fill-rule="evenodd" clip-rule="evenodd" d="M167.333 74C167.333 70.3181 170.318 67.3333 174 67.3333H194C197.682 67.3333 200.667 70.3181 200.667 74V94C200.667 97.6819 197.682 100.667 194 100.667H174C170.318 100.667 167.333 97.6819 167.333 94V74ZM174 90.7778C174 89.7959 173.298 89 172.431 89C171.565 89 170.667 89.7959 170.667 90.7778V92C170.667 93.4145 171.162 94.771 172.045 95.7712C172.927 96.7714 174.124 97.3333 175.372 97.3333H192.626C193.874 97.3333 195.071 96.7714 195.953 95.7712C196.836 94.771 197.332 93.4145 197.332 92V90.7778C197.332 89.7959 196.435 89 195.568 89C194.702 89 194 89.7959 194 90.7778V92.2222C194 92.6937 193.835 93.1459 193.541 93.4793C193.246 93.8127 192.847 94 192.431 94H175.372C174.956 94 174.557 93.8127 174.263 93.4793C173.995 93.1751 173.997 92.7719 173.999 92.3455L174 92.2222V90.7778ZM185.297 71.2868C184.992 70.9086 184.524 70.6667 184 70.6667C183.446 70.6667 182.955 70.9368 182.652 71.3525L177.667 78C177.114 78.7364 177.264 79.781 178 80.3333C178.736 80.8856 179.781 80.7364 180.333 80L182.333 77.3334V89C182.333 89.9205 183.079 90.6667 184 90.6667C184.92 90.6667 185.667 89.9205 185.667 89V77.3332L187.667 80C188.219 80.7364 189.264 80.8856 190 80.3333C190.736 79.7811 190.886 78.7364 190.333 78L185.341 71.3439C185.327 71.3246 185.312 71.3055 185.297 71.2868Z" fill="#111111"/>
</g>
<g id="Size=48px, Filled=true">
<path id="Vector_14" fill-rule="evenodd" clip-rule="evenodd" d="M220 72C220 67.5817 223.582 64 228 64H252C256.418 64 260 67.5817 260 72V96C260 100.418 256.418 104 252 104H228C223.582 104 220 100.418 220 96V72ZM228 92.1333C228 90.9551 227.157 90 226.118 90C225.078 90 224 90.9551 224 92.1333V93.6C224 95.2974 224.595 96.9253 225.654 98.1255C226.713 99.3257 228.149 100 229.647 100H250.351C251.849 100 253.285 99.3257 254.344 98.1255C255.403 96.9253 255.998 95.2974 255.998 93.6V92.1333C255.998 90.9551 254.922 90 253.882 90C252.843 90 252 90.9551 252 92.1333V93.8666C252 94.4324 251.802 94.975 251.449 95.3751C251.096 95.7752 250.617 96 250.118 96H229.647C229.148 96 228.669 95.7752 228.316 95.3751C227.994 95.0101 227.996 94.5263 227.999 94.0146L228 93.8666V92.1333ZM241.553 68.7394C241.186 68.2883 240.627 68 240 68C239.336 68 238.747 68.3241 238.383 68.8229L232.4 76.8C231.737 77.6837 231.916 78.9373 232.8 79.6C233.684 80.2627 234.937 80.0837 235.6 79.2L238 76.0001V90C238 91.1046 238.895 92 240 92C241.105 92 242 91.1046 242 90V75.9999L244.4 79.2C245.063 80.0837 246.316 80.2627 247.2 79.6C248.084 78.9373 248.263 77.6837 247.6 76.8L241.61 68.813C241.591 68.788 241.572 68.7635 241.553 68.7394Z" fill="#111111"/>
</g>
</g>
</g>
<defs>
<clipPath id="clip0_3477_535">
<rect width="264" height="108" rx="5" fill="white"/>
</clipPath>
<clipPath id="clip1_3477_535">
<rect width="32" height="32" fill="white" transform="translate(120 8)"/>
</clipPath>
<clipPath id="clip2_3477_535">
<rect width="40" height="40" fill="white" transform="translate(164 4)"/>
</clipPath>
<clipPath id="clip3_3477_535">
<rect width="48" height="48" fill="white" transform="translate(216)"/>
</clipPath>
</defs>
</svg>
