<svg width="264" height="108" viewBox="0 0 264 108" fill="none" xmlns="http://www.w3.org/2000/svg">
<g id="Remove user" clip-path="url(#clip0_4221_409)">
<g id="Size=12px, Filled=false" clip-path="url(#clip1_4221_409)">
<path id="Vector" d="M9.375 25.125L7.07867 27.4213M7.125 25.125L9.42133 27.4213M0.75 26.2508C0.750364 25.7547 0.883106 25.2665 1.13636 24.8297C1.38961 24.3929 1.75548 24.0212 2.20125 23.7478C2.64702 23.4744 3.15879 23.3079 3.69082 23.2631C4.22285 23.2183 4.75854 23.2966 5.25 23.4911M5.25 26.25C5.25 27.0456 5.56607 27.8087 6.12868 28.3713C6.69129 28.9339 7.45435 29.25 8.25 29.25C9.04565 29.25 9.80871 28.9339 10.3713 28.3713C10.9339 27.8087 11.25 27.0456 11.25 26.25C11.25 25.4544 10.9339 24.6913 10.3713 24.1287C9.80871 23.5661 9.04565 23.25 8.25 23.25C7.45435 23.25 6.69129 23.5661 6.12868 24.1287C5.56607 24.6913 5.25 25.4544 5.25 26.25ZM1.875 20.625C1.875 21.1223 2.07254 21.5992 2.42417 21.9508C2.77581 22.3025 3.25272 22.5 3.75 22.5C4.24728 22.5 4.72419 22.3025 5.07583 21.9508C5.42746 21.5992 5.625 21.1223 5.625 20.625C5.625 20.1277 5.42746 19.6508 5.07583 19.2992C4.72419 18.9475 4.24728 18.75 3.75 18.75C3.25272 18.75 2.77581 18.9475 2.42417 19.2992C2.07254 19.6508 1.875 20.1277 1.875 20.625Z" stroke="#111111" stroke-width="0.75" stroke-linecap="round" stroke-linejoin="round"/>
</g>
<g id="Size=16px, Filled=false" clip-path="url(#clip2_4221_409)">
<path id="Vector_2" d="M36.5 25.5L33.4382 28.5618M33.5 25.5L36.5618 28.5618M25 27.0011C25.0005 26.3397 25.1775 25.6887 25.5151 25.1063C25.8528 24.5239 26.3406 24.0283 26.935 23.6638C27.5294 23.2993 28.2117 23.0772 28.9211 23.0175C29.6305 22.9577 30.3447 23.0621 31 23.3214M31 27C31 28.0609 31.4214 29.0783 32.1716 29.8284C32.9217 30.5786 33.9391 31 35 31C36.0609 31 37.0783 30.5786 37.8284 29.8284C38.5786 29.0783 39 28.0609 39 27C39 25.9391 38.5786 24.9217 37.8284 24.1716C37.0783 23.4214 36.0609 23 35 23C33.9391 23 32.9217 23.4214 32.1716 24.1716C31.4214 24.9217 31 25.9391 31 27ZM26.5 19.5C26.5 20.163 26.7634 20.7989 27.2322 21.2678C27.7011 21.7366 28.337 22 29 22C29.663 22 30.2989 21.7366 30.7678 21.2678C31.2366 20.7989 31.5 20.163 31.5 19.5C31.5 18.837 31.2366 18.2011 30.7678 17.7322C30.2989 17.2634 29.663 17 29 17C28.337 17 27.7011 17.2634 27.2322 17.7322C26.7634 18.2011 26.5 18.837 26.5 19.5Z" stroke="#111111" stroke-linecap="round" stroke-linejoin="round"/>
</g>
<g id="Size=20px, Filled=false" clip-path="url(#clip3_4221_409)">
<path id="Vector_3" d="M67.625 25.875L63.7978 29.7022M63.875 25.875L67.7022 29.7022M53.25 27.7514C53.2506 26.9246 53.4718 26.1108 53.8939 25.3828C54.316 24.6548 54.9258 24.0353 55.6687 23.5797C56.4117 23.1241 57.2647 22.8465 58.1514 22.7718C59.0381 22.6971 59.9309 22.8277 60.75 23.1518M60.75 27.75C60.75 29.0761 61.2768 30.3479 62.2145 31.2855C63.1521 32.2232 64.4239 32.75 65.75 32.75C67.0761 32.75 68.3479 32.2232 69.2855 31.2855C70.2232 30.3479 70.75 29.0761 70.75 27.75C70.75 26.4239 70.2232 25.1521 69.2855 24.2145C68.3479 23.2768 67.0761 22.75 65.75 22.75C64.4239 22.75 63.1521 23.2768 62.2145 24.2145C61.2768 25.1521 60.75 26.4239 60.75 27.75ZM55.125 18.375C55.125 19.2038 55.4542 19.9987 56.0403 20.5847C56.6263 21.1708 57.4212 21.5 58.25 21.5C59.0788 21.5 59.8737 21.1708 60.4597 20.5847C61.0458 19.9987 61.375 19.2038 61.375 18.375C61.375 17.5462 61.0458 16.7513 60.4597 16.1653C59.8737 15.5792 59.0788 15.25 58.25 15.25C57.4212 15.25 56.6263 15.5792 56.0403 16.1653C55.4542 16.7513 55.125 17.5462 55.125 18.375Z" stroke="#111111" stroke-width="1.25" stroke-linecap="round" stroke-linejoin="round"/>
</g>
<g id="Size=24px, Filled=false" clip-path="url(#clip4_4221_409)">
<path id="Vector_4" d="M103 27L99 31M99 27L103 31M85 29C85.0007 28.0078 85.2662 27.0313 85.7727 26.1578C86.2792 25.2842 87.011 24.5408 87.9025 23.994C88.794 23.4472 89.8176 23.1142 90.8816 23.0245C91.9457 22.9349 93.0171 23.0916 94 23.4805M95 29C95 30.5913 95.6321 32.1174 96.7574 33.2426C97.8826 34.3679 99.4087 35 101 35C102.591 35 104.117 34.3679 105.243 33.2426C106.368 32.1174 107 30.5913 107 29C107 27.4087 106.368 25.8826 105.243 24.7574C104.117 23.6321 102.591 23 101 23C99.4087 23 97.8826 23.6321 96.7574 24.7574C95.6321 25.8826 95 27.4087 95 29ZM87 17C87 18.0609 87.4214 19.0783 88.1716 19.8284C88.9217 20.5786 89.9391 21 91 21C92.0609 21 93.0783 20.5786 93.8284 19.8284C94.5786 19.0783 95 18.0609 95 17C95 15.9391 94.5786 14.9217 93.8284 14.1716C93.0783 13.4214 92.0609 13 91 13C89.9391 13 88.9217 13.4214 88.1716 14.1716C87.4214 14.9217 87 15.9391 87 17Z" stroke="#111111" stroke-width="1.5" stroke-linecap="round" stroke-linejoin="round"/>
</g>
<g id="Size=32px, Filled=false">
<path id="Vector_5" d="M145 27L138.876 33.1235M139 27L145.124 33.1235M122 30.0022C122.001 28.6793 122.355 27.3773 123.03 26.2125C123.706 25.0478 124.681 24.0566 125.87 23.3275C127.059 22.5985 128.423 22.1544 129.842 22.0349C131.261 21.9154 132.689 22.1243 134 22.6428M134 30C134 32.1217 134.843 34.1566 136.343 35.6569C137.843 37.1571 139.878 38 142 38C144.122 38 146.157 37.1571 147.657 35.6569C149.157 34.1566 150 32.1217 150 30C150 27.8783 149.157 25.8434 147.657 24.3431C146.157 22.8429 144.122 22 142 22C139.878 22 137.843 22.8429 136.343 24.3431C134.843 25.8434 134 27.8783 134 30ZM125 15C125 16.3261 125.527 17.5979 126.464 18.5355C127.402 19.4732 128.674 20 130 20C131.326 20 132.598 19.4732 133.536 18.5355C134.473 17.5979 135 16.3261 135 15C135 13.6739 134.473 12.4021 133.536 11.4645C132.598 10.5268 131.326 10 130 10C128.674 10 127.402 10.5268 126.464 11.4645C125.527 12.4021 125 13.6739 125 15Z" stroke="#111111" stroke-width="2" stroke-linecap="round" stroke-linejoin="round"/>
</g>
<g id="Size=40px, Filled=false">
<path id="Vector_6" d="M195.25 27.75L187.596 35.4044M187.75 27.75L195.404 35.4044M166.5 31.5027C166.501 29.8492 166.944 28.2216 167.788 26.7657C168.632 25.3097 169.852 24.0707 171.337 23.1594C172.823 22.2481 174.529 21.693 176.303 21.5437C178.076 21.3943 179.862 21.6554 181.5 22.3035M181.5 31.5C181.5 34.1522 182.554 36.6957 184.429 38.5711C186.304 40.4464 188.848 41.5 191.5 41.5C194.152 41.5 196.696 40.4464 198.571 38.5711C200.446 36.6957 201.5 34.1522 201.5 31.5C201.5 28.8478 200.446 26.3043 198.571 24.4289C196.696 22.5536 194.152 21.5 191.5 21.5C188.848 21.5 186.304 22.5536 184.429 24.4289C182.554 26.3043 181.5 28.8478 181.5 31.5ZM170.25 12.75C170.25 14.4076 170.908 15.9973 172.081 17.1694C173.253 18.3415 174.842 19 176.5 19C178.158 19 179.747 18.3415 180.919 17.1694C182.092 15.9973 182.75 14.4076 182.75 12.75C182.75 11.0924 182.092 9.50269 180.919 8.33058C179.747 7.15848 178.158 6.5 176.5 6.5C174.842 6.5 173.253 7.15848 172.081 8.33058C170.908 9.50269 170.25 11.0924 170.25 12.75Z" stroke="#111111" stroke-width="2.5" stroke-linecap="round" stroke-linejoin="round"/>
</g>
<g id="Size=48px, Filled=false">
<path id="Vector_7" d="M253.5 28.5L244.315 37.6853M244.5 28.5L253.685 37.6853M219 33.0033C219.001 31.019 219.532 29.066 220.545 27.3188C221.558 25.5716 223.022 24.0848 224.805 22.9913C226.588 21.8978 228.635 21.2316 230.763 21.0524C232.891 20.8732 235.034 21.1864 237 21.9642M237 33C237 36.1826 238.264 39.2348 240.515 41.4853C242.765 43.7357 245.817 45 249 45C252.183 45 255.235 43.7357 257.485 41.4853C259.736 39.2348 261 36.1826 261 33C261 29.8174 259.736 26.7652 257.485 24.5147C255.235 22.2643 252.183 21 249 21C245.817 21 242.765 22.2643 240.515 24.5147C238.264 26.7652 237 29.8174 237 33ZM223.5 10.5C223.5 12.4891 224.29 14.3968 225.697 15.8033C227.103 17.2098 229.011 18 231 18C232.989 18 234.897 17.2098 236.303 15.8033C237.71 14.3968 238.5 12.4891 238.5 10.5C238.5 8.51088 237.71 6.60322 236.303 5.1967C234.897 3.79018 232.989 3 231 3C229.011 3 227.103 3.79018 225.697 5.1967C224.29 6.60322 223.5 8.51088 223.5 10.5Z" stroke="#111111" stroke-width="3" stroke-linecap="round" stroke-linejoin="round"/>
</g>
<g id="Size=12px, Filled=true" clip-path="url(#clip5_4221_409)">
<g id="Vector_8">
<path d="M4.11282 82.8889C5.46362 82.8889 6.55866 81.7945 6.55866 80.4444C6.55866 79.0944 5.46362 78 4.11282 78C2.76203 78 1.66699 79.0944 1.66699 80.4444C1.66699 81.7945 2.76203 82.8889 4.11282 82.8889Z" fill="#111111"/>
<path d="M5.72952 83.8653C5.23769 83.6632 4.70764 83.5561 4.16667 83.5555C3.06195 83.5567 2.00282 84.0019 1.22167 84.7935C0.440521 85.5851 0.00116102 86.6583 0 87.7778C0 87.8367 0.0231046 87.8932 0.064231 87.9349C0.105357 87.9766 0.161137 88 0.219298 88H4.86875C4.709 87.5636 4.625 87.0986 4.625 86.625C4.625 85.5962 5.02136 84.6082 5.72952 83.8653Z" fill="#111111"/>
<path d="M6.63604 84.3791C6.80361 84.5042 6.96269 84.6425 7.11166 84.7935C7.20771 84.8908 7.2986 84.9924 7.38413 85.0978C7.321 85.1222 7.26181 85.1598 7.21088 85.2108C7.01562 85.406 7.01562 85.7226 7.21088 85.9179L7.91788 86.6249L7.21066 87.3321C7.02798 87.5148 7.0162 87.8036 7.17532 88H5.95865C5.74139 87.5787 5.625 87.1078 5.625 86.625C5.625 85.8294 5.94107 85.0663 6.50368 84.5037C6.54665 84.4607 6.5908 84.4192 6.63604 84.3791Z" fill="#111111"/>
<path d="M8.11403 88H7.95698L8.3305 87.6265C8.33233 87.6768 8.33328 87.7272 8.33333 87.7778C8.33333 87.8367 8.31023 87.8932 8.2691 87.9349C8.22797 87.9766 8.17219 88 8.11403 88Z" fill="#111111"/>
<path fill-rule="evenodd" clip-rule="evenodd" d="M6.50368 88.7463C5.94107 88.1837 5.625 87.4206 5.625 86.625C5.625 85.8294 5.94107 85.0663 6.50368 84.5037C7.06629 83.9411 7.82935 83.625 8.625 83.625C9.42065 83.625 10.1837 83.9411 10.7463 84.5037C11.3089 85.0663 11.625 85.8294 11.625 86.625C11.625 87.4206 11.3089 88.1837 10.7463 88.7463C10.1837 89.3089 9.42065 89.625 8.625 89.625C7.82935 89.625 7.06629 89.3089 6.50368 88.7463ZM10.0391 85.2108C10.2343 85.406 10.2343 85.7226 10.0391 85.9179L9.33209 86.6249L10.0393 87.3321C10.2346 87.5274 10.2346 87.8439 10.0393 88.0392C9.84405 88.2345 9.52746 88.2345 9.3322 88.0392L8.62498 87.332L7.91776 88.0392C7.7225 88.2345 7.40592 88.2345 7.21066 88.0392C7.01539 87.8439 7.01539 87.5274 7.21066 87.3321L7.91788 86.6249L7.21088 85.9179C7.01562 85.7226 7.01562 85.406 7.21088 85.2108C7.40614 85.0155 7.72273 85.0155 7.91799 85.2108L8.62498 85.9178L9.33198 85.2108C9.52724 85.0155 9.84382 85.0155 10.0391 85.2108Z" fill="#111111"/>
</g>
</g>
<g id="Size=16px, Filled=true" clip-path="url(#clip6_4221_409)">
<g id="Vector_9">
<path d="M29.4838 82.5185C31.2848 82.5185 32.7449 81.0593 32.7449 79.2593C32.7449 77.4592 31.2848 76 29.4838 76C27.6827 76 26.2227 77.4592 26.2227 79.2593C26.2227 81.0593 27.6827 82.5185 29.4838 82.5185Z" fill="#111111"/>
<path d="M31.6394 83.8203C30.9836 83.5509 30.2769 83.4082 29.5556 83.4074C28.0826 83.409 26.6704 84.0026 25.6289 85.058C24.5874 86.1134 24.0015 87.5444 24 89.037C24 89.1156 24.0308 89.191 24.0856 89.2465C24.1405 89.3021 24.2148 89.3333 24.2924 89.3333H30.4917C30.2787 88.7515 30.1667 88.1315 30.1667 87.5C30.1667 86.1282 30.6951 84.8109 31.6394 83.8203Z" fill="#111111"/>
<path d="M32.8481 84.5055C33.0715 84.6723 33.2836 84.8567 33.4822 85.058C33.6103 85.1878 33.7315 85.3232 33.8455 85.4638C33.7613 85.4963 33.6824 85.5465 33.6145 85.6144C33.3542 85.8747 33.3542 86.2968 33.6145 86.5572L34.5572 87.4998L33.6142 88.4428C33.3706 88.6864 33.3549 89.0715 33.5671 89.3333H31.9449C31.6552 88.7716 31.5 88.1438 31.5 87.5C31.5 86.4391 31.9214 85.4217 32.6716 84.6716C32.7289 84.6143 32.7877 84.5589 32.8481 84.5055Z" fill="#111111"/>
<path d="M34.8187 89.3333H34.6093L35.1073 88.8353C35.1098 88.9024 35.111 88.9696 35.1111 89.037C35.1111 89.1156 35.0803 89.191 35.0255 89.2465C34.9706 89.3021 34.8963 89.3333 34.8187 89.3333Z" fill="#111111"/>
<path fill-rule="evenodd" clip-rule="evenodd" d="M32.6716 90.3284C31.9214 89.5783 31.5 88.5609 31.5 87.5C31.5 86.4391 31.9214 85.4217 32.6716 84.6716C33.4217 83.9214 34.4391 83.5 35.5 83.5C36.5609 83.5 37.5783 83.9214 38.3284 84.6716C39.0786 85.4217 39.5 86.4391 39.5 87.5C39.5 88.5609 39.0786 89.5783 38.3284 90.3284C37.5783 91.0786 36.5609 91.5 35.5 91.5C34.4391 91.5 33.4217 91.0786 32.6716 90.3284ZM37.3854 85.6144C37.6458 85.8747 37.6458 86.2968 37.3854 86.5572L36.4428 87.4998L37.3857 88.4428C37.6461 88.7031 37.6461 89.1253 37.3857 89.3856C37.1254 89.646 36.7033 89.646 36.4429 89.3856L35.5 88.4426L34.557 89.3856C34.2967 89.646 33.8746 89.646 33.6142 89.3856C33.3539 89.1253 33.3539 88.7031 33.6142 88.4428L34.5572 87.4998L33.6145 86.5572C33.3542 86.2968 33.3542 85.8747 33.6145 85.6144C33.8749 85.354 34.297 85.354 34.5573 85.6144L35.5 86.557L36.4426 85.6144C36.703 85.354 37.1251 85.354 37.3854 85.6144Z" fill="#111111"/>
</g>
</g>
<g id="Size=20px, Filled=true" clip-path="url(#clip7_4221_409)">
<g id="Vector_10">
<path d="M58.8547 82.1481C61.106 82.1481 62.9311 80.3241 62.9311 78.0741C62.9311 75.824 61.106 74 58.8547 74C56.6034 74 54.7783 75.824 54.7783 78.0741C54.7783 80.3241 56.6034 82.1481 58.8547 82.1481Z" fill="#111111"/>
<path d="M61.5492 83.7754C60.7295 83.4386 59.8461 83.2602 58.9444 83.2592C57.1033 83.2612 55.338 84.0032 54.0361 85.3225C52.7342 86.6418 52.0019 88.4305 52 90.2963C52 90.3945 52.0385 90.4887 52.1071 90.5582C52.1756 90.6276 52.2686 90.6666 52.3655 90.6666H60.1146C59.8483 89.9393 59.7083 89.1644 59.7083 88.375C59.7083 86.6603 60.3689 85.0137 61.5492 83.7754Z" fill="#111111"/>
<path d="M63.0601 84.6318C63.3394 84.8403 63.6045 85.0709 63.8528 85.3225C64.0129 85.4847 64.1643 85.654 64.3069 85.8297C64.2017 85.8703 64.103 85.9331 64.0181 86.018C63.6927 86.3434 63.6927 86.871 64.0181 87.1965L65.1965 88.3748L64.0178 89.5535C63.7133 89.8579 63.6937 90.3394 63.9589 90.6666H61.9311C61.569 89.9644 61.375 89.1797 61.375 88.375C61.375 87.0489 61.9018 85.7771 62.8395 84.8395C62.9111 84.7678 62.9847 84.6986 63.0601 84.6318Z" fill="#111111"/>
<path d="M65.5234 90.6666H65.2616L65.8842 90.0441C65.8872 90.128 65.8888 90.212 65.8889 90.2963C65.8889 90.3945 65.8504 90.4887 65.7818 90.5582C65.7133 90.6276 65.6203 90.6666 65.5234 90.6666Z" fill="#111111"/>
<path fill-rule="evenodd" clip-rule="evenodd" d="M62.8395 91.9105C61.9018 90.9729 61.375 89.7011 61.375 88.375C61.375 87.0489 61.9018 85.7771 62.8395 84.8395C63.7771 83.9018 65.0489 83.375 66.375 83.375C67.7011 83.375 68.9729 83.9018 69.9105 84.8395C70.8482 85.7771 71.375 87.0489 71.375 88.375C71.375 89.7011 70.8482 90.9729 69.9105 91.9105C68.9729 92.8482 67.7011 93.375 66.375 93.375C65.0489 93.375 63.7771 92.8482 62.8395 91.9105ZM68.7318 86.018C69.0572 86.3434 69.0572 86.871 68.7318 87.1965L67.5535 88.3748L68.7322 89.5535C69.0576 89.8789 69.0576 90.4066 68.7322 90.732C68.4067 91.0574 67.8791 91.0574 67.5537 90.732L66.375 89.5533L65.1963 90.732C64.8708 91.0574 64.3432 91.0574 64.0178 90.732C63.6923 90.4066 63.6923 89.8789 64.0178 89.5535L65.1965 88.3748L64.0181 87.1965C63.6927 86.871 63.6927 86.3434 64.0181 86.018C64.3436 85.6925 64.8712 85.6925 65.1966 86.018L66.375 87.1963L67.5533 86.018C67.8787 85.6925 68.4064 85.6925 68.7318 86.018Z" fill="#111111"/>
</g>
</g>
<g id="Size=24px, Filled=true" clip-path="url(#clip8_4221_409)">
<g id="Vector_11">
<path d="M92.2256 81.7778C94.9272 81.7778 97.1173 79.5889 97.1173 76.8889C97.1173 74.1888 94.9272 72 92.2256 72C89.5241 72 87.334 74.1888 87.334 76.8889C87.334 79.5889 89.5241 81.7778 92.2256 81.7778Z" fill="#111111"/>
<path d="M95.459 83.7305C94.4754 83.3264 93.4153 83.1122 92.3333 83.1111C90.1239 83.1134 88.0056 84.0039 86.4433 85.587C84.881 87.1701 84.0023 89.3166 84 91.5555C84 91.6734 84.0462 91.7864 84.1285 91.8698C84.2107 91.9531 84.3223 92 84.4386 92H93.7375C93.418 91.1272 93.25 90.1973 93.25 89.25C93.25 87.1923 94.0427 85.2164 95.459 83.7305Z" fill="#111111"/>
<path d="M97.2721 84.7582C97.6072 85.0084 97.9254 85.2851 98.2233 85.587C98.4154 85.7817 98.5972 85.9849 98.7683 86.1957C98.642 86.2444 98.5236 86.3197 98.4218 86.4216C98.0312 86.8121 98.0312 87.4452 98.4218 87.8358L99.8358 89.2498L98.4213 90.6642C98.056 91.0295 98.0324 91.6072 98.3506 92H95.9173C95.4828 91.1573 95.25 90.2157 95.25 89.25C95.25 87.6587 95.8821 86.1326 97.0074 85.0074C97.0933 84.9214 97.1816 84.8383 97.2721 84.7582Z" fill="#111111"/>
<path d="M100.228 92H99.914L100.661 91.2529C100.665 91.3536 100.667 91.4545 100.667 91.5555C100.667 91.6734 100.62 91.7864 100.538 91.8698C100.456 91.9531 100.344 92 100.228 92Z" fill="#111111"/>
<path fill-rule="evenodd" clip-rule="evenodd" d="M97.0074 93.4926C95.8821 92.3674 95.25 90.8413 95.25 89.25C95.25 87.6587 95.8821 86.1326 97.0074 85.0074C98.1326 83.8821 99.6587 83.25 101.25 83.25C102.841 83.25 104.367 83.8821 105.493 85.0074C106.618 86.1326 107.25 87.6587 107.25 89.25C107.25 90.8413 106.618 92.3674 105.493 93.4926C104.367 94.6179 102.841 95.25 101.25 95.25C99.6587 95.25 98.1326 94.6179 97.0074 93.4926ZM104.078 86.4216C104.469 86.8121 104.469 87.4452 104.078 87.8358L102.664 89.2498L104.079 90.6642C104.469 91.0547 104.469 91.6879 104.079 92.0784C103.688 92.4689 103.055 92.4689 102.664 92.0784L101.25 90.664L99.8355 92.0784C99.445 92.4689 98.8118 92.4689 98.4213 92.0784C98.0308 91.6879 98.0308 91.0547 98.4213 90.6642L99.8358 89.2498L98.4218 87.8358C98.0312 87.4452 98.0312 86.8121 98.4218 86.4216C98.8123 86.031 99.4455 86.031 99.836 86.4216L101.25 87.8355L102.664 86.4216C103.054 86.031 103.688 86.031 104.078 86.4216Z" fill="#111111"/>
</g>
</g>
<g id="Size=32px, Filled=true">
<g id="Vector_12">
<path d="M130.968 81.037C134.57 81.037 137.49 78.1186 137.49 74.5185C137.49 70.9184 134.57 68 130.968 68C127.365 68 124.445 70.9184 124.445 74.5185C124.445 78.1186 127.365 81.037 130.968 81.037Z" fill="#111111"/>
<path d="M135.279 83.6407C133.967 83.1018 132.554 82.8163 131.111 82.8148C128.165 82.8179 125.341 84.0052 123.258 86.116C121.175 88.2268 120.003 91.0889 120 94.074C120 94.2312 120.062 94.3819 120.171 94.4931C120.281 94.6042 120.43 94.6666 120.585 94.6666H132.983C132.557 93.5029 132.333 92.263 132.333 91C132.333 88.2564 133.39 85.6219 135.279 83.6407Z" fill="#111111"/>
<path d="M137.696 85.0109C138.143 85.3445 138.567 85.7135 138.964 86.116C139.221 86.3756 139.463 86.6465 139.691 86.9276C139.523 86.9925 139.365 87.0929 139.229 87.2287C138.708 87.7494 138.708 88.5937 139.229 89.1144L141.114 90.9997L139.228 92.8856C138.741 93.3727 138.71 94.143 139.134 94.6666H135.89C135.31 93.5431 135 92.2876 135 91C135 88.8783 135.843 86.8434 137.343 85.3431C137.458 85.2285 137.575 85.1178 137.696 85.0109Z" fill="#111111"/>
<path d="M141.637 94.6666H141.219L142.215 93.6706C142.22 93.8048 142.222 93.9393 142.222 94.074C142.222 94.2312 142.161 94.3819 142.051 94.4931C141.941 94.6042 141.793 94.6666 141.637 94.6666Z" fill="#111111"/>
<path fill-rule="evenodd" clip-rule="evenodd" d="M137.343 96.6569C135.843 95.1566 135 93.1217 135 91C135 88.8783 135.843 86.8434 137.343 85.3431C138.843 83.8429 140.878 83 143 83C145.122 83 147.157 83.8429 148.657 85.3431C150.157 86.8434 151 88.8783 151 91C151 93.1217 150.157 95.1566 148.657 96.6569C147.157 98.1571 145.122 99 143 99C140.878 99 138.843 98.1571 137.343 96.6569ZM146.771 87.2287C147.292 87.7494 147.292 88.5937 146.771 89.1144L144.886 90.9997L146.771 92.8856C147.292 93.4063 147.292 94.2505 146.771 94.7712C146.251 95.2919 145.407 95.2919 144.886 94.7712L143 92.8853L141.114 94.7712C140.593 95.2919 139.749 95.2919 139.228 94.7712C138.708 94.2505 138.708 93.4063 139.228 92.8856L141.114 90.9997L139.229 89.1144C138.708 88.5937 138.708 87.7494 139.229 87.2287C139.75 86.708 140.594 86.708 141.115 87.2287L143 89.1141L144.885 87.2287C145.406 86.708 146.25 86.708 146.771 87.2287Z" fill="#111111"/>
</g>
</g>
<g id="Size=40px, Filled=true">
<g id="Vector_13">
<path d="M177.709 80.2963C182.212 80.2963 185.862 76.6482 185.862 72.1481C185.862 67.648 182.212 64 177.709 64C173.207 64 169.557 67.648 169.557 72.1481C169.557 76.6482 173.207 80.2963 177.709 80.2963Z" fill="#111111"/>
<path d="M183.098 83.5508C181.459 82.8773 179.692 82.5204 177.889 82.5185C174.207 82.5224 170.676 84.0065 168.072 86.645C165.468 89.2836 164.004 92.8611 164 96.5925C164 96.789 164.077 96.9774 164.214 97.1163C164.351 97.2552 164.537 97.3333 164.731 97.3333H180.229C179.697 95.8787 179.417 94.3288 179.417 92.75C179.417 89.3206 180.738 86.0273 183.098 83.5508Z" fill="#111111"/>
<path d="M186.12 85.2637C186.679 85.6806 187.209 86.1418 187.706 86.645C188.026 86.9694 188.329 87.3081 188.614 87.6595C188.403 87.7407 188.206 87.8662 188.036 88.0359C187.385 88.6868 187.385 89.7421 188.036 90.3929L190.393 92.7496L188.036 95.107C187.427 95.7159 187.387 96.6787 187.918 97.3333H183.862C183.138 95.9289 182.75 94.3594 182.75 92.75C182.75 90.0978 183.804 87.5543 185.679 85.6789C185.822 85.5357 185.969 85.3972 186.12 85.2637Z" fill="#111111"/>
<path d="M191.047 97.3333H190.523L191.768 96.0882C191.774 96.256 191.778 96.4241 191.778 96.5925C191.778 96.789 191.701 96.9774 191.564 97.1163C191.427 97.2552 191.241 97.3333 191.047 97.3333Z" fill="#111111"/>
<path fill-rule="evenodd" clip-rule="evenodd" d="M185.679 99.8211C183.804 97.9457 182.75 95.4022 182.75 92.75C182.75 90.0978 183.804 87.5543 185.679 85.6789C187.554 83.8036 190.098 82.75 192.75 82.75C195.402 82.75 197.946 83.8036 199.821 85.6789C201.696 87.5543 202.75 90.0978 202.75 92.75C202.75 95.4022 201.696 97.9457 199.821 99.8211C197.946 101.696 195.402 102.75 192.75 102.75C190.098 102.75 187.554 101.696 185.679 99.8211ZM197.464 88.0359C198.114 88.6868 198.114 89.7421 197.464 90.3929L195.107 92.7496L197.464 95.107C198.115 95.7579 198.115 96.8131 197.464 97.464C196.813 98.1149 195.758 98.1149 195.107 97.464L192.75 95.1066L190.393 97.464C189.742 98.1149 188.686 98.1149 188.036 97.464C187.385 96.8131 187.385 95.7579 188.036 95.107L190.393 92.7496L188.036 90.3929C187.385 89.7421 187.385 88.6868 188.036 88.0359C188.687 87.3851 189.742 87.3851 190.393 88.0359L192.75 90.3926L195.107 88.0359C195.757 87.3851 196.813 87.3851 197.464 88.0359Z" fill="#111111"/>
</g>
</g>
<g id="Size=48px, Filled=true">
<g id="Vector_14">
<path d="M232.451 79.5555C237.854 79.5555 242.235 75.1779 242.235 69.7778C242.235 64.3777 237.854 60 232.451 60C227.048 60 222.668 64.3777 222.668 69.7778C222.668 75.1779 227.048 79.5555 232.451 79.5555Z" fill="#111111"/>
<path d="M238.918 83.461C236.951 82.6527 234.831 82.2245 232.667 82.2222C228.248 82.2269 224.011 84.0077 220.887 87.174C217.762 90.3403 216.005 94.6333 216 99.1111C216 99.3468 216.092 99.5729 216.257 99.7396C216.421 99.9063 216.645 99.9999 216.877 99.9999H235.475C234.836 98.2544 234.5 96.3945 234.5 94.5C234.5 90.3847 236.085 86.4328 238.918 83.461Z" fill="#111111"/>
<path d="M242.544 85.5164C243.214 86.0168 243.851 86.5702 244.447 87.174C244.831 87.5633 245.194 87.9697 245.537 88.3914C245.284 88.4888 245.047 88.6394 244.844 88.8431C244.062 89.6242 244.062 90.8905 244.844 91.6715L247.672 94.4995L244.843 97.3284C244.112 98.0591 244.065 99.2145 244.701 99.9999H239.835C238.966 98.3147 238.5 96.4313 238.5 94.5C238.5 91.3174 239.764 88.2652 242.015 86.0147C242.187 85.8428 242.363 85.6767 242.544 85.5164Z" fill="#111111"/>
<path d="M248.456 99.9999H247.828L249.322 98.5059C249.329 98.7072 249.333 98.9089 249.333 99.1111C249.333 99.3468 249.241 99.5729 249.076 99.7396C248.912 99.9063 248.689 99.9999 248.456 99.9999Z" fill="#111111"/>
<path fill-rule="evenodd" clip-rule="evenodd" d="M242.015 102.985C239.764 100.735 238.5 97.6826 238.5 94.5C238.5 91.3174 239.764 88.2652 242.015 86.0147C244.265 83.7643 247.317 82.5 250.5 82.5C253.683 82.5 256.735 83.7643 258.985 86.0147C261.236 88.2652 262.5 91.3174 262.5 94.5C262.5 97.6826 261.236 100.735 258.985 102.985C256.735 105.236 253.683 106.5 250.5 106.5C247.317 106.5 244.265 105.236 242.015 102.985ZM256.156 88.8431C256.937 89.6242 256.937 90.8905 256.156 91.6715L253.328 94.4995L256.157 97.3284C256.938 98.1094 256.938 99.3758 256.157 100.157C255.376 100.938 254.11 100.938 253.329 100.157L250.5 97.3279L247.671 100.157C246.89 100.938 245.624 100.938 244.843 100.157C244.062 99.3758 244.062 98.1094 244.843 97.3284L247.672 94.4995L244.844 91.6715C244.062 90.8905 244.062 89.6242 244.844 88.8431C245.625 88.0621 246.891 88.0621 247.672 88.8431L250.5 91.6711L253.328 88.8431C254.109 88.0621 255.375 88.0621 256.156 88.8431Z" fill="#111111"/>
</g>
</g>
</g>
<defs>
<clipPath id="clip0_4221_409">
<rect width="264" height="108" fill="white"/>
</clipPath>
<clipPath id="clip1_4221_409">
<rect width="12" height="12" fill="white" transform="translate(0 18)"/>
</clipPath>
<clipPath id="clip2_4221_409">
<rect width="16" height="16" fill="white" transform="translate(24 16)"/>
</clipPath>
<clipPath id="clip3_4221_409">
<rect width="20" height="20" fill="white" transform="translate(52 14)"/>
</clipPath>
<clipPath id="clip4_4221_409">
<rect width="24" height="24" fill="white" transform="translate(84 12)"/>
</clipPath>
<clipPath id="clip5_4221_409">
<rect width="12" height="12" fill="white" transform="translate(0 78)"/>
</clipPath>
<clipPath id="clip6_4221_409">
<rect width="16" height="16" fill="white" transform="translate(24 76)"/>
</clipPath>
<clipPath id="clip7_4221_409">
<rect width="20" height="20" fill="white" transform="translate(52 74)"/>
</clipPath>
<clipPath id="clip8_4221_409">
<rect width="24" height="24" fill="white" transform="translate(84 72)"/>
</clipPath>
</defs>
</svg>
