<svg width="264" height="108" viewBox="0 0 264 108" fill="none" xmlns="http://www.w3.org/2000/svg">
<g id="Add user" clip-path="url(#clip0_4165_436)">
<g id="Size=12px, Filled=false" clip-path="url(#clip1_4165_436)">
<path id="Vector" d="M8.25 24.75V27.75M6.75 26.25H9.75M0.75 26.2508C0.750364 25.7547 0.883106 25.2665 1.13636 24.8297C1.38961 24.3929 1.75548 24.0212 2.20125 23.7478C2.64702 23.4744 3.15879 23.3079 3.69082 23.2631C4.22285 23.2183 4.75854 23.2966 5.25 23.4911M5.25 26.25C5.25 27.0456 5.56607 27.8087 6.12868 28.3713C6.69129 28.9339 7.45435 29.25 8.25 29.25C9.04565 29.25 9.80871 28.9339 10.3713 28.3713C10.9339 27.8087 11.25 27.0456 11.25 26.25C11.25 25.4544 10.9339 24.6913 10.3713 24.1287C9.80871 23.5661 9.04565 23.25 8.25 23.25C7.45435 23.25 6.69129 23.5661 6.12868 24.1287C5.56607 24.6913 5.25 25.4544 5.25 26.25ZM1.875 20.625C1.875 21.1223 2.07254 21.5992 2.42417 21.9508C2.77581 22.3025 3.25272 22.5 3.75 22.5C4.24728 22.5 4.72419 22.3025 5.07583 21.9508C5.42746 21.5992 5.625 21.1223 5.625 20.625C5.625 20.1277 5.42746 19.6508 5.07583 19.2992C4.72419 18.9475 4.24728 18.75 3.75 18.75C3.25272 18.75 2.77581 18.9475 2.42417 19.2992C2.07254 19.6508 1.875 20.1277 1.875 20.625Z" stroke="#111111" stroke-width="0.75" stroke-linecap="round" stroke-linejoin="round"/>
</g>
<g id="Size=16px, Filled=false" clip-path="url(#clip2_4165_436)">
<path id="Vector_2" d="M35 25V29M33 27H37M25 27.0011C25.0005 26.3397 25.1775 25.6887 25.5151 25.1063C25.8528 24.5239 26.3406 24.0283 26.935 23.6638C27.5294 23.2993 28.2117 23.0772 28.9211 23.0175C29.6305 22.9577 30.3447 23.0621 31 23.3214M31 27C31 28.0609 31.4214 29.0783 32.1716 29.8284C32.9217 30.5786 33.9391 31 35 31C36.0609 31 37.0783 30.5786 37.8284 29.8284C38.5786 29.0783 39 28.0609 39 27C39 25.9391 38.5786 24.9217 37.8284 24.1716C37.0783 23.4214 36.0609 23 35 23C33.9391 23 32.9217 23.4214 32.1716 24.1716C31.4214 24.9217 31 25.9391 31 27ZM26.5 19.5C26.5 20.163 26.7634 20.7989 27.2322 21.2678C27.7011 21.7366 28.337 22 29 22C29.663 22 30.2989 21.7366 30.7678 21.2678C31.2366 20.7989 31.5 20.163 31.5 19.5C31.5 18.837 31.2366 18.2011 30.7678 17.7322C30.2989 17.2634 29.663 17 29 17C28.337 17 27.7011 17.2634 27.2322 17.7322C26.7634 18.2011 26.5 18.837 26.5 19.5Z" stroke="#111111" stroke-linecap="round" stroke-linejoin="round"/>
</g>
<g id="Size=20px, Filled=false" clip-path="url(#clip3_4165_436)">
<path id="Vector_3" d="M65.75 25.25V30.25M63.25 27.75H68.25M53.25 27.7514C53.2506 26.9246 53.4718 26.1108 53.8939 25.3828C54.316 24.6548 54.9258 24.0353 55.6687 23.5797C56.4117 23.1241 57.2647 22.8465 58.1514 22.7718C59.0381 22.6971 59.9309 22.8277 60.75 23.1518M60.75 27.75C60.75 29.0761 61.2768 30.3479 62.2145 31.2855C63.1521 32.2232 64.4239 32.75 65.75 32.75C67.0761 32.75 68.3479 32.2232 69.2855 31.2855C70.2232 30.3479 70.75 29.0761 70.75 27.75C70.75 26.4239 70.2232 25.1521 69.2855 24.2145C68.3479 23.2768 67.0761 22.75 65.75 22.75C64.4239 22.75 63.1521 23.2768 62.2145 24.2145C61.2768 25.1521 60.75 26.4239 60.75 27.75ZM55.125 18.375C55.125 19.2038 55.4542 19.9987 56.0403 20.5847C56.6263 21.1708 57.4212 21.5 58.25 21.5C59.0788 21.5 59.8737 21.1708 60.4597 20.5847C61.0458 19.9987 61.375 19.2038 61.375 18.375C61.375 17.5462 61.0458 16.7513 60.4597 16.1653C59.8737 15.5792 59.0788 15.25 58.25 15.25C57.4212 15.25 56.6263 15.5792 56.0403 16.1653C55.4542 16.7513 55.125 17.5462 55.125 18.375Z" stroke="#111111" stroke-width="1.25" stroke-linecap="round" stroke-linejoin="round"/>
</g>
<g id="Size=24px, Filled=false" clip-path="url(#clip4_4165_436)">
<path id="Vector_4" d="M85 29C85.0007 28.0078 85.2662 27.0313 85.7727 26.1578C86.2792 25.2842 87.011 24.5408 87.9025 23.994C88.794 23.4472 89.8176 23.1142 90.8816 23.0245C91.9457 22.9349 93.0171 23.0916 94 23.4805M98 29H104M101 26V32M87 17C87 18.0609 87.4214 19.0783 88.1716 19.8284C88.9217 20.5786 89.9391 21 91 21C92.0609 21 93.0783 20.5786 93.8284 19.8284C94.5786 19.0783 95 18.0609 95 17C95 15.9391 94.5786 14.9217 93.8284 14.1716C93.0783 13.4214 92.0609 13 91 13C89.9391 13 88.9217 13.4214 88.1716 14.1716C87.4214 14.9217 87 15.9391 87 17ZM95 29C95 30.5913 95.6321 32.1174 96.7574 33.2426C97.8826 34.3679 99.4087 35 101 35C102.591 35 104.117 34.3679 105.243 33.2426C106.368 32.1174 107 30.5913 107 29C107 27.4087 106.368 25.8826 105.243 24.7574C104.117 23.6321 102.591 23 101 23C99.4087 23 97.8826 23.6321 96.7574 24.7574C95.6321 25.8826 95 27.4087 95 29Z" stroke="#111111" stroke-width="1.5" stroke-linecap="round" stroke-linejoin="round"/>
</g>
<g id="Size=32px, Filled=false">
<path id="Vector_5" d="M142 26V34M138 30H146M122 30.0022C122.001 28.6793 122.355 27.3773 123.03 26.2125C123.706 25.0478 124.681 24.0566 125.87 23.3275C127.059 22.5985 128.423 22.1544 129.842 22.0349C131.261 21.9154 132.689 22.1243 134 22.6428M134 30C134 32.1217 134.843 34.1566 136.343 35.6569C137.843 37.1571 139.878 38 142 38C144.122 38 146.157 37.1571 147.657 35.6569C149.157 34.1566 150 32.1217 150 30C150 27.8783 149.157 25.8434 147.657 24.3431C146.157 22.8429 144.122 22 142 22C139.878 22 137.843 22.8429 136.343 24.3431C134.843 25.8434 134 27.8783 134 30ZM125 15C125 16.3261 125.527 17.5979 126.464 18.5355C127.402 19.4732 128.674 20 130 20C131.326 20 132.598 19.4732 133.536 18.5355C134.473 17.5979 135 16.3261 135 15C135 13.6739 134.473 12.4021 133.536 11.4645C132.598 10.5268 131.326 10 130 10C128.674 10 127.402 10.5268 126.464 11.4645C125.527 12.4021 125 13.6739 125 15Z" stroke="#111111" stroke-width="2" stroke-linecap="round" stroke-linejoin="round"/>
</g>
<g id="Size=40px, Filled=false">
<path id="Vector_6" d="M191.5 26.5V36.5M186.5 31.5H196.5M166.5 31.5027C166.501 29.8492 166.944 28.2216 167.788 26.7657C168.632 25.3097 169.852 24.0707 171.337 23.1594C172.823 22.2481 174.529 21.693 176.303 21.5437C178.076 21.3943 179.862 21.6554 181.5 22.3035M181.5 31.5C181.5 34.1522 182.554 36.6957 184.429 38.5711C186.304 40.4464 188.848 41.5 191.5 41.5C194.152 41.5 196.696 40.4464 198.571 38.5711C200.446 36.6957 201.5 34.1522 201.5 31.5C201.5 28.8478 200.446 26.3043 198.571 24.4289C196.696 22.5536 194.152 21.5 191.5 21.5C188.848 21.5 186.304 22.5536 184.429 24.4289C182.554 26.3043 181.5 28.8478 181.5 31.5ZM170.25 12.75C170.25 14.4076 170.908 15.9973 172.081 17.1694C173.253 18.3415 174.842 19 176.5 19C178.158 19 179.747 18.3415 180.919 17.1694C182.092 15.9973 182.75 14.4076 182.75 12.75C182.75 11.0924 182.092 9.50269 180.919 8.33058C179.747 7.15848 178.158 6.5 176.5 6.5C174.842 6.5 173.253 7.15848 172.081 8.33058C170.908 9.50269 170.25 11.0924 170.25 12.75Z" stroke="#111111" stroke-width="2.5" stroke-linecap="round" stroke-linejoin="round"/>
</g>
<g id="Size=48px, Filled=false">
<path id="Vector_7" d="M249 27V39M243 33H255M219 33.0033C219.001 31.019 219.532 29.066 220.545 27.3188C221.558 25.5716 223.022 24.0848 224.805 22.9913C226.588 21.8978 228.635 21.2316 230.763 21.0524C232.891 20.8732 235.034 21.1864 237 21.9642M237 33C237 36.1826 238.264 39.2348 240.515 41.4853C242.765 43.7357 245.817 45 249 45C252.183 45 255.235 43.7357 257.485 41.4853C259.736 39.2348 261 36.1826 261 33C261 29.8174 259.736 26.7652 257.485 24.5147C255.235 22.2643 252.183 21 249 21C245.817 21 242.765 22.2643 240.515 24.5147C238.264 26.7652 237 29.8174 237 33ZM223.5 10.5C223.5 12.4891 224.29 14.3968 225.697 15.8033C227.103 17.2098 229.011 18 231 18C232.989 18 234.897 17.2098 236.303 15.8033C237.71 14.3968 238.5 12.4891 238.5 10.5C238.5 8.51088 237.71 6.60322 236.303 5.1967C234.897 3.79018 232.989 3 231 3C229.011 3 227.103 3.79018 225.697 5.1967C224.29 6.60322 223.5 8.51088 223.5 10.5Z" stroke="#111111" stroke-width="3" stroke-linecap="round" stroke-linejoin="round"/>
</g>
<g id="Size=12px, Filled=true" clip-path="url(#clip5_4165_436)">
<g id="Vector_8">
<path d="M4.11282 82.8889C5.46362 82.8889 6.55866 81.7945 6.55866 80.4444C6.55866 79.0944 5.46362 78 4.11282 78C2.76203 78 1.66699 79.0944 1.66699 80.4444C1.66699 81.7945 2.76203 82.8889 4.11282 82.8889Z" fill="#111111"/>
<path d="M5.72952 83.8653C5.23769 83.6632 4.70764 83.5561 4.16667 83.5555C3.06195 83.5567 2.00282 84.0019 1.22167 84.7935C0.440521 85.5851 0.00116102 86.6583 0 87.7778C0 87.8367 0.0231046 87.8932 0.064231 87.9349C0.105357 87.9766 0.161137 88 0.219298 88H4.86875C4.709 87.5636 4.625 87.0986 4.625 86.625C4.625 85.5962 5.02136 84.6082 5.72952 83.8653Z" fill="#111111"/>
<path d="M6.63604 84.3791C6.80361 84.5042 6.96269 84.6425 7.11166 84.7935C7.49254 85.1795 7.79217 85.6324 7.99936 86.125H7.125C6.84886 86.125 6.625 86.3489 6.625 86.625C6.625 86.9011 6.84886 87.125 7.125 87.125H8.125V87.9997L8.11403 88H5.95865C5.74139 87.5787 5.625 87.1078 5.625 86.625C5.625 85.8294 5.94107 85.0663 6.50368 84.5037C6.54665 84.4607 6.5908 84.4192 6.63604 84.3791Z" fill="#111111"/>
<path fill-rule="evenodd" clip-rule="evenodd" d="M6.50368 88.7463C5.94107 88.1837 5.625 87.4206 5.625 86.625C5.625 85.8294 5.94107 85.0663 6.50368 84.5037C7.06629 83.9411 7.82935 83.625 8.625 83.625C9.42065 83.625 10.1837 83.9411 10.7463 84.5037C11.3089 85.0663 11.625 85.8294 11.625 86.625C11.625 87.4206 11.3089 88.1837 10.7463 88.7463C10.1837 89.3089 9.42065 89.625 8.625 89.625C7.82935 89.625 7.06629 89.3089 6.50368 88.7463ZM8.625 84.625C8.90114 84.625 9.125 84.8489 9.125 85.125V86.125H10.125C10.4011 86.125 10.625 86.3489 10.625 86.625C10.625 86.9011 10.4011 87.125 10.125 87.125H9.125V88.125C9.125 88.4011 8.90114 88.625 8.625 88.625C8.34886 88.625 8.125 88.4011 8.125 88.125V87.125H7.125C6.84886 87.125 6.625 86.9011 6.625 86.625C6.625 86.3489 6.84886 86.125 7.125 86.125H8.125V85.125C8.125 84.8489 8.34886 84.625 8.625 84.625Z" fill="#111111"/>
</g>
</g>
<g id="Size=16px, Filled=true" clip-path="url(#clip6_4165_436)">
<g id="Vector_9">
<path d="M29.4838 82.5185C31.2848 82.5185 32.7449 81.0593 32.7449 79.2593C32.7449 77.4592 31.2848 76 29.4838 76C27.6827 76 26.2227 77.4592 26.2227 79.2593C26.2227 81.0593 27.6827 82.5185 29.4838 82.5185Z" fill="#111111"/>
<path d="M31.6394 83.8203C30.9836 83.5509 30.2769 83.4082 29.5556 83.4074C28.0826 83.409 26.6704 84.0026 25.6289 85.058C24.5874 86.1134 24.0015 87.5444 24 89.037C24 89.1156 24.0308 89.191 24.0856 89.2465C24.1405 89.3021 24.2148 89.3333 24.2924 89.3333H30.4917C30.2787 88.7515 30.1667 88.1315 30.1667 87.5C30.1667 86.1282 30.6951 84.8109 31.6394 83.8203Z" fill="#111111"/>
<path d="M32.8481 84.5055C33.0715 84.6723 33.2836 84.8567 33.4822 85.058C33.9901 85.5726 34.3896 86.1765 34.6658 86.8333H33.5C33.1318 86.8333 32.8333 87.1318 32.8333 87.5C32.8333 87.8682 33.1318 88.1667 33.5 88.1667H34.8333V89.3329L34.8187 89.3333H31.9449C31.6552 88.7716 31.5 88.1438 31.5 87.5C31.5 86.4391 31.9214 85.4217 32.6716 84.6716C32.7289 84.6143 32.7877 84.5589 32.8481 84.5055Z" fill="#111111"/>
<path fill-rule="evenodd" clip-rule="evenodd" d="M32.6716 90.3284C31.9214 89.5783 31.5 88.5609 31.5 87.5C31.5 86.4391 31.9214 85.4217 32.6716 84.6716C33.4217 83.9214 34.4391 83.5 35.5 83.5C36.5609 83.5 37.5783 83.9214 38.3284 84.6716C39.0786 85.4217 39.5 86.4391 39.5 87.5C39.5 88.5609 39.0786 89.5783 38.3284 90.3284C37.5783 91.0786 36.5609 91.5 35.5 91.5C34.4391 91.5 33.4217 91.0786 32.6716 90.3284ZM35.5 84.8333C35.8682 84.8333 36.1667 85.1318 36.1667 85.5V86.8333H37.5C37.8682 86.8333 38.1667 87.1318 38.1667 87.5C38.1667 87.8682 37.8682 88.1667 37.5 88.1667H36.1667V89.5C36.1667 89.8682 35.8682 90.1667 35.5 90.1667C35.1318 90.1667 34.8333 89.8682 34.8333 89.5V88.1667H33.5C33.1318 88.1667 32.8333 87.8682 32.8333 87.5C32.8333 87.1318 33.1318 86.8333 33.5 86.8333H34.8333V85.5C34.8333 85.1318 35.1318 84.8333 35.5 84.8333Z" fill="#111111"/>
</g>
</g>
<g id="Size=20px, Filled=true" clip-path="url(#clip7_4165_436)">
<g id="Vector_10">
<path d="M58.8547 82.1481C61.106 82.1481 62.9311 80.3241 62.9311 78.0741C62.9311 75.824 61.106 74 58.8547 74C56.6034 74 54.7783 75.824 54.7783 78.0741C54.7783 80.3241 56.6034 82.1481 58.8547 82.1481Z" fill="#111111"/>
<path d="M61.5492 83.7754C60.7295 83.4386 59.8461 83.2602 58.9444 83.2592C57.1033 83.2612 55.338 84.0032 54.0361 85.3225C52.7342 86.6418 52.0019 88.4305 52 90.2963C52 90.3945 52.0385 90.4887 52.1071 90.5582C52.1756 90.6276 52.2686 90.6666 52.3655 90.6666H60.1146C59.8483 89.9393 59.7083 89.1644 59.7083 88.375C59.7083 86.6603 60.3689 85.0137 61.5492 83.7754Z" fill="#111111"/>
<path d="M63.0601 84.6318C63.3394 84.8403 63.6045 85.0709 63.8528 85.3225C64.4876 85.9658 64.9869 86.7207 65.3323 87.5417H63.875C63.4148 87.5417 63.0417 87.9148 63.0417 88.375C63.0417 88.8352 63.4148 89.2083 63.875 89.2083H65.5417V90.6662L65.5234 90.6666H61.9311C61.569 89.9644 61.375 89.1797 61.375 88.375C61.375 87.0489 61.9018 85.7771 62.8395 84.8395C62.9111 84.7678 62.9847 84.6986 63.0601 84.6318Z" fill="#111111"/>
<path fill-rule="evenodd" clip-rule="evenodd" d="M62.8395 91.9105C61.9018 90.9729 61.375 89.7011 61.375 88.375C61.375 87.0489 61.9018 85.7771 62.8395 84.8395C63.7771 83.9018 65.0489 83.375 66.375 83.375C67.7011 83.375 68.9729 83.9018 69.9105 84.8395C70.8482 85.7771 71.375 87.0489 71.375 88.375C71.375 89.7011 70.8482 90.9729 69.9105 91.9105C68.9729 92.8482 67.7011 93.375 66.375 93.375C65.0489 93.375 63.7771 92.8482 62.8395 91.9105ZM66.375 85.0417C66.8352 85.0417 67.2083 85.4148 67.2083 85.875V87.5417H68.875C69.3352 87.5417 69.7083 87.9148 69.7083 88.375C69.7083 88.8352 69.3352 89.2083 68.875 89.2083H67.2083V90.875C67.2083 91.3352 66.8352 91.7083 66.375 91.7083C65.9148 91.7083 65.5417 91.3352 65.5417 90.875V89.2083H63.875C63.4148 89.2083 63.0417 88.8352 63.0417 88.375C63.0417 87.9148 63.4148 87.5417 63.875 87.5417H65.5417V85.875C65.5417 85.4148 65.9148 85.0417 66.375 85.0417Z" fill="#111111"/>
</g>
</g>
<g id="Size=24px, Filled=true" clip-path="url(#clip8_4165_436)">
<g id="Vector_11">
<path d="M92.2256 81.7778C94.9272 81.7778 97.1173 79.5889 97.1173 76.8889C97.1173 74.1888 94.9272 72 92.2256 72C89.5241 72 87.334 74.1888 87.334 76.8889C87.334 79.5889 89.5241 81.7778 92.2256 81.7778Z" fill="#111111"/>
<path d="M95.459 83.7305C94.4754 83.3264 93.4153 83.1122 92.3333 83.1111C90.1239 83.1134 88.0056 84.0039 86.4433 85.587C84.881 87.1701 84.0023 89.3166 84 91.5555C84 91.6734 84.0462 91.7864 84.1285 91.8698C84.2107 91.9531 84.3223 92 84.4386 92H93.7375C93.418 91.1272 93.25 90.1973 93.25 89.25C93.25 87.1923 94.0427 85.2164 95.459 83.7305Z" fill="#111111"/>
<path d="M97.2721 84.7582C97.6072 85.0084 97.9254 85.2851 98.2233 85.587C98.9851 86.3589 99.5843 87.2648 99.9987 88.25H98.25C97.6977 88.25 97.25 88.6977 97.25 89.25C97.25 89.8023 97.6977 90.25 98.25 90.25H100.25V91.9994L100.228 92H95.9173C95.4828 91.1573 95.25 90.2157 95.25 89.25C95.25 87.6587 95.8821 86.1326 97.0074 85.0074C97.0933 84.9214 97.1816 84.8383 97.2721 84.7582Z" fill="#111111"/>
<path fill-rule="evenodd" clip-rule="evenodd" d="M97.0074 93.4926C95.8821 92.3674 95.25 90.8413 95.25 89.25C95.25 87.6587 95.8821 86.1326 97.0074 85.0074C98.1326 83.8821 99.6587 83.25 101.25 83.25C102.841 83.25 104.367 83.8821 105.493 85.0074C106.618 86.1326 107.25 87.6587 107.25 89.25C107.25 90.8413 106.618 92.3674 105.493 93.4926C104.367 94.6179 102.841 95.25 101.25 95.25C99.6587 95.25 98.1326 94.6179 97.0074 93.4926ZM101.25 85.25C101.802 85.25 102.25 85.6977 102.25 86.25V88.25H104.25C104.802 88.25 105.25 88.6977 105.25 89.25C105.25 89.8023 104.802 90.25 104.25 90.25H102.25V92.25C102.25 92.8023 101.802 93.25 101.25 93.25C100.698 93.25 100.25 92.8023 100.25 92.25V90.25H98.25C97.6977 90.25 97.25 89.8023 97.25 89.25C97.25 88.6977 97.6977 88.25 98.25 88.25H100.25V86.25C100.25 85.6977 100.698 85.25 101.25 85.25Z" fill="#111111"/>
</g>
</g>
<g id="Size=32px, Filled=true">
<g id="Vector_12">
<path d="M130.968 81.037C134.57 81.037 137.49 78.1186 137.49 74.5185C137.49 70.9184 134.57 68 130.968 68C127.365 68 124.445 70.9184 124.445 74.5185C124.445 78.1186 127.365 81.037 130.968 81.037Z" fill="#111111"/>
<path d="M135.279 83.6407C133.967 83.1018 132.554 82.8163 131.111 82.8148C128.165 82.8179 125.341 84.0052 123.258 86.116C121.175 88.2268 120.003 91.0889 120 94.074C120 94.2312 120.062 94.3819 120.171 94.4931C120.281 94.6042 120.43 94.6666 120.585 94.6666H132.983C132.557 93.5029 132.333 92.263 132.333 91C132.333 88.2564 133.39 85.6219 135.279 83.6407Z" fill="#111111"/>
<path d="M137.696 85.0109C138.143 85.3445 138.567 85.7135 138.964 86.116C139.98 87.1452 140.779 88.3531 141.332 89.6667H139C138.264 89.6667 137.667 90.2636 137.667 91C137.667 91.7364 138.264 92.3333 139 92.3333H141.667V94.6659L141.637 94.6666H135.89C135.31 93.5431 135 92.2876 135 91C135 88.8783 135.843 86.8434 137.343 85.3431C137.458 85.2285 137.575 85.1178 137.696 85.0109Z" fill="#111111"/>
<path fill-rule="evenodd" clip-rule="evenodd" d="M137.343 96.6569C135.843 95.1566 135 93.1217 135 91C135 88.8783 135.843 86.8434 137.343 85.3431C138.843 83.8429 140.878 83 143 83C145.122 83 147.157 83.8429 148.657 85.3431C150.157 86.8434 151 88.8783 151 91C151 93.1217 150.157 95.1566 148.657 96.6569C147.157 98.1571 145.122 99 143 99C140.878 99 138.843 98.1571 137.343 96.6569ZM143 85.6667C143.736 85.6667 144.333 86.2636 144.333 87V89.6667H147C147.736 89.6667 148.333 90.2636 148.333 91C148.333 91.7364 147.736 92.3333 147 92.3333H144.333V95C144.333 95.7364 143.736 96.3333 143 96.3333C142.264 96.3333 141.667 95.7364 141.667 95V92.3333H139C138.264 92.3333 137.667 91.7364 137.667 91C137.667 90.2636 138.264 89.6667 139 89.6667H141.667V87C141.667 86.2636 142.264 85.6667 143 85.6667Z" fill="#111111"/>
</g>
</g>
<g id="Size=40px, Filled=true">
<g id="Vector_13">
<path d="M177.709 80.2963C182.212 80.2963 185.862 76.6482 185.862 72.1481C185.862 67.648 182.212 64 177.709 64C173.207 64 169.557 67.648 169.557 72.1481C169.557 76.6482 173.207 80.2963 177.709 80.2963Z" fill="#111111"/>
<path d="M183.098 83.5508C181.459 82.8773 179.692 82.5204 177.889 82.5185C174.207 82.5224 170.676 84.0065 168.072 86.645C165.468 89.2836 164.004 92.8611 164 96.5925C164 96.789 164.077 96.9774 164.214 97.1163C164.351 97.2552 164.537 97.3333 164.731 97.3333H180.229C179.697 95.8787 179.417 94.3288 179.417 92.75C179.417 89.3206 180.738 86.0273 183.098 83.5508Z" fill="#111111"/>
<path d="M186.12 85.2637C186.679 85.6806 187.209 86.1418 187.706 86.645C188.975 87.9315 189.974 89.4413 190.665 91.0833H187.75C186.83 91.0833 186.083 91.8295 186.083 92.75C186.083 93.6705 186.83 94.4167 187.75 94.4167H191.083V97.3324L191.047 97.3333H183.862C183.138 95.9289 182.75 94.3594 182.75 92.75C182.75 90.0978 183.804 87.5543 185.679 85.6789C185.822 85.5357 185.969 85.3972 186.12 85.2637Z" fill="#111111"/>
<path fill-rule="evenodd" clip-rule="evenodd" d="M185.679 99.8211C183.804 97.9457 182.75 95.4022 182.75 92.75C182.75 90.0978 183.804 87.5543 185.679 85.6789C187.554 83.8036 190.098 82.75 192.75 82.75C195.402 82.75 197.946 83.8036 199.821 85.6789C201.696 87.5543 202.75 90.0978 202.75 92.75C202.75 95.4022 201.696 97.9457 199.821 99.8211C197.946 101.696 195.402 102.75 192.75 102.75C190.098 102.75 187.554 101.696 185.679 99.8211ZM192.75 86.0833C193.67 86.0833 194.417 86.8295 194.417 87.75V91.0833H197.75C198.67 91.0833 199.417 91.8295 199.417 92.75C199.417 93.6705 198.67 94.4167 197.75 94.4167H194.417V97.75C194.417 98.6705 193.67 99.4167 192.75 99.4167C191.83 99.4167 191.083 98.6705 191.083 97.75V94.4167H187.75C186.83 94.4167 186.083 93.6705 186.083 92.75C186.083 91.8295 186.83 91.0833 187.75 91.0833H191.083V87.75C191.083 86.8295 191.83 86.0833 192.75 86.0833Z" fill="#111111"/>
</g>
</g>
<g id="Size=48px, Filled=true">
<g id="Vector_14">
<path d="M232.451 79.5555C237.854 79.5555 242.235 75.1779 242.235 69.7778C242.235 64.3777 237.854 60 232.451 60C227.048 60 222.668 64.3777 222.668 69.7778C222.668 75.1779 227.048 79.5555 232.451 79.5555Z" fill="#111111"/>
<path d="M238.918 83.461C236.951 82.6527 234.831 82.2245 232.667 82.2222C228.248 82.2269 224.011 84.0077 220.887 87.174C217.762 90.3403 216.005 94.6333 216 99.1111C216 99.3468 216.092 99.5729 216.257 99.7396C216.421 99.9063 216.645 99.9999 216.877 99.9999H235.475C234.836 98.2544 234.5 96.3945 234.5 94.5C234.5 90.3847 236.085 86.4328 238.918 83.461Z" fill="#111111"/>
<path d="M242.544 85.5164C243.214 86.0168 243.851 86.5702 244.447 87.174C245.97 88.7179 247.169 90.5296 247.997 92.5H244.5C243.395 92.5 242.5 93.3954 242.5 94.5C242.5 95.6046 243.395 96.5 244.5 96.5H248.5V99.9988L248.456 99.9999H239.835C238.966 98.3147 238.5 96.4313 238.5 94.5C238.5 91.3174 239.764 88.2652 242.015 86.0147C242.187 85.8428 242.363 85.6767 242.544 85.5164Z" fill="#111111"/>
<path fill-rule="evenodd" clip-rule="evenodd" d="M242.015 102.985C239.764 100.735 238.5 97.6826 238.5 94.5C238.5 91.3174 239.764 88.2652 242.015 86.0147C244.265 83.7643 247.317 82.5 250.5 82.5C253.683 82.5 256.735 83.7643 258.985 86.0147C261.236 88.2652 262.5 91.3174 262.5 94.5C262.5 97.6826 261.236 100.735 258.985 102.985C256.735 105.236 253.683 106.5 250.5 106.5C247.317 106.5 244.265 105.236 242.015 102.985ZM250.5 86.5C251.605 86.5 252.5 87.3954 252.5 88.5V92.5H256.5C257.605 92.5 258.5 93.3954 258.5 94.5C258.5 95.6046 257.605 96.5 256.5 96.5H252.5V100.5C252.5 101.605 251.605 102.5 250.5 102.5C249.395 102.5 248.5 101.605 248.5 100.5V96.5H244.5C243.395 96.5 242.5 95.6046 242.5 94.5C242.5 93.3954 243.395 92.5 244.5 92.5H248.5V88.5C248.5 87.3954 249.395 86.5 250.5 86.5Z" fill="#111111"/>
</g>
</g>
</g>
<defs>
<clipPath id="clip0_4165_436">
<rect width="264" height="108" fill="white"/>
</clipPath>
<clipPath id="clip1_4165_436">
<rect width="12" height="12" fill="white" transform="translate(0 18)"/>
</clipPath>
<clipPath id="clip2_4165_436">
<rect width="16" height="16" fill="white" transform="translate(24 16)"/>
</clipPath>
<clipPath id="clip3_4165_436">
<rect width="20" height="20" fill="white" transform="translate(52 14)"/>
</clipPath>
<clipPath id="clip4_4165_436">
<rect width="24" height="24" fill="white" transform="translate(84 12)"/>
</clipPath>
<clipPath id="clip5_4165_436">
<rect width="12" height="12" fill="white" transform="translate(0 78)"/>
</clipPath>
<clipPath id="clip6_4165_436">
<rect width="16" height="16" fill="white" transform="translate(24 76)"/>
</clipPath>
<clipPath id="clip7_4165_436">
<rect width="20" height="20" fill="white" transform="translate(52 74)"/>
</clipPath>
<clipPath id="clip8_4165_436">
<rect width="24" height="24" fill="white" transform="translate(84 72)"/>
</clipPath>
</defs>
</svg>
