<svg width="264" height="108" viewBox="0 0 264 108" fill="none" xmlns="http://www.w3.org/2000/svg">
<g id="View details">
<g id="Size=12px, Filled=false">
<path id="Vector" d="M11.7314 24.874V19.2233C11.7314 19.0315 11.6519 18.8475 11.5102 18.7118C11.3685 18.5762 11.1764 18.5 10.976 18.5H1.15534C0.954985 18.5 0.762836 18.5762 0.621165 18.7118C0.479493 18.8475 0.399902 19.0315 0.399902 19.2233V25.7329C0.399902 25.9247 0.479493 26.1087 0.621165 26.2443C0.762836 26.38 0.954985 26.4562 1.15534 26.4562H4.12987M6.7739 20.6247H9.65199M6.7739 22.0411H10.315M5.00023 20.9788C5.00023 21.5655 4.52461 22.0411 3.9379 22.0411C3.35119 22.0411 2.87557 21.5655 2.87557 20.9788C2.87557 20.3921 3.35119 19.9164 3.9379 19.9164C4.52461 19.9164 5.00023 20.3921 5.00023 20.9788ZM1.81635 24.874C1.81635 24.595 1.8713 24.3187 1.97808 24.0609C2.08485 23.8031 2.24135 23.5689 2.43865 23.3716C2.63594 23.1743 2.87016 23.0178 3.12794 22.9111C3.38571 22.8043 3.662 22.7493 3.94101 22.7493C4.22003 22.7493 4.49631 22.8043 4.75408 22.9111C5.01186 23.0178 5.24608 23.1743 5.44338 23.3716C5.64067 23.5689 5.79717 23.8031 5.90395 24.0609C6.01072 24.3187 6.06568 24.595 6.06568 24.874H1.81635ZM11.7314 27.3753C11.7314 27.3753 10.6691 29.5 8.54445 29.5C6.41979 29.5 5.35745 27.3753 5.35745 27.3753C5.35745 27.3753 6.41979 25.2507 8.54445 25.2507C10.6691 25.2507 11.7314 27.3753 11.7314 27.3753ZM9.60678 27.3528C9.60678 27.9395 9.13116 28.4151 8.54445 28.4151C7.95774 28.4151 7.48212 27.9395 7.48212 27.3528C7.48212 26.7661 7.95774 26.2904 8.54445 26.2904C9.13116 26.2904 9.60678 26.7661 9.60678 27.3528Z" stroke="#111111" stroke-width="0.75" stroke-linecap="round" stroke-linejoin="round"/>
</g>
<g id="Size=16px, Filled=false">
<path id="Vector_2" d="M39.5 25.2375V17.7575C39.5 17.5036 39.3946 17.26 39.2071 17.0805C39.0196 16.9009 38.7652 16.8 38.5 16.8H25.5C25.2348 16.8 24.9804 16.9009 24.7929 17.0805C24.6054 17.26 24.5 17.5036 24.5 17.7575V26.3745C24.5 26.6284 24.6054 26.872 24.7929 27.0515C24.9804 27.2311 25.2348 27.332 25.5 27.332H29.4375M32.9375 19.6125H36.7473M32.9375 21.4875H37.625M30.5896 20.0813C30.5896 20.8579 29.96 21.4875 29.1834 21.4875C28.4067 21.4875 27.7771 20.8579 27.7771 20.0813C27.7771 19.3046 28.4067 18.675 29.1834 18.675C29.96 18.675 30.5896 19.3046 30.5896 20.0813ZM26.375 25.2375C26.375 24.8682 26.4477 24.5025 26.5891 24.1613C26.7304 23.82 26.9376 23.51 27.1988 23.2488C27.4599 22.9876 27.77 22.7805 28.1112 22.6391C28.4524 22.4978 28.8182 22.425 29.1875 22.425C29.5568 22.425 29.9226 22.4978 30.2638 22.6391C30.605 22.7805 30.9151 22.9876 31.1762 23.2488C31.4374 23.51 31.6446 23.82 31.7859 24.1613C31.9273 24.5025 32 24.8682 32 25.2375H26.375ZM39.5 28.5487C39.5 28.5487 38.0938 31.3612 35.2812 31.3612C32.4688 31.3612 31.0625 28.5487 31.0625 28.5487C31.0625 28.5487 32.4688 25.7362 35.2812 25.7362C38.0938 25.7362 39.5 28.5487 39.5 28.5487ZM36.6875 28.5188C36.6875 29.2954 36.0579 29.925 35.2812 29.925C34.5046 29.925 33.875 29.2954 33.875 28.5188C33.875 27.7421 34.5046 27.1125 35.2812 27.1125C36.0579 27.1125 36.6875 27.7421 36.6875 28.5188Z" stroke="#111111" stroke-linecap="round" stroke-linejoin="round"/>
</g>
<g id="Size=20px, Filled=false">
<path id="Vector_3" d="M71.2925 25.6802V16.4336C71.2925 16.1197 71.1623 15.8186 70.9305 15.5967C70.6986 15.3747 70.3842 15.25 70.0564 15.25H53.9862C53.6583 15.25 53.3439 15.3747 53.1121 15.5967C52.8802 15.8186 52.75 16.1197 52.75 16.4336V27.0857C52.75 27.3996 52.8802 27.7006 53.1121 27.9226C53.3439 28.1445 53.6583 28.2692 53.9862 28.2692H58.8536M63.1802 18.7267H67.8898M63.1802 21.0445H68.9747M60.2778 19.3062C60.2778 20.2662 59.4995 21.0445 58.5394 21.0445C57.5794 21.0445 56.8011 20.2662 56.8011 19.3062C56.8011 18.3461 57.5794 17.5678 58.5394 17.5678C59.4995 17.5678 60.2778 18.3461 60.2778 19.3062ZM55.0678 25.6802C55.0678 25.2236 55.1577 24.7715 55.3325 24.3497C55.5072 23.9279 55.7633 23.5446 56.0861 23.2218C56.409 22.8989 56.7922 22.6428 57.2141 22.4681C57.6359 22.2934 58.088 22.2034 58.5445 22.2034C59.0011 22.2034 59.4532 22.2934 59.875 22.4681C60.2968 22.6428 60.6801 22.8989 61.003 23.2218C61.3258 23.5446 61.5819 23.9279 61.7566 24.3497C61.9313 24.7715 62.0213 25.2236 62.0213 25.6802H55.0678ZM71.2925 29.7733C71.2925 29.7733 69.5542 33.25 66.0774 33.25C62.6007 33.25 60.8624 29.7733 60.8624 29.7733C60.8624 29.7733 62.6007 26.2966 66.0774 26.2966C69.5542 26.2966 71.2925 29.7733 71.2925 29.7733ZM67.8158 29.7364C67.8158 30.6964 67.0375 31.4747 66.0774 31.4747C65.1174 31.4747 64.3391 30.6964 64.3391 29.7364C64.3391 28.7763 65.1174 27.998 66.0774 27.998C67.0375 27.998 67.8158 28.7763 67.8158 29.7364Z" stroke="#111111" stroke-width="1.25" stroke-linecap="round" stroke-linejoin="round"/>
</g>
<g id="Size=24px, Filled=false">
<path id="Vector_4" d="M107 25.9167V15.4167C107 15.0409 106.845 14.6806 106.57 14.4149C106.295 14.1493 105.922 14 105.533 14H86.4667C86.0777 14 85.7046 14.1493 85.4296 14.4149C85.1545 14.6806 85 15.0409 85 15.4167V28.1667C85 28.5424 85.1545 28.9027 85.4296 29.1684C85.7046 29.4341 86.0777 29.5833 86.4667 29.5833H91.4167M97.8333 18.5833H102.417M97.8333 20.7873H104.25M94.1667 19.5C94.1667 20.5125 93.3459 21.3333 92.3333 21.3333C91.3208 21.3333 90.5 20.5125 90.5 19.5C90.5 18.4875 91.3208 17.6667 92.3333 17.6667C93.3459 17.6667 94.1667 18.4875 94.1667 19.5ZM88.6667 25.9167C88.6667 25.4352 88.7615 24.9584 88.9458 24.5135C89.13 24.0686 89.4001 23.6644 89.7406 23.3239C90.0811 22.9835 90.4853 22.7134 90.9302 22.5291C91.375 22.3448 91.8518 22.25 92.3333 22.25C92.8148 22.25 93.2916 22.3448 93.7365 22.5291C94.1814 22.7134 94.5856 22.9835 94.9261 23.3239C95.2665 23.6644 95.5366 24.0686 95.7209 24.5135C95.9052 24.9584 96 25.4352 96 25.9167H88.6667ZM107 30.5C107 30.5 104.861 34.1667 100.583 34.1667C96.3056 34.1667 94.1667 30.5 94.1667 30.5C94.1667 30.5 96.3056 26.8333 100.583 26.8333C104.861 26.8333 107 30.5 107 30.5ZM102.417 30.5C102.417 31.5125 101.596 32.3333 100.583 32.3333C99.5708 32.3333 98.75 31.5125 98.75 30.5C98.75 29.4875 99.5708 28.6667 100.583 28.6667C101.596 28.6667 102.417 29.4875 102.417 30.5Z" stroke="#111111" stroke-width="1.5" stroke-linecap="round" stroke-linejoin="round"/>
</g>
<g id="Size=32px, Filled=false">
<path id="Vector_5" d="M151 26.375V11.4149C151 10.907 150.789 10.42 150.414 10.0609C150.039 9.70175 149.53 9.5 149 9.5H123C122.47 9.5 121.961 9.70175 121.586 10.0609C121.211 10.42 121 10.907 121 11.4149V28.6489C121 29.1568 121.211 29.6439 121.586 30.003C121.961 30.3621 122.47 30.5638 123 30.5638H130.875M137.875 15.125H145.495M137.875 18.875H147.25M133.179 16.0625C133.179 17.6158 131.92 18.875 130.367 18.875C128.813 18.875 127.554 17.6158 127.554 16.0625C127.554 14.5092 128.813 13.25 130.367 13.25C131.92 13.25 133.179 14.5092 133.179 16.0625ZM124.75 26.375C124.75 25.6363 124.895 24.9049 125.178 24.2224C125.461 23.5399 125.875 22.9199 126.398 22.3975C126.92 21.8752 127.54 21.4609 128.222 21.1782C128.905 20.8955 129.636 20.75 130.375 20.75C131.114 20.75 131.845 20.8955 132.528 21.1782C133.21 21.4609 133.83 21.8752 134.352 22.3975C134.875 22.9199 135.289 23.5399 135.572 24.2224C135.855 24.9049 136 25.6363 136 26.375H124.75ZM151 32.9972C151 32.9972 148.188 38.6222 142.562 38.6222C136.938 38.6222 134.125 32.9972 134.125 32.9972C134.125 32.9972 136.938 27.3722 142.562 27.3722C148.188 27.3722 151 32.9972 151 32.9972ZM145.375 32.9375C145.375 34.4908 144.116 35.75 142.562 35.75C141.009 35.75 139.75 34.4908 139.75 32.9375C139.75 31.3842 141.009 30.125 142.562 30.125C144.116 30.125 145.375 31.3842 145.375 32.9375Z" stroke="#111111" stroke-width="2" stroke-linecap="round" stroke-linejoin="round"/>
</g>
<g id="Size=40px, Filled=false">
<path id="Vector_6" d="M202.535 26.8603V8.36713C202.535 7.73933 202.275 7.13724 201.811 6.69332C201.347 6.24939 200.718 6 200.063 6H167.922C167.267 6 166.638 6.24939 166.174 6.69332C165.71 7.13724 165.45 7.73933 165.45 8.36713V29.6713C165.45 30.2991 165.71 30.9012 166.174 31.3451C166.638 31.7891 167.267 32.0384 167.922 32.0384H177.657M186.31 12.9534H195.73M186.31 17.5891H197.899M180.506 14.1124C180.506 16.0325 178.949 17.5891 177.029 17.5891C175.109 17.5891 173.552 16.0325 173.552 14.1124C173.552 12.1922 175.109 10.6356 177.029 10.6356C178.949 10.6356 180.506 12.1922 180.506 14.1124ZM170.086 26.8603C170.086 25.9472 170.265 25.043 170.615 24.1994C170.964 23.3557 171.477 22.5892 172.122 21.9435C172.768 21.2978 173.534 20.7856 174.378 20.4362C175.222 20.0868 176.126 19.9069 177.039 19.9069C177.952 19.9069 178.856 20.0868 179.7 20.4362C180.544 20.7856 181.31 21.2978 181.956 21.9435C182.602 22.5892 183.114 23.3557 183.463 24.1994C183.813 25.043 183.992 25.9472 183.992 26.8603H170.086ZM202.535 35.0465C202.535 35.0465 199.058 42 192.105 42C185.151 42 181.675 35.0465 181.675 35.0465C181.675 35.0465 185.151 28.0931 192.105 28.0931C199.058 28.0931 202.535 35.0465 202.535 35.0465ZM195.582 34.9727C195.582 36.8928 194.025 38.4494 192.105 38.4494C190.185 38.4494 188.628 36.8928 188.628 34.9727C188.628 33.0526 190.185 31.496 192.105 31.496C194.025 31.496 195.582 33.0526 195.582 34.9727Z" stroke="#111111" stroke-width="2.5" stroke-linecap="round" stroke-linejoin="round"/>
</g>
<g id="Size=48px, Filled=false">
<path id="Vector_7" d="M262.5 27.5625V5.12234C262.5 4.36055 262.184 3.62996 261.621 3.09129C261.059 2.55262 260.296 2.25 259.5 2.25H220.5C219.704 2.25 218.941 2.55262 218.379 3.09129C217.816 3.62996 217.5 4.36055 217.5 5.12234V30.9734C217.5 31.7352 217.816 32.4658 218.379 33.0045C218.941 33.5431 219.704 33.8457 220.5 33.8457H232.313M242.812 10.6875H254.242M242.812 16.3125H256.875M235.769 12.0938C235.769 14.4237 233.88 16.3125 231.55 16.3125C229.22 16.3125 227.331 14.4237 227.331 12.0938C227.331 9.7638 229.22 7.875 231.55 7.875C233.88 7.875 235.769 9.7638 235.769 12.0938ZM223.125 27.5625C223.125 26.4545 223.343 25.3573 223.767 24.3336C224.191 23.3099 224.813 22.3798 225.596 21.5963C226.38 20.8128 227.31 20.1913 228.334 19.7673C229.357 19.3432 230.454 19.125 231.562 19.125C232.671 19.125 233.768 19.3432 234.791 19.7673C235.815 20.1913 236.745 20.8128 237.529 21.5963C238.312 22.3798 238.934 23.3099 239.358 24.3336C239.782 25.3573 240 26.4545 240 27.5625H223.125ZM262.5 37.4959C262.5 37.4959 258.281 45.9334 249.844 45.9334C241.406 45.9334 237.188 37.4959 237.188 37.4959C237.188 37.4959 241.406 29.0584 249.844 29.0584C258.281 29.0584 262.5 37.4959 262.5 37.4959ZM254.062 37.4062C254.062 39.7362 252.174 41.625 249.844 41.625C247.514 41.625 245.625 39.7362 245.625 37.4062C245.625 35.0763 247.514 33.1875 249.844 33.1875C252.174 33.1875 254.062 35.0763 254.062 37.4062Z" stroke="#111111" stroke-width="3" stroke-linecap="round" stroke-linejoin="round"/>
</g>
<g id="Size=12px, Filled=true">
<g id="Vector_8">
<path fill-rule="evenodd" clip-rule="evenodd" d="M0 79.75C0 79.1977 0.447715 78.75 1 78.75H11C11.5523 78.75 12 79.1977 12 79.75V86.75C12 86.8021 11.996 86.8533 11.9883 86.9033C11.8448 86.7392 11.6657 86.5549 11.4504 86.3704C10.8056 85.8177 9.8195 85.25 8.5 85.25C7.1805 85.25 6.19441 85.8177 5.54961 86.3704C5.22732 86.6466 4.98588 86.9225 4.82408 87.1305C4.74295 87.2348 4.68117 87.3229 4.63867 87.3867C4.61739 87.4186 4.60089 87.4445 4.58915 87.4634L4.57508 87.4863L4.57071 87.4936L4.56919 87.4962L4.5686 87.4972C4.52312 87.5752 4.50029 87.6626 4.50024 87.75H1C0.447715 87.75 0 87.3023 0 86.75V79.75ZM3.20817 82.1663C3.87542 82.1663 4.41634 81.6254 4.41634 80.9582C4.41634 80.2909 3.87542 79.75 3.20817 79.75C2.54092 79.75 2 80.2909 2 80.9582C2 81.6254 2.54092 82.1663 3.20817 82.1663ZM1.15766 84.0286C1.05357 84.2798 1 84.5492 1 84.8211H5.1423C5.1423 84.5492 5.08873 84.2798 4.98464 84.0286C4.88056 83.7773 4.728 83.5489 4.53567 83.3566C4.34335 83.1643 4.11503 83.0117 3.86374 82.9077C3.61246 82.8036 3.34314 82.75 3.07115 82.75C2.79916 82.75 2.52984 82.8036 2.27855 82.9077C2.02727 83.0117 1.79895 83.1643 1.60663 83.3566C1.4143 83.5489 1.26174 83.7773 1.15766 84.0286ZM5.5 80.75C5.5 80.4739 5.72386 80.25 6 80.25H9C9.27614 80.25 9.5 80.4739 9.5 80.75C9.5 81.0261 9.27614 81.25 9 81.25H6C5.72386 81.25 5.5 81.0261 5.5 80.75ZM6 82.25C5.72386 82.25 5.5 82.4739 5.5 82.75C5.5 83.0261 5.72386 83.25 6 83.25H10C10.2761 83.25 10.5 83.0261 10.5 82.75C10.5 82.4739 10.2761 82.25 10 82.25H6Z" fill="#111111"/>
<path fill-rule="evenodd" clip-rule="evenodd" d="M5.61343 87.7555L5.60914 87.75L5.61343 87.7445C5.74329 87.5775 5.93935 87.3534 6.2004 87.1296C6.72226 86.6823 7.48617 86.25 8.5 86.25C9.51383 86.25 10.2777 86.6823 10.7996 87.1296C11.0607 87.3534 11.2567 87.5775 11.3866 87.7445L11.3909 87.75L11.3866 87.7555C11.2567 87.9225 11.0607 88.1466 10.7996 88.3704C10.2777 88.8177 9.51383 89.25 8.5 89.25C7.48617 89.25 6.72226 88.8177 6.2004 88.3704C5.93935 88.1466 5.74329 87.9225 5.61343 87.7555ZM8.5 88.75C9.05228 88.75 9.5 88.3023 9.5 87.75C9.5 87.1977 9.05228 86.75 8.5 86.75C7.94772 86.75 7.5 87.1977 7.5 87.75C7.5 88.3023 7.94772 88.75 8.5 88.75Z" fill="#111111"/>
</g>
</g>
<g id="Size=16px, Filled=true">
<g id="Vector_9">
<path fill-rule="evenodd" clip-rule="evenodd" d="M24 78.3333C24 77.597 24.597 77 25.3333 77H38.6667C39.403 77 40 77.597 40 78.3333V87.6667C40 87.7362 39.9947 87.8044 39.9844 87.871C39.7931 87.6523 39.5542 87.4065 39.2672 87.1605C38.4075 86.4236 37.0927 85.6667 35.3333 85.6667C33.574 85.6667 32.2592 86.4236 31.3995 87.1605C30.9698 87.5288 30.6478 87.8967 30.4321 88.174C30.3239 88.3131 30.2416 88.4306 30.1849 88.5156C30.1565 88.5582 30.1345 88.5927 30.1189 88.6179L30.1001 88.6485L30.0943 88.6582L30.0923 88.6616L30.0915 88.663C30.0308 88.7669 30.0004 88.8835 30.0003 89H25.3333C24.597 89 24 88.403 24 87.6667V78.3333ZM28.2776 81.5551C29.1672 81.5551 29.8885 80.8339 29.8885 79.9442C29.8885 79.0546 29.1672 78.3333 28.2776 78.3333C27.3879 78.3333 26.6667 79.0546 26.6667 79.9442C26.6667 80.8339 27.3879 81.5551 28.2776 81.5551ZM25.5435 84.0381C25.4048 84.3731 25.3333 84.7322 25.3333 85.0949H30.8564C30.8564 84.7322 30.785 84.3731 30.6462 84.0381C30.5074 83.703 30.304 83.3986 30.0476 83.1422C29.7911 82.8857 29.4867 82.6823 29.1517 82.5435C28.8166 82.4048 28.4575 82.3333 28.0949 82.3333C27.7322 82.3333 27.3731 82.4048 27.0381 82.5435C26.703 82.6823 26.3986 82.8857 26.1422 83.1422C25.8857 83.3986 25.6823 83.703 25.5435 84.0381ZM31.3333 79.6667C31.3333 79.2985 31.6318 79 32 79H36C36.3682 79 36.6667 79.2985 36.6667 79.6667C36.6667 80.0349 36.3682 80.3333 36 80.3333H32C31.6318 80.3333 31.3333 80.0349 31.3333 79.6667ZM32 81.6667C31.6318 81.6667 31.3333 81.9651 31.3333 82.3333C31.3333 82.7015 31.6318 83 32 83H37.3333C37.7015 83 38 82.7015 38 82.3333C38 81.9651 37.7015 81.6667 37.3333 81.6667H32Z" fill="#111111"/>
<path fill-rule="evenodd" clip-rule="evenodd" d="M31.4846 89.0074L31.4788 89L31.4846 88.9926C31.6577 88.77 31.9191 88.4712 32.2672 88.1728C32.963 87.5764 33.9816 87 35.3333 87C36.6851 87 37.7037 87.5764 38.3995 88.1728C38.7475 88.4712 39.009 88.77 39.1821 88.9926L39.1878 89L39.1821 89.0074C39.009 89.23 38.7475 89.5288 38.3995 89.8272C37.7037 90.4236 36.6851 91 35.3333 91C33.9816 91 32.963 90.4236 32.2672 89.8272C31.9191 89.5288 31.6577 89.23 31.4846 89.0074ZM35.3333 90.3333C36.0697 90.3333 36.6667 89.7364 36.6667 89C36.6667 88.2636 36.0697 87.6667 35.3333 87.6667C34.597 87.6667 34 88.2636 34 89C34 89.7364 34.597 90.3333 35.3333 90.3333Z" fill="#111111"/>
</g>
</g>
<g id="Size=20px, Filled=true">
<g id="Vector_10">
<path fill-rule="evenodd" clip-rule="evenodd" d="M52 76.9167C52 75.9962 52.7462 75.25 53.6667 75.25H70.3333C71.2538 75.25 72 75.9962 72 76.9167V88.5833C72 88.6702 71.9934 88.7555 71.9805 88.8388C71.7414 88.5654 71.4428 88.2581 71.084 87.9506C70.0093 87.0295 68.3658 86.0833 66.1667 86.0833C63.9675 86.0833 62.324 87.0295 61.2493 87.9506C60.7122 88.411 60.3098 88.8708 60.0401 89.2175C59.9049 89.3914 59.802 89.5382 59.7311 89.6445C59.6957 89.6977 59.6681 89.7409 59.6486 89.7723L59.6251 89.8106L59.6179 89.8227L59.6153 89.827L59.6143 89.8287C59.5385 89.9587 59.5005 90.1043 59.5004 90.25H53.6667C52.7462 90.25 52 89.5038 52 88.5833V76.9167ZM57.347 80.9439C58.459 80.9439 59.3606 80.0424 59.3606 78.9303C59.3606 77.8182 58.459 76.9167 57.347 76.9167C56.2349 76.9167 55.3333 77.8182 55.3333 78.9303C55.3333 80.0424 56.2349 80.9439 57.347 80.9439ZM53.9294 84.0476C53.756 84.4664 53.6667 84.9153 53.6667 85.3686H60.5705C60.5705 84.9153 60.4812 84.4664 60.3077 84.0476C60.1343 83.6288 59.88 83.2482 59.5595 82.9277C59.2389 82.6072 58.8584 82.3529 58.4396 82.1794C58.0208 82.006 57.5719 81.9167 57.1186 81.9167C56.6653 81.9167 56.2164 82.006 55.7976 82.1794C55.3788 82.3529 54.9982 82.6072 54.6777 82.9277C54.3572 83.2482 54.1029 83.6288 53.9294 84.0476ZM61.1667 78.5833C61.1667 78.1231 61.5398 77.75 62 77.75H67C67.4602 77.75 67.8333 78.1231 67.8333 78.5833C67.8333 79.0436 67.4602 79.4167 67 79.4167H62C61.5398 79.4167 61.1667 79.0436 61.1667 78.5833ZM62 81.0833C61.5398 81.0833 61.1667 81.4564 61.1667 81.9167C61.1667 82.3769 61.5398 82.75 62 82.75H68.6667C69.1269 82.75 69.5 82.3769 69.5 81.9167C69.5 81.4564 69.1269 81.0833 68.6667 81.0833H62Z" fill="#111111"/>
<path fill-rule="evenodd" clip-rule="evenodd" d="M61.3557 90.2592L61.3486 90.25L61.3557 90.2408C61.5721 89.9625 61.8989 89.589 62.334 89.216C63.2038 88.4705 64.477 87.75 66.1667 87.75C67.8564 87.75 69.1296 88.4705 69.9993 89.216C70.4344 89.589 70.7612 89.9625 70.9776 90.2408L70.9848 90.25L70.9776 90.2592C70.7612 90.5375 70.4344 90.911 69.9993 91.284C69.1296 92.0295 67.8564 92.75 66.1667 92.75C64.477 92.75 63.2038 92.0295 62.334 91.284C61.8989 90.911 61.5721 90.5375 61.3557 90.2592ZM66.1667 91.9167C67.0871 91.9167 67.8333 91.1705 67.8333 90.25C67.8333 89.3295 67.0871 88.5833 66.1667 88.5833C65.2462 88.5833 64.5 89.3295 64.5 90.25C64.5 91.1705 65.2462 91.9167 66.1667 91.9167Z" fill="#111111"/>
</g>
</g>
<g id="Size=24px, Filled=true">
<g id="Vector_11">
<path fill-rule="evenodd" clip-rule="evenodd" d="M84 75.5C84 74.3954 84.8954 73.5 86 73.5H106C107.105 73.5 108 74.3954 108 75.5V89.5C108 89.6042 107.992 89.7066 107.977 89.8066C107.69 89.4784 107.331 89.1097 106.901 88.7407C105.611 87.6354 103.639 86.5 101 86.5C98.361 86.5 96.3888 87.6354 95.0992 88.7407C94.4546 89.2932 93.9718 89.845 93.6482 90.2611C93.4859 90.4697 93.3623 90.6459 93.2773 90.7734C93.2348 90.8372 93.2018 90.889 93.1783 90.9268L93.1502 90.9727L93.1414 90.9873L93.1384 90.9924L93.1372 90.9945C93.0462 91.1504 93.0006 91.3252 93.0005 91.5H86C84.8954 91.5 84 90.6046 84 89.5V75.5ZM90.4163 80.3327C91.7508 80.3327 92.8327 79.2508 92.8327 77.9163C92.8327 76.5818 91.7508 75.5 90.4163 75.5C89.0818 75.5 88 76.5818 88 77.9163C88 79.2508 89.0818 80.3327 90.4163 80.3327ZM86.3153 84.0571C86.1071 84.5597 86 85.0983 86 85.6423H94.2846C94.2846 85.0983 94.1775 84.5597 93.9693 84.0571C93.7611 83.5545 93.456 83.0979 93.0713 82.7133C92.6867 82.3286 92.2301 82.0235 91.7275 81.8153C91.2249 81.6071 90.6863 81.5 90.1423 81.5C89.5983 81.5 89.0597 81.6071 88.5571 81.8153C88.0545 82.0235 87.5979 82.3286 87.2133 82.7133C86.8286 83.0979 86.5235 83.5545 86.3153 84.0571ZM95 77.5C95 76.9477 95.4477 76.5 96 76.5H102C102.552 76.5 103 76.9477 103 77.5C103 78.0523 102.552 78.5 102 78.5H96C95.4477 78.5 95 78.0523 95 77.5ZM96 80.5C95.4477 80.5 95 80.9477 95 81.5C95 82.0523 95.4477 82.5 96 82.5H104C104.552 82.5 105 82.0523 105 81.5C105 80.9477 104.552 80.5 104 80.5H96Z" fill="#111111"/>
<path fill-rule="evenodd" clip-rule="evenodd" d="M95.2269 91.5111L95.2183 91.5L95.2269 91.4889C95.4866 91.155 95.8787 90.7068 96.4008 90.2593C97.4445 89.3646 98.9723 88.5 101 88.5C103.028 88.5 104.555 89.3646 105.599 90.2593C106.121 90.7068 106.513 91.155 106.773 91.4889L106.782 91.5L106.773 91.5111C106.513 91.845 106.121 92.2932 105.599 92.7407C104.555 93.6354 103.028 94.5 101 94.5C98.9723 94.5 97.4445 93.6354 96.4008 92.7407C95.8787 92.2932 95.4866 91.845 95.2269 91.5111ZM101 93.5C102.105 93.5 103 92.6046 103 91.5C103 90.3954 102.105 89.5 101 89.5C99.8954 89.5 99 90.3954 99 91.5C99 92.6046 99.8954 93.5 101 93.5Z" fill="#111111"/>
</g>
</g>
<g id="Size=32px, Filled=true">
<g id="Vector_12">
<path fill-rule="evenodd" clip-rule="evenodd" d="M120 72.6667C120 71.1939 121.194 70 122.667 70H149.333C150.806 70 152 71.1939 152 72.6667V91.3333C152 91.4723 151.989 91.6088 151.969 91.7421C151.586 91.3046 151.108 90.813 150.534 90.321C148.815 88.8472 146.185 87.3333 142.667 87.3333C139.148 87.3333 136.518 88.8472 134.799 90.321C133.94 91.0576 133.296 91.7933 132.864 92.3481C132.648 92.6262 132.483 92.8612 132.37 93.0312C132.313 93.1163 132.269 93.1854 132.238 93.2357L132.2 93.2969L132.189 93.3164L132.185 93.3233L132.183 93.326C132.062 93.5339 132.001 93.767 132.001 94H122.667C121.194 94 120 92.8061 120 91.3333V72.6667ZM128.555 79.1102C130.334 79.1102 131.777 77.6678 131.777 75.8885C131.777 74.1091 130.334 72.6667 128.555 72.6667C126.776 72.6667 125.333 74.1091 125.333 75.8885C125.333 77.6678 126.776 79.1102 128.555 79.1102ZM123.087 84.0761C122.81 84.7462 122.667 85.4644 122.667 86.1897H133.713C133.713 85.4644 133.57 84.7462 133.292 84.0761C133.015 83.4061 132.608 82.7972 132.095 82.2843C131.582 81.7715 130.973 81.3646 130.303 81.0871C129.633 80.8095 128.915 80.6667 128.19 80.6667C127.464 80.6667 126.746 80.8095 126.076 81.0871C125.406 81.3646 124.797 81.7715 124.284 82.2843C123.771 82.7972 123.365 83.4061 123.087 84.0761ZM134.667 75.3333C134.667 74.597 135.264 74 136 74H144C144.736 74 145.333 74.597 145.333 75.3333C145.333 76.0697 144.736 76.6667 144 76.6667H136C135.264 76.6667 134.667 76.0697 134.667 75.3333ZM136 79.3333C135.264 79.3333 134.667 79.9303 134.667 80.6667C134.667 81.403 135.264 82 136 82H146.667C147.403 82 148 81.403 148 80.6667C148 79.9303 147.403 79.3333 146.667 79.3333H136Z" fill="#111111"/>
<path fill-rule="evenodd" clip-rule="evenodd" d="M134.969 94.0147L134.958 94L134.969 93.9853C135.315 93.54 135.838 92.9424 136.534 92.3457C137.926 91.1528 139.963 90 142.667 90C145.37 90 147.407 91.1528 148.799 92.3457C149.495 92.9424 150.018 93.54 150.364 93.9853L150.376 94L150.364 94.0147C150.018 94.46 149.495 95.0576 148.799 95.6543C147.407 96.8472 145.37 98 142.667 98C139.963 98 137.926 96.8472 136.534 95.6543C135.838 95.0576 135.315 94.46 134.969 94.0147ZM142.667 96.6667C144.139 96.6667 145.333 95.4728 145.333 94C145.333 92.5272 144.139 91.3333 142.667 91.3333C141.194 91.3333 140 92.5272 140 94C140 95.4728 141.194 96.6667 142.667 96.6667Z" fill="#111111"/>
</g>
</g>
<g id="Size=40px, Filled=true">
<g id="Vector_13">
<path fill-rule="evenodd" clip-rule="evenodd" d="M164 69.8333C164 67.9924 165.492 66.5 167.333 66.5H200.667C202.508 66.5 204 67.9924 204 69.8333V93.1667C204 93.3404 203.987 93.511 203.961 93.6776C203.483 93.1307 202.886 92.5162 202.168 91.9012C200.019 90.0589 196.732 88.1667 192.333 88.1667C187.935 88.1667 184.648 90.0589 182.499 91.9012C181.424 92.8221 180.62 93.7416 180.08 94.4351C179.81 94.7828 179.604 95.0765 179.462 95.289C179.391 95.3954 179.336 95.4817 179.297 95.5446L179.25 95.6211L179.236 95.6455L179.231 95.6541L179.229 95.6575C179.077 95.9173 179.001 96.2087 179.001 96.5H167.333C165.492 96.5 164 95.0076 164 93.1667V69.8333ZM174.694 77.8878C176.918 77.8878 178.721 76.0847 178.721 73.8606C178.721 71.6364 176.918 69.8333 174.694 69.8333C172.47 69.8333 170.667 71.6364 170.667 73.8606C170.667 76.0847 172.47 77.8878 174.694 77.8878ZM167.859 84.0952C167.512 84.9328 167.333 85.8305 167.333 86.7372H181.141C181.141 85.8305 180.962 84.9328 180.615 84.0952C180.269 83.2576 179.76 82.4965 179.119 81.8554C178.478 81.2143 177.717 80.7058 176.879 80.3589C176.042 80.0119 175.144 79.8333 174.237 79.8333C173.331 79.8333 172.433 80.0119 171.595 80.3589C170.758 80.7058 169.996 81.2143 169.355 81.8554C168.714 82.4965 168.206 83.2576 167.859 84.0952ZM182.333 73.1667C182.333 72.2462 183.08 71.5 184 71.5H194C194.92 71.5 195.667 72.2462 195.667 73.1667C195.667 74.0871 194.92 74.8333 194 74.8333H184C183.08 74.8333 182.333 74.0871 182.333 73.1667ZM184 78.1667C183.08 78.1667 182.333 78.9129 182.333 79.8333C182.333 80.7538 183.08 81.5 184 81.5H197.333C198.254 81.5 199 80.7538 199 79.8333C199 78.9129 198.254 78.1667 197.333 78.1667H184Z" fill="#111111"/>
<path fill-rule="evenodd" clip-rule="evenodd" d="M182.711 96.5184L182.697 96.5L182.711 96.4816C183.144 95.925 183.798 95.1779 184.668 94.4321C186.408 92.9411 188.954 91.5 192.333 91.5C195.713 91.5 198.259 92.9411 199.999 94.4321C200.869 95.1779 201.522 95.925 201.955 96.4816L201.97 96.5L201.955 96.5184C201.522 97.075 200.869 97.8221 199.999 98.5679C198.259 100.059 195.713 101.5 192.333 101.5C188.954 101.5 186.408 100.059 184.668 98.5679C183.798 97.8221 183.144 97.075 182.711 96.5184ZM192.333 99.8333C194.174 99.8333 195.667 98.3409 195.667 96.5C195.667 94.659 194.174 93.1667 192.333 93.1667C190.492 93.1667 189 94.659 189 96.5C189 98.3409 190.492 99.8333 192.333 99.8333Z" fill="#111111"/>
</g>
</g>
<g id="Size=48px, Filled=true">
<g id="Vector_14">
<path fill-rule="evenodd" clip-rule="evenodd" d="M216 67C216 64.7909 217.791 63 220 63H260C262.209 63 264 64.7909 264 67V95C264 95.2085 263.984 95.4132 263.953 95.6131C263.379 94.9568 262.663 94.2195 261.802 93.4815C259.222 91.2707 255.278 89 250 89C244.722 89 240.778 91.2707 238.198 93.4815C236.909 94.5865 235.944 95.69 235.296 96.5221C234.972 96.9394 234.725 97.2918 234.555 97.5469C234.47 97.6745 234.404 97.7781 234.357 97.8536L234.3 97.9454L234.283 97.9746L234.277 97.9849L234.274 97.9889C234.092 98.3008 234.001 98.6504 234.001 99H220C217.791 99 216 97.2091 216 95V67ZM228.833 76.6654C231.502 76.6654 233.665 74.5017 233.665 71.8327C233.665 69.1637 231.502 67 228.833 67C226.164 67 224 69.1637 224 71.8327C224 74.5017 226.164 76.6654 228.833 76.6654ZM220.631 84.1142C220.214 85.1194 220 86.1966 220 87.2846H236.569C236.569 86.1966 236.355 85.1194 235.939 84.1142C235.522 83.1091 234.912 82.1958 234.143 81.4265C233.373 80.6572 232.46 80.047 231.455 79.6306C230.45 79.2143 229.373 79 228.285 79C227.197 79 226.119 79.2143 225.114 79.6306C224.109 80.047 223.196 80.6572 222.427 81.4265C221.657 82.1958 221.047 83.1091 220.631 84.1142ZM238 71C238 69.8954 238.895 69 240 69H252C253.105 69 254 69.8954 254 71C254 72.1046 253.105 73 252 73H240C238.895 73 238 72.1046 238 71ZM240 77C238.895 77 238 77.8954 238 79C238 80.1046 238.895 81 240 81H256C257.105 81 258 80.1046 258 79C258 77.8954 257.105 77 256 77H240Z" fill="#111111"/>
<path fill-rule="evenodd" clip-rule="evenodd" d="M238.454 99.0221L238.437 99L238.454 98.9779C238.973 98.31 239.757 97.4135 240.802 96.5185C242.889 94.7293 245.945 93 250 93C254.055 93 257.111 94.7293 259.198 96.5185C260.243 97.4135 261.027 98.31 261.546 98.9779L261.563 99L261.546 99.0221C261.027 99.69 260.243 100.586 259.198 101.481C257.111 103.271 254.055 105 250 105C245.945 105 242.889 103.271 240.802 101.481C239.757 100.586 238.973 99.69 238.454 99.0221ZM250 103C252.209 103 254 101.209 254 99C254 96.7909 252.209 95 250 95C247.791 95 246 96.7909 246 99C246 101.209 247.791 103 250 103Z" fill="#111111"/>
</g>
</g>
</g>
</svg>
