<svg width="264" height="108" viewBox="0 0 264 108" fill="none" xmlns="http://www.w3.org/2000/svg">
<g id="View (off)">
<g clip-path="url(#clip0_1107_687)">
<g id="Size=12px, Filled=false">
<path id="Vector" d="M1.39141 28.5L11.1414 19.5M4.5 27.5275C4.96433 27.6783 5.44816 27.7532 5.93434 27.7494C7.87137 27.7835 9.8358 26.359 11.0481 24.9631C11.3173 24.6504 11.3173 24.1755 11.0481 23.8628C10.6089 23.3587 10.1224 22.9021 9.5958 22.5M7.5 21.1443C7.11014 21.0438 6.70948 20.9954 6.30775 21C4.31606 20.9657 2.25618 22.4079 0.961157 23.8828C0.679614 24.2064 0.679614 24.698 0.961157 25.0216C1.35491 25.4679 1.78468 25.8787 2.2458 26.2494M4.12491 24.375C4.12478 23.8777 4.32228 23.4007 4.67394 23.049C5.0256 22.6974 5.50259 22.4999 5.99991 22.5M7.87491 24.3745C7.87505 24.8719 7.67756 25.3489 7.32592 25.7006C6.97427 26.0524 6.49728 26.25 5.99991 26.25" stroke="#111111" stroke-width="0.75" stroke-linecap="round" stroke-linejoin="round"/>
</g>
<g id="Size=16px, Filled=false">
<path id="Vector_2" d="M25.8552 30L38.8552 18M30 28.7033C30.6191 28.9044 31.2642 29.0043 31.9125 28.9992C34.4952 29.0447 37.1144 27.1453 38.7308 25.2841C39.0897 24.8672 39.0897 24.2339 38.7308 23.817C38.1452 23.1449 37.4965 22.5362 36.7944 22M34 20.1924C33.4802 20.0584 32.946 19.9938 32.4103 20C29.7547 19.9543 27.0082 21.8772 25.2815 23.8437C24.9062 24.2753 24.9062 24.9306 25.2815 25.3621C25.8066 25.9572 26.3796 26.5049 26.9944 26.9992M29.4999 24.5C29.4997 23.8369 29.763 23.2009 30.2319 22.732C30.7008 22.2632 31.3368 21.9998 31.9999 22M34.4999 24.4993C34.5001 25.1625 34.2367 25.7985 33.7679 26.2675C33.299 26.7365 32.663 27 31.9999 27" stroke="#111111" stroke-linecap="round" stroke-linejoin="round"/>
</g>
<g id="Size=20px, Filled=false">
<path id="Vector_3" d="M54.3193 31.5L70.5693 16.5M59.5002 29.8791C60.2741 30.1306 61.0805 30.2553 61.8908 30.249C65.1192 30.3058 68.3932 27.9316 70.4137 25.6051C70.8624 25.084 70.8624 24.2924 70.4137 23.7713C69.6818 22.9312 68.8709 22.1702 67.9932 21.5M64.5002 19.2405C63.8505 19.0731 63.1827 18.9923 62.5132 19C59.1937 18.9429 55.7605 21.3465 53.6022 23.8047C53.1329 24.3441 53.1329 25.1633 53.6022 25.7027C54.2584 26.4465 54.9747 27.1311 55.7432 27.749M58.8751 24.625C58.8749 23.7961 59.204 23.0011 59.7901 22.415C60.3762 21.8289 61.1712 21.4998 62.0001 21.5M65.1251 24.6242C65.1253 25.4531 64.7962 26.2482 64.2101 26.8344C63.624 27.4206 62.829 27.75 62.0001 27.75" stroke="#111111" stroke-width="1.25" stroke-linecap="round" stroke-linejoin="round"/>
</g>
<g id="Size=24px, Filled=false">
<path id="Vector_4" d="M87 33L106 15M93 31.5337C93.963 31.8498 94.9665 32.0067 95.9749 31.9987C99.9925 32.0702 104.067 29.0854 106.581 26.1607C107.14 25.5055 107.14 24.5105 106.581 23.8553C105.67 22.7992 104.661 21.8426 103.569 21M99 18.2748C98.1914 18.0834 97.3604 17.9911 96.5272 18C92.3963 17.9347 88.1239 20.6817 85.438 23.491C84.854 24.1074 84.854 25.0437 85.438 25.6601C86.2546 26.5102 87.146 27.2926 88.1024 27.9988M92 25C91.9997 23.939 92.4211 22.9215 93.1713 22.1713C93.9215 21.4211 94.939 20.9997 96 21M100 25C100 26.0608 99.579 27.0782 98.8288 27.8284C98.0786 28.5785 97.0611 29 96 29" stroke="#111111" stroke-width="1.5" stroke-linecap="round" stroke-linejoin="round"/>
</g>
<g id="Size=32px, Filled=false">
<path id="Vector_5" d="M123.711 36L149.711 12M132 33.4066C133.238 33.8089 134.529 34.0085 135.825 33.9984C140.991 34.0893 146.229 30.2905 149.462 26.5682C150.18 25.7343 150.18 24.4679 149.462 23.634C148.291 22.2898 146.993 21.0724 145.589 20M140 16.3848C138.961 16.1169 137.892 15.9876 136.821 16C131.51 15.9086 126.017 19.7544 122.563 23.6875C121.813 24.5505 121.813 25.8613 122.563 26.7243C123.613 27.9144 124.759 29.0098 125.989 29.9984M131 25C131 23.6738 131.526 22.4018 132.464 21.4641C133.402 20.5263 134.674 19.9996 136 20M141 24.9987C141 26.325 140.474 27.5971 139.536 28.5351C138.598 29.473 137.326 30 136 30" stroke="#111111" stroke-width="2" stroke-linecap="round" stroke-linejoin="round"/>
</g>
<g id="Size=40px, Filled=false">
<path id="Vector_6" d="M168.638 39L201.138 9M179 35.7582C180.548 36.2611 182.161 36.5107 183.781 36.498C190.238 36.6117 196.786 31.8632 200.827 27.2102C201.725 26.1679 201.725 24.5849 200.827 23.5426C199.363 21.8623 197.741 20.3405 195.986 19M189 14.4809C187.701 14.1461 186.365 13.9845 185.026 14.0001C178.387 13.8858 171.521 18.693 167.204 23.6094C166.266 24.6881 166.266 26.3266 167.204 27.4054C168.517 28.893 169.949 30.2622 171.486 31.4981M177.75 25.25C177.75 23.5923 178.408 22.0023 179.58 20.8301C180.752 19.6579 182.342 18.9996 184 19M190.25 25.2483C190.25 26.9062 189.592 28.4964 188.42 29.6688C187.248 30.8413 185.658 31.5 184 31.5" stroke="#111111" stroke-width="2.5" stroke-linecap="round" stroke-linejoin="round"/>
</g>
<g id="Size=48px, Filled=false">
<path id="Vector_7" d="M221.566 42L260.566 6M234 38.1098C235.858 38.7133 237.793 39.0128 239.738 38.9976C247.486 39.134 255.343 33.4358 260.193 27.8523C261.269 26.6015 261.269 24.7018 260.193 23.4511C258.436 21.4348 256.49 19.6085 254.383 18M246 12.5771C244.441 12.1753 242.838 11.9814 241.231 12.0001C233.264 11.863 225.025 17.6316 219.845 23.5312C218.719 24.8258 218.719 26.7919 219.845 28.0864C221.42 29.8717 223.139 31.5147 224.983 32.9977M232.5 25.5C232.499 23.5107 233.289 21.6028 234.696 20.1961C236.103 18.7895 238.011 17.9995 240 18M247.5 25.498C247.5 27.4875 246.71 29.3956 245.304 30.8026C243.897 32.2096 241.989 33 240 33" stroke="#111111" stroke-width="3" stroke-linecap="round" stroke-linejoin="round"/>
</g>
<g id="Size=12px, Filled=true">
<g id="Vector_8">
<path d="M11.7337 82.6833C11.0874 81.9796 10.3474 81.3666 9.53412 80.8612L11.5802 78.831C11.6261 78.7861 11.662 78.7321 11.6857 78.6726C11.7095 78.6131 11.7205 78.5494 11.7181 78.4854C11.7157 78.4215 11.6999 78.3587 11.6718 78.3011C11.6436 78.2436 11.6038 78.1924 11.5547 78.1509C11.5129 78.1035 11.4614 78.0655 11.4036 78.0395C11.3458 78.0135 11.2831 78 11.2196 78C11.1561 78 11.0934 78.0135 11.0356 78.0395C10.9778 78.0655 10.9263 78.1035 10.8846 78.1509L0.894428 88.0429C0.82338 88.0799 0.76209 88.1329 0.715506 88.1977C0.668923 88.2625 0.638354 88.3373 0.626266 88.416C0.614179 88.4947 0.620913 88.5751 0.645925 88.6507C0.670937 88.7263 0.713525 88.7951 0.770249 88.8513C0.826974 88.9076 0.896244 88.9499 0.972466 88.9747C1.04869 88.9995 1.12972 89.0062 1.20903 88.9942C1.28833 88.9822 1.36368 88.9519 1.42899 88.9057C1.4943 88.8594 1.54774 88.7986 1.58499 88.7281L3.70783 86.6218C4.44924 86.9501 5.25421 87.1129 6.06597 87.0989C8.23996 87.0989 10.4088 85.5763 11.6928 84.1552C11.8825 83.9586 11.9918 83.6991 11.9993 83.4271C12.0069 83.155 11.9122 82.8899 11.7337 82.6833ZM8.21438 84.0638C8.10093 84.4214 7.90219 84.7465 7.63503 85.0116C7.36787 85.2767 7.04019 85.4739 6.6798 85.5864C6.15757 85.7514 5.59207 85.7171 5.09406 85.49C5.07524 85.4817 5.05883 85.4688 5.04636 85.4525C5.03388 85.4362 5.02574 85.4171 5.02268 85.3968C5.01962 85.3766 5.02175 85.3559 5.02886 85.3368C5.03597 85.3176 5.04784 85.3004 5.06337 85.287L7.90235 82.4651C7.91645 82.4497 7.93412 82.438 7.95383 82.4311C7.97353 82.4241 7.99466 82.422 8.01536 82.425C8.03607 82.428 8.05571 82.436 8.07257 82.4483C8.08944 82.4606 8.103 82.4768 8.11207 82.4955C8.34128 82.9875 8.37775 83.5466 8.21438 84.0638Z" fill="#111111"/>
<path d="M3.76434 84.1298C3.78102 84.1147 3.79318 84.0954 3.79949 84.0739C3.80581 84.0524 3.80604 84.0296 3.80015 84.008C3.7424 83.8238 3.71139 83.6324 3.70808 83.4395C3.70605 83.1381 3.76406 82.8392 3.87878 82.5601C3.99349 82.2809 4.16264 82.027 4.37652 81.8129C4.59041 81.5988 4.84481 81.4287 5.12512 81.3124C5.40543 81.1962 5.70612 81.136 6.00995 81.1353C6.21119 81.1366 6.41113 81.1674 6.60332 81.2267C6.62472 81.2321 6.64715 81.2322 6.66859 81.2268C6.69002 81.2215 6.70978 81.211 6.72608 81.1962L7.72356 80.2065C7.73827 80.1902 7.74869 80.1706 7.75387 80.1494C7.75906 80.1282 7.75886 80.106 7.75328 80.0849C7.7477 80.0638 7.73693 80.0443 7.72192 80.0283C7.70691 80.0124 7.68814 80.0003 7.66729 79.9933C7.13149 79.8238 6.57233 79.7382 6.00995 79.7396C3.81038 79.7396 1.61081 81.2622 0.28596 82.6833C0.101922 82.8849 0 83.1472 0 83.4192C0 83.6913 0.101922 83.9536 0.28596 84.1552C0.814413 84.7233 1.4026 85.2338 2.0405 85.6778C2.06429 85.6972 2.09412 85.7078 2.1249 85.7078C2.15568 85.7078 2.18551 85.6972 2.2093 85.6778L3.76434 84.1298Z" fill="#111111"/>
</g>
</g>
<g id="Size=16px, Filled=true">
<g id="Vector_9">
<path d="M39.6449 82.2444C38.7831 81.3061 37.7965 80.4888 36.7122 79.815L39.4403 77.1081C39.5014 77.0481 39.5494 76.9761 39.581 76.8968C39.6126 76.8175 39.6273 76.7325 39.6241 76.6472C39.6209 76.562 39.5999 76.4783 39.5624 76.4015C39.5249 76.3248 39.4717 76.2566 39.4062 76.2013C39.3505 76.138 39.2818 76.0874 39.2048 76.0527C39.1277 76.018 39.0441 76 38.9595 76C38.8748 76 38.7912 76.018 38.7142 76.0527C38.6371 76.0874 38.5684 76.138 38.5127 76.2013L25.1926 89.3906C25.0978 89.4399 25.0161 89.5106 24.954 89.597C24.8919 89.6834 24.8511 89.7831 24.835 89.888C24.8189 89.9929 24.8279 90.1001 24.8612 90.2009C24.8946 90.3018 24.9514 90.3934 25.027 90.4685C25.1026 90.5435 25.195 90.5998 25.2966 90.6329C25.3982 90.666 25.5063 90.6749 25.612 90.6589C25.7178 90.643 25.8182 90.6025 25.9053 90.5409C25.9924 90.4793 26.0637 90.3982 26.1133 90.3042L28.9438 87.4958C29.9323 87.9334 31.0056 88.1506 32.088 88.1319C34.9866 88.1319 37.8784 86.1017 39.5904 84.2069C39.8433 83.9449 39.989 83.5988 39.9991 83.2361C40.0092 82.8734 39.8829 82.5199 39.6449 82.2444ZM34.9525 84.0851C34.8012 84.5619 34.5363 84.9954 34.18 85.3488C33.8238 85.7023 33.3869 85.9652 32.9064 86.1153C32.2101 86.3353 31.4561 86.2894 30.7921 85.9867C30.767 85.9756 30.7451 85.9584 30.7285 85.9367C30.7118 85.9149 30.701 85.8894 30.6969 85.8625C30.6928 85.8355 30.6957 85.8079 30.7051 85.7823C30.7146 85.7567 30.7305 85.7339 30.7512 85.716L34.5365 81.9534C34.5553 81.933 34.5788 81.9174 34.6051 81.9081C34.6314 81.8988 34.6595 81.896 34.6872 81.9C34.7148 81.904 34.741 81.9147 34.7634 81.9311C34.7859 81.9475 34.804 81.9691 34.8161 81.994C35.1217 82.65 35.1703 83.3954 34.9525 84.0851Z" fill="#111111"/>
<path d="M29.0191 84.1731C29.0414 84.153 29.0576 84.1272 29.066 84.0985C29.0744 84.0699 29.0747 84.0395 29.0669 84.0107C28.9899 83.7651 28.9485 83.5099 28.9441 83.2527C28.9414 82.8508 29.0188 82.4523 29.1717 82.0801C29.3246 81.7079 29.5502 81.3694 29.8354 81.0839C30.1205 80.7984 30.4597 80.5716 30.8335 80.4166C31.2072 80.2616 31.6082 80.1813 32.0133 80.1804C32.2816 80.1822 32.5482 80.2232 32.8044 80.3022C32.833 80.3095 32.8629 80.3096 32.8914 80.3025C32.92 80.2954 32.9464 80.2813 32.9681 80.2616L34.2981 78.942C34.3177 78.9203 34.3316 78.8942 34.3385 78.8659C34.3454 78.8376 34.3451 78.808 34.3377 78.7798C34.3303 78.7517 34.3159 78.7258 34.2959 78.7045C34.2759 78.6832 34.2509 78.6671 34.2231 78.6578C33.5087 78.4317 32.7631 78.3176 32.0133 78.3194C29.0805 78.3194 26.1478 80.3496 24.3813 82.2444C24.1359 82.5132 24 82.863 24 83.2257C24 83.5883 24.1359 83.9381 24.3813 84.2069C25.0859 84.9645 25.8701 85.6451 26.7207 86.2371C26.7524 86.2629 26.7922 86.277 26.8332 86.277C26.8742 86.277 26.914 86.2629 26.9457 86.2371L29.0191 84.1731Z" fill="#111111"/>
</g>
</g>
<g id="Size=20px, Filled=true">
<g id="Vector_10">
<path d="M71.5561 81.8055C70.4789 80.6326 69.2456 79.611 67.8902 78.7687L71.3004 75.3851C71.3768 75.3101 71.4367 75.2202 71.4762 75.121C71.5158 75.0218 71.5342 74.9156 71.5301 74.809C71.5261 74.7025 71.4999 74.5979 71.453 74.5019C71.4061 74.4059 71.3396 74.3207 71.2577 74.2516C71.1881 74.1726 71.1023 74.1092 71.006 74.0658C70.9097 74.0224 70.8051 74 70.6993 74C70.5936 74 70.489 74.0224 70.3927 74.0658C70.2964 74.1092 70.2105 74.1726 70.1409 74.2516L53.4907 90.7383C53.3723 90.7999 53.2701 90.8882 53.1925 90.9962C53.1149 91.1042 53.0639 91.2288 53.0438 91.36C53.0236 91.4911 53.0349 91.6251 53.0765 91.7512C53.1182 91.8772 53.1892 91.9918 53.2837 92.0856C53.3783 92.1794 53.4937 92.2498 53.6208 92.2912C53.7478 92.3325 53.8829 92.3437 54.015 92.3237C54.1472 92.3037 54.2728 92.2531 54.3817 92.1761C54.4905 92.0991 54.5796 91.9977 54.6416 91.8802L58.1797 88.3697C59.4154 88.9168 60.757 89.1882 62.1099 89.1649C65.7333 89.1649 69.3481 86.6272 71.4879 84.2586C71.8042 83.9311 71.9863 83.4985 71.9989 83.0451C72.0115 82.5917 71.8537 82.1499 71.5561 81.8055ZM65.6906 84.1064C65.5016 84.7023 65.1703 85.2442 64.7251 85.686C64.2798 86.1278 63.7336 86.4565 63.133 86.6441C62.2626 86.9191 61.3201 86.8618 60.4901 86.4834C60.4587 86.4695 60.4314 86.448 60.4106 86.4208C60.3898 86.3937 60.3762 86.3618 60.3711 86.3281C60.366 86.2944 60.3696 86.2599 60.3814 86.2279C60.3933 86.1959 60.4131 86.1674 60.439 86.145L65.1706 81.4418C65.1941 81.4162 65.2235 81.3967 65.2564 81.3851C65.2892 81.3734 65.3244 81.37 65.3589 81.375C65.3934 81.38 65.4262 81.3933 65.4543 81.4138C65.4824 81.4343 65.505 81.4613 65.5201 81.4925C65.9021 82.3126 65.9629 83.2443 65.6906 84.1064Z" fill="#111111"/>
<path d="M58.2739 84.2163C58.3017 84.1912 58.322 84.159 58.3325 84.1231C58.343 84.0873 58.3434 84.0493 58.3336 84.0133C58.2373 83.7064 58.1857 83.3873 58.1801 83.0659C58.1768 82.5635 58.2734 82.0654 58.4646 81.6001C58.6558 81.1349 58.9377 80.7117 59.2942 80.3549C59.6507 79.998 60.0747 79.7146 60.5419 79.5207C61.009 79.3269 61.5102 79.2266 62.0166 79.2255C62.352 79.2277 62.6852 79.279 63.0055 79.3778C63.0412 79.3868 63.0786 79.3869 63.1143 79.3781C63.15 79.3692 63.183 79.3517 63.2101 79.327L64.8726 77.6775C64.8971 77.6504 64.9145 77.6177 64.9231 77.5823C64.9318 77.547 64.9314 77.51 64.9221 77.4748C64.9128 77.4396 64.8949 77.4072 64.8699 77.3806C64.8449 77.354 64.8136 77.3339 64.7788 77.3222C63.8858 77.0397 62.9539 76.897 62.0166 76.8993C58.3506 76.8993 54.6847 79.437 52.4766 81.8055C52.1699 82.1415 52 82.5787 52 83.0321C52 83.4854 52.1699 83.9226 52.4766 84.2586C53.3574 85.2056 54.3377 86.0563 55.4008 86.7963C55.4405 86.8287 55.4902 86.8463 55.5415 86.8463C55.5928 86.8463 55.6425 86.8287 55.6822 86.7963L58.2739 84.2163Z" fill="#111111"/>
</g>
</g>
<g id="Size=24px, Filled=true">
<g id="Vector_11">
<path d="M107.467 81.3666C106.175 79.9592 104.695 78.7332 103.068 77.7224L107.16 73.6621C107.252 73.5721 107.324 73.4642 107.371 73.3452C107.419 73.2262 107.441 73.0987 107.436 72.9708C107.431 72.8429 107.4 72.7174 107.344 72.6023C107.287 72.4871 107.208 72.3848 107.109 72.3019C107.026 72.2071 106.923 72.1311 106.807 72.079C106.692 72.0269 106.566 72 106.439 72C106.312 72 106.187 72.0269 106.071 72.079C105.956 72.1311 105.853 72.2071 105.769 72.3019L85.7889 92.0859C85.6468 92.1598 85.5242 92.2659 85.431 92.3955C85.3378 92.5251 85.2767 92.6746 85.2525 92.832C85.2284 92.9893 85.2418 93.1501 85.2919 93.3014C85.3419 93.4527 85.427 93.5901 85.5405 93.7027C85.6539 93.8153 85.7925 93.8998 85.9449 93.9494C86.0974 93.999 86.2594 94.0124 86.4181 93.9884C86.5767 93.9644 86.7274 93.9038 86.858 93.8113C86.9886 93.7189 87.0955 93.5973 87.17 93.4563L91.4157 89.2437C92.8985 89.9002 94.5084 90.2259 96.1319 90.1978C100.48 90.1978 104.818 87.1526 107.386 84.3103C107.765 83.9173 107.984 83.3982 107.999 82.8541C108.014 82.31 107.824 81.7798 107.467 81.3666ZM100.429 84.1276C100.202 84.8428 99.8044 85.4931 99.2701 86.0232C98.7357 86.5534 98.0804 86.9478 97.3596 87.1729C96.3151 87.5029 95.1841 87.4341 94.1881 86.98C94.1505 86.9634 94.1177 86.9375 94.0927 86.905C94.0678 86.8724 94.0515 86.8341 94.0454 86.7937C94.0392 86.7532 94.0435 86.7119 94.0577 86.6735C94.0719 86.6351 94.0957 86.6009 94.1267 86.574L99.8047 80.9301C99.8329 80.8994 99.8682 80.8761 99.9077 80.8621C99.9471 80.8481 99.9893 80.844 100.031 80.85C100.072 80.856 100.111 80.872 100.145 80.8966C100.179 80.9212 100.206 80.9536 100.224 80.991C100.683 81.9751 100.755 83.0932 100.429 84.1276Z" fill="#111111"/>
<path d="M91.5287 84.2596C91.562 84.2294 91.5864 84.1908 91.599 84.1478C91.6116 84.1048 91.6121 84.0592 91.6003 84.016C91.4848 83.6476 91.4228 83.2648 91.4162 82.8791C91.4121 82.2762 91.5281 81.6784 91.7576 81.1201C91.987 80.5619 92.3253 80.054 92.753 79.6258C93.1808 79.1976 93.6896 78.8575 94.2502 78.6249C94.8109 78.3923 95.4122 78.2719 96.0199 78.2706C96.4224 78.2733 96.8223 78.3348 97.2066 78.4533C97.2494 78.4642 97.2943 78.4643 97.3372 78.4537C97.38 78.4431 97.4196 78.422 97.4522 78.3924L99.4471 76.413C99.4765 76.3805 99.4974 76.3413 99.5077 76.2988C99.5181 76.2564 99.5177 76.212 99.5066 76.1698C99.4954 76.1275 99.4739 76.0887 99.4438 76.0567C99.4138 76.0247 99.3763 76.0007 99.3346 75.9867C98.263 75.6476 97.1447 75.4764 96.0199 75.4791C91.6208 75.4791 87.2216 78.5244 84.5719 81.3666C84.2038 81.7698 84 82.2945 84 82.8385C84 83.3825 84.2038 83.9071 84.5719 84.3104C85.6288 85.4467 86.8052 86.4676 88.081 87.3556C88.1286 87.3944 88.1882 87.4156 88.2498 87.4156C88.3114 87.4156 88.371 87.3944 88.4186 87.3556L91.5287 84.2596Z" fill="#111111"/>
</g>
</g>
<g id="Size=32px, Filled=true">
<g id="Vector_12">
<path d="M151.29 80.4888C149.566 78.6122 147.593 76.9776 145.424 75.6299L150.881 70.2161C151.003 70.0961 151.099 69.9523 151.162 69.7936C151.225 69.6349 151.255 69.465 151.248 69.2944C151.242 69.1239 151.2 68.9566 151.125 68.8031C151.05 68.6495 150.943 68.5131 150.812 68.4025C150.701 68.2761 150.564 68.1748 150.41 68.1053C150.255 68.0359 150.088 68 149.919 68C149.75 68 149.582 68.0359 149.428 68.1053C149.274 68.1748 149.137 68.2761 149.025 68.4025L122.385 94.7812C122.196 94.8798 122.032 95.0212 121.908 95.194C121.784 95.3668 121.702 95.5661 121.67 95.776C121.638 95.9858 121.656 96.2002 121.722 96.4019C121.789 96.6035 121.903 96.7868 122.054 96.9369C122.205 97.087 122.39 97.1997 122.593 97.2659C122.796 97.332 123.013 97.3499 123.224 97.3179C123.436 97.2859 123.636 97.205 123.811 97.0818C123.985 96.9585 124.127 96.7963 124.227 96.6084L129.888 90.9916C131.865 91.8669 134.011 92.3012 136.176 92.2638C141.973 92.2638 147.757 88.2034 151.181 84.4138C151.687 83.8897 151.978 83.1976 151.998 82.4722C152.018 81.7467 151.766 81.0398 151.29 80.4888ZM141.905 84.1702C141.602 85.1237 141.073 85.9907 140.36 86.6976C139.648 87.4045 138.774 87.9303 137.813 88.2305C136.42 88.6705 134.912 88.5788 133.584 87.9734C133.534 87.9511 133.49 87.9167 133.457 87.8733C133.424 87.8299 133.402 87.7789 133.394 87.7249C133.386 87.671 133.391 87.6159 133.41 87.5647C133.429 87.5135 133.461 87.4678 133.502 87.432L141.073 79.9068C141.111 79.8659 141.158 79.8348 141.21 79.8161C141.263 79.7975 141.319 79.792 141.374 79.8C141.43 79.808 141.482 79.8293 141.527 79.8621C141.572 79.8949 141.608 79.9381 141.632 79.988C142.243 81.3001 142.341 82.7909 141.905 84.1702Z" fill="#111111"/>
<path d="M130.038 84.3461C130.083 84.3059 130.115 84.2543 130.132 84.197C130.149 84.1397 130.149 84.0789 130.134 84.0213C129.98 83.5302 129.897 83.0197 129.888 82.5055C129.883 81.7016 130.038 80.9046 130.343 80.1602C130.649 79.4158 131.1 78.7387 131.671 78.1678C132.241 77.5968 132.919 77.1433 133.667 76.8332C134.414 76.5231 135.216 76.3626 136.027 76.3608C136.563 76.3644 137.096 76.4464 137.609 76.6044C137.666 76.6189 137.726 76.6191 137.783 76.6049C137.84 76.5907 137.893 76.5627 137.936 76.5232L140.596 73.884C140.635 73.8407 140.663 73.7884 140.677 73.7317C140.691 73.6751 140.69 73.616 140.675 73.5597C140.661 73.5033 140.632 73.4515 140.592 73.4089C140.552 73.3663 140.502 73.3342 140.446 73.3155C139.017 72.8635 137.526 72.6352 136.027 72.6388C130.161 72.6388 124.296 76.6992 120.763 80.4888C120.272 81.0265 120 81.7259 120 82.4513C120 83.1767 120.272 83.8762 120.763 84.4138C122.172 85.9289 123.74 87.2901 125.441 88.4742C125.505 88.5258 125.584 88.5541 125.666 88.5541C125.748 88.5541 125.828 88.5258 125.891 88.4742L130.038 84.3461Z" fill="#111111"/>
</g>
</g>
<g id="Size=40px, Filled=true">
<g id="Vector_13">
<path d="M203.112 79.611C200.958 77.2653 198.491 75.2219 195.78 73.5374L202.601 66.7702C202.754 66.6202 202.873 66.4403 202.952 66.242C203.032 66.0437 203.068 65.8312 203.06 65.6181C203.052 65.4049 203 65.1957 202.906 65.0038C202.812 64.8119 202.679 64.6414 202.515 64.5031C202.376 64.3451 202.205 64.2185 202.012 64.1317C201.819 64.0449 201.61 64 201.399 64C201.187 64 200.978 64.0449 200.785 64.1317C200.593 64.2185 200.421 64.3451 200.282 64.5031L166.981 97.4765C166.745 97.5997 166.54 97.7764 166.385 97.9924C166.23 98.2084 166.128 98.4577 166.088 98.7199C166.047 98.9822 166.07 99.2502 166.153 99.5023C166.236 99.7544 166.378 99.9835 166.567 100.171C166.757 100.359 166.987 100.5 167.242 100.582C167.496 100.665 167.766 100.687 168.03 100.647C168.294 100.607 168.546 100.506 168.763 100.352C168.981 100.198 169.159 99.9954 169.283 99.7604L176.359 92.7394C178.831 93.8336 181.514 94.3765 184.22 94.3297C191.467 94.3297 198.696 89.2543 202.976 84.5172C203.608 83.8621 203.973 82.997 203.998 82.0902C204.023 81.1834 203.707 80.2997 203.112 79.611ZM191.381 84.2127C191.003 85.4046 190.341 86.4884 189.45 87.372C188.56 88.2556 187.467 88.9129 186.266 89.2881C184.525 89.8381 182.64 89.7235 180.98 88.9667C180.917 88.9389 180.863 88.8959 180.821 88.8416C180.78 88.7874 180.752 88.7236 180.742 88.6561C180.732 88.5887 180.739 88.5198 180.763 88.4558C180.787 88.3918 180.826 88.3348 180.878 88.29L190.341 78.8835C190.388 78.8324 190.447 78.7935 190.513 78.7702C190.578 78.7469 190.649 78.74 190.718 78.75C190.787 78.76 190.852 78.7867 190.909 78.8277C190.965 78.8686 191.01 78.9227 191.04 78.985C191.804 80.6251 191.926 82.4886 191.381 84.2127Z" fill="#111111"/>
<path d="M176.548 84.4327C176.603 84.3824 176.644 84.3179 176.665 84.2463C176.686 84.1747 176.687 84.0987 176.667 84.0266C176.475 83.4127 176.371 82.7747 176.36 82.1318C176.354 81.127 176.547 80.1307 176.929 79.2002C177.312 78.2698 177.875 77.4234 178.588 76.7097C179.301 75.996 180.149 75.4291 181.084 75.0415C182.018 74.6539 183.02 74.4532 184.033 74.451C184.704 74.4554 185.37 74.5581 186.011 74.7555C186.082 74.7737 186.157 74.7739 186.229 74.7562C186.3 74.7384 186.366 74.7033 186.42 74.654L189.745 71.355C189.794 71.3008 189.829 71.2354 189.846 71.1647C189.864 71.0939 189.863 71.02 189.844 70.9496C189.826 70.8792 189.79 70.8144 189.74 70.7612C189.69 70.7079 189.627 70.6678 189.558 70.6444C187.772 70.0794 185.908 69.794 184.033 69.7985C176.701 69.7985 169.369 74.874 164.953 79.611C164.34 80.2831 164 81.1574 164 82.0641C164 82.9709 164.34 83.8452 164.953 84.5173C166.715 86.4112 168.675 88.1126 170.802 89.5927C170.881 89.6573 170.98 89.6926 171.083 89.6926C171.186 89.6926 171.285 89.6573 171.364 89.5927L176.548 84.4327Z" fill="#111111"/>
</g>
</g>
<g id="Size=48px, Filled=true">
<g id="Vector_14">
<path d="M262.935 78.7332C260.349 75.9183 257.389 73.4663 254.136 71.4449L262.321 63.3242C262.504 63.1442 262.648 62.9284 262.743 62.6904C262.838 62.4524 262.882 62.1974 262.872 61.9417C262.863 61.6859 262.8 61.4349 262.687 61.2046C262.575 60.9743 262.415 60.7697 262.219 60.6038C262.052 60.4141 261.845 60.2621 261.614 60.158C261.383 60.0539 261.132 60 260.878 60C260.625 60 260.374 60.0539 260.142 60.158C259.911 60.2621 259.705 60.4141 259.538 60.6038L219.578 100.172C219.294 100.32 219.048 100.532 218.862 100.791C218.676 101.05 218.553 101.349 218.505 101.664C218.457 101.979 218.484 102.3 218.584 102.603C218.684 102.905 218.854 103.18 219.081 103.405C219.308 103.631 219.585 103.8 219.89 103.899C220.195 103.998 220.519 104.025 220.836 103.977C221.153 103.929 221.455 103.808 221.716 103.623C221.977 103.438 222.191 103.195 222.34 102.913L230.831 94.4873C233.797 95.8003 237.017 96.4518 240.264 96.3957C248.96 96.3957 257.635 90.3052 262.771 84.6207C263.53 83.8346 263.967 82.7964 263.997 81.7083C264.028 80.6201 263.649 79.5596 262.935 78.7332ZM248.858 84.2553C248.404 85.6856 247.609 86.9861 246.54 88.0464C245.471 89.1068 244.161 89.8955 242.719 90.3458C240.63 91.0058 238.368 90.8682 236.376 89.96C236.301 89.9267 236.235 89.8751 236.185 89.81C236.136 89.7448 236.103 89.6683 236.091 89.5874C236.078 89.5065 236.087 89.4238 236.115 89.347C236.144 89.2702 236.191 89.2018 236.253 89.148L247.609 77.8602C247.666 77.7989 247.736 77.7522 247.815 77.7242C247.894 77.6963 247.979 77.688 248.061 77.7C248.144 77.712 248.223 77.744 248.29 77.7932C248.358 77.8424 248.412 77.9072 248.448 77.982C249.365 79.9501 249.511 82.1863 248.858 84.2553Z" fill="#111111"/>
<path d="M231.057 84.5192C231.124 84.4589 231.173 84.3815 231.198 84.2956C231.223 84.2096 231.224 84.1184 231.201 84.032C230.97 83.2952 230.846 82.5296 230.832 81.7582C230.824 80.5524 231.056 79.3569 231.515 78.2403C231.974 77.1237 232.651 76.1081 233.506 75.2516C234.362 74.3952 235.379 73.7149 236.5 73.2498C237.622 72.7847 238.824 72.5438 240.04 72.5412C240.845 72.5465 241.645 72.6697 242.413 72.9066C242.499 72.9284 242.589 72.9287 242.674 72.9074C242.76 72.8861 242.839 72.844 242.904 72.7848L246.894 68.826C246.953 68.761 246.995 68.6825 247.015 68.5976C247.036 68.5127 247.035 68.424 247.013 68.3395C246.991 68.255 246.948 68.1773 246.888 68.1134C246.828 68.0495 246.753 68.0013 246.669 67.9733C244.526 67.2952 242.289 66.9528 240.04 66.9582C231.242 66.9582 222.443 73.0487 217.144 78.7332C216.408 79.5397 216 80.5889 216 81.677C216 82.765 216.408 83.8143 217.144 84.6207C219.258 86.8934 221.61 88.9352 224.162 90.7112C224.257 90.7888 224.376 90.8311 224.5 90.8311C224.623 90.8311 224.742 90.7888 224.837 90.7112L231.057 84.5192Z" fill="#111111"/>
</g>
</g>
</g>
</g>
<defs>
<clipPath id="clip0_1107_687">
<rect width="264" height="108" rx="5" fill="white"/>
</clipPath>
</defs>
</svg>
