<svg width="264" height="108" viewBox="0 0 264 108" fill="none" xmlns="http://www.w3.org/2000/svg">
<g id="View (show)">
<g clip-path="url(#clip0_1107_686)">
<g id="Size=12px, Filled=false">
<g id="Vector">
<path fill-rule="evenodd" clip-rule="evenodd" d="M5.9993 21.0005C4.11814 20.9703 2.17259 22.2224 0.949438 23.5046C0.683521 23.7858 0.683521 24.2129 0.949438 24.494C2.14599 25.7492 4.08594 27.0301 5.9993 26.9995C7.91266 27.0301 9.85308 25.7492 11.0506 24.494C11.3165 24.2129 11.3165 23.7858 11.0506 23.5046C9.82601 22.2224 7.88046 20.9703 5.9993 21.0005Z" stroke="#111111" stroke-width="0.75" stroke-linecap="round" stroke-linejoin="round"/>
<path fill-rule="evenodd" clip-rule="evenodd" d="M7.87491 24C7.87464 25.0355 7.03505 25.8747 5.99958 25.8745C4.96411 25.8743 4.12482 25.0348 4.12491 23.9993C4.12501 22.9639 4.96444 22.1245 5.99991 22.1245C6.49732 22.1244 6.97439 22.3219 7.32606 22.6737C7.67774 23.0255 7.87518 23.5026 7.87491 24Z" stroke="#111111" stroke-width="0.75" stroke-linecap="round" stroke-linejoin="round"/>
</g>
</g>
<g id="Size=16px, Filled=false">
<g id="Vector_2">
<path fill-rule="evenodd" clip-rule="evenodd" d="M31.9991 20.0007C29.4909 19.9604 26.8968 21.6298 25.2659 23.3395C24.9114 23.7144 24.9114 24.2838 25.2659 24.6587C26.8613 26.3322 29.4479 28.0402 31.9991 27.9993C34.5502 28.0402 37.1374 26.3322 38.7341 24.6587C39.0886 24.2838 39.0886 23.7144 38.7341 23.3395C37.1014 21.6298 34.5073 19.9604 31.9991 20.0007Z" stroke="#111111" stroke-linecap="round" stroke-linejoin="round"/>
<path fill-rule="evenodd" clip-rule="evenodd" d="M34.4999 24C34.4995 25.3806 33.3801 26.4996 31.9994 26.4993C30.6188 26.4991 29.4998 25.3797 29.4999 23.9991C29.5 22.6185 30.6193 21.4993 31.9999 21.4993C32.6631 21.4992 33.2992 21.7626 33.7681 22.2316C34.237 22.7006 34.5002 23.3368 34.4999 24Z" stroke="#111111" stroke-linecap="round" stroke-linejoin="round"/>
</g>
</g>
<g id="Size=20px, Filled=false">
<g id="Vector_3">
<path fill-rule="evenodd" clip-rule="evenodd" d="M61.9991 19.0009C58.8638 18.9505 55.6212 21.0373 53.5826 23.1744C53.1394 23.643 53.1394 24.3548 53.5826 24.8234C55.5769 26.9153 58.8101 29.0502 61.9991 28.9991C65.188 29.0502 68.422 26.9153 70.4178 24.8234C70.861 24.3548 70.861 23.643 70.4178 23.1744C68.3769 21.0373 65.1343 18.9505 61.9991 19.0009Z" stroke="#111111" stroke-width="1.25" stroke-linecap="round" stroke-linejoin="round"/>
<path fill-rule="evenodd" clip-rule="evenodd" d="M65.1251 24C65.1246 25.7258 63.7253 27.1245 61.9995 27.1242C60.2738 27.1239 58.8749 25.7247 58.8751 23.9989C58.8753 22.2731 60.2743 20.8742 62.0001 20.8742C62.8291 20.8739 63.6242 21.2032 64.2103 21.7895C64.7965 22.3758 65.1255 23.171 65.1251 24Z" stroke="#111111" stroke-width="1.25" stroke-linecap="round" stroke-linejoin="round"/>
</g>
</g>
<g id="Size=24px, Filled=false">
<g id="Vector_4">
<path fill-rule="evenodd" clip-rule="evenodd" d="M95.9985 17.0013C92.0571 16.9307 87.9807 19.8522 85.4179 22.8442C84.8607 23.5002 84.8607 24.4967 85.4179 25.1527C87.9249 28.0814 91.9896 31.0703 95.9985 30.9987C100.007 31.0703 104.073 28.0814 106.582 25.1527C107.139 24.4967 107.139 23.5002 106.582 22.8442C104.016 19.8522 99.94 16.9307 95.9985 17.0013Z" stroke="#111111" stroke-width="1.5" stroke-linecap="round" stroke-linejoin="round"/>
<path fill-rule="evenodd" clip-rule="evenodd" d="M100 24.0011C99.9994 26.2101 98.2083 28.0004 95.9993 28C93.7903 27.9996 91.9998 26.2086 92 23.9996C92.0002 21.7906 93.791 20 96 20C97.0611 19.9997 98.0789 20.4212 98.8291 21.1716C99.5794 21.9221 100.001 22.9399 100 24.0011Z" stroke="#111111" stroke-width="1.5" stroke-linecap="round" stroke-linejoin="round"/>
</g>
</g>
<g id="Size=32px, Filled=false">
<g id="Vector_5">
<path fill-rule="evenodd" clip-rule="evenodd" d="M135.998 16.0014C130.982 15.9208 125.794 19.2596 122.532 22.679C121.823 23.4288 121.823 24.5676 122.532 25.3174C125.723 28.6645 130.896 32.0803 135.998 31.9986C141.101 32.0803 146.275 28.6645 149.468 25.3174C150.178 24.5676 150.178 23.4288 149.468 22.679C146.203 19.2596 141.015 15.9208 135.998 16.0014Z" stroke="#111111" stroke-width="2" stroke-linecap="round" stroke-linejoin="round"/>
<path fill-rule="evenodd" clip-rule="evenodd" d="M141 24C140.999 26.7613 138.76 28.9992 135.999 28.9987C133.238 28.9982 131 26.7595 131 23.9982C131 21.237 133.239 18.9987 136 18.9987C137.326 18.9983 138.599 19.5252 139.536 20.4632C140.474 21.4013 141.001 22.6736 141 24Z" stroke="#111111" stroke-width="2" stroke-linecap="round" stroke-linejoin="round"/>
</g>
</g>
<g id="Size=40px, Filled=false">
<g id="Vector_6">
<path fill-rule="evenodd" clip-rule="evenodd" d="M183.998 14.0018C177.727 13.901 171.242 18.0746 167.165 22.3488C166.279 23.286 166.279 24.7095 167.165 25.6467C171.154 29.8306 177.62 34.1004 183.998 33.9982C190.376 34.1004 196.844 29.8306 200.835 25.6467C201.722 24.7095 201.722 23.286 200.835 22.3488C196.754 18.0746 190.268 13.901 183.998 14.0018Z" stroke="#111111" stroke-width="2.5" stroke-linecap="round" stroke-linejoin="round"/>
<path fill-rule="evenodd" clip-rule="evenodd" d="M190.25 24C190.249 27.4516 187.45 30.2489 183.999 30.2483C180.547 30.2477 177.75 27.4493 177.75 23.9978C177.75 20.5462 180.548 17.7483 184 17.7483C185.658 17.7479 187.248 18.4065 188.42 19.579C189.593 20.7516 190.251 22.342 190.25 24Z" stroke="#111111" stroke-width="2.5" stroke-linecap="round" stroke-linejoin="round"/>
</g>
</g>
<g id="Size=48px, Filled=false">
<g id="Vector_7">
<path fill-rule="evenodd" clip-rule="evenodd" d="M239.997 12.0021C232.473 11.8813 224.691 16.8895 219.798 22.0186C218.734 23.1432 218.734 24.8514 219.798 25.9761C224.584 30.9967 232.344 36.1205 239.997 35.9978C247.651 36.1205 255.413 30.9967 260.202 25.9761C261.266 24.8514 261.266 23.1432 260.202 22.0186C255.304 16.8895 247.522 11.8813 239.997 12.0021Z" stroke="#111111" stroke-width="3" stroke-linecap="round" stroke-linejoin="round"/>
<path fill-rule="evenodd" clip-rule="evenodd" d="M247.5 24C247.499 28.1419 244.14 31.4987 239.999 31.498C235.857 31.4973 232.5 28.1392 232.5 23.9973C232.5 19.8555 235.858 16.498 240 16.498C241.99 16.4975 243.898 17.2878 245.304 18.6948C246.711 20.1019 247.501 22.0104 247.5 24Z" stroke="#111111" stroke-width="3" stroke-linecap="round" stroke-linejoin="round"/>
</g>
</g>
<g id="Size=12px, Filled=true" clip-path="url(#clip1_1107_686)">
<g id="Vector_8">
<path d="M11.5465 82.83C11.5015 82.77 9.10086 80 6 80C3.99945 80 1.9989 81.11 0.453472 82.83C0.161767 83.1489 0 83.5654 0 83.9975C0 84.4296 0.161767 84.8461 0.453472 85.165C2.68409 87.625 4.8947 88 6 88C7.10531 88 9.33592 87.605 11.5465 85.165C11.8382 84.8461 12 84.4296 12 83.9975C12 83.5654 11.8382 83.1489 11.5465 82.83ZM10.8063 84.5C10.7563 84.56 8.60572 87.065 6 87C3.53432 86.94 1.73883 85.1 1.18867 84.5C1.06356 84.3635 0.994148 84.1851 0.994148 84C0.994148 83.8149 1.06356 83.6365 1.18867 83.5C2.374 82.2 4.16449 80.96 6 81C8.21561 80.95 10.2112 82.85 10.8063 83.5C10.9325 83.6359 11.0027 83.8145 11.0027 84C11.0027 84.1855 10.9325 84.3641 10.8063 84.5Z" fill="#111111"/>
<path d="M6 82H5.805C5.78374 82.0021 5.76338 82.0097 5.74587 82.022C5.72837 82.0342 5.71429 82.0508 5.705 82.07C5.69403 82.089 5.68825 82.1106 5.68825 82.1325C5.68825 82.1544 5.69403 82.176 5.705 82.195C5.80539 82.3455 5.86308 82.5203 5.87195 82.701C5.88081 82.8816 5.84052 83.0613 5.75535 83.2209C5.67018 83.3805 5.54332 83.5139 5.3883 83.6071C5.23327 83.7003 5.05587 83.7497 4.875 83.75C4.64711 83.7484 4.42661 83.669 4.25 83.525C4.23176 83.5145 4.21106 83.5089 4.19 83.5089C4.16894 83.5089 4.14824 83.5145 4.13 83.525C4.10965 83.5311 4.0914 83.5428 4.07728 83.5587C4.06316 83.5746 4.05371 83.5941 4.05 83.615C4.01946 83.7411 4.0027 83.8702 4 84C4 84.3956 4.1173 84.7822 4.33706 85.1111C4.55682 85.44 4.86918 85.6964 5.23463 85.8478C5.60009 85.9991 6.00222 86.0387 6.39018 85.9616C6.77814 85.8844 7.13451 85.6939 7.41421 85.4142C7.69392 85.1345 7.8844 84.7781 7.96157 84.3902C8.03874 84.0022 7.99913 83.6001 7.84776 83.2346C7.69638 82.8692 7.44004 82.5568 7.11114 82.3371C6.78224 82.1173 6.39556 82 6 82Z" fill="#111111"/>
</g>
</g>
<g id="Size=16px, Filled=true" clip-path="url(#clip2_1107_686)">
<g id="Vector_9">
<path d="M39.3954 82.44C39.3354 82.36 36.1345 78.6667 32 78.6667C29.3326 78.6667 26.6652 80.1467 24.6046 82.44C24.2157 82.8652 24 83.4205 24 83.9967C24 84.5729 24.2157 85.1282 24.6046 85.5534C27.5788 88.8334 30.5263 89.3334 32 89.3334C33.4737 89.3334 36.4479 88.8067 39.3954 85.5534C39.7843 85.1282 40 84.5729 40 83.9967C40 83.4205 39.7843 82.8652 39.3954 82.44ZM38.4084 84.6667C38.3417 84.7467 35.4743 88.0867 32 88C28.7124 87.92 26.3184 85.4667 25.5849 84.6667C25.4181 84.4847 25.3255 84.2469 25.3255 84C25.3255 83.7532 25.4181 83.5153 25.5849 83.3334C27.1653 81.6 29.5527 79.9467 32 80C34.9541 79.9334 37.6149 82.4667 38.4084 83.3334C38.5767 83.5146 38.6702 83.7527 38.6702 84C38.6702 84.2473 38.5767 84.4854 38.4084 84.6667Z" fill="#111111"/>
<path d="M32 81.3334H31.74C31.7117 81.3362 31.6845 81.3463 31.6612 81.3626C31.6378 81.379 31.6191 81.401 31.6067 81.4267C31.592 81.452 31.5843 81.4808 31.5843 81.51C31.5843 81.5393 31.592 81.568 31.6067 81.5934C31.7405 81.794 31.8174 82.0271 31.8293 82.268C31.8411 82.5089 31.7874 82.7484 31.6738 82.9612C31.5602 83.174 31.3911 83.3519 31.1844 83.4762C30.9777 83.6004 30.7412 83.6662 30.5 83.6667C30.1962 83.6646 29.9021 83.5587 29.6667 83.3667C29.6423 83.3526 29.6148 83.3453 29.5867 83.3453C29.5586 83.3453 29.531 83.3526 29.5067 83.3667C29.4795 83.3749 29.4552 83.3904 29.4364 83.4116C29.4175 83.4328 29.405 83.4588 29.4 83.4867C29.3593 83.6549 29.3369 83.827 29.3333 84C29.3333 84.5274 29.4897 85.043 29.7827 85.4815C30.0758 85.9201 30.4922 86.2619 30.9795 86.4637C31.4668 86.6655 32.003 86.7183 32.5202 86.6154C33.0375 86.5126 33.5127 86.2586 33.8856 85.8856C34.2586 85.5127 34.5125 85.0375 34.6154 84.5203C34.7183 84.003 34.6655 83.4668 34.4637 82.9795C34.2618 82.4923 33.9201 82.0758 33.4815 81.7828C33.043 81.4898 32.5274 81.3334 32 81.3334Z" fill="#111111"/>
</g>
</g>
<g id="Size=20px, Filled=true" clip-path="url(#clip3_1107_686)">
<g id="Vector_10">
<path d="M71.2442 82.05C71.1692 81.95 67.1681 77.3333 62 77.3333C58.6657 77.3333 55.3315 79.1833 52.7558 82.05C52.2696 82.5815 52 83.2756 52 83.9958C52 84.716 52.2696 85.4102 52.7558 85.9416C56.4735 90.0416 60.1578 90.6666 62 90.6666C63.8422 90.6666 67.5599 90.0083 71.2442 85.9416C71.7304 85.4102 72 84.716 72 83.9958C72 83.2756 71.7304 82.5815 71.2442 82.05ZM70.0105 84.8333C69.9272 84.9333 66.3429 89.1083 62 89C57.8905 88.9 54.898 85.8333 53.9811 84.8333C53.7726 84.6059 53.6569 84.3085 53.6569 84C53.6569 83.6914 53.7726 83.3941 53.9811 83.1666C55.9567 81 58.9408 78.9333 62 79C65.6927 78.9166 69.0186 82.0833 70.0105 83.1666C70.2209 83.3932 70.3378 83.6909 70.3378 84C70.3378 84.3091 70.2209 84.6068 70.0105 84.8333Z" fill="#111111"/>
<path d="M62 80.6666H61.675C61.6396 80.6702 61.6056 80.6828 61.5765 80.7033C61.5473 80.7237 61.5238 80.7512 61.5083 80.7833C61.49 80.815 61.4804 80.8509 61.4804 80.8875C61.4804 80.9241 61.49 80.96 61.5083 80.9916C61.6756 81.2424 61.7718 81.5339 61.7866 81.835C61.8014 82.136 61.7342 82.4355 61.5922 82.7015C61.4503 82.9674 61.2389 83.1899 60.9805 83.3452C60.7221 83.5004 60.4265 83.5828 60.125 83.5833C59.7452 83.5807 59.3777 83.4484 59.0833 83.2083C59.0529 83.1908 59.0184 83.1815 58.9833 83.1815C58.9482 83.1815 58.9137 83.1908 58.8833 83.2083C58.8494 83.2186 58.819 83.238 58.7955 83.2645C58.7719 83.2909 58.7562 83.3234 58.75 83.3583C58.6991 83.5686 58.6712 83.7837 58.6667 84C58.6667 84.6593 58.8622 85.3037 59.2284 85.8519C59.5947 86.4 60.1153 86.8273 60.7244 87.0796C61.3335 87.3319 62.0037 87.3979 62.6503 87.2693C63.2969 87.1406 63.8908 86.8232 64.357 86.357C64.8232 85.8908 65.1407 85.2969 65.2693 84.6503C65.3979 84.0037 65.3319 83.3335 65.0796 82.7244C64.8273 82.1153 64.4001 81.5947 63.8519 81.2284C63.3037 80.8621 62.6593 80.6666 62 80.6666Z" fill="#111111"/>
</g>
</g>
<g id="Size=24px, Filled=true" clip-path="url(#clip4_1107_686)">
<g id="Vector_11">
<path d="M107.093 81.66C107.003 81.54 102.202 76 96 76C91.9989 76 87.9978 78.22 84.9069 81.66C84.3235 82.2978 84 83.1307 84 83.995C84 84.8593 84.3235 85.6922 84.9069 86.33C89.3682 91.25 93.7894 92 96 92C98.2106 92 102.672 91.21 107.093 86.33C107.676 85.6922 108 84.8593 108 83.995C108 83.1307 107.676 82.2978 107.093 81.66ZM105.613 85C105.513 85.12 101.211 90.13 96 90C91.0686 89.88 87.4777 86.2 86.3773 85C86.1271 84.7271 85.9883 84.3702 85.9883 84C85.9883 83.6298 86.1271 83.2729 86.3773 83C88.748 80.4 92.329 77.92 96 78C100.431 77.9 104.422 81.7 105.613 83C105.865 83.2719 106.005 83.6291 106.005 84C106.005 84.3709 105.865 84.7281 105.613 85Z" fill="#111111"/>
<path d="M96 80H95.61C95.5675 80.0043 95.5268 80.0194 95.4917 80.0439C95.4567 80.0684 95.4286 80.1015 95.41 80.14C95.3881 80.178 95.3765 80.2211 95.3765 80.265C95.3765 80.3089 95.3881 80.352 95.41 80.39C95.6108 80.6909 95.7262 81.0407 95.7439 81.402C95.7616 81.7633 95.681 82.1226 95.5107 82.4418C95.3404 82.7609 95.0866 83.0279 94.7766 83.2142C94.4665 83.4006 94.1117 83.4993 93.75 83.5C93.2942 83.4968 92.8532 83.338 92.5 83.05C92.4635 83.0289 92.4221 83.0178 92.38 83.0178C92.3379 83.0178 92.2965 83.0289 92.26 83.05C92.2193 83.0623 92.1828 83.0856 92.1546 83.1174C92.1263 83.1492 92.1074 83.1881 92.1 83.23C92.0389 83.4823 92.0054 83.7405 92 84C92 84.7911 92.2346 85.5645 92.6741 86.2223C93.1136 86.8801 93.7384 87.3928 94.4693 87.6955C95.2002 87.9983 96.0044 88.0775 96.7804 87.9231C97.5563 87.7688 98.269 87.3878 98.8284 86.8284C99.3878 86.269 99.7688 85.5563 99.9231 84.7804C100.077 84.0044 99.9983 83.2002 99.6955 82.4693C99.3928 81.7384 98.8801 81.1136 98.2223 80.6741C97.5645 80.2346 96.7911 80 96 80Z" fill="#111111"/>
</g>
</g>
<g id="Size=32px, Filled=true" clip-path="url(#clip5_1107_686)">
<g id="Vector_12">
<path d="M150.791 80.88C150.671 80.72 144.269 73.3333 136 73.3333C130.665 73.3333 125.33 76.2933 121.209 80.88C120.431 81.7304 120 82.841 120 83.9933C120 85.1457 120.431 86.2563 121.209 87.1066C127.158 93.6666 133.053 94.6666 136 94.6666C138.947 94.6666 144.896 93.6133 150.791 87.1066C151.569 86.2563 152 85.1457 152 83.9933C152 82.841 151.569 81.7304 150.791 80.88ZM148.817 85.3333C148.683 85.4933 142.949 92.1733 136 92C129.425 91.84 124.637 86.9333 123.17 85.3333C122.836 84.9694 122.651 84.4936 122.651 84C122.651 83.5063 122.836 83.0306 123.17 82.6666C126.331 79.2 131.105 75.8933 136 76C141.908 75.8666 147.23 80.9333 148.817 82.6666C149.153 83.0291 149.34 83.5054 149.34 84C149.34 84.4945 149.153 84.9708 148.817 85.3333Z" fill="#111111"/>
<path d="M136 78.6666H135.48C135.423 78.6724 135.369 78.6925 135.322 78.7252C135.276 78.7579 135.238 78.802 135.213 78.8533C135.184 78.904 135.169 78.9615 135.169 79.02C135.169 79.0785 135.184 79.136 135.213 79.1866C135.481 79.5879 135.635 80.0542 135.659 80.5359C135.682 81.0177 135.575 81.4968 135.348 81.9223C135.12 82.3478 134.782 82.7038 134.369 82.9523C133.955 83.2007 133.482 83.3324 133 83.3333C132.392 83.3291 131.804 83.1174 131.333 82.7333C131.285 82.7052 131.23 82.6904 131.173 82.6904C131.117 82.6904 131.062 82.7052 131.013 82.7333C130.959 82.7497 130.91 82.7808 130.873 82.8232C130.835 82.8655 130.81 82.9175 130.8 82.9733C130.719 83.3097 130.674 83.6539 130.667 84C130.667 85.0548 130.979 86.086 131.565 86.963C132.152 87.8401 132.984 88.5237 133.959 88.9273C134.934 89.331 136.006 89.4366 137.04 89.2308C138.075 89.025 139.025 88.5171 139.771 87.7712C140.517 87.0253 141.025 86.075 141.231 85.0405C141.437 84.0059 141.331 82.9335 140.927 81.959C140.524 80.9845 139.84 80.1515 138.963 79.5655C138.086 78.9794 137.055 78.6666 136 78.6666Z" fill="#111111"/>
</g>
</g>
<g id="Size=40px, Filled=true" clip-path="url(#clip6_1107_686)">
<g id="Vector_13">
<path d="M202.488 80.1C202.338 79.9 194.336 70.6667 184 70.6667C177.331 70.6667 170.663 74.3667 165.512 80.1C164.539 81.163 164 82.5513 164 83.9917C164 85.4321 164.539 86.8204 165.512 87.8834C172.947 96.0834 180.316 97.3334 184 97.3334C187.684 97.3334 195.12 96.0167 202.488 87.8834C203.461 86.8204 204 85.4321 204 83.9917C204 82.5513 203.461 81.163 202.488 80.1ZM200.021 85.6667C199.854 85.8667 192.686 94.2167 184 94C175.781 93.8 169.796 87.6667 167.962 85.6667C167.545 85.2118 167.314 84.6171 167.314 84C167.314 83.3829 167.545 82.7883 167.962 82.3334C171.913 78 177.882 73.8667 184 74C191.385 73.8334 198.037 80.1667 200.021 82.3334C200.442 82.7865 200.676 83.3818 200.676 84C200.676 84.6182 200.442 85.2136 200.021 85.6667Z" fill="#111111"/>
<path d="M184 77.3334H183.35C183.279 77.3405 183.211 77.3657 183.153 77.4066C183.095 77.4474 183.048 77.5025 183.017 77.5667C182.98 77.63 182.961 77.7019 182.961 77.775C182.961 77.8482 182.98 77.92 183.017 77.9834C183.351 78.4849 183.544 79.0678 183.573 79.67C183.603 80.2722 183.468 80.8711 183.184 81.403C182.901 81.9349 182.478 82.3798 181.961 82.6904C181.444 83.001 180.853 83.1656 180.25 83.1667C179.49 83.1614 178.755 82.8968 178.167 82.4167C178.106 82.3816 178.037 82.3631 177.967 82.3631C177.896 82.3631 177.827 82.3816 177.767 82.4167C177.699 82.4372 177.638 82.476 177.591 82.529C177.544 82.582 177.512 82.6469 177.5 82.7167C177.398 83.1372 177.342 83.5675 177.333 84C177.333 85.3186 177.724 86.6075 178.457 87.7038C179.189 88.8001 180.231 89.6546 181.449 90.1592C182.667 90.6638 184.007 90.7958 185.301 90.5386C186.594 90.2814 187.782 89.6464 188.714 88.7141C189.646 87.7817 190.281 86.5938 190.539 85.3006C190.796 84.0074 190.664 82.667 190.159 81.4488C189.655 80.2306 188.8 79.1894 187.704 78.4569C186.607 77.7243 185.319 77.3334 184 77.3334Z" fill="#111111"/>
</g>
</g>
<g id="Size=48px, Filled=true" clip-path="url(#clip7_1107_686)">
<g id="Vector_14">
<path d="M262.186 79.32C262.006 79.08 252.403 68 240 68C231.998 68 223.996 72.44 217.814 79.32C216.647 80.5956 216 82.2615 216 83.99C216 85.7185 216.647 87.3844 217.814 88.66C226.736 98.5 235.579 100 240 100C244.421 100 253.344 98.42 262.186 88.66C263.353 87.3844 264 85.7185 264 83.99C264 82.2615 263.353 80.5956 262.186 79.32ZM259.225 86C259.025 86.24 250.423 96.26 240 96C230.137 95.76 222.955 88.4 220.755 86C220.254 85.4541 219.977 84.7405 219.977 84C219.977 83.2595 220.254 82.5459 220.755 82C225.496 76.8 232.658 71.84 240 72C248.862 71.8 256.845 79.4 259.225 82C259.73 82.5437 260.011 83.2582 260.011 84C260.011 84.7418 259.73 85.4563 259.225 86Z" fill="#111111"/>
<path d="M240 76H239.22C239.135 76.0086 239.054 76.0388 238.983 76.0879C238.913 76.1369 238.857 76.203 238.82 76.28C238.776 76.356 238.753 76.4422 238.753 76.53C238.753 76.6178 238.776 76.704 238.82 76.78C239.222 77.3818 239.452 78.0813 239.488 78.8039C239.523 79.5266 239.362 80.2453 239.021 80.8835C238.681 81.5218 238.173 82.0557 237.553 82.4284C236.933 82.8011 236.223 82.9987 235.5 83C234.588 82.9936 233.706 82.6761 233 82.1C232.927 82.0579 232.844 82.0357 232.76 82.0357C232.676 82.0357 232.593 82.0579 232.52 82.1C232.439 82.1246 232.366 82.1712 232.309 82.2348C232.253 82.2983 232.215 82.3763 232.2 82.46C232.078 82.9646 232.011 83.4809 232 84C232 85.5823 232.469 87.129 233.348 88.4446C234.227 89.7602 235.477 90.7855 236.939 91.391C238.4 91.9965 240.009 92.155 241.561 91.8463C243.113 91.5376 244.538 90.7757 245.657 89.6569C246.776 88.538 247.538 87.1126 247.846 85.5607C248.155 84.0089 247.997 82.4003 247.391 80.9385C246.786 79.4767 245.76 78.2273 244.445 77.3482C243.129 76.4692 241.582 76 240 76Z" fill="#111111"/>
</g>
</g>
</g>
</g>
<defs>
<clipPath id="clip0_1107_686">
<rect width="264" height="108" rx="5" fill="white"/>
</clipPath>
<clipPath id="clip1_1107_686">
<rect width="12" height="12" fill="white" transform="translate(0 78)"/>
</clipPath>
<clipPath id="clip2_1107_686">
<rect width="16" height="16" fill="white" transform="translate(24 76)"/>
</clipPath>
<clipPath id="clip3_1107_686">
<rect width="20" height="20" fill="white" transform="translate(52 74)"/>
</clipPath>
<clipPath id="clip4_1107_686">
<rect width="24" height="24" fill="white" transform="translate(84 72)"/>
</clipPath>
<clipPath id="clip5_1107_686">
<rect width="32" height="32" fill="white" transform="translate(120 68)"/>
</clipPath>
<clipPath id="clip6_1107_686">
<rect width="40" height="40" fill="white" transform="translate(164 64)"/>
</clipPath>
<clipPath id="clip7_1107_686">
<rect width="48" height="48" fill="white" transform="translate(216 60)"/>
</clipPath>
</defs>
</svg>
